<?xml version="1.0" encoding="UTF-8" standalone="no"?>
<!DOCTYPE svg PUBLIC "-//W3C//DTD SVG 1.1//EN"
 "http://www.w3.org/Graphics/SVG/1.1/DTD/svg11.dtd">
<!-- Generated by graphviz version 14.0.0 (20250921.2048)
 -->
<!-- Title: G Pages: 1 -->
<svg width="382pt" height="222pt"
 viewBox="0.00 0.00 382.00 222.00" xmlns="http://www.w3.org/2000/svg" xmlns:xlink="http://www.w3.org/1999/xlink">
<g id="graph0" class="graph" transform="scale(1 1) rotate(0) translate(4 218)">
<title>G</title>
<g id="clust1" class="cluster">
<title>cluster_offsets</title>
<path fill="none" stroke="black" stroke-width="2" d="M20,-8C20,-8 354,-8 354,-8 360,-8 366,-14 366,-20 366,-20 366,-57.5 366,-57.5 366,-63.5 360,-69.5 354,-69.5 354,-69.5 20,-69.5 20,-69.5 14,-69.5 8,-63.5 8,-57.5 8,-57.5 8,-20 8,-20 8,-14 14,-8 20,-8"/>
</g>
<!-- node_0 -->
<g id="node1" class="node">
<title>node_0</title>
<polygon fill="none" stroke="black" stroke-width="2" points="187,-214 145.66,-180.62 228.34,-180.62 187,-214"/>
<text xml:space="preserve" text-anchor="middle" x="187" y="-187.47" font-family="Arial" font-size="12.00">4/4</text>
</g>
<!-- node_1 -->
<g id="node2" class="node">
<title>node_1</title>
<polygon fill="none" stroke="black" stroke-width="2" points="106,-133.5 52,-133.5 52,-97.5 106,-97.5 106,-133.5"/>
<text xml:space="preserve" text-anchor="middle" x="79" y="-111.22" font-family="Arial" font-size="12.00">1/4</text>
</g>
<!-- node_0&#45;&gt;node_1 -->
<g id="edge1" class="edge">
<title>node_0&#45;&gt;node_1</title>
<path fill="none" stroke="black" stroke-width="2" d="M171.06,-179.79C156.55,-169.81 134.56,-154.7 115.71,-141.74"/>
<polygon fill="black" stroke="black" stroke-width="2" points="117.78,-138.91 107.55,-136.13 113.81,-144.68 117.78,-138.91"/>
</g>
<!-- node_2 -->
<g id="node3" class="node">
<title>node_2</title>
<polygon fill="none" stroke="black" stroke-width="2" points="178,-133.5 124,-133.5 124,-97.5 178,-97.5 178,-133.5"/>
<text xml:space="preserve" text-anchor="middle" x="151" y="-111.22" font-family="Arial" font-size="12.00">1/4</text>
</g>
<!-- node_0&#45;&gt;node_2 -->
<g id="edge2" class="edge">
<title>node_0&#45;&gt;node_2</title>
<path fill="none" stroke="black" stroke-width="2" d="M181.69,-179.79C177.35,-170.84 171,-157.75 165.2,-145.8"/>
<polygon fill="black" stroke="black" stroke-width="2" points="168.52,-144.61 161.01,-137.14 162.22,-147.66 168.52,-144.61"/>
</g>
<!-- node_3 -->
<g id="node4" class="node">
<title>node_3</title>
<polygon fill="none" stroke="black" stroke-width="2" points="250,-133.5 196,-133.5 196,-97.5 250,-97.5 250,-133.5"/>
<text xml:space="preserve" text-anchor="middle" x="223" y="-111.22" font-family="Arial" font-size="12.00">1/4</text>
</g>
<!-- node_0&#45;&gt;node_3 -->
<g id="edge3" class="edge">
<title>node_0&#45;&gt;node_3</title>
<path fill="none" stroke="black" stroke-width="2" d="M192.31,-179.79C196.65,-170.84 203,-157.75 208.8,-145.8"/>
<polygon fill="black" stroke="black" stroke-width="2" points="211.78,-147.66 212.99,-137.14 205.48,-144.61 211.78,-147.66"/>
</g>
<!-- node_4 -->
<g id="node5" class="node">
<title>node_4</title>
<polygon fill="none" stroke="black" stroke-width="2" points="322,-133.5 268,-133.5 268,-97.5 322,-97.5 322,-133.5"/>
<text xml:space="preserve" text-anchor="middle" x="295" y="-111.22" font-family="Arial" font-size="12.00">1/4</text>
</g>
<!-- node_0&#45;&gt;node_4 -->
<g id="edge4" class="edge">
<title>node_0&#45;&gt;node_4</title>
<path fill="none" stroke="black" stroke-width="2" d="M202.94,-179.79C217.45,-169.81 239.44,-154.7 258.29,-141.74"/>
<polygon fill="black" stroke="black" stroke-width="2" points="260.19,-144.68 266.45,-136.13 256.22,-138.91 260.19,-144.68"/>
</g>
<!-- node_5_0 -->
<g id="node6" class="node">
<title>node_5_0</title>
<path fill="black" stroke="white" stroke-width="2" d="M28,-16.5C28,-16.5 58,-16.5 58,-16.5 64,-16.5 70,-22.5 70,-28.5 70,-28.5 70,-49 70,-49 70,-55 64,-61 58,-61 58,-61 28,-61 28,-61 22,-61 16,-55 16,-49 16,-49 16,-28.5 16,-28.5 16,-22.5 22,-16.5 28,-16.5"/>
<text xml:space="preserve" text-anchor="middle" x="42.75" y="-45.6" font-family="Arial bold" font-size="12.00" fill="white">0</text>
<polyline fill="none" stroke="white" stroke-width="2" points="16,-38.75 69.5,-38.75"/>
<text xml:space="preserve" text-anchor="middle" x="42.75" y="-23.35" font-family="Arial bold" font-size="12.00" fill="white">++</text>
</g>
<!-- node_1&#45;&gt;node_5_0 -->
<g id="edge5" class="edge">
<title>node_1&#45;&gt;node_5_0</title>
<path fill="none" stroke="black" stroke-width="2" stroke-dasharray="1,5" d="M70.47,-96.79C67.09,-89.77 63.08,-81.45 59.19,-73.38"/>
<polygon fill="black" stroke="black" stroke-width="2" points="62.47,-72.11 54.98,-64.62 56.16,-75.14 62.47,-72.11"/>
</g>
<!-- node_5_1 -->
<g id="node7" class="node">
<title>node_5_1</title>
<path fill="black" stroke="white" stroke-width="2" d="M100,-16.5C100,-16.5 130,-16.5 130,-16.5 136,-16.5 142,-22.5 142,-28.5 142,-28.5 142,-49 142,-49 142,-55 136,-61 130,-61 130,-61 100,-61 100,-61 94,-61 88,-55 88,-49 88,-49 88,-28.5 88,-28.5 88,-22.5 94,-16.5 100,-16.5"/>
<text xml:space="preserve" text-anchor="middle" x="114.75" y="-45.6" font-family="Arial bold" font-size="12.00" fill="white">1/4</text>
<polyline fill="none" stroke="white" stroke-width="2" points="88,-38.75 141.5,-38.75"/>
<text xml:space="preserve" text-anchor="middle" x="114.75" y="-23.35" font-family="Arial bold" font-size="12.00" fill="white">+</text>
</g>
<!-- node_1&#45;&gt;node_5_1 -->
<g id="edge6" class="edge">
<title>node_1&#45;&gt;node_5_1</title>
<path fill="none" stroke="black" stroke-width="2" stroke-dasharray="1,5" d="M87.53,-96.79C90.91,-89.77 94.92,-81.45 98.81,-73.38"/>
<polygon fill="black" stroke="black" stroke-width="2" points="101.84,-75.14 103.02,-64.62 95.53,-72.11 101.84,-75.14"/>
</g>
<!-- node_2&#45;&gt;node_5_1 -->
<g id="edge7" class="edge">
<title>node_2&#45;&gt;node_5_1</title>
<path fill="none" stroke="black" stroke-width="2" stroke-dasharray="1,5" d="M142.47,-96.79C139.09,-89.77 135.08,-81.45 131.19,-73.38"/>
<polygon fill="black" stroke="black" stroke-width="2" points="134.47,-72.11 126.98,-64.62 128.16,-75.14 134.47,-72.11"/>
</g>
<!-- node_5_2 -->
<g id="node8" class="node">
<title>node_5_2</title>
<path fill="black" stroke="white" stroke-width="2" d="M172,-16.5C172,-16.5 202,-16.5 202,-16.5 208,-16.5 214,-22.5 214,-28.5 214,-28.5 214,-49 214,-49 214,-55 208,-61 202,-61 202,-61 172,-61 172,-61 166,-61 160,-55 160,-49 160,-49 160,-28.5 160,-28.5 160,-22.5 166,-16.5 172,-16.5"/>
<text xml:space="preserve" text-anchor="middle" x="186.75" y="-45.6" font-family="Arial bold" font-size="12.00" fill="white">1/2</text>
<polyline fill="none" stroke="white" stroke-width="2" points="160,-38.75 213.5,-38.75"/>
<text xml:space="preserve" text-anchor="middle" x="186.75" y="-23.35" font-family="Arial bold" font-size="12.00" fill="white">+</text>
</g>
<!-- node_2&#45;&gt;node_5_2 -->
<g id="edge8" class="edge">
<title>node_2&#45;&gt;node_5_2</title>
<path fill="none" stroke="black" stroke-width="2" stroke-dasharray="1,5" d="M159.53,-96.79C162.91,-89.77 166.92,-81.45 170.81,-73.38"/>
<polygon fill="black" stroke="black" stroke-width="2" points="173.84,-75.14 175.02,-64.62 167.53,-72.11 173.84,-75.14"/>
</g>
<!-- node_3&#45;&gt;node_5_2 -->
<g id="edge9" class="edge">
<title>node_3&#45;&gt;node_5_2</title>
<path fill="none" stroke="black" stroke-width="2" stroke-dasharray="1,5" d="M214.47,-96.79C211.09,-89.77 207.08,-81.45 203.19,-73.38"/>
<polygon fill="black" stroke="black" stroke-width="2" points="206.47,-72.11 198.98,-64.62 200.16,-75.14 206.47,-72.11"/>
</g>
<!-- node_5_3 -->
<g id="node9" class="node">
<title>node_5_3</title>
<path fill="black" stroke="white" stroke-width="2" d="M244,-16.5C244,-16.5 274,-16.5 274,-16.5 280,-16.5 286,-22.5 286,-28.5 286,-28.5 286,-49 286,-49 286,-55 280,-61 274,-61 274,-61 244,-61 244,-61 238,-61 232,-55 232,-49 232,-49 232,-28.5 232,-28.5 232,-22.5 238,-16.5 244,-16.5"/>
<text xml:space="preserve" text-anchor="middle" x="258.75" y="-45.6" font-family="Arial bold" font-size="12.00" fill="white">3/4</text>
<polyline fill="none" stroke="white" stroke-width="2" points="232,-38.75 285.5,-38.75"/>
<text xml:space="preserve" text-anchor="middle" x="258.75" y="-23.35" font-family="Arial bold" font-size="12.00" fill="white">+</text>
</g>
<!-- node_3&#45;&gt;node_5_3 -->
<g id="edge10" class="edge">
<title>node_3&#45;&gt;node_5_3</title>
<path fill="none" stroke="black" stroke-width="2" stroke-dasharray="1,5" d="M231.53,-96.79C234.91,-89.77 238.92,-81.45 242.81,-73.38"/>
<polygon fill="black" stroke="black" stroke-width="2" points="245.84,-75.14 247.02,-64.62 239.53,-72.11 245.84,-75.14"/>
</g>
<!-- node_4&#45;&gt;node_5_3 -->
<g id="edge11" class="edge">
<title>node_4&#45;&gt;node_5_3</title>
<path fill="none" stroke="black" stroke-width="2" stroke-dasharray="1,5" d="M286.47,-96.79C283.09,-89.77 279.08,-81.45 275.19,-73.38"/>
<polygon fill="black" stroke="black" stroke-width="2" points="278.47,-72.11 270.98,-64.62 272.16,-75.14 278.47,-72.11"/>
</g>
<!-- node_5_4 -->
<g id="node10" class="node">
<title>node_5_4</title>
<path fill="none" stroke="black" stroke-width="2" d="M316,-16.5C316,-16.5 346,-16.5 346,-16.5 352,-16.5 358,-22.5 358,-28.5 358,-28.5 358,-49 358,-49 358,-55 352,-61 346,-61 346,-61 316,-61 316,-61 310,-61 304,-55 304,-49 304,-49 304,-28.5 304,-28.5 304,-22.5 310,-16.5 316,-16.5"/>
<text xml:space="preserve" text-anchor="middle" x="330.75" y="-45.6" font-family="Arial" font-size="12.00">1</text>
<polyline fill="none" stroke="black" stroke-width="2" points="304,-38.75 357.5,-38.75"/>
<text xml:space="preserve" text-anchor="middle" x="330.75" y="-23.35" font-family="Arial" font-size="12.00">++</text>
</g>
<!-- node_4&#45;&gt;node_5_4 -->
<g id="edge12" class="edge">
<title>node_4&#45;&gt;node_5_4</title>
<path fill="none" stroke="black" stroke-width="2" stroke-dasharray="1,5" d="M303.53,-96.79C306.91,-89.77 310.92,-81.45 314.81,-73.38"/>
<polygon fill="black" stroke="black" stroke-width="2" points="317.84,-75.14 319.02,-64.62 311.53,-72.11 317.84,-75.14"/>
</g>
</g>
</svg>
