<?xml version="1.0" encoding="UTF-8" standalone="no"?>
<!DOCTYPE svg PUBLIC "-//W3C//DTD SVG 1.1//EN"
 "http://www.w3.org/Graphics/SVG/1.1/DTD/svg11.dtd">
<!-- Generated by graphviz version 12.2.1 (20241206.2353)
 -->
<!-- Title: G Pages: 1 -->
<svg width="238pt" height="222pt"
 viewBox="0.00 0.00 238.00 222.00" xmlns="http://www.w3.org/2000/svg" xmlns:xlink="http://www.w3.org/1999/xlink">
<g id="graph0" class="graph" transform="scale(1 1) rotate(0) translate(4 218)">
<title>G</title>
<g id="clust1" class="cluster">
<title>cluster_offsets</title>
<path fill="none" stroke="black" stroke-width="2" d="M20,-8C20,-8 210,-8 210,-8 216,-8 222,-14 222,-20 222,-20 222,-57.5 222,-57.5 222,-63.5 216,-69.5 210,-69.5 210,-69.5 20,-69.5 20,-69.5 14,-69.5 8,-63.5 8,-57.5 8,-57.5 8,-20 8,-20 8,-14 14,-8 20,-8"/>
</g>
<!-- node_0 -->
<g id="node1" class="node">
<title>node_0</title>
<polygon fill="none" stroke="black" stroke-width="2" points="115,-214 73.66,-180.62 156.34,-180.62 115,-214"/>
<text text-anchor="middle" x="115" y="-187.47" font-family="Arial" font-size="12.00">2/4</text>
</g>
<!-- node_1 -->
<g id="node2" class="node">
<title>node_1</title>
<polygon fill="none" stroke="black" stroke-width="2" points="106,-133.5 52,-133.5 52,-97.5 106,-97.5 106,-133.5"/>
<text text-anchor="middle" x="79" y="-111.22" font-family="Arial" font-size="12.00">1/4</text>
</g>
<!-- node_0&#45;&gt;node_1 -->
<g id="edge1" class="edge">
<title>node_0&#45;&gt;node_1</title>
<path fill="none" stroke="black" stroke-width="2" d="M109.69,-179.79C105.35,-170.84 99,-157.75 93.2,-145.8"/>
<polygon fill="black" stroke="black" stroke-width="2" points="96.52,-144.61 89.01,-137.14 90.22,-147.66 96.52,-144.61"/>
</g>
<!-- node_2 -->
<g id="node3" class="node">
<title>node_2</title>
<polygon fill="none" stroke="black" stroke-width="2" points="178,-133.5 124,-133.5 124,-97.5 178,-97.5 178,-133.5"/>
<text text-anchor="middle" x="151" y="-111.22" font-family="Arial" font-size="12.00">1/4</text>
</g>
<!-- node_0&#45;&gt;node_2 -->
<g id="edge2" class="edge">
<title>node_0&#45;&gt;node_2</title>
<path fill="none" stroke="black" stroke-width="2" d="M120.31,-179.79C124.65,-170.84 131,-157.75 136.8,-145.8"/>
<polygon fill="black" stroke="black" stroke-width="2" points="139.78,-147.66 140.99,-137.14 133.48,-144.61 139.78,-147.66"/>
</g>
<!-- node_3_0 -->
<g id="node4" class="node">
<title>node_3_0</title>
<path fill="black" stroke="white" stroke-width="2" d="M28,-16.5C28,-16.5 58,-16.5 58,-16.5 64,-16.5 70,-22.5 70,-28.5 70,-28.5 70,-49 70,-49 70,-55 64,-61 58,-61 58,-61 28,-61 28,-61 22,-61 16,-55 16,-49 16,-49 16,-28.5 16,-28.5 16,-22.5 22,-16.5 28,-16.5"/>
<text text-anchor="middle" x="42.75" y="-45.6" font-family="Arial bold" font-size="12.00" fill="white">0</text>
<polyline fill="none" stroke="white" stroke-width="2" points="16,-38.75 69.5,-38.75"/>
<text text-anchor="middle" x="42.75" y="-23.35" font-family="Arial bold" font-size="12.00" fill="white">++</text>
</g>
<!-- node_1&#45;&gt;node_3_0 -->
<g id="edge3" class="edge">
<title>node_1&#45;&gt;node_3_0</title>
<path fill="none" stroke="black" stroke-width="2" stroke-dasharray="1,5" d="M70.47,-96.79C67.09,-89.77 63.08,-81.45 59.19,-73.38"/>
<polygon fill="black" stroke="black" stroke-width="2" points="62.47,-72.11 54.98,-64.62 56.16,-75.14 62.47,-72.11"/>
</g>
<!-- node_3_1 -->
<g id="node5" class="node">
<title>node_3_1</title>
<path fill="black" stroke="white" stroke-width="2" d="M100,-16.5C100,-16.5 130,-16.5 130,-16.5 136,-16.5 142,-22.5 142,-28.5 142,-28.5 142,-49 142,-49 142,-55 136,-61 130,-61 130,-61 100,-61 100,-61 94,-61 88,-55 88,-49 88,-49 88,-28.5 88,-28.5 88,-22.5 94,-16.5 100,-16.5"/>
<text text-anchor="middle" x="114.75" y="-45.6" font-family="Arial bold" font-size="12.00" fill="white">1/4</text>
<polyline fill="none" stroke="white" stroke-width="2" points="88,-38.75 141.5,-38.75"/>
<text text-anchor="middle" x="114.75" y="-23.35" font-family="Arial bold" font-size="12.00" fill="white">+</text>
</g>
<!-- node_1&#45;&gt;node_3_1 -->
<g id="edge4" class="edge">
<title>node_1&#45;&gt;node_3_1</title>
<path fill="none" stroke="black" stroke-width="2" stroke-dasharray="1,5" d="M87.53,-96.79C90.91,-89.77 94.92,-81.45 98.81,-73.38"/>
<polygon fill="black" stroke="black" stroke-width="2" points="101.84,-75.14 103.02,-64.62 95.53,-72.11 101.84,-75.14"/>
</g>
<!-- node_2&#45;&gt;node_3_1 -->
<g id="edge5" class="edge">
<title>node_2&#45;&gt;node_3_1</title>
<path fill="none" stroke="black" stroke-width="2" stroke-dasharray="1,5" d="M142.47,-96.79C139.09,-89.77 135.08,-81.45 131.19,-73.38"/>
<polygon fill="black" stroke="black" stroke-width="2" points="134.47,-72.11 126.98,-64.62 128.16,-75.14 134.47,-72.11"/>
</g>
<!-- node_3_2 -->
<g id="node6" class="node">
<title>node_3_2</title>
<path fill="none" stroke="black" stroke-width="2" d="M172,-16.5C172,-16.5 202,-16.5 202,-16.5 208,-16.5 214,-22.5 214,-28.5 214,-28.5 214,-49 214,-49 214,-55 208,-61 202,-61 202,-61 172,-61 172,-61 166,-61 160,-55 160,-49 160,-49 160,-28.5 160,-28.5 160,-22.5 166,-16.5 172,-16.5"/>
<text text-anchor="middle" x="186.75" y="-45.6" font-family="Arial" font-size="12.00">1/2</text>
<polyline fill="none" stroke="black" stroke-width="2" points="160,-38.75 213.5,-38.75"/>
<text text-anchor="middle" x="186.75" y="-23.35" font-family="Arial" font-size="12.00">++</text>
</g>
<!-- node_2&#45;&gt;node_3_2 -->
<g id="edge6" class="edge">
<title>node_2&#45;&gt;node_3_2</title>
<path fill="none" stroke="black" stroke-width="2" stroke-dasharray="1,5" d="M159.53,-96.79C162.91,-89.77 166.92,-81.45 170.81,-73.38"/>
<polygon fill="black" stroke="black" stroke-width="2" points="173.84,-75.14 175.02,-64.62 167.53,-72.11 173.84,-75.14"/>
</g>
</g>
</svg>
