<?xml version="1.0" encoding="UTF-8" standalone="no"?>
<!DOCTYPE svg PUBLIC "-//W3C//DTD SVG 1.1//EN"
 "http://www.w3.org/Graphics/SVG/1.1/DTD/svg11.dtd">
<!-- Generated by graphviz version 2.40.1 (20161225.0304)
 -->
<!-- Title: G Pages: 1 -->
<svg width="310pt" height="220pt"
 viewBox="0.00 0.00 310.00 220.20" xmlns="http://www.w3.org/2000/svg" xmlns:xlink="http://www.w3.org/1999/xlink">
<g id="graph0" class="graph" transform="scale(1 1) rotate(0) translate(4 216.1953)">
<title>G</title>
<g id="clust1" class="cluster">
<title>cluster_offsets</title>
<path fill="transparent" stroke="#000000" stroke-width="2" d="M20,-8C20,-8 282,-8 282,-8 288,-8 294,-14 294,-20 294,-20 294,-56.5977 294,-56.5977 294,-62.5977 288,-68.5977 282,-68.5977 282,-68.5977 20,-68.5977 20,-68.5977 14,-68.5977 8,-62.5977 8,-56.5977 8,-56.5977 8,-20 8,-20 8,-14 14,-8 20,-8"/>
</g>
<!-- node_0 -->
<g id="node1" class="node">
<title>node_0</title>
<polygon fill="none" stroke="#000000" stroke-width="2" points="151,-211.996 109.8675,-179.5967 192.1325,-179.5967 151,-211.996"/>
<text text-anchor="middle" x="151" y="-187.6959" font-family="Arial" font-size="12.00" fill="#000000">3/4</text>
</g>
<!-- node_1 -->
<g id="node2" class="node">
<title>node_1</title>
<polygon fill="none" stroke="#000000" stroke-width="2" points="106,-132.5977 52,-132.5977 52,-96.5977 106,-96.5977 106,-132.5977"/>
<text text-anchor="middle" x="79" y="-111.8971" font-family="Arial" font-size="12.00" fill="#000000">1/4</text>
</g>
<!-- node_0&#45;&gt;node_1 -->
<g id="edge1" class="edge">
<title>node_0&#45;&gt;node_1</title>
<path fill="none" stroke="#000000" stroke-width="2" d="M140.6842,-179.5364C130.9978,-169.3389 116.135,-153.6919 103.4259,-140.3123"/>
<polygon fill="#000000" stroke="#000000" stroke-width="2" points="105.672,-137.5948 96.2472,-132.7549 100.5966,-142.4158 105.672,-137.5948"/>
</g>
<!-- node_2 -->
<g id="node3" class="node">
<title>node_2</title>
<polygon fill="none" stroke="#000000" stroke-width="2" points="178,-132.5977 124,-132.5977 124,-96.5977 178,-96.5977 178,-132.5977"/>
<text text-anchor="middle" x="151" y="-111.8971" font-family="Arial" font-size="12.00" fill="#000000">1/4</text>
</g>
<!-- node_0&#45;&gt;node_2 -->
<g id="edge2" class="edge">
<title>node_0&#45;&gt;node_2</title>
<path fill="none" stroke="#000000" stroke-width="2" d="M151,-179.5364C151,-170.006 151,-155.7159 151,-142.9651"/>
<polygon fill="#000000" stroke="#000000" stroke-width="2" points="154.5001,-142.7548 151,-132.7549 147.5001,-142.7549 154.5001,-142.7548"/>
</g>
<!-- node_3 -->
<g id="node4" class="node">
<title>node_3</title>
<polygon fill="none" stroke="#000000" stroke-width="2" points="250,-132.5977 196,-132.5977 196,-96.5977 250,-96.5977 250,-132.5977"/>
<text text-anchor="middle" x="223" y="-111.8971" font-family="Arial" font-size="12.00" fill="#000000">1/4</text>
</g>
<!-- node_0&#45;&gt;node_3 -->
<g id="edge3" class="edge">
<title>node_0&#45;&gt;node_3</title>
<path fill="none" stroke="#000000" stroke-width="2" d="M161.3158,-179.5364C171.0022,-169.3389 185.865,-153.6919 198.5741,-140.3123"/>
<polygon fill="#000000" stroke="#000000" stroke-width="2" points="201.4034,-142.4158 205.7528,-132.7549 196.328,-137.5948 201.4034,-142.4158"/>
</g>
<!-- node_4_0 -->
<g id="node5" class="node">
<title>node_4_0</title>
<path fill="#000000" stroke="#ffffff" stroke-width="2" d="M28,-16.5C28,-16.5 58,-16.5 58,-16.5 64,-16.5 70,-22.5 70,-28.5 70,-28.5 70,-48.0977 70,-48.0977 70,-54.0977 64,-60.0977 58,-60.0977 58,-60.0977 28,-60.0977 28,-60.0977 22,-60.0977 16,-54.0977 16,-48.0977 16,-48.0977 16,-28.5 16,-28.5 16,-22.5 22,-16.5 28,-16.5"/>
<text text-anchor="middle" x="42.5078" y="-46.4977" font-family="Arial bold" font-size="12.00" fill="#ffffff">0</text>
<polyline fill="none" stroke="#ffffff" stroke-width="2" points="16,-38.2988 69.0156,-38.2988 "/>
<text text-anchor="middle" x="42.5078" y="-24.6988" font-family="Arial bold" font-size="12.00" fill="#ffffff">++</text>
</g>
<!-- node_1&#45;&gt;node_4_0 -->
<g id="edge4" class="edge">
<title>node_1&#45;&gt;node_4_0</title>
<path fill="none" stroke="#000000" stroke-width="2" stroke-dasharray="1,5" d="M70.4685,-96.5159C66.6723,-88.4701 62.0905,-78.7596 57.7663,-69.5946"/>
<polygon fill="#000000" stroke="#000000" stroke-width="2" points="60.8294,-67.8844 53.3968,-60.334 54.4987,-70.8714 60.8294,-67.8844"/>
</g>
<!-- node_4_1 -->
<g id="node6" class="node">
<title>node_4_1</title>
<path fill="#000000" stroke="#ffffff" stroke-width="2" d="M100,-16.5C100,-16.5 130,-16.5 130,-16.5 136,-16.5 142,-22.5 142,-28.5 142,-28.5 142,-48.0977 142,-48.0977 142,-54.0977 136,-60.0977 130,-60.0977 130,-60.0977 100,-60.0977 100,-60.0977 94,-60.0977 88,-54.0977 88,-48.0977 88,-48.0977 88,-28.5 88,-28.5 88,-22.5 94,-16.5 100,-16.5"/>
<text text-anchor="middle" x="114.8408" y="-46.4977" font-family="Arial bold" font-size="12.00" fill="#ffffff">1/4</text>
<polyline fill="none" stroke="#ffffff" stroke-width="2" points="88,-38.2988 141.6816,-38.2988 "/>
<text text-anchor="middle" x="114.8408" y="-24.6988" font-family="Arial bold" font-size="12.00" fill="#ffffff">+</text>
</g>
<!-- node_1&#45;&gt;node_4_1 -->
<g id="edge5" class="edge">
<title>node_1&#45;&gt;node_4_1</title>
<path fill="none" stroke="#000000" stroke-width="2" stroke-dasharray="1,5" d="M87.5315,-96.5159C91.3277,-88.4701 95.9095,-78.7596 100.2337,-69.5946"/>
<polygon fill="#000000" stroke="#000000" stroke-width="2" points="103.5013,-70.8714 104.6032,-60.334 97.1706,-67.8844 103.5013,-70.8714"/>
</g>
<!-- node_2&#45;&gt;node_4_1 -->
<g id="edge6" class="edge">
<title>node_2&#45;&gt;node_4_1</title>
<path fill="none" stroke="#000000" stroke-width="2" stroke-dasharray="1,5" d="M142.4685,-96.5159C138.6723,-88.4701 134.0905,-78.7596 129.7663,-69.5946"/>
<polygon fill="#000000" stroke="#000000" stroke-width="2" points="132.8294,-67.8844 125.3968,-60.334 126.4987,-70.8714 132.8294,-67.8844"/>
</g>
<!-- node_4_2 -->
<g id="node7" class="node">
<title>node_4_2</title>
<path fill="#000000" stroke="#ffffff" stroke-width="2" d="M172,-16.5C172,-16.5 202,-16.5 202,-16.5 208,-16.5 214,-22.5 214,-28.5 214,-28.5 214,-48.0977 214,-48.0977 214,-54.0977 208,-60.0977 202,-60.0977 202,-60.0977 172,-60.0977 172,-60.0977 166,-60.0977 160,-54.0977 160,-48.0977 160,-48.0977 160,-28.5 160,-28.5 160,-22.5 166,-16.5 172,-16.5"/>
<text text-anchor="middle" x="186.8408" y="-46.4977" font-family="Arial bold" font-size="12.00" fill="#ffffff">1/2</text>
<polyline fill="none" stroke="#ffffff" stroke-width="2" points="160,-38.2988 213.6816,-38.2988 "/>
<text text-anchor="middle" x="186.8408" y="-24.6988" font-family="Arial bold" font-size="12.00" fill="#ffffff">+</text>
</g>
<!-- node_2&#45;&gt;node_4_2 -->
<g id="edge7" class="edge">
<title>node_2&#45;&gt;node_4_2</title>
<path fill="none" stroke="#000000" stroke-width="2" stroke-dasharray="1,5" d="M159.5315,-96.5159C163.3277,-88.4701 167.9095,-78.7596 172.2337,-69.5946"/>
<polygon fill="#000000" stroke="#000000" stroke-width="2" points="175.5013,-70.8714 176.6032,-60.334 169.1706,-67.8844 175.5013,-70.8714"/>
</g>
<!-- node_3&#45;&gt;node_4_2 -->
<g id="edge8" class="edge">
<title>node_3&#45;&gt;node_4_2</title>
<path fill="none" stroke="#000000" stroke-width="2" stroke-dasharray="1,5" d="M214.4685,-96.5159C210.6723,-88.4701 206.0905,-78.7596 201.7663,-69.5946"/>
<polygon fill="#000000" stroke="#000000" stroke-width="2" points="204.8294,-67.8844 197.3968,-60.334 198.4987,-70.8714 204.8294,-67.8844"/>
</g>
<!-- node_4_3 -->
<g id="node8" class="node">
<title>node_4_3</title>
<path fill="none" stroke="#000000" stroke-width="2" d="M244,-16.5C244,-16.5 274,-16.5 274,-16.5 280,-16.5 286,-22.5 286,-28.5 286,-28.5 286,-48.0977 286,-48.0977 286,-54.0977 280,-60.0977 274,-60.0977 274,-60.0977 244,-60.0977 244,-60.0977 238,-60.0977 232,-54.0977 232,-48.0977 232,-48.0977 232,-28.5 232,-28.5 232,-22.5 238,-16.5 244,-16.5"/>
<text text-anchor="middle" x="258.8408" y="-46.4977" font-family="Arial" font-size="12.00" fill="#000000">3/4</text>
<polyline fill="none" stroke="#000000" stroke-width="2" points="232,-38.2988 285.6816,-38.2988 "/>
<text text-anchor="middle" x="258.8408" y="-24.6988" font-family="Arial" font-size="12.00" fill="#000000">++</text>
</g>
<!-- node_3&#45;&gt;node_4_3 -->
<g id="edge9" class="edge">
<title>node_3&#45;&gt;node_4_3</title>
<path fill="none" stroke="#000000" stroke-width="2" stroke-dasharray="1,5" d="M231.5315,-96.5159C235.3277,-88.4701 239.9095,-78.7596 244.2337,-69.5946"/>
<polygon fill="#000000" stroke="#000000" stroke-width="2" points="247.5013,-70.8714 248.6032,-60.334 241.1706,-67.8844 247.5013,-70.8714"/>
</g>
</g>
</svg>
