<?xml version="1.0" encoding="UTF-8" standalone="no"?>
<!DOCTYPE svg PUBLIC "-//W3C//DTD SVG 1.1//EN"
 "http://www.w3.org/Graphics/SVG/1.1/DTD/svg11.dtd">
<!-- Generated by graphviz version 2.40.1 (20161225.0304)
 -->
<!-- Title: InheritanceGraph Pages: 1 -->
<svg width="306pt" height="90pt"
 viewBox="0.00 0.00 305.65 90.00" xmlns="http://www.w3.org/2000/svg" xmlns:xlink="http://www.w3.org/1999/xlink">
<g id="graph0" class="graph" transform="scale(1 1) rotate(0) translate(4 86)">
<title>InheritanceGraph</title>
<g id="clust1" class="cluster">
<title>cluster_abjad.system</title>
<path fill="transparent" stroke="#bcd2ee" stroke-width="2" stroke-dasharray="5,2" d="M98.6846,-8C98.6846,-8 277.6494,-8 277.6494,-8 283.6494,-8 289.6494,-14 289.6494,-20 289.6494,-20 289.6494,-62 289.6494,-62 289.6494,-68 283.6494,-74 277.6494,-74 277.6494,-74 98.6846,-74 98.6846,-74 92.6846,-74 86.6846,-68 86.6846,-62 86.6846,-62 86.6846,-20 86.6846,-20 86.6846,-14 92.6846,-8 98.6846,-8"/>
<text text-anchor="middle" x="188.167" y="-62" font-family="Arial" font-size="10.00" fill="#000000">abjad.system</text>
</g>
<g id="clust2" class="cluster">
<title>cluster_builtins</title>
<path fill="transparent" stroke="#bcd2ee" stroke-width="2" stroke-dasharray="5,2" d="M20,-13C20,-13 54.6846,-13 54.6846,-13 60.6846,-13 66.6846,-19 66.6846,-25 66.6846,-25 66.6846,-56 66.6846,-56 66.6846,-62 60.6846,-68 54.6846,-68 54.6846,-68 20,-68 20,-68 14,-68 8,-62 8,-56 8,-56 8,-25 8,-25 8,-19 14,-13 20,-13"/>
<text text-anchor="middle" x="37.3423" y="-56" font-family="Arial" font-size="10.00" fill="#000000">builtins</text>
</g>
<!-- abjad.system.Configuration.Configuration&#45;&gt;abjad.system.AbjadConfiguration.AbjadConfiguration -->
<g id="edge1" class="edge">
<title>abjad.system.Configuration.Configuration&#45;&gt;abjad.system.AbjadConfiguration.AbjadConfiguration</title>
<path fill="none" stroke="#778899" d="M170.1686,-31C178.342,-31 187.0936,-31 195.6093,-31"/>
<polygon fill="#778899" stroke="#778899" points="195.8249,-34.5001 205.8249,-31 195.8248,-27.5001 195.8249,-34.5001"/>
</g>
<!-- builtins.object&#45;&gt;abjad.system.Configuration.Configuration -->
<g id="edge2" class="edge">
<title>builtins.object&#45;&gt;abjad.system.Configuration.Configuration</title>
<path fill="none" stroke="#778899" d="M58.9182,-31C66.5617,-31 75.4969,-31 84.4526,-31"/>
<polygon fill="#778899" stroke="#778899" points="84.5047,-34.5001 94.5047,-31 84.5047,-27.5001 84.5047,-34.5001"/>
</g>
<!-- abjad.system.AbjadConfiguration.AbjadConfiguration -->
<g id="node1" class="node">
<title>abjad.system.AbjadConfiguration.AbjadConfiguration</title>
<g id="a_node1"><a xlink:href="../api/abjad/system/AbjadConfiguration.html#abjad.system.AbjadConfiguration.AbjadConfiguration" xlink:title="Abjad\nConfiguration" target="_top">
<path fill="#000000" stroke="#000000" stroke-width="2" d="M271.5601,-46.498C271.5601,-46.498 216.2563,-46.498 216.2563,-46.498 211.0902,-46.498 205.9242,-41.332 205.9242,-36.166 205.9242,-36.166 205.9242,-25.834 205.9242,-25.834 205.9242,-20.668 211.0902,-15.502 216.2563,-15.502 216.2563,-15.502 271.5601,-15.502 271.5601,-15.502 276.7262,-15.502 281.8922,-20.668 281.8922,-25.834 281.8922,-25.834 281.8922,-36.166 281.8922,-36.166 281.8922,-41.332 276.7262,-46.498 271.5601,-46.498"/>
<text text-anchor="middle" x="243.9082" y="-34.499" font-family="Arial" font-size="10.00" fill="#ffffff">Abjad</text>
<text text-anchor="middle" x="243.9082" y="-23" font-family="Arial" font-size="10.00" fill="#ffffff">Configuration</text>
</a>
</g>
</g>
<!-- abjad.system.Configuration.Configuration -->
<g id="node2" class="node">
<title>abjad.system.Configuration.Configuration</title>
<g id="a_node2"><a xlink:href="../api/abjad/system/Configuration.html#abjad.system.Configuration.Configuration" xlink:title="Configuration" target="_top">
<path fill="#fbb4ae" stroke="#fbb4ae" stroke-width="2" d="M163.7394,-41.0056C163.7394,-41.0056 101.1122,-41.0056 101.1122,-41.0056 97.777,-41.0056 94.4418,-37.6704 94.4418,-34.3352 94.4418,-34.3352 94.4418,-27.6648 94.4418,-27.6648 94.4418,-24.3296 97.777,-20.9944 101.1122,-20.9944 101.1122,-20.9944 163.7394,-20.9944 163.7394,-20.9944 167.0746,-20.9944 170.4098,-24.3296 170.4098,-27.6648 170.4098,-27.6648 170.4098,-34.3352 170.4098,-34.3352 170.4098,-37.6704 167.0746,-41.0056 163.7394,-41.0056"/>
<text text-anchor="middle" x="132.4258" y="-28.7495" font-family="Arial" font-size="10.00" fill="#000000">Configuration</text>
</a>
</g>
</g>
<!-- builtins.object -->
<g id="node3" class="node">
<title>builtins.object</title>
<g id="a_node3"><a xlink:href="https://docs.python.org/3.6/library/functions.html#object" xlink:title="object" target="_top">
<path fill="#b3cde3" stroke="#b3cde3" stroke-width="2" d="M51.8576,-41.0056C51.8576,-41.0056 22.8269,-41.0056 22.8269,-41.0056 19.4918,-41.0056 16.1566,-37.6704 16.1566,-34.3352 16.1566,-34.3352 16.1566,-27.6648 16.1566,-27.6648 16.1566,-24.3296 19.4918,-20.9944 22.8269,-20.9944 22.8269,-20.9944 51.8576,-20.9944 51.8576,-20.9944 55.1928,-20.9944 58.528,-24.3296 58.528,-27.6648 58.528,-27.6648 58.528,-34.3352 58.528,-34.3352 58.528,-37.6704 55.1928,-41.0056 51.8576,-41.0056"/>
<text text-anchor="middle" x="37.3423" y="-28.7495" font-family="Arial" font-size="10.00" fill="#000000">object</text>
</a>
</g>
</g>
</g>
</svg>
