<?xml version="1.0" encoding="UTF-8" standalone="no"?>
<!DOCTYPE svg PUBLIC "-//W3C//DTD SVG 1.1//EN"
 "http://www.w3.org/Graphics/SVG/1.1/DTD/svg11.dtd">
<!-- Generated by graphviz version 2.40.1 (20161225.0304)
 -->
<!-- Title: InheritanceGraph Pages: 1 -->
<svg width="429pt" height="245pt"
 viewBox="0.00 0.00 428.52 245.00" xmlns="http://www.w3.org/2000/svg" xmlns:xlink="http://www.w3.org/1999/xlink">
<g id="graph0" class="graph" transform="scale(1 1) rotate(0) translate(4 241)">
<title>InheritanceGraph</title>
<g id="clust1" class="cluster">
<title>cluster_abc</title>
<path fill="transparent" stroke="#bcd2ee" stroke-width="2" stroke-dasharray="5,2" d="M93,-147C93,-147 117,-147 117,-147 123,-147 129,-153 129,-159 129,-159 129,-190 129,-190 129,-196 123,-202 117,-202 117,-202 93,-202 93,-202 87,-202 81,-196 81,-190 81,-190 81,-159 81,-159 81,-153 87,-147 93,-147"/>
<text text-anchor="middle" x="105" y="-190" font-family="Arial" font-size="10.00" fill="#000000">abc</text>
</g>
<g id="clust2" class="cluster">
<title>cluster_abjad.cli</title>
<path fill="transparent" stroke="#bcd2ee" stroke-width="2" stroke-dasharray="5,2" d="M364.5219,-8C364.5219,-8 400.5219,-8 400.5219,-8 406.5219,-8 412.5219,-14 412.5219,-20 412.5219,-20 412.5219,-217 412.5219,-217 412.5219,-223 406.5219,-229 400.5219,-229 400.5219,-229 364.5219,-229 364.5219,-229 358.5219,-229 352.5219,-223 352.5219,-217 352.5219,-217 352.5219,-20 352.5219,-20 352.5219,-14 358.5219,-8 364.5219,-8"/>
<text text-anchor="middle" x="382.5219" y="-217" font-family="Arial" font-size="10.00" fill="#000000">abjad.cli</text>
</g>
<g id="clust3" class="cluster">
<title>cluster_builtins</title>
<path fill="transparent" stroke="#bcd2ee" stroke-width="2" stroke-dasharray="5,2" d="M20,-147C20,-147 49,-147 49,-147 55,-147 61,-153 61,-159 61,-159 61,-190 61,-190 61,-196 55,-202 49,-202 49,-202 20,-202 20,-202 14,-202 8,-196 8,-190 8,-190 8,-159 8,-159 8,-153 14,-147 20,-147"/>
<text text-anchor="middle" x="34.5" y="-190" font-family="Arial" font-size="10.00" fill="#000000">builtins</text>
</g>
<g id="clust4" class="cluster">
<title>cluster_uqbar.cli</title>
<path fill="transparent" stroke="#bcd2ee" stroke-width="2" stroke-dasharray="5,2" d="M161,-144C161,-144 320.5219,-144 320.5219,-144 326.5219,-144 332.5219,-150 332.5219,-156 332.5219,-156 332.5219,-193 332.5219,-193 332.5219,-199 326.5219,-205 320.5219,-205 320.5219,-205 161,-205 161,-205 155,-205 149,-199 149,-193 149,-193 149,-156 149,-156 149,-150 155,-144 161,-144"/>
<text text-anchor="middle" x="240.7609" y="-193" font-family="Arial" font-size="10.00" fill="#000000">uqbar.cli</text>
</g>
<!-- abc.ABC&#45;&gt;uqbar.cli.CLI.CLI -->
<g id="edge2" class="edge">
<title>abc.ABC&#45;&gt;uqbar.cli.CLI.CLI</title>
<path fill="none" stroke="#778899" d="M121.2923,-165C128.8224,-165 138.0128,-165 146.7317,-165"/>
<polygon fill="#778899" stroke="#778899" points="146.9896,-168.5001 156.9895,-165 146.9895,-161.5001 146.9896,-168.5001"/>
</g>
<!-- builtins.object&#45;&gt;abc.ABC -->
<g id="edge3" class="edge">
<title>builtins.object&#45;&gt;abc.ABC</title>
<path fill="none" stroke="#778899" d="M53.023,-165C60.8254,-165 70.0511,-165 78.5482,-165"/>
<polygon fill="#778899" stroke="#778899" points="78.7595,-168.5001 88.7595,-165 78.7595,-161.5001 78.7595,-168.5001"/>
</g>
<!-- uqbar.cli.CLI.CLI&#45;&gt;abjad.cli.CleanScript -->
<g id="edge4" class="edge">
<title>uqbar.cli.CLI.CLI&#45;&gt;abjad.cli.CleanScript</title>
<path fill="none" stroke="#778899" d="M193.0208,-157.2574C203.9568,-152.377 218.8453,-146.3792 232.598,-143 274.0288,-132.8199 323.4742,-129.117 353.9359,-127.77"/>
<polygon fill="#778899" stroke="#778899" points="354.3918,-131.2552 364.2496,-127.3728 354.1223,-124.2604 354.3918,-131.2552"/>
</g>
<!-- uqbar.cli.CLI.CLI&#45;&gt;abjad.cli.ReplaceScript -->
<g id="edge5" class="edge">
<title>uqbar.cli.CLI.CLI&#45;&gt;abjad.cli.ReplaceScript</title>
<path fill="none" stroke="#778899" d="M189.3358,-154.1866C200.1728,-145.3037 216.5761,-132.9346 232.598,-125 271.1774,-105.8941 319.2971,-92.8407 350.4526,-85.6521"/>
<polygon fill="#778899" stroke="#778899" points="351.3371,-89.0408 360.3297,-83.4388 349.8064,-82.2102 351.3371,-89.0408"/>
</g>
<!-- uqbar.cli.CLI.CLI&#45;&gt;abjad.cli.StatsScript -->
<g id="edge6" class="edge">
<title>uqbar.cli.CLI.CLI&#45;&gt;abjad.cli.StatsScript</title>
<path fill="none" stroke="#778899" d="M182.8677,-151.9427C191.5618,-134.5727 209.1381,-103.9726 232.598,-86 269.3762,-57.8242 322.023,-42.997 354.1497,-36.0973"/>
<polygon fill="#778899" stroke="#778899" points="355.1031,-39.4752 364.2056,-34.0535 353.7088,-32.6154 355.1031,-39.4752"/>
</g>
<!-- uqbar.cli.CLI.CLI&#45;&gt;uqbar.cli.CLIAggregator.CLIAggregator -->
<g id="edge1" class="edge">
<title>uqbar.cli.CLI.CLI&#45;&gt;uqbar.cli.CLIAggregator.CLIAggregator</title>
<path fill="none" stroke="#778899" d="M196.9037,-165C204.3105,-165 213.1111,-165 222.1472,-165"/>
<polygon fill="#778899" stroke="#778899" points="222.3876,-168.5001 232.3876,-165 222.3876,-161.5001 222.3876,-168.5001"/>
</g>
<!-- uqbar.cli.CLIAggregator.CLIAggregator&#45;&gt;abjad.cli.AbjDevScript -->
<g id="edge7" class="edge">
<title>uqbar.cli.CLIAggregator.CLIAggregator&#45;&gt;abjad.cli.AbjDevScript</title>
<path fill="none" stroke="#778899" d="M319.35,-171.2777C331.0401,-173.0768 343.5228,-174.998 354.2787,-176.6533"/>
<polygon fill="#778899" stroke="#778899" points="353.9497,-180.1438 364.3657,-178.2057 355.0145,-173.2253 353.9497,-180.1438"/>
</g>
<!-- abc.ABC -->
<g id="node1" class="node">
<title>abc.ABC</title>
<g id="a_node1"><a xlink:href="https://docs.python.org/3.6/library/abc.html#abc.ABC" xlink:title="ABC" target="_top">
<path fill="#fbb4ae" stroke="#fbb4ae" stroke-width="2" d="M114.6667,-174.5C114.6667,-174.5 95.3333,-174.5 95.3333,-174.5 92.1667,-174.5 89,-171.3333 89,-168.1667 89,-168.1667 89,-161.8333 89,-161.8333 89,-158.6667 92.1667,-155.5 95.3333,-155.5 95.3333,-155.5 114.6667,-155.5 114.6667,-155.5 117.8333,-155.5 121,-158.6667 121,-161.8333 121,-161.8333 121,-168.1667 121,-168.1667 121,-171.3333 117.8333,-174.5 114.6667,-174.5"/>
<text text-anchor="middle" x="105" y="-162.5" font-family="Arial" font-size="10.00" fill="#000000">ABC</text>
</a>
</g>
</g>
<!-- abjad.cli.AbjDevScript -->
<g id="node2" class="node">
<title>abjad.cli.AbjDevScript</title>
<g id="a_node2"><a xlink:href="../api/abjad/cli.html#abjad.cli.AbjDevScript" xlink:title="Abj\nDev\nScript" target="_top">
<path fill="#000000" stroke="#000000" stroke-width="2" d="M388.5219,-201.5C388.5219,-201.5 376.5219,-201.5 376.5219,-201.5 370.5219,-201.5 364.5219,-195.5 364.5219,-189.5 364.5219,-189.5 364.5219,-172.5 364.5219,-172.5 364.5219,-166.5 370.5219,-160.5 376.5219,-160.5 376.5219,-160.5 388.5219,-160.5 388.5219,-160.5 394.5219,-160.5 400.5219,-166.5 400.5219,-172.5 400.5219,-172.5 400.5219,-189.5 400.5219,-189.5 400.5219,-195.5 394.5219,-201.5 388.5219,-201.5"/>
<text text-anchor="middle" x="382.5219" y="-189.5" font-family="Arial" font-size="10.00" fill="#ffffff">Abj</text>
<text text-anchor="middle" x="382.5219" y="-178.5" font-family="Arial" font-size="10.00" fill="#ffffff">Dev</text>
<text text-anchor="middle" x="382.5219" y="-167.5" font-family="Arial" font-size="10.00" fill="#ffffff">Script</text>
</a>
</g>
</g>
<!-- abjad.cli.CleanScript -->
<g id="node3" class="node">
<title>abjad.cli.CleanScript</title>
<g id="a_node3"><a xlink:href="../api/abjad/cli.html#abjad.cli.CleanScript" xlink:title="Clean\nScript" target="_top">
<path fill="#000000" stroke="#000000" stroke-width="2" d="M390.5219,-142C390.5219,-142 374.5219,-142 374.5219,-142 369.5219,-142 364.5219,-137 364.5219,-132 364.5219,-132 364.5219,-122 364.5219,-122 364.5219,-117 369.5219,-112 374.5219,-112 374.5219,-112 390.5219,-112 390.5219,-112 395.5219,-112 400.5219,-117 400.5219,-122 400.5219,-122 400.5219,-132 400.5219,-132 400.5219,-137 395.5219,-142 390.5219,-142"/>
<text text-anchor="middle" x="382.5219" y="-130" font-family="Arial" font-size="10.00" fill="#ffffff">Clean</text>
<text text-anchor="middle" x="382.5219" y="-119" font-family="Arial" font-size="10.00" fill="#ffffff">Script</text>
</a>
</g>
</g>
<!-- abjad.cli.ReplaceScript -->
<g id="node4" class="node">
<title>abjad.cli.ReplaceScript</title>
<g id="a_node4"><a xlink:href="../api/abjad/cli.html#abjad.cli.ReplaceScript" xlink:title="Replace\nScript" target="_top">
<path fill="#000000" stroke="#000000" stroke-width="2" d="M394.5219,-94C394.5219,-94 370.5219,-94 370.5219,-94 365.5219,-94 360.5219,-89 360.5219,-84 360.5219,-84 360.5219,-74 360.5219,-74 360.5219,-69 365.5219,-64 370.5219,-64 370.5219,-64 394.5219,-64 394.5219,-64 399.5219,-64 404.5219,-69 404.5219,-74 404.5219,-74 404.5219,-84 404.5219,-84 404.5219,-89 399.5219,-94 394.5219,-94"/>
<text text-anchor="middle" x="382.5219" y="-82" font-family="Arial" font-size="10.00" fill="#ffffff">Replace</text>
<text text-anchor="middle" x="382.5219" y="-71" font-family="Arial" font-size="10.00" fill="#ffffff">Script</text>
</a>
</g>
</g>
<!-- abjad.cli.StatsScript -->
<g id="node5" class="node">
<title>abjad.cli.StatsScript</title>
<g id="a_node5"><a xlink:href="../api/abjad/cli.html#abjad.cli.StatsScript" xlink:title="Stats\nScript" target="_top">
<path fill="#000000" stroke="#000000" stroke-width="2" d="M390.5219,-46C390.5219,-46 374.5219,-46 374.5219,-46 369.5219,-46 364.5219,-41 364.5219,-36 364.5219,-36 364.5219,-26 364.5219,-26 364.5219,-21 369.5219,-16 374.5219,-16 374.5219,-16 390.5219,-16 390.5219,-16 395.5219,-16 400.5219,-21 400.5219,-26 400.5219,-26 400.5219,-36 400.5219,-36 400.5219,-41 395.5219,-46 390.5219,-46"/>
<text text-anchor="middle" x="382.5219" y="-34" font-family="Arial" font-size="10.00" fill="#ffffff">Stats</text>
<text text-anchor="middle" x="382.5219" y="-23" font-family="Arial" font-size="10.00" fill="#ffffff">Script</text>
</a>
</g>
</g>
<!-- builtins.object -->
<g id="node6" class="node">
<title>builtins.object</title>
<g id="a_node6"><a xlink:href="https://docs.python.org/3.6/library/functions.html#object" xlink:title="object" target="_top">
<path fill="#ccebc5" stroke="#ccebc5" stroke-width="2" d="M46.6667,-174.5C46.6667,-174.5 22.3333,-174.5 22.3333,-174.5 19.1667,-174.5 16,-171.3333 16,-168.1667 16,-168.1667 16,-161.8333 16,-161.8333 16,-158.6667 19.1667,-155.5 22.3333,-155.5 22.3333,-155.5 46.6667,-155.5 46.6667,-155.5 49.8333,-155.5 53,-158.6667 53,-161.8333 53,-161.8333 53,-168.1667 53,-168.1667 53,-171.3333 49.8333,-174.5 46.6667,-174.5"/>
<text text-anchor="middle" x="34.5" y="-162.5" font-family="Arial" font-size="10.00" fill="#000000">object</text>
</a>
</g>
</g>
<!-- uqbar.cli.CLI.CLI -->
<g id="node7" class="node">
<title>uqbar.cli.CLI.CLI</title>
<g id="a_node7"><a xlink:href="http://josiahwolfoberholtzer.com/uqbar/api/uqbar/cli/CLI.html#uqbar.cli.CLI.CLI" xlink:title="CLI" target="_top">
<ellipse fill="none" stroke="#decbe4" stroke-width="2" cx="176.799" cy="-165" rx="19.6" ry="13.3704"/>
<text text-anchor="middle" x="176.799" y="-162.5" font-family="Arial" font-size="10.00" fill="#000000">CLI</text>
</a>
</g>
</g>
<!-- uqbar.cli.CLIAggregator.CLIAggregator -->
<g id="node8" class="node">
<title>uqbar.cli.CLIAggregator.CLIAggregator</title>
<g id="a_node8"><a xlink:href="http://josiahwolfoberholtzer.com/uqbar/api/uqbar/cli/CLIAggregator.html#uqbar.cli.CLIAggregator.CLIAggregator" xlink:title="CLIAggregator" target="_top">
<ellipse fill="none" stroke="#decbe4" stroke-width="2" cx="278.5599" cy="-165" rx="45.9239" ry="13.3704"/>
<text text-anchor="middle" x="278.5599" y="-162.5" font-family="Arial" font-size="10.00" fill="#000000">CLIAggregator</text>
</a>
</g>
</g>
</g>
</svg>
