<?xml version="1.0" encoding="UTF-8" standalone="no"?>
<!DOCTYPE svg PUBLIC "-//W3C//DTD SVG 1.1//EN"
 "http://www.w3.org/Graphics/SVG/1.1/DTD/svg11.dtd">
<!-- Generated by graphviz version 2.40.1 (20161225.0304)
 -->
<!-- Title: InheritanceGraph Pages: 1 -->
<svg width="266pt" height="139pt"
 viewBox="0.00 0.00 266.17 139.00" xmlns="http://www.w3.org/2000/svg" xmlns:xlink="http://www.w3.org/1999/xlink">
<g id="graph0" class="graph" transform="scale(1 1) rotate(0) translate(4 135)">
<title>InheritanceGraph</title>
<g id="clust1" class="cluster">
<title>cluster_abjad.pitch</title>
<path fill="transparent" stroke="#bcd2ee" stroke-width="2" stroke-dasharray="5,2" d="M98.6846,-8C98.6846,-8 238.167,-8 238.167,-8 244.167,-8 250.167,-14 250.167,-20 250.167,-20 250.167,-111 250.167,-111 250.167,-117 244.167,-123 238.167,-123 238.167,-123 98.6846,-123 98.6846,-123 92.6846,-123 86.6846,-117 86.6846,-111 86.6846,-111 86.6846,-20 86.6846,-20 86.6846,-14 92.6846,-8 98.6846,-8"/>
<text text-anchor="middle" x="168.4258" y="-111" font-family="Arial" font-size="10.00" fill="#000000">abjad.pitch</text>
</g>
<g id="clust2" class="cluster">
<title>cluster_builtins</title>
<path fill="transparent" stroke="#bcd2ee" stroke-width="2" stroke-dasharray="5,2" d="M20,-37C20,-37 54.6846,-37 54.6846,-37 60.6846,-37 66.6846,-43 66.6846,-49 66.6846,-49 66.6846,-80 66.6846,-80 66.6846,-86 60.6846,-92 54.6846,-92 54.6846,-92 20,-92 20,-92 14,-92 8,-86 8,-80 8,-80 8,-49 8,-49 8,-43 14,-37 20,-37"/>
<text text-anchor="middle" x="37.3423" y="-80" font-family="Arial" font-size="10.00" fill="#000000">builtins</text>
</g>
<!-- abjad.pitch.Interval.Interval&#45;&gt;abjad.pitch.NamedInterval.NamedInterval -->
<g id="edge1" class="edge">
<title>abjad.pitch.Interval.Interval&#45;&gt;abjad.pitch.NamedInterval.NamedInterval</title>
<path fill="none" stroke="#778899" d="M143.666,-48.5684C153.8251,-45.9108 165.7739,-42.7849 176.7546,-39.9123"/>
<polygon fill="#778899" stroke="#778899" points="177.699,-43.2831 186.4876,-37.3661 175.9273,-36.511 177.699,-43.2831"/>
</g>
<!-- abjad.pitch.Interval.Interval&#45;&gt;abjad.pitch.NumberedInterval.NumberedInterval -->
<g id="edge2" class="edge">
<title>abjad.pitch.Interval.Interval&#45;&gt;abjad.pitch.NumberedInterval.NumberedInterval</title>
<path fill="none" stroke="#778899" d="M143.666,-61.6995C151.6871,-63.8853 160.8239,-66.3752 169.719,-68.7991"/>
<polygon fill="#778899" stroke="#778899" points="169.0184,-72.2358 179.5868,-71.4882 170.8589,-65.482 169.0184,-72.2358"/>
</g>
<!-- builtins.object&#45;&gt;abjad.pitch.Interval.Interval -->
<g id="edge3" class="edge">
<title>builtins.object&#45;&gt;abjad.pitch.Interval.Interval</title>
<path fill="none" stroke="#778899" d="M58.8182,-55C66.6198,-55 75.6488,-55 84.3048,-55"/>
<polygon fill="#778899" stroke="#778899" points="84.5706,-58.5001 94.5706,-55 84.5705,-51.5001 84.5706,-58.5001"/>
</g>
<!-- abjad.pitch.Interval.Interval -->
<g id="node1" class="node">
<title>abjad.pitch.Interval.Interval</title>
<g id="a_node1"><a xlink:href="../api/abjad/pitch/Interval.html#abjad.pitch.Interval.Interval" xlink:title="Interval" target="_top">
<path fill="#000000" stroke="#000000" stroke-width="2" d="M136.7041,-65.0056C136.7041,-65.0056 101.458,-65.0056 101.458,-65.0056 98.1228,-65.0056 94.7876,-61.6704 94.7876,-58.3352 94.7876,-58.3352 94.7876,-51.6648 94.7876,-51.6648 94.7876,-48.3296 98.1228,-44.9944 101.458,-44.9944 101.458,-44.9944 136.7041,-44.9944 136.7041,-44.9944 140.0393,-44.9944 143.3745,-48.3296 143.3745,-51.6648 143.3745,-51.6648 143.3745,-58.3352 143.3745,-58.3352 143.3745,-61.6704 140.0393,-65.0056 136.7041,-65.0056"/>
<text text-anchor="middle" x="119.0811" y="-52.7495" font-family="Arial" font-size="10.00" fill="#ffffff">Interval</text>
</a>
</g>
</g>
<!-- abjad.pitch.NamedInterval.NamedInterval -->
<g id="node2" class="node">
<title>abjad.pitch.NamedInterval.NamedInterval</title>
<g id="a_node2"><a xlink:href="../api/abjad/pitch/NamedInterval.html#abjad.pitch.NamedInterval.NamedInterval" xlink:title="Named\nInterval" target="_top">
<path fill="#fbb4ae" stroke="#fbb4ae" stroke-width="2" d="M224.7836,-46.498C224.7836,-46.498 196.8609,-46.498 196.8609,-46.498 191.6949,-46.498 186.5289,-41.332 186.5289,-36.166 186.5289,-36.166 186.5289,-25.834 186.5289,-25.834 186.5289,-20.668 191.6949,-15.502 196.8609,-15.502 196.8609,-15.502 224.7836,-15.502 224.7836,-15.502 229.9497,-15.502 235.1157,-20.668 235.1157,-25.834 235.1157,-25.834 235.1157,-36.166 235.1157,-36.166 235.1157,-41.332 229.9497,-46.498 224.7836,-46.498"/>
<text text-anchor="middle" x="210.8223" y="-34.499" font-family="Arial" font-size="10.00" fill="#000000">Named</text>
<text text-anchor="middle" x="210.8223" y="-23" font-family="Arial" font-size="10.00" fill="#000000">Interval</text>
</a>
</g>
</g>
<!-- abjad.pitch.NumberedInterval.NumberedInterval -->
<g id="node3" class="node">
<title>abjad.pitch.NumberedInterval.NumberedInterval</title>
<g id="a_node3"><a xlink:href="../api/abjad/pitch/NumberedInterval.html#abjad.pitch.NumberedInterval.NumberedInterval" xlink:title="Numbered\nInterval" target="_top">
<path fill="#fbb4ae" stroke="#fbb4ae" stroke-width="2" d="M231.6805,-95.498C231.6805,-95.498 189.9641,-95.498 189.9641,-95.498 184.7981,-95.498 179.632,-90.332 179.632,-85.166 179.632,-85.166 179.632,-74.834 179.632,-74.834 179.632,-69.668 184.7981,-64.502 189.9641,-64.502 189.9641,-64.502 231.6805,-64.502 231.6805,-64.502 236.8465,-64.502 242.0125,-69.668 242.0125,-74.834 242.0125,-74.834 242.0125,-85.166 242.0125,-85.166 242.0125,-90.332 236.8465,-95.498 231.6805,-95.498"/>
<text text-anchor="middle" x="210.8223" y="-83.499" font-family="Arial" font-size="10.00" fill="#000000">Numbered</text>
<text text-anchor="middle" x="210.8223" y="-72" font-family="Arial" font-size="10.00" fill="#000000">Interval</text>
</a>
</g>
</g>
<!-- builtins.object -->
<g id="node4" class="node">
<title>builtins.object</title>
<g id="a_node4"><a xlink:href="https://docs.python.org/3.6/library/functions.html#object" xlink:title="object" target="_top">
<path fill="#b3cde3" stroke="#b3cde3" stroke-width="2" d="M51.8576,-65.0056C51.8576,-65.0056 22.8269,-65.0056 22.8269,-65.0056 19.4918,-65.0056 16.1566,-61.6704 16.1566,-58.3352 16.1566,-58.3352 16.1566,-51.6648 16.1566,-51.6648 16.1566,-48.3296 19.4918,-44.9944 22.8269,-44.9944 22.8269,-44.9944 51.8576,-44.9944 51.8576,-44.9944 55.1928,-44.9944 58.528,-48.3296 58.528,-51.6648 58.528,-51.6648 58.528,-58.3352 58.528,-58.3352 58.528,-61.6704 55.1928,-65.0056 51.8576,-65.0056"/>
<text text-anchor="middle" x="37.3423" y="-52.7495" font-family="Arial" font-size="10.00" fill="#000000">object</text>
</a>
</g>
</g>
</g>
</svg>
