<?xml version="1.0" encoding="UTF-8" standalone="no"?>
<!DOCTYPE svg PUBLIC "-//W3C//DTD SVG 1.1//EN"
 "http://www.w3.org/Graphics/SVG/1.1/DTD/svg11.dtd">
<!-- Generated by graphviz version 2.40.1 (20161225.0304)
 -->
<!-- Title: InheritanceGraph Pages: 1 -->
<svg width="507pt" height="438pt"
 viewBox="0.00 0.00 507.00 438.00" xmlns="http://www.w3.org/2000/svg" xmlns:xlink="http://www.w3.org/1999/xlink">
<g id="graph0" class="graph" transform="scale(1 1) rotate(0) translate(4 434)">
<title>InheritanceGraph</title>
<g id="clust1" class="cluster">
<title>cluster_abjad.core</title>
<path fill="transparent" stroke="#bcd2ee" stroke-width="2" stroke-dasharray="5,2" d="M93,-8C93,-8 479,-8 479,-8 485,-8 491,-14 491,-20 491,-20 491,-410 491,-410 491,-416 485,-422 479,-422 479,-422 93,-422 93,-422 87,-422 81,-416 81,-410 81,-410 81,-20 81,-20 81,-14 87,-8 93,-8"/>
<text text-anchor="middle" x="286" y="-410" font-family="Arial" font-size="10.00" fill="#000000">abjad.core</text>
</g>
<g id="clust2" class="cluster">
<title>cluster_builtins</title>
<path fill="transparent" stroke="#bcd2ee" stroke-width="2" stroke-dasharray="5,2" d="M20,-216C20,-216 49,-216 49,-216 55,-216 61,-222 61,-228 61,-228 61,-259 61,-259 61,-265 55,-271 49,-271 49,-271 20,-271 20,-271 14,-271 8,-265 8,-259 8,-259 8,-228 8,-228 8,-222 14,-216 20,-216"/>
<text text-anchor="middle" x="34.5" y="-259" font-family="Arial" font-size="10.00" fill="#000000">builtins</text>
</g>
<!-- abjad.core.Component.Component&#45;&gt;abjad.core.Container.Container -->
<g id="edge1" class="edge">
<title>abjad.core.Component.Component&#45;&gt;abjad.core.Container.Container</title>
<path fill="none" stroke="#778899" d="M127.6453,-224.2479C142.1921,-211.5194 167.8701,-189.0511 185.5134,-173.6133"/>
<polygon fill="#778899" stroke="#778899" points="188.2242,-175.892 193.4452,-166.6729 183.6147,-170.624 188.2242,-175.892"/>
</g>
<!-- abjad.core.Component.Component&#45;&gt;abjad.core.Leaf.Leaf -->
<g id="edge2" class="edge">
<title>abjad.core.Component.Component&#45;&gt;abjad.core.Leaf.Leaf</title>
<path fill="none" stroke="#778899" d="M127.2905,-243.5643C141.937,-256.5464 168.3206,-279.9319 186.1201,-295.7087"/>
<polygon fill="#778899" stroke="#778899" points="183.8161,-298.3436 193.6212,-302.3574 188.4593,-293.1051 183.8161,-298.3436"/>
</g>
<!-- abjad.core.Container.Container&#45;&gt;abjad.core.AfterGraceContainer.AfterGraceContainer -->
<g id="edge3" class="edge">
<title>abjad.core.Container.Container&#45;&gt;abjad.core.AfterGraceContainer.AfterGraceContainer</title>
<path fill="none" stroke="#778899" d="M211.4559,-147.1799C223.8525,-129.6788 250.2118,-92.4657 268.8582,-66.1414"/>
<polygon fill="#778899" stroke="#778899" points="271.9306,-67.859 274.8547,-57.6757 266.2184,-63.8129 271.9306,-67.859"/>
</g>
<!-- abjad.core.Container.Container&#45;&gt;abjad.core.BeforeGraceContainer.BeforeGraceContainer -->
<g id="edge4" class="edge">
<title>abjad.core.Container.Container&#45;&gt;abjad.core.BeforeGraceContainer.BeforeGraceContainer</title>
<path fill="none" stroke="#778899" d="M210.8611,-147.3067C220.8556,-132.7226 241.5349,-105.034 265,-88 284.1741,-74.081 292.2981,-76.5083 314,-67 324.725,-62.301 336.3815,-57.1109 346.9194,-52.3873"/>
<polygon fill="#778899" stroke="#778899" points="348.536,-55.4981 356.2239,-48.208 345.6678,-49.1127 348.536,-55.4981"/>
</g>
<!-- abjad.core.Container.Container&#45;&gt;abjad.core.Cluster.Cluster -->
<g id="edge5" class="edge">
<title>abjad.core.Container.Container&#45;&gt;abjad.core.Cluster.Cluster</title>
<path fill="none" stroke="#778899" d="M220.4878,-147.4073C232.9539,-139.9277 250.4867,-129.408 264.7605,-120.8437"/>
<polygon fill="#778899" stroke="#778899" points="266.8096,-123.6959 273.5838,-115.5497 263.2081,-117.6935 266.8096,-123.6959"/>
</g>
<!-- abjad.core.Container.Container&#45;&gt;abjad.core.Context.Context -->
<g id="edge6" class="edge">
<title>abjad.core.Container.Container&#45;&gt;abjad.core.Context.Context</title>
<path fill="none" stroke="#778899" d="M229.0855,-152.9506C238.2313,-151.4443 248.7318,-149.7148 258.3861,-148.1246"/>
<polygon fill="#778899" stroke="#778899" points="259.1274,-151.5498 268.4256,-146.4711 257.9897,-144.6428 259.1274,-151.5498"/>
</g>
<!-- abjad.core.Container.Container&#45;&gt;abjad.core.OnBeatGraceContainer.OnBeatGraceContainer -->
<g id="edge7" class="edge">
<title>abjad.core.Container.Container&#45;&gt;abjad.core.OnBeatGraceContainer.OnBeatGraceContainer</title>
<path fill="none" stroke="#778899" d="M229.2282,-160.0043C251.9664,-163.3736 286.256,-170.0091 314,-182 325.6563,-187.0378 337.4562,-194.1482 347.8373,-201.2324"/>
<polygon fill="#778899" stroke="#778899" points="346.002,-204.221 356.1894,-207.1308 350.0401,-198.5032 346.002,-204.221"/>
</g>
<!-- abjad.core.Container.Container&#45;&gt;abjad.core.TremoloContainer.TremoloContainer -->
<g id="edge8" class="edge">
<title>abjad.core.Container.Container&#45;&gt;abjad.core.TremoloContainer.TremoloContainer</title>
<path fill="none" stroke="#778899" d="M221.2933,-166.6808C231.1632,-172.3706 243.996,-179.7683 255.8638,-186.6097"/>
<polygon fill="#778899" stroke="#778899" points="254.2744,-189.7334 264.686,-191.6954 257.7704,-183.6689 254.2744,-189.7334"/>
</g>
<!-- abjad.core.Container.Container&#45;&gt;abjad.core.Tuplet.Tuplet -->
<g id="edge9" class="edge">
<title>abjad.core.Container.Container&#45;&gt;abjad.core.Tuplet.Tuplet</title>
<path fill="none" stroke="#778899" d="M210.408,-166.7724C220.0993,-182.0891 240.7399,-211.8684 265,-230 283.9786,-244.1843 292.2981,-241.4917 314,-251 326.7679,-256.594 340.8558,-262.8842 352.8052,-268.2545"/>
<polygon fill="#778899" stroke="#778899" points="351.7085,-271.5991 362.2638,-272.5137 354.5827,-265.2164 351.7085,-271.5991"/>
</g>
<!-- abjad.core.Leaf.Leaf&#45;&gt;abjad.core.Chord.Chord -->
<g id="edge14" class="edge">
<title>abjad.core.Leaf.Leaf&#45;&gt;abjad.core.Chord.Chord</title>
<path fill="none" stroke="#778899" d="M220.0903,-304.1131C231.6947,-298.2427 247.8461,-290.072 261.6487,-283.0895"/>
<polygon fill="#778899" stroke="#778899" points="263.4012,-286.1253 270.7445,-278.4881 260.2413,-279.8791 263.4012,-286.1253"/>
</g>
<!-- abjad.core.Leaf.Leaf&#45;&gt;abjad.core.MultimeasureRest.MultimeasureRest -->
<g id="edge15" class="edge">
<title>abjad.core.Leaf.Leaf&#45;&gt;abjad.core.MultimeasureRest.MultimeasureRest</title>
<path fill="none" stroke="#778899" d="M220.4146,-310.9952C232.6109,-310.2774 249.8611,-309.3751 265,-309 286.7711,-308.4606 292.3541,-306.6066 314,-309 322.5155,-309.9416 331.5308,-311.5368 340.094,-313.3445"/>
<polygon fill="#778899" stroke="#778899" points="339.3583,-316.7664 349.8816,-315.5377 340.8889,-309.9358 339.3583,-316.7664"/>
</g>
<!-- abjad.core.Leaf.Leaf&#45;&gt;abjad.core.Note.Note -->
<g id="edge16" class="edge">
<title>abjad.core.Leaf.Leaf&#45;&gt;abjad.core.Note.Note</title>
<path fill="none" stroke="#778899" d="M220.0903,-314.7512C232.159,-316.881 249.1458,-319.8787 263.2938,-322.3754"/>
<polygon fill="#778899" stroke="#778899" points="262.9749,-325.8731 273.431,-324.1643 264.1914,-318.9796 262.9749,-325.8731"/>
</g>
<!-- abjad.core.Leaf.Leaf&#45;&gt;abjad.core.Rest.Rest -->
<g id="edge17" class="edge">
<title>abjad.core.Leaf.Leaf&#45;&gt;abjad.core.Rest.Rest</title>
<path fill="none" stroke="#778899" d="M218.2818,-321.5118C230.1472,-329.2577 247.9956,-339.8786 265,-346 294.7242,-356.7004 330.777,-362.1318 354.7197,-364.7579"/>
<polygon fill="#778899" stroke="#778899" points="354.5009,-368.2535 364.802,-365.7759 355.2042,-361.2889 354.5009,-368.2535"/>
</g>
<!-- abjad.core.Leaf.Leaf&#45;&gt;abjad.core.Skip.Skip -->
<g id="edge18" class="edge">
<title>abjad.core.Leaf.Leaf&#45;&gt;abjad.core.Skip.Skip</title>
<path fill="none" stroke="#778899" d="M215.6123,-321.5435C229.6116,-333.5665 253.877,-354.4061 270.7647,-368.9096"/>
<polygon fill="#778899" stroke="#778899" points="268.5184,-371.5941 278.385,-375.4542 273.0791,-366.2837 268.5184,-371.5941"/>
</g>
<!-- abjad.core.Context.Context&#45;&gt;abjad.core.Score.Score -->
<g id="edge10" class="edge">
<title>abjad.core.Context.Context&#45;&gt;abjad.core.Score.Score</title>
<path fill="none" stroke="#778899" d="M304.6094,-133.4225C318.9139,-124.3551 340.6146,-110.5995 357.2359,-100.0636"/>
<polygon fill="#778899" stroke="#778899" points="359.2959,-102.9018 365.8682,-94.5917 355.5482,-96.9895 359.2959,-102.9018"/>
</g>
<!-- abjad.core.Context.Context&#45;&gt;abjad.core.Staff.Staff -->
<g id="edge11" class="edge">
<title>abjad.core.Context.Context&#45;&gt;abjad.core.Staff.Staff</title>
<path fill="none" stroke="#778899" d="M310.7651,-135.0718C322.2308,-131.1171 336.7161,-126.6283 350,-124 380.1695,-118.0309 415.4724,-115.6248 439.0324,-114.6549"/>
<polygon fill="#778899" stroke="#778899" points="439.405,-118.1441 449.2754,-114.2938 439.1583,-111.1484 439.405,-118.1441"/>
</g>
<!-- abjad.core.Context.Context&#45;&gt;abjad.core.StaffGroup.StaffGroup -->
<g id="edge12" class="edge">
<title>abjad.core.Context.Context&#45;&gt;abjad.core.StaffGroup.StaffGroup</title>
<path fill="none" stroke="#778899" d="M310.7219,-144.1597C323.0524,-144.8335 338.7578,-145.6917 352.193,-146.4258"/>
<polygon fill="#778899" stroke="#778899" points="352.1972,-149.9312 362.3733,-146.9821 352.5792,-142.9416 352.1972,-149.9312"/>
</g>
<!-- abjad.core.Context.Context&#45;&gt;abjad.core.Voice.Voice -->
<g id="edge13" class="edge">
<title>abjad.core.Context.Context&#45;&gt;abjad.core.Voice.Voice</title>
<path fill="none" stroke="#778899" d="M305.315,-152.5376C317.1753,-159.1954 334.0448,-167.6413 350,-172 379.2964,-180.0032 414.1833,-182.0461 437.8925,-182.3745"/>
<polygon fill="#778899" stroke="#778899" points="437.9234,-185.8745 447.9392,-182.4199 437.9551,-178.8746 437.9234,-185.8745"/>
</g>
<!-- builtins.object&#45;&gt;abjad.core.Component.Component -->
<g id="edge19" class="edge">
<title>builtins.object&#45;&gt;abjad.core.Component.Component</title>
<path fill="none" stroke="#778899" d="M53.1071,-234C60.7148,-234 69.8063,-234 78.6962,-234"/>
<polygon fill="#778899" stroke="#778899" points="78.9386,-237.5001 88.9385,-234 78.9385,-230.5001 78.9386,-237.5001"/>
</g>
<!-- abjad.core.AfterGraceContainer.AfterGraceContainer -->
<g id="node1" class="node">
<title>abjad.core.AfterGraceContainer.AfterGraceContainer</title>
<g id="a_node1"><a xlink:href="../api/abjad/core/AfterGraceContainer.html#abjad.core.AfterGraceContainer.AfterGraceContainer" xlink:title="After\nGrace\nContainer" target="_top">
<path fill="#fbb4ae" stroke="#fbb4ae" stroke-width="2" d="M302,-57.5C302,-57.5 277,-57.5 277,-57.5 271,-57.5 265,-51.5 265,-45.5 265,-45.5 265,-28.5 265,-28.5 265,-22.5 271,-16.5 277,-16.5 277,-16.5 302,-16.5 302,-16.5 308,-16.5 314,-22.5 314,-28.5 314,-28.5 314,-45.5 314,-45.5 314,-51.5 308,-57.5 302,-57.5"/>
<text text-anchor="middle" x="289.5" y="-45.5" font-family="Arial" font-size="10.00" fill="#000000">After</text>
<text text-anchor="middle" x="289.5" y="-34.5" font-family="Arial" font-size="10.00" fill="#000000">Grace</text>
<text text-anchor="middle" x="289.5" y="-23.5" font-family="Arial" font-size="10.00" fill="#000000">Container</text>
</a>
</g>
</g>
<!-- abjad.core.BeforeGraceContainer.BeforeGraceContainer -->
<g id="node2" class="node">
<title>abjad.core.BeforeGraceContainer.BeforeGraceContainer</title>
<g id="a_node2"><a xlink:href="../api/abjad/core/BeforeGraceContainer.html#abjad.core.BeforeGraceContainer.BeforeGraceContainer" xlink:title="Before\nGrace\nContainer" target="_top">
<path fill="#fbb4ae" stroke="#fbb4ae" stroke-width="2" d="M393.5,-57.5C393.5,-57.5 368.5,-57.5 368.5,-57.5 362.5,-57.5 356.5,-51.5 356.5,-45.5 356.5,-45.5 356.5,-28.5 356.5,-28.5 356.5,-22.5 362.5,-16.5 368.5,-16.5 368.5,-16.5 393.5,-16.5 393.5,-16.5 399.5,-16.5 405.5,-22.5 405.5,-28.5 405.5,-28.5 405.5,-45.5 405.5,-45.5 405.5,-51.5 399.5,-57.5 393.5,-57.5"/>
<text text-anchor="middle" x="381" y="-45.5" font-family="Arial" font-size="10.00" fill="#000000">Before</text>
<text text-anchor="middle" x="381" y="-34.5" font-family="Arial" font-size="10.00" fill="#000000">Grace</text>
<text text-anchor="middle" x="381" y="-23.5" font-family="Arial" font-size="10.00" fill="#000000">Container</text>
</a>
</g>
</g>
<!-- abjad.core.Chord.Chord -->
<g id="node3" class="node">
<title>abjad.core.Chord.Chord</title>
<g id="a_node3"><a xlink:href="../api/abjad/core/Chord.html#abjad.core.Chord.Chord" xlink:title="Chord" target="_top">
<path fill="#fbb4ae" stroke="#fbb4ae" stroke-width="2" d="M301.6667,-278.5C301.6667,-278.5 277.3333,-278.5 277.3333,-278.5 274.1667,-278.5 271,-275.3333 271,-272.1667 271,-272.1667 271,-265.8333 271,-265.8333 271,-262.6667 274.1667,-259.5 277.3333,-259.5 277.3333,-259.5 301.6667,-259.5 301.6667,-259.5 304.8333,-259.5 308,-262.6667 308,-265.8333 308,-265.8333 308,-272.1667 308,-272.1667 308,-275.3333 304.8333,-278.5 301.6667,-278.5"/>
<text text-anchor="middle" x="289.5" y="-266.5" font-family="Arial" font-size="10.00" fill="#000000">Chord</text>
</a>
</g>
</g>
<!-- abjad.core.Cluster.Cluster -->
<g id="node4" class="node">
<title>abjad.core.Cluster.Cluster</title>
<g id="a_node4"><a xlink:href="../api/abjad/core/Cluster.html#abjad.core.Cluster.Cluster" xlink:title="Cluster" target="_top">
<path fill="#fbb4ae" stroke="#fbb4ae" stroke-width="2" d="M303.1667,-115.5C303.1667,-115.5 275.8333,-115.5 275.8333,-115.5 272.6667,-115.5 269.5,-112.3333 269.5,-109.1667 269.5,-109.1667 269.5,-102.8333 269.5,-102.8333 269.5,-99.6667 272.6667,-96.5 275.8333,-96.5 275.8333,-96.5 303.1667,-96.5 303.1667,-96.5 306.3333,-96.5 309.5,-99.6667 309.5,-102.8333 309.5,-102.8333 309.5,-109.1667 309.5,-109.1667 309.5,-112.3333 306.3333,-115.5 303.1667,-115.5"/>
<text text-anchor="middle" x="289.5" y="-103.5" font-family="Arial" font-size="10.00" fill="#000000">Cluster</text>
</a>
</g>
</g>
<!-- abjad.core.Component.Component -->
<g id="node5" class="node">
<title>abjad.core.Component.Component</title>
<g id="a_node5"><a xlink:href="../api/abjad/core/Component.html#abjad.core.Component.Component" xlink:title="Component" target="_top">
<path fill="#000000" stroke="#000000" stroke-width="2" d="M137.6667,-243.5C137.6667,-243.5 95.3333,-243.5 95.3333,-243.5 92.1667,-243.5 89,-240.3333 89,-237.1667 89,-237.1667 89,-230.8333 89,-230.8333 89,-227.6667 92.1667,-224.5 95.3333,-224.5 95.3333,-224.5 137.6667,-224.5 137.6667,-224.5 140.8333,-224.5 144,-227.6667 144,-230.8333 144,-230.8333 144,-237.1667 144,-237.1667 144,-240.3333 140.8333,-243.5 137.6667,-243.5"/>
<text text-anchor="middle" x="116.5" y="-231.5" font-family="Arial" font-size="10.00" fill="#ffffff">Component</text>
</a>
</g>
</g>
<!-- abjad.core.Container.Container -->
<g id="node6" class="node">
<title>abjad.core.Container.Container</title>
<g id="a_node6"><a xlink:href="../api/abjad/core/Container.html#abjad.core.Container.Container" xlink:title="Container" target="_top">
<path fill="#fbb4ae" stroke="#fbb4ae" stroke-width="2" d="M222.6667,-166.5C222.6667,-166.5 186.3333,-166.5 186.3333,-166.5 183.1667,-166.5 180,-163.3333 180,-160.1667 180,-160.1667 180,-153.8333 180,-153.8333 180,-150.6667 183.1667,-147.5 186.3333,-147.5 186.3333,-147.5 222.6667,-147.5 222.6667,-147.5 225.8333,-147.5 229,-150.6667 229,-153.8333 229,-153.8333 229,-160.1667 229,-160.1667 229,-163.3333 225.8333,-166.5 222.6667,-166.5"/>
<text text-anchor="middle" x="204.5" y="-154.5" font-family="Arial" font-size="10.00" fill="#000000">Container</text>
</a>
</g>
</g>
<!-- abjad.core.Leaf.Leaf -->
<g id="node7" class="node">
<title>abjad.core.Leaf.Leaf</title>
<g id="a_node7"><a xlink:href="../api/abjad/core/Leaf.html#abjad.core.Leaf.Leaf" xlink:title="Leaf" target="_top">
<path fill="#fbb4ae" stroke="#fbb4ae" stroke-width="2" d="M213.6667,-321.5C213.6667,-321.5 195.3333,-321.5 195.3333,-321.5 192.1667,-321.5 189,-318.3333 189,-315.1667 189,-315.1667 189,-308.8333 189,-308.8333 189,-305.6667 192.1667,-302.5 195.3333,-302.5 195.3333,-302.5 213.6667,-302.5 213.6667,-302.5 216.8333,-302.5 220,-305.6667 220,-308.8333 220,-308.8333 220,-315.1667 220,-315.1667 220,-318.3333 216.8333,-321.5 213.6667,-321.5"/>
<text text-anchor="middle" x="204.5" y="-309.5" font-family="Arial" font-size="10.00" fill="#000000">Leaf</text>
</a>
</g>
</g>
<!-- abjad.core.Context.Context -->
<g id="node8" class="node">
<title>abjad.core.Context.Context</title>
<g id="a_node8"><a xlink:href="../api/abjad/core/Context.html#abjad.core.Context.Context" xlink:title="Context" target="_top">
<path fill="#fbb4ae" stroke="#fbb4ae" stroke-width="2" d="M304.1667,-152.5C304.1667,-152.5 274.8333,-152.5 274.8333,-152.5 271.6667,-152.5 268.5,-149.3333 268.5,-146.1667 268.5,-146.1667 268.5,-139.8333 268.5,-139.8333 268.5,-136.6667 271.6667,-133.5 274.8333,-133.5 274.8333,-133.5 304.1667,-133.5 304.1667,-133.5 307.3333,-133.5 310.5,-136.6667 310.5,-139.8333 310.5,-139.8333 310.5,-146.1667 310.5,-146.1667 310.5,-149.3333 307.3333,-152.5 304.1667,-152.5"/>
<text text-anchor="middle" x="289.5" y="-140.5" font-family="Arial" font-size="10.00" fill="#000000">Context</text>
</a>
</g>
</g>
<!-- abjad.core.OnBeatGraceContainer.OnBeatGraceContainer -->
<g id="node9" class="node">
<title>abjad.core.OnBeatGraceContainer.OnBeatGraceContainer</title>
<g id="a_node9"><a xlink:href="../api/abjad/core/OnBeatGraceContainer.html#abjad.core.OnBeatGraceContainer.OnBeatGraceContainer" xlink:title="On\nBeat\nGrace\nContainer" target="_top">
<path fill="#fbb4ae" stroke="#fbb4ae" stroke-width="2" d="M393.5,-253C393.5,-253 368.5,-253 368.5,-253 362.5,-253 356.5,-247 356.5,-241 356.5,-241 356.5,-213 356.5,-213 356.5,-207 362.5,-201 368.5,-201 368.5,-201 393.5,-201 393.5,-201 399.5,-201 405.5,-207 405.5,-213 405.5,-213 405.5,-241 405.5,-241 405.5,-247 399.5,-253 393.5,-253"/>
<text text-anchor="middle" x="381" y="-241" font-family="Arial" font-size="10.00" fill="#000000">On</text>
<text text-anchor="middle" x="381" y="-230" font-family="Arial" font-size="10.00" fill="#000000">Beat</text>
<text text-anchor="middle" x="381" y="-219" font-family="Arial" font-size="10.00" fill="#000000">Grace</text>
<text text-anchor="middle" x="381" y="-208" font-family="Arial" font-size="10.00" fill="#000000">Container</text>
</a>
</g>
</g>
<!-- abjad.core.TremoloContainer.TremoloContainer -->
<g id="node10" class="node">
<title>abjad.core.TremoloContainer.TremoloContainer</title>
<g id="a_node10"><a xlink:href="../api/abjad/core/TremoloContainer.html#abjad.core.TremoloContainer.TremoloContainer" xlink:title="Tremolo\nContainer" target="_top">
<path fill="#fbb4ae" stroke="#fbb4ae" stroke-width="2" d="M304,-221C304,-221 275,-221 275,-221 270,-221 265,-216 265,-211 265,-211 265,-201 265,-201 265,-196 270,-191 275,-191 275,-191 304,-191 304,-191 309,-191 314,-196 314,-201 314,-201 314,-211 314,-211 314,-216 309,-221 304,-221"/>
<text text-anchor="middle" x="289.5" y="-209" font-family="Arial" font-size="10.00" fill="#000000">Tremolo</text>
<text text-anchor="middle" x="289.5" y="-198" font-family="Arial" font-size="10.00" fill="#000000">Container</text>
</a>
</g>
</g>
<!-- abjad.core.Tuplet.Tuplet -->
<g id="node11" class="node">
<title>abjad.core.Tuplet.Tuplet</title>
<g id="a_node11"><a xlink:href="../api/abjad/core/Tuplet.html#abjad.core.Tuplet.Tuplet" xlink:title="Tuplet" target="_top">
<path fill="#fbb4ae" stroke="#fbb4ae" stroke-width="2" d="M393.1667,-290.5C393.1667,-290.5 368.8333,-290.5 368.8333,-290.5 365.6667,-290.5 362.5,-287.3333 362.5,-284.1667 362.5,-284.1667 362.5,-277.8333 362.5,-277.8333 362.5,-274.6667 365.6667,-271.5 368.8333,-271.5 368.8333,-271.5 393.1667,-271.5 393.1667,-271.5 396.3333,-271.5 399.5,-274.6667 399.5,-277.8333 399.5,-277.8333 399.5,-284.1667 399.5,-284.1667 399.5,-287.3333 396.3333,-290.5 393.1667,-290.5"/>
<text text-anchor="middle" x="381" y="-278.5" font-family="Arial" font-size="10.00" fill="#000000">Tuplet</text>
</a>
</g>
</g>
<!-- abjad.core.Score.Score -->
<g id="node12" class="node">
<title>abjad.core.Score.Score</title>
<g id="a_node12"><a xlink:href="../api/abjad/core/Score.html#abjad.core.Score.Score" xlink:title="Score" target="_top">
<path fill="#fbb4ae" stroke="#fbb4ae" stroke-width="2" d="M392.6667,-94.5C392.6667,-94.5 369.3333,-94.5 369.3333,-94.5 366.1667,-94.5 363,-91.3333 363,-88.1667 363,-88.1667 363,-81.8333 363,-81.8333 363,-78.6667 366.1667,-75.5 369.3333,-75.5 369.3333,-75.5 392.6667,-75.5 392.6667,-75.5 395.8333,-75.5 399,-78.6667 399,-81.8333 399,-81.8333 399,-88.1667 399,-88.1667 399,-91.3333 395.8333,-94.5 392.6667,-94.5"/>
<text text-anchor="middle" x="381" y="-82.5" font-family="Arial" font-size="10.00" fill="#000000">Score</text>
</a>
</g>
</g>
<!-- abjad.core.Staff.Staff -->
<g id="node13" class="node">
<title>abjad.core.Staff.Staff</title>
<g id="a_node13"><a xlink:href="../api/abjad/core/Staff.html#abjad.core.Staff.Staff" xlink:title="Staff" target="_top">
<path fill="#fbb4ae" stroke="#fbb4ae" stroke-width="2" d="M475.1667,-123.5C475.1667,-123.5 455.8333,-123.5 455.8333,-123.5 452.6667,-123.5 449.5,-120.3333 449.5,-117.1667 449.5,-117.1667 449.5,-110.8333 449.5,-110.8333 449.5,-107.6667 452.6667,-104.5 455.8333,-104.5 455.8333,-104.5 475.1667,-104.5 475.1667,-104.5 478.3333,-104.5 481.5,-107.6667 481.5,-110.8333 481.5,-110.8333 481.5,-117.1667 481.5,-117.1667 481.5,-120.3333 478.3333,-123.5 475.1667,-123.5"/>
<text text-anchor="middle" x="465.5" y="-111.5" font-family="Arial" font-size="10.00" fill="#000000">Staff</text>
</a>
</g>
</g>
<!-- abjad.core.StaffGroup.StaffGroup -->
<g id="node14" class="node">
<title>abjad.core.StaffGroup.StaffGroup</title>
<g id="a_node14"><a xlink:href="../api/abjad/core/StaffGroup.html#abjad.core.StaffGroup.StaffGroup" xlink:title="Staff\nGroup" target="_top">
<path fill="#fbb4ae" stroke="#fbb4ae" stroke-width="2" d="M389.5,-163C389.5,-163 372.5,-163 372.5,-163 367.5,-163 362.5,-158 362.5,-153 362.5,-153 362.5,-143 362.5,-143 362.5,-138 367.5,-133 372.5,-133 372.5,-133 389.5,-133 389.5,-133 394.5,-133 399.5,-138 399.5,-143 399.5,-143 399.5,-153 399.5,-153 399.5,-158 394.5,-163 389.5,-163"/>
<text text-anchor="middle" x="381" y="-151" font-family="Arial" font-size="10.00" fill="#000000">Staff</text>
<text text-anchor="middle" x="381" y="-140" font-family="Arial" font-size="10.00" fill="#000000">Group</text>
</a>
</g>
</g>
<!-- abjad.core.Voice.Voice -->
<g id="node15" class="node">
<title>abjad.core.Voice.Voice</title>
<g id="a_node15"><a xlink:href="../api/abjad/core/Voice.html#abjad.core.Voice.Voice" xlink:title="Voice" target="_top">
<path fill="#fbb4ae" stroke="#fbb4ae" stroke-width="2" d="M476.6667,-191.5C476.6667,-191.5 454.3333,-191.5 454.3333,-191.5 451.1667,-191.5 448,-188.3333 448,-185.1667 448,-185.1667 448,-178.8333 448,-178.8333 448,-175.6667 451.1667,-172.5 454.3333,-172.5 454.3333,-172.5 476.6667,-172.5 476.6667,-172.5 479.8333,-172.5 483,-175.6667 483,-178.8333 483,-178.8333 483,-185.1667 483,-185.1667 483,-188.3333 479.8333,-191.5 476.6667,-191.5"/>
<text text-anchor="middle" x="465.5" y="-179.5" font-family="Arial" font-size="10.00" fill="#000000">Voice</text>
</a>
</g>
</g>
<!-- abjad.core.MultimeasureRest.MultimeasureRest -->
<g id="node16" class="node">
<title>abjad.core.MultimeasureRest.MultimeasureRest</title>
<g id="a_node16"><a xlink:href="../api/abjad/core/MultimeasureRest.html#abjad.core.MultimeasureRest.MultimeasureRest" xlink:title="Multimeasure\nRest" target="_top">
<path fill="#fbb4ae" stroke="#fbb4ae" stroke-width="2" d="M402,-339C402,-339 360,-339 360,-339 355,-339 350,-334 350,-329 350,-329 350,-319 350,-319 350,-314 355,-309 360,-309 360,-309 402,-309 402,-309 407,-309 412,-314 412,-319 412,-319 412,-329 412,-329 412,-334 407,-339 402,-339"/>
<text text-anchor="middle" x="381" y="-327" font-family="Arial" font-size="10.00" fill="#000000">Multimeasure</text>
<text text-anchor="middle" x="381" y="-316" font-family="Arial" font-size="10.00" fill="#000000">Rest</text>
</a>
</g>
</g>
<!-- abjad.core.Note.Note -->
<g id="node17" class="node">
<title>abjad.core.Note.Note</title>
<g id="a_node17"><a xlink:href="../api/abjad/core/Note.html#abjad.core.Note.Note" xlink:title="Note" target="_top">
<path fill="#fbb4ae" stroke="#fbb4ae" stroke-width="2" d="M299.1667,-336.5C299.1667,-336.5 279.8333,-336.5 279.8333,-336.5 276.6667,-336.5 273.5,-333.3333 273.5,-330.1667 273.5,-330.1667 273.5,-323.8333 273.5,-323.8333 273.5,-320.6667 276.6667,-317.5 279.8333,-317.5 279.8333,-317.5 299.1667,-317.5 299.1667,-317.5 302.3333,-317.5 305.5,-320.6667 305.5,-323.8333 305.5,-323.8333 305.5,-330.1667 305.5,-330.1667 305.5,-333.3333 302.3333,-336.5 299.1667,-336.5"/>
<text text-anchor="middle" x="289.5" y="-324.5" font-family="Arial" font-size="10.00" fill="#000000">Note</text>
</a>
</g>
</g>
<!-- abjad.core.Rest.Rest -->
<g id="node18" class="node">
<title>abjad.core.Rest.Rest</title>
<g id="a_node18"><a xlink:href="../api/abjad/core/Rest.html#abjad.core.Rest.Rest" xlink:title="Rest" target="_top">
<path fill="#fbb4ae" stroke="#fbb4ae" stroke-width="2" d="M390.6667,-376.5C390.6667,-376.5 371.3333,-376.5 371.3333,-376.5 368.1667,-376.5 365,-373.3333 365,-370.1667 365,-370.1667 365,-363.8333 365,-363.8333 365,-360.6667 368.1667,-357.5 371.3333,-357.5 371.3333,-357.5 390.6667,-357.5 390.6667,-357.5 393.8333,-357.5 397,-360.6667 397,-363.8333 397,-363.8333 397,-370.1667 397,-370.1667 397,-373.3333 393.8333,-376.5 390.6667,-376.5"/>
<text text-anchor="middle" x="381" y="-364.5" font-family="Arial" font-size="10.00" fill="#000000">Rest</text>
</a>
</g>
</g>
<!-- abjad.core.Skip.Skip -->
<g id="node19" class="node">
<title>abjad.core.Skip.Skip</title>
<g id="a_node19"><a xlink:href="../api/abjad/core/Skip.html#abjad.core.Skip.Skip" xlink:title="Skip" target="_top">
<path fill="#fbb4ae" stroke="#fbb4ae" stroke-width="2" d="M298.6667,-394.5C298.6667,-394.5 280.3333,-394.5 280.3333,-394.5 277.1667,-394.5 274,-391.3333 274,-388.1667 274,-388.1667 274,-381.8333 274,-381.8333 274,-378.6667 277.1667,-375.5 280.3333,-375.5 280.3333,-375.5 298.6667,-375.5 298.6667,-375.5 301.8333,-375.5 305,-378.6667 305,-381.8333 305,-381.8333 305,-388.1667 305,-388.1667 305,-391.3333 301.8333,-394.5 298.6667,-394.5"/>
<text text-anchor="middle" x="289.5" y="-382.5" font-family="Arial" font-size="10.00" fill="#000000">Skip</text>
</a>
</g>
</g>
<!-- builtins.object -->
<g id="node20" class="node">
<title>builtins.object</title>
<g id="a_node20"><a xlink:href="https://docs.python.org/3.6/library/functions.html#object" xlink:title="object" target="_top">
<path fill="#b3cde3" stroke="#b3cde3" stroke-width="2" d="M46.6667,-243.5C46.6667,-243.5 22.3333,-243.5 22.3333,-243.5 19.1667,-243.5 16,-240.3333 16,-237.1667 16,-237.1667 16,-230.8333 16,-230.8333 16,-227.6667 19.1667,-224.5 22.3333,-224.5 22.3333,-224.5 46.6667,-224.5 46.6667,-224.5 49.8333,-224.5 53,-227.6667 53,-230.8333 53,-230.8333 53,-237.1667 53,-237.1667 53,-240.3333 49.8333,-243.5 46.6667,-243.5"/>
<text text-anchor="middle" x="34.5" y="-231.5" font-family="Arial" font-size="10.00" fill="#000000">object</text>
</a>
</g>
</g>
</g>
</svg>
