<?xml version="1.0" encoding="UTF-8" standalone="no"?>
<!DOCTYPE svg PUBLIC "-//W3C//DTD SVG 1.1//EN"
 "http://www.w3.org/Graphics/SVG/1.1/DTD/svg11.dtd">
<!-- Generated by graphviz version 2.40.1 (20161225.0304)
 -->
<!-- Title: InheritanceGraph Pages: 1 -->
<svg width="455pt" height="2606pt"
 viewBox="0.00 0.00 455.37 2606.00" xmlns="http://www.w3.org/2000/svg" xmlns:xlink="http://www.w3.org/1999/xlink">
<g id="graph0" class="graph" transform="scale(1 1) rotate(0) translate(4 2602)">
<title>InheritanceGraph</title>
<g id="clust1" class="cluster">
<title>cluster_abjad.indicators</title>
<path fill="transparent" stroke="#bcd2ee" stroke-width="2" stroke-dasharray="5,2" d="M357.6846,-8C357.6846,-8 427.3691,-8 427.3691,-8 433.3691,-8 439.3691,-14 439.3691,-20 439.3691,-20 439.3691,-2578 439.3691,-2578 439.3691,-2584 433.3691,-2590 427.3691,-2590 427.3691,-2590 357.6846,-2590 357.6846,-2590 351.6846,-2590 345.6846,-2584 345.6846,-2578 345.6846,-2578 345.6846,-20 345.6846,-20 345.6846,-14 351.6846,-8 357.6846,-8"/>
<text text-anchor="middle" x="392.5269" y="-2578" font-family="Arial" font-size="10.00" fill="#000000">abjad.indicators</text>
</g>
<g id="clust2" class="cluster">
<title>cluster_builtins</title>
<path fill="transparent" stroke="#bcd2ee" stroke-width="2" stroke-dasharray="5,2" d="M20,-1325C20,-1325 54.6846,-1325 54.6846,-1325 60.6846,-1325 66.6846,-1331 66.6846,-1337 66.6846,-1337 66.6846,-1368 66.6846,-1368 66.6846,-1374 60.6846,-1380 54.6846,-1380 54.6846,-1380 20,-1380 20,-1380 14,-1380 8,-1374 8,-1368 8,-1368 8,-1337 8,-1337 8,-1331 14,-1325 20,-1325"/>
<text text-anchor="middle" x="37.3423" y="-1368" font-family="Arial" font-size="10.00" fill="#000000">builtins</text>
</g>
<!-- builtins.object&#45;&gt;abjad.indicators.Arpeggio.Arpeggio -->
<g id="edge1" class="edge">
<title>builtins.object&#45;&gt;abjad.indicators.Arpeggio.Arpeggio</title>
<path fill="none" stroke="#778899" d="M37.5824,-1353.0804C40.4138,-1469.2807 68.4826,-2551 132.1846,-2551 132.1846,-2551 132.1846,-2551 280.1846,-2551 304.8273,-2551 332.5059,-2551.487 354.2233,-2551.9804"/>
<polygon fill="#778899" stroke="#778899" points="354.2861,-2555.4828 364.3663,-2552.221 354.4521,-2548.4848 354.2861,-2555.4828"/>
</g>
<!-- builtins.object&#45;&gt;abjad.indicators.Articulation.Articulation -->
<g id="edge2" class="edge">
<title>builtins.object&#45;&gt;abjad.indicators.Articulation.Articulation</title>
<path fill="none" stroke="#778899" d="M37.61,-1353.0974C40.7008,-1467.2568 70.6424,-2511 132.1846,-2511 132.1846,-2511 132.1846,-2511 280.1846,-2511 303.0656,-2511 328.5421,-2512.0479 349.4419,-2513.1843"/>
<polygon fill="#778899" stroke="#778899" points="349.4257,-2516.689 359.6085,-2513.7632 349.8237,-2509.7003 349.4257,-2516.689"/>
</g>
<!-- builtins.object&#45;&gt;abjad.indicators.BarLine.BarLine -->
<g id="edge3" class="edge">
<title>builtins.object&#45;&gt;abjad.indicators.BarLine.BarLine</title>
<path fill="none" stroke="#778899" d="M37.6401,-1353.0783C41.0072,-1464.8666 72.9019,-2469 132.1846,-2469 132.1846,-2469 132.1846,-2469 280.1846,-2469 309.032,-2469 342.0198,-2470.3335 364.7494,-2471.4606"/>
<polygon fill="#778899" stroke="#778899" points="364.8534,-2474.9706 375.0205,-2471.9906 365.2142,-2467.9799 364.8534,-2474.9706"/>
</g>
<!-- builtins.object&#45;&gt;abjad.indicators.BeamCount.BeamCount -->
<g id="edge4" class="edge">
<title>builtins.object&#45;&gt;abjad.indicators.BeamCount.BeamCount</title>
<path fill="none" stroke="#778899" d="M37.6748,-1352.9834C41.3571,-1461.6588 75.4696,-2421 132.1846,-2421 132.1846,-2421 132.1846,-2421 280.1846,-2421 307.4708,-2421 338.4716,-2421.8953 360.9852,-2422.7077"/>
<polygon fill="#778899" stroke="#778899" points="360.8703,-2426.2058 370.9946,-2423.0836 361.1331,-2419.2107 360.8703,-2426.2058"/>
</g>
<!-- builtins.object&#45;&gt;abjad.indicators.BendAfter.BendAfter -->
<g id="edge5" class="edge">
<title>builtins.object&#45;&gt;abjad.indicators.BendAfter.BendAfter</title>
<path fill="none" stroke="#778899" d="M37.6784,-1352.9358C40.5827,-1437.3898 62.1136,-2036.032 94.6846,-2213 104.9525,-2268.7889 75.4587,-2335 132.1846,-2335 132.1846,-2335 132.1846,-2335 280.1846,-2335 309.7612,-2335 341.3126,-2347.4565 363.4242,-2358.467"/>
<polygon fill="#778899" stroke="#778899" points="362.0945,-2361.72 372.5834,-2363.215 365.3161,-2355.5054 362.0945,-2361.72"/>
</g>
<!-- builtins.object&#45;&gt;abjad.indicators.BowContactPoint.BowContactPoint -->
<g id="edge6" class="edge">
<title>builtins.object&#45;&gt;abjad.indicators.BowContactPoint.BowContactPoint</title>
<path fill="none" stroke="#778899" d="M37.7859,-1352.8779C41.432,-1433.1969 67.0217,-1980.3298 94.6846,-2143 105.3399,-2205.658 68.6271,-2281 132.1846,-2281 132.1846,-2281 132.1846,-2281 280.1846,-2281 307.3409,-2281 336.2493,-2291.296 357.9399,-2301.3076"/>
<polygon fill="#778899" stroke="#778899" points="356.5375,-2304.5169 367.0662,-2305.6993 359.5729,-2298.2092 356.5375,-2304.5169"/>
</g>
<!-- builtins.object&#45;&gt;abjad.indicators.BowMotionTechnique.BowMotionTechnique -->
<g id="edge7" class="edge">
<title>builtins.object&#45;&gt;abjad.indicators.BowMotionTechnique.BowMotionTechnique</title>
<path fill="none" stroke="#778899" d="M37.7076,-1352.962C40.6896,-1432.8007 61.7555,-1969.6303 94.6846,-2128 104.9429,-2177.3364 81.793,-2235 132.1846,-2235 132.1846,-2235 132.1846,-2235 280.1846,-2235 304.3334,-2235 330.72,-2240.5721 351.849,-2246.4551"/>
<polygon fill="#778899" stroke="#778899" points="350.8826,-2249.819 361.4623,-2249.2527 352.8386,-2243.0978 350.8826,-2249.819"/>
</g>
<!-- builtins.object&#45;&gt;abjad.indicators.BowPressure.BowPressure -->
<g id="edge8" class="edge">
<title>builtins.object&#45;&gt;abjad.indicators.BowPressure.BowPressure</title>
<path fill="none" stroke="#778899" d="M37.6088,-1353.0485C39.7862,-1432.4351 55.568,-1959.3872 94.6846,-2113 104.6736,-2152.2274 91.7053,-2196 132.1846,-2196 132.1846,-2196 132.1846,-2196 280.1846,-2196 304.9024,-2196 332.5819,-2198.1916 354.2811,-2200.4118"/>
<polygon fill="#778899" stroke="#778899" points="354.0985,-2203.9122 364.4138,-2201.4946 354.8423,-2196.9518 354.0985,-2203.9122"/>
</g>
<!-- builtins.object&#45;&gt;abjad.indicators.BreathMark.BreathMark -->
<g id="edge9" class="edge">
<title>builtins.object&#45;&gt;abjad.indicators.BreathMark.BreathMark</title>
<path fill="none" stroke="#778899" d="M37.4169,-1352.9737C38.2383,-1445.7816 47.2923,-2155 132.1846,-2155 132.1846,-2155 132.1846,-2155 280.1846,-2155 306.957,-2155 337.3168,-2155.2875 359.7203,-2155.5542"/>
<polygon fill="#778899" stroke="#778899" points="359.6774,-2159.0538 369.72,-2155.6781 359.7642,-2152.0543 359.6774,-2159.0538"/>
</g>
<!-- builtins.object&#45;&gt;abjad.indicators.Clef.Clef -->
<g id="edge10" class="edge">
<title>builtins.object&#45;&gt;abjad.indicators.Clef.Clef</title>
<path fill="none" stroke="#778899" d="M37.5021,-1352.8221C39.0667,-1441.32 53.3335,-2098 132.1846,-2098 132.1846,-2098 132.1846,-2098 280.1846,-2098 309.5716,-2098 342.9054,-2103.1051 365.5793,-2107.3589"/>
<polygon fill="#778899" stroke="#778899" points="365.0067,-2110.8131 375.4918,-2109.2921 366.3468,-2103.9425 365.0067,-2110.8131"/>
</g>
<!-- builtins.object&#45;&gt;abjad.indicators.ColorFingering.ColorFingering -->
<g id="edge11" class="edge">
<title>builtins.object&#45;&gt;abjad.indicators.ColorFingering.ColorFingering</title>
<path fill="none" stroke="#778899" d="M37.6316,-1352.9474C40.2084,-1437.1848 60.825,-2028 132.1846,-2028 132.1846,-2028 132.1846,-2028 280.1846,-2028 294.9741,-2028 327.9421,-2040.9324 354.3601,-2052.4449"/>
<polygon fill="#778899" stroke="#778899" points="353.1895,-2055.7541 363.7509,-2056.5955 356.0194,-2049.3516 353.1895,-2055.7541"/>
</g>
<!-- builtins.object&#45;&gt;abjad.indicators.Dynamic.Dynamic -->
<g id="edge12" class="edge">
<title>builtins.object&#45;&gt;abjad.indicators.Dynamic.Dynamic</title>
<path fill="none" stroke="#778899" d="M37.7104,-1352.9039C40.8628,-1434.3046 64.849,-1990 132.1846,-1990 132.1846,-1990 132.1846,-1990 280.1846,-1990 288.0023,-1990 326.2728,-2003.0929 355.9992,-2013.7018"/>
<polygon fill="#778899" stroke="#778899" points="355.102,-2017.0983 365.6965,-2017.1818 357.4665,-2010.5097 355.102,-2017.0983"/>
</g>
<!-- builtins.object&#45;&gt;abjad.indicators.Fermata.Fermata -->
<g id="edge13" class="edge">
<title>builtins.object&#45;&gt;abjad.indicators.Fermata.Fermata</title>
<path fill="none" stroke="#778899" d="M37.9642,-1353.0886C42.7227,-1428.174 74.7345,-1897 132.1846,-1897 132.1846,-1897 132.1846,-1897 280.1846,-1897 324.1065,-1897 309.8305,-1945.6303 345.6846,-1971 348.9755,-1973.3286 352.5936,-1975.4333 356.3156,-1977.3194"/>
<polygon fill="#778899" stroke="#778899" points="355.1019,-1980.6122 365.6542,-1981.5609 357.9967,-1974.2388 355.1019,-1980.6122"/>
</g>
<!-- builtins.object&#45;&gt;abjad.indicators.GlissandoIndicator.GlissandoIndicator -->
<g id="edge14" class="edge">
<title>builtins.object&#45;&gt;abjad.indicators.GlissandoIndicator.GlissandoIndicator</title>
<path fill="none" stroke="#778899" d="M38.0719,-1352.847C43.4849,-1424.184 78.6727,-1859 132.1846,-1859 132.1846,-1859 132.1846,-1859 280.1846,-1859 320.5759,-1859 315.2965,-1895.3913 345.6846,-1922 348.036,-1924.059 350.5863,-1926.0111 353.2415,-1927.8486"/>
<polygon fill="#778899" stroke="#778899" points="351.6326,-1930.9708 361.9643,-1933.3173 355.3509,-1925.04 351.6326,-1930.9708"/>
</g>
<!-- builtins.object&#45;&gt;abjad.indicators.KeyCluster.KeyCluster -->
<g id="edge15" class="edge">
<title>builtins.object&#45;&gt;abjad.indicators.KeyCluster.KeyCluster</title>
<path fill="none" stroke="#778899" d="M38.2288,-1352.9628C44.4533,-1421.4616 82.7909,-1820 132.1846,-1820 132.1846,-1820 132.1846,-1820 280.1846,-1820 317.6321,-1820 315.5994,-1850.7019 345.6846,-1873 350.128,-1876.2933 355.0617,-1879.4162 360.0118,-1882.2676"/>
<polygon fill="#778899" stroke="#778899" points="358.3828,-1885.3659 368.8372,-1887.0852 361.7368,-1879.2217 358.3828,-1885.3659"/>
</g>
<!-- builtins.object&#45;&gt;abjad.indicators.KeySignature.KeySignature -->
<g id="edge16" class="edge">
<title>builtins.object&#45;&gt;abjad.indicators.KeySignature.KeySignature</title>
<path fill="none" stroke="#778899" d="M38.1873,-1352.9189C42.8068,-1406.0421 65.8572,-1657.1648 94.6846,-1729 105.4312,-1755.7797 103.329,-1782 132.1846,-1782 132.1846,-1782 132.1846,-1782 280.1846,-1782 314.7664,-1782 315.861,-1806.4941 345.6846,-1824 348.467,-1825.6332 351.3641,-1827.2872 354.2927,-1828.9256"/>
<polygon fill="#778899" stroke="#778899" points="352.6393,-1832.0107 363.089,-1833.7584 356.01,-1825.8756 352.6393,-1832.0107"/>
</g>
<!-- builtins.object&#45;&gt;abjad.indicators.LaissezVibrer.LaissezVibrer -->
<g id="edge17" class="edge">
<title>builtins.object&#45;&gt;abjad.indicators.LaissezVibrer.LaissezVibrer</title>
<path fill="none" stroke="#778899" d="M37.5038,-1352.8877C38.7687,-1414.4844 49.3956,-1743 132.1846,-1743 132.1846,-1743 132.1846,-1743 280.1846,-1743 284.5514,-1743 327.2059,-1765.1912 358.6684,-1781.881"/>
<polygon fill="#778899" stroke="#778899" points="357.1382,-1785.0314 367.6108,-1786.636 360.4247,-1778.8508 357.1382,-1785.0314"/>
</g>
<!-- builtins.object&#45;&gt;abjad.indicators.LilyPondComment.LilyPondComment -->
<g id="edge18" class="edge">
<title>builtins.object&#45;&gt;abjad.indicators.LilyPondComment.LilyPondComment</title>
<path fill="none" stroke="#778899" d="M37.7491,-1353.0598C40.3789,-1411.5254 57.3085,-1705 132.1846,-1705 132.1846,-1705 132.1846,-1705 280.1846,-1705 305.4992,-1705 332.2605,-1714.1252 353.3115,-1723.6587"/>
<polygon fill="#778899" stroke="#778899" points="352.0202,-1726.9198 362.556,-1728.0364 355.0161,-1720.5933 352.0202,-1726.9198"/>
</g>
<!-- builtins.object&#45;&gt;abjad.indicators.LilyPondLiteral.LilyPondLiteral -->
<g id="edge19" class="edge">
<title>builtins.object&#45;&gt;abjad.indicators.LilyPondLiteral.LilyPondLiteral</title>
<path fill="none" stroke="#778899" d="M38.1025,-1352.7727C42.4991,-1405.9414 66.7907,-1658 132.1846,-1658 132.1846,-1658 132.1846,-1658 280.1846,-1658 308.0168,-1658 338.6805,-1665.9314 360.9305,-1673.1967"/>
<polygon fill="#778899" stroke="#778899" points="359.9266,-1676.5521 370.521,-1676.457 362.1797,-1669.9246 359.9266,-1676.5521"/>
</g>
<!-- builtins.object&#45;&gt;abjad.indicators.MarginMarkup.MarginMarkup -->
<g id="edge20" class="edge">
<title>builtins.object&#45;&gt;abjad.indicators.MarginMarkup.MarginMarkup</title>
<path fill="none" stroke="#778899" d="M38.4967,-1352.8586C44.5418,-1402.2032 74.4914,-1620 132.1846,-1620 132.1846,-1620 132.1846,-1620 280.1846,-1620 306.2166,-1620 335.5085,-1622.6969 357.6539,-1625.2896"/>
<polygon fill="#778899" stroke="#778899" points="357.2461,-1628.7657 367.5964,-1626.5025 358.0938,-1621.8172 357.2461,-1628.7657"/>
</g>
<!-- builtins.object&#45;&gt;abjad.indicators.MetricModulation.MetricModulation -->
<g id="edge21" class="edge">
<title>builtins.object&#45;&gt;abjad.indicators.MetricModulation.MetricModulation</title>
<path fill="none" stroke="#778899" d="M39.2753,-1352.8255C48.0028,-1395.7892 85.3484,-1565 132.1846,-1565 132.1846,-1565 132.1846,-1565 280.1846,-1565 303.379,-1565 329.0005,-1568.3841 349.9108,-1572.0397"/>
<polygon fill="#778899" stroke="#778899" points="349.2996,-1575.4858 359.7662,-1573.8424 350.5592,-1568.6001 349.2996,-1575.4858"/>
</g>
<!-- builtins.object&#45;&gt;abjad.indicators.MetronomeMark.MetronomeMark -->
<g id="edge22" class="edge">
<title>builtins.object&#45;&gt;abjad.indicators.MetronomeMark.MetronomeMark</title>
<path fill="none" stroke="#778899" d="M37.7508,-1352.8926C39.9043,-1391.1113 53.1202,-1527 132.1846,-1527 132.1846,-1527 132.1846,-1527 280.1846,-1527 302.8986,-1527 328.1703,-1528.0327 348.9836,-1529.1595"/>
<polygon fill="#778899" stroke="#778899" points="348.935,-1532.6622 359.1171,-1529.7341 349.3313,-1525.6735 348.935,-1532.6622"/>
</g>
<!-- builtins.object&#45;&gt;abjad.indicators.Mode.Mode -->
<g id="edge23" class="edge">
<title>builtins.object&#45;&gt;abjad.indicators.Mode.Mode</title>
<path fill="none" stroke="#778899" d="M39.0651,-1353.1404C45.1939,-1385.4704 69.051,-1484 132.1846,-1484 132.1846,-1484 132.1846,-1484 280.1846,-1484 307.8251,-1484 339.2532,-1485.5293 361.8256,-1486.8963"/>
<polygon fill="#778899" stroke="#778899" points="361.6332,-1490.391 371.8335,-1487.5269 362.0734,-1483.4049 361.6332,-1490.391"/>
</g>
<!-- builtins.object&#45;&gt;abjad.indicators.Ottava.Ottava -->
<g id="edge24" class="edge">
<title>builtins.object&#45;&gt;abjad.indicators.Ottava.Ottava</title>
<path fill="none" stroke="#778899" d="M41.4164,-1352.9121C52.2305,-1377.4399 84.1561,-1439 132.1846,-1439 132.1846,-1439 132.1846,-1439 280.1846,-1439 306.9651,-1439 337.0999,-1442.6905 359.4122,-1446.1388"/>
<polygon fill="#778899" stroke="#778899" points="358.9509,-1449.6095 369.3801,-1447.7433 360.0634,-1442.6985 358.9509,-1449.6095"/>
</g>
<!-- builtins.object&#45;&gt;abjad.indicators.RehearsalMark.RehearsalMark -->
<g id="edge25" class="edge">
<title>builtins.object&#45;&gt;abjad.indicators.RehearsalMark.RehearsalMark</title>
<path fill="none" stroke="#778899" d="M45.9351,-1352.8389C61.3959,-1369.3866 95.7065,-1401 132.1846,-1401 132.1846,-1401 132.1846,-1401 280.1846,-1401 303.8776,-1401 330.3106,-1402.7923 351.5815,-1404.6802"/>
<polygon fill="#778899" stroke="#778899" points="351.2938,-1408.1685 361.5743,-1405.6073 351.9404,-1401.1984 351.2938,-1408.1685"/>
</g>
<!-- builtins.object&#45;&gt;abjad.indicators.Repeat.Repeat -->
<g id="edge26" class="edge">
<title>builtins.object&#45;&gt;abjad.indicators.Repeat.Repeat</title>
<path fill="none" stroke="#778899" d="M58.5436,-1350.1076C77.5897,-1355.8561 106.438,-1363 132.1846,-1363 132.1846,-1363 132.1846,-1363 280.1846,-1363 306.1736,-1363 335.5325,-1363.8122 357.7181,-1364.5914"/>
<polygon fill="#778899" stroke="#778899" points="357.8654,-1368.0991 367.9869,-1364.9676 358.1217,-1361.1038 357.8654,-1368.0991"/>
</g>
<!-- builtins.object&#45;&gt;abjad.indicators.RepeatTie.RepeatTie -->
<g id="edge27" class="edge">
<title>builtins.object&#45;&gt;abjad.indicators.RepeatTie.RepeatTie</title>
<path fill="none" stroke="#778899" d="M58.5436,-1335.8924C77.5897,-1330.1439 106.438,-1323 132.1846,-1323 132.1846,-1323 132.1846,-1323 280.1846,-1323 306.1643,-1323 335.5236,-1323 357.7117,-1323"/>
<polygon fill="#778899" stroke="#778899" points="357.9819,-1326.5001 367.9818,-1323 357.9818,-1319.5001 357.9819,-1326.5001"/>
</g>
<!-- builtins.object&#45;&gt;abjad.indicators.Staccatissimo.Staccatissimo -->
<g id="edge28" class="edge">
<title>builtins.object&#45;&gt;abjad.indicators.Staccatissimo.Staccatissimo</title>
<path fill="none" stroke="#778899" d="M45.6218,-1333.0922C60.8532,-1316.0505 95.165,-1283 132.1846,-1283 132.1846,-1283 132.1846,-1283 280.1846,-1283 301.036,-1283 324.0566,-1282.4772 343.8014,-1281.868"/>
<polygon fill="#778899" stroke="#778899" points="343.9179,-1285.3662 353.7992,-1281.5439 343.691,-1278.3699 343.9179,-1285.3662"/>
</g>
<!-- builtins.object&#45;&gt;abjad.indicators.Staccato.Staccato -->
<g id="edge29" class="edge">
<title>builtins.object&#45;&gt;abjad.indicators.Staccato.Staccato</title>
<path fill="none" stroke="#778899" d="M41.1716,-1333.1456C51.619,-1308.1047 83.1527,-1244 132.1846,-1244 132.1846,-1244 132.1846,-1244 280.1846,-1244 304.992,-1244 332.8797,-1243.7532 354.6634,-1243.5048"/>
<polygon fill="#778899" stroke="#778899" points="354.8691,-1247.0027 364.8267,-1243.3838 354.7857,-1240.0032 354.8691,-1247.0027"/>
</g>
<!-- builtins.object&#45;&gt;abjad.indicators.StaffChange.StaffChange -->
<g id="edge30" class="edge">
<title>builtins.object&#45;&gt;abjad.indicators.StaffChange.StaffChange</title>
<path fill="none" stroke="#778899" d="M39.1148,-1333.0035C45.3957,-1301.132 69.6662,-1204 132.1846,-1204 132.1846,-1204 132.1846,-1204 280.1846,-1204 305.6776,-1204 334.4042,-1202.9586 356.427,-1201.9385"/>
<polygon fill="#778899" stroke="#778899" points="356.8369,-1205.4229 366.6562,-1201.4441 356.4989,-1198.431 356.8369,-1205.4229"/>
</g>
<!-- builtins.object&#45;&gt;abjad.indicators.StartBeam.StartBeam -->
<g id="edge31" class="edge">
<title>builtins.object&#45;&gt;abjad.indicators.StartBeam.StartBeam</title>
<path fill="none" stroke="#778899" d="M37.7307,-1333.0536C39.8087,-1294.6272 52.7805,-1158 132.1846,-1158 132.1846,-1158 132.1846,-1158 280.1846,-1158 307.6826,-1158 338.8936,-1155.8851 361.4276,-1153.9802"/>
<polygon fill="#778899" stroke="#778899" points="361.7769,-1157.4631 371.4317,-1153.1002 361.1634,-1150.49 361.7769,-1157.4631"/>
</g>
<!-- builtins.object&#45;&gt;abjad.indicators.StartGroup.StartGroup -->
<g id="edge32" class="edge">
<title>builtins.object&#45;&gt;abjad.indicators.StartGroup.StartGroup</title>
<path fill="none" stroke="#778899" d="M39.1668,-1333.2031C47.5669,-1289.5625 84.1686,-1115 132.1846,-1115 132.1846,-1115 132.1846,-1115 280.1846,-1115 307.4736,-1115 338.2455,-1111.1681 360.6746,-1107.6651"/>
<polygon fill="#778899" stroke="#778899" points="361.3477,-1111.1017 370.6563,-1106.042 360.2242,-1104.1924 361.3477,-1111.1017"/>
</g>
<!-- builtins.object&#45;&gt;abjad.indicators.StartHairpin.StartHairpin -->
<g id="edge33" class="edge">
<title>builtins.object&#45;&gt;abjad.indicators.StartHairpin.StartHairpin</title>
<path fill="none" stroke="#778899" d="M38.5182,-1333.2482C44.6684,-1284.438 75.0503,-1069 132.1846,-1069 132.1846,-1069 132.1846,-1069 280.1846,-1069 306.7159,-1069 336.4227,-1064.5721 358.6217,-1060.3751"/>
<polygon fill="#778899" stroke="#778899" points="359.4265,-1063.7839 368.5614,-1058.4169 358.0734,-1056.9159 359.4265,-1063.7839"/>
</g>
<!-- builtins.object&#45;&gt;abjad.indicators.StartMarkup.StartMarkup -->
<g id="edge34" class="edge">
<title>builtins.object&#45;&gt;abjad.indicators.StartMarkup.StartMarkup</title>
<path fill="none" stroke="#778899" d="M38.0898,-1333.1652C42.4187,-1279.659 66.4099,-1026 132.1846,-1026 132.1846,-1026 132.1846,-1026 280.1846,-1026 306.6066,-1026 335.8834,-1020.0668 357.9242,-1014.3628"/>
<polygon fill="#778899" stroke="#778899" points="359.0689,-1017.6792 367.8115,-1011.6945 357.245,-1010.921 359.0689,-1017.6792"/>
</g>
<!-- builtins.object&#45;&gt;abjad.indicators.StartPhrasingSlur.StartPhrasingSlur -->
<g id="edge35" class="edge">
<title>builtins.object&#45;&gt;abjad.indicators.StartPhrasingSlur.StartPhrasingSlur</title>
<path fill="none" stroke="#778899" d="M37.6194,-1333.2248C39.5623,-1273.7461 53.4792,-963 132.1846,-963 132.1846,-963 132.1846,-963 280.1846,-963 305.014,-963 332.695,-959.5908 354.367,-956.1371"/>
<polygon fill="#778899" stroke="#778899" points="355.195,-959.5476 364.4844,-954.4529 354.0454,-952.6426 355.195,-959.5476"/>
</g>
<!-- builtins.object&#45;&gt;abjad.indicators.StartPianoPedal.StartPianoPedal -->
<g id="edge36" class="edge">
<title>builtins.object&#45;&gt;abjad.indicators.StartPianoPedal.StartPianoPedal</title>
<path fill="none" stroke="#778899" d="M37.8139,-1333.0841C40.0722,-1290.4453 51.525,-1118.8356 94.6846,-986 106.078,-950.9337 95.3138,-912 132.1846,-912 132.1846,-912 132.1846,-912 280.1846,-912 308.3254,-912 339.6404,-904.9879 362.0448,-898.7072"/>
<polygon fill="#778899" stroke="#778899" points="363.0481,-902.0605 371.6684,-895.9008 361.0883,-895.3404 363.0481,-902.0605"/>
</g>
<!-- builtins.object&#45;&gt;abjad.indicators.StartSlur.StartSlur -->
<g id="edge37" class="edge">
<title>builtins.object&#45;&gt;abjad.indicators.StartSlur.StartSlur</title>
<path fill="none" stroke="#778899" d="M38.2068,-1332.8283C44.2821,-1262.8935 81.7944,-856 132.1846,-856 132.1846,-856 132.1846,-856 280.1846,-856 309.0086,-856 341.2301,-848.939 363.7484,-842.8175"/>
<polygon fill="#778899" stroke="#778899" points="364.9956,-846.1021 373.6649,-840.0116 363.0898,-839.3665 364.9956,-846.1021"/>
</g>
<!-- builtins.object&#45;&gt;abjad.indicators.StartTextSpan.StartTextSpan -->
<g id="edge38" class="edge">
<title>builtins.object&#45;&gt;abjad.indicators.StartTextSpan.StartTextSpan</title>
<path fill="none" stroke="#778899" d="M37.9933,-1333.1845C42.9646,-1260.1321 76.2451,-804 132.1846,-804 132.1846,-804 132.1846,-804 280.1846,-804 308.7745,-804 340.5009,-796.1899 362.9261,-789.3004"/>
<polygon fill="#778899" stroke="#778899" points="364.0704,-792.6091 372.5304,-786.231 361.9395,-785.9413 364.0704,-792.6091"/>
</g>
<!-- builtins.object&#45;&gt;abjad.indicators.StartTrillSpan.StartTrillSpan -->
<g id="edge39" class="edge">
<title>builtins.object&#45;&gt;abjad.indicators.StartTrillSpan.StartTrillSpan</title>
<path fill="none" stroke="#778899" d="M37.8151,-1333.0039C41.6643,-1254.3423 69.3243,-738 132.1846,-738 132.1846,-738 132.1846,-738 280.1846,-738 308.5314,-738 340.3454,-732.0462 362.8621,-726.8043"/>
<polygon fill="#778899" stroke="#778899" points="363.9154,-730.1504 372.8099,-724.3938 362.2668,-723.3473 363.9154,-730.1504"/>
</g>
<!-- builtins.object&#45;&gt;abjad.indicators.StemTremolo.StemTremolo -->
<g id="edge40" class="edge">
<title>builtins.object&#45;&gt;abjad.indicators.StemTremolo.StemTremolo</title>
<path fill="none" stroke="#778899" d="M37.6782,-1333.1431C40.6059,-1250.9168 63.3498,-682 132.1846,-682 132.1846,-682 132.1846,-682 280.1846,-682 305.7627,-682 334.2087,-677.3945 356.0768,-672.8426"/>
<polygon fill="#778899" stroke="#778899" points="356.9044,-676.2446 365.9342,-670.7025 355.4192,-669.4039 356.9044,-676.2446"/>
</g>
<!-- builtins.object&#45;&gt;abjad.indicators.StopBeam.StopBeam -->
<g id="edge41" class="edge">
<title>builtins.object&#45;&gt;abjad.indicators.StopBeam.StopBeam</title>
<path fill="none" stroke="#778899" d="M37.5757,-1333.2059C39.7383,-1247.6885 57.9084,-631 132.1846,-631 132.1846,-631 132.1846,-631 280.1846,-631 307.7363,-631 338.7125,-626.225 361.1492,-621.8921"/>
<polygon fill="#778899" stroke="#778899" points="362.0052,-625.2901 371.1191,-619.8875 360.6253,-618.4274 362.0052,-625.2901"/>
</g>
<!-- builtins.object&#45;&gt;abjad.indicators.StopGroup.StopGroup -->
<g id="edge42" class="edge">
<title>builtins.object&#45;&gt;abjad.indicators.StopGroup.StopGroup</title>
<path fill="none" stroke="#778899" d="M37.4979,-1333.1388C39.0252,-1244.2893 53.025,-585 132.1846,-585 132.1846,-585 132.1846,-585 280.1846,-585 307.5069,-585 338.0502,-579.4688 360.3847,-574.3752"/>
<polygon fill="#778899" stroke="#778899" points="361.4129,-577.7284 370.3331,-572.0117 359.7949,-570.9179 361.4129,-577.7284"/>
</g>
<!-- builtins.object&#45;&gt;abjad.indicators.StopHairpin.StopHairpin -->
<g id="edge43" class="edge">
<title>builtins.object&#45;&gt;abjad.indicators.StopHairpin.StopHairpin</title>
<path fill="none" stroke="#778899" d="M37.4169,-1333.0263C38.2383,-1240.2184 47.2923,-531 132.1846,-531 132.1846,-531 132.1846,-531 280.1846,-531 306.654,-531 336.364,-527.1256 358.58,-523.4532"/>
<polygon fill="#778899" stroke="#778899" points="359.2677,-526.8864 368.5285,-521.7398 358.0796,-519.9879 359.2677,-526.8864"/>
</g>
<!-- builtins.object&#45;&gt;abjad.indicators.StopPhrasingSlur.StopPhrasingSlur -->
<g id="edge44" class="edge">
<title>builtins.object&#45;&gt;abjad.indicators.StopPhrasingSlur.StopPhrasingSlur</title>
<path fill="none" stroke="#778899" d="M37.7236,-1333.094C40.7904,-1254.8299 62.16,-735.2593 94.6846,-582 104.9717,-533.526 82.631,-477 132.1846,-477 132.1846,-477 132.1846,-477 280.1846,-477 305.0421,-477 332.7235,-473.3473 354.3886,-469.6469"/>
<polygon fill="#778899" stroke="#778899" points="355.2725,-473.0446 364.5022,-467.8423 354.0428,-466.1534 355.2725,-473.0446"/>
</g>
<!-- builtins.object&#45;&gt;abjad.indicators.StopPianoPedal.StopPianoPedal -->
<g id="edge45" class="edge">
<title>builtins.object&#45;&gt;abjad.indicators.StopPianoPedal.StopPianoPedal</title>
<path fill="none" stroke="#778899" d="M37.4049,-1332.9571C37.9612,-1266.4127 43.3628,-882.275 94.6846,-575 105.5087,-510.1932 66.48,-432 132.1846,-432 132.1846,-432 132.1846,-432 280.1846,-432 308.7197,-432 339.9935,-422.8538 362.282,-414.6616"/>
<polygon fill="#778899" stroke="#778899" points="363.7596,-417.8437 371.8483,-411.001 361.2579,-411.306 363.7596,-417.8437"/>
</g>
<!-- builtins.object&#45;&gt;abjad.indicators.StopSlur.StopSlur -->
<g id="edge46" class="edge">
<title>builtins.object&#45;&gt;abjad.indicators.StopSlur.StopSlur</title>
<path fill="none" stroke="#778899" d="M37.409,-1333.0263C38.0693,-1246.9647 44.5282,-628.7232 94.6846,-451 104.3773,-416.655 96.498,-380 132.1846,-380 132.1846,-380 132.1846,-380 280.1846,-380 310.1103,-380 342.7686,-369.0872 365.1206,-359.8125"/>
<polygon fill="#778899" stroke="#778899" points="366.5278,-363.0173 374.3243,-355.8434 363.7557,-356.5896 366.5278,-363.0173"/>
</g>
<!-- builtins.object&#45;&gt;abjad.indicators.StopTextSpan.StopTextSpan -->
<g id="edge47" class="edge">
<title>builtins.object&#45;&gt;abjad.indicators.StopTextSpan.StopTextSpan</title>
<path fill="none" stroke="#778899" d="M37.6797,-1333.0109C40.6363,-1246.8068 62.7824,-627.3537 94.6846,-444 104.9925,-384.7565 72.051,-314 132.1846,-314 132.1846,-314 132.1846,-314 280.1846,-314 308.4938,-314 340.0804,-307.1889 362.5328,-301.1463"/>
<polygon fill="#778899" stroke="#778899" points="363.7791,-304.432 372.4637,-298.3633 361.8901,-297.6916 363.7791,-304.432"/>
</g>
<!-- builtins.object&#45;&gt;abjad.indicators.StopTrillSpan.StopTrillSpan -->
<g id="edge48" class="edge">
<title>builtins.object&#45;&gt;abjad.indicators.StopTrillSpan.StopTrillSpan</title>
<path fill="none" stroke="#778899" d="M37.4338,-1333.0118C38.345,-1241.2534 46.7958,-543.6385 94.6846,-341 104.3685,-300.023 90.0789,-254 132.1846,-254 132.1846,-254 132.1846,-254 280.1846,-254 308.4938,-254 340.0804,-247.1889 362.5328,-241.1463"/>
<polygon fill="#778899" stroke="#778899" points="363.7791,-244.432 372.4637,-238.3633 361.8901,-237.6916 363.7791,-244.432"/>
</g>
<!-- builtins.object&#45;&gt;abjad.indicators.StringContactPoint.StringContactPoint -->
<g id="edge49" class="edge">
<title>builtins.object&#45;&gt;abjad.indicators.StringContactPoint.StringContactPoint</title>
<path fill="none" stroke="#778899" d="M37.5898,-1332.9749C39.9111,-1240.8727 58.5881,-540.5397 94.6846,-334 104.7434,-276.4448 73.757,-208 132.1846,-208 132.1846,-208 132.1846,-208 280.1846,-208 307.124,-208 336.0384,-198.496 357.7861,-189.2545"/>
<polygon fill="#778899" stroke="#778899" points="359.2141,-192.45 366.9405,-185.2007 356.3797,-186.0495 359.2141,-192.45"/>
</g>
<!-- builtins.object&#45;&gt;abjad.indicators.Tie.Tie -->
<g id="edge50" class="edge">
<title>builtins.object&#45;&gt;abjad.indicators.Tie.Tie</title>
<path fill="none" stroke="#778899" d="M37.3613,-1333.2271C37.6194,-1237.3187 41.3513,-463.0497 94.6846,-239 104.2464,-198.8315 90.8937,-154 132.1846,-154 132.1846,-154 132.1846,-154 280.1846,-154 311.5913,-154 346.2151,-142.6024 368.6075,-133.6291"/>
<polygon fill="#778899" stroke="#778899" points="370.0936,-136.8017 377.9798,-129.7265 367.4027,-130.3396 370.0936,-136.8017"/>
</g>
<!-- builtins.object&#45;&gt;abjad.indicators.TimeSignature.TimeSignature -->
<g id="edge51" class="edge">
<title>builtins.object&#45;&gt;abjad.indicators.TimeSignature.TimeSignature</title>
<path fill="none" stroke="#778899" d="M37.5527,-1332.8899C40.0903,-1214.0241 65.8983,-87 132.1846,-87 132.1846,-87 132.1846,-87 280.1846,-87 304.3674,-87 331.4218,-85.3643 352.9207,-83.6743"/>
<polygon fill="#778899" stroke="#778899" points="353.3116,-87.154 362.9915,-82.8472 352.7385,-80.1775 353.3116,-87.154"/>
</g>
<!-- builtins.object&#45;&gt;abjad.indicators.WoodwindFingering.WoodwindFingering -->
<g id="edge52" class="edge">
<title>builtins.object&#45;&gt;abjad.indicators.WoodwindFingering.WoodwindFingering</title>
<path fill="none" stroke="#778899" d="M37.5268,-1332.9207C39.8033,-1212.0131 63.5709,-44 132.1846,-44 132.1846,-44 132.1846,-44 280.1846,-44 303.8067,-44 330.0388,-41.1287 351.2101,-38.0849"/>
<polygon fill="#778899" stroke="#778899" points="351.7946,-41.5364 361.1631,-36.5886 350.7539,-34.6142 351.7946,-41.5364"/>
</g>
<!-- abjad.indicators.Arpeggio.Arpeggio -->
<g id="node1" class="node">
<title>abjad.indicators.Arpeggio.Arpeggio</title>
<g id="a_node1"><a xlink:href="../api/abjad/indicators/Arpeggio.html#abjad.indicators.Arpeggio.Arpeggio" xlink:title="Arpeggio" target="_top">
<path fill="#000000" stroke="#000000" stroke-width="2" d="M413.8858,-2563.0056C413.8858,-2563.0056 371.1679,-2563.0056 371.1679,-2563.0056 367.8327,-2563.0056 364.4976,-2559.6704 364.4976,-2556.3352 364.4976,-2556.3352 364.4976,-2549.6648 364.4976,-2549.6648 364.4976,-2546.3296 367.8327,-2542.9944 371.1679,-2542.9944 371.1679,-2542.9944 413.8858,-2542.9944 413.8858,-2542.9944 417.221,-2542.9944 420.5562,-2546.3296 420.5562,-2549.6648 420.5562,-2549.6648 420.5562,-2556.3352 420.5562,-2556.3352 420.5562,-2559.6704 417.221,-2563.0056 413.8858,-2563.0056"/>
<text text-anchor="middle" x="392.5269" y="-2550.7495" font-family="Arial" font-size="10.00" fill="#ffffff">Arpeggio</text>
</a>
</g>
</g>
<!-- abjad.indicators.Articulation.Articulation -->
<g id="node2" class="node">
<title>abjad.indicators.Articulation.Articulation</title>
<g id="a_node2"><a xlink:href="../api/abjad/indicators/Articulation.html#abjad.indicators.Articulation.Articulation" xlink:title="Articulation" target="_top">
<path fill="#000000" stroke="#000000" stroke-width="2" d="M418.8259,-2526.0056C418.8259,-2526.0056 366.2278,-2526.0056 366.2278,-2526.0056 362.8926,-2526.0056 359.5574,-2522.6704 359.5574,-2519.3352 359.5574,-2519.3352 359.5574,-2512.6648 359.5574,-2512.6648 359.5574,-2509.3296 362.8926,-2505.9944 366.2278,-2505.9944 366.2278,-2505.9944 418.8259,-2505.9944 418.8259,-2505.9944 422.1611,-2505.9944 425.4963,-2509.3296 425.4963,-2512.6648 425.4963,-2512.6648 425.4963,-2519.3352 425.4963,-2519.3352 425.4963,-2522.6704 422.1611,-2526.0056 418.8259,-2526.0056"/>
<text text-anchor="middle" x="392.5269" y="-2513.7495" font-family="Arial" font-size="10.00" fill="#ffffff">Articulation</text>
</a>
</g>
</g>
<!-- abjad.indicators.BarLine.BarLine -->
<g id="node3" class="node">
<title>abjad.indicators.BarLine.BarLine</title>
<g id="a_node3"><a xlink:href="../api/abjad/indicators/BarLine.html#abjad.indicators.BarLine.BarLine" xlink:title="Bar\nLine" target="_top">
<path fill="#000000" stroke="#000000" stroke-width="2" d="M399.6012,-2488.498C399.6012,-2488.498 385.4525,-2488.498 385.4525,-2488.498 380.2865,-2488.498 375.1205,-2483.332 375.1205,-2478.166 375.1205,-2478.166 375.1205,-2467.834 375.1205,-2467.834 375.1205,-2462.668 380.2865,-2457.502 385.4525,-2457.502 385.4525,-2457.502 399.6012,-2457.502 399.6012,-2457.502 404.7672,-2457.502 409.9332,-2462.668 409.9332,-2467.834 409.9332,-2467.834 409.9332,-2478.166 409.9332,-2478.166 409.9332,-2483.332 404.7672,-2488.498 399.6012,-2488.498"/>
<text text-anchor="middle" x="392.5269" y="-2476.499" font-family="Arial" font-size="10.00" fill="#ffffff">Bar</text>
<text text-anchor="middle" x="392.5269" y="-2465" font-family="Arial" font-size="10.00" fill="#ffffff">Line</text>
</a>
</g>
</g>
<!-- abjad.indicators.BeamCount.BeamCount -->
<g id="node4" class="node">
<title>abjad.indicators.BeamCount.BeamCount</title>
<g id="a_node4"><a xlink:href="../api/abjad/indicators/BeamCount.html#abjad.indicators.BeamCount.BeamCount" xlink:title="Beam\nCount" target="_top">
<path fill="#000000" stroke="#000000" stroke-width="2" d="M403.3806,-2439.498C403.3806,-2439.498 381.6732,-2439.498 381.6732,-2439.498 376.5071,-2439.498 371.3411,-2434.332 371.3411,-2429.166 371.3411,-2429.166 371.3411,-2418.834 371.3411,-2418.834 371.3411,-2413.668 376.5071,-2408.502 381.6732,-2408.502 381.6732,-2408.502 403.3806,-2408.502 403.3806,-2408.502 408.5466,-2408.502 413.7126,-2413.668 413.7126,-2418.834 413.7126,-2418.834 413.7126,-2429.166 413.7126,-2429.166 413.7126,-2434.332 408.5466,-2439.498 403.3806,-2439.498"/>
<text text-anchor="middle" x="392.5269" y="-2427.499" font-family="Arial" font-size="10.00" fill="#ffffff">Beam</text>
<text text-anchor="middle" x="392.5269" y="-2416" font-family="Arial" font-size="10.00" fill="#ffffff">Count</text>
</a>
</g>
</g>
<!-- abjad.indicators.BendAfter.BendAfter -->
<g id="node5" class="node">
<title>abjad.indicators.BendAfter.BendAfter</title>
<g id="a_node5"><a xlink:href="../api/abjad/indicators/BendAfter.html#abjad.indicators.BendAfter.BendAfter" xlink:title="Bend\nAfter" target="_top">
<path fill="#000000" stroke="#000000" stroke-width="2" d="M402.0509,-2390.498C402.0509,-2390.498 383.0028,-2390.498 383.0028,-2390.498 377.8368,-2390.498 372.6708,-2385.332 372.6708,-2380.166 372.6708,-2380.166 372.6708,-2369.834 372.6708,-2369.834 372.6708,-2364.668 377.8368,-2359.502 383.0028,-2359.502 383.0028,-2359.502 402.0509,-2359.502 402.0509,-2359.502 407.2169,-2359.502 412.383,-2364.668 412.383,-2369.834 412.383,-2369.834 412.383,-2380.166 412.383,-2380.166 412.383,-2385.332 407.2169,-2390.498 402.0509,-2390.498"/>
<text text-anchor="middle" x="392.5269" y="-2378.499" font-family="Arial" font-size="10.00" fill="#ffffff">Bend</text>
<text text-anchor="middle" x="392.5269" y="-2367" font-family="Arial" font-size="10.00" fill="#ffffff">After</text>
</a>
</g>
</g>
<!-- abjad.indicators.BowContactPoint.BowContactPoint -->
<g id="node6" class="node">
<title>abjad.indicators.BowContactPoint.BowContactPoint</title>
<g id="a_node6"><a xlink:href="../api/abjad/indicators/BowContactPoint.html#abjad.indicators.BowContactPoint.BowContactPoint" xlink:title="Bow\nContact\nPoint" target="_top">
<path fill="#000000" stroke="#000000" stroke-width="2" d="M405.9919,-2341.5C405.9919,-2341.5 379.0618,-2341.5 379.0618,-2341.5 373.0618,-2341.5 367.0618,-2335.5 367.0618,-2329.5 367.0618,-2329.5 367.0618,-2310.5 367.0618,-2310.5 367.0618,-2304.5 373.0618,-2298.5 379.0618,-2298.5 379.0618,-2298.5 405.9919,-2298.5 405.9919,-2298.5 411.9919,-2298.5 417.9919,-2304.5 417.9919,-2310.5 417.9919,-2310.5 417.9919,-2329.5 417.9919,-2329.5 417.9919,-2335.5 411.9919,-2341.5 405.9919,-2341.5"/>
<text text-anchor="middle" x="392.5269" y="-2329.2485" font-family="Arial" font-size="10.00" fill="#ffffff">Bow</text>
<text text-anchor="middle" x="392.5269" y="-2317.7495" font-family="Arial" font-size="10.00" fill="#ffffff">Contact</text>
<text text-anchor="middle" x="392.5269" y="-2306.2505" font-family="Arial" font-size="10.00" fill="#ffffff">Point</text>
</a>
</g>
</g>
<!-- abjad.indicators.BowMotionTechnique.BowMotionTechnique -->
<g id="node7" class="node">
<title>abjad.indicators.BowMotionTechnique.BowMotionTechnique</title>
<g id="a_node7"><a xlink:href="../api/abjad/indicators/BowMotionTechnique.html#abjad.indicators.BowMotionTechnique.BowMotionTechnique" xlink:title="Bow\nMotion\nTechnique" target="_top">
<path fill="#000000" stroke="#000000" stroke-width="2" d="M411.119,-2281.5C411.119,-2281.5 373.9347,-2281.5 373.9347,-2281.5 367.9347,-2281.5 361.9347,-2275.5 361.9347,-2269.5 361.9347,-2269.5 361.9347,-2250.5 361.9347,-2250.5 361.9347,-2244.5 367.9347,-2238.5 373.9347,-2238.5 373.9347,-2238.5 411.119,-2238.5 411.119,-2238.5 417.119,-2238.5 423.119,-2244.5 423.119,-2250.5 423.119,-2250.5 423.119,-2269.5 423.119,-2269.5 423.119,-2275.5 417.119,-2281.5 411.119,-2281.5"/>
<text text-anchor="middle" x="392.5269" y="-2269.2485" font-family="Arial" font-size="10.00" fill="#ffffff">Bow</text>
<text text-anchor="middle" x="392.5269" y="-2257.7495" font-family="Arial" font-size="10.00" fill="#ffffff">Motion</text>
<text text-anchor="middle" x="392.5269" y="-2246.2505" font-family="Arial" font-size="10.00" fill="#ffffff">Technique</text>
</a>
</g>
</g>
<!-- abjad.indicators.BowPressure.BowPressure -->
<g id="node8" class="node">
<title>abjad.indicators.BowPressure.BowPressure</title>
<g id="a_node8"><a xlink:href="../api/abjad/indicators/BowPressure.html#abjad.indicators.BowPressure.BowPressure" xlink:title="Bow\nPressure" target="_top">
<path fill="#000000" stroke="#000000" stroke-width="2" d="M410.2095,-2220.498C410.2095,-2220.498 374.8442,-2220.498 374.8442,-2220.498 369.6782,-2220.498 364.5122,-2215.332 364.5122,-2210.166 364.5122,-2210.166 364.5122,-2199.834 364.5122,-2199.834 364.5122,-2194.668 369.6782,-2189.502 374.8442,-2189.502 374.8442,-2189.502 410.2095,-2189.502 410.2095,-2189.502 415.3755,-2189.502 420.5415,-2194.668 420.5415,-2199.834 420.5415,-2199.834 420.5415,-2210.166 420.5415,-2210.166 420.5415,-2215.332 415.3755,-2220.498 410.2095,-2220.498"/>
<text text-anchor="middle" x="392.5269" y="-2208.499" font-family="Arial" font-size="10.00" fill="#ffffff">Bow</text>
<text text-anchor="middle" x="392.5269" y="-2197" font-family="Arial" font-size="10.00" fill="#ffffff">Pressure</text>
</a>
</g>
</g>
<!-- abjad.indicators.BreathMark.BreathMark -->
<g id="node9" class="node">
<title>abjad.indicators.BreathMark.BreathMark</title>
<g id="a_node9"><a xlink:href="../api/abjad/indicators/BreathMark.html#abjad.indicators.BreathMark.BreathMark" xlink:title="Breath\nMark" target="_top">
<path fill="#000000" stroke="#000000" stroke-width="2" d="M405.1601,-2171.498C405.1601,-2171.498 379.8936,-2171.498 379.8936,-2171.498 374.7276,-2171.498 369.5616,-2166.332 369.5616,-2161.166 369.5616,-2161.166 369.5616,-2150.834 369.5616,-2150.834 369.5616,-2145.668 374.7276,-2140.502 379.8936,-2140.502 379.8936,-2140.502 405.1601,-2140.502 405.1601,-2140.502 410.3261,-2140.502 415.4921,-2145.668 415.4921,-2150.834 415.4921,-2150.834 415.4921,-2161.166 415.4921,-2161.166 415.4921,-2166.332 410.3261,-2171.498 405.1601,-2171.498"/>
<text text-anchor="middle" x="392.5269" y="-2159.499" font-family="Arial" font-size="10.00" fill="#ffffff">Breath</text>
<text text-anchor="middle" x="392.5269" y="-2148" font-family="Arial" font-size="10.00" fill="#ffffff">Mark</text>
</a>
</g>
</g>
<!-- abjad.indicators.Clef.Clef -->
<g id="node10" class="node">
<title>abjad.indicators.Clef.Clef</title>
<g id="a_node10"><a xlink:href="../api/abjad/indicators/Clef.html#abjad.indicators.Clef.Clef" xlink:title="Clef" target="_top">
<path fill="#000000" stroke="#000000" stroke-width="2" d="M402.6404,-2123.0056C402.6404,-2123.0056 382.4133,-2123.0056 382.4133,-2123.0056 379.0782,-2123.0056 375.743,-2119.6704 375.743,-2116.3352 375.743,-2116.3352 375.743,-2109.6648 375.743,-2109.6648 375.743,-2106.3296 379.0782,-2102.9944 382.4133,-2102.9944 382.4133,-2102.9944 402.6404,-2102.9944 402.6404,-2102.9944 405.9756,-2102.9944 409.3107,-2106.3296 409.3107,-2109.6648 409.3107,-2109.6648 409.3107,-2116.3352 409.3107,-2116.3352 409.3107,-2119.6704 405.9756,-2123.0056 402.6404,-2123.0056"/>
<text text-anchor="middle" x="392.5269" y="-2110.7495" font-family="Arial" font-size="10.00" fill="#ffffff">Clef</text>
</a>
</g>
</g>
<!-- abjad.indicators.ColorFingering.ColorFingering -->
<g id="node11" class="node">
<title>abjad.indicators.ColorFingering.ColorFingering</title>
<g id="a_node11"><a xlink:href="../api/abjad/indicators/ColorFingering.html#abjad.indicators.ColorFingering.ColorFingering" xlink:title="Color\nFingering" target="_top">
<path fill="#000000" stroke="#000000" stroke-width="2" d="M410.8851,-2085.498C410.8851,-2085.498 374.1686,-2085.498 374.1686,-2085.498 369.0026,-2085.498 363.8366,-2080.332 363.8366,-2075.166 363.8366,-2075.166 363.8366,-2064.834 363.8366,-2064.834 363.8366,-2059.668 369.0026,-2054.502 374.1686,-2054.502 374.1686,-2054.502 410.8851,-2054.502 410.8851,-2054.502 416.0511,-2054.502 421.2171,-2059.668 421.2171,-2064.834 421.2171,-2064.834 421.2171,-2075.166 421.2171,-2075.166 421.2171,-2080.332 416.0511,-2085.498 410.8851,-2085.498"/>
<text text-anchor="middle" x="392.5269" y="-2073.499" font-family="Arial" font-size="10.00" fill="#ffffff">Color</text>
<text text-anchor="middle" x="392.5269" y="-2062" font-family="Arial" font-size="10.00" fill="#ffffff">Fingering</text>
</a>
</g>
</g>
<!-- abjad.indicators.Dynamic.Dynamic -->
<g id="node12" class="node">
<title>abjad.indicators.Dynamic.Dynamic</title>
<g id="a_node12"><a xlink:href="../api/abjad/indicators/Dynamic.html#abjad.indicators.Dynamic.Dynamic" xlink:title="Dynamic" target="_top">
<path fill="#000000" stroke="#000000" stroke-width="2" d="M413.2531,-2037.0056C413.2531,-2037.0056 371.8007,-2037.0056 371.8007,-2037.0056 368.4655,-2037.0056 365.1303,-2033.6704 365.1303,-2030.3352 365.1303,-2030.3352 365.1303,-2023.6648 365.1303,-2023.6648 365.1303,-2020.3296 368.4655,-2016.9944 371.8007,-2016.9944 371.8007,-2016.9944 413.2531,-2016.9944 413.2531,-2016.9944 416.5882,-2016.9944 419.9234,-2020.3296 419.9234,-2023.6648 419.9234,-2023.6648 419.9234,-2030.3352 419.9234,-2030.3352 419.9234,-2033.6704 416.5882,-2037.0056 413.2531,-2037.0056"/>
<text text-anchor="middle" x="392.5269" y="-2024.7495" font-family="Arial" font-size="10.00" fill="#ffffff">Dynamic</text>
</a>
</g>
</g>
<!-- abjad.indicators.Fermata.Fermata -->
<g id="node13" class="node">
<title>abjad.indicators.Fermata.Fermata</title>
<g id="a_node13"><a xlink:href="../api/abjad/indicators/Fermata.html#abjad.indicators.Fermata.Fermata" xlink:title="Fermata" target="_top">
<path fill="#000000" stroke="#000000" stroke-width="2" d="M412.5884,-2000.0056C412.5884,-2000.0056 372.4653,-2000.0056 372.4653,-2000.0056 369.1301,-2000.0056 365.7949,-1996.6704 365.7949,-1993.3352 365.7949,-1993.3352 365.7949,-1986.6648 365.7949,-1986.6648 365.7949,-1983.3296 369.1301,-1979.9944 372.4653,-1979.9944 372.4653,-1979.9944 412.5884,-1979.9944 412.5884,-1979.9944 415.9236,-1979.9944 419.2588,-1983.3296 419.2588,-1986.6648 419.2588,-1986.6648 419.2588,-1993.3352 419.2588,-1993.3352 419.2588,-1996.6704 415.9236,-2000.0056 412.5884,-2000.0056"/>
<text text-anchor="middle" x="392.5269" y="-1987.7495" font-family="Arial" font-size="10.00" fill="#ffffff">Fermata</text>
</a>
</g>
</g>
<!-- abjad.indicators.GlissandoIndicator.GlissandoIndicator -->
<g id="node14" class="node">
<title>abjad.indicators.GlissandoIndicator.GlissandoIndicator</title>
<g id="a_node14"><a xlink:href="../api/abjad/indicators/GlissandoIndicator.html#abjad.indicators.GlissandoIndicator.GlissandoIndicator" xlink:title="Glissando\nIndicator" target="_top">
<path fill="#000000" stroke="#000000" stroke-width="2" d="M412.6644,-1962.498C412.6644,-1962.498 372.3893,-1962.498 372.3893,-1962.498 367.2233,-1962.498 362.0573,-1957.332 362.0573,-1952.166 362.0573,-1952.166 362.0573,-1941.834 362.0573,-1941.834 362.0573,-1936.668 367.2233,-1931.502 372.3893,-1931.502 372.3893,-1931.502 412.6644,-1931.502 412.6644,-1931.502 417.8304,-1931.502 422.9965,-1936.668 422.9965,-1941.834 422.9965,-1941.834 422.9965,-1952.166 422.9965,-1952.166 422.9965,-1957.332 417.8304,-1962.498 412.6644,-1962.498"/>
<text text-anchor="middle" x="392.5269" y="-1950.499" font-family="Arial" font-size="10.00" fill="#ffffff">Glissando</text>
<text text-anchor="middle" x="392.5269" y="-1939" font-family="Arial" font-size="10.00" fill="#ffffff">Indicator</text>
</a>
</g>
</g>
<!-- abjad.indicators.KeyCluster.KeyCluster -->
<g id="node15" class="node">
<title>abjad.indicators.KeyCluster.KeyCluster</title>
<g id="a_node15"><a xlink:href="../api/abjad/indicators/KeyCluster.html#abjad.indicators.KeyCluster.KeyCluster" xlink:title="Key\nCluster" target="_top">
<path fill="#000000" stroke="#000000" stroke-width="2" d="M405.8707,-1913.498C405.8707,-1913.498 379.183,-1913.498 379.183,-1913.498 374.017,-1913.498 368.8509,-1908.332 368.8509,-1903.166 368.8509,-1903.166 368.8509,-1892.834 368.8509,-1892.834 368.8509,-1887.668 374.017,-1882.502 379.183,-1882.502 379.183,-1882.502 405.8707,-1882.502 405.8707,-1882.502 411.0367,-1882.502 416.2028,-1887.668 416.2028,-1892.834 416.2028,-1892.834 416.2028,-1903.166 416.2028,-1903.166 416.2028,-1908.332 411.0367,-1913.498 405.8707,-1913.498"/>
<text text-anchor="middle" x="392.5269" y="-1901.499" font-family="Arial" font-size="10.00" fill="#ffffff">Key</text>
<text text-anchor="middle" x="392.5269" y="-1890" font-family="Arial" font-size="10.00" fill="#ffffff">Cluster</text>
</a>
</g>
</g>
<!-- abjad.indicators.KeySignature.KeySignature -->
<g id="node16" class="node">
<title>abjad.indicators.KeySignature.KeySignature</title>
<g id="a_node16"><a xlink:href="../api/abjad/indicators/KeySignature.html#abjad.indicators.KeySignature.KeySignature" xlink:title="Key\nSignature" target="_top">
<path fill="#000000" stroke="#000000" stroke-width="2" d="M411.5028,-1864.498C411.5028,-1864.498 373.551,-1864.498 373.551,-1864.498 368.3849,-1864.498 363.2189,-1859.332 363.2189,-1854.166 363.2189,-1854.166 363.2189,-1843.834 363.2189,-1843.834 363.2189,-1838.668 368.3849,-1833.502 373.551,-1833.502 373.551,-1833.502 411.5028,-1833.502 411.5028,-1833.502 416.6688,-1833.502 421.8348,-1838.668 421.8348,-1843.834 421.8348,-1843.834 421.8348,-1854.166 421.8348,-1854.166 421.8348,-1859.332 416.6688,-1864.498 411.5028,-1864.498"/>
<text text-anchor="middle" x="392.5269" y="-1852.499" font-family="Arial" font-size="10.00" fill="#ffffff">Key</text>
<text text-anchor="middle" x="392.5269" y="-1841" font-family="Arial" font-size="10.00" fill="#ffffff">Signature</text>
</a>
</g>
</g>
<!-- abjad.indicators.LaissezVibrer.LaissezVibrer -->
<g id="node17" class="node">
<title>abjad.indicators.LaissezVibrer.LaissezVibrer</title>
<g id="a_node17"><a xlink:href="../api/abjad/indicators/LaissezVibrer.html#abjad.indicators.LaissezVibrer.LaissezVibrer" xlink:title="Laissez\nVibrer" target="_top">
<path fill="#000000" stroke="#000000" stroke-width="2" d="M407.1012,-1815.498C407.1012,-1815.498 377.9525,-1815.498 377.9525,-1815.498 372.7865,-1815.498 367.6205,-1810.332 367.6205,-1805.166 367.6205,-1805.166 367.6205,-1794.834 367.6205,-1794.834 367.6205,-1789.668 372.7865,-1784.502 377.9525,-1784.502 377.9525,-1784.502 407.1012,-1784.502 407.1012,-1784.502 412.2672,-1784.502 417.4332,-1789.668 417.4332,-1794.834 417.4332,-1794.834 417.4332,-1805.166 417.4332,-1805.166 417.4332,-1810.332 412.2672,-1815.498 407.1012,-1815.498"/>
<text text-anchor="middle" x="392.5269" y="-1803.499" font-family="Arial" font-size="10.00" fill="#ffffff">Laissez</text>
<text text-anchor="middle" x="392.5269" y="-1792" font-family="Arial" font-size="10.00" fill="#ffffff">Vibrer</text>
</a>
</g>
</g>
<!-- abjad.indicators.LilyPondComment.LilyPondComment -->
<g id="node18" class="node">
<title>abjad.indicators.LilyPondComment.LilyPondComment</title>
<g id="a_node18"><a xlink:href="../api/abjad/indicators/LilyPondComment.html#abjad.indicators.LilyPondComment.LilyPondComment" xlink:title="Lily\nPond\nComment" target="_top">
<path fill="#000000" stroke="#000000" stroke-width="2" d="M410.3726,-1766.5C410.3726,-1766.5 374.6811,-1766.5 374.6811,-1766.5 368.6811,-1766.5 362.6811,-1760.5 362.6811,-1754.5 362.6811,-1754.5 362.6811,-1735.5 362.6811,-1735.5 362.6811,-1729.5 368.6811,-1723.5 374.6811,-1723.5 374.6811,-1723.5 410.3726,-1723.5 410.3726,-1723.5 416.3726,-1723.5 422.3726,-1729.5 422.3726,-1735.5 422.3726,-1735.5 422.3726,-1754.5 422.3726,-1754.5 422.3726,-1760.5 416.3726,-1766.5 410.3726,-1766.5"/>
<text text-anchor="middle" x="392.5269" y="-1754.2485" font-family="Arial" font-size="10.00" fill="#ffffff">Lily</text>
<text text-anchor="middle" x="392.5269" y="-1742.7495" font-family="Arial" font-size="10.00" fill="#ffffff">Pond</text>
<text text-anchor="middle" x="392.5269" y="-1731.2505" font-family="Arial" font-size="10.00" fill="#ffffff">Comment</text>
</a>
</g>
</g>
<!-- abjad.indicators.LilyPondLiteral.LilyPondLiteral -->
<g id="node19" class="node">
<title>abjad.indicators.LilyPondLiteral.LilyPondLiteral</title>
<g id="a_node19"><a xlink:href="../api/abjad/indicators/LilyPondLiteral.html#abjad.indicators.LilyPondLiteral.LilyPondLiteral" xlink:title="Lily\nPond\nLiteral" target="_top">
<path fill="#000000" stroke="#000000" stroke-width="2" d="M402.2638,-1706.5C402.2638,-1706.5 382.7899,-1706.5 382.7899,-1706.5 376.7899,-1706.5 370.7899,-1700.5 370.7899,-1694.5 370.7899,-1694.5 370.7899,-1675.5 370.7899,-1675.5 370.7899,-1669.5 376.7899,-1663.5 382.7899,-1663.5 382.7899,-1663.5 402.2638,-1663.5 402.2638,-1663.5 408.2638,-1663.5 414.2638,-1669.5 414.2638,-1675.5 414.2638,-1675.5 414.2638,-1694.5 414.2638,-1694.5 414.2638,-1700.5 408.2638,-1706.5 402.2638,-1706.5"/>
<text text-anchor="middle" x="392.5269" y="-1694.2485" font-family="Arial" font-size="10.00" fill="#ffffff">Lily</text>
<text text-anchor="middle" x="392.5269" y="-1682.7495" font-family="Arial" font-size="10.00" fill="#ffffff">Pond</text>
<text text-anchor="middle" x="392.5269" y="-1671.2505" font-family="Arial" font-size="10.00" fill="#ffffff">Literal</text>
</a>
</g>
</g>
<!-- abjad.indicators.MarginMarkup.MarginMarkup -->
<g id="node20" class="node">
<title>abjad.indicators.MarginMarkup.MarginMarkup</title>
<g id="a_node20"><a xlink:href="../api/abjad/indicators/MarginMarkup.html#abjad.indicators.MarginMarkup.MarginMarkup" xlink:title="Margin\nMarkup" target="_top">
<path fill="#000000" stroke="#000000" stroke-width="2" d="M407.0408,-1645.498C407.0408,-1645.498 378.0129,-1645.498 378.0129,-1645.498 372.8469,-1645.498 367.6809,-1640.332 367.6809,-1635.166 367.6809,-1635.166 367.6809,-1624.834 367.6809,-1624.834 367.6809,-1619.668 372.8469,-1614.502 378.0129,-1614.502 378.0129,-1614.502 407.0408,-1614.502 407.0408,-1614.502 412.2068,-1614.502 417.3728,-1619.668 417.3728,-1624.834 417.3728,-1624.834 417.3728,-1635.166 417.3728,-1635.166 417.3728,-1640.332 412.2068,-1645.498 407.0408,-1645.498"/>
<text text-anchor="middle" x="392.5269" y="-1633.499" font-family="Arial" font-size="10.00" fill="#ffffff">Margin</text>
<text text-anchor="middle" x="392.5269" y="-1622" font-family="Arial" font-size="10.00" fill="#ffffff">Markup</text>
</a>
</g>
</g>
<!-- abjad.indicators.MetricModulation.MetricModulation -->
<g id="node21" class="node">
<title>abjad.indicators.MetricModulation.MetricModulation</title>
<g id="a_node21"><a xlink:href="../api/abjad/indicators/MetricModulation.html#abjad.indicators.MetricModulation.MetricModulation" xlink:title="Metric\nModulation" target="_top">
<path fill="#000000" stroke="#000000" stroke-width="2" d="M414.6158,-1596.498C414.6158,-1596.498 370.4379,-1596.498 370.4379,-1596.498 365.2719,-1596.498 360.1059,-1591.332 360.1059,-1586.166 360.1059,-1586.166 360.1059,-1575.834 360.1059,-1575.834 360.1059,-1570.668 365.2719,-1565.502 370.4379,-1565.502 370.4379,-1565.502 414.6158,-1565.502 414.6158,-1565.502 419.7818,-1565.502 424.9478,-1570.668 424.9478,-1575.834 424.9478,-1575.834 424.9478,-1586.166 424.9478,-1586.166 424.9478,-1591.332 419.7818,-1596.498 414.6158,-1596.498"/>
<text text-anchor="middle" x="392.5269" y="-1584.499" font-family="Arial" font-size="10.00" fill="#ffffff">Metric</text>
<text text-anchor="middle" x="392.5269" y="-1573" font-family="Arial" font-size="10.00" fill="#ffffff">Modulation</text>
</a>
</g>
</g>
<!-- abjad.indicators.MetronomeMark.MetronomeMark -->
<g id="node22" class="node">
<title>abjad.indicators.MetronomeMark.MetronomeMark</title>
<g id="a_node22"><a xlink:href="../api/abjad/indicators/MetronomeMark.html#abjad.indicators.MetronomeMark.MetronomeMark" xlink:title="Metronome\nMark" target="_top">
<path fill="#000000" stroke="#000000" stroke-width="2" d="M415.2723,-1547.498C415.2723,-1547.498 369.7814,-1547.498 369.7814,-1547.498 364.6154,-1547.498 359.4493,-1542.332 359.4493,-1537.166 359.4493,-1537.166 359.4493,-1526.834 359.4493,-1526.834 359.4493,-1521.668 364.6154,-1516.502 369.7814,-1516.502 369.7814,-1516.502 415.2723,-1516.502 415.2723,-1516.502 420.4384,-1516.502 425.6044,-1521.668 425.6044,-1526.834 425.6044,-1526.834 425.6044,-1537.166 425.6044,-1537.166 425.6044,-1542.332 420.4384,-1547.498 415.2723,-1547.498"/>
<text text-anchor="middle" x="392.5269" y="-1535.499" font-family="Arial" font-size="10.00" fill="#ffffff">Metronome</text>
<text text-anchor="middle" x="392.5269" y="-1524" font-family="Arial" font-size="10.00" fill="#ffffff">Mark</text>
</a>
</g>
</g>
<!-- abjad.indicators.Mode.Mode -->
<g id="node23" class="node">
<title>abjad.indicators.Mode.Mode</title>
<g id="a_node23"><a xlink:href="../api/abjad/indicators/Mode.html#abjad.indicators.Mode.Mode" xlink:title="Mode" target="_top">
<path fill="#000000" stroke="#000000" stroke-width="2" d="M406.3711,-1499.0056C406.3711,-1499.0056 378.6826,-1499.0056 378.6826,-1499.0056 375.3474,-1499.0056 372.0122,-1495.6704 372.0122,-1492.3352 372.0122,-1492.3352 372.0122,-1485.6648 372.0122,-1485.6648 372.0122,-1482.3296 375.3474,-1478.9944 378.6826,-1478.9944 378.6826,-1478.9944 406.3711,-1478.9944 406.3711,-1478.9944 409.7063,-1478.9944 413.0415,-1482.3296 413.0415,-1485.6648 413.0415,-1485.6648 413.0415,-1492.3352 413.0415,-1492.3352 413.0415,-1495.6704 409.7063,-1499.0056 406.3711,-1499.0056"/>
<text text-anchor="middle" x="392.5269" y="-1486.7495" font-family="Arial" font-size="10.00" fill="#ffffff">Mode</text>
</a>
</g>
</g>
<!-- abjad.indicators.Ottava.Ottava -->
<g id="node24" class="node">
<title>abjad.indicators.Ottava.Ottava</title>
<g id="a_node24"><a xlink:href="../api/abjad/indicators/Ottava.html#abjad.indicators.Ottava.Ottava" xlink:title="Ottava" target="_top">
<path fill="#000000" stroke="#000000" stroke-width="2" d="M408.8168,-1462.0056C408.8168,-1462.0056 376.2369,-1462.0056 376.2369,-1462.0056 372.9017,-1462.0056 369.5665,-1458.6704 369.5665,-1455.3352 369.5665,-1455.3352 369.5665,-1448.6648 369.5665,-1448.6648 369.5665,-1445.3296 372.9017,-1441.9944 376.2369,-1441.9944 376.2369,-1441.9944 408.8168,-1441.9944 408.8168,-1441.9944 412.152,-1441.9944 415.4872,-1445.3296 415.4872,-1448.6648 415.4872,-1448.6648 415.4872,-1455.3352 415.4872,-1455.3352 415.4872,-1458.6704 412.152,-1462.0056 408.8168,-1462.0056"/>
<text text-anchor="middle" x="392.5269" y="-1449.7495" font-family="Arial" font-size="10.00" fill="#ffffff">Ottava</text>
</a>
</g>
</g>
<!-- abjad.indicators.RehearsalMark.RehearsalMark -->
<g id="node25" class="node">
<title>abjad.indicators.RehearsalMark.RehearsalMark</title>
<g id="a_node25"><a xlink:href="../api/abjad/indicators/RehearsalMark.html#abjad.indicators.RehearsalMark.RehearsalMark" xlink:title="Rehearsal\nMark" target="_top">
<path fill="#000000" stroke="#000000" stroke-width="2" d="M412.7773,-1424.498C412.7773,-1424.498 372.2764,-1424.498 372.2764,-1424.498 367.1104,-1424.498 361.9444,-1419.332 361.9444,-1414.166 361.9444,-1414.166 361.9444,-1403.834 361.9444,-1403.834 361.9444,-1398.668 367.1104,-1393.502 372.2764,-1393.502 372.2764,-1393.502 412.7773,-1393.502 412.7773,-1393.502 417.9433,-1393.502 423.1093,-1398.668 423.1093,-1403.834 423.1093,-1403.834 423.1093,-1414.166 423.1093,-1414.166 423.1093,-1419.332 417.9433,-1424.498 412.7773,-1424.498"/>
<text text-anchor="middle" x="392.5269" y="-1412.499" font-family="Arial" font-size="10.00" fill="#ffffff">Rehearsal</text>
<text text-anchor="middle" x="392.5269" y="-1401" font-family="Arial" font-size="10.00" fill="#ffffff">Mark</text>
</a>
</g>
</g>
<!-- abjad.indicators.Repeat.Repeat -->
<g id="node26" class="node">
<title>abjad.indicators.Repeat.Repeat</title>
<g id="a_node26"><a xlink:href="../api/abjad/indicators/Repeat.html#abjad.indicators.Repeat.Repeat" xlink:title="Repeat" target="_top">
<path fill="#000000" stroke="#000000" stroke-width="2" d="M410.1032,-1376.0056C410.1032,-1376.0056 374.9505,-1376.0056 374.9505,-1376.0056 371.6153,-1376.0056 368.2801,-1372.6704 368.2801,-1369.3352 368.2801,-1369.3352 368.2801,-1362.6648 368.2801,-1362.6648 368.2801,-1359.3296 371.6153,-1355.9944 374.9505,-1355.9944 374.9505,-1355.9944 410.1032,-1355.9944 410.1032,-1355.9944 413.4384,-1355.9944 416.7736,-1359.3296 416.7736,-1362.6648 416.7736,-1362.6648 416.7736,-1369.3352 416.7736,-1369.3352 416.7736,-1372.6704 413.4384,-1376.0056 410.1032,-1376.0056"/>
<text text-anchor="middle" x="392.5269" y="-1363.7495" font-family="Arial" font-size="10.00" fill="#ffffff">Repeat</text>
</a>
</g>
</g>
<!-- abjad.indicators.RepeatTie.RepeatTie -->
<g id="node27" class="node">
<title>abjad.indicators.RepeatTie.RepeatTie</title>
<g id="a_node27"><a xlink:href="../api/abjad/indicators/RepeatTie.html#abjad.indicators.RepeatTie.RepeatTie" xlink:title="Repeat\nTie" target="_top">
<path fill="#000000" stroke="#000000" stroke-width="2" d="M406.4415,-1338.498C406.4415,-1338.498 378.6122,-1338.498 378.6122,-1338.498 373.4461,-1338.498 368.2801,-1333.332 368.2801,-1328.166 368.2801,-1328.166 368.2801,-1317.834 368.2801,-1317.834 368.2801,-1312.668 373.4461,-1307.502 378.6122,-1307.502 378.6122,-1307.502 406.4415,-1307.502 406.4415,-1307.502 411.6076,-1307.502 416.7736,-1312.668 416.7736,-1317.834 416.7736,-1317.834 416.7736,-1328.166 416.7736,-1328.166 416.7736,-1333.332 411.6076,-1338.498 406.4415,-1338.498"/>
<text text-anchor="middle" x="392.5269" y="-1326.499" font-family="Arial" font-size="10.00" fill="#ffffff">Repeat</text>
<text text-anchor="middle" x="392.5269" y="-1315" font-family="Arial" font-size="10.00" fill="#ffffff">Tie</text>
</a>
</g>
</g>
<!-- abjad.indicators.Staccatissimo.Staccatissimo -->
<g id="node28" class="node">
<title>abjad.indicators.Staccatissimo.Staccatissimo</title>
<g id="a_node28"><a xlink:href="../api/abjad/indicators/Staccatissimo.html#abjad.indicators.Staccatissimo.Staccatissimo" xlink:title="Staccatissimo" target="_top">
<path fill="#000000" stroke="#000000" stroke-width="2" d="M424.5417,-1290.0056C424.5417,-1290.0056 360.512,-1290.0056 360.512,-1290.0056 357.1768,-1290.0056 353.8416,-1286.6704 353.8416,-1283.3352 353.8416,-1283.3352 353.8416,-1276.6648 353.8416,-1276.6648 353.8416,-1273.3296 357.1768,-1269.9944 360.512,-1269.9944 360.512,-1269.9944 424.5417,-1269.9944 424.5417,-1269.9944 427.8769,-1269.9944 431.2121,-1273.3296 431.2121,-1276.6648 431.2121,-1276.6648 431.2121,-1283.3352 431.2121,-1283.3352 431.2121,-1286.6704 427.8769,-1290.0056 424.5417,-1290.0056"/>
<text text-anchor="middle" x="392.5269" y="-1277.7495" font-family="Arial" font-size="10.00" fill="#ffffff">Staccatissimo</text>
</a>
</g>
</g>
<!-- abjad.indicators.Staccato.Staccato -->
<g id="node29" class="node">
<title>abjad.indicators.Staccato.Staccato</title>
<g id="a_node29"><a xlink:href="../api/abjad/indicators/Staccato.html#abjad.indicators.Staccato.Staccato" xlink:title="Staccato" target="_top">
<path fill="#000000" stroke="#000000" stroke-width="2" d="M413.2677,-1253.0056C413.2677,-1253.0056 371.786,-1253.0056 371.786,-1253.0056 368.4508,-1253.0056 365.1157,-1249.6704 365.1157,-1246.3352 365.1157,-1246.3352 365.1157,-1239.6648 365.1157,-1239.6648 365.1157,-1236.3296 368.4508,-1232.9944 371.786,-1232.9944 371.786,-1232.9944 413.2677,-1232.9944 413.2677,-1232.9944 416.6029,-1232.9944 419.9381,-1236.3296 419.9381,-1239.6648 419.9381,-1239.6648 419.9381,-1246.3352 419.9381,-1246.3352 419.9381,-1249.6704 416.6029,-1253.0056 413.2677,-1253.0056"/>
<text text-anchor="middle" x="392.5269" y="-1240.7495" font-family="Arial" font-size="10.00" fill="#ffffff">Staccato</text>
</a>
</g>
</g>
<!-- abjad.indicators.StaffChange.StaffChange -->
<g id="node30" class="node">
<title>abjad.indicators.StaffChange.StaffChange</title>
<g id="a_node30"><a xlink:href="../api/abjad/indicators/StaffChange.html#abjad.indicators.StaffChange.StaffChange" xlink:title="Staff\nChange" target="_top">
<path fill="#000000" stroke="#000000" stroke-width="2" d="M407.7241,-1215.498C407.7241,-1215.498 377.3296,-1215.498 377.3296,-1215.498 372.1636,-1215.498 366.9976,-1210.332 366.9976,-1205.166 366.9976,-1205.166 366.9976,-1194.834 366.9976,-1194.834 366.9976,-1189.668 372.1636,-1184.502 377.3296,-1184.502 377.3296,-1184.502 407.7241,-1184.502 407.7241,-1184.502 412.8901,-1184.502 418.0562,-1189.668 418.0562,-1194.834 418.0562,-1194.834 418.0562,-1205.166 418.0562,-1205.166 418.0562,-1210.332 412.8901,-1215.498 407.7241,-1215.498"/>
<text text-anchor="middle" x="392.5269" y="-1203.499" font-family="Arial" font-size="10.00" fill="#ffffff">Staff</text>
<text text-anchor="middle" x="392.5269" y="-1192" font-family="Arial" font-size="10.00" fill="#ffffff">Change</text>
</a>
</g>
</g>
<!-- abjad.indicators.StartBeam.StartBeam -->
<g id="node31" class="node">
<title>abjad.indicators.StartBeam.StartBeam</title>
<g id="a_node31"><a xlink:href="../api/abjad/indicators/StartBeam.html#abjad.indicators.StartBeam.StartBeam" xlink:title="Start\nBeam" target="_top">
<path fill="#000000" stroke="#000000" stroke-width="2" d="M403.3181,-1166.498C403.3181,-1166.498 381.7357,-1166.498 381.7357,-1166.498 376.5696,-1166.498 371.4036,-1161.332 371.4036,-1156.166 371.4036,-1156.166 371.4036,-1145.834 371.4036,-1145.834 371.4036,-1140.668 376.5696,-1135.502 381.7357,-1135.502 381.7357,-1135.502 403.3181,-1135.502 403.3181,-1135.502 408.4841,-1135.502 413.6501,-1140.668 413.6501,-1145.834 413.6501,-1145.834 413.6501,-1156.166 413.6501,-1156.166 413.6501,-1161.332 408.4841,-1166.498 403.3181,-1166.498"/>
<text text-anchor="middle" x="392.5269" y="-1154.499" font-family="Arial" font-size="10.00" fill="#ffffff">Start</text>
<text text-anchor="middle" x="392.5269" y="-1143" font-family="Arial" font-size="10.00" fill="#ffffff">Beam</text>
</a>
</g>
</g>
<!-- abjad.indicators.StartGroup.StartGroup -->
<g id="node32" class="node">
<title>abjad.indicators.StartGroup.StartGroup</title>
<g id="a_node32"><a xlink:href="../api/abjad/indicators/StartGroup.html#abjad.indicators.StartGroup.StartGroup" xlink:title="Start\nGroup" target="_top">
<path fill="#000000" stroke="#000000" stroke-width="2" d="M403.9883,-1117.498C403.9883,-1117.498 381.0654,-1117.498 381.0654,-1117.498 375.8994,-1117.498 370.7334,-1112.332 370.7334,-1107.166 370.7334,-1107.166 370.7334,-1096.834 370.7334,-1096.834 370.7334,-1091.668 375.8994,-1086.502 381.0654,-1086.502 381.0654,-1086.502 403.9883,-1086.502 403.9883,-1086.502 409.1543,-1086.502 414.3203,-1091.668 414.3203,-1096.834 414.3203,-1096.834 414.3203,-1107.166 414.3203,-1107.166 414.3203,-1112.332 409.1543,-1117.498 403.9883,-1117.498"/>
<text text-anchor="middle" x="392.5269" y="-1105.499" font-family="Arial" font-size="10.00" fill="#ffffff">Start</text>
<text text-anchor="middle" x="392.5269" y="-1094" font-family="Arial" font-size="10.00" fill="#ffffff">Group</text>
</a>
</g>
</g>
<!-- abjad.indicators.StartHairpin.StartHairpin -->
<g id="node33" class="node">
<title>abjad.indicators.StartHairpin.StartHairpin</title>
<g id="a_node33"><a xlink:href="../api/abjad/indicators/StartHairpin.html#abjad.indicators.StartHairpin.StartHairpin" xlink:title="Start\nHairpin" target="_top">
<path fill="#000000" stroke="#000000" stroke-width="2" d="M405.8756,-1068.498C405.8756,-1068.498 379.1781,-1068.498 379.1781,-1068.498 374.0121,-1068.498 368.8461,-1063.332 368.8461,-1058.166 368.8461,-1058.166 368.8461,-1047.834 368.8461,-1047.834 368.8461,-1042.668 374.0121,-1037.502 379.1781,-1037.502 379.1781,-1037.502 405.8756,-1037.502 405.8756,-1037.502 411.0416,-1037.502 416.2076,-1042.668 416.2076,-1047.834 416.2076,-1047.834 416.2076,-1058.166 416.2076,-1058.166 416.2076,-1063.332 411.0416,-1068.498 405.8756,-1068.498"/>
<text text-anchor="middle" x="392.5269" y="-1056.499" font-family="Arial" font-size="10.00" fill="#ffffff">Start</text>
<text text-anchor="middle" x="392.5269" y="-1045" font-family="Arial" font-size="10.00" fill="#ffffff">Hairpin</text>
</a>
</g>
</g>
<!-- abjad.indicators.StartMarkup.StartMarkup -->
<g id="node34" class="node">
<title>abjad.indicators.StartMarkup.StartMarkup</title>
<g id="a_node34"><a xlink:href="../api/abjad/indicators/StartMarkup.html#abjad.indicators.StartMarkup.StartMarkup" xlink:title="Start\nMarkup" target="_top">
<path fill="#000000" stroke="#000000" stroke-width="2" d="M407.0408,-1019.498C407.0408,-1019.498 378.0129,-1019.498 378.0129,-1019.498 372.8469,-1019.498 367.6809,-1014.332 367.6809,-1009.166 367.6809,-1009.166 367.6809,-998.834 367.6809,-998.834 367.6809,-993.668 372.8469,-988.502 378.0129,-988.502 378.0129,-988.502 407.0408,-988.502 407.0408,-988.502 412.2068,-988.502 417.3728,-993.668 417.3728,-998.834 417.3728,-998.834 417.3728,-1009.166 417.3728,-1009.166 417.3728,-1014.332 412.2068,-1019.498 407.0408,-1019.498"/>
<text text-anchor="middle" x="392.5269" y="-1007.499" font-family="Arial" font-size="10.00" fill="#ffffff">Start</text>
<text text-anchor="middle" x="392.5269" y="-996" font-family="Arial" font-size="10.00" fill="#ffffff">Markup</text>
</a>
</g>
</g>
<!-- abjad.indicators.StartPhrasingSlur.StartPhrasingSlur -->
<g id="node35" class="node">
<title>abjad.indicators.StartPhrasingSlur.StartPhrasingSlur</title>
<g id="a_node35"><a xlink:href="../api/abjad/indicators/StartPhrasingSlur.html#abjad.indicators.StartPhrasingSlur.StartPhrasingSlur" xlink:title="Start\nPhrasing\nSlur" target="_top">
<path fill="#000000" stroke="#000000" stroke-width="2" d="M408.4966,-970.5C408.4966,-970.5 376.5571,-970.5 376.5571,-970.5 370.5571,-970.5 364.5571,-964.5 364.5571,-958.5 364.5571,-958.5 364.5571,-939.5 364.5571,-939.5 364.5571,-933.5 370.5571,-927.5 376.5571,-927.5 376.5571,-927.5 408.4966,-927.5 408.4966,-927.5 414.4966,-927.5 420.4966,-933.5 420.4966,-939.5 420.4966,-939.5 420.4966,-958.5 420.4966,-958.5 420.4966,-964.5 414.4966,-970.5 408.4966,-970.5"/>
<text text-anchor="middle" x="392.5269" y="-958.2485" font-family="Arial" font-size="10.00" fill="#ffffff">Start</text>
<text text-anchor="middle" x="392.5269" y="-946.7495" font-family="Arial" font-size="10.00" fill="#ffffff">Phrasing</text>
<text text-anchor="middle" x="392.5269" y="-935.2505" font-family="Arial" font-size="10.00" fill="#ffffff">Slur</text>
</a>
</g>
</g>
<!-- abjad.indicators.StartPianoPedal.StartPianoPedal -->
<g id="node36" class="node">
<title>abjad.indicators.StartPianoPedal.StartPianoPedal</title>
<g id="a_node36"><a xlink:href="../api/abjad/indicators/StartPianoPedal.html#abjad.indicators.StartPianoPedal.StartPianoPedal" xlink:title="Start\nPiano\nPedal" target="_top">
<path fill="#000000" stroke="#000000" stroke-width="2" d="M401.1052,-910.5C401.1052,-910.5 383.9485,-910.5 383.9485,-910.5 377.9485,-910.5 371.9485,-904.5 371.9485,-898.5 371.9485,-898.5 371.9485,-879.5 371.9485,-879.5 371.9485,-873.5 377.9485,-867.5 383.9485,-867.5 383.9485,-867.5 401.1052,-867.5 401.1052,-867.5 407.1052,-867.5 413.1052,-873.5 413.1052,-879.5 413.1052,-879.5 413.1052,-898.5 413.1052,-898.5 413.1052,-904.5 407.1052,-910.5 401.1052,-910.5"/>
<text text-anchor="middle" x="392.5269" y="-898.2485" font-family="Arial" font-size="10.00" fill="#ffffff">Start</text>
<text text-anchor="middle" x="392.5269" y="-886.7495" font-family="Arial" font-size="10.00" fill="#ffffff">Piano</text>
<text text-anchor="middle" x="392.5269" y="-875.2505" font-family="Arial" font-size="10.00" fill="#ffffff">Pedal</text>
</a>
</g>
</g>
<!-- abjad.indicators.StartSlur.StartSlur -->
<g id="node37" class="node">
<title>abjad.indicators.StartSlur.StartSlur</title>
<g id="a_node37"><a xlink:href="../api/abjad/indicators/StartSlur.html#abjad.indicators.StartSlur.StartSlur" xlink:title="Start\nSlur" target="_top">
<path fill="#000000" stroke="#000000" stroke-width="2" d="M400.8132,-849.498C400.8132,-849.498 384.2405,-849.498 384.2405,-849.498 379.0745,-849.498 373.9085,-844.332 373.9085,-839.166 373.9085,-839.166 373.9085,-828.834 373.9085,-828.834 373.9085,-823.668 379.0745,-818.502 384.2405,-818.502 384.2405,-818.502 400.8132,-818.502 400.8132,-818.502 405.9792,-818.502 411.1452,-823.668 411.1452,-828.834 411.1452,-828.834 411.1452,-839.166 411.1452,-839.166 411.1452,-844.332 405.9792,-849.498 400.8132,-849.498"/>
<text text-anchor="middle" x="392.5269" y="-837.499" font-family="Arial" font-size="10.00" fill="#ffffff">Start</text>
<text text-anchor="middle" x="392.5269" y="-826" font-family="Arial" font-size="10.00" fill="#ffffff">Slur</text>
</a>
</g>
</g>
<!-- abjad.indicators.StartTextSpan.StartTextSpan -->
<g id="node38" class="node">
<title>abjad.indicators.StartTextSpan.StartTextSpan</title>
<g id="a_node38"><a xlink:href="../api/abjad/indicators/StartTextSpan.html#abjad.indicators.StartTextSpan.StartTextSpan" xlink:title="Start\nText\nSpan" target="_top">
<path fill="#000000" stroke="#000000" stroke-width="2" d="M400.383,-800.5C400.383,-800.5 384.6708,-800.5 384.6708,-800.5 378.6708,-800.5 372.6708,-794.5 372.6708,-788.5 372.6708,-788.5 372.6708,-769.5 372.6708,-769.5 372.6708,-763.5 378.6708,-757.5 384.6708,-757.5 384.6708,-757.5 400.383,-757.5 400.383,-757.5 406.383,-757.5 412.383,-763.5 412.383,-769.5 412.383,-769.5 412.383,-788.5 412.383,-788.5 412.383,-794.5 406.383,-800.5 400.383,-800.5"/>
<text text-anchor="middle" x="392.5269" y="-788.2485" font-family="Arial" font-size="10.00" fill="#ffffff">Start</text>
<text text-anchor="middle" x="392.5269" y="-776.7495" font-family="Arial" font-size="10.00" fill="#ffffff">Text</text>
<text text-anchor="middle" x="392.5269" y="-765.2505" font-family="Arial" font-size="10.00" fill="#ffffff">Span</text>
</a>
</g>
</g>
<!-- abjad.indicators.StartTrillSpan.StartTrillSpan -->
<g id="node39" class="node">
<title>abjad.indicators.StartTrillSpan.StartTrillSpan</title>
<g id="a_node39"><a xlink:href="../api/abjad/indicators/StartTrillSpan.html#abjad.indicators.StartTrillSpan.StartTrillSpan" xlink:title="Start\nTrill\nSpan" target="_top">
<path fill="#000000" stroke="#000000" stroke-width="2" d="M400.383,-740.5C400.383,-740.5 384.6708,-740.5 384.6708,-740.5 378.6708,-740.5 372.6708,-734.5 372.6708,-728.5 372.6708,-728.5 372.6708,-709.5 372.6708,-709.5 372.6708,-703.5 378.6708,-697.5 384.6708,-697.5 384.6708,-697.5 400.383,-697.5 400.383,-697.5 406.383,-697.5 412.383,-703.5 412.383,-709.5 412.383,-709.5 412.383,-728.5 412.383,-728.5 412.383,-734.5 406.383,-740.5 400.383,-740.5"/>
<text text-anchor="middle" x="392.5269" y="-728.2485" font-family="Arial" font-size="10.00" fill="#ffffff">Start</text>
<text text-anchor="middle" x="392.5269" y="-716.7495" font-family="Arial" font-size="10.00" fill="#ffffff">Trill</text>
<text text-anchor="middle" x="392.5269" y="-705.2505" font-family="Arial" font-size="10.00" fill="#ffffff">Span</text>
</a>
</g>
</g>
<!-- abjad.indicators.StemTremolo.StemTremolo -->
<g id="node40" class="node">
<title>abjad.indicators.StemTremolo.StemTremolo</title>
<g id="a_node40"><a xlink:href="../api/abjad/indicators/StemTremolo.html#abjad.indicators.StemTremolo.StemTremolo" xlink:title="Stem\nTremolo" target="_top">
<path fill="#000000" stroke="#000000" stroke-width="2" d="M408.4994,-679.498C408.4994,-679.498 376.5543,-679.498 376.5543,-679.498 371.3883,-679.498 366.2223,-674.332 366.2223,-669.166 366.2223,-669.166 366.2223,-658.834 366.2223,-658.834 366.2223,-653.668 371.3883,-648.502 376.5543,-648.502 376.5543,-648.502 408.4994,-648.502 408.4994,-648.502 413.6654,-648.502 418.8315,-653.668 418.8315,-658.834 418.8315,-658.834 418.8315,-669.166 418.8315,-669.166 418.8315,-674.332 413.6654,-679.498 408.4994,-679.498"/>
<text text-anchor="middle" x="392.5269" y="-667.499" font-family="Arial" font-size="10.00" fill="#ffffff">Stem</text>
<text text-anchor="middle" x="392.5269" y="-656" font-family="Arial" font-size="10.00" fill="#ffffff">Tremolo</text>
</a>
</g>
</g>
<!-- abjad.indicators.StopBeam.StopBeam -->
<g id="node41" class="node">
<title>abjad.indicators.StopBeam.StopBeam</title>
<g id="a_node41"><a xlink:href="../api/abjad/indicators/StopBeam.html#abjad.indicators.StopBeam.StopBeam" xlink:title="Stop\nBeam" target="_top">
<path fill="#000000" stroke="#000000" stroke-width="2" d="M403.3181,-630.498C403.3181,-630.498 381.7357,-630.498 381.7357,-630.498 376.5696,-630.498 371.4036,-625.332 371.4036,-620.166 371.4036,-620.166 371.4036,-609.834 371.4036,-609.834 371.4036,-604.668 376.5696,-599.502 381.7357,-599.502 381.7357,-599.502 403.3181,-599.502 403.3181,-599.502 408.4841,-599.502 413.6501,-604.668 413.6501,-609.834 413.6501,-609.834 413.6501,-620.166 413.6501,-620.166 413.6501,-625.332 408.4841,-630.498 403.3181,-630.498"/>
<text text-anchor="middle" x="392.5269" y="-618.499" font-family="Arial" font-size="10.00" fill="#ffffff">Stop</text>
<text text-anchor="middle" x="392.5269" y="-607" font-family="Arial" font-size="10.00" fill="#ffffff">Beam</text>
</a>
</g>
</g>
<!-- abjad.indicators.StopGroup.StopGroup -->
<g id="node42" class="node">
<title>abjad.indicators.StopGroup.StopGroup</title>
<g id="a_node42"><a xlink:href="../api/abjad/indicators/StopGroup.html#abjad.indicators.StopGroup.StopGroup" xlink:title="Stop\nGroup" target="_top">
<path fill="#000000" stroke="#000000" stroke-width="2" d="M403.9883,-581.498C403.9883,-581.498 381.0654,-581.498 381.0654,-581.498 375.8994,-581.498 370.7334,-576.332 370.7334,-571.166 370.7334,-571.166 370.7334,-560.834 370.7334,-560.834 370.7334,-555.668 375.8994,-550.502 381.0654,-550.502 381.0654,-550.502 403.9883,-550.502 403.9883,-550.502 409.1543,-550.502 414.3203,-555.668 414.3203,-560.834 414.3203,-560.834 414.3203,-571.166 414.3203,-571.166 414.3203,-576.332 409.1543,-581.498 403.9883,-581.498"/>
<text text-anchor="middle" x="392.5269" y="-569.499" font-family="Arial" font-size="10.00" fill="#ffffff">Stop</text>
<text text-anchor="middle" x="392.5269" y="-558" font-family="Arial" font-size="10.00" fill="#ffffff">Group</text>
</a>
</g>
</g>
<!-- abjad.indicators.StopHairpin.StopHairpin -->
<g id="node43" class="node">
<title>abjad.indicators.StopHairpin.StopHairpin</title>
<g id="a_node43"><a xlink:href="../api/abjad/indicators/StopHairpin.html#abjad.indicators.StopHairpin.StopHairpin" xlink:title="Stop\nHairpin" target="_top">
<path fill="#000000" stroke="#000000" stroke-width="2" d="M405.8756,-532.498C405.8756,-532.498 379.1781,-532.498 379.1781,-532.498 374.0121,-532.498 368.8461,-527.332 368.8461,-522.166 368.8461,-522.166 368.8461,-511.834 368.8461,-511.834 368.8461,-506.668 374.0121,-501.502 379.1781,-501.502 379.1781,-501.502 405.8756,-501.502 405.8756,-501.502 411.0416,-501.502 416.2076,-506.668 416.2076,-511.834 416.2076,-511.834 416.2076,-522.166 416.2076,-522.166 416.2076,-527.332 411.0416,-532.498 405.8756,-532.498"/>
<text text-anchor="middle" x="392.5269" y="-520.499" font-family="Arial" font-size="10.00" fill="#ffffff">Stop</text>
<text text-anchor="middle" x="392.5269" y="-509" font-family="Arial" font-size="10.00" fill="#ffffff">Hairpin</text>
</a>
</g>
</g>
<!-- abjad.indicators.StopPhrasingSlur.StopPhrasingSlur -->
<g id="node44" class="node">
<title>abjad.indicators.StopPhrasingSlur.StopPhrasingSlur</title>
<g id="a_node44"><a xlink:href="../api/abjad/indicators/StopPhrasingSlur.html#abjad.indicators.StopPhrasingSlur.StopPhrasingSlur" xlink:title="Stop\nPhrasing\nSlur" target="_top">
<path fill="#000000" stroke="#000000" stroke-width="2" d="M408.4966,-483.5C408.4966,-483.5 376.5571,-483.5 376.5571,-483.5 370.5571,-483.5 364.5571,-477.5 364.5571,-471.5 364.5571,-471.5 364.5571,-452.5 364.5571,-452.5 364.5571,-446.5 370.5571,-440.5 376.5571,-440.5 376.5571,-440.5 408.4966,-440.5 408.4966,-440.5 414.4966,-440.5 420.4966,-446.5 420.4966,-452.5 420.4966,-452.5 420.4966,-471.5 420.4966,-471.5 420.4966,-477.5 414.4966,-483.5 408.4966,-483.5"/>
<text text-anchor="middle" x="392.5269" y="-471.2485" font-family="Arial" font-size="10.00" fill="#ffffff">Stop</text>
<text text-anchor="middle" x="392.5269" y="-459.7495" font-family="Arial" font-size="10.00" fill="#ffffff">Phrasing</text>
<text text-anchor="middle" x="392.5269" y="-448.2505" font-family="Arial" font-size="10.00" fill="#ffffff">Slur</text>
</a>
</g>
</g>
<!-- abjad.indicators.StopPianoPedal.StopPianoPedal -->
<g id="node45" class="node">
<title>abjad.indicators.StopPianoPedal.StopPianoPedal</title>
<g id="a_node45"><a xlink:href="../api/abjad/indicators/StopPianoPedal.html#abjad.indicators.StopPianoPedal.StopPianoPedal" xlink:title="Stop\nPiano\nPedal" target="_top">
<path fill="#000000" stroke="#000000" stroke-width="2" d="M401.1052,-423.5C401.1052,-423.5 383.9485,-423.5 383.9485,-423.5 377.9485,-423.5 371.9485,-417.5 371.9485,-411.5 371.9485,-411.5 371.9485,-392.5 371.9485,-392.5 371.9485,-386.5 377.9485,-380.5 383.9485,-380.5 383.9485,-380.5 401.1052,-380.5 401.1052,-380.5 407.1052,-380.5 413.1052,-386.5 413.1052,-392.5 413.1052,-392.5 413.1052,-411.5 413.1052,-411.5 413.1052,-417.5 407.1052,-423.5 401.1052,-423.5"/>
<text text-anchor="middle" x="392.5269" y="-411.2485" font-family="Arial" font-size="10.00" fill="#ffffff">Stop</text>
<text text-anchor="middle" x="392.5269" y="-399.7495" font-family="Arial" font-size="10.00" fill="#ffffff">Piano</text>
<text text-anchor="middle" x="392.5269" y="-388.2505" font-family="Arial" font-size="10.00" fill="#ffffff">Pedal</text>
</a>
</g>
</g>
<!-- abjad.indicators.StopSlur.StopSlur -->
<g id="node46" class="node">
<title>abjad.indicators.StopSlur.StopSlur</title>
<g id="a_node46"><a xlink:href="../api/abjad/indicators/StopSlur.html#abjad.indicators.StopSlur.StopSlur" xlink:title="Stop\nSlur" target="_top">
<path fill="#000000" stroke="#000000" stroke-width="2" d="M400.2686,-362.498C400.2686,-362.498 384.7851,-362.498 384.7851,-362.498 379.6191,-362.498 374.4531,-357.332 374.4531,-352.166 374.4531,-352.166 374.4531,-341.834 374.4531,-341.834 374.4531,-336.668 379.6191,-331.502 384.7851,-331.502 384.7851,-331.502 400.2686,-331.502 400.2686,-331.502 405.4346,-331.502 410.6006,-336.668 410.6006,-341.834 410.6006,-341.834 410.6006,-352.166 410.6006,-352.166 410.6006,-357.332 405.4346,-362.498 400.2686,-362.498"/>
<text text-anchor="middle" x="392.5269" y="-350.499" font-family="Arial" font-size="10.00" fill="#ffffff">Stop</text>
<text text-anchor="middle" x="392.5269" y="-339" font-family="Arial" font-size="10.00" fill="#ffffff">Slur</text>
</a>
</g>
</g>
<!-- abjad.indicators.StopTextSpan.StopTextSpan -->
<g id="node47" class="node">
<title>abjad.indicators.StopTextSpan.StopTextSpan</title>
<g id="a_node47"><a xlink:href="../api/abjad/indicators/StopTextSpan.html#abjad.indicators.StopTextSpan.StopTextSpan" xlink:title="Stop\nText\nSpan" target="_top">
<path fill="#000000" stroke="#000000" stroke-width="2" d="M400.383,-313.5C400.383,-313.5 384.6708,-313.5 384.6708,-313.5 378.6708,-313.5 372.6708,-307.5 372.6708,-301.5 372.6708,-301.5 372.6708,-282.5 372.6708,-282.5 372.6708,-276.5 378.6708,-270.5 384.6708,-270.5 384.6708,-270.5 400.383,-270.5 400.383,-270.5 406.383,-270.5 412.383,-276.5 412.383,-282.5 412.383,-282.5 412.383,-301.5 412.383,-301.5 412.383,-307.5 406.383,-313.5 400.383,-313.5"/>
<text text-anchor="middle" x="392.5269" y="-301.2485" font-family="Arial" font-size="10.00" fill="#ffffff">Stop</text>
<text text-anchor="middle" x="392.5269" y="-289.7495" font-family="Arial" font-size="10.00" fill="#ffffff">Text</text>
<text text-anchor="middle" x="392.5269" y="-278.2505" font-family="Arial" font-size="10.00" fill="#ffffff">Span</text>
</a>
</g>
</g>
<!-- abjad.indicators.StopTrillSpan.StopTrillSpan -->
<g id="node48" class="node">
<title>abjad.indicators.StopTrillSpan.StopTrillSpan</title>
<g id="a_node48"><a xlink:href="../api/abjad/indicators/StopTrillSpan.html#abjad.indicators.StopTrillSpan.StopTrillSpan" xlink:title="Stop\nTrill\nSpan" target="_top">
<path fill="#000000" stroke="#000000" stroke-width="2" d="M400.383,-253.5C400.383,-253.5 384.6708,-253.5 384.6708,-253.5 378.6708,-253.5 372.6708,-247.5 372.6708,-241.5 372.6708,-241.5 372.6708,-222.5 372.6708,-222.5 372.6708,-216.5 378.6708,-210.5 384.6708,-210.5 384.6708,-210.5 400.383,-210.5 400.383,-210.5 406.383,-210.5 412.383,-216.5 412.383,-222.5 412.383,-222.5 412.383,-241.5 412.383,-241.5 412.383,-247.5 406.383,-253.5 400.383,-253.5"/>
<text text-anchor="middle" x="392.5269" y="-241.2485" font-family="Arial" font-size="10.00" fill="#ffffff">Stop</text>
<text text-anchor="middle" x="392.5269" y="-229.7495" font-family="Arial" font-size="10.00" fill="#ffffff">Trill</text>
<text text-anchor="middle" x="392.5269" y="-218.2505" font-family="Arial" font-size="10.00" fill="#ffffff">Span</text>
</a>
</g>
</g>
<!-- abjad.indicators.StringContactPoint.StringContactPoint -->
<g id="node49" class="node">
<title>abjad.indicators.StringContactPoint.StringContactPoint</title>
<g id="a_node49"><a xlink:href="../api/abjad/indicators/StringContactPoint.html#abjad.indicators.StringContactPoint.StringContactPoint" xlink:title="String\nContact\nPoint" target="_top">
<path fill="#000000" stroke="#000000" stroke-width="2" d="M405.9919,-193.5C405.9919,-193.5 379.0618,-193.5 379.0618,-193.5 373.0618,-193.5 367.0618,-187.5 367.0618,-181.5 367.0618,-181.5 367.0618,-162.5 367.0618,-162.5 367.0618,-156.5 373.0618,-150.5 379.0618,-150.5 379.0618,-150.5 405.9919,-150.5 405.9919,-150.5 411.9919,-150.5 417.9919,-156.5 417.9919,-162.5 417.9919,-162.5 417.9919,-181.5 417.9919,-181.5 417.9919,-187.5 411.9919,-193.5 405.9919,-193.5"/>
<text text-anchor="middle" x="392.5269" y="-181.2485" font-family="Arial" font-size="10.00" fill="#ffffff">String</text>
<text text-anchor="middle" x="392.5269" y="-169.7495" font-family="Arial" font-size="10.00" fill="#ffffff">Contact</text>
<text text-anchor="middle" x="392.5269" y="-158.2505" font-family="Arial" font-size="10.00" fill="#ffffff">Point</text>
</a>
</g>
</g>
<!-- abjad.indicators.Tie.Tie -->
<g id="node50" class="node">
<title>abjad.indicators.Tie.Tie</title>
<g id="a_node50"><a xlink:href="../api/abjad/indicators/Tie.html#abjad.indicators.Tie.Tie" xlink:title="Tie" target="_top">
<path fill="#000000" stroke="#000000" stroke-width="2" d="M400.3808,-133.0056C400.3808,-133.0056 384.6729,-133.0056 384.6729,-133.0056 381.3377,-133.0056 378.0025,-129.6704 378.0025,-126.3352 378.0025,-126.3352 378.0025,-119.6648 378.0025,-119.6648 378.0025,-116.3296 381.3377,-112.9944 384.6729,-112.9944 384.6729,-112.9944 400.3808,-112.9944 400.3808,-112.9944 403.716,-112.9944 407.0512,-116.3296 407.0512,-119.6648 407.0512,-119.6648 407.0512,-126.3352 407.0512,-126.3352 407.0512,-129.6704 403.716,-133.0056 400.3808,-133.0056"/>
<text text-anchor="middle" x="392.5269" y="-120.7495" font-family="Arial" font-size="10.00" fill="#ffffff">Tie</text>
</a>
</g>
</g>
<!-- abjad.indicators.TimeSignature.TimeSignature -->
<g id="node51" class="node">
<title>abjad.indicators.TimeSignature.TimeSignature</title>
<g id="a_node51"><a xlink:href="../api/abjad/indicators/TimeSignature.html#abjad.indicators.TimeSignature.TimeSignature" xlink:title="Time\nSignature" target="_top">
<path fill="#000000" stroke="#000000" stroke-width="2" d="M411.5028,-95.498C411.5028,-95.498 373.551,-95.498 373.551,-95.498 368.3849,-95.498 363.2189,-90.332 363.2189,-85.166 363.2189,-85.166 363.2189,-74.834 363.2189,-74.834 363.2189,-69.668 368.3849,-64.502 373.551,-64.502 373.551,-64.502 411.5028,-64.502 411.5028,-64.502 416.6688,-64.502 421.8348,-69.668 421.8348,-74.834 421.8348,-74.834 421.8348,-85.166 421.8348,-85.166 421.8348,-90.332 416.6688,-95.498 411.5028,-95.498"/>
<text text-anchor="middle" x="392.5269" y="-83.499" font-family="Arial" font-size="10.00" fill="#ffffff">Time</text>
<text text-anchor="middle" x="392.5269" y="-72" font-family="Arial" font-size="10.00" fill="#ffffff">Signature</text>
</a>
</g>
</g>
<!-- abjad.indicators.WoodwindFingering.WoodwindFingering -->
<g id="node52" class="node">
<title>abjad.indicators.WoodwindFingering.WoodwindFingering</title>
<g id="a_node52"><a xlink:href="../api/abjad/indicators/WoodwindFingering.html#abjad.indicators.WoodwindFingering.WoodwindFingering" xlink:title="Woodwind\nFingering" target="_top">
<path fill="#000000" stroke="#000000" stroke-width="2" d="M413.2055,-46.498C413.2055,-46.498 371.8482,-46.498 371.8482,-46.498 366.6822,-46.498 361.5162,-41.332 361.5162,-36.166 361.5162,-36.166 361.5162,-25.834 361.5162,-25.834 361.5162,-20.668 366.6822,-15.502 371.8482,-15.502 371.8482,-15.502 413.2055,-15.502 413.2055,-15.502 418.3715,-15.502 423.5376,-20.668 423.5376,-25.834 423.5376,-25.834 423.5376,-36.166 423.5376,-36.166 423.5376,-41.332 418.3715,-46.498 413.2055,-46.498"/>
<text text-anchor="middle" x="392.5269" y="-34.499" font-family="Arial" font-size="10.00" fill="#ffffff">Woodwind</text>
<text text-anchor="middle" x="392.5269" y="-23" font-family="Arial" font-size="10.00" fill="#ffffff">Fingering</text>
</a>
</g>
</g>
<!-- builtins.object -->
<g id="node53" class="node">
<title>builtins.object</title>
<g id="a_node53"><a xlink:href="https://docs.python.org/3.6/library/functions.html#object" xlink:title="object" target="_top">
<path fill="#b3cde3" stroke="#b3cde3" stroke-width="2" d="M51.8576,-1353.0056C51.8576,-1353.0056 22.8269,-1353.0056 22.8269,-1353.0056 19.4918,-1353.0056 16.1566,-1349.6704 16.1566,-1346.3352 16.1566,-1346.3352 16.1566,-1339.6648 16.1566,-1339.6648 16.1566,-1336.3296 19.4918,-1332.9944 22.8269,-1332.9944 22.8269,-1332.9944 51.8576,-1332.9944 51.8576,-1332.9944 55.1928,-1332.9944 58.528,-1336.3296 58.528,-1339.6648 58.528,-1339.6648 58.528,-1346.3352 58.528,-1346.3352 58.528,-1349.6704 55.1928,-1353.0056 51.8576,-1353.0056"/>
<text text-anchor="middle" x="37.3423" y="-1340.7495" font-family="Arial" font-size="10.00" fill="#000000">object</text>
</a>
</g>
</g>
</g>
</svg>
