<?xml version="1.0" encoding="UTF-8" standalone="no"?>
<!DOCTYPE svg PUBLIC "-//W3C//DTD SVG 1.1//EN"
 "http://www.w3.org/Graphics/SVG/1.1/DTD/svg11.dtd">
<!-- Generated by graphviz version 2.49.2 (20211016.1639)
 -->
<!-- Title: InheritanceGraph Pages: 1 -->
<svg width="205pt" height="89pt"
 viewBox="0.00 0.00 205.00 89.00" xmlns="http://www.w3.org/2000/svg" xmlns:xlink="http://www.w3.org/1999/xlink">
<g id="graph0" class="graph" transform="scale(1 1) rotate(0) translate(4 85)">
<title>InheritanceGraph</title>
<g id="clust1" class="cluster">
<title>cluster_abjad.segmentmaker</title>
<path fill="transparent" stroke="#bcd2ee" stroke-width="2" stroke-dasharray="5,2" d="M99,-8C99,-8 185,-8 185,-8 191,-8 197,-14 197,-20 197,-20 197,-61 197,-61 197,-67 191,-73 185,-73 185,-73 99,-73 99,-73 93,-73 87,-67 87,-61 87,-61 87,-20 87,-20 87,-14 93,-8 99,-8"/>
<text text-anchor="middle" x="142" y="-61" font-family="Arial" font-size="10.00">abjad.segmentmaker</text>
</g>
<g id="clust2" class="cluster">
<title>cluster_builtins</title>
<path fill="transparent" stroke="#bcd2ee" stroke-width="2" stroke-dasharray="5,2" d="M20,-13C20,-13 55,-13 55,-13 61,-13 67,-19 67,-25 67,-25 67,-56 67,-56 67,-62 61,-68 55,-68 55,-68 20,-68 20,-68 14,-68 8,-62 8,-56 8,-56 8,-25 8,-25 8,-19 14,-13 20,-13"/>
<text text-anchor="middle" x="37.5" y="-56" font-family="Arial" font-size="10.00">builtins</text>
</g>
<!-- builtins.object&#45;&gt;abjad.segmentmaker.SegmentMaker -->
<g id="edge1" class="edge">
<title>builtins.object&#45;&gt;abjad.segmentmaker.SegmentMaker</title>
<path fill="none" stroke="lightslategrey" d="M59.14,-31C71.6,-31 87.86,-31 102.57,-31"/>
<polygon fill="lightslategrey" stroke="lightslategrey" points="102.93,-34.5 112.93,-31 102.93,-27.5 102.93,-34.5"/>
</g>
<!-- abjad.segmentmaker.SegmentMaker -->
<g id="node1" class="node">
<title>abjad.segmentmaker.SegmentMaker</title>
<g id="a_node1"><a xlink:href="../api/abjad/segmentmaker.html#abjad.segmentmaker.SegmentMaker" xlink:title="Segment\nMaker" target="_top">
<path fill="black" stroke="black" stroke-width="2" d="M160,-46C160,-46 123,-46 123,-46 118,-46 113,-41 113,-36 113,-36 113,-26 113,-26 113,-21 118,-16 123,-16 123,-16 160,-16 160,-16 165,-16 170,-21 170,-26 170,-26 170,-36 170,-36 170,-41 165,-46 160,-46"/>
<text text-anchor="middle" x="141.5" y="-34" font-family="Arial" font-size="10.00" fill="white">Segment</text>
<text text-anchor="middle" x="141.5" y="-23" font-family="Arial" font-size="10.00" fill="white">Maker</text>
</a>
</g>
</g>
<!-- builtins.object -->
<g id="node2" class="node">
<title>builtins.object</title>
<g id="a_node2"><a xlink:href="https://docs.python.org/3.10/library/functions.html#object" xlink:title="object" target="_top">
<path fill="#b3cde3" stroke="#b3cde3" stroke-width="2" d="M52.67,-40.5C52.67,-40.5 22.33,-40.5 22.33,-40.5 19.17,-40.5 16,-37.33 16,-34.17 16,-34.17 16,-27.83 16,-27.83 16,-24.67 19.17,-21.5 22.33,-21.5 22.33,-21.5 52.67,-21.5 52.67,-21.5 55.83,-21.5 59,-24.67 59,-27.83 59,-27.83 59,-34.17 59,-34.17 59,-37.33 55.83,-40.5 52.67,-40.5"/>
<text text-anchor="middle" x="37.5" y="-28.5" font-family="Arial" font-size="10.00">object</text>
</a>
</g>
</g>
</g>
</svg>
