<?xml version="1.0" encoding="UTF-8" standalone="no"?>
<!DOCTYPE svg PUBLIC "-//W3C//DTD SVG 1.1//EN"
 "http://www.w3.org/Graphics/SVG/1.1/DTD/svg11.dtd">
<!-- Generated by graphviz version 2.49.2 (20211016.1639)
 -->
<!-- Title: InheritanceGraph Pages: 1 -->
<svg width="224pt" height="79pt"
 viewBox="0.00 0.00 224.00 79.00" xmlns="http://www.w3.org/2000/svg" xmlns:xlink="http://www.w3.org/1999/xlink">
<g id="graph0" class="graph" transform="scale(1 1) rotate(0) translate(4 75)">
<title>InheritanceGraph</title>
<g id="clust1" class="cluster">
<title>cluster_abjadext.nauert.quantizer</title>
<path fill="transparent" stroke="#bcd2ee" stroke-width="2" stroke-dasharray="5,2" d="M99,-8C99,-8 204,-8 204,-8 210,-8 216,-14 216,-20 216,-20 216,-51 216,-51 216,-57 210,-63 204,-63 204,-63 99,-63 99,-63 93,-63 87,-57 87,-51 87,-51 87,-20 87,-20 87,-14 93,-8 99,-8"/>
<text text-anchor="middle" x="151.5" y="-51" font-family="Arial" font-size="10.00">abjadext.nauert.quantizer</text>
</g>
<g id="clust2" class="cluster">
<title>cluster_builtins</title>
<path fill="transparent" stroke="#bcd2ee" stroke-width="2" stroke-dasharray="5,2" d="M20,-8C20,-8 55,-8 55,-8 61,-8 67,-14 67,-20 67,-20 67,-51 67,-51 67,-57 61,-63 55,-63 55,-63 20,-63 20,-63 14,-63 8,-57 8,-51 8,-51 8,-20 8,-20 8,-14 14,-8 20,-8"/>
<text text-anchor="middle" x="37.5" y="-51" font-family="Arial" font-size="10.00">builtins</text>
</g>
<!-- builtins.object&#45;&gt;abjadext.nauert.quantizer.Quantizer -->
<g id="edge1" class="edge">
<title>builtins.object&#45;&gt;abjadext.nauert.quantizer.Quantizer</title>
<path fill="none" stroke="lightslategrey" d="M59.21,-26C73.61,-26 93.24,-26 110.57,-26"/>
<polygon fill="lightslategrey" stroke="lightslategrey" points="110.99,-29.5 120.99,-26 110.99,-22.5 110.99,-29.5"/>
</g>
<!-- abjadext.nauert.quantizer.Quantizer -->
<g id="node1" class="node">
<title>abjadext.nauert.quantizer.Quantizer</title>
<g id="a_node1"><a xlink:href="../api/abjadext/nauert/quantizer.html#abjadext.nauert.quantizer.Quantizer" xlink:title="Quantizer" target="_top">
<path fill="black" stroke="black" stroke-width="2" d="M174.67,-35.5C174.67,-35.5 127.33,-35.5 127.33,-35.5 124.17,-35.5 121,-32.33 121,-29.17 121,-29.17 121,-22.83 121,-22.83 121,-19.67 124.17,-16.5 127.33,-16.5 127.33,-16.5 174.67,-16.5 174.67,-16.5 177.83,-16.5 181,-19.67 181,-22.83 181,-22.83 181,-29.17 181,-29.17 181,-32.33 177.83,-35.5 174.67,-35.5"/>
<text text-anchor="middle" x="151" y="-23.5" font-family="Arial" font-size="10.00" fill="white">Quantizer</text>
</a>
</g>
</g>
<!-- builtins.object -->
<g id="node2" class="node">
<title>builtins.object</title>
<g id="a_node2"><a xlink:href="https://docs.python.org/3.10/library/functions.html#object" xlink:title="object" target="_top">
<path fill="#b3cde3" stroke="#b3cde3" stroke-width="2" d="M52.67,-35.5C52.67,-35.5 22.33,-35.5 22.33,-35.5 19.17,-35.5 16,-32.33 16,-29.17 16,-29.17 16,-22.83 16,-22.83 16,-19.67 19.17,-16.5 22.33,-16.5 22.33,-16.5 52.67,-16.5 52.67,-16.5 55.83,-16.5 59,-19.67 59,-22.83 59,-22.83 59,-29.17 59,-29.17 59,-32.33 55.83,-35.5 52.67,-35.5"/>
<text text-anchor="middle" x="37.5" y="-23.5" font-family="Arial" font-size="10.00">object</text>
</a>
</g>
</g>
</g>
</svg>
