<?xml version="1.0" encoding="UTF-8" standalone="no"?>
<!DOCTYPE svg PUBLIC "-//W3C//DTD SVG 1.1//EN"
 "http://www.w3.org/Graphics/SVG/1.1/DTD/svg11.dtd">
<!-- Generated by graphviz version 2.40.1 (20161225.0304)
 -->
<!-- Title: InheritanceGraph Pages: 1 -->
<svg width="214pt" height="90pt"
 viewBox="0.00 0.00 213.61 90.00" xmlns="http://www.w3.org/2000/svg" xmlns:xlink="http://www.w3.org/1999/xlink">
<g id="graph0" class="graph" transform="scale(1 1) rotate(0) translate(4 86)">
<title>InheritanceGraph</title>
<g id="clust1" class="cluster">
<title>cluster_abjad.metricmodulation</title>
<path fill="transparent" stroke="#bcd2ee" stroke-width="2" stroke-dasharray="5,2" d="M98.6846,-8C98.6846,-8 193.6055,-8 193.6055,-8 199.6055,-8 205.6055,-14 205.6055,-20 205.6055,-20 205.6055,-62 205.6055,-62 205.6055,-68 199.6055,-74 193.6055,-74 193.6055,-74 98.6846,-74 98.6846,-74 92.6846,-74 86.6846,-68 86.6846,-62 86.6846,-62 86.6846,-20 86.6846,-20 86.6846,-14 92.6846,-8 98.6846,-8"/>
<text text-anchor="middle" x="146.145" y="-62" font-family="Arial" font-size="10.00" fill="#000000">abjad.metricmodulation</text>
</g>
<g id="clust2" class="cluster">
<title>cluster_builtins</title>
<path fill="transparent" stroke="#bcd2ee" stroke-width="2" stroke-dasharray="5,2" d="M20,-13C20,-13 54.6846,-13 54.6846,-13 60.6846,-13 66.6846,-19 66.6846,-25 66.6846,-25 66.6846,-56 66.6846,-56 66.6846,-62 60.6846,-68 54.6846,-68 54.6846,-68 20,-68 20,-68 14,-68 8,-62 8,-56 8,-56 8,-25 8,-25 8,-19 14,-13 20,-13"/>
<text text-anchor="middle" x="37.3423" y="-56" font-family="Arial" font-size="10.00" fill="#000000">builtins</text>
</g>
<!-- builtins.object&#45;&gt;abjad.metricmodulation.MetricModulation -->
<g id="edge1" class="edge">
<title>builtins.object&#45;&gt;abjad.metricmodulation.MetricModulation</title>
<path fill="none" stroke="#778899" d="M58.5788,-31C71.2412,-31 87.7799,-31 103.0696,-31"/>
<polygon fill="#778899" stroke="#778899" points="103.3923,-34.5001 113.3923,-31 103.3922,-27.5001 103.3923,-34.5001"/>
</g>
<!-- abjad.metricmodulation.MetricModulation -->
<g id="node1" class="node">
<title>abjad.metricmodulation.MetricModulation</title>
<g id="a_node1"><a xlink:href="../api/abjad/metricmodulation.html#abjad.metricmodulation.MetricModulation" xlink:title="Metric\nModulation" target="_top">
<path fill="#000000" stroke="#000000" stroke-width="2" d="M168.2339,-46.498C168.2339,-46.498 124.0561,-46.498 124.0561,-46.498 118.8901,-46.498 113.7241,-41.332 113.7241,-36.166 113.7241,-36.166 113.7241,-25.834 113.7241,-25.834 113.7241,-20.668 118.8901,-15.502 124.0561,-15.502 124.0561,-15.502 168.2339,-15.502 168.2339,-15.502 173.4,-15.502 178.566,-20.668 178.566,-25.834 178.566,-25.834 178.566,-36.166 178.566,-36.166 178.566,-41.332 173.4,-46.498 168.2339,-46.498"/>
<text text-anchor="middle" x="146.145" y="-34.499" font-family="Arial" font-size="10.00" fill="#ffffff">Metric</text>
<text text-anchor="middle" x="146.145" y="-23" font-family="Arial" font-size="10.00" fill="#ffffff">Modulation</text>
</a>
</g>
</g>
<!-- builtins.object -->
<g id="node2" class="node">
<title>builtins.object</title>
<g id="a_node2"><a xlink:href="https://docs.python.org/3.9/library/functions.html#object" xlink:title="object" target="_top">
<path fill="#b3cde3" stroke="#b3cde3" stroke-width="2" d="M51.8576,-41.0056C51.8576,-41.0056 22.8269,-41.0056 22.8269,-41.0056 19.4918,-41.0056 16.1566,-37.6704 16.1566,-34.3352 16.1566,-34.3352 16.1566,-27.6648 16.1566,-27.6648 16.1566,-24.3296 19.4918,-20.9944 22.8269,-20.9944 22.8269,-20.9944 51.8576,-20.9944 51.8576,-20.9944 55.1928,-20.9944 58.528,-24.3296 58.528,-27.6648 58.528,-27.6648 58.528,-34.3352 58.528,-34.3352 58.528,-37.6704 55.1928,-41.0056 51.8576,-41.0056"/>
<text text-anchor="middle" x="37.3423" y="-28.7495" font-family="Arial" font-size="10.00" fill="#000000">object</text>
</a>
</g>
</g>
</g>
</svg>
