<?xml version="1.0" encoding="UTF-8" standalone="no"?>
<!DOCTYPE svg PUBLIC "-//W3C//DTD SVG 1.1//EN"
 "http://www.w3.org/Graphics/SVG/1.1/DTD/svg11.dtd">
<!-- Generated by graphviz version 2.40.1 (20161225.0304)
 -->
<!-- Title: InheritanceGraph Pages: 1 -->
<svg width="268pt" height="113pt"
 viewBox="0.00 0.00 267.84 113.00" xmlns="http://www.w3.org/2000/svg" xmlns:xlink="http://www.w3.org/1999/xlink">
<g id="graph0" class="graph" transform="scale(1 1) rotate(0) translate(4 109)">
<title>InheritanceGraph</title>
<g id="clust1" class="cluster">
<title>cluster_abjad.segments</title>
<path fill="transparent" stroke="#bcd2ee" stroke-width="2" stroke-dasharray="5,2" d="M98.6846,-8C98.6846,-8 239.8369,-8 239.8369,-8 245.8369,-8 251.8369,-14 251.8369,-20 251.8369,-20 251.8369,-85 251.8369,-85 251.8369,-91 245.8369,-97 239.8369,-97 239.8369,-97 98.6846,-97 98.6846,-97 92.6846,-97 86.6846,-91 86.6846,-85 86.6846,-85 86.6846,-20 86.6846,-20 86.6846,-14 92.6846,-8 98.6846,-8"/>
<text text-anchor="middle" x="169.2607" y="-85" font-family="Arial" font-size="10.00" fill="#000000">abjad.segments</text>
</g>
<g id="clust2" class="cluster">
<title>cluster_builtins</title>
<path fill="transparent" stroke="#bcd2ee" stroke-width="2" stroke-dasharray="5,2" d="M20,-25C20,-25 54.6846,-25 54.6846,-25 60.6846,-25 66.6846,-31 66.6846,-37 66.6846,-37 66.6846,-68 66.6846,-68 66.6846,-74 60.6846,-80 54.6846,-80 54.6846,-80 20,-80 20,-80 14,-80 8,-74 8,-68 8,-68 8,-37 8,-37 8,-31 14,-25 20,-25"/>
<text text-anchor="middle" x="37.3423" y="-68" font-family="Arial" font-size="10.00" fill="#000000">builtins</text>
</g>
<!-- abjad.segments.ScoreTemplate.ScoreTemplate&#45;&gt;abjad.segments.GroupedStavesScoreTemplate.GroupedStavesScoreTemplate -->
<g id="edge1" class="edge">
<title>abjad.segments.ScoreTemplate.ScoreTemplate&#45;&gt;abjad.segments.GroupedStavesScoreTemplate.GroupedStavesScoreTemplate</title>
<path fill="none" stroke="#778899" d="M151.2516,-43C159.5068,-43 168.6674,-43 177.4254,-43"/>
<polygon fill="#778899" stroke="#778899" points="177.4431,-46.5001 187.4431,-43 177.443,-39.5001 177.4431,-46.5001"/>
</g>
<!-- builtins.object&#45;&gt;abjad.segments.ScoreTemplate.ScoreTemplate -->
<g id="edge2" class="edge">
<title>builtins.object&#45;&gt;abjad.segments.ScoreTemplate.ScoreTemplate</title>
<path fill="none" stroke="#778899" d="M58.9504,-43C66.7848,-43 75.8866,-43 84.7257,-43"/>
<polygon fill="#778899" stroke="#778899" points="84.8896,-46.5001 94.8896,-43 84.8896,-39.5001 84.8896,-46.5001"/>
</g>
<!-- abjad.segments.GroupedStavesScoreTemplate.GroupedStavesScoreTemplate -->
<g id="node1" class="node">
<title>abjad.segments.GroupedStavesScoreTemplate.GroupedStavesScoreTemplate</title>
<g id="a_node1"><a xlink:href="../api/abjad/segments/GroupedStavesScoreTemplate.html#abjad.segments.GroupedStavesScoreTemplate.GroupedStavesScoreTemplate" xlink:title="Grouped\nStaves\nScore\nTemplate" target="_top">
<path fill="#000000" stroke="#000000" stroke-width="2" d="M231.6266,-69.9961C231.6266,-69.9961 199.4711,-69.9961 199.4711,-69.9961 193.4711,-69.9961 187.4711,-63.9961 187.4711,-57.9961 187.4711,-57.9961 187.4711,-28.0039 187.4711,-28.0039 187.4711,-22.0039 193.4711,-16.0039 199.4711,-16.0039 199.4711,-16.0039 231.6266,-16.0039 231.6266,-16.0039 237.6266,-16.0039 243.6266,-22.0039 243.6266,-28.0039 243.6266,-28.0039 243.6266,-57.9961 243.6266,-57.9961 243.6266,-63.9961 237.6266,-69.9961 231.6266,-69.9961"/>
<text text-anchor="middle" x="215.5488" y="-57.998" font-family="Arial" font-size="10.00" fill="#ffffff">Grouped</text>
<text text-anchor="middle" x="215.5488" y="-46.499" font-family="Arial" font-size="10.00" fill="#ffffff">Staves</text>
<text text-anchor="middle" x="215.5488" y="-35" font-family="Arial" font-size="10.00" fill="#ffffff">Score</text>
<text text-anchor="middle" x="215.5488" y="-23.501" font-family="Arial" font-size="10.00" fill="#ffffff">Template</text>
</a>
</g>
</g>
<!-- abjad.segments.ScoreTemplate.ScoreTemplate -->
<g id="node2" class="node">
<title>abjad.segments.ScoreTemplate.ScoreTemplate</title>
<g id="a_node2"><a xlink:href="../api/abjad/segments/ScoreTemplate.html#abjad.segments.ScoreTemplate.ScoreTemplate" xlink:title="Score\nTemplate" target="_top">
<path fill="#fbb4ae" stroke="#fbb4ae" stroke-width="2" d="M140.7184,-58.498C140.7184,-58.498 105.2269,-58.498 105.2269,-58.498 100.0609,-58.498 94.8949,-53.332 94.8949,-48.166 94.8949,-48.166 94.8949,-37.834 94.8949,-37.834 94.8949,-32.668 100.0609,-27.502 105.2269,-27.502 105.2269,-27.502 140.7184,-27.502 140.7184,-27.502 145.8844,-27.502 151.0504,-32.668 151.0504,-37.834 151.0504,-37.834 151.0504,-48.166 151.0504,-48.166 151.0504,-53.332 145.8844,-58.498 140.7184,-58.498"/>
<text text-anchor="middle" x="122.9727" y="-46.499" font-family="Arial" font-size="10.00" fill="#000000">Score</text>
<text text-anchor="middle" x="122.9727" y="-35" font-family="Arial" font-size="10.00" fill="#000000">Template</text>
</a>
</g>
</g>
<!-- builtins.object -->
<g id="node3" class="node">
<title>builtins.object</title>
<g id="a_node3"><a xlink:href="https://docs.python.org/3.6/library/functions.html#object" xlink:title="object" target="_top">
<path fill="#b3cde3" stroke="#b3cde3" stroke-width="2" d="M51.8576,-53.0056C51.8576,-53.0056 22.8269,-53.0056 22.8269,-53.0056 19.4918,-53.0056 16.1566,-49.6704 16.1566,-46.3352 16.1566,-46.3352 16.1566,-39.6648 16.1566,-39.6648 16.1566,-36.3296 19.4918,-32.9944 22.8269,-32.9944 22.8269,-32.9944 51.8576,-32.9944 51.8576,-32.9944 55.1928,-32.9944 58.528,-36.3296 58.528,-39.6648 58.528,-39.6648 58.528,-46.3352 58.528,-46.3352 58.528,-49.6704 55.1928,-53.0056 51.8576,-53.0056"/>
<text text-anchor="middle" x="37.3423" y="-40.7495" font-family="Arial" font-size="10.00" fill="#000000">object</text>
</a>
</g>
</g>
</g>
</svg>
