<?xml version="1.0" encoding="UTF-8" standalone="no"?>
<!DOCTYPE svg PUBLIC "-//W3C//DTD SVG 1.1//EN"
 "http://www.w3.org/Graphics/SVG/1.1/DTD/svg11.dtd">
<!-- Generated by graphviz version 2.40.1 (20161225.0304)
 -->
<!-- Title: InheritanceGraph Pages: 1 -->
<svg width="1026pt" height="1525pt"
 viewBox="0.00 0.00 1026.36 1525.00" xmlns="http://www.w3.org/2000/svg" xmlns:xlink="http://www.w3.org/1999/xlink">
<g id="graph0" class="graph" transform="scale(1 1) rotate(0) translate(4 1521)">
<title>InheritanceGraph</title>
<g id="clust1" class="cluster">
<title>cluster_abjad.core</title>
<path fill="transparent" stroke="#bcd2ee" stroke-width="2" stroke-dasharray="5,2" d="M783.1306,-115C783.1306,-115 811.1306,-115 811.1306,-115 817.1306,-115 823.1306,-121 823.1306,-127 823.1306,-127 823.1306,-180 823.1306,-180 823.1306,-186 817.1306,-192 811.1306,-192 811.1306,-192 783.1306,-192 783.1306,-192 777.1306,-192 771.1306,-186 771.1306,-180 771.1306,-180 771.1306,-127 771.1306,-127 771.1306,-121 777.1306,-115 783.1306,-115"/>
<text text-anchor="middle" x="797.1306" y="-180" font-family="Arial" font-size="10.00" fill="#000000">abjad.core</text>
</g>
<g id="clust2" class="cluster">
<title>cluster_abjad.markups</title>
<path fill="transparent" stroke="#bcd2ee" stroke-width="2" stroke-dasharray="5,2" d="M871.8646,-81C871.8646,-81 913.8646,-81 913.8646,-81 919.8646,-81 925.8646,-87 925.8646,-93 925.8646,-93 925.8646,-134 925.8646,-134 925.8646,-140 919.8646,-146 913.8646,-146 913.8646,-146 871.8646,-146 871.8646,-146 865.8646,-146 859.8646,-140 859.8646,-134 859.8646,-134 859.8646,-93 859.8646,-93 859.8646,-87 865.8646,-81 871.8646,-81"/>
<text text-anchor="middle" x="892.8646" y="-134" font-family="Arial" font-size="10.00" fill="#000000">abjad.markups</text>
</g>
<g id="clust3" class="cluster">
<title>cluster_abjad.meter</title>
<path fill="transparent" stroke="#bcd2ee" stroke-width="2" stroke-dasharray="5,2" d="M779.6306,-705C779.6306,-705 814.6306,-705 814.6306,-705 820.6306,-705 826.6306,-711 826.6306,-717 826.6306,-717 826.6306,-806 826.6306,-806 826.6306,-812 820.6306,-818 814.6306,-818 814.6306,-818 779.6306,-818 779.6306,-818 773.6306,-818 767.6306,-812 767.6306,-806 767.6306,-806 767.6306,-717 767.6306,-717 767.6306,-711 773.6306,-705 779.6306,-705"/>
<text text-anchor="middle" x="797.1306" y="-806" font-family="Arial" font-size="10.00" fill="#000000">abjad.meter</text>
</g>
<g id="clust4" class="cluster">
<title>cluster_abjad.pitch</title>
<path fill="transparent" stroke="#bcd2ee" stroke-width="2" stroke-dasharray="5,2" d="M767.8965,-200C767.8965,-200 998.3646,-200 998.3646,-200 1004.3646,-200 1010.3646,-206 1010.3646,-212 1010.3646,-212 1010.3646,-685 1010.3646,-685 1010.3646,-691 1004.3646,-697 998.3646,-697 998.3646,-697 767.8965,-697 767.8965,-697 761.8965,-697 755.8965,-691 755.8965,-685 755.8965,-685 755.8965,-212 755.8965,-212 755.8965,-206 761.8965,-200 767.8965,-200"/>
<text text-anchor="middle" x="883.1306" y="-685" font-family="Arial" font-size="10.00" fill="#000000">abjad.pitch</text>
</g>
<g id="clust5" class="cluster">
<title>cluster_abjad.timespans</title>
<path fill="transparent" stroke="#bcd2ee" stroke-width="2" stroke-dasharray="5,2" d="M869.3646,-8C869.3646,-8 916.3646,-8 916.3646,-8 922.3646,-8 928.3646,-14 928.3646,-20 928.3646,-20 928.3646,-61 928.3646,-61 928.3646,-67 922.3646,-73 916.3646,-73 916.3646,-73 869.3646,-73 869.3646,-73 863.3646,-73 857.3646,-67 857.3646,-61 857.3646,-61 857.3646,-20 857.3646,-20 857.3646,-14 863.3646,-8 869.3646,-8"/>
<text text-anchor="middle" x="892.8646" y="-61" font-family="Arial" font-size="10.00" fill="#000000">abjad.timespans</text>
</g>
<g id="clust6" class="cluster">
<title>cluster_abjad.utilities</title>
<path fill="transparent" stroke="#bcd2ee" stroke-width="2" stroke-dasharray="5,2" d="M582.5412,-826C582.5412,-826 817.6306,-826 817.6306,-826 823.6306,-826 829.6306,-832 829.6306,-838 829.6306,-838 829.6306,-1285 829.6306,-1285 829.6306,-1291 823.6306,-1297 817.6306,-1297 817.6306,-1297 582.5412,-1297 582.5412,-1297 576.5412,-1297 570.5412,-1291 570.5412,-1285 570.5412,-1285 570.5412,-838 570.5412,-838 570.5412,-832 576.5412,-826 582.5412,-826"/>
<text text-anchor="middle" x="700.0859" y="-1285" font-family="Arial" font-size="10.00" fill="#000000">abjad.utilities</text>
</g>
<g id="clust7" class="cluster">
<title>cluster_builtins</title>
<path fill="transparent" stroke="#bcd2ee" stroke-width="2" stroke-dasharray="5,2" d="M20,-1192C20,-1192 110,-1192 110,-1192 116,-1192 122,-1198 122,-1204 122,-1204 122,-1235 122,-1235 122,-1241 116,-1247 110,-1247 110,-1247 20,-1247 20,-1247 14,-1247 8,-1241 8,-1235 8,-1235 8,-1204 8,-1204 8,-1198 14,-1192 20,-1192"/>
<text text-anchor="middle" x="65" y="-1235" font-family="Arial" font-size="10.00" fill="#000000">builtins</text>
</g>
<g id="clust8" class="cluster">
<title>cluster_collections.abc</title>
<path fill="transparent" stroke="#bcd2ee" stroke-width="2" stroke-dasharray="5,2" d="M154,-1358C154,-1358 637.8965,-1358 637.8965,-1358 643.8965,-1358 649.8965,-1364 649.8965,-1370 649.8965,-1370 649.8965,-1497 649.8965,-1497 649.8965,-1503 643.8965,-1509 637.8965,-1509 637.8965,-1509 154,-1509 154,-1509 148,-1509 142,-1503 142,-1497 142,-1497 142,-1370 142,-1370 142,-1364 148,-1358 154,-1358"/>
<text text-anchor="middle" x="395.9483" y="-1497" font-family="Arial" font-size="10.00" fill="#000000">collections.abc</text>
</g>
<g id="clust9" class="cluster">
<title>cluster_fractions</title>
<path fill="transparent" stroke="#bcd2ee" stroke-width="2" stroke-dasharray="5,2" d="M485.3661,-827C485.3661,-827 521.3661,-827 521.3661,-827 527.3661,-827 533.3661,-833 533.3661,-839 533.3661,-839 533.3661,-870 533.3661,-870 533.3661,-876 527.3661,-882 521.3661,-882 521.3661,-882 485.3661,-882 485.3661,-882 479.3661,-882 473.3661,-876 473.3661,-870 473.3661,-870 473.3661,-839 473.3661,-839 473.3661,-833 479.3661,-827 485.3661,-827"/>
<text text-anchor="middle" x="503.3661" y="-870" font-family="Arial" font-size="10.00" fill="#000000">fractions</text>
</g>
<g id="clust10" class="cluster">
<title>cluster_numbers</title>
<path fill="transparent" stroke="#bcd2ee" stroke-width="2" stroke-dasharray="5,2" d="M167.1482,-1230C167.1482,-1230 530.4788,-1230 530.4788,-1230 536.4788,-1230 542.4788,-1236 542.4788,-1242 542.4788,-1242 542.4788,-1279 542.4788,-1279 542.4788,-1285 536.4788,-1291 530.4788,-1291 530.4788,-1291 167.1482,-1291 167.1482,-1291 161.1482,-1291 155.1482,-1285 155.1482,-1279 155.1482,-1279 155.1482,-1242 155.1482,-1242 155.1482,-1236 161.1482,-1230 167.1482,-1230"/>
<text text-anchor="middle" x="348.8135" y="-1279" font-family="Arial" font-size="10.00" fill="#000000">numbers</text>
</g>
<!-- abjad.pitch.PitchClassSegment.PitchClassSegment&#45;&gt;abjad.pitch.TwelveToneRow.TwelveToneRow -->
<g id="edge1" class="edge">
<title>abjad.pitch.PitchClassSegment.PitchClassSegment&#45;&gt;abjad.pitch.TwelveToneRow.TwelveToneRow</title>
<path fill="none" stroke="#778899" d="M916.8204,-621.2004C926.8389,-617.9386 938.5859,-614.114 949.1474,-610.6754"/>
<polygon fill="#778899" stroke="#778899" points="950.3899,-613.9517 958.815,-607.5278 948.2227,-607.2956 950.3899,-613.9517"/>
</g>
<!-- abjad.pitch.Segment.Segment&#45;&gt;abjad.pitch.IntervalClassSegment.IntervalClassSegment -->
<g id="edge2" class="edge">
<title>abjad.pitch.Segment.Segment&#45;&gt;abjad.pitch.IntervalClassSegment.IntervalClassSegment</title>
<path fill="none" stroke="#778899" d="M811.6705,-616.8497C824.7963,-605.8811 844.5595,-589.366 861.301,-575.376"/>
<polygon fill="#778899" stroke="#778899" points="863.8054,-577.8445 869.2345,-568.7464 859.3167,-572.473 863.8054,-577.8445"/>
</g>
<!-- abjad.pitch.Segment.Segment&#45;&gt;abjad.pitch.IntervalSegment.IntervalSegment -->
<g id="edge3" class="edge">
<title>abjad.pitch.Segment.Segment&#45;&gt;abjad.pitch.IntervalSegment.IntervalSegment</title>
<path fill="none" stroke="#778899" d="M817.3981,-618.2316C828.9158,-612.3702 843.7206,-605.2628 857.3646,-600 888.0667,-588.1575 898.4013,-592.6039 928.3646,-579 935.3819,-575.814 942.5768,-571.7842 949.2559,-567.6681"/>
<polygon fill="#778899" stroke="#778899" points="951.4515,-570.418 957.9791,-562.0729 947.6722,-564.5259 951.4515,-570.418"/>
</g>
<!-- abjad.pitch.Segment.Segment&#45;&gt;abjad.pitch.PitchClassSegment.PitchClassSegment -->
<g id="edge4" class="edge">
<title>abjad.pitch.Segment.Segment&#45;&gt;abjad.pitch.PitchClassSegment.PitchClassSegment</title>
<path fill="none" stroke="#778899" d="M830.6137,-629C839.8592,-629 849.894,-629 859.1525,-629"/>
<polygon fill="#778899" stroke="#778899" points="859.1923,-632.5001 869.1923,-629 859.1923,-625.5001 859.1923,-632.5001"/>
</g>
<!-- abjad.pitch.Segment.Segment&#45;&gt;abjad.pitch.PitchSegment.PitchSegment -->
<g id="edge5" class="edge">
<title>abjad.pitch.Segment.Segment&#45;&gt;abjad.pitch.PitchSegment.PitchSegment</title>
<path fill="none" stroke="#778899" d="M814.7489,-640.5036C826.3369,-647.3636 842.126,-655.4152 857.3646,-659 886.4862,-665.8508 920.6093,-663.8885 945.2665,-660.7725"/>
<polygon fill="#778899" stroke="#778899" points="945.79,-664.2334 955.2122,-659.3887 944.8253,-657.3002 945.79,-664.2334"/>
</g>
<!-- abjad.pitch.Set.Set&#45;&gt;abjad.pitch.IntervalClassSet.IntervalClassSet -->
<g id="edge6" class="edge">
<title>abjad.pitch.Set.Set&#45;&gt;abjad.pitch.IntervalClassSet.IntervalClassSet</title>
<path fill="none" stroke="#778899" d="M809.6461,-458.5414C823.447,-447.0087 846.1062,-428.0736 864.298,-412.8716"/>
<polygon fill="#778899" stroke="#778899" points="866.865,-415.2877 872.2942,-406.1896 862.3763,-409.9163 866.865,-415.2877"/>
</g>
<!-- abjad.pitch.Set.Set&#45;&gt;abjad.pitch.IntervalSet.IntervalSet -->
<g id="edge7" class="edge">
<title>abjad.pitch.Set.Set&#45;&gt;abjad.pitch.IntervalSet.IntervalSet</title>
<path fill="none" stroke="#778899" d="M811.8897,-460.0373C823.7366,-453.3095 841.0312,-444.5115 857.3646,-440 887.4193,-431.6984 923.0866,-429.307 947.9726,-428.7737"/>
<polygon fill="#778899" stroke="#778899" points="948.3035,-432.2699 958.2592,-428.6458 948.2164,-425.2705 948.3035,-432.2699"/>
</g>
<!-- abjad.pitch.Set.Set&#45;&gt;abjad.pitch.PitchClassSet.PitchClassSet -->
<g id="edge8" class="edge">
<title>abjad.pitch.Set.Set&#45;&gt;abjad.pitch.PitchClassSet.PitchClassSet</title>
<path fill="none" stroke="#778899" d="M816.9667,-469C830.9393,-469 849.8321,-469 865.2723,-469"/>
<polygon fill="#778899" stroke="#778899" points="865.3073,-472.5001 875.3072,-469 865.3072,-465.5001 865.3073,-472.5001"/>
</g>
<!-- abjad.pitch.Set.Set&#45;&gt;abjad.pitch.PitchSet.PitchSet -->
<g id="edge9" class="edge">
<title>abjad.pitch.Set.Set&#45;&gt;abjad.pitch.PitchSet.PitchSet</title>
<path fill="none" stroke="#778899" d="M811.7402,-478.6934C823.5046,-485.8857 840.7613,-495.0941 857.3646,-499 889.2023,-506.4897 927.0454,-504.9067 951.9394,-502.4937"/>
<polygon fill="#778899" stroke="#778899" points="952.5143,-505.9519 962.0789,-501.3946 951.7599,-498.9927 952.5143,-505.9519"/>
</g>
<!-- abjad.pitch.Vector.Vector&#45;&gt;abjad.pitch.IntervalClassVector.IntervalClassVector -->
<g id="edge10" class="edge">
<title>abjad.pitch.Vector.Vector&#45;&gt;abjad.pitch.IntervalClassVector.IntervalClassVector</title>
<path fill="none" stroke="#778899" d="M811.2564,-297.1957C825.2387,-285.5115 847.036,-267.2966 864.587,-252.6301"/>
<polygon fill="#778899" stroke="#778899" points="866.8797,-255.2754 872.3089,-246.1774 862.391,-249.904 866.8797,-255.2754"/>
</g>
<!-- abjad.pitch.Vector.Vector&#45;&gt;abjad.pitch.IntervalVector.IntervalVector -->
<g id="edge11" class="edge">
<title>abjad.pitch.Vector.Vector&#45;&gt;abjad.pitch.IntervalVector.IntervalVector</title>
<path fill="none" stroke="#778899" d="M814.3986,-298.6278C826.1012,-292.1244 842.1499,-284.2025 857.3646,-280 887.4193,-271.6984 923.0866,-269.307 947.9726,-268.7737"/>
<polygon fill="#778899" stroke="#778899" points="948.3035,-272.2699 958.2592,-268.6458 948.2164,-265.2705 948.3035,-272.2699"/>
</g>
<!-- abjad.pitch.Vector.Vector&#45;&gt;abjad.pitch.PitchClassVector.PitchClassVector -->
<g id="edge12" class="edge">
<title>abjad.pitch.Vector.Vector&#45;&gt;abjad.pitch.PitchClassVector.PitchClassVector</title>
<path fill="none" stroke="#778899" d="M824.0526,-309C836.4096,-309 851.0864,-309 863.7048,-309"/>
<polygon fill="#778899" stroke="#778899" points="863.7242,-312.5001 873.7241,-309 863.7241,-305.5001 863.7242,-312.5001"/>
</g>
<!-- abjad.pitch.Vector.Vector&#45;&gt;abjad.pitch.PitchVector.PitchVector -->
<g id="edge13" class="edge">
<title>abjad.pitch.Vector.Vector&#45;&gt;abjad.pitch.PitchVector.PitchVector</title>
<path fill="none" stroke="#778899" d="M814.083,-319.6322C825.7818,-326.4092 841.9484,-334.6985 857.3646,-339 887.9091,-347.5227 924.3184,-349.4947 949.265,-349.6644"/>
<polygon fill="#778899" stroke="#778899" points="949.5403,-353.1638 959.5308,-349.6368 949.5213,-346.1638 949.5403,-353.1638"/>
</g>
<!-- abjad.utilities.Duration.Duration&#45;&gt;abjad.utilities.Multiplier.Multiplier -->
<g id="edge14" class="edge">
<title>abjad.utilities.Duration.Duration&#45;&gt;abjad.utilities.Multiplier.Multiplier</title>
<path fill="none" stroke="#778899" d="M629.3761,-844C641.2325,-844 655.9515,-844 669.098,-844"/>
<polygon fill="#778899" stroke="#778899" points="669.2194,-847.5001 679.2193,-844 669.2193,-840.5001 669.2194,-847.5001"/>
</g>
<!-- abjad.utilities.Duration.Duration&#45;&gt;abjad.utilities.Offset.Offset -->
<g id="edge15" class="edge">
<title>abjad.utilities.Duration.Duration&#45;&gt;abjad.utilities.Offset.Offset</title>
<path fill="none" stroke="#778899" d="M629.2762,-850.8375C636.4371,-853.7673 644.0065,-857.7514 649.8965,-863 668.3356,-879.431 657.0134,-897.8141 677.8965,-911 704.9461,-928.0795 742.5998,-928.229 768.3109,-925.6367"/>
<polygon fill="#778899" stroke="#778899" points="769.0261,-929.0758 778.533,-924.3992 768.1848,-922.1265 769.0261,-929.0758"/>
</g>
<!-- abjad.utilities.Inequality.Inequality&#45;&gt;abjad.utilities.DurationInequality.DurationInequality -->
<g id="edge16" class="edge">
<title>abjad.utilities.Inequality.Inequality&#45;&gt;abjad.utilities.DurationInequality.DurationInequality</title>
<path fill="none" stroke="#778899" d="M631.4722,-1056.4454C638.0918,-1053.7573 644.8057,-1050.0517 649.8965,-1045 672.5144,-1022.5558 659.8125,-1005.235 677.8965,-979 678.1612,-978.6161 678.4327,-978.2334 678.7105,-977.8523"/>
<polygon fill="#778899" stroke="#778899" points="681.4304,-980.0564 685.2328,-970.1674 676.0934,-975.5268 681.4304,-980.0564"/>
</g>
<!-- abjad.utilities.Inequality.Inequality&#45;&gt;abjad.utilities.LengthInequality.LengthInequality -->
<g id="edge17" class="edge">
<title>abjad.utilities.Inequality.Inequality&#45;&gt;abjad.utilities.LengthInequality.LengthInequality</title>
<path fill="none" stroke="#778899" d="M631.358,-1069.6619C638.1322,-1072.5122 644.9571,-1076.4949 649.8965,-1082 677.5892,-1112.8646 646.6148,-1143.7794 677.8965,-1171 700.859,-1190.9814 736.0683,-1194.7426 762.2804,-1194.2485"/>
<polygon fill="#778899" stroke="#778899" points="762.6965,-1197.7346 772.5469,-1193.8332 762.4136,-1190.7403 762.6965,-1197.7346"/>
</g>
<!-- abjad.utilities.TypedCollection.TypedCollection&#45;&gt;abjad.utilities.OrderedDict.OrderedDict -->
<g id="edge18" class="edge">
<title>abjad.utilities.TypedCollection.TypedCollection&#45;&gt;abjad.utilities.OrderedDict.OrderedDict</title>
<path fill="none" stroke="#778899" d="M631.2175,-896.1773C638.1516,-899.8336 645.1,-904.7039 649.8965,-911 682.037,-953.188 651.4829,-981.0091 677.8965,-1027 678.0651,-1027.2935 678.2383,-1027.5856 678.4159,-1027.8764"/>
<polygon fill="#778899" stroke="#778899" points="675.6671,-1030.0435 684.5343,-1035.842 681.2185,-1025.7794 675.6671,-1030.0435"/>
</g>
<!-- abjad.utilities.TypedCollection.TypedCollection&#45;&gt;abjad.utilities.TypedCounter.TypedCounter -->
<g id="edge19" class="edge">
<title>abjad.utilities.TypedCollection.TypedCollection&#45;&gt;abjad.utilities.TypedCounter.TypedCounter</title>
<path fill="none" stroke="#778899" d="M631.0904,-896.895C637.8571,-900.537 644.745,-905.2194 649.8965,-911 671.6417,-935.4007 659.4902,-951.9916 677.8965,-979 678.1591,-979.3853 678.4287,-979.7693 678.7047,-980.1517"/>
<polygon fill="#778899" stroke="#778899" points="676.0797,-982.468 685.2046,-987.8519 681.4288,-977.9527 676.0797,-982.468"/>
</g>
<!-- abjad.utilities.TypedCollection.TypedCollection&#45;&gt;abjad.utilities.TypedFrozenset.TypedFrozenset -->
<g id="edge20" class="edge">
<title>abjad.utilities.TypedCollection.TypedCollection&#45;&gt;abjad.utilities.TypedFrozenset.TypedFrozenset</title>
<path fill="none" stroke="#778899" d="M631.4834,-895.9817C638.4283,-899.6301 645.3159,-904.5451 649.8965,-911 692.6893,-971.3028 643.2631,-1009.6687 677.8965,-1075 678.055,-1075.299 678.2187,-1075.5965 678.3871,-1075.8923"/>
<polygon fill="#778899" stroke="#778899" points="675.5845,-1077.989 684.346,-1083.946 681.2116,-1073.8254 675.5845,-1077.989"/>
</g>
<!-- abjad.utilities.TypedCollection.TypedCollection&#45;&gt;abjad.utilities.TypedList.TypedList -->
<g id="edge21" class="edge">
<title>abjad.utilities.TypedCollection.TypedCollection&#45;&gt;abjad.utilities.TypedList.TypedList</title>
<path fill="none" stroke="#778899" d="M631.105,-887C644.1278,-887 660.2088,-887 673.8479,-887"/>
<polygon fill="#778899" stroke="#778899" points="674.1576,-890.5001 684.1575,-887 674.1575,-883.5001 674.1576,-890.5001"/>
</g>
<!-- abjad.utilities.TypedCollection.TypedCollection&#45;&gt;abjad.utilities.TypedTuple.TypedTuple -->
<g id="edge22" class="edge">
<title>abjad.utilities.TypedCollection.TypedCollection&#45;&gt;abjad.utilities.TypedTuple.TypedTuple</title>
<path fill="none" stroke="#778899" d="M631.1811,-895.6408C638.2865,-899.3067 645.3418,-904.3175 649.8965,-911 703.4245,-989.5331 634.9761,-1038.203 677.8965,-1123 678.0494,-1123.302 678.2076,-1123.6022 678.3708,-1123.9007"/>
<polygon fill="#778899" stroke="#778899" points="675.5382,-1125.9566 684.2396,-1132.0011 681.2068,-1121.8496 675.5382,-1125.9566"/>
</g>
<!-- abjad.utilities.TypedCounter.TypedCounter&#45;&gt;abjad.meter.OffsetCounter -->
<g id="edge38" class="edge">
<title>abjad.utilities.TypedCounter.TypedCounter&#45;&gt;abjad.meter.OffsetCounter</title>
<path fill="none" stroke="#778899" d="M721.4263,-987.9349C723.9162,-985.1927 726.194,-982.1832 727.8965,-979 761.3256,-916.4996 724.8338,-885.7095 755.8965,-822 759.9505,-813.6854 765.9533,-805.7519 772.1316,-798.8865"/>
<polygon fill="#778899" stroke="#778899" points="774.9578,-800.9965 779.3587,-791.3589 769.9083,-796.1485 774.9578,-800.9965"/>
</g>
<!-- abjad.utilities.TypedCounter.TypedCounter&#45;&gt;abjad.pitch.Vector.Vector -->
<g id="edge39" class="edge">
<title>abjad.utilities.TypedCounter.TypedCounter&#45;&gt;abjad.pitch.Vector.Vector</title>
<path fill="none" stroke="#778899" d="M722.0222,-987.8321C724.367,-985.1403 726.4444,-982.1731 727.8965,-979 777.1613,-871.3515 735.6965,-563.6498 755.8965,-447 763.053,-405.6731 778.5334,-359.2582 788.3575,-332.1644"/>
<polygon fill="#778899" stroke="#778899" points="791.7625,-333.0467 791.938,-322.4533 785.1947,-330.6251 791.7625,-333.0467"/>
</g>
<!-- abjad.utilities.TypedFrozenset.TypedFrozenset&#45;&gt;abjad.pitch.Set.Set -->
<g id="edge40" class="edge">
<title>abjad.utilities.TypedFrozenset.TypedFrozenset&#45;&gt;abjad.pitch.Set.Set</title>
<path fill="none" stroke="#778899" d="M722.0017,-1083.8227C724.3494,-1081.1322 726.433,-1078.1679 727.8965,-1075 771.5918,-980.4197 737.7512,-709.5937 755.8965,-607 763.2397,-565.4817 778.7983,-518.7872 788.5642,-491.7474"/>
<polygon fill="#778899" stroke="#778899" points="791.9539,-492.6699 792.1143,-482.0763 785.3826,-490.2577 791.9539,-492.6699"/>
</g>
<!-- abjad.utilities.TypedList.TypedList&#45;&gt;abjad.core.NoteHeadList.NoteHeadList -->
<g id="edge41" class="edge">
<title>abjad.utilities.TypedList.TypedList&#45;&gt;abjad.core.NoteHeadList.NoteHeadList</title>
<path fill="none" stroke="#778899" d="M721.5644,-872.3992C724.1048,-869.5611 726.3623,-866.4001 727.8965,-863 788.9139,-727.7764 704.1644,-335.0408 755.8965,-196 759.6933,-185.7955 766.3057,-176.039 773.1377,-167.7903"/>
<polygon fill="#778899" stroke="#778899" points="775.9485,-169.895 779.9467,-160.0834 770.7027,-165.2602 775.9485,-169.895"/>
</g>
<!-- abjad.utilities.TypedList.TypedList&#45;&gt;abjad.markups.MarkupList -->
<g id="edge42" class="edge">
<title>abjad.utilities.TypedList.TypedList&#45;&gt;abjad.markups.MarkupList</title>
<path fill="none" stroke="#778899" d="M721.5783,-872.4054C724.117,-869.5666 726.3703,-866.4038 727.8965,-863 762.1061,-786.7051 697.1836,-170.5315 755.8965,-111 782.9349,-83.5846 830.4711,-88.0132 861.8175,-94.9936"/>
<polygon fill="#778899" stroke="#778899" points="861.2304,-98.4528 871.7744,-97.4164 862.8854,-91.6512 861.2304,-98.4528"/>
</g>
<!-- abjad.utilities.TypedList.TypedList&#45;&gt;abjad.meter.MeterList -->
<g id="edge43" class="edge">
<title>abjad.utilities.TypedList.TypedList&#45;&gt;abjad.meter.MeterList</title>
<path fill="none" stroke="#778899" d="M721.2306,-871.8258C723.7457,-869.0976 726.0827,-866.1211 727.8965,-863 753.4614,-819.0105 725.2924,-792.6452 755.8965,-752 759.599,-747.0828 764.6265,-742.998 769.8978,-739.6767"/>
<polygon fill="#778899" stroke="#778899" points="771.7193,-742.6696 778.8082,-734.7958 768.3563,-736.5304 771.7193,-742.6696"/>
</g>
<!-- abjad.utilities.TypedList.TypedList&#45;&gt;abjad.timespans.TimespanList -->
<g id="edge44" class="edge">
<title>abjad.utilities.TypedList.TypedList&#45;&gt;abjad.timespans.TimespanList</title>
<path fill="none" stroke="#778899" d="M721.5819,-872.4071C724.1202,-869.568 726.3725,-866.4047 727.8965,-863 763.2382,-784.0488 705.946,-155.6206 755.8965,-85 779.2044,-52.0472 825.8725,-39.2011 858.2137,-34.1947"/>
<polygon fill="#778899" stroke="#778899" points="858.7317,-37.6565 868.1629,-32.8291 857.7798,-30.7215 858.7317,-37.6565"/>
</g>
<!-- abjad.utilities.TypedTuple.TypedTuple&#45;&gt;abjad.pitch.Segment.Segment -->
<g id="edge45" class="edge">
<title>abjad.utilities.TypedTuple.TypedTuple&#45;&gt;abjad.pitch.Segment.Segment</title>
<path fill="none" stroke="#778899" d="M721.4934,-1132.3666C724.0424,-1129.5324 726.3211,-1126.3813 727.8965,-1123 767.59,-1037.8095 728.7356,-790.9737 755.8965,-701 761.4286,-682.6742 772.3286,-663.9727 781.5327,-650.2237"/>
<polygon fill="#778899" stroke="#778899" points="784.4421,-652.17 787.2627,-641.9575 778.6892,-648.1821 784.4421,-652.17"/>
</g>
<!-- abjad.utilities.TypedTuple.TypedTuple&#45;&gt;abjad.utilities.PatternTuple.PatternTuple -->
<g id="edge23" class="edge">
<title>abjad.utilities.TypedTuple.TypedTuple&#45;&gt;abjad.utilities.PatternTuple.PatternTuple</title>
<path fill="none" stroke="#778899" d="M721.5141,-1146.2097C734.2901,-1145.6674 751.5439,-1144.935 766.3444,-1144.3068"/>
<polygon fill="#778899" stroke="#778899" points="766.7462,-1147.793 776.5888,-1143.8719 766.4493,-1140.7993 766.7462,-1147.793"/>
</g>
<!-- builtins.object&#45;&gt;abjad.utilities.CyclicTuple.CyclicTuple -->
<g id="edge46" class="edge">
<title>builtins.object&#45;&gt;abjad.utilities.CyclicTuple.CyclicTuple</title>
<path fill="none" stroke="#778899" d="M53.0788,-1202.1264C81.0728,-1190.9959 135.9787,-1172 184.6482,-1172 184.6482,-1172 184.6482,-1172 400.1909,-1172 463.9018,-1172 538.5944,-1175.855 578.3221,-1178.2129"/>
<polygon fill="#778899" stroke="#778899" points="578.1387,-1181.7081 588.3322,-1178.8196 578.5623,-1174.7209 578.1387,-1181.7081"/>
</g>
<!-- builtins.object&#45;&gt;abjad.utilities.Enumerator.Enumerator -->
<g id="edge47" class="edge">
<title>builtins.object&#45;&gt;abjad.utilities.Enumerator.Enumerator</title>
<path fill="none" stroke="#778899" d="M44.8692,-1200.3745C68.0283,-1179.924 126.5074,-1134 184.6482,-1134 184.6482,-1134 184.6482,-1134 400.1909,-1134 458.8587,-1134 526.8989,-1135.2274 568.319,-1136.112"/>
<polygon fill="#778899" stroke="#778899" points="568.4329,-1139.6152 578.5069,-1136.3342 568.5856,-1132.6169 568.4329,-1139.6152"/>
</g>
<!-- builtins.object&#45;&gt;abjad.utilities.Expression.Expression -->
<g id="edge48" class="edge">
<title>builtins.object&#45;&gt;abjad.utilities.Expression.Expression</title>
<path fill="none" stroke="#778899" d="M40.644,-1200.2804C58.9111,-1172.712 115.9163,-1096 184.6482,-1096 184.6482,-1096 184.6482,-1096 400.1909,-1096 459.3579,-1096 528.0498,-1097.6642 569.3623,-1098.8457"/>
<polygon fill="#778899" stroke="#778899" points="569.4062,-1102.3484 579.5042,-1099.1419 569.6106,-1095.3514 569.4062,-1102.3484"/>
</g>
<!-- builtins.object&#45;&gt;abjad.utilities.Inequality.Inequality -->
<g id="edge49" class="edge">
<title>builtins.object&#45;&gt;abjad.utilities.Inequality.Inequality</title>
<path fill="none" stroke="#778899" d="M37.9022,-1200.3731C44.9309,-1181.6038 62.6343,-1139.6294 89,-1113 123.5016,-1078.1533 135.6109,-1058 184.6482,-1058 184.6482,-1058 184.6482,-1058 400.1909,-1058 460.518,-1058 530.7366,-1060.1622 571.7497,-1061.6429"/>
<polygon fill="#778899" stroke="#778899" points="571.6482,-1065.1414 581.7704,-1062.0122 571.9061,-1058.1462 571.6482,-1065.1414"/>
</g>
<!-- builtins.object&#45;&gt;abjad.utilities.Pattern.Pattern -->
<g id="edge50" class="edge">
<title>builtins.object&#45;&gt;abjad.utilities.Pattern.Pattern</title>
<path fill="none" stroke="#778899" d="M36.1418,-1200.3663C40.6379,-1176.5251 55.1439,-1113.8892 89,-1075 121.1986,-1038.0147 135.6109,-1020 184.6482,-1020 184.6482,-1020 184.6482,-1020 400.1909,-1020 462.5361,-1020 535.4322,-1022.7704 575.7532,-1024.5462"/>
<polygon fill="#778899" stroke="#778899" points="575.6043,-1028.0429 585.7514,-1024.9957 575.9188,-1021.05 575.6043,-1028.0429"/>
</g>
<!-- builtins.object&#45;&gt;abjad.utilities.PitchInequality.PitchInequality -->
<g id="edge51" class="edge">
<title>builtins.object&#45;&gt;abjad.utilities.PitchInequality.PitchInequality</title>
<path fill="none" stroke="#778899" d="M35.1336,-1200.2426C37.4373,-1171.9367 47.5698,-1088.5416 89,-1037 119.7223,-998.7796 135.6109,-982 184.6482,-982 184.6482,-982 184.6482,-982 400.1909,-982 460.501,-982 530.725,-982.4324 571.7437,-982.7286"/>
<polygon fill="#778899" stroke="#778899" points="571.7403,-986.2285 581.7659,-982.8024 571.792,-979.2287 571.7403,-986.2285"/>
</g>
<!-- builtins.object&#45;&gt;abjad.utilities.SortedCollection.SortedCollection -->
<g id="edge52" class="edge">
<title>builtins.object&#45;&gt;abjad.utilities.SortedCollection.SortedCollection</title>
<path fill="none" stroke="#778899" d="M35.9622,-1200.2791C41.7064,-1163.1036 63.6568,-1030.3567 89,-997 118.6658,-957.9539 135.6109,-942 184.6482,-942 184.6482,-942 184.6482,-942 400.1909,-942 460.5349,-942 530.7482,-938.9729 571.7556,-936.9"/>
<polygon fill="#778899" stroke="#778899" points="571.9686,-940.3938 581.7749,-936.383 571.6078,-933.4031 571.9686,-940.3938"/>
</g>
<!-- builtins.object&#45;&gt;abjad.utilities.TypedCollection.TypedCollection -->
<g id="edge53" class="edge">
<title>builtins.object&#45;&gt;abjad.utilities.TypedCollection.TypedCollection</title>
<path fill="none" stroke="#778899" d="M35.5062,-1200.4515C40.0054,-1159.211 59.3672,-996.6291 89,-956 117.8961,-916.3809 135.6109,-901 184.6482,-901 184.6482,-901 184.6482,-901 400.1909,-901 460.6389,-901 530.8194,-894.9459 571.7922,-890.8"/>
<polygon fill="#778899" stroke="#778899" points="572.215,-894.275 581.8024,-889.7659 571.4957,-887.3121 572.215,-894.275"/>
</g>
<!-- builtins.object&#45;&gt;builtins.str -->
<g id="edge24" class="edge">
<title>builtins.object&#45;&gt;builtins.str</title>
<path fill="none" stroke="#778899" d="M53.1632,-1210C61.0247,-1210 70.2521,-1210 78.526,-1210"/>
<polygon fill="#778899" stroke="#778899" points="78.6586,-1213.5001 88.6585,-1210 78.6585,-1206.5001 78.6586,-1213.5001"/>
</g>
<!-- builtins.object&#45;&gt;collections.abc.Container -->
<g id="edge54" class="edge">
<title>builtins.object&#45;&gt;collections.abc.Container</title>
<path fill="none" stroke="#778899" d="M36.0867,-1219.709C42.4158,-1255.3385 69.1424,-1380.2348 142,-1446 145.1613,-1448.8536 148.7401,-1451.478 152.4477,-1453.8523"/>
<polygon fill="#778899" stroke="#778899" points="150.7905,-1456.9372 161.1965,-1458.9285 154.3035,-1450.8825 150.7905,-1456.9372"/>
</g>
<!-- builtins.object&#45;&gt;collections.abc.Iterable -->
<g id="edge55" class="edge">
<title>builtins.object&#45;&gt;collections.abc.Iterable</title>
<path fill="none" stroke="#778899" d="M43.0028,-1219.5704C66.7649,-1246.3159 134.2478,-1322.2716 166.737,-1358.8399"/>
<polygon fill="#778899" stroke="#778899" points="164.2156,-1361.2716 173.4739,-1366.4227 169.4486,-1356.6223 164.2156,-1361.2716"/>
</g>
<!-- builtins.object&#45;&gt;collections.abc.Sized -->
<g id="edge56" class="edge">
<title>builtins.object&#45;&gt;collections.abc.Sized</title>
<path fill="none" stroke="#778899" d="M37.6856,-1219.5493C48.1547,-1249.6972 84.175,-1344.2095 142,-1401 145.8768,-1404.8075 150.5124,-1408.1578 155.2771,-1411.0394"/>
<polygon fill="#778899" stroke="#778899" points="153.9734,-1414.3137 164.4332,-1415.9997 157.3079,-1408.1588 153.9734,-1414.3137"/>
</g>
<!-- builtins.object&#45;&gt;numbers.Number -->
<g id="edge57" class="edge">
<title>builtins.object&#45;&gt;numbers.Number</title>
<path fill="none" stroke="#778899" d="M53.2401,-1217.1546C63.6716,-1220.9794 76.9479,-1225.5893 89,-1229 110.0202,-1234.9487 134.0365,-1240.2164 152.7454,-1243.988"/>
<polygon fill="#778899" stroke="#778899" points="152.3232,-1247.4722 162.8119,-1245.9769 153.68,-1240.605 152.3232,-1247.4722"/>
</g>
<!-- builtins.str&#45;&gt;abjad.utilities.String.String -->
<g id="edge58" class="edge">
<title>builtins.str&#45;&gt;abjad.utilities.String.String</title>
<path fill="none" stroke="#778899" d="M114.4396,-1210C145.2218,-1210 225.2356,-1210 292.066,-1210 292.066,-1210 292.066,-1210 400.1909,-1210 463.9801,-1210 538.6423,-1216.2643 578.3441,-1220.0959"/>
<polygon fill="#778899" stroke="#778899" points="578.0522,-1223.584 588.3473,-1221.0818 578.7388,-1216.6178 578.0522,-1223.584"/>
</g>
<!-- collections.abc.Collection&#45;&gt;collections.abc.Mapping -->
<g id="edge25" class="edge">
<title>collections.abc.Collection&#45;&gt;collections.abc.Mapping</title>
<path fill="none" stroke="#778899" d="M326.8726,-1424C336.7811,-1424 347.6822,-1424 357.98,-1424"/>
<polygon fill="#778899" stroke="#778899" points="358.0175,-1427.5001 368.0175,-1424 358.0175,-1420.5001 358.0175,-1427.5001"/>
</g>
<!-- collections.abc.Collection&#45;&gt;collections.abc.Sequence -->
<g id="edge26" class="edge">
<title>collections.abc.Collection&#45;&gt;collections.abc.Sequence</title>
<path fill="none" stroke="#778899" d="M315.7945,-1414.1246C330.7606,-1407.8959 350.3124,-1399.7587 366.8283,-1392.885"/>
<polygon fill="#778899" stroke="#778899" points="368.2566,-1396.0817 376.1441,-1389.0079 365.5669,-1389.619 368.2566,-1396.0817"/>
</g>
<!-- collections.abc.Collection&#45;&gt;collections.abc.Set -->
<g id="edge27" class="edge">
<title>collections.abc.Collection&#45;&gt;collections.abc.Set</title>
<path fill="none" stroke="#778899" d="M317.264,-1433.4665C331.0943,-1438.1892 348.6725,-1443.4311 364.8356,-1446 401.9127,-1451.893 445.2668,-1451.7159 473.4656,-1450.6796"/>
<polygon fill="#778899" stroke="#778899" points="473.645,-1454.1752 483.4863,-1450.2512 473.3459,-1447.1816 473.645,-1454.1752"/>
</g>
<!-- collections.abc.Mapping&#45;&gt;collections.abc.MutableMapping -->
<g id="edge31" class="edge">
<title>collections.abc.Mapping&#45;&gt;collections.abc.MutableMapping</title>
<path fill="none" stroke="#778899" d="M427.0296,-1416.7164C438.3368,-1413.6479 451.7228,-1410.0151 464.1029,-1406.6553"/>
<polygon fill="#778899" stroke="#778899" points="465.0228,-1410.0324 473.757,-1404.0354 463.1894,-1403.2767 465.0228,-1410.0324"/>
</g>
<!-- collections.abc.Sequence&#45;&gt;abjad.utilities.Sequence.Sequence -->
<g id="edge62" class="edge">
<title>collections.abc.Sequence&#45;&gt;abjad.utilities.Sequence.Sequence</title>
<path fill="none" stroke="#778899" d="M417.5384,-1367.2571C431.8375,-1357.7142 452.7495,-1344.0693 471.5462,-1333 502.364,-1314.8516 511.0228,-1312.0183 542.4788,-1295 554.8448,-1288.3098 568.5236,-1280.8452 580.0551,-1274.5339"/>
<polygon fill="#778899" stroke="#778899" points="582.0719,-1277.4199 589.1607,-1269.5458 578.7088,-1271.2806 582.0719,-1277.4199"/>
</g>
<!-- collections.abc.Sequence&#45;&gt;abjad.utilities.TypedTuple.TypedTuple -->
<g id="edge63" class="edge">
<title>collections.abc.Sequence&#45;&gt;abjad.utilities.TypedTuple.TypedTuple</title>
<path fill="none" stroke="#778899" d="M428.8054,-1370.8147C487.3839,-1353.5521 618.13,-1312.2676 649.8965,-1279 678.6291,-1248.9097 692.4981,-1201.2543 698.6229,-1172.1858"/>
<polygon fill="#778899" stroke="#778899" points="702.1245,-1172.516 700.6059,-1162.0305 695.2542,-1171.1743 702.1245,-1172.516"/>
</g>
<!-- collections.abc.Sequence&#45;&gt;collections.abc.MutableSequence -->
<g id="edge33" class="edge">
<title>collections.abc.Sequence&#45;&gt;collections.abc.MutableSequence</title>
<path fill="none" stroke="#778899" d="M421.0234,-1390.0305C426.1819,-1393.4058 431.4102,-1397.4472 435.5462,-1402 458.8048,-1427.6024 441.9669,-1453.0694 471.5462,-1471 500.13,-1488.327 538.6221,-1483.3139 567.1895,-1475.436"/>
<polygon fill="#778899" stroke="#778899" points="568.2614,-1478.7688 576.8477,-1472.5619 566.2648,-1472.0595 568.2614,-1478.7688"/>
</g>
<!-- collections.abc.Set&#45;&gt;abjad.utilities.TypedFrozenset.TypedFrozenset -->
<g id="edge64" class="edge">
<title>collections.abc.Set&#45;&gt;abjad.utilities.TypedFrozenset.TypedFrozenset</title>
<path fill="none" stroke="#778899" d="M521.6371,-1443.4215C557.2582,-1432.1621 633.9089,-1405.9239 649.8965,-1384 718.6367,-1289.7363 626.4863,-1227.7275 677.8965,-1123 677.9446,-1122.9021 677.9932,-1122.8044 678.0424,-1122.7069"/>
<polygon fill="#778899" stroke="#778899" points="681.093,-1124.4502 683.9245,-1114.2407 675.3443,-1120.4561 681.093,-1124.4502"/>
</g>
<!-- collections.abc.Container&#45;&gt;collections.abc.Collection -->
<g id="edge28" class="edge">
<title>collections.abc.Container&#45;&gt;collections.abc.Collection</title>
<path fill="none" stroke="#778899" d="M208.2215,-1459.1246C223.0898,-1452.8959 242.5137,-1444.7587 258.9216,-1437.885"/>
<polygon fill="#778899" stroke="#778899" points="260.3055,-1441.1 268.1765,-1434.0079 257.6008,-1434.6437 260.3055,-1441.1"/>
</g>
<!-- collections.abc.Iterable&#45;&gt;collections.abc.Collection -->
<g id="edge29" class="edge">
<title>collections.abc.Iterable&#45;&gt;collections.abc.Collection</title>
<path fill="none" stroke="#778899" d="M206.645,-1388.215C221.6275,-1394.4915 241.7393,-1402.9169 258.6844,-1410.0156"/>
<polygon fill="#778899" stroke="#778899" points="257.657,-1413.3799 268.2328,-1414.0157 260.3618,-1406.9235 257.657,-1413.3799"/>
</g>
<!-- collections.abc.Iterable&#45;&gt;collections.abc.Reversible -->
<g id="edge30" class="edge">
<title>collections.abc.Iterable&#45;&gt;collections.abc.Reversible</title>
<path fill="none" stroke="#778899" d="M214.5701,-1379C223.9749,-1379 234.5992,-1379 244.8979,-1379"/>
<polygon fill="#778899" stroke="#778899" points="245.0308,-1382.5001 255.0308,-1379 245.0307,-1375.5001 245.0308,-1382.5001"/>
</g>
<!-- collections.abc.Reversible&#45;&gt;collections.abc.Sequence -->
<g id="edge32" class="edge">
<title>collections.abc.Reversible&#45;&gt;collections.abc.Sequence</title>
<path fill="none" stroke="#778899" d="M328.9741,-1379C337.1508,-1379 345.9117,-1379 354.3944,-1379"/>
<polygon fill="#778899" stroke="#778899" points="354.5457,-1382.5001 364.5457,-1379 354.5457,-1375.5001 354.5457,-1382.5001"/>
</g>
<!-- collections.abc.MutableMapping&#45;&gt;abjad.utilities.OrderedDict.OrderedDict -->
<g id="edge59" class="edge">
<title>collections.abc.MutableMapping&#45;&gt;abjad.utilities.OrderedDict.OrderedDict</title>
<path fill="none" stroke="#778899" d="M535.2099,-1395.6202C569.2597,-1393.3502 622.0951,-1384.097 649.8965,-1350 688.7141,-1302.3924 650.9769,-1130.2143 677.8965,-1075 677.9443,-1074.902 677.9927,-1074.8041 678.0416,-1074.7065"/>
<polygon fill="#778899" stroke="#778899" points="681.0935,-1076.4471 683.9093,-1066.2333 675.3387,-1072.4619 681.0935,-1076.4471"/>
</g>
<!-- collections.abc.MutableMapping&#45;&gt;abjad.utilities.TypedCounter.TypedCounter -->
<g id="edge60" class="edge">
<title>collections.abc.MutableMapping&#45;&gt;abjad.utilities.TypedCounter.TypedCounter</title>
<path fill="none" stroke="#778899" d="M524.847,-1380.2845C563.7012,-1351.6546 642.3527,-1292.6843 649.8965,-1279 704.3004,-1180.3132 628.0471,-1128.0638 677.8965,-1027 677.9448,-1026.9022 677.9936,-1026.8046 678.043,-1026.7071"/>
<polygon fill="#778899" stroke="#778899" points="681.0926,-1028.4524 683.9351,-1018.246 675.3482,-1024.4521 681.0926,-1028.4524"/>
</g>
<!-- collections.abc.MutableSequence&#45;&gt;abjad.utilities.TypedList.TypedList -->
<g id="edge61" class="edge">
<title>collections.abc.MutableSequence&#45;&gt;abjad.utilities.TypedList.TypedList</title>
<path fill="none" stroke="#778899" d="M613.5822,-1440.0623C623.4546,-1409.7677 641.1773,-1351.7721 649.8965,-1301 677.8092,-1138.4647 629.7736,-1088.7372 677.8965,-931 679.998,-924.1118 683.3168,-917.1237 686.8579,-910.8059"/>
<polygon fill="#778899" stroke="#778899" points="689.9287,-912.4911 692.0892,-902.1188 683.932,-908.8799 689.9287,-912.4911"/>
</g>
<!-- collections.abc.Sized&#45;&gt;collections.abc.Collection -->
<g id="edge34" class="edge">
<title>collections.abc.Sized&#45;&gt;collections.abc.Collection</title>
<path fill="none" stroke="#778899" d="M209.562,-1424C220.7121,-1424 234.2129,-1424 247.0358,-1424"/>
<polygon fill="#778899" stroke="#778899" points="247.1163,-1427.5001 257.1163,-1424 247.1163,-1420.5001 247.1163,-1427.5001"/>
</g>
<!-- fractions.Fraction&#45;&gt;abjad.utilities.Duration.Duration -->
<g id="edge65" class="edge">
<title>fractions.Fraction&#45;&gt;abjad.utilities.Duration.Duration</title>
<path fill="none" stroke="#778899" d="M525.4997,-844.7855C539.4514,-844.6503 557.7255,-844.4731 573.3888,-844.3213"/>
<polygon fill="#778899" stroke="#778899" points="573.7647,-847.8179 583.7303,-844.2211 573.6968,-840.8183 573.7647,-847.8179"/>
</g>
<!-- numbers.Complex&#45;&gt;numbers.Real -->
<g id="edge35" class="edge">
<title>numbers.Complex&#45;&gt;numbers.Real</title>
<path fill="none" stroke="#778899" d="M324.8005,-1251C338.2388,-1251 353.771,-1251 367.2325,-1251"/>
<polygon fill="#778899" stroke="#778899" points="367.5049,-1254.5001 377.5048,-1251 367.5048,-1247.5001 367.5049,-1254.5001"/>
</g>
<!-- numbers.Real&#45;&gt;numbers.Rational -->
<g id="edge37" class="edge">
<title>numbers.Real&#45;&gt;numbers.Rational</title>
<path fill="none" stroke="#778899" d="M422.8331,-1251C434.367,-1251 448.7549,-1251 462.1658,-1251"/>
<polygon fill="#778899" stroke="#778899" points="462.1674,-1254.5001 472.1673,-1251 462.1673,-1247.5001 462.1674,-1254.5001"/>
</g>
<!-- numbers.Number&#45;&gt;numbers.Complex -->
<g id="edge36" class="edge">
<title>numbers.Number&#45;&gt;numbers.Complex</title>
<path fill="none" stroke="#778899" d="M206.3858,-1250.2024C218.6199,-1250.3163 234.3336,-1250.4625 248.9558,-1250.5987"/>
<polygon fill="#778899" stroke="#778899" points="249.3127,-1254.102 259.3448,-1250.6954 249.3779,-1247.1023 249.3127,-1254.102"/>
</g>
<!-- numbers.Rational&#45;&gt;fractions.Fraction -->
<g id="edge66" class="edge">
<title>numbers.Rational&#45;&gt;fractions.Fraction</title>
<path fill="none" stroke="#778899" d="M503.3661,-1237.4483C503.3661,-1113.1697 503.3661,-988.8911 503.3661,-864.6125"/>
<polygon fill="#778899" stroke="#778899" points="506.8662,-864.5156 503.3661,-854.5156 499.8662,-864.5157 506.8662,-864.5156"/>
</g>
<!-- abjad.core.NoteHeadList.NoteHeadList -->
<g id="node1" class="node">
<title>abjad.core.NoteHeadList.NoteHeadList</title>
<g id="a_node1"><a xlink:href="../api/abjad/utilities/../core/NoteHeadList.html#abjad.core.NoteHeadList.NoteHeadList" xlink:title="Note\nHead\nList" target="_top">
<path fill="#fbb4ae" stroke="#fbb4ae" stroke-width="2" d="M802.7972,-164.5C802.7972,-164.5 791.4639,-164.5 791.4639,-164.5 785.7972,-164.5 780.1306,-158.8333 780.1306,-153.1667 780.1306,-153.1667 780.1306,-134.8333 780.1306,-134.8333 780.1306,-129.1667 785.7972,-123.5 791.4639,-123.5 791.4639,-123.5 802.7972,-123.5 802.7972,-123.5 808.4639,-123.5 814.1306,-129.1667 814.1306,-134.8333 814.1306,-134.8333 814.1306,-153.1667 814.1306,-153.1667 814.1306,-158.8333 808.4639,-164.5 802.7972,-164.5"/>
<text text-anchor="middle" x="797.1306" y="-152.5" font-family="Arial" font-size="10.00" fill="#000000">Note</text>
<text text-anchor="middle" x="797.1306" y="-141.5" font-family="Arial" font-size="10.00" fill="#000000">Head</text>
<text text-anchor="middle" x="797.1306" y="-130.5" font-family="Arial" font-size="10.00" fill="#000000">List</text>
</a>
</g>
</g>
<!-- abjad.markups.MarkupList -->
<g id="node2" class="node">
<title>abjad.markups.MarkupList</title>
<g id="a_node2"><a xlink:href="../api/abjad/utilities/../markups.html#abjad.markups.MarkupList" xlink:title="Markup\nList" target="_top">
<path fill="#b3cde3" stroke="#b3cde3" stroke-width="2" d="M903.8646,-119C903.8646,-119 881.8646,-119 881.8646,-119 876.8646,-119 871.8646,-114 871.8646,-109 871.8646,-109 871.8646,-99 871.8646,-99 871.8646,-94 876.8646,-89 881.8646,-89 881.8646,-89 903.8646,-89 903.8646,-89 908.8646,-89 913.8646,-94 913.8646,-99 913.8646,-99 913.8646,-109 913.8646,-109 913.8646,-114 908.8646,-119 903.8646,-119"/>
<text text-anchor="middle" x="892.8646" y="-107" font-family="Arial" font-size="10.00" fill="#000000">Markup</text>
<text text-anchor="middle" x="892.8646" y="-96" font-family="Arial" font-size="10.00" fill="#000000">List</text>
</a>
</g>
</g>
<!-- abjad.meter.MeterList -->
<g id="node3" class="node">
<title>abjad.meter.MeterList</title>
<g id="a_node3"><a xlink:href="../api/abjad/utilities/../meter.html#abjad.meter.MeterList" xlink:title="Meter\nList" target="_top">
<path fill="#ccebc5" stroke="#ccebc5" stroke-width="2" d="M805.1306,-743C805.1306,-743 789.1306,-743 789.1306,-743 784.1306,-743 779.1306,-738 779.1306,-733 779.1306,-733 779.1306,-723 779.1306,-723 779.1306,-718 784.1306,-713 789.1306,-713 789.1306,-713 805.1306,-713 805.1306,-713 810.1306,-713 815.1306,-718 815.1306,-723 815.1306,-723 815.1306,-733 815.1306,-733 815.1306,-738 810.1306,-743 805.1306,-743"/>
<text text-anchor="middle" x="797.1306" y="-731" font-family="Arial" font-size="10.00" fill="#000000">Meter</text>
<text text-anchor="middle" x="797.1306" y="-720" font-family="Arial" font-size="10.00" fill="#000000">List</text>
</a>
</g>
</g>
<!-- abjad.meter.OffsetCounter -->
<g id="node4" class="node">
<title>abjad.meter.OffsetCounter</title>
<g id="a_node4"><a xlink:href="../api/abjad/utilities/../meter.html#abjad.meter.OffsetCounter" xlink:title="Offset\nCounter" target="_top">
<path fill="#ccebc5" stroke="#ccebc5" stroke-width="2" d="M808.6306,-791C808.6306,-791 785.6306,-791 785.6306,-791 780.6306,-791 775.6306,-786 775.6306,-781 775.6306,-781 775.6306,-771 775.6306,-771 775.6306,-766 780.6306,-761 785.6306,-761 785.6306,-761 808.6306,-761 808.6306,-761 813.6306,-761 818.6306,-766 818.6306,-771 818.6306,-771 818.6306,-781 818.6306,-781 818.6306,-786 813.6306,-791 808.6306,-791"/>
<text text-anchor="middle" x="797.1306" y="-779" font-family="Arial" font-size="10.00" fill="#000000">Offset</text>
<text text-anchor="middle" x="797.1306" y="-768" font-family="Arial" font-size="10.00" fill="#000000">Counter</text>
</a>
</g>
</g>
<!-- abjad.pitch.IntervalClassSegment.IntervalClassSegment -->
<g id="node5" class="node">
<title>abjad.pitch.IntervalClassSegment.IntervalClassSegment</title>
<g id="a_node5"><a xlink:href="../api/abjad/utilities/../pitch/IntervalClassSegment.html#abjad.pitch.IntervalClassSegment.IntervalClassSegment" xlink:title="Interval\nClass\nSegment" target="_top">
<path fill="#decbe4" stroke="#decbe4" stroke-width="2" d="M904.3646,-569.5C904.3646,-569.5 881.3646,-569.5 881.3646,-569.5 875.3646,-569.5 869.3646,-563.5 869.3646,-557.5 869.3646,-557.5 869.3646,-540.5 869.3646,-540.5 869.3646,-534.5 875.3646,-528.5 881.3646,-528.5 881.3646,-528.5 904.3646,-528.5 904.3646,-528.5 910.3646,-528.5 916.3646,-534.5 916.3646,-540.5 916.3646,-540.5 916.3646,-557.5 916.3646,-557.5 916.3646,-563.5 910.3646,-569.5 904.3646,-569.5"/>
<text text-anchor="middle" x="892.8646" y="-557.5" font-family="Arial" font-size="10.00" fill="#000000">Interval</text>
<text text-anchor="middle" x="892.8646" y="-546.5" font-family="Arial" font-size="10.00" fill="#000000">Class</text>
<text text-anchor="middle" x="892.8646" y="-535.5" font-family="Arial" font-size="10.00" fill="#000000">Segment</text>
</a>
</g>
</g>
<!-- abjad.pitch.IntervalClassSet.IntervalClassSet -->
<g id="node6" class="node">
<title>abjad.pitch.IntervalClassSet.IntervalClassSet</title>
<g id="a_node6"><a xlink:href="../api/abjad/utilities/../pitch/IntervalClassSet.html#abjad.pitch.IntervalClassSet.IntervalClassSet" xlink:title="Interval\nClass\nSet" target="_top">
<path fill="#decbe4" stroke="#decbe4" stroke-width="2" d="M901.3646,-409.5C901.3646,-409.5 884.3646,-409.5 884.3646,-409.5 878.3646,-409.5 872.3646,-403.5 872.3646,-397.5 872.3646,-397.5 872.3646,-380.5 872.3646,-380.5 872.3646,-374.5 878.3646,-368.5 884.3646,-368.5 884.3646,-368.5 901.3646,-368.5 901.3646,-368.5 907.3646,-368.5 913.3646,-374.5 913.3646,-380.5 913.3646,-380.5 913.3646,-397.5 913.3646,-397.5 913.3646,-403.5 907.3646,-409.5 901.3646,-409.5"/>
<text text-anchor="middle" x="892.8646" y="-397.5" font-family="Arial" font-size="10.00" fill="#000000">Interval</text>
<text text-anchor="middle" x="892.8646" y="-386.5" font-family="Arial" font-size="10.00" fill="#000000">Class</text>
<text text-anchor="middle" x="892.8646" y="-375.5" font-family="Arial" font-size="10.00" fill="#000000">Set</text>
</a>
</g>
</g>
<!-- abjad.pitch.IntervalClassVector.IntervalClassVector -->
<g id="node7" class="node">
<title>abjad.pitch.IntervalClassVector.IntervalClassVector</title>
<g id="a_node7"><a xlink:href="../api/abjad/utilities/../pitch/IntervalClassVector.html#abjad.pitch.IntervalClassVector.IntervalClassVector" xlink:title="Interval\nClass\nVector" target="_top">
<path fill="#decbe4" stroke="#decbe4" stroke-width="2" d="M901.3646,-249.5C901.3646,-249.5 884.3646,-249.5 884.3646,-249.5 878.3646,-249.5 872.3646,-243.5 872.3646,-237.5 872.3646,-237.5 872.3646,-220.5 872.3646,-220.5 872.3646,-214.5 878.3646,-208.5 884.3646,-208.5 884.3646,-208.5 901.3646,-208.5 901.3646,-208.5 907.3646,-208.5 913.3646,-214.5 913.3646,-220.5 913.3646,-220.5 913.3646,-237.5 913.3646,-237.5 913.3646,-243.5 907.3646,-249.5 901.3646,-249.5"/>
<text text-anchor="middle" x="892.8646" y="-237.5" font-family="Arial" font-size="10.00" fill="#000000">Interval</text>
<text text-anchor="middle" x="892.8646" y="-226.5" font-family="Arial" font-size="10.00" fill="#000000">Class</text>
<text text-anchor="middle" x="892.8646" y="-215.5" font-family="Arial" font-size="10.00" fill="#000000">Vector</text>
</a>
</g>
</g>
<!-- abjad.pitch.IntervalSegment.IntervalSegment -->
<g id="node8" class="node">
<title>abjad.pitch.IntervalSegment.IntervalSegment</title>
<g id="a_node8"><a xlink:href="../api/abjad/utilities/../pitch/IntervalSegment.html#abjad.pitch.IntervalSegment.IntervalSegment" xlink:title="Interval\nSegment" target="_top">
<path fill="#decbe4" stroke="#decbe4" stroke-width="2" d="M992.3646,-562C992.3646,-562 965.3646,-562 965.3646,-562 960.3646,-562 955.3646,-557 955.3646,-552 955.3646,-552 955.3646,-542 955.3646,-542 955.3646,-537 960.3646,-532 965.3646,-532 965.3646,-532 992.3646,-532 992.3646,-532 997.3646,-532 1002.3646,-537 1002.3646,-542 1002.3646,-542 1002.3646,-552 1002.3646,-552 1002.3646,-557 997.3646,-562 992.3646,-562"/>
<text text-anchor="middle" x="978.8646" y="-550" font-family="Arial" font-size="10.00" fill="#000000">Interval</text>
<text text-anchor="middle" x="978.8646" y="-539" font-family="Arial" font-size="10.00" fill="#000000">Segment</text>
</a>
</g>
</g>
<!-- abjad.pitch.IntervalSet.IntervalSet -->
<g id="node9" class="node">
<title>abjad.pitch.IntervalSet.IntervalSet</title>
<g id="a_node9"><a xlink:href="../api/abjad/utilities/../pitch/IntervalSet.html#abjad.pitch.IntervalSet.IntervalSet" xlink:title="Interval\nSet" target="_top">
<path fill="#decbe4" stroke="#decbe4" stroke-width="2" d="M989.3646,-444C989.3646,-444 968.3646,-444 968.3646,-444 963.3646,-444 958.3646,-439 958.3646,-434 958.3646,-434 958.3646,-424 958.3646,-424 958.3646,-419 963.3646,-414 968.3646,-414 968.3646,-414 989.3646,-414 989.3646,-414 994.3646,-414 999.3646,-419 999.3646,-424 999.3646,-424 999.3646,-434 999.3646,-434 999.3646,-439 994.3646,-444 989.3646,-444"/>
<text text-anchor="middle" x="978.8646" y="-432" font-family="Arial" font-size="10.00" fill="#000000">Interval</text>
<text text-anchor="middle" x="978.8646" y="-421" font-family="Arial" font-size="10.00" fill="#000000">Set</text>
</a>
</g>
</g>
<!-- abjad.pitch.IntervalVector.IntervalVector -->
<g id="node10" class="node">
<title>abjad.pitch.IntervalVector.IntervalVector</title>
<g id="a_node10"><a xlink:href="../api/abjad/utilities/../pitch/IntervalVector.html#abjad.pitch.IntervalVector.IntervalVector" xlink:title="Interval\nVector" target="_top">
<path fill="#decbe4" stroke="#decbe4" stroke-width="2" d="M989.3646,-284C989.3646,-284 968.3646,-284 968.3646,-284 963.3646,-284 958.3646,-279 958.3646,-274 958.3646,-274 958.3646,-264 958.3646,-264 958.3646,-259 963.3646,-254 968.3646,-254 968.3646,-254 989.3646,-254 989.3646,-254 994.3646,-254 999.3646,-259 999.3646,-264 999.3646,-264 999.3646,-274 999.3646,-274 999.3646,-279 994.3646,-284 989.3646,-284"/>
<text text-anchor="middle" x="978.8646" y="-272" font-family="Arial" font-size="10.00" fill="#000000">Interval</text>
<text text-anchor="middle" x="978.8646" y="-261" font-family="Arial" font-size="10.00" fill="#000000">Vector</text>
</a>
</g>
</g>
<!-- abjad.pitch.PitchClassSegment.PitchClassSegment -->
<g id="node11" class="node">
<title>abjad.pitch.PitchClassSegment.PitchClassSegment</title>
<g id="a_node11"><a xlink:href="../api/abjad/utilities/../pitch/PitchClassSegment.html#abjad.pitch.PitchClassSegment.PitchClassSegment" xlink:title="Pitch\nClass\nSegment" target="_top">
<path fill="#decbe4" stroke="#decbe4" stroke-width="2" d="M904.3646,-649.5C904.3646,-649.5 881.3646,-649.5 881.3646,-649.5 875.3646,-649.5 869.3646,-643.5 869.3646,-637.5 869.3646,-637.5 869.3646,-620.5 869.3646,-620.5 869.3646,-614.5 875.3646,-608.5 881.3646,-608.5 881.3646,-608.5 904.3646,-608.5 904.3646,-608.5 910.3646,-608.5 916.3646,-614.5 916.3646,-620.5 916.3646,-620.5 916.3646,-637.5 916.3646,-637.5 916.3646,-643.5 910.3646,-649.5 904.3646,-649.5"/>
<text text-anchor="middle" x="892.8646" y="-637.5" font-family="Arial" font-size="10.00" fill="#000000">Pitch</text>
<text text-anchor="middle" x="892.8646" y="-626.5" font-family="Arial" font-size="10.00" fill="#000000">Class</text>
<text text-anchor="middle" x="892.8646" y="-615.5" font-family="Arial" font-size="10.00" fill="#000000">Segment</text>
</a>
</g>
</g>
<!-- abjad.pitch.TwelveToneRow.TwelveToneRow -->
<g id="node12" class="node">
<title>abjad.pitch.TwelveToneRow.TwelveToneRow</title>
<g id="a_node12"><a xlink:href="../api/abjad/utilities/../pitch/TwelveToneRow.html#abjad.pitch.TwelveToneRow.TwelveToneRow" xlink:title="Twelve\nTone\nRow" target="_top">
<path fill="#decbe4" stroke="#decbe4" stroke-width="2" d="M986.8646,-621.5C986.8646,-621.5 970.8646,-621.5 970.8646,-621.5 964.8646,-621.5 958.8646,-615.5 958.8646,-609.5 958.8646,-609.5 958.8646,-592.5 958.8646,-592.5 958.8646,-586.5 964.8646,-580.5 970.8646,-580.5 970.8646,-580.5 986.8646,-580.5 986.8646,-580.5 992.8646,-580.5 998.8646,-586.5 998.8646,-592.5 998.8646,-592.5 998.8646,-609.5 998.8646,-609.5 998.8646,-615.5 992.8646,-621.5 986.8646,-621.5"/>
<text text-anchor="middle" x="978.8646" y="-609.5" font-family="Arial" font-size="10.00" fill="#000000">Twelve</text>
<text text-anchor="middle" x="978.8646" y="-598.5" font-family="Arial" font-size="10.00" fill="#000000">Tone</text>
<text text-anchor="middle" x="978.8646" y="-587.5" font-family="Arial" font-size="10.00" fill="#000000">Row</text>
</a>
</g>
</g>
<!-- abjad.pitch.PitchClassSet.PitchClassSet -->
<g id="node13" class="node">
<title>abjad.pitch.PitchClassSet.PitchClassSet</title>
<g id="a_node13"><a xlink:href="../api/abjad/utilities/../pitch/PitchClassSet.html#abjad.pitch.PitchClassSet.PitchClassSet" xlink:title="Pitch\nClass\nSet" target="_top">
<path fill="#decbe4" stroke="#decbe4" stroke-width="2" d="M898.6979,-489.5C898.6979,-489.5 887.0312,-489.5 887.0312,-489.5 881.1979,-489.5 875.3646,-483.6667 875.3646,-477.8333 875.3646,-477.8333 875.3646,-460.1667 875.3646,-460.1667 875.3646,-454.3333 881.1979,-448.5 887.0312,-448.5 887.0312,-448.5 898.6979,-448.5 898.6979,-448.5 904.5312,-448.5 910.3646,-454.3333 910.3646,-460.1667 910.3646,-460.1667 910.3646,-477.8333 910.3646,-477.8333 910.3646,-483.6667 904.5312,-489.5 898.6979,-489.5"/>
<text text-anchor="middle" x="892.8646" y="-477.5" font-family="Arial" font-size="10.00" fill="#000000">Pitch</text>
<text text-anchor="middle" x="892.8646" y="-466.5" font-family="Arial" font-size="10.00" fill="#000000">Class</text>
<text text-anchor="middle" x="892.8646" y="-455.5" font-family="Arial" font-size="10.00" fill="#000000">Set</text>
</a>
</g>
</g>
<!-- abjad.pitch.PitchClassVector.PitchClassVector -->
<g id="node14" class="node">
<title>abjad.pitch.PitchClassVector.PitchClassVector</title>
<g id="a_node14"><a xlink:href="../api/abjad/utilities/../pitch/PitchClassVector.html#abjad.pitch.PitchClassVector.PitchClassVector" xlink:title="Pitch\nClass\nVector" target="_top">
<path fill="#decbe4" stroke="#decbe4" stroke-width="2" d="M899.8646,-329.5C899.8646,-329.5 885.8646,-329.5 885.8646,-329.5 879.8646,-329.5 873.8646,-323.5 873.8646,-317.5 873.8646,-317.5 873.8646,-300.5 873.8646,-300.5 873.8646,-294.5 879.8646,-288.5 885.8646,-288.5 885.8646,-288.5 899.8646,-288.5 899.8646,-288.5 905.8646,-288.5 911.8646,-294.5 911.8646,-300.5 911.8646,-300.5 911.8646,-317.5 911.8646,-317.5 911.8646,-323.5 905.8646,-329.5 899.8646,-329.5"/>
<text text-anchor="middle" x="892.8646" y="-317.5" font-family="Arial" font-size="10.00" fill="#000000">Pitch</text>
<text text-anchor="middle" x="892.8646" y="-306.5" font-family="Arial" font-size="10.00" fill="#000000">Class</text>
<text text-anchor="middle" x="892.8646" y="-295.5" font-family="Arial" font-size="10.00" fill="#000000">Vector</text>
</a>
</g>
</g>
<!-- abjad.pitch.PitchSegment.PitchSegment -->
<g id="node15" class="node">
<title>abjad.pitch.PitchSegment.PitchSegment</title>
<g id="a_node15"><a xlink:href="../api/abjad/utilities/../pitch/PitchSegment.html#abjad.pitch.PitchSegment.PitchSegment" xlink:title="Pitch\nSegment" target="_top">
<path fill="#decbe4" stroke="#decbe4" stroke-width="2" d="M992.3646,-670C992.3646,-670 965.3646,-670 965.3646,-670 960.3646,-670 955.3646,-665 955.3646,-660 955.3646,-660 955.3646,-650 955.3646,-650 955.3646,-645 960.3646,-640 965.3646,-640 965.3646,-640 992.3646,-640 992.3646,-640 997.3646,-640 1002.3646,-645 1002.3646,-650 1002.3646,-650 1002.3646,-660 1002.3646,-660 1002.3646,-665 997.3646,-670 992.3646,-670"/>
<text text-anchor="middle" x="978.8646" y="-658" font-family="Arial" font-size="10.00" fill="#000000">Pitch</text>
<text text-anchor="middle" x="978.8646" y="-647" font-family="Arial" font-size="10.00" fill="#000000">Segment</text>
</a>
</g>
</g>
<!-- abjad.pitch.PitchSet.PitchSet -->
<g id="node16" class="node">
<title>abjad.pitch.PitchSet.PitchSet</title>
<g id="a_node16"><a xlink:href="../api/abjad/utilities/../pitch/PitchSet.html#abjad.pitch.PitchSet.PitchSet" xlink:title="Pitch\nSet" target="_top">
<path fill="#decbe4" stroke="#decbe4" stroke-width="2" d="M985.3646,-514C985.3646,-514 972.3646,-514 972.3646,-514 967.3646,-514 962.3646,-509 962.3646,-504 962.3646,-504 962.3646,-494 962.3646,-494 962.3646,-489 967.3646,-484 972.3646,-484 972.3646,-484 985.3646,-484 985.3646,-484 990.3646,-484 995.3646,-489 995.3646,-494 995.3646,-494 995.3646,-504 995.3646,-504 995.3646,-509 990.3646,-514 985.3646,-514"/>
<text text-anchor="middle" x="978.8646" y="-502" font-family="Arial" font-size="10.00" fill="#000000">Pitch</text>
<text text-anchor="middle" x="978.8646" y="-491" font-family="Arial" font-size="10.00" fill="#000000">Set</text>
</a>
</g>
</g>
<!-- abjad.pitch.PitchVector.PitchVector -->
<g id="node17" class="node">
<title>abjad.pitch.PitchVector.PitchVector</title>
<g id="a_node17"><a xlink:href="../api/abjad/utilities/../pitch/PitchVector.html#abjad.pitch.PitchVector.PitchVector" xlink:title="Pitch\nVector" target="_top">
<path fill="#decbe4" stroke="#decbe4" stroke-width="2" d="M987.8646,-364C987.8646,-364 969.8646,-364 969.8646,-364 964.8646,-364 959.8646,-359 959.8646,-354 959.8646,-354 959.8646,-344 959.8646,-344 959.8646,-339 964.8646,-334 969.8646,-334 969.8646,-334 987.8646,-334 987.8646,-334 992.8646,-334 997.8646,-339 997.8646,-344 997.8646,-344 997.8646,-354 997.8646,-354 997.8646,-359 992.8646,-364 987.8646,-364"/>
<text text-anchor="middle" x="978.8646" y="-352" font-family="Arial" font-size="10.00" fill="#000000">Pitch</text>
<text text-anchor="middle" x="978.8646" y="-341" font-family="Arial" font-size="10.00" fill="#000000">Vector</text>
</a>
</g>
</g>
<!-- abjad.pitch.Segment.Segment -->
<g id="node18" class="node">
<title>abjad.pitch.Segment.Segment</title>
<g id="a_node18"><a xlink:href="../api/abjad/utilities/../pitch/Segment.html#abjad.pitch.Segment.Segment" xlink:title="Segment" target="_top">
<ellipse fill="none" stroke="#decbe4" stroke-width="2" cx="797.1306" cy="-629" rx="33.4697" ry="13.3704"/>
<text text-anchor="middle" x="797.1306" y="-626.5" font-family="Arial" font-size="10.00" fill="#000000">Segment</text>
</a>
</g>
</g>
<!-- abjad.pitch.Set.Set -->
<g id="node19" class="node">
<title>abjad.pitch.Set.Set</title>
<g id="a_node19"><a xlink:href="../api/abjad/utilities/../pitch/Set.html#abjad.pitch.Set.Set" xlink:title="Set" target="_top">
<ellipse fill="none" stroke="#decbe4" stroke-width="2" cx="797.1306" cy="-469" rx="19.6" ry="13.3704"/>
<text text-anchor="middle" x="797.1306" y="-466.5" font-family="Arial" font-size="10.00" fill="#000000">Set</text>
</a>
</g>
</g>
<!-- abjad.pitch.Vector.Vector -->
<g id="node20" class="node">
<title>abjad.pitch.Vector.Vector</title>
<g id="a_node20"><a xlink:href="../api/abjad/utilities/../pitch/Vector.html#abjad.pitch.Vector.Vector" xlink:title="Vector" target="_top">
<ellipse fill="none" stroke="#decbe4" stroke-width="2" cx="797.1306" cy="-309" rx="26.7407" ry="13.3704"/>
<text text-anchor="middle" x="797.1306" y="-306.5" font-family="Arial" font-size="10.00" fill="#000000">Vector</text>
</a>
</g>
</g>
<!-- abjad.timespans.TimespanList -->
<g id="node21" class="node">
<title>abjad.timespans.TimespanList</title>
<g id="a_node21"><a xlink:href="../api/abjad/utilities/../timespans.html#abjad.timespans.TimespanList" xlink:title="Timespan\nList" target="_top">
<path fill="#fed9a6" stroke="#fed9a6" stroke-width="2" d="M907.3646,-46C907.3646,-46 878.3646,-46 878.3646,-46 873.3646,-46 868.3646,-41 868.3646,-36 868.3646,-36 868.3646,-26 868.3646,-26 868.3646,-21 873.3646,-16 878.3646,-16 878.3646,-16 907.3646,-16 907.3646,-16 912.3646,-16 917.3646,-21 917.3646,-26 917.3646,-26 917.3646,-36 917.3646,-36 917.3646,-41 912.3646,-46 907.3646,-46"/>
<text text-anchor="middle" x="892.8646" y="-34" font-family="Arial" font-size="10.00" fill="#000000">Timespan</text>
<text text-anchor="middle" x="892.8646" y="-23" font-family="Arial" font-size="10.00" fill="#000000">List</text>
</a>
</g>
</g>
<!-- abjad.utilities.CyclicTuple.CyclicTuple -->
<g id="node22" class="node">
<title>abjad.utilities.CyclicTuple.CyclicTuple</title>
<g id="a_node22"><a xlink:href="../api/abjad/utilities/CyclicTuple.html#abjad.utilities.CyclicTuple.CyclicTuple" xlink:title="Cyclic\nTuple" target="_top">
<path fill="#000000" stroke="#000000" stroke-width="2" d="M614.5412,-1195C614.5412,-1195 598.5412,-1195 598.5412,-1195 593.5412,-1195 588.5412,-1190 588.5412,-1185 588.5412,-1185 588.5412,-1175 588.5412,-1175 588.5412,-1170 593.5412,-1165 598.5412,-1165 598.5412,-1165 614.5412,-1165 614.5412,-1165 619.5412,-1165 624.5412,-1170 624.5412,-1175 624.5412,-1175 624.5412,-1185 624.5412,-1185 624.5412,-1190 619.5412,-1195 614.5412,-1195"/>
<text text-anchor="middle" x="606.5412" y="-1183" font-family="Arial" font-size="10.00" fill="#ffffff">Cyclic</text>
<text text-anchor="middle" x="606.5412" y="-1172" font-family="Arial" font-size="10.00" fill="#ffffff">Tuple</text>
</a>
</g>
</g>
<!-- abjad.utilities.Duration.Duration -->
<g id="node23" class="node">
<title>abjad.utilities.Duration.Duration</title>
<g id="a_node23"><a xlink:href="../api/abjad/utilities/Duration.html#abjad.utilities.Duration.Duration" xlink:title="Duration" target="_top">
<path fill="#000000" stroke="#000000" stroke-width="2" d="M622.7079,-853.5C622.7079,-853.5 590.3745,-853.5 590.3745,-853.5 587.2079,-853.5 584.0412,-850.3333 584.0412,-847.1667 584.0412,-847.1667 584.0412,-840.8333 584.0412,-840.8333 584.0412,-837.6667 587.2079,-834.5 590.3745,-834.5 590.3745,-834.5 622.7079,-834.5 622.7079,-834.5 625.8745,-834.5 629.0412,-837.6667 629.0412,-840.8333 629.0412,-840.8333 629.0412,-847.1667 629.0412,-847.1667 629.0412,-850.3333 625.8745,-853.5 622.7079,-853.5"/>
<text text-anchor="middle" x="606.5412" y="-841.5" font-family="Arial" font-size="10.00" fill="#ffffff">Duration</text>
</a>
</g>
</g>
<!-- abjad.utilities.Multiplier.Multiplier -->
<g id="node24" class="node">
<title>abjad.utilities.Multiplier.Multiplier</title>
<g id="a_node24"><a xlink:href="../api/abjad/utilities/Multiplier.html#abjad.utilities.Multiplier.Multiplier" xlink:title="Multiplier" target="_top">
<path fill="#000000" stroke="#000000" stroke-width="2" d="M720.0632,-853.5C720.0632,-853.5 685.7299,-853.5 685.7299,-853.5 682.5632,-853.5 679.3965,-850.3333 679.3965,-847.1667 679.3965,-847.1667 679.3965,-840.8333 679.3965,-840.8333 679.3965,-837.6667 682.5632,-834.5 685.7299,-834.5 685.7299,-834.5 720.0632,-834.5 720.0632,-834.5 723.2299,-834.5 726.3965,-837.6667 726.3965,-840.8333 726.3965,-840.8333 726.3965,-847.1667 726.3965,-847.1667 726.3965,-850.3333 723.2299,-853.5 720.0632,-853.5"/>
<text text-anchor="middle" x="702.8965" y="-841.5" font-family="Arial" font-size="10.00" fill="#ffffff">Multiplier</text>
</a>
</g>
</g>
<!-- abjad.utilities.Offset.Offset -->
<g id="node25" class="node">
<title>abjad.utilities.Offset.Offset</title>
<g id="a_node25"><a xlink:href="../api/abjad/utilities/Offset.html#abjad.utilities.Offset.Offset" xlink:title="Offset" target="_top">
<path fill="#000000" stroke="#000000" stroke-width="2" d="M809.2972,-930.5C809.2972,-930.5 784.9639,-930.5 784.9639,-930.5 781.7972,-930.5 778.6306,-927.3333 778.6306,-924.1667 778.6306,-924.1667 778.6306,-917.8333 778.6306,-917.8333 778.6306,-914.6667 781.7972,-911.5 784.9639,-911.5 784.9639,-911.5 809.2972,-911.5 809.2972,-911.5 812.4639,-911.5 815.6306,-914.6667 815.6306,-917.8333 815.6306,-917.8333 815.6306,-924.1667 815.6306,-924.1667 815.6306,-927.3333 812.4639,-930.5 809.2972,-930.5"/>
<text text-anchor="middle" x="797.1306" y="-918.5" font-family="Arial" font-size="10.00" fill="#ffffff">Offset</text>
</a>
</g>
</g>
<!-- abjad.utilities.DurationInequality.DurationInequality -->
<g id="node26" class="node">
<title>abjad.utilities.DurationInequality.DurationInequality</title>
<g id="a_node26"><a xlink:href="../api/abjad/utilities/DurationInequality.html#abjad.utilities.DurationInequality.DurationInequality" xlink:title="Duration\nInequality" target="_top">
<path fill="#000000" stroke="#000000" stroke-width="2" d="M717.3965,-970C717.3965,-970 688.3965,-970 688.3965,-970 683.3965,-970 678.3965,-965 678.3965,-960 678.3965,-960 678.3965,-950 678.3965,-950 678.3965,-945 683.3965,-940 688.3965,-940 688.3965,-940 717.3965,-940 717.3965,-940 722.3965,-940 727.3965,-945 727.3965,-950 727.3965,-950 727.3965,-960 727.3965,-960 727.3965,-965 722.3965,-970 717.3965,-970"/>
<text text-anchor="middle" x="702.8965" y="-958" font-family="Arial" font-size="10.00" fill="#ffffff">Duration</text>
<text text-anchor="middle" x="702.8965" y="-947" font-family="Arial" font-size="10.00" fill="#ffffff">Inequality</text>
</a>
</g>
</g>
<!-- abjad.utilities.Enumerator.Enumerator -->
<g id="node27" class="node">
<title>abjad.utilities.Enumerator.Enumerator</title>
<g id="a_node27"><a xlink:href="../api/abjad/utilities/Enumerator.html#abjad.utilities.Enumerator.Enumerator" xlink:title="Enumerator" target="_top">
<path fill="#000000" stroke="#000000" stroke-width="2" d="M628.2079,-1146.5C628.2079,-1146.5 584.8745,-1146.5 584.8745,-1146.5 581.7079,-1146.5 578.5412,-1143.3333 578.5412,-1140.1667 578.5412,-1140.1667 578.5412,-1133.8333 578.5412,-1133.8333 578.5412,-1130.6667 581.7079,-1127.5 584.8745,-1127.5 584.8745,-1127.5 628.2079,-1127.5 628.2079,-1127.5 631.3745,-1127.5 634.5412,-1130.6667 634.5412,-1133.8333 634.5412,-1133.8333 634.5412,-1140.1667 634.5412,-1140.1667 634.5412,-1143.3333 631.3745,-1146.5 628.2079,-1146.5"/>
<text text-anchor="middle" x="606.5412" y="-1134.5" font-family="Arial" font-size="10.00" fill="#ffffff">Enumerator</text>
</a>
</g>
</g>
<!-- abjad.utilities.Expression.Expression -->
<g id="node28" class="node">
<title>abjad.utilities.Expression.Expression</title>
<g id="a_node28"><a xlink:href="../api/abjad/utilities/Expression.html#abjad.utilities.Expression.Expression" xlink:title="Expression" target="_top">
<path fill="#000000" stroke="#000000" stroke-width="2" d="M627.2079,-1109.5C627.2079,-1109.5 585.8745,-1109.5 585.8745,-1109.5 582.7079,-1109.5 579.5412,-1106.3333 579.5412,-1103.1667 579.5412,-1103.1667 579.5412,-1096.8333 579.5412,-1096.8333 579.5412,-1093.6667 582.7079,-1090.5 585.8745,-1090.5 585.8745,-1090.5 627.2079,-1090.5 627.2079,-1090.5 630.3745,-1090.5 633.5412,-1093.6667 633.5412,-1096.8333 633.5412,-1096.8333 633.5412,-1103.1667 633.5412,-1103.1667 633.5412,-1106.3333 630.3745,-1109.5 627.2079,-1109.5"/>
<text text-anchor="middle" x="606.5412" y="-1097.5" font-family="Arial" font-size="10.00" fill="#ffffff">Expression</text>
</a>
</g>
</g>
<!-- abjad.utilities.Inequality.Inequality -->
<g id="node29" class="node">
<title>abjad.utilities.Inequality.Inequality</title>
<g id="a_node29"><a xlink:href="../api/abjad/utilities/Inequality.html#abjad.utilities.Inequality.Inequality" xlink:title="Inequality" target="_top">
<path fill="#000000" stroke="#000000" stroke-width="2" d="M624.7079,-1072.5C624.7079,-1072.5 588.3745,-1072.5 588.3745,-1072.5 585.2079,-1072.5 582.0412,-1069.3333 582.0412,-1066.1667 582.0412,-1066.1667 582.0412,-1059.8333 582.0412,-1059.8333 582.0412,-1056.6667 585.2079,-1053.5 588.3745,-1053.5 588.3745,-1053.5 624.7079,-1053.5 624.7079,-1053.5 627.8745,-1053.5 631.0412,-1056.6667 631.0412,-1059.8333 631.0412,-1059.8333 631.0412,-1066.1667 631.0412,-1066.1667 631.0412,-1069.3333 627.8745,-1072.5 624.7079,-1072.5"/>
<text text-anchor="middle" x="606.5412" y="-1060.5" font-family="Arial" font-size="10.00" fill="#ffffff">Inequality</text>
</a>
</g>
</g>
<!-- abjad.utilities.LengthInequality.LengthInequality -->
<g id="node30" class="node">
<title>abjad.utilities.LengthInequality.LengthInequality</title>
<g id="a_node30"><a xlink:href="../api/abjad/utilities/LengthInequality.html#abjad.utilities.LengthInequality.LengthInequality" xlink:title="Length\nInequality" target="_top">
<path fill="#000000" stroke="#000000" stroke-width="2" d="M811.6306,-1206C811.6306,-1206 782.6306,-1206 782.6306,-1206 777.6306,-1206 772.6306,-1201 772.6306,-1196 772.6306,-1196 772.6306,-1186 772.6306,-1186 772.6306,-1181 777.6306,-1176 782.6306,-1176 782.6306,-1176 811.6306,-1176 811.6306,-1176 816.6306,-1176 821.6306,-1181 821.6306,-1186 821.6306,-1186 821.6306,-1196 821.6306,-1196 821.6306,-1201 816.6306,-1206 811.6306,-1206"/>
<text text-anchor="middle" x="797.1306" y="-1194" font-family="Arial" font-size="10.00" fill="#ffffff">Length</text>
<text text-anchor="middle" x="797.1306" y="-1183" font-family="Arial" font-size="10.00" fill="#ffffff">Inequality</text>
</a>
</g>
</g>
<!-- abjad.utilities.OrderedDict.OrderedDict -->
<g id="node31" class="node">
<title>abjad.utilities.OrderedDict.OrderedDict</title>
<g id="a_node31"><a xlink:href="../api/abjad/utilities/OrderedDict.html#abjad.utilities.OrderedDict.OrderedDict" xlink:title="Ordered\nDict" target="_top">
<path fill="#000000" stroke="#000000" stroke-width="2" d="M714.8965,-1066C714.8965,-1066 690.8965,-1066 690.8965,-1066 685.8965,-1066 680.8965,-1061 680.8965,-1056 680.8965,-1056 680.8965,-1046 680.8965,-1046 680.8965,-1041 685.8965,-1036 690.8965,-1036 690.8965,-1036 714.8965,-1036 714.8965,-1036 719.8965,-1036 724.8965,-1041 724.8965,-1046 724.8965,-1046 724.8965,-1056 724.8965,-1056 724.8965,-1061 719.8965,-1066 714.8965,-1066"/>
<text text-anchor="middle" x="702.8965" y="-1054" font-family="Arial" font-size="10.00" fill="#ffffff">Ordered</text>
<text text-anchor="middle" x="702.8965" y="-1043" font-family="Arial" font-size="10.00" fill="#ffffff">Dict</text>
</a>
</g>
</g>
<!-- abjad.utilities.Pattern.Pattern -->
<g id="node32" class="node">
<title>abjad.utilities.Pattern.Pattern</title>
<g id="a_node32"><a xlink:href="../api/abjad/utilities/Pattern.html#abjad.utilities.Pattern.Pattern" xlink:title="Pattern" target="_top">
<path fill="#000000" stroke="#000000" stroke-width="2" d="M620.7079,-1035.5C620.7079,-1035.5 592.3745,-1035.5 592.3745,-1035.5 589.2079,-1035.5 586.0412,-1032.3333 586.0412,-1029.1667 586.0412,-1029.1667 586.0412,-1022.8333 586.0412,-1022.8333 586.0412,-1019.6667 589.2079,-1016.5 592.3745,-1016.5 592.3745,-1016.5 620.7079,-1016.5 620.7079,-1016.5 623.8745,-1016.5 627.0412,-1019.6667 627.0412,-1022.8333 627.0412,-1022.8333 627.0412,-1029.1667 627.0412,-1029.1667 627.0412,-1032.3333 623.8745,-1035.5 620.7079,-1035.5"/>
<text text-anchor="middle" x="606.5412" y="-1023.5" font-family="Arial" font-size="10.00" fill="#ffffff">Pattern</text>
</a>
</g>
</g>
<!-- abjad.utilities.PatternTuple.PatternTuple -->
<g id="node33" class="node">
<title>abjad.utilities.PatternTuple.PatternTuple</title>
<g id="a_node33"><a xlink:href="../api/abjad/utilities/PatternTuple.html#abjad.utilities.PatternTuple.PatternTuple" xlink:title="Pattern\nTuple" target="_top">
<path fill="#000000" stroke="#000000" stroke-width="2" d="M807.6306,-1158C807.6306,-1158 786.6306,-1158 786.6306,-1158 781.6306,-1158 776.6306,-1153 776.6306,-1148 776.6306,-1148 776.6306,-1138 776.6306,-1138 776.6306,-1133 781.6306,-1128 786.6306,-1128 786.6306,-1128 807.6306,-1128 807.6306,-1128 812.6306,-1128 817.6306,-1133 817.6306,-1138 817.6306,-1138 817.6306,-1148 817.6306,-1148 817.6306,-1153 812.6306,-1158 807.6306,-1158"/>
<text text-anchor="middle" x="797.1306" y="-1146" font-family="Arial" font-size="10.00" fill="#ffffff">Pattern</text>
<text text-anchor="middle" x="797.1306" y="-1135" font-family="Arial" font-size="10.00" fill="#ffffff">Tuple</text>
</a>
</g>
</g>
<!-- abjad.utilities.PitchInequality.PitchInequality -->
<g id="node34" class="node">
<title>abjad.utilities.PitchInequality.PitchInequality</title>
<g id="a_node34"><a xlink:href="../api/abjad/utilities/PitchInequality.html#abjad.utilities.PitchInequality.PitchInequality" xlink:title="Pitch\nInequality" target="_top">
<path fill="#000000" stroke="#000000" stroke-width="2" d="M621.0412,-998C621.0412,-998 592.0412,-998 592.0412,-998 587.0412,-998 582.0412,-993 582.0412,-988 582.0412,-988 582.0412,-978 582.0412,-978 582.0412,-973 587.0412,-968 592.0412,-968 592.0412,-968 621.0412,-968 621.0412,-968 626.0412,-968 631.0412,-973 631.0412,-978 631.0412,-978 631.0412,-988 631.0412,-988 631.0412,-993 626.0412,-998 621.0412,-998"/>
<text text-anchor="middle" x="606.5412" y="-986" font-family="Arial" font-size="10.00" fill="#ffffff">Pitch</text>
<text text-anchor="middle" x="606.5412" y="-975" font-family="Arial" font-size="10.00" fill="#ffffff">Inequality</text>
</a>
</g>
</g>
<!-- abjad.utilities.Sequence.Sequence -->
<g id="node35" class="node">
<title>abjad.utilities.Sequence.Sequence</title>
<g id="a_node35"><a xlink:href="../api/abjad/utilities/Sequence.html#abjad.utilities.Sequence.Sequence" xlink:title="Sequence" target="_top">
<path fill="#000000" stroke="#000000" stroke-width="2" d="M625.2079,-1269.5C625.2079,-1269.5 587.8745,-1269.5 587.8745,-1269.5 584.7079,-1269.5 581.5412,-1266.3333 581.5412,-1263.1667 581.5412,-1263.1667 581.5412,-1256.8333 581.5412,-1256.8333 581.5412,-1253.6667 584.7079,-1250.5 587.8745,-1250.5 587.8745,-1250.5 625.2079,-1250.5 625.2079,-1250.5 628.3745,-1250.5 631.5412,-1253.6667 631.5412,-1256.8333 631.5412,-1256.8333 631.5412,-1263.1667 631.5412,-1263.1667 631.5412,-1266.3333 628.3745,-1269.5 625.2079,-1269.5"/>
<text text-anchor="middle" x="606.5412" y="-1257.5" font-family="Arial" font-size="10.00" fill="#ffffff">Sequence</text>
</a>
</g>
</g>
<!-- abjad.utilities.SortedCollection.SortedCollection -->
<g id="node36" class="node">
<title>abjad.utilities.SortedCollection.SortedCollection</title>
<g id="a_node36"><a xlink:href="../api/abjad/utilities/SortedCollection.html#abjad.utilities.SortedCollection.SortedCollection" xlink:title="Sorted\nCollection" target="_top">
<path fill="#000000" stroke="#000000" stroke-width="2" d="M621.0412,-950C621.0412,-950 592.0412,-950 592.0412,-950 587.0412,-950 582.0412,-945 582.0412,-940 582.0412,-940 582.0412,-930 582.0412,-930 582.0412,-925 587.0412,-920 592.0412,-920 592.0412,-920 621.0412,-920 621.0412,-920 626.0412,-920 631.0412,-925 631.0412,-930 631.0412,-930 631.0412,-940 631.0412,-940 631.0412,-945 626.0412,-950 621.0412,-950"/>
<text text-anchor="middle" x="606.5412" y="-938" font-family="Arial" font-size="10.00" fill="#ffffff">Sorted</text>
<text text-anchor="middle" x="606.5412" y="-927" font-family="Arial" font-size="10.00" fill="#ffffff">Collection</text>
</a>
</g>
</g>
<!-- abjad.utilities.String.String -->
<g id="node37" class="node">
<title>abjad.utilities.String.String</title>
<g id="a_node37"><a xlink:href="../api/abjad/utilities/String.html#abjad.utilities.String.String" xlink:title="String" target="_top">
<path fill="#000000" stroke="#000000" stroke-width="2" d="M618.2079,-1232.5C618.2079,-1232.5 594.8745,-1232.5 594.8745,-1232.5 591.7079,-1232.5 588.5412,-1229.3333 588.5412,-1226.1667 588.5412,-1226.1667 588.5412,-1219.8333 588.5412,-1219.8333 588.5412,-1216.6667 591.7079,-1213.5 594.8745,-1213.5 594.8745,-1213.5 618.2079,-1213.5 618.2079,-1213.5 621.3745,-1213.5 624.5412,-1216.6667 624.5412,-1219.8333 624.5412,-1219.8333 624.5412,-1226.1667 624.5412,-1226.1667 624.5412,-1229.3333 621.3745,-1232.5 618.2079,-1232.5"/>
<text text-anchor="middle" x="606.5412" y="-1220.5" font-family="Arial" font-size="10.00" fill="#ffffff">String</text>
</a>
</g>
</g>
<!-- abjad.utilities.TypedCollection.TypedCollection -->
<g id="node38" class="node">
<title>abjad.utilities.TypedCollection.TypedCollection</title>
<g id="a_node38"><a xlink:href="../api/abjad/utilities/TypedCollection.html#abjad.utilities.TypedCollection.TypedCollection" xlink:title="Typed\nCollection" target="_top">
<path fill="#000000" stroke="#000000" stroke-width="2" d="M621.0412,-902C621.0412,-902 592.0412,-902 592.0412,-902 587.0412,-902 582.0412,-897 582.0412,-892 582.0412,-892 582.0412,-882 582.0412,-882 582.0412,-877 587.0412,-872 592.0412,-872 592.0412,-872 621.0412,-872 621.0412,-872 626.0412,-872 631.0412,-877 631.0412,-882 631.0412,-882 631.0412,-892 631.0412,-892 631.0412,-897 626.0412,-902 621.0412,-902"/>
<text text-anchor="middle" x="606.5412" y="-890" font-family="Arial" font-size="10.00" fill="#ffffff">Typed</text>
<text text-anchor="middle" x="606.5412" y="-879" font-family="Arial" font-size="10.00" fill="#ffffff">Collection</text>
</a>
</g>
</g>
<!-- abjad.utilities.TypedCounter.TypedCounter -->
<g id="node39" class="node">
<title>abjad.utilities.TypedCounter.TypedCounter</title>
<g id="a_node39"><a xlink:href="../api/abjad/utilities/TypedCounter.html#abjad.utilities.TypedCounter.TypedCounter" xlink:title="Typed\nCounter" target="_top">
<path fill="#000000" stroke="#000000" stroke-width="2" d="M714.3965,-1018C714.3965,-1018 691.3965,-1018 691.3965,-1018 686.3965,-1018 681.3965,-1013 681.3965,-1008 681.3965,-1008 681.3965,-998 681.3965,-998 681.3965,-993 686.3965,-988 691.3965,-988 691.3965,-988 714.3965,-988 714.3965,-988 719.3965,-988 724.3965,-993 724.3965,-998 724.3965,-998 724.3965,-1008 724.3965,-1008 724.3965,-1013 719.3965,-1018 714.3965,-1018"/>
<text text-anchor="middle" x="702.8965" y="-1006" font-family="Arial" font-size="10.00" fill="#ffffff">Typed</text>
<text text-anchor="middle" x="702.8965" y="-995" font-family="Arial" font-size="10.00" fill="#ffffff">Counter</text>
</a>
</g>
</g>
<!-- abjad.utilities.TypedFrozenset.TypedFrozenset -->
<g id="node40" class="node">
<title>abjad.utilities.TypedFrozenset.TypedFrozenset</title>
<g id="a_node40"><a xlink:href="../api/abjad/utilities/TypedFrozenset.html#abjad.utilities.TypedFrozenset.TypedFrozenset" xlink:title="Typed\nFrozenset" target="_top">
<path fill="#000000" stroke="#000000" stroke-width="2" d="M717.8965,-1114C717.8965,-1114 687.8965,-1114 687.8965,-1114 682.8965,-1114 677.8965,-1109 677.8965,-1104 677.8965,-1104 677.8965,-1094 677.8965,-1094 677.8965,-1089 682.8965,-1084 687.8965,-1084 687.8965,-1084 717.8965,-1084 717.8965,-1084 722.8965,-1084 727.8965,-1089 727.8965,-1094 727.8965,-1094 727.8965,-1104 727.8965,-1104 727.8965,-1109 722.8965,-1114 717.8965,-1114"/>
<text text-anchor="middle" x="702.8965" y="-1102" font-family="Arial" font-size="10.00" fill="#ffffff">Typed</text>
<text text-anchor="middle" x="702.8965" y="-1091" font-family="Arial" font-size="10.00" fill="#ffffff">Frozenset</text>
</a>
</g>
</g>
<!-- abjad.utilities.TypedList.TypedList -->
<g id="node41" class="node">
<title>abjad.utilities.TypedList.TypedList</title>
<g id="a_node41"><a xlink:href="../api/abjad/utilities/TypedList.html#abjad.utilities.TypedList.TypedList" xlink:title="Typed\nList" target="_top">
<path fill="#000000" stroke="#000000" stroke-width="2" d="M711.3965,-902C711.3965,-902 694.3965,-902 694.3965,-902 689.3965,-902 684.3965,-897 684.3965,-892 684.3965,-892 684.3965,-882 684.3965,-882 684.3965,-877 689.3965,-872 694.3965,-872 694.3965,-872 711.3965,-872 711.3965,-872 716.3965,-872 721.3965,-877 721.3965,-882 721.3965,-882 721.3965,-892 721.3965,-892 721.3965,-897 716.3965,-902 711.3965,-902"/>
<text text-anchor="middle" x="702.8965" y="-890" font-family="Arial" font-size="10.00" fill="#ffffff">Typed</text>
<text text-anchor="middle" x="702.8965" y="-879" font-family="Arial" font-size="10.00" fill="#ffffff">List</text>
</a>
</g>
</g>
<!-- abjad.utilities.TypedTuple.TypedTuple -->
<g id="node42" class="node">
<title>abjad.utilities.TypedTuple.TypedTuple</title>
<g id="a_node42"><a xlink:href="../api/abjad/utilities/TypedTuple.html#abjad.utilities.TypedTuple.TypedTuple" xlink:title="Typed\nTuple" target="_top">
<path fill="#000000" stroke="#000000" stroke-width="2" d="M711.3965,-1162C711.3965,-1162 694.3965,-1162 694.3965,-1162 689.3965,-1162 684.3965,-1157 684.3965,-1152 684.3965,-1152 684.3965,-1142 684.3965,-1142 684.3965,-1137 689.3965,-1132 694.3965,-1132 694.3965,-1132 711.3965,-1132 711.3965,-1132 716.3965,-1132 721.3965,-1137 721.3965,-1142 721.3965,-1142 721.3965,-1152 721.3965,-1152 721.3965,-1157 716.3965,-1162 711.3965,-1162"/>
<text text-anchor="middle" x="702.8965" y="-1150" font-family="Arial" font-size="10.00" fill="#ffffff">Typed</text>
<text text-anchor="middle" x="702.8965" y="-1139" font-family="Arial" font-size="10.00" fill="#ffffff">Tuple</text>
</a>
</g>
</g>
<!-- builtins.object -->
<g id="node43" class="node">
<title>builtins.object</title>
<g id="a_node43"><a xlink:href="https://docs.python.org/3.6/library/functions.html#object" xlink:title="object" target="_top">
<path fill="#e5d8bd" stroke="#e5d8bd" stroke-width="2" d="M46.6667,-1219.5C46.6667,-1219.5 22.3333,-1219.5 22.3333,-1219.5 19.1667,-1219.5 16,-1216.3333 16,-1213.1667 16,-1213.1667 16,-1206.8333 16,-1206.8333 16,-1203.6667 19.1667,-1200.5 22.3333,-1200.5 22.3333,-1200.5 46.6667,-1200.5 46.6667,-1200.5 49.8333,-1200.5 53,-1203.6667 53,-1206.8333 53,-1206.8333 53,-1213.1667 53,-1213.1667 53,-1216.3333 49.8333,-1219.5 46.6667,-1219.5"/>
<text text-anchor="middle" x="34.5" y="-1207.5" font-family="Arial" font-size="10.00" fill="#000000">object</text>
</a>
</g>
</g>
<!-- builtins.str -->
<g id="node44" class="node">
<title>builtins.str</title>
<g id="a_node44"><a xlink:href="https://docs.python.org/3.6/library/stdtypes.html#str" xlink:title="str" target="_top">
<path fill="#e5d8bd" stroke="#e5d8bd" stroke-width="2" d="M107.6667,-1219.5C107.6667,-1219.5 95.3333,-1219.5 95.3333,-1219.5 92.1667,-1219.5 89,-1216.3333 89,-1213.1667 89,-1213.1667 89,-1206.8333 89,-1206.8333 89,-1203.6667 92.1667,-1200.5 95.3333,-1200.5 95.3333,-1200.5 107.6667,-1200.5 107.6667,-1200.5 110.8333,-1200.5 114,-1203.6667 114,-1206.8333 114,-1206.8333 114,-1213.1667 114,-1213.1667 114,-1216.3333 110.8333,-1219.5 107.6667,-1219.5"/>
<text text-anchor="middle" x="101.5" y="-1207.5" font-family="Arial" font-size="10.00" fill="#000000">str</text>
</a>
</g>
</g>
<!-- collections.abc.Collection -->
<g id="node45" class="node">
<title>collections.abc.Collection</title>
<g id="a_node45"><a xlink:href="https://docs.python.org/3.6/library/collections.abc.html#collections.abc.Collection" xlink:title="Collection" target="_top">
<ellipse fill="none" stroke="#fddaec" stroke-width="2" cx="292.066" cy="-1424" rx="34.7971" ry="13.3704"/>
<text text-anchor="middle" x="292.066" y="-1421.5" font-family="Arial" font-size="10.00" fill="#000000">Collection</text>
</a>
</g>
</g>
<!-- collections.abc.Mapping -->
<g id="node46" class="node">
<title>collections.abc.Mapping</title>
<g id="a_node46"><a xlink:href="https://docs.python.org/3.6/library/collections.abc.html#collections.abc.Mapping" xlink:title="Mapping" target="_top">
<ellipse fill="none" stroke="#fddaec" stroke-width="2" cx="400.1909" cy="-1424" rx="31.6406" ry="13.3704"/>
<text text-anchor="middle" x="400.1909" y="-1421.5" font-family="Arial" font-size="10.00" fill="#000000">Mapping</text>
</a>
</g>
</g>
<!-- collections.abc.Sequence -->
<g id="node47" class="node">
<title>collections.abc.Sequence</title>
<g id="a_node47"><a xlink:href="https://docs.python.org/3.6/library/collections.abc.html#collections.abc.Sequence" xlink:title="Sequence" target="_top">
<ellipse fill="none" stroke="#fddaec" stroke-width="2" cx="400.1909" cy="-1379" rx="35.2113" ry="13.3704"/>
<text text-anchor="middle" x="400.1909" y="-1376.5" font-family="Arial" font-size="10.00" fill="#000000">Sequence</text>
</a>
</g>
</g>
<!-- collections.abc.Set -->
<g id="node48" class="node">
<title>collections.abc.Set</title>
<g id="a_node48"><a xlink:href="https://docs.python.org/3.6/library/collections.abc.html#collections.abc.Set" xlink:title="Set" target="_top">
<ellipse fill="none" stroke="#fddaec" stroke-width="2" cx="503.3661" cy="-1449" rx="19.6" ry="13.3704"/>
<text text-anchor="middle" x="503.3661" y="-1446.5" font-family="Arial" font-size="10.00" fill="#000000">Set</text>
</a>
</g>
</g>
<!-- collections.abc.Container -->
<g id="node49" class="node">
<title>collections.abc.Container</title>
<g id="a_node49"><a xlink:href="https://docs.python.org/3.6/library/collections.abc.html#collections.abc.Container" xlink:title="Container" target="_top">
<ellipse fill="none" stroke="#fddaec" stroke-width="2" cx="184.6482" cy="-1469" rx="34.7971" ry="13.3704"/>
<text text-anchor="middle" x="184.6482" y="-1466.5" font-family="Arial" font-size="10.00" fill="#000000">Container</text>
</a>
</g>
</g>
<!-- collections.abc.Iterable -->
<g id="node50" class="node">
<title>collections.abc.Iterable</title>
<g id="a_node50"><a xlink:href="https://docs.python.org/3.6/library/collections.abc.html#collections.abc.Iterable" xlink:title="Iterable" target="_top">
<ellipse fill="none" stroke="#fddaec" stroke-width="2" cx="184.6482" cy="-1379" rx="29.8983" ry="13.3704"/>
<text text-anchor="middle" x="184.6482" y="-1376.5" font-family="Arial" font-size="10.00" fill="#000000">Iterable</text>
</a>
</g>
</g>
<!-- collections.abc.Reversible -->
<g id="node51" class="node">
<title>collections.abc.Reversible</title>
<g id="a_node51"><a xlink:href="https://docs.python.org/3.6/library/collections.abc.html#collections.abc.Reversible" xlink:title="Reversible" target="_top">
<ellipse fill="none" stroke="#fddaec" stroke-width="2" cx="292.066" cy="-1379" rx="36.5405" ry="13.3704"/>
<text text-anchor="middle" x="292.066" y="-1376.5" font-family="Arial" font-size="10.00" fill="#000000">Reversible</text>
</a>
</g>
</g>
<!-- collections.abc.MutableMapping -->
<g id="node52" class="node">
<title>collections.abc.MutableMapping</title>
<g id="a_node52"><a xlink:href="https://docs.python.org/3.6/library/collections.abc.html#collections.abc.MutableMapping" xlink:title="Mutable\nMapping" target="_top">
<ellipse fill="none" stroke="#fddaec" stroke-width="2" cx="503.3661" cy="-1396" rx="31.6406" ry="21.4286"/>
<text text-anchor="middle" x="503.3661" y="-1399" font-family="Arial" font-size="10.00" fill="#000000">Mutable</text>
<text text-anchor="middle" x="503.3661" y="-1388" font-family="Arial" font-size="10.00" fill="#000000">Mapping</text>
</a>
</g>
</g>
<!-- collections.abc.MutableSequence -->
<g id="node53" class="node">
<title>collections.abc.MutableSequence</title>
<g id="a_node53"><a xlink:href="https://docs.python.org/3.6/library/collections.abc.html#collections.abc.MutableSequence" xlink:title="Mutable\nSequence" target="_top">
<ellipse fill="none" stroke="#fddaec" stroke-width="2" cx="606.5412" cy="-1461" rx="35.2113" ry="21.4286"/>
<text text-anchor="middle" x="606.5412" y="-1464" font-family="Arial" font-size="10.00" fill="#000000">Mutable</text>
<text text-anchor="middle" x="606.5412" y="-1453" font-family="Arial" font-size="10.00" fill="#000000">Sequence</text>
</a>
</g>
</g>
<!-- collections.abc.Sized -->
<g id="node54" class="node">
<title>collections.abc.Sized</title>
<g id="a_node54"><a xlink:href="https://docs.python.org/3.6/library/collections.abc.html#collections.abc.Sized" xlink:title="Sized" target="_top">
<ellipse fill="none" stroke="#fddaec" stroke-width="2" cx="184.6482" cy="-1424" rx="25" ry="13.3704"/>
<text text-anchor="middle" x="184.6482" y="-1421.5" font-family="Arial" font-size="10.00" fill="#000000">Sized</text>
</a>
</g>
</g>
<!-- fractions.Fraction -->
<g id="node55" class="node">
<title>fractions.Fraction</title>
<g id="a_node55"><a xlink:href="https://docs.python.org/3.6/library/fractions.html#fractions.Fraction" xlink:title="Fraction" target="_top">
<path fill="#f2f2f2" stroke="#f2f2f2" stroke-width="2" d="M519.0327,-854.5C519.0327,-854.5 487.6994,-854.5 487.6994,-854.5 484.5327,-854.5 481.3661,-851.3333 481.3661,-848.1667 481.3661,-848.1667 481.3661,-841.8333 481.3661,-841.8333 481.3661,-838.6667 484.5327,-835.5 487.6994,-835.5 487.6994,-835.5 519.0327,-835.5 519.0327,-835.5 522.1994,-835.5 525.3661,-838.6667 525.3661,-841.8333 525.3661,-841.8333 525.3661,-848.1667 525.3661,-848.1667 525.3661,-851.3333 522.1994,-854.5 519.0327,-854.5"/>
<text text-anchor="middle" x="503.3661" y="-842.5" font-family="Arial" font-size="10.00" fill="#000000">Fraction</text>
</a>
</g>
</g>
<!-- numbers.Complex -->
<g id="node56" class="node">
<title>numbers.Complex</title>
<g id="a_node56"><a xlink:href="https://docs.python.org/3.6/library/numbers.html#numbers.Complex" xlink:title="Complex" target="_top">
<ellipse fill="none" stroke="#fbb4ae" stroke-width="2" cx="292.066" cy="-1251" rx="32.5538" ry="13.3704"/>
<text text-anchor="middle" x="292.066" y="-1248.5" font-family="Arial" font-size="10.00" fill="#000000">Complex</text>
</a>
</g>
</g>
<!-- numbers.Real -->
<g id="node57" class="node">
<title>numbers.Real</title>
<g id="a_node57"><a xlink:href="https://docs.python.org/3.6/library/numbers.html#numbers.Real" xlink:title="Real" target="_top">
<ellipse fill="none" stroke="#fbb4ae" stroke-width="2" cx="400.1909" cy="-1251" rx="22.7556" ry="13.3704"/>
<text text-anchor="middle" x="400.1909" y="-1248.5" font-family="Arial" font-size="10.00" fill="#000000">Real</text>
</a>
</g>
</g>
<!-- numbers.Number -->
<g id="node58" class="node">
<title>numbers.Number</title>
<g id="a_node58"><a xlink:href="https://docs.python.org/3.6/library/numbers.html#numbers.Number" xlink:title="Number" target="_top">
<path fill="#fbb4ae" stroke="#fbb4ae" stroke-width="2" d="M199.8149,-1259.5C199.8149,-1259.5 169.4816,-1259.5 169.4816,-1259.5 166.3149,-1259.5 163.1482,-1256.3333 163.1482,-1253.1667 163.1482,-1253.1667 163.1482,-1246.8333 163.1482,-1246.8333 163.1482,-1243.6667 166.3149,-1240.5 169.4816,-1240.5 169.4816,-1240.5 199.8149,-1240.5 199.8149,-1240.5 202.9816,-1240.5 206.1482,-1243.6667 206.1482,-1246.8333 206.1482,-1246.8333 206.1482,-1253.1667 206.1482,-1253.1667 206.1482,-1256.3333 202.9816,-1259.5 199.8149,-1259.5"/>
<text text-anchor="middle" x="184.6482" y="-1247.5" font-family="Arial" font-size="10.00" fill="#000000">Number</text>
</a>
</g>
</g>
<!-- numbers.Rational -->
<g id="node59" class="node">
<title>numbers.Rational</title>
<g id="a_node59"><a xlink:href="https://docs.python.org/3.6/library/numbers.html#numbers.Rational" xlink:title="Rational" target="_top">
<ellipse fill="none" stroke="#fbb4ae" stroke-width="2" cx="503.3661" cy="-1251" rx="31.2258" ry="13.3704"/>
<text text-anchor="middle" x="503.3661" y="-1248.5" font-family="Arial" font-size="10.00" fill="#000000">Rational</text>
</a>
</g>
</g>
</g>
</svg>
