<?xml version="1.0" encoding="UTF-8" standalone="no"?>
<!DOCTYPE svg PUBLIC "-//W3C//DTD SVG 1.1//EN"
 "http://www.w3.org/Graphics/SVG/1.1/DTD/svg11.dtd">
<!-- Generated by graphviz version 2.40.1 (20161225.0304)
 -->
<!-- Title: InheritanceGraph Pages: 1 -->
<svg width="201pt" height="113pt"
 viewBox="0.00 0.00 201.15 113.00" xmlns="http://www.w3.org/2000/svg" xmlns:xlink="http://www.w3.org/1999/xlink">
<g id="graph0" class="graph" transform="scale(1 1) rotate(0) translate(4 109)">
<title>InheritanceGraph</title>
<g id="clust1" class="cluster">
<title>cluster_abjad.lilypondnames</title>
<path fill="transparent" stroke="#bcd2ee" stroke-width="2" stroke-dasharray="5,2" d="M98.6846,-8C98.6846,-8 181.1475,-8 181.1475,-8 187.1475,-8 193.1475,-14 193.1475,-20 193.1475,-20 193.1475,-85 193.1475,-85 193.1475,-91 187.1475,-97 181.1475,-97 181.1475,-97 98.6846,-97 98.6846,-97 92.6846,-97 86.6846,-91 86.6846,-85 86.6846,-85 86.6846,-20 86.6846,-20 86.6846,-14 92.6846,-8 98.6846,-8"/>
<text text-anchor="middle" x="139.916" y="-85" font-family="Arial" font-size="10.00" fill="#000000">abjad.lilypondnames</text>
</g>
<g id="clust2" class="cluster">
<title>cluster_builtins</title>
<path fill="transparent" stroke="#bcd2ee" stroke-width="2" stroke-dasharray="5,2" d="M20,-25C20,-25 54.6846,-25 54.6846,-25 60.6846,-25 66.6846,-31 66.6846,-37 66.6846,-37 66.6846,-68 66.6846,-68 66.6846,-74 60.6846,-80 54.6846,-80 54.6846,-80 20,-80 20,-80 14,-80 8,-74 8,-68 8,-68 8,-37 8,-37 8,-31 14,-25 20,-25"/>
<text text-anchor="middle" x="37.3423" y="-68" font-family="Arial" font-size="10.00" fill="#000000">builtins</text>
</g>
<!-- builtins.object&#45;&gt;abjad.lilypondnames.LilyPondContextSetting.LilyPondContextSetting -->
<g id="edge1" class="edge">
<title>builtins.object&#45;&gt;abjad.lilypondnames.LilyPondContextSetting.LilyPondContextSetting</title>
<path fill="none" stroke="#778899" d="M58.5956,-43C71.7548,-43 88.9868,-43 104.1996,-43"/>
<polygon fill="#778899" stroke="#778899" points="104.3341,-46.5001 114.3341,-43 104.334,-39.5001 104.3341,-46.5001"/>
</g>
<!-- abjad.lilypondnames.LilyPondContextSetting.LilyPondContextSetting -->
<g id="node1" class="node">
<title>abjad.lilypondnames.LilyPondContextSetting.LilyPondContextSetting</title>
<g id="a_node1"><a xlink:href="../api/abjad/lilypondnames/LilyPondContextSetting.html#abjad.lilypondnames.LilyPondContextSetting.LilyPondContextSetting" xlink:title="Lily\nPond\nContext\nSetting" target="_top">
<path fill="#000000" stroke="#000000" stroke-width="2" d="M153.381,-69.9961C153.381,-69.9961 126.451,-69.9961 126.451,-69.9961 120.451,-69.9961 114.451,-63.9961 114.451,-57.9961 114.451,-57.9961 114.451,-28.0039 114.451,-28.0039 114.451,-22.0039 120.451,-16.0039 126.451,-16.0039 126.451,-16.0039 153.381,-16.0039 153.381,-16.0039 159.381,-16.0039 165.381,-22.0039 165.381,-28.0039 165.381,-28.0039 165.381,-57.9961 165.381,-57.9961 165.381,-63.9961 159.381,-69.9961 153.381,-69.9961"/>
<text text-anchor="middle" x="139.916" y="-57.998" font-family="Arial" font-size="10.00" fill="#ffffff">Lily</text>
<text text-anchor="middle" x="139.916" y="-46.499" font-family="Arial" font-size="10.00" fill="#ffffff">Pond</text>
<text text-anchor="middle" x="139.916" y="-35" font-family="Arial" font-size="10.00" fill="#ffffff">Context</text>
<text text-anchor="middle" x="139.916" y="-23.501" font-family="Arial" font-size="10.00" fill="#ffffff">Setting</text>
</a>
</g>
</g>
<!-- builtins.object -->
<g id="node2" class="node">
<title>builtins.object</title>
<g id="a_node2"><a xlink:href="https://docs.python.org/3.6/library/functions.html#object" xlink:title="object" target="_top">
<path fill="#b3cde3" stroke="#b3cde3" stroke-width="2" d="M51.8576,-53.0056C51.8576,-53.0056 22.8269,-53.0056 22.8269,-53.0056 19.4918,-53.0056 16.1566,-49.6704 16.1566,-46.3352 16.1566,-46.3352 16.1566,-39.6648 16.1566,-39.6648 16.1566,-36.3296 19.4918,-32.9944 22.8269,-32.9944 22.8269,-32.9944 51.8576,-32.9944 51.8576,-32.9944 55.1928,-32.9944 58.528,-36.3296 58.528,-39.6648 58.528,-39.6648 58.528,-46.3352 58.528,-46.3352 58.528,-49.6704 55.1928,-53.0056 51.8576,-53.0056"/>
<text text-anchor="middle" x="37.3423" y="-40.7495" font-family="Arial" font-size="10.00" fill="#000000">object</text>
</a>
</g>
</g>
</g>
</svg>
