<?xml version="1.0" encoding="UTF-8" standalone="no"?>
<!DOCTYPE svg PUBLIC "-//W3C//DTD SVG 1.1//EN"
 "http://www.w3.org/Graphics/SVG/1.1/DTD/svg11.dtd">
<!-- Generated by graphviz version 2.40.1 (20161225.0304)
 -->
<!-- Title: InheritanceGraph Pages: 1 -->
<svg width="223pt" height="79pt"
 viewBox="0.00 0.00 223.04 79.00" xmlns="http://www.w3.org/2000/svg" xmlns:xlink="http://www.w3.org/1999/xlink">
<g id="graph0" class="graph" transform="scale(1 1) rotate(0) translate(4 75)">
<title>InheritanceGraph</title>
<g id="clust1" class="cluster">
<title>cluster_abjadext.nauert.quantizer</title>
<path fill="transparent" stroke="#bcd2ee" stroke-width="2" stroke-dasharray="5,2" d="M98.6846,-8C98.6846,-8 203.0391,-8 203.0391,-8 209.0391,-8 215.0391,-14 215.0391,-20 215.0391,-20 215.0391,-51 215.0391,-51 215.0391,-57 209.0391,-63 203.0391,-63 203.0391,-63 98.6846,-63 98.6846,-63 92.6846,-63 86.6846,-57 86.6846,-51 86.6846,-51 86.6846,-20 86.6846,-20 86.6846,-14 92.6846,-8 98.6846,-8"/>
<text text-anchor="middle" x="150.8618" y="-51" font-family="Arial" font-size="10.00" fill="#000000">abjadext.nauert.quantizer</text>
</g>
<g id="clust2" class="cluster">
<title>cluster_builtins</title>
<path fill="transparent" stroke="#bcd2ee" stroke-width="2" stroke-dasharray="5,2" d="M20,-8C20,-8 54.6846,-8 54.6846,-8 60.6846,-8 66.6846,-14 66.6846,-20 66.6846,-20 66.6846,-51 66.6846,-51 66.6846,-57 60.6846,-63 54.6846,-63 54.6846,-63 20,-63 20,-63 14,-63 8,-57 8,-51 8,-51 8,-20 8,-20 8,-14 14,-8 20,-8"/>
<text text-anchor="middle" x="37.3423" y="-51" font-family="Arial" font-size="10.00" fill="#000000">builtins</text>
</g>
<!-- builtins.object&#45;&gt;abjadext.nauert.quantizer.Quantizer -->
<g id="edge1" class="edge">
<title>builtins.object&#45;&gt;abjadext.nauert.quantizer.Quantizer</title>
<path fill="none" stroke="#778899" d="M58.6004,-26C73.1095,-26 92.7809,-26 110.1892,-26"/>
<polygon fill="#778899" stroke="#778899" points="110.6696,-29.5001 120.6696,-26 110.6695,-22.5001 110.6696,-29.5001"/>
</g>
<!-- abjadext.nauert.quantizer.Quantizer -->
<g id="node1" class="node">
<title>abjadext.nauert.quantizer.Quantizer</title>
<g id="a_node1"><a xlink:href="../api/abjadext/nauert/quantizer.html#abjadext.nauert.quantizer.Quantizer" xlink:title="Quantizer" target="_top">
<path fill="#000000" stroke="#000000" stroke-width="2" d="M173.547,-36.0056C173.547,-36.0056 127.1766,-36.0056 127.1766,-36.0056 123.8415,-36.0056 120.5063,-32.6704 120.5063,-29.3352 120.5063,-29.3352 120.5063,-22.6648 120.5063,-22.6648 120.5063,-19.3296 123.8415,-15.9944 127.1766,-15.9944 127.1766,-15.9944 173.547,-15.9944 173.547,-15.9944 176.8822,-15.9944 180.2174,-19.3296 180.2174,-22.6648 180.2174,-22.6648 180.2174,-29.3352 180.2174,-29.3352 180.2174,-32.6704 176.8822,-36.0056 173.547,-36.0056"/>
<text text-anchor="middle" x="150.3618" y="-23.7495" font-family="Arial" font-size="10.00" fill="#ffffff">Quantizer</text>
</a>
</g>
</g>
<!-- builtins.object -->
<g id="node2" class="node">
<title>builtins.object</title>
<g id="a_node2"><a xlink:href="https://docs.python.org/3.9/library/functions.html#object" xlink:title="object" target="_top">
<path fill="#b3cde3" stroke="#b3cde3" stroke-width="2" d="M51.8576,-36.0056C51.8576,-36.0056 22.8269,-36.0056 22.8269,-36.0056 19.4918,-36.0056 16.1566,-32.6704 16.1566,-29.3352 16.1566,-29.3352 16.1566,-22.6648 16.1566,-22.6648 16.1566,-19.3296 19.4918,-15.9944 22.8269,-15.9944 22.8269,-15.9944 51.8576,-15.9944 51.8576,-15.9944 55.1928,-15.9944 58.528,-19.3296 58.528,-22.6648 58.528,-22.6648 58.528,-29.3352 58.528,-29.3352 58.528,-32.6704 55.1928,-36.0056 51.8576,-36.0056"/>
<text text-anchor="middle" x="37.3423" y="-23.7495" font-family="Arial" font-size="10.00" fill="#000000">object</text>
</a>
</g>
</g>
</g>
</svg>
