<?xml version="1.0" encoding="UTF-8" standalone="no"?>
<!DOCTYPE svg PUBLIC "-//W3C//DTD SVG 1.1//EN"
 "http://www.w3.org/Graphics/SVG/1.1/DTD/svg11.dtd">
<!-- Generated by graphviz version 2.40.1 (20161225.0304)
 -->
<!-- Title: InheritanceGraph Pages: 1 -->
<svg width="214pt" height="79pt"
 viewBox="0.00 0.00 214.00 79.00" xmlns="http://www.w3.org/2000/svg" xmlns:xlink="http://www.w3.org/1999/xlink">
<g id="graph0" class="graph" transform="scale(1 1) rotate(0) translate(4 75)">
<title>InheritanceGraph</title>
<g id="clust1" class="cluster">
<title>cluster_abjad.utilities</title>
<path fill="transparent" stroke="#bcd2ee" stroke-width="2" stroke-dasharray="5,2" d="M154,-8C154,-8 190,-8 190,-8 196,-8 202,-14 202,-20 202,-20 202,-51 202,-51 202,-57 196,-63 190,-63 190,-63 154,-63 154,-63 148,-63 142,-57 142,-51 142,-51 142,-20 142,-20 142,-14 148,-8 154,-8"/>
<text text-anchor="middle" x="172" y="-51" font-family="Arial" font-size="10.00" fill="#000000">abjad.utilities</text>
</g>
<g id="clust2" class="cluster">
<title>cluster_builtins</title>
<path fill="transparent" stroke="#bcd2ee" stroke-width="2" stroke-dasharray="5,2" d="M20,-8C20,-8 110,-8 110,-8 116,-8 122,-14 122,-20 122,-20 122,-51 122,-51 122,-57 116,-63 110,-63 110,-63 20,-63 20,-63 14,-63 8,-57 8,-51 8,-51 8,-20 8,-20 8,-14 14,-8 20,-8"/>
<text text-anchor="middle" x="65" y="-51" font-family="Arial" font-size="10.00" fill="#000000">builtins</text>
</g>
<!-- builtins.object&#45;&gt;builtins.str -->
<g id="edge1" class="edge">
<title>builtins.object&#45;&gt;builtins.str</title>
<path fill="none" stroke="#778899" d="M53.1632,-26C61.0247,-26 70.2521,-26 78.526,-26"/>
<polygon fill="#778899" stroke="#778899" points="78.6586,-29.5001 88.6585,-26 78.6585,-22.5001 78.6586,-29.5001"/>
</g>
<!-- builtins.str&#45;&gt;abjad.utilities.String.String -->
<g id="edge2" class="edge">
<title>builtins.str&#45;&gt;abjad.utilities.String.String</title>
<path fill="none" stroke="#778899" d="M114.104,-26C122.3346,-26 133.4218,-26 143.6907,-26"/>
<polygon fill="#778899" stroke="#778899" points="143.9418,-29.5001 153.9418,-26 143.9417,-22.5001 143.9418,-29.5001"/>
</g>
<!-- abjad.utilities.String.String -->
<g id="node1" class="node">
<title>abjad.utilities.String.String</title>
<g id="a_node1"><a xlink:href="../api/abjad/utilities/String.html#abjad.utilities.String.String" xlink:title="String" target="_top">
<path fill="#000000" stroke="#000000" stroke-width="2" d="M183.6667,-35.5C183.6667,-35.5 160.3333,-35.5 160.3333,-35.5 157.1667,-35.5 154,-32.3333 154,-29.1667 154,-29.1667 154,-22.8333 154,-22.8333 154,-19.6667 157.1667,-16.5 160.3333,-16.5 160.3333,-16.5 183.6667,-16.5 183.6667,-16.5 186.8333,-16.5 190,-19.6667 190,-22.8333 190,-22.8333 190,-29.1667 190,-29.1667 190,-32.3333 186.8333,-35.5 183.6667,-35.5"/>
<text text-anchor="middle" x="172" y="-23.5" font-family="Arial" font-size="10.00" fill="#ffffff">String</text>
</a>
</g>
</g>
<!-- builtins.object -->
<g id="node2" class="node">
<title>builtins.object</title>
<g id="a_node2"><a xlink:href="https://docs.python.org/3.6/library/functions.html#object" xlink:title="object" target="_top">
<path fill="#b3cde3" stroke="#b3cde3" stroke-width="2" d="M46.6667,-35.5C46.6667,-35.5 22.3333,-35.5 22.3333,-35.5 19.1667,-35.5 16,-32.3333 16,-29.1667 16,-29.1667 16,-22.8333 16,-22.8333 16,-19.6667 19.1667,-16.5 22.3333,-16.5 22.3333,-16.5 46.6667,-16.5 46.6667,-16.5 49.8333,-16.5 53,-19.6667 53,-22.8333 53,-22.8333 53,-29.1667 53,-29.1667 53,-32.3333 49.8333,-35.5 46.6667,-35.5"/>
<text text-anchor="middle" x="34.5" y="-23.5" font-family="Arial" font-size="10.00" fill="#000000">object</text>
</a>
</g>
</g>
<!-- builtins.str -->
<g id="node3" class="node">
<title>builtins.str</title>
<g id="a_node3"><a xlink:href="https://docs.python.org/3.6/library/stdtypes.html#str" xlink:title="str" target="_top">
<path fill="#b3cde3" stroke="#b3cde3" stroke-width="2" d="M107.6667,-35.5C107.6667,-35.5 95.3333,-35.5 95.3333,-35.5 92.1667,-35.5 89,-32.3333 89,-29.1667 89,-29.1667 89,-22.8333 89,-22.8333 89,-19.6667 92.1667,-16.5 95.3333,-16.5 95.3333,-16.5 107.6667,-16.5 107.6667,-16.5 110.8333,-16.5 114,-19.6667 114,-22.8333 114,-22.8333 114,-29.1667 114,-29.1667 114,-32.3333 110.8333,-35.5 107.6667,-35.5"/>
<text text-anchor="middle" x="101.5" y="-23.5" font-family="Arial" font-size="10.00" fill="#000000">str</text>
</a>
</g>
</g>
</g>
</svg>
