<?xml version="1.0" encoding="UTF-8" standalone="no"?>
<!DOCTYPE svg PUBLIC "-//W3C//DTD SVG 1.1//EN"
 "http://www.w3.org/Graphics/SVG/1.1/DTD/svg11.dtd">
<!-- Generated by graphviz version 2.40.1 (20161225.0304)
 -->
<!-- Title: InheritanceGraph Pages: 1 -->
<svg width="738pt" height="310pt"
 viewBox="0.00 0.00 737.53 310.48" xmlns="http://www.w3.org/2000/svg" xmlns:xlink="http://www.w3.org/1999/xlink">
<g id="graph0" class="graph" transform="scale(1 1) rotate(0) translate(4 306.4813)">
<title>InheritanceGraph</title>
<g id="clust1" class="cluster">
<title>cluster_abjad.meter</title>
<path fill="transparent" stroke="#bcd2ee" stroke-width="2" stroke-dasharray="5,2" d="M667.9537,-130.4813C667.9537,-130.4813 712.525,-130.4813 712.525,-130.4813 718.525,-130.4813 724.525,-136.4813 724.525,-142.4813 724.525,-142.4813 724.525,-282.4813 724.525,-282.4813 724.525,-288.4813 718.525,-294.4813 712.525,-294.4813 712.525,-294.4813 667.9537,-294.4813 667.9537,-294.4813 661.9537,-294.4813 655.9537,-288.4813 655.9537,-282.4813 655.9537,-282.4813 655.9537,-142.4813 655.9537,-142.4813 655.9537,-136.4813 661.9537,-130.4813 667.9537,-130.4813"/>
<text text-anchor="middle" x="690.2394" y="-282.4813" font-family="Arial" font-size="10.00" fill="#000000">abjad.meter</text>
</g>
<g id="clust2" class="cluster">
<title>cluster_abjad.typedcollections</title>
<path fill="transparent" stroke="#bcd2ee" stroke-width="2" stroke-dasharray="5,2" d="M479.5958,-191.4813C479.5958,-191.4813 623.9537,-191.4813 623.9537,-191.4813 629.9537,-191.4813 635.9537,-197.4813 635.9537,-203.4813 635.9537,-203.4813 635.9537,-245.4813 635.9537,-245.4813 635.9537,-251.4813 629.9537,-257.4813 623.9537,-257.4813 623.9537,-257.4813 479.5958,-257.4813 479.5958,-257.4813 473.5958,-257.4813 467.5958,-251.4813 467.5958,-245.4813 467.5958,-245.4813 467.5958,-203.4813 467.5958,-203.4813 467.5958,-197.4813 473.5958,-191.4813 479.5958,-191.4813"/>
<text text-anchor="middle" x="551.7748" y="-245.4813" font-family="Arial" font-size="10.00" fill="#000000">abjad.typedcollections</text>
</g>
<g id="clust3" class="cluster">
<title>cluster_builtins</title>
<path fill="transparent" stroke="#bcd2ee" stroke-width="2" stroke-dasharray="5,2" d="M20,-101.4813C20,-101.4813 54.6846,-101.4813 54.6846,-101.4813 60.6846,-101.4813 66.6846,-107.4813 66.6846,-113.4813 66.6846,-113.4813 66.6846,-144.4813 66.6846,-144.4813 66.6846,-150.4813 60.6846,-156.4813 54.6846,-156.4813 54.6846,-156.4813 20,-156.4813 20,-156.4813 14,-156.4813 8,-150.4813 8,-144.4813 8,-144.4813 8,-113.4813 8,-113.4813 8,-107.4813 14,-101.4813 20,-101.4813"/>
<text text-anchor="middle" x="37.3423" y="-144.4813" font-family="Arial" font-size="10.00" fill="#000000">builtins</text>
</g>
<g id="clust4" class="cluster">
<title>cluster_collections.abc</title>
<path fill="transparent" stroke="#bcd2ee" stroke-width="2" stroke-dasharray="5,2" d="M98.6846,-28.4813C98.6846,-28.4813 544.7125,-28.4813 544.7125,-28.4813 550.7125,-28.4813 556.7125,-34.4813 556.7125,-40.4813 556.7125,-40.4813 556.7125,-171.4813 556.7125,-171.4813 556.7125,-177.4813 550.7125,-183.4813 544.7125,-183.4813 544.7125,-183.4813 98.6846,-183.4813 98.6846,-183.4813 92.6846,-183.4813 86.6846,-177.4813 86.6846,-171.4813 86.6846,-171.4813 86.6846,-40.4813 86.6846,-40.4813 86.6846,-34.4813 92.6846,-28.4813 98.6846,-28.4813"/>
<text text-anchor="middle" x="321.6985" y="-171.4813" font-family="Arial" font-size="10.00" fill="#000000">collections.abc</text>
</g>
<!-- abjad.typedcollections.TypedCollection&#45;&gt;abjad.typedcollections.TypedList -->
<g id="edge1" class="edge">
<title>abjad.typedcollections.TypedCollection&#45;&gt;abjad.typedcollections.TypedList</title>
<path fill="none" stroke="#778899" d="M535.5164,-214.4813C547.7229,-214.4813 561.8544,-214.4813 574.268,-214.4813"/>
<polygon fill="#778899" stroke="#778899" points="574.6433,-217.9814 584.6433,-214.4813 574.6432,-210.9814 574.6433,-217.9814"/>
</g>
<!-- abjad.typedcollections.TypedList&#45;&gt;abjad.meter.MeterList -->
<g id="edge9" class="edge">
<title>abjad.typedcollections.TypedList&#45;&gt;abjad.meter.MeterList</title>
<path fill="none" stroke="#778899" d="M628.3785,-214.4813C637.8201,-214.4813 649.0129,-214.4813 659.2649,-214.4813"/>
<polygon fill="#778899" stroke="#778899" points="659.4952,-217.9814 669.4951,-214.4813 659.4951,-210.9814 659.4952,-217.9814"/>
</g>
<!-- builtins.object&#45;&gt;abjad.meter.Meter -->
<g id="edge10" class="edge">
<title>builtins.object&#45;&gt;abjad.meter.Meter</title>
<path fill="none" stroke="#778899" d="M39.631,-129.378C44.6797,-149.025 58.6174,-193.1504 86.6846,-217.4813 147.854,-270.508 178.3958,-275.4813 259.3497,-275.4813 259.3497,-275.4813 259.3497,-275.4813 505.5514,-275.4813 559.9426,-275.4813 622.9211,-267.6522 659.5026,-262.3207"/>
<polygon fill="#778899" stroke="#778899" points="660.1564,-265.762 669.5305,-260.8248 659.1235,-258.8386 660.1564,-265.762"/>
</g>
<!-- builtins.object&#45;&gt;abjad.meter.MetricAccentKernel -->
<g id="edge11" class="edge">
<title>builtins.object&#45;&gt;abjad.meter.MetricAccentKernel</title>
<path fill="none" stroke="#778899" d="M39.222,-109.6221C43.5925,-89.6979 56.4584,-44.8106 86.6846,-24.4813 150.6349,18.5298 182.2809,-8.4813 259.3497,-8.4813 259.3497,-8.4813 259.3497,-8.4813 505.5514,-8.4813 581.3021,-8.4813 643.0846,-85.5578 672.1919,-129.576"/>
<polygon fill="#778899" stroke="#778899" points="669.3731,-131.6628 677.7365,-138.167 675.2545,-127.8669 669.3731,-131.6628"/>
</g>
<!-- builtins.object&#45;&gt;abjad.typedcollections.TypedCollection -->
<g id="edge12" class="edge">
<title>builtins.object&#45;&gt;abjad.typedcollections.TypedCollection</title>
<path fill="none" stroke="#778899" d="M41.2782,-129.5182C47.9728,-145.0654 63.1798,-174.5267 86.6846,-187.4813 210.5189,-255.7326 387.2712,-236.0319 465.5784,-222.4968"/>
<polygon fill="#778899" stroke="#778899" points="466.2892,-225.9253 475.5169,-220.7196 465.0569,-219.0347 466.2892,-225.9253"/>
</g>
<!-- builtins.object&#45;&gt;collections.abc.Container -->
<g id="edge13" class="edge">
<title>builtins.object&#45;&gt;collections.abc.Container</title>
<path fill="none" stroke="#778899" d="M58.8923,-114.4907C68.688,-112.2221 80.6594,-109.4497 92.2457,-106.7665"/>
<polygon fill="#778899" stroke="#778899" points="93.3115,-110.1124 102.264,-104.4465 91.7321,-103.2929 93.3115,-110.1124"/>
</g>
<!-- builtins.object&#45;&gt;collections.abc.Iterable -->
<g id="edge14" class="edge">
<title>builtins.object&#45;&gt;collections.abc.Iterable</title>
<path fill="none" stroke="#778899" d="M58.8923,-124.472C69.8762,-127.0157 83.5958,-130.1929 96.4404,-133.1676"/>
<polygon fill="#778899" stroke="#778899" points="95.9532,-136.6473 106.485,-135.4937 97.5325,-129.8278 95.9532,-136.6473"/>
</g>
<!-- builtins.object&#45;&gt;collections.abc.Sized -->
<g id="edge15" class="edge">
<title>builtins.object&#45;&gt;collections.abc.Sized</title>
<path fill="none" stroke="#778899" d="M46.0416,-109.7048C55.3544,-99.6638 70.9283,-84.0504 86.6846,-73.4813 92.202,-69.7803 98.4108,-66.3924 104.5278,-63.4207"/>
<polygon fill="#778899" stroke="#778899" points="106.3153,-66.4519 113.9523,-59.1084 103.4027,-60.0866 106.3153,-66.4519"/>
</g>
<!-- collections.abc.Collection&#45;&gt;collections.abc.Sequence -->
<g id="edge2" class="edge">
<title>collections.abc.Collection&#45;&gt;collections.abc.Sequence</title>
<path fill="none" stroke="#778899" d="M290.2901,-105.9723C305.9858,-110.7869 325.2596,-116.6992 342.1783,-121.889"/>
<polygon fill="#778899" stroke="#778899" points="341.236,-125.2608 351.8227,-124.8474 343.2889,-118.5686 341.236,-125.2608"/>
</g>
<!-- collections.abc.Container&#45;&gt;collections.abc.Collection -->
<g id="edge3" class="edge">
<title>collections.abc.Container&#45;&gt;collections.abc.Collection</title>
<path fill="none" stroke="#778899" d="M178.8815,-96.4813C187.7454,-96.4813 197.2012,-96.4813 206.4002,-96.4813"/>
<polygon fill="#778899" stroke="#778899" points="206.6319,-99.9814 216.6318,-96.4813 206.6318,-92.9814 206.6319,-99.9814"/>
</g>
<!-- collections.abc.Iterable&#45;&gt;collections.abc.Collection -->
<g id="edge4" class="edge">
<title>collections.abc.Iterable&#45;&gt;collections.abc.Collection</title>
<path fill="none" stroke="#778899" d="M162.0798,-132.9501C179.3728,-126.4665 202.5463,-117.7783 221.9365,-110.5084"/>
<polygon fill="#778899" stroke="#778899" points="223.2591,-113.7505 231.3939,-106.9626 220.8017,-107.196 223.2591,-113.7505"/>
</g>
<!-- collections.abc.Iterable&#45;&gt;collections.abc.Reversible -->
<g id="edge5" class="edge">
<title>collections.abc.Iterable&#45;&gt;collections.abc.Reversible</title>
<path fill="none" stroke="#778899" d="M171.8165,-142.4813C182.0088,-142.4813 193.3885,-142.4813 204.4823,-142.4813"/>
<polygon fill="#778899" stroke="#778899" points="204.548,-145.9814 214.5479,-142.4813 204.5479,-138.9814 204.548,-145.9814"/>
</g>
<!-- collections.abc.MutableSequence&#45;&gt;abjad.typedcollections.TypedList -->
<g id="edge16" class="edge">
<title>collections.abc.MutableSequence&#45;&gt;abjad.typedcollections.TypedList</title>
<path fill="none" stroke="#778899" d="M528.9261,-153.036C543.6449,-164.7197 562.7297,-179.8692 578.2661,-192.2018"/>
<polygon fill="#778899" stroke="#778899" points="576.4736,-195.2477 586.4821,-198.7237 580.8257,-189.765 576.4736,-195.2477"/>
</g>
<!-- collections.abc.Reversible&#45;&gt;collections.abc.Sequence -->
<g id="edge6" class="edge">
<title>collections.abc.Reversible&#45;&gt;collections.abc.Sequence</title>
<path fill="none" stroke="#778899" d="M303.3737,-139.6383C312.1656,-139.0705 321.4844,-138.4687 330.5339,-137.8843"/>
<polygon fill="#778899" stroke="#778899" points="330.8405,-141.3719 340.5941,-137.2346 330.3893,-134.3865 330.8405,-141.3719"/>
</g>
<!-- collections.abc.Sequence&#45;&gt;collections.abc.MutableSequence -->
<g id="edge7" class="edge">
<title>collections.abc.Sequence&#45;&gt;collections.abc.MutableSequence</title>
<path fill="none" stroke="#778899" d="M426.6998,-134.4813C434.9015,-134.4813 443.5677,-134.4813 452.0352,-134.4813"/>
<polygon fill="#778899" stroke="#778899" points="452.2207,-137.9814 462.2207,-134.4813 452.2207,-130.9814 452.2207,-137.9814"/>
</g>
<!-- collections.abc.Sized&#45;&gt;collections.abc.Collection -->
<g id="edge8" class="edge">
<title>collections.abc.Sized&#45;&gt;collections.abc.Collection</title>
<path fill="none" stroke="#778899" d="M159.4478,-59.0258C176.9569,-65.5903 201.5128,-74.7969 221.8972,-82.4395"/>
<polygon fill="#778899" stroke="#778899" points="220.9276,-85.8138 231.5198,-86.0473 223.385,-79.2594 220.9276,-85.8138"/>
</g>
<!-- abjad.meter.Meter -->
<g id="node1" class="node">
<title>abjad.meter.Meter</title>
<g id="a_node1"><a xlink:href="../api/abjad/meter.html#abjad.meter.Meter" xlink:title="Meter" target="_top">
<path fill="#000000" stroke="#000000" stroke-width="2" d="M704.1328,-267.4869C704.1328,-267.4869 676.3459,-267.4869 676.3459,-267.4869 673.0108,-267.4869 669.6756,-264.1517 669.6756,-260.8165 669.6756,-260.8165 669.6756,-254.1461 669.6756,-254.1461 669.6756,-250.8109 673.0108,-247.4757 676.3459,-247.4757 676.3459,-247.4757 704.1328,-247.4757 704.1328,-247.4757 707.468,-247.4757 710.8032,-250.8109 710.8032,-254.1461 710.8032,-254.1461 710.8032,-260.8165 710.8032,-260.8165 710.8032,-264.1517 707.468,-267.4869 704.1328,-267.4869"/>
<text text-anchor="middle" x="690.2394" y="-255.2308" font-family="Arial" font-size="10.00" fill="#ffffff">Meter</text>
</a>
</g>
</g>
<!-- abjad.meter.MeterList -->
<g id="node2" class="node">
<title>abjad.meter.MeterList</title>
<g id="a_node2"><a xlink:href="../api/abjad/meter.html#abjad.meter.MeterList" xlink:title="Meter\nList" target="_top">
<path fill="#000000" stroke="#000000" stroke-width="2" d="M700.4712,-229.9794C700.4712,-229.9794 680.0076,-229.9794 680.0076,-229.9794 674.8416,-229.9794 669.6756,-224.8134 669.6756,-219.6473 669.6756,-219.6473 669.6756,-209.3153 669.6756,-209.3153 669.6756,-204.1493 674.8416,-198.9833 680.0076,-198.9833 680.0076,-198.9833 700.4712,-198.9833 700.4712,-198.9833 705.6372,-198.9833 710.8032,-204.1493 710.8032,-209.3153 710.8032,-209.3153 710.8032,-219.6473 710.8032,-219.6473 710.8032,-224.8134 705.6372,-229.9794 700.4712,-229.9794"/>
<text text-anchor="middle" x="690.2394" y="-217.9803" font-family="Arial" font-size="10.00" fill="#ffffff">Meter</text>
<text text-anchor="middle" x="690.2394" y="-206.4813" font-family="Arial" font-size="10.00" fill="#ffffff">List</text>
</a>
</g>
</g>
<!-- abjad.meter.MetricAccentKernel -->
<g id="node3" class="node">
<title>abjad.meter.MetricAccentKernel</title>
<g id="a_node3"><a xlink:href="../api/abjad/meter.html#abjad.meter.MetricAccentKernel" xlink:title="Metric\nAccent\nKernel" target="_top">
<path fill="#000000" stroke="#000000" stroke-width="2" d="M701.3126,-180.9813C701.3126,-180.9813 679.1661,-180.9813 679.1661,-180.9813 673.1661,-180.9813 667.1661,-174.9813 667.1661,-168.9813 667.1661,-168.9813 667.1661,-149.9813 667.1661,-149.9813 667.1661,-143.9813 673.1661,-137.9813 679.1661,-137.9813 679.1661,-137.9813 701.3126,-137.9813 701.3126,-137.9813 707.3126,-137.9813 713.3126,-143.9813 713.3126,-149.9813 713.3126,-149.9813 713.3126,-168.9813 713.3126,-168.9813 713.3126,-174.9813 707.3126,-180.9813 701.3126,-180.9813"/>
<text text-anchor="middle" x="690.2394" y="-168.7299" font-family="Arial" font-size="10.00" fill="#ffffff">Metric</text>
<text text-anchor="middle" x="690.2394" y="-157.2308" font-family="Arial" font-size="10.00" fill="#ffffff">Accent</text>
<text text-anchor="middle" x="690.2394" y="-145.7318" font-family="Arial" font-size="10.00" fill="#ffffff">Kernel</text>
</a>
</g>
</g>
<!-- abjad.typedcollections.TypedCollection -->
<g id="node4" class="node">
<title>abjad.typedcollections.TypedCollection</title>
<g id="a_node4"><a xlink:href="../api/abjad/typedcollections.html#abjad.typedcollections.TypedCollection" xlink:title="Typed\nCollection" target="_top">
<path fill="#b3cde3" stroke="#b3cde3" stroke-width="2" d="M525.1306,-229.9794C525.1306,-229.9794 485.9722,-229.9794 485.9722,-229.9794 480.8062,-229.9794 475.6402,-224.8134 475.6402,-219.6473 475.6402,-219.6473 475.6402,-209.3153 475.6402,-209.3153 475.6402,-204.1493 480.8062,-198.9833 485.9722,-198.9833 485.9722,-198.9833 525.1306,-198.9833 525.1306,-198.9833 530.2966,-198.9833 535.4626,-204.1493 535.4626,-209.3153 535.4626,-209.3153 535.4626,-219.6473 535.4626,-219.6473 535.4626,-224.8134 530.2966,-229.9794 525.1306,-229.9794"/>
<text text-anchor="middle" x="505.5514" y="-217.9803" font-family="Arial" font-size="10.00" fill="#000000">Typed</text>
<text text-anchor="middle" x="505.5514" y="-206.4813" font-family="Arial" font-size="10.00" fill="#000000">Collection</text>
</a>
</g>
</g>
<!-- abjad.typedcollections.TypedList -->
<g id="node5" class="node">
<title>abjad.typedcollections.TypedList</title>
<g id="a_node5"><a xlink:href="../api/abjad/typedcollections.html#abjad.typedcollections.TypedList" xlink:title="Typed\nList" target="_top">
<path fill="#b3cde3" stroke="#b3cde3" stroke-width="2" d="M617.743,-229.9794C617.743,-229.9794 594.9233,-229.9794 594.9233,-229.9794 589.7573,-229.9794 584.5912,-224.8134 584.5912,-219.6473 584.5912,-219.6473 584.5912,-209.3153 584.5912,-209.3153 584.5912,-204.1493 589.7573,-198.9833 594.9233,-198.9833 594.9233,-198.9833 617.743,-198.9833 617.743,-198.9833 622.909,-198.9833 628.075,-204.1493 628.075,-209.3153 628.075,-209.3153 628.075,-219.6473 628.075,-219.6473 628.075,-224.8134 622.909,-229.9794 617.743,-229.9794"/>
<text text-anchor="middle" x="606.3331" y="-217.9803" font-family="Arial" font-size="10.00" fill="#000000">Typed</text>
<text text-anchor="middle" x="606.3331" y="-206.4813" font-family="Arial" font-size="10.00" fill="#000000">List</text>
</a>
</g>
</g>
<!-- builtins.object -->
<g id="node6" class="node">
<title>builtins.object</title>
<g id="a_node6"><a xlink:href="https://docs.python.org/3.9/library/functions.html#object" xlink:title="object" target="_top">
<path fill="#ccebc5" stroke="#ccebc5" stroke-width="2" d="M51.8576,-129.4869C51.8576,-129.4869 22.8269,-129.4869 22.8269,-129.4869 19.4918,-129.4869 16.1566,-126.1517 16.1566,-122.8165 16.1566,-122.8165 16.1566,-116.1461 16.1566,-116.1461 16.1566,-112.8109 19.4918,-109.4757 22.8269,-109.4757 22.8269,-109.4757 51.8576,-109.4757 51.8576,-109.4757 55.1928,-109.4757 58.528,-112.8109 58.528,-116.1461 58.528,-116.1461 58.528,-122.8165 58.528,-122.8165 58.528,-126.1517 55.1928,-129.4869 51.8576,-129.4869"/>
<text text-anchor="middle" x="37.3423" y="-117.2308" font-family="Arial" font-size="10.00" fill="#000000">object</text>
</a>
</g>
</g>
<!-- collections.abc.Collection -->
<g id="node7" class="node">
<title>collections.abc.Collection</title>
<g id="a_node7"><a xlink:href="https://docs.python.org/3.9/library/collections.abc.html#collections.abc.Collection" xlink:title="Collection" target="_top">
<ellipse fill="none" stroke="#decbe4" stroke-width="2" cx="259.3497" cy="-96.4813" rx="42.2276" ry="13.579"/>
<text text-anchor="middle" x="259.3497" y="-94.2308" font-family="Arial" font-size="10.00" fill="#000000">Collection</text>
</a>
</g>
</g>
<!-- collections.abc.Container -->
<g id="node8" class="node">
<title>collections.abc.Container</title>
<g id="a_node8"><a xlink:href="https://docs.python.org/3.9/library/collections.abc.html#collections.abc.Container" xlink:title="Container" target="_top">
<ellipse fill="none" stroke="#decbe4" stroke-width="2" cx="136.658" cy="-96.4813" rx="41.9469" ry="13.579"/>
<text text-anchor="middle" x="136.658" y="-94.2308" font-family="Arial" font-size="10.00" fill="#000000">Container</text>
</a>
</g>
</g>
<!-- collections.abc.Iterable -->
<g id="node9" class="node">
<title>collections.abc.Iterable</title>
<g id="a_node9"><a xlink:href="https://docs.python.org/3.9/library/collections.abc.html#collections.abc.Iterable" xlink:title="Iterable" target="_top">
<ellipse fill="none" stroke="#decbe4" stroke-width="2" cx="136.658" cy="-142.4813" rx="34.7981" ry="13.579"/>
<text text-anchor="middle" x="136.658" y="-140.2308" font-family="Arial" font-size="10.00" fill="#000000">Iterable</text>
</a>
</g>
</g>
<!-- collections.abc.MutableSequence -->
<g id="node10" class="node">
<title>collections.abc.MutableSequence</title>
<g id="a_node10"><a xlink:href="https://docs.python.org/3.9/library/collections.abc.html#collections.abc.MutableSequence" xlink:title="Mutable\nSequence" target="_top">
<ellipse fill="none" stroke="#decbe4" stroke-width="2" cx="505.5514" cy="-134.4813" rx="43.3229" ry="21.8382"/>
<text text-anchor="middle" x="505.5514" y="-137.9803" font-family="Arial" font-size="10.00" fill="#000000">Mutable</text>
<text text-anchor="middle" x="505.5514" y="-126.4813" font-family="Arial" font-size="10.00" fill="#000000">Sequence</text>
</a>
</g>
</g>
<!-- collections.abc.Reversible -->
<g id="node11" class="node">
<title>collections.abc.Reversible</title>
<g id="a_node11"><a xlink:href="https://docs.python.org/3.9/library/collections.abc.html#collections.abc.Reversible" xlink:title="Reversible" target="_top">
<ellipse fill="none" stroke="#decbe4" stroke-width="2" cx="259.3497" cy="-142.4813" rx="44.9376" ry="13.579"/>
<text text-anchor="middle" x="259.3497" y="-140.2308" font-family="Arial" font-size="10.00" fill="#000000">Reversible</text>
</a>
</g>
</g>
<!-- collections.abc.Sequence -->
<g id="node12" class="node">
<title>collections.abc.Sequence</title>
<g id="a_node12"><a xlink:href="https://docs.python.org/3.9/library/collections.abc.html#collections.abc.Sequence" xlink:title="Sequence" target="_top">
<ellipse fill="none" stroke="#decbe4" stroke-width="2" cx="383.2291" cy="-134.4813" rx="43.3229" ry="13.579"/>
<text text-anchor="middle" x="383.2291" y="-132.2308" font-family="Arial" font-size="10.00" fill="#000000">Sequence</text>
</a>
</g>
</g>
<!-- collections.abc.Sized -->
<g id="node13" class="node">
<title>collections.abc.Sized</title>
<g id="a_node13"><a xlink:href="https://docs.python.org/3.9/library/collections.abc.html#collections.abc.Sized" xlink:title="Sized" target="_top">
<ellipse fill="none" stroke="#decbe4" stroke-width="2" cx="136.658" cy="-50.4813" rx="29.0035" ry="13.579"/>
<text text-anchor="middle" x="136.658" y="-48.2308" font-family="Arial" font-size="10.00" fill="#000000">Sized</text>
</a>
</g>
</g>
</g>
</svg>
