<?xml version="1.0" encoding="UTF-8" standalone="no"?>
<!DOCTYPE svg PUBLIC "-//W3C//DTD SVG 1.1//EN"
 "http://www.w3.org/Graphics/SVG/1.1/DTD/svg11.dtd">
<!-- Generated by graphviz version 2.40.1 (20161225.0304)
 -->
<!-- Title: InheritanceGraph Pages: 1 -->
<svg width="181pt" height="102pt"
 viewBox="0.00 0.00 181.15 102.00" xmlns="http://www.w3.org/2000/svg" xmlns:xlink="http://www.w3.org/1999/xlink">
<g id="graph0" class="graph" transform="scale(1 1) rotate(0) translate(4 98)">
<title>InheritanceGraph</title>
<g id="clust1" class="cluster">
<title>cluster_abjad.indicators</title>
<path fill="transparent" stroke="#bcd2ee" stroke-width="2" stroke-dasharray="5,2" d="M98.6846,-8C98.6846,-8 160.1523,-8 160.1523,-8 166.1523,-8 172.1523,-14 172.1523,-20 172.1523,-20 172.1523,-74 172.1523,-74 172.1523,-80 166.1523,-86 160.1523,-86 160.1523,-86 98.6846,-86 98.6846,-86 92.6846,-86 86.6846,-80 86.6846,-74 86.6846,-74 86.6846,-20 86.6846,-20 86.6846,-14 92.6846,-8 98.6846,-8"/>
<text text-anchor="middle" x="129.4185" y="-74" font-family="Arial" font-size="10.00" fill="#000000">abjad.indicators</text>
</g>
<g id="clust2" class="cluster">
<title>cluster_builtins</title>
<path fill="transparent" stroke="#bcd2ee" stroke-width="2" stroke-dasharray="5,2" d="M20,-19C20,-19 54.6846,-19 54.6846,-19 60.6846,-19 66.6846,-25 66.6846,-31 66.6846,-31 66.6846,-62 66.6846,-62 66.6846,-68 60.6846,-74 54.6846,-74 54.6846,-74 20,-74 20,-74 14,-74 8,-68 8,-62 8,-62 8,-31 8,-31 8,-25 14,-19 20,-19"/>
<text text-anchor="middle" x="37.3423" y="-62" font-family="Arial" font-size="10.00" fill="#000000">builtins</text>
</g>
<!-- builtins.object&#45;&gt;abjad.indicators.StartPhrasingSlur.StartPhrasingSlur -->
<g id="edge1" class="edge">
<title>builtins.object&#45;&gt;abjad.indicators.StartPhrasingSlur.StartPhrasingSlur</title>
<path fill="none" stroke="#778899" d="M58.6978,-37C68.4596,-37 80.3235,-37 91.5232,-37"/>
<polygon fill="#778899" stroke="#778899" points="91.5427,-40.5001 101.5427,-37 91.5427,-33.5001 91.5427,-40.5001"/>
</g>
<!-- abjad.indicators.StartPhrasingSlur.StartPhrasingSlur -->
<g id="node1" class="node">
<title>abjad.indicators.StartPhrasingSlur.StartPhrasingSlur</title>
<g id="a_node1"><a xlink:href="../api/abjad/indicators/StartPhrasingSlur.html#abjad.indicators.StartPhrasingSlur.StartPhrasingSlur" xlink:title="Start\nPhrasing\nSlur" target="_top">
<path fill="#000000" stroke="#000000" stroke-width="2" d="M145.3882,-58.5C145.3882,-58.5 113.4487,-58.5 113.4487,-58.5 107.4487,-58.5 101.4487,-52.5 101.4487,-46.5 101.4487,-46.5 101.4487,-27.5 101.4487,-27.5 101.4487,-21.5 107.4487,-15.5 113.4487,-15.5 113.4487,-15.5 145.3882,-15.5 145.3882,-15.5 151.3882,-15.5 157.3882,-21.5 157.3882,-27.5 157.3882,-27.5 157.3882,-46.5 157.3882,-46.5 157.3882,-52.5 151.3882,-58.5 145.3882,-58.5"/>
<text text-anchor="middle" x="129.4185" y="-46.2485" font-family="Arial" font-size="10.00" fill="#ffffff">Start</text>
<text text-anchor="middle" x="129.4185" y="-34.7495" font-family="Arial" font-size="10.00" fill="#ffffff">Phrasing</text>
<text text-anchor="middle" x="129.4185" y="-23.2505" font-family="Arial" font-size="10.00" fill="#ffffff">Slur</text>
</a>
</g>
</g>
<!-- builtins.object -->
<g id="node2" class="node">
<title>builtins.object</title>
<g id="a_node2"><a xlink:href="https://docs.python.org/3.6/library/functions.html#object" xlink:title="object" target="_top">
<path fill="#b3cde3" stroke="#b3cde3" stroke-width="2" d="M51.8576,-47.0056C51.8576,-47.0056 22.8269,-47.0056 22.8269,-47.0056 19.4918,-47.0056 16.1566,-43.6704 16.1566,-40.3352 16.1566,-40.3352 16.1566,-33.6648 16.1566,-33.6648 16.1566,-30.3296 19.4918,-26.9944 22.8269,-26.9944 22.8269,-26.9944 51.8576,-26.9944 51.8576,-26.9944 55.1928,-26.9944 58.528,-30.3296 58.528,-33.6648 58.528,-33.6648 58.528,-40.3352 58.528,-40.3352 58.528,-43.6704 55.1928,-47.0056 51.8576,-47.0056"/>
<text text-anchor="middle" x="37.3423" y="-34.7495" font-family="Arial" font-size="10.00" fill="#000000">object</text>
</a>
</g>
</g>
</g>
</svg>
