<?xml version="1.0" encoding="UTF-8" standalone="no"?>
<!DOCTYPE svg PUBLIC "-//W3C//DTD SVG 1.1//EN"
 "http://www.w3.org/Graphics/SVG/1.1/DTD/svg11.dtd">
<!-- Generated by graphviz version 2.40.1 (20161225.0304)
 -->
<!-- Title: InheritanceGraph Pages: 1 -->
<svg width="181pt" height="79pt"
 viewBox="0.00 0.00 180.81 79.00" xmlns="http://www.w3.org/2000/svg" xmlns:xlink="http://www.w3.org/1999/xlink">
<g id="graph0" class="graph" transform="scale(1 1) rotate(0) translate(4 75)">
<title>InheritanceGraph</title>
<g id="clust1" class="cluster">
<title>cluster_abjad.segments</title>
<path fill="transparent" stroke="#bcd2ee" stroke-width="2" stroke-dasharray="5,2" d="M98.6846,-8C98.6846,-8 160.8076,-8 160.8076,-8 166.8076,-8 172.8076,-14 172.8076,-20 172.8076,-20 172.8076,-51 172.8076,-51 172.8076,-57 166.8076,-63 160.8076,-63 160.8076,-63 98.6846,-63 98.6846,-63 92.6846,-63 86.6846,-57 86.6846,-51 86.6846,-51 86.6846,-20 86.6846,-20 86.6846,-14 92.6846,-8 98.6846,-8"/>
<text text-anchor="middle" x="129.7461" y="-51" font-family="Arial" font-size="10.00" fill="#000000">abjad.segments</text>
</g>
<g id="clust2" class="cluster">
<title>cluster_builtins</title>
<path fill="transparent" stroke="#bcd2ee" stroke-width="2" stroke-dasharray="5,2" d="M20,-8C20,-8 54.6846,-8 54.6846,-8 60.6846,-8 66.6846,-14 66.6846,-20 66.6846,-20 66.6846,-51 66.6846,-51 66.6846,-57 60.6846,-63 54.6846,-63 54.6846,-63 20,-63 20,-63 14,-63 8,-57 8,-51 8,-51 8,-20 8,-20 8,-14 14,-8 20,-8"/>
<text text-anchor="middle" x="37.3423" y="-51" font-family="Arial" font-size="10.00" fill="#000000">builtins</text>
</g>
<!-- builtins.object&#45;&gt;abjad.segments.Job.Job -->
<g id="edge1" class="edge">
<title>builtins.object&#45;&gt;abjad.segments.Job.Job</title>
<path fill="none" stroke="#778899" d="M58.7738,-26C72.1141,-26 89.3661,-26 103.5203,-26"/>
<polygon fill="#778899" stroke="#778899" points="103.6242,-29.5001 113.6242,-26 103.6241,-22.5001 103.6242,-29.5001"/>
</g>
<!-- abjad.segments.Job.Job -->
<g id="node1" class="node">
<title>abjad.segments.Job.Job</title>
<g id="a_node1"><a xlink:href="../api/abjad/segments/Job.html#abjad.segments.Job.Job" xlink:title="Job" target="_top">
<path fill="#000000" stroke="#000000" stroke-width="2" d="M139.199,-36.0056C139.199,-36.0056 120.2932,-36.0056 120.2932,-36.0056 116.958,-36.0056 113.6228,-32.6704 113.6228,-29.3352 113.6228,-29.3352 113.6228,-22.6648 113.6228,-22.6648 113.6228,-19.3296 116.958,-15.9944 120.2932,-15.9944 120.2932,-15.9944 139.199,-15.9944 139.199,-15.9944 142.5342,-15.9944 145.8694,-19.3296 145.8694,-22.6648 145.8694,-22.6648 145.8694,-29.3352 145.8694,-29.3352 145.8694,-32.6704 142.5342,-36.0056 139.199,-36.0056"/>
<text text-anchor="middle" x="129.7461" y="-23.7495" font-family="Arial" font-size="10.00" fill="#ffffff">Job</text>
</a>
</g>
</g>
<!-- builtins.object -->
<g id="node2" class="node">
<title>builtins.object</title>
<g id="a_node2"><a xlink:href="https://docs.python.org/3.6/library/functions.html#object" xlink:title="object" target="_top">
<path fill="#b3cde3" stroke="#b3cde3" stroke-width="2" d="M51.8576,-36.0056C51.8576,-36.0056 22.8269,-36.0056 22.8269,-36.0056 19.4918,-36.0056 16.1566,-32.6704 16.1566,-29.3352 16.1566,-29.3352 16.1566,-22.6648 16.1566,-22.6648 16.1566,-19.3296 19.4918,-15.9944 22.8269,-15.9944 22.8269,-15.9944 51.8576,-15.9944 51.8576,-15.9944 55.1928,-15.9944 58.528,-19.3296 58.528,-22.6648 58.528,-22.6648 58.528,-29.3352 58.528,-29.3352 58.528,-32.6704 55.1928,-36.0056 51.8576,-36.0056"/>
<text text-anchor="middle" x="37.3423" y="-23.7495" font-family="Arial" font-size="10.00" fill="#000000">object</text>
</a>
</g>
</g>
</g>
</svg>
