<?xml version="1.0" encoding="UTF-8" standalone="no"?>
<!DOCTYPE svg PUBLIC "-//W3C//DTD SVG 1.1//EN"
 "http://www.w3.org/Graphics/SVG/1.1/DTD/svg11.dtd">
<!-- Generated by graphviz version 2.40.1 (20161225.0304)
 -->
<!-- Title: InheritanceGraph Pages: 1 -->
<svg width="231pt" height="89pt"
 viewBox="0.00 0.00 231.00 89.00" xmlns="http://www.w3.org/2000/svg" xmlns:xlink="http://www.w3.org/1999/xlink">
<g id="graph0" class="graph" transform="scale(1 1) rotate(0) translate(4 85)">
<title>InheritanceGraph</title>
<g id="clust1" class="cluster">
<title>cluster_abjad.system</title>
<path fill="transparent" stroke="#bcd2ee" stroke-width="2" stroke-dasharray="5,2" d="M93,-8C93,-8 203,-8 203,-8 209,-8 215,-14 215,-20 215,-20 215,-61 215,-61 215,-67 209,-73 203,-73 203,-73 93,-73 93,-73 87,-73 81,-67 81,-61 81,-61 81,-20 81,-20 81,-14 87,-8 93,-8"/>
<text text-anchor="middle" x="148" y="-61" font-family="Arial" font-size="10.00" fill="#000000">abjad.system</text>
</g>
<g id="clust2" class="cluster">
<title>cluster_builtins</title>
<path fill="transparent" stroke="#bcd2ee" stroke-width="2" stroke-dasharray="5,2" d="M20,-13C20,-13 49,-13 49,-13 55,-13 61,-19 61,-25 61,-25 61,-56 61,-56 61,-62 55,-68 49,-68 49,-68 20,-68 20,-68 14,-68 8,-62 8,-56 8,-56 8,-25 8,-25 8,-19 14,-13 20,-13"/>
<text text-anchor="middle" x="34.5" y="-56" font-family="Arial" font-size="10.00" fill="#000000">builtins</text>
</g>
<!-- abjad.system.ContextManager.ContextManager&#45;&gt;abjad.system.Timer.Timer -->
<g id="edge1" class="edge">
<title>abjad.system.ContextManager.ContextManager&#45;&gt;abjad.system.Timer.Timer</title>
<path fill="none" stroke="#778899" d="M135.1025,-31C143.0763,-31 152.105,-31 160.4614,-31"/>
<polygon fill="#778899" stroke="#778899" points="160.5566,-34.5001 170.5566,-31 160.5565,-27.5001 160.5566,-34.5001"/>
</g>
<!-- builtins.object&#45;&gt;abjad.system.ContextManager.ContextManager -->
<g id="edge2" class="edge">
<title>builtins.object&#45;&gt;abjad.system.ContextManager.ContextManager</title>
<path fill="none" stroke="#778899" d="M53.2606,-31C60.9882,-31 70.1763,-31 78.9636,-31"/>
<polygon fill="#778899" stroke="#778899" points="78.9835,-34.5001 88.9835,-31 78.9834,-27.5001 78.9835,-34.5001"/>
</g>
<!-- abjad.system.ContextManager.ContextManager -->
<g id="node1" class="node">
<title>abjad.system.ContextManager.ContextManager</title>
<g id="a_node1"><a xlink:href="../api/abjad/system/ContextManager.html#abjad.system.ContextManager.ContextManager" xlink:title="Context\nManager" target="_top">
<path fill="#fbb4ae" stroke="#fbb4ae" stroke-width="2" d="M125,-46C125,-46 99,-46 99,-46 94,-46 89,-41 89,-36 89,-36 89,-26 89,-26 89,-21 94,-16 99,-16 99,-16 125,-16 125,-16 130,-16 135,-21 135,-26 135,-26 135,-36 135,-36 135,-41 130,-46 125,-46"/>
<text text-anchor="middle" x="112" y="-34" font-family="Arial" font-size="10.00" fill="#000000">Context</text>
<text text-anchor="middle" x="112" y="-23" font-family="Arial" font-size="10.00" fill="#000000">Manager</text>
</a>
</g>
</g>
<!-- abjad.system.Timer.Timer -->
<g id="node2" class="node">
<title>abjad.system.Timer.Timer</title>
<g id="a_node2"><a xlink:href="../api/abjad/system/Timer.html#abjad.system.Timer.Timer" xlink:title="Timer" target="_top">
<path fill="#000000" stroke="#000000" stroke-width="2" d="M200.6667,-40.5C200.6667,-40.5 177.3333,-40.5 177.3333,-40.5 174.1667,-40.5 171,-37.3333 171,-34.1667 171,-34.1667 171,-27.8333 171,-27.8333 171,-24.6667 174.1667,-21.5 177.3333,-21.5 177.3333,-21.5 200.6667,-21.5 200.6667,-21.5 203.8333,-21.5 207,-24.6667 207,-27.8333 207,-27.8333 207,-34.1667 207,-34.1667 207,-37.3333 203.8333,-40.5 200.6667,-40.5"/>
<text text-anchor="middle" x="189" y="-28.5" font-family="Arial" font-size="10.00" fill="#ffffff">Timer</text>
</a>
</g>
</g>
<!-- builtins.object -->
<g id="node3" class="node">
<title>builtins.object</title>
<g id="a_node3"><a xlink:href="https://docs.python.org/3.6/library/functions.html#object" xlink:title="object" target="_top">
<path fill="#b3cde3" stroke="#b3cde3" stroke-width="2" d="M46.6667,-40.5C46.6667,-40.5 22.3333,-40.5 22.3333,-40.5 19.1667,-40.5 16,-37.3333 16,-34.1667 16,-34.1667 16,-27.8333 16,-27.8333 16,-24.6667 19.1667,-21.5 22.3333,-21.5 22.3333,-21.5 46.6667,-21.5 46.6667,-21.5 49.8333,-21.5 53,-24.6667 53,-27.8333 53,-27.8333 53,-34.1667 53,-34.1667 53,-37.3333 49.8333,-40.5 46.6667,-40.5"/>
<text text-anchor="middle" x="34.5" y="-28.5" font-family="Arial" font-size="10.00" fill="#000000">object</text>
</a>
</g>
</g>
</g>
</svg>
