<?xml version="1.0" encoding="UTF-8" standalone="no"?>
<!DOCTYPE svg PUBLIC "-//W3C//DTD SVG 1.1//EN"
 "http://www.w3.org/Graphics/SVG/1.1/DTD/svg11.dtd">
<!-- Generated by graphviz version 2.49.2 (20211016.1639)
 -->
<!-- Title: InheritanceGraph Pages: 1 -->
<svg width="372pt" height="127pt"
 viewBox="0.00 0.00 372.00 127.00" xmlns="http://www.w3.org/2000/svg" xmlns:xlink="http://www.w3.org/1999/xlink">
<g id="graph0" class="graph" transform="scale(1 1) rotate(0) translate(4 123)">
<title>InheritanceGraph</title>
<g id="clust1" class="cluster">
<title>cluster_abjad.duration</title>
<path fill="transparent" stroke="#bcd2ee" stroke-width="2" stroke-dasharray="5,2" d="M188,-8C188,-8 344,-8 344,-8 350,-8 356,-14 356,-20 356,-20 356,-99 356,-99 356,-105 350,-111 344,-111 344,-111 188,-111 188,-111 182,-111 176,-105 176,-99 176,-99 176,-20 176,-20 176,-14 182,-8 188,-8"/>
<text text-anchor="middle" x="266" y="-99" font-family="Arial" font-size="10.00">abjad.duration</text>
</g>
<g id="clust2" class="cluster">
<title>cluster_builtins</title>
<path fill="transparent" stroke="#bcd2ee" stroke-width="2" stroke-dasharray="5,2" d="M20,-34C20,-34 55,-34 55,-34 61,-34 67,-40 67,-46 67,-46 67,-77 67,-77 67,-83 61,-89 55,-89 55,-89 20,-89 20,-89 14,-89 8,-83 8,-77 8,-77 8,-46 8,-46 8,-40 14,-34 20,-34"/>
<text text-anchor="middle" x="37.5" y="-77" font-family="Arial" font-size="10.00">builtins</text>
</g>
<g id="clust3" class="cluster">
<title>cluster_quicktions</title>
<path fill="transparent" stroke="#bcd2ee" stroke-width="2" stroke-dasharray="5,2" d="M99,-34C99,-34 144,-34 144,-34 150,-34 156,-40 156,-46 156,-46 156,-77 156,-77 156,-83 150,-89 144,-89 144,-89 99,-89 99,-89 93,-89 87,-83 87,-77 87,-77 87,-46 87,-46 87,-40 93,-34 99,-34"/>
<text text-anchor="middle" x="121.5" y="-77" font-family="Arial" font-size="10.00">quicktions</text>
</g>
<!-- abjad.duration.Duration&#45;&gt;abjad.duration.Multiplier -->
<g id="edge1" class="edge">
<title>abjad.duration.Duration&#45;&gt;abjad.duration.Multiplier</title>
<path fill="none" stroke="lightslategrey" d="M245.74,-64.47C257.19,-60.15 270.94,-54.96 283.38,-50.26"/>
<polygon fill="lightslategrey" stroke="lightslategrey" points="284.89,-53.43 293.01,-46.62 282.42,-46.88 284.89,-53.43"/>
</g>
<!-- abjad.duration.Duration&#45;&gt;abjad.duration.Offset -->
<g id="edge2" class="edge">
<title>abjad.duration.Duration&#45;&gt;abjad.duration.Offset</title>
<path fill="none" stroke="lightslategrey" d="M246.5,-74C259.21,-74 274.59,-74 287.86,-74"/>
<polygon fill="lightslategrey" stroke="lightslategrey" points="287.97,-77.5 297.97,-74 287.97,-70.5 287.97,-77.5"/>
</g>
<!-- builtins.object&#45;&gt;quicktions.Fraction -->
<g id="edge3" class="edge">
<title>builtins.object&#45;&gt;quicktions.Fraction</title>
<path fill="none" stroke="lightslategrey" d="M59.19,-52C66.97,-52 76.05,-52 84.8,-52"/>
<polygon fill="lightslategrey" stroke="lightslategrey" points="84.82,-55.5 94.82,-52 84.82,-48.5 84.82,-55.5"/>
</g>
<!-- quicktions.Fraction&#45;&gt;abjad.duration.Duration -->
<g id="edge4" class="edge">
<title>quicktions.Fraction&#45;&gt;abjad.duration.Duration</title>
<path fill="none" stroke="lightslategrey" d="M148.23,-57.9C158.69,-60.29 170.96,-63.11 182.3,-65.7"/>
<polygon fill="lightslategrey" stroke="lightslategrey" points="181.84,-69.19 192.37,-68.01 183.4,-62.37 181.84,-69.19"/>
</g>
<!-- quicktions.Fraction&#45;&gt;abjad.duration.NonreducedFraction -->
<g id="edge5" class="edge">
<title>quicktions.Fraction&#45;&gt;abjad.duration.NonreducedFraction</title>
<path fill="none" stroke="lightslategrey" d="M148.23,-46.37C156.14,-44.64 165.08,-42.69 173.88,-40.76"/>
<polygon fill="lightslategrey" stroke="lightslategrey" points="174.66,-44.17 183.68,-38.62 173.16,-37.34 174.66,-44.17"/>
</g>
<!-- abjad.duration.Duration -->
<g id="node1" class="node">
<title>abjad.duration.Duration</title>
<g id="a_node1"><a xlink:href="../api/abjad/duration.html#abjad.duration.Duration" xlink:title="Duration" target="_top">
<path fill="black" stroke="black" stroke-width="2" d="M240.17,-83.5C240.17,-83.5 198.83,-83.5 198.83,-83.5 195.67,-83.5 192.5,-80.33 192.5,-77.17 192.5,-77.17 192.5,-70.83 192.5,-70.83 192.5,-67.67 195.67,-64.5 198.83,-64.5 198.83,-64.5 240.17,-64.5 240.17,-64.5 243.33,-64.5 246.5,-67.67 246.5,-70.83 246.5,-70.83 246.5,-77.17 246.5,-77.17 246.5,-80.33 243.33,-83.5 240.17,-83.5"/>
<text text-anchor="middle" x="219.5" y="-71.5" font-family="Arial" font-size="10.00" fill="white">Duration</text>
</a>
</g>
</g>
<!-- abjad.duration.Multiplier -->
<g id="node2" class="node">
<title>abjad.duration.Multiplier</title>
<g id="a_node2"><a xlink:href="../api/abjad/duration.html#abjad.duration.Multiplier" xlink:title="Multiplier" target="_top">
<path fill="black" stroke="black" stroke-width="2" d="M341.67,-46.5C341.67,-46.5 297.33,-46.5 297.33,-46.5 294.17,-46.5 291,-43.33 291,-40.17 291,-40.17 291,-33.83 291,-33.83 291,-30.67 294.17,-27.5 297.33,-27.5 297.33,-27.5 341.67,-27.5 341.67,-27.5 344.83,-27.5 348,-30.67 348,-33.83 348,-33.83 348,-40.17 348,-40.17 348,-43.33 344.83,-46.5 341.67,-46.5"/>
<text text-anchor="middle" x="319.5" y="-34.5" font-family="Arial" font-size="10.00" fill="white">Multiplier</text>
</a>
</g>
</g>
<!-- abjad.duration.NonreducedFraction -->
<g id="node3" class="node">
<title>abjad.duration.NonreducedFraction</title>
<g id="a_node3"><a xlink:href="../api/abjad/duration.html#abjad.duration.NonreducedFraction" xlink:title="Nonreduced\nFraction" target="_top">
<path fill="black" stroke="black" stroke-width="2" d="M245,-46C245,-46 194,-46 194,-46 189,-46 184,-41 184,-36 184,-36 184,-26 184,-26 184,-21 189,-16 194,-16 194,-16 245,-16 245,-16 250,-16 255,-21 255,-26 255,-26 255,-36 255,-36 255,-41 250,-46 245,-46"/>
<text text-anchor="middle" x="219.5" y="-34" font-family="Arial" font-size="10.00" fill="white">Nonreduced</text>
<text text-anchor="middle" x="219.5" y="-23" font-family="Arial" font-size="10.00" fill="white">Fraction</text>
</a>
</g>
</g>
<!-- abjad.duration.Offset -->
<g id="node4" class="node">
<title>abjad.duration.Offset</title>
<g id="a_node4"><a xlink:href="../api/abjad/duration.html#abjad.duration.Offset" xlink:title="Offset" target="_top">
<path fill="black" stroke="black" stroke-width="2" d="M334.67,-83.5C334.67,-83.5 304.33,-83.5 304.33,-83.5 301.17,-83.5 298,-80.33 298,-77.17 298,-77.17 298,-70.83 298,-70.83 298,-67.67 301.17,-64.5 304.33,-64.5 304.33,-64.5 334.67,-64.5 334.67,-64.5 337.83,-64.5 341,-67.67 341,-70.83 341,-70.83 341,-77.17 341,-77.17 341,-80.33 337.83,-83.5 334.67,-83.5"/>
<text text-anchor="middle" x="319.5" y="-71.5" font-family="Arial" font-size="10.00" fill="white">Offset</text>
</a>
</g>
</g>
<!-- builtins.object -->
<g id="node5" class="node">
<title>builtins.object</title>
<g id="a_node5"><a xlink:href="https://docs.python.org/3.10/library/functions.html#object" xlink:title="object" target="_top">
<path fill="#b3cde3" stroke="#b3cde3" stroke-width="2" d="M52.67,-61.5C52.67,-61.5 22.33,-61.5 22.33,-61.5 19.17,-61.5 16,-58.33 16,-55.17 16,-55.17 16,-48.83 16,-48.83 16,-45.67 19.17,-42.5 22.33,-42.5 22.33,-42.5 52.67,-42.5 52.67,-42.5 55.83,-42.5 59,-45.67 59,-48.83 59,-48.83 59,-55.17 59,-55.17 59,-58.33 55.83,-61.5 52.67,-61.5"/>
<text text-anchor="middle" x="37.5" y="-49.5" font-family="Arial" font-size="10.00">object</text>
</a>
</g>
</g>
<!-- quicktions.Fraction -->
<g id="node6" class="node">
<title>quicktions.Fraction</title>
<path fill="#ccebc5" stroke="#ccebc5" stroke-width="2" d="M141.67,-61.5C141.67,-61.5 101.33,-61.5 101.33,-61.5 98.17,-61.5 95,-58.33 95,-55.17 95,-55.17 95,-48.83 95,-48.83 95,-45.67 98.17,-42.5 101.33,-42.5 101.33,-42.5 141.67,-42.5 141.67,-42.5 144.83,-42.5 148,-45.67 148,-48.83 148,-48.83 148,-55.17 148,-55.17 148,-58.33 144.83,-61.5 141.67,-61.5"/>
<text text-anchor="middle" x="121.5" y="-49.5" font-family="Arial" font-size="10.00">Fraction</text>
</g>
</g>
</svg>
