<?xml version="1.0" encoding="UTF-8" standalone="no"?>
<!DOCTYPE svg PUBLIC "-//W3C//DTD SVG 1.1//EN"
 "http://www.w3.org/Graphics/SVG/1.1/DTD/svg11.dtd">
<!-- Generated by graphviz version 2.40.1 (20161225.0304)
 -->
<!-- Title: InheritanceGraph Pages: 1 -->
<svg width="158pt" height="89pt"
 viewBox="0.00 0.00 158.00 89.00" xmlns="http://www.w3.org/2000/svg" xmlns:xlink="http://www.w3.org/1999/xlink">
<g id="graph0" class="graph" transform="scale(1 1) rotate(0) translate(4 85)">
<title>InheritanceGraph</title>
<g id="clust1" class="cluster">
<title>cluster_abjad.indicators</title>
<path fill="transparent" stroke="#bcd2ee" stroke-width="2" stroke-dasharray="5,2" d="M93,-8C93,-8 138,-8 138,-8 144,-8 150,-14 150,-20 150,-20 150,-61 150,-61 150,-67 144,-73 138,-73 138,-73 93,-73 93,-73 87,-73 81,-67 81,-61 81,-61 81,-20 81,-20 81,-14 87,-8 93,-8"/>
<text text-anchor="middle" x="115.5" y="-61" font-family="Arial" font-size="10.00" fill="#000000">abjad.indicators</text>
</g>
<g id="clust2" class="cluster">
<title>cluster_builtins</title>
<path fill="transparent" stroke="#bcd2ee" stroke-width="2" stroke-dasharray="5,2" d="M20,-13C20,-13 49,-13 49,-13 55,-13 61,-19 61,-25 61,-25 61,-56 61,-56 61,-62 55,-68 49,-68 49,-68 20,-68 20,-68 14,-68 8,-62 8,-56 8,-56 8,-25 8,-25 8,-19 14,-13 20,-13"/>
<text text-anchor="middle" x="34.5" y="-56" font-family="Arial" font-size="10.00" fill="#000000">builtins</text>
</g>
<!-- builtins.object&#45;&gt;abjad.indicators.BendAfter.BendAfter -->
<g id="edge1" class="edge">
<title>builtins.object&#45;&gt;abjad.indicators.BendAfter.BendAfter</title>
<path fill="none" stroke="#778899" d="M53.1707,-31C63.378,-31 76.214,-31 87.5416,-31"/>
<polygon fill="#778899" stroke="#778899" points="87.8048,-34.5001 97.8048,-31 87.8048,-27.5001 87.8048,-34.5001"/>
</g>
<!-- abjad.indicators.BendAfter.BendAfter -->
<g id="node1" class="node">
<title>abjad.indicators.BendAfter.BendAfter</title>
<g id="a_node1"><a xlink:href="../api/abjad/indicators/BendAfter.html#abjad.indicators.BendAfter.BendAfter" xlink:title="Bend\nAfter" target="_top">
<path fill="#000000" stroke="#000000" stroke-width="2" d="M122,-46C122,-46 108,-46 108,-46 103,-46 98,-41 98,-36 98,-36 98,-26 98,-26 98,-21 103,-16 108,-16 108,-16 122,-16 122,-16 127,-16 132,-21 132,-26 132,-26 132,-36 132,-36 132,-41 127,-46 122,-46"/>
<text text-anchor="middle" x="115" y="-34" font-family="Arial" font-size="10.00" fill="#ffffff">Bend</text>
<text text-anchor="middle" x="115" y="-23" font-family="Arial" font-size="10.00" fill="#ffffff">After</text>
</a>
</g>
</g>
<!-- builtins.object -->
<g id="node2" class="node">
<title>builtins.object</title>
<g id="a_node2"><a xlink:href="https://docs.python.org/3.6/library/functions.html#object" xlink:title="object" target="_top">
<path fill="#b3cde3" stroke="#b3cde3" stroke-width="2" d="M46.6667,-40.5C46.6667,-40.5 22.3333,-40.5 22.3333,-40.5 19.1667,-40.5 16,-37.3333 16,-34.1667 16,-34.1667 16,-27.8333 16,-27.8333 16,-24.6667 19.1667,-21.5 22.3333,-21.5 22.3333,-21.5 46.6667,-21.5 46.6667,-21.5 49.8333,-21.5 53,-24.6667 53,-27.8333 53,-27.8333 53,-34.1667 53,-34.1667 53,-37.3333 49.8333,-40.5 46.6667,-40.5"/>
<text text-anchor="middle" x="34.5" y="-28.5" font-family="Arial" font-size="10.00" fill="#000000">object</text>
</a>
</g>
</g>
</g>
</svg>
