<?xml version="1.0" encoding="UTF-8" standalone="no"?>
<!DOCTYPE svg PUBLIC "-//W3C//DTD SVG 1.1//EN"
 "http://www.w3.org/Graphics/SVG/1.1/DTD/svg11.dtd">
<!-- Generated by graphviz version 2.40.1 (20161225.0304)
 -->
<!-- Title: InheritanceGraph Pages: 1 -->
<svg width="330pt" height="315pt"
 viewBox="0.00 0.00 330.00 315.00" xmlns="http://www.w3.org/2000/svg" xmlns:xlink="http://www.w3.org/1999/xlink">
<g id="graph0" class="graph" transform="scale(1 1) rotate(0) translate(4 311)">
<title>InheritanceGraph</title>
<g id="clust1" class="cluster">
<title>cluster_abjad.segments</title>
<path fill="transparent" stroke="#bcd2ee" stroke-width="2" stroke-dasharray="5,2" d="M93,-8C93,-8 302,-8 302,-8 308,-8 314,-14 314,-20 314,-20 314,-287 314,-287 314,-293 308,-299 302,-299 302,-299 93,-299 93,-299 87,-299 81,-293 81,-287 81,-287 81,-20 81,-20 81,-14 87,-8 93,-8"/>
<text text-anchor="middle" x="197.5" y="-287" font-family="Arial" font-size="10.00" fill="#000000">abjad.segments</text>
</g>
<g id="clust2" class="cluster">
<title>cluster_builtins</title>
<path fill="transparent" stroke="#bcd2ee" stroke-width="2" stroke-dasharray="5,2" d="M20,-126C20,-126 49,-126 49,-126 55,-126 61,-132 61,-138 61,-138 61,-169 61,-169 61,-175 55,-181 49,-181 49,-181 20,-181 20,-181 14,-181 8,-175 8,-169 8,-169 8,-138 8,-138 8,-132 14,-126 20,-126"/>
<text text-anchor="middle" x="34.5" y="-169" font-family="Arial" font-size="10.00" fill="#000000">builtins</text>
</g>
<!-- abjad.segments.ScoreTemplate.ScoreTemplate&#45;&gt;abjad.segments.GroupedRhythmicStavesScoreTemplate.GroupedRhythmicStavesScoreTemplate -->
<g id="edge1" class="edge">
<title>abjad.segments.ScoreTemplate.ScoreTemplate&#45;&gt;abjad.segments.GroupedRhythmicStavesScoreTemplate.GroupedRhythmicStavesScoreTemplate</title>
<path fill="none" stroke="#778899" d="M126.2031,-129C136.9734,-116.764 152.6246,-98.9828 166.5207,-83.1954"/>
<polygon fill="#778899" stroke="#778899" points="169.1925,-85.4573 173.1725,-75.6384 163.938,-80.8322 169.1925,-85.4573"/>
</g>
<!-- abjad.segments.ScoreTemplate.ScoreTemplate&#45;&gt;abjad.segments.GroupedStavesScoreTemplate.GroupedStavesScoreTemplate -->
<g id="edge2" class="edge">
<title>abjad.segments.ScoreTemplate.ScoreTemplate&#45;&gt;abjad.segments.GroupedStavesScoreTemplate.GroupedStavesScoreTemplate</title>
<path fill="none" stroke="#778899" d="M133.5904,-128.957C144.7043,-121.6443 158.9878,-113.4851 173,-109 197.1078,-101.2834 225.6383,-98.8897 247.4621,-98.3688"/>
<polygon fill="#778899" stroke="#778899" points="247.6304,-101.8672 257.588,-98.2484 247.5471,-94.8677 247.6304,-101.8672"/>
</g>
<!-- abjad.segments.ScoreTemplate.ScoreTemplate&#45;&gt;abjad.segments.StringOrchestraScoreTemplate.StringOrchestraScoreTemplate -->
<g id="edge3" class="edge">
<title>abjad.segments.ScoreTemplate.ScoreTemplate&#45;&gt;abjad.segments.StringOrchestraScoreTemplate.StringOrchestraScoreTemplate</title>
<path fill="none" stroke="#778899" d="M137.4409,-144C145.3417,-144 154.2596,-144 162.7586,-144"/>
<polygon fill="#778899" stroke="#778899" points="162.8213,-147.5001 172.8213,-144 162.8213,-140.5001 162.8213,-147.5001"/>
</g>
<!-- abjad.segments.ScoreTemplate.ScoreTemplate&#45;&gt;abjad.segments.StringQuartetScoreTemplate.StringQuartetScoreTemplate -->
<g id="edge4" class="edge">
<title>abjad.segments.ScoreTemplate.ScoreTemplate&#45;&gt;abjad.segments.StringQuartetScoreTemplate.StringQuartetScoreTemplate</title>
<path fill="none" stroke="#778899" d="M133.5904,-159.043C144.7043,-166.3557 158.9878,-174.5149 173,-179 197.1078,-186.7166 225.6383,-189.1103 247.4621,-189.6312"/>
<polygon fill="#778899" stroke="#778899" points="247.5471,-193.1323 257.588,-189.7516 247.6304,-186.1328 247.5471,-193.1323"/>
</g>
<!-- abjad.segments.ScoreTemplate.ScoreTemplate&#45;&gt;abjad.segments.TwoStaffPianoScoreTemplate.TwoStaffPianoScoreTemplate -->
<g id="edge5" class="edge">
<title>abjad.segments.ScoreTemplate.ScoreTemplate&#45;&gt;abjad.segments.TwoStaffPianoScoreTemplate.TwoStaffPianoScoreTemplate</title>
<path fill="none" stroke="#778899" d="M126.2031,-159C136.9734,-171.236 152.6246,-189.0172 166.5207,-204.8046"/>
<polygon fill="#778899" stroke="#778899" points="163.938,-207.1678 173.1725,-212.3616 169.1925,-202.5427 163.938,-207.1678"/>
</g>
<!-- builtins.object&#45;&gt;abjad.segments.ScoreTemplate.ScoreTemplate -->
<g id="edge6" class="edge">
<title>builtins.object&#45;&gt;abjad.segments.ScoreTemplate.ScoreTemplate</title>
<path fill="none" stroke="#778899" d="M53.1034,-144C60.794,-144 69.963,-144 78.7867,-144"/>
<polygon fill="#778899" stroke="#778899" points="78.8772,-147.5001 88.8771,-144 78.8771,-140.5001 78.8772,-147.5001"/>
</g>
<!-- abjad.segments.GroupedRhythmicStavesScoreTemplate.GroupedRhythmicStavesScoreTemplate -->
<g id="node1" class="node">
<title>abjad.segments.GroupedRhythmicStavesScoreTemplate.GroupedRhythmicStavesScoreTemplate</title>
<g id="a_node1"><a xlink:href="../api/abjad/segments/GroupedRhythmicStavesScoreTemplate.html#abjad.segments.GroupedRhythmicStavesScoreTemplate.GroupedRhythmicStavesScoreTemplate" xlink:title="Grouped\nRhythmic\nStaves\nScore\nTemplate" target="_top">
<path fill="#fbb4ae" stroke="#fbb4ae" stroke-width="2" d="M209.5,-79.5C209.5,-79.5 185.5,-79.5 185.5,-79.5 179.5,-79.5 173.5,-73.5 173.5,-67.5 173.5,-67.5 173.5,-28.5 173.5,-28.5 173.5,-22.5 179.5,-16.5 185.5,-16.5 185.5,-16.5 209.5,-16.5 209.5,-16.5 215.5,-16.5 221.5,-22.5 221.5,-28.5 221.5,-28.5 221.5,-67.5 221.5,-67.5 221.5,-73.5 215.5,-79.5 209.5,-79.5"/>
<text text-anchor="middle" x="197.5" y="-67.5" font-family="Arial" font-size="10.00" fill="#000000">Grouped</text>
<text text-anchor="middle" x="197.5" y="-56.5" font-family="Arial" font-size="10.00" fill="#000000">Rhythmic</text>
<text text-anchor="middle" x="197.5" y="-45.5" font-family="Arial" font-size="10.00" fill="#000000">Staves</text>
<text text-anchor="middle" x="197.5" y="-34.5" font-family="Arial" font-size="10.00" fill="#000000">Score</text>
<text text-anchor="middle" x="197.5" y="-23.5" font-family="Arial" font-size="10.00" fill="#000000">Template</text>
</a>
</g>
</g>
<!-- abjad.segments.GroupedStavesScoreTemplate.GroupedStavesScoreTemplate -->
<g id="node2" class="node">
<title>abjad.segments.GroupedStavesScoreTemplate.GroupedStavesScoreTemplate</title>
<g id="a_node2"><a xlink:href="../api/abjad/segments/GroupedStavesScoreTemplate.html#abjad.segments.GroupedStavesScoreTemplate.GroupedStavesScoreTemplate" xlink:title="Grouped\nStaves\nScore\nTemplate" target="_top">
<path fill="#fbb4ae" stroke="#fbb4ae" stroke-width="2" d="M294,-125C294,-125 270,-125 270,-125 264,-125 258,-119 258,-113 258,-113 258,-85 258,-85 258,-79 264,-73 270,-73 270,-73 294,-73 294,-73 300,-73 306,-79 306,-85 306,-85 306,-113 306,-113 306,-119 300,-125 294,-125"/>
<text text-anchor="middle" x="282" y="-113" font-family="Arial" font-size="10.00" fill="#000000">Grouped</text>
<text text-anchor="middle" x="282" y="-102" font-family="Arial" font-size="10.00" fill="#000000">Staves</text>
<text text-anchor="middle" x="282" y="-91" font-family="Arial" font-size="10.00" fill="#000000">Score</text>
<text text-anchor="middle" x="282" y="-80" font-family="Arial" font-size="10.00" fill="#000000">Template</text>
</a>
</g>
</g>
<!-- abjad.segments.ScoreTemplate.ScoreTemplate -->
<g id="node3" class="node">
<title>abjad.segments.ScoreTemplate.ScoreTemplate</title>
<g id="a_node3"><a xlink:href="../api/abjad/segments/ScoreTemplate.html#abjad.segments.ScoreTemplate.ScoreTemplate" xlink:title="Score\nTemplate" target="_top">
<path fill="#000000" stroke="#000000" stroke-width="2" d="M127,-159C127,-159 99,-159 99,-159 94,-159 89,-154 89,-149 89,-149 89,-139 89,-139 89,-134 94,-129 99,-129 99,-129 127,-129 127,-129 132,-129 137,-134 137,-139 137,-139 137,-149 137,-149 137,-154 132,-159 127,-159"/>
<text text-anchor="middle" x="113" y="-147" font-family="Arial" font-size="10.00" fill="#ffffff">Score</text>
<text text-anchor="middle" x="113" y="-136" font-family="Arial" font-size="10.00" fill="#ffffff">Template</text>
</a>
</g>
</g>
<!-- abjad.segments.StringOrchestraScoreTemplate.StringOrchestraScoreTemplate -->
<g id="node4" class="node">
<title>abjad.segments.StringOrchestraScoreTemplate.StringOrchestraScoreTemplate</title>
<g id="a_node4"><a xlink:href="../api/abjad/segments/StringOrchestraScoreTemplate.html#abjad.segments.StringOrchestraScoreTemplate.StringOrchestraScoreTemplate" xlink:title="String\nOrchestra\nScore\nTemplate" target="_top">
<path fill="#fbb4ae" stroke="#fbb4ae" stroke-width="2" d="M210,-170C210,-170 185,-170 185,-170 179,-170 173,-164 173,-158 173,-158 173,-130 173,-130 173,-124 179,-118 185,-118 185,-118 210,-118 210,-118 216,-118 222,-124 222,-130 222,-130 222,-158 222,-158 222,-164 216,-170 210,-170"/>
<text text-anchor="middle" x="197.5" y="-158" font-family="Arial" font-size="10.00" fill="#000000">String</text>
<text text-anchor="middle" x="197.5" y="-147" font-family="Arial" font-size="10.00" fill="#000000">Orchestra</text>
<text text-anchor="middle" x="197.5" y="-136" font-family="Arial" font-size="10.00" fill="#000000">Score</text>
<text text-anchor="middle" x="197.5" y="-125" font-family="Arial" font-size="10.00" fill="#000000">Template</text>
</a>
</g>
</g>
<!-- abjad.segments.StringQuartetScoreTemplate.StringQuartetScoreTemplate -->
<g id="node5" class="node">
<title>abjad.segments.StringQuartetScoreTemplate.StringQuartetScoreTemplate</title>
<g id="a_node5"><a xlink:href="../api/abjad/segments/StringQuartetScoreTemplate.html#abjad.segments.StringQuartetScoreTemplate.StringQuartetScoreTemplate" xlink:title="String\nQuartet\nScore\nTemplate" target="_top">
<path fill="#fbb4ae" stroke="#fbb4ae" stroke-width="2" d="M294,-215C294,-215 270,-215 270,-215 264,-215 258,-209 258,-203 258,-203 258,-175 258,-175 258,-169 264,-163 270,-163 270,-163 294,-163 294,-163 300,-163 306,-169 306,-175 306,-175 306,-203 306,-203 306,-209 300,-215 294,-215"/>
<text text-anchor="middle" x="282" y="-203" font-family="Arial" font-size="10.00" fill="#000000">String</text>
<text text-anchor="middle" x="282" y="-192" font-family="Arial" font-size="10.00" fill="#000000">Quartet</text>
<text text-anchor="middle" x="282" y="-181" font-family="Arial" font-size="10.00" fill="#000000">Score</text>
<text text-anchor="middle" x="282" y="-170" font-family="Arial" font-size="10.00" fill="#000000">Template</text>
</a>
</g>
</g>
<!-- abjad.segments.TwoStaffPianoScoreTemplate.TwoStaffPianoScoreTemplate -->
<g id="node6" class="node">
<title>abjad.segments.TwoStaffPianoScoreTemplate.TwoStaffPianoScoreTemplate</title>
<g id="a_node6"><a xlink:href="../api/abjad/segments/TwoStaffPianoScoreTemplate.html#abjad.segments.TwoStaffPianoScoreTemplate.TwoStaffPianoScoreTemplate" xlink:title="Two\nStaff\nPiano\nScore\nTemplate" target="_top">
<path fill="#fbb4ae" stroke="#fbb4ae" stroke-width="2" d="M209.5,-271.5C209.5,-271.5 185.5,-271.5 185.5,-271.5 179.5,-271.5 173.5,-265.5 173.5,-259.5 173.5,-259.5 173.5,-220.5 173.5,-220.5 173.5,-214.5 179.5,-208.5 185.5,-208.5 185.5,-208.5 209.5,-208.5 209.5,-208.5 215.5,-208.5 221.5,-214.5 221.5,-220.5 221.5,-220.5 221.5,-259.5 221.5,-259.5 221.5,-265.5 215.5,-271.5 209.5,-271.5"/>
<text text-anchor="middle" x="197.5" y="-259.5" font-family="Arial" font-size="10.00" fill="#000000">Two</text>
<text text-anchor="middle" x="197.5" y="-248.5" font-family="Arial" font-size="10.00" fill="#000000">Staff</text>
<text text-anchor="middle" x="197.5" y="-237.5" font-family="Arial" font-size="10.00" fill="#000000">Piano</text>
<text text-anchor="middle" x="197.5" y="-226.5" font-family="Arial" font-size="10.00" fill="#000000">Score</text>
<text text-anchor="middle" x="197.5" y="-215.5" font-family="Arial" font-size="10.00" fill="#000000">Template</text>
</a>
</g>
</g>
<!-- builtins.object -->
<g id="node7" class="node">
<title>builtins.object</title>
<g id="a_node7"><a xlink:href="https://docs.python.org/3.6/library/functions.html#object" xlink:title="object" target="_top">
<path fill="#b3cde3" stroke="#b3cde3" stroke-width="2" d="M46.6667,-153.5C46.6667,-153.5 22.3333,-153.5 22.3333,-153.5 19.1667,-153.5 16,-150.3333 16,-147.1667 16,-147.1667 16,-140.8333 16,-140.8333 16,-137.6667 19.1667,-134.5 22.3333,-134.5 22.3333,-134.5 46.6667,-134.5 46.6667,-134.5 49.8333,-134.5 53,-137.6667 53,-140.8333 53,-140.8333 53,-147.1667 53,-147.1667 53,-150.3333 49.8333,-153.5 46.6667,-153.5"/>
<text text-anchor="middle" x="34.5" y="-141.5" font-family="Arial" font-size="10.00" fill="#000000">object</text>
</a>
</g>
</g>
</g>
</svg>
