<?xml version="1.0" encoding="UTF-8" standalone="no"?>
<!DOCTYPE svg PUBLIC "-//W3C//DTD SVG 1.1//EN"
 "http://www.w3.org/Graphics/SVG/1.1/DTD/svg11.dtd">
<!-- Generated by graphviz version 2.49.2 (20211016.1639)
 -->
<!-- Title: InheritanceGraph Pages: 1 -->
<svg width="332pt" height="127pt"
 viewBox="0.00 0.00 332.00 127.00" xmlns="http://www.w3.org/2000/svg" xmlns:xlink="http://www.w3.org/1999/xlink">
<g id="graph0" class="graph" transform="scale(1 1) rotate(0) translate(4 123)">
<title>InheritanceGraph</title>
<g id="clust3" class="cluster">
<title>cluster_builtins</title>
<path fill="transparent" stroke="#bcd2ee" stroke-width="2" stroke-dasharray="5,2" d="M20,-29C20,-29 55,-29 55,-29 61,-29 67,-35 67,-41 67,-41 67,-72 67,-72 67,-78 61,-84 55,-84 55,-84 20,-84 20,-84 14,-84 8,-78 8,-72 8,-72 8,-41 8,-41 8,-35 14,-29 20,-29"/>
<text text-anchor="middle" x="37.5" y="-72" font-family="Arial" font-size="10.00">builtins</text>
</g>
<g id="clust1" class="cluster">
<title>cluster_abjad.parsers.base</title>
<path fill="transparent" stroke="#bcd2ee" stroke-width="2" stroke-dasharray="5,2" d="M99,-49C99,-49 177,-49 177,-49 183,-49 189,-55 189,-61 189,-61 189,-92 189,-92 189,-98 183,-104 177,-104 177,-104 99,-104 99,-104 93,-104 87,-98 87,-92 87,-92 87,-61 87,-61 87,-55 93,-49 99,-49"/>
<text text-anchor="middle" x="138" y="-92" font-family="Arial" font-size="10.00">abjad.parsers.base</text>
</g>
<g id="clust2" class="cluster">
<title>cluster_abjad.parsers.scheme</title>
<path fill="transparent" stroke="#bcd2ee" stroke-width="2" stroke-dasharray="5,2" d="M221,-8C221,-8 312,-8 312,-8 318,-8 324,-14 324,-20 324,-20 324,-99 324,-99 324,-105 318,-111 312,-111 312,-111 221,-111 221,-111 215,-111 209,-105 209,-99 209,-99 209,-20 209,-20 209,-14 215,-8 221,-8"/>
<text text-anchor="middle" x="266.5" y="-99" font-family="Arial" font-size="10.00">abjad.parsers.scheme</text>
</g>
<!-- abjad.parsers.base.Parser&#45;&gt;abjad.parsers.scheme.SchemeParser -->
<g id="edge1" class="edge">
<title>abjad.parsers.base.Parser&#45;&gt;abjad.parsers.scheme.SchemeParser</title>
<path fill="none" stroke="lightslategrey" d="M161.03,-67.35C179.98,-67.65 207.66,-68.09 229.77,-68.44"/>
<polygon fill="lightslategrey" stroke="lightslategrey" points="229.74,-71.93 239.8,-68.59 229.85,-64.94 229.74,-71.93"/>
</g>
<!-- builtins.object&#45;&gt;abjad.parsers.base.Parser -->
<g id="edge2" class="edge">
<title>builtins.object&#45;&gt;abjad.parsers.base.Parser</title>
<path fill="none" stroke="lightslategrey" d="M59.39,-51.24C72.6,-53.92 89.95,-57.45 104.89,-60.48"/>
<polygon fill="lightslategrey" stroke="lightslategrey" points="104.28,-63.93 114.77,-62.49 105.67,-57.07 104.28,-63.93"/>
</g>
<!-- builtins.object&#45;&gt;abjad.parsers.scheme.Scheme -->
<g id="edge3" class="edge">
<title>builtins.object&#45;&gt;abjad.parsers.scheme.Scheme</title>
<path fill="none" stroke="lightslategrey" d="M59.05,-45.1C97.68,-41.53 181.6,-33.76 229.7,-29.31"/>
<polygon fill="lightslategrey" stroke="lightslategrey" points="230.04,-32.8 239.68,-28.39 229.4,-25.82 230.04,-32.8"/>
</g>
<!-- abjad.parsers.base.Parser -->
<g id="node1" class="node">
<title>abjad.parsers.base.Parser</title>
<g id="a_node1"><a xlink:href="../api/abjad/parsers/base.html#abjad.parsers.base.Parser" xlink:title="Parser" target="_top">
<path fill="#fbb4ae" stroke="#fbb4ae" stroke-width="2" d="M154.67,-76.5C154.67,-76.5 121.33,-76.5 121.33,-76.5 118.17,-76.5 115,-73.33 115,-70.17 115,-70.17 115,-63.83 115,-63.83 115,-60.67 118.17,-57.5 121.33,-57.5 121.33,-57.5 154.67,-57.5 154.67,-57.5 157.83,-57.5 161,-60.67 161,-63.83 161,-63.83 161,-70.17 161,-70.17 161,-73.33 157.83,-76.5 154.67,-76.5"/>
<text text-anchor="middle" x="138" y="-64.5" font-family="Arial" font-size="10.00">Parser</text>
</a>
</g>
</g>
<!-- abjad.parsers.scheme.Scheme -->
<g id="node2" class="node">
<title>abjad.parsers.scheme.Scheme</title>
<g id="a_node2"><a xlink:href="../api/abjad/parsers/scheme.html#abjad.parsers.scheme.Scheme" xlink:title="Scheme" target="_top">
<path fill="black" stroke="black" stroke-width="2" d="M286.67,-35.5C286.67,-35.5 246.33,-35.5 246.33,-35.5 243.17,-35.5 240,-32.33 240,-29.17 240,-29.17 240,-22.83 240,-22.83 240,-19.67 243.17,-16.5 246.33,-16.5 246.33,-16.5 286.67,-16.5 286.67,-16.5 289.83,-16.5 293,-19.67 293,-22.83 293,-22.83 293,-29.17 293,-29.17 293,-32.33 289.83,-35.5 286.67,-35.5"/>
<text text-anchor="middle" x="266.5" y="-23.5" font-family="Arial" font-size="10.00" fill="white">Scheme</text>
</a>
</g>
</g>
<!-- abjad.parsers.scheme.SchemeParser -->
<g id="node3" class="node">
<title>abjad.parsers.scheme.SchemeParser</title>
<g id="a_node3"><a xlink:href="../api/abjad/parsers/scheme.html#abjad.parsers.scheme.SchemeParser" xlink:title="Scheme\nParser" target="_top">
<path fill="black" stroke="black" stroke-width="2" d="M283,-84C283,-84 250,-84 250,-84 245,-84 240,-79 240,-74 240,-74 240,-64 240,-64 240,-59 245,-54 250,-54 250,-54 283,-54 283,-54 288,-54 293,-59 293,-64 293,-64 293,-74 293,-74 293,-79 288,-84 283,-84"/>
<text text-anchor="middle" x="266.5" y="-72" font-family="Arial" font-size="10.00" fill="white">Scheme</text>
<text text-anchor="middle" x="266.5" y="-61" font-family="Arial" font-size="10.00" fill="white">Parser</text>
</a>
</g>
</g>
<!-- builtins.object -->
<g id="node4" class="node">
<title>builtins.object</title>
<g id="a_node4"><a xlink:href="https://docs.python.org/3.10/library/functions.html#object" xlink:title="object" target="_top">
<path fill="#ccebc5" stroke="#ccebc5" stroke-width="2" d="M52.67,-56.5C52.67,-56.5 22.33,-56.5 22.33,-56.5 19.17,-56.5 16,-53.33 16,-50.17 16,-50.17 16,-43.83 16,-43.83 16,-40.67 19.17,-37.5 22.33,-37.5 22.33,-37.5 52.67,-37.5 52.67,-37.5 55.83,-37.5 59,-40.67 59,-43.83 59,-43.83 59,-50.17 59,-50.17 59,-53.33 55.83,-56.5 52.67,-56.5"/>
<text text-anchor="middle" x="37.5" y="-44.5" font-family="Arial" font-size="10.00">object</text>
</a>
</g>
</g>
</g>
</svg>
