<?xml version="1.0" encoding="UTF-8" standalone="no"?>
<!DOCTYPE svg PUBLIC "-//W3C//DTD SVG 1.1//EN"
 "http://www.w3.org/Graphics/SVG/1.1/DTD/svg11.dtd">
<!-- Generated by graphviz version 2.40.1 (20161225.0304)
 -->
<!-- Title: InheritanceGraph Pages: 1 -->
<svg width="264pt" height="102pt"
 viewBox="0.00 0.00 263.59 102.00" xmlns="http://www.w3.org/2000/svg" xmlns:xlink="http://www.w3.org/1999/xlink">
<g id="graph0" class="graph" transform="scale(1 1) rotate(0) translate(4 98)">
<title>InheritanceGraph</title>
<g id="clust1" class="cluster">
<title>cluster_abjad.parser</title>
<path fill="transparent" stroke="#bcd2ee" stroke-width="2" stroke-dasharray="5,2" d="M193.1377,-8C193.1377,-8 240.5908,-8 240.5908,-8 246.5908,-8 252.5908,-14 252.5908,-20 252.5908,-20 252.5908,-74 252.5908,-74 252.5908,-80 246.5908,-86 240.5908,-86 240.5908,-86 193.1377,-86 193.1377,-86 187.1377,-86 181.1377,-80 181.1377,-74 181.1377,-74 181.1377,-20 181.1377,-20 181.1377,-14 187.1377,-8 193.1377,-8"/>
<text text-anchor="middle" x="216.8643" y="-74" font-family="Arial" font-size="10.00" fill="#000000">abjad.parser</text>
</g>
<g id="clust2" class="cluster">
<title>cluster_abjad.system</title>
<path fill="transparent" stroke="#bcd2ee" stroke-width="2" stroke-dasharray="5,2" d="M98.6846,-19C98.6846,-19 149.1377,-19 149.1377,-19 155.1377,-19 161.1377,-25 161.1377,-31 161.1377,-31 161.1377,-62 161.1377,-62 161.1377,-68 155.1377,-74 149.1377,-74 149.1377,-74 98.6846,-74 98.6846,-74 92.6846,-74 86.6846,-68 86.6846,-62 86.6846,-62 86.6846,-31 86.6846,-31 86.6846,-25 92.6846,-19 98.6846,-19"/>
<text text-anchor="middle" x="123.9111" y="-62" font-family="Arial" font-size="10.00" fill="#000000">abjad.system</text>
</g>
<g id="clust3" class="cluster">
<title>cluster_builtins</title>
<path fill="transparent" stroke="#bcd2ee" stroke-width="2" stroke-dasharray="5,2" d="M20,-19C20,-19 54.6846,-19 54.6846,-19 60.6846,-19 66.6846,-25 66.6846,-31 66.6846,-31 66.6846,-62 66.6846,-62 66.6846,-68 60.6846,-74 54.6846,-74 54.6846,-74 20,-74 20,-74 14,-74 8,-68 8,-62 8,-62 8,-31 8,-31 8,-25 14,-19 20,-19"/>
<text text-anchor="middle" x="37.3423" y="-62" font-family="Arial" font-size="10.00" fill="#000000">builtins</text>
</g>
<!-- abjad.system.Parser.Parser&#45;&gt;abjad.parser.LilyPondParser.LilyPondParser -->
<g id="edge1" class="edge">
<title>abjad.system.Parser.Parser&#45;&gt;abjad.parser.LilyPondParser.LilyPondParser</title>
<path fill="none" stroke="#778899" d="M146.5119,-37C157.7157,-37 171.3786,-37 183.6733,-37"/>
<polygon fill="#778899" stroke="#778899" points="184.0292,-40.5001 194.0292,-37 184.0292,-33.5001 184.0292,-40.5001"/>
</g>
<!-- builtins.object&#45;&gt;abjad.system.Parser.Parser -->
<g id="edge2" class="edge">
<title>builtins.object&#45;&gt;abjad.system.Parser.Parser</title>
<path fill="none" stroke="#778899" d="M58.6177,-37C68.1755,-37 79.6765,-37 90.3193,-37"/>
<polygon fill="#778899" stroke="#778899" points="90.5723,-40.5001 100.5722,-37 90.5722,-33.5001 90.5723,-40.5001"/>
</g>
<!-- abjad.parser.LilyPondParser.LilyPondParser -->
<g id="node1" class="node">
<title>abjad.parser.LilyPondParser.LilyPondParser</title>
<g id="a_node1"><a xlink:href="../api/abjad/parser/LilyPondParser.html#abjad.parser.LilyPondParser.LilyPondParser" xlink:title="Lily\nPond\nParser" target="_top">
<path fill="#000000" stroke="#000000" stroke-width="2" d="M227.8197,-58.5C227.8197,-58.5 205.9089,-58.5 205.9089,-58.5 199.9089,-58.5 193.9089,-52.5 193.9089,-46.5 193.9089,-46.5 193.9089,-27.5 193.9089,-27.5 193.9089,-21.5 199.9089,-15.5 205.9089,-15.5 205.9089,-15.5 227.8197,-15.5 227.8197,-15.5 233.8197,-15.5 239.8197,-21.5 239.8197,-27.5 239.8197,-27.5 239.8197,-46.5 239.8197,-46.5 239.8197,-52.5 233.8197,-58.5 227.8197,-58.5"/>
<text text-anchor="middle" x="216.8643" y="-46.2485" font-family="Arial" font-size="10.00" fill="#ffffff">Lily</text>
<text text-anchor="middle" x="216.8643" y="-34.7495" font-family="Arial" font-size="10.00" fill="#ffffff">Pond</text>
<text text-anchor="middle" x="216.8643" y="-23.2505" font-family="Arial" font-size="10.00" fill="#ffffff">Parser</text>
</a>
</g>
</g>
<!-- abjad.system.Parser.Parser -->
<g id="node2" class="node">
<title>abjad.system.Parser.Parser</title>
<g id="a_node2"><a xlink:href="../api/abjad/parser/../system/Parser.html#abjad.system.Parser.Parser" xlink:title="Parser" target="_top">
<path fill="#b3cde3" stroke="#b3cde3" stroke-width="2" d="M139.6962,-47.0056C139.6962,-47.0056 107.1261,-47.0056 107.1261,-47.0056 103.7909,-47.0056 100.4557,-43.6704 100.4557,-40.3352 100.4557,-40.3352 100.4557,-33.6648 100.4557,-33.6648 100.4557,-30.3296 103.7909,-26.9944 107.1261,-26.9944 107.1261,-26.9944 139.6962,-26.9944 139.6962,-26.9944 143.0313,-26.9944 146.3665,-30.3296 146.3665,-33.6648 146.3665,-33.6648 146.3665,-40.3352 146.3665,-40.3352 146.3665,-43.6704 143.0313,-47.0056 139.6962,-47.0056"/>
<text text-anchor="middle" x="123.4111" y="-34.7495" font-family="Arial" font-size="10.00" fill="#000000">Parser</text>
</a>
</g>
</g>
<!-- builtins.object -->
<g id="node3" class="node">
<title>builtins.object</title>
<g id="a_node3"><a xlink:href="https://docs.python.org/3.6/library/functions.html#object" xlink:title="object" target="_top">
<path fill="#ccebc5" stroke="#ccebc5" stroke-width="2" d="M51.8576,-47.0056C51.8576,-47.0056 22.8269,-47.0056 22.8269,-47.0056 19.4918,-47.0056 16.1566,-43.6704 16.1566,-40.3352 16.1566,-40.3352 16.1566,-33.6648 16.1566,-33.6648 16.1566,-30.3296 19.4918,-26.9944 22.8269,-26.9944 22.8269,-26.9944 51.8576,-26.9944 51.8576,-26.9944 55.1928,-26.9944 58.528,-30.3296 58.528,-33.6648 58.528,-33.6648 58.528,-40.3352 58.528,-40.3352 58.528,-43.6704 55.1928,-47.0056 51.8576,-47.0056"/>
<text text-anchor="middle" x="37.3423" y="-34.7495" font-family="Arial" font-size="10.00" fill="#000000">object</text>
</a>
</g>
</g>
</g>
</svg>
