<?xml version="1.0" encoding="UTF-8" standalone="no"?>
<!DOCTYPE svg PUBLIC "-//W3C//DTD SVG 1.1//EN"
 "http://www.w3.org/Graphics/SVG/1.1/DTD/svg11.dtd">
<!-- Generated by graphviz version 2.40.1 (20161225.0304)
 -->
<!-- Title: InheritanceGraph Pages: 1 -->
<svg width="266pt" height="125pt"
 viewBox="0.00 0.00 265.62 125.00" xmlns="http://www.w3.org/2000/svg" xmlns:xlink="http://www.w3.org/1999/xlink">
<g id="graph0" class="graph" transform="scale(1 1) rotate(0) translate(4 121)">
<title>InheritanceGraph</title>
<g id="clust1" class="cluster">
<title>cluster_abjad.lilypondnames</title>
<path fill="transparent" stroke="#bcd2ee" stroke-width="2" stroke-dasharray="5,2" d="M98.6846,-8C98.6846,-8 237.6201,-8 237.6201,-8 243.6201,-8 249.6201,-14 249.6201,-20 249.6201,-20 249.6201,-97 249.6201,-97 249.6201,-103 243.6201,-109 237.6201,-109 237.6201,-109 98.6846,-109 98.6846,-109 92.6846,-109 86.6846,-103 86.6846,-97 86.6846,-97 86.6846,-20 86.6846,-20 86.6846,-14 92.6846,-8 98.6846,-8"/>
<text text-anchor="middle" x="168.1523" y="-97" font-family="Arial" font-size="10.00" fill="#000000">abjad.lilypondnames</text>
</g>
<g id="clust2" class="cluster">
<title>cluster_builtins</title>
<path fill="transparent" stroke="#bcd2ee" stroke-width="2" stroke-dasharray="5,2" d="M20,-31C20,-31 54.6846,-31 54.6846,-31 60.6846,-31 66.6846,-37 66.6846,-43 66.6846,-43 66.6846,-74 66.6846,-74 66.6846,-80 60.6846,-86 54.6846,-86 54.6846,-86 20,-86 20,-86 14,-86 8,-80 8,-74 8,-74 8,-43 8,-43 8,-37 14,-31 20,-31"/>
<text text-anchor="middle" x="37.3423" y="-74" font-family="Arial" font-size="10.00" fill="#000000">builtins</text>
</g>
<!-- abjad.lilypondnames.LilyPondNameManager.LilyPondNameManager&#45;&gt;abjad.lilypondnames.LilyPondSettingNameManager.LilyPondSettingNameManager -->
<g id="edge1" class="edge">
<title>abjad.lilypondnames.LilyPondNameManager.LilyPondNameManager&#45;&gt;abjad.lilypondnames.LilyPondSettingNameManager.LilyPondSettingNameManager</title>
<path fill="none" stroke="#778899" d="M150.3588,-49C158.4265,-49 167.3695,-49 175.9369,-49"/>
<polygon fill="#778899" stroke="#778899" points="176.117,-52.5001 186.117,-49 176.1169,-45.5001 176.117,-52.5001"/>
</g>
<!-- builtins.object&#45;&gt;abjad.lilypondnames.LilyPondNameManager.LilyPondNameManager -->
<g id="edge2" class="edge">
<title>builtins.object&#45;&gt;abjad.lilypondnames.LilyPondNameManager.LilyPondNameManager</title>
<path fill="none" stroke="#778899" d="M58.8106,-49C66.5943,-49 75.6371,-49 84.419,-49"/>
<polygon fill="#778899" stroke="#778899" points="84.5172,-52.5001 94.5172,-49 84.5171,-45.5001 84.5172,-52.5001"/>
</g>
<!-- abjad.lilypondnames.LilyPondNameManager.LilyPondNameManager -->
<g id="node1" class="node">
<title>abjad.lilypondnames.LilyPondNameManager.LilyPondNameManager</title>
<g id="a_node1"><a xlink:href="../api/abjad/lilypondnames/LilyPondNameManager.html#abjad.lilypondnames.LilyPondNameManager.LilyPondNameManager" xlink:title="Lily\nPond\nName\nManager" target="_top">
<path fill="#fbb4ae" stroke="#fbb4ae" stroke-width="2" d="M138.3882,-75.9961C138.3882,-75.9961 106.4487,-75.9961 106.4487,-75.9961 100.4487,-75.9961 94.4487,-69.9961 94.4487,-63.9961 94.4487,-63.9961 94.4487,-34.0039 94.4487,-34.0039 94.4487,-28.0039 100.4487,-22.0039 106.4487,-22.0039 106.4487,-22.0039 138.3882,-22.0039 138.3882,-22.0039 144.3882,-22.0039 150.3882,-28.0039 150.3882,-34.0039 150.3882,-34.0039 150.3882,-63.9961 150.3882,-63.9961 150.3882,-69.9961 144.3882,-75.9961 138.3882,-75.9961"/>
<text text-anchor="middle" x="122.4185" y="-63.998" font-family="Arial" font-size="10.00" fill="#000000">Lily</text>
<text text-anchor="middle" x="122.4185" y="-52.499" font-family="Arial" font-size="10.00" fill="#000000">Pond</text>
<text text-anchor="middle" x="122.4185" y="-41" font-family="Arial" font-size="10.00" fill="#000000">Name</text>
<text text-anchor="middle" x="122.4185" y="-29.501" font-family="Arial" font-size="10.00" fill="#000000">Manager</text>
</a>
</g>
</g>
<!-- abjad.lilypondnames.LilyPondSettingNameManager.LilyPondSettingNameManager -->
<g id="node2" class="node">
<title>abjad.lilypondnames.LilyPondSettingNameManager.LilyPondSettingNameManager</title>
<g id="a_node2"><a xlink:href="../api/abjad/lilypondnames/LilyPondSettingNameManager.html#abjad.lilypondnames.LilyPondSettingNameManager.LilyPondSettingNameManager" xlink:title="Lily\nPond\nSetting\nName\nManager" target="_top">
<path fill="#000000" stroke="#000000" stroke-width="2" d="M229.856,-81.997C229.856,-81.997 197.9165,-81.997 197.9165,-81.997 191.9165,-81.997 185.9165,-75.997 185.9165,-69.997 185.9165,-69.997 185.9165,-28.003 185.9165,-28.003 185.9165,-22.003 191.9165,-16.003 197.9165,-16.003 197.9165,-16.003 229.856,-16.003 229.856,-16.003 235.856,-16.003 241.856,-22.003 241.856,-28.003 241.856,-28.003 241.856,-69.997 241.856,-69.997 241.856,-75.997 235.856,-81.997 229.856,-81.997"/>
<text text-anchor="middle" x="213.8862" y="-69.7476" font-family="Arial" font-size="10.00" fill="#ffffff">Lily</text>
<text text-anchor="middle" x="213.8862" y="-58.2485" font-family="Arial" font-size="10.00" fill="#ffffff">Pond</text>
<text text-anchor="middle" x="213.8862" y="-46.7495" font-family="Arial" font-size="10.00" fill="#ffffff">Setting</text>
<text text-anchor="middle" x="213.8862" y="-35.2505" font-family="Arial" font-size="10.00" fill="#ffffff">Name</text>
<text text-anchor="middle" x="213.8862" y="-23.7515" font-family="Arial" font-size="10.00" fill="#ffffff">Manager</text>
</a>
</g>
</g>
<!-- builtins.object -->
<g id="node3" class="node">
<title>builtins.object</title>
<g id="a_node3"><a xlink:href="https://docs.python.org/3.6/library/functions.html#object" xlink:title="object" target="_top">
<path fill="#b3cde3" stroke="#b3cde3" stroke-width="2" d="M51.8576,-59.0056C51.8576,-59.0056 22.8269,-59.0056 22.8269,-59.0056 19.4918,-59.0056 16.1566,-55.6704 16.1566,-52.3352 16.1566,-52.3352 16.1566,-45.6648 16.1566,-45.6648 16.1566,-42.3296 19.4918,-38.9944 22.8269,-38.9944 22.8269,-38.9944 51.8576,-38.9944 51.8576,-38.9944 55.1928,-38.9944 58.528,-42.3296 58.528,-45.6648 58.528,-45.6648 58.528,-52.3352 58.528,-52.3352 58.528,-55.6704 55.1928,-59.0056 51.8576,-59.0056"/>
<text text-anchor="middle" x="37.3423" y="-46.7495" font-family="Arial" font-size="10.00" fill="#000000">object</text>
</a>
</g>
</g>
</g>
</svg>
