<?xml version="1.0" encoding="UTF-8" standalone="no"?>
<!DOCTYPE svg PUBLIC "-//W3C//DTD SVG 1.1//EN"
 "http://www.w3.org/Graphics/SVG/1.1/DTD/svg11.dtd">
<!-- Generated by graphviz version 2.40.1 (20161225.0304)
 -->
<!-- Title: InheritanceGraph Pages: 1 -->
<svg width="680pt" height="259pt"
 viewBox="0.00 0.00 680.38 259.00" xmlns="http://www.w3.org/2000/svg" xmlns:xlink="http://www.w3.org/1999/xlink">
<g id="graph0" class="graph" transform="scale(1 1) rotate(0) translate(4 255)">
<title>InheritanceGraph</title>
<g id="clust1" class="cluster">
<title>cluster_abjad.pitch</title>
<path fill="transparent" stroke="#bcd2ee" stroke-width="2" stroke-dasharray="5,2" d="M531.7326,-8C531.7326,-8 652.38,-8 652.38,-8 658.38,-8 664.38,-14 664.38,-20 664.38,-20 664.38,-74 664.38,-74 664.38,-80 658.38,-86 652.38,-86 652.38,-86 531.7326,-86 531.7326,-86 525.7326,-86 519.7326,-80 519.7326,-74 519.7326,-74 519.7326,-20 519.7326,-20 519.7326,-14 525.7326,-8 531.7326,-8"/>
<text text-anchor="middle" x="592.0563" y="-74" font-family="Arial" font-size="10.00" fill="#000000">abjad.pitch</text>
</g>
<g id="clust2" class="cluster">
<title>cluster_abjad.utilities</title>
<path fill="transparent" stroke="#bcd2ee" stroke-width="2" stroke-dasharray="5,2" d="M339.3585,-14C339.3585,-14 487.7326,-14 487.7326,-14 493.7326,-14 499.7326,-20 499.7326,-26 499.7326,-26 499.7326,-68 499.7326,-68 499.7326,-74 493.7326,-80 487.7326,-80 487.7326,-80 339.3585,-80 339.3585,-80 333.3585,-80 327.3585,-74 327.3585,-68 327.3585,-68 327.3585,-26 327.3585,-26 327.3585,-20 333.3585,-14 339.3585,-14"/>
<text text-anchor="middle" x="413.5456" y="-68" font-family="Arial" font-size="10.00" fill="#000000">abjad.utilities</text>
</g>
<g id="clust3" class="cluster">
<title>cluster_builtins</title>
<path fill="transparent" stroke="#bcd2ee" stroke-width="2" stroke-dasharray="5,2" d="M20,-115C20,-115 54.6846,-115 54.6846,-115 60.6846,-115 66.6846,-121 66.6846,-127 66.6846,-127 66.6846,-158 66.6846,-158 66.6846,-164 60.6846,-170 54.6846,-170 54.6846,-170 20,-170 20,-170 14,-170 8,-164 8,-158 8,-158 8,-127 8,-127 8,-121 14,-115 20,-115"/>
<text text-anchor="middle" x="37.3423" y="-158" font-family="Arial" font-size="10.00" fill="#000000">builtins</text>
</g>
<g id="clust4" class="cluster">
<title>cluster_collections.abc</title>
<path fill="transparent" stroke="#bcd2ee" stroke-width="2" stroke-dasharray="5,2" d="M98.6846,-88C98.6846,-88 383.2413,-88 383.2413,-88 389.2413,-88 395.2413,-94 395.2413,-100 395.2413,-100 395.2413,-231 395.2413,-231 395.2413,-237 389.2413,-243 383.2413,-243 383.2413,-243 98.6846,-243 98.6846,-243 92.6846,-243 86.6846,-237 86.6846,-231 86.6846,-231 86.6846,-100 86.6846,-100 86.6846,-94 92.6846,-88 98.6846,-88"/>
<text text-anchor="middle" x="240.9629" y="-231" font-family="Arial" font-size="10.00" fill="#000000">collections.abc</text>
</g>
<!-- abjad.pitch.Set.Set&#45;&gt;abjad.pitch.IntervalClassSet.IntervalClassSet -->
<g id="edge1" class="edge">
<title>abjad.pitch.Set.Set&#45;&gt;abjad.pitch.IntervalClassSet.IntervalClassSet</title>
<path fill="none" stroke="#778899" d="M571.721,-37C579.5766,-37 588.6247,-37 597.2819,-37"/>
<polygon fill="#778899" stroke="#778899" points="597.5414,-40.5001 607.5413,-37 597.5413,-33.5001 597.5414,-40.5001"/>
</g>
<!-- abjad.utilities.TypedCollection.TypedCollection&#45;&gt;abjad.utilities.TypedFrozenset.TypedFrozenset -->
<g id="edge2" class="edge">
<title>abjad.utilities.TypedCollection.TypedCollection&#45;&gt;abjad.utilities.TypedFrozenset.TypedFrozenset</title>
<path fill="none" stroke="#778899" d="M395.4844,-37C403.5532,-37 412.4074,-37 420.9376,-37"/>
<polygon fill="#778899" stroke="#778899" points="421.1072,-40.5001 431.1072,-37 421.1072,-33.5001 421.1072,-40.5001"/>
</g>
<!-- abjad.utilities.TypedFrozenset.TypedFrozenset&#45;&gt;abjad.pitch.Set.Set -->
<g id="edge7" class="edge">
<title>abjad.utilities.TypedFrozenset.TypedFrozenset&#45;&gt;abjad.pitch.Set.Set</title>
<path fill="none" stroke="#778899" d="M491.8403,-37C500.1052,-37 509.0861,-37 517.4508,-37"/>
<polygon fill="#778899" stroke="#778899" points="517.6162,-40.5001 527.6162,-37 517.6162,-33.5001 517.6162,-40.5001"/>
</g>
<!-- builtins.object&#45;&gt;abjad.utilities.TypedCollection.TypedCollection -->
<g id="edge8" class="edge">
<title>builtins.object&#45;&gt;abjad.utilities.TypedCollection.TypedCollection</title>
<path fill="none" stroke="#778899" d="M44.4298,-122.8956C53.0312,-111.4736 68.6433,-93.267 86.6846,-84 164.1642,-44.202 268.2029,-37.0007 324.6872,-36.3242"/>
<polygon fill="#778899" stroke="#778899" points="325.0152,-39.8226 334.9958,-36.2678 324.9767,-32.8227 325.0152,-39.8226"/>
</g>
<!-- builtins.object&#45;&gt;collections.abc.Container -->
<g id="edge9" class="edge">
<title>builtins.object&#45;&gt;collections.abc.Container</title>
<path fill="none" stroke="#778899" d="M46.0416,-142.7765C55.3544,-152.8176 70.9283,-168.4309 86.6846,-179 90.9862,-181.8855 95.7081,-184.5806 100.4791,-187.0366"/>
<polygon fill="#778899" stroke="#778899" points="99.0903,-190.2527 109.617,-191.4519 102.1357,-183.9498 99.0903,-190.2527"/>
</g>
<!-- builtins.object&#45;&gt;collections.abc.Iterable -->
<g id="edge10" class="edge">
<title>builtins.object&#45;&gt;collections.abc.Iterable</title>
<path fill="none" stroke="#778899" d="M58.8923,-137.9907C69.8762,-140.5344 83.5958,-143.7116 96.4404,-146.6862"/>
<polygon fill="#778899" stroke="#778899" points="95.9532,-150.166 106.485,-149.0124 97.5325,-143.3464 95.9532,-150.166"/>
</g>
<!-- builtins.object&#45;&gt;collections.abc.Sized -->
<g id="edge11" class="edge">
<title>builtins.object&#45;&gt;collections.abc.Sized</title>
<path fill="none" stroke="#778899" d="M58.8923,-128.0093C71.1037,-125.1814 86.6963,-121.5704 100.7088,-118.3253"/>
<polygon fill="#778899" stroke="#778899" points="101.6094,-121.7094 110.5619,-116.0434 100.0301,-114.8899 101.6094,-121.7094"/>
</g>
<!-- collections.abc.Collection&#45;&gt;collections.abc.Set -->
<g id="edge3" class="edge">
<title>collections.abc.Collection&#45;&gt;collections.abc.Set</title>
<path fill="none" stroke="#778899" d="M297.6372,-128.8727C309.4652,-127.6716 322.2122,-126.3771 333.4191,-125.239"/>
<polygon fill="#778899" stroke="#778899" points="334.0166,-128.6964 343.6118,-124.2039 333.3093,-121.7322 334.0166,-128.6964"/>
</g>
<!-- collections.abc.Container&#45;&gt;collections.abc.Collection -->
<g id="edge4" class="edge">
<title>collections.abc.Container&#45;&gt;collections.abc.Collection</title>
<path fill="none" stroke="#778899" d="M158.5108,-190.1842C165.008,-186.6284 172.1268,-182.6902 178.6314,-179 194.994,-169.7171 213.1165,-159.1011 227.8088,-150.4082"/>
<polygon fill="#778899" stroke="#778899" points="229.6514,-153.3847 236.4672,-145.2733 226.0807,-147.3639 229.6514,-153.3847"/>
</g>
<!-- collections.abc.Iterable&#45;&gt;collections.abc.Collection -->
<g id="edge5" class="edge">
<title>collections.abc.Iterable&#45;&gt;collections.abc.Collection</title>
<path fill="none" stroke="#778899" d="M168.2751,-149.957C181.0512,-147.5151 196.0631,-144.6459 210.068,-141.9692"/>
<polygon fill="#778899" stroke="#778899" points="210.8762,-145.3781 220.0414,-140.0629 209.5621,-138.5026 210.8762,-145.3781"/>
</g>
<!-- collections.abc.Set&#45;&gt;abjad.utilities.TypedFrozenset.TypedFrozenset -->
<g id="edge12" class="edge">
<title>collections.abc.Set&#45;&gt;abjad.utilities.TypedFrozenset.TypedFrozenset</title>
<path fill="none" stroke="#778899" d="M378.2863,-110.5365C393.0932,-97.4518 417.6659,-75.7369 436.2799,-59.2878"/>
<polygon fill="#778899" stroke="#778899" points="438.6709,-61.8457 443.8467,-52.6011 434.0356,-56.6003 438.6709,-61.8457"/>
</g>
<!-- collections.abc.Sized&#45;&gt;collections.abc.Collection -->
<g id="edge6" class="edge">
<title>collections.abc.Sized&#45;&gt;collections.abc.Collection</title>
<path fill="none" stroke="#778899" d="M163.664,-115.1616C177.3065,-117.7692 194.257,-121.0089 209.9543,-124.0091"/>
<polygon fill="#778899" stroke="#778899" points="209.5621,-127.4974 220.0414,-125.9371 210.8762,-120.6219 209.5621,-127.4974"/>
</g>
<!-- abjad.pitch.IntervalClassSet.IntervalClassSet -->
<g id="node1" class="node">
<title>abjad.pitch.IntervalClassSet.IntervalClassSet</title>
<g id="a_node1"><a xlink:href="../api/abjad/pitch/IntervalClassSet.html#abjad.pitch.IntervalClassSet.IntervalClassSet" xlink:title="Interval\nClass\nSet" target="_top">
<path fill="#000000" stroke="#000000" stroke-width="2" d="M644.2769,-58.5C644.2769,-58.5 619.6901,-58.5 619.6901,-58.5 613.6901,-58.5 607.6901,-52.5 607.6901,-46.5 607.6901,-46.5 607.6901,-27.5 607.6901,-27.5 607.6901,-21.5 613.6901,-15.5 619.6901,-15.5 619.6901,-15.5 644.2769,-15.5 644.2769,-15.5 650.2769,-15.5 656.2769,-21.5 656.2769,-27.5 656.2769,-27.5 656.2769,-46.5 656.2769,-46.5 656.2769,-52.5 650.2769,-58.5 644.2769,-58.5"/>
<text text-anchor="middle" x="631.9835" y="-46.2485" font-family="Arial" font-size="10.00" fill="#ffffff">Interval</text>
<text text-anchor="middle" x="631.9835" y="-34.7495" font-family="Arial" font-size="10.00" fill="#ffffff">Class</text>
<text text-anchor="middle" x="631.9835" y="-23.2505" font-family="Arial" font-size="10.00" fill="#ffffff">Set</text>
</a>
</g>
</g>
<!-- abjad.pitch.Set.Set -->
<g id="node2" class="node">
<title>abjad.pitch.Set.Set</title>
<g id="a_node2"><a xlink:href="../api/abjad/pitch/Set.html#abjad.pitch.Set.Set" xlink:title="Set" target="_top">
<ellipse fill="none" stroke="#fbb4ae" stroke-width="2" cx="549.6598" cy="-37" rx="21.8547" ry="13.579"/>
<text text-anchor="middle" x="549.6598" y="-34.7495" font-family="Arial" font-size="10.00" fill="#000000">Set</text>
</a>
</g>
</g>
<!-- abjad.utilities.TypedCollection.TypedCollection -->
<g id="node3" class="node">
<title>abjad.utilities.TypedCollection.TypedCollection</title>
<g id="a_node3"><a xlink:href="../api/abjad/pitch/../utilities/TypedCollection.html#abjad.utilities.TypedCollection.TypedCollection" xlink:title="Typed\nCollection" target="_top">
<path fill="#b3cde3" stroke="#b3cde3" stroke-width="2" d="M384.8933,-52.498C384.8933,-52.498 345.7349,-52.498 345.7349,-52.498 340.5689,-52.498 335.4029,-47.332 335.4029,-42.166 335.4029,-42.166 335.4029,-31.834 335.4029,-31.834 335.4029,-26.668 340.5689,-21.502 345.7349,-21.502 345.7349,-21.502 384.8933,-21.502 384.8933,-21.502 390.0593,-21.502 395.2253,-26.668 395.2253,-31.834 395.2253,-31.834 395.2253,-42.166 395.2253,-42.166 395.2253,-47.332 390.0593,-52.498 384.8933,-52.498"/>
<text text-anchor="middle" x="365.3141" y="-40.499" font-family="Arial" font-size="10.00" fill="#000000">Typed</text>
<text text-anchor="middle" x="365.3141" y="-29" font-family="Arial" font-size="10.00" fill="#000000">Collection</text>
</a>
</g>
</g>
<!-- abjad.utilities.TypedFrozenset.TypedFrozenset -->
<g id="node4" class="node">
<title>abjad.utilities.TypedFrozenset.TypedFrozenset</title>
<g id="a_node4"><a xlink:href="../api/abjad/pitch/../utilities/TypedFrozenset.html#abjad.utilities.TypedFrozenset.TypedFrozenset" xlink:title="Typed\nFrozenset" target="_top">
<path fill="#b3cde3" stroke="#b3cde3" stroke-width="2" d="M481.6338,-52.498C481.6338,-52.498 441.3685,-52.498 441.3685,-52.498 436.2025,-52.498 431.0364,-47.332 431.0364,-42.166 431.0364,-42.166 431.0364,-31.834 431.0364,-31.834 431.0364,-26.668 436.2025,-21.502 441.3685,-21.502 441.3685,-21.502 481.6338,-21.502 481.6338,-21.502 486.7998,-21.502 491.9658,-26.668 491.9658,-31.834 491.9658,-31.834 491.9658,-42.166 491.9658,-42.166 491.9658,-47.332 486.7998,-52.498 481.6338,-52.498"/>
<text text-anchor="middle" x="461.5011" y="-40.499" font-family="Arial" font-size="10.00" fill="#000000">Typed</text>
<text text-anchor="middle" x="461.5011" y="-29" font-family="Arial" font-size="10.00" fill="#000000">Frozenset</text>
</a>
</g>
</g>
<!-- builtins.object -->
<g id="node5" class="node">
<title>builtins.object</title>
<g id="a_node5"><a xlink:href="https://docs.python.org/3.6/library/functions.html#object" xlink:title="object" target="_top">
<path fill="#ccebc5" stroke="#ccebc5" stroke-width="2" d="M51.8576,-143.0056C51.8576,-143.0056 22.8269,-143.0056 22.8269,-143.0056 19.4918,-143.0056 16.1566,-139.6704 16.1566,-136.3352 16.1566,-136.3352 16.1566,-129.6648 16.1566,-129.6648 16.1566,-126.3296 19.4918,-122.9944 22.8269,-122.9944 22.8269,-122.9944 51.8576,-122.9944 51.8576,-122.9944 55.1928,-122.9944 58.528,-126.3296 58.528,-129.6648 58.528,-129.6648 58.528,-136.3352 58.528,-136.3352 58.528,-139.6704 55.1928,-143.0056 51.8576,-143.0056"/>
<text text-anchor="middle" x="37.3423" y="-130.7495" font-family="Arial" font-size="10.00" fill="#000000">object</text>
</a>
</g>
</g>
<!-- collections.abc.Collection -->
<g id="node6" class="node">
<title>collections.abc.Collection</title>
<g id="a_node6"><a xlink:href="https://docs.python.org/3.6/library/collections.abc.html#collections.abc.Collection" xlink:title="Collection" target="_top">
<ellipse fill="none" stroke="#decbe4" stroke-width="2" cx="256.995" cy="-133" rx="42.2276" ry="13.579"/>
<text text-anchor="middle" x="256.995" y="-130.7495" font-family="Arial" font-size="10.00" fill="#000000">Collection</text>
</a>
</g>
</g>
<!-- collections.abc.Container -->
<g id="node7" class="node">
<title>collections.abc.Container</title>
<g id="a_node7"><a xlink:href="https://docs.python.org/3.6/library/collections.abc.html#collections.abc.Container" xlink:title="Container" target="_top">
<ellipse fill="none" stroke="#decbe4" stroke-width="2" cx="136.658" cy="-202" rx="41.9469" ry="13.579"/>
<text text-anchor="middle" x="136.658" y="-199.7495" font-family="Arial" font-size="10.00" fill="#000000">Container</text>
</a>
</g>
</g>
<!-- collections.abc.Iterable -->
<g id="node8" class="node">
<title>collections.abc.Iterable</title>
<g id="a_node8"><a xlink:href="https://docs.python.org/3.6/library/collections.abc.html#collections.abc.Iterable" xlink:title="Iterable" target="_top">
<ellipse fill="none" stroke="#decbe4" stroke-width="2" cx="136.658" cy="-156" rx="34.7981" ry="13.579"/>
<text text-anchor="middle" x="136.658" y="-153.7495" font-family="Arial" font-size="10.00" fill="#000000">Iterable</text>
</a>
</g>
</g>
<!-- collections.abc.Set -->
<g id="node9" class="node">
<title>collections.abc.Set</title>
<g id="a_node9"><a xlink:href="https://docs.python.org/3.6/library/collections.abc.html#collections.abc.Set" xlink:title="Set" target="_top">
<ellipse fill="none" stroke="#decbe4" stroke-width="2" cx="365.3141" cy="-122" rx="21.8547" ry="13.579"/>
<text text-anchor="middle" x="365.3141" y="-119.7495" font-family="Arial" font-size="10.00" fill="#000000">Set</text>
</a>
</g>
</g>
<!-- collections.abc.Sized -->
<g id="node10" class="node">
<title>collections.abc.Sized</title>
<g id="a_node10"><a xlink:href="https://docs.python.org/3.6/library/collections.abc.html#collections.abc.Sized" xlink:title="Sized" target="_top">
<ellipse fill="none" stroke="#decbe4" stroke-width="2" cx="136.658" cy="-110" rx="29.0035" ry="13.579"/>
<text text-anchor="middle" x="136.658" y="-107.7495" font-family="Arial" font-size="10.00" fill="#000000">Sized</text>
</a>
</g>
</g>
</g>
</svg>
