<?xml version="1.0" encoding="UTF-8" standalone="no"?>
<!DOCTYPE svg PUBLIC "-//W3C//DTD SVG 1.1//EN"
 "http://www.w3.org/Graphics/SVG/1.1/DTD/svg11.dtd">
<!-- Generated by graphviz version 2.49.2 (20211016.1639)
 -->
<!-- Title: InheritanceGraph Pages: 1 -->
<svg width="209pt" height="116pt"
 viewBox="0.00 0.00 209.00 116.00" xmlns="http://www.w3.org/2000/svg" xmlns:xlink="http://www.w3.org/1999/xlink">
<g id="graph0" class="graph" transform="scale(1 1) rotate(0) translate(4 112)">
<title>InheritanceGraph</title>
<g id="clust2" class="cluster">
<title>cluster_builtins</title>
<path fill="transparent" stroke="#bcd2ee" stroke-width="2" stroke-dasharray="5,2" d="M20,-45C20,-45 55,-45 55,-45 61,-45 67,-51 67,-57 67,-57 67,-88 67,-88 67,-94 61,-100 55,-100 55,-100 20,-100 20,-100 14,-100 8,-94 8,-88 8,-88 8,-57 8,-57 8,-51 14,-45 20,-45"/>
<text text-anchor="middle" x="37.5" y="-88" font-family="Arial" font-size="10.00">builtins</text>
</g>
<g id="clust1" class="cluster">
<title>cluster_abjad.tweaks</title>
<path fill="transparent" stroke="#bcd2ee" stroke-width="2" stroke-dasharray="5,2" d="M136,-8C136,-8 187,-8 187,-8 193,-8 199,-14 199,-20 199,-20 199,-88 199,-88 199,-94 193,-100 187,-100 187,-100 136,-100 136,-100 130,-100 124,-94 124,-88 124,-88 124,-20 124,-20 124,-14 130,-8 136,-8"/>
<text text-anchor="middle" x="161.5" y="-88" font-family="Arial" font-size="10.00">abjad.tweaks</text>
</g>
<!-- builtins.object&#45;&gt;abjad.tweaks.Bundle -->
<g id="edge1" class="edge">
<title>builtins.object&#45;&gt;abjad.tweaks.Bundle</title>
<path fill="none" stroke="lightslategrey" d="M59.11,-63C77.61,-63 105.11,-63 126.72,-63"/>
<polygon fill="lightslategrey" stroke="lightslategrey" points="126.8,-66.5 136.8,-63 126.8,-59.5 126.8,-66.5"/>
</g>
<!-- builtins.object&#45;&gt;abjad.tweaks.Tweak -->
<g id="edge2" class="edge">
<title>builtins.object&#45;&gt;abjad.tweaks.Tweak</title>
<path fill="none" stroke="lightslategrey" d="M59.11,-56.72C78.16,-50.92 106.75,-42.21 128.64,-35.55"/>
<polygon fill="lightslategrey" stroke="lightslategrey" points="129.92,-38.82 138.47,-32.56 127.88,-32.12 129.92,-38.82"/>
</g>
<!-- abjad.tweaks.Bundle -->
<g id="node1" class="node">
<title>abjad.tweaks.Bundle</title>
<g id="a_node1"><a xlink:href="../api/abjad/tweaks.html#abjad.tweaks.Bundle" xlink:title="Bundle" target="_top">
<path fill="black" stroke="black" stroke-width="2" d="M178.67,-72.5C178.67,-72.5 143.33,-72.5 143.33,-72.5 140.17,-72.5 137,-69.33 137,-66.17 137,-66.17 137,-59.83 137,-59.83 137,-56.67 140.17,-53.5 143.33,-53.5 143.33,-53.5 178.67,-53.5 178.67,-53.5 181.83,-53.5 185,-56.67 185,-59.83 185,-59.83 185,-66.17 185,-66.17 185,-69.33 181.83,-72.5 178.67,-72.5"/>
<text text-anchor="middle" x="161" y="-60.5" font-family="Arial" font-size="10.00" fill="white">Bundle</text>
</a>
</g>
</g>
<!-- abjad.tweaks.Tweak -->
<g id="node2" class="node">
<title>abjad.tweaks.Tweak</title>
<g id="a_node2"><a xlink:href="../api/abjad/tweaks.html#abjad.tweaks.Tweak" xlink:title="Tweak" target="_top">
<path fill="black" stroke="black" stroke-width="2" d="M177.17,-35.5C177.17,-35.5 144.83,-35.5 144.83,-35.5 141.67,-35.5 138.5,-32.33 138.5,-29.17 138.5,-29.17 138.5,-22.83 138.5,-22.83 138.5,-19.67 141.67,-16.5 144.83,-16.5 144.83,-16.5 177.17,-16.5 177.17,-16.5 180.33,-16.5 183.5,-19.67 183.5,-22.83 183.5,-22.83 183.5,-29.17 183.5,-29.17 183.5,-32.33 180.33,-35.5 177.17,-35.5"/>
<text text-anchor="middle" x="161" y="-23.5" font-family="Arial" font-size="10.00" fill="white">Tweak</text>
</a>
</g>
</g>
<!-- builtins.object -->
<g id="node3" class="node">
<title>builtins.object</title>
<g id="a_node3"><a xlink:href="https://docs.python.org/3.10/library/functions.html#object" xlink:title="object" target="_top">
<path fill="#b3cde3" stroke="#b3cde3" stroke-width="2" d="M52.67,-72.5C52.67,-72.5 22.33,-72.5 22.33,-72.5 19.17,-72.5 16,-69.33 16,-66.17 16,-66.17 16,-59.83 16,-59.83 16,-56.67 19.17,-53.5 22.33,-53.5 22.33,-53.5 52.67,-53.5 52.67,-53.5 55.83,-53.5 59,-56.67 59,-59.83 59,-59.83 59,-66.17 59,-66.17 59,-69.33 55.83,-72.5 52.67,-72.5"/>
<text text-anchor="middle" x="37.5" y="-60.5" font-family="Arial" font-size="10.00">object</text>
</a>
</g>
</g>
</g>
</svg>
