<?xml version="1.0" encoding="UTF-8" standalone="no"?>
<!DOCTYPE svg PUBLIC "-//W3C//DTD SVG 1.1//EN"
 "http://www.w3.org/Graphics/SVG/1.1/DTD/svg11.dtd">
<!-- Generated by graphviz version 2.40.1 (20161225.0304)
 -->
<!-- Title: InheritanceGraph Pages: 1 -->
<svg width="185pt" height="79pt"
 viewBox="0.00 0.00 184.71 79.00" xmlns="http://www.w3.org/2000/svg" xmlns:xlink="http://www.w3.org/1999/xlink">
<g id="graph0" class="graph" transform="scale(1 1) rotate(0) translate(4 75)">
<title>InheritanceGraph</title>
<g id="clust1" class="cluster">
<title>cluster_abjad.pitch</title>
<path fill="transparent" stroke="#bcd2ee" stroke-width="2" stroke-dasharray="5,2" d="M98.6846,-8C98.6846,-8 156.7139,-8 156.7139,-8 162.7139,-8 168.7139,-14 168.7139,-20 168.7139,-20 168.7139,-51 168.7139,-51 168.7139,-57 162.7139,-63 156.7139,-63 156.7139,-63 98.6846,-63 98.6846,-63 92.6846,-63 86.6846,-57 86.6846,-51 86.6846,-51 86.6846,-20 86.6846,-20 86.6846,-14 92.6846,-8 98.6846,-8"/>
<text text-anchor="middle" x="127.6992" y="-51" font-family="Arial" font-size="10.00" fill="#000000">abjad.pitch</text>
</g>
<g id="clust2" class="cluster">
<title>cluster_builtins</title>
<path fill="transparent" stroke="#bcd2ee" stroke-width="2" stroke-dasharray="5,2" d="M20,-8C20,-8 54.6846,-8 54.6846,-8 60.6846,-8 66.6846,-14 66.6846,-20 66.6846,-20 66.6846,-51 66.6846,-51 66.6846,-57 60.6846,-63 54.6846,-63 54.6846,-63 20,-63 20,-63 14,-63 8,-57 8,-51 8,-51 8,-20 8,-20 8,-14 14,-8 20,-8"/>
<text text-anchor="middle" x="37.3423" y="-51" font-family="Arial" font-size="10.00" fill="#000000">builtins</text>
</g>
<!-- builtins.object&#45;&gt;abjad.pitch.Retrograde.Retrograde -->
<g id="edge1" class="edge">
<title>builtins.object&#45;&gt;abjad.pitch.Retrograde.Retrograde</title>
<path fill="none" stroke="#778899" d="M58.7556,-26C66.4075,-26 75.331,-26 84.1701,-26"/>
<polygon fill="#778899" stroke="#778899" points="84.4266,-29.5001 94.4266,-26 84.4265,-22.5001 84.4266,-29.5001"/>
</g>
<!-- abjad.pitch.Retrograde.Retrograde -->
<g id="node1" class="node">
<title>abjad.pitch.Retrograde.Retrograde</title>
<g id="a_node1"><a xlink:href="../api/abjad/pitch/Retrograde.html#abjad.pitch.Retrograde.Retrograde" xlink:title="Retrograde" target="_top">
<path fill="#000000" stroke="#000000" stroke-width="2" d="M154.0581,-36.0056C154.0581,-36.0056 101.3403,-36.0056 101.3403,-36.0056 98.0051,-36.0056 94.6699,-32.6704 94.6699,-29.3352 94.6699,-29.3352 94.6699,-22.6648 94.6699,-22.6648 94.6699,-19.3296 98.0051,-15.9944 101.3403,-15.9944 101.3403,-15.9944 154.0581,-15.9944 154.0581,-15.9944 157.3933,-15.9944 160.7285,-19.3296 160.7285,-22.6648 160.7285,-22.6648 160.7285,-29.3352 160.7285,-29.3352 160.7285,-32.6704 157.3933,-36.0056 154.0581,-36.0056"/>
<text text-anchor="middle" x="127.6992" y="-23.7495" font-family="Arial" font-size="10.00" fill="#ffffff">Retrograde</text>
</a>
</g>
</g>
<!-- builtins.object -->
<g id="node2" class="node">
<title>builtins.object</title>
<g id="a_node2"><a xlink:href="https://docs.python.org/3.6/library/functions.html#object" xlink:title="object" target="_top">
<path fill="#b3cde3" stroke="#b3cde3" stroke-width="2" d="M51.8576,-36.0056C51.8576,-36.0056 22.8269,-36.0056 22.8269,-36.0056 19.4918,-36.0056 16.1566,-32.6704 16.1566,-29.3352 16.1566,-29.3352 16.1566,-22.6648 16.1566,-22.6648 16.1566,-19.3296 19.4918,-15.9944 22.8269,-15.9944 22.8269,-15.9944 51.8576,-15.9944 51.8576,-15.9944 55.1928,-15.9944 58.528,-19.3296 58.528,-22.6648 58.528,-22.6648 58.528,-29.3352 58.528,-29.3352 58.528,-32.6704 55.1928,-36.0056 51.8576,-36.0056"/>
<text text-anchor="middle" x="37.3423" y="-23.7495" font-family="Arial" font-size="10.00" fill="#000000">object</text>
</a>
</g>
</g>
</g>
</svg>
