<?xml version="1.0" encoding="UTF-8" standalone="no"?>
<!DOCTYPE svg PUBLIC "-//W3C//DTD SVG 1.1//EN"
 "http://www.w3.org/Graphics/SVG/1.1/DTD/svg11.dtd">
<!-- Generated by graphviz version 2.40.1 (20161225.0304)
 -->
<!-- Title: InheritanceGraph Pages: 1 -->
<svg width="241pt" height="111pt"
 viewBox="0.00 0.00 241.00 111.00" xmlns="http://www.w3.org/2000/svg" xmlns:xlink="http://www.w3.org/1999/xlink">
<g id="graph0" class="graph" transform="scale(1 1) rotate(0) translate(4 107)">
<title>InheritanceGraph</title>
<g id="clust1" class="cluster">
<title>cluster_abjad.lilypondnames</title>
<path fill="transparent" stroke="#bcd2ee" stroke-width="2" stroke-dasharray="5,2" d="M93,-8C93,-8 213,-8 213,-8 219,-8 225,-14 225,-20 225,-20 225,-83 225,-83 225,-89 219,-95 213,-95 213,-95 93,-95 93,-95 87,-95 81,-89 81,-83 81,-83 81,-20 81,-20 81,-14 87,-8 93,-8"/>
<text text-anchor="middle" x="153" y="-83" font-family="Arial" font-size="10.00" fill="#000000">abjad.lilypondnames</text>
</g>
<g id="clust2" class="cluster">
<title>cluster_builtins</title>
<path fill="transparent" stroke="#bcd2ee" stroke-width="2" stroke-dasharray="5,2" d="M20,-24C20,-24 49,-24 49,-24 55,-24 61,-30 61,-36 61,-36 61,-67 61,-67 61,-73 55,-79 49,-79 49,-79 20,-79 20,-79 14,-79 8,-73 8,-67 8,-67 8,-36 8,-36 8,-30 14,-24 20,-24"/>
<text text-anchor="middle" x="34.5" y="-67" font-family="Arial" font-size="10.00" fill="#000000">builtins</text>
</g>
<!-- abjad.lilypondnames.LilyPondNameManager.LilyPondNameManager&#45;&gt;abjad.lilypondnames.LilyPondTweakManager.LilyPondTweakManager -->
<g id="edge1" class="edge">
<title>abjad.lilypondnames.LilyPondNameManager.LilyPondNameManager&#45;&gt;abjad.lilypondnames.LilyPondTweakManager.LilyPondTweakManager</title>
<path fill="none" stroke="#778899" d="M135.2786,-42C143.2229,-42 152.2664,-42 160.8355,-42"/>
<polygon fill="#778899" stroke="#778899" points="160.9471,-45.5001 170.947,-42 160.947,-38.5001 160.9471,-45.5001"/>
</g>
<!-- builtins.object&#45;&gt;abjad.lilypondnames.LilyPondNameManager.LilyPondNameManager -->
<g id="edge2" class="edge">
<title>builtins.object&#45;&gt;abjad.lilypondnames.LilyPondNameManager.LilyPondNameManager</title>
<path fill="none" stroke="#778899" d="M53.2606,-42C60.9882,-42 70.1763,-42 78.9636,-42"/>
<polygon fill="#778899" stroke="#778899" points="78.9835,-45.5001 88.9835,-42 78.9834,-38.5001 78.9835,-45.5001"/>
</g>
<!-- abjad.lilypondnames.LilyPondNameManager.LilyPondNameManager -->
<g id="node1" class="node">
<title>abjad.lilypondnames.LilyPondNameManager.LilyPondNameManager</title>
<g id="a_node1"><a xlink:href="../api/abjad/lilypondnames/LilyPondNameManager.html#abjad.lilypondnames.LilyPondNameManager.LilyPondNameManager" xlink:title="Lily\nPond\nName\nManager" target="_top">
<path fill="#fbb4ae" stroke="#fbb4ae" stroke-width="2" d="M123,-68C123,-68 101,-68 101,-68 95,-68 89,-62 89,-56 89,-56 89,-28 89,-28 89,-22 95,-16 101,-16 101,-16 123,-16 123,-16 129,-16 135,-22 135,-28 135,-28 135,-56 135,-56 135,-62 129,-68 123,-68"/>
<text text-anchor="middle" x="112" y="-56" font-family="Arial" font-size="10.00" fill="#000000">Lily</text>
<text text-anchor="middle" x="112" y="-45" font-family="Arial" font-size="10.00" fill="#000000">Pond</text>
<text text-anchor="middle" x="112" y="-34" font-family="Arial" font-size="10.00" fill="#000000">Name</text>
<text text-anchor="middle" x="112" y="-23" font-family="Arial" font-size="10.00" fill="#000000">Manager</text>
</a>
</g>
</g>
<!-- abjad.lilypondnames.LilyPondTweakManager.LilyPondTweakManager -->
<g id="node2" class="node">
<title>abjad.lilypondnames.LilyPondTweakManager.LilyPondTweakManager</title>
<g id="a_node2"><a xlink:href="../api/abjad/lilypondnames/LilyPondTweakManager.html#abjad.lilypondnames.LilyPondTweakManager.LilyPondTweakManager" xlink:title="Lily\nPond\nTweak\nManager" target="_top">
<path fill="#000000" stroke="#000000" stroke-width="2" d="M205,-68C205,-68 183,-68 183,-68 177,-68 171,-62 171,-56 171,-56 171,-28 171,-28 171,-22 177,-16 183,-16 183,-16 205,-16 205,-16 211,-16 217,-22 217,-28 217,-28 217,-56 217,-56 217,-62 211,-68 205,-68"/>
<text text-anchor="middle" x="194" y="-56" font-family="Arial" font-size="10.00" fill="#ffffff">Lily</text>
<text text-anchor="middle" x="194" y="-45" font-family="Arial" font-size="10.00" fill="#ffffff">Pond</text>
<text text-anchor="middle" x="194" y="-34" font-family="Arial" font-size="10.00" fill="#ffffff">Tweak</text>
<text text-anchor="middle" x="194" y="-23" font-family="Arial" font-size="10.00" fill="#ffffff">Manager</text>
</a>
</g>
</g>
<!-- builtins.object -->
<g id="node3" class="node">
<title>builtins.object</title>
<g id="a_node3"><a xlink:href="https://docs.python.org/3.6/library/functions.html#object" xlink:title="object" target="_top">
<path fill="#b3cde3" stroke="#b3cde3" stroke-width="2" d="M46.6667,-51.5C46.6667,-51.5 22.3333,-51.5 22.3333,-51.5 19.1667,-51.5 16,-48.3333 16,-45.1667 16,-45.1667 16,-38.8333 16,-38.8333 16,-35.6667 19.1667,-32.5 22.3333,-32.5 22.3333,-32.5 46.6667,-32.5 46.6667,-32.5 49.8333,-32.5 53,-35.6667 53,-38.8333 53,-38.8333 53,-45.1667 53,-45.1667 53,-48.3333 49.8333,-51.5 46.6667,-51.5"/>
<text text-anchor="middle" x="34.5" y="-39.5" font-family="Arial" font-size="10.00" fill="#000000">object</text>
</a>
</g>
</g>
</g>
</svg>
