<?xml version="1.0" encoding="UTF-8" standalone="no"?>
<!DOCTYPE svg PUBLIC "-//W3C//DTD SVG 1.1//EN"
 "http://www.w3.org/Graphics/SVG/1.1/DTD/svg11.dtd">
<!-- Generated by graphviz version 2.40.1 (20161225.0304)
 -->
<!-- Title: InheritanceGraph Pages: 1 -->
<svg width="183pt" height="79pt"
 viewBox="0.00 0.00 183.15 79.00" xmlns="http://www.w3.org/2000/svg" xmlns:xlink="http://www.w3.org/1999/xlink">
<g id="graph0" class="graph" transform="scale(1 1) rotate(0) translate(4 75)">
<title>InheritanceGraph</title>
<g id="clust1" class="cluster">
<title>cluster_abjad.indicators</title>
<path fill="transparent" stroke="#bcd2ee" stroke-width="2" stroke-dasharray="5,2" d="M98.6846,-8C98.6846,-8 160.1523,-8 160.1523,-8 166.1523,-8 172.1523,-14 172.1523,-20 172.1523,-20 172.1523,-51 172.1523,-51 172.1523,-57 166.1523,-63 160.1523,-63 160.1523,-63 98.6846,-63 98.6846,-63 92.6846,-63 86.6846,-57 86.6846,-51 86.6846,-51 86.6846,-20 86.6846,-20 86.6846,-14 92.6846,-8 98.6846,-8"/>
<text text-anchor="middle" x="129.4185" y="-51" font-family="Arial" font-size="10.00" fill="#000000">abjad.indicators</text>
</g>
<g id="clust2" class="cluster">
<title>cluster_builtins</title>
<path fill="transparent" stroke="#bcd2ee" stroke-width="2" stroke-dasharray="5,2" d="M20,-8C20,-8 54.6846,-8 54.6846,-8 60.6846,-8 66.6846,-14 66.6846,-20 66.6846,-20 66.6846,-51 66.6846,-51 66.6846,-57 60.6846,-63 54.6846,-63 54.6846,-63 20,-63 20,-63 14,-63 8,-57 8,-51 8,-51 8,-20 8,-20 8,-14 14,-8 20,-8"/>
<text text-anchor="middle" x="37.3423" y="-51" font-family="Arial" font-size="10.00" fill="#000000">builtins</text>
</g>
<!-- builtins.object&#45;&gt;abjad.indicators.Glissando.Glissando -->
<g id="edge1" class="edge">
<title>builtins.object&#45;&gt;abjad.indicators.Glissando.Glissando</title>
<path fill="none" stroke="#778899" d="M58.5819,-26C67.4585,-26 78.0827,-26 88.3519,-26"/>
<polygon fill="#778899" stroke="#778899" points="88.425,-29.5001 98.4249,-26 88.4249,-22.5001 88.425,-29.5001"/>
</g>
<!-- abjad.indicators.Glissando.Glissando -->
<g id="node1" class="node">
<title>abjad.indicators.Glissando.Glissando</title>
<g id="a_node1"><a xlink:href="../api/abjad/indicators/Glissando.html#abjad.indicators.Glissando.Glissando" xlink:title="Glissando" target="_top">
<path fill="#000000" stroke="#000000" stroke-width="2" d="M152.7177,-36.0056C152.7177,-36.0056 105.1192,-36.0056 105.1192,-36.0056 101.7841,-36.0056 98.4489,-32.6704 98.4489,-29.3352 98.4489,-29.3352 98.4489,-22.6648 98.4489,-22.6648 98.4489,-19.3296 101.7841,-15.9944 105.1192,-15.9944 105.1192,-15.9944 152.7177,-15.9944 152.7177,-15.9944 156.0529,-15.9944 159.3881,-19.3296 159.3881,-22.6648 159.3881,-22.6648 159.3881,-29.3352 159.3881,-29.3352 159.3881,-32.6704 156.0529,-36.0056 152.7177,-36.0056"/>
<text text-anchor="middle" x="128.9185" y="-23.7495" font-family="Arial" font-size="10.00" fill="#ffffff">Glissando</text>
</a>
</g>
</g>
<!-- builtins.object -->
<g id="node2" class="node">
<title>builtins.object</title>
<g id="a_node2"><a xlink:href="https://docs.python.org/3.9/library/functions.html#object" xlink:title="object" target="_top">
<path fill="#b3cde3" stroke="#b3cde3" stroke-width="2" d="M51.8576,-36.0056C51.8576,-36.0056 22.8269,-36.0056 22.8269,-36.0056 19.4918,-36.0056 16.1566,-32.6704 16.1566,-29.3352 16.1566,-29.3352 16.1566,-22.6648 16.1566,-22.6648 16.1566,-19.3296 19.4918,-15.9944 22.8269,-15.9944 22.8269,-15.9944 51.8576,-15.9944 51.8576,-15.9944 55.1928,-15.9944 58.528,-19.3296 58.528,-22.6648 58.528,-22.6648 58.528,-29.3352 58.528,-29.3352 58.528,-32.6704 55.1928,-36.0056 51.8576,-36.0056"/>
<text text-anchor="middle" x="37.3423" y="-23.7495" font-family="Arial" font-size="10.00" fill="#000000">object</text>
</a>
</g>
</g>
</g>
</svg>
