<?xml version="1.0" encoding="UTF-8" standalone="no"?>
<!DOCTYPE svg PUBLIC "-//W3C//DTD SVG 1.1//EN"
 "http://www.w3.org/Graphics/SVG/1.1/DTD/svg11.dtd">
<!-- Generated by graphviz version 2.40.1 (20161225.0304)
 -->
<!-- Title: InheritanceGraph Pages: 1 -->
<svg width="368pt" height="138pt"
 viewBox="0.00 0.00 368.00 138.00" xmlns="http://www.w3.org/2000/svg" xmlns:xlink="http://www.w3.org/1999/xlink">
<g id="graph0" class="graph" transform="scale(1 1) rotate(0) translate(4 134)">
<title>InheritanceGraph</title>
<g id="clust1" class="cluster">
<title>cluster_abjad.segments</title>
<path fill="transparent" stroke="#bcd2ee" stroke-width="2" stroke-dasharray="5,2" d="M303,-34C303,-34 348,-34 348,-34 354,-34 360,-40 360,-46 360,-46 360,-77 360,-77 360,-83 354,-89 348,-89 348,-89 303,-89 303,-89 297,-89 291,-83 291,-77 291,-77 291,-46 291,-46 291,-40 297,-34 303,-34"/>
<text text-anchor="middle" x="325.5" y="-77" font-family="Arial" font-size="10.00" fill="#000000">abjad.segments</text>
</g>
<g id="clust2" class="cluster">
<title>cluster_builtins</title>
<path fill="transparent" stroke="#bcd2ee" stroke-width="2" stroke-dasharray="5,2" d="M20,-34C20,-34 49,-34 49,-34 55,-34 61,-40 61,-46 61,-46 61,-77 61,-77 61,-83 55,-89 49,-89 49,-89 20,-89 20,-89 14,-89 8,-83 8,-77 8,-77 8,-46 8,-46 8,-40 14,-34 20,-34"/>
<text text-anchor="middle" x="34.5" y="-77" font-family="Arial" font-size="10.00" fill="#000000">builtins</text>
</g>
<g id="clust3" class="cluster">
<title>cluster_pathlib</title>
<path fill="transparent" stroke="#bcd2ee" stroke-width="2" stroke-dasharray="5,2" d="M93,-8C93,-8 259,-8 259,-8 265,-8 271,-14 271,-20 271,-20 271,-110 271,-110 271,-116 265,-122 259,-122 259,-122 93,-122 93,-122 87,-122 81,-116 81,-110 81,-110 81,-20 81,-20 81,-14 87,-8 93,-8"/>
<text text-anchor="middle" x="176" y="-110" font-family="Arial" font-size="10.00" fill="#000000">pathlib</text>
</g>
<!-- builtins.object&#45;&gt;pathlib.PurePath -->
<g id="edge5" class="edge">
<title>builtins.object&#45;&gt;pathlib.PurePath</title>
<path fill="none" stroke="#778899" d="M53.023,-52C60.8254,-52 70.0511,-52 78.5482,-52"/>
<polygon fill="#778899" stroke="#778899" points="78.7595,-55.5001 88.7595,-52 78.7595,-48.5001 78.7595,-55.5001"/>
</g>
<!-- pathlib.Path&#45;&gt;pathlib.PosixPath -->
<g id="edge1" class="edge">
<title>pathlib.Path&#45;&gt;pathlib.PosixPath</title>
<path fill="none" stroke="#778899" d="M190.611,-31.8998C198.7836,-34.8926 208.9338,-38.6096 218.2746,-42.0301"/>
<polygon fill="#778899" stroke="#778899" points="217.3671,-45.425 227.9608,-45.5772 219.7742,-38.8519 217.3671,-45.425"/>
</g>
<!-- pathlib.PosixPath&#45;&gt;abjad.segments.Path.Path -->
<g id="edge6" class="edge">
<title>pathlib.PosixPath&#45;&gt;abjad.segments.Path.Path</title>
<path fill="none" stroke="#778899" d="M263.1436,-52C273.5806,-52 286.9989,-52 298.669,-52"/>
<polygon fill="#778899" stroke="#778899" points="298.7592,-55.5001 308.7592,-52 298.7591,-48.5001 298.7592,-55.5001"/>
</g>
<!-- pathlib.PurePath&#45;&gt;pathlib.Path -->
<g id="edge2" class="edge">
<title>pathlib.PurePath&#45;&gt;pathlib.Path</title>
<path fill="none" stroke="#778899" d="M121.1194,-45.9697C129.3649,-42.8851 139.5972,-39.0571 148.8907,-35.5805"/>
<polygon fill="#778899" stroke="#778899" points="150.3283,-38.7796 158.468,-31.9976 147.8756,-32.2234 150.3283,-38.7796"/>
</g>
<!-- pathlib.PurePath&#45;&gt;pathlib.PurePosixPath -->
<g id="edge3" class="edge">
<title>pathlib.PurePath&#45;&gt;pathlib.PurePosixPath</title>
<path fill="none" stroke="#778899" d="M121.1194,-57.1025C128.7283,-59.5111 138.0291,-62.4553 146.7228,-65.2072"/>
<polygon fill="#778899" stroke="#778899" points="145.9216,-68.6247 156.5116,-68.3058 148.0342,-61.9511 145.9216,-68.6247"/>
</g>
<!-- pathlib.PurePosixPath&#45;&gt;pathlib.PosixPath -->
<g id="edge4" class="edge">
<title>pathlib.PurePosixPath&#45;&gt;pathlib.PosixPath</title>
<path fill="none" stroke="#778899" d="M192.0506,-68.5618C199.8426,-66.1474 209.2003,-63.2478 217.8929,-60.5543"/>
<polygon fill="#778899" stroke="#778899" points="219.1422,-63.8315 227.6582,-57.5285 217.0703,-57.1451 219.1422,-63.8315"/>
</g>
<!-- abjad.segments.Path.Path -->
<g id="node1" class="node">
<title>abjad.segments.Path.Path</title>
<g id="a_node1"><a xlink:href="../api/abjad/segments/Path.html#abjad.segments.Path.Path" xlink:title="Path" target="_top">
<path fill="#000000" stroke="#000000" stroke-width="2" d="M334.6667,-61.5C334.6667,-61.5 315.3333,-61.5 315.3333,-61.5 312.1667,-61.5 309,-58.3333 309,-55.1667 309,-55.1667 309,-48.8333 309,-48.8333 309,-45.6667 312.1667,-42.5 315.3333,-42.5 315.3333,-42.5 334.6667,-42.5 334.6667,-42.5 337.8333,-42.5 341,-45.6667 341,-48.8333 341,-48.8333 341,-55.1667 341,-55.1667 341,-58.3333 337.8333,-61.5 334.6667,-61.5"/>
<text text-anchor="middle" x="325" y="-49.5" font-family="Arial" font-size="10.00" fill="#ffffff">Path</text>
</a>
</g>
</g>
<!-- builtins.object -->
<g id="node2" class="node">
<title>builtins.object</title>
<g id="a_node2"><a xlink:href="https://docs.python.org/3.6/library/functions.html#object" xlink:title="object" target="_top">
<path fill="#b3cde3" stroke="#b3cde3" stroke-width="2" d="M46.6667,-61.5C46.6667,-61.5 22.3333,-61.5 22.3333,-61.5 19.1667,-61.5 16,-58.3333 16,-55.1667 16,-55.1667 16,-48.8333 16,-48.8333 16,-45.6667 19.1667,-42.5 22.3333,-42.5 22.3333,-42.5 46.6667,-42.5 46.6667,-42.5 49.8333,-42.5 53,-45.6667 53,-48.8333 53,-48.8333 53,-55.1667 53,-55.1667 53,-58.3333 49.8333,-61.5 46.6667,-61.5"/>
<text text-anchor="middle" x="34.5" y="-49.5" font-family="Arial" font-size="10.00" fill="#000000">object</text>
</a>
</g>
</g>
<!-- pathlib.Path -->
<g id="node3" class="node">
<title>pathlib.Path</title>
<g id="a_node3"><a xlink:href="https://docs.python.org/3.6/library/pathlib.html#pathlib.Path" xlink:title="Path" target="_top">
<path fill="#ccebc5" stroke="#ccebc5" stroke-width="2" d="M184.1667,-35.5C184.1667,-35.5 164.8333,-35.5 164.8333,-35.5 161.6667,-35.5 158.5,-32.3333 158.5,-29.1667 158.5,-29.1667 158.5,-22.8333 158.5,-22.8333 158.5,-19.6667 161.6667,-16.5 164.8333,-16.5 164.8333,-16.5 184.1667,-16.5 184.1667,-16.5 187.3333,-16.5 190.5,-19.6667 190.5,-22.8333 190.5,-22.8333 190.5,-29.1667 190.5,-29.1667 190.5,-32.3333 187.3333,-35.5 184.1667,-35.5"/>
<text text-anchor="middle" x="174.5" y="-23.5" font-family="Arial" font-size="10.00" fill="#000000">Path</text>
</a>
</g>
</g>
<!-- pathlib.PosixPath -->
<g id="node4" class="node">
<title>pathlib.PosixPath</title>
<g id="a_node4"><a xlink:href="https://docs.python.org/3.6/library/pathlib.html#pathlib.PosixPath" xlink:title="Posix\nPath" target="_top">
<path fill="#ccebc5" stroke="#ccebc5" stroke-width="2" d="M253,-67C253,-67 238,-67 238,-67 233,-67 228,-62 228,-57 228,-57 228,-47 228,-47 228,-42 233,-37 238,-37 238,-37 253,-37 253,-37 258,-37 263,-42 263,-47 263,-47 263,-57 263,-57 263,-62 258,-67 253,-67"/>
<text text-anchor="middle" x="245.5" y="-55" font-family="Arial" font-size="10.00" fill="#000000">Posix</text>
<text text-anchor="middle" x="245.5" y="-44" font-family="Arial" font-size="10.00" fill="#000000">Path</text>
</a>
</g>
</g>
<!-- pathlib.PurePath -->
<g id="node5" class="node">
<title>pathlib.PurePath</title>
<g id="a_node5"><a xlink:href="https://docs.python.org/3.6/library/pathlib.html#pathlib.PurePath" xlink:title="Pure\nPath" target="_top">
<path fill="#ccebc5" stroke="#ccebc5" stroke-width="2" d="M111,-67C111,-67 99,-67 99,-67 94,-67 89,-62 89,-57 89,-57 89,-47 89,-47 89,-42 94,-37 99,-37 99,-37 111,-37 111,-37 116,-37 121,-42 121,-47 121,-47 121,-57 121,-57 121,-62 116,-67 111,-67"/>
<text text-anchor="middle" x="105" y="-55" font-family="Arial" font-size="10.00" fill="#000000">Pure</text>
<text text-anchor="middle" x="105" y="-44" font-family="Arial" font-size="10.00" fill="#000000">Path</text>
</a>
</g>
</g>
<!-- pathlib.PurePosixPath -->
<g id="node6" class="node">
<title>pathlib.PurePosixPath</title>
<g id="a_node6"><a xlink:href="https://docs.python.org/3.6/library/pathlib.html#pathlib.PurePosixPath" xlink:title="Pure\nPosix\nPath" target="_top">
<path fill="#ccebc5" stroke="#ccebc5" stroke-width="2" d="M180.3333,-94.5C180.3333,-94.5 168.6667,-94.5 168.6667,-94.5 162.8333,-94.5 157,-88.6667 157,-82.8333 157,-82.8333 157,-65.1667 157,-65.1667 157,-59.3333 162.8333,-53.5 168.6667,-53.5 168.6667,-53.5 180.3333,-53.5 180.3333,-53.5 186.1667,-53.5 192,-59.3333 192,-65.1667 192,-65.1667 192,-82.8333 192,-82.8333 192,-88.6667 186.1667,-94.5 180.3333,-94.5"/>
<text text-anchor="middle" x="174.5" y="-82.5" font-family="Arial" font-size="10.00" fill="#000000">Pure</text>
<text text-anchor="middle" x="174.5" y="-71.5" font-family="Arial" font-size="10.00" fill="#000000">Posix</text>
<text text-anchor="middle" x="174.5" y="-60.5" font-family="Arial" font-size="10.00" fill="#000000">Path</text>
</a>
</g>
</g>
</g>
</svg>
