<?xml version="1.0" encoding="UTF-8" standalone="no"?>
<!DOCTYPE svg PUBLIC "-//W3C//DTD SVG 1.1//EN"
 "http://www.w3.org/Graphics/SVG/1.1/DTD/svg11.dtd">
<!-- Generated by graphviz version 2.40.1 (20161225.0304)
 -->
<!-- Title: InheritanceGraph Pages: 1 -->
<svg width="674pt" height="544pt"
 viewBox="0.00 0.00 674.01 544.00" xmlns="http://www.w3.org/2000/svg" xmlns:xlink="http://www.w3.org/1999/xlink">
<g id="graph0" class="graph" transform="scale(1 1) rotate(0) translate(4 540)">
<title>InheritanceGraph</title>
<g id="clust1" class="cluster">
<title>cluster_abjad.segments</title>
<path fill="transparent" stroke="#bcd2ee" stroke-width="2" stroke-dasharray="5,2" d="M397.2852,-8C397.2852,-8 646.0088,-8 646.0088,-8 652.0088,-8 658.0088,-14 658.0088,-20 658.0088,-20 658.0088,-480 658.0088,-480 658.0088,-486 652.0088,-492 646.0088,-492 646.0088,-492 397.2852,-492 397.2852,-492 391.2852,-492 385.2852,-486 385.2852,-480 385.2852,-480 385.2852,-20 385.2852,-20 385.2852,-14 391.2852,-8 397.2852,-8"/>
<text text-anchor="middle" x="521.647" y="-480" font-family="Arial" font-size="10.00" fill="#000000">abjad.segments</text>
</g>
<g id="clust2" class="cluster">
<title>cluster_builtins</title>
<path fill="transparent" stroke="#bcd2ee" stroke-width="2" stroke-dasharray="5,2" d="M20,-240C20,-240 54.6846,-240 54.6846,-240 60.6846,-240 66.6846,-246 66.6846,-252 66.6846,-252 66.6846,-283 66.6846,-283 66.6846,-289 60.6846,-295 54.6846,-295 54.6846,-295 20,-295 20,-295 14,-295 8,-289 8,-283 8,-283 8,-252 8,-252 8,-246 14,-240 20,-240"/>
<text text-anchor="middle" x="37.3423" y="-283" font-family="Arial" font-size="10.00" fill="#000000">builtins</text>
</g>
<g id="clust3" class="cluster">
<title>cluster_pathlib</title>
<path fill="transparent" stroke="#bcd2ee" stroke-width="2" stroke-dasharray="5,2" d="M98.6846,-430C98.6846,-430 353.2852,-430 353.2852,-430 359.2852,-430 365.2852,-436 365.2852,-442 365.2852,-442 365.2852,-516 365.2852,-516 365.2852,-522 359.2852,-528 353.2852,-528 353.2852,-528 98.6846,-528 98.6846,-528 92.6846,-528 86.6846,-522 86.6846,-516 86.6846,-516 86.6846,-442 86.6846,-442 86.6846,-436 92.6846,-430 98.6846,-430"/>
<text text-anchor="middle" x="225.9849" y="-516" font-family="Arial" font-size="10.00" fill="#000000">pathlib</text>
</g>
<!-- abjad.segments.ScoreTemplate.ScoreTemplate&#45;&gt;abjad.segments.GroupedRhythmicStavesScoreTemplate.GroupedRhythmicStavesScoreTemplate -->
<g id="edge1" class="edge">
<title>abjad.segments.ScoreTemplate.ScoreTemplate&#45;&gt;abjad.segments.GroupedRhythmicStavesScoreTemplate.GroupedRhythmicStavesScoreTemplate</title>
<path fill="none" stroke="#778899" d="M450.6187,-101.2285C462.3651,-93.2468 476.912,-83.3623 490.1793,-74.3471"/>
<polygon fill="#778899" stroke="#778899" points="492.3666,-77.0924 498.6707,-68.5772 488.4324,-71.3026 492.3666,-77.0924"/>
</g>
<!-- abjad.segments.ScoreTemplate.ScoreTemplate&#45;&gt;abjad.segments.GroupedStavesScoreTemplate.GroupedStavesScoreTemplate -->
<g id="edge2" class="edge">
<title>abjad.segments.ScoreTemplate.ScoreTemplate&#45;&gt;abjad.segments.GroupedStavesScoreTemplate.GroupedStavesScoreTemplate</title>
<path fill="none" stroke="#778899" d="M455.7245,-114.5447C468.4964,-113.4456 483.7716,-112.1426 497.5313,-111 526.3897,-108.6035 559.0279,-105.9788 583.6006,-104.0199"/>
<polygon fill="#778899" stroke="#778899" points="583.9127,-107.5062 593.6034,-103.2237 583.3572,-100.5282 583.9127,-107.5062"/>
</g>
<!-- abjad.segments.ScoreTemplate.ScoreTemplate&#45;&gt;abjad.segments.StringOrchestraScoreTemplate.StringOrchestraScoreTemplate -->
<g id="edge3" class="edge">
<title>abjad.segments.ScoreTemplate.ScoreTemplate&#45;&gt;abjad.segments.StringOrchestraScoreTemplate.StringOrchestraScoreTemplate</title>
<path fill="none" stroke="#778899" d="M455.5506,-125.4365C465.5538,-128.4352 477.0111,-131.8699 487.7973,-135.1034"/>
<polygon fill="#778899" stroke="#778899" points="486.8694,-138.479 497.4533,-137.9981 488.8795,-131.7739 486.8694,-138.479"/>
</g>
<!-- abjad.segments.ScoreTemplate.ScoreTemplate&#45;&gt;abjad.segments.StringQuartetScoreTemplate.StringQuartetScoreTemplate -->
<g id="edge4" class="edge">
<title>abjad.segments.ScoreTemplate.ScoreTemplate&#45;&gt;abjad.segments.StringQuartetScoreTemplate.StringQuartetScoreTemplate</title>
<path fill="none" stroke="#778899" d="M450.3492,-132.7382C454.1983,-135.677 458.0644,-138.8264 461.5313,-142 479.4181,-158.374 475.8595,-172.1195 497.5313,-183 524.0357,-196.3069 557.7732,-198.2284 583.3931,-197.143"/>
<polygon fill="#778899" stroke="#778899" points="583.7049,-200.6308 593.4802,-196.5451 583.2906,-193.6431 583.7049,-200.6308"/>
</g>
<!-- abjad.segments.ScoreTemplate.ScoreTemplate&#45;&gt;abjad.segments.TwoStaffPianoScoreTemplate.TwoStaffPianoScoreTemplate -->
<g id="edge5" class="edge">
<title>abjad.segments.ScoreTemplate.ScoreTemplate&#45;&gt;abjad.segments.TwoStaffPianoScoreTemplate.TwoStaffPianoScoreTemplate</title>
<path fill="none" stroke="#778899" d="M451.1262,-132.5929C454.8056,-135.5031 458.4142,-138.6809 461.5313,-142 462.1858,-142.697 482.9979,-175.2416 501.0681,-203.5612"/>
<polygon fill="#778899" stroke="#778899" points="498.2339,-205.6262 506.5628,-212.1744 504.1353,-201.8614 498.2339,-205.6262"/>
</g>
<!-- builtins.object&#45;&gt;abjad.segments.Job.Job -->
<g id="edge10" class="edge">
<title>builtins.object&#45;&gt;abjad.segments.Job.Job</title>
<path fill="none" stroke="#778899" d="M40.2796,-267.8459C46.2956,-286.6105 61.6045,-327.9418 86.6846,-354 121.8495,-390.5363 135.3836,-410 186.0933,-410 186.0933,-410 186.0933,-410 260.6055,-410 310.3564,-410 368.3583,-413.5946 401.1953,-415.9648"/>
<polygon fill="#778899" stroke="#778899" points="401.087,-419.4663 411.3182,-416.7147 401.6042,-412.4854 401.087,-419.4663"/>
</g>
<!-- builtins.object&#45;&gt;abjad.segments.Line.Line -->
<g id="edge11" class="edge">
<title>builtins.object&#45;&gt;abjad.segments.Line.Line</title>
<path fill="none" stroke="#778899" d="M42.8749,-267.9564C50.9746,-281.7963 67.2303,-306.9527 86.6846,-323 124.6827,-354.3437 136.8359,-372 186.0933,-372 186.0933,-372 186.0933,-372 260.6055,-372 309.5899,-372 366.5485,-375.9179 399.6347,-378.5837"/>
<polygon fill="#778899" stroke="#778899" points="399.6395,-382.096 409.894,-379.4323 400.2166,-375.1198 399.6395,-382.096"/>
</g>
<!-- builtins.object&#45;&gt;abjad.segments.Momento.Momento -->
<g id="edge12" class="edge">
<title>builtins.object&#45;&gt;abjad.segments.Momento.Momento</title>
<path fill="none" stroke="#778899" d="M47.9466,-267.9357C71.0909,-288.5364 128.6728,-334 186.0933,-334 186.0933,-334 186.0933,-334 260.6055,-334 304.3223,-334 354.3686,-337.465 388.1452,-340.3156"/>
<polygon fill="#778899" stroke="#778899" points="388.2464,-343.8375 398.5113,-341.2144 388.8511,-336.8636 388.2464,-343.8375"/>
</g>
<!-- builtins.object&#45;&gt;abjad.segments.Part.Part -->
<g id="edge13" class="edge">
<title>builtins.object&#45;&gt;abjad.segments.Part.Part</title>
<path fill="none" stroke="#778899" d="M58.585,-267.0055C87.0645,-278.2426 139.4485,-296 186.0933,-296 186.0933,-296 186.0933,-296 260.6055,-296 309.6249,-296 366.5723,-300.7886 399.6468,-304.0468"/>
<polygon fill="#778899" stroke="#778899" points="399.6008,-307.5599 409.9023,-305.0839 400.3052,-300.5954 399.6008,-307.5599"/>
</g>
<!-- builtins.object&#45;&gt;abjad.segments.PartAssignment.PartAssignment -->
<g id="edge14" class="edge">
<title>builtins.object&#45;&gt;abjad.segments.PartAssignment.PartAssignment</title>
<path fill="none" stroke="#778899" d="M59.0208,-258C87.9829,-258 140.8998,-258 186.0933,-258 186.0933,-258 186.0933,-258 260.6055,-258 302.0496,-258 349.2485,-259.8727 382.8365,-261.5257"/>
<polygon fill="#778899" stroke="#778899" points="383.0747,-265.0421 393.2388,-262.052 383.4285,-258.0511 383.0747,-265.0421"/>
</g>
<!-- builtins.object&#45;&gt;abjad.segments.PartManifest.PartManifest -->
<g id="edge15" class="edge">
<title>builtins.object&#45;&gt;abjad.segments.PartManifest.PartManifest</title>
<path fill="none" stroke="#778899" d="M59.0039,-248.075C87.5139,-235.941 139.4824,-217 186.0933,-217 186.0933,-217 186.0933,-217 260.6055,-217 305.1617,-217 356.4079,-216.2777 390.2106,-215.7012"/>
<polygon fill="#778899" stroke="#778899" points="390.6048,-219.1949 400.542,-215.5203 390.4822,-212.196 390.6048,-219.1949"/>
</g>
<!-- builtins.object&#45;&gt;abjad.segments.PersistentOverride.PersistentOverride -->
<g id="edge16" class="edge">
<title>builtins.object&#45;&gt;abjad.segments.PersistentOverride.PersistentOverride</title>
<path fill="none" stroke="#778899" d="M46.3626,-248.1347C68.057,-225.5453 125.8362,-172 186.0933,-172 186.0933,-172 186.0933,-172 260.6055,-172 303.6184,-172 352.8301,-169.9828 386.5913,-168.2877"/>
<polygon fill="#778899" stroke="#778899" points="387.176,-171.7622 396.9824,-167.7516 386.8153,-164.7715 387.176,-171.7622"/>
</g>
<!-- builtins.object&#45;&gt;abjad.segments.ScoreTemplate.ScoreTemplate -->
<g id="edge17" class="edge">
<title>builtins.object&#45;&gt;abjad.segments.ScoreTemplate.ScoreTemplate</title>
<path fill="none" stroke="#778899" d="M42.2773,-248.0034C58.3284,-217.0727 112.3054,-125 186.0933,-125 186.0933,-125 186.0933,-125 260.6055,-125 304.5557,-125 354.9451,-122.1947 388.7361,-119.9066"/>
<polygon fill="#778899" stroke="#778899" points="389.3618,-123.3716 399.0948,-119.186 388.876,-116.3885 389.3618,-123.3716"/>
</g>
<!-- builtins.object&#45;&gt;abjad.segments.Section.Section -->
<g id="edge18" class="edge">
<title>builtins.object&#45;&gt;abjad.segments.Section.Section</title>
<path fill="none" stroke="#778899" d="M39.2052,-247.9492C43.7355,-225.9564 57.1922,-172.9056 86.6846,-140 120.3851,-102.3992 135.6002,-85 186.0933,-85 186.0933,-85 186.0933,-85 260.6055,-85 306.1718,-85 358.5885,-80.8623 392.3129,-77.6624"/>
<polygon fill="#778899" stroke="#778899" points="392.9597,-81.116 402.5731,-76.6628 392.2809,-74.149 392.9597,-81.116"/>
</g>
<!-- builtins.object&#45;&gt;abjad.segments.SegmentMaker.SegmentMaker -->
<g id="edge19" class="edge">
<title>builtins.object&#45;&gt;abjad.segments.SegmentMaker.SegmentMaker</title>
<path fill="none" stroke="#778899" d="M37.8776,-248.0032C39.8239,-220.5341 48.5857,-142.7158 86.6846,-94 118.3351,-53.5294 134.716,-35 186.0933,-35 186.0933,-35 186.0933,-35 260.6055,-35 304.6485,-35 355.2142,-33.589 389.0186,-32.4431"/>
<polygon fill="#778899" stroke="#778899" points="389.5034,-35.9284 399.3755,-32.0825 389.2598,-28.9326 389.5034,-35.9284"/>
</g>
<!-- builtins.object&#45;&gt;pathlib.PurePath -->
<g id="edge20" class="edge">
<title>builtins.object&#45;&gt;pathlib.PurePath</title>
<path fill="none" stroke="#778899" d="M38.703,-267.9645C42.6841,-294.7335 56.0187,-369.8437 86.6846,-424 87.7779,-425.9308 89.0217,-427.8388 90.3602,-429.6986"/>
<polygon fill="#778899" stroke="#778899" points="87.643,-431.9047 96.6612,-437.4654 93.079,-427.4946 87.643,-431.9047"/>
</g>
<!-- pathlib.Path&#45;&gt;pathlib.PosixPath -->
<g id="edge6" class="edge">
<title>pathlib.Path&#45;&gt;pathlib.PosixPath</title>
<path fill="none" stroke="#778899" d="M204.2705,-448.4274C223.3537,-447.9604 254.2244,-447.5844 280.832,-449 289.2413,-449.4474 298.3281,-450.2687 306.6942,-451.163"/>
<polygon fill="#778899" stroke="#778899" points="306.4691,-454.6599 316.8005,-452.3122 307.26,-447.7047 306.4691,-454.6599"/>
</g>
<!-- pathlib.PosixPath&#45;&gt;abjad.segments.Path.Path -->
<g id="edge21" class="edge">
<title>pathlib.PosixPath&#45;&gt;abjad.segments.Path.Path</title>
<path fill="none" stroke="#778899" d="M357.5603,-455C369.8028,-455 385.5325,-455 398.9643,-455"/>
<polygon fill="#778899" stroke="#778899" points="399.1331,-458.5001 409.1331,-455 399.1331,-451.5001 399.1331,-458.5001"/>
</g>
<!-- pathlib.PurePath&#45;&gt;pathlib.Path -->
<g id="edge7" class="edge">
<title>pathlib.PurePath&#45;&gt;pathlib.Path</title>
<path fill="none" stroke="#778899" d="M132.006,-451.9699C139.8583,-451.5387 149.1558,-451.0282 157.8076,-450.5532"/>
<polygon fill="#778899" stroke="#778899" points="158.1072,-454.0421 167.9002,-449.999 157.7233,-447.0526 158.1072,-454.0421"/>
</g>
<!-- pathlib.PurePath&#45;&gt;pathlib.PurePosixPath -->
<g id="edge8" class="edge">
<title>pathlib.PurePath&#45;&gt;pathlib.PurePosixPath</title>
<path fill="none" stroke="#778899" d="M132.0184,-458.912C142.4651,-462.0115 155.756,-465.643 167.8076,-468 188.4376,-472.0348 211.9567,-474.8031 230.1556,-476.5535"/>
<polygon fill="#778899" stroke="#778899" points="229.9175,-480.0462 240.1939,-477.4683 230.5528,-473.0751 229.9175,-480.0462"/>
</g>
<!-- pathlib.PurePosixPath&#45;&gt;pathlib.PosixPath -->
<g id="edge9" class="edge">
<title>pathlib.PurePosixPath&#45;&gt;pathlib.PosixPath</title>
<path fill="none" stroke="#778899" d="M281.0935,-472.5684C289.0413,-470.0735 298.3036,-467.1659 306.9788,-464.4426"/>
<polygon fill="#778899" stroke="#778899" points="308.2865,-467.7006 316.7791,-461.3661 306.1899,-461.0219 308.2865,-467.7006"/>
</g>
<!-- abjad.segments.GroupedRhythmicStavesScoreTemplate.GroupedRhythmicStavesScoreTemplate -->
<g id="node1" class="node">
<title>abjad.segments.GroupedRhythmicStavesScoreTemplate.GroupedRhythmicStavesScoreTemplate</title>
<g id="a_node1"><a xlink:href="../api/abjad/segments/GroupedRhythmicStavesScoreTemplate.html#abjad.segments.GroupedRhythmicStavesScoreTemplate.GroupedRhythmicStavesScoreTemplate" xlink:title="Grouped\nRhythmic\nStaves\nScore\nTemplate" target="_top">
<path fill="#000000" stroke="#000000" stroke-width="2" d="M544.1576,-81.997C544.1576,-81.997 510.8062,-81.997 510.8062,-81.997 504.8062,-81.997 498.8062,-75.997 498.8062,-69.997 498.8062,-69.997 498.8062,-28.003 498.8062,-28.003 498.8062,-22.003 504.8062,-16.003 510.8062,-16.003 510.8062,-16.003 544.1576,-16.003 544.1576,-16.003 550.1576,-16.003 556.1576,-22.003 556.1576,-28.003 556.1576,-28.003 556.1576,-69.997 556.1576,-69.997 556.1576,-75.997 550.1576,-81.997 544.1576,-81.997"/>
<text text-anchor="middle" x="527.4819" y="-69.7476" font-family="Arial" font-size="10.00" fill="#ffffff">Grouped</text>
<text text-anchor="middle" x="527.4819" y="-58.2485" font-family="Arial" font-size="10.00" fill="#ffffff">Rhythmic</text>
<text text-anchor="middle" x="527.4819" y="-46.7495" font-family="Arial" font-size="10.00" fill="#ffffff">Staves</text>
<text text-anchor="middle" x="527.4819" y="-35.2505" font-family="Arial" font-size="10.00" fill="#ffffff">Score</text>
<text text-anchor="middle" x="527.4819" y="-23.7515" font-family="Arial" font-size="10.00" fill="#ffffff">Template</text>
</a>
</g>
</g>
<!-- abjad.segments.GroupedStavesScoreTemplate.GroupedStavesScoreTemplate -->
<g id="node2" class="node">
<title>abjad.segments.GroupedStavesScoreTemplate.GroupedStavesScoreTemplate</title>
<g id="a_node2"><a xlink:href="../api/abjad/segments/GroupedStavesScoreTemplate.html#abjad.segments.GroupedStavesScoreTemplate.GroupedStavesScoreTemplate" xlink:title="Grouped\nStaves\nScore\nTemplate" target="_top">
<path fill="#000000" stroke="#000000" stroke-width="2" d="M637.7985,-127.9961C637.7985,-127.9961 605.643,-127.9961 605.643,-127.9961 599.643,-127.9961 593.643,-121.9961 593.643,-115.9961 593.643,-115.9961 593.643,-86.0039 593.643,-86.0039 593.643,-80.0039 599.643,-74.0039 605.643,-74.0039 605.643,-74.0039 637.7985,-74.0039 637.7985,-74.0039 643.7985,-74.0039 649.7985,-80.0039 649.7985,-86.0039 649.7985,-86.0039 649.7985,-115.9961 649.7985,-115.9961 649.7985,-121.9961 643.7985,-127.9961 637.7985,-127.9961"/>
<text text-anchor="middle" x="621.7207" y="-115.998" font-family="Arial" font-size="10.00" fill="#ffffff">Grouped</text>
<text text-anchor="middle" x="621.7207" y="-104.499" font-family="Arial" font-size="10.00" fill="#ffffff">Staves</text>
<text text-anchor="middle" x="621.7207" y="-93" font-family="Arial" font-size="10.00" fill="#ffffff">Score</text>
<text text-anchor="middle" x="621.7207" y="-81.501" font-family="Arial" font-size="10.00" fill="#ffffff">Template</text>
</a>
</g>
</g>
<!-- abjad.segments.Job.Job -->
<g id="node3" class="node">
<title>abjad.segments.Job.Job</title>
<g id="a_node3"><a xlink:href="../api/abjad/segments/Job.html#abjad.segments.Job.Job" xlink:title="Job" target="_top">
<path fill="#000000" stroke="#000000" stroke-width="2" d="M436.8611,-428.0056C436.8611,-428.0056 417.9553,-428.0056 417.9553,-428.0056 414.6201,-428.0056 411.2849,-424.6704 411.2849,-421.3352 411.2849,-421.3352 411.2849,-414.6648 411.2849,-414.6648 411.2849,-411.3296 414.6201,-407.9944 417.9553,-407.9944 417.9553,-407.9944 436.8611,-407.9944 436.8611,-407.9944 440.1963,-407.9944 443.5315,-411.3296 443.5315,-414.6648 443.5315,-414.6648 443.5315,-421.3352 443.5315,-421.3352 443.5315,-424.6704 440.1963,-428.0056 436.8611,-428.0056"/>
<text text-anchor="middle" x="427.4082" y="-415.7495" font-family="Arial" font-size="10.00" fill="#ffffff">Job</text>
</a>
</g>
</g>
<!-- abjad.segments.Line.Line -->
<g id="node4" class="node">
<title>abjad.segments.Line.Line</title>
<g id="a_node4"><a xlink:href="../api/abjad/segments/Line.html#abjad.segments.Line.Line" xlink:title="Line" target="_top">
<path fill="#000000" stroke="#000000" stroke-width="2" d="M438.1442,-391.0056C438.1442,-391.0056 416.6722,-391.0056 416.6722,-391.0056 413.337,-391.0056 410.0018,-387.6704 410.0018,-384.3352 410.0018,-384.3352 410.0018,-377.6648 410.0018,-377.6648 410.0018,-374.3296 413.337,-370.9944 416.6722,-370.9944 416.6722,-370.9944 438.1442,-370.9944 438.1442,-370.9944 441.4794,-370.9944 444.8146,-374.3296 444.8146,-377.6648 444.8146,-377.6648 444.8146,-384.3352 444.8146,-384.3352 444.8146,-387.6704 441.4794,-391.0056 438.1442,-391.0056"/>
<text text-anchor="middle" x="427.4082" y="-378.7495" font-family="Arial" font-size="10.00" fill="#ffffff">Line</text>
</a>
</g>
</g>
<!-- abjad.segments.Momento.Momento -->
<g id="node5" class="node">
<title>abjad.segments.Momento.Momento</title>
<g id="a_node5"><a xlink:href="../api/abjad/segments/Momento.html#abjad.segments.Momento.Momento" xlink:title="Momento" target="_top">
<path fill="#000000" stroke="#000000" stroke-width="2" d="M449.4232,-354.0056C449.4232,-354.0056 405.3932,-354.0056 405.3932,-354.0056 402.058,-354.0056 398.7228,-350.6704 398.7228,-347.3352 398.7228,-347.3352 398.7228,-340.6648 398.7228,-340.6648 398.7228,-337.3296 402.058,-333.9944 405.3932,-333.9944 405.3932,-333.9944 449.4232,-333.9944 449.4232,-333.9944 452.7584,-333.9944 456.0936,-337.3296 456.0936,-340.6648 456.0936,-340.6648 456.0936,-347.3352 456.0936,-347.3352 456.0936,-350.6704 452.7584,-354.0056 449.4232,-354.0056"/>
<text text-anchor="middle" x="427.4082" y="-341.7495" font-family="Arial" font-size="10.00" fill="#ffffff">Momento</text>
</a>
</g>
</g>
<!-- abjad.segments.Part.Part -->
<g id="node6" class="node">
<title>abjad.segments.Part.Part</title>
<g id="a_node6"><a xlink:href="../api/abjad/segments/Part.html#abjad.segments.Part.Part" xlink:title="Part" target="_top">
<path fill="#000000" stroke="#000000" stroke-width="2" d="M438.0794,-317.0056C438.0794,-317.0056 416.737,-317.0056 416.737,-317.0056 413.4019,-317.0056 410.0667,-313.6704 410.0667,-310.3352 410.0667,-310.3352 410.0667,-303.6648 410.0667,-303.6648 410.0667,-300.3296 413.4019,-296.9944 416.737,-296.9944 416.737,-296.9944 438.0794,-296.9944 438.0794,-296.9944 441.4146,-296.9944 444.7497,-300.3296 444.7497,-303.6648 444.7497,-303.6648 444.7497,-310.3352 444.7497,-310.3352 444.7497,-313.6704 441.4146,-317.0056 438.0794,-317.0056"/>
<text text-anchor="middle" x="427.4082" y="-304.7495" font-family="Arial" font-size="10.00" fill="#ffffff">Part</text>
</a>
</g>
</g>
<!-- abjad.segments.PartAssignment.PartAssignment -->
<g id="node7" class="node">
<title>abjad.segments.PartAssignment.PartAssignment</title>
<g id="a_node7"><a xlink:href="../api/abjad/segments/PartAssignment.html#abjad.segments.PartAssignment.PartAssignment" xlink:title="Part\nAssignment" target="_top">
<path fill="#000000" stroke="#000000" stroke-width="2" d="M451.3227,-279.498C451.3227,-279.498 403.4937,-279.498 403.4937,-279.498 398.3277,-279.498 393.1617,-274.332 393.1617,-269.166 393.1617,-269.166 393.1617,-258.834 393.1617,-258.834 393.1617,-253.668 398.3277,-248.502 403.4937,-248.502 403.4937,-248.502 451.3227,-248.502 451.3227,-248.502 456.4887,-248.502 461.6547,-253.668 461.6547,-258.834 461.6547,-258.834 461.6547,-269.166 461.6547,-269.166 461.6547,-274.332 456.4887,-279.498 451.3227,-279.498"/>
<text text-anchor="middle" x="427.4082" y="-267.499" font-family="Arial" font-size="10.00" fill="#ffffff">Part</text>
<text text-anchor="middle" x="427.4082" y="-256" font-family="Arial" font-size="10.00" fill="#ffffff">Assignment</text>
</a>
</g>
</g>
<!-- abjad.segments.PartManifest.PartManifest -->
<g id="node8" class="node">
<title>abjad.segments.PartManifest.PartManifest</title>
<g id="a_node8"><a xlink:href="../api/abjad/segments/PartManifest.html#abjad.segments.PartManifest.PartManifest" xlink:title="Part\nManifest" target="_top">
<path fill="#000000" stroke="#000000" stroke-width="2" d="M443.8695,-230.498C443.8695,-230.498 410.9469,-230.498 410.9469,-230.498 405.7809,-230.498 400.6148,-225.332 400.6148,-220.166 400.6148,-220.166 400.6148,-209.834 400.6148,-209.834 400.6148,-204.668 405.7809,-199.502 410.9469,-199.502 410.9469,-199.502 443.8695,-199.502 443.8695,-199.502 449.0356,-199.502 454.2016,-204.668 454.2016,-209.834 454.2016,-209.834 454.2016,-220.166 454.2016,-220.166 454.2016,-225.332 449.0356,-230.498 443.8695,-230.498"/>
<text text-anchor="middle" x="427.4082" y="-218.499" font-family="Arial" font-size="10.00" fill="#ffffff">Part</text>
<text text-anchor="middle" x="427.4082" y="-207" font-family="Arial" font-size="10.00" fill="#ffffff">Manifest</text>
</a>
</g>
</g>
<!-- abjad.segments.Path.Path -->
<g id="node9" class="node">
<title>abjad.segments.Path.Path</title>
<g id="a_node9"><a xlink:href="../api/abjad/segments/Path.html#abjad.segments.Path.Path" xlink:title="Path" target="_top">
<path fill="#000000" stroke="#000000" stroke-width="2" d="M438.8116,-465.0056C438.8116,-465.0056 416.0048,-465.0056 416.0048,-465.0056 412.6696,-465.0056 409.3344,-461.6704 409.3344,-458.3352 409.3344,-458.3352 409.3344,-451.6648 409.3344,-451.6648 409.3344,-448.3296 412.6696,-444.9944 416.0048,-444.9944 416.0048,-444.9944 438.8116,-444.9944 438.8116,-444.9944 442.1468,-444.9944 445.482,-448.3296 445.482,-451.6648 445.482,-451.6648 445.482,-458.3352 445.482,-458.3352 445.482,-461.6704 442.1468,-465.0056 438.8116,-465.0056"/>
<text text-anchor="middle" x="427.4082" y="-452.7495" font-family="Arial" font-size="10.00" fill="#ffffff">Path</text>
</a>
</g>
</g>
<!-- abjad.segments.PersistentOverride.PersistentOverride -->
<g id="node10" class="node">
<title>abjad.segments.PersistentOverride.PersistentOverride</title>
<g id="a_node10"><a xlink:href="../api/abjad/segments/PersistentOverride.html#abjad.segments.PersistentOverride.PersistentOverride" xlink:title="Persistent\nOverride" target="_top">
<path fill="#000000" stroke="#000000" stroke-width="2" d="M447.5408,-181.498C447.5408,-181.498 407.2756,-181.498 407.2756,-181.498 402.1095,-181.498 396.9435,-176.332 396.9435,-171.166 396.9435,-171.166 396.9435,-160.834 396.9435,-160.834 396.9435,-155.668 402.1095,-150.502 407.2756,-150.502 407.2756,-150.502 447.5408,-150.502 447.5408,-150.502 452.7069,-150.502 457.8729,-155.668 457.8729,-160.834 457.8729,-160.834 457.8729,-171.166 457.8729,-171.166 457.8729,-176.332 452.7069,-181.498 447.5408,-181.498"/>
<text text-anchor="middle" x="427.4082" y="-169.499" font-family="Arial" font-size="10.00" fill="#ffffff">Persistent</text>
<text text-anchor="middle" x="427.4082" y="-158" font-family="Arial" font-size="10.00" fill="#ffffff">Override</text>
</a>
</g>
</g>
<!-- abjad.segments.ScoreTemplate.ScoreTemplate -->
<g id="node11" class="node">
<title>abjad.segments.ScoreTemplate.ScoreTemplate</title>
<g id="a_node11"><a xlink:href="../api/abjad/segments/ScoreTemplate.html#abjad.segments.ScoreTemplate.ScoreTemplate" xlink:title="Score\nTemplate" target="_top">
<path fill="#000000" stroke="#000000" stroke-width="2" d="M445.1539,-132.498C445.1539,-132.498 409.6625,-132.498 409.6625,-132.498 404.4965,-132.498 399.3305,-127.332 399.3305,-122.166 399.3305,-122.166 399.3305,-111.834 399.3305,-111.834 399.3305,-106.668 404.4965,-101.502 409.6625,-101.502 409.6625,-101.502 445.1539,-101.502 445.1539,-101.502 450.3199,-101.502 455.486,-106.668 455.486,-111.834 455.486,-111.834 455.486,-122.166 455.486,-122.166 455.486,-127.332 450.3199,-132.498 445.1539,-132.498"/>
<text text-anchor="middle" x="427.4082" y="-120.499" font-family="Arial" font-size="10.00" fill="#ffffff">Score</text>
<text text-anchor="middle" x="427.4082" y="-109" font-family="Arial" font-size="10.00" fill="#ffffff">Template</text>
</a>
</g>
</g>
<!-- abjad.segments.StringOrchestraScoreTemplate.StringOrchestraScoreTemplate -->
<g id="node12" class="node">
<title>abjad.segments.StringOrchestraScoreTemplate.StringOrchestraScoreTemplate</title>
<g id="a_node12"><a xlink:href="../api/abjad/segments/StringOrchestraScoreTemplate.html#abjad.segments.StringOrchestraScoreTemplate.StringOrchestraScoreTemplate" xlink:title="String\nOrchestra\nScore\nTemplate" target="_top">
<path fill="#000000" stroke="#000000" stroke-width="2" d="M545.3834,-173.9961C545.3834,-173.9961 509.5805,-173.9961 509.5805,-173.9961 503.5805,-173.9961 497.5805,-167.9961 497.5805,-161.9961 497.5805,-161.9961 497.5805,-132.0039 497.5805,-132.0039 497.5805,-126.0039 503.5805,-120.0039 509.5805,-120.0039 509.5805,-120.0039 545.3834,-120.0039 545.3834,-120.0039 551.3834,-120.0039 557.3834,-126.0039 557.3834,-132.0039 557.3834,-132.0039 557.3834,-161.9961 557.3834,-161.9961 557.3834,-167.9961 551.3834,-173.9961 545.3834,-173.9961"/>
<text text-anchor="middle" x="527.4819" y="-161.998" font-family="Arial" font-size="10.00" fill="#ffffff">String</text>
<text text-anchor="middle" x="527.4819" y="-150.499" font-family="Arial" font-size="10.00" fill="#ffffff">Orchestra</text>
<text text-anchor="middle" x="527.4819" y="-139" font-family="Arial" font-size="10.00" fill="#ffffff">Score</text>
<text text-anchor="middle" x="527.4819" y="-127.501" font-family="Arial" font-size="10.00" fill="#ffffff">Template</text>
</a>
</g>
</g>
<!-- abjad.segments.StringQuartetScoreTemplate.StringQuartetScoreTemplate -->
<g id="node13" class="node">
<title>abjad.segments.StringQuartetScoreTemplate.StringQuartetScoreTemplate</title>
<g id="a_node13"><a xlink:href="../api/abjad/segments/StringQuartetScoreTemplate.html#abjad.segments.StringQuartetScoreTemplate.StringQuartetScoreTemplate" xlink:title="String\nQuartet\nScore\nTemplate" target="_top">
<path fill="#000000" stroke="#000000" stroke-width="2" d="M637.7985,-219.9961C637.7985,-219.9961 605.643,-219.9961 605.643,-219.9961 599.643,-219.9961 593.643,-213.9961 593.643,-207.9961 593.643,-207.9961 593.643,-178.0039 593.643,-178.0039 593.643,-172.0039 599.643,-166.0039 605.643,-166.0039 605.643,-166.0039 637.7985,-166.0039 637.7985,-166.0039 643.7985,-166.0039 649.7985,-172.0039 649.7985,-178.0039 649.7985,-178.0039 649.7985,-207.9961 649.7985,-207.9961 649.7985,-213.9961 643.7985,-219.9961 637.7985,-219.9961"/>
<text text-anchor="middle" x="621.7207" y="-207.998" font-family="Arial" font-size="10.00" fill="#ffffff">String</text>
<text text-anchor="middle" x="621.7207" y="-196.499" font-family="Arial" font-size="10.00" fill="#ffffff">Quartet</text>
<text text-anchor="middle" x="621.7207" y="-185" font-family="Arial" font-size="10.00" fill="#ffffff">Score</text>
<text text-anchor="middle" x="621.7207" y="-173.501" font-family="Arial" font-size="10.00" fill="#ffffff">Template</text>
</a>
</g>
</g>
<!-- abjad.segments.TwoStaffPianoScoreTemplate.TwoStaffPianoScoreTemplate -->
<g id="node14" class="node">
<title>abjad.segments.TwoStaffPianoScoreTemplate.TwoStaffPianoScoreTemplate</title>
<g id="a_node14"><a xlink:href="../api/abjad/segments/TwoStaffPianoScoreTemplate.html#abjad.segments.TwoStaffPianoScoreTemplate.TwoStaffPianoScoreTemplate" xlink:title="Two\nStaff\nPiano\nScore\nTemplate" target="_top">
<path fill="#000000" stroke="#000000" stroke-width="2" d="M543.5597,-277.997C543.5597,-277.997 511.4042,-277.997 511.4042,-277.997 505.4042,-277.997 499.4042,-271.997 499.4042,-265.997 499.4042,-265.997 499.4042,-224.003 499.4042,-224.003 499.4042,-218.003 505.4042,-212.003 511.4042,-212.003 511.4042,-212.003 543.5597,-212.003 543.5597,-212.003 549.5597,-212.003 555.5597,-218.003 555.5597,-224.003 555.5597,-224.003 555.5597,-265.997 555.5597,-265.997 555.5597,-271.997 549.5597,-277.997 543.5597,-277.997"/>
<text text-anchor="middle" x="527.4819" y="-265.7476" font-family="Arial" font-size="10.00" fill="#ffffff">Two</text>
<text text-anchor="middle" x="527.4819" y="-254.2485" font-family="Arial" font-size="10.00" fill="#ffffff">Staff</text>
<text text-anchor="middle" x="527.4819" y="-242.7495" font-family="Arial" font-size="10.00" fill="#ffffff">Piano</text>
<text text-anchor="middle" x="527.4819" y="-231.2505" font-family="Arial" font-size="10.00" fill="#ffffff">Score</text>
<text text-anchor="middle" x="527.4819" y="-219.7515" font-family="Arial" font-size="10.00" fill="#ffffff">Template</text>
</a>
</g>
</g>
<!-- abjad.segments.Section.Section -->
<g id="node15" class="node">
<title>abjad.segments.Section.Section</title>
<g id="a_node15"><a xlink:href="../api/abjad/segments/Section.html#abjad.segments.Section.Section" xlink:title="Section" target="_top">
<path fill="#000000" stroke="#000000" stroke-width="2" d="M445.5936,-84.0056C445.5936,-84.0056 409.2228,-84.0056 409.2228,-84.0056 405.8876,-84.0056 402.5524,-80.6704 402.5524,-77.3352 402.5524,-77.3352 402.5524,-70.6648 402.5524,-70.6648 402.5524,-67.3296 405.8876,-63.9944 409.2228,-63.9944 409.2228,-63.9944 445.5936,-63.9944 445.5936,-63.9944 448.9288,-63.9944 452.264,-67.3296 452.264,-70.6648 452.264,-70.6648 452.264,-77.3352 452.264,-77.3352 452.264,-80.6704 448.9288,-84.0056 445.5936,-84.0056"/>
<text text-anchor="middle" x="427.4082" y="-71.7495" font-family="Arial" font-size="10.00" fill="#ffffff">Section</text>
</a>
</g>
</g>
<!-- abjad.segments.SegmentMaker.SegmentMaker -->
<g id="node16" class="node">
<title>abjad.segments.SegmentMaker.SegmentMaker</title>
<g id="a_node16"><a xlink:href="../api/abjad/segments/SegmentMaker.html#abjad.segments.SegmentMaker.SegmentMaker" xlink:title="Segment\nMaker" target="_top">
<path fill="#000000" stroke="#000000" stroke-width="2" d="M445.1006,-46.498C445.1006,-46.498 409.7158,-46.498 409.7158,-46.498 404.5498,-46.498 399.3838,-41.332 399.3838,-36.166 399.3838,-36.166 399.3838,-25.834 399.3838,-25.834 399.3838,-20.668 404.5498,-15.502 409.7158,-15.502 409.7158,-15.502 445.1006,-15.502 445.1006,-15.502 450.2666,-15.502 455.4326,-20.668 455.4326,-25.834 455.4326,-25.834 455.4326,-36.166 455.4326,-36.166 455.4326,-41.332 450.2666,-46.498 445.1006,-46.498"/>
<text text-anchor="middle" x="427.4082" y="-34.499" font-family="Arial" font-size="10.00" fill="#ffffff">Segment</text>
<text text-anchor="middle" x="427.4082" y="-23" font-family="Arial" font-size="10.00" fill="#ffffff">Maker</text>
</a>
</g>
</g>
<!-- builtins.object -->
<g id="node17" class="node">
<title>builtins.object</title>
<g id="a_node17"><a xlink:href="https://docs.python.org/3.6/library/functions.html#object" xlink:title="object" target="_top">
<path fill="#b3cde3" stroke="#b3cde3" stroke-width="2" d="M51.8576,-268.0056C51.8576,-268.0056 22.8269,-268.0056 22.8269,-268.0056 19.4918,-268.0056 16.1566,-264.6704 16.1566,-261.3352 16.1566,-261.3352 16.1566,-254.6648 16.1566,-254.6648 16.1566,-251.3296 19.4918,-247.9944 22.8269,-247.9944 22.8269,-247.9944 51.8576,-247.9944 51.8576,-247.9944 55.1928,-247.9944 58.528,-251.3296 58.528,-254.6648 58.528,-254.6648 58.528,-261.3352 58.528,-261.3352 58.528,-264.6704 55.1928,-268.0056 51.8576,-268.0056"/>
<text text-anchor="middle" x="37.3423" y="-255.7495" font-family="Arial" font-size="10.00" fill="#000000">object</text>
</a>
</g>
</g>
<!-- pathlib.Path -->
<g id="node18" class="node">
<title>pathlib.Path</title>
<g id="a_node18"><a xlink:href="https://docs.python.org/3.6/library/pathlib.html#pathlib.Path" xlink:title="Path" target="_top">
<path fill="#ccebc5" stroke="#ccebc5" stroke-width="2" d="M197.4966,-459.0056C197.4966,-459.0056 174.6899,-459.0056 174.6899,-459.0056 171.3547,-459.0056 168.0195,-455.6704 168.0195,-452.3352 168.0195,-452.3352 168.0195,-445.6648 168.0195,-445.6648 168.0195,-442.3296 171.3547,-438.9944 174.6899,-438.9944 174.6899,-438.9944 197.4966,-438.9944 197.4966,-438.9944 200.8318,-438.9944 204.167,-442.3296 204.167,-445.6648 204.167,-445.6648 204.167,-452.3352 204.167,-452.3352 204.167,-455.6704 200.8318,-459.0056 197.4966,-459.0056"/>
<text text-anchor="middle" x="186.0933" y="-446.7495" font-family="Arial" font-size="10.00" fill="#000000">Path</text>
</a>
</g>
</g>
<!-- pathlib.PosixPath -->
<g id="node19" class="node">
<title>pathlib.PosixPath</title>
<g id="a_node19"><a xlink:href="https://docs.python.org/3.6/library/pathlib.html#pathlib.PosixPath" xlink:title="Posix\nPath" target="_top">
<path fill="#ccebc5" stroke="#ccebc5" stroke-width="2" d="M347.1823,-470.498C347.1823,-470.498 326.9349,-470.498 326.9349,-470.498 321.7689,-470.498 316.6029,-465.332 316.6029,-460.166 316.6029,-460.166 316.6029,-449.834 316.6029,-449.834 316.6029,-444.668 321.7689,-439.502 326.9349,-439.502 326.9349,-439.502 347.1823,-439.502 347.1823,-439.502 352.3483,-439.502 357.5143,-444.668 357.5143,-449.834 357.5143,-449.834 357.5143,-460.166 357.5143,-460.166 357.5143,-465.332 352.3483,-470.498 347.1823,-470.498"/>
<text text-anchor="middle" x="337.0586" y="-458.499" font-family="Arial" font-size="10.00" fill="#000000">Posix</text>
<text text-anchor="middle" x="337.0586" y="-447" font-family="Arial" font-size="10.00" fill="#000000">Path</text>
</a>
</g>
</g>
<!-- pathlib.PurePath -->
<g id="node20" class="node">
<title>pathlib.PurePath</title>
<g id="a_node20"><a xlink:href="https://docs.python.org/3.6/library/pathlib.html#pathlib.PurePath" xlink:title="Pure\nPath" target="_top">
<path fill="#ccebc5" stroke="#ccebc5" stroke-width="2" d="M121.5373,-468.498C121.5373,-468.498 104.9549,-468.498 104.9549,-468.498 99.7889,-468.498 94.6228,-463.332 94.6228,-458.166 94.6228,-458.166 94.6228,-447.834 94.6228,-447.834 94.6228,-442.668 99.7889,-437.502 104.9549,-437.502 104.9549,-437.502 121.5373,-437.502 121.5373,-437.502 126.7033,-437.502 131.8693,-442.668 131.8693,-447.834 131.8693,-447.834 131.8693,-458.166 131.8693,-458.166 131.8693,-463.332 126.7033,-468.498 121.5373,-468.498"/>
<text text-anchor="middle" x="113.2461" y="-456.499" font-family="Arial" font-size="10.00" fill="#000000">Pure</text>
<text text-anchor="middle" x="113.2461" y="-445" font-family="Arial" font-size="10.00" fill="#000000">Path</text>
</a>
</g>
</g>
<!-- pathlib.PurePosixPath -->
<g id="node21" class="node">
<title>pathlib.PurePosixPath</title>
<g id="a_node21"><a xlink:href="https://docs.python.org/3.6/library/pathlib.html#pathlib.PurePosixPath" xlink:title="Pure\nPosix\nPath" target="_top">
<path fill="#ccebc5" stroke="#ccebc5" stroke-width="2" d="M269.0612,-500.5C269.0612,-500.5 252.1498,-500.5 252.1498,-500.5 246.1498,-500.5 240.1498,-494.5 240.1498,-488.5 240.1498,-488.5 240.1498,-469.5 240.1498,-469.5 240.1498,-463.5 246.1498,-457.5 252.1498,-457.5 252.1498,-457.5 269.0612,-457.5 269.0612,-457.5 275.0612,-457.5 281.0612,-463.5 281.0612,-469.5 281.0612,-469.5 281.0612,-488.5 281.0612,-488.5 281.0612,-494.5 275.0612,-500.5 269.0612,-500.5"/>
<text text-anchor="middle" x="260.6055" y="-488.2485" font-family="Arial" font-size="10.00" fill="#000000">Pure</text>
<text text-anchor="middle" x="260.6055" y="-476.7495" font-family="Arial" font-size="10.00" fill="#000000">Posix</text>
<text text-anchor="middle" x="260.6055" y="-465.2505" font-family="Arial" font-size="10.00" fill="#000000">Path</text>
</a>
</g>
</g>
</g>
</svg>
