<?xml version="1.0" encoding="UTF-8" standalone="no"?>
<!DOCTYPE svg PUBLIC "-//W3C//DTD SVG 1.1//EN"
 "http://www.w3.org/Graphics/SVG/1.1/DTD/svg11.dtd">
<!-- Generated by graphviz version 2.40.1 (20161225.0304)
 -->
<!-- Title: InheritanceGraph Pages: 1 -->
<svg width="805pt" height="788pt"
 viewBox="0.00 0.00 804.71 788.00" xmlns="http://www.w3.org/2000/svg" xmlns:xlink="http://www.w3.org/1999/xlink">
<g id="graph0" class="graph" transform="scale(1 1) rotate(0) translate(4 784)">
<title>InheritanceGraph</title>
<g id="clust1" class="cluster">
<title>cluster_abjad.parsers.base</title>
<path fill="transparent" stroke="#bcd2ee" stroke-width="2" stroke-dasharray="5,2" d="M98.6846,-618C98.6846,-618 175.1377,-618 175.1377,-618 181.1377,-618 187.1377,-624 187.1377,-630 187.1377,-630 187.1377,-661 187.1377,-661 187.1377,-667 181.1377,-673 175.1377,-673 175.1377,-673 98.6846,-673 98.6846,-673 92.6846,-673 86.6846,-667 86.6846,-661 86.6846,-661 86.6846,-630 86.6846,-630 86.6846,-624 92.6846,-618 98.6846,-618"/>
<text text-anchor="middle" x="136.9111" y="-661" font-family="Arial" font-size="10.00" fill="#000000">abjad.parsers.base</text>
</g>
<g id="clust2" class="cluster">
<title>cluster_abjad.parsers.parser</title>
<path fill="transparent" stroke="#bcd2ee" stroke-width="2" stroke-dasharray="5,2" d="M350.5908,-8C350.5908,-8 776.7129,-8 776.7129,-8 782.7129,-8 788.7129,-14 788.7129,-20 788.7129,-20 788.7129,-606 788.7129,-606 788.7129,-612 782.7129,-618 776.7129,-618 776.7129,-618 350.5908,-618 350.5908,-618 344.5908,-618 338.5908,-612 338.5908,-606 338.5908,-606 338.5908,-20 338.5908,-20 338.5908,-14 344.5908,-8 350.5908,-8"/>
<text text-anchor="middle" x="563.6519" y="-606" font-family="Arial" font-size="10.00" fill="#000000">abjad.parsers.parser</text>
</g>
<g id="clust3" class="cluster">
<title>cluster_abjad.parsers.reduced</title>
<path fill="transparent" stroke="#bcd2ee" stroke-width="2" stroke-dasharray="5,2" d="M333.7534,-656C333.7534,-656 424.7827,-656 424.7827,-656 430.7827,-656 436.7827,-662 436.7827,-668 436.7827,-668 436.7827,-722 436.7827,-722 436.7827,-728 430.7827,-734 424.7827,-734 424.7827,-734 333.7534,-734 333.7534,-734 327.7534,-734 321.7534,-728 321.7534,-722 321.7534,-722 321.7534,-668 321.7534,-668 321.7534,-662 327.7534,-656 333.7534,-656"/>
<text text-anchor="middle" x="379.2681" y="-722" font-family="Arial" font-size="10.00" fill="#000000">abjad.parsers.reduced</text>
</g>
<g id="clust4" class="cluster">
<title>cluster_abjad.parsers.scheme</title>
<path fill="transparent" stroke="#bcd2ee" stroke-width="2" stroke-dasharray="5,2" d="M474.061,-626C474.061,-626 563.7456,-626 563.7456,-626 569.7456,-626 575.7456,-632 575.7456,-638 575.7456,-638 575.7456,-680 575.7456,-680 575.7456,-686 569.7456,-692 563.7456,-692 563.7456,-692 474.061,-692 474.061,-692 468.061,-692 462.061,-686 462.061,-680 462.061,-680 462.061,-638 462.061,-638 462.061,-632 468.061,-626 474.061,-626"/>
<text text-anchor="middle" x="518.9033" y="-680" font-family="Arial" font-size="10.00" fill="#000000">abjad.parsers.scheme</text>
</g>
<g id="clust5" class="cluster">
<title>cluster_abjad.rhythmtrees</title>
<path fill="transparent" stroke="#bcd2ee" stroke-width="2" stroke-dasharray="5,2" d="M219.1377,-694C219.1377,-694 290.5908,-694 290.5908,-694 296.5908,-694 302.5908,-700 302.5908,-706 302.5908,-706 302.5908,-760 302.5908,-760 302.5908,-766 296.5908,-772 290.5908,-772 290.5908,-772 219.1377,-772 219.1377,-772 213.1377,-772 207.1377,-766 207.1377,-760 207.1377,-760 207.1377,-706 207.1377,-706 207.1377,-700 213.1377,-694 219.1377,-694"/>
<text text-anchor="middle" x="254.8643" y="-760" font-family="Arial" font-size="10.00" fill="#000000">abjad.rhythmtrees</text>
</g>
<g id="clust6" class="cluster">
<title>cluster_builtins</title>
<path fill="transparent" stroke="#bcd2ee" stroke-width="2" stroke-dasharray="5,2" d="M20,-288C20,-288 54.6846,-288 54.6846,-288 60.6846,-288 66.6846,-294 66.6846,-300 66.6846,-300 66.6846,-331 66.6846,-331 66.6846,-337 60.6846,-343 54.6846,-343 54.6846,-343 20,-343 20,-343 14,-343 8,-337 8,-331 8,-331 8,-300 8,-300 8,-294 14,-288 20,-288"/>
<text text-anchor="middle" x="37.3423" y="-331" font-family="Arial" font-size="10.00" fill="#000000">builtins</text>
</g>
<!-- abjad.parsers.base.Parser&#45;&gt;abjad.parsers.parser.LilyPondParser -->
<g id="edge4" class="edge">
<title>abjad.parsers.base.Parser&#45;&gt;abjad.parsers.parser.LilyPondParser</title>
<path fill="none" stroke="#778899" d="M159.2115,-629.6968C202.4256,-617.7502 296.3775,-591.777 346.2113,-578.0004"/>
<polygon fill="#778899" stroke="#778899" points="347.1459,-581.3734 355.8517,-575.3353 345.2806,-574.6264 347.1459,-581.3734"/>
</g>
<!-- abjad.parsers.base.Parser&#45;&gt;abjad.parsers.reduced.ReducedLyParser -->
<g id="edge5" class="edge">
<title>abjad.parsers.base.Parser&#45;&gt;abjad.parsers.reduced.ReducedLyParser</title>
<path fill="none" stroke="#778899" d="M159.2115,-640.6098C200.8822,-649.0348 289.7314,-666.9985 340.7074,-677.3049"/>
<polygon fill="#778899" stroke="#778899" points="340.1808,-680.7691 350.6761,-679.3203 341.5681,-673.908 340.1808,-680.7691"/>
</g>
<!-- abjad.parsers.base.Parser&#45;&gt;abjad.parsers.scheme.SchemeParser -->
<g id="edge6" class="edge">
<title>abjad.parsers.base.Parser&#45;&gt;abjad.parsers.scheme.SchemeParser</title>
<path fill="none" stroke="#778899" d="M159.1625,-636.7743C222.9009,-638.9434 403.6431,-645.0945 481.7276,-647.7518"/>
<polygon fill="#778899" stroke="#778899" points="481.9282,-651.2606 492.0415,-648.1029 482.1664,-644.2647 481.9282,-651.2606"/>
</g>
<!-- abjad.parsers.base.Parser&#45;&gt;abjad.rhythmtrees.RhythmTreeParser -->
<g id="edge7" class="edge">
<title>abjad.parsers.base.Parser&#45;&gt;abjad.rhythmtrees.RhythmTreeParser</title>
<path fill="none" stroke="#778899" d="M149.9419,-645.98C167.0802,-658.6209 197.2099,-680.8441 220.7143,-698.1804"/>
<polygon fill="#778899" stroke="#778899" points="218.9124,-701.2004 229.0377,-704.3196 223.0675,-695.567 218.9124,-701.2004"/>
</g>
<!-- abjad.parsers.parser.Music&#45;&gt;abjad.parsers.parser.ContextSpeccedMusic -->
<g id="edge1" class="edge">
<title>abjad.parsers.parser.Music&#45;&gt;abjad.parsers.parser.ContextSpeccedMusic</title>
<path fill="none" stroke="#778899" d="M399.9757,-68.3805C421.4614,-62.6873 455.1401,-53.7632 481.0985,-46.8849"/>
<polygon fill="#778899" stroke="#778899" points="482.2113,-50.2109 490.9812,-44.2662 480.4183,-43.4444 482.2113,-50.2109"/>
</g>
<!-- abjad.parsers.parser.Music&#45;&gt;abjad.parsers.parser.SequentialMusic -->
<g id="edge2" class="edge">
<title>abjad.parsers.parser.Music&#45;&gt;abjad.parsers.parser.SequentialMusic</title>
<path fill="none" stroke="#778899" d="M399.8587,-73.6727C442.324,-73.0136 538.8266,-71.5158 594.5922,-70.6503"/>
<polygon fill="#778899" stroke="#778899" points="594.8969,-74.1461 604.8413,-70.4912 594.7882,-67.1469 594.8969,-74.1461"/>
</g>
<!-- abjad.parsers.parser.Music&#45;&gt;abjad.parsers.parser.SimultaneousMusic -->
<g id="edge3" class="edge">
<title>abjad.parsers.parser.Music&#45;&gt;abjad.parsers.parser.SimultaneousMusic</title>
<path fill="none" stroke="#778899" d="M399.955,-75.9857C439.9767,-79.7118 529.447,-87.9236 604.8613,-94 634.4647,-96.3852 667.6733,-98.8067 694.0441,-100.6692"/>
<polygon fill="#778899" stroke="#778899" points="693.9391,-104.1704 704.1599,-101.38 694.4298,-97.1876 693.9391,-104.1704"/>
</g>
<!-- builtins.object&#45;&gt;abjad.parsers.base.Parser -->
<g id="edge8" class="edge">
<title>builtins.object&#45;&gt;abjad.parsers.base.Parser</title>
<path fill="none" stroke="#778899" d="M39.2291,-315.8996C45.0064,-345.6463 63.4793,-436.7015 86.6846,-510 98.9196,-548.6468 117.2233,-592.3755 127.876,-616.8204"/>
<polygon fill="#778899" stroke="#778899" points="124.7032,-618.3003 131.9329,-626.0451 131.1109,-615.4822 124.7032,-618.3003"/>
</g>
<!-- builtins.object&#45;&gt;abjad.parsers.parser.GuileProxy -->
<g id="edge9" class="edge">
<title>builtins.object&#45;&gt;abjad.parsers.parser.GuileProxy</title>
<path fill="none" stroke="#778899" d="M40.3882,-315.968C46.4001,-334.0849 61.4434,-372.6046 86.6846,-395 165.3438,-464.7909 290.3626,-496.8401 347.9172,-508.4974"/>
<polygon fill="#778899" stroke="#778899" points="347.3664,-511.9559 357.8524,-510.4413 348.7105,-505.0862 347.3664,-511.9559"/>
</g>
<!-- builtins.object&#45;&gt;abjad.parsers.parser.LilyPondDuration -->
<g id="edge10" class="edge">
<title>builtins.object&#45;&gt;abjad.parsers.parser.LilyPondDuration</title>
<path fill="none" stroke="#778899" d="M44.644,-315.9832C53.4468,-327.3701 69.2477,-345.8494 86.6846,-357 169.7532,-410.121 283.8803,-439.507 341.8076,-451.8826"/>
<polygon fill="#778899" stroke="#778899" points="341.4458,-455.3824 351.9497,-453.9974 342.8747,-448.5298 341.4458,-455.3824"/>
</g>
<!-- builtins.object&#45;&gt;abjad.parsers.parser.LilyPondEvent -->
<g id="edge11" class="edge">
<title>builtins.object&#45;&gt;abjad.parsers.parser.LilyPondEvent</title>
<path fill="none" stroke="#778899" d="M56.1851,-315.8719C65.2315,-320.3272 76.3331,-325.3882 86.6846,-329 179.6908,-361.4509 294.4805,-384.1261 348.2614,-393.7827"/>
<polygon fill="#778899" stroke="#778899" points="347.7224,-397.2417 358.1796,-395.5395 348.9433,-390.349 347.7224,-397.2417"/>
</g>
<!-- builtins.object&#45;&gt;abjad.parsers.parser.LilyPondFraction -->
<g id="edge12" class="edge">
<title>builtins.object&#45;&gt;abjad.parsers.parser.LilyPondFraction</title>
<path fill="none" stroke="#778899" d="M58.7,-308.0643C115.494,-313.5536 270.7664,-328.5613 342.076,-335.4536"/>
<polygon fill="#778899" stroke="#778899" points="342.0791,-338.9701 352.3695,-336.4485 342.7526,-332.0026 342.0791,-338.9701"/>
</g>
<!-- builtins.object&#45;&gt;abjad.parsers.parser.LilyPondGrammarGenerator -->
<g id="edge13" class="edge">
<title>builtins.object&#45;&gt;abjad.parsers.parser.LilyPondGrammarGenerator</title>
<path fill="none" stroke="#778899" d="M58.7,-303.9357C114.4279,-298.5494 264.9717,-283.9988 337.9726,-276.943"/>
<polygon fill="#778899" stroke="#778899" points="338.5432,-280.4043 348.1601,-275.9584 337.8697,-273.4367 338.5432,-280.4043"/>
</g>
<!-- builtins.object&#45;&gt;abjad.parsers.parser.LilyPondLexicalDefinition -->
<g id="edge14" class="edge">
<title>builtins.object&#45;&gt;abjad.parsers.parser.LilyPondLexicalDefinition</title>
<path fill="none" stroke="#778899" d="M58.8204,-297.2935C67.4263,-293.9196 77.4697,-290.125 86.6846,-287 176.4628,-256.5538 283.7961,-226.5602 340.0293,-211.3267"/>
<polygon fill="#778899" stroke="#778899" points="341.1765,-214.6424 349.9189,-208.6572 339.3523,-207.8842 341.1765,-214.6424"/>
</g>
<!-- builtins.object&#45;&gt;abjad.parsers.parser.LilyPondSyntacticalDefinition -->
<g id="edge15" class="edge">
<title>builtins.object&#45;&gt;abjad.parsers.parser.LilyPondSyntacticalDefinition</title>
<path fill="none" stroke="#778899" d="M44.3344,-296.0263C53.0742,-284.1758 69.0452,-264.4472 86.6846,-252 166.7923,-195.4722 276.8948,-158.0444 336.4236,-140.5149"/>
<polygon fill="#778899" stroke="#778899" points="337.6011,-143.8177 346.2317,-137.6725 335.6526,-137.0943 337.6011,-143.8177"/>
</g>
<!-- builtins.object&#45;&gt;abjad.parsers.parser.Music -->
<g id="edge16" class="edge">
<title>builtins.object&#45;&gt;abjad.parsers.parser.Music</title>
<path fill="none" stroke="#778899" d="M39.0903,-296.1472C43.3915,-274.6319 56.4196,-222.9792 86.6846,-193 161.3938,-118.9962 288.389,-89.055 347.1776,-78.7138"/>
<polygon fill="#778899" stroke="#778899" points="348.0526,-82.1159 357.333,-77.0048 346.8908,-75.213 348.0526,-82.1159"/>
</g>
<!-- builtins.object&#45;&gt;abjad.parsers.parser.SyntaxNode -->
<g id="edge17" class="edge">
<title>builtins.object&#45;&gt;abjad.parsers.parser.SyntaxNode</title>
<path fill="none" stroke="#778899" d="M38.8005,-295.94C43.9656,-261.5964 62.3916,-149.6897 86.6846,-124 156.5339,-50.1347 284.7799,-34.7223 345.3757,-31.6569"/>
<polygon fill="#778899" stroke="#778899" points="345.688,-35.147 355.5315,-31.2283 345.3928,-28.1532 345.688,-35.147"/>
</g>
<!-- abjad.parsers.base.Parser -->
<g id="node1" class="node">
<title>abjad.parsers.base.Parser</title>
<g id="a_node1"><a xlink:href="../api/abjad/parsers/base.html#abjad.parsers.base.Parser" xlink:title="Parser" target="_top">
<path fill="#fbb4ae" stroke="#fbb4ae" stroke-width="2" d="M152.6962,-646.0056C152.6962,-646.0056 120.1261,-646.0056 120.1261,-646.0056 116.7909,-646.0056 113.4557,-642.6704 113.4557,-639.3352 113.4557,-639.3352 113.4557,-632.6648 113.4557,-632.6648 113.4557,-629.3296 116.7909,-625.9944 120.1261,-625.9944 120.1261,-625.9944 152.6962,-625.9944 152.6962,-625.9944 156.0313,-625.9944 159.3665,-629.3296 159.3665,-632.6648 159.3665,-632.6648 159.3665,-639.3352 159.3665,-639.3352 159.3665,-642.6704 156.0313,-646.0056 152.6962,-646.0056"/>
<text text-anchor="middle" x="136.4111" y="-633.7495" font-family="Arial" font-size="10.00" fill="#000000">Parser</text>
</a>
</g>
</g>
<!-- abjad.parsers.parser.ContextSpeccedMusic -->
<g id="node2" class="node">
<title>abjad.parsers.parser.ContextSpeccedMusic</title>
<g id="a_node2"><a xlink:href="../api/abjad/parsers/parser.html#abjad.parsers.parser.ContextSpeccedMusic" xlink:title="Context\nSpecced\nMusic" target="_top">
<path fill="#b3cde3" stroke="#b3cde3" stroke-width="2" d="M533.8194,-58.5C533.8194,-58.5 502.9872,-58.5 502.9872,-58.5 496.9872,-58.5 490.9872,-52.5 490.9872,-46.5 490.9872,-46.5 490.9872,-27.5 490.9872,-27.5 490.9872,-21.5 496.9872,-15.5 502.9872,-15.5 502.9872,-15.5 533.8194,-15.5 533.8194,-15.5 539.8194,-15.5 545.8194,-21.5 545.8194,-27.5 545.8194,-27.5 545.8194,-46.5 545.8194,-46.5 545.8194,-52.5 539.8194,-58.5 533.8194,-58.5"/>
<text text-anchor="middle" x="518.4033" y="-46.2485" font-family="Arial" font-size="10.00" fill="#000000">Context</text>
<text text-anchor="middle" x="518.4033" y="-34.7495" font-family="Arial" font-size="10.00" fill="#000000">Specced</text>
<text text-anchor="middle" x="518.4033" y="-23.2505" font-family="Arial" font-size="10.00" fill="#000000">Music</text>
</a>
</g>
</g>
<!-- abjad.parsers.parser.GuileProxy -->
<g id="node3" class="node">
<title>abjad.parsers.parser.GuileProxy</title>
<g id="a_node3"><a xlink:href="../api/abjad/parsers/parser.html#abjad.parsers.parser.GuileProxy" xlink:title="Guile\nProxy" target="_top">
<path fill="#b3cde3" stroke="#b3cde3" stroke-width="2" d="M388.9998,-529.498C388.9998,-529.498 368.5363,-529.498 368.5363,-529.498 363.3703,-529.498 358.2043,-524.332 358.2043,-519.166 358.2043,-519.166 358.2043,-508.834 358.2043,-508.834 358.2043,-503.668 363.3703,-498.502 368.5363,-498.502 368.5363,-498.502 388.9998,-498.502 388.9998,-498.502 394.1659,-498.502 399.3319,-503.668 399.3319,-508.834 399.3319,-508.834 399.3319,-519.166 399.3319,-519.166 399.3319,-524.332 394.1659,-529.498 388.9998,-529.498"/>
<text text-anchor="middle" x="378.7681" y="-517.499" font-family="Arial" font-size="10.00" fill="#000000">Guile</text>
<text text-anchor="middle" x="378.7681" y="-506" font-family="Arial" font-size="10.00" fill="#000000">Proxy</text>
</a>
</g>
</g>
<!-- abjad.parsers.parser.LilyPondDuration -->
<g id="node4" class="node">
<title>abjad.parsers.parser.LilyPondDuration</title>
<g id="a_node4"><a xlink:href="../api/abjad/parsers/parser.html#abjad.parsers.parser.LilyPondDuration" xlink:title="Lily\nPond\nDuration" target="_top">
<path fill="#b3cde3" stroke="#b3cde3" stroke-width="2" d="M393.5663,-480.5C393.5663,-480.5 363.9698,-480.5 363.9698,-480.5 357.9698,-480.5 351.9698,-474.5 351.9698,-468.5 351.9698,-468.5 351.9698,-449.5 351.9698,-449.5 351.9698,-443.5 357.9698,-437.5 363.9698,-437.5 363.9698,-437.5 393.5663,-437.5 393.5663,-437.5 399.5663,-437.5 405.5663,-443.5 405.5663,-449.5 405.5663,-449.5 405.5663,-468.5 405.5663,-468.5 405.5663,-474.5 399.5663,-480.5 393.5663,-480.5"/>
<text text-anchor="middle" x="378.7681" y="-468.2485" font-family="Arial" font-size="10.00" fill="#000000">Lily</text>
<text text-anchor="middle" x="378.7681" y="-456.7495" font-family="Arial" font-size="10.00" fill="#000000">Pond</text>
<text text-anchor="middle" x="378.7681" y="-445.2505" font-family="Arial" font-size="10.00" fill="#000000">Duration</text>
</a>
</g>
</g>
<!-- abjad.parsers.parser.LilyPondEvent -->
<g id="node5" class="node">
<title>abjad.parsers.parser.LilyPondEvent</title>
<g id="a_node5"><a xlink:href="../api/abjad/parsers/parser.html#abjad.parsers.parser.LilyPondEvent" xlink:title="Lily\nPond\nEvent" target="_top">
<path fill="#b3cde3" stroke="#b3cde3" stroke-width="2" d="M387.3415,-420.5C387.3415,-420.5 370.1946,-420.5 370.1946,-420.5 364.1946,-420.5 358.1946,-414.5 358.1946,-408.5 358.1946,-408.5 358.1946,-389.5 358.1946,-389.5 358.1946,-383.5 364.1946,-377.5 370.1946,-377.5 370.1946,-377.5 387.3415,-377.5 387.3415,-377.5 393.3415,-377.5 399.3415,-383.5 399.3415,-389.5 399.3415,-389.5 399.3415,-408.5 399.3415,-408.5 399.3415,-414.5 393.3415,-420.5 387.3415,-420.5"/>
<text text-anchor="middle" x="378.7681" y="-408.2485" font-family="Arial" font-size="10.00" fill="#000000">Lily</text>
<text text-anchor="middle" x="378.7681" y="-396.7495" font-family="Arial" font-size="10.00" fill="#000000">Pond</text>
<text text-anchor="middle" x="378.7681" y="-385.2505" font-family="Arial" font-size="10.00" fill="#000000">Event</text>
</a>
</g>
</g>
<!-- abjad.parsers.parser.LilyPondFraction -->
<g id="node6" class="node">
<title>abjad.parsers.parser.LilyPondFraction</title>
<g id="a_node6"><a xlink:href="../api/abjad/parsers/parser.html#abjad.parsers.parser.LilyPondFraction" xlink:title="Lily\nPond\nFraction" target="_top">
<path fill="#b3cde3" stroke="#b3cde3" stroke-width="2" d="M392.8913,-360.5C392.8913,-360.5 364.6449,-360.5 364.6449,-360.5 358.6449,-360.5 352.6449,-354.5 352.6449,-348.5 352.6449,-348.5 352.6449,-329.5 352.6449,-329.5 352.6449,-323.5 358.6449,-317.5 364.6449,-317.5 364.6449,-317.5 392.8913,-317.5 392.8913,-317.5 398.8913,-317.5 404.8913,-323.5 404.8913,-329.5 404.8913,-329.5 404.8913,-348.5 404.8913,-348.5 404.8913,-354.5 398.8913,-360.5 392.8913,-360.5"/>
<text text-anchor="middle" x="378.7681" y="-348.2485" font-family="Arial" font-size="10.00" fill="#000000">Lily</text>
<text text-anchor="middle" x="378.7681" y="-336.7495" font-family="Arial" font-size="10.00" fill="#000000">Pond</text>
<text text-anchor="middle" x="378.7681" y="-325.2505" font-family="Arial" font-size="10.00" fill="#000000">Fraction</text>
</a>
</g>
</g>
<!-- abjad.parsers.parser.LilyPondGrammarGenerator -->
<g id="node7" class="node">
<title>abjad.parsers.parser.LilyPondGrammarGenerator</title>
<g id="a_node7"><a xlink:href="../api/abjad/parsers/parser.html#abjad.parsers.parser.LilyPondGrammarGenerator" xlink:title="Lily\nPond\nGrammar\nGenerator" target="_top">
<path fill="#b3cde3" stroke="#b3cde3" stroke-width="2" d="M397.2925,-299.9961C397.2925,-299.9961 360.2436,-299.9961 360.2436,-299.9961 354.2436,-299.9961 348.2436,-293.9961 348.2436,-287.9961 348.2436,-287.9961 348.2436,-258.0039 348.2436,-258.0039 348.2436,-252.0039 354.2436,-246.0039 360.2436,-246.0039 360.2436,-246.0039 397.2925,-246.0039 397.2925,-246.0039 403.2925,-246.0039 409.2925,-252.0039 409.2925,-258.0039 409.2925,-258.0039 409.2925,-287.9961 409.2925,-287.9961 409.2925,-293.9961 403.2925,-299.9961 397.2925,-299.9961"/>
<text text-anchor="middle" x="378.7681" y="-287.998" font-family="Arial" font-size="10.00" fill="#000000">Lily</text>
<text text-anchor="middle" x="378.7681" y="-276.499" font-family="Arial" font-size="10.00" fill="#000000">Pond</text>
<text text-anchor="middle" x="378.7681" y="-265" font-family="Arial" font-size="10.00" fill="#000000">Grammar</text>
<text text-anchor="middle" x="378.7681" y="-253.501" font-family="Arial" font-size="10.00" fill="#000000">Generator</text>
</a>
</g>
</g>
<!-- abjad.parsers.parser.LilyPondLexicalDefinition -->
<g id="node8" class="node">
<title>abjad.parsers.parser.LilyPondLexicalDefinition</title>
<g id="a_node8"><a xlink:href="../api/abjad/parsers/parser.html#abjad.parsers.parser.LilyPondLexicalDefinition" xlink:title="Lily\nPond\nLexical\nDefinition" target="_top">
<path fill="#b3cde3" stroke="#b3cde3" stroke-width="2" d="M395.4584,-227.9961C395.4584,-227.9961 362.0778,-227.9961 362.0778,-227.9961 356.0778,-227.9961 350.0778,-221.9961 350.0778,-215.9961 350.0778,-215.9961 350.0778,-186.0039 350.0778,-186.0039 350.0778,-180.0039 356.0778,-174.0039 362.0778,-174.0039 362.0778,-174.0039 395.4584,-174.0039 395.4584,-174.0039 401.4584,-174.0039 407.4584,-180.0039 407.4584,-186.0039 407.4584,-186.0039 407.4584,-215.9961 407.4584,-215.9961 407.4584,-221.9961 401.4584,-227.9961 395.4584,-227.9961"/>
<text text-anchor="middle" x="378.7681" y="-215.998" font-family="Arial" font-size="10.00" fill="#000000">Lily</text>
<text text-anchor="middle" x="378.7681" y="-204.499" font-family="Arial" font-size="10.00" fill="#000000">Pond</text>
<text text-anchor="middle" x="378.7681" y="-193" font-family="Arial" font-size="10.00" fill="#000000">Lexical</text>
<text text-anchor="middle" x="378.7681" y="-181.501" font-family="Arial" font-size="10.00" fill="#000000">Definition</text>
</a>
</g>
</g>
<!-- abjad.parsers.parser.LilyPondParser -->
<g id="node9" class="node">
<title>abjad.parsers.parser.LilyPondParser</title>
<g id="a_node9"><a xlink:href="../api/abjad/parsers/parser.html#abjad.parsers.parser.LilyPondParser" xlink:title="Lily\nPond\nParser" target="_top">
<path fill="#b3cde3" stroke="#b3cde3" stroke-width="2" d="M389.7235,-590.5C389.7235,-590.5 367.8127,-590.5 367.8127,-590.5 361.8127,-590.5 355.8127,-584.5 355.8127,-578.5 355.8127,-578.5 355.8127,-559.5 355.8127,-559.5 355.8127,-553.5 361.8127,-547.5 367.8127,-547.5 367.8127,-547.5 389.7235,-547.5 389.7235,-547.5 395.7235,-547.5 401.7235,-553.5 401.7235,-559.5 401.7235,-559.5 401.7235,-578.5 401.7235,-578.5 401.7235,-584.5 395.7235,-590.5 389.7235,-590.5"/>
<text text-anchor="middle" x="378.7681" y="-578.2485" font-family="Arial" font-size="10.00" fill="#000000">Lily</text>
<text text-anchor="middle" x="378.7681" y="-566.7495" font-family="Arial" font-size="10.00" fill="#000000">Pond</text>
<text text-anchor="middle" x="378.7681" y="-555.2505" font-family="Arial" font-size="10.00" fill="#000000">Parser</text>
</a>
</g>
</g>
<!-- abjad.parsers.parser.LilyPondSyntacticalDefinition -->
<g id="node10" class="node">
<title>abjad.parsers.parser.LilyPondSyntacticalDefinition</title>
<g id="a_node10"><a xlink:href="../api/abjad/parsers/parser.html#abjad.parsers.parser.LilyPondSyntacticalDefinition" xlink:title="Lily\nPond\nSyntactical\nDefinition" target="_top">
<path fill="#b3cde3" stroke="#b3cde3" stroke-width="2" d="M399.1235,-155.9961C399.1235,-155.9961 358.4126,-155.9961 358.4126,-155.9961 352.4126,-155.9961 346.4126,-149.9961 346.4126,-143.9961 346.4126,-143.9961 346.4126,-114.0039 346.4126,-114.0039 346.4126,-108.0039 352.4126,-102.0039 358.4126,-102.0039 358.4126,-102.0039 399.1235,-102.0039 399.1235,-102.0039 405.1235,-102.0039 411.1235,-108.0039 411.1235,-114.0039 411.1235,-114.0039 411.1235,-143.9961 411.1235,-143.9961 411.1235,-149.9961 405.1235,-155.9961 399.1235,-155.9961"/>
<text text-anchor="middle" x="378.7681" y="-143.998" font-family="Arial" font-size="10.00" fill="#000000">Lily</text>
<text text-anchor="middle" x="378.7681" y="-132.499" font-family="Arial" font-size="10.00" fill="#000000">Pond</text>
<text text-anchor="middle" x="378.7681" y="-121" font-family="Arial" font-size="10.00" fill="#000000">Syntactical</text>
<text text-anchor="middle" x="378.7681" y="-109.501" font-family="Arial" font-size="10.00" fill="#000000">Definition</text>
</a>
</g>
</g>
<!-- abjad.parsers.parser.Music -->
<g id="node11" class="node">
<title>abjad.parsers.parser.Music</title>
<g id="a_node11"><a xlink:href="../api/abjad/parsers/parser.html#abjad.parsers.parser.Music" xlink:title="Music" target="_top">
<path fill="#b3cde3" stroke="#b3cde3" stroke-width="2" d="M393.2111,-84.0056C393.2111,-84.0056 364.325,-84.0056 364.325,-84.0056 360.9898,-84.0056 357.6546,-80.6704 357.6546,-77.3352 357.6546,-77.3352 357.6546,-70.6648 357.6546,-70.6648 357.6546,-67.3296 360.9898,-63.9944 364.325,-63.9944 364.325,-63.9944 393.2111,-63.9944 393.2111,-63.9944 396.5463,-63.9944 399.8815,-67.3296 399.8815,-70.6648 399.8815,-70.6648 399.8815,-77.3352 399.8815,-77.3352 399.8815,-80.6704 396.5463,-84.0056 393.2111,-84.0056"/>
<text text-anchor="middle" x="378.7681" y="-71.7495" font-family="Arial" font-size="10.00" fill="#000000">Music</text>
</a>
</g>
</g>
<!-- abjad.parsers.parser.SequentialMusic -->
<g id="node12" class="node">
<title>abjad.parsers.parser.SequentialMusic</title>
<g id="a_node12"><a xlink:href="../api/abjad/parsers/parser.html#abjad.parsers.parser.SequentialMusic" xlink:title="Sequential\nMusic" target="_top">
<path fill="#b3cde3" stroke="#b3cde3" stroke-width="2" d="M657.9209,-85.498C657.9209,-85.498 615.0624,-85.498 615.0624,-85.498 609.8964,-85.498 604.7304,-80.332 604.7304,-75.166 604.7304,-75.166 604.7304,-64.834 604.7304,-64.834 604.7304,-59.668 609.8964,-54.502 615.0624,-54.502 615.0624,-54.502 657.9209,-54.502 657.9209,-54.502 663.087,-54.502 668.253,-59.668 668.253,-64.834 668.253,-64.834 668.253,-75.166 668.253,-75.166 668.253,-80.332 663.087,-85.498 657.9209,-85.498"/>
<text text-anchor="middle" x="636.4917" y="-73.499" font-family="Arial" font-size="10.00" fill="#000000">Sequential</text>
<text text-anchor="middle" x="636.4917" y="-62" font-family="Arial" font-size="10.00" fill="#000000">Music</text>
</a>
</g>
</g>
<!-- abjad.parsers.parser.SimultaneousMusic -->
<g id="node13" class="node">
<title>abjad.parsers.parser.SimultaneousMusic</title>
<g id="a_node13"><a xlink:href="../api/abjad/parsers/parser.html#abjad.parsers.parser.SimultaneousMusic" xlink:title="Simultaneous\nMusic" target="_top">
<path fill="#b3cde3" stroke="#b3cde3" stroke-width="2" d="M770.1774,-119.498C770.1774,-119.498 714.6576,-119.498 714.6576,-119.498 709.4916,-119.498 704.3256,-114.332 704.3256,-109.166 704.3256,-109.166 704.3256,-98.834 704.3256,-98.834 704.3256,-93.668 709.4916,-88.502 714.6576,-88.502 714.6576,-88.502 770.1774,-88.502 770.1774,-88.502 775.3434,-88.502 780.5094,-93.668 780.5094,-98.834 780.5094,-98.834 780.5094,-109.166 780.5094,-109.166 780.5094,-114.332 775.3434,-119.498 770.1774,-119.498"/>
<text text-anchor="middle" x="742.4175" y="-107.499" font-family="Arial" font-size="10.00" fill="#000000">Simultaneous</text>
<text text-anchor="middle" x="742.4175" y="-96" font-family="Arial" font-size="10.00" fill="#000000">Music</text>
</a>
</g>
</g>
<!-- abjad.parsers.parser.SyntaxNode -->
<g id="node14" class="node">
<title>abjad.parsers.parser.SyntaxNode</title>
<g id="a_node14"><a xlink:href="../api/abjad/parsers/parser.html#abjad.parsers.parser.SyntaxNode" xlink:title="Syntax\nNode" target="_top">
<path fill="#b3cde3" stroke="#b3cde3" stroke-width="2" d="M391.5093,-46.498C391.5093,-46.498 366.0269,-46.498 366.0269,-46.498 360.8608,-46.498 355.6948,-41.332 355.6948,-36.166 355.6948,-36.166 355.6948,-25.834 355.6948,-25.834 355.6948,-20.668 360.8608,-15.502 366.0269,-15.502 366.0269,-15.502 391.5093,-15.502 391.5093,-15.502 396.6753,-15.502 401.8413,-20.668 401.8413,-25.834 401.8413,-25.834 401.8413,-36.166 401.8413,-36.166 401.8413,-41.332 396.6753,-46.498 391.5093,-46.498"/>
<text text-anchor="middle" x="378.7681" y="-34.499" font-family="Arial" font-size="10.00" fill="#000000">Syntax</text>
<text text-anchor="middle" x="378.7681" y="-23" font-family="Arial" font-size="10.00" fill="#000000">Node</text>
</a>
</g>
</g>
<!-- abjad.parsers.reduced.ReducedLyParser -->
<g id="node15" class="node">
<title>abjad.parsers.reduced.ReducedLyParser</title>
<g id="a_node15"><a xlink:href="../api/abjad/parsers/reduced.html#abjad.parsers.reduced.ReducedLyParser" xlink:title="Reduced\nLy\nParser" target="_top">
<path fill="#ccebc5" stroke="#ccebc5" stroke-width="2" d="M394.7974,-706.5C394.7974,-706.5 362.7388,-706.5 362.7388,-706.5 356.7388,-706.5 350.7388,-700.5 350.7388,-694.5 350.7388,-694.5 350.7388,-675.5 350.7388,-675.5 350.7388,-669.5 356.7388,-663.5 362.7388,-663.5 362.7388,-663.5 394.7974,-663.5 394.7974,-663.5 400.7974,-663.5 406.7974,-669.5 406.7974,-675.5 406.7974,-675.5 406.7974,-694.5 406.7974,-694.5 406.7974,-700.5 400.7974,-706.5 394.7974,-706.5"/>
<text text-anchor="middle" x="378.7681" y="-694.2485" font-family="Arial" font-size="10.00" fill="#000000">Reduced</text>
<text text-anchor="middle" x="378.7681" y="-682.7495" font-family="Arial" font-size="10.00" fill="#000000">Ly</text>
<text text-anchor="middle" x="378.7681" y="-671.2505" font-family="Arial" font-size="10.00" fill="#000000">Parser</text>
</a>
</g>
</g>
<!-- abjad.parsers.scheme.SchemeParser -->
<g id="node16" class="node">
<title>abjad.parsers.scheme.SchemeParser</title>
<g id="a_node16"><a xlink:href="../api/abjad/parsers/scheme.html#abjad.parsers.scheme.SchemeParser" xlink:title="Scheme\nParser" target="_top">
<path fill="#decbe4" stroke="#decbe4" stroke-width="2" d="M534.2568,-664.498C534.2568,-664.498 502.5498,-664.498 502.5498,-664.498 497.3838,-664.498 492.2178,-659.332 492.2178,-654.166 492.2178,-654.166 492.2178,-643.834 492.2178,-643.834 492.2178,-638.668 497.3838,-633.502 502.5498,-633.502 502.5498,-633.502 534.2568,-633.502 534.2568,-633.502 539.4228,-633.502 544.5888,-638.668 544.5888,-643.834 544.5888,-643.834 544.5888,-654.166 544.5888,-654.166 544.5888,-659.332 539.4228,-664.498 534.2568,-664.498"/>
<text text-anchor="middle" x="518.4033" y="-652.499" font-family="Arial" font-size="10.00" fill="#000000">Scheme</text>
<text text-anchor="middle" x="518.4033" y="-641" font-family="Arial" font-size="10.00" fill="#000000">Parser</text>
</a>
</g>
</g>
<!-- abjad.rhythmtrees.RhythmTreeParser -->
<g id="node17" class="node">
<title>abjad.rhythmtrees.RhythmTreeParser</title>
<g id="a_node17"><a xlink:href="../api/abjad/parsers/../rhythmtrees.html#abjad.rhythmtrees.RhythmTreeParser" xlink:title="Rhythm\nTree\nParser" target="_top">
<path fill="#fed9a6" stroke="#fed9a6" stroke-width="2" d="M267.8194,-744.5C267.8194,-744.5 240.9091,-744.5 240.9091,-744.5 234.9091,-744.5 228.9091,-738.5 228.9091,-732.5 228.9091,-732.5 228.9091,-713.5 228.9091,-713.5 228.9091,-707.5 234.9091,-701.5 240.9091,-701.5 240.9091,-701.5 267.8194,-701.5 267.8194,-701.5 273.8194,-701.5 279.8194,-707.5 279.8194,-713.5 279.8194,-713.5 279.8194,-732.5 279.8194,-732.5 279.8194,-738.5 273.8194,-744.5 267.8194,-744.5"/>
<text text-anchor="middle" x="254.3643" y="-732.2485" font-family="Arial" font-size="10.00" fill="#000000">Rhythm</text>
<text text-anchor="middle" x="254.3643" y="-720.7495" font-family="Arial" font-size="10.00" fill="#000000">Tree</text>
<text text-anchor="middle" x="254.3643" y="-709.2505" font-family="Arial" font-size="10.00" fill="#000000">Parser</text>
</a>
</g>
</g>
<!-- builtins.object -->
<g id="node18" class="node">
<title>builtins.object</title>
<g id="a_node18"><a xlink:href="https://docs.python.org/3.9/library/functions.html#object" xlink:title="object" target="_top">
<path fill="#ffffcc" stroke="#ffffcc" stroke-width="2" d="M51.8576,-316.0056C51.8576,-316.0056 22.8269,-316.0056 22.8269,-316.0056 19.4918,-316.0056 16.1566,-312.6704 16.1566,-309.3352 16.1566,-309.3352 16.1566,-302.6648 16.1566,-302.6648 16.1566,-299.3296 19.4918,-295.9944 22.8269,-295.9944 22.8269,-295.9944 51.8576,-295.9944 51.8576,-295.9944 55.1928,-295.9944 58.528,-299.3296 58.528,-302.6648 58.528,-302.6648 58.528,-309.3352 58.528,-309.3352 58.528,-312.6704 55.1928,-316.0056 51.8576,-316.0056"/>
<text text-anchor="middle" x="37.3423" y="-303.7495" font-family="Arial" font-size="10.00" fill="#000000">object</text>
</a>
</g>
</g>
</g>
</svg>
