<?xml version="1.0" encoding="UTF-8" standalone="no"?>
<!DOCTYPE svg PUBLIC "-//W3C//DTD SVG 1.1//EN"
 "http://www.w3.org/Graphics/SVG/1.1/DTD/svg11.dtd">
<!-- Generated by graphviz version 2.40.1 (20161225.0304)
 -->
<!-- Title: InheritanceGraph Pages: 1 -->
<svg width="248pt" height="101pt"
 viewBox="0.00 0.00 248.00 101.00" xmlns="http://www.w3.org/2000/svg" xmlns:xlink="http://www.w3.org/1999/xlink">
<g id="graph0" class="graph" transform="scale(1 1) rotate(0) translate(4 97)">
<title>InheritanceGraph</title>
<g id="clust1" class="cluster">
<title>cluster_abjad.system</title>
<path fill="transparent" stroke="#bcd2ee" stroke-width="2" stroke-dasharray="5,2" d="M93,-8C93,-8 220,-8 220,-8 226,-8 232,-14 232,-20 232,-20 232,-73 232,-73 232,-79 226,-85 220,-85 220,-85 93,-85 93,-85 87,-85 81,-79 81,-73 81,-73 81,-20 81,-20 81,-14 87,-8 93,-8"/>
<text text-anchor="middle" x="156.5" y="-73" font-family="Arial" font-size="10.00" fill="#000000">abjad.system</text>
</g>
<g id="clust2" class="cluster">
<title>cluster_builtins</title>
<path fill="transparent" stroke="#bcd2ee" stroke-width="2" stroke-dasharray="5,2" d="M20,-19C20,-19 49,-19 49,-19 55,-19 61,-25 61,-31 61,-31 61,-62 61,-62 61,-68 55,-74 49,-74 49,-74 20,-74 20,-74 14,-74 8,-68 8,-62 8,-62 8,-31 8,-31 8,-25 14,-19 20,-19"/>
<text text-anchor="middle" x="34.5" y="-62" font-family="Arial" font-size="10.00" fill="#000000">builtins</text>
</g>
<!-- abjad.system.ContextManager.ContextManager&#45;&gt;abjad.system.TemporaryDirectoryChange.TemporaryDirectoryChange -->
<g id="edge1" class="edge">
<title>abjad.system.ContextManager.ContextManager&#45;&gt;abjad.system.TemporaryDirectoryChange.TemporaryDirectoryChange</title>
<path fill="none" stroke="#778899" d="M135.3633,-37C143.1668,-37 152.0638,-37 160.6385,-37"/>
<polygon fill="#778899" stroke="#778899" points="160.8429,-40.5001 170.8428,-37 160.8428,-33.5001 160.8429,-40.5001"/>
</g>
<!-- builtins.object&#45;&gt;abjad.system.ContextManager.ContextManager -->
<g id="edge2" class="edge">
<title>builtins.object&#45;&gt;abjad.system.ContextManager.ContextManager</title>
<path fill="none" stroke="#778899" d="M53.2606,-37C60.9882,-37 70.1763,-37 78.9636,-37"/>
<polygon fill="#778899" stroke="#778899" points="78.9835,-40.5001 88.9835,-37 78.9834,-33.5001 78.9835,-40.5001"/>
</g>
<!-- abjad.system.ContextManager.ContextManager -->
<g id="node1" class="node">
<title>abjad.system.ContextManager.ContextManager</title>
<g id="a_node1"><a xlink:href="../api/abjad/system/ContextManager.html#abjad.system.ContextManager.ContextManager" xlink:title="Context\nManager" target="_top">
<path fill="#fbb4ae" stroke="#fbb4ae" stroke-width="2" d="M125,-52C125,-52 99,-52 99,-52 94,-52 89,-47 89,-42 89,-42 89,-32 89,-32 89,-27 94,-22 99,-22 99,-22 125,-22 125,-22 130,-22 135,-27 135,-32 135,-32 135,-42 135,-42 135,-47 130,-52 125,-52"/>
<text text-anchor="middle" x="112" y="-40" font-family="Arial" font-size="10.00" fill="#000000">Context</text>
<text text-anchor="middle" x="112" y="-29" font-family="Arial" font-size="10.00" fill="#000000">Manager</text>
</a>
</g>
</g>
<!-- abjad.system.TemporaryDirectoryChange.TemporaryDirectoryChange -->
<g id="node2" class="node">
<title>abjad.system.TemporaryDirectoryChange.TemporaryDirectoryChange</title>
<g id="a_node2"><a xlink:href="../api/abjad/system/TemporaryDirectoryChange.html#abjad.system.TemporaryDirectoryChange.TemporaryDirectoryChange" xlink:title="Temporary\nDirectory\nChange" target="_top">
<path fill="#000000" stroke="#000000" stroke-width="2" d="M212,-57.5C212,-57.5 183,-57.5 183,-57.5 177,-57.5 171,-51.5 171,-45.5 171,-45.5 171,-28.5 171,-28.5 171,-22.5 177,-16.5 183,-16.5 183,-16.5 212,-16.5 212,-16.5 218,-16.5 224,-22.5 224,-28.5 224,-28.5 224,-45.5 224,-45.5 224,-51.5 218,-57.5 212,-57.5"/>
<text text-anchor="middle" x="197.5" y="-45.5" font-family="Arial" font-size="10.00" fill="#ffffff">Temporary</text>
<text text-anchor="middle" x="197.5" y="-34.5" font-family="Arial" font-size="10.00" fill="#ffffff">Directory</text>
<text text-anchor="middle" x="197.5" y="-23.5" font-family="Arial" font-size="10.00" fill="#ffffff">Change</text>
</a>
</g>
</g>
<!-- builtins.object -->
<g id="node3" class="node">
<title>builtins.object</title>
<g id="a_node3"><a xlink:href="https://docs.python.org/3.6/library/functions.html#object" xlink:title="object" target="_top">
<path fill="#b3cde3" stroke="#b3cde3" stroke-width="2" d="M46.6667,-46.5C46.6667,-46.5 22.3333,-46.5 22.3333,-46.5 19.1667,-46.5 16,-43.3333 16,-40.1667 16,-40.1667 16,-33.8333 16,-33.8333 16,-30.6667 19.1667,-27.5 22.3333,-27.5 22.3333,-27.5 46.6667,-27.5 46.6667,-27.5 49.8333,-27.5 53,-30.6667 53,-33.8333 53,-33.8333 53,-40.1667 53,-40.1667 53,-43.3333 49.8333,-46.5 46.6667,-46.5"/>
<text text-anchor="middle" x="34.5" y="-34.5" font-family="Arial" font-size="10.00" fill="#000000">object</text>
</a>
</g>
</g>
</g>
</svg>
