<?xml version="1.0" encoding="UTF-8" standalone="no"?>
<!DOCTYPE svg PUBLIC "-//W3C//DTD SVG 1.1//EN"
 "http://www.w3.org/Graphics/SVG/1.1/DTD/svg11.dtd">
<!-- Generated by graphviz version 2.40.1 (20161225.0304)
 -->
<!-- Title: InheritanceGraph Pages: 1 -->
<svg width="238pt" height="89pt"
 viewBox="0.00 0.00 238.00 89.00" xmlns="http://www.w3.org/2000/svg" xmlns:xlink="http://www.w3.org/1999/xlink">
<g id="graph0" class="graph" transform="scale(1 1) rotate(0) translate(4 85)">
<title>InheritanceGraph</title>
<g id="clust1" class="cluster">
<title>cluster_abjad.parser</title>
<path fill="transparent" stroke="#bcd2ee" stroke-width="2" stroke-dasharray="5,2" d="M174,-8C174,-8 210,-8 210,-8 216,-8 222,-14 222,-20 222,-20 222,-61 222,-61 222,-67 216,-73 210,-73 210,-73 174,-73 174,-73 168,-73 162,-67 162,-61 162,-61 162,-20 162,-20 162,-14 168,-8 174,-8"/>
<text text-anchor="middle" x="192" y="-61" font-family="Arial" font-size="10.00" fill="#000000">abjad.parser</text>
</g>
<g id="clust2" class="cluster">
<title>cluster_abjad.system</title>
<path fill="transparent" stroke="#bcd2ee" stroke-width="2" stroke-dasharray="5,2" d="M93,-13C93,-13 130,-13 130,-13 136,-13 142,-19 142,-25 142,-25 142,-56 142,-56 142,-62 136,-68 130,-68 130,-68 93,-68 93,-68 87,-68 81,-62 81,-56 81,-56 81,-25 81,-25 81,-19 87,-13 93,-13"/>
<text text-anchor="middle" x="111.5" y="-56" font-family="Arial" font-size="10.00" fill="#000000">abjad.system</text>
</g>
<g id="clust3" class="cluster">
<title>cluster_builtins</title>
<path fill="transparent" stroke="#bcd2ee" stroke-width="2" stroke-dasharray="5,2" d="M20,-13C20,-13 49,-13 49,-13 55,-13 61,-19 61,-25 61,-25 61,-56 61,-56 61,-62 55,-68 49,-68 49,-68 20,-68 20,-68 14,-68 8,-62 8,-56 8,-56 8,-25 8,-25 8,-19 14,-13 20,-13"/>
<text text-anchor="middle" x="34.5" y="-56" font-family="Arial" font-size="10.00" fill="#000000">builtins</text>
</g>
<!-- abjad.system.Parser.Parser&#45;&gt;abjad.parser.SchemeParser.SchemeParser -->
<g id="edge1" class="edge">
<title>abjad.system.Parser.Parser&#45;&gt;abjad.parser.SchemeParser.SchemeParser</title>
<path fill="none" stroke="#778899" d="M131.3989,-31C139.9469,-31 150.1567,-31 159.7374,-31"/>
<polygon fill="#778899" stroke="#778899" points="159.7783,-34.5001 169.7783,-31 159.7782,-27.5001 159.7783,-34.5001"/>
</g>
<!-- builtins.object&#45;&gt;abjad.system.Parser.Parser -->
<g id="edge2" class="edge">
<title>builtins.object&#45;&gt;abjad.system.Parser.Parser</title>
<path fill="none" stroke="#778899" d="M53.1396,-31C61.7686,-31 72.2307,-31 81.9004,-31"/>
<polygon fill="#778899" stroke="#778899" points="81.9577,-34.5001 91.9577,-31 81.9576,-27.5001 81.9577,-34.5001"/>
</g>
<!-- abjad.parser.SchemeParser.SchemeParser -->
<g id="node1" class="node">
<title>abjad.parser.SchemeParser.SchemeParser</title>
<g id="a_node1"><a xlink:href="../api/abjad/parser/SchemeParser.html#abjad.parser.SchemeParser.SchemeParser" xlink:title="Scheme\nParser" target="_top">
<path fill="#000000" stroke="#000000" stroke-width="2" d="M204,-46C204,-46 180,-46 180,-46 175,-46 170,-41 170,-36 170,-36 170,-26 170,-26 170,-21 175,-16 180,-16 180,-16 204,-16 204,-16 209,-16 214,-21 214,-26 214,-26 214,-36 214,-36 214,-41 209,-46 204,-46"/>
<text text-anchor="middle" x="192" y="-34" font-family="Arial" font-size="10.00" fill="#ffffff">Scheme</text>
<text text-anchor="middle" x="192" y="-23" font-family="Arial" font-size="10.00" fill="#ffffff">Parser</text>
</a>
</g>
</g>
<!-- abjad.system.Parser.Parser -->
<g id="node2" class="node">
<title>abjad.system.Parser.Parser</title>
<g id="a_node2"><a xlink:href="../api/abjad/parser/../system/Parser.html#abjad.system.Parser.Parser" xlink:title="Parser" target="_top">
<path fill="#b3cde3" stroke="#b3cde3" stroke-width="2" d="M124.6667,-40.5C124.6667,-40.5 98.3333,-40.5 98.3333,-40.5 95.1667,-40.5 92,-37.3333 92,-34.1667 92,-34.1667 92,-27.8333 92,-27.8333 92,-24.6667 95.1667,-21.5 98.3333,-21.5 98.3333,-21.5 124.6667,-21.5 124.6667,-21.5 127.8333,-21.5 131,-24.6667 131,-27.8333 131,-27.8333 131,-34.1667 131,-34.1667 131,-37.3333 127.8333,-40.5 124.6667,-40.5"/>
<text text-anchor="middle" x="111.5" y="-28.5" font-family="Arial" font-size="10.00" fill="#000000">Parser</text>
</a>
</g>
</g>
<!-- builtins.object -->
<g id="node3" class="node">
<title>builtins.object</title>
<g id="a_node3"><a xlink:href="https://docs.python.org/3.6/library/functions.html#object" xlink:title="object" target="_top">
<path fill="#ccebc5" stroke="#ccebc5" stroke-width="2" d="M46.6667,-40.5C46.6667,-40.5 22.3333,-40.5 22.3333,-40.5 19.1667,-40.5 16,-37.3333 16,-34.1667 16,-34.1667 16,-27.8333 16,-27.8333 16,-24.6667 19.1667,-21.5 22.3333,-21.5 22.3333,-21.5 46.6667,-21.5 46.6667,-21.5 49.8333,-21.5 53,-24.6667 53,-27.8333 53,-27.8333 53,-34.1667 53,-34.1667 53,-37.3333 49.8333,-40.5 46.6667,-40.5"/>
<text text-anchor="middle" x="34.5" y="-28.5" font-family="Arial" font-size="10.00" fill="#000000">object</text>
</a>
</g>
</g>
</g>
</svg>
