<?xml version="1.0" encoding="UTF-8" standalone="no"?>
<!DOCTYPE svg PUBLIC "-//W3C//DTD SVG 1.1//EN"
 "http://www.w3.org/Graphics/SVG/1.1/DTD/svg11.dtd">
<!-- Generated by graphviz version 2.40.1 (20161225.0304)
 -->
<!-- Title: InheritanceGraph Pages: 1 -->
<svg width="183pt" height="79pt"
 viewBox="0.00 0.00 183.00 79.00" xmlns="http://www.w3.org/2000/svg" xmlns:xlink="http://www.w3.org/1999/xlink">
<g id="graph0" class="graph" transform="scale(1 1) rotate(0) translate(4 75)">
<title>InheritanceGraph</title>
<g id="clust1" class="cluster">
<title>cluster_abjad.core</title>
<path fill="transparent" stroke="#bcd2ee" stroke-width="2" stroke-dasharray="5,2" d="M93,-8C93,-8 155,-8 155,-8 161,-8 167,-14 167,-20 167,-20 167,-51 167,-51 167,-57 161,-63 155,-63 155,-63 93,-63 93,-63 87,-63 81,-57 81,-51 81,-51 81,-20 81,-20 81,-14 87,-8 93,-8"/>
<text text-anchor="middle" x="124" y="-51" font-family="Arial" font-size="10.00" fill="#000000">abjad.core</text>
</g>
<g id="clust2" class="cluster">
<title>cluster_builtins</title>
<path fill="transparent" stroke="#bcd2ee" stroke-width="2" stroke-dasharray="5,2" d="M20,-8C20,-8 49,-8 49,-8 55,-8 61,-14 61,-20 61,-20 61,-51 61,-51 61,-57 55,-63 49,-63 49,-63 20,-63 20,-63 14,-63 8,-57 8,-51 8,-51 8,-20 8,-20 8,-14 14,-8 20,-8"/>
<text text-anchor="middle" x="34.5" y="-51" font-family="Arial" font-size="10.00" fill="#000000">builtins</text>
</g>
<!-- builtins.object&#45;&gt;abjad.core.Wellformedness.Wellformedness -->
<g id="edge1" class="edge">
<title>builtins.object&#45;&gt;abjad.core.Wellformedness.Wellformedness</title>
<path fill="none" stroke="#778899" d="M53.0445,-26C60.5591,-26 69.5959,-26 78.6647,-26"/>
<polygon fill="#778899" stroke="#778899" points="78.838,-29.5001 88.838,-26 78.8379,-22.5001 78.838,-29.5001"/>
</g>
<!-- abjad.core.Wellformedness.Wellformedness -->
<g id="node1" class="node">
<title>abjad.core.Wellformedness.Wellformedness</title>
<g id="a_node1"><a xlink:href="../api/abjad/core/Wellformedness.html#abjad.core.Wellformedness.Wellformedness" xlink:title="Wellformedness" target="_top">
<path fill="#000000" stroke="#000000" stroke-width="2" d="M152.6667,-35.5C152.6667,-35.5 95.3333,-35.5 95.3333,-35.5 92.1667,-35.5 89,-32.3333 89,-29.1667 89,-29.1667 89,-22.8333 89,-22.8333 89,-19.6667 92.1667,-16.5 95.3333,-16.5 95.3333,-16.5 152.6667,-16.5 152.6667,-16.5 155.8333,-16.5 159,-19.6667 159,-22.8333 159,-22.8333 159,-29.1667 159,-29.1667 159,-32.3333 155.8333,-35.5 152.6667,-35.5"/>
<text text-anchor="middle" x="124" y="-23.5" font-family="Arial" font-size="10.00" fill="#ffffff">Wellformedness</text>
</a>
</g>
</g>
<!-- builtins.object -->
<g id="node2" class="node">
<title>builtins.object</title>
<g id="a_node2"><a xlink:href="https://docs.python.org/3.6/library/functions.html#object" xlink:title="object" target="_top">
<path fill="#b3cde3" stroke="#b3cde3" stroke-width="2" d="M46.6667,-35.5C46.6667,-35.5 22.3333,-35.5 22.3333,-35.5 19.1667,-35.5 16,-32.3333 16,-29.1667 16,-29.1667 16,-22.8333 16,-22.8333 16,-19.6667 19.1667,-16.5 22.3333,-16.5 22.3333,-16.5 46.6667,-16.5 46.6667,-16.5 49.8333,-16.5 53,-19.6667 53,-22.8333 53,-22.8333 53,-29.1667 53,-29.1667 53,-32.3333 49.8333,-35.5 46.6667,-35.5"/>
<text text-anchor="middle" x="34.5" y="-23.5" font-family="Arial" font-size="10.00" fill="#000000">object</text>
</a>
</g>
</g>
</g>
</svg>
