<?xml version="1.0" encoding="UTF-8" standalone="no"?>
<!DOCTYPE svg PUBLIC "-//W3C//DTD SVG 1.1//EN"
 "http://www.w3.org/Graphics/SVG/1.1/DTD/svg11.dtd">
<!-- Generated by graphviz version 2.40.1 (20161225.0304)
 -->
<!-- Title: InheritanceGraph Pages: 1 -->
<svg width="189pt" height="79pt"
 viewBox="0.00 0.00 189.15 79.00" xmlns="http://www.w3.org/2000/svg" xmlns:xlink="http://www.w3.org/1999/xlink">
<g id="graph0" class="graph" transform="scale(1 1) rotate(0) translate(4 75)">
<title>InheritanceGraph</title>
<g id="clust1" class="cluster">
<title>cluster_abjad.expression</title>
<path fill="transparent" stroke="#bcd2ee" stroke-width="2" stroke-dasharray="5,2" d="M98.6846,-8C98.6846,-8 166.1523,-8 166.1523,-8 172.1523,-8 178.1523,-14 178.1523,-20 178.1523,-20 178.1523,-51 178.1523,-51 178.1523,-57 172.1523,-63 166.1523,-63 166.1523,-63 98.6846,-63 98.6846,-63 92.6846,-63 86.6846,-57 86.6846,-51 86.6846,-51 86.6846,-20 86.6846,-20 86.6846,-14 92.6846,-8 98.6846,-8"/>
<text text-anchor="middle" x="132.4185" y="-51" font-family="Arial" font-size="10.00" fill="#000000">abjad.expression</text>
</g>
<g id="clust2" class="cluster">
<title>cluster_builtins</title>
<path fill="transparent" stroke="#bcd2ee" stroke-width="2" stroke-dasharray="5,2" d="M20,-8C20,-8 54.6846,-8 54.6846,-8 60.6846,-8 66.6846,-14 66.6846,-20 66.6846,-20 66.6846,-51 66.6846,-51 66.6846,-57 60.6846,-63 54.6846,-63 54.6846,-63 20,-63 20,-63 14,-63 8,-57 8,-51 8,-51 8,-20 8,-20 8,-14 14,-8 20,-8"/>
<text text-anchor="middle" x="37.3423" y="-51" font-family="Arial" font-size="10.00" fill="#000000">builtins</text>
</g>
<!-- builtins.object&#45;&gt;abjad.expression.Expression -->
<g id="edge1" class="edge">
<title>builtins.object&#45;&gt;abjad.expression.Expression</title>
<path fill="none" stroke="#778899" d="M58.9165,-26C67.8744,-26 78.6065,-26 89.0662,-26"/>
<polygon fill="#778899" stroke="#778899" points="89.3594,-29.5001 99.3593,-26 89.3593,-22.5001 89.3594,-29.5001"/>
</g>
<!-- abjad.expression.Expression -->
<g id="node1" class="node">
<title>abjad.expression.Expression</title>
<g id="a_node1"><a xlink:href="../api/abjad/expression.html#abjad.expression.Expression" xlink:title="Expression" target="_top">
<path fill="#000000" stroke="#000000" stroke-width="2" d="M158.7175,-36.0056C158.7175,-36.0056 106.1194,-36.0056 106.1194,-36.0056 102.7842,-36.0056 99.449,-32.6704 99.449,-29.3352 99.449,-29.3352 99.449,-22.6648 99.449,-22.6648 99.449,-19.3296 102.7842,-15.9944 106.1194,-15.9944 106.1194,-15.9944 158.7175,-15.9944 158.7175,-15.9944 162.0527,-15.9944 165.3879,-19.3296 165.3879,-22.6648 165.3879,-22.6648 165.3879,-29.3352 165.3879,-29.3352 165.3879,-32.6704 162.0527,-36.0056 158.7175,-36.0056"/>
<text text-anchor="middle" x="132.4185" y="-23.7495" font-family="Arial" font-size="10.00" fill="#ffffff">Expression</text>
</a>
</g>
</g>
<!-- builtins.object -->
<g id="node2" class="node">
<title>builtins.object</title>
<g id="a_node2"><a xlink:href="https://docs.python.org/3.9/library/functions.html#object" xlink:title="object" target="_top">
<path fill="#b3cde3" stroke="#b3cde3" stroke-width="2" d="M51.8576,-36.0056C51.8576,-36.0056 22.8269,-36.0056 22.8269,-36.0056 19.4918,-36.0056 16.1566,-32.6704 16.1566,-29.3352 16.1566,-29.3352 16.1566,-22.6648 16.1566,-22.6648 16.1566,-19.3296 19.4918,-15.9944 22.8269,-15.9944 22.8269,-15.9944 51.8576,-15.9944 51.8576,-15.9944 55.1928,-15.9944 58.528,-19.3296 58.528,-22.6648 58.528,-22.6648 58.528,-29.3352 58.528,-29.3352 58.528,-32.6704 55.1928,-36.0056 51.8576,-36.0056"/>
<text text-anchor="middle" x="37.3423" y="-23.7495" font-family="Arial" font-size="10.00" fill="#000000">object</text>
</a>
</g>
</g>
</g>
</svg>
