<?xml version="1.0" encoding="UTF-8" standalone="no"?>
<!DOCTYPE svg PUBLIC "-//W3C//DTD SVG 1.1//EN"
 "http://www.w3.org/Graphics/SVG/1.1/DTD/svg11.dtd">
<!-- Generated by graphviz version 2.40.1 (20161225.0304)
 -->
<!-- Title: InheritanceGraph Pages: 1 -->
<svg width="181pt" height="79pt"
 viewBox="0.00 0.00 181.02 79.00" xmlns="http://www.w3.org/2000/svg" xmlns:xlink="http://www.w3.org/1999/xlink">
<g id="graph0" class="graph" transform="scale(1 1) rotate(0) translate(4 75)">
<title>InheritanceGraph</title>
<g id="clust1" class="cluster">
<title>cluster_abjad.segments</title>
<path fill="transparent" stroke="#bcd2ee" stroke-width="2" stroke-dasharray="5,2" d="M98.6846,-8C98.6846,-8 161.0244,-8 161.0244,-8 167.0244,-8 173.0244,-14 173.0244,-20 173.0244,-20 173.0244,-51 173.0244,-51 173.0244,-57 167.0244,-63 161.0244,-63 161.0244,-63 98.6846,-63 98.6846,-63 92.6846,-63 86.6846,-57 86.6846,-51 86.6846,-51 86.6846,-20 86.6846,-20 86.6846,-14 92.6846,-8 98.6846,-8"/>
<text text-anchor="middle" x="129.8545" y="-51" font-family="Arial" font-size="10.00" fill="#000000">abjad.segments</text>
</g>
<g id="clust2" class="cluster">
<title>cluster_builtins</title>
<path fill="transparent" stroke="#bcd2ee" stroke-width="2" stroke-dasharray="5,2" d="M20,-8C20,-8 54.6846,-8 54.6846,-8 60.6846,-8 66.6846,-14 66.6846,-20 66.6846,-20 66.6846,-51 66.6846,-51 66.6846,-57 60.6846,-63 54.6846,-63 54.6846,-63 20,-63 20,-63 14,-63 8,-57 8,-51 8,-51 8,-20 8,-20 8,-14 14,-8 20,-8"/>
<text text-anchor="middle" x="37.3423" y="-51" font-family="Arial" font-size="10.00" fill="#000000">builtins</text>
</g>
<!-- builtins.object&#45;&gt;abjad.segments.Part.Part -->
<g id="edge1" class="edge">
<title>builtins.object&#45;&gt;abjad.segments.Part.Part</title>
<path fill="none" stroke="#778899" d="M58.799,-26C71.8146,-26 88.5496,-26 102.5089,-26"/>
<polygon fill="#778899" stroke="#778899" points="102.5351,-29.5001 112.5351,-26 102.535,-22.5001 102.5351,-29.5001"/>
</g>
<!-- abjad.segments.Part.Part -->
<g id="node1" class="node">
<title>abjad.segments.Part.Part</title>
<g id="a_node1"><a xlink:href="../api/abjad/segments/Part.html#abjad.segments.Part.Part" xlink:title="Part" target="_top">
<path fill="#000000" stroke="#000000" stroke-width="2" d="M140.5256,-36.0056C140.5256,-36.0056 119.1833,-36.0056 119.1833,-36.0056 115.8481,-36.0056 112.5129,-32.6704 112.5129,-29.3352 112.5129,-29.3352 112.5129,-22.6648 112.5129,-22.6648 112.5129,-19.3296 115.8481,-15.9944 119.1833,-15.9944 119.1833,-15.9944 140.5256,-15.9944 140.5256,-15.9944 143.8608,-15.9944 147.196,-19.3296 147.196,-22.6648 147.196,-22.6648 147.196,-29.3352 147.196,-29.3352 147.196,-32.6704 143.8608,-36.0056 140.5256,-36.0056"/>
<text text-anchor="middle" x="129.8545" y="-23.7495" font-family="Arial" font-size="10.00" fill="#ffffff">Part</text>
</a>
</g>
</g>
<!-- builtins.object -->
<g id="node2" class="node">
<title>builtins.object</title>
<g id="a_node2"><a xlink:href="https://docs.python.org/3.6/library/functions.html#object" xlink:title="object" target="_top">
<path fill="#b3cde3" stroke="#b3cde3" stroke-width="2" d="M51.8576,-36.0056C51.8576,-36.0056 22.8269,-36.0056 22.8269,-36.0056 19.4918,-36.0056 16.1566,-32.6704 16.1566,-29.3352 16.1566,-29.3352 16.1566,-22.6648 16.1566,-22.6648 16.1566,-19.3296 19.4918,-15.9944 22.8269,-15.9944 22.8269,-15.9944 51.8576,-15.9944 51.8576,-15.9944 55.1928,-15.9944 58.528,-19.3296 58.528,-22.6648 58.528,-22.6648 58.528,-29.3352 58.528,-29.3352 58.528,-32.6704 55.1928,-36.0056 51.8576,-36.0056"/>
<text text-anchor="middle" x="37.3423" y="-23.7495" font-family="Arial" font-size="10.00" fill="#000000">object</text>
</a>
</g>
</g>
</g>
</svg>
