<?xml version="1.0" encoding="UTF-8" standalone="no"?>
<!DOCTYPE svg PUBLIC "-//W3C//DTD SVG 1.1//EN"
 "http://www.w3.org/Graphics/SVG/1.1/DTD/svg11.dtd">
<!-- Generated by graphviz version 2.40.1 (20161225.0304)
 -->
<!-- Title: InheritanceGraph Pages: 1 -->
<svg width="392pt" height="259pt"
 viewBox="0.00 0.00 392.42 259.00" xmlns="http://www.w3.org/2000/svg" xmlns:xlink="http://www.w3.org/1999/xlink">
<g id="graph0" class="graph" transform="scale(1 1) rotate(0) translate(4 255)">
<title>InheritanceGraph</title>
<g id="clust1" class="cluster">
<title>cluster_abjad.overrides</title>
<path fill="transparent" stroke="#bcd2ee" stroke-width="2" stroke-dasharray="5,2" d="M135.6846,-8C135.6846,-8 364.418,-8 364.418,-8 370.418,-8 376.418,-14 376.418,-20 376.418,-20 376.418,-231 376.418,-231 376.418,-237 370.418,-243 364.418,-243 364.418,-243 135.6846,-243 135.6846,-243 129.6846,-243 123.6846,-237 123.6846,-231 123.6846,-231 123.6846,-20 123.6846,-20 123.6846,-14 129.6846,-8 135.6846,-8"/>
<text text-anchor="middle" x="250.0513" y="-231" font-family="Arial" font-size="10.00" fill="#000000">abjad.overrides</text>
</g>
<g id="clust2" class="cluster">
<title>cluster_builtins</title>
<path fill="transparent" stroke="#bcd2ee" stroke-width="2" stroke-dasharray="5,2" d="M20,-108C20,-108 54.6846,-108 54.6846,-108 60.6846,-108 66.6846,-114 66.6846,-120 66.6846,-120 66.6846,-151 66.6846,-151 66.6846,-157 60.6846,-163 54.6846,-163 54.6846,-163 20,-163 20,-163 14,-163 8,-157 8,-151 8,-151 8,-120 8,-120 8,-114 14,-108 20,-108"/>
<text text-anchor="middle" x="37.3423" y="-151" font-family="Arial" font-size="10.00" fill="#000000">builtins</text>
</g>
<!-- abjad.overrides.Interface&#45;&gt;abjad.overrides.OverrideInterface -->
<g id="edge1" class="edge">
<title>abjad.overrides.Interface&#45;&gt;abjad.overrides.OverrideInterface</title>
<path fill="none" stroke="#778899" d="M173.8859,-196.2313C178.0613,-193.3487 182.5651,-190.1265 186.5957,-187 199.7926,-176.7632 213.886,-164.6739 225.4305,-154.4403"/>
<polygon fill="#778899" stroke="#778899" points="227.8506,-156.9716 232.9734,-147.6975 223.1853,-151.7528 227.8506,-156.9716"/>
</g>
<!-- abjad.overrides.Interface&#45;&gt;abjad.overrides.SettingInterface -->
<g id="edge2" class="edge">
<title>abjad.overrides.Interface&#45;&gt;abjad.overrides.SettingInterface</title>
<path fill="none" stroke="#778899" d="M175.743,-196.1269C188.1904,-189.2363 205.8868,-180.4979 222.5957,-176 248.845,-168.934 279.4438,-166.4933 302.9541,-165.7882"/>
<polygon fill="#778899" stroke="#778899" points="303.2908,-169.282 313.2162,-165.5759 303.1459,-162.2835 303.2908,-169.282"/>
</g>
<!-- abjad.overrides.Interface&#45;&gt;abjad.overrides.TweakInterface -->
<g id="edge3" class="edge">
<title>abjad.overrides.Interface&#45;&gt;abjad.overrides.TweakInterface</title>
<path fill="none" stroke="#778899" d="M186.9105,-204.1672C194.9291,-203.638 203.8176,-203.0514 212.3329,-202.4894"/>
<polygon fill="#778899" stroke="#778899" points="212.7032,-205.9726 222.451,-201.8216 212.2422,-198.9878 212.7032,-205.9726"/>
</g>
<!-- builtins.object&#45;&gt;abjad.overrides.Interface -->
<g id="edge4" class="edge">
<title>builtins.object&#45;&gt;abjad.overrides.Interface</title>
<path fill="none" stroke="#778899" d="M50.1674,-135.8151C66.739,-148.3195 96.6738,-170.3091 123.6846,-187 125.9997,-188.4306 128.4315,-189.8659 130.8909,-191.2713"/>
<polygon fill="#778899" stroke="#778899" points="129.3133,-194.3983 139.7592,-196.1687 132.6973,-188.2706 129.3133,-194.3983"/>
</g>
<!-- builtins.object&#45;&gt;abjad.overrides.LilyPondLiteral -->
<g id="edge5" class="edge">
<title>builtins.object&#45;&gt;abjad.overrides.LilyPondLiteral</title>
<path fill="none" stroke="#778899" d="M58.5579,-131.3998C77.6213,-136.2518 105.8738,-143.4427 127.5863,-148.9689"/>
<polygon fill="#778899" stroke="#778899" points="126.7932,-152.3786 137.3476,-151.4534 128.5198,-145.5949 126.7932,-152.3786"/>
</g>
<!-- builtins.object&#45;&gt;abjad.overrides.LilyPondOverride -->
<g id="edge6" class="edge">
<title>builtins.object&#45;&gt;abjad.overrides.LilyPondOverride</title>
<path fill="none" stroke="#778899" d="M58.5579,-120.9486C76.0122,-116.7927 101.1698,-110.8027 121.9578,-105.8531"/>
<polygon fill="#778899" stroke="#778899" points="122.8415,-109.2406 131.7589,-103.5195 121.2201,-102.431 122.8415,-109.2406"/>
</g>
<!-- builtins.object&#45;&gt;abjad.overrides.LilyPondSetting -->
<g id="edge7" class="edge">
<title>builtins.object&#45;&gt;abjad.overrides.LilyPondSetting</title>
<path fill="none" stroke="#778899" d="M50.8422,-116.1354C69.1256,-102.7754 102.326,-78.5152 127.1649,-60.3649"/>
<polygon fill="#778899" stroke="#778899" points="129.5547,-62.9536 135.5638,-54.2277 125.4247,-57.3017 129.5547,-62.9536"/>
</g>
<!-- abjad.overrides.Interface -->
<g id="node1" class="node">
<title>abjad.overrides.Interface</title>
<g id="a_node1"><a xlink:href="../api/abjad/overrides.html#abjad.overrides.Interface" xlink:title="Interface" target="_top">
<path fill="#000000" stroke="#000000" stroke-width="2" d="M179.881,-216.0056C179.881,-216.0056 138.3993,-216.0056 138.3993,-216.0056 135.0641,-216.0056 131.7289,-212.6704 131.7289,-209.3352 131.7289,-209.3352 131.7289,-202.6648 131.7289,-202.6648 131.7289,-199.3296 135.0641,-195.9944 138.3993,-195.9944 138.3993,-195.9944 179.881,-195.9944 179.881,-195.9944 183.2161,-195.9944 186.5513,-199.3296 186.5513,-202.6648 186.5513,-202.6648 186.5513,-209.3352 186.5513,-209.3352 186.5513,-212.6704 183.2161,-216.0056 179.881,-216.0056"/>
<text text-anchor="middle" x="159.1401" y="-203.7495" font-family="Arial" font-size="10.00" fill="#ffffff">Interface</text>
</a>
</g>
</g>
<!-- abjad.overrides.OverrideInterface -->
<g id="node2" class="node">
<title>abjad.overrides.OverrideInterface</title>
<g id="a_node2"><a xlink:href="../api/abjad/overrides.html#abjad.overrides.OverrideInterface" xlink:title="Override\nInterface" target="_top">
<path fill="#000000" stroke="#000000" stroke-width="2" d="M267.1304,-147.498C267.1304,-147.498 232.9721,-147.498 232.9721,-147.498 227.8061,-147.498 222.6401,-142.332 222.6401,-137.166 222.6401,-137.166 222.6401,-126.834 222.6401,-126.834 222.6401,-121.668 227.8061,-116.502 232.9721,-116.502 232.9721,-116.502 267.1304,-116.502 267.1304,-116.502 272.2965,-116.502 277.4625,-121.668 277.4625,-126.834 277.4625,-126.834 277.4625,-137.166 277.4625,-137.166 277.4625,-142.332 272.2965,-147.498 267.1304,-147.498"/>
<text text-anchor="middle" x="250.0513" y="-135.499" font-family="Arial" font-size="10.00" fill="#ffffff">Override</text>
<text text-anchor="middle" x="250.0513" y="-124" font-family="Arial" font-size="10.00" fill="#ffffff">Interface</text>
</a>
</g>
</g>
<!-- abjad.overrides.SettingInterface -->
<g id="node3" class="node">
<title>abjad.overrides.SettingInterface</title>
<g id="a_node3"><a xlink:href="../api/abjad/overrides.html#abjad.overrides.SettingInterface" xlink:title="Setting\nInterface" target="_top">
<path fill="#000000" stroke="#000000" stroke-width="2" d="M358.0416,-181.498C358.0416,-181.498 323.8832,-181.498 323.8832,-181.498 318.7172,-181.498 313.5512,-176.332 313.5512,-171.166 313.5512,-171.166 313.5512,-160.834 313.5512,-160.834 313.5512,-155.668 318.7172,-150.502 323.8832,-150.502 323.8832,-150.502 358.0416,-150.502 358.0416,-150.502 363.2076,-150.502 368.3736,-155.668 368.3736,-160.834 368.3736,-160.834 368.3736,-171.166 368.3736,-171.166 368.3736,-176.332 363.2076,-181.498 358.0416,-181.498"/>
<text text-anchor="middle" x="340.9624" y="-169.499" font-family="Arial" font-size="10.00" fill="#ffffff">Setting</text>
<text text-anchor="middle" x="340.9624" y="-158" font-family="Arial" font-size="10.00" fill="#ffffff">Interface</text>
</a>
</g>
</g>
<!-- abjad.overrides.TweakInterface -->
<g id="node4" class="node">
<title>abjad.overrides.TweakInterface</title>
<g id="a_node4"><a xlink:href="../api/abjad/overrides.html#abjad.overrides.TweakInterface" xlink:title="Tweak\nInterface" target="_top">
<path fill="#000000" stroke="#000000" stroke-width="2" d="M267.1304,-215.498C267.1304,-215.498 232.9721,-215.498 232.9721,-215.498 227.8061,-215.498 222.6401,-210.332 222.6401,-205.166 222.6401,-205.166 222.6401,-194.834 222.6401,-194.834 222.6401,-189.668 227.8061,-184.502 232.9721,-184.502 232.9721,-184.502 267.1304,-184.502 267.1304,-184.502 272.2965,-184.502 277.4625,-189.668 277.4625,-194.834 277.4625,-194.834 277.4625,-205.166 277.4625,-205.166 277.4625,-210.332 272.2965,-215.498 267.1304,-215.498"/>
<text text-anchor="middle" x="250.0513" y="-203.499" font-family="Arial" font-size="10.00" fill="#ffffff">Tweak</text>
<text text-anchor="middle" x="250.0513" y="-192" font-family="Arial" font-size="10.00" fill="#ffffff">Interface</text>
</a>
</g>
</g>
<!-- abjad.overrides.LilyPondLiteral -->
<g id="node5" class="node">
<title>abjad.overrides.LilyPondLiteral</title>
<g id="a_node5"><a xlink:href="../api/abjad/overrides.html#abjad.overrides.LilyPondLiteral" xlink:title="Lily\nPond\nLiteral" target="_top">
<path fill="#000000" stroke="#000000" stroke-width="2" d="M168.8771,-178.5C168.8771,-178.5 149.4032,-178.5 149.4032,-178.5 143.4032,-178.5 137.4032,-172.5 137.4032,-166.5 137.4032,-166.5 137.4032,-147.5 137.4032,-147.5 137.4032,-141.5 143.4032,-135.5 149.4032,-135.5 149.4032,-135.5 168.8771,-135.5 168.8771,-135.5 174.8771,-135.5 180.8771,-141.5 180.8771,-147.5 180.8771,-147.5 180.8771,-166.5 180.8771,-166.5 180.8771,-172.5 174.8771,-178.5 168.8771,-178.5"/>
<text text-anchor="middle" x="159.1401" y="-166.2485" font-family="Arial" font-size="10.00" fill="#ffffff">Lily</text>
<text text-anchor="middle" x="159.1401" y="-154.7495" font-family="Arial" font-size="10.00" fill="#ffffff">Pond</text>
<text text-anchor="middle" x="159.1401" y="-143.2505" font-family="Arial" font-size="10.00" fill="#ffffff">Literal</text>
</a>
</g>
</g>
<!-- abjad.overrides.LilyPondOverride -->
<g id="node6" class="node">
<title>abjad.overrides.LilyPondOverride</title>
<g id="a_node6"><a xlink:href="../api/abjad/overrides.html#abjad.overrides.LilyPondOverride" xlink:title="Lily\nPond\nOverride" target="_top">
<path fill="#000000" stroke="#000000" stroke-width="2" d="M174.486,-118.5C174.486,-118.5 143.7943,-118.5 143.7943,-118.5 137.7943,-118.5 131.7943,-112.5 131.7943,-106.5 131.7943,-106.5 131.7943,-87.5 131.7943,-87.5 131.7943,-81.5 137.7943,-75.5 143.7943,-75.5 143.7943,-75.5 174.486,-75.5 174.486,-75.5 180.486,-75.5 186.486,-81.5 186.486,-87.5 186.486,-87.5 186.486,-106.5 186.486,-106.5 186.486,-112.5 180.486,-118.5 174.486,-118.5"/>
<text text-anchor="middle" x="159.1401" y="-106.2485" font-family="Arial" font-size="10.00" fill="#ffffff">Lily</text>
<text text-anchor="middle" x="159.1401" y="-94.7495" font-family="Arial" font-size="10.00" fill="#ffffff">Pond</text>
<text text-anchor="middle" x="159.1401" y="-83.2505" font-family="Arial" font-size="10.00" fill="#ffffff">Override</text>
</a>
</g>
</g>
<!-- abjad.overrides.LilyPondSetting -->
<g id="node7" class="node">
<title>abjad.overrides.LilyPondSetting</title>
<g id="a_node7"><a xlink:href="../api/abjad/overrides.html#abjad.overrides.LilyPondSetting" xlink:title="Lily\nPond\nSetting" target="_top">
<path fill="#000000" stroke="#000000" stroke-width="2" d="M170.7731,-58.5C170.7731,-58.5 147.5071,-58.5 147.5071,-58.5 141.5071,-58.5 135.5071,-52.5 135.5071,-46.5 135.5071,-46.5 135.5071,-27.5 135.5071,-27.5 135.5071,-21.5 141.5071,-15.5 147.5071,-15.5 147.5071,-15.5 170.7731,-15.5 170.7731,-15.5 176.7731,-15.5 182.7731,-21.5 182.7731,-27.5 182.7731,-27.5 182.7731,-46.5 182.7731,-46.5 182.7731,-52.5 176.7731,-58.5 170.7731,-58.5"/>
<text text-anchor="middle" x="159.1401" y="-46.2485" font-family="Arial" font-size="10.00" fill="#ffffff">Lily</text>
<text text-anchor="middle" x="159.1401" y="-34.7495" font-family="Arial" font-size="10.00" fill="#ffffff">Pond</text>
<text text-anchor="middle" x="159.1401" y="-23.2505" font-family="Arial" font-size="10.00" fill="#ffffff">Setting</text>
</a>
</g>
</g>
<!-- builtins.object -->
<g id="node8" class="node">
<title>builtins.object</title>
<g id="a_node8"><a xlink:href="https://docs.python.org/3.9/library/functions.html#object" xlink:title="object" target="_top">
<path fill="#b3cde3" stroke="#b3cde3" stroke-width="2" d="M51.8576,-136.0056C51.8576,-136.0056 22.8269,-136.0056 22.8269,-136.0056 19.4918,-136.0056 16.1566,-132.6704 16.1566,-129.3352 16.1566,-129.3352 16.1566,-122.6648 16.1566,-122.6648 16.1566,-119.3296 19.4918,-115.9944 22.8269,-115.9944 22.8269,-115.9944 51.8576,-115.9944 51.8576,-115.9944 55.1928,-115.9944 58.528,-119.3296 58.528,-122.6648 58.528,-122.6648 58.528,-129.3352 58.528,-129.3352 58.528,-132.6704 55.1928,-136.0056 51.8576,-136.0056"/>
<text text-anchor="middle" x="37.3423" y="-123.7495" font-family="Arial" font-size="10.00" fill="#000000">object</text>
</a>
</g>
</g>
</g>
</svg>
