<?xml version="1.0" encoding="UTF-8" standalone="no"?>
<!DOCTYPE svg PUBLIC "-//W3C//DTD SVG 1.1//EN"
 "http://www.w3.org/Graphics/SVG/1.1/DTD/svg11.dtd">
<!-- Generated by graphviz version 2.40.1 (20161225.0304)
 -->
<!-- Title: InheritanceGraph Pages: 1 -->
<svg width="172pt" height="102pt"
 viewBox="0.00 0.00 171.81 102.00" xmlns="http://www.w3.org/2000/svg" xmlns:xlink="http://www.w3.org/1999/xlink">
<g id="graph0" class="graph" transform="scale(1 1) rotate(0) translate(4 98)">
<title>InheritanceGraph</title>
<g id="clust1" class="cluster">
<title>cluster_abjad.parser</title>
<path fill="transparent" stroke="#bcd2ee" stroke-width="2" stroke-dasharray="5,2" d="M98.6846,-8C98.6846,-8 145.8076,-8 145.8076,-8 151.8076,-8 157.8076,-14 157.8076,-20 157.8076,-20 157.8076,-74 157.8076,-74 157.8076,-80 151.8076,-86 145.8076,-86 145.8076,-86 98.6846,-86 98.6846,-86 92.6846,-86 86.6846,-80 86.6846,-74 86.6846,-74 86.6846,-20 86.6846,-20 86.6846,-14 92.6846,-8 98.6846,-8"/>
<text text-anchor="middle" x="122.2461" y="-74" font-family="Arial" font-size="10.00" fill="#000000">abjad.parser</text>
</g>
<g id="clust2" class="cluster">
<title>cluster_builtins</title>
<path fill="transparent" stroke="#bcd2ee" stroke-width="2" stroke-dasharray="5,2" d="M20,-19C20,-19 54.6846,-19 54.6846,-19 60.6846,-19 66.6846,-25 66.6846,-31 66.6846,-31 66.6846,-62 66.6846,-62 66.6846,-68 60.6846,-74 54.6846,-74 54.6846,-74 20,-74 20,-74 14,-74 8,-68 8,-62 8,-62 8,-31 8,-31 8,-25 14,-19 20,-19"/>
<text text-anchor="middle" x="37.3423" y="-62" font-family="Arial" font-size="10.00" fill="#000000">builtins</text>
</g>
<!-- builtins.object&#45;&gt;abjad.parser.LilyPondFraction.LilyPondFraction -->
<g id="edge1" class="edge">
<title>builtins.object&#45;&gt;abjad.parser.LilyPondFraction.LilyPondFraction</title>
<path fill="none" stroke="#778899" d="M58.6409,-37C66.8019,-37 76.358,-37 85.5292,-37"/>
<polygon fill="#778899" stroke="#778899" points="85.6255,-40.5001 95.6254,-37 85.6254,-33.5001 85.6255,-40.5001"/>
</g>
<!-- abjad.parser.LilyPondFraction.LilyPondFraction -->
<g id="node1" class="node">
<title>abjad.parser.LilyPondFraction.LilyPondFraction</title>
<g id="a_node1"><a xlink:href="../api/abjad/parser/LilyPondFraction.html#abjad.parser.LilyPondFraction.LilyPondFraction" xlink:title="Lily\nPond\nFraction" target="_top">
<path fill="#000000" stroke="#000000" stroke-width="2" d="M135.8693,-58.5C135.8693,-58.5 107.6229,-58.5 107.6229,-58.5 101.6229,-58.5 95.6229,-52.5 95.6229,-46.5 95.6229,-46.5 95.6229,-27.5 95.6229,-27.5 95.6229,-21.5 101.6229,-15.5 107.6229,-15.5 107.6229,-15.5 135.8693,-15.5 135.8693,-15.5 141.8693,-15.5 147.8693,-21.5 147.8693,-27.5 147.8693,-27.5 147.8693,-46.5 147.8693,-46.5 147.8693,-52.5 141.8693,-58.5 135.8693,-58.5"/>
<text text-anchor="middle" x="121.7461" y="-46.2485" font-family="Arial" font-size="10.00" fill="#ffffff">Lily</text>
<text text-anchor="middle" x="121.7461" y="-34.7495" font-family="Arial" font-size="10.00" fill="#ffffff">Pond</text>
<text text-anchor="middle" x="121.7461" y="-23.2505" font-family="Arial" font-size="10.00" fill="#ffffff">Fraction</text>
</a>
</g>
</g>
<!-- builtins.object -->
<g id="node2" class="node">
<title>builtins.object</title>
<g id="a_node2"><a xlink:href="https://docs.python.org/3.6/library/functions.html#object" xlink:title="object" target="_top">
<path fill="#b3cde3" stroke="#b3cde3" stroke-width="2" d="M51.8576,-47.0056C51.8576,-47.0056 22.8269,-47.0056 22.8269,-47.0056 19.4918,-47.0056 16.1566,-43.6704 16.1566,-40.3352 16.1566,-40.3352 16.1566,-33.6648 16.1566,-33.6648 16.1566,-30.3296 19.4918,-26.9944 22.8269,-26.9944 22.8269,-26.9944 51.8576,-26.9944 51.8576,-26.9944 55.1928,-26.9944 58.528,-30.3296 58.528,-33.6648 58.528,-33.6648 58.528,-40.3352 58.528,-40.3352 58.528,-43.6704 55.1928,-47.0056 51.8576,-47.0056"/>
<text text-anchor="middle" x="37.3423" y="-34.7495" font-family="Arial" font-size="10.00" fill="#000000">object</text>
</a>
</g>
</g>
</g>
</svg>
