<?xml version="1.0" encoding="UTF-8" standalone="no"?>
<!DOCTYPE svg PUBLIC "-//W3C//DTD SVG 1.1//EN"
 "http://www.w3.org/Graphics/SVG/1.1/DTD/svg11.dtd">
<!-- Generated by graphviz version 2.40.1 (20161225.0304)
 -->
<!-- Title: InheritanceGraph Pages: 1 -->
<svg width="256pt" height="90pt"
 viewBox="0.00 0.00 255.61 90.00" xmlns="http://www.w3.org/2000/svg" xmlns:xlink="http://www.w3.org/1999/xlink">
<g id="graph0" class="graph" transform="scale(1 1) rotate(0) translate(4 86)">
<title>InheritanceGraph</title>
<g id="clust1" class="cluster">
<title>cluster_abjad.pitch</title>
<path fill="transparent" stroke="#bcd2ee" stroke-width="2" stroke-dasharray="5,2" d="M98.6846,-8C98.6846,-8 227.6055,-8 227.6055,-8 233.6055,-8 239.6055,-14 239.6055,-20 239.6055,-20 239.6055,-62 239.6055,-62 239.6055,-68 233.6055,-74 227.6055,-74 227.6055,-74 98.6846,-74 98.6846,-74 92.6846,-74 86.6846,-68 86.6846,-62 86.6846,-62 86.6846,-20 86.6846,-20 86.6846,-14 92.6846,-8 98.6846,-8"/>
<text text-anchor="middle" x="163.145" y="-62" font-family="Arial" font-size="10.00" fill="#000000">abjad.pitch</text>
</g>
<g id="clust2" class="cluster">
<title>cluster_builtins</title>
<path fill="transparent" stroke="#bcd2ee" stroke-width="2" stroke-dasharray="5,2" d="M20,-13C20,-13 54.6846,-13 54.6846,-13 60.6846,-13 66.6846,-19 66.6846,-25 66.6846,-25 66.6846,-56 66.6846,-56 66.6846,-62 60.6846,-68 54.6846,-68 54.6846,-68 20,-68 20,-68 14,-68 8,-62 8,-56 8,-56 8,-25 8,-25 8,-19 14,-13 20,-13"/>
<text text-anchor="middle" x="37.3423" y="-56" font-family="Arial" font-size="10.00" fill="#000000">builtins</text>
</g>
<!-- abjad.pitch.Pitch.Pitch&#45;&gt;abjad.pitch.NumberedPitch.NumberedPitch -->
<g id="edge1" class="edge">
<title>abjad.pitch.Pitch.Pitch&#45;&gt;abjad.pitch.NumberedPitch.NumberedPitch</title>
<path fill="none" stroke="#778899" d="M132.9887,-31C140.6517,-31 149.7925,-31 158.8285,-31"/>
<polygon fill="#778899" stroke="#778899" points="158.9014,-34.5001 168.9014,-31 158.9013,-27.5001 158.9014,-34.5001"/>
</g>
<!-- builtins.object&#45;&gt;abjad.pitch.Pitch.Pitch -->
<g id="edge2" class="edge">
<title>builtins.object&#45;&gt;abjad.pitch.Pitch.Pitch</title>
<path fill="none" stroke="#778899" d="M58.6401,-31C66.6192,-31 75.8314,-31 84.4144,-31"/>
<polygon fill="#778899" stroke="#778899" points="84.4465,-34.5001 94.4465,-31 84.4465,-27.5001 84.4465,-34.5001"/>
</g>
<!-- abjad.pitch.NumberedPitch.NumberedPitch -->
<g id="node1" class="node">
<title>abjad.pitch.NumberedPitch.NumberedPitch</title>
<g id="a_node1"><a xlink:href="../api/abjad/pitch/NumberedPitch.html#abjad.pitch.NumberedPitch.NumberedPitch" xlink:title="Numbered\nPitch" target="_top">
<path fill="#000000" stroke="#000000" stroke-width="2" d="M221.1189,-46.498C221.1189,-46.498 179.4026,-46.498 179.4026,-46.498 174.2365,-46.498 169.0705,-41.332 169.0705,-36.166 169.0705,-36.166 169.0705,-25.834 169.0705,-25.834 169.0705,-20.668 174.2365,-15.502 179.4026,-15.502 179.4026,-15.502 221.1189,-15.502 221.1189,-15.502 226.2849,-15.502 231.451,-20.668 231.451,-25.834 231.451,-25.834 231.451,-36.166 231.451,-36.166 231.451,-41.332 226.2849,-46.498 221.1189,-46.498"/>
<text text-anchor="middle" x="200.2607" y="-34.499" font-family="Arial" font-size="10.00" fill="#ffffff">Numbered</text>
<text text-anchor="middle" x="200.2607" y="-23" font-family="Arial" font-size="10.00" fill="#ffffff">Pitch</text>
</a>
</g>
</g>
<!-- abjad.pitch.Pitch.Pitch -->
<g id="node2" class="node">
<title>abjad.pitch.Pitch.Pitch</title>
<g id="a_node2"><a xlink:href="../api/abjad/pitch/Pitch.html#abjad.pitch.Pitch.Pitch" xlink:title="Pitch" target="_top">
<path fill="#fbb4ae" stroke="#fbb4ae" stroke-width="2" d="M126.3621,-41.0056C126.3621,-41.0056 101.2385,-41.0056 101.2385,-41.0056 97.9033,-41.0056 94.5681,-37.6704 94.5681,-34.3352 94.5681,-34.3352 94.5681,-27.6648 94.5681,-27.6648 94.5681,-24.3296 97.9033,-20.9944 101.2385,-20.9944 101.2385,-20.9944 126.3621,-20.9944 126.3621,-20.9944 129.6973,-20.9944 133.0324,-24.3296 133.0324,-27.6648 133.0324,-27.6648 133.0324,-34.3352 133.0324,-34.3352 133.0324,-37.6704 129.6973,-41.0056 126.3621,-41.0056"/>
<text text-anchor="middle" x="113.8003" y="-28.7495" font-family="Arial" font-size="10.00" fill="#000000">Pitch</text>
</a>
</g>
</g>
<!-- builtins.object -->
<g id="node3" class="node">
<title>builtins.object</title>
<g id="a_node3"><a xlink:href="https://docs.python.org/3.6/library/functions.html#object" xlink:title="object" target="_top">
<path fill="#b3cde3" stroke="#b3cde3" stroke-width="2" d="M51.8576,-41.0056C51.8576,-41.0056 22.8269,-41.0056 22.8269,-41.0056 19.4918,-41.0056 16.1566,-37.6704 16.1566,-34.3352 16.1566,-34.3352 16.1566,-27.6648 16.1566,-27.6648 16.1566,-24.3296 19.4918,-20.9944 22.8269,-20.9944 22.8269,-20.9944 51.8576,-20.9944 51.8576,-20.9944 55.1928,-20.9944 58.528,-24.3296 58.528,-27.6648 58.528,-27.6648 58.528,-34.3352 58.528,-34.3352 58.528,-37.6704 55.1928,-41.0056 51.8576,-41.0056"/>
<text text-anchor="middle" x="37.3423" y="-28.7495" font-family="Arial" font-size="10.00" fill="#000000">object</text>
</a>
</g>
</g>
</g>
</svg>
