<?xml version="1.0" encoding="UTF-8" standalone="no"?>
<!DOCTYPE svg PUBLIC "-//W3C//DTD SVG 1.1//EN"
 "http://www.w3.org/Graphics/SVG/1.1/DTD/svg11.dtd">
<!-- Generated by graphviz version 2.40.1 (20161225.0304)
 -->
<!-- Title: InheritanceGraph Pages: 1 -->
<svg width="162pt" height="101pt"
 viewBox="0.00 0.00 162.00 101.00" xmlns="http://www.w3.org/2000/svg" xmlns:xlink="http://www.w3.org/1999/xlink">
<g id="graph0" class="graph" transform="scale(1 1) rotate(0) translate(4 97)">
<title>InheritanceGraph</title>
<g id="clust1" class="cluster">
<title>cluster_abjad.indicators</title>
<path fill="transparent" stroke="#bcd2ee" stroke-width="2" stroke-dasharray="5,2" d="M93,-8C93,-8 138,-8 138,-8 144,-8 150,-14 150,-20 150,-20 150,-73 150,-73 150,-79 144,-85 138,-85 138,-85 93,-85 93,-85 87,-85 81,-79 81,-73 81,-73 81,-20 81,-20 81,-14 87,-8 93,-8"/>
<text text-anchor="middle" x="115.5" y="-73" font-family="Arial" font-size="10.00" fill="#000000">abjad.indicators</text>
</g>
<g id="clust2" class="cluster">
<title>cluster_builtins</title>
<path fill="transparent" stroke="#bcd2ee" stroke-width="2" stroke-dasharray="5,2" d="M20,-19C20,-19 49,-19 49,-19 55,-19 61,-25 61,-31 61,-31 61,-62 61,-62 61,-68 55,-74 49,-74 49,-74 20,-74 20,-74 14,-74 8,-68 8,-62 8,-62 8,-31 8,-31 8,-25 14,-19 20,-19"/>
<text text-anchor="middle" x="34.5" y="-62" font-family="Arial" font-size="10.00" fill="#000000">builtins</text>
</g>
<!-- builtins.object&#45;&gt;abjad.indicators.StopPhrasingSlur.StopPhrasingSlur -->
<g id="edge1" class="edge">
<title>builtins.object&#45;&gt;abjad.indicators.StopPhrasingSlur.StopPhrasingSlur</title>
<path fill="none" stroke="#778899" d="M53.1707,-37C61.6297,-37 71.8941,-37 81.6092,-37"/>
<polygon fill="#778899" stroke="#778899" points="81.8241,-40.5001 91.8241,-37 81.824,-33.5001 81.8241,-40.5001"/>
</g>
<!-- abjad.indicators.StopPhrasingSlur.StopPhrasingSlur -->
<g id="node1" class="node">
<title>abjad.indicators.StopPhrasingSlur.StopPhrasingSlur</title>
<g id="a_node1"><a xlink:href="../api/abjad/indicators/StopPhrasingSlur.html#abjad.indicators.StopPhrasingSlur.StopPhrasingSlur" xlink:title="Stop\nPhrasing\nSlur" target="_top">
<path fill="#000000" stroke="#000000" stroke-width="2" d="M126,-57.5C126,-57.5 104,-57.5 104,-57.5 98,-57.5 92,-51.5 92,-45.5 92,-45.5 92,-28.5 92,-28.5 92,-22.5 98,-16.5 104,-16.5 104,-16.5 126,-16.5 126,-16.5 132,-16.5 138,-22.5 138,-28.5 138,-28.5 138,-45.5 138,-45.5 138,-51.5 132,-57.5 126,-57.5"/>
<text text-anchor="middle" x="115" y="-45.5" font-family="Arial" font-size="10.00" fill="#ffffff">Stop</text>
<text text-anchor="middle" x="115" y="-34.5" font-family="Arial" font-size="10.00" fill="#ffffff">Phrasing</text>
<text text-anchor="middle" x="115" y="-23.5" font-family="Arial" font-size="10.00" fill="#ffffff">Slur</text>
</a>
</g>
</g>
<!-- builtins.object -->
<g id="node2" class="node">
<title>builtins.object</title>
<g id="a_node2"><a xlink:href="https://docs.python.org/3.6/library/functions.html#object" xlink:title="object" target="_top">
<path fill="#b3cde3" stroke="#b3cde3" stroke-width="2" d="M46.6667,-46.5C46.6667,-46.5 22.3333,-46.5 22.3333,-46.5 19.1667,-46.5 16,-43.3333 16,-40.1667 16,-40.1667 16,-33.8333 16,-33.8333 16,-30.6667 19.1667,-27.5 22.3333,-27.5 22.3333,-27.5 46.6667,-27.5 46.6667,-27.5 49.8333,-27.5 53,-30.6667 53,-33.8333 53,-33.8333 53,-40.1667 53,-40.1667 53,-43.3333 49.8333,-46.5 46.6667,-46.5"/>
<text text-anchor="middle" x="34.5" y="-34.5" font-family="Arial" font-size="10.00" fill="#000000">object</text>
</a>
</g>
</g>
</g>
</svg>
