<?xml version="1.0" encoding="UTF-8" standalone="no"?>
<!DOCTYPE svg PUBLIC "-//W3C//DTD SVG 1.1//EN"
 "http://www.w3.org/Graphics/SVG/1.1/DTD/svg11.dtd">
<!-- Generated by graphviz version 2.40.1 (20161225.0304)
 -->
<!-- Title: InheritanceGraph Pages: 1 -->
<svg width="269pt" height="125pt"
 viewBox="0.00 0.00 268.94 125.00" xmlns="http://www.w3.org/2000/svg" xmlns:xlink="http://www.w3.org/1999/xlink">
<g id="graph0" class="graph" transform="scale(1 1) rotate(0) translate(4 121)">
<title>InheritanceGraph</title>
<g id="clust1" class="cluster">
<title>cluster_abjad.segments</title>
<path fill="transparent" stroke="#bcd2ee" stroke-width="2" stroke-dasharray="5,2" d="M98.6846,-8C98.6846,-8 240.9355,-8 240.9355,-8 246.9355,-8 252.9355,-14 252.9355,-20 252.9355,-20 252.9355,-97 252.9355,-97 252.9355,-103 246.9355,-109 240.9355,-109 240.9355,-109 98.6846,-109 98.6846,-109 92.6846,-109 86.6846,-103 86.6846,-97 86.6846,-97 86.6846,-20 86.6846,-20 86.6846,-14 92.6846,-8 98.6846,-8"/>
<text text-anchor="middle" x="169.8101" y="-97" font-family="Arial" font-size="10.00" fill="#000000">abjad.segments</text>
</g>
<g id="clust2" class="cluster">
<title>cluster_builtins</title>
<path fill="transparent" stroke="#bcd2ee" stroke-width="2" stroke-dasharray="5,2" d="M20,-31C20,-31 54.6846,-31 54.6846,-31 60.6846,-31 66.6846,-37 66.6846,-43 66.6846,-43 66.6846,-74 66.6846,-74 66.6846,-80 60.6846,-86 54.6846,-86 54.6846,-86 20,-86 20,-86 14,-86 8,-80 8,-74 8,-74 8,-43 8,-43 8,-37 14,-31 20,-31"/>
<text text-anchor="middle" x="37.3423" y="-74" font-family="Arial" font-size="10.00" fill="#000000">builtins</text>
</g>
<!-- abjad.segments.ScoreTemplate.ScoreTemplate&#45;&gt;abjad.segments.GroupedRhythmicStavesScoreTemplate.GroupedRhythmicStavesScoreTemplate -->
<g id="edge1" class="edge">
<title>abjad.segments.ScoreTemplate.ScoreTemplate&#45;&gt;abjad.segments.GroupedRhythmicStavesScoreTemplate.GroupedRhythmicStavesScoreTemplate</title>
<path fill="none" stroke="#778899" d="M151.1661,-49C159.4002,-49 168.5471,-49 177.3152,-49"/>
<polygon fill="#778899" stroke="#778899" points="177.3569,-52.5001 187.3568,-49 177.3568,-45.5001 177.3569,-52.5001"/>
</g>
<!-- builtins.object&#45;&gt;abjad.segments.ScoreTemplate.ScoreTemplate -->
<g id="edge2" class="edge">
<title>builtins.object&#45;&gt;abjad.segments.ScoreTemplate.ScoreTemplate</title>
<path fill="none" stroke="#778899" d="M58.9504,-49C66.7848,-49 75.8866,-49 84.7257,-49"/>
<polygon fill="#778899" stroke="#778899" points="84.8896,-52.5001 94.8896,-49 84.8896,-45.5001 84.8896,-52.5001"/>
</g>
<!-- abjad.segments.GroupedRhythmicStavesScoreTemplate.GroupedRhythmicStavesScoreTemplate -->
<g id="node1" class="node">
<title>abjad.segments.GroupedRhythmicStavesScoreTemplate.GroupedRhythmicStavesScoreTemplate</title>
<g id="a_node1"><a xlink:href="../api/abjad/segments/GroupedRhythmicStavesScoreTemplate.html#abjad.segments.GroupedRhythmicStavesScoreTemplate.GroupedRhythmicStavesScoreTemplate" xlink:title="Grouped\nRhythmic\nStaves\nScore\nTemplate" target="_top">
<path fill="#000000" stroke="#000000" stroke-width="2" d="M232.7739,-81.997C232.7739,-81.997 199.4224,-81.997 199.4224,-81.997 193.4224,-81.997 187.4224,-75.997 187.4224,-69.997 187.4224,-69.997 187.4224,-28.003 187.4224,-28.003 187.4224,-22.003 193.4224,-16.003 199.4224,-16.003 199.4224,-16.003 232.7739,-16.003 232.7739,-16.003 238.7739,-16.003 244.7739,-22.003 244.7739,-28.003 244.7739,-28.003 244.7739,-69.997 244.7739,-69.997 244.7739,-75.997 238.7739,-81.997 232.7739,-81.997"/>
<text text-anchor="middle" x="216.0981" y="-69.7476" font-family="Arial" font-size="10.00" fill="#ffffff">Grouped</text>
<text text-anchor="middle" x="216.0981" y="-58.2485" font-family="Arial" font-size="10.00" fill="#ffffff">Rhythmic</text>
<text text-anchor="middle" x="216.0981" y="-46.7495" font-family="Arial" font-size="10.00" fill="#ffffff">Staves</text>
<text text-anchor="middle" x="216.0981" y="-35.2505" font-family="Arial" font-size="10.00" fill="#ffffff">Score</text>
<text text-anchor="middle" x="216.0981" y="-23.7515" font-family="Arial" font-size="10.00" fill="#ffffff">Template</text>
</a>
</g>
</g>
<!-- abjad.segments.ScoreTemplate.ScoreTemplate -->
<g id="node2" class="node">
<title>abjad.segments.ScoreTemplate.ScoreTemplate</title>
<g id="a_node2"><a xlink:href="../api/abjad/segments/ScoreTemplate.html#abjad.segments.ScoreTemplate.ScoreTemplate" xlink:title="Score\nTemplate" target="_top">
<path fill="#fbb4ae" stroke="#fbb4ae" stroke-width="2" d="M140.7184,-64.498C140.7184,-64.498 105.2269,-64.498 105.2269,-64.498 100.0609,-64.498 94.8949,-59.332 94.8949,-54.166 94.8949,-54.166 94.8949,-43.834 94.8949,-43.834 94.8949,-38.668 100.0609,-33.502 105.2269,-33.502 105.2269,-33.502 140.7184,-33.502 140.7184,-33.502 145.8844,-33.502 151.0504,-38.668 151.0504,-43.834 151.0504,-43.834 151.0504,-54.166 151.0504,-54.166 151.0504,-59.332 145.8844,-64.498 140.7184,-64.498"/>
<text text-anchor="middle" x="122.9727" y="-52.499" font-family="Arial" font-size="10.00" fill="#000000">Score</text>
<text text-anchor="middle" x="122.9727" y="-41" font-family="Arial" font-size="10.00" fill="#000000">Template</text>
</a>
</g>
</g>
<!-- builtins.object -->
<g id="node3" class="node">
<title>builtins.object</title>
<g id="a_node3"><a xlink:href="https://docs.python.org/3.6/library/functions.html#object" xlink:title="object" target="_top">
<path fill="#b3cde3" stroke="#b3cde3" stroke-width="2" d="M51.8576,-59.0056C51.8576,-59.0056 22.8269,-59.0056 22.8269,-59.0056 19.4918,-59.0056 16.1566,-55.6704 16.1566,-52.3352 16.1566,-52.3352 16.1566,-45.6648 16.1566,-45.6648 16.1566,-42.3296 19.4918,-38.9944 22.8269,-38.9944 22.8269,-38.9944 51.8576,-38.9944 51.8576,-38.9944 55.1928,-38.9944 58.528,-42.3296 58.528,-45.6648 58.528,-45.6648 58.528,-52.3352 58.528,-52.3352 58.528,-55.6704 55.1928,-59.0056 51.8576,-59.0056"/>
<text text-anchor="middle" x="37.3423" y="-46.7495" font-family="Arial" font-size="10.00" fill="#000000">object</text>
</a>
</g>
</g>
</g>
</svg>
