<?xml version="1.0" encoding="UTF-8" standalone="no"?>
<!DOCTYPE svg PUBLIC "-//W3C//DTD SVG 1.1//EN"
 "http://www.w3.org/Graphics/SVG/1.1/DTD/svg11.dtd">
<!-- Generated by graphviz version 2.40.1 (20161225.0304)
 -->
<!-- Title: InheritanceGraph Pages: 1 -->
<svg width="405pt" height="289pt"
 viewBox="0.00 0.00 404.65 289.00" xmlns="http://www.w3.org/2000/svg" xmlns:xlink="http://www.w3.org/1999/xlink">
<g id="graph0" class="graph" transform="scale(1 1) rotate(0) translate(4 285)">
<title>InheritanceGraph</title>
<g id="clust1" class="cluster">
<title>cluster_abc</title>
<path fill="transparent" stroke="#bcd2ee" stroke-width="2" stroke-dasharray="5,2" d="M93,-118C93,-118 117,-118 117,-118 123,-118 129,-124 129,-130 129,-130 129,-161 129,-161 129,-167 123,-173 117,-173 117,-173 93,-173 93,-173 87,-173 81,-167 81,-161 81,-161 81,-130 81,-130 81,-124 87,-118 93,-118"/>
<text text-anchor="middle" x="105" y="-161" font-family="Arial" font-size="10.00" fill="#000000">abc</text>
</g>
<g id="clust2" class="cluster">
<title>cluster_abjadext.cli</title>
<path fill="transparent" stroke="#bcd2ee" stroke-width="2" stroke-dasharray="5,2" d="M236.598,-8C236.598,-8 376.6518,-8 376.6518,-8 382.6518,-8 388.6518,-14 388.6518,-20 388.6518,-20 388.6518,-261 388.6518,-261 388.6518,-267 382.6518,-273 376.6518,-273 376.6518,-273 236.598,-273 236.598,-273 230.598,-273 224.598,-267 224.598,-261 224.598,-261 224.598,-20 224.598,-20 224.598,-14 230.598,-8 236.598,-8"/>
<text text-anchor="middle" x="306.6249" y="-261" font-family="Arial" font-size="10.00" fill="#000000">abjadext.cli</text>
</g>
<g id="clust3" class="cluster">
<title>cluster_builtins</title>
<path fill="transparent" stroke="#bcd2ee" stroke-width="2" stroke-dasharray="5,2" d="M20,-118C20,-118 49,-118 49,-118 55,-118 61,-124 61,-130 61,-130 61,-161 61,-161 61,-167 55,-173 49,-173 49,-173 20,-173 20,-173 14,-173 8,-167 8,-161 8,-161 8,-130 8,-130 8,-124 14,-118 20,-118"/>
<text text-anchor="middle" x="34.5" y="-161" font-family="Arial" font-size="10.00" fill="#000000">builtins</text>
</g>
<g id="clust4" class="cluster">
<title>cluster_uqbar.cli</title>
<path fill="transparent" stroke="#bcd2ee" stroke-width="2" stroke-dasharray="5,2" d="M161,-115C161,-115 192.598,-115 192.598,-115 198.598,-115 204.598,-121 204.598,-127 204.598,-127 204.598,-164 204.598,-164 204.598,-170 198.598,-176 192.598,-176 192.598,-176 161,-176 161,-176 155,-176 149,-170 149,-164 149,-164 149,-127 149,-127 149,-121 155,-115 161,-115"/>
<text text-anchor="middle" x="176.799" y="-164" font-family="Arial" font-size="10.00" fill="#000000">uqbar.cli</text>
</g>
<!-- abc.ABC&#45;&gt;uqbar.cli.CLI.CLI -->
<g id="edge5" class="edge">
<title>abc.ABC&#45;&gt;uqbar.cli.CLI.CLI</title>
<path fill="none" stroke="#778899" d="M121.2923,-136C128.8224,-136 138.0128,-136 146.7317,-136"/>
<polygon fill="#778899" stroke="#778899" points="146.9896,-139.5001 156.9895,-136 146.9895,-132.5001 146.9896,-139.5001"/>
</g>
<!-- abjadext.cli.ScorePackageScript.ScorePackageScript&#45;&gt;abjadext.cli.ManageBuildTargetScript.ManageBuildTargetScript -->
<g id="edge1" class="edge">
<title>abjadext.cli.ScorePackageScript.ScorePackageScript&#45;&gt;abjadext.cli.ManageBuildTargetScript.ManageBuildTargetScript</title>
<path fill="none" stroke="#778899" d="M286.934,-113.7233C299.1323,-101.2635 314.5032,-85.563 327.7517,-72.0304"/>
<polygon fill="#778899" stroke="#778899" points="330.3653,-74.364 334.86,-64.7698 325.3633,-69.467 330.3653,-74.364"/>
</g>
<!-- abjadext.cli.ScorePackageScript.ScorePackageScript&#45;&gt;abjadext.cli.ManageMaterialScript.ManageMaterialScript -->
<g id="edge2" class="edge">
<title>abjadext.cli.ScorePackageScript.ScorePackageScript&#45;&gt;abjadext.cli.ManageMaterialScript.ManageMaterialScript</title>
<path fill="none" stroke="#778899" d="M296.0245,-126.2627C305.3811,-123.3143 315.6755,-120.0702 325.1054,-117.0986"/>
<polygon fill="#778899" stroke="#778899" points="326.4275,-120.3518 334.9132,-114.008 324.3235,-113.6754 326.4275,-120.3518"/>
</g>
<!-- abjadext.cli.ScorePackageScript.ScorePackageScript&#45;&gt;abjadext.cli.ManageScoreScript.ManageScoreScript -->
<g id="edge3" class="edge">
<title>abjadext.cli.ScorePackageScript.ScorePackageScript&#45;&gt;abjadext.cli.ManageScoreScript.ManageScoreScript</title>
<path fill="none" stroke="#778899" d="M295.7685,-145.9896C305.3149,-149.1016 315.8585,-152.5387 325.4741,-155.6733"/>
<polygon fill="#778899" stroke="#778899" points="324.4856,-159.0323 335.078,-158.8041 326.6552,-152.377 324.4856,-159.0323"/>
</g>
<!-- abjadext.cli.ScorePackageScript.ScorePackageScript&#45;&gt;abjadext.cli.ManageSegmentScript.ManageSegmentScript -->
<g id="edge4" class="edge">
<title>abjadext.cli.ScorePackageScript.ScorePackageScript&#45;&gt;abjadext.cli.ManageSegmentScript.ManageSegmentScript</title>
<path fill="none" stroke="#778899" d="M287.402,-157.5444C299.675,-169.4137 315.0505,-184.2835 328.2402,-197.0393"/>
<polygon fill="#778899" stroke="#778899" points="326.092,-199.8308 335.7135,-204.2668 330.9583,-194.799 326.092,-199.8308"/>
</g>
<!-- builtins.object&#45;&gt;abc.ABC -->
<g id="edge6" class="edge">
<title>builtins.object&#45;&gt;abc.ABC</title>
<path fill="none" stroke="#778899" d="M53.023,-136C60.8254,-136 70.0511,-136 78.5482,-136"/>
<polygon fill="#778899" stroke="#778899" points="78.7595,-139.5001 88.7595,-136 78.7595,-132.5001 78.7595,-139.5001"/>
</g>
<!-- uqbar.cli.CLI.CLI&#45;&gt;abjadext.cli.ScorePackageScript.ScorePackageScript -->
<g id="edge7" class="edge">
<title>uqbar.cli.CLI.CLI&#45;&gt;abjadext.cli.ScorePackageScript.ScorePackageScript</title>
<path fill="none" stroke="#778899" d="M196.8415,-136C204.3776,-136 213.2654,-136 222.093,-136"/>
<polygon fill="#778899" stroke="#778899" points="222.3435,-139.5001 232.3435,-136 222.3434,-132.5001 222.3435,-139.5001"/>
</g>
<!-- abc.ABC -->
<g id="node1" class="node">
<title>abc.ABC</title>
<g id="a_node1"><a xlink:href="https://docs.python.org/3.6/library/abc.html#abc.ABC" xlink:title="ABC" target="_top">
<path fill="#fbb4ae" stroke="#fbb4ae" stroke-width="2" d="M114.6667,-145.5C114.6667,-145.5 95.3333,-145.5 95.3333,-145.5 92.1667,-145.5 89,-142.3333 89,-139.1667 89,-139.1667 89,-132.8333 89,-132.8333 89,-129.6667 92.1667,-126.5 95.3333,-126.5 95.3333,-126.5 114.6667,-126.5 114.6667,-126.5 117.8333,-126.5 121,-129.6667 121,-132.8333 121,-132.8333 121,-139.1667 121,-139.1667 121,-142.3333 117.8333,-145.5 114.6667,-145.5"/>
<text text-anchor="middle" x="105" y="-133.5" font-family="Arial" font-size="10.00" fill="#000000">ABC</text>
</a>
</g>
</g>
<!-- abjadext.cli.ManageBuildTargetScript.ManageBuildTargetScript -->
<g id="node2" class="node">
<title>abjadext.cli.ManageBuildTargetScript.ManageBuildTargetScript</title>
<g id="a_node2"><a xlink:href="../api/abjadext/cli/ManageBuildTargetScript.html#abjadext.cli.ManageBuildTargetScript.ManageBuildTargetScript" xlink:title="Manage\nBuild\nTarget\nScript" target="_top">
<path fill="#000000" stroke="#000000" stroke-width="2" d="M367.1518,-68C367.1518,-68 347.1518,-68 347.1518,-68 341.1518,-68 335.1518,-62 335.1518,-56 335.1518,-56 335.1518,-28 335.1518,-28 335.1518,-22 341.1518,-16 347.1518,-16 347.1518,-16 367.1518,-16 367.1518,-16 373.1518,-16 379.1518,-22 379.1518,-28 379.1518,-28 379.1518,-56 379.1518,-56 379.1518,-62 373.1518,-68 367.1518,-68"/>
<text text-anchor="middle" x="357.1518" y="-56" font-family="Arial" font-size="10.00" fill="#ffffff">Manage</text>
<text text-anchor="middle" x="357.1518" y="-45" font-family="Arial" font-size="10.00" fill="#ffffff">Build</text>
<text text-anchor="middle" x="357.1518" y="-34" font-family="Arial" font-size="10.00" fill="#ffffff">Target</text>
<text text-anchor="middle" x="357.1518" y="-23" font-family="Arial" font-size="10.00" fill="#ffffff">Script</text>
</a>
</g>
</g>
<!-- abjadext.cli.ManageMaterialScript.ManageMaterialScript -->
<g id="node3" class="node">
<title>abjadext.cli.ManageMaterialScript.ManageMaterialScript</title>
<g id="a_node3"><a xlink:href="../api/abjadext/cli/ManageMaterialScript.html#abjadext.cli.ManageMaterialScript.ManageMaterialScript" xlink:title="Manage\nMaterial\nScript" target="_top">
<path fill="#000000" stroke="#000000" stroke-width="2" d="M367.1518,-127.5C367.1518,-127.5 347.1518,-127.5 347.1518,-127.5 341.1518,-127.5 335.1518,-121.5 335.1518,-115.5 335.1518,-115.5 335.1518,-98.5 335.1518,-98.5 335.1518,-92.5 341.1518,-86.5 347.1518,-86.5 347.1518,-86.5 367.1518,-86.5 367.1518,-86.5 373.1518,-86.5 379.1518,-92.5 379.1518,-98.5 379.1518,-98.5 379.1518,-115.5 379.1518,-115.5 379.1518,-121.5 373.1518,-127.5 367.1518,-127.5"/>
<text text-anchor="middle" x="357.1518" y="-115.5" font-family="Arial" font-size="10.00" fill="#ffffff">Manage</text>
<text text-anchor="middle" x="357.1518" y="-104.5" font-family="Arial" font-size="10.00" fill="#ffffff">Material</text>
<text text-anchor="middle" x="357.1518" y="-93.5" font-family="Arial" font-size="10.00" fill="#ffffff">Script</text>
</a>
</g>
</g>
<!-- abjadext.cli.ManageScoreScript.ManageScoreScript -->
<g id="node4" class="node">
<title>abjadext.cli.ManageScoreScript.ManageScoreScript</title>
<g id="a_node4"><a xlink:href="../api/abjadext/cli/ManageScoreScript.html#abjadext.cli.ManageScoreScript.ManageScoreScript" xlink:title="Manage\nScore\nScript" target="_top">
<path fill="#000000" stroke="#000000" stroke-width="2" d="M367.1518,-186.5C367.1518,-186.5 347.1518,-186.5 347.1518,-186.5 341.1518,-186.5 335.1518,-180.5 335.1518,-174.5 335.1518,-174.5 335.1518,-157.5 335.1518,-157.5 335.1518,-151.5 341.1518,-145.5 347.1518,-145.5 347.1518,-145.5 367.1518,-145.5 367.1518,-145.5 373.1518,-145.5 379.1518,-151.5 379.1518,-157.5 379.1518,-157.5 379.1518,-174.5 379.1518,-174.5 379.1518,-180.5 373.1518,-186.5 367.1518,-186.5"/>
<text text-anchor="middle" x="357.1518" y="-174.5" font-family="Arial" font-size="10.00" fill="#ffffff">Manage</text>
<text text-anchor="middle" x="357.1518" y="-163.5" font-family="Arial" font-size="10.00" fill="#ffffff">Score</text>
<text text-anchor="middle" x="357.1518" y="-152.5" font-family="Arial" font-size="10.00" fill="#ffffff">Script</text>
</a>
</g>
</g>
<!-- abjadext.cli.ManageSegmentScript.ManageSegmentScript -->
<g id="node5" class="node">
<title>abjadext.cli.ManageSegmentScript.ManageSegmentScript</title>
<g id="a_node5"><a xlink:href="../api/abjadext/cli/ManageSegmentScript.html#abjadext.cli.ManageSegmentScript.ManageSegmentScript" xlink:title="Manage\nSegment\nScript" target="_top">
<path fill="#000000" stroke="#000000" stroke-width="2" d="M368.6518,-245.5C368.6518,-245.5 345.6518,-245.5 345.6518,-245.5 339.6518,-245.5 333.6518,-239.5 333.6518,-233.5 333.6518,-233.5 333.6518,-216.5 333.6518,-216.5 333.6518,-210.5 339.6518,-204.5 345.6518,-204.5 345.6518,-204.5 368.6518,-204.5 368.6518,-204.5 374.6518,-204.5 380.6518,-210.5 380.6518,-216.5 380.6518,-216.5 380.6518,-233.5 380.6518,-233.5 380.6518,-239.5 374.6518,-245.5 368.6518,-245.5"/>
<text text-anchor="middle" x="357.1518" y="-233.5" font-family="Arial" font-size="10.00" fill="#ffffff">Manage</text>
<text text-anchor="middle" x="357.1518" y="-222.5" font-family="Arial" font-size="10.00" fill="#ffffff">Segment</text>
<text text-anchor="middle" x="357.1518" y="-211.5" font-family="Arial" font-size="10.00" fill="#ffffff">Script</text>
</a>
</g>
</g>
<!-- abjadext.cli.ScorePackageScript.ScorePackageScript -->
<g id="node6" class="node">
<title>abjadext.cli.ScorePackageScript.ScorePackageScript</title>
<g id="a_node6"><a xlink:href="../api/abjadext/cli/ScorePackageScript.html#abjadext.cli.ScorePackageScript.ScorePackageScript" xlink:title="Score\nPackage\nScript" target="_top">
<ellipse fill="#000000" stroke="#000000" stroke-width="2" cx="265.1249" cy="-136" rx="32.5538" ry="28.9828"/>
<text text-anchor="middle" x="265.1249" y="-144.5" font-family="Arial" font-size="10.00" fill="#ffffff">Score</text>
<text text-anchor="middle" x="265.1249" y="-133.5" font-family="Arial" font-size="10.00" fill="#ffffff">Package</text>
<text text-anchor="middle" x="265.1249" y="-122.5" font-family="Arial" font-size="10.00" fill="#ffffff">Script</text>
</a>
</g>
</g>
<!-- builtins.object -->
<g id="node7" class="node">
<title>builtins.object</title>
<g id="a_node7"><a xlink:href="https://docs.python.org/3.6/library/functions.html#object" xlink:title="object" target="_top">
<path fill="#ccebc5" stroke="#ccebc5" stroke-width="2" d="M46.6667,-145.5C46.6667,-145.5 22.3333,-145.5 22.3333,-145.5 19.1667,-145.5 16,-142.3333 16,-139.1667 16,-139.1667 16,-132.8333 16,-132.8333 16,-129.6667 19.1667,-126.5 22.3333,-126.5 22.3333,-126.5 46.6667,-126.5 46.6667,-126.5 49.8333,-126.5 53,-129.6667 53,-132.8333 53,-132.8333 53,-139.1667 53,-139.1667 53,-142.3333 49.8333,-145.5 46.6667,-145.5"/>
<text text-anchor="middle" x="34.5" y="-133.5" font-family="Arial" font-size="10.00" fill="#000000">object</text>
</a>
</g>
</g>
<!-- uqbar.cli.CLI.CLI -->
<g id="node8" class="node">
<title>uqbar.cli.CLI.CLI</title>
<g id="a_node8"><a xlink:href="http://josiahwolfoberholtzer.com/uqbar/api/uqbar/cli/CLI.html#uqbar.cli.CLI.CLI" xlink:title="CLI" target="_top">
<ellipse fill="none" stroke="#decbe4" stroke-width="2" cx="176.799" cy="-136" rx="19.6" ry="13.3704"/>
<text text-anchor="middle" x="176.799" y="-133.5" font-family="Arial" font-size="10.00" fill="#000000">CLI</text>
</a>
</g>
</g>
</g>
</svg>
