<?xml version="1.0" encoding="UTF-8" standalone="no"?>
<!DOCTYPE svg PUBLIC "-//W3C//DTD SVG 1.1//EN"
 "http://www.w3.org/Graphics/SVG/1.1/DTD/svg11.dtd">
<!-- Generated by graphviz version 2.40.1 (20161225.0304)
 -->
<!-- Title: InheritanceGraph Pages: 1 -->
<svg width="290pt" height="162pt"
 viewBox="0.00 0.00 290.06 162.00" xmlns="http://www.w3.org/2000/svg" xmlns:xlink="http://www.w3.org/1999/xlink">
<g id="graph0" class="graph" transform="scale(1 1) rotate(0) translate(4 158)">
<title>InheritanceGraph</title>
<g id="clust1" class="cluster">
<title>cluster_abjadext.nauert.qschemaitems</title>
<path fill="transparent" stroke="#bcd2ee" stroke-width="2" stroke-dasharray="5,2" d="M98.6846,-8C98.6846,-8 262.0586,-8 262.0586,-8 268.0586,-8 274.0586,-14 274.0586,-20 274.0586,-20 274.0586,-134 274.0586,-134 274.0586,-140 268.0586,-146 262.0586,-146 262.0586,-146 98.6846,-146 98.6846,-146 92.6846,-146 86.6846,-140 86.6846,-134 86.6846,-134 86.6846,-20 86.6846,-20 86.6846,-14 92.6846,-8 98.6846,-8"/>
<text text-anchor="middle" x="180.3716" y="-134" font-family="Arial" font-size="10.00" fill="#000000">abjadext.nauert.qschemaitems</text>
</g>
<g id="clust2" class="cluster">
<title>cluster_builtins</title>
<path fill="transparent" stroke="#bcd2ee" stroke-width="2" stroke-dasharray="5,2" d="M20,-49C20,-49 54.6846,-49 54.6846,-49 60.6846,-49 66.6846,-55 66.6846,-61 66.6846,-61 66.6846,-92 66.6846,-92 66.6846,-98 60.6846,-104 54.6846,-104 54.6846,-104 20,-104 20,-104 14,-104 8,-98 8,-92 8,-92 8,-61 8,-61 8,-55 14,-49 20,-49"/>
<text text-anchor="middle" x="37.3423" y="-92" font-family="Arial" font-size="10.00" fill="#000000">builtins</text>
</g>
<!-- abjadext.nauert.qschemaitems.QSchemaItem&#45;&gt;abjadext.nauert.qschemaitems.BeatwiseQSchemaItem -->
<g id="edge1" class="edge">
<title>abjadext.nauert.qschemaitems.QSchemaItem&#45;&gt;abjadext.nauert.qschemaitems.BeatwiseQSchemaItem</title>
<path fill="none" stroke="#778899" d="M155.1853,-58.2421C165.5282,-55.2496 177.2654,-51.8536 188.2733,-48.6687"/>
<polygon fill="#778899" stroke="#778899" points="189.4834,-51.9622 198.1166,-45.8207 187.5378,-45.238 189.4834,-51.9622"/>
</g>
<!-- abjadext.nauert.qschemaitems.QSchemaItem&#45;&gt;abjadext.nauert.qschemaitems.MeasurewiseQSchemaItem -->
<g id="edge2" class="edge">
<title>abjadext.nauert.qschemaitems.QSchemaItem&#45;&gt;abjadext.nauert.qschemaitems.MeasurewiseQSchemaItem</title>
<path fill="none" stroke="#778899" d="M155.1853,-75.7579C163.3502,-78.1202 172.3839,-80.734 181.2419,-83.2969"/>
<polygon fill="#778899" stroke="#778899" points="180.5336,-86.7355 191.1124,-86.1527 182.4792,-80.0112 180.5336,-86.7355"/>
</g>
<!-- builtins.object&#45;&gt;abjadext.nauert.qschemaitems.QSchemaItem -->
<g id="edge3" class="edge">
<title>builtins.object&#45;&gt;abjadext.nauert.qschemaitems.QSchemaItem</title>
<path fill="none" stroke="#778899" d="M58.5414,-67C66.4121,-67 75.6237,-67 84.6358,-67"/>
<polygon fill="#778899" stroke="#778899" points="84.644,-70.5001 94.644,-67 84.6439,-63.5001 84.644,-70.5001"/>
</g>
<!-- abjadext.nauert.qschemaitems.BeatwiseQSchemaItem -->
<g id="node1" class="node">
<title>abjadext.nauert.qschemaitems.BeatwiseQSchemaItem</title>
<g id="a_node1"><a xlink:href="../api/abjadext/nauert/qschemaitems.html#abjadext.nauert.qschemaitems.BeatwiseQSchemaItem" xlink:title="Beatwise\nQSchema\nItem" target="_top">
<path fill="#000000" stroke="#000000" stroke-width="2" d="M247.0677,-58.5C247.0677,-58.5 210.1384,-58.5 210.1384,-58.5 204.1384,-58.5 198.1384,-52.5 198.1384,-46.5 198.1384,-46.5 198.1384,-27.5 198.1384,-27.5 198.1384,-21.5 204.1384,-15.5 210.1384,-15.5 210.1384,-15.5 247.0677,-15.5 247.0677,-15.5 253.0677,-15.5 259.0677,-21.5 259.0677,-27.5 259.0677,-27.5 259.0677,-46.5 259.0677,-46.5 259.0677,-52.5 253.0677,-58.5 247.0677,-58.5"/>
<text text-anchor="middle" x="228.603" y="-46.2485" font-family="Arial" font-size="10.00" fill="#ffffff">Beatwise</text>
<text text-anchor="middle" x="228.603" y="-34.7495" font-family="Arial" font-size="10.00" fill="#ffffff">QSchema</text>
<text text-anchor="middle" x="228.603" y="-23.2505" font-family="Arial" font-size="10.00" fill="#ffffff">Item</text>
</a>
</g>
</g>
<!-- abjadext.nauert.qschemaitems.MeasurewiseQSchemaItem -->
<g id="node2" class="node">
<title>abjadext.nauert.qschemaitems.MeasurewiseQSchemaItem</title>
<g id="a_node2"><a xlink:href="../api/abjadext/nauert/qschemaitems.html#abjadext.nauert.qschemaitems.MeasurewiseQSchemaItem" xlink:title="Measurewise\nQSchema\nItem" target="_top">
<path fill="#000000" stroke="#000000" stroke-width="2" d="M254.0142,-118.5C254.0142,-118.5 203.1918,-118.5 203.1918,-118.5 197.1918,-118.5 191.1918,-112.5 191.1918,-106.5 191.1918,-106.5 191.1918,-87.5 191.1918,-87.5 191.1918,-81.5 197.1918,-75.5 203.1918,-75.5 203.1918,-75.5 254.0142,-75.5 254.0142,-75.5 260.0142,-75.5 266.0142,-81.5 266.0142,-87.5 266.0142,-87.5 266.0142,-106.5 266.0142,-106.5 266.0142,-112.5 260.0142,-118.5 254.0142,-118.5"/>
<text text-anchor="middle" x="228.603" y="-106.2485" font-family="Arial" font-size="10.00" fill="#ffffff">Measurewise</text>
<text text-anchor="middle" x="228.603" y="-94.7495" font-family="Arial" font-size="10.00" fill="#ffffff">QSchema</text>
<text text-anchor="middle" x="228.603" y="-83.2505" font-family="Arial" font-size="10.00" fill="#ffffff">Item</text>
</a>
</g>
</g>
<!-- abjadext.nauert.qschemaitems.QSchemaItem -->
<g id="node3" class="node">
<title>abjadext.nauert.qschemaitems.QSchemaItem</title>
<g id="a_node3"><a xlink:href="../api/abjadext/nauert/qschemaitems.html#abjadext.nauert.qschemaitems.QSchemaItem" xlink:title="QSchema\nItem" target="_top">
<path fill="#000000" stroke="#000000" stroke-width="2" d="M145.0487,-82.498C145.0487,-82.498 104.7834,-82.498 104.7834,-82.498 99.6174,-82.498 94.4513,-77.332 94.4513,-72.166 94.4513,-72.166 94.4513,-61.834 94.4513,-61.834 94.4513,-56.668 99.6174,-51.502 104.7834,-51.502 104.7834,-51.502 145.0487,-51.502 145.0487,-51.502 150.2147,-51.502 155.3807,-56.668 155.3807,-61.834 155.3807,-61.834 155.3807,-72.166 155.3807,-72.166 155.3807,-77.332 150.2147,-82.498 145.0487,-82.498"/>
<text text-anchor="middle" x="124.916" y="-70.499" font-family="Arial" font-size="10.00" fill="#ffffff">QSchema</text>
<text text-anchor="middle" x="124.916" y="-59" font-family="Arial" font-size="10.00" fill="#ffffff">Item</text>
</a>
</g>
</g>
<!-- builtins.object -->
<g id="node4" class="node">
<title>builtins.object</title>
<g id="a_node4"><a xlink:href="https://docs.python.org/3.9/library/functions.html#object" xlink:title="object" target="_top">
<path fill="#b3cde3" stroke="#b3cde3" stroke-width="2" d="M51.8576,-77.0056C51.8576,-77.0056 22.8269,-77.0056 22.8269,-77.0056 19.4918,-77.0056 16.1566,-73.6704 16.1566,-70.3352 16.1566,-70.3352 16.1566,-63.6648 16.1566,-63.6648 16.1566,-60.3296 19.4918,-56.9944 22.8269,-56.9944 22.8269,-56.9944 51.8576,-56.9944 51.8576,-56.9944 55.1928,-56.9944 58.528,-60.3296 58.528,-63.6648 58.528,-63.6648 58.528,-70.3352 58.528,-70.3352 58.528,-73.6704 55.1928,-77.0056 51.8576,-77.0056"/>
<text text-anchor="middle" x="37.3423" y="-64.7495" font-family="Arial" font-size="10.00" fill="#000000">object</text>
</a>
</g>
</g>
</g>
</svg>
