<?xml version="1.0" encoding="UTF-8" standalone="no"?>
<!DOCTYPE svg PUBLIC "-//W3C//DTD SVG 1.1//EN"
 "http://www.w3.org/Graphics/SVG/1.1/DTD/svg11.dtd">
<!-- Generated by graphviz version 2.49.2 (20211016.1639)
 -->
<!-- Title: InheritanceGraph Pages: 1 -->
<svg width="206pt" height="138pt"
 viewBox="0.00 0.00 206.00 138.00" xmlns="http://www.w3.org/2000/svg" xmlns:xlink="http://www.w3.org/1999/xlink">
<g id="graph0" class="graph" transform="scale(1 1) rotate(0) translate(4 134)">
<title>InheritanceGraph</title>
<g id="clust1" class="cluster">
<title>cluster_abjad.meter</title>
<path fill="transparent" stroke="#bcd2ee" stroke-width="2" stroke-dasharray="5,2" d="M136,-8C136,-8 181,-8 181,-8 187,-8 193,-14 193,-20 193,-20 193,-110 193,-110 193,-116 187,-122 181,-122 181,-122 136,-122 136,-122 130,-122 124,-116 124,-110 124,-110 124,-20 124,-20 124,-14 130,-8 136,-8"/>
<text text-anchor="middle" x="158.5" y="-110" font-family="Arial" font-size="10.00">abjad.meter</text>
</g>
<g id="clust2" class="cluster">
<title>cluster_builtins</title>
<path fill="transparent" stroke="#bcd2ee" stroke-width="2" stroke-dasharray="5,2" d="M20,-44C20,-44 55,-44 55,-44 61,-44 67,-50 67,-56 67,-56 67,-87 67,-87 67,-93 61,-99 55,-99 55,-99 20,-99 20,-99 14,-99 8,-93 8,-87 8,-87 8,-56 8,-56 8,-50 14,-44 20,-44"/>
<text text-anchor="middle" x="37.5" y="-87" font-family="Arial" font-size="10.00">builtins</text>
</g>
<!-- builtins.object&#45;&gt;abjad.meter.Meter -->
<g id="edge1" class="edge">
<title>builtins.object&#45;&gt;abjad.meter.Meter</title>
<path fill="none" stroke="lightslategrey" d="M59.23,-66.01C78.11,-69.66 106.23,-75.09 127.55,-79.21"/>
<polygon fill="lightslategrey" stroke="lightslategrey" points="126.92,-82.65 137.41,-81.12 128.25,-75.78 126.92,-82.65"/>
</g>
<!-- builtins.object&#45;&gt;abjad.meter.MetricAccentKernel -->
<g id="edge2" class="edge">
<title>builtins.object&#45;&gt;abjad.meter.MetricAccentKernel</title>
<path fill="none" stroke="lightslategrey" d="M59.23,-57.65C77.34,-53.84 103.95,-48.25 124.91,-43.85"/>
<polygon fill="lightslategrey" stroke="lightslategrey" points="125.92,-47.21 134.99,-41.73 124.48,-40.36 125.92,-47.21"/>
</g>
<!-- abjad.meter.Meter -->
<g id="node1" class="node">
<title>abjad.meter.Meter</title>
<g id="a_node1"><a xlink:href="../api/abjad/meter.html#abjad.meter.Meter" xlink:title="Meter" target="_top">
<path fill="black" stroke="black" stroke-width="2" d="M173.17,-94.5C173.17,-94.5 143.83,-94.5 143.83,-94.5 140.67,-94.5 137.5,-91.33 137.5,-88.17 137.5,-88.17 137.5,-81.83 137.5,-81.83 137.5,-78.67 140.67,-75.5 143.83,-75.5 143.83,-75.5 173.17,-75.5 173.17,-75.5 176.33,-75.5 179.5,-78.67 179.5,-81.83 179.5,-81.83 179.5,-88.17 179.5,-88.17 179.5,-91.33 176.33,-94.5 173.17,-94.5"/>
<text text-anchor="middle" x="158.5" y="-82.5" font-family="Arial" font-size="10.00" fill="white">Meter</text>
</a>
</g>
</g>
<!-- abjad.meter.MetricAccentKernel -->
<g id="node2" class="node">
<title>abjad.meter.MetricAccentKernel</title>
<g id="a_node2"><a xlink:href="../api/abjad/meter.html#abjad.meter.MetricAccentKernel" xlink:title="Metric\nAccent\nKernel" target="_top">
<path fill="black" stroke="black" stroke-width="2" d="M170,-57.5C170,-57.5 147,-57.5 147,-57.5 141,-57.5 135,-51.5 135,-45.5 135,-45.5 135,-28.5 135,-28.5 135,-22.5 141,-16.5 147,-16.5 147,-16.5 170,-16.5 170,-16.5 176,-16.5 182,-22.5 182,-28.5 182,-28.5 182,-45.5 182,-45.5 182,-51.5 176,-57.5 170,-57.5"/>
<text text-anchor="middle" x="158.5" y="-45.5" font-family="Arial" font-size="10.00" fill="white">Metric</text>
<text text-anchor="middle" x="158.5" y="-34.5" font-family="Arial" font-size="10.00" fill="white">Accent</text>
<text text-anchor="middle" x="158.5" y="-23.5" font-family="Arial" font-size="10.00" fill="white">Kernel</text>
</a>
</g>
</g>
<!-- builtins.object -->
<g id="node3" class="node">
<title>builtins.object</title>
<g id="a_node3"><a xlink:href="https://docs.python.org/3.10/library/functions.html#object" xlink:title="object" target="_top">
<path fill="#b3cde3" stroke="#b3cde3" stroke-width="2" d="M52.67,-71.5C52.67,-71.5 22.33,-71.5 22.33,-71.5 19.17,-71.5 16,-68.33 16,-65.17 16,-65.17 16,-58.83 16,-58.83 16,-55.67 19.17,-52.5 22.33,-52.5 22.33,-52.5 52.67,-52.5 52.67,-52.5 55.83,-52.5 59,-55.67 59,-58.83 59,-58.83 59,-65.17 59,-65.17 59,-68.33 55.83,-71.5 52.67,-71.5"/>
<text text-anchor="middle" x="37.5" y="-59.5" font-family="Arial" font-size="10.00">object</text>
</a>
</g>
</g>
</g>
</svg>
