<svg xmlns="http://www.w3.org/2000/svg" xmlns:xlink="http://www.w3.org/1999/xlink" version="1.2" width="210.00mm" height="297.00mm" viewBox="0.0000 -0.0000 119.5016 169.0094">
<style type="text/css">
<![CDATA[
tspan { white-space: pre; }
]]>
</style>
<g transform="translate(14.2264, 8.9635)">
<line stroke-linejoin="round" stroke-linecap="round" stroke-width="0.1000" stroke="currentColor" x1="0.0500" y1="0" x2="97.0947" y2="0"/>
</g>
<g transform="translate(111.1810, 8.9635)">
<rect x="0.0000" y="-1.0000" width="0.1900" height="2.0000" ry="0.0000" fill="currentColor"/>
</g>
<g transform="translate(92.1063, 8.9635)">
<rect x="0.0000" y="-1.0000" width="0.1900" height="2.0000" ry="0.0000" fill="currentColor"/>
</g>
<g transform="translate(72.7190, 8.9635)">
<rect x="0.0000" y="-1.0000" width="0.1900" height="2.0000" ry="0.0000" fill="currentColor"/>
</g>
<g transform="translate(52.7485, 8.9635)">
<rect x="0.0000" y="-1.0000" width="0.1900" height="2.0000" ry="0.0000" fill="currentColor"/>
</g>
<g transform="translate(33.5695, 8.9635)">
<rect x="0.0000" y="-1.0000" width="0.1900" height="2.0000" ry="0.0000" fill="currentColor"/>
</g>
<g transform="translate(18.6945, 8.9635)">
<path transform="scale(0.0040, -0.0040)" d="M218 136c66 0 108 -36 108 -89c0 -89 -113 -183 -218 -183c-66 0 -108 36 -108 89c0 89 113 183 218 183z" fill="currentColor"/>
</g>
<g transform="translate(15.2264, 8.9635)">
<path transform="scale(0.0040, -0.0040)" d="M229 0c-88 0 -90 66 -144 66c-30 0 -59 -20 -62 -55c-1 -7 -6 -11 -11 -11c-6 0 -12 4 -12 11c0 154 232 170 232 344c0 59 -16 122 -67 122c-25 0 -49 -14 -49 -37c0 -27 35 -41 35 -68c0 -38 -31 -69 -69 -69s-69 31 -69 69c0 76 72 128 152 128c95 0 183 -57 183 -145
c0 -151 -150 -159 -246 -220c9 2 18 3 27 3c83 0 111 -59 171 -59c48 0 38 38 55 38c6 0 12 -5 12 -12c0 -22 -44 -105 -138 -105z" fill="currentColor"/>
</g>
<g transform="translate(15.2264, 10.9636)">
<path transform="scale(0.0040, -0.0040)" d="M261 287c25 30 44 64 44 103c0 54 -55 87 -114 87c-46 0 -73 -36 -73 -71c0 -21 10 -42 31 -54zM292 269c23 -13 80 -54 80 -125c0 -73 -66 -144 -189 -144c-94 0 -183 54 -183 140c0 50 36 87 72 123c-37 28 -55 66 -55 103c0 68 60 134 174 134c80 0 157 -39 157 -110
c0 -46 -25 -86 -56 -121zM103 244c-31 -30 -59 -61 -59 -104c0 -69 66 -117 139 -117c54 0 86 42 86 83c0 24 -10 48 -35 62z" fill="currentColor"/>
</g>
<g transform="translate(19.9338, 8.9635)">
<rect x="-0.0650" y="-3.1900" width="0.1300" height="3.0039" ry="0.0400" fill="currentColor"/>
</g>
<g transform="translate(97.6887, 5.9635)">
<polygon stroke-linejoin="round" stroke-linecap="round" stroke-width="0.0800" fill="currentColor" stroke="currentColor" points="7.3942 -0.2000 7.3942 0.2000 0.0400 0.2000 0.0400 -0.2000"/>
</g>
<g transform="translate(22.3988, 8.9635)">
<path transform="scale(0.0040, -0.0040)" d="M218 136c66 0 108 -36 108 -89c0 -89 -113 -183 -218 -183c-66 0 -108 36 -108 89c0 89 113 183 218 183z" fill="currentColor"/>
</g>
<g transform="translate(23.6380, 8.9635)">
<rect x="-0.0650" y="-3.1900" width="0.1300" height="3.0039" ry="0.0400" fill="currentColor"/>
</g>
<g transform="translate(83.8909, 5.0014)">
<text font-family="serif" font-style="italic" font-size="1.7461" text-anchor="start" fill="currentColor">
<tspan>5</tspan>
</text>
</g>
<g transform="translate(26.1030, 8.9635)">
<path transform="scale(0.0040, -0.0040)" d="M218 136c66 0 108 -36 108 -89c0 -89 -113 -183 -218 -183c-66 0 -108 36 -108 89c0 89 113 183 218 183z" fill="currentColor"/>
</g>
<g transform="translate(27.3422, 8.9635)">
<rect x="-0.0650" y="-3.1900" width="0.1300" height="3.0039" ry="0.0400" fill="currentColor"/>
</g>
<g transform="translate(29.8072, 8.9635)">
<path transform="scale(0.0040, -0.0040)" d="M218 136c66 0 108 -36 108 -89c0 -89 -113 -183 -218 -183c-66 0 -108 36 -108 89c0 89 113 183 218 183z" fill="currentColor"/>
</g>
<g transform="translate(31.0464, 8.9635)">
<rect x="-0.0650" y="-3.1900" width="0.1300" height="3.0039" ry="0.0400" fill="currentColor"/>
</g>
<g transform="translate(78.3013, 5.7735)">
<polygon stroke-linejoin="round" stroke-linecap="round" stroke-width="0.0800" fill="currentColor" stroke="currentColor" points="12.0268 -0.2000 12.0268 0.2000 0.0400 0.2000 0.0400 -0.2000"/>
</g>
<g transform="translate(78.3013, 6.5835)">
<polygon stroke-linejoin="round" stroke-linecap="round" stroke-width="0.0800" fill="currentColor" stroke="currentColor" points="12.0268 -0.2000 12.0268 0.2000 0.0400 0.2000 0.0400 -0.2000"/>
</g>
<g transform="translate(43.6772, 5.2033)">
<text font-family="serif" font-style="italic" font-size="1.7461" text-anchor="start" fill="currentColor">
<tspan>3</tspan>
</text>
</g>
<g transform="translate(37.9777, 8.9635)">
<path transform="scale(0.0040, -0.0040)" d="M218 136c66 0 108 -36 108 -89c0 -89 -113 -183 -218 -183c-66 0 -108 36 -108 89c0 89 113 183 218 183z" fill="currentColor"/>
</g>
<g transform="translate(34.5095, 8.9635)">
<path transform="scale(0.0040, -0.0040)" d="M229 0c-88 0 -90 66 -144 66c-30 0 -59 -20 -62 -55c-1 -7 -6 -11 -11 -11c-6 0 -12 4 -12 11c0 154 232 170 232 344c0 59 -16 122 -67 122c-25 0 -49 -14 -49 -37c0 -27 35 -41 35 -68c0 -38 -31 -69 -69 -69s-69 31 -69 69c0 76 72 128 152 128c95 0 183 -57 183 -145
c0 -151 -150 -159 -246 -220c9 2 18 3 27 3c83 0 111 -59 171 -59c48 0 38 38 55 38c6 0 12 -5 12 -12c0 -22 -44 -105 -138 -105z" fill="currentColor"/>
</g>
<g transform="translate(34.5095, 10.9636)">
<path transform="scale(0.0040, -0.0040)" d="M261 287c25 30 44 64 44 103c0 54 -55 87 -114 87c-46 0 -73 -36 -73 -71c0 -21 10 -42 31 -54zM292 269c23 -13 80 -54 80 -125c0 -73 -66 -144 -189 -144c-94 0 -183 54 -183 140c0 50 36 87 72 123c-37 28 -55 66 -55 103c0 68 60 134 174 134c80 0 157 -39 157 -110
c0 -46 -25 -86 -56 -121zM103 244c-31 -30 -59 -61 -59 -104c0 -69 66 -117 139 -117c54 0 86 42 86 83c0 24 -10 48 -35 62z" fill="currentColor"/>
</g>
<g transform="translate(39.2169, 8.9635)">
<rect x="-0.0650" y="-3.0000" width="0.1300" height="2.8139" ry="0.0400" fill="currentColor"/>
</g>
<g transform="translate(39.1519, 5.9635)">
<polygon stroke-linejoin="round" stroke-linecap="round" stroke-width="0.0800" fill="currentColor" stroke="currentColor" points="9.8984 -0.2000 9.8984 0.2000 0.0400 0.2000 0.0400 -0.2000"/>
</g>
<g transform="translate(42.8819, 8.9635)">
<path transform="scale(0.0040, -0.0040)" d="M218 136c66 0 108 -36 108 -89c0 -89 -113 -183 -218 -183c-66 0 -108 36 -108 89c0 89 113 183 218 183z" fill="currentColor"/>
</g>
<g transform="translate(44.1211, 8.9635)">
<rect x="-0.0650" y="-3.0000" width="0.1300" height="2.8139" ry="0.0400" fill="currentColor"/>
</g>
<g transform="translate(19.8688, 5.7735)">
<polygon stroke-linejoin="round" stroke-linecap="round" stroke-width="0.0800" fill="currentColor" stroke="currentColor" points="11.2026 -0.2000 11.2026 0.2000 0.0400 0.2000 0.0400 -0.2000"/>
</g>
<g transform="translate(19.8688, 6.5835)">
<polygon stroke-linejoin="round" stroke-linecap="round" stroke-width="0.0800" fill="currentColor" stroke="currentColor" points="11.2026 -0.2000 11.2026 0.2000 0.0400 0.2000 0.0400 -0.2000"/>
</g>
<g transform="translate(47.7861, 8.9635)">
<path transform="scale(0.0040, -0.0040)" d="M218 136c66 0 108 -36 108 -89c0 -89 -113 -183 -218 -183c-66 0 -108 36 -108 89c0 89 113 183 218 183z" fill="currentColor"/>
</g>
<g transform="translate(49.0253, 8.9635)">
<rect x="-0.0650" y="-3.0000" width="0.1300" height="2.8139" ry="0.0400" fill="currentColor"/>
</g>
<g transform="translate(58.1566, 8.9635)">
<path transform="scale(0.0040, -0.0040)" d="M218 136c66 0 108 -36 108 -89c0 -89 -113 -183 -218 -183c-66 0 -108 36 -108 89c0 89 113 183 218 183z" fill="currentColor"/>
</g>
<g transform="translate(53.6885, 8.9635)">
<path transform="scale(0.0040, -0.0040)" d="M229 0c-88 0 -90 66 -144 66c-30 0 -59 -20 -62 -55c-1 -7 -6 -11 -11 -11c-6 0 -12 4 -12 11c0 154 232 170 232 344c0 59 -16 122 -67 122c-25 0 -49 -14 -49 -37c0 -27 35 -41 35 -68c0 -38 -31 -69 -69 -69s-69 31 -69 69c0 76 72 128 152 128c95 0 183 -57 183 -145
c0 -151 -150 -159 -246 -220c9 2 18 3 27 3c83 0 111 -59 171 -59c48 0 38 38 55 38c6 0 12 -5 12 -12c0 -22 -44 -105 -138 -105z" fill="currentColor"/>
</g>
<g transform="translate(53.6885, 10.9636)">
<path transform="scale(0.0040, -0.0040)" d="M261 287c25 30 44 64 44 103c0 54 -55 87 -114 87c-46 0 -73 -36 -73 -71c0 -21 10 -42 31 -54zM292 269c23 -13 80 -54 80 -125c0 -73 -66 -144 -189 -144c-94 0 -183 54 -183 140c0 50 36 87 72 123c-37 28 -55 66 -55 103c0 68 60 134 174 134c80 0 157 -39 157 -110
c0 -46 -25 -86 -56 -121zM103 244c-31 -30 -59 -61 -59 -104c0 -69 66 -117 139 -117c54 0 86 42 86 83c0 24 -10 48 -35 62z" fill="currentColor"/>
</g>
<g transform="translate(59.3958, 8.9635)">
<rect x="-0.0650" y="-3.3333" width="0.1300" height="3.1472" ry="0.0400" fill="currentColor"/>
</g>
<g transform="translate(77.1271, 8.9635)">
<path transform="scale(0.0040, -0.0040)" d="M218 136c66 0 108 -36 108 -89c0 -89 -113 -183 -218 -183c-66 0 -108 36 -108 89c0 89 113 183 218 183z" fill="currentColor"/>
</g>
<g transform="translate(73.6590, 8.9635)">
<path transform="scale(0.0040, -0.0040)" d="M229 0c-88 0 -90 66 -144 66c-30 0 -59 -20 -62 -55c-1 -7 -6 -11 -11 -11c-6 0 -12 4 -12 11c0 154 232 170 232 344c0 59 -16 122 -67 122c-25 0 -49 -14 -49 -37c0 -27 35 -41 35 -68c0 -38 -31 -69 -69 -69s-69 31 -69 69c0 76 72 128 152 128c95 0 183 -57 183 -145
c0 -151 -150 -159 -246 -220c9 2 18 3 27 3c83 0 111 -59 171 -59c48 0 38 38 55 38c6 0 12 -5 12 -12c0 -22 -44 -105 -138 -105z" fill="currentColor"/>
</g>
<g transform="translate(73.6590, 10.9636)">
<path transform="scale(0.0040, -0.0040)" d="M261 287c25 30 44 64 44 103c0 54 -55 87 -114 87c-46 0 -73 -36 -73 -71c0 -21 10 -42 31 -54zM292 269c23 -13 80 -54 80 -125c0 -73 -66 -144 -189 -144c-94 0 -183 54 -183 140c0 50 36 87 72 123c-37 28 -55 66 -55 103c0 68 60 134 174 134c80 0 157 -39 157 -110
c0 -46 -25 -86 -56 -121zM103 244c-31 -30 -59 -61 -59 -104c0 -69 66 -117 139 -117c54 0 86 42 86 83c0 24 -10 48 -35 62z" fill="currentColor"/>
</g>
<g transform="translate(78.3663, 8.9635)">
<rect x="-0.0650" y="-3.1900" width="0.1300" height="3.0039" ry="0.0400" fill="currentColor"/>
</g>
<g transform="translate(80.1113, 8.9635)">
<path transform="scale(0.0040, -0.0040)" d="M218 136c66 0 108 -36 108 -89c0 -89 -113 -183 -218 -183c-66 0 -108 36 -108 89c0 89 113 183 218 183z" fill="currentColor"/>
</g>
<g transform="translate(81.3506, 8.9635)">
<rect x="-0.0650" y="-3.1900" width="0.1300" height="3.0039" ry="0.0400" fill="currentColor"/>
</g>
<g transform="translate(83.0956, 8.9635)">
<path transform="scale(0.0040, -0.0040)" d="M218 136c66 0 108 -36 108 -89c0 -89 -113 -183 -218 -183c-66 0 -108 36 -108 89c0 89 113 183 218 183z" fill="currentColor"/>
</g>
<g transform="translate(84.3348, 8.9635)">
<rect x="-0.0650" y="-3.1900" width="0.1300" height="3.0039" ry="0.0400" fill="currentColor"/>
</g>
<g transform="translate(86.0798, 8.9635)">
<path transform="scale(0.0040, -0.0040)" d="M218 136c66 0 108 -36 108 -89c0 -89 -113 -183 -218 -183c-66 0 -108 36 -108 89c0 89 113 183 218 183z" fill="currentColor"/>
</g>
<g transform="translate(87.3190, 8.9635)">
<rect x="-0.0650" y="-3.1900" width="0.1300" height="3.0039" ry="0.0400" fill="currentColor"/>
</g>
<g transform="translate(89.0640, 8.9635)">
<path transform="scale(0.0040, -0.0040)" d="M218 136c66 0 108 -36 108 -89c0 -89 -113 -183 -218 -183c-66 0 -108 36 -108 89c0 89 113 183 218 183z" fill="currentColor"/>
</g>
<g transform="translate(90.3032, 8.9635)">
<rect x="-0.0650" y="-3.1900" width="0.1300" height="3.0039" ry="0.0400" fill="currentColor"/>
</g>
<g transform="translate(96.5145, 8.9635)">
<path transform="scale(0.0040, -0.0040)" d="M218 136c66 0 108 -36 108 -89c0 -89 -113 -183 -218 -183c-66 0 -108 36 -108 89c0 89 113 183 218 183z" fill="currentColor"/>
</g>
<g transform="translate(93.0463, 8.9635)">
<path transform="scale(0.0040, -0.0040)" d="M229 0c-88 0 -90 66 -144 66c-30 0 -59 -20 -62 -55c-1 -7 -6 -11 -11 -11c-6 0 -12 4 -12 11c0 154 232 170 232 344c0 59 -16 122 -67 122c-25 0 -49 -14 -49 -37c0 -27 35 -41 35 -68c0 -38 -31 -69 -69 -69s-69 31 -69 69c0 76 72 128 152 128c95 0 183 -57 183 -145
c0 -151 -150 -159 -246 -220c9 2 18 3 27 3c83 0 111 -59 171 -59c48 0 38 38 55 38c6 0 12 -5 12 -12c0 -22 -44 -105 -138 -105z" fill="currentColor"/>
</g>
<g transform="translate(93.0463, 10.9636)">
<path transform="scale(0.0040, -0.0040)" d="M261 287c25 30 44 64 44 103c0 54 -55 87 -114 87c-46 0 -73 -36 -73 -71c0 -21 10 -42 31 -54zM292 269c23 -13 80 -54 80 -125c0 -73 -66 -144 -189 -144c-94 0 -183 54 -183 140c0 50 36 87 72 123c-37 28 -55 66 -55 103c0 68 60 134 174 134c80 0 157 -39 157 -110
c0 -46 -25 -86 -56 -121zM103 244c-31 -30 -59 -61 -59 -104c0 -69 66 -117 139 -117c54 0 86 42 86 83c0 24 -10 48 -35 62z" fill="currentColor"/>
</g>
<g transform="translate(97.7537, 8.9635)">
<rect x="-0.0650" y="-3.0000" width="0.1300" height="2.8139" ry="0.0400" fill="currentColor"/>
</g>
<g transform="translate(105.0579, 8.9635)">
<rect x="-0.0650" y="-3.0000" width="0.1300" height="2.8139" ry="0.0400" fill="currentColor"/>
</g>
<g transform="translate(103.8187, 8.9635)">
<path transform="scale(0.0040, -0.0040)" d="M218 136c66 0 108 -36 108 -89c0 -89 -113 -183 -218 -183c-66 0 -108 36 -108 89c0 89 113 183 218 183z" fill="currentColor"/>
</g>
<g transform="translate(34.0238, 165.1202)">
<a xlink:href="https://lilypond.org/">
<rect x="0.0000" y="-0.4748" width="51.4540" height="2.0024" fill="none" stroke="none" stroke-width="0.0"/>
</a>
</g>
<g transform="translate(34.0238, 165.1202)">
<text font-family="serif" font-size="2.2001" text-anchor="start" fill="currentColor">
<tspan>Music engraving by LilyPond 2.23.12—www.lilypond.org</tspan>
</text>
</g>
</svg>
