<svg xmlns="http://www.w3.org/2000/svg" xmlns:xlink="http://www.w3.org/1999/xlink" version="1.2" width="210.00mm" height="297.00mm" viewBox="0 0 132.7795 187.7882">
<style text="style/css">
<![CDATA[
tspan { white-space: pre; }
]]>
</style>
<!-- Page: 1/1 -->
<g color="rgb(49.8039%, 49.8039%, 49.8039%)">
<line transform="translate(16.0600, 10.6958)" stroke-linejoin="round" stroke-linecap="round" stroke-width="0.1073" stroke="currentColor" x1="0.0537" y1="-0.0000" x2="15.3967" y2="-0.0000"/>
</g>
<rect transform="translate(31.3065, 10.6958)" x="0.0000" y="-1.0537" width="0.2039" height="2.1073" ry="0.0000" fill="currentColor"/>
<path transform="translate(24.3104, 10.6958) scale(0.0040, -0.0040)" d="M215 137c57 0 111 -29 111 -92c0 -71 -54 -120 -101 -148c-35 -21 -74 -34 -114 -34c-57 0 -111 29 -111 92c0 71 54 120 101 148c35 21 74 34 114 34z" fill="currentColor"/>
<path transform="translate(26.0591, 10.1958) scale(0.0040, -0.0040)" d="M0 0c0 31 25 56 56 56s55 -25 55 -56s-24 -56 -55 -56s-56 25 -56 56z" fill="currentColor"/>
<rect transform="translate(25.5434, 10.6958)" x="-0.0697" y="-4.3213" width="0.1395" height="4.1420" ry="0.0444" fill="currentColor"/>
<path transform="translate(27.9104, 10.6958) scale(0.0040, -0.0040)" d="M215 137c57 0 111 -29 111 -92c0 -71 -54 -120 -101 -148c-35 -21 -74 -34 -114 -34c-57 0 -111 29 -111 92c0 71 54 120 101 148c35 21 74 34 114 34z" fill="currentColor"/>
<path transform="translate(29.6591, 10.1958) scale(0.0040, -0.0040)" d="M0 0c0 31 25 56 56 56s55 -25 55 -56s-24 -56 -55 -56s-56 25 -56 56z" fill="currentColor"/>
<rect transform="translate(29.1434, 10.6958)" x="-0.0697" y="-4.3213" width="0.1395" height="4.1420" ry="0.0444" fill="currentColor"/>
<polygon transform="translate(22.8789, 6.3744)" stroke-linejoin="round" stroke-linecap="round" stroke-width="0.0889" fill="currentColor" stroke="currentColor" points="6.2898 -0.3306 6.2898 0.3306 0.0444 0.3306 0.0444 -0.3306"/>
<polygon transform="translate(22.8789, 7.5799)" stroke-linejoin="round" stroke-linecap="round" stroke-width="0.0889" fill="currentColor" stroke="currentColor" points="6.2898 -0.3306 6.2898 0.3306 0.0444 0.3306 0.0444 -0.3306"/>
<polygon transform="translate(22.8789, 8.7854)" stroke-linejoin="round" stroke-linecap="round" stroke-width="0.0889" fill="currentColor" stroke="currentColor" points="1.1253 -0.3306 1.1253 0.3306 0.0444 0.3306 0.0444 -0.3306"/>
<text transform="translate(25.9356, 5.2995)" font-family="serif" font-style="italic" font-size="1.7462" text-anchor="start" fill="currentColor">
<tspan>5:4</tspan>
</text>
<path transform="translate(21.7156, 10.6958) scale(0.0040, -0.0040)" d="M215 137c57 0 111 -29 111 -92c0 -71 -54 -120 -101 -148c-35 -21 -74 -34 -114 -34c-57 0 -111 29 -111 92c0 71 54 120 101 148c35 21 74 34 114 34z" fill="currentColor"/>
<path transform="translate(17.7239, 10.6958) scale(0.0040, -0.0040)" d="M151 475c-29 0 -60 -8 -60 -33c0 -22 35 -25 35 -47c0 -31 -26 -57 -57 -57s-57 26 -57 57c0 65 68 105 139 105c92 0 170 -33 170 -114c0 -42 -5 -81 -42 -98c-10 -5 -15 -14 -15 -23s5 -18 15 -23c41 -19 57 -56 57 -102c0 -92 -80 -140 -180 -140
c-79 0 -156 43 -156 115c0 36 29 65 65 65s65 -29 65 -65c0 -25 -40 -29 -40 -54c0 -28 34 -36 66 -36c48 0 61 59 61 115v22c0 50 -3 88 -49 88h-78c-10 0 -15 7 -15 15s5 15 15 15h78c46 0 49 40 49 92v14c0 53 -18 89 -66 89z" fill="currentColor"/>
<g transform="translate(17.0600, 12.7444)" >
<path transform="scale(0.0040, -0.0040)" d="M126 503c18 0 35 -16 54 -16c15 0 28 7 42 13c1 1 3 1 4 1c7 0 14 -8 14 -18v-363c0 -49 29 -95 75 -95c8 0 12 -7 12 -13s-4 -12 -12 -12c-45 0 -90 13 -135 13s-90 -13 -135 -13c-8 0 -12 6 -12 12s4 13 12 13c46 0 75 46 75 95v238c0 13 -9 19 -17 19
c-4 0 -9 -2 -11 -6l-64 -134c-3 -6 -9 -9 -14 -9c-8 0 -16 6 -16 15c0 2 1 5 2 7l120 250c1 2 3 3 6 3z" fill="currentColor"/>

<path transform="translate(1.2899, 0.0000) scale(0.0040, -0.0040)" d="M172 256c-49 0 -52 -40 -52 -94v-22v-21c0 -54 3 -94 52 -94c56 0 59 50 59 115s-3 116 -59 116zM120 267c17 7 34 14 52 14c102 0 171 -46 171 -141s-69 -140 -171 -140c-112 0 -172 124 -172 250c0 129 74 250 192 250c71 0 139 -40 139 -105c0 -36 -29 -65 -65 -65
s-65 29 -65 65c0 23 39 26 39 49c0 21 -24 31 -48 31c-64 0 -74 -62 -74 -134c0 -24 2 -49 2 -74z" fill="currentColor"/>
</g>
<path transform="translate(23.4644, 10.1958) scale(0.0040, -0.0040)" d="M0 0c0 31 25 56 56 56s55 -25 55 -56s-24 -56 -55 -56s-56 25 -56 56z" fill="currentColor"/>
<rect transform="translate(22.9487, 10.6958)" x="-0.0697" y="-4.3213" width="0.1395" height="4.1420" ry="0.0444" fill="currentColor"/>
<line transform="translate(22.8789, 4.7494)" stroke-linejoin="round" stroke-linecap="round" stroke-width="0.1717" stroke="currentColor" x1="8.6276" y1="-0.0000" x2="8.6276" y2="0.7000"/>
<line transform="translate(22.8789, 4.7494)" stroke-linejoin="round" stroke-linecap="round" stroke-width="0.1717" stroke="currentColor" x1="-0.2000" y1="-0.0000" x2="-0.2000" y2="0.7000"/>
<line transform="translate(22.8789, 4.7494)" stroke-linejoin="round" stroke-linecap="round" stroke-width="0.1717" stroke="currentColor" x1="8.6276" y1="-0.0000" x2="5.9709" y2="-0.0000"/>
<line transform="translate(22.8789, 4.7494)" stroke-linejoin="round" stroke-linecap="round" stroke-width="0.1717" stroke="currentColor" x1="-0.2000" y1="-0.0000" x2="2.6567" y2="-0.0000"/>
</svg>
