<svg xmlns="http://www.w3.org/2000/svg" xmlns:xlink="http://www.w3.org/1999/xlink" version="1.2" width="210.00mm" height="297.00mm" viewBox="0.0000 -0.0000 119.5016 169.0094">
<style type="text/css">
<![CDATA[
tspan { white-space: pre; }
]]>
</style>
<g transform="translate(14.2264, 8.9063)">
<line stroke-linejoin="round" stroke-linecap="round" stroke-width="0.1000" stroke="currentColor" x1="0.0500" y1="0" x2="78.5132" y2="0"/>
</g>
<g transform="translate(92.5995, 8.9063)">
<rect x="0.0000" y="-1.0500" width="0.1900" height="2.1000" ry="0.0000" fill="currentColor"/>
</g>
<g transform="translate(72.6255, 8.9063)">
<rect x="0.0000" y="-1.0500" width="0.1900" height="2.1000" ry="0.0000" fill="currentColor"/>
</g>
<g transform="translate(52.6514, 8.9063)">
<rect x="0.0000" y="-1.0500" width="0.1900" height="2.1000" ry="0.0000" fill="currentColor"/>
</g>
<g transform="translate(33.4689, 8.9063)">
<rect x="0.0000" y="-1.0500" width="0.1900" height="2.1000" ry="0.0000" fill="currentColor"/>
</g>
<g transform="translate(78.0778, 5.0745)">
<text font-family="serif" font-style="italic" font-size="1.7461" text-anchor="start" fill="currentColor">
<tspan>2:2</tspan>
</text>
</g>
<g transform="translate(18.6945, 8.9063)">
<path transform="scale(0.0040, -0.0040)" d="M218 136c55 0 108 -28 108 -89c0 -71 -55 -121 -102 -149c-35 -21 -75 -34 -116 -34c-55 0 -108 28 -108 89c0 71 55 121 102 149c35 21 75 34 116 34z" fill="currentColor"/>
</g>
<g transform="translate(15.2264, 8.9063)">
<path transform="scale(0.0040, -0.0040)" d="M103 135c9 2 17 3 26 3c33 0 70 -11 105 -36c21 -15 46 -23 66 -23c21 0 39 9 44 29c2 6 6 9 11 9c6 0 12 -5 12 -12c0 -67 -90 -105 -138 -105c-36 0 -71 14 -96 44c-13 16 -31 22 -48 22c-30 0 -59 -20 -62 -55c-1 -7 -6 -11 -11 -11c-6 0 -12 4 -12 11
c0 175 235 165 235 344c0 60 -18 122 -70 122c-26 0 -51 -14 -51 -37c0 -27 35 -41 35 -68c0 -38 -30 -69 -68 -69s-69 31 -69 69c0 76 72 128 153 128c96 0 187 -56 187 -145c0 -153 -151 -159 -249 -220z" fill="currentColor"/>
</g>
<g transform="translate(15.2264, 10.9064)">
<path transform="scale(0.0040, -0.0040)" d="M259 288c27 29 49 62 49 102c0 55 -57 87 -117 87c-47 0 -75 -36 -75 -71c0 -20 10 -40 30 -52zM289 271c55 -31 83 -79 83 -127c0 -73 -66 -144 -189 -144c-94 0 -183 54 -183 140c0 50 39 85 76 120c-41 28 -61 67 -61 106c0 68 61 134 176 134c81 0 161 -38 161 -110
c0 -47 -30 -85 -63 -119zM106 242c-33 -29 -62 -59 -62 -102c0 -69 66 -117 139 -117c54 0 86 42 86 83c0 24 -10 48 -35 62z" fill="currentColor"/>
</g>
<g transform="translate(19.9338, 8.9063)">
<rect x="-0.0650" y="-3.0000" width="0.1300" height="2.8139" ry="0.0400" fill="currentColor"/>
</g>
<g transform="translate(23.5988, 8.9063)">
<path transform="scale(0.0040, -0.0040)" d="M218 136c55 0 108 -28 108 -89c0 -71 -55 -121 -102 -149c-35 -21 -75 -34 -116 -34c-55 0 -108 28 -108 89c0 71 55 121 102 149c35 21 75 34 116 34z" fill="currentColor"/>
</g>
<g transform="translate(24.8380, 8.9063)">
<rect x="-0.0650" y="-3.0000" width="0.1300" height="2.8139" ry="0.0400" fill="currentColor"/>
</g>
<g transform="translate(58.1037, 5.0745)">
<text font-family="serif" font-style="italic" font-size="1.7461" text-anchor="start" fill="currentColor">
<tspan>2:2</tspan>
</text>
</g>
<g transform="translate(28.5030, 8.9063)">
<path transform="scale(0.0040, -0.0040)" d="M218 136c55 0 108 -28 108 -89c0 -71 -55 -121 -102 -149c-35 -21 -75 -34 -116 -34c-55 0 -108 28 -108 89c0 71 55 121 102 149c35 21 75 34 116 34z" fill="currentColor"/>
</g>
<g transform="translate(29.7422, 8.9063)">
<rect x="-0.0650" y="-3.0000" width="0.1300" height="2.8139" ry="0.0400" fill="currentColor"/>
</g>
<g transform="translate(37.8770, 8.9063)">
<path transform="scale(0.0040, -0.0040)" d="M218 136c55 0 108 -28 108 -89c0 -71 -55 -121 -102 -149c-35 -21 -75 -34 -116 -34c-55 0 -108 28 -108 89c0 71 55 121 102 149c35 21 75 34 116 34z" fill="currentColor"/>
</g>
<g transform="translate(34.4089, 8.9063)">
<path transform="scale(0.0040, -0.0040)" d="M103 135c9 2 17 3 26 3c33 0 70 -11 105 -36c21 -15 46 -23 66 -23c21 0 39 9 44 29c2 6 6 9 11 9c6 0 12 -5 12 -12c0 -67 -90 -105 -138 -105c-36 0 -71 14 -96 44c-13 16 -31 22 -48 22c-30 0 -59 -20 -62 -55c-1 -7 -6 -11 -11 -11c-6 0 -12 4 -12 11
c0 175 235 165 235 344c0 60 -18 122 -70 122c-26 0 -51 -14 -51 -37c0 -27 35 -41 35 -68c0 -38 -30 -69 -68 -69s-69 31 -69 69c0 76 72 128 153 128c96 0 187 -56 187 -145c0 -153 -151 -159 -249 -220z" fill="currentColor"/>
</g>
<g transform="translate(34.4089, 10.9064)">
<path transform="scale(0.0040, -0.0040)" d="M259 288c27 29 49 62 49 102c0 55 -57 87 -117 87c-47 0 -75 -36 -75 -71c0 -20 10 -40 30 -52zM289 271c55 -31 83 -79 83 -127c0 -73 -66 -144 -189 -144c-94 0 -183 54 -183 140c0 50 39 85 76 120c-41 28 -61 67 -61 106c0 68 61 134 176 134c81 0 161 -38 161 -110
c0 -47 -30 -85 -63 -119zM106 242c-33 -29 -62 -59 -62 -102c0 -69 66 -117 139 -117c54 0 86 42 86 83c0 24 -10 48 -35 62z" fill="currentColor"/>
</g>
<g transform="translate(39.1163, 8.9063)">
<rect x="-0.0650" y="-3.0000" width="0.1300" height="2.8139" ry="0.0400" fill="currentColor"/>
</g>
<g transform="translate(42.7813, 8.9063)">
<path stroke-width="0.0800" stroke-linejoin="round" stroke-linecap="round" stroke="currentColor" fill="currentColor" d="M0.8521 0.7500C1.6937 1.5545 4.5147 1.5545 5.3563 0.7500L5.3563 0.7500C4.5147 1.4345 1.6937 1.4345 0.8521 0.7500z"/>
</g>
<g transform="translate(42.7813, 8.9063)">
<path transform="scale(0.0040, -0.0040)" d="M218 136c55 0 108 -28 108 -89c0 -71 -55 -121 -102 -149c-35 -21 -75 -34 -116 -34c-55 0 -108 28 -108 89c0 71 55 121 102 149c35 21 75 34 116 34z" fill="currentColor"/>
</g>
<g transform="translate(44.0205, 8.9063)">
<rect x="-0.0650" y="-3.0000" width="0.1300" height="2.8139" ry="0.0400" fill="currentColor"/>
</g>
<g transform="translate(47.6855, 8.9063)">
<path transform="scale(0.0040, -0.0040)" d="M218 136c55 0 108 -28 108 -89c0 -71 -55 -121 -102 -149c-35 -21 -75 -34 -116 -34c-55 0 -108 28 -108 89c0 71 55 121 102 149c35 21 75 34 116 34z" fill="currentColor"/>
</g>
<g transform="translate(48.9247, 8.9063)">
<rect x="-0.0650" y="-3.0000" width="0.1300" height="2.8139" ry="0.0400" fill="currentColor"/>
</g>
<g transform="translate(37.8770, 8.9063)">
<path stroke-width="0.0800" stroke-linejoin="round" stroke-linecap="round" stroke="currentColor" fill="currentColor" d="M0.8521 0.7500C1.6937 1.5545 4.5147 1.5545 5.3563 0.7500L5.3563 0.7500C4.5147 1.4345 1.6937 1.4345 0.8521 0.7500z"/>
</g>
<g transform="translate(43.5425, 5.1678)">
<text font-family="serif" font-style="italic" font-size="1.7461" text-anchor="start" fill="currentColor">
<tspan>3</tspan>
</text>
</g>
<g transform="translate(58.0595, 8.9063)">
<path transform="scale(0.0040, -0.0040)" d="M218 136c55 0 108 -28 108 -89c0 -71 -55 -121 -102 -149c-35 -21 -75 -34 -116 -34c-55 0 -108 28 -108 89c0 71 55 121 102 149c35 21 75 34 116 34z" fill="currentColor"/>
</g>
<g transform="translate(53.5914, 8.9063)">
<path transform="scale(0.0040, -0.0040)" d="M103 135c9 2 17 3 26 3c33 0 70 -11 105 -36c21 -15 46 -23 66 -23c21 0 39 9 44 29c2 6 6 9 11 9c6 0 12 -5 12 -12c0 -67 -90 -105 -138 -105c-36 0 -71 14 -96 44c-13 16 -31 22 -48 22c-30 0 -59 -20 -62 -55c-1 -7 -6 -11 -11 -11c-6 0 -12 4 -12 11
c0 175 235 165 235 344c0 60 -18 122 -70 122c-26 0 -51 -14 -51 -37c0 -27 35 -41 35 -68c0 -38 -30 -69 -68 -69s-69 31 -69 69c0 76 72 128 153 128c96 0 187 -56 187 -145c0 -153 -151 -159 -249 -220z" fill="currentColor"/>
</g>
<g transform="translate(53.5914, 10.9064)">
<path transform="scale(0.0040, -0.0040)" d="M259 288c27 29 49 62 49 102c0 55 -57 87 -117 87c-47 0 -75 -36 -75 -71c0 -20 10 -40 30 -52zM289 271c55 -31 83 -79 83 -127c0 -73 -66 -144 -189 -144c-94 0 -183 54 -183 140c0 50 39 85 76 120c-41 28 -61 67 -61 106c0 68 61 134 176 134c81 0 161 -38 161 -110
c0 -47 -30 -85 -63 -119zM106 242c-33 -29 -62 -59 -62 -102c0 -69 66 -117 139 -117c54 0 86 42 86 83c0 24 -10 48 -35 62z" fill="currentColor"/>
</g>
<g transform="translate(59.2988, 8.9063)">
<rect x="-0.0650" y="-3.3333" width="0.1300" height="3.1472" ry="0.0400" fill="currentColor"/>
</g>
<g transform="translate(39.0513, 5.9063)">
<polygon stroke-linejoin="round" stroke-linecap="round" stroke-width="0.0800" fill="currentColor" stroke="currentColor" points="9.8984 -0.2000 9.8984 0.2000 0.0400 0.2000 0.0400 -0.2000"/>
</g>
<g transform="translate(78.0336, 8.9063)">
<path transform="scale(0.0040, -0.0040)" d="M218 136c55 0 108 -28 108 -89c0 -71 -55 -121 -102 -149c-35 -21 -75 -34 -116 -34c-55 0 -108 28 -108 89c0 71 55 121 102 149c35 21 75 34 116 34z" fill="currentColor"/>
</g>
<g transform="translate(73.5655, 8.9063)">
<path transform="scale(0.0040, -0.0040)" d="M103 135c9 2 17 3 26 3c33 0 70 -11 105 -36c21 -15 46 -23 66 -23c21 0 39 9 44 29c2 6 6 9 11 9c6 0 12 -5 12 -12c0 -67 -90 -105 -138 -105c-36 0 -71 14 -96 44c-13 16 -31 22 -48 22c-30 0 -59 -20 -62 -55c-1 -7 -6 -11 -11 -11c-6 0 -12 4 -12 11
c0 175 235 165 235 344c0 60 -18 122 -70 122c-26 0 -51 -14 -51 -37c0 -27 35 -41 35 -68c0 -38 -30 -69 -68 -69s-69 31 -69 69c0 76 72 128 153 128c96 0 187 -56 187 -145c0 -153 -151 -159 -249 -220z" fill="currentColor"/>
</g>
<g transform="translate(73.5655, 10.9064)">
<path transform="scale(0.0040, -0.0040)" d="M259 288c27 29 49 62 49 102c0 55 -57 87 -117 87c-47 0 -75 -36 -75 -71c0 -20 10 -40 30 -52zM289 271c55 -31 83 -79 83 -127c0 -73 -66 -144 -189 -144c-94 0 -183 54 -183 140c0 50 39 85 76 120c-41 28 -61 67 -61 106c0 68 61 134 176 134c81 0 161 -38 161 -110
c0 -47 -30 -85 -63 -119zM106 242c-33 -29 -62 -59 -62 -102c0 -69 66 -117 139 -117c54 0 86 42 86 83c0 24 -10 48 -35 62z" fill="currentColor"/>
</g>
<g transform="translate(79.2728, 8.9063)">
<rect x="-0.0650" y="-3.3333" width="0.1300" height="3.1472" ry="0.0400" fill="currentColor"/>
</g>
<g transform="translate(23.5988, 8.9063)">
<path stroke-width="0.0800" stroke-linejoin="round" stroke-linecap="round" stroke="currentColor" fill="currentColor" d="M0.8521 0.7500C1.6937 1.5545 4.5147 1.5545 5.3563 0.7500L5.3563 0.7500C4.5147 1.4345 1.6937 1.4345 0.8521 0.7500z"/>
</g>
<g transform="translate(19.8688, 5.9063)">
<polygon stroke-linejoin="round" stroke-linecap="round" stroke-width="0.0800" fill="currentColor" stroke="currentColor" points="9.8984 -0.2000 9.8984 0.2000 0.0400 0.2000 0.0400 -0.2000"/>
</g>
<g transform="translate(24.3600, 5.1678)">
<text font-family="serif" font-style="italic" font-size="1.7461" text-anchor="start" fill="currentColor">
<tspan>3</tspan>
</text>
</g>
<g transform="translate(18.6945, 8.9063)">
<path stroke-width="0.0800" stroke-linejoin="round" stroke-linecap="round" stroke="currentColor" fill="currentColor" d="M0.8521 0.7500C1.6937 1.5545 4.5147 1.5545 5.3563 0.7500L5.3563 0.7500C4.5147 1.4345 1.6937 1.4345 0.8521 0.7500z"/>
</g>
<g transform="translate(31.7362, 165.1418)">
<a xlink:href="https://lilypond.org/">
<rect x="0.0000" y="-0.4532" width="56.0292" height="2.0746" fill="none" stroke="none" stroke-width="0.0"/>
</a>
</g>
<g transform="translate(31.7362, 165.1418)">
<text font-family="serif" font-size="2.2001" text-anchor="start" fill="currentColor">
<tspan>Music engraving by LilyPond 2.23.6—www.lilypond.org</tspan>
</text>
</g>
</svg>
