<svg xmlns="http://www.w3.org/2000/svg" xmlns:xlink="http://www.w3.org/1999/xlink" version="1.2" width="210.00mm" height="297.00mm" viewBox="0 0 132.7795 187.7882">
<style text="style/css">
<![CDATA[
tspan { white-space: pre; }
]]>
</style>
<!-- Page: 1/1 -->
<g color="rgb(49.8039%, 49.8039%, 49.8039%)">
<line transform="translate(16.0600, 10.6913)" stroke-linejoin="round" stroke-linecap="round" stroke-width="0.1073" stroke="currentColor" x1="0.0537" y1="-0.0000" x2="56.0197" y2="-0.0000"/>
<line transform="translate(16.0600, 9.6913)" stroke-linejoin="round" stroke-linecap="round" stroke-width="0.1073" stroke="currentColor" x1="0.0537" y1="-0.0000" x2="56.0197" y2="-0.0000"/>
<line transform="translate(16.0600, 8.6913)" stroke-linejoin="round" stroke-linecap="round" stroke-width="0.1073" stroke="currentColor" x1="0.0537" y1="-0.0000" x2="56.0197" y2="-0.0000"/>
<line transform="translate(16.0600, 7.6913)" stroke-linejoin="round" stroke-linecap="round" stroke-width="0.1073" stroke="currentColor" x1="0.0537" y1="-0.0000" x2="56.0197" y2="-0.0000"/>
<line transform="translate(16.0600, 6.6913)" stroke-linejoin="round" stroke-linecap="round" stroke-width="0.1073" stroke="currentColor" x1="0.0537" y1="-0.0000" x2="56.0197" y2="-0.0000"/>
</g>
<rect transform="translate(16.0600, 11.6913)" x="15.5645" y="-0.1037" width="1.3729" height="0.2073" ry="0.1037" fill="currentColor"/>
<rect transform="translate(16.0600, 11.6913)" x="8.2677" y="-0.1037" width="1.9542" height="0.2073" ry="0.1037" fill="currentColor"/>
<rect transform="translate(71.9295, 8.6913)" x="0.0000" y="-2.0537" width="0.2039" height="4.1073" ry="0.0000" fill="currentColor"/>
<rect transform="translate(36.2031, 8.6913)" x="-0.0697" y="2.6794" width="0.1395" height="2.3206" ry="0.0444" fill="currentColor"/>
<path transform="translate(36.7848, 4.5150) scale(0.0028, -0.0028)" d="M-207 79c-10 3 -18 11 -18 22c0 13 11 24 24 24c2 0 3 -1 5 -1l397 -100c16 0 24 -8 24 -24s-8 -24 -24 -24l-397 -100c-2 0 -3 -1 -5 -1c-13 0 -24 11 -24 24c0 11 8 19 18 22l237 60l138 19l-138 19z" fill="currentColor"/>
<path transform="translate(36.5209, 9.1913) scale(0.0028, -0.0028)" d="M204 141c63 0 120 -35 120 -103c0 -70 -50 -119 -97 -147c-33 -20 -70 -32 -108 -32c-63 0 -119 35 -119 103c0 70 49 119 96 147c33 20 70 32 108 32z" fill="currentColor"/>
<path transform="translate(36.1334, 11.1913) scale(0.0040, -0.0040)" d="M215 137c57 0 111 -29 111 -92c0 -71 -54 -120 -101 -148c-35 -21 -74 -34 -114 -34c-57 0 -111 29 -111 92c0 71 54 120 101 148c35 21 74 34 114 34z" fill="currentColor"/>
<path transform="translate(32.7686, 8.9357) scale(0.0028, -0.0028)" d="M0 0c0 -176 201 -290 201 -466c0 -33 -9 -66 -23 -96c18 -36 29 -74 29 -116c0 -63 -15 -124 -41 -181c-6 -10 -16 -15 -25 -15c-15 0 -29 12 -29 29v5c27 50 43 105 43 162c0 94 -88 187 -155 253v-75h-23v500h23zM143 -503c3 12 6 24 6 37c0 93 -85 186 -149 253
c0 -112 82 -197 143 -290z" fill="currentColor"/>
<rect transform="translate(32.6989, 8.6913)" x="-0.0697" y="0.2000" width="0.1395" height="2.6936" ry="0.0444" fill="currentColor"/>
<path transform="translate(31.8534, 11.6913) scale(0.0028, -0.0028)" d="M204 141c63 0 120 -35 120 -103c0 -70 -50 -119 -97 -147c-33 -20 -70 -32 -108 -32c-63 0 -119 35 -119 103c0 70 49 119 96 147c33 20 70 32 108 32z" fill="currentColor"/>
<path transform="translate(40.1334, 8.1913) scale(0.0028, -0.0028)" d="M204 141c63 0 120 -35 120 -103c0 -70 -50 -119 -97 -147c-33 -20 -70 -32 -108 -32c-63 0 -119 35 -119 103c0 70 49 119 96 147c33 20 70 32 108 32z" fill="currentColor"/>
<polygon transform="translate(37.2967, 6.0126)" stroke-linejoin="round" stroke-linecap="round" stroke-width="0.0889" fill="currentColor" stroke="currentColor" points="5.7075 -0.6519 5.7075 0.0092 0.0444 0.3306 0.0444 -0.3306"/>
<path transform="translate(36.1334, 8.6913)" stroke-width="0.0858" stroke-linejoin="round" stroke-linecap="round" stroke="currentColor" fill="currentColor" d="M1.2160 -3.5575C2.3989 -4.7525 5.5199 -4.9269 6.8285 -3.8711L6.8285 -3.8711C5.5271 -4.7983 2.4061 -4.6239 1.2160 -3.5575z"/>
<rect transform="translate(42.9789, 8.6913)" x="-0.0697" y="-2.9961" width="0.1395" height="2.8897" ry="0.0444" fill="currentColor"/>
<path transform="translate(42.1334, 8.6913) scale(0.0028, -0.0028)" d="M204 141c63 0 120 -35 120 -103c0 -70 -50 -119 -97 -147c-33 -20 -70 -32 -108 -32c-63 0 -119 35 -119 103c0 70 49 119 96 147c33 20 70 32 108 32z" fill="currentColor"/>
<rect transform="translate(40.9789, 8.6913)" x="-0.0697" y="-2.8844" width="0.1395" height="2.2780" ry="0.0444" fill="currentColor"/>
<rect transform="translate(37.3664, 8.6913)" x="-0.0697" y="-2.6825" width="0.1395" height="5.0032" ry="0.0444" fill="currentColor"/>
<line transform="translate(36.8664, 7.1226)" stroke-linejoin="round" stroke-linecap="round" stroke-width="0.1395" stroke="currentColor" x1="0" y1="0" x2="1.9000" y2="-1.7000"/>
<rect transform="translate(38.9789, 8.6913)" x="-0.0697" y="-2.7726" width="0.1395" height="2.6663" ry="0.0444" fill="currentColor"/>
<path transform="translate(38.1334, 8.6913) scale(0.0028, -0.0028)" d="M204 141c63 0 120 -35 120 -103c0 -70 -50 -119 -97 -147c-33 -20 -70 -32 -108 -32c-63 0 -119 35 -119 103c0 70 49 119 96 147c33 20 70 32 108 32z" fill="currentColor"/>
<rect transform="translate(25.8864, 8.6913)" x="-0.0697" y="-0.0000" width="0.1395" height="3.3206" ry="0.0444" fill="currentColor"/>
<path transform="translate(21.0600, 8.6913) scale(0.0040, -0.0040)" d="M203 301c22 15 45 30 61 51c12 15 19 34 27 51c2 4 5 6 9 6c6 0 14 -6 14 -15v-238h74c10 0 16 -8 16 -16s-6 -15 -16 -15h-74v-5c0 -49 29 -95 75 -95c8 0 12 -7 12 -13s-4 -12 -12 -12c-45 0 -90 13 -135 13s-90 -13 -135 -13c-8 0 -12 6 -12 12s4 13 12 13
c46 0 75 46 75 95v5h-163c-24 0 -33 15 -33 24c0 3 1 6 2 7c80 92 134 205 134 327c0 10 6 17 14 17h3c24 -7 48 -13 73 -13s48 6 72 13c2 1 4 1 6 1c9 0 14 -7 14 -13c0 -2 0 -3 -2 -5l-283 -327h163v122c0 9 2 18 9 23z" fill="currentColor"/>
<path transform="translate(21.0600, 10.7399) scale(0.0040, -0.0040)" d="M203 301c22 15 45 30 61 51c12 15 19 34 27 51c2 4 5 6 9 6c6 0 14 -6 14 -15v-238h74c10 0 16 -8 16 -16s-6 -15 -16 -15h-74v-5c0 -49 29 -95 75 -95c8 0 12 -7 12 -13s-4 -12 -12 -12c-45 0 -90 13 -135 13s-90 -13 -135 -13c-8 0 -12 6 -12 12s4 13 12 13
c46 0 75 46 75 95v5h-163c-24 0 -33 15 -33 24c0 3 1 6 2 7c80 92 134 205 134 327c0 10 6 17 14 17h3c24 -7 48 -13 73 -13s48 6 72 13c2 1 4 1 6 1c9 0 14 -7 14 -13c0 -2 0 -3 -2 -5l-283 -327h163v122c0 9 2 18 9 23z" fill="currentColor"/>
<path transform="translate(16.8600, 9.6913) scale(0.0040, -0.0040)" d="M378 263c4 0 7 1 11 1c156 0 257 -129 257 -262c0 -76 -34 -154 -108 -210c-22 -17 -46 -29 -72 -37c3 -34 4 -68 4 -102c0 -20 0 -40 -1 -60c-7 -121 -90 -228 -209 -228c-108 0 -196 87 -196 196c0 58 53 104 112 104c54 0 95 -48 95 -104c0 -52 -43 -95 -95 -95
c-10 0 -20 2 -29 6c26 -38 68 -63 116 -63c95 0 156 91 162 190c1 19 2 37 2 56c0 30 -2 60 -4 90c-29 -5 -58 -8 -88 -8c-188 0 -333 173 -333 375c0 177 130 307 246 442c-20 62 -38 125 -46 190c-6 52 -7 104 -7 157c0 115 55 223 148 290c3 2 7 3 11 3s8 -1 11 -4
c71 -83 134 -244 134 -357c0 -143 -85 -255 -178 -364c21 -68 40 -137 57 -206zM462 -202c67 24 111 94 111 162c0 89 -65 178 -170 190c24 -115 46 -230 59 -352zM75 26c0 -134 129 -245 263 -245c28 0 55 2 81 6c-14 126 -36 244 -61 363c-79 -8 -124 -61 -124 -119
c0 -43 25 -89 80 -121c5 -5 7 -11 7 -16c0 -12 -10 -23 -22 -23c-3 0 -6 1 -9 2c-81 43 -118 116 -118 186c0 89 58 175 161 198c-14 58 -29 116 -46 173c-106 -122 -212 -244 -212 -404zM406 1042c-99 -47 -162 -148 -162 -257c0 -73 20 -132 38 -191
c79 97 144 199 144 324c0 53 -4 76 -20 124z" fill="currentColor"/>
<path transform="translate(24.6534, 12.1913) scale(0.0040, -0.0040)" d="M215 137c57 0 111 -29 111 -92c0 -71 -54 -120 -101 -148c-35 -21 -74 -34 -114 -34c-57 0 -111 29 -111 92c0 71 54 120 101 148c35 21 74 34 114 34z" fill="currentColor"/>
<rect transform="translate(61.3664, 8.6913)" x="-0.0697" y="-2.0000" width="0.1395" height="3.3206" ry="0.0444" fill="currentColor"/>
<path transform="translate(60.1334, 10.1913) scale(0.0040, -0.0040)" d="M215 137c57 0 111 -29 111 -92c0 -71 -54 -120 -101 -148c-35 -21 -74 -34 -114 -34c-57 0 -111 29 -111 92c0 71 54 120 101 148c35 21 74 34 114 34z" fill="currentColor"/>
<rect transform="translate(48.2031, 8.6913)" x="-0.0697" y="2.1794" width="0.1395" height="2.4873" ry="0.0444" fill="currentColor"/>
<path transform="translate(48.1334, 10.6913) scale(0.0040, -0.0040)" d="M215 137c57 0 111 -29 111 -92c0 -71 -54 -120 -101 -148c-35 -21 -74 -34 -114 -34c-57 0 -111 29 -111 92c0 71 54 120 101 148c35 21 74 34 114 34z" fill="currentColor"/>
</svg>
