<svg xmlns="http://www.w3.org/2000/svg" xmlns:xlink="http://www.w3.org/1999/xlink" version="1.2" width="152.71mm" height="59.99mm" viewBox="0.0000 -2.5182 86.9000 34.1363">
<style type="text/css">
<![CDATA[
tspan { white-space: pre; }
]]>
</style>
<g transform="translate(0.0000, 10.0000)">
<line stroke-linejoin="round" stroke-linecap="round" stroke-width="0.1000" stroke="currentColor" x1="0.0500" y1="0" x2="86.8500" y2="0"/>
</g>
<g transform="translate(64.4100, 10.0000)">
<rect x="0.0000" y="-1.0500" width="0.1900" height="2.1000" ry="0.0000" fill="currentColor"/>
</g>
<g transform="translate(21.2100, 10.0000)">
<rect x="0.0000" y="-1.0500" width="0.1900" height="2.1000" ry="0.0000" fill="currentColor"/>
</g>
<g transform="translate(86.7100, 10.0000)">
<rect x="0.0000" y="-1.0500" width="0.1900" height="2.1000" ry="0.0000" fill="currentColor"/>
</g>
<g transform="translate(42.8100, 10.0000)">
<rect x="0.0000" y="-1.0500" width="0.1900" height="2.1000" ry="0.0000" fill="currentColor"/>
</g>
<g transform="translate(58.4392, 10.0000)">
<rect x="-0.0650" y="-3.1900" width="0.1300" height="3.0039" ry="0.0400" fill="currentColor"/>
</g>
<g transform="translate(59.9000, 10.0000)">
<path transform="scale(0.0040, -0.0040)" d="M218 136c55 0 108 -28 108 -89c0 -71 -55 -121 -102 -149c-35 -21 -75 -34 -116 -34c-55 0 -108 28 -108 89c0 71 55 121 102 149c35 21 75 34 116 34z" fill="currentColor"/>
</g>
<g transform="translate(61.1392, 10.0000)">
<rect x="-0.0650" y="-3.1900" width="0.1300" height="3.0039" ry="0.0400" fill="currentColor"/>
</g>
<g transform="translate(62.6000, 10.0000)">
<path transform="scale(0.0040, -0.0040)" d="M218 136c55 0 108 -28 108 -89c0 -71 -55 -121 -102 -149c-35 -21 -75 -34 -116 -34c-55 0 -108 28 -108 89c0 71 55 121 102 149c35 21 75 34 116 34z" fill="currentColor"/>
</g>
<g transform="translate(63.8392, 10.0000)">
<rect x="-0.0650" y="-3.1900" width="0.1300" height="3.0039" ry="0.0400" fill="currentColor"/>
</g>
<g transform="translate(57.2000, 10.0000)">
<path transform="scale(0.0040, -0.0040)" d="M218 136c55 0 108 -28 108 -89c0 -71 -55 -121 -102 -149c-35 -21 -75 -34 -116 -34c-55 0 -108 28 -108 89c0 71 55 121 102 149c35 21 75 34 116 34z" fill="currentColor"/>
</g>
<g transform="translate(64.4954, -0.0000)">
<path transform="scale(0.0045, -0.0045)" d="M148 478c-28 0 -58 -9 -58 -33c0 -22 36 -25 36 -47c0 -32 -25 -58 -57 -58s-58 26 -58 58c0 64 67 102 137 102c90 0 168 -33 168 -114c0 -43 -4 -83 -42 -101c-9 -4 -14 -13 -14 -21s5 -17 14 -21c41 -19 56 -57 56 -103c0 -91 -78 -140 -177 -140
c-78 0 -153 41 -153 112c0 36 30 66 66 66s65 -30 65 -66c0 -25 -40 -28 -40 -53c0 -26 32 -37 62 -37c49 0 64 61 64 118v7c0 58 -1 103 -52 103h-80c-9 0 -14 7 -14 14s5 14 14 14h80c52 0 52 48 52 108c0 55 -19 92 -69 92z" fill="currentColor"/>
</g>
<g transform="translate(64.4100, 2.2535)">
<path transform="scale(0.0045, -0.0045)" d="M256 287c28 30 51 62 51 102c0 55 -57 89 -118 89c-48 0 -76 -37 -76 -73c0 -21 9 -42 30 -54zM284 270c55 -32 84 -78 84 -127c0 -73 -65 -143 -187 -143c-93 0 -181 53 -181 139c0 51 39 85 77 120c-42 28 -63 69 -63 108c0 67 61 133 175 133c81 0 160 -39 160 -111
c0 -47 -31 -85 -65 -119zM106 242c-33 -29 -64 -59 -64 -103c0 -69 66 -117 139 -117c55 0 87 43 87 84c0 25 -11 50 -36 64z" fill="currentColor"/>
</g>
<g transform="translate(65.3000, 10.0000)">
<path transform="scale(0.0040, -0.0040)" d="M218 136c55 0 108 -28 108 -89c0 -71 -55 -121 -102 -149c-35 -21 -75 -34 -116 -34c-55 0 -108 28 -108 89c0 71 55 121 102 149c35 21 75 34 116 34z" fill="currentColor"/>
</g>
<g transform="translate(66.5392, 10.0000)">
<rect x="-0.0650" y="-3.1900" width="0.1300" height="3.0039" ry="0.0400" fill="currentColor"/>
</g>
<g transform="translate(51.8000, 10.0000)">
<path transform="scale(0.0040, -0.0040)" d="M218 136c55 0 108 -28 108 -89c0 -71 -55 -121 -102 -149c-35 -21 -75 -34 -116 -34c-55 0 -108 28 -108 89c0 71 55 121 102 149c35 21 75 34 116 34z" fill="currentColor"/>
</g>
<g transform="translate(46.4000, 10.0000)">
<path transform="scale(0.0040, -0.0040)" d="M218 136c55 0 108 -28 108 -89c0 -71 -55 -121 -102 -149c-35 -21 -75 -34 -116 -34c-55 0 -108 28 -108 89c0 71 55 121 102 149c35 21 75 34 116 34z" fill="currentColor"/>
</g>
<g transform="translate(47.6392, 10.0000)">
<rect x="-0.0650" y="-3.1900" width="0.1300" height="3.0039" ry="0.0400" fill="currentColor"/>
</g>
<g transform="translate(49.1000, 10.0000)">
<path transform="scale(0.0040, -0.0040)" d="M218 136c55 0 108 -28 108 -89c0 -71 -55 -121 -102 -149c-35 -21 -75 -34 -116 -34c-55 0 -108 28 -108 89c0 71 55 121 102 149c35 21 75 34 116 34z" fill="currentColor"/>
</g>
<g transform="translate(50.3392, 10.0000)">
<rect x="-0.0650" y="-3.1900" width="0.1300" height="3.0039" ry="0.0400" fill="currentColor"/>
</g>
<g transform="translate(53.0392, 10.0000)">
<rect x="-0.0650" y="-3.1900" width="0.1300" height="3.0039" ry="0.0400" fill="currentColor"/>
</g>
<g transform="translate(1.6742, 6.8100)">
<polygon stroke-linejoin="round" stroke-linecap="round" stroke-width="0.0800" fill="currentColor" stroke="currentColor" points="18.0900 -0.2000 18.0900 0.2000 0.0400 0.2000 0.0400 -0.2000"/>
</g>
<g transform="translate(1.6742, 7.6200)">
<polygon stroke-linejoin="round" stroke-linecap="round" stroke-width="0.0800" fill="currentColor" stroke="currentColor" points="18.0900 -0.2000 18.0900 0.2000 0.0400 0.2000 0.0400 -0.2000"/>
</g>
<g transform="translate(54.5000, 10.0000)">
<path transform="scale(0.0040, -0.0040)" d="M218 136c55 0 108 -28 108 -89c0 -71 -55 -121 -102 -149c-35 -21 -75 -34 -116 -34c-55 0 -108 28 -108 89c0 71 55 121 102 149c35 21 75 34 116 34z" fill="currentColor"/>
</g>
<g transform="translate(55.7392, 10.0000)">
<rect x="-0.0650" y="-3.1900" width="0.1300" height="3.0039" ry="0.0400" fill="currentColor"/>
</g>
<g transform="translate(4.1000, 10.0000)">
<path transform="scale(0.0040, -0.0040)" d="M218 136c55 0 108 -28 108 -89c0 -71 -55 -121 -102 -149c-35 -21 -75 -34 -116 -34c-55 0 -108 28 -108 89c0 71 55 121 102 149c35 21 75 34 116 34z" fill="currentColor"/>
</g>
<g transform="translate(83.3000, 10.0000)">
<path transform="scale(0.0040, -0.0040)" d="M218 136c55 0 108 -28 108 -89c0 -71 -55 -121 -102 -149c-35 -21 -75 -34 -116 -34c-55 0 -108 28 -108 89c0 71 55 121 102 149c35 21 75 34 116 34z" fill="currentColor"/>
</g>
<g transform="translate(84.5392, 10.0000)">
<rect x="-0.0650" y="-3.1900" width="0.1300" height="3.0039" ry="0.0400" fill="currentColor"/>
</g>
<g transform="translate(5.3392, 10.0000)">
<rect x="-0.0650" y="-3.1900" width="0.1300" height="3.0039" ry="0.0400" fill="currentColor"/>
</g>
<g transform="translate(66.4742, 6.8100)">
<polygon stroke-linejoin="round" stroke-linecap="round" stroke-width="0.0800" fill="currentColor" stroke="currentColor" points="18.0900 -0.2000 18.0900 0.2000 0.0400 0.2000 0.0400 -0.2000"/>
</g>
<g transform="translate(66.4742, 7.6200)">
<polygon stroke-linejoin="round" stroke-linecap="round" stroke-width="0.0800" fill="currentColor" stroke="currentColor" points="18.0900 -0.2000 18.0900 0.2000 0.0400 0.2000 0.0400 -0.2000"/>
</g>
<g transform="translate(52.9642, 5.1675)">
<text font-family="serif" font-style="italic" font-size="1.7461" text-anchor="start" fill="currentColor">
<tspan>8:6</tspan>
</text>
</g>
<g transform="translate(44.8742, 4.5700)">
<line stroke-linejoin="round" stroke-linecap="round" stroke-width="0.1600" stroke="currentColor" x1="18.7358" y1="-0.0000" x2="18.7358" y2="0.7000"/>
</g>
<g transform="translate(44.8742, 4.5700)">
<line stroke-linejoin="round" stroke-linecap="round" stroke-width="0.1600" stroke="currentColor" x1="-0.2000" y1="-0.0000" x2="-0.2000" y2="0.7000"/>
</g>
<g transform="translate(44.8742, 4.5700)">
<line stroke-linejoin="round" stroke-linecap="round" stroke-width="0.1600" stroke="currentColor" x1="18.7358" y1="-0.0000" x2="11.0458" y2="-0.0000"/>
</g>
<g transform="translate(44.8742, 4.5700)">
<line stroke-linejoin="round" stroke-linecap="round" stroke-width="0.1600" stroke="currentColor" x1="-0.2000" y1="-0.0000" x2="7.6899" y2="-0.0000"/>
</g>
<g transform="translate(44.8742, 6.8100)">
<polygon stroke-linejoin="round" stroke-linecap="round" stroke-width="0.0800" fill="currentColor" stroke="currentColor" points="18.9900 -0.2000 18.9900 0.2000 0.0400 0.2000 0.0400 -0.2000"/>
</g>
<g transform="translate(44.8742, 7.6200)">
<polygon stroke-linejoin="round" stroke-linecap="round" stroke-width="0.0800" fill="currentColor" stroke="currentColor" points="18.9900 -0.2000 18.9900 0.2000 0.0400 0.2000 0.0400 -0.2000"/>
</g>
<g transform="translate(31.3642, 5.1504)">
<text font-family="serif" font-style="italic" font-size="1.7461" text-anchor="start" fill="currentColor">
<tspan>7:6</tspan>
</text>
</g>
<g transform="translate(23.2742, 4.5700)">
<line stroke-linejoin="round" stroke-linecap="round" stroke-width="0.1600" stroke="currentColor" x1="18.7358" y1="-0.0000" x2="18.7358" y2="0.7000"/>
</g>
<g transform="translate(23.2742, 4.5700)">
<line stroke-linejoin="round" stroke-linecap="round" stroke-width="0.1600" stroke="currentColor" x1="-0.2000" y1="-0.0000" x2="-0.2000" y2="0.7000"/>
</g>
<g transform="translate(23.2742, 4.5700)">
<line stroke-linejoin="round" stroke-linecap="round" stroke-width="0.1600" stroke="currentColor" x1="18.7358" y1="-0.0000" x2="11.0458" y2="-0.0000"/>
</g>
<g transform="translate(23.2742, 4.5700)">
<line stroke-linejoin="round" stroke-linecap="round" stroke-width="0.1600" stroke="currentColor" x1="-0.2000" y1="-0.0000" x2="7.6899" y2="-0.0000"/>
</g>
<g transform="translate(23.2742, 6.8100)">
<polygon stroke-linejoin="round" stroke-linecap="round" stroke-width="0.0800" fill="currentColor" stroke="currentColor" points="18.6043 -0.2000 18.6043 0.2000 0.0400 0.2000 0.0400 -0.2000"/>
</g>
<g transform="translate(23.2742, 7.6200)">
<polygon stroke-linejoin="round" stroke-linecap="round" stroke-width="0.0800" fill="currentColor" stroke="currentColor" points="18.6043 -0.2000 18.6043 0.2000 0.0400 0.2000 0.0400 -0.2000"/>
</g>
<g transform="translate(68.9000, 10.0000)">
<path transform="scale(0.0040, -0.0040)" d="M218 136c55 0 108 -28 108 -89c0 -71 -55 -121 -102 -149c-35 -21 -75 -34 -116 -34c-55 0 -108 28 -108 89c0 71 55 121 102 149c35 21 75 34 116 34z" fill="currentColor"/>
</g>
<g transform="translate(70.1392, 10.0000)">
<rect x="-0.0650" y="-3.1900" width="0.1300" height="3.0039" ry="0.0400" fill="currentColor"/>
</g>
<g transform="translate(72.5000, 10.0000)">
<path transform="scale(0.0040, -0.0040)" d="M218 136c55 0 108 -28 108 -89c0 -71 -55 -121 -102 -149c-35 -21 -75 -34 -116 -34c-55 0 -108 28 -108 89c0 71 55 121 102 149c35 21 75 34 116 34z" fill="currentColor"/>
</g>
<g transform="translate(73.7392, 10.0000)">
<rect x="-0.0650" y="-3.1900" width="0.1300" height="3.0039" ry="0.0400" fill="currentColor"/>
</g>
<g transform="translate(76.1000, 10.0000)">
<path transform="scale(0.0040, -0.0040)" d="M218 136c55 0 108 -28 108 -89c0 -71 -55 -121 -102 -149c-35 -21 -75 -34 -116 -34c-55 0 -108 28 -108 89c0 71 55 121 102 149c35 21 75 34 116 34z" fill="currentColor"/>
</g>
<g transform="translate(77.3392, 10.0000)">
<rect x="-0.0650" y="-3.1900" width="0.1300" height="3.0039" ry="0.0400" fill="currentColor"/>
</g>
<g transform="translate(79.7000, 10.0000)">
<path transform="scale(0.0040, -0.0040)" d="M218 136c55 0 108 -28 108 -89c0 -71 -55 -121 -102 -149c-35 -21 -75 -34 -116 -34c-55 0 -108 28 -108 89c0 71 55 121 102 149c35 21 75 34 116 34z" fill="currentColor"/>
</g>
<g transform="translate(80.9392, 10.0000)">
<rect x="-0.0650" y="-3.1900" width="0.1300" height="3.0039" ry="0.0400" fill="currentColor"/>
</g>
<g transform="translate(18.5000, 10.0000)">
<path transform="scale(0.0040, -0.0040)" d="M218 136c55 0 108 -28 108 -89c0 -71 -55 -121 -102 -149c-35 -21 -75 -34 -116 -34c-55 0 -108 28 -108 89c0 71 55 121 102 149c35 21 75 34 116 34z" fill="currentColor"/>
</g>
<g transform="translate(19.7392, 10.0000)">
<rect x="-0.0650" y="-3.1900" width="0.1300" height="3.0039" ry="0.0400" fill="currentColor"/>
</g>
<g transform="translate(21.2954, -0.0000)">
<path transform="scale(0.0045, -0.0045)" d="M148 478c-28 0 -58 -9 -58 -33c0 -22 36 -25 36 -47c0 -32 -25 -58 -57 -58s-58 26 -58 58c0 64 67 102 137 102c90 0 168 -33 168 -114c0 -43 -4 -83 -42 -101c-9 -4 -14 -13 -14 -21s5 -17 14 -21c41 -19 56 -57 56 -103c0 -91 -78 -140 -177 -140
c-78 0 -153 41 -153 112c0 36 30 66 66 66s65 -30 65 -66c0 -25 -40 -28 -40 -53c0 -26 32 -37 62 -37c49 0 64 61 64 118v7c0 58 -1 103 -52 103h-80c-9 0 -14 7 -14 14s5 14 14 14h80c52 0 52 48 52 108c0 55 -19 92 -69 92z" fill="currentColor"/>
</g>
<g transform="translate(21.2100, 2.2535)">
<path transform="scale(0.0045, -0.0045)" d="M256 287c28 30 51 62 51 102c0 55 -57 89 -118 89c-48 0 -76 -37 -76 -73c0 -21 9 -42 30 -54zM284 270c55 -32 84 -78 84 -127c0 -73 -65 -143 -187 -143c-93 0 -181 53 -181 139c0 51 39 85 77 120c-42 28 -63 69 -63 108c0 67 61 133 175 133c81 0 160 -39 160 -111
c0 -47 -31 -85 -65 -119zM106 242c-33 -29 -64 -59 -64 -103c0 -69 66 -117 139 -117c55 0 87 43 87 84c0 25 -11 50 -36 64z" fill="currentColor"/>
</g>
<g transform="translate(22.1000, 10.0000)">
<path transform="scale(0.0040, -0.0040)" d="M218 136c55 0 108 -28 108 -89c0 -71 -55 -121 -102 -149c-35 -21 -75 -34 -116 -34c-55 0 -108 28 -108 89c0 71 55 121 102 149c35 21 75 34 116 34z" fill="currentColor"/>
</g>
<g transform="translate(23.3392, 10.0000)">
<rect x="-0.0650" y="-3.1900" width="0.1300" height="3.0039" ry="0.0400" fill="currentColor"/>
</g>
<g transform="translate(16.1392, 10.0000)">
<rect x="-0.0650" y="-3.1900" width="0.1300" height="3.0039" ry="0.0400" fill="currentColor"/>
</g>
<g transform="translate(25.1857, 10.0000)">
<path transform="scale(0.0040, -0.0040)" d="M218 136c55 0 108 -28 108 -89c0 -71 -55 -121 -102 -149c-35 -21 -75 -34 -116 -34c-55 0 -108 28 -108 89c0 71 55 121 102 149c35 21 75 34 116 34z" fill="currentColor"/>
</g>
<g transform="translate(26.4249, 10.0000)">
<rect x="-0.0650" y="-3.1900" width="0.1300" height="3.0039" ry="0.0400" fill="currentColor"/>
</g>
<g transform="translate(7.7000, 10.0000)">
<path transform="scale(0.0040, -0.0040)" d="M218 136c55 0 108 -28 108 -89c0 -71 -55 -121 -102 -149c-35 -21 -75 -34 -116 -34c-55 0 -108 28 -108 89c0 71 55 121 102 149c35 21 75 34 116 34z" fill="currentColor"/>
</g>
<g transform="translate(0.0854, -0.0000)">
<path transform="scale(0.0045, -0.0045)" d="M148 478c-28 0 -58 -9 -58 -33c0 -22 36 -25 36 -47c0 -32 -25 -58 -57 -58s-58 26 -58 58c0 64 67 102 137 102c90 0 168 -33 168 -114c0 -43 -4 -83 -42 -101c-9 -4 -14 -13 -14 -21s5 -17 14 -21c41 -19 56 -57 56 -103c0 -91 -78 -140 -177 -140
c-78 0 -153 41 -153 112c0 36 30 66 66 66s65 -30 65 -66c0 -25 -40 -28 -40 -53c0 -26 32 -37 62 -37c49 0 64 61 64 118v7c0 58 -1 103 -52 103h-80c-9 0 -14 7 -14 14s5 14 14 14h80c52 0 52 48 52 108c0 55 -19 92 -69 92z" fill="currentColor"/>
</g>
<g transform="translate(0.0000, 2.2535)">
<path transform="scale(0.0045, -0.0045)" d="M256 287c28 30 51 62 51 102c0 55 -57 89 -118 89c-48 0 -76 -37 -76 -73c0 -21 9 -42 30 -54zM284 270c55 -32 84 -78 84 -127c0 -73 -65 -143 -187 -143c-93 0 -181 53 -181 139c0 51 39 85 77 120c-42 28 -63 69 -63 108c0 67 61 133 175 133c81 0 160 -39 160 -111
c0 -47 -31 -85 -65 -119zM106 242c-33 -29 -64 -59 -64 -103c0 -69 66 -117 139 -117c55 0 87 43 87 84c0 25 -11 50 -36 64z" fill="currentColor"/>
</g>
<g transform="translate(0.5000, 10.0000)">
<path transform="scale(0.0040, -0.0040)" d="M218 136c55 0 108 -28 108 -89c0 -71 -55 -121 -102 -149c-35 -21 -75 -34 -116 -34c-55 0 -108 28 -108 89c0 71 55 121 102 149c35 21 75 34 116 34z" fill="currentColor"/>
</g>
<g transform="translate(1.7392, 10.0000)">
<rect x="-0.0650" y="-3.1900" width="0.1300" height="3.0039" ry="0.0400" fill="currentColor"/>
</g>
<g transform="translate(8.9392, 10.0000)">
<rect x="-0.0650" y="-3.1900" width="0.1300" height="3.0039" ry="0.0400" fill="currentColor"/>
</g>
<g transform="translate(11.3000, 10.0000)">
<path transform="scale(0.0040, -0.0040)" d="M218 136c55 0 108 -28 108 -89c0 -71 -55 -121 -102 -149c-35 -21 -75 -34 -116 -34c-55 0 -108 28 -108 89c0 71 55 121 102 149c35 21 75 34 116 34z" fill="currentColor"/>
</g>
<g transform="translate(12.5392, 10.0000)">
<rect x="-0.0650" y="-3.1900" width="0.1300" height="3.0039" ry="0.0400" fill="currentColor"/>
</g>
<g transform="translate(14.9000, 10.0000)">
<path transform="scale(0.0040, -0.0040)" d="M218 136c55 0 108 -28 108 -89c0 -71 -55 -121 -102 -149c-35 -21 -75 -34 -116 -34c-55 0 -108 28 -108 89c0 71 55 121 102 149c35 21 75 34 116 34z" fill="currentColor"/>
</g>
<g transform="translate(38.7678, 10.0000)">
<rect x="-0.0650" y="-3.1900" width="0.1300" height="3.0039" ry="0.0400" fill="currentColor"/>
</g>
<g transform="translate(42.8954, -0.0000)">
<path transform="scale(0.0045, -0.0045)" d="M148 478c-28 0 -58 -9 -58 -33c0 -22 36 -25 36 -47c0 -32 -25 -58 -57 -58s-58 26 -58 58c0 64 67 102 137 102c90 0 168 -33 168 -114c0 -43 -4 -83 -42 -101c-9 -4 -14 -13 -14 -21s5 -17 14 -21c41 -19 56 -57 56 -103c0 -91 -78 -140 -177 -140
c-78 0 -153 41 -153 112c0 36 30 66 66 66s65 -30 65 -66c0 -25 -40 -28 -40 -53c0 -26 32 -37 62 -37c49 0 64 61 64 118v7c0 58 -1 103 -52 103h-80c-9 0 -14 7 -14 14s5 14 14 14h80c52 0 52 48 52 108c0 55 -19 92 -69 92z" fill="currentColor"/>
</g>
<g transform="translate(42.8100, 2.2535)">
<path transform="scale(0.0045, -0.0045)" d="M256 287c28 30 51 62 51 102c0 55 -57 89 -118 89c-48 0 -76 -37 -76 -73c0 -21 9 -42 30 -54zM284 270c55 -32 84 -78 84 -127c0 -73 -65 -143 -187 -143c-93 0 -181 53 -181 139c0 51 39 85 77 120c-42 28 -63 69 -63 108c0 67 61 133 175 133c81 0 160 -39 160 -111
c0 -47 -31 -85 -65 -119zM106 242c-33 -29 -64 -59 -64 -103c0 -69 66 -117 139 -117c55 0 87 43 87 84c0 25 -11 50 -36 64z" fill="currentColor"/>
</g>
<g transform="translate(34.4429, 10.0000)">
<path transform="scale(0.0040, -0.0040)" d="M218 136c55 0 108 -28 108 -89c0 -71 -55 -121 -102 -149c-35 -21 -75 -34 -116 -34c-55 0 -108 28 -108 89c0 71 55 121 102 149c35 21 75 34 116 34z" fill="currentColor"/>
</g>
<g transform="translate(35.6821, 10.0000)">
<rect x="-0.0650" y="-3.1900" width="0.1300" height="3.0039" ry="0.0400" fill="currentColor"/>
</g>
<g transform="translate(37.5286, 10.0000)">
<path transform="scale(0.0040, -0.0040)" d="M218 136c55 0 108 -28 108 -89c0 -71 -55 -121 -102 -149c-35 -21 -75 -34 -116 -34c-55 0 -108 28 -108 89c0 71 55 121 102 149c35 21 75 34 116 34z" fill="currentColor"/>
</g>
<g transform="translate(41.8535, 10.0000)">
<rect x="-0.0650" y="-3.1900" width="0.1300" height="3.0039" ry="0.0400" fill="currentColor"/>
</g>
<g transform="translate(40.6143, 10.0000)">
<path transform="scale(0.0040, -0.0040)" d="M218 136c55 0 108 -28 108 -89c0 -71 -55 -121 -102 -149c-35 -21 -75 -34 -116 -34c-55 0 -108 28 -108 89c0 71 55 121 102 149c35 21 75 34 116 34z" fill="currentColor"/>
</g>
<g transform="translate(28.2714, 10.0000)">
<path transform="scale(0.0040, -0.0040)" d="M218 136c55 0 108 -28 108 -89c0 -71 -55 -121 -102 -149c-35 -21 -75 -34 -116 -34c-55 0 -108 28 -108 89c0 71 55 121 102 149c35 21 75 34 116 34z" fill="currentColor"/>
</g>
<g transform="translate(29.5106, 10.0000)">
<rect x="-0.0650" y="-3.1900" width="0.1300" height="3.0039" ry="0.0400" fill="currentColor"/>
</g>
<g transform="translate(31.3571, 10.0000)">
<path transform="scale(0.0040, -0.0040)" d="M218 136c55 0 108 -28 108 -89c0 -71 -55 -121 -102 -149c-35 -21 -75 -34 -116 -34c-55 0 -108 28 -108 89c0 71 55 121 102 149c35 21 75 34 116 34z" fill="currentColor"/>
</g>
<g transform="translate(32.5964, 10.0000)">
<rect x="-0.0650" y="-3.1900" width="0.1300" height="3.0039" ry="0.0400" fill="currentColor"/>
</g>
<g transform="translate(44.9392, 10.0000)">
<rect x="-0.0650" y="-3.1900" width="0.1300" height="3.0039" ry="0.0400" fill="currentColor"/>
</g>
<g transform="translate(43.7000, 10.0000)">
<path transform="scale(0.0040, -0.0040)" d="M218 136c55 0 108 -28 108 -89c0 -71 -55 -121 -102 -149c-35 -21 -75 -34 -116 -34c-55 0 -108 28 -108 89c0 71 55 121 102 149c35 21 75 34 116 34z" fill="currentColor"/>
</g>
<g transform="translate(0.0000, 30.5682)">
<line stroke-linejoin="round" stroke-linecap="round" stroke-width="0.1000" stroke="currentColor" x1="0.0500" y1="0" x2="23.5500" y2="0"/>
</g>
<g transform="translate(23.4100, 30.5682)">
<rect x="0.0000" y="-1.0500" width="0.1900" height="2.1000" ry="0.0000" fill="currentColor"/>
</g>
<g transform="translate(17.4286, 30.5682)">
<path transform="scale(0.0040, -0.0040)" d="M218 136c55 0 108 -28 108 -89c0 -71 -55 -121 -102 -149c-35 -21 -75 -34 -116 -34c-55 0 -108 28 -108 89c0 71 55 121 102 149c35 21 75 34 116 34z" fill="currentColor"/>
</g>
<g transform="translate(15.5821, 30.5682)">
<rect x="-0.0650" y="-3.1900" width="0.1300" height="3.0039" ry="0.0400" fill="currentColor"/>
</g>
<g transform="translate(14.3429, 30.5682)">
<path transform="scale(0.0040, -0.0040)" d="M218 136c55 0 108 -28 108 -89c0 -71 -55 -121 -102 -149c-35 -21 -75 -34 -116 -34c-55 0 -108 28 -108 89c0 71 55 121 102 149c35 21 75 34 116 34z" fill="currentColor"/>
</g>
<g transform="translate(12.4964, 30.5682)">
<rect x="-0.0650" y="-3.1900" width="0.1300" height="3.0039" ry="0.0400" fill="currentColor"/>
</g>
<g transform="translate(11.2571, 30.5682)">
<path transform="scale(0.0040, -0.0040)" d="M218 136c55 0 108 -28 108 -89c0 -71 -55 -121 -102 -149c-35 -21 -75 -34 -116 -34c-55 0 -108 28 -108 89c0 71 55 121 102 149c35 21 75 34 116 34z" fill="currentColor"/>
</g>
<g transform="translate(3.1742, 27.3782)">
<polygon stroke-linejoin="round" stroke-linecap="round" stroke-width="0.0800" fill="currentColor" stroke="currentColor" points="18.6043 -0.2000 18.6043 0.2000 0.0400 0.2000 0.0400 -0.2000"/>
</g>
<g transform="translate(3.1742, 28.1882)">
<polygon stroke-linejoin="round" stroke-linecap="round" stroke-width="0.0800" fill="currentColor" stroke="currentColor" points="18.6043 -0.2000 18.6043 0.2000 0.0400 0.2000 0.0400 -0.2000"/>
</g>
<g transform="translate(18.6678, 30.5682)">
<rect x="-0.0650" y="-3.1900" width="0.1300" height="3.0039" ry="0.0400" fill="currentColor"/>
</g>
<g transform="translate(21.7535, 30.5682)">
<rect x="-0.0650" y="-3.1900" width="0.1300" height="3.0039" ry="0.0400" fill="currentColor"/>
</g>
<g transform="translate(20.5143, 30.5682)">
<path transform="scale(0.0040, -0.0040)" d="M218 136c55 0 108 -28 108 -89c0 -71 -55 -121 -102 -149c-35 -21 -75 -34 -116 -34c-55 0 -108 28 -108 89c0 71 55 121 102 149c35 21 75 34 116 34z" fill="currentColor"/>
</g>
<g transform="translate(2.0000, 30.5682)">
<path transform="scale(0.0040, -0.0040)" d="M218 136c55 0 108 -28 108 -89c0 -71 -55 -121 -102 -149c-35 -21 -75 -34 -116 -34c-55 0 -108 28 -108 89c0 71 55 121 102 149c35 21 75 34 116 34z" fill="currentColor"/>
</g>
<g transform="translate(3.2392, 30.5682)">
<rect x="-0.0650" y="-3.1900" width="0.1300" height="3.0039" ry="0.0400" fill="currentColor"/>
</g>
<g transform="translate(0.0854, 20.5682)">
<path transform="scale(0.0045, -0.0045)" d="M148 478c-28 0 -58 -9 -58 -33c0 -22 36 -25 36 -47c0 -32 -25 -58 -57 -58s-58 26 -58 58c0 64 67 102 137 102c90 0 168 -33 168 -114c0 -43 -4 -83 -42 -101c-9 -4 -14 -13 -14 -21s5 -17 14 -21c41 -19 56 -57 56 -103c0 -91 -78 -140 -177 -140
c-78 0 -153 41 -153 112c0 36 30 66 66 66s65 -30 65 -66c0 -25 -40 -28 -40 -53c0 -26 32 -37 62 -37c49 0 64 61 64 118v7c0 58 -1 103 -52 103h-80c-9 0 -14 7 -14 14s5 14 14 14h80c52 0 52 48 52 108c0 55 -19 92 -69 92z" fill="currentColor"/>
</g>
<g transform="translate(0.0000, 22.8216)">
<path transform="scale(0.0045, -0.0045)" d="M256 287c28 30 51 62 51 102c0 55 -57 89 -118 89c-48 0 -76 -37 -76 -73c0 -21 9 -42 30 -54zM284 270c55 -32 84 -78 84 -127c0 -73 -65 -143 -187 -143c-93 0 -181 53 -181 139c0 51 39 85 77 120c-42 28 -63 69 -63 108c0 67 61 133 175 133c81 0 160 -39 160 -111
c0 -47 -31 -85 -65 -119zM106 242c-33 -29 -64 -59 -64 -103c0 -69 66 -117 139 -117c55 0 87 43 87 84c0 25 -11 50 -36 64z" fill="currentColor"/>
</g>
<g transform="translate(12.1142, 25.7186)">
<text font-family="serif" font-style="italic" font-size="1.7461" text-anchor="start" fill="currentColor">
<tspan>7:6</tspan>
</text>
</g>
<g transform="translate(3.1742, 25.1382)">
<line stroke-linejoin="round" stroke-linecap="round" stroke-width="0.1600" stroke="currentColor" x1="20.4358" y1="-0.0000" x2="20.4358" y2="0.7000"/>
</g>
<g transform="translate(3.1742, 25.1382)">
<line stroke-linejoin="round" stroke-linecap="round" stroke-width="0.1600" stroke="currentColor" x1="-0.2000" y1="-0.0000" x2="-0.2000" y2="0.7000"/>
</g>
<g transform="translate(3.1742, 25.1382)">
<line stroke-linejoin="round" stroke-linecap="round" stroke-width="0.1600" stroke="currentColor" x1="20.4358" y1="-0.0000" x2="11.8958" y2="-0.0000"/>
</g>
<g transform="translate(3.1742, 25.1382)">
<line stroke-linejoin="round" stroke-linecap="round" stroke-width="0.1600" stroke="currentColor" x1="-0.2000" y1="-0.0000" x2="8.5399" y2="-0.0000"/>
</g>
<g transform="translate(5.0857, 30.5682)">
<path transform="scale(0.0040, -0.0040)" d="M218 136c55 0 108 -28 108 -89c0 -71 -55 -121 -102 -149c-35 -21 -75 -34 -116 -34c-55 0 -108 28 -108 89c0 71 55 121 102 149c35 21 75 34 116 34z" fill="currentColor"/>
</g>
<g transform="translate(9.4106, 30.5682)">
<rect x="-0.0650" y="-3.1900" width="0.1300" height="3.0039" ry="0.0400" fill="currentColor"/>
</g>
<g transform="translate(8.1714, 30.5682)">
<path transform="scale(0.0040, -0.0040)" d="M218 136c55 0 108 -28 108 -89c0 -71 -55 -121 -102 -149c-35 -21 -75 -34 -116 -34c-55 0 -108 28 -108 89c0 71 55 121 102 149c35 21 75 34 116 34z" fill="currentColor"/>
</g>
<g transform="translate(6.3249, 30.5682)">
<rect x="-0.0650" y="-3.1900" width="0.1300" height="3.0039" ry="0.0400" fill="currentColor"/>
</g>
</svg>
