<svg xmlns="http://www.w3.org/2000/svg" xmlns:xlink="http://www.w3.org/1999/xlink" version="1.2" width="16.55mm" height="9.27mm" viewBox="0.5000 -4.7314 9.4158 5.2764">
<style type="text/css">
<![CDATA[
tspan { white-space: pre; }
]]>
</style>
<g transform="scale(1.0000, 1.0000)">
<g transform="translate(1.6742, -3.9361)">
<line stroke-linejoin="round" stroke-linecap="round" stroke-width="0.1600" stroke="currentColor" x1="4.3258" y1="-0.0000" x2="4.3258" y2="-0.0000"/>
</g>
<g transform="translate(1.6742, -3.9361)">
<line stroke-linejoin="round" stroke-linecap="round" stroke-width="0.1600" stroke="currentColor" x1="-1.0000" y1="-0.0000" x2="-1.0000" y2="0.7000"/>
</g>
<g transform="translate(1.6742, -3.9361)">
<line stroke-linejoin="round" stroke-linecap="round" stroke-width="0.1600" stroke="currentColor" x1="4.3258" y1="-0.0000" x2="3.5493" y2="-0.0000"/>
</g>
<g transform="translate(1.6742, -3.9361)">
<line stroke-linejoin="round" stroke-linecap="round" stroke-width="0.1600" stroke="currentColor" x1="-1.0000" y1="-0.0000" x2="-0.5236" y2="-0.0000"/>
</g>
<g transform="translate(1.5507, -3.1738)">
<text font-family="serif" font-style="italic" font-size="2.2001" text-anchor="start" fill="currentColor">
<tspan>5:4</tspan>
</text>
</g>
<g transform="translate(0.5000, -0.0000)">
<path transform="scale(0.0040, -0.0040)" d="M218 136c55 0 108 -28 108 -89c0 -71 -55 -121 -102 -149c-35 -21 -75 -34 -116 -34c-55 0 -108 28 -108 89c0 71 55 121 102 149c35 21 75 34 116 34z" fill="currentColor"/>
</g>
<g transform="translate(1.7392, -0.0000)">
<rect x="-0.0650" y="-2.6861" width="0.1300" height="2.5000" ry="0.0400" fill="currentColor"/>
</g>
</g>
<g transform="scale(1.0000, 1.0000)">
<g transform="translate(6.6800, -0.0000)">
<text font-family="serif" font-size="2.2001" text-anchor="start" fill="currentColor">
<tspan>=</tspan>
</text>
</g>
</g>
<g transform="scale(1.0000, 1.0000)">
</g>
<g transform="scale(1.0000, 1.0000)">
<g transform="translate(8.6116, -0.0000)">
<path transform="scale(0.0040, -0.0040)" d="M218 136c55 0 108 -28 108 -89c0 -71 -55 -121 -102 -149c-35 -21 -75 -34 -116 -34c-55 0 -108 28 -108 89c0 71 55 121 102 149c35 21 75 34 116 34z" fill="currentColor"/>
</g>
<g transform="translate(9.8508, -0.0000)">
<rect x="-0.0650" y="-2.6861" width="0.1300" height="2.5000" ry="0.0400" fill="currentColor"/>
</g>
</g>
</svg>
