<svg xmlns="http://www.w3.org/2000/svg" xmlns:xlink="http://www.w3.org/1999/xlink" version="1.2" width="210.00mm" height="297.00mm" viewBox="0 0 132.7795 187.7882">
<style text="style/css">
<![CDATA[
tspan { white-space: pre; }
]]>
</style>
<!-- Page: 1/1 -->
<g color="rgb(49.8039%, 49.8039%, 49.8039%)">
<line transform="translate(12.6457, 18.1614)" stroke-linejoin="round" stroke-linecap="round" stroke-width="0.1073" stroke="currentColor" x1="0.0537" y1="-0.0000" x2="101.2463" y2="-0.0000"/>
</g>
<rect transform="translate(48.2418, 18.1614)" x="0.0000" y="-1.0537" width="0.2039" height="2.1073" ry="0.0000" fill="currentColor"/>
<rect transform="translate(113.7418, 18.1614)" x="0.0000" y="-1.0537" width="0.2039" height="2.1073" ry="0.0000" fill="currentColor"/>
<rect transform="translate(77.0418, 18.1614)" x="0.0000" y="-1.0537" width="0.2039" height="2.1073" ry="0.0000" fill="currentColor"/>
<rect transform="translate(62.6418, 18.1614)" x="0.0000" y="-1.0537" width="0.2039" height="2.1073" ry="0.0000" fill="currentColor"/>
<path transform="translate(77.0987, 4.1614) scale(0.0045, -0.0045)" d="M46 500c46 -8 91 -13 137 -13s92 5 138 13h4c12 0 19 -10 13 -16c-68 -68 -166 -93 -263 -93c-9 0 -17 -8 -17 -17v-96c28 28 66 43 105 43c116 0 186 -51 186 -161c0 -94 -87 -160 -186 -160c-82 0 -163 39 -163 113c0 36 30 66 66 66s65 -30 65 -66
c0 -25 -40 -28 -40 -53c0 -30 37 -37 72 -37c57 0 70 71 70 137c0 63 -15 132 -70 132c-42 0 -83 -12 -107 -45c-3 -4 -8 -6 -12 -6c-8 0 -15 6 -15 15v228c0 9 7 16 15 16h2z" fill="currentColor"/>
<path transform="translate(77.0418, 6.3997) scale(0.0045, -0.0045)" d="M259 288c27 29 49 62 49 102c0 55 -57 87 -117 87c-47 0 -75 -36 -75 -71c0 -20 10 -40 30 -52zM289 271c55 -31 83 -79 83 -127c0 -73 -66 -144 -189 -144c-94 0 -183 54 -183 140c0 50 39 85 76 120c-41 28 -61 67 -61 106c0 68 61 134 176 134c81 0 161 -38 161 -110
c0 -47 -30 -85 -63 -119zM106 242c-33 -29 -62 -59 -62 -102c0 -69 66 -117 139 -117c54 0 86 42 86 83c0 24 -10 48 -35 62z" fill="currentColor"/>
<path transform="translate(77.9457, 18.1614) scale(0.0040, -0.0040)" d="M312 64c0 24 -20 41 -41 41c-4 0 -8 -1 -12 -2c-30 -9 -77 -38 -113 -62s-83 -54 -103 -78c-7 -8 -10 -17 -10 -27c0 -24 20 -41 41 -41c4 0 8 1 12 2c30 9 77 38 113 62s83 54 103 78c7 8 10 17 10 27zM259 137c48 0 86 -22 86 -74c0 -18 -4 -38 -10 -56
c-12 -38 -30 -73 -63 -95c-53 -36 -113 -49 -186 -49c-48 0 -86 22 -86 74c0 18 4 38 10 56c12 38 31 73 64 95c53 36 112 49 185 49z" fill="currentColor"/>
<rect transform="translate(79.2565, 18.1614)" x="-0.0697" y="-3.3333" width="0.1395" height="3.0804" ry="0.0444" fill="currentColor"/>
<path transform="translate(77.9457, 18.1614)" stroke-width="0.0858" stroke-linejoin="round" stroke-linecap="round" stroke="currentColor" fill="currentColor" d="M0.8903 0.7500C2.5315 1.7715 27.6102 1.7715 29.2514 0.7500L29.2514 0.7500C27.6102 1.6428 2.5315 1.6428 0.8903 0.7500z"/>
<path transform="translate(41.9457, 18.1614) scale(0.0040, -0.0040)" d="M69 -250l118 326c-33 -12 -68 -22 -103 -22c-46 0 -87 33 -87 79c0 40 33 72 73 72c25 0 49 -14 57 -38c10 -27 4 -59 33 -59c15 0 52 45 59 59c6 13 26 13 31 0l-121 -417c-9 -7 -19 -11 -30 -11s-21 4 -30 11z" fill="currentColor"/>
<path transform="translate(106.7457, 18.1614) scale(0.0040, -0.0040)" d="M215 137c57 0 111 -29 111 -92c0 -71 -54 -120 -101 -148c-35 -21 -74 -34 -114 -34c-57 0 -111 29 -111 92c0 71 54 120 101 148c35 21 74 34 114 34z" fill="currentColor"/>
<path transform="translate(108.0485, 14.8309) scale(0.0040, -0.0040)" d="M0 0c0 -197 207 -335 207 -532c0 -71 -15 -141 -41 -207c-5 -8 -13 -12 -21 -12c-14 0 -27 11 -24 28c26 60 42 125 42 191c0 103 -93 207 -163 282h-18v250h18z" fill="currentColor"/>
<rect transform="translate(107.9787, 18.1614)" x="-0.0697" y="-3.3750" width="0.1395" height="3.1956" ry="0.0444" fill="currentColor"/>
<path transform="translate(49.1457, 18.1614) scale(0.0040, -0.0040)" d="M-24 -117c0 29 13 42 43 42c31 0 74 -11 113 -27l-129 154c-7 9 -11 18 -11 26c0 34 51 66 88 100c24 22 37 52 37 82c0 25 -9 49 -26 69l-33 40c-3 4 -4 7 -4 11c0 9 9 17 18 17c4 0 8 -2 12 -6l150 -179c7 -9 11 -18 11 -26c0 -34 -51 -65 -88 -99
c-24 -22 -37 -53 -37 -83c0 -25 8 -49 25 -69l82 -97c3 -4 4 -7 4 -11c0 -9 -8 -17 -17 -17c-4 0 -9 2 -13 6c-17 20 -60 36 -93 36c-41 0 -54 -25 -54 -66c0 -34 10 -73 27 -93c5 -6 0 -14 -6 -14c-2 0 -4 1 -6 3c-45 53 -93 147 -93 201z" fill="currentColor"/>
<path transform="translate(48.2418, 4.1614) scale(0.0045, -0.0045)" d="M23 11c-1 -7 -6 -11 -11 -11c-6 0 -12 4 -12 11c0 175 235 165 235 344c0 60 -18 122 -70 122c-26 0 -51 -14 -51 -37c0 -27 35 -41 35 -68c0 -38 -30 -69 -68 -69s-69 31 -69 69c0 76 72 128 153 128c96 0 187 -56 187 -145c0 -153 -151 -159 -249 -220c9 2 17 3 26 3
c33 0 70 -11 105 -36c21 -15 46 -23 66 -23c21 0 39 9 44 29c2 6 6 9 11 9c6 0 12 -5 12 -12c0 -67 -90 -105 -138 -105c-36 0 -71 14 -96 44c-13 16 -31 22 -48 22c-30 0 -59 -20 -62 -55z" fill="currentColor"/>
<path transform="translate(48.2418, 6.3997) scale(0.0045, -0.0045)" d="M259 288c27 29 49 62 49 102c0 55 -57 87 -117 87c-47 0 -75 -36 -75 -71c0 -20 10 -40 30 -52zM289 271c55 -31 83 -79 83 -127c0 -73 -66 -144 -189 -144c-94 0 -183 54 -183 140c0 50 39 85 76 120c-41 28 -61 67 -61 106c0 68 61 134 176 134c81 0 161 -38 161 -110
c0 -47 -30 -85 -63 -119zM106 242c-33 -29 -62 -59 -62 -102c0 -69 66 -117 139 -117c54 0 86 42 86 83c0 24 -10 48 -35 62z" fill="currentColor"/>
<path transform="translate(13.1457, 18.1614) scale(0.0040, -0.0040)" d="M364 0h-353c-6 0 -11 5 -11 11v134c0 6 5 11 11 11h353c6 0 11 -5 11 -11v-134c0 -6 -5 -11 -11 -11z" fill="currentColor"/>
<path transform="translate(12.7026, 4.1614) scale(0.0045, -0.0045)" d="M46 500c46 -8 91 -13 137 -13s92 5 138 13h4c12 0 19 -10 13 -16c-68 -68 -166 -93 -263 -93c-9 0 -17 -8 -17 -17v-96c28 28 66 43 105 43c116 0 186 -51 186 -161c0 -94 -87 -160 -186 -160c-82 0 -163 39 -163 113c0 36 30 66 66 66s65 -30 65 -66
c0 -25 -40 -28 -40 -53c0 -30 37 -37 72 -37c57 0 70 71 70 137c0 63 -15 132 -70 132c-42 0 -83 -12 -107 -45c-3 -4 -8 -6 -12 -6c-8 0 -15 6 -15 15v228c0 9 7 16 15 16h2z" fill="currentColor"/>
<path transform="translate(12.6457, 6.3997) scale(0.0045, -0.0045)" d="M259 288c27 29 49 62 49 102c0 55 -57 87 -117 87c-47 0 -75 -36 -75 -71c0 -20 10 -40 30 -52zM289 271c55 -31 83 -79 83 -127c0 -73 -66 -144 -189 -144c-94 0 -183 54 -183 140c0 50 39 85 76 120c-41 28 -61 67 -61 106c0 68 61 134 176 134c81 0 161 -38 161 -110
c0 -47 -30 -85 -63 -119zM106 242c-33 -29 -62 -59 -62 -102c0 -69 66 -117 139 -117c54 0 86 42 86 83c0 24 -10 48 -35 62z" fill="currentColor"/>
<path transform="translate(63.5457, 18.1614) scale(0.0040, -0.0040)" d="M215 137c57 0 111 -29 111 -92c0 -71 -54 -120 -101 -148c-35 -21 -74 -34 -114 -34c-57 0 -111 29 -111 92c0 71 54 120 101 148c35 21 74 34 114 34z" fill="currentColor"/>
<rect transform="translate(64.7787, 18.1614)" x="-0.0697" y="-3.3333" width="0.1395" height="3.1540" ry="0.0444" fill="currentColor"/>
<path transform="translate(62.6418, 4.1614) scale(0.0045, -0.0045)" d="M23 11c-1 -7 -6 -11 -11 -11c-6 0 -12 4 -12 11c0 175 235 165 235 344c0 60 -18 122 -70 122c-26 0 -51 -14 -51 -37c0 -27 35 -41 35 -68c0 -38 -30 -69 -68 -69s-69 31 -69 69c0 76 72 128 153 128c96 0 187 -56 187 -145c0 -153 -151 -159 -249 -220c9 2 17 3 26 3
c33 0 70 -11 105 -36c21 -15 46 -23 66 -23c21 0 39 9 44 29c2 6 6 9 11 9c6 0 12 -5 12 -12c0 -67 -90 -105 -138 -105c-36 0 -71 14 -96 44c-13 16 -31 22 -48 22c-30 0 -59 -20 -62 -55z" fill="currentColor"/>
<path transform="translate(62.6418, 6.3997) scale(0.0045, -0.0045)" d="M259 288c27 29 49 62 49 102c0 55 -57 87 -117 87c-47 0 -75 -36 -75 -71c0 -20 10 -40 30 -52zM289 271c55 -31 83 -79 83 -127c0 -73 -66 -144 -189 -144c-94 0 -183 54 -183 140c0 50 39 85 76 120c-41 28 -61 67 -61 106c0 68 61 134 176 134c81 0 161 -38 161 -110
c0 -47 -30 -85 -63 -119zM106 242c-33 -29 -62 -59 -62 -102c0 -69 66 -117 139 -117c54 0 86 42 86 83c0 24 -10 48 -35 62z" fill="currentColor"/>
</svg>
