<svg xmlns="http://www.w3.org/2000/svg" xmlns:xlink="http://www.w3.org/1999/xlink" version="1.2" width="155.50mm" height="79.41mm" viewBox="0.0000 -2.5182 88.4900 45.1863">
<style type="text/css">
<![CDATA[
tspan { white-space: pre; }
]]>
</style>
<g transform="translate(0.0000, 10.0000)">
<line stroke-linejoin="round" stroke-linecap="round" stroke-width="0.1000" stroke="currentColor" x1="0.0500" y1="0" x2="86.8500" y2="0"/>
</g>
<g transform="translate(21.2100, 10.0000)">
<rect x="0.0000" y="-1.0500" width="0.1900" height="2.1000" ry="0.0000" fill="currentColor"/>
</g>
<g transform="translate(42.8100, 10.0000)">
<rect x="0.0000" y="-1.0500" width="0.1900" height="2.1000" ry="0.0000" fill="currentColor"/>
</g>
<g transform="translate(86.7100, 10.0000)">
<rect x="0.0000" y="-1.0500" width="0.1900" height="2.1000" ry="0.0000" fill="currentColor"/>
</g>
<g transform="translate(64.4100, 10.0000)">
<rect x="0.0000" y="-1.0500" width="0.1900" height="2.1000" ry="0.0000" fill="currentColor"/>
</g>
<g transform="translate(82.1000, 10.0000)">
<path transform="scale(0.0040, -0.0040)" d="M218 136c55 0 108 -28 108 -89c0 -71 -55 -121 -102 -149c-35 -21 -75 -34 -116 -34c-55 0 -108 28 -108 89c0 71 55 121 102 149c35 21 75 34 116 34z" fill="currentColor"/>
</g>
<g transform="translate(78.5392, 10.0000)">
<rect x="-0.0650" y="-3.1900" width="0.1300" height="3.0039" ry="0.0400" fill="currentColor"/>
</g>
<g transform="translate(79.7000, 10.0000)">
<path transform="scale(0.0040, -0.0040)" d="M218 136c55 0 108 -28 108 -89c0 -71 -55 -121 -102 -149c-35 -21 -75 -34 -116 -34c-55 0 -108 28 -108 89c0 71 55 121 102 149c35 21 75 34 116 34z" fill="currentColor"/>
</g>
<g transform="translate(80.9392, 10.0000)">
<rect x="-0.0650" y="-3.1900" width="0.1300" height="3.0039" ry="0.0400" fill="currentColor"/>
</g>
<g transform="translate(83.3392, 10.0000)">
<rect x="-0.0650" y="-3.1900" width="0.1300" height="3.0039" ry="0.0400" fill="currentColor"/>
</g>
<g transform="translate(84.5000, 10.0000)">
<path transform="scale(0.0040, -0.0040)" d="M218 136c55 0 108 -28 108 -89c0 -71 -55 -121 -102 -149c-35 -21 -75 -34 -116 -34c-55 0 -108 28 -108 89c0 71 55 121 102 149c35 21 75 34 116 34z" fill="currentColor"/>
</g>
<g transform="translate(85.7392, 10.0000)">
<rect x="-0.0650" y="-3.1900" width="0.1300" height="3.0039" ry="0.0400" fill="currentColor"/>
</g>
<g transform="translate(1.6742, 6.8100)">
<polygon stroke-linejoin="round" stroke-linecap="round" stroke-width="0.0800" fill="currentColor" stroke="currentColor" points="18.0900 -0.2000 18.0900 0.2000 0.0400 0.2000 0.0400 -0.2000"/>
</g>
<g transform="translate(1.6742, 7.6200)">
<polygon stroke-linejoin="round" stroke-linecap="round" stroke-width="0.0800" fill="currentColor" stroke="currentColor" points="18.0900 -0.2000 18.0900 0.2000 0.0400 0.2000 0.0400 -0.2000"/>
</g>
<g transform="translate(67.7000, 10.0000)">
<path transform="scale(0.0040, -0.0040)" d="M218 136c55 0 108 -28 108 -89c0 -71 -55 -121 -102 -149c-35 -21 -75 -34 -116 -34c-55 0 -108 28 -108 89c0 71 55 121 102 149c35 21 75 34 116 34z" fill="currentColor"/>
</g>
<g transform="translate(68.9392, 10.0000)">
<rect x="-0.0650" y="-3.1900" width="0.1300" height="3.0039" ry="0.0400" fill="currentColor"/>
</g>
<g transform="translate(0.6999, -0.0000)">
<path transform="scale(0.0045, -0.0045)" d="M168 256c-54 0 -55 -49 -55 -112v-5v-5c0 -63 1 -112 55 -112c57 0 63 51 63 117s-6 117 -63 117zM113 264c18 7 36 14 55 14c100 0 169 -45 169 -139s-69 -139 -169 -139c-112 0 -168 125 -168 250c0 128 71 250 188 250c70 0 137 -38 137 -102c0 -36 -29 -66 -65 -66
s-66 30 -66 66c0 24 39 25 39 49c0 20 -22 31 -45 31c-68 0 -76 -68 -76 -145c0 -23 1 -46 1 -69z" fill="currentColor"/>
</g>
<g transform="translate(0.0000, 2.3217)">
<g>
<path transform="scale(0.0045, -0.0045)" d="M170 487c18 0 56 30 56 -3v-371c0 -47 28 -91 71 -91c7 0 11 -5 11 -11s-4 -11 -11 -11c-43 0 -84 13 -127 13s-85 -13 -128 -13c-7 0 -11 5 -11 11s4 11 11 11c43 0 71 44 71 91v251c0 12 -8 18 -15 18c-4 0 -8 -2 -10 -6l-63 -138c-3 -6 -7 -8 -12 -8
c-7 0 -14 6 -14 14c0 2 0 4 1 6l113 250c2 5 10 3 16 0c13 -6 27 -13 41 -13z" fill="currentColor"/>

<path transform="translate(1.3999, 0.0000) scale(0.0045, -0.0045)" d="M168 256c-54 0 -55 -49 -55 -112v-5v-5c0 -63 1 -112 55 -112c57 0 63 51 63 117s-6 117 -63 117zM113 264c18 7 36 14 55 14c100 0 169 -45 169 -139s-69 -139 -169 -139c-112 0 -168 125 -168 250c0 128 71 250 188 250c70 0 137 -38 137 -102c0 -36 -29 -66 -65 -66
s-66 30 -66 66c0 24 39 25 39 49c0 20 -22 31 -45 31c-68 0 -76 -68 -76 -145c0 -23 1 -46 1 -69z" fill="currentColor"/>
</g>
</g>
<g transform="translate(70.1000, 10.0000)">
<path transform="scale(0.0040, -0.0040)" d="M218 136c55 0 108 -28 108 -89c0 -71 -55 -121 -102 -149c-35 -21 -75 -34 -116 -34c-55 0 -108 28 -108 89c0 71 55 121 102 149c35 21 75 34 116 34z" fill="currentColor"/>
</g>
<g transform="translate(71.3392, 10.0000)">
<rect x="-0.0650" y="-3.1900" width="0.1300" height="3.0039" ry="0.0400" fill="currentColor"/>
</g>
<g transform="translate(77.3000, 10.0000)">
<path transform="scale(0.0040, -0.0040)" d="M218 136c55 0 108 -28 108 -89c0 -71 -55 -121 -102 -149c-35 -21 -75 -34 -116 -34c-55 0 -108 28 -108 89c0 71 55 121 102 149c35 21 75 34 116 34z" fill="currentColor"/>
</g>
<g transform="translate(72.5000, 10.0000)">
<path transform="scale(0.0040, -0.0040)" d="M218 136c55 0 108 -28 108 -89c0 -71 -55 -121 -102 -149c-35 -21 -75 -34 -116 -34c-55 0 -108 28 -108 89c0 71 55 121 102 149c35 21 75 34 116 34z" fill="currentColor"/>
</g>
<g transform="translate(73.7392, 10.0000)">
<rect x="-0.0650" y="-3.1900" width="0.1300" height="3.0039" ry="0.0400" fill="currentColor"/>
</g>
<g transform="translate(7.7000, 10.0000)">
<path transform="scale(0.0040, -0.0040)" d="M218 136c55 0 108 -28 108 -89c0 -71 -55 -121 -102 -149c-35 -21 -75 -34 -116 -34c-55 0 -108 28 -108 89c0 71 55 121 102 149c35 21 75 34 116 34z" fill="currentColor"/>
</g>
<g transform="translate(74.9000, 10.0000)">
<path transform="scale(0.0040, -0.0040)" d="M218 136c55 0 108 -28 108 -89c0 -71 -55 -121 -102 -149c-35 -21 -75 -34 -116 -34c-55 0 -108 28 -108 89c0 71 55 121 102 149c35 21 75 34 116 34z" fill="currentColor"/>
</g>
<g transform="translate(76.1392, 10.0000)">
<rect x="-0.0650" y="-3.1900" width="0.1300" height="3.0039" ry="0.0400" fill="currentColor"/>
</g>
<g transform="translate(8.9392, 10.0000)">
<rect x="-0.0650" y="-3.1900" width="0.1300" height="3.0039" ry="0.0400" fill="currentColor"/>
</g>
<g transform="translate(1.7392, 10.0000)">
<rect x="-0.0650" y="-3.1900" width="0.1300" height="3.0039" ry="0.0400" fill="currentColor"/>
</g>
<g transform="translate(25.1857, 10.0000)">
<path transform="scale(0.0040, -0.0040)" d="M218 136c55 0 108 -28 108 -89c0 -71 -55 -121 -102 -149c-35 -21 -75 -34 -116 -34c-55 0 -108 28 -108 89c0 71 55 121 102 149c35 21 75 34 116 34z" fill="currentColor"/>
</g>
<g transform="translate(26.4249, 10.0000)">
<rect x="-0.0650" y="-3.1900" width="0.1300" height="3.0039" ry="0.0400" fill="currentColor"/>
</g>
<g transform="translate(28.2714, 10.0000)">
<path transform="scale(0.0040, -0.0040)" d="M218 136c55 0 108 -28 108 -89c0 -71 -55 -121 -102 -149c-35 -21 -75 -34 -116 -34c-55 0 -108 28 -108 89c0 71 55 121 102 149c35 21 75 34 116 34z" fill="currentColor"/>
</g>
<g transform="translate(29.5106, 10.0000)">
<rect x="-0.0650" y="-3.1900" width="0.1300" height="3.0039" ry="0.0400" fill="currentColor"/>
</g>
<g transform="translate(66.4742, 6.8100)">
<polygon stroke-linejoin="round" stroke-linecap="round" stroke-width="0.0800" fill="currentColor" stroke="currentColor" points="19.2900 -0.2000 19.2900 0.2000 0.0400 0.2000 0.0400 -0.2000"/>
</g>
<g transform="translate(66.4742, 7.6200)">
<polygon stroke-linejoin="round" stroke-linecap="round" stroke-width="0.0800" fill="currentColor" stroke="currentColor" points="19.2900 -0.2000 19.2900 0.2000 0.0400 0.2000 0.0400 -0.2000"/>
</g>
<g transform="translate(52.9642, 5.1675)">
<text font-family="serif" font-style="italic" font-size="1.7461" text-anchor="start" fill="currentColor">
<tspan>8:6</tspan>
</text>
</g>
<g transform="translate(44.8742, 4.5700)">
<line stroke-linejoin="round" stroke-linecap="round" stroke-width="0.1600" stroke="currentColor" x1="18.7358" y1="-0.0000" x2="18.7358" y2="0.7000"/>
</g>
<g transform="translate(44.8742, 4.5700)">
<line stroke-linejoin="round" stroke-linecap="round" stroke-width="0.1600" stroke="currentColor" x1="-0.2000" y1="-0.0000" x2="-0.2000" y2="0.7000"/>
</g>
<g transform="translate(44.8742, 4.5700)">
<line stroke-linejoin="round" stroke-linecap="round" stroke-width="0.1600" stroke="currentColor" x1="18.7358" y1="-0.0000" x2="11.0458" y2="-0.0000"/>
</g>
<g transform="translate(44.8742, 4.5700)">
<line stroke-linejoin="round" stroke-linecap="round" stroke-width="0.1600" stroke="currentColor" x1="-0.2000" y1="-0.0000" x2="7.6899" y2="-0.0000"/>
</g>
<g transform="translate(44.8742, 6.8100)">
<polygon stroke-linejoin="round" stroke-linecap="round" stroke-width="0.0800" fill="currentColor" stroke="currentColor" points="18.9900 -0.2000 18.9900 0.2000 0.0400 0.2000 0.0400 -0.2000"/>
</g>
<g transform="translate(44.8742, 7.6200)">
<polygon stroke-linejoin="round" stroke-linecap="round" stroke-width="0.0800" fill="currentColor" stroke="currentColor" points="18.9900 -0.2000 18.9900 0.2000 0.0400 0.2000 0.0400 -0.2000"/>
</g>
<g transform="translate(31.3642, 5.1504)">
<text font-family="serif" font-style="italic" font-size="1.7461" text-anchor="start" fill="currentColor">
<tspan>7:6</tspan>
</text>
</g>
<g transform="translate(23.2742, 4.5700)">
<line stroke-linejoin="round" stroke-linecap="round" stroke-width="0.1600" stroke="currentColor" x1="18.7358" y1="-0.0000" x2="18.7358" y2="0.7000"/>
</g>
<g transform="translate(23.2742, 4.5700)">
<line stroke-linejoin="round" stroke-linecap="round" stroke-width="0.1600" stroke="currentColor" x1="-0.2000" y1="-0.0000" x2="-0.2000" y2="0.7000"/>
</g>
<g transform="translate(23.2742, 4.5700)">
<line stroke-linejoin="round" stroke-linecap="round" stroke-width="0.1600" stroke="currentColor" x1="18.7358" y1="-0.0000" x2="11.0458" y2="-0.0000"/>
</g>
<g transform="translate(23.2742, 4.5700)">
<line stroke-linejoin="round" stroke-linecap="round" stroke-width="0.1600" stroke="currentColor" x1="-0.2000" y1="-0.0000" x2="7.6899" y2="-0.0000"/>
</g>
<g transform="translate(23.2742, 6.8100)">
<polygon stroke-linejoin="round" stroke-linecap="round" stroke-width="0.0800" fill="currentColor" stroke="currentColor" points="18.6043 -0.2000 18.6043 0.2000 0.0400 0.2000 0.0400 -0.2000"/>
</g>
<g transform="translate(23.2742, 7.6200)">
<polygon stroke-linejoin="round" stroke-linecap="round" stroke-width="0.0800" fill="currentColor" stroke="currentColor" points="18.6043 -0.2000 18.6043 0.2000 0.0400 0.2000 0.0400 -0.2000"/>
</g>
<g transform="translate(11.3000, 10.0000)">
<path transform="scale(0.0040, -0.0040)" d="M218 136c55 0 108 -28 108 -89c0 -71 -55 -121 -102 -149c-35 -21 -75 -34 -116 -34c-55 0 -108 28 -108 89c0 71 55 121 102 149c35 21 75 34 116 34z" fill="currentColor"/>
</g>
<g transform="translate(12.5392, 10.0000)">
<rect x="-0.0650" y="-3.1900" width="0.1300" height="3.0039" ry="0.0400" fill="currentColor"/>
</g>
<g transform="translate(14.9000, 10.0000)">
<path transform="scale(0.0040, -0.0040)" d="M218 136c55 0 108 -28 108 -89c0 -71 -55 -121 -102 -149c-35 -21 -75 -34 -116 -34c-55 0 -108 28 -108 89c0 71 55 121 102 149c35 21 75 34 116 34z" fill="currentColor"/>
</g>
<g transform="translate(16.1392, 10.0000)">
<rect x="-0.0650" y="-3.1900" width="0.1300" height="3.0039" ry="0.0400" fill="currentColor"/>
</g>
<g transform="translate(0.5000, 10.0000)">
<path transform="scale(0.0040, -0.0040)" d="M218 136c55 0 108 -28 108 -89c0 -71 -55 -121 -102 -149c-35 -21 -75 -34 -116 -34c-55 0 -108 28 -108 89c0 71 55 121 102 149c35 21 75 34 116 34z" fill="currentColor"/>
</g>
<g transform="translate(0.5000, 2.9500)">
<text font-family="serif" font-size="2.2001" text-anchor="start" fill="currentColor">
<tspan>0</tspan>
</text>
</g>
<g transform="translate(2.1926, 2.9500)">
<text font-family="serif" font-size="2.2001" text-anchor="start" fill="currentColor">
<tspan>becomes</tspan>
</text>
</g>
<g transform="translate(10.5090, 2.9500)">
<text font-family="serif" font-size="2.2001" text-anchor="start" fill="currentColor">
<tspan>0</tspan>
</text>
</g>
<g transform="translate(18.5000, 10.0000)">
<path transform="scale(0.0040, -0.0040)" d="M218 136c55 0 108 -28 108 -89c0 -71 -55 -121 -102 -149c-35 -21 -75 -34 -116 -34c-55 0 -108 28 -108 89c0 71 55 121 102 149c35 21 75 34 116 34z" fill="currentColor"/>
</g>
<g transform="translate(19.7392, 10.0000)">
<rect x="-0.0650" y="-3.1900" width="0.1300" height="3.0039" ry="0.0400" fill="currentColor"/>
</g>
<g transform="translate(21.9099, -0.0000)">
<path transform="scale(0.0045, -0.0045)" d="M168 256c-54 0 -55 -49 -55 -112v-5v-5c0 -63 1 -112 55 -112c57 0 63 51 63 117s-6 117 -63 117zM113 264c18 7 36 14 55 14c100 0 169 -45 169 -139s-69 -139 -169 -139c-112 0 -168 125 -168 250c0 128 71 250 188 250c70 0 137 -38 137 -102c0 -36 -29 -66 -65 -66
s-66 30 -66 66c0 24 39 25 39 49c0 20 -22 31 -45 31c-68 0 -76 -68 -76 -145c0 -23 1 -46 1 -69z" fill="currentColor"/>
</g>
<g transform="translate(21.2100, 2.3217)">
<g>
<path transform="scale(0.0045, -0.0045)" d="M170 487c18 0 56 30 56 -3v-371c0 -47 28 -91 71 -91c7 0 11 -5 11 -11s-4 -11 -11 -11c-43 0 -84 13 -127 13s-85 -13 -128 -13c-7 0 -11 5 -11 11s4 11 11 11c43 0 71 44 71 91v251c0 12 -8 18 -15 18c-4 0 -8 -2 -10 -6l-63 -138c-3 -6 -7 -8 -12 -8
c-7 0 -14 6 -14 14c0 2 0 4 1 6l113 250c2 5 10 3 16 0c13 -6 27 -13 41 -13z" fill="currentColor"/>

<path transform="translate(1.3999, 0.0000) scale(0.0045, -0.0045)" d="M168 256c-54 0 -55 -49 -55 -112v-5v-5c0 -63 1 -112 55 -112c57 0 63 51 63 117s-6 117 -63 117zM113 264c18 7 36 14 55 14c100 0 169 -45 169 -139s-69 -139 -169 -139c-112 0 -168 125 -168 250c0 128 71 250 188 250c70 0 137 -38 137 -102c0 -36 -29 -66 -65 -66
s-66 30 -66 66c0 24 39 25 39 49c0 20 -22 31 -45 31c-68 0 -76 -68 -76 -145c0 -23 1 -46 1 -69z" fill="currentColor"/>
</g>
</g>
<g transform="translate(22.1000, 10.0000)">
<path transform="scale(0.0040, -0.0040)" d="M218 136c55 0 108 -28 108 -89c0 -71 -55 -121 -102 -149c-35 -21 -75 -34 -116 -34c-55 0 -108 28 -108 89c0 71 55 121 102 149c35 21 75 34 116 34z" fill="currentColor"/>
</g>
<g transform="translate(22.1000, 2.9500)">
<text font-family="serif" font-size="2.2001" text-anchor="start" fill="currentColor">
<tspan>1</tspan>
</text>
</g>
<g transform="translate(23.7926, 2.9500)">
<text font-family="serif" font-size="2.2001" text-anchor="start" fill="currentColor">
<tspan>becomes</tspan>
</text>
</g>
<g transform="translate(32.1090, 2.9500)">
<text font-family="serif" font-size="2.2001" text-anchor="start" fill="currentColor">
<tspan>1</tspan>
</text>
</g>
<g transform="translate(23.3392, 10.0000)">
<rect x="-0.0650" y="-3.1900" width="0.1300" height="3.0039" ry="0.0400" fill="currentColor"/>
</g>
<g transform="translate(43.5099, -0.0000)">
<path transform="scale(0.0045, -0.0045)" d="M168 256c-54 0 -55 -49 -55 -112v-5v-5c0 -63 1 -112 55 -112c57 0 63 51 63 117s-6 117 -63 117zM113 264c18 7 36 14 55 14c100 0 169 -45 169 -139s-69 -139 -169 -139c-112 0 -168 125 -168 250c0 128 71 250 188 250c70 0 137 -38 137 -102c0 -36 -29 -66 -65 -66
s-66 30 -66 66c0 24 39 25 39 49c0 20 -22 31 -45 31c-68 0 -76 -68 -76 -145c0 -23 1 -46 1 -69z" fill="currentColor"/>
</g>
<g transform="translate(42.8100, 2.3217)">
<g>
<path transform="scale(0.0045, -0.0045)" d="M170 487c18 0 56 30 56 -3v-371c0 -47 28 -91 71 -91c7 0 11 -5 11 -11s-4 -11 -11 -11c-43 0 -84 13 -127 13s-85 -13 -128 -13c-7 0 -11 5 -11 11s4 11 11 11c43 0 71 44 71 91v251c0 12 -8 18 -15 18c-4 0 -8 -2 -10 -6l-63 -138c-3 -6 -7 -8 -12 -8
c-7 0 -14 6 -14 14c0 2 0 4 1 6l113 250c2 5 10 3 16 0c13 -6 27 -13 41 -13z" fill="currentColor"/>

<path transform="translate(1.3999, 0.0000) scale(0.0045, -0.0045)" d="M168 256c-54 0 -55 -49 -55 -112v-5v-5c0 -63 1 -112 55 -112c57 0 63 51 63 117s-6 117 -63 117zM113 264c18 7 36 14 55 14c100 0 169 -45 169 -139s-69 -139 -169 -139c-112 0 -168 125 -168 250c0 128 71 250 188 250c70 0 137 -38 137 -102c0 -36 -29 -66 -65 -66
s-66 30 -66 66c0 24 39 25 39 49c0 20 -22 31 -45 31c-68 0 -76 -68 -76 -145c0 -23 1 -46 1 -69z" fill="currentColor"/>
</g>
</g>
<g transform="translate(43.7000, 10.0000)">
<path transform="scale(0.0040, -0.0040)" d="M218 136c55 0 108 -28 108 -89c0 -71 -55 -121 -102 -149c-35 -21 -75 -34 -116 -34c-55 0 -108 28 -108 89c0 71 55 121 102 149c35 21 75 34 116 34z" fill="currentColor"/>
</g>
<g transform="translate(43.7000, 2.9500)">
<text font-family="serif" font-size="2.2001" text-anchor="start" fill="currentColor">
<tspan>2</tspan>
</text>
</g>
<g transform="translate(45.3926, 2.9500)">
<text font-family="serif" font-size="2.2001" text-anchor="start" fill="currentColor">
<tspan>becomes</tspan>
</text>
</g>
<g transform="translate(53.7090, 2.9500)">
<text font-family="serif" font-size="2.2001" text-anchor="start" fill="currentColor">
<tspan>2</tspan>
</text>
</g>
<g transform="translate(44.9392, 10.0000)">
<rect x="-0.0650" y="-3.1900" width="0.1300" height="3.0039" ry="0.0400" fill="currentColor"/>
</g>
<g transform="translate(41.8535, 10.0000)">
<rect x="-0.0650" y="-3.1900" width="0.1300" height="3.0039" ry="0.0400" fill="currentColor"/>
</g>
<g transform="translate(46.4000, 10.0000)">
<path transform="scale(0.0040, -0.0040)" d="M218 136c55 0 108 -28 108 -89c0 -71 -55 -121 -102 -149c-35 -21 -75 -34 -116 -34c-55 0 -108 28 -108 89c0 71 55 121 102 149c35 21 75 34 116 34z" fill="currentColor"/>
</g>
<g transform="translate(47.6392, 10.0000)">
<rect x="-0.0650" y="-3.1900" width="0.1300" height="3.0039" ry="0.0400" fill="currentColor"/>
</g>
<g transform="translate(49.1000, 10.0000)">
<path transform="scale(0.0040, -0.0040)" d="M218 136c55 0 108 -28 108 -89c0 -71 -55 -121 -102 -149c-35 -21 -75 -34 -116 -34c-55 0 -108 28 -108 89c0 71 55 121 102 149c35 21 75 34 116 34z" fill="currentColor"/>
</g>
<g transform="translate(50.3392, 10.0000)">
<rect x="-0.0650" y="-3.1900" width="0.1300" height="3.0039" ry="0.0400" fill="currentColor"/>
</g>
<g transform="translate(4.1000, 10.0000)">
<path transform="scale(0.0040, -0.0040)" d="M218 136c55 0 108 -28 108 -89c0 -71 -55 -121 -102 -149c-35 -21 -75 -34 -116 -34c-55 0 -108 28 -108 89c0 71 55 121 102 149c35 21 75 34 116 34z" fill="currentColor"/>
</g>
<g transform="translate(34.4429, 10.0000)">
<path transform="scale(0.0040, -0.0040)" d="M218 136c55 0 108 -28 108 -89c0 -71 -55 -121 -102 -149c-35 -21 -75 -34 -116 -34c-55 0 -108 28 -108 89c0 71 55 121 102 149c35 21 75 34 116 34z" fill="currentColor"/>
</g>
<g transform="translate(66.4742, 4.5700)">
<line stroke-linejoin="round" stroke-linecap="round" stroke-width="0.1600" stroke="currentColor" x1="20.4358" y1="-0.0000" x2="20.4358" y2="0.7000"/>
</g>
<g transform="translate(66.4742, 4.5700)">
<line stroke-linejoin="round" stroke-linecap="round" stroke-width="0.1600" stroke="currentColor" x1="-0.2000" y1="-0.0000" x2="-0.2000" y2="0.7000"/>
</g>
<g transform="translate(66.4742, 4.5700)">
<line stroke-linejoin="round" stroke-linecap="round" stroke-width="0.1600" stroke="currentColor" x1="20.4358" y1="-0.0000" x2="11.8958" y2="-0.0000"/>
</g>
<g transform="translate(66.4742, 4.5700)">
<line stroke-linejoin="round" stroke-linecap="round" stroke-width="0.1600" stroke="currentColor" x1="-0.2000" y1="-0.0000" x2="8.5399" y2="-0.0000"/>
</g>
<g transform="translate(75.4142, 5.1675)">
<text font-family="serif" font-style="italic" font-size="1.7461" text-anchor="start" fill="currentColor">
<tspan>9:6</tspan>
</text>
</g>
<g transform="translate(31.3571, 10.0000)">
<path transform="scale(0.0040, -0.0040)" d="M218 136c55 0 108 -28 108 -89c0 -71 -55 -121 -102 -149c-35 -21 -75 -34 -116 -34c-55 0 -108 28 -108 89c0 71 55 121 102 149c35 21 75 34 116 34z" fill="currentColor"/>
</g>
<g transform="translate(32.5964, 10.0000)">
<rect x="-0.0650" y="-3.1900" width="0.1300" height="3.0039" ry="0.0400" fill="currentColor"/>
</g>
<g transform="translate(35.6821, 10.0000)">
<rect x="-0.0650" y="-3.1900" width="0.1300" height="3.0039" ry="0.0400" fill="currentColor"/>
</g>
<g transform="translate(37.5286, 10.0000)">
<path transform="scale(0.0040, -0.0040)" d="M218 136c55 0 108 -28 108 -89c0 -71 -55 -121 -102 -149c-35 -21 -75 -34 -116 -34c-55 0 -108 28 -108 89c0 71 55 121 102 149c35 21 75 34 116 34z" fill="currentColor"/>
</g>
<g transform="translate(38.7678, 10.0000)">
<rect x="-0.0650" y="-3.1900" width="0.1300" height="3.0039" ry="0.0400" fill="currentColor"/>
</g>
<g transform="translate(40.6143, 10.0000)">
<path transform="scale(0.0040, -0.0040)" d="M218 136c55 0 108 -28 108 -89c0 -71 -55 -121 -102 -149c-35 -21 -75 -34 -116 -34c-55 0 -108 28 -108 89c0 71 55 121 102 149c35 21 75 34 116 34z" fill="currentColor"/>
</g>
<g transform="translate(59.9000, 10.0000)">
<path transform="scale(0.0040, -0.0040)" d="M218 136c55 0 108 -28 108 -89c0 -71 -55 -121 -102 -149c-35 -21 -75 -34 -116 -34c-55 0 -108 28 -108 89c0 71 55 121 102 149c35 21 75 34 116 34z" fill="currentColor"/>
</g>
<g transform="translate(65.3000, 10.0000)">
<path transform="scale(0.0040, -0.0040)" d="M218 136c55 0 108 -28 108 -89c0 -71 -55 -121 -102 -149c-35 -21 -75 -34 -116 -34c-55 0 -108 28 -108 89c0 71 55 121 102 149c35 21 75 34 116 34z" fill="currentColor"/>
</g>
<g transform="translate(57.2000, 10.0000)">
<path transform="scale(0.0040, -0.0040)" d="M218 136c55 0 108 -28 108 -89c0 -71 -55 -121 -102 -149c-35 -21 -75 -34 -116 -34c-55 0 -108 28 -108 89c0 71 55 121 102 149c35 21 75 34 116 34z" fill="currentColor"/>
</g>
<g transform="translate(58.4392, 10.0000)">
<rect x="-0.0650" y="-3.1900" width="0.1300" height="3.0039" ry="0.0400" fill="currentColor"/>
</g>
<g transform="translate(65.1099, -0.0000)">
<path transform="scale(0.0045, -0.0045)" d="M168 256c-54 0 -55 -49 -55 -112v-5v-5c0 -63 1 -112 55 -112c57 0 63 51 63 117s-6 117 -63 117zM113 264c18 7 36 14 55 14c100 0 169 -45 169 -139s-69 -139 -169 -139c-112 0 -168 125 -168 250c0 128 71 250 188 250c70 0 137 -38 137 -102c0 -36 -29 -66 -65 -66
s-66 30 -66 66c0 24 39 25 39 49c0 20 -22 31 -45 31c-68 0 -76 -68 -76 -145c0 -23 1 -46 1 -69z" fill="currentColor"/>
</g>
<g transform="translate(64.4100, 2.3217)">
<g>
<path transform="scale(0.0045, -0.0045)" d="M170 487c18 0 56 30 56 -3v-371c0 -47 28 -91 71 -91c7 0 11 -5 11 -11s-4 -11 -11 -11c-43 0 -84 13 -127 13s-85 -13 -128 -13c-7 0 -11 5 -11 11s4 11 11 11c43 0 71 44 71 91v251c0 12 -8 18 -15 18c-4 0 -8 -2 -10 -6l-63 -138c-3 -6 -7 -8 -12 -8
c-7 0 -14 6 -14 14c0 2 0 4 1 6l113 250c2 5 10 3 16 0c13 -6 27 -13 41 -13z" fill="currentColor"/>

<path transform="translate(1.3999, 0.0000) scale(0.0045, -0.0045)" d="M168 256c-54 0 -55 -49 -55 -112v-5v-5c0 -63 1 -112 55 -112c57 0 63 51 63 117s-6 117 -63 117zM113 264c18 7 36 14 55 14c100 0 169 -45 169 -139s-69 -139 -169 -139c-112 0 -168 125 -168 250c0 128 71 250 188 250c70 0 137 -38 137 -102c0 -36 -29 -66 -65 -66
s-66 30 -66 66c0 24 39 25 39 49c0 20 -22 31 -45 31c-68 0 -76 -68 -76 -145c0 -23 1 -46 1 -69z" fill="currentColor"/>
</g>
</g>
<g transform="translate(61.1392, 10.0000)">
<rect x="-0.0650" y="-3.1900" width="0.1300" height="3.0039" ry="0.0400" fill="currentColor"/>
</g>
<g transform="translate(62.6000, 10.0000)">
<path transform="scale(0.0040, -0.0040)" d="M218 136c55 0 108 -28 108 -89c0 -71 -55 -121 -102 -149c-35 -21 -75 -34 -116 -34c-55 0 -108 28 -108 89c0 71 55 121 102 149c35 21 75 34 116 34z" fill="currentColor"/>
</g>
<g transform="translate(63.8392, 10.0000)">
<rect x="-0.0650" y="-3.1900" width="0.1300" height="3.0039" ry="0.0400" fill="currentColor"/>
</g>
<g transform="translate(51.8000, 10.0000)">
<path transform="scale(0.0040, -0.0040)" d="M218 136c55 0 108 -28 108 -89c0 -71 -55 -121 -102 -149c-35 -21 -75 -34 -116 -34c-55 0 -108 28 -108 89c0 71 55 121 102 149c35 21 75 34 116 34z" fill="currentColor"/>
</g>
<g transform="translate(5.3392, 10.0000)">
<rect x="-0.0650" y="-3.1900" width="0.1300" height="3.0039" ry="0.0400" fill="currentColor"/>
</g>
<g transform="translate(53.0392, 10.0000)">
<rect x="-0.0650" y="-3.1900" width="0.1300" height="3.0039" ry="0.0400" fill="currentColor"/>
</g>
<g transform="translate(54.5000, 10.0000)">
<path transform="scale(0.0040, -0.0040)" d="M218 136c55 0 108 -28 108 -89c0 -71 -55 -121 -102 -149c-35 -21 -75 -34 -116 -34c-55 0 -108 28 -108 89c0 71 55 121 102 149c35 21 75 34 116 34z" fill="currentColor"/>
</g>
<g transform="translate(55.7392, 10.0000)">
<rect x="-0.0650" y="-3.1900" width="0.1300" height="3.0039" ry="0.0400" fill="currentColor"/>
</g>
<g transform="translate(65.3000, 2.9500)">
<text font-family="serif" font-size="2.2001" text-anchor="start" fill="currentColor">
<tspan>3</tspan>
</text>
</g>
<g transform="translate(66.9926, 2.9500)">
<text font-family="serif" font-size="2.2001" text-anchor="start" fill="currentColor">
<tspan>becomes</tspan>
</text>
</g>
<g transform="translate(75.3090, 2.9500)">
<text font-family="serif" font-size="2.2001" text-anchor="start" fill="currentColor">
<tspan>3</tspan>
</text>
</g>
<g transform="translate(66.5392, 10.0000)">
<rect x="-0.0650" y="-3.1900" width="0.1300" height="3.0039" ry="0.0400" fill="currentColor"/>
</g>
<g transform="translate(0.0000, 21.0500)">
<line stroke-linejoin="round" stroke-linecap="round" stroke-width="0.1000" stroke="currentColor" x1="0.0500" y1="0" x2="88.3500" y2="0"/>
</g>
<g transform="translate(22.8942, 21.0500)">
<rect x="0.0000" y="-1.0500" width="0.1900" height="2.1000" ry="0.0000" fill="currentColor"/>
</g>
<g transform="translate(65.9100, 21.0500)">
<rect x="0.0000" y="-1.0500" width="0.1900" height="2.1000" ry="0.0000" fill="currentColor"/>
</g>
<g transform="translate(44.6906, 21.0500)">
<rect x="0.0000" y="-1.0500" width="0.1900" height="2.1000" ry="0.0000" fill="currentColor"/>
</g>
<g transform="translate(88.2100, 21.0500)">
<rect x="0.0000" y="-1.0500" width="0.1900" height="2.1000" ry="0.0000" fill="currentColor"/>
</g>
<g transform="translate(32.6938, 21.0500)">
<rect x="-0.0650" y="-3.1900" width="0.1300" height="3.0039" ry="0.0400" fill="currentColor"/>
</g>
<g transform="translate(34.6574, 21.0500)">
<rect x="-0.0650" y="-3.1900" width="0.1300" height="3.0039" ry="0.0400" fill="currentColor"/>
</g>
<g transform="translate(33.4182, 21.0500)">
<path transform="scale(0.0040, -0.0040)" d="M218 136c55 0 108 -28 108 -89c0 -71 -55 -121 -102 -149c-35 -21 -75 -34 -116 -34c-55 0 -108 28 -108 89c0 71 55 121 102 149c35 21 75 34 116 34z" fill="currentColor"/>
</g>
<g transform="translate(30.7301, 21.0500)">
<rect x="-0.0650" y="-3.1900" width="0.1300" height="3.0039" ry="0.0400" fill="currentColor"/>
</g>
<g transform="translate(39.3091, 21.0500)">
<path transform="scale(0.0040, -0.0040)" d="M218 136c55 0 108 -28 108 -89c0 -71 -55 -121 -102 -149c-35 -21 -75 -34 -116 -34c-55 0 -108 28 -108 89c0 71 55 121 102 149c35 21 75 34 116 34z" fill="currentColor"/>
</g>
<g transform="translate(31.4545, 21.0500)">
<path transform="scale(0.0040, -0.0040)" d="M218 136c55 0 108 -28 108 -89c0 -71 -55 -121 -102 -149c-35 -21 -75 -34 -116 -34c-55 0 -108 28 -108 89c0 71 55 121 102 149c35 21 75 34 116 34z" fill="currentColor"/>
</g>
<g transform="translate(29.4909, 21.0500)">
<path transform="scale(0.0040, -0.0040)" d="M218 136c55 0 108 -28 108 -89c0 -71 -55 -121 -102 -149c-35 -21 -75 -34 -116 -34c-55 0 -108 28 -108 89c0 71 55 121 102 149c35 21 75 34 116 34z" fill="currentColor"/>
</g>
<g transform="translate(38.5847, 21.0500)">
<rect x="-0.0650" y="-3.1900" width="0.1300" height="3.0039" ry="0.0400" fill="currentColor"/>
</g>
<g transform="translate(37.3455, 21.0500)">
<path transform="scale(0.0040, -0.0040)" d="M218 136c55 0 108 -28 108 -89c0 -71 -55 -121 -102 -149c-35 -21 -75 -34 -116 -34c-55 0 -108 28 -108 89c0 71 55 121 102 149c35 21 75 34 116 34z" fill="currentColor"/>
</g>
<g transform="translate(36.6210, 21.0500)">
<rect x="-0.0650" y="-3.1900" width="0.1300" height="3.0039" ry="0.0400" fill="currentColor"/>
</g>
<g transform="translate(35.3818, 21.0500)">
<path transform="scale(0.0040, -0.0040)" d="M218 136c55 0 108 -28 108 -89c0 -71 -55 -121 -102 -149c-35 -21 -75 -34 -116 -34c-55 0 -108 28 -108 89c0 71 55 121 102 149c35 21 75 34 116 34z" fill="currentColor"/>
</g>
<g transform="translate(24.8392, 21.0500)">
<rect x="-0.0650" y="-3.1900" width="0.1300" height="3.0039" ry="0.0400" fill="currentColor"/>
</g>
<g transform="translate(23.6000, 14.0000)">
<text font-family="serif" font-size="2.2001" text-anchor="start" fill="currentColor">
<tspan>5</tspan>
</text>
</g>
<g transform="translate(25.2926, 14.0000)">
<text font-family="serif" font-size="2.2001" text-anchor="start" fill="currentColor">
<tspan>becomes</tspan>
</text>
</g>
<g transform="translate(33.6090, 14.0000)">
<text font-family="serif" font-size="2.2001" text-anchor="start" fill="currentColor">
<tspan>5</tspan>
</text>
</g>
<g transform="translate(23.6000, 21.0500)">
<path transform="scale(0.0040, -0.0040)" d="M218 136c55 0 108 -28 108 -89c0 -71 -55 -121 -102 -149c-35 -21 -75 -34 -116 -34c-55 0 -108 28 -108 89c0 71 55 121 102 149c35 21 75 34 116 34z" fill="currentColor"/>
</g>
<g transform="translate(23.5941, 11.0500)">
<path transform="scale(0.0045, -0.0045)" d="M168 256c-54 0 -55 -49 -55 -112v-5v-5c0 -63 1 -112 55 -112c57 0 63 51 63 117s-6 117 -63 117zM113 264c18 7 36 14 55 14c100 0 169 -45 169 -139s-69 -139 -169 -139c-112 0 -168 125 -168 250c0 128 71 250 188 250c70 0 137 -38 137 -102c0 -36 -29 -66 -65 -66
s-66 30 -66 66c0 24 39 25 39 49c0 20 -22 31 -45 31c-68 0 -76 -68 -76 -145c0 -23 1 -46 1 -69z" fill="currentColor"/>
</g>
<g transform="translate(22.8942, 13.3717)">
<g>
<path transform="scale(0.0045, -0.0045)" d="M170 487c18 0 56 30 56 -3v-371c0 -47 28 -91 71 -91c7 0 11 -5 11 -11s-4 -11 -11 -11c-43 0 -84 13 -127 13s-85 -13 -128 -13c-7 0 -11 5 -11 11s4 11 11 11c43 0 71 44 71 91v251c0 12 -8 18 -15 18c-4 0 -8 -2 -10 -6l-63 -138c-3 -6 -7 -8 -12 -8
c-7 0 -14 6 -14 14c0 2 0 4 1 6l113 250c2 5 10 3 16 0c13 -6 27 -13 41 -13z" fill="currentColor"/>

<path transform="translate(1.3999, 0.0000) scale(0.0045, -0.0045)" d="M168 256c-54 0 -55 -49 -55 -112v-5v-5c0 -63 1 -112 55 -112c57 0 63 51 63 117s-6 117 -63 117zM113 264c18 7 36 14 55 14c100 0 169 -45 169 -139s-69 -139 -169 -139c-112 0 -168 125 -168 250c0 128 71 250 188 250c70 0 137 -38 137 -102c0 -36 -29 -66 -65 -66
s-66 30 -66 66c0 24 39 25 39 49c0 20 -22 31 -45 31c-68 0 -76 -68 -76 -145c0 -23 1 -46 1 -69z" fill="currentColor"/>
</g>
</g>
<g transform="translate(22.6792, 21.0500)">
<rect x="-0.0650" y="-3.1900" width="0.1300" height="3.0039" ry="0.0400" fill="currentColor"/>
</g>
<g transform="translate(21.4400, 21.0500)">
<path transform="scale(0.0040, -0.0040)" d="M218 136c55 0 108 -28 108 -89c0 -71 -55 -121 -102 -149c-35 -21 -75 -34 -116 -34c-55 0 -108 28 -108 89c0 71 55 121 102 149c35 21 75 34 116 34z" fill="currentColor"/>
</g>
<g transform="translate(3.1742, 17.8600)">
<polygon stroke-linejoin="round" stroke-linecap="round" stroke-width="0.0800" fill="currentColor" stroke="currentColor" points="19.5300 -0.2000 19.5300 0.2000 0.0400 0.2000 0.0400 -0.2000"/>
</g>
<g transform="translate(3.1742, 18.6700)">
<polygon stroke-linejoin="round" stroke-linecap="round" stroke-width="0.0800" fill="currentColor" stroke="currentColor" points="19.5300 -0.2000 19.5300 0.2000 0.0400 0.2000 0.0400 -0.2000"/>
</g>
<g transform="translate(26.8028, 21.0500)">
<rect x="-0.0650" y="-3.1900" width="0.1300" height="3.0039" ry="0.0400" fill="currentColor"/>
</g>
<g transform="translate(28.7665, 21.0500)">
<rect x="-0.0650" y="-3.1900" width="0.1300" height="3.0039" ry="0.0400" fill="currentColor"/>
</g>
<g transform="translate(27.5273, 21.0500)">
<path transform="scale(0.0040, -0.0040)" d="M218 136c55 0 108 -28 108 -89c0 -71 -55 -121 -102 -149c-35 -21 -75 -34 -116 -34c-55 0 -108 28 -108 89c0 71 55 121 102 149c35 21 75 34 116 34z" fill="currentColor"/>
</g>
<g transform="translate(25.5636, 21.0500)">
<path transform="scale(0.0040, -0.0040)" d="M218 136c55 0 108 -28 108 -89c0 -71 -55 -121 -102 -149c-35 -21 -75 -34 -116 -34c-55 0 -108 28 -108 89c0 71 55 121 102 149c35 21 75 34 116 34z" fill="currentColor"/>
</g>
<g transform="translate(56.0000, 21.0500)">
<path transform="scale(0.0040, -0.0040)" d="M218 136c55 0 108 -28 108 -89c0 -71 -55 -121 -102 -149c-35 -21 -75 -34 -116 -34c-55 0 -108 28 -108 89c0 71 55 121 102 149c35 21 75 34 116 34z" fill="currentColor"/>
</g>
<g transform="translate(60.8392, 21.0500)">
<rect x="-0.0650" y="-3.1900" width="0.1300" height="3.0039" ry="0.0400" fill="currentColor"/>
</g>
<g transform="translate(59.6000, 21.0500)">
<path transform="scale(0.0040, -0.0040)" d="M218 136c55 0 108 -28 108 -89c0 -71 -55 -121 -102 -149c-35 -21 -75 -34 -116 -34c-55 0 -108 28 -108 89c0 71 55 121 102 149c35 21 75 34 116 34z" fill="currentColor"/>
</g>
<g transform="translate(57.2392, 21.0500)">
<rect x="-0.0650" y="-3.1900" width="0.1300" height="3.0039" ry="0.0400" fill="currentColor"/>
</g>
<g transform="translate(53.6392, 21.0500)">
<rect x="-0.0650" y="-3.1900" width="0.1300" height="3.0039" ry="0.0400" fill="currentColor"/>
</g>
<g transform="translate(52.4000, 21.0500)">
<path transform="scale(0.0040, -0.0040)" d="M218 136c55 0 108 -28 108 -89c0 -71 -55 -121 -102 -149c-35 -21 -75 -34 -116 -34c-55 0 -108 28 -108 89c0 71 55 121 102 149c35 21 75 34 116 34z" fill="currentColor"/>
</g>
<g transform="translate(3.1742, 15.6200)">
<line stroke-linejoin="round" stroke-linecap="round" stroke-width="0.1600" stroke="currentColor" x1="18.9200" y1="-0.0000" x2="18.9200" y2="0.7000"/>
</g>
<g transform="translate(3.1742, 15.6200)">
<line stroke-linejoin="round" stroke-linecap="round" stroke-width="0.1600" stroke="currentColor" x1="-0.2000" y1="-0.0000" x2="-0.2000" y2="0.7000"/>
</g>
<g transform="translate(3.1742, 15.6200)">
<line stroke-linejoin="round" stroke-linecap="round" stroke-width="0.1600" stroke="currentColor" x1="18.9200" y1="-0.0000" x2="11.5818" y2="-0.0000"/>
</g>
<g transform="translate(3.1742, 15.6200)">
<line stroke-linejoin="round" stroke-linecap="round" stroke-width="0.1600" stroke="currentColor" x1="-0.2000" y1="-0.0000" x2="7.3382" y2="-0.0000"/>
</g>
<g transform="translate(10.9124, 16.2175)">
<text font-family="serif" font-style="italic" font-size="1.7461" text-anchor="start" fill="currentColor">
<tspan>10:6</tspan>
</text>
</g>
<g transform="translate(24.7742, 17.8600)">
<polygon stroke-linejoin="round" stroke-linecap="round" stroke-width="0.0800" fill="currentColor" stroke="currentColor" points="19.7264 -0.2000 19.7264 0.2000 0.0400 0.2000 0.0400 -0.2000"/>
</g>
<g transform="translate(24.7742, 18.6700)">
<polygon stroke-linejoin="round" stroke-linecap="round" stroke-width="0.0800" fill="currentColor" stroke="currentColor" points="19.7264 -0.2000 19.7264 0.2000 0.0400 0.2000 0.0400 -0.2000"/>
</g>
<g transform="translate(24.7742, 15.6200)">
<line stroke-linejoin="round" stroke-linecap="round" stroke-width="0.1600" stroke="currentColor" x1="19.1164" y1="-0.0000" x2="19.1164" y2="0.7000"/>
</g>
<g transform="translate(24.7742, 15.6200)">
<line stroke-linejoin="round" stroke-linecap="round" stroke-width="0.1600" stroke="currentColor" x1="-0.2000" y1="-0.0000" x2="-0.2000" y2="0.7000"/>
</g>
<g transform="translate(24.7742, 15.6200)">
<line stroke-linejoin="round" stroke-linecap="round" stroke-width="0.1600" stroke="currentColor" x1="19.1164" y1="-0.0000" x2="11.6117" y2="-0.0000"/>
</g>
<g transform="translate(24.7742, 15.6200)">
<line stroke-linejoin="round" stroke-linecap="round" stroke-width="0.1600" stroke="currentColor" x1="-0.2000" y1="-0.0000" x2="7.5047" y2="-0.0000"/>
</g>
<g transform="translate(32.6789, 16.2175)">
<text font-family="serif" font-style="italic" font-size="1.7461" text-anchor="start" fill="currentColor">
<tspan>11:6</tspan>
</text>
</g>
<g transform="translate(46.3742, 17.8600)">
<polygon stroke-linejoin="round" stroke-linecap="round" stroke-width="0.0800" fill="currentColor" stroke="currentColor" points="18.0900 -0.2000 18.0900 0.2000 0.0400 0.2000 0.0400 -0.2000"/>
</g>
<g transform="translate(46.3742, 18.6700)">
<polygon stroke-linejoin="round" stroke-linecap="round" stroke-width="0.0800" fill="currentColor" stroke="currentColor" points="18.0900 -0.2000 18.0900 0.2000 0.0400 0.2000 0.0400 -0.2000"/>
</g>
<g transform="translate(67.9742, 17.8600)">
<polygon stroke-linejoin="round" stroke-linecap="round" stroke-width="0.0800" fill="currentColor" stroke="currentColor" points="18.6043 -0.2000 18.6043 0.2000 0.0400 0.2000 0.0400 -0.2000"/>
</g>
<g transform="translate(67.9742, 18.6700)">
<polygon stroke-linejoin="round" stroke-linecap="round" stroke-width="0.0800" fill="currentColor" stroke="currentColor" points="18.6043 -0.2000 18.6043 0.2000 0.0400 0.2000 0.0400 -0.2000"/>
</g>
<g transform="translate(64.4392, 21.0500)">
<rect x="-0.0650" y="-3.1900" width="0.1300" height="3.0039" ry="0.0400" fill="currentColor"/>
</g>
<g transform="translate(63.2000, 21.0500)">
<path transform="scale(0.0040, -0.0040)" d="M218 136c55 0 108 -28 108 -89c0 -71 -55 -121 -102 -149c-35 -21 -75 -34 -116 -34c-55 0 -108 28 -108 89c0 71 55 121 102 149c35 21 75 34 116 34z" fill="currentColor"/>
</g>
<g transform="translate(44.4756, 21.0500)">
<rect x="-0.0650" y="-3.1900" width="0.1300" height="3.0039" ry="0.0400" fill="currentColor"/>
</g>
<g transform="translate(43.2364, 21.0500)">
<path transform="scale(0.0040, -0.0040)" d="M218 136c55 0 108 -28 108 -89c0 -71 -55 -121 -102 -149c-35 -21 -75 -34 -116 -34c-55 0 -108 28 -108 89c0 71 55 121 102 149c35 21 75 34 116 34z" fill="currentColor"/>
</g>
<g transform="translate(45.3905, 11.0500)">
<path transform="scale(0.0045, -0.0045)" d="M168 256c-54 0 -55 -49 -55 -112v-5v-5c0 -63 1 -112 55 -112c57 0 63 51 63 117s-6 117 -63 117zM113 264c18 7 36 14 55 14c100 0 169 -45 169 -139s-69 -139 -169 -139c-112 0 -168 125 -168 250c0 128 71 250 188 250c70 0 137 -38 137 -102c0 -36 -29 -66 -65 -66
s-66 30 -66 66c0 24 39 25 39 49c0 20 -22 31 -45 31c-68 0 -76 -68 -76 -145c0 -23 1 -46 1 -69z" fill="currentColor"/>
</g>
<g transform="translate(44.6906, 13.3717)">
<g>
<path transform="scale(0.0045, -0.0045)" d="M170 487c18 0 56 30 56 -3v-371c0 -47 28 -91 71 -91c7 0 11 -5 11 -11s-4 -11 -11 -11c-43 0 -84 13 -127 13s-85 -13 -128 -13c-7 0 -11 5 -11 11s4 11 11 11c43 0 71 44 71 91v251c0 12 -8 18 -15 18c-4 0 -8 -2 -10 -6l-63 -138c-3 -6 -7 -8 -12 -8
c-7 0 -14 6 -14 14c0 2 0 4 1 6l113 250c2 5 10 3 16 0c13 -6 27 -13 41 -13z" fill="currentColor"/>

<path transform="translate(1.3999, 0.0000) scale(0.0045, -0.0045)" d="M168 256c-54 0 -55 -49 -55 -112v-5v-5c0 -63 1 -112 55 -112c57 0 63 51 63 117s-6 117 -63 117zM113 264c18 7 36 14 55 14c100 0 169 -45 169 -139s-69 -139 -169 -139c-112 0 -168 125 -168 250c0 128 71 250 188 250c70 0 137 -38 137 -102c0 -36 -29 -66 -65 -66
s-66 30 -66 66c0 24 39 25 39 49c0 20 -22 31 -45 31c-68 0 -76 -68 -76 -145c0 -23 1 -46 1 -69z" fill="currentColor"/>
</g>
</g>
<g transform="translate(42.5119, 21.0500)">
<rect x="-0.0650" y="-3.1900" width="0.1300" height="3.0039" ry="0.0400" fill="currentColor"/>
</g>
<g transform="translate(41.2727, 21.0500)">
<path transform="scale(0.0040, -0.0040)" d="M218 136c55 0 108 -28 108 -89c0 -71 -55 -121 -102 -149c-35 -21 -75 -34 -116 -34c-55 0 -108 28 -108 89c0 71 55 121 102 149c35 21 75 34 116 34z" fill="currentColor"/>
</g>
<g transform="translate(50.0392, 21.0500)">
<rect x="-0.0650" y="-3.1900" width="0.1300" height="3.0039" ry="0.0400" fill="currentColor"/>
</g>
<g transform="translate(48.8000, 21.0500)">
<path transform="scale(0.0040, -0.0040)" d="M218 136c55 0 108 -28 108 -89c0 -71 -55 -121 -102 -149c-35 -21 -75 -34 -116 -34c-55 0 -108 28 -108 89c0 71 55 121 102 149c35 21 75 34 116 34z" fill="currentColor"/>
</g>
<g transform="translate(40.5483, 21.0500)">
<rect x="-0.0650" y="-3.1900" width="0.1300" height="3.0039" ry="0.0400" fill="currentColor"/>
</g>
<g transform="translate(46.4392, 21.0500)">
<rect x="-0.0650" y="-3.1900" width="0.1300" height="3.0039" ry="0.0400" fill="currentColor"/>
</g>
<g transform="translate(45.2000, 14.0000)">
<text font-family="serif" font-size="2.2001" text-anchor="start" fill="currentColor">
<tspan>6</tspan>
</text>
</g>
<g transform="translate(46.8926, 14.0000)">
<text font-family="serif" font-size="2.2001" text-anchor="start" fill="currentColor">
<tspan>becomes</tspan>
</text>
</g>
<g transform="translate(55.2090, 14.0000)">
<text font-family="serif" font-size="2.2001" text-anchor="start" fill="currentColor">
<tspan>0</tspan>
</text>
</g>
<g transform="translate(45.2000, 21.0500)">
<path transform="scale(0.0040, -0.0040)" d="M218 136c55 0 108 -28 108 -89c0 -71 -55 -121 -102 -149c-35 -21 -75 -34 -116 -34c-55 0 -108 28 -108 89c0 71 55 121 102 149c35 21 75 34 116 34z" fill="currentColor"/>
</g>
<g transform="translate(82.2286, 21.0500)">
<path transform="scale(0.0040, -0.0040)" d="M218 136c55 0 108 -28 108 -89c0 -71 -55 -121 -102 -149c-35 -21 -75 -34 -116 -34c-55 0 -108 28 -108 89c0 71 55 121 102 149c35 21 75 34 116 34z" fill="currentColor"/>
</g>
<g transform="translate(80.3821, 21.0500)">
<rect x="-0.0650" y="-3.1900" width="0.1300" height="3.0039" ry="0.0400" fill="currentColor"/>
</g>
<g transform="translate(79.1429, 21.0500)">
<path transform="scale(0.0040, -0.0040)" d="M218 136c55 0 108 -28 108 -89c0 -71 -55 -121 -102 -149c-35 -21 -75 -34 -116 -34c-55 0 -108 28 -108 89c0 71 55 121 102 149c35 21 75 34 116 34z" fill="currentColor"/>
</g>
<g transform="translate(83.4678, 21.0500)">
<rect x="-0.0650" y="-3.1900" width="0.1300" height="3.0039" ry="0.0400" fill="currentColor"/>
</g>
<g transform="translate(77.2964, 21.0500)">
<rect x="-0.0650" y="-3.1900" width="0.1300" height="3.0039" ry="0.0400" fill="currentColor"/>
</g>
<g transform="translate(76.0571, 21.0500)">
<path transform="scale(0.0040, -0.0040)" d="M218 136c55 0 108 -28 108 -89c0 -71 -55 -121 -102 -149c-35 -21 -75 -34 -116 -34c-55 0 -108 28 -108 89c0 71 55 121 102 149c35 21 75 34 116 34z" fill="currentColor"/>
</g>
<g transform="translate(20.5192, 21.0500)">
<rect x="-0.0650" y="-3.1900" width="0.1300" height="3.0039" ry="0.0400" fill="currentColor"/>
</g>
<g transform="translate(74.2106, 21.0500)">
<rect x="-0.0650" y="-3.1900" width="0.1300" height="3.0039" ry="0.0400" fill="currentColor"/>
</g>
<g transform="translate(86.5535, 21.0500)">
<rect x="-0.0650" y="-3.1900" width="0.1300" height="3.0039" ry="0.0400" fill="currentColor"/>
</g>
<g transform="translate(85.3143, 21.0500)">
<path transform="scale(0.0040, -0.0040)" d="M218 136c55 0 108 -28 108 -89c0 -71 -55 -121 -102 -149c-35 -21 -75 -34 -116 -34c-55 0 -108 28 -108 89c0 71 55 121 102 149c35 21 75 34 116 34z" fill="currentColor"/>
</g>
<g transform="translate(66.8000, 14.0000)">
<text font-family="serif" font-size="2.2001" text-anchor="start" fill="currentColor">
<tspan>7</tspan>
</text>
</g>
<g transform="translate(68.4926, 14.0000)">
<text font-family="serif" font-size="2.2001" text-anchor="start" fill="currentColor">
<tspan>becomes</tspan>
</text>
</g>
<g transform="translate(76.8090, 14.0000)">
<text font-family="serif" font-size="2.2001" text-anchor="start" fill="currentColor">
<tspan>1</tspan>
</text>
</g>
<g transform="translate(66.8000, 21.0500)">
<path transform="scale(0.0040, -0.0040)" d="M218 136c55 0 108 -28 108 -89c0 -71 -55 -121 -102 -149c-35 -21 -75 -34 -116 -34c-55 0 -108 28 -108 89c0 71 55 121 102 149c35 21 75 34 116 34z" fill="currentColor"/>
</g>
<g transform="translate(66.6099, 11.0500)">
<path transform="scale(0.0045, -0.0045)" d="M168 256c-54 0 -55 -49 -55 -112v-5v-5c0 -63 1 -112 55 -112c57 0 63 51 63 117s-6 117 -63 117zM113 264c18 7 36 14 55 14c100 0 169 -45 169 -139s-69 -139 -169 -139c-112 0 -168 125 -168 250c0 128 71 250 188 250c70 0 137 -38 137 -102c0 -36 -29 -66 -65 -66
s-66 30 -66 66c0 24 39 25 39 49c0 20 -22 31 -45 31c-68 0 -76 -68 -76 -145c0 -23 1 -46 1 -69z" fill="currentColor"/>
</g>
<g transform="translate(65.9100, 13.3717)">
<g>
<path transform="scale(0.0045, -0.0045)" d="M170 487c18 0 56 30 56 -3v-371c0 -47 28 -91 71 -91c7 0 11 -5 11 -11s-4 -11 -11 -11c-43 0 -84 13 -127 13s-85 -13 -128 -13c-7 0 -11 5 -11 11s4 11 11 11c43 0 71 44 71 91v251c0 12 -8 18 -15 18c-4 0 -8 -2 -10 -6l-63 -138c-3 -6 -7 -8 -12 -8
c-7 0 -14 6 -14 14c0 2 0 4 1 6l113 250c2 5 10 3 16 0c13 -6 27 -13 41 -13z" fill="currentColor"/>

<path transform="translate(1.3999, 0.0000) scale(0.0045, -0.0045)" d="M168 256c-54 0 -55 -49 -55 -112v-5v-5c0 -63 1 -112 55 -112c57 0 63 51 63 117s-6 117 -63 117zM113 264c18 7 36 14 55 14c100 0 169 -45 169 -139s-69 -139 -169 -139c-112 0 -168 125 -168 250c0 128 71 250 188 250c70 0 137 -38 137 -102c0 -36 -29 -66 -65 -66
s-66 30 -66 66c0 24 39 25 39 49c0 20 -22 31 -45 31c-68 0 -76 -68 -76 -145c0 -23 1 -46 1 -69z" fill="currentColor"/>
</g>
</g>
<g transform="translate(68.0392, 21.0500)">
<rect x="-0.0650" y="-3.1900" width="0.1300" height="3.0039" ry="0.0400" fill="currentColor"/>
</g>
<g transform="translate(0.6999, 11.0500)">
<path transform="scale(0.0045, -0.0045)" d="M168 256c-54 0 -55 -49 -55 -112v-5v-5c0 -63 1 -112 55 -112c57 0 63 51 63 117s-6 117 -63 117zM113 264c18 7 36 14 55 14c100 0 169 -45 169 -139s-69 -139 -169 -139c-112 0 -168 125 -168 250c0 128 71 250 188 250c70 0 137 -38 137 -102c0 -36 -29 -66 -65 -66
s-66 30 -66 66c0 24 39 25 39 49c0 20 -22 31 -45 31c-68 0 -76 -68 -76 -145c0 -23 1 -46 1 -69z" fill="currentColor"/>
</g>
<g transform="translate(0.0000, 13.3717)">
<g>
<path transform="scale(0.0045, -0.0045)" d="M170 487c18 0 56 30 56 -3v-371c0 -47 28 -91 71 -91c7 0 11 -5 11 -11s-4 -11 -11 -11c-43 0 -84 13 -127 13s-85 -13 -128 -13c-7 0 -11 5 -11 11s4 11 11 11c43 0 71 44 71 91v251c0 12 -8 18 -15 18c-4 0 -8 -2 -10 -6l-63 -138c-3 -6 -7 -8 -12 -8
c-7 0 -14 6 -14 14c0 2 0 4 1 6l113 250c2 5 10 3 16 0c13 -6 27 -13 41 -13z" fill="currentColor"/>

<path transform="translate(1.3999, 0.0000) scale(0.0045, -0.0045)" d="M168 256c-54 0 -55 -49 -55 -112v-5v-5c0 -63 1 -112 55 -112c57 0 63 51 63 117s-6 117 -63 117zM113 264c18 7 36 14 55 14c100 0 169 -45 169 -139s-69 -139 -169 -139c-112 0 -168 125 -168 250c0 128 71 250 188 250c70 0 137 -38 137 -102c0 -36 -29 -66 -65 -66
s-66 30 -66 66c0 24 39 25 39 49c0 20 -22 31 -45 31c-68 0 -76 -68 -76 -145c0 -23 1 -46 1 -69z" fill="currentColor"/>
</g>
</g>
<g transform="translate(76.9142, 16.2004)">
<text font-family="serif" font-style="italic" font-size="1.7461" text-anchor="start" fill="currentColor">
<tspan>7:6</tspan>
</text>
</g>
<g transform="translate(67.9742, 15.6200)">
<line stroke-linejoin="round" stroke-linecap="round" stroke-width="0.1600" stroke="currentColor" x1="20.4358" y1="-0.0000" x2="20.4358" y2="0.7000"/>
</g>
<g transform="translate(67.9742, 15.6200)">
<line stroke-linejoin="round" stroke-linecap="round" stroke-width="0.1600" stroke="currentColor" x1="-0.2000" y1="-0.0000" x2="-0.2000" y2="0.7000"/>
</g>
<g transform="translate(67.9742, 15.6200)">
<line stroke-linejoin="round" stroke-linecap="round" stroke-width="0.1600" stroke="currentColor" x1="20.4358" y1="-0.0000" x2="11.8958" y2="-0.0000"/>
</g>
<g transform="translate(67.9742, 15.6200)">
<line stroke-linejoin="round" stroke-linecap="round" stroke-width="0.1600" stroke="currentColor" x1="-0.2000" y1="-0.0000" x2="8.5399" y2="-0.0000"/>
</g>
<g transform="translate(72.9714, 21.0500)">
<path transform="scale(0.0040, -0.0040)" d="M218 136c55 0 108 -28 108 -89c0 -71 -55 -121 -102 -149c-35 -21 -75 -34 -116 -34c-55 0 -108 28 -108 89c0 71 55 121 102 149c35 21 75 34 116 34z" fill="currentColor"/>
</g>
<g transform="translate(71.1249, 21.0500)">
<rect x="-0.0650" y="-3.1900" width="0.1300" height="3.0039" ry="0.0400" fill="currentColor"/>
</g>
<g transform="translate(69.8857, 21.0500)">
<path transform="scale(0.0040, -0.0040)" d="M218 136c55 0 108 -28 108 -89c0 -71 -55 -121 -102 -149c-35 -21 -75 -34 -116 -34c-55 0 -108 28 -108 89c0 71 55 121 102 149c35 21 75 34 116 34z" fill="currentColor"/>
</g>
<g transform="translate(16.1992, 21.0500)">
<rect x="-0.0650" y="-3.1900" width="0.1300" height="3.0039" ry="0.0400" fill="currentColor"/>
</g>
<g transform="translate(8.4800, 21.0500)">
<path transform="scale(0.0040, -0.0040)" d="M218 136c55 0 108 -28 108 -89c0 -71 -55 -121 -102 -149c-35 -21 -75 -34 -116 -34c-55 0 -108 28 -108 89c0 71 55 121 102 149c35 21 75 34 116 34z" fill="currentColor"/>
</g>
<g transform="translate(9.7192, 21.0500)">
<rect x="-0.0650" y="-3.1900" width="0.1300" height="3.0039" ry="0.0400" fill="currentColor"/>
</g>
<g transform="translate(10.6400, 21.0500)">
<path transform="scale(0.0040, -0.0040)" d="M218 136c55 0 108 -28 108 -89c0 -71 -55 -121 -102 -149c-35 -21 -75 -34 -116 -34c-55 0 -108 28 -108 89c0 71 55 121 102 149c35 21 75 34 116 34z" fill="currentColor"/>
</g>
<g transform="translate(14.9600, 21.0500)">
<path transform="scale(0.0040, -0.0040)" d="M218 136c55 0 108 -28 108 -89c0 -71 -55 -121 -102 -149c-35 -21 -75 -34 -116 -34c-55 0 -108 28 -108 89c0 71 55 121 102 149c35 21 75 34 116 34z" fill="currentColor"/>
</g>
<g transform="translate(11.8792, 21.0500)">
<rect x="-0.0650" y="-3.1900" width="0.1300" height="3.0039" ry="0.0400" fill="currentColor"/>
</g>
<g transform="translate(12.8000, 21.0500)">
<path transform="scale(0.0040, -0.0040)" d="M218 136c55 0 108 -28 108 -89c0 -71 -55 -121 -102 -149c-35 -21 -75 -34 -116 -34c-55 0 -108 28 -108 89c0 71 55 121 102 149c35 21 75 34 116 34z" fill="currentColor"/>
</g>
<g transform="translate(14.0392, 21.0500)">
<rect x="-0.0650" y="-3.1900" width="0.1300" height="3.0039" ry="0.0400" fill="currentColor"/>
</g>
<g transform="translate(19.2800, 21.0500)">
<path transform="scale(0.0040, -0.0040)" d="M218 136c55 0 108 -28 108 -89c0 -71 -55 -121 -102 -149c-35 -21 -75 -34 -116 -34c-55 0 -108 28 -108 89c0 71 55 121 102 149c35 21 75 34 116 34z" fill="currentColor"/>
</g>
<g transform="translate(2.0000, 21.0500)">
<path transform="scale(0.0040, -0.0040)" d="M218 136c55 0 108 -28 108 -89c0 -71 -55 -121 -102 -149c-35 -21 -75 -34 -116 -34c-55 0 -108 28 -108 89c0 71 55 121 102 149c35 21 75 34 116 34z" fill="currentColor"/>
</g>
<g transform="translate(2.0000, 14.0000)">
<text font-family="serif" font-size="2.2001" text-anchor="start" fill="currentColor">
<tspan>4</tspan>
</text>
</g>
<g transform="translate(3.6926, 14.0000)">
<text font-family="serif" font-size="2.2001" text-anchor="start" fill="currentColor">
<tspan>becomes</tspan>
</text>
</g>
<g transform="translate(12.0090, 14.0000)">
<text font-family="serif" font-size="2.2001" text-anchor="start" fill="currentColor">
<tspan>4</tspan>
</text>
</g>
<g transform="translate(3.2392, 21.0500)">
<rect x="-0.0650" y="-3.1900" width="0.1300" height="3.0039" ry="0.0400" fill="currentColor"/>
</g>
<g transform="translate(4.1600, 21.0500)">
<path transform="scale(0.0040, -0.0040)" d="M218 136c55 0 108 -28 108 -89c0 -71 -55 -121 -102 -149c-35 -21 -75 -34 -116 -34c-55 0 -108 28 -108 89c0 71 55 121 102 149c35 21 75 34 116 34z" fill="currentColor"/>
</g>
<g transform="translate(5.3992, 21.0500)">
<rect x="-0.0650" y="-3.1900" width="0.1300" height="3.0039" ry="0.0400" fill="currentColor"/>
</g>
<g transform="translate(7.5592, 21.0500)">
<rect x="-0.0650" y="-3.1900" width="0.1300" height="3.0039" ry="0.0400" fill="currentColor"/>
</g>
<g transform="translate(18.3592, 21.0500)">
<rect x="-0.0650" y="-3.1900" width="0.1300" height="3.0039" ry="0.0400" fill="currentColor"/>
</g>
<g transform="translate(6.3200, 21.0500)">
<path transform="scale(0.0040, -0.0040)" d="M218 136c55 0 108 -28 108 -89c0 -71 -55 -121 -102 -149c-35 -21 -75 -34 -116 -34c-55 0 -108 28 -108 89c0 71 55 121 102 149c35 21 75 34 116 34z" fill="currentColor"/>
</g>
<g transform="translate(17.1200, 21.0500)">
<path transform="scale(0.0040, -0.0040)" d="M218 136c55 0 108 -28 108 -89c0 -71 -55 -121 -102 -149c-35 -21 -75 -34 -116 -34c-55 0 -108 28 -108 89c0 71 55 121 102 149c35 21 75 34 116 34z" fill="currentColor"/>
</g>
<g transform="translate(22.7100, 41.6182)">
<rect x="0.0000" y="-1.0500" width="0.1900" height="2.1000" ry="0.0000" fill="currentColor"/>
</g>
<g transform="translate(44.3100, 41.6182)">
<rect x="0.0000" y="-1.0500" width="0.1900" height="2.1000" ry="0.0000" fill="currentColor"/>
</g>
<g transform="translate(66.0942, 41.6182)">
<rect x="0.0000" y="-1.0500" width="0.1900" height="2.1000" ry="0.0000" fill="currentColor"/>
</g>
<g transform="translate(88.2100, 41.6182)">
<rect x="0.0000" y="-1.0500" width="0.1900" height="2.1000" ry="0.0000" fill="currentColor"/>
</g>
<g transform="translate(0.0000, 41.6182)">
<line stroke-linejoin="round" stroke-linecap="round" stroke-width="0.1000" stroke="currentColor" x1="0.0500" y1="0" x2="88.3500" y2="0"/>
</g>
<g transform="translate(63.7192, 41.6182)">
<rect x="-0.0650" y="-3.1900" width="0.1300" height="3.0039" ry="0.0400" fill="currentColor"/>
</g>
<g transform="translate(62.4800, 41.6182)">
<path transform="scale(0.0040, -0.0040)" d="M218 136c55 0 108 -28 108 -89c0 -71 -55 -121 -102 -149c-35 -21 -75 -34 -116 -34c-55 0 -108 28 -108 89c0 71 55 121 102 149c35 21 75 34 116 34z" fill="currentColor"/>
</g>
<g transform="translate(61.5592, 41.6182)">
<rect x="-0.0650" y="-3.1900" width="0.1300" height="3.0039" ry="0.0400" fill="currentColor"/>
</g>
<g transform="translate(60.3200, 41.6182)">
<path transform="scale(0.0040, -0.0040)" d="M218 136c55 0 108 -28 108 -89c0 -71 -55 -121 -102 -149c-35 -21 -75 -34 -116 -34c-55 0 -108 28 -108 89c0 71 55 121 102 149c35 21 75 34 116 34z" fill="currentColor"/>
</g>
<g transform="translate(68.0392, 41.6182)">
<rect x="-0.0650" y="-3.1900" width="0.1300" height="3.0039" ry="0.0400" fill="currentColor"/>
</g>
<g transform="translate(64.6400, 41.6182)">
<path transform="scale(0.0040, -0.0040)" d="M218 136c55 0 108 -28 108 -89c0 -71 -55 -121 -102 -149c-35 -21 -75 -34 -116 -34c-55 0 -108 28 -108 89c0 71 55 121 102 149c35 21 75 34 116 34z" fill="currentColor"/>
</g>
<g transform="translate(66.8000, 34.5682)">
<text font-family="serif" font-size="2.2001" text-anchor="start" fill="currentColor">
<tspan>11</tspan>
</text>
</g>
<g transform="translate(69.5169, 34.5682)">
<text font-family="serif" font-size="2.2001" text-anchor="start" fill="currentColor">
<tspan>becomes</tspan>
</text>
</g>
<g transform="translate(77.8333, 34.5682)">
<text font-family="serif" font-size="2.2001" text-anchor="start" fill="currentColor">
<tspan>5</tspan>
</text>
</g>
<g transform="translate(66.8000, 41.6182)">
<path transform="scale(0.0040, -0.0040)" d="M218 136c55 0 108 -28 108 -89c0 -71 -55 -121 -102 -149c-35 -21 -75 -34 -116 -34c-55 0 -108 28 -108 89c0 71 55 121 102 149c35 21 75 34 116 34z" fill="currentColor"/>
</g>
<g transform="translate(66.7941, 31.6182)">
<path transform="scale(0.0045, -0.0045)" d="M168 256c-54 0 -55 -49 -55 -112v-5v-5c0 -63 1 -112 55 -112c57 0 63 51 63 117s-6 117 -63 117zM113 264c18 7 36 14 55 14c100 0 169 -45 169 -139s-69 -139 -169 -139c-112 0 -168 125 -168 250c0 128 71 250 188 250c70 0 137 -38 137 -102c0 -36 -29 -66 -65 -66
s-66 30 -66 66c0 24 39 25 39 49c0 20 -22 31 -45 31c-68 0 -76 -68 -76 -145c0 -23 1 -46 1 -69z" fill="currentColor"/>
</g>
<g transform="translate(66.0942, 33.9399)">
<g>
<path transform="scale(0.0045, -0.0045)" d="M170 487c18 0 56 30 56 -3v-371c0 -47 28 -91 71 -91c7 0 11 -5 11 -11s-4 -11 -11 -11c-43 0 -84 13 -127 13s-85 -13 -128 -13c-7 0 -11 5 -11 11s4 11 11 11c43 0 71 44 71 91v251c0 12 -8 18 -15 18c-4 0 -8 -2 -10 -6l-63 -138c-3 -6 -7 -8 -12 -8
c-7 0 -14 6 -14 14c0 2 0 4 1 6l113 250c2 5 10 3 16 0c13 -6 27 -13 41 -13z" fill="currentColor"/>

<path transform="translate(1.3999, 0.0000) scale(0.0045, -0.0045)" d="M168 256c-54 0 -55 -49 -55 -112v-5v-5c0 -63 1 -112 55 -112c57 0 63 51 63 117s-6 117 -63 117zM113 264c18 7 36 14 55 14c100 0 169 -45 169 -139s-69 -139 -169 -139c-112 0 -168 125 -168 250c0 128 71 250 188 250c70 0 137 -38 137 -102c0 -36 -29 -66 -65 -66
s-66 30 -66 66c0 24 39 25 39 49c0 20 -22 31 -45 31c-68 0 -76 -68 -76 -145c0 -23 1 -46 1 -69z" fill="currentColor"/>
</g>
</g>
<g transform="translate(65.8792, 41.6182)">
<rect x="-0.0650" y="-3.1900" width="0.1300" height="3.0039" ry="0.0400" fill="currentColor"/>
</g>
<g transform="translate(52.9192, 41.6182)">
<rect x="-0.0650" y="-3.1900" width="0.1300" height="3.0039" ry="0.0400" fill="currentColor"/>
</g>
<g transform="translate(51.6800, 41.6182)">
<path transform="scale(0.0040, -0.0040)" d="M218 136c55 0 108 -28 108 -89c0 -71 -55 -121 -102 -149c-35 -21 -75 -34 -116 -34c-55 0 -108 28 -108 89c0 71 55 121 102 149c35 21 75 34 116 34z" fill="currentColor"/>
</g>
<g transform="translate(50.7592, 41.6182)">
<rect x="-0.0650" y="-3.1900" width="0.1300" height="3.0039" ry="0.0400" fill="currentColor"/>
</g>
<g transform="translate(49.5200, 41.6182)">
<path transform="scale(0.0040, -0.0040)" d="M218 136c55 0 108 -28 108 -89c0 -71 -55 -121 -102 -149c-35 -21 -75 -34 -116 -34c-55 0 -108 28 -108 89c0 71 55 121 102 149c35 21 75 34 116 34z" fill="currentColor"/>
</g>
<g transform="translate(48.5992, 41.6182)">
<rect x="-0.0650" y="-3.1900" width="0.1300" height="3.0039" ry="0.0400" fill="currentColor"/>
</g>
<g transform="translate(47.3600, 41.6182)">
<path transform="scale(0.0040, -0.0040)" d="M218 136c55 0 108 -28 108 -89c0 -71 -55 -121 -102 -149c-35 -21 -75 -34 -116 -34c-55 0 -108 28 -108 89c0 71 55 121 102 149c35 21 75 34 116 34z" fill="currentColor"/>
</g>
<g transform="translate(58.1600, 41.6182)">
<path transform="scale(0.0040, -0.0040)" d="M218 136c55 0 108 -28 108 -89c0 -71 -55 -121 -102 -149c-35 -21 -75 -34 -116 -34c-55 0 -108 28 -108 89c0 71 55 121 102 149c35 21 75 34 116 34z" fill="currentColor"/>
</g>
<g transform="translate(57.2392, 41.6182)">
<rect x="-0.0650" y="-3.1900" width="0.1300" height="3.0039" ry="0.0400" fill="currentColor"/>
</g>
<g transform="translate(56.0000, 41.6182)">
<path transform="scale(0.0040, -0.0040)" d="M218 136c55 0 108 -28 108 -89c0 -71 -55 -121 -102 -149c-35 -21 -75 -34 -116 -34c-55 0 -108 28 -108 89c0 71 55 121 102 149c35 21 75 34 116 34z" fill="currentColor"/>
</g>
<g transform="translate(59.3992, 41.6182)">
<rect x="-0.0650" y="-3.1900" width="0.1300" height="3.0039" ry="0.0400" fill="currentColor"/>
</g>
<g transform="translate(55.0792, 41.6182)">
<rect x="-0.0650" y="-3.1900" width="0.1300" height="3.0039" ry="0.0400" fill="currentColor"/>
</g>
<g transform="translate(53.8400, 41.6182)">
<path transform="scale(0.0040, -0.0040)" d="M218 136c55 0 108 -28 108 -89c0 -71 -55 -121 -102 -149c-35 -21 -75 -34 -116 -34c-55 0 -108 28 -108 89c0 71 55 121 102 149c35 21 75 34 116 34z" fill="currentColor"/>
</g>
<g transform="translate(85.7119, 41.6182)">
<rect x="-0.0650" y="-3.1900" width="0.1300" height="3.0039" ry="0.0400" fill="currentColor"/>
</g>
<g transform="translate(84.4727, 41.6182)">
<path transform="scale(0.0040, -0.0040)" d="M218 136c55 0 108 -28 108 -89c0 -71 -55 -121 -102 -149c-35 -21 -75 -34 -116 -34c-55 0 -108 28 -108 89c0 71 55 121 102 149c35 21 75 34 116 34z" fill="currentColor"/>
</g>
<g transform="translate(83.7483, 41.6182)">
<rect x="-0.0650" y="-3.1900" width="0.1300" height="3.0039" ry="0.0400" fill="currentColor"/>
</g>
<g transform="translate(82.5091, 41.6182)">
<path transform="scale(0.0040, -0.0040)" d="M218 136c55 0 108 -28 108 -89c0 -71 -55 -121 -102 -149c-35 -21 -75 -34 -116 -34c-55 0 -108 28 -108 89c0 71 55 121 102 149c35 21 75 34 116 34z" fill="currentColor"/>
</g>
<g transform="translate(2.0000, 41.6182)">
<path transform="scale(0.0040, -0.0040)" d="M218 136c55 0 108 -28 108 -89c0 -71 -55 -121 -102 -149c-35 -21 -75 -34 -116 -34c-55 0 -108 28 -108 89c0 71 55 121 102 149c35 21 75 34 116 34z" fill="currentColor"/>
</g>
<g transform="translate(81.7847, 41.6182)">
<rect x="-0.0650" y="-3.1900" width="0.1300" height="3.0039" ry="0.0400" fill="currentColor"/>
</g>
<g transform="translate(80.5455, 41.6182)">
<path transform="scale(0.0040, -0.0040)" d="M218 136c55 0 108 -28 108 -89c0 -71 -55 -121 -102 -149c-35 -21 -75 -34 -116 -34c-55 0 -108 28 -108 89c0 71 55 121 102 149c35 21 75 34 116 34z" fill="currentColor"/>
</g>
<g transform="translate(11.2642, 36.7857)">
<text font-family="serif" font-style="italic" font-size="1.7461" text-anchor="start" fill="currentColor">
<tspan>8:6</tspan>
</text>
</g>
<g transform="translate(24.7742, 38.4282)">
<polygon stroke-linejoin="round" stroke-linecap="round" stroke-width="0.0800" fill="currentColor" stroke="currentColor" points="19.2900 -0.2000 19.2900 0.2000 0.0400 0.2000 0.0400 -0.2000"/>
</g>
<g transform="translate(24.7742, 39.2382)">
<polygon stroke-linejoin="round" stroke-linecap="round" stroke-width="0.0800" fill="currentColor" stroke="currentColor" points="19.2900 -0.2000 19.2900 0.2000 0.0400 0.2000 0.0400 -0.2000"/>
</g>
<g transform="translate(24.7742, 36.1882)">
<line stroke-linejoin="round" stroke-linecap="round" stroke-width="0.1600" stroke="currentColor" x1="18.7358" y1="-0.0000" x2="18.7358" y2="0.7000"/>
</g>
<g transform="translate(24.7742, 36.1882)">
<line stroke-linejoin="round" stroke-linecap="round" stroke-width="0.1600" stroke="currentColor" x1="-0.2000" y1="-0.0000" x2="-0.2000" y2="0.7000"/>
</g>
<g transform="translate(24.7742, 36.1882)">
<line stroke-linejoin="round" stroke-linecap="round" stroke-width="0.1600" stroke="currentColor" x1="18.7358" y1="-0.0000" x2="11.0458" y2="-0.0000"/>
</g>
<g transform="translate(24.7742, 36.1882)">
<line stroke-linejoin="round" stroke-linecap="round" stroke-width="0.1600" stroke="currentColor" x1="-0.2000" y1="-0.0000" x2="7.6899" y2="-0.0000"/>
</g>
<g transform="translate(32.8642, 36.7857)">
<text font-family="serif" font-style="italic" font-size="1.7461" text-anchor="start" fill="currentColor">
<tspan>9:6</tspan>
</text>
</g>
<g transform="translate(46.3742, 38.4282)">
<polygon stroke-linejoin="round" stroke-linecap="round" stroke-width="0.0800" fill="currentColor" stroke="currentColor" points="19.5300 -0.2000 19.5300 0.2000 0.0400 0.2000 0.0400 -0.2000"/>
</g>
<g transform="translate(46.3742, 39.2382)">
<polygon stroke-linejoin="round" stroke-linecap="round" stroke-width="0.0800" fill="currentColor" stroke="currentColor" points="19.5300 -0.2000 19.5300 0.2000 0.0400 0.2000 0.0400 -0.2000"/>
</g>
<g transform="translate(46.3742, 36.1882)">
<line stroke-linejoin="round" stroke-linecap="round" stroke-width="0.1600" stroke="currentColor" x1="18.9200" y1="-0.0000" x2="18.9200" y2="0.7000"/>
</g>
<g transform="translate(46.3742, 36.1882)">
<line stroke-linejoin="round" stroke-linecap="round" stroke-width="0.1600" stroke="currentColor" x1="-0.2000" y1="-0.0000" x2="-0.2000" y2="0.7000"/>
</g>
<g transform="translate(46.3742, 36.1882)">
<line stroke-linejoin="round" stroke-linecap="round" stroke-width="0.1600" stroke="currentColor" x1="18.9200" y1="-0.0000" x2="11.5818" y2="-0.0000"/>
</g>
<g transform="translate(46.3742, 36.1882)">
<line stroke-linejoin="round" stroke-linecap="round" stroke-width="0.1600" stroke="currentColor" x1="-0.2000" y1="-0.0000" x2="7.3382" y2="-0.0000"/>
</g>
<g transform="translate(54.1124, 36.7857)">
<text font-family="serif" font-style="italic" font-size="1.7461" text-anchor="start" fill="currentColor">
<tspan>10:6</tspan>
</text>
</g>
<g transform="translate(67.9742, 38.4282)">
<polygon stroke-linejoin="round" stroke-linecap="round" stroke-width="0.0800" fill="currentColor" stroke="currentColor" points="19.7264 -0.2000 19.7264 0.2000 0.0400 0.2000 0.0400 -0.2000"/>
</g>
<g transform="translate(67.9742, 39.2382)">
<polygon stroke-linejoin="round" stroke-linecap="round" stroke-width="0.0800" fill="currentColor" stroke="currentColor" points="19.7264 -0.2000 19.7264 0.2000 0.0400 0.2000 0.0400 -0.2000"/>
</g>
<g transform="translate(87.6756, 41.6182)">
<rect x="-0.0650" y="-3.1900" width="0.1300" height="3.0039" ry="0.0400" fill="currentColor"/>
</g>
<g transform="translate(86.4364, 41.6182)">
<path transform="scale(0.0040, -0.0040)" d="M218 136c55 0 108 -28 108 -89c0 -71 -55 -121 -102 -149c-35 -21 -75 -34 -116 -34c-55 0 -108 28 -108 89c0 71 55 121 102 149c35 21 75 34 116 34z" fill="currentColor"/>
</g>
<g transform="translate(70.7273, 41.6182)">
<path transform="scale(0.0040, -0.0040)" d="M218 136c55 0 108 -28 108 -89c0 -71 -55 -121 -102 -149c-35 -21 -75 -34 -116 -34c-55 0 -108 28 -108 89c0 71 55 121 102 149c35 21 75 34 116 34z" fill="currentColor"/>
</g>
<g transform="translate(73.9301, 41.6182)">
<rect x="-0.0650" y="-3.1900" width="0.1300" height="3.0039" ry="0.0400" fill="currentColor"/>
</g>
<g transform="translate(72.6909, 41.6182)">
<path transform="scale(0.0040, -0.0040)" d="M218 136c55 0 108 -28 108 -89c0 -71 -55 -121 -102 -149c-35 -21 -75 -34 -116 -34c-55 0 -108 28 -108 89c0 71 55 121 102 149c35 21 75 34 116 34z" fill="currentColor"/>
</g>
<g transform="translate(71.9665, 41.6182)">
<rect x="-0.0650" y="-3.1900" width="0.1300" height="3.0039" ry="0.0400" fill="currentColor"/>
</g>
<g transform="translate(70.0028, 41.6182)">
<rect x="-0.0650" y="-3.1900" width="0.1300" height="3.0039" ry="0.0400" fill="currentColor"/>
</g>
<g transform="translate(3.1742, 38.4282)">
<polygon stroke-linejoin="round" stroke-linecap="round" stroke-width="0.0800" fill="currentColor" stroke="currentColor" points="18.9900 -0.2000 18.9900 0.2000 0.0400 0.2000 0.0400 -0.2000"/>
</g>
<g transform="translate(3.1742, 39.2382)">
<polygon stroke-linejoin="round" stroke-linecap="round" stroke-width="0.0800" fill="currentColor" stroke="currentColor" points="18.9900 -0.2000 18.9900 0.2000 0.0400 0.2000 0.0400 -0.2000"/>
</g>
<g transform="translate(68.7636, 41.6182)">
<path transform="scale(0.0040, -0.0040)" d="M218 136c55 0 108 -28 108 -89c0 -71 -55 -121 -102 -149c-35 -21 -75 -34 -116 -34c-55 0 -108 28 -108 89c0 71 55 121 102 149c35 21 75 34 116 34z" fill="currentColor"/>
</g>
<g transform="translate(76.6182, 41.6182)">
<path transform="scale(0.0040, -0.0040)" d="M218 136c55 0 108 -28 108 -89c0 -71 -55 -121 -102 -149c-35 -21 -75 -34 -116 -34c-55 0 -108 28 -108 89c0 71 55 121 102 149c35 21 75 34 116 34z" fill="currentColor"/>
</g>
<g transform="translate(79.8210, 41.6182)">
<rect x="-0.0650" y="-3.1900" width="0.1300" height="3.0039" ry="0.0400" fill="currentColor"/>
</g>
<g transform="translate(78.5818, 41.6182)">
<path transform="scale(0.0040, -0.0040)" d="M218 136c55 0 108 -28 108 -89c0 -71 -55 -121 -102 -149c-35 -21 -75 -34 -116 -34c-55 0 -108 28 -108 89c0 71 55 121 102 149c35 21 75 34 116 34z" fill="currentColor"/>
</g>
<g transform="translate(2.0000, 34.5682)">
<text font-family="serif" font-size="2.2001" text-anchor="start" fill="currentColor">
<tspan>8</tspan>
</text>
</g>
<g transform="translate(3.6926, 34.5682)">
<text font-family="serif" font-size="2.2001" text-anchor="start" fill="currentColor">
<tspan>becomes</tspan>
</text>
</g>
<g transform="translate(12.0090, 34.5682)">
<text font-family="serif" font-size="2.2001" text-anchor="start" fill="currentColor">
<tspan>2</tspan>
</text>
</g>
<g transform="translate(77.8574, 41.6182)">
<rect x="-0.0650" y="-3.1900" width="0.1300" height="3.0039" ry="0.0400" fill="currentColor"/>
</g>
<g transform="translate(3.1742, 36.1882)">
<line stroke-linejoin="round" stroke-linecap="round" stroke-width="0.1600" stroke="currentColor" x1="18.7358" y1="-0.0000" x2="18.7358" y2="0.7000"/>
</g>
<g transform="translate(3.1742, 36.1882)">
<line stroke-linejoin="round" stroke-linecap="round" stroke-width="0.1600" stroke="currentColor" x1="-0.2000" y1="-0.0000" x2="-0.2000" y2="0.7000"/>
</g>
<g transform="translate(3.1742, 36.1882)">
<line stroke-linejoin="round" stroke-linecap="round" stroke-width="0.1600" stroke="currentColor" x1="18.7358" y1="-0.0000" x2="11.0458" y2="-0.0000"/>
</g>
<g transform="translate(3.1742, 36.1882)">
<line stroke-linejoin="round" stroke-linecap="round" stroke-width="0.1600" stroke="currentColor" x1="-0.2000" y1="-0.0000" x2="7.6899" y2="-0.0000"/>
</g>
<g transform="translate(75.8938, 41.6182)">
<rect x="-0.0650" y="-3.1900" width="0.1300" height="3.0039" ry="0.0400" fill="currentColor"/>
</g>
<g transform="translate(74.6545, 41.6182)">
<path transform="scale(0.0040, -0.0040)" d="M218 136c55 0 108 -28 108 -89c0 -71 -55 -121 -102 -149c-35 -21 -75 -34 -116 -34c-55 0 -108 28 -108 89c0 71 55 121 102 149c35 21 75 34 116 34z" fill="currentColor"/>
</g>
<g transform="translate(3.2392, 41.6182)">
<rect x="-0.0650" y="-3.1900" width="0.1300" height="3.0039" ry="0.0400" fill="currentColor"/>
</g>
<g transform="translate(22.1392, 41.6182)">
<rect x="-0.0650" y="-3.1900" width="0.1300" height="3.0039" ry="0.0400" fill="currentColor"/>
</g>
<g transform="translate(20.9000, 41.6182)">
<path transform="scale(0.0040, -0.0040)" d="M218 136c55 0 108 -28 108 -89c0 -71 -55 -121 -102 -149c-35 -21 -75 -34 -116 -34c-55 0 -108 28 -108 89c0 71 55 121 102 149c35 21 75 34 116 34z" fill="currentColor"/>
</g>
<g transform="translate(23.4099, 31.6182)">
<path transform="scale(0.0045, -0.0045)" d="M168 256c-54 0 -55 -49 -55 -112v-5v-5c0 -63 1 -112 55 -112c57 0 63 51 63 117s-6 117 -63 117zM113 264c18 7 36 14 55 14c100 0 169 -45 169 -139s-69 -139 -169 -139c-112 0 -168 125 -168 250c0 128 71 250 188 250c70 0 137 -38 137 -102c0 -36 -29 -66 -65 -66
s-66 30 -66 66c0 24 39 25 39 49c0 20 -22 31 -45 31c-68 0 -76 -68 -76 -145c0 -23 1 -46 1 -69z" fill="currentColor"/>
</g>
<g transform="translate(22.7100, 33.9399)">
<g>
<path transform="scale(0.0045, -0.0045)" d="M170 487c18 0 56 30 56 -3v-371c0 -47 28 -91 71 -91c7 0 11 -5 11 -11s-4 -11 -11 -11c-43 0 -84 13 -127 13s-85 -13 -128 -13c-7 0 -11 5 -11 11s4 11 11 11c43 0 71 44 71 91v251c0 12 -8 18 -15 18c-4 0 -8 -2 -10 -6l-63 -138c-3 -6 -7 -8 -12 -8
c-7 0 -14 6 -14 14c0 2 0 4 1 6l113 250c2 5 10 3 16 0c13 -6 27 -13 41 -13z" fill="currentColor"/>

<path transform="translate(1.3999, 0.0000) scale(0.0045, -0.0045)" d="M168 256c-54 0 -55 -49 -55 -112v-5v-5c0 -63 1 -112 55 -112c57 0 63 51 63 117s-6 117 -63 117zM113 264c18 7 36 14 55 14c100 0 169 -45 169 -139s-69 -139 -169 -139c-112 0 -168 125 -168 250c0 128 71 250 188 250c70 0 137 -38 137 -102c0 -36 -29 -66 -65 -66
s-66 30 -66 66c0 24 39 25 39 49c0 20 -22 31 -45 31c-68 0 -76 -68 -76 -145c0 -23 1 -46 1 -69z" fill="currentColor"/>
</g>
</g>
<g transform="translate(19.4392, 41.6182)">
<rect x="-0.0650" y="-3.1900" width="0.1300" height="3.0039" ry="0.0400" fill="currentColor"/>
</g>
<g transform="translate(18.2000, 41.6182)">
<path transform="scale(0.0040, -0.0040)" d="M218 136c55 0 108 -28 108 -89c0 -71 -55 -121 -102 -149c-35 -21 -75 -34 -116 -34c-55 0 -108 28 -108 89c0 71 55 121 102 149c35 21 75 34 116 34z" fill="currentColor"/>
</g>
<g transform="translate(27.2392, 41.6182)">
<rect x="-0.0650" y="-3.1900" width="0.1300" height="3.0039" ry="0.0400" fill="currentColor"/>
</g>
<g transform="translate(26.0000, 41.6182)">
<path transform="scale(0.0040, -0.0040)" d="M218 136c55 0 108 -28 108 -89c0 -71 -55 -121 -102 -149c-35 -21 -75 -34 -116 -34c-55 0 -108 28 -108 89c0 71 55 121 102 149c35 21 75 34 116 34z" fill="currentColor"/>
</g>
<g transform="translate(16.7392, 41.6182)">
<rect x="-0.0650" y="-3.1900" width="0.1300" height="3.0039" ry="0.0400" fill="currentColor"/>
</g>
<g transform="translate(24.8392, 41.6182)">
<rect x="-0.0650" y="-3.1900" width="0.1300" height="3.0039" ry="0.0400" fill="currentColor"/>
</g>
<g transform="translate(23.6000, 34.5682)">
<text font-family="serif" font-size="2.2001" text-anchor="start" fill="currentColor">
<tspan>9</tspan>
</text>
</g>
<g transform="translate(25.2926, 34.5682)">
<text font-family="serif" font-size="2.2001" text-anchor="start" fill="currentColor">
<tspan>becomes</tspan>
</text>
</g>
<g transform="translate(33.6090, 34.5682)">
<text font-family="serif" font-size="2.2001" text-anchor="start" fill="currentColor">
<tspan>3</tspan>
</text>
</g>
<g transform="translate(23.6000, 41.6182)">
<path transform="scale(0.0040, -0.0040)" d="M218 136c55 0 108 -28 108 -89c0 -71 -55 -121 -102 -149c-35 -21 -75 -34 -116 -34c-55 0 -108 28 -108 89c0 71 55 121 102 149c35 21 75 34 116 34z" fill="currentColor"/>
</g>
<g transform="translate(7.4000, 41.6182)">
<path transform="scale(0.0040, -0.0040)" d="M218 136c55 0 108 -28 108 -89c0 -71 -55 -121 -102 -149c-35 -21 -75 -34 -116 -34c-55 0 -108 28 -108 89c0 71 55 121 102 149c35 21 75 34 116 34z" fill="currentColor"/>
</g>
<g transform="translate(8.6392, 41.6182)">
<rect x="-0.0650" y="-3.1900" width="0.1300" height="3.0039" ry="0.0400" fill="currentColor"/>
</g>
<g transform="translate(0.6999, 31.6182)">
<path transform="scale(0.0045, -0.0045)" d="M168 256c-54 0 -55 -49 -55 -112v-5v-5c0 -63 1 -112 55 -112c57 0 63 51 63 117s-6 117 -63 117zM113 264c18 7 36 14 55 14c100 0 169 -45 169 -139s-69 -139 -169 -139c-112 0 -168 125 -168 250c0 128 71 250 188 250c70 0 137 -38 137 -102c0 -36 -29 -66 -65 -66
s-66 30 -66 66c0 24 39 25 39 49c0 20 -22 31 -45 31c-68 0 -76 -68 -76 -145c0 -23 1 -46 1 -69z" fill="currentColor"/>
</g>
<g transform="translate(0.0000, 33.9399)">
<g>
<path transform="scale(0.0045, -0.0045)" d="M170 487c18 0 56 30 56 -3v-371c0 -47 28 -91 71 -91c7 0 11 -5 11 -11s-4 -11 -11 -11c-43 0 -84 13 -127 13s-85 -13 -128 -13c-7 0 -11 5 -11 11s4 11 11 11c43 0 71 44 71 91v251c0 12 -8 18 -15 18c-4 0 -8 -2 -10 -6l-63 -138c-3 -6 -7 -8 -12 -8
c-7 0 -14 6 -14 14c0 2 0 4 1 6l113 250c2 5 10 3 16 0c13 -6 27 -13 41 -13z" fill="currentColor"/>

<path transform="translate(1.3999, 0.0000) scale(0.0045, -0.0045)" d="M168 256c-54 0 -55 -49 -55 -112v-5v-5c0 -63 1 -112 55 -112c57 0 63 51 63 117s-6 117 -63 117zM113 264c18 7 36 14 55 14c100 0 169 -45 169 -139s-69 -139 -169 -139c-112 0 -168 125 -168 250c0 128 71 250 188 250c70 0 137 -38 137 -102c0 -36 -29 -66 -65 -66
s-66 30 -66 66c0 24 39 25 39 49c0 20 -22 31 -45 31c-68 0 -76 -68 -76 -145c0 -23 1 -46 1 -69z" fill="currentColor"/>
</g>
</g>
<g transform="translate(76.5386, 36.7857)">
<text font-family="serif" font-style="italic" font-size="1.7461" text-anchor="start" fill="currentColor">
<tspan>11:6</tspan>
</text>
</g>
<g transform="translate(67.9742, 36.1882)">
<line stroke-linejoin="round" stroke-linecap="round" stroke-width="0.1600" stroke="currentColor" x1="20.4358" y1="-0.0000" x2="20.4358" y2="0.7000"/>
</g>
<g transform="translate(67.9742, 36.1882)">
<line stroke-linejoin="round" stroke-linecap="round" stroke-width="0.1600" stroke="currentColor" x1="-0.2000" y1="-0.0000" x2="-0.2000" y2="0.7000"/>
</g>
<g transform="translate(67.9742, 36.1882)">
<line stroke-linejoin="round" stroke-linecap="round" stroke-width="0.1600" stroke="currentColor" x1="20.4358" y1="-0.0000" x2="12.2714" y2="-0.0000"/>
</g>
<g transform="translate(67.9742, 36.1882)">
<line stroke-linejoin="round" stroke-linecap="round" stroke-width="0.1600" stroke="currentColor" x1="-0.2000" y1="-0.0000" x2="8.1644" y2="-0.0000"/>
</g>
<g transform="translate(15.5000, 41.6182)">
<path transform="scale(0.0040, -0.0040)" d="M218 136c55 0 108 -28 108 -89c0 -71 -55 -121 -102 -149c-35 -21 -75 -34 -116 -34c-55 0 -108 28 -108 89c0 71 55 121 102 149c35 21 75 34 116 34z" fill="currentColor"/>
</g>
<g transform="translate(14.0392, 41.6182)">
<rect x="-0.0650" y="-3.1900" width="0.1300" height="3.0039" ry="0.0400" fill="currentColor"/>
</g>
<g transform="translate(12.8000, 41.6182)">
<path transform="scale(0.0040, -0.0040)" d="M218 136c55 0 108 -28 108 -89c0 -71 -55 -121 -102 -149c-35 -21 -75 -34 -116 -34c-55 0 -108 28 -108 89c0 71 55 121 102 149c35 21 75 34 116 34z" fill="currentColor"/>
</g>
<g transform="translate(11.3392, 41.6182)">
<rect x="-0.0650" y="-3.1900" width="0.1300" height="3.0039" ry="0.0400" fill="currentColor"/>
</g>
<g transform="translate(10.1000, 41.6182)">
<path transform="scale(0.0040, -0.0040)" d="M218 136c55 0 108 -28 108 -89c0 -71 -55 -121 -102 -149c-35 -21 -75 -34 -116 -34c-55 0 -108 28 -108 89c0 71 55 121 102 149c35 21 75 34 116 34z" fill="currentColor"/>
</g>
<g transform="translate(41.6392, 41.6182)">
<rect x="-0.0650" y="-3.1900" width="0.1300" height="3.0039" ry="0.0400" fill="currentColor"/>
</g>
<g transform="translate(40.4000, 41.6182)">
<path transform="scale(0.0040, -0.0040)" d="M218 136c55 0 108 -28 108 -89c0 -71 -55 -121 -102 -149c-35 -21 -75 -34 -116 -34c-55 0 -108 28 -108 89c0 71 55 121 102 149c35 21 75 34 116 34z" fill="currentColor"/>
</g>
<g transform="translate(39.2392, 41.6182)">
<rect x="-0.0650" y="-3.1900" width="0.1300" height="3.0039" ry="0.0400" fill="currentColor"/>
</g>
<g transform="translate(38.0000, 41.6182)">
<path transform="scale(0.0040, -0.0040)" d="M218 136c55 0 108 -28 108 -89c0 -71 -55 -121 -102 -149c-35 -21 -75 -34 -116 -34c-55 0 -108 28 -108 89c0 71 55 121 102 149c35 21 75 34 116 34z" fill="currentColor"/>
</g>
<g transform="translate(36.8392, 41.6182)">
<rect x="-0.0650" y="-3.1900" width="0.1300" height="3.0039" ry="0.0400" fill="currentColor"/>
</g>
<g transform="translate(35.6000, 41.6182)">
<path transform="scale(0.0040, -0.0040)" d="M218 136c55 0 108 -28 108 -89c0 -71 -55 -121 -102 -149c-35 -21 -75 -34 -116 -34c-55 0 -108 28 -108 89c0 71 55 121 102 149c35 21 75 34 116 34z" fill="currentColor"/>
</g>
<g transform="translate(46.4392, 41.6182)">
<rect x="-0.0650" y="-3.1900" width="0.1300" height="3.0039" ry="0.0400" fill="currentColor"/>
</g>
<g transform="translate(45.2000, 34.5682)">
<text font-family="serif" font-size="2.2001" text-anchor="start" fill="currentColor">
<tspan>10</tspan>
</text>
</g>
<g transform="translate(47.9852, 34.5682)">
<text font-family="serif" font-size="2.2001" text-anchor="start" fill="currentColor">
<tspan>becomes</tspan>
</text>
</g>
<g transform="translate(56.3016, 34.5682)">
<text font-family="serif" font-size="2.2001" text-anchor="start" fill="currentColor">
<tspan>4</tspan>
</text>
</g>
<g transform="translate(45.2000, 41.6182)">
<path transform="scale(0.0040, -0.0040)" d="M218 136c55 0 108 -28 108 -89c0 -71 -55 -121 -102 -149c-35 -21 -75 -34 -116 -34c-55 0 -108 28 -108 89c0 71 55 121 102 149c35 21 75 34 116 34z" fill="currentColor"/>
</g>
<g transform="translate(45.0099, 31.6182)">
<path transform="scale(0.0045, -0.0045)" d="M168 256c-54 0 -55 -49 -55 -112v-5v-5c0 -63 1 -112 55 -112c57 0 63 51 63 117s-6 117 -63 117zM113 264c18 7 36 14 55 14c100 0 169 -45 169 -139s-69 -139 -169 -139c-112 0 -168 125 -168 250c0 128 71 250 188 250c70 0 137 -38 137 -102c0 -36 -29 -66 -65 -66
s-66 30 -66 66c0 24 39 25 39 49c0 20 -22 31 -45 31c-68 0 -76 -68 -76 -145c0 -23 1 -46 1 -69z" fill="currentColor"/>
</g>
<g transform="translate(44.3100, 33.9399)">
<g>
<path transform="scale(0.0045, -0.0045)" d="M170 487c18 0 56 30 56 -3v-371c0 -47 28 -91 71 -91c7 0 11 -5 11 -11s-4 -11 -11 -11c-43 0 -84 13 -127 13s-85 -13 -128 -13c-7 0 -11 5 -11 11s4 11 11 11c43 0 71 44 71 91v251c0 12 -8 18 -15 18c-4 0 -8 -2 -10 -6l-63 -138c-3 -6 -7 -8 -12 -8
c-7 0 -14 6 -14 14c0 2 0 4 1 6l113 250c2 5 10 3 16 0c13 -6 27 -13 41 -13z" fill="currentColor"/>

<path transform="translate(1.3999, 0.0000) scale(0.0045, -0.0045)" d="M168 256c-54 0 -55 -49 -55 -112v-5v-5c0 -63 1 -112 55 -112c57 0 63 51 63 117s-6 117 -63 117zM113 264c18 7 36 14 55 14c100 0 169 -45 169 -139s-69 -139 -169 -139c-112 0 -168 125 -168 250c0 128 71 250 188 250c70 0 137 -38 137 -102c0 -36 -29 -66 -65 -66
s-66 30 -66 66c0 24 39 25 39 49c0 20 -22 31 -45 31c-68 0 -76 -68 -76 -145c0 -23 1 -46 1 -69z" fill="currentColor"/>
</g>
</g>
<g transform="translate(4.7000, 41.6182)">
<path transform="scale(0.0040, -0.0040)" d="M218 136c55 0 108 -28 108 -89c0 -71 -55 -121 -102 -149c-35 -21 -75 -34 -116 -34c-55 0 -108 28 -108 89c0 71 55 121 102 149c35 21 75 34 116 34z" fill="currentColor"/>
</g>
<g transform="translate(44.0392, 41.6182)">
<rect x="-0.0650" y="-3.1900" width="0.1300" height="3.0039" ry="0.0400" fill="currentColor"/>
</g>
<g transform="translate(42.8000, 41.6182)">
<path transform="scale(0.0040, -0.0040)" d="M218 136c55 0 108 -28 108 -89c0 -71 -55 -121 -102 -149c-35 -21 -75 -34 -116 -34c-55 0 -108 28 -108 89c0 71 55 121 102 149c35 21 75 34 116 34z" fill="currentColor"/>
</g>
<g transform="translate(28.4000, 41.6182)">
<path transform="scale(0.0040, -0.0040)" d="M218 136c55 0 108 -28 108 -89c0 -71 -55 -121 -102 -149c-35 -21 -75 -34 -116 -34c-55 0 -108 28 -108 89c0 71 55 121 102 149c35 21 75 34 116 34z" fill="currentColor"/>
</g>
<g transform="translate(29.6392, 41.6182)">
<rect x="-0.0650" y="-3.1900" width="0.1300" height="3.0039" ry="0.0400" fill="currentColor"/>
</g>
<g transform="translate(30.8000, 41.6182)">
<path transform="scale(0.0040, -0.0040)" d="M218 136c55 0 108 -28 108 -89c0 -71 -55 -121 -102 -149c-35 -21 -75 -34 -116 -34c-55 0 -108 28 -108 89c0 71 55 121 102 149c35 21 75 34 116 34z" fill="currentColor"/>
</g>
<g transform="translate(32.0392, 41.6182)">
<rect x="-0.0650" y="-3.1900" width="0.1300" height="3.0039" ry="0.0400" fill="currentColor"/>
</g>
<g transform="translate(5.9392, 41.6182)">
<rect x="-0.0650" y="-3.1900" width="0.1300" height="3.0039" ry="0.0400" fill="currentColor"/>
</g>
<g transform="translate(34.4392, 41.6182)">
<rect x="-0.0650" y="-3.1900" width="0.1300" height="3.0039" ry="0.0400" fill="currentColor"/>
</g>
<g transform="translate(33.2000, 41.6182)">
<path transform="scale(0.0040, -0.0040)" d="M218 136c55 0 108 -28 108 -89c0 -71 -55 -121 -102 -149c-35 -21 -75 -34 -116 -34c-55 0 -108 28 -108 89c0 71 55 121 102 149c35 21 75 34 116 34z" fill="currentColor"/>
</g>
</svg>
