<svg xmlns="http://www.w3.org/2000/svg" xmlns:xlink="http://www.w3.org/1999/xlink" version="1.2" width="210.00mm" height="297.00mm" viewBox="0.0000 -0.0000 119.5016 169.0094">
<style type="text/css">
<![CDATA[
tspan { white-space: pre; }
]]>
</style>
<g transform="translate(8.5358, 14.6906)">
<rect x="98.3490" y="-0.1000" width="1.9563" height="0.2000" ry="0.1000" fill="currentColor"/>
</g>
<g transform="translate(8.5358, 14.6906)">
<rect x="16.7948" y="-0.1000" width="1.9563" height="0.2000" ry="0.1000" fill="currentColor"/>
</g>
<g transform="translate(17.0717, 13.6906)">
<line stroke-linejoin="round" stroke-linecap="round" stroke-width="0.1000" stroke="currentColor" x1="0.0500" y1="0" x2="92.9393" y2="0"/>
</g>
<g transform="translate(17.0717, 12.6906)">
<line stroke-linejoin="round" stroke-linecap="round" stroke-width="0.1000" stroke="currentColor" x1="0.0500" y1="0" x2="92.9393" y2="0"/>
</g>
<g transform="translate(17.0717, 11.6906)">
<line stroke-linejoin="round" stroke-linecap="round" stroke-width="0.1000" stroke="currentColor" x1="0.0500" y1="0" x2="92.9393" y2="0"/>
</g>
<g transform="translate(17.0717, 10.6906)">
<line stroke-linejoin="round" stroke-linecap="round" stroke-width="0.1000" stroke="currentColor" x1="0.0500" y1="0" x2="92.9393" y2="0"/>
</g>
<g transform="translate(17.0717, 9.6906)">
<line stroke-linejoin="round" stroke-linecap="round" stroke-width="0.1000" stroke="currentColor" x1="0.0500" y1="0" x2="92.9393" y2="0"/>
</g>
<g transform="translate(109.8710, 7.4506)">
<rect x="0.0000" y="6.2900" width="0.1900" height="4.9500" ry="0.0000" fill="currentColor"/>
</g>
<g transform="translate(8.5358, 23.6906)">
<rect x="59.4460" y="-0.1000" width="1.9563" height="0.2000" ry="0.1000" fill="currentColor"/>
</g>
<g transform="translate(8.5358, 23.6906)">
<rect x="55.6978" y="-0.1000" width="1.9563" height="0.2000" ry="0.1000" fill="currentColor"/>
</g>
<g transform="translate(17.0717, 22.6906)">
<line stroke-linejoin="round" stroke-linecap="round" stroke-width="0.1000" stroke="currentColor" x1="0.0500" y1="0" x2="92.9393" y2="0"/>
</g>
<g transform="translate(17.0717, 21.6906)">
<line stroke-linejoin="round" stroke-linecap="round" stroke-width="0.1000" stroke="currentColor" x1="0.0500" y1="0" x2="92.9393" y2="0"/>
</g>
<g transform="translate(17.0717, 20.6906)">
<line stroke-linejoin="round" stroke-linecap="round" stroke-width="0.1000" stroke="currentColor" x1="0.0500" y1="0" x2="92.9393" y2="0"/>
</g>
<g transform="translate(17.0717, 19.6906)">
<line stroke-linejoin="round" stroke-linecap="round" stroke-width="0.1000" stroke="currentColor" x1="0.0500" y1="0" x2="92.9393" y2="0"/>
</g>
<g transform="translate(17.0717, 18.6906)">
<line stroke-linejoin="round" stroke-linecap="round" stroke-width="0.1000" stroke="currentColor" x1="0.0500" y1="0" x2="92.9393" y2="0"/>
</g>
<g transform="translate(109.8710, 20.6906)">
<rect x="0.0000" y="-2.0500" width="0.1900" height="4.0500" ry="0.0000" fill="currentColor"/>
</g>
<g transform="translate(109.8710, 11.6906)">
<rect x="0.0000" y="-2.0000" width="0.1900" height="4.0500" ry="0.0000" fill="currentColor"/>
</g>
<g transform="translate(67.2179, 7.4506)">
<rect x="0.0000" y="6.2900" width="0.1900" height="4.9500" ry="0.0000" fill="currentColor"/>
</g>
<g transform="translate(67.2179, 20.6906)">
<rect x="0.0000" y="-2.0500" width="0.1900" height="4.0500" ry="0.0000" fill="currentColor"/>
</g>
<g transform="translate(67.2179, 11.6906)">
<rect x="0.0000" y="-2.0000" width="0.1900" height="4.0500" ry="0.0000" fill="currentColor"/>
</g>
<g transform="translate(100.8725, 8.6906)">
<polygon stroke-linejoin="round" stroke-linecap="round" stroke-width="0.0800" fill="currentColor" stroke="currentColor" points="7.6026 0.9900 7.6026 1.3900 0.0400 0.2000 0.0400 -0.2000"/>
</g>
<g transform="translate(100.8725, 9.5006)">
<polygon stroke-linejoin="round" stroke-linecap="round" stroke-width="0.0800" fill="currentColor" stroke="currentColor" points="7.6026 0.9900 7.6026 1.3900 0.0400 0.2000 0.0400 -0.2000"/>
</g>
<g transform="translate(25.6567, 14.6906)">
<path transform="scale(0.0040, -0.0040)" d="M0 -46c0 91 116 182 217 182c63 0 109 -35 109 -90c0 -87 -110 -182 -220 -182c-67 0 -106 39 -106 90z" fill="currentColor"/>
</g>
<g transform="translate(17.8717, 12.6906)">
<path transform="scale(0.0040, -0.0040)" d="M266 -635h-6c-108 0 -195 88 -195 197c0 58 53 103 112 103c54 0 95 -47 95 -103c0 -52 -43 -95 -95 -95c-11 0 -21 2 -31 6c26 -39 68 -65 117 -65h4zM401 151c19 -89 48 -242 60 -354c76 27 112 94 112 163c0 89 -60 179 -172 191zM74 28c0 -112 98 -247 278 -247
c21 0 44 2 68 6c-7 64 -29 203 -63 364c-79 -8 -124 -61 -124 -119c0 -44 25 -91 81 -123c5 -5 7 -10 7 -15c0 -11 -10 -22 -22 -22c-15 0 -126 62 -126 187c0 88 58 174 160 197c-14 58 -29 117 -46 175c-107 -121 -213 -243 -213 -403zM357 1194c28 0 143 -206 143 -361
c0 -143 -86 -255 -180 -364c21 -68 39 -138 56 -207c5 0 10 1 14 1c155 0 255 -129 255 -262c0 -113 -74 -212 -180 -245c3 -35 5 -70 5 -105c0 -19 -1 -39 -2 -58c-7 -119 -88 -225 -202 -228l1 43c93 2 153 92 159 191c1 18 2 37 2 55c0 31 -1 61 -4 92
c-28 -5 -55 -8 -80 -8c-239 0 -342 217 -342 374c0 177 131 306 248 441c-29 96 -52 170 -52 346c0 189 144 295 159 295zM247 782c0 -55 12 -115 35 -190c83 100 147 202 147 326c0 40 -6 82 -21 127c-49 -24 -161 -97 -161 -263z" fill="currentColor"/>
</g>
<g transform="translate(21.9567, 11.6906)">
<path transform="scale(0.0040, -0.0040)" d="M433 -89c0 -22 -50 -174 -183 -174c-59 0 -250 19 -250 263c0 62 18 262 250 262c116 0 176 -106 176 -163c0 -40 -30 -72 -67 -72c-31 0 -75 25 -75 75c0 38 27 77 72 77c4 0 9 0 14 -1c-28 37 -72 59 -120 59c-106 0 -113 -73 -113 -186v-51v-51
c0 -113 7 -187 113 -187c80 0 139 70 158 151c2 7 7 10 12 10c6 0 13 -4 13 -12z" fill="currentColor"/>
</g>
<g transform="translate(25.6567, 19.6906)">
<path transform="scale(0.0040, -0.0040)" d="M0 -46c0 91 116 182 217 182c63 0 109 -35 109 -90c0 -87 -110 -182 -220 -182c-67 0 -106 39 -106 90z" fill="currentColor"/>
</g>
<g transform="translate(17.8717, 21.6906)">
<path transform="scale(0.0040, -0.0040)" d="M266 -635h-6c-108 0 -195 88 -195 197c0 58 53 103 112 103c54 0 95 -47 95 -103c0 -52 -43 -95 -95 -95c-11 0 -21 2 -31 6c26 -39 68 -65 117 -65h4zM401 151c19 -89 48 -242 60 -354c76 27 112 94 112 163c0 89 -60 179 -172 191zM74 28c0 -112 98 -247 278 -247
c21 0 44 2 68 6c-7 64 -29 203 -63 364c-79 -8 -124 -61 -124 -119c0 -44 25 -91 81 -123c5 -5 7 -10 7 -15c0 -11 -10 -22 -22 -22c-15 0 -126 62 -126 187c0 88 58 174 160 197c-14 58 -29 117 -46 175c-107 -121 -213 -243 -213 -403zM357 1194c28 0 143 -206 143 -361
c0 -143 -86 -255 -180 -364c21 -68 39 -138 56 -207c5 0 10 1 14 1c155 0 255 -129 255 -262c0 -113 -74 -212 -180 -245c3 -35 5 -70 5 -105c0 -19 -1 -39 -2 -58c-7 -119 -88 -225 -202 -228l1 43c93 2 153 92 159 191c1 18 2 37 2 55c0 31 -1 61 -4 92
c-28 -5 -55 -8 -80 -8c-239 0 -342 217 -342 374c0 177 131 306 248 441c-29 96 -52 170 -52 346c0 189 144 295 159 295zM247 782c0 -55 12 -115 35 -190c83 100 147 202 147 326c0 40 -6 82 -21 127c-49 -24 -161 -97 -161 -263z" fill="currentColor"/>
</g>
<g transform="translate(21.9567, 20.6906)">
<path transform="scale(0.0040, -0.0040)" d="M433 -89c0 -22 -50 -174 -183 -174c-59 0 -250 19 -250 263c0 62 18 262 250 262c116 0 176 -106 176 -163c0 -40 -30 -72 -67 -72c-31 0 -75 25 -75 75c0 38 27 77 72 77c4 0 9 0 14 -1c-28 37 -72 59 -120 59c-106 0 -113 -73 -113 -186v-51v-51
c0 -113 7 -187 113 -187c80 0 139 70 158 151c2 7 7 10 12 10c6 0 13 -4 13 -12z" fill="currentColor"/>
</g>
<g transform="translate(26.8959, 11.6906)">
<rect x="-0.0650" y="-1.8201" width="0.1300" height="4.6339" ry="0.0400" fill="currentColor"/>
</g>
<g transform="translate(26.8959, 20.6906)">
<rect x="-0.0650" y="-3.4872" width="0.1300" height="2.3010" ry="0.0400" fill="currentColor"/>
</g>
<g transform="translate(90.8557, 18.6906)">
<polygon stroke-linejoin="round" stroke-linecap="round" stroke-width="0.0800" fill="currentColor" stroke="currentColor" points="7.6026 -1.7000 7.6026 -1.3000 0.0400 0.2000 0.0400 -0.2000"/>
</g>
<g transform="translate(90.8557, 19.5006)">
<polygon stroke-linejoin="round" stroke-linecap="round" stroke-width="0.0800" fill="currentColor" stroke="currentColor" points="7.6026 -1.7000 7.6026 -1.3000 0.0400 0.2000 0.0400 -0.2000"/>
</g>
<g transform="translate(28.1609, 13.1906)">
<path transform="scale(0.0040, -0.0040)" d="M0 -46c0 91 116 182 217 182c63 0 109 -35 109 -90c0 -87 -110 -182 -220 -182c-67 0 -106 39 -106 90z" fill="currentColor"/>
</g>
<g transform="translate(28.1609, 21.1906)">
<path transform="scale(0.0040, -0.0040)" d="M0 -46c0 91 116 182 217 182c63 0 109 -35 109 -90c0 -87 -110 -182 -220 -182c-67 0 -106 39 -106 90z" fill="currentColor"/>
</g>
<g transform="translate(29.4001, 11.6906)">
<rect x="-0.0650" y="-2.2100" width="0.1300" height="3.5238" ry="0.0400" fill="currentColor"/>
</g>
<g transform="translate(29.4001, 20.6906)">
<rect x="-0.0650" y="-2.9957" width="0.1300" height="3.3095" ry="0.0400" fill="currentColor"/>
</g>
<g transform="translate(90.8557, 8.6906)">
<polygon stroke-linejoin="round" stroke-linecap="round" stroke-width="0.0800" fill="currentColor" stroke="currentColor" points="7.6026 0.9900 7.6026 1.3900 0.0400 0.2000 0.0400 -0.2000"/>
</g>
<g transform="translate(90.8557, 9.5006)">
<polygon stroke-linejoin="round" stroke-linecap="round" stroke-width="0.0800" fill="currentColor" stroke="currentColor" points="7.6026 0.9900 7.6026 1.3900 0.0400 0.2000 0.0400 -0.2000"/>
</g>
<g transform="translate(30.6651, 12.6906)">
<path transform="scale(0.0040, -0.0040)" d="M0 -46c0 91 116 182 217 182c63 0 109 -35 109 -90c0 -87 -110 -182 -220 -182c-67 0 -106 39 -106 90z" fill="currentColor"/>
</g>
<g transform="translate(30.6651, 21.6906)">
<path transform="scale(0.0040, -0.0040)" d="M0 -46c0 91 116 182 217 182c63 0 109 -35 109 -90c0 -87 -110 -182 -220 -182c-67 0 -106 39 -106 90z" fill="currentColor"/>
</g>
<g transform="translate(31.9043, 11.6906)">
<rect x="-0.0650" y="-2.6000" width="0.1300" height="3.4138" ry="0.0400" fill="currentColor"/>
</g>
<g transform="translate(31.9043, 20.6906)">
<rect x="-0.0650" y="-2.5043" width="0.1300" height="3.3181" ry="0.0400" fill="currentColor"/>
</g>
<g transform="translate(80.1689, 17.8806)">
<polygon stroke-linejoin="round" stroke-linecap="round" stroke-width="0.0800" fill="currentColor" stroke="currentColor" points="8.2726 -1.5800 8.2726 -1.1800 0.0400 0.2000 0.0400 -0.2000"/>
</g>
<g transform="translate(80.1689, 18.6906)">
<polygon stroke-linejoin="round" stroke-linecap="round" stroke-width="0.0800" fill="currentColor" stroke="currentColor" points="8.2726 -1.5800 8.2726 -1.1800 0.0400 0.2000 0.0400 -0.2000"/>
</g>
<g transform="translate(33.1693, 12.1906)">
<path transform="scale(0.0040, -0.0040)" d="M0 -46c0 91 116 182 217 182c63 0 109 -35 109 -90c0 -87 -110 -182 -220 -182c-67 0 -106 39 -106 90z" fill="currentColor"/>
</g>
<g transform="translate(33.1693, 22.1906)">
<path transform="scale(0.0040, -0.0040)" d="M0 -46c0 91 116 182 217 182c63 0 109 -35 109 -90c0 -87 -110 -182 -220 -182c-67 0 -106 39 -106 90z" fill="currentColor"/>
</g>
<g transform="translate(34.4085, 11.6906)">
<rect x="-0.0650" y="-2.9899" width="0.1300" height="3.3037" ry="0.0400" fill="currentColor"/>
</g>
<g transform="translate(34.4085, 20.6906)">
<rect x="-0.0650" y="-2.0128" width="0.1300" height="3.3266" ry="0.0400" fill="currentColor"/>
</g>
<g transform="translate(80.1689, 8.1906)">
<polygon stroke-linejoin="round" stroke-linecap="round" stroke-width="0.0800" fill="currentColor" stroke="currentColor" points="8.2726 1.3000 8.2726 1.7000 0.0400 0.2000 0.0400 -0.2000"/>
</g>
<g transform="translate(80.1689, 9.0006)">
<polygon stroke-linejoin="round" stroke-linecap="round" stroke-width="0.0800" fill="currentColor" stroke="currentColor" points="8.2726 1.3000 8.2726 1.7000 0.0400 0.2000 0.0400 -0.2000"/>
</g>
<g transform="translate(35.6735, 14.1906)">
<path transform="scale(0.0040, -0.0040)" d="M0 -46c0 91 116 182 217 182c63 0 109 -35 109 -90c0 -87 -110 -182 -220 -182c-67 0 -106 39 -106 90z" fill="currentColor"/>
</g>
<g transform="translate(35.6735, 20.1906)">
<path transform="scale(0.0040, -0.0040)" d="M0 -46c0 91 116 182 217 182c63 0 109 -35 109 -90c0 -87 -110 -182 -220 -182c-67 0 -106 39 -106 90z" fill="currentColor"/>
</g>
<g transform="translate(36.9127, 11.6906)">
<rect x="-0.0650" y="-1.8193" width="0.1300" height="4.1331" ry="0.0400" fill="currentColor"/>
</g>
<g transform="translate(36.9127, 20.6906)">
<rect x="-0.0650" y="-3.4883" width="0.1300" height="2.8021" ry="0.0400" fill="currentColor"/>
</g>
<g transform="translate(69.4821, 19.8806)">
<polygon stroke-linejoin="round" stroke-linecap="round" stroke-width="0.0800" fill="currentColor" stroke="currentColor" points="8.2726 -1.3900 8.2726 -0.9900 0.0400 0.2000 0.0400 -0.2000"/>
</g>
<g transform="translate(69.4821, 20.6906)">
<polygon stroke-linejoin="round" stroke-linecap="round" stroke-width="0.0800" fill="currentColor" stroke="currentColor" points="8.2726 -1.3900 8.2726 -0.9900 0.0400 0.2000 0.0400 -0.2000"/>
</g>
<g transform="translate(38.1777, 12.6906)">
<path transform="scale(0.0040, -0.0040)" d="M0 -46c0 91 116 182 217 182c63 0 109 -35 109 -90c0 -87 -110 -182 -220 -182c-67 0 -106 39 -106 90z" fill="currentColor"/>
</g>
<g transform="translate(38.1777, 21.6906)">
<path transform="scale(0.0040, -0.0040)" d="M0 -46c0 91 116 182 217 182c63 0 109 -35 109 -90c0 -87 -110 -182 -220 -182c-67 0 -106 39 -106 90z" fill="currentColor"/>
</g>
<g transform="translate(39.4169, 11.6906)">
<rect x="-0.0650" y="-2.1778" width="0.1300" height="2.9916" ry="0.0400" fill="currentColor"/>
</g>
<g transform="translate(39.4169, 20.6906)">
<rect x="-0.0650" y="-3.0364" width="0.1300" height="3.8502" ry="0.0400" fill="currentColor"/>
</g>
<g transform="translate(69.4821, 7.6906)">
<polygon stroke-linejoin="round" stroke-linecap="round" stroke-width="0.0800" fill="currentColor" stroke="currentColor" points="8.2726 0.9900 8.2726 1.3900 0.0400 0.2000 0.0400 -0.2000"/>
</g>
<g transform="translate(69.4821, 8.5006)">
<polygon stroke-linejoin="round" stroke-linecap="round" stroke-width="0.0800" fill="currentColor" stroke="currentColor" points="8.2726 0.9900 8.2726 1.3900 0.0400 0.2000 0.0400 -0.2000"/>
</g>
<g transform="translate(40.6819, 12.1906)">
<path transform="scale(0.0040, -0.0040)" d="M0 -46c0 91 116 182 217 182c63 0 109 -35 109 -90c0 -87 -110 -182 -220 -182c-67 0 -106 39 -106 90z" fill="currentColor"/>
</g>
<g transform="translate(40.6819, 22.1906)">
<path transform="scale(0.0040, -0.0040)" d="M0 -46c0 91 116 182 217 182c63 0 109 -35 109 -90c0 -87 -110 -182 -220 -182c-67 0 -106 39 -106 90z" fill="currentColor"/>
</g>
<g transform="translate(41.9211, 11.6906)">
<rect x="-0.0650" y="-2.5363" width="0.1300" height="2.8501" ry="0.0400" fill="currentColor"/>
</g>
<g transform="translate(41.9211, 20.6906)">
<rect x="-0.0650" y="-2.5845" width="0.1300" height="3.8983" ry="0.0400" fill="currentColor"/>
</g>
<g transform="translate(58.2213, 18.6906)">
<polygon stroke-linejoin="round" stroke-linecap="round" stroke-width="0.0800" fill="currentColor" stroke="currentColor" points="7.6026 0.9900 7.6026 1.3900 0.0400 0.2000 0.0400 -0.2000"/>
</g>
<g transform="translate(58.2213, 19.5006)">
<polygon stroke-linejoin="round" stroke-linecap="round" stroke-width="0.0800" fill="currentColor" stroke="currentColor" points="7.6026 0.9900 7.6026 1.3900 0.0400 0.2000 0.0400 -0.2000"/>
</g>
<g transform="translate(43.8561, 11.6906)">
<path transform="scale(0.0040, -0.0040)" d="M0 -46c0 91 116 182 217 182c63 0 109 -35 109 -90c0 -87 -110 -182 -220 -182c-67 0 -106 39 -106 90z" fill="currentColor"/>
</g>
<g transform="translate(43.8561, 22.6906)">
<path transform="scale(0.0040, -0.0040)" d="M0 -46c0 91 116 182 217 182c63 0 109 -35 109 -90c0 -87 -110 -182 -220 -182c-67 0 -106 39 -106 90z" fill="currentColor"/>
</g>
<g transform="translate(45.0953, 11.6906)">
<rect x="-0.0650" y="-2.9907" width="0.1300" height="2.8045" ry="0.0400" fill="currentColor"/>
</g>
<g transform="translate(45.0953, 20.6906)">
<rect x="-0.0650" y="-2.0117" width="0.1300" height="3.8255" ry="0.0400" fill="currentColor"/>
</g>
<g transform="translate(42.7061, 22.6906)">
<path transform="scale(0.0040, -0.0040)" d="M27 41l-1 -66v-11c0 -22 1 -44 4 -66c45 38 93 80 93 139c0 33 -14 67 -43 67c-31 0 -52 -30 -53 -63zM-15 -138l-12 595c8 5 18 8 27 8s19 -3 27 -8l-7 -345c25 21 58 34 91 34c52 0 89 -48 89 -102c0 -80 -86 -117 -147 -169c-15 -13 -24 -38 -45 -38
c-13 0 -23 11 -23 25z" fill="currentColor"/>
</g>
<g transform="translate(58.2213, 8.8806)">
<polygon stroke-linejoin="round" stroke-linecap="round" stroke-width="0.0800" fill="currentColor" stroke="currentColor" points="7.6026 -1.3900 7.6026 -0.9900 0.0400 0.2000 0.0400 -0.2000"/>
</g>
<g transform="translate(58.2213, 9.6906)">
<polygon stroke-linejoin="round" stroke-linecap="round" stroke-width="0.0800" fill="currentColor" stroke="currentColor" points="7.6026 -1.3900 7.6026 -0.9900 0.0400 0.2000 0.0400 -0.2000"/>
</g>
<g transform="translate(47.0303, 13.6906)">
<path transform="scale(0.0040, -0.0040)" d="M0 -46c0 91 116 182 217 182c63 0 109 -35 109 -90c0 -87 -110 -182 -220 -182c-67 0 -106 39 -106 90z" fill="currentColor"/>
</g>
<g transform="translate(47.0303, 20.6906)">
<path transform="scale(0.0040, -0.0040)" d="M0 -46c0 91 116 182 217 182c63 0 109 -35 109 -90c0 -87 -110 -182 -220 -182c-67 0 -106 39 -106 90z" fill="currentColor"/>
</g>
<g transform="translate(48.2695, 11.6906)">
<rect x="-0.0650" y="-2.8201" width="0.1300" height="4.6339" ry="0.0400" fill="currentColor"/>
</g>
<g transform="translate(48.2695, 20.6906)">
<rect x="-0.0650" y="-3.4872" width="0.1300" height="3.3010" ry="0.0400" fill="currentColor"/>
</g>
<g transform="translate(45.8803, 20.6906)">
<path transform="scale(0.0040, -0.0040)" d="M27 41l-1 -66v-11c0 -22 1 -44 4 -66c45 38 93 80 93 139c0 33 -14 67 -43 67c-31 0 -52 -30 -53 -63zM-15 -138l-12 595c8 5 18 8 27 8s19 -3 27 -8l-7 -345c25 21 58 34 91 34c52 0 89 -48 89 -102c0 -80 -86 -117 -147 -169c-15 -13 -24 -38 -45 -38
c-13 0 -23 11 -23 25z" fill="currentColor"/>
</g>
<g transform="translate(48.2045, 17.1906)">
<polygon stroke-linejoin="round" stroke-linecap="round" stroke-width="0.0800" fill="currentColor" stroke="currentColor" points="7.6026 1.3000 7.6026 1.7000 0.0400 0.2000 0.0400 -0.2000"/>
</g>
<g transform="translate(48.2045, 18.0006)">
<polygon stroke-linejoin="round" stroke-linecap="round" stroke-width="0.0800" fill="currentColor" stroke="currentColor" points="7.6026 1.3000 7.6026 1.7000 0.0400 0.2000 0.0400 -0.2000"/>
</g>
<g transform="translate(49.5345, 12.1906)">
<path transform="scale(0.0040, -0.0040)" d="M0 -46c0 91 116 182 217 182c63 0 109 -35 109 -90c0 -87 -110 -182 -220 -182c-67 0 -106 39 -106 90z" fill="currentColor"/>
</g>
<g transform="translate(49.5345, 22.1906)">
<path transform="scale(0.0040, -0.0040)" d="M0 -46c0 91 116 182 217 182c63 0 109 -35 109 -90c0 -87 -110 -182 -220 -182c-67 0 -106 39 -106 90z" fill="currentColor"/>
</g>
<g transform="translate(50.7737, 11.6906)">
<rect x="-0.0650" y="-3.2100" width="0.1300" height="3.5238" ry="0.0400" fill="currentColor"/>
</g>
<g transform="translate(50.7737, 20.6906)">
<rect x="-0.0650" y="-2.9957" width="0.1300" height="4.3095" ry="0.0400" fill="currentColor"/>
</g>
<g transform="translate(48.2045, 8.8806)">
<polygon stroke-linejoin="round" stroke-linecap="round" stroke-width="0.0800" fill="currentColor" stroke="currentColor" points="7.6026 -1.3900 7.6026 -0.9900 0.0400 0.2000 0.0400 -0.2000"/>
</g>
<g transform="translate(48.2045, 9.6906)">
<polygon stroke-linejoin="round" stroke-linecap="round" stroke-width="0.0800" fill="currentColor" stroke="currentColor" points="7.6026 -1.3900 7.6026 -0.9900 0.0400 0.2000 0.0400 -0.2000"/>
</g>
<g transform="translate(52.0387, 11.6906)">
<path transform="scale(0.0040, -0.0040)" d="M0 -46c0 91 116 182 217 182c63 0 109 -35 109 -90c0 -87 -110 -182 -220 -182c-67 0 -106 39 -106 90z" fill="currentColor"/>
</g>
<g transform="translate(52.0387, 22.6906)">
<path transform="scale(0.0040, -0.0040)" d="M0 -46c0 91 116 182 217 182c63 0 109 -35 109 -90c0 -87 -110 -182 -220 -182c-67 0 -106 39 -106 90z" fill="currentColor"/>
</g>
<g transform="translate(53.2779, 11.6906)">
<rect x="-0.0650" y="-3.6000" width="0.1300" height="3.4138" ry="0.0400" fill="currentColor"/>
</g>
<g transform="translate(53.2779, 20.6906)">
<rect x="-0.0650" y="-2.5043" width="0.1300" height="4.3181" ry="0.0400" fill="currentColor"/>
</g>
<g transform="translate(36.8477, 17.1906)">
<polygon stroke-linejoin="round" stroke-linecap="round" stroke-width="0.0800" fill="currentColor" stroke="currentColor" points="8.2726 1.3000 8.2726 1.7000 0.0400 0.2000 0.0400 -0.2000"/>
</g>
<g transform="translate(36.8477, 18.0006)">
<polygon stroke-linejoin="round" stroke-linecap="round" stroke-width="0.0800" fill="currentColor" stroke="currentColor" points="8.2726 1.3000 8.2726 1.7000 0.0400 0.2000 0.0400 -0.2000"/>
</g>
<g transform="translate(54.5429, 11.1906)">
<path transform="scale(0.0040, -0.0040)" d="M0 -46c0 91 116 182 217 182c63 0 109 -35 109 -90c0 -87 -110 -182 -220 -182c-67 0 -106 39 -106 90z" fill="currentColor"/>
</g>
<g transform="translate(54.5429, 23.1906)">
<path transform="scale(0.0040, -0.0040)" d="M0 -46c0 91 116 182 217 182c63 0 109 -35 109 -90c0 -87 -110 -182 -220 -182c-67 0 -106 39 -106 90z" fill="currentColor"/>
</g>
<g transform="translate(55.7821, 11.6906)">
<rect x="-0.0650" y="-3.9899" width="0.1300" height="3.3037" ry="0.0400" fill="currentColor"/>
</g>
<g transform="translate(55.7821, 20.6906)">
<rect x="-0.0650" y="-2.0128" width="0.1300" height="4.3266" ry="0.0400" fill="currentColor"/>
</g>
<g transform="translate(36.8477, 9.8806)">
<polygon stroke-linejoin="round" stroke-linecap="round" stroke-width="0.0800" fill="currentColor" stroke="currentColor" points="8.2726 -1.3900 8.2726 -0.9900 0.0400 0.2000 0.0400 -0.2000"/>
</g>
<g transform="translate(36.8477, 10.6906)">
<polygon stroke-linejoin="round" stroke-linecap="round" stroke-width="0.0800" fill="currentColor" stroke="currentColor" points="8.2726 -1.3900 8.2726 -0.9900 0.0400 0.2000 0.0400 -0.2000"/>
</g>
<g transform="translate(57.0471, 13.1906)">
<path transform="scale(0.0040, -0.0040)" d="M0 -46c0 91 116 182 217 182c63 0 109 -35 109 -90c0 -87 -110 -182 -220 -182c-67 0 -106 39 -106 90z" fill="currentColor"/>
</g>
<g transform="translate(57.0471, 21.1906)">
<path transform="scale(0.0040, -0.0040)" d="M0 -46c0 91 116 182 217 182c63 0 109 -35 109 -90c0 -87 -110 -182 -220 -182c-67 0 -106 39 -106 90z" fill="currentColor"/>
</g>
<g transform="translate(58.2863, 11.6906)">
<rect x="-0.0650" y="-2.8201" width="0.1300" height="4.1339" ry="0.0400" fill="currentColor"/>
</g>
<g transform="translate(58.2863, 20.6906)">
<rect x="-0.0650" y="-1.9899" width="0.1300" height="2.3037" ry="0.0400" fill="currentColor"/>
</g>
<g transform="translate(26.8309, 17.1906)">
<polygon stroke-linejoin="round" stroke-linecap="round" stroke-width="0.0800" fill="currentColor" stroke="currentColor" points="7.6026 1.3000 7.6026 1.7000 0.0400 0.2000 0.0400 -0.2000"/>
</g>
<g transform="translate(26.8309, 18.0006)">
<polygon stroke-linejoin="round" stroke-linecap="round" stroke-width="0.0800" fill="currentColor" stroke="currentColor" points="7.6026 1.3000 7.6026 1.7000 0.0400 0.2000 0.0400 -0.2000"/>
</g>
<g transform="translate(59.5513, 11.6906)">
<path transform="scale(0.0040, -0.0040)" d="M0 -46c0 91 116 182 217 182c63 0 109 -35 109 -90c0 -87 -110 -182 -220 -182c-67 0 -106 39 -106 90z" fill="currentColor"/>
</g>
<g transform="translate(59.5513, 22.6906)">
<path transform="scale(0.0040, -0.0040)" d="M0 -46c0 91 116 182 217 182c63 0 109 -35 109 -90c0 -87 -110 -182 -220 -182c-67 0 -106 39 -106 90z" fill="currentColor"/>
</g>
<g transform="translate(60.7905, 11.6906)">
<rect x="-0.0650" y="-3.2100" width="0.1300" height="3.0238" ry="0.0400" fill="currentColor"/>
</g>
<g transform="translate(60.7905, 20.6906)">
<rect x="-0.0650" y="-1.6000" width="0.1300" height="3.4138" ry="0.0400" fill="currentColor"/>
</g>
<g transform="translate(26.8309, 9.8806)">
<polygon stroke-linejoin="round" stroke-linecap="round" stroke-width="0.0800" fill="currentColor" stroke="currentColor" points="7.6026 -1.3900 7.6026 -0.9900 0.0400 0.2000 0.0400 -0.2000"/>
</g>
<g transform="translate(26.8309, 10.6906)">
<polygon stroke-linejoin="round" stroke-linecap="round" stroke-width="0.0800" fill="currentColor" stroke="currentColor" points="7.6026 -1.3900 7.6026 -0.9900 0.0400 0.2000 0.0400 -0.2000"/>
</g>
<g transform="translate(62.0555, 11.1906)">
<path transform="scale(0.0040, -0.0040)" d="M0 -46c0 91 116 182 217 182c63 0 109 -35 109 -90c0 -87 -110 -182 -220 -182c-67 0 -106 39 -106 90z" fill="currentColor"/>
</g>
<g transform="translate(62.0555, 23.1906)">
<path transform="scale(0.0040, -0.0040)" d="M0 -46c0 91 116 182 217 182c63 0 109 -35 109 -90c0 -87 -110 -182 -220 -182c-67 0 -106 39 -106 90z" fill="currentColor"/>
</g>
<g transform="translate(63.2947, 11.6906)">
<rect x="-0.0650" y="-3.6000" width="0.1300" height="2.9138" ry="0.0400" fill="currentColor"/>
</g>
<g transform="translate(63.2947, 20.6906)">
<rect x="-0.0650" y="-1.2100" width="0.1300" height="3.5238" ry="0.0400" fill="currentColor"/>
</g>
<g transform="translate(64.5597, 10.6906)">
<path transform="scale(0.0040, -0.0040)" d="M0 -46c0 91 116 182 217 182c63 0 109 -35 109 -90c0 -87 -110 -182 -220 -182c-67 0 -106 39 -106 90z" fill="currentColor"/>
</g>
<g transform="translate(64.5597, 23.6906)">
<path transform="scale(0.0040, -0.0040)" d="M0 -46c0 91 116 182 217 182c63 0 109 -35 109 -90c0 -87 -110 -182 -220 -182c-67 0 -106 39 -106 90z" fill="currentColor"/>
</g>
<g transform="translate(65.7989, 11.6906)">
<rect x="-0.0650" y="-3.9899" width="0.1300" height="2.8037" ry="0.0400" fill="currentColor"/>
</g>
<g transform="translate(65.7989, 20.6906)">
<rect x="-0.0650" y="-0.8201" width="0.1300" height="3.6339" ry="0.0400" fill="currentColor"/>
</g>
<g transform="translate(68.3079, 10.6906)">
<path transform="scale(0.0040, -0.0040)" d="M0 -46c0 91 116 182 217 182c63 0 109 -35 109 -90c0 -87 -110 -182 -220 -182c-67 0 -106 39 -106 90z" fill="currentColor"/>
</g>
<g transform="translate(68.3079, 23.6906)">
<path transform="scale(0.0040, -0.0040)" d="M0 -46c0 91 116 182 217 182c63 0 109 -35 109 -90c0 -87 -110 -182 -220 -182c-67 0 -106 39 -106 90z" fill="currentColor"/>
</g>
<g transform="translate(17.0117, 16.1906)">
<rect x="0.0000" y="-6.5500" width="0.1600" height="13.1000" ry="0.0500" fill="currentColor"/>
</g>
<g transform="translate(69.5471, 11.6906)">
<rect x="-0.0650" y="-3.9907" width="0.1300" height="2.8045" ry="0.0400" fill="currentColor"/>
</g>
<g transform="translate(69.5471, 20.6906)">
<rect x="-0.0650" y="-0.8193" width="0.1300" height="3.6331" ry="0.0400" fill="currentColor"/>
</g>
<g transform="translate(100.8725, 18.6906)">
<polygon stroke-linejoin="round" stroke-linecap="round" stroke-width="0.0800" fill="currentColor" stroke="currentColor" points="7.6026 -1.7000 7.6026 -1.3000 0.0400 0.2000 0.0400 -0.2000"/>
</g>
<g transform="translate(100.8725, 19.5006)">
<polygon stroke-linejoin="round" stroke-linecap="round" stroke-width="0.0800" fill="currentColor" stroke="currentColor" points="7.6026 -1.7000 7.6026 -1.3000 0.0400 0.2000 0.0400 -0.2000"/>
</g>
<g transform="translate(16.7117, 16.1906)">
<path transform="scale(0.0040, -0.0040)" d="M-84 -360c0 252 -129 357 -129 360c0 21 129 93 129 360c0 246 -105 537 -105 807c0 339 183 474 189 474c9 0 15 -6 15 -15c0 -24 -132 -93 -132 -366c0 -243 99 -525 99 -792c0 -168 -39 -330 -171 -468c132 -138 171 -300 171 -468c0 -267 -99 -549 -99 -792
c0 -273 132 -342 132 -366c0 -9 -6 -15 -15 -15c-6 0 -189 135 -189 474c0 270 105 561 105 807z" fill="currentColor"/>
</g>
<g transform="translate(70.8121, 11.1906)">
<path transform="scale(0.0040, -0.0040)" d="M0 -46c0 91 116 182 217 182c63 0 109 -35 109 -90c0 -87 -110 -182 -220 -182c-67 0 -106 39 -106 90z" fill="currentColor"/>
</g>
<g transform="translate(70.8121, 23.1906)">
<path transform="scale(0.0040, -0.0040)" d="M0 -46c0 91 116 182 217 182c63 0 109 -35 109 -90c0 -87 -110 -182 -220 -182c-67 0 -106 39 -106 90z" fill="currentColor"/>
</g>
<g transform="translate(72.0513, 11.6906)">
<rect x="-0.0650" y="-3.6322" width="0.1300" height="2.9460" ry="0.0400" fill="currentColor"/>
</g>
<g transform="translate(72.0513, 20.6906)">
<rect x="-0.0650" y="-1.1778" width="0.1300" height="3.4916" ry="0.0400" fill="currentColor"/>
</g>
<g transform="translate(73.9863, 11.6906)">
<path transform="scale(0.0040, -0.0040)" d="M0 -46c0 91 116 182 217 182c63 0 109 -35 109 -90c0 -87 -110 -182 -220 -182c-67 0 -106 39 -106 90z" fill="currentColor"/>
</g>
<g transform="translate(73.9863, 22.6906)">
<path transform="scale(0.0040, -0.0040)" d="M0 -46c0 91 116 182 217 182c63 0 109 -35 109 -90c0 -87 -110 -182 -220 -182c-67 0 -106 39 -106 90z" fill="currentColor"/>
</g>
<g transform="translate(75.2255, 11.6906)">
<rect x="-0.0650" y="-3.1778" width="0.1300" height="2.9916" ry="0.0400" fill="currentColor"/>
</g>
<g transform="translate(75.2255, 20.6906)">
<rect x="-0.0650" y="-1.6322" width="0.1300" height="3.4460" ry="0.0400" fill="currentColor"/>
</g>
<g transform="translate(72.8363, 22.6906)">
<path transform="scale(0.0040, -0.0040)" d="M27 41l-1 -66v-11c0 -22 1 -44 4 -66c45 38 93 80 93 139c0 33 -14 67 -43 67c-31 0 -52 -30 -53 -63zM-15 -138l-12 595c8 5 18 8 27 8s19 -3 27 -8l-7 -345c25 21 58 34 91 34c52 0 89 -48 89 -102c0 -80 -86 -117 -147 -169c-15 -13 -24 -38 -45 -38
c-13 0 -23 11 -23 25z" fill="currentColor"/>
</g>
<g transform="translate(76.4905, 13.1906)">
<path transform="scale(0.0040, -0.0040)" d="M0 -46c0 91 116 182 217 182c63 0 109 -35 109 -90c0 -87 -110 -182 -220 -182c-67 0 -106 39 -106 90z" fill="currentColor"/>
</g>
<g transform="translate(76.4905, 21.1906)">
<path transform="scale(0.0040, -0.0040)" d="M0 -46c0 91 116 182 217 182c63 0 109 -35 109 -90c0 -87 -110 -182 -220 -182c-67 0 -106 39 -106 90z" fill="currentColor"/>
</g>
<g transform="translate(77.7297, 11.6906)">
<rect x="-0.0650" y="-2.8193" width="0.1300" height="4.1331" ry="0.0400" fill="currentColor"/>
</g>
<g transform="translate(77.7297, 20.6906)">
<rect x="-0.0650" y="-1.9907" width="0.1300" height="2.3045" ry="0.0400" fill="currentColor"/>
</g>
<g transform="translate(78.9947, 11.1906)">
<path transform="scale(0.0040, -0.0040)" d="M0 -46c0 91 116 182 217 182c63 0 109 -35 109 -90c0 -87 -110 -182 -220 -182c-67 0 -106 39 -106 90z" fill="currentColor"/>
</g>
<g transform="translate(78.9947, 23.1906)">
<path transform="scale(0.0040, -0.0040)" d="M0 -46c0 91 116 182 217 182c63 0 109 -35 109 -90c0 -87 -110 -182 -220 -182c-67 0 -106 39 -106 90z" fill="currentColor"/>
</g>
<g transform="translate(80.2339, 11.6906)">
<rect x="-0.0650" y="-3.4883" width="0.1300" height="2.8021" ry="0.0400" fill="currentColor"/>
</g>
<g transform="translate(80.2339, 20.6906)">
<rect x="-0.0650" y="-2.8208" width="0.1300" height="5.1346" ry="0.0400" fill="currentColor"/>
</g>
<g transform="translate(81.4989, 11.6906)">
<path transform="scale(0.0040, -0.0040)" d="M0 -46c0 91 116 182 217 182c63 0 109 -35 109 -90c0 -87 -110 -182 -220 -182c-67 0 -106 39 -106 90z" fill="currentColor"/>
</g>
<g transform="translate(81.4989, 22.6906)">
<path transform="scale(0.0040, -0.0040)" d="M0 -46c0 91 116 182 217 182c63 0 109 -35 109 -90c0 -87 -110 -182 -220 -182c-67 0 -106 39 -106 90z" fill="currentColor"/>
</g>
<g transform="translate(82.7381, 11.6906)">
<rect x="-0.0650" y="-3.0364" width="0.1300" height="2.8502" ry="0.0400" fill="currentColor"/>
</g>
<g transform="translate(82.7381, 20.6906)">
<rect x="-0.0650" y="-3.2365" width="0.1300" height="5.0503" ry="0.0400" fill="currentColor"/>
</g>
<g transform="translate(84.0031, 12.1906)">
<path transform="scale(0.0040, -0.0040)" d="M0 -46c0 91 116 182 217 182c63 0 109 -35 109 -90c0 -87 -110 -182 -220 -182c-67 0 -106 39 -106 90z" fill="currentColor"/>
</g>
<g transform="translate(84.0031, 22.1906)">
<path transform="scale(0.0040, -0.0040)" d="M0 -46c0 91 116 182 217 182c63 0 109 -35 109 -90c0 -87 -110 -182 -220 -182c-67 0 -106 39 -106 90z" fill="currentColor"/>
</g>
<g transform="translate(85.2423, 11.6906)">
<rect x="-0.0650" y="-2.5845" width="0.1300" height="2.8983" ry="0.0400" fill="currentColor"/>
</g>
<g transform="translate(85.2423, 20.6906)">
<rect x="-0.0650" y="-3.6523" width="0.1300" height="4.9661" ry="0.0400" fill="currentColor"/>
</g>
<g transform="translate(87.1773, 13.6906)">
<path transform="scale(0.0040, -0.0040)" d="M0 -46c0 91 116 182 217 182c63 0 109 -35 109 -90c0 -87 -110 -182 -220 -182c-67 0 -106 39 -106 90z" fill="currentColor"/>
</g>
<g transform="translate(87.1773, 20.6906)">
<path transform="scale(0.0040, -0.0040)" d="M0 -46c0 91 116 182 217 182c63 0 109 -35 109 -90c0 -87 -110 -182 -220 -182c-67 0 -106 39 -106 90z" fill="currentColor"/>
</g>
<g transform="translate(88.4165, 11.6906)">
<rect x="-0.0650" y="-2.0117" width="0.1300" height="3.8255" ry="0.0400" fill="currentColor"/>
</g>
<g transform="translate(88.4165, 20.6906)">
<rect x="-0.0650" y="-4.1792" width="0.1300" height="3.9930" ry="0.0400" fill="currentColor"/>
</g>
<g transform="translate(86.0273, 20.6906)">
<path transform="scale(0.0040, -0.0040)" d="M27 41l-1 -66v-11c0 -22 1 -44 4 -66c45 38 93 80 93 139c0 33 -14 67 -43 67c-31 0 -52 -30 -53 -63zM-15 -138l-12 595c8 5 18 8 27 8s19 -3 27 -8l-7 -345c25 21 58 34 91 34c52 0 89 -48 89 -102c0 -80 -86 -117 -147 -169c-15 -13 -24 -38 -45 -38
c-13 0 -23 11 -23 25z" fill="currentColor"/>
</g>
<g transform="translate(89.6815, 11.6906)">
<path transform="scale(0.0040, -0.0040)" d="M0 -46c0 91 116 182 217 182c63 0 109 -35 109 -90c0 -87 -110 -182 -220 -182c-67 0 -106 39 -106 90z" fill="currentColor"/>
</g>
<g transform="translate(89.6815, 22.6906)">
<path transform="scale(0.0040, -0.0040)" d="M0 -46c0 91 116 182 217 182c63 0 109 -35 109 -90c0 -87 -110 -182 -220 -182c-67 0 -106 39 -106 90z" fill="currentColor"/>
</g>
<g transform="translate(90.9207, 11.6906)">
<rect x="-0.0650" y="-2.9899" width="0.1300" height="2.8037" ry="0.0400" fill="currentColor"/>
</g>
<g transform="translate(90.9207, 20.6906)">
<rect x="-0.0650" y="-2.0128" width="0.1300" height="3.8266" ry="0.0400" fill="currentColor"/>
</g>
<g transform="translate(92.1857, 12.1906)">
<path transform="scale(0.0040, -0.0040)" d="M0 -46c0 91 116 182 217 182c63 0 109 -35 109 -90c0 -87 -110 -182 -220 -182c-67 0 -106 39 -106 90z" fill="currentColor"/>
</g>
<g transform="translate(92.1857, 22.1906)">
<path transform="scale(0.0040, -0.0040)" d="M0 -46c0 91 116 182 217 182c63 0 109 -35 109 -90c0 -87 -110 -182 -220 -182c-67 0 -106 39 -106 90z" fill="currentColor"/>
</g>
<g transform="translate(93.4249, 11.6906)">
<rect x="-0.0650" y="-2.6000" width="0.1300" height="2.9138" ry="0.0400" fill="currentColor"/>
</g>
<g transform="translate(93.4249, 20.6906)">
<rect x="-0.0650" y="-2.5043" width="0.1300" height="3.8181" ry="0.0400" fill="currentColor"/>
</g>
<g transform="translate(94.6899, 12.6906)">
<path transform="scale(0.0040, -0.0040)" d="M0 -46c0 91 116 182 217 182c63 0 109 -35 109 -90c0 -87 -110 -182 -220 -182c-67 0 -106 39 -106 90z" fill="currentColor"/>
</g>
<g transform="translate(94.6899, 21.6906)">
<path transform="scale(0.0040, -0.0040)" d="M0 -46c0 91 116 182 217 182c63 0 109 -35 109 -90c0 -87 -110 -182 -220 -182c-67 0 -106 39 -106 90z" fill="currentColor"/>
</g>
<g transform="translate(95.9291, 11.6906)">
<rect x="-0.0650" y="-2.2100" width="0.1300" height="3.0238" ry="0.0400" fill="currentColor"/>
</g>
<g transform="translate(95.9291, 20.6906)">
<rect x="-0.0650" y="-2.9957" width="0.1300" height="3.8095" ry="0.0400" fill="currentColor"/>
</g>
<g transform="translate(97.1941, 14.1906)">
<path transform="scale(0.0040, -0.0040)" d="M0 -46c0 91 116 182 217 182c63 0 109 -35 109 -90c0 -87 -110 -182 -220 -182c-67 0 -106 39 -106 90z" fill="currentColor"/>
</g>
<g transform="translate(97.1941, 20.1906)">
<path transform="scale(0.0040, -0.0040)" d="M0 -46c0 91 116 182 217 182c63 0 109 -35 109 -90c0 -87 -110 -182 -220 -182c-67 0 -106 39 -106 90z" fill="currentColor"/>
</g>
<g transform="translate(98.4333, 11.6906)">
<rect x="-0.0650" y="-1.8201" width="0.1300" height="4.1339" ry="0.0400" fill="currentColor"/>
</g>
<g transform="translate(98.4333, 20.6906)">
<rect x="-0.0650" y="-3.4872" width="0.1300" height="2.8010" ry="0.0400" fill="currentColor"/>
</g>
<g transform="translate(99.6983, 12.1906)">
<path transform="scale(0.0040, -0.0040)" d="M0 -46c0 91 116 182 217 182c63 0 109 -35 109 -90c0 -87 -110 -182 -220 -182c-67 0 -106 39 -106 90z" fill="currentColor"/>
</g>
<g transform="translate(99.6983, 22.1906)">
<path transform="scale(0.0040, -0.0040)" d="M0 -46c0 91 116 182 217 182c63 0 109 -35 109 -90c0 -87 -110 -182 -220 -182c-67 0 -106 39 -106 90z" fill="currentColor"/>
</g>
<g transform="translate(100.9375, 11.6906)">
<rect x="-0.0650" y="-2.9899" width="0.1300" height="3.3037" ry="0.0400" fill="currentColor"/>
</g>
<g transform="translate(100.9375, 20.6906)">
<rect x="-0.0650" y="-2.0128" width="0.1300" height="3.3266" ry="0.0400" fill="currentColor"/>
</g>
<g transform="translate(102.2025, 12.6906)">
<path transform="scale(0.0040, -0.0040)" d="M0 -46c0 91 116 182 217 182c63 0 109 -35 109 -90c0 -87 -110 -182 -220 -182c-67 0 -106 39 -106 90z" fill="currentColor"/>
</g>
<g transform="translate(102.2025, 21.6906)">
<path transform="scale(0.0040, -0.0040)" d="M0 -46c0 91 116 182 217 182c63 0 109 -35 109 -90c0 -87 -110 -182 -220 -182c-67 0 -106 39 -106 90z" fill="currentColor"/>
</g>
<g transform="translate(103.4417, 11.6906)">
<rect x="-0.0650" y="-2.6000" width="0.1300" height="3.4138" ry="0.0400" fill="currentColor"/>
</g>
<g transform="translate(103.4417, 20.6906)">
<rect x="-0.0650" y="-2.5043" width="0.1300" height="3.3181" ry="0.0400" fill="currentColor"/>
</g>
<g transform="translate(104.7067, 13.1906)">
<path transform="scale(0.0040, -0.0040)" d="M0 -46c0 91 116 182 217 182c63 0 109 -35 109 -90c0 -87 -110 -182 -220 -182c-67 0 -106 39 -106 90z" fill="currentColor"/>
</g>
<g transform="translate(104.7067, 21.1906)">
<path transform="scale(0.0040, -0.0040)" d="M0 -46c0 91 116 182 217 182c63 0 109 -35 109 -90c0 -87 -110 -182 -220 -182c-67 0 -106 39 -106 90z" fill="currentColor"/>
</g>
<g transform="translate(105.9459, 11.6906)">
<rect x="-0.0650" y="-2.2100" width="0.1300" height="3.5238" ry="0.0400" fill="currentColor"/>
</g>
<g transform="translate(105.9459, 20.6906)">
<rect x="-0.0650" y="-2.9957" width="0.1300" height="3.3095" ry="0.0400" fill="currentColor"/>
</g>
<g transform="translate(107.2109, 14.6906)">
<path transform="scale(0.0040, -0.0040)" d="M0 -46c0 91 116 182 217 182c63 0 109 -35 109 -90c0 -87 -110 -182 -220 -182c-67 0 -106 39 -106 90z" fill="currentColor"/>
</g>
<g transform="translate(107.2109, 19.6906)">
<path transform="scale(0.0040, -0.0040)" d="M0 -46c0 91 116 182 217 182c63 0 109 -35 109 -90c0 -87 -110 -182 -220 -182c-67 0 -106 39 -106 90z" fill="currentColor"/>
</g>
<g transform="translate(108.4501, 11.6906)">
<rect x="-0.0650" y="-1.8201" width="0.1300" height="4.6339" ry="0.0400" fill="currentColor"/>
</g>
<g transform="translate(108.4501, 20.6906)">
<rect x="-0.0650" y="-3.4872" width="0.1300" height="2.3010" ry="0.0400" fill="currentColor"/>
</g>
<g transform="translate(51.5735, 162.8440)">
<a xlink:href="https://lilypond.org">
<rect x="0.0000" y="-0.4748" width="16.3546" height="2.0024" fill="none" stroke="none" stroke-width="0.0"/>
</a>
</g>
<g transform="translate(51.5735, 162.8440)">
<text font-family="serif" font-size="2.2000" text-anchor="start" fill="currentColor">
<tspan>LilyPond v2.25.24</tspan>
</text>
</g>
</svg>
