<svg xmlns="http://www.w3.org/2000/svg" xmlns:xlink="http://www.w3.org/1999/xlink" version="1.2" width="210.00mm" height="297.00mm" viewBox="0.0000 -0.0000 159.3354 225.3458">
<style type="text/css">
<![CDATA[
tspan { white-space: pre; }
]]>
</style>
<g transform="translate(7.5874, 5.8547)">
<rect x="137.2901" y="-0.1110" width="1.9513" height="0.2219" ry="0.1110" fill="currentColor"/>
</g>
<g transform="translate(7.5874, 6.8547)">
<rect x="137.2901" y="-0.1110" width="1.9513" height="0.2219" ry="0.1110" fill="currentColor"/>
</g>
<g transform="translate(7.5874, 6.8547)">
<rect x="132.9897" y="-0.1110" width="1.9513" height="0.2219" ry="0.1110" fill="currentColor"/>
</g>
<g transform="translate(7.5874, 6.8547)">
<rect x="128.6893" y="-0.1110" width="1.9513" height="0.2219" ry="0.1110" fill="currentColor"/>
</g>
<g transform="translate(7.5874, 12.8547)">
<rect x="77.0730" y="-0.1110" width="1.9513" height="0.2219" ry="0.1110" fill="currentColor"/>
</g>
<g transform="translate(18.9685, 11.8547)">
<line stroke-linejoin="round" stroke-linecap="round" stroke-width="0.1219" stroke="currentColor" x1="0.0610" y1="0" x2="130.4737" y2="0"/>
</g>
<g transform="translate(18.9685, 10.8547)">
<line stroke-linejoin="round" stroke-linecap="round" stroke-width="0.1219" stroke="currentColor" x1="0.0610" y1="0" x2="130.4737" y2="0"/>
</g>
<g transform="translate(18.9685, 9.8547)">
<line stroke-linejoin="round" stroke-linecap="round" stroke-width="0.1219" stroke="currentColor" x1="0.0610" y1="0" x2="130.4737" y2="0"/>
</g>
<g transform="translate(18.9685, 8.8547)">
<line stroke-linejoin="round" stroke-linecap="round" stroke-width="0.1219" stroke="currentColor" x1="0.0610" y1="0" x2="130.4737" y2="0"/>
</g>
<g transform="translate(18.9685, 7.8547)">
<line stroke-linejoin="round" stroke-linecap="round" stroke-width="0.1219" stroke="currentColor" x1="0.0610" y1="0" x2="130.4737" y2="0"/>
</g>
<g transform="translate(18.9685, 20.8547)">
<line stroke-linejoin="round" stroke-linecap="round" stroke-width="0.1219" stroke="currentColor" x1="0.0610" y1="0" x2="130.4737" y2="0"/>
</g>
<g transform="translate(18.9685, 19.8547)">
<line stroke-linejoin="round" stroke-linecap="round" stroke-width="0.1219" stroke="currentColor" x1="0.0610" y1="0" x2="130.4737" y2="0"/>
</g>
<g transform="translate(18.9685, 18.8547)">
<line stroke-linejoin="round" stroke-linecap="round" stroke-width="0.1219" stroke="currentColor" x1="0.0610" y1="0" x2="130.4737" y2="0"/>
</g>
<g transform="translate(18.9685, 17.8547)">
<line stroke-linejoin="round" stroke-linecap="round" stroke-width="0.1219" stroke="currentColor" x1="0.0610" y1="0" x2="130.4737" y2="0"/>
</g>
<g transform="translate(18.9685, 16.8547)">
<line stroke-linejoin="round" stroke-linecap="round" stroke-width="0.1219" stroke="currentColor" x1="0.0610" y1="0" x2="130.4737" y2="0"/>
</g>
<g transform="translate(7.5874, 21.8547)">
<rect x="25.4567" y="-0.1110" width="1.9513" height="0.2219" ry="0.1110" fill="currentColor"/>
</g>
<g transform="translate(7.5874, 21.8547)">
<rect x="21.1563" y="-0.1110" width="1.9513" height="0.2219" ry="0.1110" fill="currentColor"/>
</g>
<g transform="translate(7.5874, 21.8547)">
<rect x="16.8559" y="-0.1110" width="1.9513" height="0.2219" ry="0.1110" fill="currentColor"/>
</g>
<g transform="translate(7.5874, 22.8547)">
<rect x="16.8559" y="-0.1110" width="1.9513" height="0.2219" ry="0.1110" fill="currentColor"/>
</g>
<g transform="translate(18.5735, 14.3547)">
<path transform="scale(0.0040, -0.0040)" d="M-189 -1146c0 267 108 528 108 780c0 135 -33 261 -129 360c-3 3 -3 3 -3 6s0 3 3 6c96 99 129 225 129 360c0 252 -108 513 -108 780c0 189 45 366 177 501c15 15 39 -9 24 -24c-99 -99 -129 -225 -129 -360c0 -249 102 -504 102 -765c0 -186 -45 -363 -174 -498
c129 -135 174 -312 174 -498c0 -261 -102 -516 -102 -765c0 -135 30 -261 129 -360c15 -15 -9 -39 -24 -24c-132 135 -177 312 -177 501z" fill="currentColor"/>
</g>
<g transform="translate(18.8735, 14.3547)">
<rect x="0.0000" y="-6.5610" width="0.1950" height="13.1219" ry="0.0610" fill="currentColor"/>
</g>
<g transform="translate(19.7685, 10.8547)">
<path transform="scale(0.0040, -0.0040)" d="M379 264c3 0 7 1 10 1c157 0 258 -129 258 -263c0 -77 -33 -155 -108 -211c-22 -16 -46 -29 -72 -37c3 -33 4 -66 4 -99c0 -21 0 -41 -1 -62c-7 -121 -91 -229 -211 -229c-108 0 -196 88 -196 197c0 58 54 103 113 103c54 0 95 -47 95 -103c0 -52 -43 -95 -95 -95
c-9 0 -18 1 -27 4c25 -37 66 -61 113 -61c95 0 156 93 162 191c1 19 2 38 2 57c0 29 -1 58 -3 87c-29 -5 -58 -8 -88 -8c-189 0 -333 173 -333 376c0 177 129 308 244 443c-20 62 -40 124 -48 189c-7 52 -7 105 -7 158c0 114 54 221 147 288c8 6 18 5 25 -1
c72 -83 135 -243 135 -356c0 -142 -84 -255 -176 -364c21 -68 40 -136 57 -205zM463 -201c65 24 110 94 110 161c0 88 -64 175 -167 188c24 -114 44 -227 57 -349zM77 25c0 -133 128 -243 261 -243c27 0 55 1 81 5c-13 126 -35 244 -60 362c-79 -8 -124 -60 -124 -118
c0 -43 25 -88 80 -120c5 -5 7 -11 7 -17c0 -12 -10 -23 -23 -23c-3 0 -7 1 -10 2c-81 43 -118 115 -118 186c0 89 60 177 163 200c-14 57 -30 113 -47 169c-105 -122 -210 -243 -210 -403zM242 784c0 -71 21 -130 39 -188c78 97 142 199 142 324c0 51 -4 72 -20 118
c-99 -46 -161 -145 -161 -254z" fill="currentColor"/>
</g>
<g transform="translate(24.7685, 22.8547)">
<path transform="scale(0.0040, -0.0040)" d="M212 138c59 0 113 -31 113 -95c0 -71 -52 -120 -99 -148c-34 -21 -73 -33 -113 -33c-59 0 -113 31 -113 95c0 71 53 120 100 148c34 21 72 33 112 33z" fill="currentColor"/>
</g>
<g transform="translate(24.7685, 26.9156)">
<text font-family="serif" font-size="2.1999" text-anchor="start" fill="currentColor">
<tspan>-14</tspan>
</text>
</g>
<g transform="translate(19.7685, 17.8547)">
<path transform="scale(0.0040, -0.0040)" d="M558 -125c0 28 22 50 50 50s50 -22 50 -50s-22 -50 -50 -50s-50 22 -50 50zM558 125c0 28 22 50 50 50s50 -22 50 -50s-22 -50 -50 -50s-50 22 -50 50zM231 265c173 0 294 -88 294 -252c0 -263 -263 -415 -515 -523c-3 -3 -7 -5 -10 -5c-8 0 -15 7 -15 15c0 3 2 7 5 10
c200 118 407 264 407 491c0 119 -59 234 -166 234c-70 0 -119 -51 -142 -120c8 2 15 4 23 4c55 0 100 -45 100 -100c0 -58 -44 -106 -100 -106c-60 0 -112 47 -112 106c0 133 101 246 231 246z" fill="currentColor"/>
</g>
<g transform="translate(29.0689, 22.3547)">
<path transform="scale(0.0040, -0.0040)" d="M212 138c59 0 113 -31 113 -95c0 -71 -52 -120 -99 -148c-34 -21 -73 -33 -113 -33c-59 0 -113 31 -113 95c0 71 53 120 100 148c34 21 72 33 112 33z" fill="currentColor"/>
</g>
<g transform="translate(29.0689, 26.9156)">
<text font-family="serif" font-size="2.1999" text-anchor="start" fill="currentColor">
<tspan>-13</tspan>
</text>
</g>
<g transform="translate(33.3693, 21.8547)">
<path transform="scale(0.0040, -0.0040)" d="M212 138c59 0 113 -31 113 -95c0 -71 -52 -120 -99 -148c-34 -21 -73 -33 -113 -33c-59 0 -113 31 -113 95c0 71 53 120 100 148c34 21 72 33 112 33z" fill="currentColor"/>
</g>
<g transform="translate(33.3693, 26.9156)">
<text font-family="serif" font-size="2.1999" text-anchor="start" fill="currentColor">
<tspan>-12</tspan>
</text>
</g>
<g transform="translate(37.6698, 21.3547)">
<path transform="scale(0.0040, -0.0040)" d="M212 138c59 0 113 -31 113 -95c0 -71 -52 -120 -99 -148c-34 -21 -73 -33 -113 -33c-59 0 -113 31 -113 95c0 71 53 120 100 148c34 21 72 33 112 33z" fill="currentColor"/>
</g>
<g transform="translate(37.6698, 26.9156)">
<text font-family="serif" font-size="2.1999" text-anchor="start" fill="currentColor">
<tspan>-11</tspan>
</text>
</g>
<g transform="translate(41.9702, 20.8547)">
<path transform="scale(0.0040, -0.0040)" d="M212 138c59 0 113 -31 113 -95c0 -71 -52 -120 -99 -148c-34 -21 -73 -33 -113 -33c-59 0 -113 31 -113 95c0 71 53 120 100 148c34 21 72 33 112 33z" fill="currentColor"/>
</g>
<g transform="translate(41.9702, 26.9156)">
<text font-family="serif" font-size="2.1999" text-anchor="start" fill="currentColor">
<tspan>-10</tspan>
</text>
</g>
<g transform="translate(46.2706, 20.3547)">
<path transform="scale(0.0040, -0.0040)" d="M212 138c59 0 113 -31 113 -95c0 -71 -52 -120 -99 -148c-34 -21 -73 -33 -113 -33c-59 0 -113 31 -113 95c0 71 53 120 100 148c34 21 72 33 112 33z" fill="currentColor"/>
</g>
<g transform="translate(46.2706, 26.9156)">
<text font-family="serif" font-size="2.1999" text-anchor="start" fill="currentColor">
<tspan>-9</tspan>
</text>
</g>
<g transform="translate(50.5710, 19.8547)">
<path transform="scale(0.0040, -0.0040)" d="M212 138c59 0 113 -31 113 -95c0 -71 -52 -120 -99 -148c-34 -21 -73 -33 -113 -33c-59 0 -113 31 -113 95c0 71 53 120 100 148c34 21 72 33 112 33z" fill="currentColor"/>
</g>
<g transform="translate(50.5710, 26.9156)">
<text font-family="serif" font-size="2.1999" text-anchor="start" fill="currentColor">
<tspan>-8</tspan>
</text>
</g>
<g transform="translate(54.8714, 19.3547)">
<path transform="scale(0.0040, -0.0040)" d="M212 138c59 0 113 -31 113 -95c0 -71 -52 -120 -99 -148c-34 -21 -73 -33 -113 -33c-59 0 -113 31 -113 95c0 71 53 120 100 148c34 21 72 33 112 33z" fill="currentColor"/>
</g>
<g transform="translate(54.8714, 26.9156)">
<text font-family="serif" font-size="2.1999" text-anchor="start" fill="currentColor">
<tspan>-7</tspan>
</text>
</g>
<g transform="translate(59.1831, 18.8547)">
<path transform="scale(0.0040, -0.0040)" d="M212 138c59 0 113 -31 113 -95c0 -71 -52 -120 -99 -148c-34 -21 -73 -33 -113 -33c-59 0 -113 31 -113 95c0 71 53 120 100 148c34 21 72 33 112 33z" fill="currentColor"/>
</g>
<g transform="translate(59.1831, 26.9156)">
<text font-family="serif" font-size="2.1999" text-anchor="start" fill="currentColor">
<tspan>-6</tspan>
</text>
</g>
<g transform="translate(63.4835, 18.3547)">
<path transform="scale(0.0040, -0.0040)" d="M212 138c59 0 113 -31 113 -95c0 -71 -52 -120 -99 -148c-34 -21 -73 -33 -113 -33c-59 0 -113 31 -113 95c0 71 53 120 100 148c34 21 72 33 112 33z" fill="currentColor"/>
</g>
<g transform="translate(63.4835, 26.9156)">
<text font-family="serif" font-size="2.1999" text-anchor="start" fill="currentColor">
<tspan>-5</tspan>
</text>
</g>
<g transform="translate(67.7839, 17.8547)">
<path transform="scale(0.0040, -0.0040)" d="M212 138c59 0 113 -31 113 -95c0 -71 -52 -120 -99 -148c-34 -21 -73 -33 -113 -33c-59 0 -113 31 -113 95c0 71 53 120 100 148c34 21 72 33 112 33z" fill="currentColor"/>
</g>
<g transform="translate(67.7839, 26.9156)">
<text font-family="serif" font-size="2.1999" text-anchor="start" fill="currentColor">
<tspan>-4</tspan>
</text>
</g>
<g transform="translate(145.2027, 26.9156)">
<text font-family="serif" font-size="2.1999" text-anchor="start" fill="currentColor">
<tspan>14</tspan>
</text>
</g>
<g transform="translate(72.0844, 17.3547)">
<path transform="scale(0.0040, -0.0040)" d="M212 138c59 0 113 -31 113 -95c0 -71 -52 -120 -99 -148c-34 -21 -73 -33 -113 -33c-59 0 -113 31 -113 95c0 71 53 120 100 148c34 21 72 33 112 33z" fill="currentColor"/>
</g>
<g transform="translate(72.0844, 26.9156)">
<text font-family="serif" font-size="2.1999" text-anchor="start" fill="currentColor">
<tspan>-3</tspan>
</text>
</g>
<g transform="translate(76.3848, 16.8547)">
<path transform="scale(0.0040, -0.0040)" d="M212 138c59 0 113 -31 113 -95c0 -71 -52 -120 -99 -148c-34 -21 -73 -33 -113 -33c-59 0 -113 31 -113 95c0 71 53 120 100 148c34 21 72 33 112 33z" fill="currentColor"/>
</g>
<g transform="translate(76.3848, 26.9156)">
<text font-family="serif" font-size="2.1999" text-anchor="start" fill="currentColor">
<tspan>-2</tspan>
</text>
</g>
<g transform="translate(145.2027, 5.8547)">
<path transform="scale(0.0040, -0.0040)" d="M212 138c59 0 113 -31 113 -95c0 -71 -52 -120 -99 -148c-34 -21 -73 -33 -113 -33c-59 0 -113 31 -113 95c0 71 53 120 100 148c34 21 72 33 112 33z" fill="currentColor"/>
</g>
<g transform="translate(80.6852, 16.3547)">
<path transform="scale(0.0040, -0.0040)" d="M212 138c59 0 113 -31 113 -95c0 -71 -52 -120 -99 -148c-34 -21 -73 -33 -113 -33c-59 0 -113 31 -113 95c0 71 53 120 100 148c34 21 72 33 112 33z" fill="currentColor"/>
</g>
<g transform="translate(80.6852, 26.9156)">
<text font-family="serif" font-size="2.1999" text-anchor="start" fill="currentColor">
<tspan>-1</tspan>
</text>
</g>
<g transform="translate(84.9856, 12.8547)">
<path transform="scale(0.0040, -0.0040)" d="M212 138c59 0 113 -31 113 -95c0 -71 -52 -120 -99 -148c-34 -21 -73 -33 -113 -33c-59 0 -113 31 -113 95c0 71 53 120 100 148c34 21 72 33 112 33z" fill="currentColor"/>
</g>
<g transform="translate(84.9856, 26.9156)">
<text font-family="serif" font-size="2.1999" text-anchor="start" fill="currentColor">
<tspan>0</tspan>
</text>
</g>
<g transform="translate(89.2860, 12.3547)">
<path transform="scale(0.0040, -0.0040)" d="M212 138c59 0 113 -31 113 -95c0 -71 -52 -120 -99 -148c-34 -21 -73 -33 -113 -33c-59 0 -113 31 -113 95c0 71 53 120 100 148c34 21 72 33 112 33z" fill="currentColor"/>
</g>
<g transform="translate(89.2860, 26.9156)">
<text font-family="serif" font-size="2.1999" text-anchor="start" fill="currentColor">
<tspan>1</tspan>
</text>
</g>
<g transform="translate(93.5865, 11.8547)">
<path transform="scale(0.0040, -0.0040)" d="M212 138c59 0 113 -31 113 -95c0 -71 -52 -120 -99 -148c-34 -21 -73 -33 -113 -33c-59 0 -113 31 -113 95c0 71 53 120 100 148c34 21 72 33 112 33z" fill="currentColor"/>
</g>
<g transform="translate(93.5865, 26.9156)">
<text font-family="serif" font-size="2.1999" text-anchor="start" fill="currentColor">
<tspan>2</tspan>
</text>
</g>
<g transform="translate(97.8869, 11.3547)">
<path transform="scale(0.0040, -0.0040)" d="M212 138c59 0 113 -31 113 -95c0 -71 -52 -120 -99 -148c-34 -21 -73 -33 -113 -33c-59 0 -113 31 -113 95c0 71 53 120 100 148c34 21 72 33 112 33z" fill="currentColor"/>
</g>
<g transform="translate(97.8869, 26.9156)">
<text font-family="serif" font-size="2.1999" text-anchor="start" fill="currentColor">
<tspan>3</tspan>
</text>
</g>
<g transform="translate(102.1873, 10.8547)">
<path transform="scale(0.0040, -0.0040)" d="M212 138c59 0 113 -31 113 -95c0 -71 -52 -120 -99 -148c-34 -21 -73 -33 -113 -33c-59 0 -113 31 -113 95c0 71 53 120 100 148c34 21 72 33 112 33z" fill="currentColor"/>
</g>
<g transform="translate(102.1873, 26.9156)">
<text font-family="serif" font-size="2.1999" text-anchor="start" fill="currentColor">
<tspan>4</tspan>
</text>
</g>
<g transform="translate(106.4877, 10.3547)">
<path transform="scale(0.0040, -0.0040)" d="M212 138c59 0 113 -31 113 -95c0 -71 -52 -120 -99 -148c-34 -21 -73 -33 -113 -33c-59 0 -113 31 -113 95c0 71 53 120 100 148c34 21 72 33 112 33z" fill="currentColor"/>
</g>
<g transform="translate(106.4877, 26.9156)">
<text font-family="serif" font-size="2.1999" text-anchor="start" fill="currentColor">
<tspan>5</tspan>
</text>
</g>
<g transform="translate(110.7881, 9.8547)">
<path transform="scale(0.0040, -0.0040)" d="M212 138c59 0 113 -31 113 -95c0 -71 -52 -120 -99 -148c-34 -21 -73 -33 -113 -33c-59 0 -113 31 -113 95c0 71 53 120 100 148c34 21 72 33 112 33z" fill="currentColor"/>
</g>
<g transform="translate(110.7881, 26.9156)">
<text font-family="serif" font-size="2.1999" text-anchor="start" fill="currentColor">
<tspan>6</tspan>
</text>
</g>
<g transform="translate(115.0886, 9.3547)">
<path transform="scale(0.0040, -0.0040)" d="M212 138c59 0 113 -31 113 -95c0 -71 -52 -120 -99 -148c-34 -21 -73 -33 -113 -33c-59 0 -113 31 -113 95c0 71 53 120 100 148c34 21 72 33 112 33z" fill="currentColor"/>
</g>
<g transform="translate(115.0886, 26.9156)">
<text font-family="serif" font-size="2.1999" text-anchor="start" fill="currentColor">
<tspan>7</tspan>
</text>
</g>
<g transform="translate(119.3890, 8.8547)">
<path transform="scale(0.0040, -0.0040)" d="M212 138c59 0 113 -31 113 -95c0 -71 -52 -120 -99 -148c-34 -21 -73 -33 -113 -33c-59 0 -113 31 -113 95c0 71 53 120 100 148c34 21 72 33 112 33z" fill="currentColor"/>
</g>
<g transform="translate(119.3890, 26.9156)">
<text font-family="serif" font-size="2.1999" text-anchor="start" fill="currentColor">
<tspan>8</tspan>
</text>
</g>
<g transform="translate(123.6894, 8.3547)">
<path transform="scale(0.0040, -0.0040)" d="M212 138c59 0 113 -31 113 -95c0 -71 -52 -120 -99 -148c-34 -21 -73 -33 -113 -33c-59 0 -113 31 -113 95c0 71 53 120 100 148c34 21 72 33 112 33z" fill="currentColor"/>
</g>
<g transform="translate(123.6894, 26.9156)">
<text font-family="serif" font-size="2.1999" text-anchor="start" fill="currentColor">
<tspan>9</tspan>
</text>
</g>
<g transform="translate(140.9023, 26.9156)">
<text font-family="serif" font-size="2.1999" text-anchor="start" fill="currentColor">
<tspan>13</tspan>
</text>
</g>
<g transform="translate(128.0011, 7.8547)">
<path transform="scale(0.0040, -0.0040)" d="M212 138c59 0 113 -31 113 -95c0 -71 -52 -120 -99 -148c-34 -21 -73 -33 -113 -33c-59 0 -113 31 -113 95c0 71 53 120 100 148c34 21 72 33 112 33z" fill="currentColor"/>
</g>
<g transform="translate(128.0011, 26.9156)">
<text font-family="serif" font-size="2.1999" text-anchor="start" fill="currentColor">
<tspan>10</tspan>
</text>
</g>
<g transform="translate(132.3015, 7.3547)">
<path transform="scale(0.0040, -0.0040)" d="M212 138c59 0 113 -31 113 -95c0 -71 -52 -120 -99 -148c-34 -21 -73 -33 -113 -33c-59 0 -113 31 -113 95c0 71 53 120 100 148c34 21 72 33 112 33z" fill="currentColor"/>
</g>
<g transform="translate(132.3015, 26.9156)">
<text font-family="serif" font-size="2.1999" text-anchor="start" fill="currentColor">
<tspan>11</tspan>
</text>
</g>
<g transform="translate(140.9023, 6.3547)">
<path transform="scale(0.0040, -0.0040)" d="M212 138c59 0 113 -31 113 -95c0 -71 -52 -120 -99 -148c-34 -21 -73 -33 -113 -33c-59 0 -113 31 -113 95c0 71 53 120 100 148c34 21 72 33 112 33z" fill="currentColor"/>
</g>
<g transform="translate(136.6019, 6.8547)">
<path transform="scale(0.0040, -0.0040)" d="M212 138c59 0 113 -31 113 -95c0 -71 -52 -120 -99 -148c-34 -21 -73 -33 -113 -33c-59 0 -113 31 -113 95c0 71 53 120 100 148c34 21 72 33 112 33z" fill="currentColor"/>
</g>
<g transform="translate(136.6019, 26.9156)">
<text font-family="serif" font-size="2.1999" text-anchor="start" fill="currentColor">
<tspan>12</tspan>
</text>
</g>
<g transform="translate(51.6474, 220.3402)">
<a xlink:href="https://lilypond.org/">
<rect x="0.0000" y="-0.4532" width="56.0405" height="2.0745" fill="none" stroke="none" stroke-width="0.0"/>
</a>
</g>
<g transform="translate(51.6474, 220.3402)">
<text font-family="serif" font-size="2.1999" text-anchor="start" fill="currentColor">
<tspan>Music engraving by LilyPond 2.23.6—www.lilypond.org</tspan>
</text>
</g>
</svg>
