<svg xmlns="http://www.w3.org/2000/svg" xmlns:xlink="http://www.w3.org/1999/xlink" version="1.2" width="171.32mm" height="40.61mm" viewBox="-1.3217 -0.0034 108.3217 25.6742">
<style text="style/css">
<![CDATA[
tspan { white-space: pre; }
]]>
</style>
<g color="rgb(49.8039%, 49.8039%, 49.8039%)">
<line transform="translate(0.0000, 7.3716)" stroke-linejoin="round" stroke-linecap="round" stroke-width="0.1073" stroke="currentColor" x1="0.0537" y1="-0.0000" x2="106.9464" y2="-0.0000"/>
<line transform="translate(0.0000, 6.3716)" stroke-linejoin="round" stroke-linecap="round" stroke-width="0.1073" stroke="currentColor" x1="0.0537" y1="-0.0000" x2="106.9464" y2="-0.0000"/>
<line transform="translate(0.0000, 5.3716)" stroke-linejoin="round" stroke-linecap="round" stroke-width="0.1073" stroke="currentColor" x1="0.0537" y1="-0.0000" x2="106.9464" y2="-0.0000"/>
<line transform="translate(0.0000, 4.3716)" stroke-linejoin="round" stroke-linecap="round" stroke-width="0.1073" stroke="currentColor" x1="0.0537" y1="-0.0000" x2="106.9464" y2="-0.0000"/>
<line transform="translate(0.0000, 3.3716)" stroke-linejoin="round" stroke-linecap="round" stroke-width="0.1073" stroke="currentColor" x1="0.0537" y1="-0.0000" x2="106.9464" y2="-0.0000"/>
</g>
<g color="rgb(49.8039%, 49.8039%, 49.8039%)">
<line transform="translate(0.0000, 21.3716)" stroke-linejoin="round" stroke-linecap="round" stroke-width="0.1073" stroke="currentColor" x1="0.0537" y1="-0.0000" x2="106.9464" y2="-0.0000"/>
<line transform="translate(0.0000, 20.3716)" stroke-linejoin="round" stroke-linecap="round" stroke-width="0.1073" stroke="currentColor" x1="0.0537" y1="-0.0000" x2="106.9464" y2="-0.0000"/>
<line transform="translate(0.0000, 19.3716)" stroke-linejoin="round" stroke-linecap="round" stroke-width="0.1073" stroke="currentColor" x1="0.0537" y1="-0.0000" x2="106.9464" y2="-0.0000"/>
<line transform="translate(0.0000, 18.3716)" stroke-linejoin="round" stroke-linecap="round" stroke-width="0.1073" stroke="currentColor" x1="0.0537" y1="-0.0000" x2="106.9464" y2="-0.0000"/>
<line transform="translate(0.0000, 17.3716)" stroke-linejoin="round" stroke-linecap="round" stroke-width="0.1073" stroke="currentColor" x1="0.0537" y1="-0.0000" x2="106.9464" y2="-0.0000"/>
</g>
<rect transform="translate(106.7962, 19.3716)" x="0.0000" y="-2.0537" width="0.2039" height="4.1073" ry="0.0000" fill="currentColor"/>
<rect transform="translate(106.7962, -0.0000)" x="0.0000" y="7.4253" width="0.2039" height="9.8927" ry="0.0000" fill="currentColor"/>
<rect transform="translate(56.7462, -0.0000)" x="0.0000" y="7.4253" width="0.2039" height="9.8927" ry="0.0000" fill="currentColor"/>
<rect transform="translate(106.7962, 5.3716)" x="0.0000" y="-2.0537" width="0.2039" height="4.1073" ry="0.0000" fill="currentColor"/>
<rect transform="translate(56.7462, 19.3716)" x="0.0000" y="-2.0537" width="0.2039" height="4.1073" ry="0.0000" fill="currentColor"/>
<rect transform="translate(56.7462, 5.3716)" x="0.0000" y="-2.0537" width="0.2039" height="4.1073" ry="0.0000" fill="currentColor"/>
<rect transform="translate(0.0000, 8.3716)" x="20.4184" y="-0.1037" width="1.8035" height="0.2073" ry="0.1037" fill="currentColor"/>
<rect transform="translate(0.0000, 8.3716)" x="8.2677" y="-0.1037" width="1.9542" height="0.2073" ry="0.1037" fill="currentColor"/>
<rect transform="translate(0.0000, 22.3716)" x="94.6743" y="-0.1037" width="1.9542" height="0.2073" ry="0.1037" fill="currentColor"/>
<rect transform="translate(0.0000, 23.3716)" x="94.8250" y="-0.1037" width="1.8035" height="0.2073" ry="0.1037" fill="currentColor"/>
<rect transform="translate(0.0000, 22.3716)" x="85.8260" y="-0.1037" width="1.8025" height="0.2073" ry="0.1037" fill="currentColor"/>
<rect transform="translate(0.0000, 22.3716)" x="58.8250" y="-0.1037" width="1.8035" height="0.2073" ry="0.1037" fill="currentColor"/>
<rect transform="translate(0.0000, 22.3716)" x="53.4205" y="-0.1037" width="1.9542" height="0.2073" ry="0.1037" fill="currentColor"/>
<path transform="translate(54.3976, 8.1213) scale(0.0040, -0.0040)" d="M-210 86c-9 2 -15 10 -15 19c0 12 12 23 25 19l405 -104c14 0 20 -6 20 -20s-6 -20 -20 -20l-405 -104c-13 -4 -25 7 -25 19c0 9 6 17 15 19l248 64l140 22l-140 22z" fill="currentColor"/>
<rect transform="translate(54.9792, 5.3716)" x="-0.0697" y="-3.9872" width="0.1395" height="2.8078" ry="0.0444" fill="currentColor"/>
<path transform="translate(54.3976, 24.6136) scale(0.0040, -0.0040)" d="M-210 86c-9 2 -15 10 -15 19c0 12 12 23 25 19l405 -104c14 0 20 -6 20 -20s-6 -20 -20 -20l-405 -104c-13 -4 -25 7 -25 19c0 9 6 17 15 19l248 64l140 22l-140 22z" fill="currentColor"/>
<path transform="translate(53.7462, 22.3716) scale(0.0040, -0.0040)" d="M215 137c57 0 111 -29 111 -92c0 -71 -54 -120 -101 -148c-35 -21 -74 -34 -114 -34c-57 0 -111 29 -111 92c0 71 54 120 101 148c35 21 74 34 114 34z" fill="currentColor"/>
<rect transform="translate(45.9792, 19.3716)" x="-0.0697" y="-2.9872" width="0.1395" height="2.8078" ry="0.0444" fill="currentColor"/>
<path transform="translate(53.7462, 4.3716) scale(0.0040, -0.0040)" d="M215 137c57 0 111 -29 111 -92c0 -71 -54 -120 -101 -148c-35 -21 -74 -34 -114 -34c-57 0 -111 29 -111 92c0 71 54 120 101 148c35 21 74 34 114 34z" fill="currentColor"/>
<rect transform="translate(54.9792, 19.3716)" x="-0.0697" y="-1.3342" width="0.1395" height="4.1548" ry="0.0444" fill="currentColor"/>
<path transform="translate(57.5500, 4.3716) scale(0.0040, -0.0040)" d="M217 -311c0 -11 -8 -19 -19 -19s-20 8 -20 19v142l-81 -30v-156c0 -11 -9 -20 -20 -20s-19 9 -19 20v142l-28 -11c-3 -1 -5 -1 -8 -1c-12 0 -22 10 -22 23v57c0 9 6 18 15 21l43 16v157l-28 -10c-3 -1 -5 -1 -8 -1c-12 0 -22 9 -22 22v57c0 9 6 18 15 21l43 16v157
c0 11 8 19 19 19s20 -8 20 -19v-142l81 30v156c0 11 9 20 20 20s19 -9 19 -20v-142l28 11c3 1 5 1 8 1c12 0 22 -10 22 -23v-57c0 -9 -6 -18 -15 -21l-43 -16v-157l28 10c3 1 5 1 8 1c12 0 22 -9 22 -22v-57c0 -9 -6 -18 -15 -21l-43 -16v-157zM97 64v-158l81 30v158z" fill="currentColor"/>
<path transform="translate(59.0000, 4.3716) scale(0.0040, -0.0040)" d="M215 137c57 0 111 -29 111 -92c0 -71 -54 -120 -101 -148c-35 -21 -74 -34 -114 -34c-57 0 -111 29 -111 92c0 71 54 120 101 148c35 21 74 34 114 34z" fill="currentColor"/>
<path transform="translate(59.0000, 22.3716) scale(0.0040, -0.0040)" d="M215 137c57 0 111 -29 111 -92c0 -71 -54 -120 -101 -148c-35 -21 -74 -34 -114 -34c-57 0 -111 29 -111 92c0 71 54 120 101 148c35 21 74 34 114 34z" fill="currentColor"/>
<rect transform="translate(59.0698, 5.3716)" x="-0.0697" y="-0.8206" width="0.1395" height="3.3206" ry="0.0444" fill="currentColor"/>
<rect transform="translate(39.9792, 5.3716)" x="-0.0697" y="-1.3404" width="0.1395" height="3.6611" ry="0.0444" fill="currentColor"/>
<path transform="translate(39.3976, 22.1213) scale(0.0040, -0.0040)" d="M-210 86c-9 2 -15 10 -15 19c0 12 12 23 25 19l405 -104c14 0 20 -6 20 -20s-6 -20 -20 -20l-405 -104c-13 -4 -25 7 -25 19c0 9 6 17 15 19l248 64l140 22l-140 22z" fill="currentColor"/>
<path transform="translate(38.7462, 18.8716) scale(0.0040, -0.0040)" d="M215 137c57 0 111 -29 111 -92c0 -71 -54 -120 -101 -148c-35 -21 -74 -34 -114 -34c-57 0 -111 29 -111 92c0 71 54 120 101 148c35 21 74 34 114 34z" fill="currentColor"/>
<path transform="translate(39.3976, 10.0180) scale(0.0040, -0.0040)" d="M-210 86c-9 2 -15 10 -15 19c0 12 12 23 25 19l405 -104c14 0 20 -6 20 -20s-6 -20 -20 -20l-405 -104c-13 -4 -25 7 -25 19c0 9 6 17 15 19l248 64l140 22l-140 22z" fill="currentColor"/>
<path transform="translate(38.7462, 7.8716) scale(0.0040, -0.0040)" d="M215 137c57 0 111 -29 111 -92c0 -71 -54 -120 -101 -148c-35 -21 -74 -34 -114 -34c-57 0 -111 29 -111 92c0 71 54 120 101 148c35 21 74 34 114 34z" fill="currentColor"/>
<path transform="translate(31.5962, 21.8716) scale(0.0040, -0.0040)" d="M29 39l-2 -64v-11c0 -22 2 -43 5 -65c44 38 91 80 91 138c0 33 -13 66 -42 66c-31 0 -51 -31 -52 -64zM-28 454c9 5 18 8 28 8s19 -3 28 -8l-7 -343c25 23 58 36 92 36c51 0 87 -49 87 -103c0 -79 -84 -117 -144 -169c-16 -14 -25 -41 -47 -41c-14 0 -25 13 -25 27z" fill="currentColor"/>
<rect transform="translate(33.9792, 19.3716)" x="-0.0697" y="-1.3404" width="0.1395" height="3.6611" ry="0.0444" fill="currentColor"/>
<path transform="translate(31.2962, 4.8716) scale(0.0040, -0.0040)" d="M217 -311c0 -11 -8 -19 -19 -19s-20 8 -20 19v142l-81 -30v-156c0 -11 -9 -20 -20 -20s-19 9 -19 20v142l-28 -11c-3 -1 -5 -1 -8 -1c-12 0 -22 10 -22 23v57c0 9 6 18 15 21l43 16v157l-28 -10c-3 -1 -5 -1 -8 -1c-12 0 -22 9 -22 22v57c0 9 6 18 15 21l43 16v157
c0 11 8 19 19 19s20 -8 20 -19v-142l81 30v156c0 11 9 20 20 20s19 -9 19 -20v-142l28 11c3 1 5 1 8 1c12 0 22 -10 22 -23v-57c0 -9 -6 -18 -15 -21l-43 -16v-157l28 10c3 1 5 1 8 1c12 0 22 -9 22 -22v-57c0 -9 -6 -18 -15 -21l-43 -16v-157zM97 64v-158l81 30v158z" fill="currentColor"/>
<path transform="translate(8.5934, 5.3716)" stroke-width="0.0858" stroke-linejoin="round" stroke-linecap="round" stroke="currentColor" fill="currentColor" d="M0.6514 4.0486C2.6186 5.6020 10.6842 5.6020 12.6514 4.0486L12.6514 4.0486C10.6842 5.4732 2.6186 5.4732 0.6514 4.0486z"/>
<path transform="translate(46.4949, 6.8716) scale(0.0040, -0.0040)" d="M0 0c0 31 25 56 56 56s55 -25 55 -56s-24 -56 -55 -56s-56 25 -56 56z" fill="currentColor"/>
<path transform="translate(43.5962, 7.3716) scale(0.0040, -0.0040)" d="M29 39l-2 -64v-11c0 -22 2 -43 5 -65c44 38 91 80 91 138c0 33 -13 66 -42 66c-31 0 -51 -31 -52 -64zM-28 454c9 5 18 8 28 8s19 -3 28 -8l-7 -343c25 23 58 36 92 36c51 0 87 -49 87 -103c0 -79 -84 -117 -144 -169c-16 -14 -25 -41 -47 -41c-14 0 -25 13 -25 27z" fill="currentColor"/>
<rect transform="translate(45.9792, 5.3716)" x="-0.0697" y="-2.3342" width="0.1395" height="4.1548" ry="0.0444" fill="currentColor"/>
<path transform="translate(46.4949, 18.8716) scale(0.0040, -0.0040)" d="M0 0c0 31 25 56 56 56s55 -25 55 -56s-24 -56 -55 -56s-56 25 -56 56z" fill="currentColor"/>
<path transform="translate(44.7462, 19.3716) scale(0.0040, -0.0040)" d="M215 137c57 0 111 -29 111 -92c0 -71 -54 -120 -101 -148c-35 -21 -74 -34 -114 -34c-57 0 -111 29 -111 92c0 71 54 120 101 148c35 21 74 34 114 34z" fill="currentColor"/>
<path transform="translate(44.7462, 7.3716) scale(0.0040, -0.0040)" d="M215 137c57 0 111 -29 111 -92c0 -71 -54 -120 -101 -148c-35 -21 -74 -34 -114 -34c-57 0 -111 29 -111 92c0 71 54 120 101 148c35 21 74 34 114 34z" fill="currentColor"/>
<rect transform="translate(39.9792, 19.3716)" x="-0.0697" y="-2.9809" width="0.1395" height="2.3016" ry="0.0444" fill="currentColor"/>
<path transform="translate(86.0000, 3.8716) scale(0.0040, -0.0040)" d="M215 137c57 0 111 -29 111 -92c0 -71 -54 -120 -101 -148c-35 -21 -74 -34 -114 -34c-57 0 -111 29 -111 92c0 71 54 120 101 148c35 21 74 34 114 34z" fill="currentColor"/>
<polygon transform="translate(84.1633, 16.8716)" stroke-linejoin="round" stroke-linecap="round" stroke-width="0.0889" fill="currentColor" stroke="currentColor" points="3.0950 0.8481 3.0950 1.5092 0.0444 0.3306 0.0444 -0.3306"/>
<polygon transform="translate(84.1633, 18.0771)" stroke-linejoin="round" stroke-linecap="round" stroke-width="0.0889" fill="currentColor" stroke="currentColor" points="1.1253 0.1086 1.1253 0.7697 0.0444 0.3306 0.0444 -0.3306"/>
<polygon transform="translate(95.0000, 7.3716)" stroke-linejoin="round" stroke-linecap="round" stroke-width="0.0889" fill="currentColor" stroke="currentColor" points="6.0950 1.3481 6.0950 2.0092 0.0444 0.3306 0.0444 -0.3306"/>
<polygon transform="translate(96.1633, 18.8716)" stroke-linejoin="round" stroke-linecap="round" stroke-width="0.0889" fill="currentColor" stroke="currentColor" points="6.0950 -1.5092 6.0950 -0.8481 0.0444 0.3306 0.0444 -0.3306"/>
<rect transform="translate(86.0698, 5.3716)" x="-0.0697" y="-1.3206" width="0.1395" height="4.3540" ry="0.0444" fill="currentColor"/>
<path transform="translate(87.7488, 3.8716) scale(0.0040, -0.0040)" d="M0 0c0 31 25 56 56 56s55 -25 55 -56s-24 -56 -55 -56s-56 25 -56 56z" fill="currentColor"/>
<path transform="translate(86.6514, 25.1709) scale(0.0040, -0.0040)" d="M-210 86c-9 2 -15 10 -15 19c0 12 12 23 25 19l405 -104c14 0 20 -6 20 -20s-6 -20 -20 -20l-405 -104c-13 -4 -25 7 -25 19c0 9 6 17 15 19l248 64l140 22l-140 22z" fill="currentColor"/>
<path transform="translate(86.0000, 22.8716) scale(0.0040, -0.0040)" d="M215 137c57 0 111 -29 111 -92c0 -71 -54 -120 -101 -148c-35 -21 -74 -34 -114 -34c-57 0 -111 29 -111 92c0 71 54 120 101 148c35 21 74 34 114 34z" fill="currentColor"/>
<path transform="translate(86.6514, 1.4958) scale(0.0040, -0.0040)" d="M-210 86c-9 2 -15 10 -15 19c0 12 12 23 25 19l405 -104c14 0 20 -6 20 -20s-6 -20 -20 -20l-405 -104c-13 -4 -25 7 -25 19c0 9 6 17 15 19l248 64l140 22l-140 22z" fill="currentColor"/>
<polygon transform="translate(83.0000, 8.6662)" stroke-linejoin="round" stroke-linecap="round" stroke-width="0.0889" fill="currentColor" stroke="currentColor" points="1.1253 -0.8894 1.1253 -0.2283 0.0444 0.3306 0.0444 -0.3306"/>
<polygon transform="translate(83.0000, 9.8716)" stroke-linejoin="round" stroke-linecap="round" stroke-width="0.0889" fill="currentColor" stroke="currentColor" points="3.0950 -1.8306 3.0950 -1.1694 0.0444 0.3306 0.0444 -0.3306"/>
<path transform="translate(81.8500, 19.8716) scale(0.0040, -0.0040)" d="M29 39l-2 -64v-11c0 -22 2 -43 5 -65c44 38 91 80 91 138c0 33 -13 66 -42 66c-31 0 -51 -31 -52 -64zM-28 454c9 5 18 8 28 8s19 -3 28 -8l-7 -343c25 23 58 36 92 36c51 0 87 -49 87 -103c0 -79 -84 -117 -144 -169c-16 -14 -25 -41 -47 -41c-14 0 -25 13 -25 27z" fill="currentColor"/>
<rect transform="translate(84.2331, 19.3716)" x="-0.0697" y="-2.4738" width="0.1395" height="2.7945" ry="0.0444" fill="currentColor"/>
<path transform="translate(53.7462, 19.3716)" stroke-width="0.0858" stroke-linejoin="round" stroke-linecap="round" stroke="currentColor" fill="currentColor" d="M0.6514 4.0486C1.8418 5.1328 4.7149 5.1328 5.9053 4.0486L5.9053 4.0486C4.7149 5.0040 1.8418 5.0040 0.6514 4.0486z"/>
<path transform="translate(8.5934, 19.3716)" stroke-width="0.0858" stroke-linejoin="round" stroke-linecap="round" stroke="currentColor" fill="currentColor" d="M0.6514 -2.1986C2.6361 -3.7599 10.8786 -3.7599 12.8633 -2.1986L12.8633 -2.1986C10.8786 -3.6312 2.6361 -3.6312 0.6514 -2.1986z"/>
<path transform="translate(23.7462, 5.3716)" stroke-width="0.0858" stroke-linejoin="round" stroke-linecap="round" stroke="currentColor" fill="currentColor" d="M0.6827 1.1506C2.4647 2.2631 8.1039 1.8559 9.6827 0.5006L9.6827 0.5006C8.0946 1.7274 2.4554 2.1347 0.6827 1.1506z"/>
<path transform="translate(23.7462, 19.3716)" stroke-width="0.0858" stroke-linejoin="round" stroke-linecap="round" stroke="currentColor" fill="currentColor" d="M0.6273 3.0486C2.2303 4.5494 7.8680 4.8626 9.6273 3.5486L9.6273 3.5486C7.8751 4.7340 2.2374 4.4208 0.6273 3.0486z"/>
<polygon transform="translate(21.7567, 1.6930)" stroke-linejoin="round" stroke-linecap="round" stroke-width="0.0889" fill="currentColor" stroke="currentColor" points="3.2479 -1.6519 3.2479 -0.9908 0.0444 0.3306 0.0444 -0.3306"/>
<polygon transform="translate(21.7567, 2.8985)" stroke-linejoin="round" stroke-linecap="round" stroke-width="0.0889" fill="currentColor" stroke="currentColor" points="1.1253 -0.8000 1.1253 -0.1389 0.0444 0.3306 0.0444 -0.3306"/>
<polygon transform="translate(21.7567, 15.3716)" stroke-linejoin="round" stroke-linecap="round" stroke-width="0.0889" fill="currentColor" stroke="currentColor" points="3.2479 1.1694 3.2479 1.8306 0.0444 0.3306 0.0444 -0.3306"/>
<polygon transform="translate(21.7567, 16.5771)" stroke-linejoin="round" stroke-linecap="round" stroke-width="0.0889" fill="currentColor" stroke="currentColor" points="1.1253 0.2024 1.1253 0.8635 0.0444 0.3306 0.0444 -0.3306"/>
<path transform="translate(38.7462, 5.3716)" stroke-width="0.0858" stroke-linejoin="round" stroke-linecap="round" stroke="currentColor" fill="currentColor" d="M0.6875 3.5486C2.0875 4.6064 5.4818 4.3236 6.6875 3.0486L6.6875 3.0486C5.4711 4.1953 2.0768 4.4781 0.6875 3.5486z"/>
<path transform="translate(38.7462, 19.3716)" stroke-width="0.0858" stroke-linejoin="round" stroke-linecap="round" stroke="currentColor" fill="currentColor" d="M0.6046 0.5486C1.7803 1.8548 5.1765 2.2227 6.6046 1.1986L6.6046 1.1986C5.1904 2.0947 1.7941 1.7267 0.6046 0.5486z"/>
<path transform="translate(53.7462, 5.3716)" stroke-width="0.0858" stroke-linejoin="round" stroke-linecap="round" stroke="currentColor" fill="currentColor" d="M1.6028 -2.1986C2.6332 -3.1561 4.8749 -3.1561 5.9053 -2.1986L5.9053 -2.1986C4.8749 -3.0274 2.6332 -3.0274 1.6028 -2.1986z"/>
<path transform="translate(81.5500, 6.8716) scale(0.0040, -0.0040)" d="M217 -311c0 -11 -8 -19 -19 -19s-20 8 -20 19v142l-81 -30v-156c0 -11 -9 -20 -20 -20s-19 9 -19 20v142l-28 -11c-3 -1 -5 -1 -8 -1c-12 0 -22 10 -22 23v57c0 9 6 18 15 21l43 16v157l-28 -10c-3 -1 -5 -1 -8 -1c-12 0 -22 9 -22 22v57c0 9 6 18 15 21l43 16v157
c0 11 8 19 19 19s20 -8 20 -19v-142l81 30v156c0 11 9 20 20 20s19 -9 19 -20v-142l28 11c3 1 5 1 8 1c12 0 22 -10 22 -23v-57c0 -9 -6 -18 -15 -21l-43 -16v-157l28 10c3 1 5 1 8 1c12 0 22 -9 22 -22v-57c0 -9 -6 -18 -15 -21l-43 -16v-157zM97 64v-158l81 30v158z" fill="currentColor"/>
<polygon transform="translate(33.9095, 2.3716)" stroke-linejoin="round" stroke-linecap="round" stroke-width="0.0889" fill="currentColor" stroke="currentColor" points="6.0950 1.3481 6.0950 2.0092 0.0444 0.3306 0.0444 -0.3306"/>
<polygon transform="translate(33.9095, 18.0503)" stroke-linejoin="round" stroke-linecap="round" stroke-width="0.0889" fill="currentColor" stroke="currentColor" points="6.0950 -2.0092 6.0950 -1.3481 0.0444 0.3306 0.0444 -0.3306"/>
<polygon transform="translate(45.9095, 3.0503)" stroke-linejoin="round" stroke-linecap="round" stroke-width="0.0889" fill="currentColor" stroke="currentColor" points="9.0950 -2.0092 9.0950 -1.3481 0.0444 0.3306 0.0444 -0.3306"/>
<polygon transform="translate(53.8792, 2.7920)" stroke-linejoin="round" stroke-linecap="round" stroke-width="0.0889" fill="currentColor" stroke="currentColor" points="1.1253 -0.5454 1.1253 0.1157 0.0444 0.3306 0.0444 -0.3306"/>
<polygon transform="translate(45.9095, 16.3716)" stroke-linejoin="round" stroke-linecap="round" stroke-width="0.0889" fill="currentColor" stroke="currentColor" points="9.0950 1.3481 9.0950 2.0092 0.0444 0.3306 0.0444 -0.3306"/>
<polygon transform="translate(53.8792, 19.0409)" stroke-linejoin="round" stroke-linecap="round" stroke-width="0.0889" fill="currentColor" stroke="currentColor" points="1.1253 -0.1157 1.1253 0.5454 0.0444 0.3306 0.0444 -0.3306"/>
<path transform="translate(71.0000, 5.3716)" stroke-width="0.0858" stroke-linejoin="round" stroke-linecap="round" stroke="currentColor" fill="currentColor" d="M1.6028 0.4514C3.4875 -1.0630 10.7667 -1.0630 12.6514 0.4514L12.6514 0.4514C10.7667 -0.9343 3.4875 -0.9343 1.6028 0.4514z"/>
<path transform="translate(71.0000, 19.3716)" stroke-width="0.0858" stroke-linejoin="round" stroke-linecap="round" stroke="currentColor" fill="currentColor" d="M0.6514 1.5486C2.6186 3.1020 10.6842 3.1020 12.6514 1.5486L12.6514 1.5486C10.6842 2.9732 2.6186 2.9732 0.6514 1.5486z"/>
<path transform="translate(86.0000, 5.3716)" stroke-width="0.0858" stroke-linejoin="round" stroke-linecap="round" stroke="currentColor" fill="currentColor" d="M0.6034 -2.5486C2.1254 -4.1385 7.7696 -4.7656 9.6034 -3.5486L9.6034 -3.5486C7.7838 -4.6376 2.1396 -4.0105 0.6034 -2.5486z"/>
<path transform="translate(86.0000, 19.3716)" stroke-width="0.0858" stroke-linejoin="round" stroke-linecap="round" stroke="currentColor" fill="currentColor" d="M0.6273 4.5486C2.2303 6.0494 7.8680 6.3626 9.6273 5.0486L9.6273 5.0486C7.8751 6.2340 2.2374 5.9208 0.6273 4.5486z"/>
<path transform="translate(71.6514, 8.1213) scale(0.0040, -0.0040)" d="M-210 86c-9 2 -15 10 -15 19c0 12 12 23 25 19l405 -104c14 0 20 -6 20 -20s-6 -20 -20 -20l-405 -104c-13 -4 -25 7 -25 19c0 9 6 17 15 19l248 64l140 22l-140 22z" fill="currentColor"/>
<path transform="translate(71.0000, 6.8716) scale(0.0040, -0.0040)" d="M215 137c57 0 111 -29 111 -92c0 -71 -54 -120 -101 -148c-35 -21 -74 -34 -114 -34c-57 0 -111 29 -111 92c0 71 54 120 101 148c35 21 74 34 114 34z" fill="currentColor"/>
<path transform="translate(71.0000, 19.8716) scale(0.0040, -0.0040)" d="M215 137c57 0 111 -29 111 -92c0 -71 -54 -120 -101 -148c-35 -21 -74 -34 -114 -34c-57 0 -111 29 -111 92c0 71 54 120 101 148c35 21 74 34 114 34z" fill="currentColor"/>
<path transform="translate(57.8500, 22.3716) scale(0.0040, -0.0040)" d="M29 39l-2 -64v-11c0 -22 2 -43 5 -65c44 38 91 80 91 138c0 33 -13 66 -42 66c-31 0 -51 -31 -52 -64zM-28 454c9 5 18 8 28 8s19 -3 28 -8l-7 -343c25 23 58 36 92 36c51 0 87 -49 87 -103c0 -79 -84 -117 -144 -169c-16 -14 -25 -41 -47 -41c-14 0 -25 13 -25 27z" fill="currentColor"/>
<rect transform="translate(60.2331, 19.3716)" x="-0.0697" y="-0.5000" width="0.1395" height="3.3206" ry="0.0444" fill="currentColor"/>
<rect transform="translate(83.0698, 5.3716)" x="-0.0697" y="1.6794" width="0.1395" height="2.7873" ry="0.0444" fill="currentColor"/>
<path transform="translate(83.0000, 19.8716) scale(0.0040, -0.0040)" d="M215 137c57 0 111 -29 111 -92c0 -71 -54 -120 -101 -148c-35 -21 -74 -34 -114 -34c-57 0 -111 29 -111 92c0 71 54 120 101 148c35 21 74 34 114 34z" fill="currentColor"/>
<path transform="translate(83.0000, 6.8716) scale(0.0040, -0.0040)" d="M215 137c57 0 111 -29 111 -92c0 -71 -54 -120 -101 -148c-35 -21 -74 -34 -114 -34c-57 0 -111 29 -111 92c0 71 54 120 101 148c35 21 74 34 114 34z" fill="currentColor"/>
<rect transform="translate(72.2331, 19.3716)" x="-0.0697" y="-3.0000" width="0.1395" height="3.3206" ry="0.0444" fill="currentColor"/>
<rect transform="translate(72.2331, 5.3716)" x="-0.0697" y="-2.0000" width="0.1395" height="3.3206" ry="0.0444" fill="currentColor"/>
<path transform="translate(71.6514, 22.1213) scale(0.0040, -0.0040)" d="M-210 86c-9 2 -15 10 -15 19c0 12 12 23 25 19l405 -104c14 0 20 -6 20 -20s-6 -20 -20 -20l-405 -104c-13 -4 -25 7 -25 19c0 9 6 17 15 19l248 64l140 22l-140 22z" fill="currentColor"/>
<rect transform="translate(95.0698, 5.3716)" x="-0.0697" y="-1.8206" width="0.1395" height="3.8397" ry="0.0444" fill="currentColor"/>
<path transform="translate(95.0000, 23.3716) scale(0.0040, -0.0040)" d="M215 137c57 0 111 -29 111 -92c0 -71 -54 -120 -101 -148c-35 -21 -74 -34 -114 -34c-57 0 -111 29 -111 92c0 71 54 120 101 148c35 21 74 34 114 34z" fill="currentColor"/>
<path transform="translate(95.0000, 3.3716) scale(0.0040, -0.0040)" d="M215 137c57 0 111 -29 111 -92c0 -71 -54 -120 -101 -148c-35 -21 -74 -34 -114 -34c-57 0 -111 29 -111 92c0 71 54 120 101 148c35 21 74 34 114 34z" fill="currentColor"/>
<path transform="translate(84.2020, 22.8716) scale(0.0040, -0.0040)" d="M191 39l-1 -64v-11c0 -22 1 -43 4 -65c43 38 85 82 85 139c0 32 -11 65 -39 65c-30 0 -48 -31 -49 -64zM191 454l-8 -343c24 23 56 36 89 36c52 0 90 -48 90 -102c0 -79 -84 -118 -144 -170c-16 -14 -24 -41 -46 -41c-14 0 -25 13 -25 27l-2 105c-26 -33 -64 -60 -95 -91
c-14 -14 -20 -41 -41 -41c-14 0 -25 13 -25 27l-12 593c9 5 18 8 28 8s19 -3 28 -8l-7 -343c17 22 43 36 71 36c19 0 36 -8 49 -20l-7 327c9 5 18 8 28 8s20 -3 29 -8zM19 39l-1 -64v-11c0 -23 1 -45 4 -68c39 39 70 86 70 141c0 32 -6 66 -33 66c-28 0 -39 -32 -40 -64z
" fill="currentColor"/>
<rect transform="translate(87.2331, 19.3716)" x="-0.0697" y="-1.3475" width="0.1395" height="4.6682" ry="0.0444" fill="currentColor"/>
<path transform="translate(87.7488, 22.8716) scale(0.0040, -0.0040)" d="M0 0c0 31 25 56 56 56s55 -25 55 -56s-24 -56 -55 -56s-56 25 -56 56z" fill="currentColor"/>
<path transform="translate(84.5500, 3.8716) scale(0.0040, -0.0040)" d="M217 -311c0 -11 -8 -19 -19 -19s-20 8 -20 19v142l-81 -30v-156c0 -11 -9 -20 -20 -20s-19 9 -19 20v142l-28 -11c-3 -1 -5 -1 -8 -1c-12 0 -22 10 -22 23v57c0 9 6 18 15 21l43 16v157l-28 -10c-3 -1 -5 -1 -8 -1c-12 0 -22 9 -22 22v57c0 9 6 18 15 21l43 16v157
c0 11 8 19 19 19s20 -8 20 -19v-142l81 30v156c0 11 9 20 20 20s19 -9 19 -20v-142l28 11c3 1 5 1 8 1c12 0 22 -10 22 -23v-57c0 -9 -6 -18 -15 -21l-43 -16v-157l28 10c3 1 5 1 8 1c12 0 22 -9 22 -22v-57c0 -9 -6 -18 -15 -21l-43 -16v-157zM97 64v-158l81 30v158z" fill="currentColor"/>
<path transform="translate(93.8500, 23.3716) scale(0.0040, -0.0040)" d="M29 39l-2 -64v-11c0 -22 2 -43 5 -65c44 38 91 80 91 138c0 33 -13 66 -42 66c-31 0 -51 -31 -52 -64zM-28 454c9 5 18 8 28 8s19 -3 28 -8l-7 -343c25 23 58 36 92 36c51 0 87 -49 87 -103c0 -79 -84 -117 -144 -169c-16 -14 -25 -41 -47 -41c-14 0 -25 13 -25 27z" fill="currentColor"/>
<path transform="translate(101.6514, 22.1213) scale(0.0040, -0.0040)" d="M-210 86c-9 2 -15 10 -15 19c0 12 12 23 25 19l405 -104c14 0 20 -6 20 -20s-6 -20 -20 -20l-405 -104c-13 -4 -25 7 -25 19c0 9 6 17 15 19l248 64l140 22l-140 22z" fill="currentColor"/>
<path transform="translate(101.0000, 20.3716) scale(0.0040, -0.0040)" d="M215 137c57 0 111 -29 111 -92c0 -71 -54 -120 -101 -148c-35 -21 -74 -34 -114 -34c-57 0 -111 29 -111 92c0 71 54 120 101 148c35 21 74 34 114 34z" fill="currentColor"/>
<path transform="translate(101.6514, 2.6220) scale(0.0040, -0.0040)" d="M-210 86c-9 2 -15 10 -15 19c0 12 12 23 25 19l405 -104c14 0 20 -6 20 -20s-6 -20 -20 -20l-405 -104c-13 -4 -25 7 -25 19c0 9 6 17 15 19l248 64l140 22l-140 22z" fill="currentColor"/>
<path transform="translate(101.0000, 6.3716) scale(0.0040, -0.0040)" d="M215 137c57 0 111 -29 111 -92c0 -71 -54 -120 -101 -148c-35 -21 -74 -34 -114 -34c-57 0 -111 29 -111 92c0 71 54 120 101 148c35 21 74 34 114 34z" fill="currentColor"/>
<rect transform="translate(96.2331, 19.3716)" x="-0.0697" y="-0.5134" width="0.1395" height="4.3340" ry="0.0444" fill="currentColor"/>
<path transform="translate(93.5500, 3.3716) scale(0.0040, -0.0040)" d="M217 -311c0 -11 -8 -19 -19 -19s-20 8 -20 19v142l-81 -30v-156c0 -11 -9 -20 -20 -20s-19 9 -19 20v142l-28 -11c-3 -1 -5 -1 -8 -1c-12 0 -22 10 -22 23v57c0 9 6 18 15 21l43 16v157l-28 -10c-3 -1 -5 -1 -8 -1c-12 0 -22 9 -22 22v57c0 9 6 18 15 21l43 16v157
c0 11 8 19 19 19s20 -8 20 -19v-142l81 30v156c0 11 9 20 20 20s19 -9 19 -20v-142l28 11c3 1 5 1 8 1c12 0 22 -10 22 -23v-57c0 -9 -6 -18 -15 -21l-43 -16v-157l28 10c3 1 5 1 8 1c12 0 22 -9 22 -22v-57c0 -9 -6 -18 -15 -21l-43 -16v-157zM97 64v-158l81 30v158z" fill="currentColor"/>
<path transform="translate(8.5934, 8.3716) scale(0.0040, -0.0040)" d="M215 137c57 0 111 -29 111 -92c0 -71 -54 -120 -101 -148c-35 -21 -74 -34 -114 -34c-57 0 -111 29 -111 92c0 71 54 120 101 148c35 21 74 34 114 34z" fill="currentColor"/>
<rect transform="translate(9.8264, 5.3716)" x="-0.0697" y="-0.5000" width="0.1395" height="3.3206" ry="0.0444" fill="currentColor"/>
<path transform="translate(5.0000, 19.3716) scale(0.0040, -0.0040)" d="M194 120h120c0 -49 29 -95 75 -95c8 0 12 -7 12 -13s-4 -12 -12 -12c-45 0 -90 13 -135 13s-90 -13 -135 -13c-8 0 -12 6 -12 12s4 13 12 13c46 0 75 46 75 95zM203 301c22 15 45 30 61 51c12 15 19 34 27 51c2 4 5 6 9 6c6 0 14 -6 14 -15v-238h74c10 0 16 -8 16 -16
s-6 -15 -16 -15h-74v-5h-120v5h-163c-24 0 -33 15 -33 24c0 3 1 6 2 7c80 92 134 205 134 327c0 11 8 20 17 17c24 -7 48 -13 73 -13s48 6 72 13c2 1 4 1 6 1c9 0 14 -7 14 -13c0 -2 0 -3 -2 -5l-283 -327h163v122c0 9 2 18 9 23z" fill="currentColor"/>
<path transform="translate(5.0000, 21.4582) scale(0.0040, -0.0040)" d="M194 120h120c0 -49 29 -95 75 -95c8 0 12 -7 12 -13s-4 -12 -12 -12c-45 0 -90 13 -135 13s-90 -13 -135 -13c-8 0 -12 6 -12 12s4 13 12 13c46 0 75 46 75 95zM203 301c22 15 45 30 61 51c12 15 19 34 27 51c2 4 5 6 9 6c6 0 14 -6 14 -15v-238h74c10 0 16 -8 16 -16
s-6 -15 -16 -15h-74v-5h-120v5h-163c-24 0 -33 15 -33 24c0 3 1 6 2 7c80 92 134 205 134 327c0 11 8 20 17 17c24 -7 48 -13 73 -13s48 6 72 13c2 1 4 1 6 1c9 0 14 -7 14 -13c0 -2 0 -3 -2 -5l-283 -327h163v122c0 9 2 18 9 23z" fill="currentColor"/>
<path transform="translate(0.8000, 20.3716) scale(0.0040, -0.0040)" d="M378 263c4 0 7 1 11 1c156 0 257 -129 257 -262c0 -76 -34 -154 -108 -210c-22 -17 -46 -29 -72 -37c3 -34 4 -68 4 -102c0 -20 0 -40 -1 -60c-7 -121 -90 -228 -209 -228c-108 0 -196 87 -196 196c0 58 53 104 112 104c54 0 95 -48 95 -104c0 -52 -43 -95 -95 -95
c-10 0 -20 2 -29 6c26 -38 68 -63 116 -63h3c93 2 153 92 159 190c1 19 2 37 2 56c0 30 -2 60 -4 90c-29 -5 -58 -8 -88 -8c-188 0 -333 173 -333 375c0 177 130 307 246 442c-20 62 -38 125 -46 190c-6 52 -7 104 -7 157c0 115 55 223 148 290c7 5 16 4 22 -1
c71 -83 134 -244 134 -357c0 -143 -85 -255 -178 -364c21 -68 40 -137 57 -206zM462 -202c67 24 111 94 111 162c0 89 -65 178 -170 190c24 -115 46 -230 59 -352zM75 26c0 -134 129 -245 263 -245c28 0 55 2 81 6c-14 126 -36 244 -61 363c-79 -8 -124 -61 -124 -119
c0 -43 25 -89 80 -121c5 -5 7 -11 7 -16c0 -12 -10 -23 -22 -23c-3 0 -6 1 -9 2c-81 43 -118 116 -118 186c0 89 58 175 161 198c-14 58 -29 116 -46 173c-106 -122 -212 -244 -212 -404zM244 785c0 -73 20 -132 38 -191c79 97 144 199 144 324c0 53 -4 76 -20 124
c-99 -47 -162 -148 -162 -257z" fill="currentColor"/>
<path transform="translate(9.2448, 16.0209) scale(0.0040, -0.0040)" d="M-210 86c-9 2 -15 10 -15 19c0 12 12 23 25 19l405 -104c14 0 20 -6 20 -20s-6 -20 -20 -20l-405 -104c-13 -4 -25 7 -25 19c0 9 6 17 15 19l248 64l140 22l-140 22z" fill="currentColor"/>
<path transform="translate(8.5934, 18.3716) scale(0.0040, -0.0040)" d="M215 137c57 0 111 -29 111 -92c0 -71 -54 -120 -101 -148c-35 -21 -74 -34 -114 -34c-57 0 -111 29 -111 92c0 71 54 120 101 148c35 21 74 34 114 34z" fill="currentColor"/>
<path transform="translate(5.0000, 5.3716) scale(0.0040, -0.0040)" d="M194 120h120c0 -49 29 -95 75 -95c8 0 12 -7 12 -13s-4 -12 -12 -12c-45 0 -90 13 -135 13s-90 -13 -135 -13c-8 0 -12 6 -12 12s4 13 12 13c46 0 75 46 75 95zM203 301c22 15 45 30 61 51c12 15 19 34 27 51c2 4 5 6 9 6c6 0 14 -6 14 -15v-238h74c10 0 16 -8 16 -16
s-6 -15 -16 -15h-74v-5h-120v5h-163c-24 0 -33 15 -33 24c0 3 1 6 2 7c80 92 134 205 134 327c0 11 8 20 17 17c24 -7 48 -13 73 -13s48 6 72 13c2 1 4 1 6 1c9 0 14 -7 14 -13c0 -2 0 -3 -2 -5l-283 -327h163v122c0 9 2 18 9 23z" fill="currentColor"/>
<path transform="translate(5.0000, 7.4582) scale(0.0040, -0.0040)" d="M194 120h120c0 -49 29 -95 75 -95c8 0 12 -7 12 -13s-4 -12 -12 -12c-45 0 -90 13 -135 13s-90 -13 -135 -13c-8 0 -12 6 -12 12s4 13 12 13c46 0 75 46 75 95zM203 301c22 15 45 30 61 51c12 15 19 34 27 51c2 4 5 6 9 6c6 0 14 -6 14 -15v-238h74c10 0 16 -8 16 -16
s-6 -15 -16 -15h-74v-5h-120v5h-163c-24 0 -33 15 -33 24c0 3 1 6 2 7c80 92 134 205 134 327c0 11 8 20 17 17c24 -7 48 -13 73 -13s48 6 72 13c2 1 4 1 6 1c9 0 14 -7 14 -13c0 -2 0 -3 -2 -5l-283 -327h163v122c0 9 2 18 9 23z" fill="currentColor"/>
<path transform="translate(0.8000, 6.3716) scale(0.0040, -0.0040)" d="M378 263c4 0 7 1 11 1c156 0 257 -129 257 -262c0 -76 -34 -154 -108 -210c-22 -17 -46 -29 -72 -37c3 -34 4 -68 4 -102c0 -20 0 -40 -1 -60c-7 -121 -90 -228 -209 -228c-108 0 -196 87 -196 196c0 58 53 104 112 104c54 0 95 -48 95 -104c0 -52 -43 -95 -95 -95
c-10 0 -20 2 -29 6c26 -38 68 -63 116 -63h3c93 2 153 92 159 190c1 19 2 37 2 56c0 30 -2 60 -4 90c-29 -5 -58 -8 -88 -8c-188 0 -333 173 -333 375c0 177 130 307 246 442c-20 62 -38 125 -46 190c-6 52 -7 104 -7 157c0 115 55 223 148 290c7 5 16 4 22 -1
c71 -83 134 -244 134 -357c0 -143 -85 -255 -178 -364c21 -68 40 -137 57 -206zM462 -202c67 24 111 94 111 162c0 89 -65 178 -170 190c24 -115 46 -230 59 -352zM75 26c0 -134 129 -245 263 -245c28 0 55 2 81 6c-14 126 -36 244 -61 363c-79 -8 -124 -61 -124 -119
c0 -43 25 -89 80 -121c5 -5 7 -11 7 -16c0 -12 -10 -23 -22 -23c-3 0 -6 1 -9 2c-81 43 -118 116 -118 186c0 89 58 175 161 198c-14 58 -29 116 -46 173c-106 -122 -212 -244 -212 -404zM244 785c0 -73 20 -132 38 -191c79 97 144 199 144 324c0 53 -4 76 -20 124
c-99 -47 -162 -148 -162 -257z" fill="currentColor"/>
<path transform="translate(9.2448, 10.5741) scale(0.0040, -0.0040)" d="M-210 86c-9 2 -15 10 -15 19c0 12 12 23 25 19l405 -104c14 0 20 -6 20 -20s-6 -20 -20 -20l-405 -104c-13 -4 -25 7 -25 19c0 9 6 17 15 19l248 64l140 22l-140 22z" fill="currentColor"/>
<rect transform="translate(-0.0717, 12.3716)" x="0.0000" y="-9.0537" width="0.1717" height="18.1073" ry="0.0537" fill="currentColor"/>
<path transform="translate(-1.3217, 3.0930) scale(0.0040, -0.0040)" d="M0 -56v85c0 15 12 27 27 27h54c157 0 265 136 353 268c12 18 40 0 28 -18c-96 -144 -210 -362 -381 -362h-81z" fill="currentColor"/>
<path transform="translate(-1.3217, 21.6503) scale(0.0040, -0.0040)" d="M0 56h81c171 0 285 -218 381 -362c12 -18 -16 -36 -28 -18c-88 132 -196 268 -353 268h-54c-15 0 -27 12 -27 27v85z" fill="currentColor"/>
<rect transform="translate(-1.3217, 12.3716)" x="0.0000" y="-9.0987" width="0.4500" height="18.1973" ry="0.0000" fill="currentColor"/>
<rect transform="translate(101.0698, 5.3716)" x="-0.0697" y="1.1794" width="0.1395" height="2.4802" ry="0.0444" fill="currentColor"/>
<rect transform="translate(8.6631, 19.3716)" x="-0.0697" y="-0.8206" width="0.1395" height="3.3206" ry="0.0444" fill="currentColor"/>
<path transform="translate(23.7462, 5.3716) scale(0.0040, -0.0040)" d="M215 137c57 0 111 -29 111 -92c0 -71 -54 -120 -101 -148c-35 -21 -74 -34 -114 -34c-57 0 -111 29 -111 92c0 71 54 120 101 148c35 21 74 34 114 34z" fill="currentColor"/>
<rect transform="translate(24.9792, 5.3716)" x="-0.0697" y="-4.9720" width="0.1395" height="4.7926" ry="0.0444" fill="currentColor"/>
<path transform="translate(25.4949, 4.8716) scale(0.0040, -0.0040)" d="M0 0c0 31 25 56 56 56s55 -25 55 -56s-24 -56 -55 -56s-56 25 -56 56z" fill="currentColor"/>
<path transform="translate(24.3976, 23.6709) scale(0.0040, -0.0040)" d="M-210 86c-9 2 -15 10 -15 19c0 12 12 23 25 19l405 -104c14 0 20 -6 20 -20s-6 -20 -20 -20l-405 -104c-13 -4 -25 7 -25 19c0 9 6 17 15 19l248 64l140 22l-140 22z" fill="currentColor"/>
<path transform="translate(23.7462, 21.3716) scale(0.0040, -0.0040)" d="M215 137c57 0 111 -29 111 -92c0 -71 -54 -120 -101 -148c-35 -21 -74 -34 -114 -34c-57 0 -111 29 -111 92c0 71 54 120 101 148c35 21 74 34 114 34z" fill="currentColor"/>
<path transform="translate(24.3976, 8.1213) scale(0.0040, -0.0040)" d="M-210 86c-9 2 -15 10 -15 19c0 12 12 23 25 19l405 -104c14 0 20 -6 20 -20s-6 -20 -20 -20l-405 -104c-13 -4 -25 7 -25 19c0 9 6 17 15 19l248 64l140 22l-140 22z" fill="currentColor"/>
<path transform="translate(19.4434, 18.3716) scale(0.0040, -0.0040)" d="M29 39l-2 -64v-11c0 -22 2 -43 5 -65c44 38 91 80 91 138c0 33 -13 66 -42 66c-31 0 -51 -31 -52 -64zM-28 454c9 5 18 8 28 8s19 -3 28 -8l-7 -343c25 23 58 36 92 36c51 0 87 -49 87 -103c0 -79 -84 -117 -144 -169c-16 -14 -25 -41 -47 -41c-14 0 -25 13 -25 27z" fill="currentColor"/>
<rect transform="translate(21.8264, 19.3716)" x="-0.0697" y="-3.9682" width="0.1395" height="2.7889" ry="0.0444" fill="currentColor"/>
<rect transform="translate(33.9792, 5.3716)" x="-0.0697" y="-2.9809" width="0.1395" height="2.3016" ry="0.0444" fill="currentColor"/>
<path transform="translate(32.7462, 21.8716) scale(0.0040, -0.0040)" d="M215 137c57 0 111 -29 111 -92c0 -71 -54 -120 -101 -148c-35 -21 -74 -34 -114 -34c-57 0 -111 29 -111 92c0 71 54 120 101 148c35 21 74 34 114 34z" fill="currentColor"/>
<path transform="translate(32.7462, 4.8716) scale(0.0040, -0.0040)" d="M215 137c57 0 111 -29 111 -92c0 -71 -54 -120 -101 -148c-35 -21 -74 -34 -114 -34c-57 0 -111 29 -111 92c0 71 54 120 101 148c35 21 74 34 114 34z" fill="currentColor"/>
<path transform="translate(21.9482, 21.3716) scale(0.0040, -0.0040)" d="M191 39l-1 -64v-11c0 -22 1 -43 4 -65c43 38 85 82 85 139c0 32 -11 65 -39 65c-30 0 -48 -31 -49 -64zM191 454l-8 -343c24 23 56 36 89 36c52 0 90 -48 90 -102c0 -79 -84 -118 -144 -170c-16 -14 -24 -41 -46 -41c-14 0 -25 13 -25 27l-2 105c-26 -33 -64 -60 -95 -91
c-14 -14 -20 -41 -41 -41c-14 0 -25 13 -25 27l-12 593c9 5 18 8 28 8s19 -3 28 -8l-7 -343c17 22 43 36 71 36c19 0 36 -8 49 -20l-7 327c9 5 18 8 28 8s20 -3 29 -8zM19 39l-1 -64v-11c0 -23 1 -45 4 -68c39 39 70 86 70 141c0 32 -6 66 -33 66c-28 0 -39 -32 -40 -64z
" fill="currentColor"/>
<rect transform="translate(24.9792, 19.3716)" x="-0.0697" y="-2.5318" width="0.1395" height="4.3524" ry="0.0444" fill="currentColor"/>
<path transform="translate(25.4949, 20.8716) scale(0.0040, -0.0040)" d="M0 0c0 31 25 56 56 56s55 -25 55 -56s-24 -56 -55 -56s-56 25 -56 56z" fill="currentColor"/>
<path transform="translate(22.2962, 5.3716) scale(0.0040, -0.0040)" d="M217 -311c0 -11 -8 -19 -19 -19s-20 8 -20 19v142l-81 -30v-156c0 -11 -9 -20 -20 -20s-19 9 -19 20v142l-28 -11c-3 -1 -5 -1 -8 -1c-12 0 -22 10 -22 23v57c0 9 6 18 15 21l43 16v157l-28 -10c-3 -1 -5 -1 -8 -1c-12 0 -22 9 -22 22v57c0 9 6 18 15 21l43 16v157
c0 11 8 19 19 19s20 -8 20 -19v-142l81 30v156c0 11 9 20 20 20s19 -9 19 -20v-142l28 11c3 1 5 1 8 1c12 0 22 -10 22 -23v-57c0 -9 -6 -18 -15 -21l-43 -16v-157l28 10c3 1 5 1 8 1c12 0 22 -9 22 -22v-57c0 -9 -6 -18 -15 -21l-43 -16v-157zM97 64v-158l81 30v158z" fill="currentColor"/>
<path transform="translate(19.1434, 8.3716) scale(0.0040, -0.0040)" d="M217 -311c0 -11 -8 -19 -19 -19s-20 8 -20 19v142l-81 -30v-156c0 -11 -9 -20 -20 -20s-19 9 -19 20v142l-28 -11c-3 -1 -5 -1 -8 -1c-12 0 -22 10 -22 23v57c0 9 6 18 15 21l43 16v157l-28 -10c-3 -1 -5 -1 -8 -1c-12 0 -22 9 -22 22v57c0 9 6 18 15 21l43 16v157
c0 11 8 19 19 19s20 -8 20 -19v-142l81 30v156c0 11 9 20 20 20s19 -9 19 -20v-142l28 11c3 1 5 1 8 1c12 0 22 -10 22 -23v-57c0 -9 -6 -18 -15 -21l-43 -16v-157l28 10c3 1 5 1 8 1c12 0 22 -9 22 -22v-57c0 -9 -6 -18 -15 -21l-43 -16v-157zM97 64v-158l81 30v158z" fill="currentColor"/>
<rect transform="translate(102.2331, 19.3716)" x="-0.0697" y="-1.6653" width="0.1395" height="2.4859" ry="0.0444" fill="currentColor"/>
<rect transform="translate(21.8264, 5.3716)" x="-0.0697" y="-3.7066" width="0.1395" height="6.5273" ry="0.0444" fill="currentColor"/>
<path transform="translate(20.5934, 18.3716) scale(0.0040, -0.0040)" d="M215 137c57 0 111 -29 111 -92c0 -71 -54 -120 -101 -148c-35 -21 -74 -34 -114 -34c-57 0 -111 29 -111 92c0 71 54 120 101 148c35 21 74 34 114 34z" fill="currentColor"/>
<path transform="translate(20.5934, 8.3716) scale(0.0040, -0.0040)" d="M215 137c57 0 111 -29 111 -92c0 -71 -54 -120 -101 -148c-35 -21 -74 -34 -114 -34c-57 0 -111 29 -111 92c0 71 54 120 101 148c35 21 74 34 114 34z" fill="currentColor"/>
</svg>
