<svg xmlns="http://www.w3.org/2000/svg" xmlns:xlink="http://www.w3.org/1999/xlink" version="1.2" width="89.64mm" height="16.15mm" viewBox="0.0000 -0.0000 56.6753 10.2090">
<style text="style/css">
<![CDATA[
tspan { white-space: pre; }
]]>
</style>
<g color="rgb(49.8039%, 49.8039%, 49.8039%)">
<line transform="translate(0.0000, 6.1417)" stroke-linejoin="round" stroke-linecap="round" stroke-width="0.1073" stroke="currentColor" x1="0.0537" y1="-0.0000" x2="56.5397" y2="-0.0000"/>
<line transform="translate(0.0000, 5.1417)" stroke-linejoin="round" stroke-linecap="round" stroke-width="0.1073" stroke="currentColor" x1="0.0537" y1="-0.0000" x2="56.5397" y2="-0.0000"/>
<line transform="translate(0.0000, 4.1417)" stroke-linejoin="round" stroke-linecap="round" stroke-width="0.1073" stroke="currentColor" x1="0.0537" y1="-0.0000" x2="56.5397" y2="-0.0000"/>
<line transform="translate(0.0000, 3.1417)" stroke-linejoin="round" stroke-linecap="round" stroke-width="0.1073" stroke="currentColor" x1="0.0537" y1="-0.0000" x2="56.5397" y2="-0.0000"/>
<line transform="translate(0.0000, 2.1417)" stroke-linejoin="round" stroke-linecap="round" stroke-width="0.1073" stroke="currentColor" x1="0.0537" y1="-0.0000" x2="56.5397" y2="-0.0000"/>
</g>
<rect transform="translate(0.0000, 7.1417)" x="20.2677" y="-0.1037" width="1.9542" height="0.2073" ry="0.1037" fill="currentColor"/>
<rect transform="translate(0.0000, 7.1417)" x="8.2677" y="-0.1037" width="1.9542" height="0.2073" ry="0.1037" fill="currentColor"/>
<rect transform="translate(56.3895, 4.1417)" x="0.0000" y="-2.0537" width="0.2039" height="4.1073" ry="0.0000" fill="currentColor"/>
<rect transform="translate(21.8264, 4.1417)" x="-0.0697" y="-0.6849" width="0.1395" height="3.5056" ry="0.0444" fill="currentColor"/>
<path transform="translate(20.5934, 7.1417) scale(0.0040, -0.0040)" d="M215 137c57 0 111 -29 111 -92c0 -71 -54 -120 -101 -148c-35 -21 -74 -34 -114 -34c-57 0 -111 29 -111 92c0 71 54 120 101 148c35 21 74 34 114 34z" fill="currentColor"/>
<rect transform="translate(18.8264, 4.1417)" x="-0.0697" y="-1.4937" width="0.1395" height="2.8144" ry="0.0444" fill="currentColor"/>
<path transform="translate(17.5934, 5.6417) scale(0.0040, -0.0040)" d="M215 137c57 0 111 -29 111 -92c0 -71 -54 -120 -101 -148c-35 -21 -74 -34 -114 -34c-57 0 -111 29 -111 92c0 71 54 120 101 148c35 21 74 34 114 34z" fill="currentColor"/>
<rect transform="translate(15.8264, 4.1417)" x="-0.0697" y="-1.2241" width="0.1395" height="3.0448" ry="0.0444" fill="currentColor"/>
<path transform="translate(14.5934, 6.1417) scale(0.0040, -0.0040)" d="M215 137c57 0 111 -29 111 -92c0 -71 -54 -120 -101 -148c-35 -21 -74 -34 -114 -34c-57 0 -111 29 -111 92c0 71 54 120 101 148c35 21 74 34 114 34z" fill="currentColor"/>
<rect transform="translate(12.8264, 4.1417)" x="-0.0697" y="-0.9545" width="0.1395" height="3.2752" ry="0.0444" fill="currentColor"/>
<path transform="translate(11.5934, 6.6417) scale(0.0040, -0.0040)" d="M215 137c57 0 111 -29 111 -92c0 -71 -54 -120 -101 -148c-35 -21 -74 -34 -114 -34c-57 0 -111 29 -111 92c0 71 54 120 101 148c35 21 74 34 114 34z" fill="currentColor"/>
<line transform="translate(10.9656, 8.8882)" stroke-linejoin="round" stroke-linecap="round" stroke-width="0.1073" stroke="currentColor" x1="0.0000" y1="0.0000" x2="36.6343" y2="0.6666"/>
<line transform="translate(10.9656, 8.8882)" stroke-linejoin="round" stroke-linecap="round" stroke-width="0.1073" stroke="currentColor" x1="0.0000" y1="-0.0000" x2="36.6343" y2="-0.6666"/>
<polygon transform="translate(9.7567, 3.4630)" stroke-linejoin="round" stroke-linecap="round" stroke-width="0.0889" fill="currentColor" stroke="currentColor" points="9.0950 -1.1519 9.0950 -0.4908 0.0444 0.3306 0.0444 -0.3306"/>
<polygon transform="translate(9.7567, 4.6685)" stroke-linejoin="round" stroke-linecap="round" stroke-width="0.0889" fill="currentColor" stroke="currentColor" points="9.0950 -1.1519 9.0950 -0.4908 0.0444 0.3306 0.0444 -0.3306"/>
<polygon transform="translate(21.7567, 3.4630)" stroke-linejoin="round" stroke-linecap="round" stroke-width="0.0889" fill="currentColor" stroke="currentColor" points="9.0950 -1.1519 9.0950 -0.4908 0.0444 0.3306 0.0444 -0.3306"/>
<polygon transform="translate(21.7567, 4.6685)" stroke-linejoin="round" stroke-linecap="round" stroke-width="0.0889" fill="currentColor" stroke="currentColor" points="9.0950 -1.1519 9.0950 -0.4908 0.0444 0.3306 0.0444 -0.3306"/>
<rect transform="translate(30.8264, 4.1417)" x="-0.0697" y="-1.4937" width="0.1395" height="2.8144" ry="0.0444" fill="currentColor"/>
<path transform="translate(29.5934, 5.6417) scale(0.0040, -0.0040)" d="M215 137c57 0 111 -29 111 -92c0 -71 -54 -120 -101 -148c-35 -21 -74 -34 -114 -34c-57 0 -111 29 -111 92c0 71 54 120 101 148c35 21 74 34 114 34z" fill="currentColor"/>
<rect transform="translate(27.8264, 4.1417)" x="-0.0697" y="-1.2241" width="0.1395" height="3.0448" ry="0.0444" fill="currentColor"/>
<path transform="translate(26.5934, 6.1417) scale(0.0040, -0.0040)" d="M215 137c57 0 111 -29 111 -92c0 -71 -54 -120 -101 -148c-35 -21 -74 -34 -114 -34c-57 0 -111 29 -111 92c0 71 54 120 101 148c35 21 74 34 114 34z" fill="currentColor"/>
<rect transform="translate(24.8264, 4.1417)" x="-0.0697" y="-0.9545" width="0.1395" height="3.2752" ry="0.0444" fill="currentColor"/>
<path transform="translate(23.5934, 6.6417) scale(0.0040, -0.0040)" d="M215 137c57 0 111 -29 111 -92c0 -71 -54 -120 -101 -148c-35 -21 -74 -34 -114 -34c-57 0 -111 29 -111 92c0 71 54 120 101 148c35 21 74 34 114 34z" fill="currentColor"/>
<rect transform="translate(33.8264, 4.1417)" x="-0.0697" y="-1.0000" width="0.1395" height="3.3206" ry="0.0444" fill="currentColor"/>
<path transform="translate(32.5934, 6.6417) scale(0.0040, -0.0040)" d="M215 137c57 0 111 -29 111 -92c0 -71 -54 -120 -101 -148c-35 -21 -74 -34 -114 -34c-57 0 -111 29 -111 92c0 71 54 120 101 148c35 21 74 34 114 34z" fill="currentColor"/>
<rect transform="translate(9.8264, 4.1417)" x="-0.0697" y="-0.6849" width="0.1395" height="3.5056" ry="0.0444" fill="currentColor"/>
<path transform="translate(5.0000, 4.1417) scale(0.0040, -0.0040)" d="M194 120h120c0 -49 29 -95 75 -95c8 0 12 -7 12 -13s-4 -12 -12 -12c-45 0 -90 13 -135 13s-90 -13 -135 -13c-8 0 -12 6 -12 12s4 13 12 13c46 0 75 46 75 95zM203 301c22 15 45 30 61 51c12 15 19 34 27 51c2 4 5 6 9 6c6 0 14 -6 14 -15v-238h74c10 0 16 -8 16 -16
s-6 -15 -16 -15h-74v-5h-120v5h-163c-24 0 -33 15 -33 24c0 3 1 6 2 7c80 92 134 205 134 327c0 11 8 20 17 17c24 -7 48 -13 73 -13s48 6 72 13c2 1 4 1 6 1c9 0 14 -7 14 -13c0 -2 0 -3 -2 -5l-283 -327h163v122c0 9 2 18 9 23z" fill="currentColor"/>
<path transform="translate(5.0000, 6.2282) scale(0.0040, -0.0040)" d="M194 120h120c0 -49 29 -95 75 -95c8 0 12 -7 12 -13s-4 -12 -12 -12c-45 0 -90 13 -135 13s-90 -13 -135 -13c-8 0 -12 6 -12 12s4 13 12 13c46 0 75 46 75 95zM203 301c22 15 45 30 61 51c12 15 19 34 27 51c2 4 5 6 9 6c6 0 14 -6 14 -15v-238h74c10 0 16 -8 16 -16
s-6 -15 -16 -15h-74v-5h-120v5h-163c-24 0 -33 15 -33 24c0 3 1 6 2 7c80 92 134 205 134 327c0 11 8 20 17 17c24 -7 48 -13 73 -13s48 6 72 13c2 1 4 1 6 1c9 0 14 -7 14 -13c0 -2 0 -3 -2 -5l-283 -327h163v122c0 9 2 18 9 23z" fill="currentColor"/>
<path transform="translate(0.8000, 5.1417) scale(0.0040, -0.0040)" d="M378 263c4 0 7 1 11 1c156 0 257 -129 257 -262c0 -76 -34 -154 -108 -210c-22 -17 -46 -29 -72 -37c3 -34 4 -68 4 -102c0 -20 0 -40 -1 -60c-7 -121 -90 -228 -209 -228c-108 0 -196 87 -196 196c0 58 53 104 112 104c54 0 95 -48 95 -104c0 -52 -43 -95 -95 -95
c-10 0 -20 2 -29 6c26 -38 68 -63 116 -63h3c93 2 153 92 159 190c1 19 2 37 2 56c0 30 -2 60 -4 90c-29 -5 -58 -8 -88 -8c-188 0 -333 173 -333 375c0 177 130 307 246 442c-20 62 -38 125 -46 190c-6 52 -7 104 -7 157c0 115 55 223 148 290c7 5 16 4 22 -1
c71 -83 134 -244 134 -357c0 -143 -85 -255 -178 -364c21 -68 40 -137 57 -206zM462 -202c67 24 111 94 111 162c0 89 -65 178 -170 190c24 -115 46 -230 59 -352zM75 26c0 -134 129 -245 263 -245c28 0 55 2 81 6c-14 126 -36 244 -61 363c-79 -8 -124 -61 -124 -119
c0 -43 25 -89 80 -121c5 -5 7 -11 7 -16c0 -12 -10 -23 -22 -23c-3 0 -6 1 -9 2c-81 43 -118 116 -118 186c0 89 58 175 161 198c-14 58 -29 116 -46 173c-106 -122 -212 -244 -212 -404zM244 785c0 -73 20 -132 38 -191c79 97 144 199 144 324c0 53 -4 76 -20 124
c-99 -47 -162 -148 -162 -257z" fill="currentColor"/>
<path transform="translate(8.5240, 9.4882) scale(0.0040, -0.0040)" d="M233 243c-56 0 -102 -108 -102 -174c0 -22 8 -38 30 -38c63 0 97 127 97 179c0 18 -7 33 -25 33zM111 -146c-37 0 -76 5 -114 5s-79 -5 -115 -5c-9 0 -14 8 -14 15c0 19 30 16 48 17c23 1 47 7 54 27l101 296c2 7 5 14 5 20c0 8 -3 14 -11 14c-33 0 -61 -60 -77 -97
c-5 -13 -17 -19 -26 -19c-8 0 -15 5 -15 13c0 3 1 7 2 10c30 68 73 142 133 142c35 0 58 -22 65 -52c29 31 67 52 103 52c69 0 107 -49 107 -114c0 -21 -4 -44 -12 -67c-20 -58 -91 -120 -147 -120c-27 0 -52 6 -73 18c-10 6 -24 3 -27 -6l-27 -80c-1 -3 -2 -6 -2 -9
c0 -21 20 -28 43 -30c9 -1 13 -8 13 -15s-5 -15 -14 -15z" fill="currentColor"/>
<path transform="translate(8.5934, 7.1417) scale(0.0040, -0.0040)" d="M215 137c57 0 111 -29 111 -92c0 -71 -54 -120 -101 -148c-35 -21 -74 -34 -114 -34c-57 0 -111 29 -111 92c0 71 54 120 101 148c35 21 74 34 114 34z" fill="currentColor"/>
<text transform="translate(43.9160, 1.1381)" font-family="serif" font-style="italic" font-size="1.7462" text-anchor="start" fill="currentColor">
<tspan>3:2</tspan>
</text>
<line transform="translate(33.7567, 0.5880)" stroke-linejoin="round" stroke-linecap="round" stroke-width="0.1717" stroke="currentColor" x1="22.8328" y1="-0.0000" x2="22.8328" y2="0.7000"/>
<line transform="translate(33.7567, 0.5880)" stroke-linejoin="round" stroke-linecap="round" stroke-width="0.1717" stroke="currentColor" x1="-0.2000" y1="-0.0000" x2="-0.2000" y2="0.7000"/>
<line transform="translate(33.7567, 0.5880)" stroke-linejoin="round" stroke-linecap="round" stroke-width="0.1717" stroke="currentColor" x1="22.8328" y1="-0.0000" x2="13.0735" y2="-0.0000"/>
<line transform="translate(33.7567, 0.5880)" stroke-linejoin="round" stroke-linecap="round" stroke-width="0.1717" stroke="currentColor" x1="-0.2000" y1="-0.0000" x2="9.7593" y2="-0.0000"/>
<path transform="translate(48.5934, 5.6417) scale(0.0040, -0.0040)" d="M215 137c57 0 111 -29 111 -92c0 -71 -54 -120 -101 -148c-35 -21 -74 -34 -114 -34c-57 0 -111 29 -111 92c0 71 54 120 101 148c35 21 74 34 114 34z" fill="currentColor"/>
<rect transform="translate(49.8264, 4.1417)" x="-0.0697" y="-2.0000" width="0.1395" height="3.3206" ry="0.0444" fill="currentColor"/>
<path transform="translate(48.5998, 9.4882) scale(0.0040, -0.0040)" d="M252 241l-49 -161c-30 -99 -121 -256 -218 -256c-46 0 -87 30 -87 73c0 39 17 77 52 77c24 0 44 -20 44 -44c0 -30 -38 -24 -38 -54c0 -10 11 -11 23 -11h6c47 0 61 56 73 105l68 271h-47c-11 0 -21 10 -21 21s10 21 21 21h58c32 95 119 189 213 189c46 0 87 -29 87 -72
c0 -39 -17 -78 -52 -78c-24 0 -44 20 -44 44c0 30 38 25 38 55c0 10 -10 10 -22 10h-7c-60 0 -70 -84 -86 -148h53c11 0 21 -10 21 -21s-10 -21 -21 -21h-65z" fill="currentColor"/>
<path transform="translate(40.5934, 6.1417) scale(0.0040, -0.0040)" d="M215 137c57 0 111 -29 111 -92c0 -71 -54 -120 -101 -148c-35 -21 -74 -34 -114 -34c-57 0 -111 29 -111 92c0 71 54 120 101 148c35 21 74 34 114 34z" fill="currentColor"/>
<rect transform="translate(41.8264, 4.1417)" x="-0.0697" y="-1.5000" width="0.1395" height="3.3206" ry="0.0444" fill="currentColor"/>
</svg>
