<svg xmlns="http://www.w3.org/2000/svg" xmlns:xlink="http://www.w3.org/1999/xlink" version="1.2" width="181.83mm" height="84.64mm" viewBox="-1.2982 -0.0000 129.3356 60.2066">
<style type="text/css">
<![CDATA[
tspan { white-space: pre; }
]]>
</style>
<g transform="translate(40.5452, 2.3666)">
<text font-family="serif" font-weight="bold" font-size="3.4919" text-anchor="start" fill="currentColor">
<tspan>Ein Musikalisches Wuerfelspiel</tspan>
</text>
</g>
<g transform="translate(44.3009, 5.8666)">
<text font-family="serif" font-weight="bold" font-size="2.4697" text-anchor="start" fill="currentColor">
<tspan>[1-2-2-6-3-11-5-2-10-4-10-1-10-11-3-2]</tspan>
</text>
</g>
<g transform="translate(0.0000, 16.8657)">
<rect x="107.3429" y="-0.1082" width="1.9512" height="0.2164" ry="0.1082" fill="currentColor"/>
</g>
<g transform="translate(0.0000, 16.8657)">
<rect x="80.7474" y="-0.1082" width="1.9512" height="0.2164" ry="0.1082" fill="currentColor"/>
</g>
<g transform="translate(0.0000, 16.8657)">
<rect x="71.7979" y="-0.1082" width="1.9512" height="0.2164" ry="0.1082" fill="currentColor"/>
</g>
<g transform="translate(0.0000, 21.8657)">
<line stroke-linejoin="round" stroke-linecap="round" stroke-width="0.1164" stroke="currentColor" x1="0.0582" y1="0" x2="127.9792" y2="0"/>
</g>
<g transform="translate(0.0000, 20.8657)">
<line stroke-linejoin="round" stroke-linecap="round" stroke-width="0.1164" stroke="currentColor" x1="0.0582" y1="0" x2="127.9792" y2="0"/>
</g>
<g transform="translate(0.0000, 19.8657)">
<line stroke-linejoin="round" stroke-linecap="round" stroke-width="0.1164" stroke="currentColor" x1="0.0582" y1="0" x2="127.9792" y2="0"/>
</g>
<g transform="translate(0.0000, 18.8657)">
<line stroke-linejoin="round" stroke-linecap="round" stroke-width="0.1164" stroke="currentColor" x1="0.0582" y1="0" x2="127.9792" y2="0"/>
</g>
<g transform="translate(0.0000, 17.8657)">
<line stroke-linejoin="round" stroke-linecap="round" stroke-width="0.1164" stroke="currentColor" x1="0.0582" y1="0" x2="127.9792" y2="0"/>
</g>
<g transform="translate(127.3388, 6.3176)">
<rect x="0.0000" y="15.6064" width="0.6986" height="4.9418" ry="0.0000" fill="currentColor"/>
</g>
<g transform="translate(126.7683, 6.3176)">
<rect x="0.0000" y="15.6064" width="0.2212" height="4.9418" ry="0.0000" fill="currentColor"/>
</g>
<g transform="translate(0.0000, 31.8657)">
<rect x="104.4902" y="-0.1082" width="1.9512" height="0.2164" ry="0.1082" fill="currentColor"/>
</g>
<g transform="translate(0.0000, 30.8657)">
<line stroke-linejoin="round" stroke-linecap="round" stroke-width="0.1164" stroke="currentColor" x1="0.0582" y1="0" x2="127.9792" y2="0"/>
</g>
<g transform="translate(0.0000, 29.8657)">
<line stroke-linejoin="round" stroke-linecap="round" stroke-width="0.1164" stroke="currentColor" x1="0.0582" y1="0" x2="127.9792" y2="0"/>
</g>
<g transform="translate(0.0000, 28.8657)">
<line stroke-linejoin="round" stroke-linecap="round" stroke-width="0.1164" stroke="currentColor" x1="0.0582" y1="0" x2="127.9792" y2="0"/>
</g>
<g transform="translate(0.0000, 27.8657)">
<line stroke-linejoin="round" stroke-linecap="round" stroke-width="0.1164" stroke="currentColor" x1="0.0582" y1="0" x2="127.9792" y2="0"/>
</g>
<g transform="translate(0.0000, 26.8657)">
<line stroke-linejoin="round" stroke-linecap="round" stroke-width="0.1164" stroke="currentColor" x1="0.0582" y1="0" x2="127.9792" y2="0"/>
</g>
<g transform="translate(125.9777, 28.3657)">
<path transform="scale(0.0040, -0.0040)" d="M0 0c0 30 25 55 55 55s55 -25 55 -55s-25 -55 -55 -55s-55 25 -55 55z" fill="currentColor"/>
</g>
<g transform="translate(125.9777, 29.3657)">
<path transform="scale(0.0040, -0.0040)" d="M0 0c0 30 25 55 55 55s55 -25 55 -55s-25 -55 -55 -55s-55 25 -55 55z" fill="currentColor"/>
</g>
<g transform="translate(127.3388, 28.8657)">
<rect x="0.0000" y="-2.0582" width="0.6986" height="4.0582" ry="0.0000" fill="currentColor"/>
</g>
<g transform="translate(126.7683, 28.8657)">
<rect x="0.0000" y="-2.0582" width="0.2212" height="4.0582" ry="0.0000" fill="currentColor"/>
</g>
<g transform="translate(125.9777, 19.3657)">
<path transform="scale(0.0040, -0.0040)" d="M0 0c0 30 25 55 55 55s55 -25 55 -55s-25 -55 -55 -55s-55 25 -55 55z" fill="currentColor"/>
</g>
<g transform="translate(125.9777, 20.3657)">
<path transform="scale(0.0040, -0.0040)" d="M0 0c0 30 25 55 55 55s55 -25 55 -55s-25 -55 -55 -55s-55 25 -55 55z" fill="currentColor"/>
</g>
<g transform="translate(127.3388, 19.8657)">
<rect x="0.0000" y="-2.0000" width="0.6986" height="4.0582" ry="0.0000" fill="currentColor"/>
</g>
<g transform="translate(126.7683, 19.8657)">
<rect x="0.0000" y="-2.0000" width="0.2212" height="4.0582" ry="0.0000" fill="currentColor"/>
</g>
<g transform="translate(110.0209, 6.3176)">
<rect x="0.0000" y="15.6064" width="0.2212" height="4.9418" ry="0.0000" fill="currentColor"/>
</g>
<g transform="translate(110.0209, 28.8657)">
<rect x="0.0000" y="-2.0582" width="0.2212" height="4.0582" ry="0.0000" fill="currentColor"/>
</g>
<g transform="translate(110.0209, 19.8657)">
<rect x="0.0000" y="-2.0000" width="0.2212" height="4.0582" ry="0.0000" fill="currentColor"/>
</g>
<g transform="translate(91.8175, 6.3176)">
<rect x="0.0000" y="15.6064" width="0.2212" height="4.9418" ry="0.0000" fill="currentColor"/>
</g>
<g transform="translate(91.8175, 28.8657)">
<rect x="0.0000" y="-2.0582" width="0.2212" height="4.0582" ry="0.0000" fill="currentColor"/>
</g>
<g transform="translate(91.8175, 19.8657)">
<rect x="0.0000" y="-2.0000" width="0.2212" height="4.0582" ry="0.0000" fill="currentColor"/>
</g>
<g transform="translate(76.8285, 6.3176)">
<rect x="0.0000" y="15.6064" width="0.2212" height="4.9418" ry="0.0000" fill="currentColor"/>
</g>
<g transform="translate(76.8285, 28.8657)">
<rect x="0.0000" y="-2.0582" width="0.2212" height="4.0582" ry="0.0000" fill="currentColor"/>
</g>
<g transform="translate(76.8285, 19.8657)">
<rect x="0.0000" y="-2.0000" width="0.2212" height="4.0582" ry="0.0000" fill="currentColor"/>
</g>
<g transform="translate(60.0068, 6.3176)">
<rect x="0.0000" y="15.6064" width="0.2212" height="4.9418" ry="0.0000" fill="currentColor"/>
</g>
<g transform="translate(60.0068, 28.8657)">
<rect x="0.0000" y="-2.0582" width="0.2212" height="4.0582" ry="0.0000" fill="currentColor"/>
</g>
<g transform="translate(60.0068, 19.8657)">
<rect x="0.0000" y="-2.0000" width="0.2212" height="4.0582" ry="0.0000" fill="currentColor"/>
</g>
<g transform="translate(45.9694, 6.3176)">
<rect x="0.0000" y="15.6064" width="0.2212" height="4.9418" ry="0.0000" fill="currentColor"/>
</g>
<g transform="translate(45.9694, 28.8657)">
<rect x="0.0000" y="-2.0582" width="0.2212" height="4.0582" ry="0.0000" fill="currentColor"/>
</g>
<g transform="translate(45.9694, 19.8657)">
<rect x="0.0000" y="-2.0000" width="0.2212" height="4.0582" ry="0.0000" fill="currentColor"/>
</g>
<g transform="translate(32.7654, 6.3176)">
<rect x="0.0000" y="15.6064" width="0.2212" height="4.9418" ry="0.0000" fill="currentColor"/>
</g>
<g transform="translate(32.7654, 28.8657)">
<rect x="0.0000" y="-2.0582" width="0.2212" height="4.0582" ry="0.0000" fill="currentColor"/>
</g>
<g transform="translate(32.7654, 19.8657)">
<rect x="0.0000" y="-2.0000" width="0.2212" height="4.0582" ry="0.0000" fill="currentColor"/>
</g>
<g transform="translate(19.5288, 6.3176)">
<rect x="0.0000" y="15.6064" width="0.2212" height="4.9418" ry="0.0000" fill="currentColor"/>
</g>
<g transform="translate(19.5288, 28.8657)">
<rect x="0.0000" y="-2.0582" width="0.2212" height="4.0582" ry="0.0000" fill="currentColor"/>
</g>
<g transform="translate(19.5288, 19.8657)">
<rect x="0.0000" y="-2.0000" width="0.2212" height="4.0582" ry="0.0000" fill="currentColor"/>
</g>
<g transform="translate(9.7222, 28.8657)">
<rect x="-0.0757" y="-3.0000" width="0.1514" height="3.3286" ry="0.0500" fill="currentColor"/>
</g>
<g transform="translate(112.5617, 25.0475)">
<polygon stroke-linejoin="round" stroke-linecap="round" stroke-width="0.1000" fill="currentColor" stroke="currentColor" points="12.0641 -0.1900 12.0641 0.1900 0.0500 0.1900 0.0500 -0.1900"/>
</g>
<g transform="translate(116.7163, 25.8657)">
<polygon stroke-linejoin="round" stroke-linecap="round" stroke-width="0.1000" fill="currentColor" stroke="currentColor" points="7.9095 -0.1900 7.9095 0.1900 0.0500 0.1900 0.0500 -0.1900"/>
</g>
<g transform="translate(12.1517, 19.3657)">
<path transform="scale(0.0040, -0.0040)" d="M0 -43c0 92 111 181 211 181c65 0 115 -37 115 -95c0 -88 -106 -181 -215 -181c-70 0 -111 41 -111 95z" fill="currentColor"/>
</g>
<g transform="translate(12.2274, 19.8657)">
<rect x="-0.0757" y="-0.3286" width="0.1514" height="3.0786" ry="0.0500" fill="currentColor"/>
</g>
<g transform="translate(94.2040, 26.0475)">
<polygon stroke-linejoin="round" stroke-linecap="round" stroke-width="0.1000" fill="currentColor" stroke="currentColor" points="11.8622 -0.1900 11.8622 0.1900 0.0500 0.1900 0.0500 -0.1900"/>
</g>
<g transform="translate(15.8063, 20.8657)">
<path transform="scale(0.0040, -0.0040)" d="M0 -43c0 92 111 181 211 181c65 0 115 -37 115 -95c0 -88 -106 -181 -215 -181c-70 0 -111 41 -111 95z" fill="currentColor"/>
</g>
<g transform="translate(15.8063, 28.8657)">
<path transform="scale(0.0040, -0.0040)" d="M70 205c81 0 46 -96 90 -96c14 0 50 42 56 55c4 7 10 11 17 11s14 -4 17 -11l-119 -414c-9 -8 -21 -12 -32 -12s-23 4 -32 12l118 326c-33 -12 -66 -22 -101 -22c-58 0 -86 40 -86 79c0 36 24 72 72 72z" fill="currentColor"/>
</g>
<g transform="translate(15.8820, 19.8657)">
<rect x="-0.0757" y="1.1714" width="0.1514" height="2.3134" ry="0.0500" fill="currentColor"/>
</g>
<g transform="translate(93.0545, 21.8657)">
<polygon stroke-linejoin="round" stroke-linecap="round" stroke-width="0.1000" fill="currentColor" stroke="currentColor" points="14.7150 -2.0082 14.7150 -1.6282 0.0500 0.1900 0.0500 -0.1900"/>
</g>
<g transform="translate(93.0545, 22.6839)">
<polygon stroke-linejoin="round" stroke-linecap="round" stroke-width="0.1000" fill="currentColor" stroke="currentColor" points="14.7150 -2.0082 14.7150 -1.6282 0.0500 0.1900 0.0500 -0.1900"/>
</g>
<g transform="translate(78.2199, 20.0475)">
<polygon stroke-linejoin="round" stroke-linecap="round" stroke-width="0.1000" fill="currentColor" stroke="currentColor" points="7.6595 1.2031 7.6595 1.5831 0.0500 0.1900 0.0500 -0.1900"/>
</g>
<g transform="translate(78.2199, 20.8657)">
<polygon stroke-linejoin="round" stroke-linecap="round" stroke-width="0.1000" fill="currentColor" stroke="currentColor" points="10.0122 1.6282 10.0122 2.0082 0.0500 0.1900 0.0500 -0.1900"/>
</g>
<g transform="translate(20.8230, 20.8657)">
<path transform="scale(0.0040, -0.0040)" d="M0 -43c0 92 111 181 211 181c65 0 115 -37 115 -95c0 -88 -106 -181 -215 -181c-70 0 -111 41 -111 95z" fill="currentColor"/>
</g>
<g transform="translate(20.8230, 29.3657)">
<path transform="scale(0.0040, -0.0040)" d="M0 -43c0 92 111 181 211 181c65 0 115 -37 115 -95c0 -88 -106 -181 -215 -181c-70 0 -111 41 -111 95z" fill="currentColor"/>
</g>
<g transform="translate(20.8230, 28.3657)">
<path transform="scale(0.0040, -0.0040)" d="M0 -43c0 92 111 181 211 181c65 0 115 -37 115 -95c0 -88 -106 -181 -215 -181c-70 0 -111 41 -111 95z" fill="currentColor"/>
</g>
<g transform="translate(20.8986, 19.8657)">
<rect x="-0.0757" y="1.1714" width="0.1514" height="2.3152" ry="0.0500" fill="currentColor"/>
</g>
<g transform="translate(20.8986, 28.8657)">
<rect x="-0.0757" y="-0.3286" width="0.1514" height="3.9953" ry="0.0500" fill="currentColor"/>
</g>
<g transform="translate(61.3295, 21.8657)">
<polygon stroke-linejoin="round" stroke-linecap="round" stroke-width="0.1000" fill="currentColor" stroke="currentColor" points="13.2476 -0.1900 13.2476 0.1900 0.0500 0.1900 0.0500 -0.1900"/>
</g>
<g transform="translate(61.3295, 22.6839)">
<polygon stroke-linejoin="round" stroke-linecap="round" stroke-width="0.1000" fill="currentColor" stroke="currentColor" points="13.2476 -0.1900 13.2476 0.1900 0.0500 0.1900 0.0500 -0.1900"/>
</g>
<g transform="translate(24.9776, 19.3657)">
<path transform="scale(0.0040, -0.0040)" d="M0 -43c0 92 111 181 211 181c65 0 115 -37 115 -95c0 -88 -106 -181 -215 -181c-70 0 -111 41 -111 95z" fill="currentColor"/>
</g>
<g transform="translate(25.0533, 19.8657)">
<rect x="-0.0757" y="-0.3286" width="0.1514" height="3.0786" ry="0.0500" fill="currentColor"/>
</g>
<g transform="translate(51.1682, 21.5974)">
<polygon stroke-linejoin="round" stroke-linecap="round" stroke-width="0.1000" fill="currentColor" stroke="currentColor" points="2.7041 -0.3793 2.7041 0.0007 0.0500 0.1900 0.0500 -0.1900"/>
</g>
<g transform="translate(47.2635, 22.6839)">
<polygon stroke-linejoin="round" stroke-linecap="round" stroke-width="0.1000" fill="currentColor" stroke="currentColor" points="9.2114 -0.8264 9.2114 -0.4464 0.0500 0.1900 0.0500 -0.1900"/>
</g>
<g transform="translate(29.1322, 18.3657)">
<path transform="scale(0.0040, -0.0040)" d="M0 -43c0 92 111 181 211 181c65 0 115 -37 115 -95c0 -88 -106 -181 -215 -181c-70 0 -111 41 -111 95z" fill="currentColor"/>
</g>
<g transform="translate(29.1322, 28.8657)">
<path transform="scale(0.0040, -0.0040)" d="M70 205c81 0 46 -96 90 -96c14 0 50 42 56 55c4 7 10 11 17 11s14 -4 17 -11l-119 -414c-9 -8 -21 -12 -32 -12s-23 4 -32 12l118 326c-33 -12 -66 -22 -101 -22c-58 0 -86 40 -86 79c0 36 24 72 72 72z" fill="currentColor"/>
</g>
<g transform="translate(29.2079, 19.8657)">
<rect x="-0.0757" y="-1.3286" width="0.1514" height="3.3420" ry="0.0500" fill="currentColor"/>
</g>
<g transform="translate(34.0310, 23.0475)">
<polygon stroke-linejoin="round" stroke-linecap="round" stroke-width="0.1000" fill="currentColor" stroke="currentColor" points="8.4106 -1.5536 8.4106 -1.1736 0.0500 0.1900 0.0500 -0.1900"/>
</g>
<g transform="translate(20.8230, 23.3657)">
<polygon stroke-linejoin="round" stroke-linecap="round" stroke-width="0.1000" fill="currentColor" stroke="currentColor" points="8.4106 -1.6900 8.4106 -1.3100 0.0500 0.1900 0.0500 -0.1900"/>
</g>
<g transform="translate(34.0310, 19.8657)">
<path transform="scale(0.0040, -0.0040)" d="M0 -43c0 92 111 181 211 181c65 0 115 -37 115 -95c0 -88 -106 -181 -215 -181c-70 0 -111 41 -111 95z" fill="currentColor"/>
</g>
<g transform="translate(34.0310, 30.8657)">
<path transform="scale(0.0040, -0.0040)" d="M0 -43c0 92 111 181 211 181c65 0 115 -37 115 -95c0 -88 -106 -181 -215 -181c-70 0 -111 41 -111 95z" fill="currentColor"/>
</g>
<g transform="translate(34.1067, 19.8657)">
<rect x="-0.0757" y="0.1714" width="0.1514" height="2.9982" ry="0.0500" fill="currentColor"/>
</g>
<g transform="translate(35.2561, 28.8657)">
<rect x="-0.0757" y="-1.5000" width="0.1514" height="3.3286" ry="0.0500" fill="currentColor"/>
</g>
<g transform="translate(8.5728, 19.8657)">
<rect x="-0.0757" y="-1.3286" width="0.1514" height="3.3438" ry="0.0500" fill="currentColor"/>
</g>
<g transform="translate(8.4971, 21.8657)">
<polygon stroke-linejoin="round" stroke-linecap="round" stroke-width="0.1000" fill="currentColor" stroke="currentColor" points="7.4106 1.3100 7.4106 1.6900 0.0500 0.1900 0.0500 -0.1900"/>
</g>
<g transform="translate(38.1856, 18.8657)">
<path transform="scale(0.0040, -0.0040)" d="M0 -43c0 92 111 181 211 181c65 0 115 -37 115 -95c0 -88 -106 -181 -215 -181c-70 0 -111 41 -111 95z" fill="currentColor"/>
</g>
<g transform="translate(38.2613, 19.8657)">
<rect x="-0.0757" y="-0.8286" width="0.1514" height="3.3286" ry="0.0500" fill="currentColor"/>
</g>
<g transform="translate(42.3402, 17.3657)">
<path transform="scale(0.0040, -0.0040)" d="M0 -43c0 92 111 181 211 181c65 0 115 -37 115 -95c0 -88 -106 -181 -215 -181c-70 0 -111 41 -111 95z" fill="currentColor"/>
</g>
<g transform="translate(42.3402, 28.8657)">
<path transform="scale(0.0040, -0.0040)" d="M70 205c81 0 46 -96 90 -96c14 0 50 42 56 55c4 7 10 11 17 11s14 -4 17 -11l-119 -414c-9 -8 -21 -12 -32 -12s-23 4 -32 12l118 326c-33 -12 -66 -22 -101 -22c-58 0 -86 40 -86 79c0 36 24 72 72 72z" fill="currentColor"/>
</g>
<g transform="translate(42.4159, 19.8657)">
<rect x="-0.0757" y="-2.3286" width="0.1514" height="4.1590" ry="0.0500" fill="currentColor"/>
</g>
<g transform="translate(47.2635, 19.3657)">
<path transform="scale(0.0040, -0.0040)" d="M0 -43c0 92 111 181 211 181c65 0 115 -37 115 -95c0 -88 -106 -181 -215 -181c-70 0 -111 41 -111 95z" fill="currentColor"/>
</g>
<g transform="translate(5.0673, 28.8657)">
<path transform="scale(0.0040, -0.0040)" d="M266 265c0 -36 73 -25 73 -125c0 -93 -81 -140 -182 -140c-80 0 -157 43 -157 116c0 35 29 64 64 64s64 -29 64 -64c0 -24 -39 -29 -39 -53c0 -29 35 -37 68 -37c47 0 59 59 59 114v28c0 47 -2 81 -46 81h-77c-11 0 -16 8 -16 16s5 16 16 16h77c44 0 46 37 46 86v19
c0 53 -15 88 -63 88c-30 0 -62 -8 -62 -34c0 -21 35 -25 35 -46c0 -31 -25 -56 -56 -56s-56 25 -56 56c0 65 68 106 139 106c92 0 171 -32 171 -114c0 -117 -58 -79 -58 -121z" fill="currentColor"/>
</g>
<g transform="translate(5.0033, 30.8657)">
<path transform="scale(0.0040, -0.0040)" d="M263 292c24 29 43 61 43 99c0 52 -55 83 -112 83c-45 0 -71 -35 -71 -68c0 -20 10 -38 30 -50zM297 272c54 -31 81 -79 81 -126c0 -74 -67 -146 -192 -146c-96 0 -186 53 -186 141c0 49 36 87 72 122c-36 28 -55 65 -55 102c0 68 61 135 177 135c81 0 160 -37 160 -109
c0 -46 -26 -85 -57 -119zM105 242c-30 -29 -57 -60 -57 -101c0 -68 66 -115 138 -115c53 0 85 41 85 80c0 23 -11 47 -34 60z" fill="currentColor"/>
</g>
<g transform="translate(47.2635, 29.3657)">
<path transform="scale(0.0040, -0.0040)" d="M0 -43c0 92 111 181 211 181c65 0 115 -37 115 -95c0 -88 -106 -181 -215 -181c-70 0 -111 41 -111 95z" fill="currentColor"/>
</g>
<g transform="translate(47.2635, 28.3657)">
<path transform="scale(0.0040, -0.0040)" d="M0 -43c0 92 111 181 211 181c65 0 115 -37 115 -95c0 -88 -106 -181 -215 -181c-70 0 -111 41 -111 95z" fill="currentColor"/>
</g>
<g transform="translate(0.8000, 27.8657)">
<path transform="scale(0.0040, -0.0040)" d="M558 -125c0 28 22 50 50 50s50 -22 50 -50s-22 -50 -50 -50s-50 22 -50 50zM558 125c0 28 22 50 50 50s50 -22 50 -50s-22 -50 -50 -50s-50 22 -50 50zM231 265c173 0 294 -88 294 -252c0 -263 -263 -415 -515 -523c-3 -3 -7 -5 -10 -5c-8 0 -15 7 -15 15c0 3 2 7 5 10
c200 118 407 264 407 491c0 119 -59 234 -166 234c-70 0 -119 -51 -142 -120c8 2 15 4 23 4c55 0 100 -45 100 -100c0 -58 -44 -106 -100 -106c-60 0 -112 47 -112 106c0 133 101 246 231 246z" fill="currentColor"/>
</g>
<g transform="translate(47.3392, 19.8657)">
<rect x="-0.0757" y="-0.3286" width="0.1514" height="3.1416" ry="0.0500" fill="currentColor"/>
</g>
<g transform="translate(47.3392, 28.8657)">
<rect x="-0.0757" y="-0.3286" width="0.1514" height="3.9953" ry="0.0500" fill="currentColor"/>
</g>
<g transform="translate(8.4971, 29.3657)">
<path transform="scale(0.0040, -0.0040)" d="M0 -43c0 92 111 181 211 181c65 0 115 -37 115 -95c0 -88 -106 -181 -215 -181c-70 0 -111 41 -111 95z" fill="currentColor"/>
</g>
<g transform="translate(51.1682, 19.3657)">
<path transform="scale(0.0040, -0.0040)" d="M0 -43c0 92 111 181 211 181c65 0 115 -37 115 -95c0 -88 -106 -181 -215 -181c-70 0 -111 41 -111 95z" fill="currentColor"/>
</g>
<g transform="translate(51.2438, 19.8657)">
<rect x="-0.0757" y="-0.3286" width="0.1514" height="2.8733" ry="0.0500" fill="currentColor"/>
</g>
<g transform="translate(53.7709, 18.8657)">
<path transform="scale(0.0040, -0.0040)" d="M0 -43c0 92 111 181 211 181c65 0 115 -37 115 -95c0 -88 -106 -181 -215 -181c-70 0 -111 41 -111 95z" fill="currentColor"/>
</g>
<g transform="translate(53.8466, 19.8657)">
<rect x="-0.0757" y="-0.8286" width="0.1514" height="3.1944" ry="0.0500" fill="currentColor"/>
</g>
<g transform="translate(56.3736, 18.3657)">
<path transform="scale(0.0040, -0.0040)" d="M0 -43c0 92 111 181 211 181c65 0 115 -37 115 -95c0 -88 -106 -181 -215 -181c-70 0 -111 41 -111 95z" fill="currentColor"/>
</g>
<g transform="translate(56.3736, 28.8657)">
<path transform="scale(0.0040, -0.0040)" d="M70 205c81 0 46 -96 90 -96c14 0 50 42 56 55c4 7 10 11 17 11s14 -4 17 -11l-119 -414c-9 -8 -21 -12 -32 -12s-23 4 -32 12l118 326c-33 -12 -66 -22 -101 -22c-58 0 -86 40 -86 79c0 36 24 72 72 72z" fill="currentColor"/>
</g>
<g transform="translate(56.4493, 19.8657)">
<rect x="-0.0757" y="-1.3286" width="0.1514" height="3.5156" ry="0.0500" fill="currentColor"/>
</g>
<g transform="translate(61.3295, 18.8657)">
<path transform="scale(0.0040, -0.0040)" d="M0 -43c0 92 111 181 211 181c65 0 115 -37 115 -95c0 -88 -106 -181 -215 -181c-70 0 -111 41 -111 95z" fill="currentColor"/>
</g>
<g transform="translate(5.0673, 19.8657)">
<path transform="scale(0.0040, -0.0040)" d="M266 265c0 -36 73 -25 73 -125c0 -93 -81 -140 -182 -140c-80 0 -157 43 -157 116c0 35 29 64 64 64s64 -29 64 -64c0 -24 -39 -29 -39 -53c0 -29 35 -37 68 -37c47 0 59 59 59 114v28c0 47 -2 81 -46 81h-77c-11 0 -16 8 -16 16s5 16 16 16h77c44 0 46 37 46 86v19
c0 53 -15 88 -63 88c-30 0 -62 -8 -62 -34c0 -21 35 -25 35 -46c0 -31 -25 -56 -56 -56s-56 25 -56 56c0 65 68 106 139 106c92 0 171 -32 171 -114c0 -117 -58 -79 -58 -121z" fill="currentColor"/>
</g>
<g transform="translate(5.0033, 21.8657)">
<path transform="scale(0.0040, -0.0040)" d="M263 292c24 29 43 61 43 99c0 52 -55 83 -112 83c-45 0 -71 -35 -71 -68c0 -20 10 -38 30 -50zM297 272c54 -31 81 -79 81 -126c0 -74 -67 -146 -192 -146c-96 0 -186 53 -186 141c0 49 36 87 72 122c-36 28 -55 65 -55 102c0 68 61 135 177 135c81 0 160 -37 160 -109
c0 -46 -26 -85 -57 -119zM105 242c-30 -29 -57 -60 -57 -101c0 -68 66 -115 138 -115c53 0 85 41 85 80c0 23 -11 47 -34 60z" fill="currentColor"/>
</g>
<g transform="translate(61.3295, 29.3657)">
<path transform="scale(0.0040, -0.0040)" d="M0 -43c0 92 111 181 211 181c65 0 115 -37 115 -95c0 -88 -106 -181 -215 -181c-70 0 -111 41 -111 95z" fill="currentColor"/>
</g>
<g transform="translate(0.8000, 20.8657)">
<path transform="scale(0.0040, -0.0040)" d="M647 2c0 -114 -75 -214 -180 -248c3 -33 4 -66 4 -99c0 -21 0 -41 -1 -62c-7 -122 -92 -229 -211 -229c-108 0 -196 88 -196 197c0 58 54 103 113 103c54 0 95 -47 95 -103c0 -52 -43 -95 -95 -95c-9 0 -18 1 -27 4c25 -37 66 -61 113 -61c93 0 156 91 162 191
c1 19 2 38 2 57c0 29 -1 58 -3 87c-28 -5 -54 -8 -79 -8c-242 0 -342 222 -342 376c0 177 129 308 244 443c-33 100 -55 169 -55 347c0 186 141 292 159 292c33 0 148 -208 148 -361c0 -142 -84 -255 -176 -364c21 -68 40 -136 57 -205c3 0 8 1 11 1
c156 0 257 -129 257 -263zM406 148c28 -133 49 -269 57 -349c73 27 109 93 109 160c0 86 -58 175 -166 189zM77 25c0 -111 96 -243 275 -243c21 0 44 1 67 5c-7 66 -27 208 -60 362c-79 -8 -124 -60 -124 -118c0 -43 25 -88 80 -120c5 -5 7 -11 7 -17c0 -12 -10 -23 -23 -23
c-16 0 -128 62 -128 188c0 89 60 177 163 200c-14 57 -30 113 -47 169c-105 -122 -210 -243 -210 -403zM424 920c0 61 -20 118 -21 118c-31 -14 -161 -85 -161 -253c0 -53 15 -113 39 -189c71 88 143 196 143 324z" fill="currentColor"/>
</g>
<g transform="translate(61.4052, 19.8657)">
<rect x="-0.0757" y="-0.8286" width="0.1514" height="3.6468" ry="0.0500" fill="currentColor"/>
</g>
<g transform="translate(62.5547, 28.8657)">
<rect x="-0.0757" y="-3.0000" width="0.1514" height="3.3286" ry="0.0500" fill="currentColor"/>
</g>
<g transform="translate(63.6823, 20.3657)">
<path transform="scale(0.0040, -0.0040)" d="M0 -43c0 92 111 181 211 181c65 0 115 -37 115 -95c0 -88 -106 -181 -215 -181c-70 0 -111 41 -111 95z" fill="currentColor"/>
</g>
<g transform="translate(63.7579, 19.8657)">
<rect x="-0.0757" y="0.6714" width="0.1514" height="2.1468" ry="0.0500" fill="currentColor"/>
</g>
<g transform="translate(66.9177, 17.8657)">
<path transform="scale(0.0040, -0.0040)" d="M0 -43c0 92 111 181 211 181c65 0 115 -37 115 -95c0 -88 -106 -181 -215 -181c-70 0 -111 41 -111 95z" fill="currentColor"/>
</g>
<g transform="translate(66.9933, 19.8657)">
<rect x="-0.0757" y="-1.8286" width="0.1514" height="4.6468" ry="0.0500" fill="currentColor"/>
</g>
<g transform="translate(65.4677, 17.8657)">
<path transform="scale(0.0040, -0.0040)" d="M0 116c0 10 6 19 16 23l40 15v154c0 12 9 21 21 21s21 -9 21 -21v-138l79 30v154c0 12 9 21 21 21s21 -9 21 -21v-138l22 8c3 1 6 2 9 2c13 0 25 -11 25 -25v-54c0 -10 -6 -20 -16 -24l-40 -15v-155l22 9c3 1 6 1 9 1c13 0 25 -11 25 -25v-54c0 -10 -6 -19 -16 -23
l-40 -15v-154c0 -12 -9 -21 -21 -21s-21 9 -21 21v138l-79 -30v-154c0 -12 -9 -21 -21 -21s-21 9 -21 21v138l-22 -8c-3 -1 -6 -2 -9 -2c-13 0 -25 11 -25 25v54c0 10 6 20 16 24l40 15v155l-22 -9c-3 -1 -6 -1 -9 -1c-13 0 -25 11 -25 25v54zM177 92l-79 -30v-154l79 30
v154z" fill="currentColor"/>
</g>
<g transform="translate(69.2704, 18.8657)">
<path transform="scale(0.0040, -0.0040)" d="M0 -43c0 92 111 181 211 181c65 0 115 -37 115 -95c0 -88 -106 -181 -215 -181c-70 0 -111 41 -111 95z" fill="currentColor"/>
</g>
<g transform="translate(69.3461, 19.8657)">
<rect x="-0.0757" y="-0.8286" width="0.1514" height="3.6468" ry="0.0500" fill="currentColor"/>
</g>
<g transform="translate(72.1231, 16.8657)">
<path transform="scale(0.0040, -0.0040)" d="M0 -43c0 92 111 181 211 181c65 0 115 -37 115 -95c0 -88 -106 -181 -215 -181c-70 0 -111 41 -111 95z" fill="currentColor"/>
</g>
<g transform="translate(72.1231, 28.8657)">
<path transform="scale(0.0040, -0.0040)" d="M70 205c81 0 46 -96 90 -96c14 0 50 42 56 55c4 7 10 11 17 11s14 -4 17 -11l-119 -414c-9 -8 -21 -12 -32 -12s-23 4 -32 12l118 326c-33 -12 -66 -22 -101 -22c-58 0 -86 40 -86 79c0 36 24 72 72 72z" fill="currentColor"/>
</g>
<g transform="translate(72.1988, 19.8657)">
<rect x="-0.0757" y="-2.8286" width="0.1514" height="5.6468" ry="0.0500" fill="currentColor"/>
</g>
<g transform="translate(74.4758, 17.8657)">
<path transform="scale(0.0040, -0.0040)" d="M0 -43c0 92 111 181 211 181c65 0 115 -37 115 -95c0 -88 -106 -181 -215 -181c-70 0 -111 41 -111 95z" fill="currentColor"/>
</g>
<g transform="translate(74.5515, 19.8657)">
<rect x="-0.0757" y="-1.8286" width="0.1514" height="4.6468" ry="0.0500" fill="currentColor"/>
</g>
<g transform="translate(78.2199, 17.3657)">
<path transform="scale(0.0040, -0.0040)" d="M0 -43c0 92 111 181 211 181c65 0 115 -37 115 -95c0 -88 -106 -181 -215 -181c-70 0 -111 41 -111 95z" fill="currentColor"/>
</g>
<g transform="translate(8.4971, 18.3657)">
<path transform="scale(0.0040, -0.0040)" d="M0 -43c0 92 111 181 211 181c65 0 115 -37 115 -95c0 -88 -106 -181 -215 -181c-70 0 -111 41 -111 95z" fill="currentColor"/>
</g>
<g transform="translate(78.2199, 29.8657)">
<path transform="scale(0.0040, -0.0040)" d="M0 -43c0 92 111 181 211 181c65 0 115 -37 115 -95c0 -88 -106 -181 -215 -181c-70 0 -111 41 -111 95z" fill="currentColor"/>
</g>
<g transform="translate(78.2199, 28.8657)">
<path transform="scale(0.0040, -0.0040)" d="M0 -43c0 92 111 181 211 181c65 0 115 -37 115 -95c0 -88 -106 -181 -215 -181c-70 0 -111 41 -111 95z" fill="currentColor"/>
</g>
<g transform="translate(78.2955, 19.8657)">
<rect x="-0.0757" y="-2.3286" width="0.1514" height="3.3423" ry="0.0500" fill="currentColor"/>
</g>
<g transform="translate(79.4450, 28.8657)">
<rect x="-0.0757" y="-3.3333" width="0.1514" height="4.1619" ry="0.0500" fill="currentColor"/>
</g>
<g transform="translate(81.0726, 16.3657)">
<path transform="scale(0.0040, -0.0040)" d="M0 -43c0 92 111 181 211 181c65 0 115 -37 115 -95c0 -88 -106 -181 -215 -181c-70 0 -111 41 -111 95z" fill="currentColor"/>
</g>
<g transform="translate(81.1483, 19.8657)">
<rect x="-0.0757" y="-3.3286" width="0.1514" height="4.8578" ry="0.0500" fill="currentColor"/>
</g>
<g transform="translate(83.4253, 17.3657)">
<path transform="scale(0.0040, -0.0040)" d="M0 -43c0 92 111 181 211 181c65 0 115 -37 115 -95c0 -88 -106 -181 -215 -181c-70 0 -111 41 -111 95z" fill="currentColor"/>
</g>
<g transform="translate(83.5010, 19.8657)">
<rect x="-0.0757" y="-2.3286" width="0.1514" height="4.2829" ry="0.0500" fill="currentColor"/>
</g>
<g transform="translate(85.7780, 18.8657)">
<path transform="scale(0.0040, -0.0040)" d="M0 -43c0 92 111 181 211 181c65 0 115 -37 115 -95c0 -88 -106 -181 -215 -181c-70 0 -111 41 -111 95z" fill="currentColor"/>
</g>
<g transform="translate(85.8537, 19.8657)">
<rect x="-0.0757" y="-0.8286" width="0.1514" height="3.2080" ry="0.0500" fill="currentColor"/>
</g>
<g transform="translate(124.6001, 28.8657)">
<rect x="-0.0757" y="-3.8182" width="0.1514" height="3.6468" ry="0.0500" fill="currentColor"/>
</g>
<g transform="translate(88.1308, 19.8657)">
<path transform="scale(0.0040, -0.0040)" d="M0 -43c0 92 111 181 211 181c65 0 115 -37 115 -95c0 -88 -106 -181 -215 -181c-70 0 -111 41 -111 95z" fill="currentColor"/>
</g>
<g transform="translate(88.1308, 28.8657)">
<path transform="scale(0.0040, -0.0040)" d="M70 205c81 0 46 -96 90 -96c14 0 50 42 56 55c4 7 10 11 17 11s14 -4 17 -11l-119 -414c-9 -8 -21 -12 -32 -12s-23 4 -32 12l118 326c-33 -12 -66 -22 -101 -22c-58 0 -86 40 -86 79c0 36 24 72 72 72z" fill="currentColor"/>
</g>
<g transform="translate(88.2064, 19.8657)">
<rect x="-0.0757" y="0.1714" width="0.1514" height="2.6331" ry="0.0500" fill="currentColor"/>
</g>
<g transform="translate(123.3750, 28.8657)">
<path transform="scale(0.0040, -0.0040)" d="M0 -43c0 92 111 181 211 181c65 0 115 -37 115 -95c0 -88 -106 -181 -215 -181c-70 0 -111 41 -111 95z" fill="currentColor"/>
</g>
<g transform="translate(93.0545, 20.3657)">
<path transform="scale(0.0040, -0.0040)" d="M0 -43c0 92 111 181 211 181c65 0 115 -37 115 -95c0 -88 -106 -181 -215 -181c-70 0 -111 41 -111 95z" fill="currentColor"/>
</g>
<g transform="translate(93.0545, 29.3657)">
<path transform="scale(0.0040, -0.0040)" d="M0 -43c0 92 111 181 211 181c65 0 115 -37 115 -95c0 -88 -106 -181 -215 -181c-70 0 -111 41 -111 95z" fill="currentColor"/>
</g>
<g transform="translate(111.0558, 16.3530)">
<g>
<path transform="scale(0.0025, -0.0025)" d="M194 486c16 0 29 15 41 15c13 0 24 -13 24 -31v-341c0 -47 35 -86 81 -86c14 0 21 -10 21 -21s-7 -22 -21 -22c-49 0 -97 14 -146 14s-96 -14 -145 -14c-14 0 -22 11 -22 22s8 21 22 21c46 0 80 39 80 86v137c0 23 -16 35 -30 35c-7 0 -13 -4 -17 -11l-34 -65
c-5 -10 -14 -15 -23 -15c-14 0 -28 12 -28 27c0 4 1 8 3 13l129 250c2 4 7 6 11 6c18 0 37 -20 54 -20z" fill="currentColor"/>

<path transform="translate(0.9816, 0.0000) scale(0.0025, -0.0025)" d="M0 51c0 28 23 51 51 51s51 -23 51 -51s-23 -51 -51 -51s-51 23 -51 51z" fill="currentColor"/>
</g>
</g>
<g transform="translate(110.0209, 14.5778)">
<line stroke-linejoin="round" stroke-linecap="round" stroke-width="0.1863" stroke="currentColor" x1="17.9234" y1="-0.0000" x2="17.9234" y2="2.0000"/>
</g>
<g transform="translate(110.0209, 14.5778)">
<line stroke-linejoin="round" stroke-linecap="round" stroke-width="0.1863" stroke="currentColor" x1="0.1281" y1="-0.0000" x2="0.1281" y2="2.0000"/>
</g>
<g transform="translate(110.0209, 14.5778)">
<line stroke-linejoin="round" stroke-linecap="round" stroke-width="0.1863" stroke="currentColor" x1="0.1281" y1="-0.0000" x2="17.9234" y2="-0.0000"/>
</g>
<g transform="translate(93.1302, 19.8657)">
<rect x="-0.0757" y="0.6714" width="0.1514" height="2.1375" ry="0.0500" fill="currentColor"/>
</g>
<g transform="translate(94.2797, 28.8657)">
<rect x="-0.0757" y="-2.8182" width="0.1514" height="3.1468" ry="0.0500" fill="currentColor"/>
</g>
<g transform="translate(95.9073, 18.3657)">
<path transform="scale(0.0040, -0.0040)" d="M0 -43c0 92 111 181 211 181c65 0 115 -37 115 -95c0 -88 -106 -181 -215 -181c-70 0 -111 41 -111 95z" fill="currentColor"/>
</g>
<g transform="translate(95.9829, 19.8657)">
<rect x="-0.0757" y="-1.3286" width="0.1514" height="3.7862" ry="0.0500" fill="currentColor"/>
</g>
<g transform="translate(98.5100, 18.8657)">
<path transform="scale(0.0040, -0.0040)" d="M0 -43c0 92 111 181 211 181c65 0 115 -37 115 -95c0 -88 -106 -181 -215 -181c-70 0 -111 41 -111 95z" fill="currentColor"/>
</g>
<g transform="translate(98.5100, 28.8657)">
<path transform="scale(0.0040, -0.0040)" d="M0 -43c0 92 111 181 211 181c65 0 115 -37 115 -95c0 -88 -106 -181 -215 -181c-70 0 -111 41 -111 95z" fill="currentColor"/>
</g>
<g transform="translate(98.5857, 19.8657)">
<rect x="-0.0757" y="-0.8286" width="0.1514" height="2.9657" ry="0.0500" fill="currentColor"/>
</g>
<g transform="translate(99.7351, 28.8657)">
<rect x="-0.0757" y="-2.8182" width="0.1514" height="2.6468" ry="0.0500" fill="currentColor"/>
</g>
<g transform="translate(101.3627, 17.3657)">
<path transform="scale(0.0040, -0.0040)" d="M0 -43c0 92 111 181 211 181c65 0 115 -37 115 -95c0 -88 -106 -181 -215 -181c-70 0 -111 41 -111 95z" fill="currentColor"/>
</g>
<g transform="translate(101.4384, 19.8657)">
<rect x="-0.0757" y="-2.3286" width="0.1514" height="4.1144" ry="0.0500" fill="currentColor"/>
</g>
<g transform="translate(121.9974, 28.8657)">
<rect x="-0.0757" y="-3.8182" width="0.1514" height="3.1468" ry="0.0500" fill="currentColor"/>
</g>
<g transform="translate(104.8154, 17.8657)">
<path transform="scale(0.0040, -0.0040)" d="M0 -43c0 92 111 181 211 181c65 0 115 -37 115 -95c0 -88 -106 -181 -215 -181c-70 0 -111 41 -111 95z" fill="currentColor"/>
</g>
<g transform="translate(104.8154, 32.3657)">
<path transform="scale(0.0040, -0.0040)" d="M0 -43c0 92 111 181 211 181c65 0 115 -37 115 -95c0 -88 -106 -181 -215 -181c-70 0 -111 41 -111 95z" fill="currentColor"/>
</g>
<g transform="translate(104.8911, 19.8657)">
<rect x="-0.0757" y="-1.8286" width="0.1514" height="3.1892" ry="0.0500" fill="currentColor"/>
</g>
<g transform="translate(103.3654, 17.8657)">
<path transform="scale(0.0040, -0.0040)" d="M0 116c0 10 6 19 16 23l40 15v154c0 12 9 21 21 21s21 -9 21 -21v-138l79 30v154c0 12 9 21 21 21s21 -9 21 -21v-138l22 8c3 1 6 2 9 2c13 0 25 -11 25 -25v-54c0 -10 -6 -20 -16 -24l-40 -15v-155l22 9c3 1 6 1 9 1c13 0 25 -11 25 -25v-54c0 -10 -6 -19 -16 -23
l-40 -15v-154c0 -12 -9 -21 -21 -21s-21 9 -21 21v138l-79 -30v-154c0 -12 -9 -21 -21 -21s-21 9 -21 21v138l-22 -8c-3 -1 -6 -2 -9 -2c-13 0 -25 11 -25 25v54c0 10 6 20 16 24l40 15v155l-22 -9c-3 -1 -6 -1 -9 -1c-13 0 -25 11 -25 25v54zM177 92l-79 -30v-154l79 30
v154z" fill="currentColor"/>
</g>
<g transform="translate(106.0406, 28.8657)">
<rect x="-0.0757" y="-2.8182" width="0.1514" height="6.1468" ry="0.0500" fill="currentColor"/>
</g>
<g transform="translate(107.6681, 16.8657)">
<path transform="scale(0.0040, -0.0040)" d="M0 -43c0 92 111 181 211 181c65 0 115 -37 115 -95c0 -88 -106 -181 -215 -181c-70 0 -111 41 -111 95z" fill="currentColor"/>
</g>
<g transform="translate(107.7438, 19.8657)">
<rect x="-0.0757" y="-2.8286" width="0.1514" height="3.8379" ry="0.0500" fill="currentColor"/>
</g>
<g transform="translate(111.4122, 20.8657)">
<path transform="scale(0.0040, -0.0040)" d="M0 -43c0 92 111 181 211 181c65 0 115 -37 115 -95c0 -88 -106 -181 -215 -181c-70 0 -111 41 -111 95z" fill="currentColor"/>
</g>
<g transform="translate(111.4122, 19.8657)">
<path transform="scale(0.0040, -0.0040)" d="M0 -43c0 92 111 181 211 181c65 0 115 -37 115 -95c0 -88 -106 -181 -215 -181c-70 0 -111 41 -111 95z" fill="currentColor"/>
</g>
<g transform="translate(111.4122, 18.8657)">
<path transform="scale(0.0040, -0.0040)" d="M0 -43c0 92 111 181 211 181c65 0 115 -37 115 -95c0 -88 -106 -181 -215 -181c-70 0 -111 41 -111 95z" fill="currentColor"/>
</g>
<g transform="translate(111.4122, 17.3657)">
<path transform="scale(0.0040, -0.0040)" d="M0 -43c0 92 111 181 211 181c65 0 115 -37 115 -95c0 -88 -106 -181 -215 -181c-70 0 -111 41 -111 95z" fill="currentColor"/>
</g>
<g transform="translate(111.4122, 30.8657)">
<path transform="scale(0.0040, -0.0040)" d="M0 -43c0 92 111 181 211 181c65 0 115 -37 115 -95c0 -88 -106 -181 -215 -181c-70 0 -111 41 -111 95z" fill="currentColor"/>
</g>
<g transform="translate(-0.0863, 24.3657)">
<rect x="0.0000" y="-6.5582" width="0.1863" height="13.1164" ry="0.0582" fill="currentColor"/>
</g>
<g transform="translate(111.4879, 19.8657)">
<rect x="-0.0757" y="-2.3286" width="0.1514" height="6.3286" ry="0.0500" fill="currentColor"/>
</g>
<g transform="translate(112.6373, 28.8657)">
<rect x="-0.0757" y="-3.8182" width="0.1514" height="5.6468" ry="0.0500" fill="currentColor"/>
</g>
<g transform="translate(-0.3863, 24.3657)">
<path transform="scale(0.0050, -0.0050)" d="M-81 -282c0 216 -111 264 -111 282s111 66 111 282c0 192 -81 423 -81 636c0 276 159 378 162 378c9 0 15 -6 15 -15c0 -21 -114 -66 -114 -288c0 -189 78 -414 78 -621c0 -138 -33 -267 -144 -372c111 -105 144 -234 144 -372c0 -207 -78 -432 -78 -621
c0 -222 114 -267 114 -288c0 -9 -6 -15 -15 -15c-3 0 -162 102 -162 378c0 213 81 444 81 636z" fill="currentColor"/>
</g>
<g transform="translate(115.5668, 27.3657)">
<path transform="scale(0.0040, -0.0040)" d="M0 -43c0 92 111 181 211 181c65 0 115 -37 115 -95c0 -88 -106 -181 -215 -181c-70 0 -111 41 -111 95z" fill="currentColor"/>
</g>
<g transform="translate(116.7920, 28.8657)">
<rect x="-0.0757" y="-3.8182" width="0.1514" height="2.1468" ry="0.0500" fill="currentColor"/>
</g>
<g transform="translate(120.7723, 28.3657)">
<path transform="scale(0.0040, -0.0040)" d="M0 -43c0 92 111 181 211 181c65 0 115 -37 115 -95c0 -88 -106 -181 -215 -181c-70 0 -111 41 -111 95z" fill="currentColor"/>
</g>
<g transform="translate(118.1695, 27.8657)">
<path transform="scale(0.0040, -0.0040)" d="M0 -43c0 92 111 181 211 181c65 0 115 -37 115 -95c0 -88 -106 -181 -215 -181c-70 0 -111 41 -111 95z" fill="currentColor"/>
</g>
<g transform="translate(119.3947, 28.8657)">
<rect x="-0.0757" y="-3.8182" width="0.1514" height="2.6468" ry="0.0500" fill="currentColor"/>
</g>
<g transform="translate(120.7723, 19.8657)">
<path transform="scale(0.0040, -0.0040)" d="M70 205c81 0 46 -96 90 -96c14 0 50 42 56 55c4 7 10 11 17 11s14 -4 17 -11l-119 -414c-9 -8 -21 -12 -32 -12s-23 4 -32 12l118 326c-33 -12 -66 -22 -101 -22c-58 0 -86 40 -86 79c0 36 24 72 72 72z" fill="currentColor"/>
</g>
<g transform="translate(0.0000, 49.4666)">
<rect x="119.6446" y="-0.1082" width="1.9512" height="0.2164" ry="0.1082" fill="currentColor"/>
</g>
<g transform="translate(0.0000, 43.4666)">
<rect x="39.1402" y="-0.1082" width="1.9512" height="0.2164" ry="0.1082" fill="currentColor"/>
</g>
<g transform="translate(0.0000, 43.4666)">
<rect x="34.1149" y="-0.1082" width="1.9512" height="0.2164" ry="0.1082" fill="currentColor"/>
</g>
<g transform="translate(0.0000, 48.4666)">
<line stroke-linejoin="round" stroke-linecap="round" stroke-width="0.1164" stroke="currentColor" x1="0.0582" y1="0" x2="127.9792" y2="0"/>
</g>
<g transform="translate(0.0000, 47.4666)">
<line stroke-linejoin="round" stroke-linecap="round" stroke-width="0.1164" stroke="currentColor" x1="0.0582" y1="0" x2="127.9792" y2="0"/>
</g>
<g transform="translate(0.0000, 46.4666)">
<line stroke-linejoin="round" stroke-linecap="round" stroke-width="0.1164" stroke="currentColor" x1="0.0582" y1="0" x2="127.9792" y2="0"/>
</g>
<g transform="translate(0.0000, 45.4666)">
<line stroke-linejoin="round" stroke-linecap="round" stroke-width="0.1164" stroke="currentColor" x1="0.0582" y1="0" x2="127.9792" y2="0"/>
</g>
<g transform="translate(0.0000, 44.4666)">
<line stroke-linejoin="round" stroke-linecap="round" stroke-width="0.1164" stroke="currentColor" x1="0.0582" y1="0" x2="127.9792" y2="0"/>
</g>
<g transform="translate(127.3388, 32.9185)">
<rect x="0.0000" y="15.6064" width="0.6986" height="4.9418" ry="0.0000" fill="currentColor"/>
</g>
<g transform="translate(126.7683, 32.9185)">
<rect x="0.0000" y="15.6064" width="0.2212" height="4.9418" ry="0.0000" fill="currentColor"/>
</g>
<g transform="translate(0.0000, 58.4666)">
<rect x="123.1191" y="-0.1082" width="1.9512" height="0.2164" ry="0.1082" fill="currentColor"/>
</g>
<g transform="translate(0.0000, 59.4666)">
<rect x="123.1191" y="-0.1082" width="1.9512" height="0.2164" ry="0.1082" fill="currentColor"/>
</g>
<g transform="translate(0.0000, 57.4666)">
<line stroke-linejoin="round" stroke-linecap="round" stroke-width="0.1164" stroke="currentColor" x1="0.0582" y1="0" x2="127.9792" y2="0"/>
</g>
<g transform="translate(0.0000, 56.4666)">
<line stroke-linejoin="round" stroke-linecap="round" stroke-width="0.1164" stroke="currentColor" x1="0.0582" y1="0" x2="127.9792" y2="0"/>
</g>
<g transform="translate(0.0000, 55.4666)">
<line stroke-linejoin="round" stroke-linecap="round" stroke-width="0.1164" stroke="currentColor" x1="0.0582" y1="0" x2="127.9792" y2="0"/>
</g>
<g transform="translate(0.0000, 54.4666)">
<line stroke-linejoin="round" stroke-linecap="round" stroke-width="0.1164" stroke="currentColor" x1="0.0582" y1="0" x2="127.9792" y2="0"/>
</g>
<g transform="translate(0.0000, 53.4666)">
<line stroke-linejoin="round" stroke-linecap="round" stroke-width="0.1164" stroke="currentColor" x1="0.0582" y1="0" x2="127.9792" y2="0"/>
</g>
<g transform="translate(127.3388, 55.4666)">
<rect x="0.0000" y="-2.0582" width="0.6986" height="4.0582" ry="0.0000" fill="currentColor"/>
</g>
<g transform="translate(126.7683, 55.4666)">
<rect x="0.0000" y="-2.0582" width="0.2212" height="4.0582" ry="0.0000" fill="currentColor"/>
</g>
<g transform="translate(127.3388, 46.4666)">
<rect x="0.0000" y="-2.0000" width="0.6986" height="4.0582" ry="0.0000" fill="currentColor"/>
</g>
<g transform="translate(126.7683, 46.4666)">
<rect x="0.0000" y="-2.0000" width="0.2212" height="4.0582" ry="0.0000" fill="currentColor"/>
</g>
<g transform="translate(115.6618, 32.9185)">
<rect x="0.0000" y="15.6064" width="0.2212" height="4.9418" ry="0.0000" fill="currentColor"/>
</g>
<g transform="translate(115.6618, 55.4666)">
<rect x="0.0000" y="-2.0582" width="0.2212" height="4.0582" ry="0.0000" fill="currentColor"/>
</g>
<g transform="translate(115.6618, 46.4666)">
<rect x="0.0000" y="-2.0000" width="0.2212" height="4.0582" ry="0.0000" fill="currentColor"/>
</g>
<g transform="translate(100.0499, 32.9185)">
<rect x="0.0000" y="15.6064" width="0.2212" height="4.9418" ry="0.0000" fill="currentColor"/>
</g>
<g transform="translate(100.0499, 55.4666)">
<rect x="0.0000" y="-2.0582" width="0.2212" height="4.0582" ry="0.0000" fill="currentColor"/>
</g>
<g transform="translate(100.0499, 46.4666)">
<rect x="0.0000" y="-2.0000" width="0.2212" height="4.0582" ry="0.0000" fill="currentColor"/>
</g>
<g transform="translate(88.3327, 32.9185)">
<rect x="0.0000" y="15.6064" width="0.2212" height="4.9418" ry="0.0000" fill="currentColor"/>
</g>
<g transform="translate(88.3327, 55.4666)">
<rect x="0.0000" y="-2.0582" width="0.2212" height="4.0582" ry="0.0000" fill="currentColor"/>
</g>
<g transform="translate(88.3327, 46.4666)">
<rect x="0.0000" y="-2.0000" width="0.2212" height="4.0582" ry="0.0000" fill="currentColor"/>
</g>
<g transform="translate(72.6838, 32.9185)">
<rect x="0.0000" y="15.6064" width="0.2212" height="4.9418" ry="0.0000" fill="currentColor"/>
</g>
<g transform="translate(72.6838, 55.4666)">
<rect x="0.0000" y="-2.0582" width="0.2212" height="4.0582" ry="0.0000" fill="currentColor"/>
</g>
<g transform="translate(72.6838, 46.4666)">
<rect x="0.0000" y="-2.0000" width="0.2212" height="4.0582" ry="0.0000" fill="currentColor"/>
</g>
<g transform="translate(61.1401, 32.9185)">
<rect x="0.0000" y="15.6064" width="0.2212" height="4.9418" ry="0.0000" fill="currentColor"/>
</g>
<g transform="translate(61.1401, 55.4666)">
<rect x="0.0000" y="-2.0582" width="0.2212" height="4.0582" ry="0.0000" fill="currentColor"/>
</g>
<g transform="translate(61.1401, 46.4666)">
<rect x="0.0000" y="-2.0000" width="0.2212" height="4.0582" ry="0.0000" fill="currentColor"/>
</g>
<g transform="translate(48.5160, 32.9185)">
<rect x="0.0000" y="15.6064" width="0.2212" height="4.9418" ry="0.0000" fill="currentColor"/>
</g>
<g transform="translate(48.5160, 55.4666)">
<rect x="0.0000" y="-2.0582" width="0.2212" height="4.0582" ry="0.0000" fill="currentColor"/>
</g>
<g transform="translate(48.5160, 46.4666)">
<rect x="0.0000" y="-2.0000" width="0.2212" height="4.0582" ry="0.0000" fill="currentColor"/>
</g>
<g transform="translate(33.1294, 32.9185)">
<rect x="0.0000" y="15.6064" width="0.2212" height="4.9418" ry="0.0000" fill="currentColor"/>
</g>
<g transform="translate(33.1294, 55.4666)">
<rect x="0.0000" y="-2.0582" width="0.2212" height="4.0582" ry="0.0000" fill="currentColor"/>
</g>
<g transform="translate(33.1294, 46.4666)">
<rect x="0.0000" y="-2.0000" width="0.2212" height="4.0582" ry="0.0000" fill="currentColor"/>
</g>
<g transform="translate(19.5088, 32.9185)">
<rect x="0.0000" y="15.6064" width="0.2212" height="4.9418" ry="0.0000" fill="currentColor"/>
</g>
<g transform="translate(19.5088, 55.4666)">
<rect x="0.0000" y="-2.0582" width="0.2212" height="4.0582" ry="0.0000" fill="currentColor"/>
</g>
<g transform="translate(19.5088, 46.4666)">
<rect x="0.0000" y="-2.0000" width="0.2212" height="4.0582" ry="0.0000" fill="currentColor"/>
</g>
<g transform="translate(5.8000, 47.4666)">
<path transform="scale(0.0040, -0.0040)" d="M0 -43c0 92 111 181 211 181c65 0 115 -37 115 -95c0 -88 -106 -181 -215 -181c-70 0 -111 41 -111 95z" fill="currentColor"/>
</g>
<g transform="translate(5.8000, 46.4666)">
<path transform="scale(0.0040, -0.0040)" d="M0 -43c0 92 111 181 211 181c65 0 115 -37 115 -95c0 -88 -106 -181 -215 -181c-70 0 -111 41 -111 95z" fill="currentColor"/>
</g>
<g transform="translate(5.8000, 45.4666)">
<path transform="scale(0.0040, -0.0040)" d="M0 -43c0 92 111 181 211 181c65 0 115 -37 115 -95c0 -88 -106 -181 -215 -181c-70 0 -111 41 -111 95z" fill="currentColor"/>
</g>
<g transform="translate(5.8000, 43.9666)">
<path transform="scale(0.0040, -0.0040)" d="M0 -43c0 92 111 181 211 181c65 0 115 -37 115 -95c0 -88 -106 -181 -215 -181c-70 0 -111 41 -111 95z" fill="currentColor"/>
</g>
<g transform="translate(5.8000, 57.4666)">
<path transform="scale(0.0040, -0.0040)" d="M0 -43c0 92 111 181 211 181c65 0 115 -37 115 -95c0 -88 -106 -181 -215 -181c-70 0 -111 41 -111 95z" fill="currentColor"/>
</g>
<g transform="translate(5.8757, 46.4666)">
<rect x="-0.0757" y="-2.3286" width="0.1514" height="6.3286" ry="0.0500" fill="currentColor"/>
</g>
<g transform="translate(5.8757, 55.4666)">
<rect x="-0.0757" y="2.1714" width="0.1514" height="2.3221" ry="0.0500" fill="currentColor"/>
</g>
<g transform="translate(117.8947, 43.6484)">
<polygon stroke-linejoin="round" stroke-linecap="round" stroke-width="0.1000" fill="currentColor" stroke="currentColor" points="3.3259 1.4464 3.3259 1.8264 0.0500 0.1900 0.0500 -0.1900"/>
</g>
<g transform="translate(9.5245, 52.9666)">
<path transform="scale(0.0040, -0.0040)" d="M0 -43c0 92 111 181 211 181c65 0 115 -37 115 -95c0 -88 -106 -181 -215 -181c-70 0 -111 41 -111 95z" fill="currentColor"/>
</g>
<g transform="translate(9.6002, 55.4666)">
<rect x="-0.0757" y="-2.3286" width="0.1514" height="6.5021" ry="0.0500" fill="currentColor"/>
</g>
<g transform="translate(101.2920, 48.4666)">
<polygon stroke-linejoin="round" stroke-linecap="round" stroke-width="0.1000" fill="currentColor" stroke="currentColor" points="12.2897 -0.1900 12.2897 0.1900 0.0500 0.1900 0.0500 -0.1900"/>
</g>
<g transform="translate(101.2920, 49.2848)">
<polygon stroke-linejoin="round" stroke-linecap="round" stroke-width="0.1000" fill="currentColor" stroke="currentColor" points="12.2897 -0.1900 12.2897 0.1900 0.0500 0.1900 0.0500 -0.1900"/>
</g>
<g transform="translate(11.6622, 53.9666)">
<path transform="scale(0.0040, -0.0040)" d="M0 -43c0 92 111 181 211 181c65 0 115 -37 115 -95c0 -88 -106 -181 -215 -181c-70 0 -111 41 -111 95z" fill="currentColor"/>
</g>
<g transform="translate(11.7378, 55.4666)">
<rect x="-0.0757" y="-1.3286" width="0.1514" height="5.3184" ry="0.0500" fill="currentColor"/>
</g>
<g transform="translate(90.5656, 52.6484)">
<polygon stroke-linejoin="round" stroke-linecap="round" stroke-width="0.1000" fill="currentColor" stroke="currentColor" points="7.0504 -0.1900 7.0504 0.1900 0.0500 0.1900 0.0500 -0.1900"/>
</g>
<g transform="translate(14.8998, 46.4666)">
<path transform="scale(0.0040, -0.0040)" d="M70 205c81 0 46 -96 90 -96c14 0 50 42 56 55c4 7 10 11 17 11s14 -4 17 -11l-119 -414c-9 -8 -21 -12 -32 -12s-23 4 -32 12l118 326c-33 -12 -66 -22 -101 -22c-58 0 -86 40 -86 79c0 36 24 72 72 72z" fill="currentColor"/>
</g>
<g transform="translate(14.8998, 54.4666)">
<path transform="scale(0.0040, -0.0040)" d="M0 -43c0 92 111 181 211 181c65 0 115 -37 115 -95c0 -88 -106 -181 -215 -181c-70 0 -111 41 -111 95z" fill="currentColor"/>
</g>
<g transform="translate(14.9755, 55.4666)">
<rect x="-0.0757" y="-0.8286" width="0.1514" height="4.5403" ry="0.0500" fill="currentColor"/>
</g>
<g transform="translate(13.4498, 54.4666)">
<path transform="scale(0.0040, -0.0040)" d="M0 116c0 10 6 19 16 23l40 15v154c0 12 9 21 21 21s21 -9 21 -21v-138l79 30v154c0 12 9 21 21 21s21 -9 21 -21v-138l22 8c3 1 6 2 9 2c13 0 25 -11 25 -25v-54c0 -10 -6 -20 -16 -24l-40 -15v-155l22 9c3 1 6 1 9 1c13 0 25 -11 25 -25v-54c0 -10 -6 -19 -16 -23
l-40 -15v-154c0 -12 -9 -21 -21 -21s-21 9 -21 21v138l-79 -30v-154c0 -12 -9 -21 -21 -21s-21 9 -21 21v138l-22 -8c-3 -1 -6 -2 -9 -2c-13 0 -25 11 -25 25v54c0 10 6 20 16 24l40 15v155l-22 -9c-3 -1 -6 -1 -9 -1c-13 0 -25 11 -25 25v54zM177 92l-79 -30v-154l79 30
v154z" fill="currentColor"/>
</g>
<g transform="translate(90.5656, 42.9666)">
<polygon stroke-linejoin="round" stroke-linecap="round" stroke-width="0.1000" fill="currentColor" stroke="currentColor" points="7.0504 -0.1900 7.0504 0.1900 0.0500 0.1900 0.0500 -0.1900"/>
</g>
<g transform="translate(17.2875, 54.9666)">
<path transform="scale(0.0040, -0.0040)" d="M0 -43c0 92 111 181 211 181c65 0 115 -37 115 -95c0 -88 -106 -181 -215 -181c-70 0 -111 41 -111 95z" fill="currentColor"/>
</g>
<g transform="translate(17.3632, 55.4666)">
<rect x="-0.0757" y="-0.3286" width="0.1514" height="3.8351" ry="0.0500" fill="currentColor"/>
</g>
<g transform="translate(73.9945, 58.4666)">
<polygon stroke-linejoin="round" stroke-linecap="round" stroke-width="0.1000" fill="currentColor" stroke="currentColor" points="12.2897 -0.1900 12.2897 0.1900 0.0500 0.1900 0.0500 -0.1900"/>
</g>
<g transform="translate(73.9945, 59.2848)">
<polygon stroke-linejoin="round" stroke-linecap="round" stroke-width="0.1000" fill="currentColor" stroke="currentColor" points="12.2897 -0.1900 12.2897 0.1900 0.0500 0.1900 0.0500 -0.1900"/>
</g>
<g transform="translate(73.9945, 48.2848)">
<polygon stroke-linejoin="round" stroke-linecap="round" stroke-width="0.1000" fill="currentColor" stroke="currentColor" points="9.6520 -0.1900 9.6520 0.1900 0.0500 0.1900 0.0500 -0.1900"/>
</g>
<g transform="translate(21.7800, 44.4666)">
<path transform="scale(0.0040, -0.0040)" d="M0 -43c0 92 111 181 211 181c65 0 115 -37 115 -95c0 -88 -106 -181 -215 -181c-70 0 -111 41 -111 95z" fill="currentColor"/>
</g>
<g transform="translate(62.4107, 49.2848)">
<polygon stroke-linejoin="round" stroke-linecap="round" stroke-width="0.1000" fill="currentColor" stroke="currentColor" points="3.5759 0.1736 3.5759 0.5536 0.0500 0.1900 0.0500 -0.1900"/>
</g>
<g transform="translate(21.7800, 55.9666)">
<path transform="scale(0.0040, -0.0040)" d="M0 -43c0 92 111 181 211 181c65 0 115 -37 115 -95c0 -88 -106 -181 -215 -181c-70 0 -111 41 -111 95z" fill="currentColor"/>
</g>
<g transform="translate(21.7800, 53.4666)">
<path transform="scale(0.0040, -0.0040)" d="M0 -43c0 92 111 181 211 181c65 0 115 -37 115 -95c0 -88 -106 -181 -215 -181c-70 0 -111 41 -111 95z" fill="currentColor"/>
</g>
<g transform="translate(21.8557, 46.4666)">
<rect x="-0.0757" y="-1.8286" width="0.1514" height="4.6468" ry="0.0500" fill="currentColor"/>
</g>
<g transform="translate(20.3300, 44.4666)">
<path transform="scale(0.0040, -0.0040)" d="M0 116c0 10 6 19 16 23l40 15v154c0 12 9 21 21 21s21 -9 21 -21v-138l79 30v154c0 12 9 21 21 21s21 -9 21 -21v-138l22 8c3 1 6 2 9 2c13 0 25 -11 25 -25v-54c0 -10 -6 -20 -16 -24l-40 -15v-155l22 9c3 1 6 1 9 1c13 0 25 -11 25 -25v-54c0 -10 -6 -19 -16 -23
l-40 -15v-154c0 -12 -9 -21 -21 -21s-21 9 -21 21v138l-79 -30v-154c0 -12 -9 -21 -21 -21s-21 9 -21 21v138l-22 -8c-3 -1 -6 -2 -9 -2c-13 0 -25 11 -25 25v54c0 10 6 20 16 24l40 15v155l-22 -9c-3 -1 -6 -1 -9 -1c-13 0 -25 11 -25 25v54zM177 92l-79 -30v-154l79 30
v154z" fill="currentColor"/>
</g>
<g transform="translate(21.8557, 55.4666)">
<rect x="-0.0757" y="-1.8286" width="0.1514" height="5.4953" ry="0.0500" fill="currentColor"/>
</g>
<g transform="translate(49.7867, 49.1484)">
<polygon stroke-linejoin="round" stroke-linecap="round" stroke-width="0.1000" fill="currentColor" stroke="currentColor" points="2.2390 -0.1900 2.2390 0.1900 0.0500 0.1900 0.0500 -0.1900"/>
</g>
<g transform="translate(49.7867, 49.9666)">
<polygon stroke-linejoin="round" stroke-linecap="round" stroke-width="0.1000" fill="currentColor" stroke="currentColor" points="8.1012 -0.1900 8.1012 0.1900 0.0500 0.1900 0.0500 -0.1900"/>
</g>
<g transform="translate(23.9177, 45.4666)">
<path transform="scale(0.0040, -0.0040)" d="M0 -43c0 92 111 181 211 181c65 0 115 -37 115 -95c0 -88 -106 -181 -215 -181c-70 0 -111 41 -111 95z" fill="currentColor"/>
</g>
<g transform="translate(23.9934, 46.4666)">
<rect x="-0.0757" y="-0.8286" width="0.1514" height="3.6468" ry="0.0500" fill="currentColor"/>
</g>
<g transform="translate(34.4401, 47.4666)">
<polygon stroke-linejoin="round" stroke-linecap="round" stroke-width="0.1000" fill="currentColor" stroke="currentColor" points="12.0397 -0.1900 12.0397 0.1900 0.0500 0.1900 0.0500 -0.1900"/>
</g>
<g transform="translate(34.4401, 48.2848)">
<polygon stroke-linejoin="round" stroke-linecap="round" stroke-width="0.1000" fill="currentColor" stroke="currentColor" points="12.0397 -0.1900 12.0397 0.1900 0.0500 0.1900 0.0500 -0.1900"/>
</g>
<g transform="translate(26.0554, 46.9666)">
<path transform="scale(0.0040, -0.0040)" d="M0 -43c0 92 111 181 211 181c65 0 115 -37 115 -95c0 -88 -106 -181 -215 -181c-70 0 -111 41 -111 95z" fill="currentColor"/>
</g>
<g transform="translate(26.1310, 46.4666)">
<rect x="-0.0757" y="0.6714" width="0.1514" height="2.1468" ry="0.0500" fill="currentColor"/>
</g>
<g transform="translate(21.7800, 48.4666)">
<polygon stroke-linejoin="round" stroke-linecap="round" stroke-width="0.1000" fill="currentColor" stroke="currentColor" points="2.2390 -0.1900 2.2390 0.1900 0.0500 0.1900 0.0500 -0.1900"/>
</g>
<g transform="translate(21.7800, 49.2848)">
<polygon stroke-linejoin="round" stroke-linecap="round" stroke-width="0.1000" fill="currentColor" stroke="currentColor" points="8.1012 -0.1900 8.1012 0.1900 0.0500 0.1900 0.0500 -0.1900"/>
</g>
<g transform="translate(29.7799, 44.4666)">
<path transform="scale(0.0040, -0.0040)" d="M0 -43c0 92 111 181 211 181c65 0 115 -37 115 -95c0 -88 -106 -181 -215 -181c-70 0 -111 41 -111 95z" fill="currentColor"/>
</g>
<g transform="translate(29.7799, 55.9666)">
<path transform="scale(0.0040, -0.0040)" d="M0 -43c0 92 111 181 211 181c65 0 115 -37 115 -95c0 -88 -106 -181 -215 -181c-70 0 -111 41 -111 95z" fill="currentColor"/>
</g>
<g transform="translate(29.7799, 53.4666)">
<path transform="scale(0.0040, -0.0040)" d="M0 -43c0 92 111 181 211 181c65 0 115 -37 115 -95c0 -88 -106 -181 -215 -181c-70 0 -111 41 -111 95z" fill="currentColor"/>
</g>
<g transform="translate(29.8556, 46.4666)">
<rect x="-0.0757" y="-1.8286" width="0.1514" height="4.6468" ry="0.0500" fill="currentColor"/>
</g>
<g transform="translate(29.8556, 55.4666)">
<rect x="-0.0757" y="-1.8286" width="0.1514" height="5.5786" ry="0.0500" fill="currentColor"/>
</g>
<g transform="translate(29.9312, 59.1666)">
<path transform="scale(0.0040, -0.0040)" d="M0 0h-19v375h19v-375zM220 509c0 94 -41 155 -41 166c0 15 13 25 26 25c8 0 17 -4 22 -13c25 -56 40 -116 40 -178c0 -203 -267 -306 -267 -509v250c95 59 220 149 220 259z" fill="currentColor"/>
</g>
<g transform="translate(9.5245, 58.8284)">
<polygon stroke-linejoin="round" stroke-linecap="round" stroke-width="0.1000" fill="currentColor" stroke="currentColor" points="7.8643 -0.8700 7.8643 -0.4900 0.0500 0.1900 0.0500 -0.1900"/>
</g>
<g transform="translate(5.8000, 59.9666)">
<polygon stroke-linejoin="round" stroke-linecap="round" stroke-width="0.1000" fill="currentColor" stroke="currentColor" points="11.5889 -1.1900 11.5889 -0.8100 0.0500 0.1900 0.0500 -0.1900"/>
</g>
<g transform="translate(34.4401, 43.4666)">
<path transform="scale(0.0040, -0.0040)" d="M0 -43c0 92 111 181 211 181c65 0 115 -37 115 -95c0 -88 -106 -181 -215 -181c-70 0 -111 41 -111 95z" fill="currentColor"/>
</g>
<g transform="translate(34.4401, 56.4666)">
<path transform="scale(0.0040, -0.0040)" d="M0 -43c0 92 111 181 211 181c65 0 115 -37 115 -95c0 -88 -106 -181 -215 -181c-70 0 -111 41 -111 95z" fill="currentColor"/>
</g>
<g transform="translate(34.4401, 55.4666)">
<path transform="scale(0.0040, -0.0040)" d="M0 -43c0 92 111 181 211 181c65 0 115 -37 115 -95c0 -88 -106 -181 -215 -181c-70 0 -111 41 -111 95z" fill="currentColor"/>
</g>
<g transform="translate(34.5157, 46.4666)">
<rect x="-0.0757" y="-2.8286" width="0.1514" height="4.6468" ry="0.0500" fill="currentColor"/>
</g>
<g transform="translate(35.6652, 55.4666)">
<rect x="-0.0757" y="-3.3333" width="0.1514" height="4.1619" ry="0.0500" fill="currentColor"/>
</g>
<g transform="translate(36.8277, 43.9666)">
<path transform="scale(0.0040, -0.0040)" d="M0 -43c0 92 111 181 211 181c65 0 115 -37 115 -95c0 -88 -106 -181 -215 -181c-70 0 -111 41 -111 95z" fill="currentColor"/>
</g>
<g transform="translate(36.9034, 46.4666)">
<rect x="-0.0757" y="-2.3286" width="0.1514" height="4.1468" ry="0.0500" fill="currentColor"/>
</g>
<g transform="translate(39.4654, 42.9666)">
<path transform="scale(0.0040, -0.0040)" d="M0 -43c0 92 111 181 211 181c65 0 115 -37 115 -95c0 -88 -106 -181 -215 -181c-70 0 -111 41 -111 95z" fill="currentColor"/>
</g>
<g transform="translate(39.5411, 46.4666)">
<rect x="-0.0757" y="-3.3286" width="0.1514" height="5.1468" ry="0.0500" fill="currentColor"/>
</g>
<g transform="translate(41.6031, 43.9666)">
<path transform="scale(0.0040, -0.0040)" d="M0 -43c0 92 111 181 211 181c65 0 115 -37 115 -95c0 -88 -106 -181 -215 -181c-70 0 -111 41 -111 95z" fill="currentColor"/>
</g>
<g transform="translate(41.6787, 46.4666)">
<rect x="-0.0757" y="-2.3286" width="0.1514" height="4.1468" ry="0.0500" fill="currentColor"/>
</g>
<g transform="translate(43.7407, 45.4666)">
<path transform="scale(0.0040, -0.0040)" d="M0 -43c0 92 111 181 211 181c65 0 115 -37 115 -95c0 -88 -106 -181 -215 -181c-70 0 -111 41 -111 95z" fill="currentColor"/>
</g>
<g transform="translate(43.7407, 56.4666)">
<path transform="scale(0.0040, -0.0040)" d="M0 -43c0 92 111 181 211 181c65 0 115 -37 115 -95c0 -88 -106 -181 -215 -181c-70 0 -111 41 -111 95z" fill="currentColor"/>
</g>
<g transform="translate(43.7407, 55.4666)">
<path transform="scale(0.0040, -0.0040)" d="M0 -43c0 92 111 181 211 181c65 0 115 -37 115 -95c0 -88 -106 -181 -215 -181c-70 0 -111 41 -111 95z" fill="currentColor"/>
</g>
<g transform="translate(43.8164, 46.4666)">
<rect x="-0.0757" y="-0.8286" width="0.1514" height="2.6468" ry="0.0500" fill="currentColor"/>
</g>
<g transform="translate(44.9659, 55.4666)">
<rect x="-0.0757" y="-3.3750" width="0.1514" height="4.2036" ry="0.0500" fill="currentColor"/>
</g>
<g transform="translate(45.0415, 52.1416)">
<path transform="scale(0.0040, -0.0040)" d="M118 -725c0 11 43 86 43 194c0 102 -92 206 -161 281v-125h-19v375h19c0 -197 207 -334 207 -531c0 -71 -15 -140 -41 -206c-5 -9 -14 -13 -22 -13c-13 0 -26 10 -26 25z" fill="currentColor"/>
</g>
<g transform="translate(46.3784, 43.9666)">
<path transform="scale(0.0040, -0.0040)" d="M0 -43c0 92 111 181 211 181c65 0 115 -37 115 -95c0 -88 -106 -181 -215 -181c-70 0 -111 41 -111 95z" fill="currentColor"/>
</g>
<g transform="translate(46.4541, 46.4666)">
<rect x="-0.0757" y="-2.3286" width="0.1514" height="4.1468" ry="0.0500" fill="currentColor"/>
</g>
<g transform="translate(49.7867, 44.9666)">
<path transform="scale(0.0040, -0.0040)" d="M0 -43c0 92 111 181 211 181c65 0 115 -37 115 -95c0 -88 -106 -181 -215 -181c-70 0 -111 41 -111 95z" fill="currentColor"/>
</g>
<g transform="translate(49.7867, 55.9666)">
<path transform="scale(0.0040, -0.0040)" d="M0 -43c0 92 111 181 211 181c65 0 115 -37 115 -95c0 -88 -106 -181 -215 -181c-70 0 -111 41 -111 95z" fill="currentColor"/>
</g>
<g transform="translate(49.7867, 53.9666)">
<path transform="scale(0.0040, -0.0040)" d="M0 -43c0 92 111 181 211 181c65 0 115 -37 115 -95c0 -88 -106 -181 -215 -181c-70 0 -111 41 -111 95z" fill="currentColor"/>
</g>
<g transform="translate(49.8624, 46.4666)">
<rect x="-0.0757" y="-1.3286" width="0.1514" height="4.8286" ry="0.0500" fill="currentColor"/>
</g>
<g transform="translate(49.8624, 55.4666)">
<rect x="-0.0757" y="-1.3286" width="0.1514" height="4.9953" ry="0.0500" fill="currentColor"/>
</g>
<g transform="translate(51.9244, 45.9666)">
<path transform="scale(0.0040, -0.0040)" d="M0 -43c0 92 111 181 211 181c65 0 115 -37 115 -95c0 -88 -106 -181 -215 -181c-70 0 -111 41 -111 95z" fill="currentColor"/>
</g>
<g transform="translate(52.0000, 46.4666)">
<rect x="-0.0757" y="-0.3286" width="0.1514" height="3.8286" ry="0.0500" fill="currentColor"/>
</g>
<g transform="translate(54.0620, 47.4666)">
<path transform="scale(0.0040, -0.0040)" d="M0 -43c0 92 111 181 211 181c65 0 115 -37 115 -95c0 -88 -106 -181 -215 -181c-70 0 -111 41 -111 95z" fill="currentColor"/>
</g>
<g transform="translate(54.1377, 46.4666)">
<rect x="-0.0757" y="1.1714" width="0.1514" height="2.3286" ry="0.0500" fill="currentColor"/>
</g>
<g transform="translate(57.7865, 44.9666)">
<path transform="scale(0.0040, -0.0040)" d="M0 -43c0 92 111 181 211 181c65 0 115 -37 115 -95c0 -88 -106 -181 -215 -181c-70 0 -111 41 -111 95z" fill="currentColor"/>
</g>
<g transform="translate(57.7865, 55.9666)">
<path transform="scale(0.0040, -0.0040)" d="M0 -43c0 92 111 181 211 181c65 0 115 -37 115 -95c0 -88 -106 -181 -215 -181c-70 0 -111 41 -111 95z" fill="currentColor"/>
</g>
<g transform="translate(57.7865, 53.9666)">
<path transform="scale(0.0040, -0.0040)" d="M0 -43c0 92 111 181 211 181c65 0 115 -37 115 -95c0 -88 -106 -181 -215 -181c-70 0 -111 41 -111 95z" fill="currentColor"/>
</g>
<g transform="translate(57.8622, 46.4666)">
<rect x="-0.0757" y="-1.3286" width="0.1514" height="4.8286" ry="0.0500" fill="currentColor"/>
</g>
<g transform="translate(57.8622, 55.4666)">
<rect x="-0.0757" y="-1.3286" width="0.1514" height="5.0786" ry="0.0500" fill="currentColor"/>
</g>
<g transform="translate(57.9379, 59.1666)">
<path transform="scale(0.0040, -0.0040)" d="M0 0h-19v375h19v-375zM220 509c0 94 -41 155 -41 166c0 15 13 25 26 25c8 0 17 -4 22 -13c25 -56 40 -116 40 -178c0 -203 -267 -306 -267 -509v250c95 59 220 149 220 259z" fill="currentColor"/>
</g>
<g transform="translate(62.4107, 45.9666)">
<path transform="scale(0.0040, -0.0040)" d="M0 -43c0 92 111 181 211 181c65 0 115 -37 115 -95c0 -88 -106 -181 -215 -181c-70 0 -111 41 -111 95z" fill="currentColor"/>
</g>
<g transform="translate(62.4107, 44.9666)">
<path transform="scale(0.0040, -0.0040)" d="M0 -43c0 92 111 181 211 181c65 0 115 -37 115 -95c0 -88 -106 -181 -215 -181c-70 0 -111 41 -111 95z" fill="currentColor"/>
</g>
<g transform="translate(62.4107, 53.9666)">
<path transform="scale(0.0040, -0.0040)" d="M0 -43c0 92 111 181 211 181c65 0 115 -37 115 -95c0 -88 -106 -181 -215 -181c-70 0 -111 41 -111 95z" fill="currentColor"/>
</g>
<g transform="translate(-0.8536, 43.3928)">
<text font-family="serif" font-size="1.7463" text-anchor="start" fill="currentColor">
<tspan>9</tspan>
</text>
</g>
<g transform="translate(62.4864, 46.4666)">
<rect x="-0.0757" y="-1.3286" width="0.1514" height="4.1544" ry="0.0500" fill="currentColor"/>
</g>
<g transform="translate(62.4864, 55.4666)">
<rect x="-0.0757" y="-1.3286" width="0.1514" height="3.3286" ry="0.0500" fill="currentColor"/>
</g>
<g transform="translate(65.8852, 46.4666)">
<path transform="scale(0.0040, -0.0040)" d="M0 -43c0 92 111 181 211 181c65 0 115 -37 115 -95c0 -88 -106 -181 -215 -181c-70 0 -111 41 -111 95z" fill="currentColor"/>
</g>
<g transform="translate(65.8852, 45.4666)">
<path transform="scale(0.0040, -0.0040)" d="M0 -43c0 92 111 181 211 181c65 0 115 -37 115 -95c0 -88 -106 -181 -215 -181c-70 0 -111 41 -111 95z" fill="currentColor"/>
</g>
<g transform="translate(65.9609, 46.4666)">
<rect x="-0.0757" y="-0.8286" width="0.1514" height="4.0028" ry="0.0500" fill="currentColor"/>
</g>
<g transform="translate(69.3597, 46.4666)">
<path transform="scale(0.0040, -0.0040)" d="M70 205c81 0 46 -96 90 -96c14 0 50 42 56 55c4 7 10 11 17 11s14 -4 17 -11l-119 -414c-9 -8 -21 -12 -32 -12s-23 4 -32 12l118 326c-33 -12 -66 -22 -101 -22c-58 0 -86 40 -86 79c0 36 24 72 72 72z" fill="currentColor"/>
</g>
<g transform="translate(69.3597, 57.4666)">
<path transform="scale(0.0040, -0.0040)" d="M0 -43c0 92 111 181 211 181c65 0 115 -37 115 -95c0 -88 -106 -181 -215 -181c-70 0 -111 41 -111 95z" fill="currentColor"/>
</g>
<g transform="translate(70.5849, 55.4666)">
<rect x="-0.0757" y="-1.5000" width="0.1514" height="3.3286" ry="0.0500" fill="currentColor"/>
</g>
<g transform="translate(70.6606, 54.0166)">
<path transform="scale(0.0040, -0.0040)" d="M118 -725c0 11 43 86 43 194c0 102 -92 206 -161 281v-125h-19v375h19c0 -197 207 -334 207 -531c0 -71 -15 -140 -41 -206c-5 -9 -14 -13 -22 -13c-13 0 -26 10 -26 25z" fill="currentColor"/>
</g>
<g transform="translate(73.9945, 43.9666)">
<path transform="scale(0.0040, -0.0040)" d="M0 -43c0 92 111 181 211 181c65 0 115 -37 115 -95c0 -88 -106 -181 -215 -181c-70 0 -111 41 -111 95z" fill="currentColor"/>
</g>
<g transform="translate(0.8000, 54.4666)">
<path transform="scale(0.0040, -0.0040)" d="M558 -125c0 28 22 50 50 50s50 -22 50 -50s-22 -50 -50 -50s-50 22 -50 50zM558 125c0 28 22 50 50 50s50 -22 50 -50s-22 -50 -50 -50s-50 22 -50 50zM231 265c173 0 294 -88 294 -252c0 -263 -263 -415 -515 -523c-3 -3 -7 -5 -10 -5c-8 0 -15 7 -15 15c0 3 2 7 5 10
c200 118 407 264 407 491c0 119 -59 234 -166 234c-70 0 -119 -51 -142 -120c8 2 15 4 23 4c55 0 100 -45 100 -100c0 -58 -44 -106 -100 -106c-60 0 -112 47 -112 106c0 133 101 246 231 246z" fill="currentColor"/>
</g>
<g transform="translate(73.9945, 55.9666)">
<path transform="scale(0.0040, -0.0040)" d="M0 -43c0 92 111 181 211 181c65 0 115 -37 115 -95c0 -88 -106 -181 -215 -181c-70 0 -111 41 -111 95z" fill="currentColor"/>
</g>
<g transform="translate(73.9945, 54.9666)">
<path transform="scale(0.0040, -0.0040)" d="M0 -43c0 92 111 181 211 181c65 0 115 -37 115 -95c0 -88 -106 -181 -215 -181c-70 0 -111 41 -111 95z" fill="currentColor"/>
</g>
<g transform="translate(74.0701, 46.4666)">
<rect x="-0.0757" y="-2.3286" width="0.1514" height="4.1468" ry="0.0500" fill="currentColor"/>
</g>
<g transform="translate(74.0701, 55.4666)">
<rect x="-0.0757" y="-0.3286" width="0.1514" height="4.1468" ry="0.0500" fill="currentColor"/>
</g>
<g transform="translate(76.6321, 53.9666)">
<path transform="scale(0.0040, -0.0040)" d="M0 -43c0 92 111 181 211 181c65 0 115 -37 115 -95c0 -88 -106 -181 -215 -181c-70 0 -111 41 -111 95z" fill="currentColor"/>
</g>
<g transform="translate(76.7078, 55.4666)">
<rect x="-0.0757" y="-1.3286" width="0.1514" height="5.1468" ry="0.0500" fill="currentColor"/>
</g>
<g transform="translate(124.7451, 55.5166)">
<path transform="scale(0.0040, -0.0040)" d="M118 -725c0 11 43 86 43 194c0 102 -92 206 -161 281v-125h-19v375h19c0 -197 207 -334 207 -531c0 -71 -15 -140 -41 -206c-5 -9 -14 -13 -22 -13c-13 0 -26 10 -26 25z" fill="currentColor"/>
</g>
<g transform="translate(78.7698, 45.9666)">
<path transform="scale(0.0040, -0.0040)" d="M0 -43c0 92 111 181 211 181c65 0 115 -37 115 -95c0 -88 -106 -181 -215 -181c-70 0 -111 41 -111 95z" fill="currentColor"/>
</g>
<g transform="translate(78.7698, 55.9666)">
<path transform="scale(0.0040, -0.0040)" d="M0 -43c0 92 111 181 211 181c65 0 115 -37 115 -95c0 -88 -106 -181 -215 -181c-70 0 -111 41 -111 95z" fill="currentColor"/>
</g>
<g transform="translate(78.7698, 54.9666)">
<path transform="scale(0.0040, -0.0040)" d="M0 -43c0 92 111 181 211 181c65 0 115 -37 115 -95c0 -88 -106 -181 -215 -181c-70 0 -111 41 -111 95z" fill="currentColor"/>
</g>
<g transform="translate(78.8455, 46.4666)">
<rect x="-0.0757" y="-0.3286" width="0.1514" height="2.1468" ry="0.0500" fill="currentColor"/>
</g>
<g transform="translate(78.8455, 55.4666)">
<rect x="-0.0757" y="-0.3286" width="0.1514" height="4.1468" ry="0.0500" fill="currentColor"/>
</g>
<g transform="translate(81.4074, 53.9666)">
<path transform="scale(0.0040, -0.0040)" d="M0 -43c0 92 111 181 211 181c65 0 115 -37 115 -95c0 -88 -106 -181 -215 -181c-70 0 -111 41 -111 95z" fill="currentColor"/>
</g>
<g transform="translate(81.4831, 55.4666)">
<rect x="-0.0757" y="-1.3286" width="0.1514" height="5.1468" ry="0.0500" fill="currentColor"/>
</g>
<g transform="translate(124.6694, 55.4666)">
<rect x="-0.0757" y="-0.0000" width="0.1514" height="3.8286" ry="0.0500" fill="currentColor"/>
</g>
<g transform="translate(83.5451, 44.9666)">
<path transform="scale(0.0040, -0.0040)" d="M0 -43c0 92 111 181 211 181c65 0 115 -37 115 -95c0 -88 -106 -181 -215 -181c-70 0 -111 41 -111 95z" fill="currentColor"/>
</g>
<g transform="translate(83.5451, 55.9666)">
<path transform="scale(0.0040, -0.0040)" d="M0 -43c0 92 111 181 211 181c65 0 115 -37 115 -95c0 -88 -106 -181 -215 -181c-70 0 -111 41 -111 95z" fill="currentColor"/>
</g>
<g transform="translate(83.5451, 54.9666)">
<path transform="scale(0.0040, -0.0040)" d="M0 -43c0 92 111 181 211 181c65 0 115 -37 115 -95c0 -88 -106 -181 -215 -181c-70 0 -111 41 -111 95z" fill="currentColor"/>
</g>
<g transform="translate(83.6208, 46.4666)">
<rect x="-0.0757" y="-1.3286" width="0.1514" height="3.1468" ry="0.0500" fill="currentColor"/>
</g>
<g transform="translate(83.6208, 55.4666)">
<rect x="-0.0757" y="-0.3286" width="0.1514" height="4.1468" ry="0.0500" fill="currentColor"/>
</g>
<g transform="translate(86.1828, 53.9666)">
<path transform="scale(0.0040, -0.0040)" d="M0 -43c0 92 111 181 211 181c65 0 115 -37 115 -95c0 -88 -106 -181 -215 -181c-70 0 -111 41 -111 95z" fill="currentColor"/>
</g>
<g transform="translate(86.2584, 55.4666)">
<rect x="-0.0757" y="-1.3286" width="0.1514" height="5.1468" ry="0.0500" fill="currentColor"/>
</g>
<g transform="translate(89.4162, 48.4666)">
<path transform="scale(0.0040, -0.0040)" d="M0 -43c0 92 111 181 211 181c65 0 115 -37 115 -95c0 -88 -106 -181 -215 -181c-70 0 -111 41 -111 95z" fill="currentColor"/>
</g>
<g transform="translate(89.4162, 45.9666)">
<path transform="scale(0.0040, -0.0040)" d="M0 -43c0 92 111 181 211 181c65 0 115 -37 115 -95c0 -88 -106 -181 -215 -181c-70 0 -111 41 -111 95z" fill="currentColor"/>
</g>
<g transform="translate(0.8000, 47.4666)">
<path transform="scale(0.0040, -0.0040)" d="M647 2c0 -114 -75 -214 -180 -248c3 -33 4 -66 4 -99c0 -21 0 -41 -1 -62c-7 -122 -92 -229 -211 -229c-108 0 -196 88 -196 197c0 58 54 103 113 103c54 0 95 -47 95 -103c0 -52 -43 -95 -95 -95c-9 0 -18 1 -27 4c25 -37 66 -61 113 -61c93 0 156 91 162 191
c1 19 2 38 2 57c0 29 -1 58 -3 87c-28 -5 -54 -8 -79 -8c-242 0 -342 222 -342 376c0 177 129 308 244 443c-33 100 -55 169 -55 347c0 186 141 292 159 292c33 0 148 -208 148 -361c0 -142 -84 -255 -176 -364c21 -68 40 -136 57 -205c3 0 8 1 11 1
c156 0 257 -129 257 -263zM406 148c28 -133 49 -269 57 -349c73 27 109 93 109 160c0 86 -58 175 -166 189zM77 25c0 -111 96 -243 275 -243c21 0 44 1 67 5c-7 66 -27 208 -60 362c-79 -8 -124 -60 -124 -118c0 -43 25 -88 80 -120c5 -5 7 -11 7 -17c0 -12 -10 -23 -23 -23
c-16 0 -128 62 -128 188c0 89 60 177 163 200c-14 57 -30 113 -47 169c-105 -122 -210 -243 -210 -403zM424 920c0 61 -20 118 -21 118c-31 -14 -161 -85 -161 -253c0 -53 15 -113 39 -189c71 88 143 196 143 324z" fill="currentColor"/>
</g>
<g transform="translate(89.4162, 55.9666)">
<path transform="scale(0.0040, -0.0040)" d="M0 -43c0 92 111 181 211 181c65 0 115 -37 115 -95c0 -88 -106 -181 -215 -181c-70 0 -111 41 -111 95z" fill="currentColor"/>
</g>
<g transform="translate(90.6413, 46.4666)">
<rect x="-0.0757" y="-3.5000" width="0.1514" height="5.3286" ry="0.0500" fill="currentColor"/>
</g>
<g transform="translate(90.6413, 55.4666)">
<rect x="-0.0757" y="-2.8182" width="0.1514" height="3.1468" ry="0.0500" fill="currentColor"/>
</g>
<g transform="translate(123.4443, 59.4666)">
<path transform="scale(0.0040, -0.0040)" d="M0 -43c0 92 111 181 211 181c65 0 115 -37 115 -95c0 -88 -106 -181 -215 -181c-70 0 -111 41 -111 95z" fill="currentColor"/>
</g>
<g transform="translate(92.8907, 48.4666)">
<path transform="scale(0.0040, -0.0040)" d="M0 -43c0 92 111 181 211 181c65 0 115 -37 115 -95c0 -88 -106 -181 -215 -181c-70 0 -111 41 -111 95z" fill="currentColor"/>
</g>
<g transform="translate(92.8907, 45.9666)">
<path transform="scale(0.0040, -0.0040)" d="M0 -43c0 92 111 181 211 181c65 0 115 -37 115 -95c0 -88 -106 -181 -215 -181c-70 0 -111 41 -111 95z" fill="currentColor"/>
</g>
<g transform="translate(92.8907, 55.9666)">
<path transform="scale(0.0040, -0.0040)" d="M0 -43c0 92 111 181 211 181c65 0 115 -37 115 -95c0 -88 -106 -181 -215 -181c-70 0 -111 41 -111 95z" fill="currentColor"/>
</g>
<g transform="translate(94.1158, 46.4666)">
<rect x="-0.0757" y="-3.5000" width="0.1514" height="5.3286" ry="0.0500" fill="currentColor"/>
</g>
<g transform="translate(94.1158, 55.4666)">
<rect x="-0.0757" y="-2.8182" width="0.1514" height="3.1468" ry="0.0500" fill="currentColor"/>
</g>
<g transform="translate(123.4443, 46.4666)">
<path transform="scale(0.0040, -0.0040)" d="M70 205c81 0 46 -96 90 -96c14 0 50 42 56 55c4 7 10 11 17 11s14 -4 17 -11l-119 -414c-9 -8 -21 -12 -32 -12s-23 4 -32 12l118 326c-33 -12 -66 -22 -101 -22c-58 0 -86 40 -86 79c0 36 24 72 72 72z" fill="currentColor"/>
</g>
<g transform="translate(96.3652, 48.4666)">
<path transform="scale(0.0040, -0.0040)" d="M0 -43c0 92 111 181 211 181c65 0 115 -37 115 -95c0 -88 -106 -181 -215 -181c-70 0 -111 41 -111 95z" fill="currentColor"/>
</g>
<g transform="translate(96.3652, 45.9666)">
<path transform="scale(0.0040, -0.0040)" d="M0 -43c0 92 111 181 211 181c65 0 115 -37 115 -95c0 -88 -106 -181 -215 -181c-70 0 -111 41 -111 95z" fill="currentColor"/>
</g>
<g transform="translate(96.3652, 55.9666)">
<path transform="scale(0.0040, -0.0040)" d="M0 -43c0 92 111 181 211 181c65 0 115 -37 115 -95c0 -88 -106 -181 -215 -181c-70 0 -111 41 -111 95z" fill="currentColor"/>
</g>
<g transform="translate(97.5903, 46.4666)">
<rect x="-0.0757" y="-3.5000" width="0.1514" height="5.3286" ry="0.0500" fill="currentColor"/>
</g>
<g transform="translate(97.5903, 55.4666)">
<rect x="-0.0757" y="-2.8182" width="0.1514" height="3.1468" ry="0.0500" fill="currentColor"/>
</g>
<g transform="translate(101.2920, 45.4666)">
<path transform="scale(0.0040, -0.0040)" d="M0 -43c0 92 111 181 211 181c65 0 115 -37 115 -95c0 -88 -106 -181 -215 -181c-70 0 -111 41 -111 95z" fill="currentColor"/>
</g>
<g transform="translate(4.7970, 42.9539)">
<g>
<path transform="scale(0.0025, -0.0025)" d="M94 66c-60 0 -39 -66 -72 -66c-11 0 -22 7 -22 21v2c15 169 232 158 232 332c0 50 -17 102 -61 102c-33 0 -66 -14 -66 -44c0 -24 31 -37 31 -61c0 -34 -27 -61 -61 -61s-61 27 -61 61c0 84 72 148 157 148c98 0 190 -55 190 -145c0 -140 -131 -154 -225 -205
c85 -2 113 -61 165 -61c45 0 28 41 57 41c11 0 22 -8 22 -21c0 -29 -48 -109 -144 -109c-92 0 -96 66 -142 66z" fill="currentColor"/>

<path transform="translate(0.9816, 0.0000) scale(0.0025, -0.0025)" d="M0 51c0 28 23 51 51 51s51 -23 51 -51s-23 -51 -51 -51s-51 23 -51 51z" fill="currentColor"/>
</g>
</g>
<g transform="translate(3.4833, 41.1938)">
<line stroke-linejoin="round" stroke-linecap="round" stroke-width="0.1863" stroke="currentColor" x1="16.1187" y1="-0.0000" x2="16.1187" y2="-0.0000"/>
</g>
<g transform="translate(3.4833, 41.1938)">
<line stroke-linejoin="round" stroke-linecap="round" stroke-width="0.1863" stroke="currentColor" x1="0.4069" y1="-0.0000" x2="0.4069" y2="2.0000"/>
</g>
<g transform="translate(3.4833, 41.1938)">
<line stroke-linejoin="round" stroke-linecap="round" stroke-width="0.1863" stroke="currentColor" x1="0.4069" y1="-0.0000" x2="16.1187" y2="-0.0000"/>
</g>
<g transform="translate(101.2920, 54.4666)">
<path transform="scale(0.0040, -0.0040)" d="M0 -43c0 92 111 181 211 181c65 0 115 -37 115 -95c0 -88 -106 -181 -215 -181c-70 0 -111 41 -111 95z" fill="currentColor"/>
</g>
<g transform="translate(101.3677, 46.4666)">
<rect x="-0.0757" y="-0.8286" width="0.1514" height="3.6468" ry="0.0500" fill="currentColor"/>
</g>
<g transform="translate(101.3677, 55.4666)">
<rect x="-0.0757" y="-0.8286" width="0.1514" height="3.3286" ry="0.0500" fill="currentColor"/>
</g>
<g transform="translate(103.9297, 44.4666)">
<path transform="scale(0.0040, -0.0040)" d="M0 -43c0 92 111 181 211 181c65 0 115 -37 115 -95c0 -88 -106 -181 -215 -181c-70 0 -111 41 -111 95z" fill="currentColor"/>
</g>
<g transform="translate(104.0054, 46.4666)">
<rect x="-0.0757" y="-1.8286" width="0.1514" height="4.6468" ry="0.0500" fill="currentColor"/>
</g>
<g transform="translate(106.0673, 46.9666)">
<path transform="scale(0.0040, -0.0040)" d="M0 -43c0 92 111 181 211 181c65 0 115 -37 115 -95c0 -88 -106 -181 -215 -181c-70 0 -111 41 -111 95z" fill="currentColor"/>
</g>
<g transform="translate(106.1430, 46.4666)">
<rect x="-0.0757" y="0.6714" width="0.1514" height="2.1468" ry="0.0500" fill="currentColor"/>
</g>
<g transform="translate(121.1949, 46.4666)">
<rect x="-0.0757" y="-1.2185" width="0.1514" height="4.0471" ry="0.0500" fill="currentColor"/>
</g>
<g transform="translate(108.7050, 45.4666)">
<path transform="scale(0.0040, -0.0040)" d="M0 -43c0 92 111 181 211 181c65 0 115 -37 115 -95c0 -88 -106 -181 -215 -181c-70 0 -111 41 -111 95z" fill="currentColor"/>
</g>
<g transform="translate(108.7807, 46.4666)">
<rect x="-0.0757" y="-0.8286" width="0.1514" height="3.6468" ry="0.0500" fill="currentColor"/>
</g>
<g transform="translate(119.9698, 49.4666)">
<path transform="scale(0.0040, -0.0040)" d="M0 -43c0 92 111 181 211 181c65 0 115 -37 115 -95c0 -88 -106 -181 -215 -181c-70 0 -111 41 -111 95z" fill="currentColor"/>
</g>
<g transform="translate(110.8427, 46.4666)">
<path transform="scale(0.0040, -0.0040)" d="M0 -43c0 92 111 181 211 181c65 0 115 -37 115 -95c0 -88 -106 -181 -215 -181c-70 0 -111 41 -111 95z" fill="currentColor"/>
</g>
<g transform="translate(110.8427, 53.9666)">
<path transform="scale(0.0040, -0.0040)" d="M0 -43c0 92 111 181 211 181c65 0 115 -37 115 -95c0 -88 -106 -181 -215 -181c-70 0 -111 41 -111 95z" fill="currentColor"/>
</g>
<g transform="translate(110.9183, 46.4666)">
<rect x="-0.0757" y="0.1714" width="0.1514" height="2.6468" ry="0.0500" fill="currentColor"/>
</g>
<g transform="translate(110.9183, 55.4666)">
<rect x="-0.0757" y="-1.3286" width="0.1514" height="3.3286" ry="0.0500" fill="currentColor"/>
</g>
<g transform="translate(110.9940, 57.4166)">
<path transform="scale(0.0040, -0.0040)" d="M0 0h-19v375h19v-375zM220 509c0 94 -41 155 -41 166c0 15 13 25 26 25c8 0 17 -4 22 -13c25 -56 40 -116 40 -178c0 -203 -267 -306 -267 -509v250c95 59 220 149 220 259z" fill="currentColor"/>
</g>
<g transform="translate(113.4803, 45.4666)">
<path transform="scale(0.0040, -0.0040)" d="M0 -43c0 92 111 181 211 181c65 0 115 -37 115 -95c0 -88 -106 -181 -215 -181c-70 0 -111 41 -111 95z" fill="currentColor"/>
</g>
<g transform="translate(113.5560, 46.4666)">
<rect x="-0.0757" y="-0.8286" width="0.1514" height="3.6468" ry="0.0500" fill="currentColor"/>
</g>
<g transform="translate(116.7453, 45.9666)">
<path transform="scale(0.0040, -0.0040)" d="M0 -43c0 92 111 181 211 181c65 0 115 -37 115 -95c0 -88 -106 -181 -215 -181c-70 0 -111 41 -111 95z" fill="currentColor"/>
</g>
<g transform="translate(116.7453, 55.9666)">
<path transform="scale(0.0040, -0.0040)" d="M0 -43c0 92 111 181 211 181c65 0 115 -37 115 -95c0 -88 -106 -181 -215 -181c-70 0 -111 41 -111 95z" fill="currentColor"/>
</g>
<g transform="translate(-0.0863, 50.9666)">
<rect x="0.0000" y="-6.5582" width="0.1863" height="13.1164" ry="0.0582" fill="currentColor"/>
</g>
<g transform="translate(117.9704, 46.4666)">
<rect x="-0.0757" y="-2.7815" width="0.1514" height="2.1101" ry="0.0500" fill="currentColor"/>
</g>
<g transform="translate(117.9704, 55.4666)">
<rect x="-0.0757" y="-3.0000" width="0.1514" height="3.3286" ry="0.0500" fill="currentColor"/>
</g>
<g transform="translate(-0.3863, 50.9666)">
<path transform="scale(0.0050, -0.0050)" d="M-81 -282c0 216 -111 264 -111 282s111 66 111 282c0 192 -81 423 -81 636c0 276 159 378 162 378c9 0 15 -6 15 -15c0 -21 -114 -66 -114 -288c0 -189 78 -414 78 -621c0 -138 -33 -267 -144 -372c111 -105 144 -234 144 -372c0 -207 -78 -432 -78 -621
c0 -222 114 -267 114 -288c0 -9 -6 -15 -15 -15c-3 0 -162 102 -162 378c0 213 81 444 81 636z" fill="currentColor"/>
</g>
</svg>
