<svg xmlns="http://www.w3.org/2000/svg" xmlns:xlink="http://www.w3.org/1999/xlink" version="1.2" width="210.00mm" height="297.00mm" viewBox="0.0000 -0.0000 170.7165 241.4420">
<style type="text/css">
<![CDATA[
tspan { white-space: pre; }
]]>
</style>
<g transform="translate(8.1294, 19.6186)">
<rect x="50.3447" y="-0.1141" width="1.9471" height="0.2282" ry="0.1141" fill="currentColor"/>
</g>
<g transform="translate(8.1294, 19.6186)">
<rect x="5.4755" y="-0.1141" width="1.9471" height="0.2282" ry="0.1141" fill="currentColor"/>
</g>
<g transform="translate(8.1294, 18.6186)">
<line stroke-linejoin="round" stroke-linecap="round" stroke-width="0.1282" stroke="currentColor" x1="0.0641" y1="0" x2="154.3937" y2="0"/>
</g>
<g transform="translate(8.1294, 17.6186)">
<line stroke-linejoin="round" stroke-linecap="round" stroke-width="0.1282" stroke="currentColor" x1="0.0641" y1="0" x2="154.3937" y2="0"/>
</g>
<g transform="translate(8.1294, 16.6186)">
<line stroke-linejoin="round" stroke-linecap="round" stroke-width="0.1282" stroke="currentColor" x1="0.0641" y1="0" x2="154.3937" y2="0"/>
</g>
<g transform="translate(8.1294, 15.6186)">
<line stroke-linejoin="round" stroke-linecap="round" stroke-width="0.1282" stroke="currentColor" x1="0.0641" y1="0" x2="154.3937" y2="0"/>
</g>
<g transform="translate(8.1294, 14.6186)">
<line stroke-linejoin="round" stroke-linecap="round" stroke-width="0.1282" stroke="currentColor" x1="0.0641" y1="0" x2="154.3937" y2="0"/>
</g>
<g transform="translate(162.3437, 16.6186)">
<rect x="0.0000" y="-2.0000" width="0.2435" height="4.0000" ry="0.0000" fill="currentColor"/>
</g>
<g transform="translate(161.7157, 16.6186)">
<rect x="0.0000" y="-2.0000" width="0.2435" height="4.0000" ry="0.0000" fill="currentColor"/>
</g>
<g transform="translate(112.6471, 16.6186)">
<rect x="0.0000" y="-2.0000" width="0.2435" height="4.0000" ry="0.0000" fill="currentColor"/>
</g>
<g transform="translate(112.0191, 16.6186)">
<rect x="0.0000" y="-2.0000" width="0.2435" height="4.0000" ry="0.0000" fill="currentColor"/>
</g>
<g transform="translate(62.7827, 16.6186)">
<rect x="0.0000" y="-2.0000" width="0.2435" height="4.0000" ry="0.0000" fill="currentColor"/>
</g>
<g transform="translate(62.1547, 16.6186)">
<rect x="0.0000" y="-2.0000" width="0.2435" height="4.0000" ry="0.0000" fill="currentColor"/>
</g>
<g transform="translate(86.4215, 14.1186)">
<path transform="scale(0.0040, -0.0040)" d="M208 139c69 0 117 -40 117 -99c0 -91 -107 -179 -209 -179c-69 0 -116 40 -116 99c0 91 106 179 208 179z" fill="currentColor"/>
</g>
<g transform="translate(13.9294, 19.6186)">
<path transform="scale(0.0040, -0.0040)" d="M208 139c69 0 117 -40 117 -99c0 -91 -107 -179 -209 -179c-69 0 -116 40 -116 99c0 91 106 179 208 179z" fill="currentColor"/>
</g>
<g transform="translate(13.9294, 11.5545)">
<text font-family="serif" font-size="2.1998" text-anchor="start" fill="currentColor">
<tspan>C dorian</tspan>
</text>
</g>
<g transform="translate(8.9294, 17.6186)">
<path transform="scale(0.0040, -0.0040)" d="M648 2c0 -114 -74 -214 -179 -248c2 -32 3 -65 3 -97c0 -21 -1 -43 -2 -64c-7 -123 -92 -230 -211 -230c-108 0 -197 88 -197 197c0 58 54 104 113 104c54 0 95 -48 95 -104c0 -52 -43 -95 -95 -95c-8 0 -16 2 -24 4c25 -35 65 -59 111 -59c93 0 155 90 161 190
c1 20 2 39 2 59c0 28 -1 55 -3 83c-5 -1 -43 -7 -87 -7c-194 0 -333 181 -333 377c0 176 128 307 242 443c-36 105 -58 171 -58 348c0 113 54 219 146 286c8 6 21 7 29 0c69 -78 136 -242 136 -357c0 -141 -83 -253 -174 -362c22 -67 41 -135 58 -204h9
c157 0 258 -130 258 -264zM464 -200c62 24 108 86 108 159c0 87 -62 173 -163 187c28 -132 47 -265 55 -346zM338 -218c1 0 46 0 80 6c-7 68 -26 209 -58 359c-79 -7 -123 -59 -123 -116c0 -43 24 -89 78 -120c5 -5 8 -11 8 -17c0 -13 -11 -24 -24 -24
c-17 0 -129 63 -129 189c0 90 60 178 164 201c-14 56 -30 112 -47 167c-104 -122 -208 -245 -208 -404c0 -143 140 -241 259 -241zM239 782c0 -43 15 -102 41 -183c77 97 140 199 140 323c0 58 -8 83 -19 113c-99 -45 -162 -145 -162 -253z" fill="currentColor"/>
</g>
<g transform="translate(15.1441, 16.6186)">
<rect x="-0.0833" y="-0.5000" width="0.1666" height="3.3382" ry="0.0571" fill="currentColor"/>
</g>
<g transform="translate(17.1069, 19.1186)">
<path transform="scale(0.0040, -0.0040)" d="M208 139c69 0 117 -40 117 -99c0 -91 -107 -179 -209 -179c-69 0 -116 40 -116 99c0 91 106 179 208 179z" fill="currentColor"/>
</g>
<g transform="translate(18.3217, 16.6186)">
<rect x="-0.0833" y="-1.0000" width="0.1666" height="3.3382" ry="0.0571" fill="currentColor"/>
</g>
<g transform="translate(20.4890, 18.6186)">
<path transform="scale(0.0040, -0.0040)" d="M208 139c69 0 117 -40 117 -99c0 -91 -107 -179 -209 -179c-69 0 -116 40 -116 99c0 91 106 179 208 179z" fill="currentColor"/>
</g>
<g transform="translate(21.7038, 16.6186)">
<rect x="-0.0833" y="-1.5000" width="0.1666" height="3.3382" ry="0.0571" fill="currentColor"/>
</g>
<g transform="translate(19.3390, 18.6186)">
<path transform="scale(0.0040, -0.0040)" d="M33 35l-2 -60v-11c0 -21 2 -43 5 -64c42 38 87 81 87 138c0 32 -13 63 -41 63c-31 0 -48 -32 -49 -66zM32 446l-9 -337c25 26 59 40 95 40c50 0 82 -51 82 -105c0 -77 -80 -117 -137 -169c-18 -17 -26 -48 -52 -48c-16 0 -28 15 -28 32l-15 587c10 6 21 8 32 8
s22 -2 32 -8z" fill="currentColor"/>
</g>
<g transform="translate(23.6665, 18.1186)">
<path transform="scale(0.0040, -0.0040)" d="M208 139c69 0 117 -40 117 -99c0 -91 -107 -179 -209 -179c-69 0 -116 40 -116 99c0 91 106 179 208 179z" fill="currentColor"/>
</g>
<g transform="translate(24.8813, 16.6186)">
<rect x="-0.0833" y="-2.0000" width="0.1666" height="3.3382" ry="0.0571" fill="currentColor"/>
</g>
<g transform="translate(26.8440, 17.6186)">
<path transform="scale(0.0040, -0.0040)" d="M208 139c69 0 117 -40 117 -99c0 -91 -107 -179 -209 -179c-69 0 -116 40 -116 99c0 91 106 179 208 179z" fill="currentColor"/>
</g>
<g transform="translate(28.0588, 16.6186)">
<rect x="-0.0833" y="-2.5000" width="0.1666" height="3.3382" ry="0.0571" fill="currentColor"/>
</g>
<g transform="translate(30.0216, 17.1186)">
<path transform="scale(0.0040, -0.0040)" d="M208 139c69 0 117 -40 117 -99c0 -91 -107 -179 -209 -179c-69 0 -116 40 -116 99c0 91 106 179 208 179z" fill="currentColor"/>
</g>
<g transform="translate(31.2363, 16.6186)">
<rect x="-0.0833" y="-3.0000" width="0.1666" height="3.3382" ry="0.0571" fill="currentColor"/>
</g>
<g transform="translate(33.4037, 16.6186)">
<path transform="scale(0.0040, -0.0040)" d="M208 139c69 0 117 -40 117 -99c0 -91 -107 -179 -209 -179c-69 0 -116 40 -116 99c0 91 106 179 208 179z" fill="currentColor"/>
</g>
<g transform="translate(33.4870, 16.6186)">
<rect x="-0.0833" y="0.1618" width="0.1666" height="3.1715" ry="0.0571" fill="currentColor"/>
</g>
<g transform="translate(32.2537, 16.6186)">
<path transform="scale(0.0040, -0.0040)" d="M33 35l-2 -60v-11c0 -21 2 -43 5 -64c42 38 87 81 87 138c0 32 -13 63 -41 63c-31 0 -48 -32 -49 -66zM32 446l-9 -337c25 26 59 40 95 40c50 0 82 -51 82 -105c0 -77 -80 -117 -137 -169c-18 -17 -26 -48 -52 -48c-16 0 -28 15 -28 32l-15 587c10 6 21 8 32 8
s22 -2 32 -8z" fill="currentColor"/>
</g>
<g transform="translate(36.5812, 16.1186)">
<path transform="scale(0.0040, -0.0040)" d="M208 139c69 0 117 -40 117 -99c0 -91 -107 -179 -209 -179c-69 0 -116 40 -116 99c0 91 106 179 208 179z" fill="currentColor"/>
</g>
<g transform="translate(36.6645, 16.6186)">
<rect x="-0.0833" y="-0.3382" width="0.1666" height="3.3382" ry="0.0571" fill="currentColor"/>
</g>
<g transform="translate(39.7587, 16.6186)">
<path transform="scale(0.0040, -0.0040)" d="M208 139c69 0 117 -40 117 -99c0 -91 -107 -179 -209 -179c-69 0 -116 40 -116 99c0 91 106 179 208 179z" fill="currentColor"/>
</g>
<g transform="translate(39.8420, 16.6186)">
<rect x="-0.0833" y="0.1618" width="0.1666" height="3.1715" ry="0.0571" fill="currentColor"/>
</g>
<g transform="translate(42.9110, 17.1186)">
<path transform="scale(0.0040, -0.0040)" d="M208 139c69 0 117 -40 117 -99c0 -91 -107 -179 -209 -179c-69 0 -116 40 -116 99c0 91 106 179 208 179z" fill="currentColor"/>
</g>
<g transform="translate(44.1258, 16.6186)">
<rect x="-0.0833" y="-3.0000" width="0.1666" height="3.3382" ry="0.0571" fill="currentColor"/>
</g>
<g transform="translate(46.0886, 17.6186)">
<path transform="scale(0.0040, -0.0040)" d="M208 139c69 0 117 -40 117 -99c0 -91 -107 -179 -209 -179c-69 0 -116 40 -116 99c0 91 106 179 208 179z" fill="currentColor"/>
</g>
<g transform="translate(47.3033, 16.6186)">
<rect x="-0.0833" y="-2.5000" width="0.1666" height="3.3382" ry="0.0571" fill="currentColor"/>
</g>
<g transform="translate(49.2661, 18.1186)">
<path transform="scale(0.0040, -0.0040)" d="M208 139c69 0 117 -40 117 -99c0 -91 -107 -179 -209 -179c-69 0 -116 40 -116 99c0 91 106 179 208 179z" fill="currentColor"/>
</g>
<g transform="translate(50.4809, 16.6186)">
<rect x="-0.0833" y="-2.0000" width="0.1666" height="3.3382" ry="0.0571" fill="currentColor"/>
</g>
<g transform="translate(52.4436, 18.6186)">
<path transform="scale(0.0040, -0.0040)" d="M208 139c69 0 117 -40 117 -99c0 -91 -107 -179 -209 -179c-69 0 -116 40 -116 99c0 91 106 179 208 179z" fill="currentColor"/>
</g>
<g transform="translate(53.6584, 16.6186)">
<rect x="-0.0833" y="-1.5000" width="0.1666" height="3.3382" ry="0.0571" fill="currentColor"/>
</g>
<g transform="translate(159.5387, 16.6186)">
<rect x="-0.0833" y="-1.0000" width="0.1666" height="3.3382" ry="0.0571" fill="currentColor"/>
</g>
<g transform="translate(55.6211, 19.1186)">
<path transform="scale(0.0040, -0.0040)" d="M208 139c69 0 117 -40 117 -99c0 -91 -107 -179 -209 -179c-69 0 -116 40 -116 99c0 91 106 179 208 179z" fill="currentColor"/>
</g>
<g transform="translate(56.8359, 16.6186)">
<rect x="-0.0833" y="-1.0000" width="0.1666" height="3.3382" ry="0.0571" fill="currentColor"/>
</g>
<g transform="translate(58.7986, 19.6186)">
<path transform="scale(0.0040, -0.0040)" d="M208 139c69 0 117 -40 117 -99c0 -91 -107 -179 -209 -179c-69 0 -116 40 -116 99c0 91 106 179 208 179z" fill="currentColor"/>
</g>
<g transform="translate(60.0134, 16.6186)">
<rect x="-0.0833" y="-0.5000" width="0.1666" height="3.3382" ry="0.0571" fill="currentColor"/>
</g>
<g transform="translate(158.3239, 19.1186)">
<path transform="scale(0.0040, -0.0040)" d="M208 139c69 0 117 -40 117 -99c0 -91 -107 -179 -209 -179c-69 0 -116 40 -116 99c0 91 106 179 208 179z" fill="currentColor"/>
</g>
<g transform="translate(63.9743, 17.6186)">
<path transform="scale(0.0040, -0.0040)" d="M208 139c69 0 117 -40 117 -99c0 -91 -107 -179 -209 -179c-69 0 -116 40 -116 99c0 91 106 179 208 179z" fill="currentColor"/>
</g>
<g transform="translate(63.9743, 11.5545)">
<text font-family="serif" font-size="2.1998" text-anchor="start" fill="currentColor">
<tspan>G dorian</tspan>
</text>
</g>
<g transform="translate(65.1890, 16.6186)">
<rect x="-0.0833" y="-2.5000" width="0.1666" height="3.3382" ry="0.0571" fill="currentColor"/>
</g>
<g transform="translate(67.1518, 17.1186)">
<path transform="scale(0.0040, -0.0040)" d="M208 139c69 0 117 -40 117 -99c0 -91 -107 -179 -209 -179c-69 0 -116 40 -116 99c0 91 106 179 208 179z" fill="currentColor"/>
</g>
<g transform="translate(68.3666, 16.6186)">
<rect x="-0.0833" y="-3.0000" width="0.1666" height="3.3382" ry="0.0571" fill="currentColor"/>
</g>
<g transform="translate(70.5339, 16.6186)">
<path transform="scale(0.0040, -0.0040)" d="M208 139c69 0 117 -40 117 -99c0 -91 -107 -179 -209 -179c-69 0 -116 40 -116 99c0 91 106 179 208 179z" fill="currentColor"/>
</g>
<g transform="translate(70.6172, 16.6186)">
<rect x="-0.0833" y="0.1618" width="0.1666" height="3.1715" ry="0.0571" fill="currentColor"/>
</g>
<g transform="translate(69.3839, 16.6186)">
<path transform="scale(0.0040, -0.0040)" d="M33 35l-2 -60v-11c0 -21 2 -43 5 -64c42 38 87 81 87 138c0 32 -13 63 -41 63c-31 0 -48 -32 -49 -66zM32 446l-9 -337c25 26 59 40 95 40c50 0 82 -51 82 -105c0 -77 -80 -117 -137 -169c-18 -17 -26 -48 -52 -48c-16 0 -28 15 -28 32l-15 587c10 6 21 8 32 8
s22 -2 32 -8z" fill="currentColor"/>
</g>
<g transform="translate(156.3611, 16.6186)">
<rect x="-0.0833" y="-1.5000" width="0.1666" height="3.3382" ry="0.0571" fill="currentColor"/>
</g>
<g transform="translate(73.7114, 16.1186)">
<path transform="scale(0.0040, -0.0040)" d="M208 139c69 0 117 -40 117 -99c0 -91 -107 -179 -209 -179c-69 0 -116 40 -116 99c0 91 106 179 208 179z" fill="currentColor"/>
</g>
<g transform="translate(73.7947, 16.6186)">
<rect x="-0.0833" y="-0.3382" width="0.1666" height="3.3382" ry="0.0571" fill="currentColor"/>
</g>
<g transform="translate(155.1464, 18.6186)">
<path transform="scale(0.0040, -0.0040)" d="M208 139c69 0 117 -40 117 -99c0 -91 -107 -179 -209 -179c-69 0 -116 40 -116 99c0 91 106 179 208 179z" fill="currentColor"/>
</g>
<g transform="translate(76.8889, 15.6186)">
<path transform="scale(0.0040, -0.0040)" d="M208 139c69 0 117 -40 117 -99c0 -91 -107 -179 -209 -179c-69 0 -116 40 -116 99c0 91 106 179 208 179z" fill="currentColor"/>
</g>
<g transform="translate(76.9723, 16.6186)">
<rect x="-0.0833" y="-0.8382" width="0.1666" height="3.3382" ry="0.0571" fill="currentColor"/>
</g>
<g transform="translate(80.0665, 15.1186)">
<path transform="scale(0.0040, -0.0040)" d="M208 139c69 0 117 -40 117 -99c0 -91 -107 -179 -209 -179c-69 0 -116 40 -116 99c0 91 106 179 208 179z" fill="currentColor"/>
</g>
<g transform="translate(80.1498, 16.6186)">
<rect x="-0.0833" y="-1.3382" width="0.1666" height="3.3382" ry="0.0571" fill="currentColor"/>
</g>
<g transform="translate(83.2440, 14.6186)">
<path transform="scale(0.0040, -0.0040)" d="M208 139c69 0 117 -40 117 -99c0 -91 -107 -179 -209 -179c-69 0 -116 40 -116 99c0 91 106 179 208 179z" fill="currentColor"/>
</g>
<g transform="translate(83.3273, 16.6186)">
<rect x="-0.0833" y="-1.8382" width="0.1666" height="3.3382" ry="0.0571" fill="currentColor"/>
</g>
<g transform="translate(86.5048, 16.6186)">
<rect x="-0.0833" y="-2.3382" width="0.1666" height="3.3382" ry="0.0571" fill="currentColor"/>
</g>
<g transform="translate(153.1836, 16.6186)">
<rect x="-0.0833" y="-2.0000" width="0.1666" height="3.3382" ry="0.0571" fill="currentColor"/>
</g>
<g transform="translate(89.5990, 14.6186)">
<path transform="scale(0.0040, -0.0040)" d="M208 139c69 0 117 -40 117 -99c0 -91 -107 -179 -209 -179c-69 0 -116 40 -116 99c0 91 106 179 208 179z" fill="currentColor"/>
</g>
<g transform="translate(89.6823, 16.6186)">
<rect x="-0.0833" y="-1.8382" width="0.1666" height="3.3382" ry="0.0571" fill="currentColor"/>
</g>
<g transform="translate(151.9688, 18.1186)">
<path transform="scale(0.0040, -0.0040)" d="M208 139c69 0 117 -40 117 -99c0 -91 -107 -179 -209 -179c-69 0 -116 40 -116 99c0 91 106 179 208 179z" fill="currentColor"/>
</g>
<g transform="translate(92.7765, 15.1186)">
<path transform="scale(0.0040, -0.0040)" d="M208 139c69 0 117 -40 117 -99c0 -91 -107 -179 -209 -179c-69 0 -116 40 -116 99c0 91 106 179 208 179z" fill="currentColor"/>
</g>
<g transform="translate(92.8598, 16.6186)">
<rect x="-0.0833" y="-1.3382" width="0.1666" height="3.3382" ry="0.0571" fill="currentColor"/>
</g>
<g transform="translate(95.9540, 15.6186)">
<path transform="scale(0.0040, -0.0040)" d="M208 139c69 0 117 -40 117 -99c0 -91 -107 -179 -209 -179c-69 0 -116 40 -116 99c0 91 106 179 208 179z" fill="currentColor"/>
</g>
<g transform="translate(96.0373, 16.6186)">
<rect x="-0.0833" y="-0.8382" width="0.1666" height="3.3382" ry="0.0571" fill="currentColor"/>
</g>
<g transform="translate(99.1315, 16.1186)">
<path transform="scale(0.0040, -0.0040)" d="M208 139c69 0 117 -40 117 -99c0 -91 -107 -179 -209 -179c-69 0 -116 40 -116 99c0 91 106 179 208 179z" fill="currentColor"/>
</g>
<g transform="translate(99.2148, 16.6186)">
<rect x="-0.0833" y="-0.3382" width="0.1666" height="3.3382" ry="0.0571" fill="currentColor"/>
</g>
<g transform="translate(102.3090, 16.6186)">
<path transform="scale(0.0040, -0.0040)" d="M208 139c69 0 117 -40 117 -99c0 -91 -107 -179 -209 -179c-69 0 -116 40 -116 99c0 91 106 179 208 179z" fill="currentColor"/>
</g>
<g transform="translate(102.3924, 16.6186)">
<rect x="-0.0833" y="0.1618" width="0.1666" height="3.1715" ry="0.0571" fill="currentColor"/>
</g>
<g transform="translate(150.0061, 16.6186)">
<rect x="-0.0833" y="-2.5000" width="0.1666" height="3.3382" ry="0.0571" fill="currentColor"/>
</g>
<g transform="translate(105.4614, 17.1186)">
<path transform="scale(0.0040, -0.0040)" d="M208 139c69 0 117 -40 117 -99c0 -91 -107 -179 -209 -179c-69 0 -116 40 -116 99c0 91 106 179 208 179z" fill="currentColor"/>
</g>
<g transform="translate(106.6761, 16.6186)">
<rect x="-0.0833" y="-3.0000" width="0.1666" height="3.3382" ry="0.0571" fill="currentColor"/>
</g>
<g transform="translate(148.7913, 17.6186)">
<path transform="scale(0.0040, -0.0040)" d="M208 139c69 0 117 -40 117 -99c0 -91 -107 -179 -209 -179c-69 0 -116 40 -116 99c0 91 106 179 208 179z" fill="currentColor"/>
</g>
<g transform="translate(108.6389, 17.6186)">
<path transform="scale(0.0040, -0.0040)" d="M208 139c69 0 117 -40 117 -99c0 -91 -107 -179 -209 -179c-69 0 -116 40 -116 99c0 91 106 179 208 179z" fill="currentColor"/>
</g>
<g transform="translate(109.8537, 16.6186)">
<rect x="-0.0833" y="-2.5000" width="0.1666" height="3.3382" ry="0.0571" fill="currentColor"/>
</g>
<g transform="translate(113.8387, 19.1186)">
<path transform="scale(0.0040, -0.0040)" d="M208 139c69 0 117 -40 117 -99c0 -91 -107 -179 -209 -179c-69 0 -116 40 -116 99c0 91 106 179 208 179z" fill="currentColor"/>
</g>
<g transform="translate(113.8387, 11.5545)">
<text font-family="serif" font-size="2.1998" text-anchor="start" fill="currentColor">
<tspan>D dorian</tspan>
</text>
</g>
<g transform="translate(115.0535, 16.6186)">
<rect x="-0.0833" y="-1.0000" width="0.1666" height="3.3382" ry="0.0571" fill="currentColor"/>
</g>
<g transform="translate(117.0162, 18.6186)">
<path transform="scale(0.0040, -0.0040)" d="M208 139c69 0 117 -40 117 -99c0 -91 -107 -179 -209 -179c-69 0 -116 40 -116 99c0 91 106 179 208 179z" fill="currentColor"/>
</g>
<g transform="translate(118.2310, 16.6186)">
<rect x="-0.0833" y="-1.5000" width="0.1666" height="3.3382" ry="0.0571" fill="currentColor"/>
</g>
<g transform="translate(146.8286, 16.6186)">
<rect x="-0.0833" y="-3.0000" width="0.1666" height="3.3382" ry="0.0571" fill="currentColor"/>
</g>
<g transform="translate(120.1937, 18.1186)">
<path transform="scale(0.0040, -0.0040)" d="M208 139c69 0 117 -40 117 -99c0 -91 -107 -179 -209 -179c-69 0 -116 40 -116 99c0 91 106 179 208 179z" fill="currentColor"/>
</g>
<g transform="translate(121.4085, 16.6186)">
<rect x="-0.0833" y="-2.0000" width="0.1666" height="3.3382" ry="0.0571" fill="currentColor"/>
</g>
<g transform="translate(145.6138, 17.1186)">
<path transform="scale(0.0040, -0.0040)" d="M208 139c69 0 117 -40 117 -99c0 -91 -107 -179 -209 -179c-69 0 -116 40 -116 99c0 91 106 179 208 179z" fill="currentColor"/>
</g>
<g transform="translate(123.3712, 17.6186)">
<path transform="scale(0.0040, -0.0040)" d="M208 139c69 0 117 -40 117 -99c0 -91 -107 -179 -209 -179c-69 0 -116 40 -116 99c0 91 106 179 208 179z" fill="currentColor"/>
</g>
<g transform="translate(124.5860, 16.6186)">
<rect x="-0.0833" y="-2.5000" width="0.1666" height="3.3382" ry="0.0571" fill="currentColor"/>
</g>
<g transform="translate(126.5487, 17.1186)">
<path transform="scale(0.0040, -0.0040)" d="M208 139c69 0 117 -40 117 -99c0 -91 -107 -179 -209 -179c-69 0 -116 40 -116 99c0 91 106 179 208 179z" fill="currentColor"/>
</g>
<g transform="translate(127.7635, 16.6186)">
<rect x="-0.0833" y="-3.0000" width="0.1666" height="3.3382" ry="0.0571" fill="currentColor"/>
</g>
<g transform="translate(129.7515, 16.6186)">
<path transform="scale(0.0040, -0.0040)" d="M208 139c69 0 117 -40 117 -99c0 -91 -107 -179 -209 -179c-69 0 -116 40 -116 99c0 91 106 179 208 179z" fill="currentColor"/>
</g>
<g transform="translate(129.8348, 16.6186)">
<rect x="-0.0833" y="0.1618" width="0.1666" height="3.1715" ry="0.0571" fill="currentColor"/>
</g>
<g transform="translate(132.9290, 16.1186)">
<path transform="scale(0.0040, -0.0040)" d="M208 139c69 0 117 -40 117 -99c0 -91 -107 -179 -209 -179c-69 0 -116 40 -116 99c0 91 106 179 208 179z" fill="currentColor"/>
</g>
<g transform="translate(133.0123, 16.6186)">
<rect x="-0.0833" y="-0.3382" width="0.1666" height="3.3382" ry="0.0571" fill="currentColor"/>
</g>
<g transform="translate(142.5448, 16.6186)">
<rect x="-0.0833" y="0.1618" width="0.1666" height="3.1715" ry="0.0571" fill="currentColor"/>
</g>
<g transform="translate(136.1065, 15.6186)">
<path transform="scale(0.0040, -0.0040)" d="M208 139c69 0 117 -40 117 -99c0 -91 -107 -179 -209 -179c-69 0 -116 40 -116 99c0 91 106 179 208 179z" fill="currentColor"/>
</g>
<g transform="translate(136.1898, 16.6186)">
<rect x="-0.0833" y="-0.8382" width="0.1666" height="3.3382" ry="0.0571" fill="currentColor"/>
</g>
<g transform="translate(142.4615, 16.6186)">
<path transform="scale(0.0040, -0.0040)" d="M208 139c69 0 117 -40 117 -99c0 -91 -107 -179 -209 -179c-69 0 -116 40 -116 99c0 91 106 179 208 179z" fill="currentColor"/>
</g>
<g transform="translate(139.2840, 16.1186)">
<path transform="scale(0.0040, -0.0040)" d="M208 139c69 0 117 -40 117 -99c0 -91 -107 -179 -209 -179c-69 0 -116 40 -116 99c0 91 106 179 208 179z" fill="currentColor"/>
</g>
<g transform="translate(139.3673, 16.6186)">
<rect x="-0.0833" y="-0.3382" width="0.1666" height="3.3382" ry="0.0571" fill="currentColor"/>
</g>
<g transform="translate(8.1294, 29.7297)">
<rect x="131.3553" y="-0.1141" width="1.9471" height="0.2282" ry="0.1141" fill="currentColor"/>
</g>
<g transform="translate(8.1294, 29.7297)">
<rect x="128.2070" y="-0.1141" width="1.9471" height="0.2282" ry="0.1141" fill="currentColor"/>
</g>
<g transform="translate(8.1294, 29.7297)">
<rect x="125.0587" y="-0.1141" width="1.9471" height="0.2282" ry="0.1141" fill="currentColor"/>
</g>
<g transform="translate(8.1294, 29.7297)">
<rect x="27.8905" y="-0.1141" width="1.9471" height="0.2282" ry="0.1141" fill="currentColor"/>
</g>
<g transform="translate(8.1294, 34.7297)">
<line stroke-linejoin="round" stroke-linecap="round" stroke-width="0.1282" stroke="currentColor" x1="0.0641" y1="0" x2="154.3937" y2="0"/>
</g>
<g transform="translate(8.1294, 33.7297)">
<line stroke-linejoin="round" stroke-linecap="round" stroke-width="0.1282" stroke="currentColor" x1="0.0641" y1="0" x2="154.3937" y2="0"/>
</g>
<g transform="translate(8.1294, 32.7297)">
<line stroke-linejoin="round" stroke-linecap="round" stroke-width="0.1282" stroke="currentColor" x1="0.0641" y1="0" x2="154.3937" y2="0"/>
</g>
<g transform="translate(8.1294, 31.7297)">
<line stroke-linejoin="round" stroke-linecap="round" stroke-width="0.1282" stroke="currentColor" x1="0.0641" y1="0" x2="154.3937" y2="0"/>
</g>
<g transform="translate(8.1294, 30.7297)">
<line stroke-linejoin="round" stroke-linecap="round" stroke-width="0.1282" stroke="currentColor" x1="0.0641" y1="0" x2="154.3937" y2="0"/>
</g>
<g transform="translate(162.3437, 32.7297)">
<rect x="0.0000" y="-2.0000" width="0.2435" height="4.0000" ry="0.0000" fill="currentColor"/>
</g>
<g transform="translate(161.7157, 32.7297)">
<rect x="0.0000" y="-2.0000" width="0.2435" height="4.0000" ry="0.0000" fill="currentColor"/>
</g>
<g transform="translate(112.2783, 32.7297)">
<rect x="0.0000" y="-2.0000" width="0.2435" height="4.0000" ry="0.0000" fill="currentColor"/>
</g>
<g transform="translate(111.6503, 32.7297)">
<rect x="0.0000" y="-2.0000" width="0.2435" height="4.0000" ry="0.0000" fill="currentColor"/>
</g>
<g transform="translate(62.3002, 32.7297)">
<rect x="0.0000" y="-2.0000" width="0.2435" height="4.0000" ry="0.0000" fill="currentColor"/>
</g>
<g transform="translate(61.6722, 32.7297)">
<rect x="0.0000" y="-2.0000" width="0.2435" height="4.0000" ry="0.0000" fill="currentColor"/>
</g>
<g transform="translate(8.9294, 33.7297)">
<path transform="scale(0.0040, -0.0040)" d="M648 2c0 -114 -74 -214 -179 -248c2 -32 3 -65 3 -97c0 -21 -1 -43 -2 -64c-7 -123 -92 -230 -211 -230c-108 0 -197 88 -197 197c0 58 54 104 113 104c54 0 95 -48 95 -104c0 -52 -43 -95 -95 -95c-8 0 -16 2 -24 4c25 -35 65 -59 111 -59c93 0 155 90 161 190
c1 20 2 39 2 59c0 28 -1 55 -3 83c-5 -1 -43 -7 -87 -7c-194 0 -333 181 -333 377c0 176 128 307 242 443c-36 105 -58 171 -58 348c0 113 54 219 146 286c8 6 21 7 29 0c69 -78 136 -242 136 -357c0 -141 -83 -253 -174 -362c22 -67 41 -135 58 -204h9
c157 0 258 -130 258 -264zM464 -200c62 24 108 86 108 159c0 87 -62 173 -163 187c28 -132 47 -265 55 -346zM338 -218c1 0 46 0 80 6c-7 68 -26 209 -58 359c-79 -7 -123 -59 -123 -116c0 -43 24 -89 78 -120c5 -5 8 -11 8 -17c0 -13 -11 -24 -24 -24
c-17 0 -129 63 -129 189c0 90 60 178 164 201c-14 56 -30 112 -47 167c-104 -122 -208 -245 -208 -404c0 -143 140 -241 259 -241zM239 782c0 -43 15 -102 41 -183c77 97 140 199 140 323c0 58 -8 83 -19 113c-99 -45 -162 -145 -162 -253z" fill="currentColor"/>
</g>
<g transform="translate(13.9294, 33.2297)">
<path transform="scale(0.0040, -0.0040)" d="M208 139c69 0 117 -40 117 -99c0 -91 -107 -179 -209 -179c-69 0 -116 40 -116 99c0 91 106 179 208 179z" fill="currentColor"/>
</g>
<g transform="translate(13.9294, 27.6656)">
<text font-family="serif" font-size="2.1998" text-anchor="start" fill="currentColor">
<tspan>A dorian</tspan>
</text>
</g>
<g transform="translate(15.1441, 32.7297)">
<rect x="-0.0833" y="-3.0000" width="0.1666" height="3.3382" ry="0.0571" fill="currentColor"/>
</g>
<g transform="translate(17.1028, 32.7297)">
<path transform="scale(0.0040, -0.0040)" d="M208 139c69 0 117 -40 117 -99c0 -91 -107 -179 -209 -179c-69 0 -116 40 -116 99c0 91 106 179 208 179z" fill="currentColor"/>
</g>
<g transform="translate(17.1861, 32.7297)">
<rect x="-0.0833" y="0.1618" width="0.1666" height="3.1715" ry="0.0571" fill="currentColor"/>
</g>
<g transform="translate(20.2511, 32.2297)">
<path transform="scale(0.0040, -0.0040)" d="M208 139c69 0 117 -40 117 -99c0 -91 -107 -179 -209 -179c-69 0 -116 40 -116 99c0 91 106 179 208 179z" fill="currentColor"/>
</g>
<g transform="translate(20.3344, 32.7297)">
<rect x="-0.0833" y="-0.3382" width="0.1666" height="3.3382" ry="0.0571" fill="currentColor"/>
</g>
<g transform="translate(23.3993, 31.7297)">
<path transform="scale(0.0040, -0.0040)" d="M208 139c69 0 117 -40 117 -99c0 -91 -107 -179 -209 -179c-69 0 -116 40 -116 99c0 91 106 179 208 179z" fill="currentColor"/>
</g>
<g transform="translate(23.4826, 32.7297)">
<rect x="-0.0833" y="-0.8382" width="0.1666" height="3.3382" ry="0.0571" fill="currentColor"/>
</g>
<g transform="translate(26.5476, 31.2297)">
<path transform="scale(0.0040, -0.0040)" d="M208 139c69 0 117 -40 117 -99c0 -91 -107 -179 -209 -179c-69 0 -116 40 -116 99c0 91 106 179 208 179z" fill="currentColor"/>
</g>
<g transform="translate(26.6309, 32.7297)">
<rect x="-0.0833" y="-1.3382" width="0.1666" height="3.3382" ry="0.0571" fill="currentColor"/>
</g>
<g transform="translate(30.0478, 30.7297)">
<path transform="scale(0.0040, -0.0040)" d="M208 139c69 0 117 -40 117 -99c0 -91 -107 -179 -209 -179c-69 0 -116 40 -116 99c0 91 106 179 208 179z" fill="currentColor"/>
</g>
<g transform="translate(30.1311, 32.7297)">
<rect x="-0.0833" y="-1.8382" width="0.1666" height="3.3382" ry="0.0571" fill="currentColor"/>
</g>
<g transform="translate(28.5978, 30.7297)">
<path transform="scale(0.0040, -0.0040)" d="M0 114c0 12 7 22 18 26l37 15v151c0 12 10 22 22 22s22 -10 22 -22v-134l77 29v152c0 12 10 22 22 22s22 -10 22 -22v-134l16 6c3 1 8 2 11 2c15 0 28 -12 28 -28v-50c0 -12 -7 -23 -18 -27l-37 -14v-152l16 7c3 1 8 2 11 2c15 0 28 -13 28 -29v-50c0 -12 -7 -22 -18 -26
l-37 -15v-151c0 -12 -10 -22 -22 -22s-22 10 -22 22v134l-77 -29v-152c0 -12 -10 -22 -22 -22s-22 10 -22 22v134l-16 -6c-3 -1 -8 -2 -11 -2c-15 0 -28 12 -28 28v50c0 12 7 23 18 27l37 14v152l-16 -7c-3 -1 -8 -2 -11 -2c-15 0 -28 13 -28 29v50zM176 91l-77 -30v-152
l77 30v152z" fill="currentColor"/>
</g>
<g transform="translate(33.1961, 30.2297)">
<path transform="scale(0.0040, -0.0040)" d="M208 139c69 0 117 -40 117 -99c0 -91 -107 -179 -209 -179c-69 0 -116 40 -116 99c0 91 106 179 208 179z" fill="currentColor"/>
</g>
<g transform="translate(33.2794, 32.7297)">
<rect x="-0.0833" y="-2.3382" width="0.1666" height="3.3382" ry="0.0571" fill="currentColor"/>
</g>
<g transform="translate(36.3443, 29.7297)">
<path transform="scale(0.0040, -0.0040)" d="M208 139c69 0 117 -40 117 -99c0 -91 -107 -179 -209 -179c-69 0 -116 40 -116 99c0 91 106 179 208 179z" fill="currentColor"/>
</g>
<g transform="translate(36.4276, 32.7297)">
<rect x="-0.0833" y="-2.8382" width="0.1666" height="3.3382" ry="0.0571" fill="currentColor"/>
</g>
<g transform="translate(39.4926, 30.2297)">
<path transform="scale(0.0040, -0.0040)" d="M208 139c69 0 117 -40 117 -99c0 -91 -107 -179 -209 -179c-69 0 -116 40 -116 99c0 91 106 179 208 179z" fill="currentColor"/>
</g>
<g transform="translate(39.5759, 32.7297)">
<rect x="-0.0833" y="-2.3382" width="0.1666" height="3.3382" ry="0.0571" fill="currentColor"/>
</g>
<g transform="translate(42.6409, 30.7297)">
<path transform="scale(0.0040, -0.0040)" d="M208 139c69 0 117 -40 117 -99c0 -91 -107 -179 -209 -179c-69 0 -116 40 -116 99c0 91 106 179 208 179z" fill="currentColor"/>
</g>
<g transform="translate(42.7242, 32.7297)">
<rect x="-0.0833" y="-1.8382" width="0.1666" height="3.3382" ry="0.0571" fill="currentColor"/>
</g>
<g transform="translate(45.7891, 31.2297)">
<path transform="scale(0.0040, -0.0040)" d="M208 139c69 0 117 -40 117 -99c0 -91 -107 -179 -209 -179c-69 0 -116 40 -116 99c0 91 106 179 208 179z" fill="currentColor"/>
</g>
<g transform="translate(45.8724, 32.7297)">
<rect x="-0.0833" y="-1.3382" width="0.1666" height="3.3382" ry="0.0571" fill="currentColor"/>
</g>
<g transform="translate(48.9374, 31.7297)">
<path transform="scale(0.0040, -0.0040)" d="M208 139c69 0 117 -40 117 -99c0 -91 -107 -179 -209 -179c-69 0 -116 40 -116 99c0 91 106 179 208 179z" fill="currentColor"/>
</g>
<g transform="translate(49.0207, 32.7297)">
<rect x="-0.0833" y="-0.8382" width="0.1666" height="3.3382" ry="0.0571" fill="currentColor"/>
</g>
<g transform="translate(52.0856, 32.2297)">
<path transform="scale(0.0040, -0.0040)" d="M208 139c69 0 117 -40 117 -99c0 -91 -107 -179 -209 -179c-69 0 -116 40 -116 99c0 91 106 179 208 179z" fill="currentColor"/>
</g>
<g transform="translate(52.1689, 32.7297)">
<rect x="-0.0833" y="-0.3382" width="0.1666" height="3.3382" ry="0.0571" fill="currentColor"/>
</g>
<g transform="translate(158.7820, 32.7297)">
<rect x="-0.0833" y="0.1618" width="0.1666" height="3.1715" ry="0.0571" fill="currentColor"/>
</g>
<g transform="translate(55.2339, 32.7297)">
<path transform="scale(0.0040, -0.0040)" d="M208 139c69 0 117 -40 117 -99c0 -91 -107 -179 -209 -179c-69 0 -116 40 -116 99c0 91 106 179 208 179z" fill="currentColor"/>
</g>
<g transform="translate(55.3172, 32.7297)">
<rect x="-0.0833" y="0.1618" width="0.1666" height="3.1715" ry="0.0571" fill="currentColor"/>
</g>
<g transform="translate(58.3570, 33.2297)">
<path transform="scale(0.0040, -0.0040)" d="M208 139c69 0 117 -40 117 -99c0 -91 -107 -179 -209 -179c-69 0 -116 40 -116 99c0 91 106 179 208 179z" fill="currentColor"/>
</g>
<g transform="translate(59.5717, 32.7297)">
<rect x="-0.0833" y="-3.0000" width="0.1666" height="3.3382" ry="0.0571" fill="currentColor"/>
</g>
<g transform="translate(158.6987, 32.7297)">
<path transform="scale(0.0040, -0.0040)" d="M208 139c69 0 117 -40 117 -99c0 -91 -107 -179 -209 -179c-69 0 -116 40 -116 99c0 91 106 179 208 179z" fill="currentColor"/>
</g>
<g transform="translate(63.4841, 34.7297)">
<path transform="scale(0.0040, -0.0040)" d="M208 139c69 0 117 -40 117 -99c0 -91 -107 -179 -209 -179c-69 0 -116 40 -116 99c0 91 106 179 208 179z" fill="currentColor"/>
</g>
<g transform="translate(63.4841, 27.6656)">
<text font-family="serif" font-size="2.1998" text-anchor="start" fill="currentColor">
<tspan>E dorian</tspan>
</text>
</g>
<g transform="translate(64.6988, 32.7297)">
<rect x="-0.0833" y="-1.5000" width="0.1666" height="3.3382" ry="0.0571" fill="currentColor"/>
</g>
<g transform="translate(66.9843, 34.2297)">
<path transform="scale(0.0040, -0.0040)" d="M208 139c69 0 117 -40 117 -99c0 -91 -107 -179 -209 -179c-69 0 -116 40 -116 99c0 91 106 179 208 179z" fill="currentColor"/>
</g>
<g transform="translate(68.1991, 32.7297)">
<rect x="-0.0833" y="-2.0000" width="0.1666" height="3.3382" ry="0.0571" fill="currentColor"/>
</g>
<g transform="translate(65.5343, 34.2297)">
<path transform="scale(0.0040, -0.0040)" d="M0 114c0 12 7 22 18 26l37 15v151c0 12 10 22 22 22s22 -10 22 -22v-134l77 29v152c0 12 10 22 22 22s22 -10 22 -22v-134l16 6c3 1 8 2 11 2c15 0 28 -12 28 -28v-50c0 -12 -7 -23 -18 -27l-37 -14v-152l16 7c3 1 8 2 11 2c15 0 28 -13 28 -29v-50c0 -12 -7 -22 -18 -26
l-37 -15v-151c0 -12 -10 -22 -22 -22s-22 10 -22 22v134l-77 -29v-152c0 -12 -10 -22 -22 -22s-22 10 -22 22v134l-16 -6c-3 -1 -8 -2 -11 -2c-15 0 -28 12 -28 28v50c0 12 7 23 18 27l37 14v152l-16 -7c-3 -1 -8 -2 -11 -2c-15 0 -28 13 -28 29v50zM176 91l-77 -30v-152
l77 30v152z" fill="currentColor"/>
</g>
<g transform="translate(70.1325, 33.7297)">
<path transform="scale(0.0040, -0.0040)" d="M208 139c69 0 117 -40 117 -99c0 -91 -107 -179 -209 -179c-69 0 -116 40 -116 99c0 91 106 179 208 179z" fill="currentColor"/>
</g>
<g transform="translate(71.3473, 32.7297)">
<rect x="-0.0833" y="-2.5000" width="0.1666" height="3.3382" ry="0.0571" fill="currentColor"/>
</g>
<g transform="translate(155.6338, 32.7297)">
<rect x="-0.0833" y="-0.3382" width="0.1666" height="3.3382" ry="0.0571" fill="currentColor"/>
</g>
<g transform="translate(73.2808, 33.2297)">
<path transform="scale(0.0040, -0.0040)" d="M208 139c69 0 117 -40 117 -99c0 -91 -107 -179 -209 -179c-69 0 -116 40 -116 99c0 91 106 179 208 179z" fill="currentColor"/>
</g>
<g transform="translate(74.4956, 32.7297)">
<rect x="-0.0833" y="-3.0000" width="0.1666" height="3.3382" ry="0.0571" fill="currentColor"/>
</g>
<g transform="translate(155.5504, 32.2297)">
<path transform="scale(0.0040, -0.0040)" d="M208 139c69 0 117 -40 117 -99c0 -91 -107 -179 -209 -179c-69 0 -116 40 -116 99c0 91 106 179 208 179z" fill="currentColor"/>
</g>
<g transform="translate(76.4543, 32.7297)">
<path transform="scale(0.0040, -0.0040)" d="M208 139c69 0 117 -40 117 -99c0 -91 -107 -179 -209 -179c-69 0 -116 40 -116 99c0 91 106 179 208 179z" fill="currentColor"/>
</g>
<g transform="translate(76.5376, 32.7297)">
<rect x="-0.0833" y="0.1618" width="0.1666" height="3.1715" ry="0.0571" fill="currentColor"/>
</g>
<g transform="translate(79.9545, 32.2297)">
<path transform="scale(0.0040, -0.0040)" d="M208 139c69 0 117 -40 117 -99c0 -91 -107 -179 -209 -179c-69 0 -116 40 -116 99c0 91 106 179 208 179z" fill="currentColor"/>
</g>
<g transform="translate(80.0378, 32.7297)">
<rect x="-0.0833" y="-0.3382" width="0.1666" height="3.3382" ry="0.0571" fill="currentColor"/>
</g>
<g transform="translate(78.5045, 32.2297)">
<path transform="scale(0.0040, -0.0040)" d="M0 114c0 12 7 22 18 26l37 15v151c0 12 10 22 22 22s22 -10 22 -22v-134l77 29v152c0 12 10 22 22 22s22 -10 22 -22v-134l16 6c3 1 8 2 11 2c15 0 28 -12 28 -28v-50c0 -12 -7 -23 -18 -27l-37 -14v-152l16 7c3 1 8 2 11 2c15 0 28 -13 28 -29v-50c0 -12 -7 -22 -18 -26
l-37 -15v-151c0 -12 -10 -22 -22 -22s-22 10 -22 22v134l-77 -29v-152c0 -12 -10 -22 -22 -22s-22 10 -22 22v134l-16 -6c-3 -1 -8 -2 -11 -2c-15 0 -28 12 -28 28v50c0 12 7 23 18 27l37 14v152l-16 -7c-3 -1 -8 -2 -11 -2c-15 0 -28 13 -28 29v50zM176 91l-77 -30v-152
l77 30v152z" fill="currentColor"/>
</g>
<g transform="translate(83.1027, 31.7297)">
<path transform="scale(0.0040, -0.0040)" d="M208 139c69 0 117 -40 117 -99c0 -91 -107 -179 -209 -179c-69 0 -116 40 -116 99c0 91 106 179 208 179z" fill="currentColor"/>
</g>
<g transform="translate(83.1860, 32.7297)">
<rect x="-0.0833" y="-0.8382" width="0.1666" height="3.3382" ry="0.0571" fill="currentColor"/>
</g>
<g transform="translate(86.2510, 31.2297)">
<path transform="scale(0.0040, -0.0040)" d="M208 139c69 0 117 -40 117 -99c0 -91 -107 -179 -209 -179c-69 0 -116 40 -116 99c0 91 106 179 208 179z" fill="currentColor"/>
</g>
<g transform="translate(86.3343, 32.7297)">
<rect x="-0.0833" y="-1.3382" width="0.1666" height="3.3382" ry="0.0571" fill="currentColor"/>
</g>
<g transform="translate(152.4855, 32.7297)">
<rect x="-0.0833" y="-0.8382" width="0.1666" height="3.3382" ry="0.0571" fill="currentColor"/>
</g>
<g transform="translate(89.3993, 31.7297)">
<path transform="scale(0.0040, -0.0040)" d="M208 139c69 0 117 -40 117 -99c0 -91 -107 -179 -209 -179c-69 0 -116 40 -116 99c0 91 106 179 208 179z" fill="currentColor"/>
</g>
<g transform="translate(89.4826, 32.7297)">
<rect x="-0.0833" y="-0.8382" width="0.1666" height="3.3382" ry="0.0571" fill="currentColor"/>
</g>
<g transform="translate(152.4022, 31.7297)">
<path transform="scale(0.0040, -0.0040)" d="M208 139c69 0 117 -40 117 -99c0 -91 -107 -179 -209 -179c-69 0 -116 40 -116 99c0 91 106 179 208 179z" fill="currentColor"/>
</g>
<g transform="translate(92.5475, 32.2297)">
<path transform="scale(0.0040, -0.0040)" d="M208 139c69 0 117 -40 117 -99c0 -91 -107 -179 -209 -179c-69 0 -116 40 -116 99c0 91 106 179 208 179z" fill="currentColor"/>
</g>
<g transform="translate(92.6308, 32.7297)">
<rect x="-0.0833" y="-0.3382" width="0.1666" height="3.3382" ry="0.0571" fill="currentColor"/>
</g>
<g transform="translate(95.6958, 32.7297)">
<path transform="scale(0.0040, -0.0040)" d="M208 139c69 0 117 -40 117 -99c0 -91 -107 -179 -209 -179c-69 0 -116 40 -116 99c0 91 106 179 208 179z" fill="currentColor"/>
</g>
<g transform="translate(95.7791, 32.7297)">
<rect x="-0.0833" y="0.1618" width="0.1666" height="3.1715" ry="0.0571" fill="currentColor"/>
</g>
<g transform="translate(98.8188, 33.2297)">
<path transform="scale(0.0040, -0.0040)" d="M208 139c69 0 117 -40 117 -99c0 -91 -107 -179 -209 -179c-69 0 -116 40 -116 99c0 91 106 179 208 179z" fill="currentColor"/>
</g>
<g transform="translate(100.0336, 32.7297)">
<rect x="-0.0833" y="-3.0000" width="0.1666" height="3.3382" ry="0.0571" fill="currentColor"/>
</g>
<g transform="translate(101.9671, 33.7297)">
<path transform="scale(0.0040, -0.0040)" d="M208 139c69 0 117 -40 117 -99c0 -91 -107 -179 -209 -179c-69 0 -116 40 -116 99c0 91 106 179 208 179z" fill="currentColor"/>
</g>
<g transform="translate(103.1819, 32.7297)">
<rect x="-0.0833" y="-2.5000" width="0.1666" height="3.3382" ry="0.0571" fill="currentColor"/>
</g>
<g transform="translate(149.3372, 32.7297)">
<rect x="-0.0833" y="-1.3382" width="0.1666" height="3.3382" ry="0.0571" fill="currentColor"/>
</g>
<g transform="translate(105.1154, 34.2297)">
<path transform="scale(0.0040, -0.0040)" d="M208 139c69 0 117 -40 117 -99c0 -91 -107 -179 -209 -179c-69 0 -116 40 -116 99c0 91 106 179 208 179z" fill="currentColor"/>
</g>
<g transform="translate(106.3301, 32.7297)">
<rect x="-0.0833" y="-2.0000" width="0.1666" height="3.3382" ry="0.0571" fill="currentColor"/>
</g>
<g transform="translate(149.2539, 31.2297)">
<path transform="scale(0.0040, -0.0040)" d="M208 139c69 0 117 -40 117 -99c0 -91 -107 -179 -209 -179c-69 0 -116 40 -116 99c0 91 106 179 208 179z" fill="currentColor"/>
</g>
<g transform="translate(108.2636, 34.7297)">
<path transform="scale(0.0040, -0.0040)" d="M208 139c69 0 117 -40 117 -99c0 -91 -107 -179 -209 -179c-69 0 -116 40 -116 99c0 91 106 179 208 179z" fill="currentColor"/>
</g>
<g transform="translate(109.4784, 32.7297)">
<rect x="-0.0833" y="-1.5000" width="0.1666" height="3.3382" ry="0.0571" fill="currentColor"/>
</g>
<g transform="translate(113.5672, 32.7297)">
<path transform="scale(0.0040, -0.0040)" d="M208 139c69 0 117 -40 117 -99c0 -91 -107 -179 -209 -179c-69 0 -116 40 -116 99c0 91 106 179 208 179z" fill="currentColor"/>
</g>
<g transform="translate(113.5672, 27.6656)">
<text font-family="serif" font-size="2.1998" text-anchor="start" fill="currentColor">
<tspan>B dorian</tspan>
</text>
</g>
<g transform="translate(113.6505, 32.7297)">
<rect x="-0.0833" y="0.1618" width="0.1666" height="3.1715" ry="0.0571" fill="currentColor"/>
</g>
<g transform="translate(117.0674, 32.2297)">
<path transform="scale(0.0040, -0.0040)" d="M208 139c69 0 117 -40 117 -99c0 -91 -107 -179 -209 -179c-69 0 -116 40 -116 99c0 91 106 179 208 179z" fill="currentColor"/>
</g>
<g transform="translate(117.1507, 32.7297)">
<rect x="-0.0833" y="-0.3382" width="0.1666" height="3.3382" ry="0.0571" fill="currentColor"/>
</g>
<g transform="translate(115.6174, 32.2297)">
<path transform="scale(0.0040, -0.0040)" d="M0 114c0 12 7 22 18 26l37 15v151c0 12 10 22 22 22s22 -10 22 -22v-134l77 29v152c0 12 10 22 22 22s22 -10 22 -22v-134l16 6c3 1 8 2 11 2c15 0 28 -12 28 -28v-50c0 -12 -7 -23 -18 -27l-37 -14v-152l16 7c3 1 8 2 11 2c15 0 28 -13 28 -29v-50c0 -12 -7 -22 -18 -26
l-37 -15v-151c0 -12 -10 -22 -22 -22s-22 10 -22 22v134l-77 -29v-152c0 -12 -10 -22 -22 -22s-22 10 -22 22v134l-16 -6c-3 -1 -8 -2 -11 -2c-15 0 -28 12 -28 28v50c0 12 7 23 18 27l37 14v152l-16 -7c-3 -1 -8 -2 -11 -2c-15 0 -28 13 -28 29v50zM176 91l-77 -30v-152
l77 30v152z" fill="currentColor"/>
</g>
<g transform="translate(146.1890, 32.7297)">
<rect x="-0.0833" y="-1.8382" width="0.1666" height="3.3382" ry="0.0571" fill="currentColor"/>
</g>
<g transform="translate(120.2157, 31.7297)">
<path transform="scale(0.0040, -0.0040)" d="M208 139c69 0 117 -40 117 -99c0 -91 -107 -179 -209 -179c-69 0 -116 40 -116 99c0 91 106 179 208 179z" fill="currentColor"/>
</g>
<g transform="translate(120.2990, 32.7297)">
<rect x="-0.0833" y="-0.8382" width="0.1666" height="3.3382" ry="0.0571" fill="currentColor"/>
</g>
<g transform="translate(146.1057, 30.7297)">
<path transform="scale(0.0040, -0.0040)" d="M208 139c69 0 117 -40 117 -99c0 -91 -107 -179 -209 -179c-69 0 -116 40 -116 99c0 91 106 179 208 179z" fill="currentColor"/>
</g>
<g transform="translate(123.3639, 31.2297)">
<path transform="scale(0.0040, -0.0040)" d="M208 139c69 0 117 -40 117 -99c0 -91 -107 -179 -209 -179c-69 0 -116 40 -116 99c0 91 106 179 208 179z" fill="currentColor"/>
</g>
<g transform="translate(123.4472, 32.7297)">
<rect x="-0.0833" y="-1.3382" width="0.1666" height="3.3382" ry="0.0571" fill="currentColor"/>
</g>
<g transform="translate(126.8641, 30.7297)">
<path transform="scale(0.0040, -0.0040)" d="M208 139c69 0 117 -40 117 -99c0 -91 -107 -179 -209 -179c-69 0 -116 40 -116 99c0 91 106 179 208 179z" fill="currentColor"/>
</g>
<g transform="translate(126.9474, 32.7297)">
<rect x="-0.0833" y="-1.8382" width="0.1666" height="3.3382" ry="0.0571" fill="currentColor"/>
</g>
<g transform="translate(125.4141, 30.7297)">
<path transform="scale(0.0040, -0.0040)" d="M0 114c0 12 7 22 18 26l37 15v151c0 12 10 22 22 22s22 -10 22 -22v-134l77 29v152c0 12 10 22 22 22s22 -10 22 -22v-134l16 6c3 1 8 2 11 2c15 0 28 -12 28 -28v-50c0 -12 -7 -23 -18 -27l-37 -14v-152l16 7c3 1 8 2 11 2c15 0 28 -13 28 -29v-50c0 -12 -7 -22 -18 -26
l-37 -15v-151c0 -12 -10 -22 -22 -22s-22 10 -22 22v134l-77 -29v-152c0 -12 -10 -22 -22 -22s-22 10 -22 22v134l-16 -6c-3 -1 -8 -2 -11 -2c-15 0 -28 12 -28 28v50c0 12 7 23 18 27l37 14v152l-16 -7c-3 -1 -8 -2 -11 -2c-15 0 -28 13 -28 29v50zM176 91l-77 -30v-152
l77 30v152z" fill="currentColor"/>
</g>
<g transform="translate(130.3644, 30.2297)">
<path transform="scale(0.0040, -0.0040)" d="M208 139c69 0 117 -40 117 -99c0 -91 -107 -179 -209 -179c-69 0 -116 40 -116 99c0 91 106 179 208 179z" fill="currentColor"/>
</g>
<g transform="translate(130.4477, 32.7297)">
<rect x="-0.0833" y="-2.3382" width="0.1666" height="3.3382" ry="0.0571" fill="currentColor"/>
</g>
<g transform="translate(128.9144, 30.2297)">
<path transform="scale(0.0040, -0.0040)" d="M0 114c0 12 7 22 18 26l37 15v151c0 12 10 22 22 22s22 -10 22 -22v-134l77 29v152c0 12 10 22 22 22s22 -10 22 -22v-134l16 6c3 1 8 2 11 2c15 0 28 -12 28 -28v-50c0 -12 -7 -23 -18 -27l-37 -14v-152l16 7c3 1 8 2 11 2c15 0 28 -13 28 -29v-50c0 -12 -7 -22 -18 -26
l-37 -15v-151c0 -12 -10 -22 -22 -22s-22 10 -22 22v134l-77 -29v-152c0 -12 -10 -22 -22 -22s-22 10 -22 22v134l-16 -6c-3 -1 -8 -2 -11 -2c-15 0 -28 12 -28 28v50c0 12 7 23 18 27l37 14v152l-16 -7c-3 -1 -8 -2 -11 -2c-15 0 -28 13 -28 29v50zM176 91l-77 -30v-152
l77 30v152z" fill="currentColor"/>
</g>
<g transform="translate(133.5126, 29.7297)">
<path transform="scale(0.0040, -0.0040)" d="M208 139c69 0 117 -40 117 -99c0 -91 -107 -179 -209 -179c-69 0 -116 40 -116 99c0 91 106 179 208 179z" fill="currentColor"/>
</g>
<g transform="translate(133.5959, 32.7297)">
<rect x="-0.0833" y="-2.8382" width="0.1666" height="3.3382" ry="0.0571" fill="currentColor"/>
</g>
<g transform="translate(143.0407, 32.7297)">
<rect x="-0.0833" y="-2.3382" width="0.1666" height="3.3382" ry="0.0571" fill="currentColor"/>
</g>
<g transform="translate(136.6609, 29.2297)">
<path transform="scale(0.0040, -0.0040)" d="M208 139c69 0 117 -40 117 -99c0 -91 -107 -179 -209 -179c-69 0 -116 40 -116 99c0 91 106 179 208 179z" fill="currentColor"/>
</g>
<g transform="translate(136.7442, 32.7297)">
<rect x="-0.0833" y="-3.3382" width="0.1666" height="3.3382" ry="0.0571" fill="currentColor"/>
</g>
<g transform="translate(142.9574, 30.2297)">
<path transform="scale(0.0040, -0.0040)" d="M208 139c69 0 117 -40 117 -99c0 -91 -107 -179 -209 -179c-69 0 -116 40 -116 99c0 91 106 179 208 179z" fill="currentColor"/>
</g>
<g transform="translate(139.8091, 29.7297)">
<path transform="scale(0.0040, -0.0040)" d="M208 139c69 0 117 -40 117 -99c0 -91 -107 -179 -209 -179c-69 0 -116 40 -116 99c0 91 106 179 208 179z" fill="currentColor"/>
</g>
<g transform="translate(139.8924, 32.7297)">
<rect x="-0.0833" y="-2.8382" width="0.1666" height="3.3382" ry="0.0571" fill="currentColor"/>
</g>
<g transform="translate(8.1294, 45.6170)">
<rect x="81.1882" y="-0.1141" width="1.9471" height="0.2282" ry="0.1141" fill="currentColor"/>
</g>
<g transform="translate(8.1294, 45.6170)">
<rect x="78.2392" y="-0.1141" width="1.7976" height="0.2282" ry="0.1141" fill="currentColor"/>
</g>
<g transform="translate(8.1294, 45.6170)">
<rect x="74.9360" y="-0.1141" width="1.7976" height="0.2282" ry="0.1141" fill="currentColor"/>
</g>
<g transform="translate(8.1294, 50.6170)">
<line stroke-linejoin="round" stroke-linecap="round" stroke-width="0.1282" stroke="currentColor" x1="0.0641" y1="0" x2="154.3937" y2="0"/>
</g>
<g transform="translate(8.1294, 49.6170)">
<line stroke-linejoin="round" stroke-linecap="round" stroke-width="0.1282" stroke="currentColor" x1="0.0641" y1="0" x2="154.3937" y2="0"/>
</g>
<g transform="translate(8.1294, 48.6170)">
<line stroke-linejoin="round" stroke-linecap="round" stroke-width="0.1282" stroke="currentColor" x1="0.0641" y1="0" x2="154.3937" y2="0"/>
</g>
<g transform="translate(8.1294, 47.6170)">
<line stroke-linejoin="round" stroke-linecap="round" stroke-width="0.1282" stroke="currentColor" x1="0.0641" y1="0" x2="154.3937" y2="0"/>
</g>
<g transform="translate(8.1294, 46.6170)">
<line stroke-linejoin="round" stroke-linecap="round" stroke-width="0.1282" stroke="currentColor" x1="0.0641" y1="0" x2="154.3937" y2="0"/>
</g>
<g transform="translate(162.3437, 48.6170)">
<rect x="0.0000" y="-2.0000" width="0.2435" height="4.0000" ry="0.0000" fill="currentColor"/>
</g>
<g transform="translate(161.7157, 48.6170)">
<rect x="0.0000" y="-2.0000" width="0.2435" height="4.0000" ry="0.0000" fill="currentColor"/>
</g>
<g transform="translate(111.8283, 48.6170)">
<rect x="0.0000" y="-2.0000" width="0.2435" height="4.0000" ry="0.0000" fill="currentColor"/>
</g>
<g transform="translate(111.2003, 48.6170)">
<rect x="0.0000" y="-2.0000" width="0.2435" height="4.0000" ry="0.0000" fill="currentColor"/>
</g>
<g transform="translate(61.8621, 48.6170)">
<rect x="0.0000" y="-2.0000" width="0.2435" height="4.0000" ry="0.0000" fill="currentColor"/>
</g>
<g transform="translate(61.2341, 48.6170)">
<rect x="0.0000" y="-2.0000" width="0.2435" height="4.0000" ry="0.0000" fill="currentColor"/>
</g>
<g transform="translate(8.9294, 49.6170)">
<path transform="scale(0.0040, -0.0040)" d="M648 2c0 -114 -74 -214 -179 -248c2 -32 3 -65 3 -97c0 -21 -1 -43 -2 -64c-7 -123 -92 -230 -211 -230c-108 0 -197 88 -197 197c0 58 54 104 113 104c54 0 95 -48 95 -104c0 -52 -43 -95 -95 -95c-8 0 -16 2 -24 4c25 -35 65 -59 111 -59c93 0 155 90 161 190
c1 20 2 39 2 59c0 28 -1 55 -3 83c-5 -1 -43 -7 -87 -7c-194 0 -333 181 -333 377c0 176 128 307 242 443c-36 105 -58 171 -58 348c0 113 54 219 146 286c8 6 21 7 29 0c69 -78 136 -242 136 -357c0 -141 -83 -253 -174 -362c22 -67 41 -135 58 -204h9
c157 0 258 -130 258 -264zM464 -200c62 24 108 86 108 159c0 87 -62 173 -163 187c28 -132 47 -265 55 -346zM338 -218c1 0 46 0 80 6c-7 68 -26 209 -58 359c-79 -7 -123 -59 -123 -116c0 -43 24 -89 78 -120c5 -5 8 -11 8 -17c0 -13 -11 -24 -24 -24
c-17 0 -129 63 -129 189c0 90 60 178 164 201c-14 56 -30 112 -47 167c-104 -122 -208 -245 -208 -404c0 -143 140 -241 259 -241zM239 782c0 -43 15 -102 41 -183c77 97 140 199 140 323c0 58 -8 83 -19 113c-99 -45 -162 -145 -162 -253z" fill="currentColor"/>
</g>
<g transform="translate(13.9294, 50.1170)">
<path transform="scale(0.0040, -0.0040)" d="M208 139c69 0 117 -40 117 -99c0 -91 -107 -179 -209 -179c-69 0 -116 40 -116 99c0 91 106 179 208 179z" fill="currentColor"/>
</g>
<g transform="translate(13.9294, 43.5529)">
<text font-family="serif" font-size="2.1998" text-anchor="start" fill="currentColor">
<tspan>F dorian</tspan>
</text>
</g>
<g transform="translate(15.1441, 48.6170)">
<rect x="-0.0833" y="-2.0000" width="0.1666" height="3.3382" ry="0.0571" fill="currentColor"/>
</g>
<g transform="translate(17.0279, 49.6170)">
<path transform="scale(0.0040, -0.0040)" d="M208 139c69 0 117 -40 117 -99c0 -91 -107 -179 -209 -179c-69 0 -116 40 -116 99c0 91 106 179 208 179z" fill="currentColor"/>
</g>
<g transform="translate(18.2427, 48.6170)">
<rect x="-0.0833" y="-2.5000" width="0.1666" height="3.3382" ry="0.0571" fill="currentColor"/>
</g>
<g transform="translate(20.3310, 49.1170)">
<path transform="scale(0.0040, -0.0040)" d="M208 139c69 0 117 -40 117 -99c0 -91 -107 -179 -209 -179c-69 0 -116 40 -116 99c0 91 106 179 208 179z" fill="currentColor"/>
</g>
<g transform="translate(21.5458, 48.6170)">
<rect x="-0.0833" y="-3.0000" width="0.1666" height="3.3382" ry="0.0571" fill="currentColor"/>
</g>
<g transform="translate(19.1810, 49.1170)">
<path transform="scale(0.0040, -0.0040)" d="M33 35l-2 -60v-11c0 -21 2 -43 5 -64c42 38 87 81 87 138c0 32 -13 63 -41 63c-31 0 -48 -32 -49 -66zM32 446l-9 -337c25 26 59 40 95 40c50 0 82 -51 82 -105c0 -77 -80 -117 -137 -169c-18 -17 -26 -48 -52 -48c-16 0 -28 15 -28 32l-15 587c10 6 21 8 32 8
s22 -2 32 -8z" fill="currentColor"/>
</g>
<g transform="translate(23.6342, 48.6170)">
<path transform="scale(0.0040, -0.0040)" d="M208 139c69 0 117 -40 117 -99c0 -91 -107 -179 -209 -179c-69 0 -116 40 -116 99c0 91 106 179 208 179z" fill="currentColor"/>
</g>
<g transform="translate(23.7175, 48.6170)">
<rect x="-0.0833" y="0.1618" width="0.1666" height="3.1715" ry="0.0571" fill="currentColor"/>
</g>
<g transform="translate(22.4842, 48.6170)">
<path transform="scale(0.0040, -0.0040)" d="M33 35l-2 -60v-11c0 -21 2 -43 5 -64c42 38 87 81 87 138c0 32 -13 63 -41 63c-31 0 -48 -32 -49 -66zM32 446l-9 -337c25 26 59 40 95 40c50 0 82 -51 82 -105c0 -77 -80 -117 -137 -169c-18 -17 -26 -48 -52 -48c-16 0 -28 15 -28 32l-15 587c10 6 21 8 32 8
s22 -2 32 -8z" fill="currentColor"/>
</g>
<g transform="translate(26.7327, 48.1170)">
<path transform="scale(0.0040, -0.0040)" d="M208 139c69 0 117 -40 117 -99c0 -91 -107 -179 -209 -179c-69 0 -116 40 -116 99c0 91 106 179 208 179z" fill="currentColor"/>
</g>
<g transform="translate(26.8160, 48.6170)">
<rect x="-0.0833" y="-0.3382" width="0.1666" height="3.3382" ry="0.0571" fill="currentColor"/>
</g>
<g transform="translate(29.8312, 47.6170)">
<path transform="scale(0.0040, -0.0040)" d="M208 139c69 0 117 -40 117 -99c0 -91 -107 -179 -209 -179c-69 0 -116 40 -116 99c0 91 106 179 208 179z" fill="currentColor"/>
</g>
<g transform="translate(29.9145, 48.6170)">
<rect x="-0.0833" y="-0.8382" width="0.1666" height="3.3382" ry="0.0571" fill="currentColor"/>
</g>
<g transform="translate(33.1343, 47.1170)">
<path transform="scale(0.0040, -0.0040)" d="M208 139c69 0 117 -40 117 -99c0 -91 -107 -179 -209 -179c-69 0 -116 40 -116 99c0 91 106 179 208 179z" fill="currentColor"/>
</g>
<g transform="translate(33.2176, 48.6170)">
<rect x="-0.0833" y="-1.3382" width="0.1666" height="3.3382" ry="0.0571" fill="currentColor"/>
</g>
<g transform="translate(31.9843, 47.1170)">
<path transform="scale(0.0040, -0.0040)" d="M33 35l-2 -60v-11c0 -21 2 -43 5 -64c42 38 87 81 87 138c0 32 -13 63 -41 63c-31 0 -48 -32 -49 -66zM32 446l-9 -337c25 26 59 40 95 40c50 0 82 -51 82 -105c0 -77 -80 -117 -137 -169c-18 -17 -26 -48 -52 -48c-16 0 -28 15 -28 32l-15 587c10 6 21 8 32 8
s22 -2 32 -8z" fill="currentColor"/>
</g>
<g transform="translate(36.2328, 46.6170)">
<path transform="scale(0.0040, -0.0040)" d="M208 139c69 0 117 -40 117 -99c0 -91 -107 -179 -209 -179c-69 0 -116 40 -116 99c0 91 106 179 208 179z" fill="currentColor"/>
</g>
<g transform="translate(36.3161, 48.6170)">
<rect x="-0.0833" y="-1.8382" width="0.1666" height="3.3382" ry="0.0571" fill="currentColor"/>
</g>
<g transform="translate(39.3313, 47.1170)">
<path transform="scale(0.0040, -0.0040)" d="M208 139c69 0 117 -40 117 -99c0 -91 -107 -179 -209 -179c-69 0 -116 40 -116 99c0 91 106 179 208 179z" fill="currentColor"/>
</g>
<g transform="translate(39.4146, 48.6170)">
<rect x="-0.0833" y="-1.3382" width="0.1666" height="3.3382" ry="0.0571" fill="currentColor"/>
</g>
<g transform="translate(42.4298, 47.6170)">
<path transform="scale(0.0040, -0.0040)" d="M208 139c69 0 117 -40 117 -99c0 -91 -107 -179 -209 -179c-69 0 -116 40 -116 99c0 91 106 179 208 179z" fill="currentColor"/>
</g>
<g transform="translate(42.5131, 48.6170)">
<rect x="-0.0833" y="-0.8382" width="0.1666" height="3.3382" ry="0.0571" fill="currentColor"/>
</g>
<g transform="translate(45.5283, 48.1170)">
<path transform="scale(0.0040, -0.0040)" d="M208 139c69 0 117 -40 117 -99c0 -91 -107 -179 -209 -179c-69 0 -116 40 -116 99c0 91 106 179 208 179z" fill="currentColor"/>
</g>
<g transform="translate(45.6116, 48.6170)">
<rect x="-0.0833" y="-0.3382" width="0.1666" height="3.3382" ry="0.0571" fill="currentColor"/>
</g>
<g transform="translate(48.6269, 48.6170)">
<path transform="scale(0.0040, -0.0040)" d="M208 139c69 0 117 -40 117 -99c0 -91 -107 -179 -209 -179c-69 0 -116 40 -116 99c0 91 106 179 208 179z" fill="currentColor"/>
</g>
<g transform="translate(48.7102, 48.6170)">
<rect x="-0.0833" y="0.1618" width="0.1666" height="3.1715" ry="0.0571" fill="currentColor"/>
</g>
<g transform="translate(51.7002, 49.1170)">
<path transform="scale(0.0040, -0.0040)" d="M208 139c69 0 117 -40 117 -99c0 -91 -107 -179 -209 -179c-69 0 -116 40 -116 99c0 91 106 179 208 179z" fill="currentColor"/>
</g>
<g transform="translate(52.9149, 48.6170)">
<rect x="-0.0833" y="-3.0000" width="0.1666" height="3.3382" ry="0.0571" fill="currentColor"/>
</g>
<g transform="translate(159.5935, 48.6170)">
<rect x="-0.0833" y="-1.5000" width="0.1666" height="3.3382" ry="0.0571" fill="currentColor"/>
</g>
<g transform="translate(54.7987, 49.6170)">
<path transform="scale(0.0040, -0.0040)" d="M208 139c69 0 117 -40 117 -99c0 -91 -107 -179 -209 -179c-69 0 -116 40 -116 99c0 91 106 179 208 179z" fill="currentColor"/>
</g>
<g transform="translate(56.0135, 48.6170)">
<rect x="-0.0833" y="-2.5000" width="0.1666" height="3.3382" ry="0.0571" fill="currentColor"/>
</g>
<g transform="translate(57.8972, 50.1170)">
<path transform="scale(0.0040, -0.0040)" d="M208 139c69 0 117 -40 117 -99c0 -91 -107 -179 -209 -179c-69 0 -116 40 -116 99c0 91 106 179 208 179z" fill="currentColor"/>
</g>
<g transform="translate(59.1120, 48.6170)">
<rect x="-0.0833" y="-2.0000" width="0.1666" height="3.3382" ry="0.0571" fill="currentColor"/>
</g>
<g transform="translate(158.3787, 50.6170)">
<path transform="scale(0.0040, -0.0040)" d="M208 139c69 0 117 -40 117 -99c0 -91 -107 -179 -209 -179c-69 0 -116 40 -116 99c0 91 106 179 208 179z" fill="currentColor"/>
</g>
<g transform="translate(64.0354, 48.6170)">
<path transform="scale(0.0040, -0.0040)" d="M208 139c69 0 117 -40 117 -99c0 -91 -107 -179 -209 -179c-69 0 -116 40 -116 99c0 91 106 179 208 179z" fill="currentColor"/>
</g>
<g transform="translate(64.0354, 43.5529)">
<text font-family="serif" font-size="2.1998" text-anchor="start" fill="currentColor">
<tspan>Bb dorian</tspan>
</text>
</g>
<g transform="translate(64.1188, 48.6170)">
<rect x="-0.0833" y="0.1618" width="0.1666" height="3.1715" ry="0.0571" fill="currentColor"/>
</g>
<g transform="translate(62.8854, 48.6170)">
<path transform="scale(0.0040, -0.0040)" d="M33 35l-2 -60v-11c0 -21 2 -43 5 -64c42 38 87 81 87 138c0 32 -13 63 -41 63c-31 0 -48 -32 -49 -66zM32 446l-9 -337c25 26 59 40 95 40c50 0 82 -51 82 -105c0 -77 -80 -117 -137 -169c-18 -17 -26 -48 -52 -48c-16 0 -28 15 -28 32l-15 587c10 6 21 8 32 8
s22 -2 32 -8z" fill="currentColor"/>
</g>
<g transform="translate(67.1340, 48.1170)">
<path transform="scale(0.0040, -0.0040)" d="M208 139c69 0 117 -40 117 -99c0 -91 -107 -179 -209 -179c-69 0 -116 40 -116 99c0 91 106 179 208 179z" fill="currentColor"/>
</g>
<g transform="translate(67.2173, 48.6170)">
<rect x="-0.0833" y="-0.3382" width="0.1666" height="3.3382" ry="0.0571" fill="currentColor"/>
</g>
<g transform="translate(70.4371, 47.6170)">
<path transform="scale(0.0040, -0.0040)" d="M208 139c69 0 117 -40 117 -99c0 -91 -107 -179 -209 -179c-69 0 -116 40 -116 99c0 91 106 179 208 179z" fill="currentColor"/>
</g>
<g transform="translate(70.5204, 48.6170)">
<rect x="-0.0833" y="-0.8382" width="0.1666" height="3.3382" ry="0.0571" fill="currentColor"/>
</g>
<g transform="translate(69.2871, 47.6170)">
<path transform="scale(0.0040, -0.0040)" d="M33 35l-2 -60v-11c0 -21 2 -43 5 -64c42 38 87 81 87 138c0 32 -13 63 -41 63c-31 0 -48 -32 -49 -66zM32 446l-9 -337c25 26 59 40 95 40c50 0 82 -51 82 -105c0 -77 -80 -117 -137 -169c-18 -17 -26 -48 -52 -48c-16 0 -28 15 -28 32l-15 587c10 6 21 8 32 8
s22 -2 32 -8z" fill="currentColor"/>
</g>
<g transform="translate(156.4950, 48.6170)">
<rect x="-0.0833" y="-2.0000" width="0.1666" height="3.3382" ry="0.0571" fill="currentColor"/>
</g>
<g transform="translate(73.7402, 47.1170)">
<path transform="scale(0.0040, -0.0040)" d="M208 139c69 0 117 -40 117 -99c0 -91 -107 -179 -209 -179c-69 0 -116 40 -116 99c0 91 106 179 208 179z" fill="currentColor"/>
</g>
<g transform="translate(73.8235, 48.6170)">
<rect x="-0.0833" y="-1.3382" width="0.1666" height="3.3382" ry="0.0571" fill="currentColor"/>
</g>
<g transform="translate(72.5902, 47.1170)">
<path transform="scale(0.0040, -0.0040)" d="M33 35l-2 -60v-11c0 -21 2 -43 5 -64c42 38 87 81 87 138c0 32 -13 63 -41 63c-31 0 -48 -32 -49 -66zM32 446l-9 -337c25 26 59 40 95 40c50 0 82 -51 82 -105c0 -77 -80 -117 -137 -169c-18 -17 -26 -48 -52 -48c-16 0 -28 15 -28 32l-15 587c10 6 21 8 32 8
s22 -2 32 -8z" fill="currentColor"/>
</g>
<g transform="translate(155.2802, 50.1170)">
<path transform="scale(0.0040, -0.0040)" d="M208 139c69 0 117 -40 117 -99c0 -91 -107 -179 -209 -179c-69 0 -116 40 -116 99c0 91 106 179 208 179z" fill="currentColor"/>
</g>
<g transform="translate(76.8387, 46.6170)">
<path transform="scale(0.0040, -0.0040)" d="M208 139c69 0 117 -40 117 -99c0 -91 -107 -179 -209 -179c-69 0 -116 40 -116 99c0 91 106 179 208 179z" fill="currentColor"/>
</g>
<g transform="translate(76.9221, 48.6170)">
<rect x="-0.0833" y="-1.8382" width="0.1666" height="3.3382" ry="0.0571" fill="currentColor"/>
</g>
<g transform="translate(79.9373, 46.1170)">
<path transform="scale(0.0040, -0.0040)" d="M208 139c69 0 117 -40 117 -99c0 -91 -107 -179 -209 -179c-69 0 -116 40 -116 99c0 91 106 179 208 179z" fill="currentColor"/>
</g>
<g transform="translate(80.0206, 48.6170)">
<rect x="-0.0833" y="-2.3382" width="0.1666" height="3.3382" ry="0.0571" fill="currentColor"/>
</g>
<g transform="translate(83.2404, 45.6170)">
<path transform="scale(0.0040, -0.0040)" d="M208 139c69 0 117 -40 117 -99c0 -91 -107 -179 -209 -179c-69 0 -116 40 -116 99c0 91 106 179 208 179z" fill="currentColor"/>
</g>
<g transform="translate(83.3237, 48.6170)">
<rect x="-0.0833" y="-2.8382" width="0.1666" height="3.3382" ry="0.0571" fill="currentColor"/>
</g>
<g transform="translate(82.0904, 45.6170)">
<path transform="scale(0.0040, -0.0040)" d="M33 35l-2 -60v-11c0 -21 2 -43 5 -64c42 38 87 81 87 138c0 32 -13 63 -41 63c-31 0 -48 -32 -49 -66zM32 446l-9 -337c25 26 59 40 95 40c50 0 82 -51 82 -105c0 -77 -80 -117 -137 -169c-18 -17 -26 -48 -52 -48c-16 0 -28 15 -28 32l-15 587c10 6 21 8 32 8
s22 -2 32 -8z" fill="currentColor"/>
</g>
<g transform="translate(86.5435, 45.1170)">
<path transform="scale(0.0040, -0.0040)" d="M208 139c69 0 117 -40 117 -99c0 -91 -107 -179 -209 -179c-69 0 -116 40 -116 99c0 91 106 179 208 179z" fill="currentColor"/>
</g>
<g transform="translate(86.6268, 48.6170)">
<rect x="-0.0833" y="-3.3382" width="0.1666" height="3.3382" ry="0.0571" fill="currentColor"/>
</g>
<g transform="translate(85.3935, 45.1170)">
<path transform="scale(0.0040, -0.0040)" d="M33 35l-2 -60v-11c0 -21 2 -43 5 -64c42 38 87 81 87 138c0 32 -13 63 -41 63c-31 0 -48 -32 -49 -66zM32 446l-9 -337c25 26 59 40 95 40c50 0 82 -51 82 -105c0 -77 -80 -117 -137 -169c-18 -17 -26 -48 -52 -48c-16 0 -28 15 -28 32l-15 587c10 6 21 8 32 8
s22 -2 32 -8z" fill="currentColor"/>
</g>
<g transform="translate(153.3965, 48.6170)">
<rect x="-0.0833" y="-2.5000" width="0.1666" height="3.3382" ry="0.0571" fill="currentColor"/>
</g>
<g transform="translate(89.6421, 45.6170)">
<path transform="scale(0.0040, -0.0040)" d="M208 139c69 0 117 -40 117 -99c0 -91 -107 -179 -209 -179c-69 0 -116 40 -116 99c0 91 106 179 208 179z" fill="currentColor"/>
</g>
<g transform="translate(89.7254, 48.6170)">
<rect x="-0.0833" y="-2.8382" width="0.1666" height="3.3382" ry="0.0571" fill="currentColor"/>
</g>
<g transform="translate(152.1817, 49.6170)">
<path transform="scale(0.0040, -0.0040)" d="M208 139c69 0 117 -40 117 -99c0 -91 -107 -179 -209 -179c-69 0 -116 40 -116 99c0 91 106 179 208 179z" fill="currentColor"/>
</g>
<g transform="translate(92.7406, 46.1170)">
<path transform="scale(0.0040, -0.0040)" d="M208 139c69 0 117 -40 117 -99c0 -91 -107 -179 -209 -179c-69 0 -116 40 -116 99c0 91 106 179 208 179z" fill="currentColor"/>
</g>
<g transform="translate(92.8239, 48.6170)">
<rect x="-0.0833" y="-2.3382" width="0.1666" height="3.3382" ry="0.0571" fill="currentColor"/>
</g>
<g transform="translate(95.8391, 46.6170)">
<path transform="scale(0.0040, -0.0040)" d="M208 139c69 0 117 -40 117 -99c0 -91 -107 -179 -209 -179c-69 0 -116 40 -116 99c0 91 106 179 208 179z" fill="currentColor"/>
</g>
<g transform="translate(95.9224, 48.6170)">
<rect x="-0.0833" y="-1.8382" width="0.1666" height="3.3382" ry="0.0571" fill="currentColor"/>
</g>
<g transform="translate(98.9376, 47.1170)">
<path transform="scale(0.0040, -0.0040)" d="M208 139c69 0 117 -40 117 -99c0 -91 -107 -179 -209 -179c-69 0 -116 40 -116 99c0 91 106 179 208 179z" fill="currentColor"/>
</g>
<g transform="translate(99.0209, 48.6170)">
<rect x="-0.0833" y="-1.3382" width="0.1666" height="3.3382" ry="0.0571" fill="currentColor"/>
</g>
<g transform="translate(102.0361, 47.6170)">
<path transform="scale(0.0040, -0.0040)" d="M208 139c69 0 117 -40 117 -99c0 -91 -107 -179 -209 -179c-69 0 -116 40 -116 99c0 91 106 179 208 179z" fill="currentColor"/>
</g>
<g transform="translate(102.1194, 48.6170)">
<rect x="-0.0833" y="-0.8382" width="0.1666" height="3.3382" ry="0.0571" fill="currentColor"/>
</g>
<g transform="translate(150.2980, 48.6170)">
<rect x="-0.0833" y="-3.0000" width="0.1666" height="3.3382" ry="0.0571" fill="currentColor"/>
</g>
<g transform="translate(105.1346, 48.1170)">
<path transform="scale(0.0040, -0.0040)" d="M208 139c69 0 117 -40 117 -99c0 -91 -107 -179 -209 -179c-69 0 -116 40 -116 99c0 91 106 179 208 179z" fill="currentColor"/>
</g>
<g transform="translate(105.2179, 48.6170)">
<rect x="-0.0833" y="-0.3382" width="0.1666" height="3.3382" ry="0.0571" fill="currentColor"/>
</g>
<g transform="translate(149.0832, 49.1170)">
<path transform="scale(0.0040, -0.0040)" d="M208 139c69 0 117 -40 117 -99c0 -91 -107 -179 -209 -179c-69 0 -116 40 -116 99c0 91 106 179 208 179z" fill="currentColor"/>
</g>
<g transform="translate(108.2331, 48.6170)">
<path transform="scale(0.0040, -0.0040)" d="M208 139c69 0 117 -40 117 -99c0 -91 -107 -179 -209 -179c-69 0 -116 40 -116 99c0 91 106 179 208 179z" fill="currentColor"/>
</g>
<g transform="translate(108.3164, 48.6170)">
<rect x="-0.0833" y="0.1618" width="0.1666" height="3.1715" ry="0.0571" fill="currentColor"/>
</g>
<g transform="translate(114.0016, 50.6170)">
<path transform="scale(0.0040, -0.0040)" d="M208 139c69 0 117 -40 117 -99c0 -91 -107 -179 -209 -179c-69 0 -116 40 -116 99c0 91 106 179 208 179z" fill="currentColor"/>
</g>
<g transform="translate(114.0016, 43.5529)">
<text font-family="serif" font-size="2.1998" text-anchor="start" fill="currentColor">
<tspan>Eb dorian</tspan>
</text>
</g>
<g transform="translate(115.2164, 48.6170)">
<rect x="-0.0833" y="-1.5000" width="0.1666" height="3.3382" ry="0.0571" fill="currentColor"/>
</g>
<g transform="translate(112.8516, 50.6170)">
<path transform="scale(0.0040, -0.0040)" d="M33 35l-2 -60v-11c0 -21 2 -43 5 -64c42 38 87 81 87 138c0 32 -13 63 -41 63c-31 0 -48 -32 -49 -66zM32 446l-9 -337c25 26 59 40 95 40c50 0 82 -51 82 -105c0 -77 -80 -117 -137 -169c-18 -17 -26 -48 -52 -48c-16 0 -28 15 -28 32l-15 587c10 6 21 8 32 8
s22 -2 32 -8z" fill="currentColor"/>
</g>
<g transform="translate(117.1001, 50.1170)">
<path transform="scale(0.0040, -0.0040)" d="M208 139c69 0 117 -40 117 -99c0 -91 -107 -179 -209 -179c-69 0 -116 40 -116 99c0 91 106 179 208 179z" fill="currentColor"/>
</g>
<g transform="translate(118.3149, 48.6170)">
<rect x="-0.0833" y="-2.0000" width="0.1666" height="3.3382" ry="0.0571" fill="currentColor"/>
</g>
<g transform="translate(146.0932, 48.6170)">
<rect x="-0.0833" y="0.1618" width="0.1666" height="3.1715" ry="0.0571" fill="currentColor"/>
</g>
<g transform="translate(120.4033, 49.6170)">
<path transform="scale(0.0040, -0.0040)" d="M208 139c69 0 117 -40 117 -99c0 -91 -107 -179 -209 -179c-69 0 -116 40 -116 99c0 91 106 179 208 179z" fill="currentColor"/>
</g>
<g transform="translate(121.6181, 48.6170)">
<rect x="-0.0833" y="-2.5000" width="0.1666" height="3.3382" ry="0.0571" fill="currentColor"/>
</g>
<g transform="translate(119.2533, 49.6170)">
<path transform="scale(0.0040, -0.0040)" d="M33 35l-2 -60v-11c0 -21 2 -43 5 -64c42 38 87 81 87 138c0 32 -13 63 -41 63c-31 0 -48 -32 -49 -66zM32 446l-9 -337c25 26 59 40 95 40c50 0 82 -51 82 -105c0 -77 -80 -117 -137 -169c-18 -17 -26 -48 -52 -48c-16 0 -28 15 -28 32l-15 587c10 6 21 8 32 8
s22 -2 32 -8z" fill="currentColor"/>
</g>
<g transform="translate(146.0099, 48.6170)">
<path transform="scale(0.0040, -0.0040)" d="M208 139c69 0 117 -40 117 -99c0 -91 -107 -179 -209 -179c-69 0 -116 40 -116 99c0 91 106 179 208 179z" fill="currentColor"/>
</g>
<g transform="translate(123.7064, 49.1170)">
<path transform="scale(0.0040, -0.0040)" d="M208 139c69 0 117 -40 117 -99c0 -91 -107 -179 -209 -179c-69 0 -116 40 -116 99c0 91 106 179 208 179z" fill="currentColor"/>
</g>
<g transform="translate(124.9212, 48.6170)">
<rect x="-0.0833" y="-3.0000" width="0.1666" height="3.3382" ry="0.0571" fill="currentColor"/>
</g>
<g transform="translate(122.5564, 49.1170)">
<path transform="scale(0.0040, -0.0040)" d="M33 35l-2 -60v-11c0 -21 2 -43 5 -64c42 38 87 81 87 138c0 32 -13 63 -41 63c-31 0 -48 -32 -49 -66zM32 446l-9 -337c25 26 59 40 95 40c50 0 82 -51 82 -105c0 -77 -80 -117 -137 -169c-18 -17 -26 -48 -52 -48c-16 0 -28 15 -28 32l-15 587c10 6 21 8 32 8
s22 -2 32 -8z" fill="currentColor"/>
</g>
<g transform="translate(127.0096, 48.6170)">
<path transform="scale(0.0040, -0.0040)" d="M208 139c69 0 117 -40 117 -99c0 -91 -107 -179 -209 -179c-69 0 -116 40 -116 99c0 91 106 179 208 179z" fill="currentColor"/>
</g>
<g transform="translate(127.0929, 48.6170)">
<rect x="-0.0833" y="0.1618" width="0.1666" height="3.1715" ry="0.0571" fill="currentColor"/>
</g>
<g transform="translate(125.8596, 48.6170)">
<path transform="scale(0.0040, -0.0040)" d="M33 35l-2 -60v-11c0 -21 2 -43 5 -64c42 38 87 81 87 138c0 32 -13 63 -41 63c-31 0 -48 -32 -49 -66zM32 446l-9 -337c25 26 59 40 95 40c50 0 82 -51 82 -105c0 -77 -80 -117 -137 -169c-18 -17 -26 -48 -52 -48c-16 0 -28 15 -28 32l-15 587c10 6 21 8 32 8
s22 -2 32 -8z" fill="currentColor"/>
</g>
<g transform="translate(130.1081, 48.1170)">
<path transform="scale(0.0040, -0.0040)" d="M208 139c69 0 117 -40 117 -99c0 -91 -107 -179 -209 -179c-69 0 -116 40 -116 99c0 91 106 179 208 179z" fill="currentColor"/>
</g>
<g transform="translate(130.1914, 48.6170)">
<rect x="-0.0833" y="-0.3382" width="0.1666" height="3.3382" ry="0.0571" fill="currentColor"/>
</g>
<g transform="translate(133.4112, 47.6170)">
<path transform="scale(0.0040, -0.0040)" d="M208 139c69 0 117 -40 117 -99c0 -91 -107 -179 -209 -179c-69 0 -116 40 -116 99c0 91 106 179 208 179z" fill="currentColor"/>
</g>
<g transform="translate(133.4945, 48.6170)">
<rect x="-0.0833" y="-0.8382" width="0.1666" height="3.3382" ry="0.0571" fill="currentColor"/>
</g>
<g transform="translate(132.2612, 47.6170)">
<path transform="scale(0.0040, -0.0040)" d="M33 35l-2 -60v-11c0 -21 2 -43 5 -64c42 38 87 81 87 138c0 32 -13 63 -41 63c-31 0 -48 -32 -49 -66zM32 446l-9 -337c25 26 59 40 95 40c50 0 82 -51 82 -105c0 -77 -80 -117 -137 -169c-18 -17 -26 -48 -52 -48c-16 0 -28 15 -28 32l-15 587c10 6 21 8 32 8
s22 -2 32 -8z" fill="currentColor"/>
</g>
<g transform="translate(142.9947, 48.6170)">
<rect x="-0.0833" y="-0.3382" width="0.1666" height="3.3382" ry="0.0571" fill="currentColor"/>
</g>
<g transform="translate(136.7144, 47.1170)">
<path transform="scale(0.0040, -0.0040)" d="M208 139c69 0 117 -40 117 -99c0 -91 -107 -179 -209 -179c-69 0 -116 40 -116 99c0 91 106 179 208 179z" fill="currentColor"/>
</g>
<g transform="translate(136.7977, 48.6170)">
<rect x="-0.0833" y="-1.3382" width="0.1666" height="3.3382" ry="0.0571" fill="currentColor"/>
</g>
<g transform="translate(135.5644, 47.1170)">
<path transform="scale(0.0040, -0.0040)" d="M33 35l-2 -60v-11c0 -21 2 -43 5 -64c42 38 87 81 87 138c0 32 -13 63 -41 63c-31 0 -48 -32 -49 -66zM32 446l-9 -337c25 26 59 40 95 40c50 0 82 -51 82 -105c0 -77 -80 -117 -137 -169c-18 -17 -26 -48 -52 -48c-16 0 -28 15 -28 32l-15 587c10 6 21 8 32 8
s22 -2 32 -8z" fill="currentColor"/>
</g>
<g transform="translate(142.9114, 48.1170)">
<path transform="scale(0.0040, -0.0040)" d="M208 139c69 0 117 -40 117 -99c0 -91 -107 -179 -209 -179c-69 0 -116 40 -116 99c0 91 106 179 208 179z" fill="currentColor"/>
</g>
<g transform="translate(139.8129, 47.6170)">
<path transform="scale(0.0040, -0.0040)" d="M208 139c69 0 117 -40 117 -99c0 -91 -107 -179 -209 -179c-69 0 -116 40 -116 99c0 91 106 179 208 179z" fill="currentColor"/>
</g>
<g transform="translate(139.8962, 48.6170)">
<rect x="-0.0833" y="-0.8382" width="0.1666" height="3.3382" ry="0.0571" fill="currentColor"/>
</g>
<g transform="translate(8.1294, 61.5042)">
<rect x="28.1583" y="-0.1141" width="1.7976" height="0.2282" ry="0.1141" fill="currentColor"/>
</g>
<g transform="translate(8.1294, 66.5042)">
<line stroke-linejoin="round" stroke-linecap="round" stroke-width="0.1282" stroke="currentColor" x1="0.0641" y1="0" x2="154.3937" y2="0"/>
</g>
<g transform="translate(8.1294, 65.5042)">
<line stroke-linejoin="round" stroke-linecap="round" stroke-width="0.1282" stroke="currentColor" x1="0.0641" y1="0" x2="154.3937" y2="0"/>
</g>
<g transform="translate(8.1294, 64.5042)">
<line stroke-linejoin="round" stroke-linecap="round" stroke-width="0.1282" stroke="currentColor" x1="0.0641" y1="0" x2="154.3937" y2="0"/>
</g>
<g transform="translate(8.1294, 63.5042)">
<line stroke-linejoin="round" stroke-linecap="round" stroke-width="0.1282" stroke="currentColor" x1="0.0641" y1="0" x2="154.3937" y2="0"/>
</g>
<g transform="translate(8.1294, 62.5042)">
<line stroke-linejoin="round" stroke-linecap="round" stroke-width="0.1282" stroke="currentColor" x1="0.0641" y1="0" x2="154.3937" y2="0"/>
</g>
<g transform="translate(162.3437, 64.5042)">
<rect x="0.0000" y="-2.0000" width="0.2435" height="4.0000" ry="0.0000" fill="currentColor"/>
</g>
<g transform="translate(161.7157, 64.5042)">
<rect x="0.0000" y="-2.0000" width="0.2435" height="4.0000" ry="0.0000" fill="currentColor"/>
</g>
<g transform="translate(111.6444, 64.5042)">
<rect x="0.0000" y="-2.0000" width="0.2435" height="4.0000" ry="0.0000" fill="currentColor"/>
</g>
<g transform="translate(111.0164, 64.5042)">
<rect x="0.0000" y="-2.0000" width="0.2435" height="4.0000" ry="0.0000" fill="currentColor"/>
</g>
<g transform="translate(61.5815, 64.5042)">
<rect x="0.0000" y="-2.0000" width="0.2435" height="4.0000" ry="0.0000" fill="currentColor"/>
</g>
<g transform="translate(60.9535, 64.5042)">
<rect x="0.0000" y="-2.0000" width="0.2435" height="4.0000" ry="0.0000" fill="currentColor"/>
</g>
<g transform="translate(8.9294, 65.5042)">
<path transform="scale(0.0040, -0.0040)" d="M648 2c0 -114 -74 -214 -179 -248c2 -32 3 -65 3 -97c0 -21 -1 -43 -2 -64c-7 -123 -92 -230 -211 -230c-108 0 -197 88 -197 197c0 58 54 104 113 104c54 0 95 -48 95 -104c0 -52 -43 -95 -95 -95c-8 0 -16 2 -24 4c25 -35 65 -59 111 -59c93 0 155 90 161 190
c1 20 2 39 2 59c0 28 -1 55 -3 83c-5 -1 -43 -7 -87 -7c-194 0 -333 181 -333 377c0 176 128 307 242 443c-36 105 -58 171 -58 348c0 113 54 219 146 286c8 6 21 7 29 0c69 -78 136 -242 136 -357c0 -141 -83 -253 -174 -362c22 -67 41 -135 58 -204h9
c157 0 258 -130 258 -264zM464 -200c62 24 108 86 108 159c0 87 -62 173 -163 187c28 -132 47 -265 55 -346zM338 -218c1 0 46 0 80 6c-7 68 -26 209 -58 359c-79 -7 -123 -59 -123 -116c0 -43 24 -89 78 -120c5 -5 8 -11 8 -17c0 -13 -11 -24 -24 -24
c-17 0 -129 63 -129 189c0 90 60 178 164 201c-14 56 -30 112 -47 167c-104 -122 -208 -245 -208 -404c0 -143 140 -241 259 -241zM239 782c0 -43 15 -102 41 -183c77 97 140 199 140 323c0 58 -8 83 -19 113c-99 -45 -162 -145 -162 -253z" fill="currentColor"/>
</g>
<g transform="translate(13.9294, 65.0042)">
<path transform="scale(0.0040, -0.0040)" d="M208 139c69 0 117 -40 117 -99c0 -91 -107 -179 -209 -179c-69 0 -116 40 -116 99c0 91 106 179 208 179z" fill="currentColor"/>
</g>
<g transform="translate(13.9294, 59.4401)">
<text font-family="serif" font-size="2.1998" text-anchor="start" fill="currentColor">
<tspan>Ab dorian</tspan>
</text>
</g>
<g transform="translate(15.1441, 64.5042)">
<rect x="-0.0833" y="-3.0000" width="0.1666" height="3.3382" ry="0.0571" fill="currentColor"/>
</g>
<g transform="translate(12.7794, 65.0042)">
<path transform="scale(0.0040, -0.0040)" d="M33 35l-2 -60v-11c0 -21 2 -43 5 -64c42 38 87 81 87 138c0 32 -13 63 -41 63c-31 0 -48 -32 -49 -66zM32 446l-9 -337c25 26 59 40 95 40c50 0 82 -51 82 -105c0 -77 -80 -117 -137 -169c-18 -17 -26 -48 -52 -48c-16 0 -28 15 -28 32l-15 587c10 6 21 8 32 8
s22 -2 32 -8z" fill="currentColor"/>
</g>
<g transform="translate(17.1776, 64.5042)">
<path transform="scale(0.0040, -0.0040)" d="M208 139c69 0 117 -40 117 -99c0 -91 -107 -179 -209 -179c-69 0 -116 40 -116 99c0 91 106 179 208 179z" fill="currentColor"/>
</g>
<g transform="translate(17.2609, 64.5042)">
<rect x="-0.0833" y="0.1618" width="0.1666" height="3.1715" ry="0.0571" fill="currentColor"/>
</g>
<g transform="translate(16.0276, 64.5042)">
<path transform="scale(0.0040, -0.0040)" d="M33 35l-2 -60v-11c0 -21 2 -43 5 -64c42 38 87 81 87 138c0 32 -13 63 -41 63c-31 0 -48 -32 -49 -66zM32 446l-9 -337c25 26 59 40 95 40c50 0 82 -51 82 -105c0 -77 -80 -117 -137 -169c-18 -17 -26 -48 -52 -48c-16 0 -28 15 -28 32l-15 587c10 6 21 8 32 8
s22 -2 32 -8z" fill="currentColor"/>
</g>
<g transform="translate(20.4259, 64.0042)">
<path transform="scale(0.0040, -0.0040)" d="M208 139c69 0 117 -40 117 -99c0 -91 -107 -179 -209 -179c-69 0 -116 40 -116 99c0 91 106 179 208 179z" fill="currentColor"/>
</g>
<g transform="translate(20.5092, 64.5042)">
<rect x="-0.0833" y="-0.3382" width="0.1666" height="3.3382" ry="0.0571" fill="currentColor"/>
</g>
<g transform="translate(19.2759, 64.0042)">
<path transform="scale(0.0040, -0.0040)" d="M33 35l-2 -60v-11c0 -21 2 -43 5 -64c42 38 87 81 87 138c0 32 -13 63 -41 63c-31 0 -48 -32 -49 -66zM32 446l-9 -337c25 26 59 40 95 40c50 0 82 -51 82 -105c0 -77 -80 -117 -137 -169c-18 -17 -26 -48 -52 -48c-16 0 -28 15 -28 32l-15 587c10 6 21 8 32 8
s22 -2 32 -8z" fill="currentColor"/>
</g>
<g transform="translate(23.6742, 63.5042)">
<path transform="scale(0.0040, -0.0040)" d="M208 139c69 0 117 -40 117 -99c0 -91 -107 -179 -209 -179c-69 0 -116 40 -116 99c0 91 106 179 208 179z" fill="currentColor"/>
</g>
<g transform="translate(23.7575, 64.5042)">
<rect x="-0.0833" y="-0.8382" width="0.1666" height="3.3382" ry="0.0571" fill="currentColor"/>
</g>
<g transform="translate(22.5242, 63.5042)">
<path transform="scale(0.0040, -0.0040)" d="M33 35l-2 -60v-11c0 -21 2 -43 5 -64c42 38 87 81 87 138c0 32 -13 63 -41 63c-31 0 -48 -32 -49 -66zM32 446l-9 -337c25 26 59 40 95 40c50 0 82 -51 82 -105c0 -77 -80 -117 -137 -169c-18 -17 -26 -48 -52 -48c-16 0 -28 15 -28 32l-15 587c10 6 21 8 32 8
s22 -2 32 -8z" fill="currentColor"/>
</g>
<g transform="translate(26.9224, 63.0042)">
<path transform="scale(0.0040, -0.0040)" d="M208 139c69 0 117 -40 117 -99c0 -91 -107 -179 -209 -179c-69 0 -116 40 -116 99c0 91 106 179 208 179z" fill="currentColor"/>
</g>
<g transform="translate(27.0057, 64.5042)">
<rect x="-0.0833" y="-1.3382" width="0.1666" height="3.3382" ry="0.0571" fill="currentColor"/>
</g>
<g transform="translate(25.7724, 63.0042)">
<path transform="scale(0.0040, -0.0040)" d="M33 35l-2 -60v-11c0 -21 2 -43 5 -64c42 38 87 81 87 138c0 32 -13 63 -41 63c-31 0 -48 -32 -49 -66zM32 446l-9 -337c25 26 59 40 95 40c50 0 82 -51 82 -105c0 -77 -80 -117 -137 -169c-18 -17 -26 -48 -52 -48c-16 0 -28 15 -28 32l-15 587c10 6 21 8 32 8
s22 -2 32 -8z" fill="currentColor"/>
</g>
<g transform="translate(29.9661, 62.5042)">
<path transform="scale(0.0040, -0.0040)" d="M208 139c69 0 117 -40 117 -99c0 -91 -107 -179 -209 -179c-69 0 -116 40 -116 99c0 91 106 179 208 179z" fill="currentColor"/>
</g>
<g transform="translate(30.0494, 64.5042)">
<rect x="-0.0833" y="-1.8382" width="0.1666" height="3.3382" ry="0.0571" fill="currentColor"/>
</g>
<g transform="translate(33.2143, 62.0042)">
<path transform="scale(0.0040, -0.0040)" d="M208 139c69 0 117 -40 117 -99c0 -91 -107 -179 -209 -179c-69 0 -116 40 -116 99c0 91 106 179 208 179z" fill="currentColor"/>
</g>
<g transform="translate(33.2977, 64.5042)">
<rect x="-0.0833" y="-2.3382" width="0.1666" height="3.3382" ry="0.0571" fill="currentColor"/>
</g>
<g transform="translate(32.0643, 62.0042)">
<path transform="scale(0.0040, -0.0040)" d="M33 35l-2 -60v-11c0 -21 2 -43 5 -64c42 38 87 81 87 138c0 32 -13 63 -41 63c-31 0 -48 -32 -49 -66zM32 446l-9 -337c25 26 59 40 95 40c50 0 82 -51 82 -105c0 -77 -80 -117 -137 -169c-18 -17 -26 -48 -52 -48c-16 0 -28 15 -28 32l-15 587c10 6 21 8 32 8
s22 -2 32 -8z" fill="currentColor"/>
</g>
<g transform="translate(36.4626, 61.5042)">
<path transform="scale(0.0040, -0.0040)" d="M208 139c69 0 117 -40 117 -99c0 -91 -107 -179 -209 -179c-69 0 -116 40 -116 99c0 91 106 179 208 179z" fill="currentColor"/>
</g>
<g transform="translate(36.5459, 64.5042)">
<rect x="-0.0833" y="-2.8382" width="0.1666" height="3.3382" ry="0.0571" fill="currentColor"/>
</g>
<g transform="translate(35.3126, 61.5042)">
<path transform="scale(0.0040, -0.0040)" d="M33 35l-2 -60v-11c0 -21 2 -43 5 -64c42 38 87 81 87 138c0 32 -13 63 -41 63c-31 0 -48 -32 -49 -66zM32 446l-9 -337c25 26 59 40 95 40c50 0 82 -51 82 -105c0 -77 -80 -117 -137 -169c-18 -17 -26 -48 -52 -48c-16 0 -28 15 -28 32l-15 587c10 6 21 8 32 8
s22 -2 32 -8z" fill="currentColor"/>
</g>
<g transform="translate(39.5063, 62.0042)">
<path transform="scale(0.0040, -0.0040)" d="M208 139c69 0 117 -40 117 -99c0 -91 -107 -179 -209 -179c-69 0 -116 40 -116 99c0 91 106 179 208 179z" fill="currentColor"/>
</g>
<g transform="translate(39.5896, 64.5042)">
<rect x="-0.0833" y="-2.3382" width="0.1666" height="3.3382" ry="0.0571" fill="currentColor"/>
</g>
<g transform="translate(42.5499, 62.5042)">
<path transform="scale(0.0040, -0.0040)" d="M208 139c69 0 117 -40 117 -99c0 -91 -107 -179 -209 -179c-69 0 -116 40 -116 99c0 91 106 179 208 179z" fill="currentColor"/>
</g>
<g transform="translate(42.6332, 64.5042)">
<rect x="-0.0833" y="-1.8382" width="0.1666" height="3.3382" ry="0.0571" fill="currentColor"/>
</g>
<g transform="translate(45.5935, 63.0042)">
<path transform="scale(0.0040, -0.0040)" d="M208 139c69 0 117 -40 117 -99c0 -91 -107 -179 -209 -179c-69 0 -116 40 -116 99c0 91 106 179 208 179z" fill="currentColor"/>
</g>
<g transform="translate(45.6768, 64.5042)">
<rect x="-0.0833" y="-1.3382" width="0.1666" height="3.3382" ry="0.0571" fill="currentColor"/>
</g>
<g transform="translate(48.6372, 63.5042)">
<path transform="scale(0.0040, -0.0040)" d="M208 139c69 0 117 -40 117 -99c0 -91 -107 -179 -209 -179c-69 0 -116 40 -116 99c0 91 106 179 208 179z" fill="currentColor"/>
</g>
<g transform="translate(48.7205, 64.5042)">
<rect x="-0.0833" y="-0.8382" width="0.1666" height="3.3382" ry="0.0571" fill="currentColor"/>
</g>
<g transform="translate(51.6808, 64.0042)">
<path transform="scale(0.0040, -0.0040)" d="M208 139c69 0 117 -40 117 -99c0 -91 -107 -179 -209 -179c-69 0 -116 40 -116 99c0 91 106 179 208 179z" fill="currentColor"/>
</g>
<g transform="translate(51.7641, 64.5042)">
<rect x="-0.0833" y="-0.3382" width="0.1666" height="3.3382" ry="0.0571" fill="currentColor"/>
</g>
<g transform="translate(159.6841, 64.5042)">
<rect x="-0.0833" y="-2.5000" width="0.1666" height="3.3382" ry="0.0571" fill="currentColor"/>
</g>
<g transform="translate(54.7244, 64.5042)">
<path transform="scale(0.0040, -0.0040)" d="M208 139c69 0 117 -40 117 -99c0 -91 -107 -179 -209 -179c-69 0 -116 40 -116 99c0 91 106 179 208 179z" fill="currentColor"/>
</g>
<g transform="translate(54.8077, 64.5042)">
<rect x="-0.0833" y="0.1618" width="0.1666" height="3.1715" ry="0.0571" fill="currentColor"/>
</g>
<g transform="translate(57.7429, 65.0042)">
<path transform="scale(0.0040, -0.0040)" d="M208 139c69 0 117 -40 117 -99c0 -91 -107 -179 -209 -179c-69 0 -116 40 -116 99c0 91 106 179 208 179z" fill="currentColor"/>
</g>
<g transform="translate(58.9577, 64.5042)">
<rect x="-0.0833" y="-3.0000" width="0.1666" height="3.3382" ry="0.0571" fill="currentColor"/>
</g>
<g transform="translate(158.4693, 65.5042)">
<path transform="scale(0.0040, -0.0040)" d="M208 139c69 0 117 -40 117 -99c0 -91 -107 -179 -209 -179c-69 0 -116 40 -116 99c0 91 106 179 208 179z" fill="currentColor"/>
</g>
<g transform="translate(63.7403, 67.0042)">
<path transform="scale(0.0040, -0.0040)" d="M208 139c69 0 117 -40 117 -99c0 -91 -107 -179 -209 -179c-69 0 -116 40 -116 99c0 91 106 179 208 179z" fill="currentColor"/>
</g>
<g transform="translate(63.7403, 59.4401)">
<text font-family="serif" font-size="2.1998" text-anchor="start" fill="currentColor">
<tspan>Db dorian</tspan>
</text>
</g>
<g transform="translate(64.9551, 64.5042)">
<rect x="-0.0833" y="-1.0000" width="0.1666" height="3.3382" ry="0.0571" fill="currentColor"/>
</g>
<g transform="translate(62.5903, 67.0042)">
<path transform="scale(0.0040, -0.0040)" d="M33 35l-2 -60v-11c0 -21 2 -43 5 -64c42 38 87 81 87 138c0 32 -13 63 -41 63c-31 0 -48 -32 -49 -66zM32 446l-9 -337c25 26 59 40 95 40c50 0 82 -51 82 -105c0 -77 -80 -117 -137 -169c-18 -17 -26 -48 -52 -48c-16 0 -28 15 -28 32l-15 587c10 6 21 8 32 8
s22 -2 32 -8z" fill="currentColor"/>
</g>
<g transform="translate(66.9886, 66.5042)">
<path transform="scale(0.0040, -0.0040)" d="M208 139c69 0 117 -40 117 -99c0 -91 -107 -179 -209 -179c-69 0 -116 40 -116 99c0 91 106 179 208 179z" fill="currentColor"/>
</g>
<g transform="translate(68.2034, 64.5042)">
<rect x="-0.0833" y="-1.5000" width="0.1666" height="3.3382" ry="0.0571" fill="currentColor"/>
</g>
<g transform="translate(65.8386, 66.5042)">
<path transform="scale(0.0040, -0.0040)" d="M33 35l-2 -60v-11c0 -21 2 -43 5 -64c42 38 87 81 87 138c0 32 -13 63 -41 63c-31 0 -48 -32 -49 -66zM32 446l-9 -337c25 26 59 40 95 40c50 0 82 -51 82 -105c0 -77 -80 -117 -137 -169c-18 -17 -26 -48 -52 -48c-16 0 -28 15 -28 32l-15 587c10 6 21 8 32 8
s22 -2 32 -8z" fill="currentColor"/>
</g>
<g transform="translate(70.2368, 66.0042)">
<path transform="scale(0.0040, -0.0040)" d="M208 139c69 0 117 -40 117 -99c0 -91 -107 -179 -209 -179c-69 0 -116 40 -116 99c0 91 106 179 208 179z" fill="currentColor"/>
</g>
<g transform="translate(71.4516, 64.5042)">
<rect x="-0.0833" y="-2.0000" width="0.1666" height="3.3382" ry="0.0571" fill="currentColor"/>
</g>
<g transform="translate(69.0868, 66.0042)">
<path transform="scale(0.0040, -0.0040)" d="M33 35l-2 -60v-11c0 -21 2 -43 5 -64c42 38 87 81 87 138c0 32 -13 63 -41 63c-31 0 -48 -32 -49 -66zM32 446l-9 -337c25 26 59 40 95 40c50 0 82 -51 82 -105c0 -77 -80 -117 -137 -169c-18 -17 -26 -48 -52 -48c-16 0 -28 15 -28 32l-15 587c10 6 21 8 32 8
s22 -2 32 -8z" fill="currentColor"/>
</g>
<g transform="translate(156.6405, 64.5042)">
<rect x="-0.0833" y="-3.0000" width="0.1666" height="3.3382" ry="0.0571" fill="currentColor"/>
</g>
<g transform="translate(73.4851, 65.5042)">
<path transform="scale(0.0040, -0.0040)" d="M208 139c69 0 117 -40 117 -99c0 -91 -107 -179 -209 -179c-69 0 -116 40 -116 99c0 91 106 179 208 179z" fill="currentColor"/>
</g>
<g transform="translate(74.6999, 64.5042)">
<rect x="-0.0833" y="-2.5000" width="0.1666" height="3.3382" ry="0.0571" fill="currentColor"/>
</g>
<g transform="translate(72.3351, 65.5042)">
<path transform="scale(0.0040, -0.0040)" d="M33 35l-2 -60v-11c0 -21 2 -43 5 -64c42 38 87 81 87 138c0 32 -13 63 -41 63c-31 0 -48 -32 -49 -66zM32 446l-9 -337c25 26 59 40 95 40c50 0 82 -51 82 -105c0 -77 -80 -117 -137 -169c-18 -17 -26 -48 -52 -48c-16 0 -28 15 -28 32l-15 587c10 6 21 8 32 8
s22 -2 32 -8z" fill="currentColor"/>
</g>
<g transform="translate(155.4257, 65.0042)">
<path transform="scale(0.0040, -0.0040)" d="M208 139c69 0 117 -40 117 -99c0 -91 -107 -179 -209 -179c-69 0 -116 40 -116 99c0 91 106 179 208 179z" fill="currentColor"/>
</g>
<g transform="translate(76.7334, 65.0042)">
<path transform="scale(0.0040, -0.0040)" d="M208 139c69 0 117 -40 117 -99c0 -91 -107 -179 -209 -179c-69 0 -116 40 -116 99c0 91 106 179 208 179z" fill="currentColor"/>
</g>
<g transform="translate(77.9482, 64.5042)">
<rect x="-0.0833" y="-3.0000" width="0.1666" height="3.3382" ry="0.0571" fill="currentColor"/>
</g>
<g transform="translate(75.5834, 65.0042)">
<path transform="scale(0.0040, -0.0040)" d="M33 35l-2 -60v-11c0 -21 2 -43 5 -64c42 38 87 81 87 138c0 32 -13 63 -41 63c-31 0 -48 -32 -49 -66zM32 446l-9 -337c25 26 59 40 95 40c50 0 82 -51 82 -105c0 -77 -80 -117 -137 -169c-18 -17 -26 -48 -52 -48c-16 0 -28 15 -28 32l-15 587c10 6 21 8 32 8
s22 -2 32 -8z" fill="currentColor"/>
</g>
<g transform="translate(79.9817, 64.5042)">
<path transform="scale(0.0040, -0.0040)" d="M208 139c69 0 117 -40 117 -99c0 -91 -107 -179 -209 -179c-69 0 -116 40 -116 99c0 91 106 179 208 179z" fill="currentColor"/>
</g>
<g transform="translate(80.0650, 64.5042)">
<rect x="-0.0833" y="0.1618" width="0.1666" height="3.1715" ry="0.0571" fill="currentColor"/>
</g>
<g transform="translate(78.8317, 64.5042)">
<path transform="scale(0.0040, -0.0040)" d="M33 35l-2 -60v-11c0 -21 2 -43 5 -64c42 38 87 81 87 138c0 32 -13 63 -41 63c-31 0 -48 -32 -49 -66zM32 446l-9 -337c25 26 59 40 95 40c50 0 82 -51 82 -105c0 -77 -80 -117 -137 -169c-18 -17 -26 -48 -52 -48c-16 0 -28 15 -28 32l-15 587c10 6 21 8 32 8
s22 -2 32 -8z" fill="currentColor"/>
</g>
<g transform="translate(83.2299, 64.0042)">
<path transform="scale(0.0040, -0.0040)" d="M208 139c69 0 117 -40 117 -99c0 -91 -107 -179 -209 -179c-69 0 -116 40 -116 99c0 91 106 179 208 179z" fill="currentColor"/>
</g>
<g transform="translate(83.3132, 64.5042)">
<rect x="-0.0833" y="-0.3382" width="0.1666" height="3.3382" ry="0.0571" fill="currentColor"/>
</g>
<g transform="translate(82.0799, 64.0042)">
<path transform="scale(0.0040, -0.0040)" d="M33 35l-2 -60v-11c0 -21 2 -43 5 -64c42 38 87 81 87 138c0 32 -13 63 -41 63c-31 0 -48 -32 -49 -66zM32 446l-9 -337c25 26 59 40 95 40c50 0 82 -51 82 -105c0 -77 -80 -117 -137 -169c-18 -17 -26 -48 -52 -48c-16 0 -28 15 -28 32l-15 587c10 6 21 8 32 8
s22 -2 32 -8z" fill="currentColor"/>
</g>
<g transform="translate(86.4782, 63.5042)">
<path transform="scale(0.0040, -0.0040)" d="M208 139c69 0 117 -40 117 -99c0 -91 -107 -179 -209 -179c-69 0 -116 40 -116 99c0 91 106 179 208 179z" fill="currentColor"/>
</g>
<g transform="translate(86.5615, 64.5042)">
<rect x="-0.0833" y="-0.8382" width="0.1666" height="3.3382" ry="0.0571" fill="currentColor"/>
</g>
<g transform="translate(85.3282, 63.5042)">
<path transform="scale(0.0040, -0.0040)" d="M33 35l-2 -60v-11c0 -21 2 -43 5 -64c42 38 87 81 87 138c0 32 -13 63 -41 63c-31 0 -48 -32 -49 -66zM32 446l-9 -337c25 26 59 40 95 40c50 0 82 -51 82 -105c0 -77 -80 -117 -137 -169c-18 -17 -26 -48 -52 -48c-16 0 -28 15 -28 32l-15 587c10 6 21 8 32 8
s22 -2 32 -8z" fill="currentColor"/>
</g>
<g transform="translate(152.4905, 64.5042)">
<rect x="-0.0833" y="0.1618" width="0.1666" height="3.1715" ry="0.0571" fill="currentColor"/>
</g>
<g transform="translate(89.5218, 64.0042)">
<path transform="scale(0.0040, -0.0040)" d="M208 139c69 0 117 -40 117 -99c0 -91 -107 -179 -209 -179c-69 0 -116 40 -116 99c0 91 106 179 208 179z" fill="currentColor"/>
</g>
<g transform="translate(89.6051, 64.5042)">
<rect x="-0.0833" y="-0.3382" width="0.1666" height="3.3382" ry="0.0571" fill="currentColor"/>
</g>
<g transform="translate(152.4072, 64.5042)">
<path transform="scale(0.0040, -0.0040)" d="M208 139c69 0 117 -40 117 -99c0 -91 -107 -179 -209 -179c-69 0 -116 40 -116 99c0 91 106 179 208 179z" fill="currentColor"/>
</g>
<g transform="translate(92.5655, 64.5042)">
<path transform="scale(0.0040, -0.0040)" d="M208 139c69 0 117 -40 117 -99c0 -91 -107 -179 -209 -179c-69 0 -116 40 -116 99c0 91 106 179 208 179z" fill="currentColor"/>
</g>
<g transform="translate(92.6488, 64.5042)">
<rect x="-0.0833" y="0.1618" width="0.1666" height="3.1715" ry="0.0571" fill="currentColor"/>
</g>
<g transform="translate(95.5839, 65.0042)">
<path transform="scale(0.0040, -0.0040)" d="M208 139c69 0 117 -40 117 -99c0 -91 -107 -179 -209 -179c-69 0 -116 40 -116 99c0 91 106 179 208 179z" fill="currentColor"/>
</g>
<g transform="translate(96.7987, 64.5042)">
<rect x="-0.0833" y="-3.0000" width="0.1666" height="3.3382" ry="0.0571" fill="currentColor"/>
</g>
<g transform="translate(98.6275, 65.5042)">
<path transform="scale(0.0040, -0.0040)" d="M208 139c69 0 117 -40 117 -99c0 -91 -107 -179 -209 -179c-69 0 -116 40 -116 99c0 91 106 179 208 179z" fill="currentColor"/>
</g>
<g transform="translate(99.8423, 64.5042)">
<rect x="-0.0833" y="-2.5000" width="0.1666" height="3.3382" ry="0.0571" fill="currentColor"/>
</g>
<g transform="translate(101.6712, 66.0042)">
<path transform="scale(0.0040, -0.0040)" d="M208 139c69 0 117 -40 117 -99c0 -91 -107 -179 -209 -179c-69 0 -116 40 -116 99c0 91 106 179 208 179z" fill="currentColor"/>
</g>
<g transform="translate(102.8860, 64.5042)">
<rect x="-0.0833" y="-2.0000" width="0.1666" height="3.3382" ry="0.0571" fill="currentColor"/>
</g>
<g transform="translate(149.4469, 64.5042)">
<rect x="-0.0833" y="-0.3382" width="0.1666" height="3.3382" ry="0.0571" fill="currentColor"/>
</g>
<g transform="translate(104.7148, 66.5042)">
<path transform="scale(0.0040, -0.0040)" d="M208 139c69 0 117 -40 117 -99c0 -91 -107 -179 -209 -179c-69 0 -116 40 -116 99c0 91 106 179 208 179z" fill="currentColor"/>
</g>
<g transform="translate(105.9296, 64.5042)">
<rect x="-0.0833" y="-1.5000" width="0.1666" height="3.3382" ry="0.0571" fill="currentColor"/>
</g>
<g transform="translate(149.3636, 64.0042)">
<path transform="scale(0.0040, -0.0040)" d="M208 139c69 0 117 -40 117 -99c0 -91 -107 -179 -209 -179c-69 0 -116 40 -116 99c0 91 106 179 208 179z" fill="currentColor"/>
</g>
<g transform="translate(107.7585, 67.0042)">
<path transform="scale(0.0040, -0.0040)" d="M208 139c69 0 117 -40 117 -99c0 -91 -107 -179 -209 -179c-69 0 -116 40 -116 99c0 91 106 179 208 179z" fill="currentColor"/>
</g>
<g transform="translate(108.9732, 64.5042)">
<rect x="-0.0833" y="-1.0000" width="0.1666" height="3.3382" ry="0.0571" fill="currentColor"/>
</g>
<g transform="translate(113.8032, 65.5042)">
<path transform="scale(0.0040, -0.0040)" d="M208 139c69 0 117 -40 117 -99c0 -91 -107 -179 -209 -179c-69 0 -116 40 -116 99c0 91 106 179 208 179z" fill="currentColor"/>
</g>
<g transform="translate(113.8032, 59.4401)">
<text font-family="serif" font-size="2.1998" text-anchor="start" fill="currentColor">
<tspan>Gb dorian</tspan>
</text>
</g>
<g transform="translate(115.0179, 64.5042)">
<rect x="-0.0833" y="-2.5000" width="0.1666" height="3.3382" ry="0.0571" fill="currentColor"/>
</g>
<g transform="translate(112.6532, 65.5042)">
<path transform="scale(0.0040, -0.0040)" d="M33 35l-2 -60v-11c0 -21 2 -43 5 -64c42 38 87 81 87 138c0 32 -13 63 -41 63c-31 0 -48 -32 -49 -66zM32 446l-9 -337c25 26 59 40 95 40c50 0 82 -51 82 -105c0 -77 -80 -117 -137 -169c-18 -17 -26 -48 -52 -48c-16 0 -28 15 -28 32l-15 587c10 6 21 8 32 8
s22 -2 32 -8z" fill="currentColor"/>
</g>
<g transform="translate(117.0514, 65.0042)">
<path transform="scale(0.0040, -0.0040)" d="M208 139c69 0 117 -40 117 -99c0 -91 -107 -179 -209 -179c-69 0 -116 40 -116 99c0 91 106 179 208 179z" fill="currentColor"/>
</g>
<g transform="translate(118.2662, 64.5042)">
<rect x="-0.0833" y="-3.0000" width="0.1666" height="3.3382" ry="0.0571" fill="currentColor"/>
</g>
<g transform="translate(115.9014, 65.0042)">
<path transform="scale(0.0040, -0.0040)" d="M33 35l-2 -60v-11c0 -21 2 -43 5 -64c42 38 87 81 87 138c0 32 -13 63 -41 63c-31 0 -48 -32 -49 -66zM32 446l-9 -337c25 26 59 40 95 40c50 0 82 -51 82 -105c0 -77 -80 -117 -137 -169c-18 -17 -26 -48 -52 -48c-16 0 -28 15 -28 32l-15 587c10 6 21 8 32 8
s22 -2 32 -8z" fill="currentColor"/>
</g>
<g transform="translate(146.4033, 64.5042)">
<rect x="-0.0833" y="-0.8382" width="0.1666" height="3.3382" ry="0.0571" fill="currentColor"/>
</g>
<g transform="translate(120.9477, 64.5042)">
<path transform="scale(0.0040, -0.0040)" d="M208 139c69 0 117 -40 117 -99c0 -91 -107 -179 -209 -179c-69 0 -116 40 -116 99c0 91 106 179 208 179z" fill="currentColor"/>
</g>
<g transform="translate(121.0310, 64.5042)">
<rect x="-0.0833" y="0.1618" width="0.1666" height="3.1715" ry="0.0571" fill="currentColor"/>
</g>
<g transform="translate(119.1497, 64.5042)">
<path transform="scale(0.0040, -0.0040)" d="M195 35l-1 -60c0 -4 -1 -7 -1 -11c0 -21 2 -43 5 -64c41 38 81 81 81 137c0 31 -11 64 -38 64c-30 0 -45 -33 -46 -66zM21 35l-1 -60v-11c0 -23 2 -46 5 -68c37 39 67 88 67 142c0 30 -6 63 -32 63c-28 0 -38 -34 -39 -66zM32 446l-9 -337c16 25 43 40 73 40
c16 0 31 -5 43 -15l-8 312c10 6 20 8 31 8s22 -2 32 -8l-8 -337c24 25 57 40 92 40c51 0 84 -50 84 -104c0 -77 -80 -118 -137 -170c-18 -17 -26 -48 -52 -48c-16 0 -28 15 -28 32l-2 104c-25 -31 -59 -58 -87 -88c-16 -17 -21 -48 -45 -48c-16 0 -28 15 -28 32l-15 587
c10 6 21 8 32 8s22 -2 32 -8z" fill="currentColor"/>
</g>
<g transform="translate(146.3200, 63.5042)">
<path transform="scale(0.0040, -0.0040)" d="M208 139c69 0 117 -40 117 -99c0 -91 -107 -179 -209 -179c-69 0 -116 40 -116 99c0 91 106 179 208 179z" fill="currentColor"/>
</g>
<g transform="translate(124.1960, 64.0042)">
<path transform="scale(0.0040, -0.0040)" d="M208 139c69 0 117 -40 117 -99c0 -91 -107 -179 -209 -179c-69 0 -116 40 -116 99c0 91 106 179 208 179z" fill="currentColor"/>
</g>
<g transform="translate(124.2793, 64.5042)">
<rect x="-0.0833" y="-0.3382" width="0.1666" height="3.3382" ry="0.0571" fill="currentColor"/>
</g>
<g transform="translate(123.0460, 64.0042)">
<path transform="scale(0.0040, -0.0040)" d="M33 35l-2 -60v-11c0 -21 2 -43 5 -64c42 38 87 81 87 138c0 32 -13 63 -41 63c-31 0 -48 -32 -49 -66zM32 446l-9 -337c25 26 59 40 95 40c50 0 82 -51 82 -105c0 -77 -80 -117 -137 -169c-18 -17 -26 -48 -52 -48c-16 0 -28 15 -28 32l-15 587c10 6 21 8 32 8
s22 -2 32 -8z" fill="currentColor"/>
</g>
<g transform="translate(127.4442, 63.5042)">
<path transform="scale(0.0040, -0.0040)" d="M208 139c69 0 117 -40 117 -99c0 -91 -107 -179 -209 -179c-69 0 -116 40 -116 99c0 91 106 179 208 179z" fill="currentColor"/>
</g>
<g transform="translate(127.5275, 64.5042)">
<rect x="-0.0833" y="-0.8382" width="0.1666" height="3.3382" ry="0.0571" fill="currentColor"/>
</g>
<g transform="translate(126.2942, 63.5042)">
<path transform="scale(0.0040, -0.0040)" d="M33 35l-2 -60v-11c0 -21 2 -43 5 -64c42 38 87 81 87 138c0 32 -13 63 -41 63c-31 0 -48 -32 -49 -66zM32 446l-9 -337c25 26 59 40 95 40c50 0 82 -51 82 -105c0 -77 -80 -117 -137 -169c-18 -17 -26 -48 -52 -48c-16 0 -28 15 -28 32l-15 587c10 6 21 8 32 8
s22 -2 32 -8z" fill="currentColor"/>
</g>
<g transform="translate(130.6925, 63.0042)">
<path transform="scale(0.0040, -0.0040)" d="M208 139c69 0 117 -40 117 -99c0 -91 -107 -179 -209 -179c-69 0 -116 40 -116 99c0 91 106 179 208 179z" fill="currentColor"/>
</g>
<g transform="translate(130.7758, 64.5042)">
<rect x="-0.0833" y="-1.3382" width="0.1666" height="3.3382" ry="0.0571" fill="currentColor"/>
</g>
<g transform="translate(129.5425, 63.0042)">
<path transform="scale(0.0040, -0.0040)" d="M33 35l-2 -60v-11c0 -21 2 -43 5 -64c42 38 87 81 87 138c0 32 -13 63 -41 63c-31 0 -48 -32 -49 -66zM32 446l-9 -337c25 26 59 40 95 40c50 0 82 -51 82 -105c0 -77 -80 -117 -137 -169c-18 -17 -26 -48 -52 -48c-16 0 -28 15 -28 32l-15 587c10 6 21 8 32 8
s22 -2 32 -8z" fill="currentColor"/>
</g>
<g transform="translate(133.9408, 62.5042)">
<path transform="scale(0.0040, -0.0040)" d="M208 139c69 0 117 -40 117 -99c0 -91 -107 -179 -209 -179c-69 0 -116 40 -116 99c0 91 106 179 208 179z" fill="currentColor"/>
</g>
<g transform="translate(134.0241, 64.5042)">
<rect x="-0.0833" y="-1.8382" width="0.1666" height="3.3382" ry="0.0571" fill="currentColor"/>
</g>
<g transform="translate(132.7908, 62.5042)">
<path transform="scale(0.0040, -0.0040)" d="M33 35l-2 -60v-11c0 -21 2 -43 5 -64c42 38 87 81 87 138c0 32 -13 63 -41 63c-31 0 -48 -32 -49 -66zM32 446l-9 -337c25 26 59 40 95 40c50 0 82 -51 82 -105c0 -77 -80 -117 -137 -169c-18 -17 -26 -48 -52 -48c-16 0 -28 15 -28 32l-15 587c10 6 21 8 32 8
s22 -2 32 -8z" fill="currentColor"/>
</g>
<g transform="translate(143.3596, 64.5042)">
<rect x="-0.0833" y="-1.3382" width="0.1666" height="3.3382" ry="0.0571" fill="currentColor"/>
</g>
<g transform="translate(137.1890, 62.0042)">
<path transform="scale(0.0040, -0.0040)" d="M208 139c69 0 117 -40 117 -99c0 -91 -107 -179 -209 -179c-69 0 -116 40 -116 99c0 91 106 179 208 179z" fill="currentColor"/>
</g>
<g transform="translate(137.2724, 64.5042)">
<rect x="-0.0833" y="-2.3382" width="0.1666" height="3.3382" ry="0.0571" fill="currentColor"/>
</g>
<g transform="translate(136.0390, 62.0042)">
<path transform="scale(0.0040, -0.0040)" d="M33 35l-2 -60v-11c0 -21 2 -43 5 -64c42 38 87 81 87 138c0 32 -13 63 -41 63c-31 0 -48 -32 -49 -66zM32 446l-9 -337c25 26 59 40 95 40c50 0 82 -51 82 -105c0 -77 -80 -117 -137 -169c-18 -17 -26 -48 -52 -48c-16 0 -28 15 -28 32l-15 587c10 6 21 8 32 8
s22 -2 32 -8z" fill="currentColor"/>
</g>
<g transform="translate(143.2763, 63.0042)">
<path transform="scale(0.0040, -0.0040)" d="M208 139c69 0 117 -40 117 -99c0 -91 -107 -179 -209 -179c-69 0 -116 40 -116 99c0 91 106 179 208 179z" fill="currentColor"/>
</g>
<g transform="translate(140.2327, 62.5042)">
<path transform="scale(0.0040, -0.0040)" d="M208 139c69 0 117 -40 117 -99c0 -91 -107 -179 -209 -179c-69 0 -116 40 -116 99c0 91 106 179 208 179z" fill="currentColor"/>
</g>
<g transform="translate(140.3160, 64.5042)">
<rect x="-0.0833" y="-1.8382" width="0.1666" height="3.3382" ry="0.0571" fill="currentColor"/>
</g>
<g transform="translate(59.7752, 236.0895)">
<a xlink:href="https://lilypond.org/">
<rect x="0.0000" y="-0.4749" width="51.1662" height="2.0023" fill="none" stroke="none" stroke-width="0.0"/>
</a>
</g>
<g transform="translate(59.7752, 236.0895)">
<text font-family="serif" font-size="2.1998" text-anchor="start" fill="currentColor">
<tspan>Music engraving by LilyPond 2.23.9www.lilypond.org</tspan>
</text>
</g>
</svg>
