<svg xmlns="http://www.w3.org/2000/svg" xmlns:xlink="http://www.w3.org/1999/xlink" version="1.2" width="28.05mm" height="11.60mm" viewBox="0.0000 -0.0000 17.7376 7.3375">
<style text="style/css">
<![CDATA[
tspan { white-space: pre; }
]]>
</style>
<g color="rgb(49.8039%, 49.8039%, 49.8039%)">
<line transform="translate(0.0000, 5.2130)" stroke-linejoin="round" stroke-linecap="round" stroke-width="0.1073" stroke="currentColor" x1="0.0537" y1="-0.0000" x2="17.6019" y2="-0.0000"/>
</g>
<rect transform="translate(17.4517, 5.2130)" x="0.0000" y="-1.0537" width="0.2039" height="2.1073" ry="0.0000" fill="currentColor"/>
<rect transform="translate(11.6887, 5.2130)" x="-0.0697" y="-3.0000" width="0.1395" height="2.8206" ry="0.0444" fill="currentColor"/>
<line transform="translate(6.8189, 0.5880)" stroke-linejoin="round" stroke-linecap="round" stroke-width="0.1717" stroke="currentColor" x1="10.8328" y1="-0.0000" x2="10.8328" y2="0.7000"/>
<line transform="translate(6.8189, 0.5880)" stroke-linejoin="round" stroke-linecap="round" stroke-width="0.1717" stroke="currentColor" x1="-0.2000" y1="-0.0000" x2="-0.2000" y2="0.7000"/>
<line transform="translate(6.8189, 0.5880)" stroke-linejoin="round" stroke-linecap="round" stroke-width="0.1717" stroke="currentColor" x1="10.8328" y1="-0.0000" x2="7.0735" y2="-0.0000"/>
<line transform="translate(6.8189, 0.5880)" stroke-linejoin="round" stroke-linecap="round" stroke-width="0.1717" stroke="currentColor" x1="-0.2000" y1="-0.0000" x2="3.7593" y2="-0.0000"/>
<path transform="translate(8.0556, 5.2130) scale(0.0040, -0.0040)" d="M215 137c57 0 111 -29 111 -92c0 -71 -54 -120 -101 -148c-35 -21 -74 -34 -114 -34c-57 0 -111 29 -111 92c0 71 54 120 101 148c35 21 74 34 114 34z" fill="currentColor"/>
<rect transform="translate(9.2887, 5.2130)" x="-0.0697" y="-3.0000" width="0.1395" height="2.8206" ry="0.0444" fill="currentColor"/>
<path transform="translate(10.4556, 5.2130) scale(0.0040, -0.0040)" d="M215 137c57 0 111 -29 111 -92c0 -71 -54 -120 -101 -148c-35 -21 -74 -34 -114 -34c-57 0 -111 29 -111 92c0 71 54 120 101 148c35 21 74 34 114 34z" fill="currentColor"/>
<path transform="translate(12.8556, 5.2130) scale(0.0040, -0.0040)" d="M215 137c57 0 111 -29 111 -92c0 -71 -54 -120 -101 -148c-35 -21 -74 -34 -114 -34c-57 0 -111 29 -111 92c0 71 54 120 101 148c35 21 74 34 114 34z" fill="currentColor"/>
<rect transform="translate(14.0887, 5.2130)" x="-0.0697" y="-3.0000" width="0.1395" height="2.8206" ry="0.0444" fill="currentColor"/>
<polygon transform="translate(6.8189, 2.2130)" stroke-linejoin="round" stroke-linecap="round" stroke-width="0.0889" fill="currentColor" stroke="currentColor" points="9.6950 -0.3306 9.6950 0.3306 0.0444 0.3306 0.0444 -0.3306"/>
<polygon transform="translate(6.8189, 3.4185)" stroke-linejoin="round" stroke-linecap="round" stroke-width="0.0889" fill="currentColor" stroke="currentColor" points="9.6950 -0.3306 9.6950 0.3306 0.0444 0.3306 0.0444 -0.3306"/>
<text transform="translate(10.9782, 1.1381)" font-family="serif" font-style="italic" font-size="1.7462" text-anchor="start" fill="currentColor">
<tspan>5:4</tspan>
</text>
<path transform="translate(5.6556, 5.2130) scale(0.0040, -0.0040)" d="M215 137c57 0 111 -29 111 -92c0 -71 -54 -120 -101 -148c-35 -21 -74 -34 -114 -34c-57 0 -111 29 -111 92c0 71 54 120 101 148c35 21 74 34 114 34z" fill="currentColor"/>
<path transform="translate(1.5311, 5.2130) scale(0.0040, -0.0040)" d="M194 120h120c0 -49 29 -95 75 -95c8 0 12 -7 12 -13s-4 -12 -12 -12c-45 0 -90 13 -135 13s-90 -13 -135 -13c-8 0 -12 6 -12 12s4 13 12 13c46 0 75 46 75 95zM203 301c22 15 45 30 61 51c12 15 19 34 27 51c2 4 5 6 9 6c6 0 14 -6 14 -15v-238h74c10 0 16 -8 16 -16
s-6 -15 -16 -15h-74v-5h-120v5h-163c-24 0 -33 15 -33 24c0 3 1 6 2 7c80 92 134 205 134 327c0 11 8 20 17 17c24 -7 48 -13 73 -13s48 6 72 13c2 1 4 1 6 1c9 0 14 -7 14 -13c0 -2 0 -3 -2 -5l-283 -327h163v122c0 9 2 18 9 23z" fill="currentColor"/>
<g transform="translate(1.0000, 7.3375)" >
<path transform="scale(0.0040, -0.0040)" d="M180 487c19 0 60 31 60 -4v-363h-120v238c0 13 -9 19 -17 19c-4 0 -9 -2 -11 -6l-64 -134c-3 -6 -9 -9 -14 -9c-8 0 -16 6 -16 15c0 2 1 5 2 7l120 250c3 6 10 3 17 0c14 -6 28 -13 43 -13zM240 120c0 -49 29 -95 75 -95c8 0 12 -7 12 -13s-4 -12 -12 -12
c-45 0 -90 13 -135 13s-90 -13 -135 -13c-8 0 -12 6 -12 12s4 13 12 13c46 0 75 46 75 95h60h60z" fill="currentColor"/>

<path transform="translate(1.2899, 0.0000) scale(0.0040, -0.0040)" d="M172 256c-49 0 -52 -40 -52 -94v-22v-21c0 -54 3 -94 52 -94c56 0 59 50 59 115s-3 116 -59 116zM120 267c17 7 34 14 52 14c102 0 171 -46 171 -141s-69 -140 -171 -140c-112 0 -172 124 -172 250c0 129 74 250 192 250c71 0 139 -40 139 -105c0 -36 -29 -65 -65 -65
s-65 29 -65 65c0 23 39 26 39 49c0 21 -24 31 -48 31c-64 0 -74 -62 -74 -134c0 -24 2 -49 2 -74z" fill="currentColor"/>
</g>
<rect transform="translate(6.8887, 5.2130)" x="-0.0697" y="-3.0000" width="0.1395" height="2.8206" ry="0.0444" fill="currentColor"/>
<path transform="translate(15.2556, 5.2130) scale(0.0040, -0.0040)" d="M215 137c57 0 111 -29 111 -92c0 -71 -54 -120 -101 -148c-35 -21 -74 -34 -114 -34c-57 0 -111 29 -111 92c0 71 54 120 101 148c35 21 74 34 114 34z" fill="currentColor"/>
<rect transform="translate(16.4887, 5.2130)" x="-0.0697" y="-3.0000" width="0.1395" height="2.8206" ry="0.0444" fill="currentColor"/>
</svg>
