<svg xmlns="http://www.w3.org/2000/svg" xmlns:xlink="http://www.w3.org/1999/xlink" version="1.2" width="210.00mm" height="297.00mm" viewBox="0.0000 -0.0000 119.5016 169.0094">
<style type="text/css">
<![CDATA[
tspan { white-space: pre; }
]]>
</style>
<g transform="translate(5.6906, 11.0853)">
<rect x="98.4644" y="-0.1000" width="1.9563" height="0.2000" ry="0.1000" fill="currentColor"/>
</g>
<g transform="translate(5.6906, 11.0853)">
<rect x="16.9098" y="-0.1000" width="1.9563" height="0.2000" ry="0.1000" fill="currentColor"/>
</g>
<g transform="translate(14.2264, 10.0853)">
<line stroke-linejoin="round" stroke-linecap="round" stroke-width="0.1000" stroke="currentColor" x1="0.0500" y1="0" x2="93.0547" y2="0"/>
</g>
<g transform="translate(14.2264, 9.0853)">
<line stroke-linejoin="round" stroke-linecap="round" stroke-width="0.1000" stroke="currentColor" x1="0.0500" y1="0" x2="93.0547" y2="0"/>
</g>
<g transform="translate(14.2264, 8.0853)">
<line stroke-linejoin="round" stroke-linecap="round" stroke-width="0.1000" stroke="currentColor" x1="0.0500" y1="0" x2="93.0547" y2="0"/>
</g>
<g transform="translate(14.2264, 7.0853)">
<line stroke-linejoin="round" stroke-linecap="round" stroke-width="0.1000" stroke="currentColor" x1="0.0500" y1="0" x2="93.0547" y2="0"/>
</g>
<g transform="translate(14.2264, 6.0853)">
<line stroke-linejoin="round" stroke-linecap="round" stroke-width="0.1000" stroke="currentColor" x1="0.0500" y1="0" x2="93.0547" y2="0"/>
</g>
<g transform="translate(107.1411, 3.8453)">
<rect x="0.0000" y="6.2900" width="0.1900" height="5.6850" ry="0.0000" fill="currentColor"/>
</g>
<g transform="translate(5.6906, 20.8203)">
<rect x="59.5612" y="-0.1000" width="1.9563" height="0.2000" ry="0.1000" fill="currentColor"/>
</g>
<g transform="translate(5.6906, 20.8203)">
<rect x="55.8130" y="-0.1000" width="1.9563" height="0.2000" ry="0.1000" fill="currentColor"/>
</g>
<g transform="translate(14.2264, 19.8203)">
<line stroke-linejoin="round" stroke-linecap="round" stroke-width="0.1000" stroke="currentColor" x1="0.0500" y1="0" x2="93.0547" y2="0"/>
</g>
<g transform="translate(14.2264, 18.8203)">
<line stroke-linejoin="round" stroke-linecap="round" stroke-width="0.1000" stroke="currentColor" x1="0.0500" y1="0" x2="93.0547" y2="0"/>
</g>
<g transform="translate(14.2264, 17.8203)">
<line stroke-linejoin="round" stroke-linecap="round" stroke-width="0.1000" stroke="currentColor" x1="0.0500" y1="0" x2="93.0547" y2="0"/>
</g>
<g transform="translate(14.2264, 16.8203)">
<line stroke-linejoin="round" stroke-linecap="round" stroke-width="0.1000" stroke="currentColor" x1="0.0500" y1="0" x2="93.0547" y2="0"/>
</g>
<g transform="translate(14.2264, 15.8203)">
<line stroke-linejoin="round" stroke-linecap="round" stroke-width="0.1000" stroke="currentColor" x1="0.0500" y1="0" x2="93.0547" y2="0"/>
</g>
<g transform="translate(107.1411, 17.8203)">
<rect x="0.0000" y="-2.0500" width="0.1900" height="4.0500" ry="0.0000" fill="currentColor"/>
</g>
<g transform="translate(107.1411, 8.0853)">
<rect x="0.0000" y="-2.0000" width="0.1900" height="4.0500" ry="0.0000" fill="currentColor"/>
</g>
<g transform="translate(64.4879, 3.8453)">
<rect x="0.0000" y="6.2900" width="0.1900" height="5.6850" ry="0.0000" fill="currentColor"/>
</g>
<g transform="translate(64.4879, 17.8203)">
<rect x="0.0000" y="-2.0500" width="0.1900" height="4.0500" ry="0.0000" fill="currentColor"/>
</g>
<g transform="translate(64.4879, 8.0853)">
<rect x="0.0000" y="-2.0000" width="0.1900" height="4.0500" ry="0.0000" fill="currentColor"/>
</g>
<g transform="translate(98.1426, 5.0853)">
<polygon stroke-linejoin="round" stroke-linecap="round" stroke-width="0.0800" fill="currentColor" stroke="currentColor" points="7.6026 0.9900 7.6026 1.3900 0.0400 0.2000 0.0400 -0.2000"/>
</g>
<g transform="translate(98.1426, 5.8953)">
<polygon stroke-linejoin="round" stroke-linecap="round" stroke-width="0.0800" fill="currentColor" stroke="currentColor" points="7.6026 0.9900 7.6026 1.3900 0.0400 0.2000 0.0400 -0.2000"/>
</g>
<g transform="translate(22.9264, 11.0853)">
<path transform="scale(0.0040, -0.0040)" d="M218 136c66 0 108 -36 108 -89c0 -89 -113 -183 -218 -183c-66 0 -108 36 -108 89c0 89 113 183 218 183z" fill="currentColor"/>
</g>
<g transform="translate(23.5785, 12.9266)">
<path transform="scale(0.0040, -0.0040)" d="M-211 88c-8 2 -14 9 -14 18c0 13 12 21 23 18l408 -105c13 0 19 -6 19 -19s-6 -19 -19 -19l-408 -105c-11 -3 -23 5 -23 18c0 9 6 16 14 18l251 65l140 23l-140 23z" fill="currentColor"/>
</g>
<g transform="translate(15.0264, 9.0853)">
<path transform="scale(0.0040, -0.0040)" d="M266 -635h-6c-108 0 -195 88 -195 197c0 58 53 103 112 103c54 0 95 -47 95 -103c0 -52 -43 -95 -95 -95c-11 0 -21 2 -31 6c26 -39 68 -65 117 -65h4zM461 -203c68 24 113 90 113 164c0 90 -66 179 -173 190c19 -89 48 -242 60 -354zM74 28c0 -145 141 -247 264 -247
c1 0 47 0 82 6c-7 64 -29 203 -63 364c-79 -8 -124 -61 -124 -119c0 -44 25 -91 81 -123c5 -5 7 -10 7 -15c0 -11 -10 -22 -22 -22c-15 0 -126 62 -126 187c0 88 58 174 160 197c-14 58 -29 117 -46 175c-107 -121 -213 -243 -213 -403zM250 553c-29 96 -52 170 -52 346
c0 115 55 224 149 292c6 5 14 5 20 0c68 -80 133 -245 133 -358c0 -143 -86 -255 -180 -364c21 -68 39 -138 56 -207c2 0 7 1 13 1c155 0 256 -128 256 -261c0 -113 -74 -212 -180 -246c3 -35 5 -70 5 -105c0 -19 -1 -39 -2 -58c-7 -119 -88 -225 -202 -228l1 43
c93 2 153 92 159 191c1 18 2 37 2 55c0 31 -1 61 -4 92c-5 -1 -44 -8 -89 -8c-193 0 -333 180 -333 374c0 177 131 306 248 441zM428 916c0 34 1 66 -20 129c-99 -48 -162 -149 -162 -259c0 -52 12 -115 36 -194c80 97 146 198 146 324z" fill="currentColor"/>
</g>
<g transform="translate(19.2264, 8.0853)">
<path transform="scale(0.0040, -0.0040)" d="M250 262c116 0 176 -106 176 -163c0 -40 -30 -72 -67 -72c-31 0 -75 25 -75 75c0 38 27 77 72 77c4 0 9 0 14 -1c-28 37 -72 59 -120 59c-106 0 -113 -73 -113 -186v-51v-51c0 -113 7 -187 113 -187c80 0 139 70 158 151c2 7 7 10 12 10c6 0 13 -4 13 -12
c0 -22 -50 -174 -183 -174c-59 0 -250 19 -250 263c0 62 18 262 250 262z" fill="currentColor"/>
</g>
<g transform="translate(22.9264, 16.8203)">
<path transform="scale(0.0040, -0.0040)" d="M218 136c66 0 108 -36 108 -89c0 -89 -113 -183 -218 -183c-66 0 -108 36 -108 89c0 89 113 183 218 183z" fill="currentColor"/>
</g>
<g transform="translate(15.0264, 18.8203)">
<path transform="scale(0.0040, -0.0040)" d="M266 -635h-6c-108 0 -195 88 -195 197c0 58 53 103 112 103c54 0 95 -47 95 -103c0 -52 -43 -95 -95 -95c-11 0 -21 2 -31 6c26 -39 68 -65 117 -65h4zM461 -203c68 24 113 90 113 164c0 90 -66 179 -173 190c19 -89 48 -242 60 -354zM74 28c0 -145 141 -247 264 -247
c1 0 47 0 82 6c-7 64 -29 203 -63 364c-79 -8 -124 -61 -124 -119c0 -44 25 -91 81 -123c5 -5 7 -10 7 -15c0 -11 -10 -22 -22 -22c-15 0 -126 62 -126 187c0 88 58 174 160 197c-14 58 -29 117 -46 175c-107 -121 -213 -243 -213 -403zM250 553c-29 96 -52 170 -52 346
c0 115 55 224 149 292c6 5 14 5 20 0c68 -80 133 -245 133 -358c0 -143 -86 -255 -180 -364c21 -68 39 -138 56 -207c2 0 7 1 13 1c155 0 256 -128 256 -261c0 -113 -74 -212 -180 -246c3 -35 5 -70 5 -105c0 -19 -1 -39 -2 -58c-7 -119 -88 -225 -202 -228l1 43
c93 2 153 92 159 191c1 18 2 37 2 55c0 31 -1 61 -4 92c-5 -1 -44 -8 -89 -8c-193 0 -333 180 -333 374c0 177 131 306 248 441zM428 916c0 34 1 66 -20 129c-99 -48 -162 -149 -162 -259c0 -52 12 -115 36 -194c80 97 146 198 146 324z" fill="currentColor"/>
</g>
<g transform="translate(19.2264, 17.8203)">
<path transform="scale(0.0040, -0.0040)" d="M250 262c116 0 176 -106 176 -163c0 -40 -30 -72 -67 -72c-31 0 -75 25 -75 75c0 38 27 77 72 77c4 0 9 0 14 -1c-28 37 -72 59 -120 59c-106 0 -113 -73 -113 -186v-51v-51c0 -113 7 -187 113 -187c80 0 139 70 158 151c2 7 7 10 12 10c6 0 13 -4 13 -12
c0 -22 -50 -174 -183 -174c-59 0 -250 19 -250 263c0 62 18 262 250 262z" fill="currentColor"/>
</g>
<g transform="translate(24.1656, 8.0853)">
<rect x="-0.0650" y="-1.8201" width="0.1300" height="4.6340" ry="0.0400" fill="currentColor"/>
</g>
<g transform="translate(24.1656, 17.8203)">
<rect x="-0.0650" y="-3.4872" width="0.1300" height="2.3011" ry="0.0400" fill="currentColor"/>
</g>
<g transform="translate(101.9768, 8.0853)">
<path stroke-width="0.0800" stroke-linejoin="round" stroke-linecap="round" stroke="currentColor" fill="currentColor" d="M0.4909 3.5450C0.9022 4.4415 2.0794 4.9115 2.9951 4.5450L2.9951 4.5450C2.1239 4.8001 0.9467 4.3300 0.4909 3.5450z"/>
</g>
<g transform="translate(25.4306, 9.5853)">
<path transform="scale(0.0040, -0.0040)" d="M218 136c66 0 108 -36 108 -89c0 -89 -113 -183 -218 -183c-66 0 -108 36 -108 89c0 89 113 183 218 183z" fill="currentColor"/>
</g>
<g transform="translate(26.0827, 10.5853)">
<path transform="scale(0.0040, -0.0040)" d="M-50 0c0 28 22 50 50 50s50 -22 50 -50s-22 -50 -50 -50s-50 22 -50 50z" fill="currentColor"/>
</g>
<g transform="translate(25.4306, 18.3203)">
<path transform="scale(0.0040, -0.0040)" d="M218 136c66 0 108 -36 108 -89c0 -89 -113 -183 -218 -183c-66 0 -108 36 -108 89c0 89 113 183 218 183z" fill="currentColor"/>
</g>
<g transform="translate(26.6698, 8.0853)">
<rect x="-0.0650" y="-2.2100" width="0.1300" height="3.5239" ry="0.0400" fill="currentColor"/>
</g>
<g transform="translate(26.6698, 17.8203)">
<rect x="-0.0650" y="-2.9957" width="0.1300" height="3.3096" ry="0.0400" fill="currentColor"/>
</g>
<g transform="translate(88.1258, 15.8203)">
<polygon stroke-linejoin="round" stroke-linecap="round" stroke-width="0.0800" fill="currentColor" stroke="currentColor" points="7.6026 -1.7000 7.6026 -1.3000 0.0400 0.2000 0.0400 -0.2000"/>
</g>
<g transform="translate(88.1258, 16.6303)">
<polygon stroke-linejoin="round" stroke-linecap="round" stroke-width="0.0800" fill="currentColor" stroke="currentColor" points="7.6026 -1.7000 7.6026 -1.3000 0.0400 0.2000 0.0400 -0.2000"/>
</g>
<g transform="translate(27.9348, 9.0853)">
<path transform="scale(0.0040, -0.0040)" d="M218 136c66 0 108 -36 108 -89c0 -89 -113 -183 -218 -183c-66 0 -108 36 -108 89c0 89 113 183 218 183z" fill="currentColor"/>
</g>
<g transform="translate(28.5869, 12.4701)">
<path transform="scale(0.0040, -0.0040)" d="M-211 88c-8 2 -14 9 -14 18c0 13 12 21 23 18l408 -105c13 0 19 -6 19 -19s-6 -19 -19 -19l-408 -105c-11 -3 -23 5 -23 18c0 9 6 16 14 18l251 65l140 23l-140 23z" fill="currentColor"/>
</g>
<g transform="translate(27.9348, 18.8203)">
<path transform="scale(0.0040, -0.0040)" d="M218 136c66 0 108 -36 108 -89c0 -89 -113 -183 -218 -183c-66 0 -108 36 -108 89c0 89 113 183 218 183z" fill="currentColor"/>
</g>
<g transform="translate(29.1740, 8.0853)">
<rect x="-0.0650" y="-2.6000" width="0.1300" height="3.4139" ry="0.0400" fill="currentColor"/>
</g>
<g transform="translate(29.1740, 17.8203)">
<rect x="-0.0650" y="-2.5043" width="0.1300" height="3.3181" ry="0.0400" fill="currentColor"/>
</g>
<g transform="translate(88.1258, 5.0853)">
<polygon stroke-linejoin="round" stroke-linecap="round" stroke-width="0.0800" fill="currentColor" stroke="currentColor" points="7.6026 0.9900 7.6026 1.3900 0.0400 0.2000 0.0400 -0.2000"/>
</g>
<g transform="translate(88.1258, 5.8953)">
<polygon stroke-linejoin="round" stroke-linecap="round" stroke-width="0.0800" fill="currentColor" stroke="currentColor" points="7.6026 0.9900 7.6026 1.3900 0.0400 0.2000 0.0400 -0.2000"/>
</g>
<g transform="translate(30.4390, 8.5853)">
<path transform="scale(0.0040, -0.0040)" d="M218 136c66 0 108 -36 108 -89c0 -89 -113 -183 -218 -183c-66 0 -108 36 -108 89c0 89 113 183 218 183z" fill="currentColor"/>
</g>
<g transform="translate(30.4390, 19.3203)">
<path transform="scale(0.0040, -0.0040)" d="M218 136c66 0 108 -36 108 -89c0 -89 -113 -183 -218 -183c-66 0 -108 36 -108 89c0 89 113 183 218 183z" fill="currentColor"/>
</g>
<g transform="translate(31.6782, 8.0853)">
<rect x="-0.0650" y="-2.9899" width="0.1300" height="3.3038" ry="0.0400" fill="currentColor"/>
</g>
<g transform="translate(31.6782, 17.8203)">
<rect x="-0.0650" y="-2.0128" width="0.1300" height="3.3267" ry="0.0400" fill="currentColor"/>
</g>
<g transform="translate(91.9600, 8.0853)">
<path stroke-width="0.0800" stroke-linejoin="round" stroke-linecap="round" stroke="currentColor" fill="currentColor" d="M0.6521 3.1950C2.1612 4.4965 6.6556 4.4965 8.1647 3.1950L8.1647 3.1950C6.6556 4.3765 2.1612 4.3765 0.6521 3.1950z"/>
</g>
<g transform="translate(32.9432, 10.5853)">
<path transform="scale(0.0040, -0.0040)" d="M218 136c66 0 108 -36 108 -89c0 -89 -113 -183 -218 -183c-66 0 -108 36 -108 89c0 89 113 183 218 183z" fill="currentColor"/>
</g>
<g transform="translate(32.9432, 17.3203)">
<path transform="scale(0.0040, -0.0040)" d="M218 136c66 0 108 -36 108 -89c0 -89 -113 -183 -218 -183c-66 0 -108 36 -108 89c0 89 113 183 218 183z" fill="currentColor"/>
</g>
<g transform="translate(34.1824, 8.0853)">
<rect x="-0.0650" y="-1.8193" width="0.1300" height="4.1332" ry="0.0400" fill="currentColor"/>
</g>
<g transform="translate(34.1824, 17.8203)">
<rect x="-0.0650" y="-3.4883" width="0.1300" height="2.8022" ry="0.0400" fill="currentColor"/>
</g>
<g transform="translate(77.4389, 15.0103)">
<polygon stroke-linejoin="round" stroke-linecap="round" stroke-width="0.0800" fill="currentColor" stroke="currentColor" points="8.2726 -1.5800 8.2726 -1.1800 0.0400 0.2000 0.0400 -0.2000"/>
</g>
<g transform="translate(77.4389, 15.8203)">
<polygon stroke-linejoin="round" stroke-linecap="round" stroke-width="0.0800" fill="currentColor" stroke="currentColor" points="8.2726 -1.5800 8.2726 -1.1800 0.0400 0.2000 0.0400 -0.2000"/>
</g>
<g transform="translate(35.4474, 9.0853)">
<path transform="scale(0.0040, -0.0040)" d="M218 136c66 0 108 -36 108 -89c0 -89 -113 -183 -218 -183c-66 0 -108 36 -108 89c0 89 113 183 218 183z" fill="currentColor"/>
</g>
<g transform="translate(36.0995, 10.5853)">
<path transform="scale(0.0040, -0.0040)" d="M-50 0c0 28 22 50 50 50s50 -22 50 -50s-22 -50 -50 -50s-50 22 -50 50z" fill="currentColor"/>
</g>
<g transform="translate(35.4474, 18.8203)">
<path transform="scale(0.0040, -0.0040)" d="M218 136c66 0 108 -36 108 -89c0 -89 -113 -183 -218 -183c-66 0 -108 36 -108 89c0 89 113 183 218 183z" fill="currentColor"/>
</g>
<g transform="translate(36.6866, 8.0853)">
<rect x="-0.0650" y="-2.1778" width="0.1300" height="2.9917" ry="0.0400" fill="currentColor"/>
</g>
<g transform="translate(36.6866, 17.8203)">
<rect x="-0.0650" y="-3.0364" width="0.1300" height="3.8503" ry="0.0400" fill="currentColor"/>
</g>
<g transform="translate(77.4389, 4.5853)">
<polygon stroke-linejoin="round" stroke-linecap="round" stroke-width="0.0800" fill="currentColor" stroke="currentColor" points="8.2726 1.3000 8.2726 1.7000 0.0400 0.2000 0.0400 -0.2000"/>
</g>
<g transform="translate(77.4389, 5.3953)">
<polygon stroke-linejoin="round" stroke-linecap="round" stroke-width="0.0800" fill="currentColor" stroke="currentColor" points="8.2726 1.3000 8.2726 1.7000 0.0400 0.2000 0.0400 -0.2000"/>
</g>
<g transform="translate(37.9516, 8.5853)">
<path transform="scale(0.0040, -0.0040)" d="M218 136c66 0 108 -36 108 -89c0 -89 -113 -183 -218 -183c-66 0 -108 36 -108 89c0 89 113 183 218 183z" fill="currentColor"/>
</g>
<g transform="translate(38.6037, 11.3106)">
<path transform="scale(0.0040, -0.0040)" d="M-211 88c-8 2 -14 9 -14 18c0 13 12 21 23 18l408 -105c13 0 19 -6 19 -19s-6 -19 -19 -19l-408 -105c-11 -3 -23 5 -23 18c0 9 6 16 14 18l251 65l140 23l-140 23z" fill="currentColor"/>
</g>
<g transform="translate(37.9516, 19.3203)">
<path transform="scale(0.0040, -0.0040)" d="M218 136c66 0 108 -36 108 -89c0 -89 -113 -183 -218 -183c-66 0 -108 36 -108 89c0 89 113 183 218 183z" fill="currentColor"/>
</g>
<g transform="translate(39.1909, 8.0853)">
<rect x="-0.0650" y="-2.5363" width="0.1300" height="2.8502" ry="0.0400" fill="currentColor"/>
</g>
<g transform="translate(39.1909, 17.8203)">
<rect x="-0.0650" y="-2.5845" width="0.1300" height="3.8984" ry="0.0400" fill="currentColor"/>
</g>
<g transform="translate(81.2731, 8.0853)">
<path stroke-width="0.0800" stroke-linejoin="round" stroke-linecap="round" stroke="currentColor" fill="currentColor" d="M0.6521 2.0450C2.2423 3.3961 7.2445 3.3961 8.8348 2.0450L8.8348 2.0450C7.2445 3.2761 2.2423 3.2761 0.6521 2.0450z"/>
</g>
<g transform="translate(41.1259, 8.0853)">
<path transform="scale(0.0040, -0.0040)" d="M218 136c66 0 108 -36 108 -89c0 -89 -113 -183 -218 -183c-66 0 -108 36 -108 89c0 89 113 183 218 183z" fill="currentColor"/>
</g>
<g transform="translate(41.1259, 19.8203)">
<path transform="scale(0.0040, -0.0040)" d="M218 136c66 0 108 -36 108 -89c0 -89 -113 -183 -218 -183c-66 0 -108 36 -108 89c0 89 113 183 218 183z" fill="currentColor"/>
</g>
<g transform="translate(42.3651, 8.0853)">
<rect x="-0.0650" y="-2.9907" width="0.1300" height="2.8046" ry="0.0400" fill="currentColor"/>
</g>
<g transform="translate(42.3651, 17.8203)">
<rect x="-0.0650" y="-2.0117" width="0.1300" height="3.8256" ry="0.0400" fill="currentColor"/>
</g>
<g transform="translate(39.9759, 19.8203)">
<path transform="scale(0.0040, -0.0040)" d="M27 41l-1 -66v-11c0 -22 1 -44 4 -66c45 38 93 80 93 139c0 33 -14 67 -43 67c-31 0 -52 -30 -53 -63zM-15 -138l-12 595c8 5 18 8 27 8s19 -3 27 -8l-7 -345c25 21 58 34 91 34c52 0 89 -48 89 -102c0 -80 -86 -117 -147 -169c-15 -13 -24 -38 -45 -38
c-13 0 -23 11 -23 25z" fill="currentColor"/>
</g>
<g transform="translate(66.7521, 17.0103)">
<polygon stroke-linejoin="round" stroke-linecap="round" stroke-width="0.0800" fill="currentColor" stroke="currentColor" points="8.2726 -1.3900 8.2726 -0.9900 0.0400 0.2000 0.0400 -0.2000"/>
</g>
<g transform="translate(66.7521, 17.8203)">
<polygon stroke-linejoin="round" stroke-linecap="round" stroke-width="0.0800" fill="currentColor" stroke="currentColor" points="8.2726 -1.3900 8.2726 -0.9900 0.0400 0.2000 0.0400 -0.2000"/>
</g>
<g transform="translate(44.3001, 10.0853)">
<path transform="scale(0.0040, -0.0040)" d="M218 136c66 0 108 -36 108 -89c0 -89 -113 -183 -218 -183c-66 0 -108 36 -108 89c0 89 113 183 218 183z" fill="currentColor"/>
</g>
<g transform="translate(44.3001, 17.8203)">
<path transform="scale(0.0040, -0.0040)" d="M218 136c66 0 108 -36 108 -89c0 -89 -113 -183 -218 -183c-66 0 -108 36 -108 89c0 89 113 183 218 183z" fill="currentColor"/>
</g>
<g transform="translate(45.5393, 8.0853)">
<rect x="-0.0650" y="-2.8201" width="0.1300" height="4.6340" ry="0.0400" fill="currentColor"/>
</g>
<g transform="translate(45.5393, 17.8203)">
<rect x="-0.0650" y="-3.4872" width="0.1300" height="3.3011" ry="0.0400" fill="currentColor"/>
</g>
<g transform="translate(43.1501, 17.8203)">
<path transform="scale(0.0040, -0.0040)" d="M27 41l-1 -66v-11c0 -22 1 -44 4 -66c45 38 93 80 93 139c0 33 -14 67 -43 67c-31 0 -52 -30 -53 -63zM-15 -138l-12 595c8 5 18 8 27 8s19 -3 27 -8l-7 -345c25 21 58 34 91 34c52 0 89 -48 89 -102c0 -80 -86 -117 -147 -169c-15 -13 -24 -38 -45 -38
c-13 0 -23 11 -23 25z" fill="currentColor"/>
</g>
<g transform="translate(66.7521, 4.0853)">
<polygon stroke-linejoin="round" stroke-linecap="round" stroke-width="0.0800" fill="currentColor" stroke="currentColor" points="8.2726 0.9900 8.2726 1.3900 0.0400 0.2000 0.0400 -0.2000"/>
</g>
<g transform="translate(66.7521, 4.8953)">
<polygon stroke-linejoin="round" stroke-linecap="round" stroke-width="0.0800" fill="currentColor" stroke="currentColor" points="8.2726 0.9900 8.2726 1.3900 0.0400 0.2000 0.0400 -0.2000"/>
</g>
<g transform="translate(46.8043, 8.5853)">
<path transform="scale(0.0040, -0.0040)" d="M218 136c66 0 108 -36 108 -89c0 -89 -113 -183 -218 -183c-66 0 -108 36 -108 89c0 89 113 183 218 183z" fill="currentColor"/>
</g>
<g transform="translate(47.4564, 9.5853)">
<path transform="scale(0.0040, -0.0040)" d="M-50 0c0 28 22 50 50 50s50 -22 50 -50s-22 -50 -50 -50s-50 22 -50 50z" fill="currentColor"/>
</g>
<g transform="translate(46.8043, 19.3203)">
<path transform="scale(0.0040, -0.0040)" d="M218 136c66 0 108 -36 108 -89c0 -89 -113 -183 -218 -183c-66 0 -108 36 -108 89c0 89 113 183 218 183z" fill="currentColor"/>
</g>
<g transform="translate(48.0435, 8.0853)">
<rect x="-0.0650" y="-3.2100" width="0.1300" height="3.5239" ry="0.0400" fill="currentColor"/>
</g>
<g transform="translate(48.0435, 17.8203)">
<rect x="-0.0650" y="-2.9957" width="0.1300" height="4.3096" ry="0.0400" fill="currentColor"/>
</g>
<g transform="translate(76.2647, 8.0853)">
<path stroke-width="0.0800" stroke-linejoin="round" stroke-linecap="round" stroke="currentColor" fill="currentColor" d="M0.5429 1.5450C1.0458 2.3558 2.2133 2.6589 3.0471 2.1950L3.0471 2.1950C2.2435 2.5427 1.0760 2.2397 0.5429 1.5450z"/>
</g>
<g transform="translate(49.3085, 8.0853)">
<path transform="scale(0.0040, -0.0040)" d="M218 136c66 0 108 -36 108 -89c0 -89 -113 -183 -218 -183c-66 0 -108 36 -108 89c0 89 113 183 218 183z" fill="currentColor"/>
</g>
<g transform="translate(49.9606, 10.8313)">
<path transform="scale(0.0040, -0.0040)" d="M-211 88c-8 2 -14 9 -14 18c0 13 12 21 23 18l408 -105c13 0 19 -6 19 -19s-6 -19 -19 -19l-408 -105c-11 -3 -23 5 -23 18c0 9 6 16 14 18l251 65l140 23l-140 23z" fill="currentColor"/>
</g>
<g transform="translate(49.3085, 19.8203)">
<path transform="scale(0.0040, -0.0040)" d="M218 136c66 0 108 -36 108 -89c0 -89 -113 -183 -218 -183c-66 0 -108 36 -108 89c0 89 113 183 218 183z" fill="currentColor"/>
</g>
<g transform="translate(50.5477, 8.0853)">
<rect x="-0.0650" y="-3.6000" width="0.1300" height="3.4139" ry="0.0400" fill="currentColor"/>
</g>
<g transform="translate(50.5477, 17.8203)">
<rect x="-0.0650" y="-2.5043" width="0.1300" height="4.3181" ry="0.0400" fill="currentColor"/>
</g>
<g transform="translate(55.4911, 15.8203)">
<polygon stroke-linejoin="round" stroke-linecap="round" stroke-width="0.0800" fill="currentColor" stroke="currentColor" points="7.6026 0.9900 7.6026 1.3900 0.0400 0.2000 0.0400 -0.2000"/>
</g>
<g transform="translate(55.4911, 16.6303)">
<polygon stroke-linejoin="round" stroke-linecap="round" stroke-width="0.0800" fill="currentColor" stroke="currentColor" points="7.6026 0.9900 7.6026 1.3900 0.0400 0.2000 0.0400 -0.2000"/>
</g>
<g transform="translate(51.8127, 7.5853)">
<path transform="scale(0.0040, -0.0040)" d="M218 136c66 0 108 -36 108 -89c0 -89 -113 -183 -218 -183c-66 0 -108 36 -108 89c0 89 113 183 218 183z" fill="currentColor"/>
</g>
<g transform="translate(52.4648, 8.5853)">
<path transform="scale(0.0040, -0.0040)" d="M-50 0c0 28 22 50 50 50s50 -22 50 -50s-22 -50 -50 -50s-50 22 -50 50z" fill="currentColor"/>
</g>
<g transform="translate(51.8127, 20.3203)">
<path transform="scale(0.0040, -0.0040)" d="M218 136c66 0 108 -36 108 -89c0 -89 -113 -183 -218 -183c-66 0 -108 36 -108 89c0 89 113 183 218 183z" fill="currentColor"/>
</g>
<g transform="translate(53.0519, 8.0853)">
<rect x="-0.0650" y="-3.9899" width="0.1300" height="3.3038" ry="0.0400" fill="currentColor"/>
</g>
<g transform="translate(53.0519, 17.8203)">
<rect x="-0.0650" y="-2.0128" width="0.1300" height="4.3267" ry="0.0400" fill="currentColor"/>
</g>
<g transform="translate(55.4911, 5.2753)">
<polygon stroke-linejoin="round" stroke-linecap="round" stroke-width="0.0800" fill="currentColor" stroke="currentColor" points="7.6026 -1.3900 7.6026 -0.9900 0.0400 0.2000 0.0400 -0.2000"/>
</g>
<g transform="translate(55.4911, 6.0853)">
<polygon stroke-linejoin="round" stroke-linecap="round" stroke-width="0.0800" fill="currentColor" stroke="currentColor" points="7.6026 -1.3900 7.6026 -0.9900 0.0400 0.2000 0.0400 -0.2000"/>
</g>
<g transform="translate(54.3169, 9.5853)">
<path transform="scale(0.0040, -0.0040)" d="M218 136c66 0 108 -36 108 -89c0 -89 -113 -183 -218 -183c-66 0 -108 36 -108 89c0 89 113 183 218 183z" fill="currentColor"/>
</g>
<g transform="translate(54.9690, 11.6229)">
<path transform="scale(0.0040, -0.0040)" d="M-211 88c-8 2 -14 9 -14 18c0 13 12 21 23 18l408 -105c13 0 19 -6 19 -19s-6 -19 -19 -19l-408 -105c-11 -3 -23 5 -23 18c0 9 6 16 14 18l251 65l140 23l-140 23z" fill="currentColor"/>
</g>
<g transform="translate(54.3169, 18.3203)">
<path transform="scale(0.0040, -0.0040)" d="M218 136c66 0 108 -36 108 -89c0 -89 -113 -183 -218 -183c-66 0 -108 36 -108 89c0 89 113 183 218 183z" fill="currentColor"/>
</g>
<g transform="translate(55.5561, 8.0853)">
<rect x="-0.0650" y="-2.8201" width="0.1300" height="4.1340" ry="0.0400" fill="currentColor"/>
</g>
<g transform="translate(55.5561, 17.8203)">
<rect x="-0.0650" y="-1.9899" width="0.1300" height="2.3038" ry="0.0400" fill="currentColor"/>
</g>
<g transform="translate(65.5779, 8.0853)">
<path stroke-width="0.0800" stroke-linejoin="round" stroke-linecap="round" stroke="currentColor" fill="currentColor" d="M0.5091 0.1950C1.6079 2.0426 6.6829 3.8103 8.6918 3.0450L8.6918 3.0450C6.7224 3.6969 1.6474 1.9293 0.5091 0.1950z"/>
</g>
<g transform="translate(56.8211, 8.0853)">
<path transform="scale(0.0040, -0.0040)" d="M218 136c66 0 108 -36 108 -89c0 -89 -113 -183 -218 -183c-66 0 -108 36 -108 89c0 89 113 183 218 183z" fill="currentColor"/>
</g>
<g transform="translate(56.8211, 19.8203)">
<path transform="scale(0.0040, -0.0040)" d="M218 136c66 0 108 -36 108 -89c0 -89 -113 -183 -218 -183c-66 0 -108 36 -108 89c0 89 113 183 218 183z" fill="currentColor"/>
</g>
<g transform="translate(58.0604, 8.0853)">
<rect x="-0.0650" y="-3.2100" width="0.1300" height="3.0239" ry="0.0400" fill="currentColor"/>
</g>
<g transform="translate(58.0604, 17.8203)">
<rect x="-0.0650" y="-1.6000" width="0.1300" height="3.4139" ry="0.0400" fill="currentColor"/>
</g>
<g transform="translate(45.4743, 14.3203)">
<polygon stroke-linejoin="round" stroke-linecap="round" stroke-width="0.0800" fill="currentColor" stroke="currentColor" points="7.6026 1.3000 7.6026 1.7000 0.0400 0.2000 0.0400 -0.2000"/>
</g>
<g transform="translate(45.4743, 15.1303)">
<polygon stroke-linejoin="round" stroke-linecap="round" stroke-width="0.0800" fill="currentColor" stroke="currentColor" points="7.6026 1.3000 7.6026 1.7000 0.0400 0.2000 0.0400 -0.2000"/>
</g>
<g transform="translate(59.3254, 7.5853)">
<path transform="scale(0.0040, -0.0040)" d="M218 136c66 0 108 -36 108 -89c0 -89 -113 -183 -218 -183c-66 0 -108 36 -108 89c0 89 113 183 218 183z" fill="currentColor"/>
</g>
<g transform="translate(59.3254, 20.3203)">
<path transform="scale(0.0040, -0.0040)" d="M218 136c66 0 108 -36 108 -89c0 -89 -113 -183 -218 -183c-66 0 -108 36 -108 89c0 89 113 183 218 183z" fill="currentColor"/>
</g>
<g transform="translate(60.5646, 8.0853)">
<rect x="-0.0650" y="-3.6000" width="0.1300" height="2.9139" ry="0.0400" fill="currentColor"/>
</g>
<g transform="translate(60.5646, 17.8203)">
<rect x="-0.0650" y="-1.2100" width="0.1300" height="3.5239" ry="0.0400" fill="currentColor"/>
</g>
<g transform="translate(45.4743, 5.2753)">
<polygon stroke-linejoin="round" stroke-linecap="round" stroke-width="0.0800" fill="currentColor" stroke="currentColor" points="7.6026 -1.3900 7.6026 -0.9900 0.0400 0.2000 0.0400 -0.2000"/>
</g>
<g transform="translate(45.4743, 6.0853)">
<polygon stroke-linejoin="round" stroke-linecap="round" stroke-width="0.0800" fill="currentColor" stroke="currentColor" points="7.6026 -1.3900 7.6026 -0.9900 0.0400 0.2000 0.0400 -0.2000"/>
</g>
<g transform="translate(61.8296, 7.0853)">
<path transform="scale(0.0040, -0.0040)" d="M218 136c66 0 108 -36 108 -89c0 -89 -113 -183 -218 -183c-66 0 -108 36 -108 89c0 89 113 183 218 183z" fill="currentColor"/>
</g>
<g transform="translate(62.4817, 8.5853)">
<path transform="scale(0.0040, -0.0040)" d="M-50 0c0 28 22 50 50 50s50 -22 50 -50s-22 -50 -50 -50s-50 22 -50 50z" fill="currentColor"/>
</g>
<g transform="translate(61.8296, 20.8203)">
<path transform="scale(0.0040, -0.0040)" d="M218 136c66 0 108 -36 108 -89c0 -89 -113 -183 -218 -183c-66 0 -108 36 -108 89c0 89 113 183 218 183z" fill="currentColor"/>
</g>
<g transform="translate(63.0688, 8.0853)">
<rect x="-0.0650" y="-3.9899" width="0.1300" height="2.8038" ry="0.0400" fill="currentColor"/>
</g>
<g transform="translate(63.0688, 17.8203)">
<rect x="-0.0650" y="-0.8201" width="0.1300" height="3.6340" ry="0.0400" fill="currentColor"/>
</g>
<g transform="translate(54.3169, 8.0853)">
<path stroke-width="0.0800" stroke-linejoin="round" stroke-linecap="round" stroke="currentColor" fill="currentColor" d="M0.7290 2.5450C2.4609 3.5656 6.9734 2.7547 8.2416 1.1950L8.2416 1.1950C6.9522 2.6366 2.4397 3.4475 0.7290 2.5450z"/>
</g>
<g transform="translate(49.3085, 8.0853)">
<path stroke-width="0.0800" stroke-linejoin="round" stroke-linecap="round" stroke="currentColor" fill="currentColor" d="M0.6781 1.1950C1.3884 1.7964 2.5489 1.7269 3.1823 1.0450L3.1823 1.0450C2.5417 1.6071 1.3812 1.6766 0.6781 1.1950z"/>
</g>
<g transform="translate(65.5779, 7.0853)">
<path transform="scale(0.0040, -0.0040)" d="M218 136c66 0 108 -36 108 -89c0 -89 -113 -183 -218 -183c-66 0 -108 36 -108 89c0 89 113 183 218 183z" fill="currentColor"/>
</g>
<g transform="translate(66.2300, 10.8313)">
<path transform="scale(0.0040, -0.0040)" d="M-211 88c-8 2 -14 9 -14 18c0 13 12 21 23 18l408 -105c13 0 19 -6 19 -19s-6 -19 -19 -19l-408 -105c-11 -3 -23 5 -23 18c0 9 6 16 14 18l251 65l140 23l-140 23z" fill="currentColor"/>
</g>
<g transform="translate(65.5779, 20.8203)">
<path transform="scale(0.0040, -0.0040)" d="M218 136c66 0 108 -36 108 -89c0 -89 -113 -183 -218 -183c-66 0 -108 36 -108 89c0 89 113 183 218 183z" fill="currentColor"/>
</g>
<g transform="translate(14.1664, 12.9528)">
<rect x="0.0000" y="-6.9175" width="0.1600" height="13.8350" ry="0.0500" fill="currentColor"/>
</g>
<g transform="translate(66.8171, 8.0853)">
<rect x="-0.0650" y="-3.9907" width="0.1300" height="2.8046" ry="0.0400" fill="currentColor"/>
</g>
<g transform="translate(66.8171, 17.8203)">
<rect x="-0.0650" y="-0.8193" width="0.1300" height="3.6332" ry="0.0400" fill="currentColor"/>
</g>
<g transform="translate(13.8664, 12.9528)">
<path transform="scale(0.0040, -0.0040)" d="M-84 -387c0 267 -135 384 -135 387c0 18 135 105 135 387c0 276 -111 516 -111 825c0 198 48 387 183 528c15 15 39 -9 24 -24c-102 -105 -135 -237 -135 -381c0 -270 108 -507 108 -810c0 -195 -48 -384 -180 -525c132 -141 180 -330 180 -525
c0 -303 -108 -540 -108 -810c0 -144 33 -276 135 -381c15 -15 -9 -39 -24 -24c-135 141 -183 330 -183 528c0 309 111 549 111 825z" fill="currentColor"/>
</g>
<g transform="translate(98.1426, 15.8203)">
<polygon stroke-linejoin="round" stroke-linecap="round" stroke-width="0.0800" fill="currentColor" stroke="currentColor" points="7.6026 -1.7000 7.6026 -1.3000 0.0400 0.2000 0.0400 -0.2000"/>
</g>
<g transform="translate(98.1426, 16.6303)">
<polygon stroke-linejoin="round" stroke-linecap="round" stroke-width="0.0800" fill="currentColor" stroke="currentColor" points="7.6026 -1.7000 7.6026 -1.3000 0.0400 0.2000 0.0400 -0.2000"/>
</g>
<g transform="translate(34.1174, 14.3203)">
<polygon stroke-linejoin="round" stroke-linecap="round" stroke-width="0.0800" fill="currentColor" stroke="currentColor" points="8.2726 1.3000 8.2726 1.7000 0.0400 0.2000 0.0400 -0.2000"/>
</g>
<g transform="translate(34.1174, 15.1303)">
<polygon stroke-linejoin="round" stroke-linecap="round" stroke-width="0.0800" fill="currentColor" stroke="currentColor" points="8.2726 1.3000 8.2726 1.7000 0.0400 0.2000 0.0400 -0.2000"/>
</g>
<g transform="translate(68.0821, 7.5853)">
<path transform="scale(0.0040, -0.0040)" d="M218 136c66 0 108 -36 108 -89c0 -89 -113 -183 -218 -183c-66 0 -108 36 -108 89c0 89 113 183 218 183z" fill="currentColor"/>
</g>
<g transform="translate(68.0821, 20.3203)">
<path transform="scale(0.0040, -0.0040)" d="M218 136c66 0 108 -36 108 -89c0 -89 -113 -183 -218 -183c-66 0 -108 36 -108 89c0 89 113 183 218 183z" fill="currentColor"/>
</g>
<g transform="translate(69.3213, 8.0853)">
<rect x="-0.0650" y="-3.6322" width="0.1300" height="2.9461" ry="0.0400" fill="currentColor"/>
</g>
<g transform="translate(69.3213, 17.8203)">
<rect x="-0.0650" y="-1.1778" width="0.1300" height="3.4917" ry="0.0400" fill="currentColor"/>
</g>
<g transform="translate(34.1174, 6.2753)">
<polygon stroke-linejoin="round" stroke-linecap="round" stroke-width="0.0800" fill="currentColor" stroke="currentColor" points="8.2726 -1.3900 8.2726 -0.9900 0.0400 0.2000 0.0400 -0.2000"/>
</g>
<g transform="translate(34.1174, 7.0853)">
<polygon stroke-linejoin="round" stroke-linecap="round" stroke-width="0.0800" fill="currentColor" stroke="currentColor" points="8.2726 -1.3900 8.2726 -0.9900 0.0400 0.2000 0.0400 -0.2000"/>
</g>
<g transform="translate(71.2563, 8.0853)">
<path transform="scale(0.0040, -0.0040)" d="M218 136c66 0 108 -36 108 -89c0 -89 -113 -183 -218 -183c-66 0 -108 36 -108 89c0 89 113 183 218 183z" fill="currentColor"/>
</g>
<g transform="translate(71.2563, 19.8203)">
<path transform="scale(0.0040, -0.0040)" d="M218 136c66 0 108 -36 108 -89c0 -89 -113 -183 -218 -183c-66 0 -108 36 -108 89c0 89 113 183 218 183z" fill="currentColor"/>
</g>
<g transform="translate(72.4955, 8.0853)">
<rect x="-0.0650" y="-3.1778" width="0.1300" height="2.9917" ry="0.0400" fill="currentColor"/>
</g>
<g transform="translate(72.4955, 17.8203)">
<rect x="-0.0650" y="-1.6322" width="0.1300" height="3.4461" ry="0.0400" fill="currentColor"/>
</g>
<g transform="translate(70.1063, 19.8203)">
<path transform="scale(0.0040, -0.0040)" d="M27 41l-1 -66v-11c0 -22 1 -44 4 -66c45 38 93 80 93 139c0 33 -14 67 -43 67c-31 0 -52 -30 -53 -63zM-15 -138l-12 595c8 5 18 8 27 8s19 -3 27 -8l-7 -345c25 21 58 34 91 34c52 0 89 -48 89 -102c0 -80 -86 -117 -147 -169c-15 -13 -24 -38 -45 -38
c-13 0 -23 11 -23 25z" fill="currentColor"/>
</g>
<g transform="translate(37.9516, 8.0853)">
<path stroke-width="0.0800" stroke-linejoin="round" stroke-linecap="round" stroke="currentColor" fill="currentColor" d="M0.6521 2.0450C2.3183 3.4403 7.8386 3.4403 9.5048 2.0450L9.5048 2.0450C7.8386 3.3203 2.3183 3.3203 0.6521 2.0450z"/>
</g>
<g transform="translate(73.7605, 9.5853)">
<path transform="scale(0.0040, -0.0040)" d="M218 136c66 0 108 -36 108 -89c0 -89 -113 -183 -218 -183c-66 0 -108 36 -108 89c0 89 113 183 218 183z" fill="currentColor"/>
</g>
<g transform="translate(74.4126, 10.5853)">
<path transform="scale(0.0040, -0.0040)" d="M-50 0c0 28 22 50 50 50s50 -22 50 -50s-22 -50 -50 -50s-50 22 -50 50z" fill="currentColor"/>
</g>
<g transform="translate(73.7605, 18.3203)">
<path transform="scale(0.0040, -0.0040)" d="M218 136c66 0 108 -36 108 -89c0 -89 -113 -183 -218 -183c-66 0 -108 36 -108 89c0 89 113 183 218 183z" fill="currentColor"/>
</g>
<g transform="translate(74.9997, 8.0853)">
<rect x="-0.0650" y="-2.8193" width="0.1300" height="4.1332" ry="0.0400" fill="currentColor"/>
</g>
<g transform="translate(74.9997, 17.8203)">
<rect x="-0.0650" y="-1.9907" width="0.1300" height="2.3046" ry="0.0400" fill="currentColor"/>
</g>
<g transform="translate(24.1006, 14.3203)">
<polygon stroke-linejoin="round" stroke-linecap="round" stroke-width="0.0800" fill="currentColor" stroke="currentColor" points="7.6026 1.3000 7.6026 1.7000 0.0400 0.2000 0.0400 -0.2000"/>
</g>
<g transform="translate(24.1006, 15.1303)">
<polygon stroke-linejoin="round" stroke-linecap="round" stroke-width="0.0800" fill="currentColor" stroke="currentColor" points="7.6026 1.3000 7.6026 1.7000 0.0400 0.2000 0.0400 -0.2000"/>
</g>
<g transform="translate(76.2647, 7.5853)">
<path transform="scale(0.0040, -0.0040)" d="M218 136c66 0 108 -36 108 -89c0 -89 -113 -183 -218 -183c-66 0 -108 36 -108 89c0 89 113 183 218 183z" fill="currentColor"/>
</g>
<g transform="translate(76.9168, 11.0517)">
<path transform="scale(0.0040, -0.0040)" d="M-211 88c-8 2 -14 9 -14 18c0 13 12 21 23 18l408 -105c13 0 19 -6 19 -19s-6 -19 -19 -19l-408 -105c-11 -3 -23 5 -23 18c0 9 6 16 14 18l251 65l140 23l-140 23z" fill="currentColor"/>
</g>
<g transform="translate(76.2647, 20.3203)">
<path transform="scale(0.0040, -0.0040)" d="M218 136c66 0 108 -36 108 -89c0 -89 -113 -183 -218 -183c-66 0 -108 36 -108 89c0 89 113 183 218 183z" fill="currentColor"/>
</g>
<g transform="translate(77.5039, 8.0853)">
<rect x="-0.0650" y="-3.4883" width="0.1300" height="2.8022" ry="0.0400" fill="currentColor"/>
</g>
<g transform="translate(77.5039, 17.8203)">
<rect x="-0.0650" y="-2.8208" width="0.1300" height="5.1347" ry="0.0400" fill="currentColor"/>
</g>
<g transform="translate(24.1006, 6.2753)">
<polygon stroke-linejoin="round" stroke-linecap="round" stroke-width="0.0800" fill="currentColor" stroke="currentColor" points="7.6026 -1.3900 7.6026 -0.9900 0.0400 0.2000 0.0400 -0.2000"/>
</g>
<g transform="translate(24.1006, 7.0853)">
<polygon stroke-linejoin="round" stroke-linecap="round" stroke-width="0.0800" fill="currentColor" stroke="currentColor" points="7.6026 -1.3900 7.6026 -0.9900 0.0400 0.2000 0.0400 -0.2000"/>
</g>
<g transform="translate(78.7689, 8.0853)">
<path transform="scale(0.0040, -0.0040)" d="M218 136c66 0 108 -36 108 -89c0 -89 -113 -183 -218 -183c-66 0 -108 36 -108 89c0 89 113 183 218 183z" fill="currentColor"/>
</g>
<g transform="translate(79.4210, 9.5853)">
<path transform="scale(0.0040, -0.0040)" d="M-50 0c0 28 22 50 50 50s50 -22 50 -50s-22 -50 -50 -50s-50 22 -50 50z" fill="currentColor"/>
</g>
<g transform="translate(78.7689, 19.8203)">
<path transform="scale(0.0040, -0.0040)" d="M218 136c66 0 108 -36 108 -89c0 -89 -113 -183 -218 -183c-66 0 -108 36 -108 89c0 89 113 183 218 183z" fill="currentColor"/>
</g>
<g transform="translate(80.0081, 8.0853)">
<rect x="-0.0650" y="-3.0364" width="0.1300" height="2.8503" ry="0.0400" fill="currentColor"/>
</g>
<g transform="translate(80.0081, 17.8203)">
<rect x="-0.0650" y="-3.2365" width="0.1300" height="5.0504" ry="0.0400" fill="currentColor"/>
</g>
<g transform="translate(27.9348, 8.0853)">
<path stroke-width="0.0800" stroke-linejoin="round" stroke-linecap="round" stroke="currentColor" fill="currentColor" d="M0.6521 3.1950C2.1612 4.4965 6.6556 4.4965 8.1647 3.1950L8.1647 3.1950C6.6556 4.3765 2.1612 4.3765 0.6521 3.1950z"/>
</g>
<g transform="translate(81.2731, 8.5853)">
<path transform="scale(0.0040, -0.0040)" d="M218 136c66 0 108 -36 108 -89c0 -89 -113 -183 -218 -183c-66 0 -108 36 -108 89c0 89 113 183 218 183z" fill="currentColor"/>
</g>
<g transform="translate(81.9252, 11.3157)">
<path transform="scale(0.0040, -0.0040)" d="M-211 88c-8 2 -14 9 -14 18c0 13 12 21 23 18l408 -105c13 0 19 -6 19 -19s-6 -19 -19 -19l-408 -105c-11 -3 -23 5 -23 18c0 9 6 16 14 18l251 65l140 23l-140 23z" fill="currentColor"/>
</g>
<g transform="translate(81.2731, 19.3203)">
<path transform="scale(0.0040, -0.0040)" d="M218 136c66 0 108 -36 108 -89c0 -89 -113 -183 -218 -183c-66 0 -108 36 -108 89c0 89 113 183 218 183z" fill="currentColor"/>
</g>
<g transform="translate(82.5123, 8.0853)">
<rect x="-0.0650" y="-2.5845" width="0.1300" height="2.8984" ry="0.0400" fill="currentColor"/>
</g>
<g transform="translate(82.5123, 17.8203)">
<rect x="-0.0650" y="-3.6522" width="0.1300" height="4.9661" ry="0.0400" fill="currentColor"/>
</g>
<g transform="translate(22.9264, 8.0853)">
<path stroke-width="0.0800" stroke-linejoin="round" stroke-linecap="round" stroke="currentColor" fill="currentColor" d="M0.8133 4.0450C1.7290 4.4115 2.9062 3.9415 3.3175 3.0450L3.3175 3.0450C2.8617 3.8300 1.6845 4.3001 0.8133 4.0450z"/>
</g>
<g transform="translate(84.4474, 10.0853)">
<path transform="scale(0.0040, -0.0040)" d="M218 136c66 0 108 -36 108 -89c0 -89 -113 -183 -218 -183c-66 0 -108 36 -108 89c0 89 113 183 218 183z" fill="currentColor"/>
</g>
<g transform="translate(84.4474, 17.8203)">
<path transform="scale(0.0040, -0.0040)" d="M218 136c66 0 108 -36 108 -89c0 -89 -113 -183 -218 -183c-66 0 -108 36 -108 89c0 89 113 183 218 183z" fill="currentColor"/>
</g>
<g transform="translate(85.6866, 8.0853)">
<rect x="-0.0650" y="-2.0117" width="0.1300" height="3.8256" ry="0.0400" fill="currentColor"/>
</g>
<g transform="translate(85.6866, 17.8203)">
<rect x="-0.0650" y="-4.1792" width="0.1300" height="3.9931" ry="0.0400" fill="currentColor"/>
</g>
<g transform="translate(83.2974, 17.8203)">
<path transform="scale(0.0040, -0.0040)" d="M27 41l-1 -66v-11c0 -22 1 -44 4 -66c45 38 93 80 93 139c0 33 -14 67 -43 67c-31 0 -52 -30 -53 -63zM-15 -138l-12 595c8 5 18 8 27 8s19 -3 27 -8l-7 -345c25 21 58 34 91 34c52 0 89 -48 89 -102c0 -80 -86 -117 -147 -169c-15 -13 -24 -38 -45 -38
c-13 0 -23 11 -23 25z" fill="currentColor"/>
</g>
<g transform="translate(86.9516, 8.0853)">
<path transform="scale(0.0040, -0.0040)" d="M218 136c66 0 108 -36 108 -89c0 -89 -113 -183 -218 -183c-66 0 -108 36 -108 89c0 89 113 183 218 183z" fill="currentColor"/>
</g>
<g transform="translate(86.9516, 19.8203)">
<path transform="scale(0.0040, -0.0040)" d="M218 136c66 0 108 -36 108 -89c0 -89 -113 -183 -218 -183c-66 0 -108 36 -108 89c0 89 113 183 218 183z" fill="currentColor"/>
</g>
<g transform="translate(88.1908, 8.0853)">
<rect x="-0.0650" y="-2.9899" width="0.1300" height="2.8038" ry="0.0400" fill="currentColor"/>
</g>
<g transform="translate(88.1908, 17.8203)">
<rect x="-0.0650" y="-2.0128" width="0.1300" height="3.8267" ry="0.0400" fill="currentColor"/>
</g>
<g transform="translate(89.4558, 8.5853)">
<path transform="scale(0.0040, -0.0040)" d="M218 136c66 0 108 -36 108 -89c0 -89 -113 -183 -218 -183c-66 0 -108 36 -108 89c0 89 113 183 218 183z" fill="currentColor"/>
</g>
<g transform="translate(90.1079, 9.5853)">
<path transform="scale(0.0040, -0.0040)" d="M-50 0c0 28 22 50 50 50s50 -22 50 -50s-22 -50 -50 -50s-50 22 -50 50z" fill="currentColor"/>
</g>
<g transform="translate(89.4558, 19.3203)">
<path transform="scale(0.0040, -0.0040)" d="M218 136c66 0 108 -36 108 -89c0 -89 -113 -183 -218 -183c-66 0 -108 36 -108 89c0 89 113 183 218 183z" fill="currentColor"/>
</g>
<g transform="translate(90.6950, 8.0853)">
<rect x="-0.0650" y="-2.6000" width="0.1300" height="2.9139" ry="0.0400" fill="currentColor"/>
</g>
<g transform="translate(90.6950, 17.8203)">
<rect x="-0.0650" y="-2.5043" width="0.1300" height="3.8181" ry="0.0400" fill="currentColor"/>
</g>
<g transform="translate(91.9600, 9.0853)">
<path transform="scale(0.0040, -0.0040)" d="M218 136c66 0 108 -36 108 -89c0 -89 -113 -183 -218 -183c-66 0 -108 36 -108 89c0 89 113 183 218 183z" fill="currentColor"/>
</g>
<g transform="translate(92.6121, 12.4701)">
<path transform="scale(0.0040, -0.0040)" d="M-211 88c-8 2 -14 9 -14 18c0 13 12 21 23 18l408 -105c13 0 19 -6 19 -19s-6 -19 -19 -19l-408 -105c-11 -3 -23 5 -23 18c0 9 6 16 14 18l251 65l140 23l-140 23z" fill="currentColor"/>
</g>
<g transform="translate(91.9600, 18.8203)">
<path transform="scale(0.0040, -0.0040)" d="M218 136c66 0 108 -36 108 -89c0 -89 -113 -183 -218 -183c-66 0 -108 36 -108 89c0 89 113 183 218 183z" fill="currentColor"/>
</g>
<g transform="translate(93.1992, 8.0853)">
<rect x="-0.0650" y="-2.2100" width="0.1300" height="3.0239" ry="0.0400" fill="currentColor"/>
</g>
<g transform="translate(93.1992, 17.8203)">
<rect x="-0.0650" y="-2.9957" width="0.1300" height="3.8096" ry="0.0400" fill="currentColor"/>
</g>
<g transform="translate(94.4642, 10.5853)">
<path transform="scale(0.0040, -0.0040)" d="M218 136c66 0 108 -36 108 -89c0 -89 -113 -183 -218 -183c-66 0 -108 36 -108 89c0 89 113 183 218 183z" fill="currentColor"/>
</g>
<g transform="translate(94.4642, 17.3203)">
<path transform="scale(0.0040, -0.0040)" d="M218 136c66 0 108 -36 108 -89c0 -89 -113 -183 -218 -183c-66 0 -108 36 -108 89c0 89 113 183 218 183z" fill="currentColor"/>
</g>
<g transform="translate(95.7034, 8.0853)">
<rect x="-0.0650" y="-1.8201" width="0.1300" height="4.1340" ry="0.0400" fill="currentColor"/>
</g>
<g transform="translate(95.7034, 17.8203)">
<rect x="-0.0650" y="-3.4872" width="0.1300" height="2.8011" ry="0.0400" fill="currentColor"/>
</g>
<g transform="translate(96.9684, 8.5853)">
<path transform="scale(0.0040, -0.0040)" d="M218 136c66 0 108 -36 108 -89c0 -89 -113 -183 -218 -183c-66 0 -108 36 -108 89c0 89 113 183 218 183z" fill="currentColor"/>
</g>
<g transform="translate(96.9684, 19.3203)">
<path transform="scale(0.0040, -0.0040)" d="M218 136c66 0 108 -36 108 -89c0 -89 -113 -183 -218 -183c-66 0 -108 36 -108 89c0 89 113 183 218 183z" fill="currentColor"/>
</g>
<g transform="translate(98.2076, 8.0853)">
<rect x="-0.0650" y="-2.9899" width="0.1300" height="3.3038" ry="0.0400" fill="currentColor"/>
</g>
<g transform="translate(98.2076, 17.8203)">
<rect x="-0.0650" y="-2.0128" width="0.1300" height="3.3267" ry="0.0400" fill="currentColor"/>
</g>
<g transform="translate(99.4726, 9.0853)">
<path transform="scale(0.0040, -0.0040)" d="M218 136c66 0 108 -36 108 -89c0 -89 -113 -183 -218 -183c-66 0 -108 36 -108 89c0 89 113 183 218 183z" fill="currentColor"/>
</g>
<g transform="translate(100.1247, 10.5853)">
<path transform="scale(0.0040, -0.0040)" d="M-50 0c0 28 22 50 50 50s50 -22 50 -50s-22 -50 -50 -50s-50 22 -50 50z" fill="currentColor"/>
</g>
<g transform="translate(99.4726, 18.8203)">
<path transform="scale(0.0040, -0.0040)" d="M218 136c66 0 108 -36 108 -89c0 -89 -113 -183 -218 -183c-66 0 -108 36 -108 89c0 89 113 183 218 183z" fill="currentColor"/>
</g>
<g transform="translate(100.7118, 8.0853)">
<rect x="-0.0650" y="-2.6000" width="0.1300" height="3.4139" ry="0.0400" fill="currentColor"/>
</g>
<g transform="translate(100.7118, 17.8203)">
<rect x="-0.0650" y="-2.5043" width="0.1300" height="3.3181" ry="0.0400" fill="currentColor"/>
</g>
<g transform="translate(101.9768, 9.5853)">
<path transform="scale(0.0040, -0.0040)" d="M218 136c66 0 108 -36 108 -89c0 -89 -113 -183 -218 -183c-66 0 -108 36 -108 89c0 89 113 183 218 183z" fill="currentColor"/>
</g>
<g transform="translate(102.6289, 10.8313)">
<path transform="scale(0.0040, -0.0040)" d="M-211 88c-8 2 -14 9 -14 18c0 13 12 21 23 18l408 -105c13 0 19 -6 19 -19s-6 -19 -19 -19l-408 -105c-11 -3 -23 5 -23 18c0 9 6 16 14 18l251 65l140 23l-140 23z" fill="currentColor"/>
</g>
<g transform="translate(101.9768, 18.3203)">
<path transform="scale(0.0040, -0.0040)" d="M218 136c66 0 108 -36 108 -89c0 -89 -113 -183 -218 -183c-66 0 -108 36 -108 89c0 89 113 183 218 183z" fill="currentColor"/>
</g>
<g transform="translate(103.2161, 8.0853)">
<rect x="-0.0650" y="-2.2100" width="0.1300" height="3.5239" ry="0.0400" fill="currentColor"/>
</g>
<g transform="translate(103.2161, 17.8203)">
<rect x="-0.0650" y="-2.9957" width="0.1300" height="3.3096" ry="0.0400" fill="currentColor"/>
</g>
<g transform="translate(104.4811, 11.0853)">
<path transform="scale(0.0040, -0.0040)" d="M218 136c66 0 108 -36 108 -89c0 -89 -113 -183 -218 -183c-66 0 -108 36 -108 89c0 89 113 183 218 183z" fill="currentColor"/>
</g>
<g transform="translate(105.1332, 12.0303)">
<path transform="scale(0.0040, -0.0040)" d="M-50 0c0 28 22 50 50 50s50 -22 50 -50s-22 -50 -50 -50s-50 22 -50 50z" fill="currentColor"/>
</g>
<g transform="translate(104.4811, 16.8203)">
<path transform="scale(0.0040, -0.0040)" d="M218 136c66 0 108 -36 108 -89c0 -89 -113 -183 -218 -183c-66 0 -108 36 -108 89c0 89 113 183 218 183z" fill="currentColor"/>
</g>
<g transform="translate(105.7203, 8.0853)">
<rect x="-0.0650" y="-1.8201" width="0.1300" height="4.6340" ry="0.0400" fill="currentColor"/>
</g>
<g transform="translate(105.7203, 17.8203)">
<rect x="-0.0650" y="-3.4872" width="0.1300" height="2.3011" ry="0.0400" fill="currentColor"/>
</g>
<g transform="translate(34.5701, 165.1202)">
<a xlink:href="https://lilypond.org/">
<rect x="0.0000" y="-0.4749" width="50.3614" height="2.0025" fill="none" stroke="none" stroke-width="0.0"/>
</a>
</g>
<g transform="translate(34.5701, 165.1202)">
<text font-family="serif" font-size="2.2001" text-anchor="start" fill="currentColor">
<tspan>Music engraving by LilyPond 2.23.9—www.lilypond.org</tspan>
</text>
</g>
</svg>
