<svg xmlns="http://www.w3.org/2000/svg" xmlns:xlink="http://www.w3.org/1999/xlink" version="1.2" width="210.00mm" height="297.00mm" viewBox="0 0 119.5016 169.0094">
<style type="text/css">
<![CDATA[
tspan { white-space: pre; }
]]>
</style>
<!-- Page: 1/1 -->
<g transform="translate(5.6906, 10.6243)">
<rect x="62.9622" y="-0.1000" width="1.9563" height="0.2000" ry="0.1000" fill="currentColor"/>
</g>
<g transform="translate(14.2264, 9.6243)">
<line stroke-linejoin="round" stroke-linecap="round" stroke-width="0.1000" stroke="currentColor" x1="0.0500" y1="0" x2="93.6276" y2="0"/>
</g>
<g transform="translate(14.2264, 8.6243)">
<line stroke-linejoin="round" stroke-linecap="round" stroke-width="0.1000" stroke="currentColor" x1="0.0500" y1="0" x2="93.6276" y2="0"/>
</g>
<g transform="translate(14.2264, 7.6243)">
<line stroke-linejoin="round" stroke-linecap="round" stroke-width="0.1000" stroke="currentColor" x1="0.0500" y1="0" x2="93.6276" y2="0"/>
</g>
<g transform="translate(14.2264, 6.6243)">
<line stroke-linejoin="round" stroke-linecap="round" stroke-width="0.1000" stroke="currentColor" x1="0.0500" y1="0" x2="93.6276" y2="0"/>
</g>
<g transform="translate(14.2264, 5.6243)">
<line stroke-linejoin="round" stroke-linecap="round" stroke-width="0.1000" stroke="currentColor" x1="0.0500" y1="0" x2="93.6276" y2="0"/>
</g>
<g transform="translate(37.6640, 3.8453)">
<rect x="0.0000" y="5.8290" width="0.1900" height="8.1944" ry="0.0000" fill="currentColor"/>
</g>
<g transform="translate(5.6906, 16.8686)">
<rect x="51.0090" y="-0.1000" width="1.9563" height="0.2000" ry="0.1000" fill="currentColor"/>
</g>
<g transform="translate(5.6906, 16.8686)">
<rect x="27.9432" y="-0.1000" width="1.9563" height="0.2000" ry="0.1000" fill="currentColor"/>
</g>
<g transform="translate(5.6906, 16.8686)">
<rect x="24.2390" y="-0.1000" width="1.9563" height="0.2000" ry="0.1000" fill="currentColor"/>
</g>
<g transform="translate(14.2264, 21.8686)">
<line stroke-linejoin="round" stroke-linecap="round" stroke-width="0.1000" stroke="currentColor" x1="0.0500" y1="0" x2="93.6276" y2="0"/>
</g>
<g transform="translate(14.2264, 20.8686)">
<line stroke-linejoin="round" stroke-linecap="round" stroke-width="0.1000" stroke="currentColor" x1="0.0500" y1="0" x2="93.6276" y2="0"/>
</g>
<g transform="translate(14.2264, 19.8686)">
<line stroke-linejoin="round" stroke-linecap="round" stroke-width="0.1000" stroke="currentColor" x1="0.0500" y1="0" x2="93.6276" y2="0"/>
</g>
<g transform="translate(14.2264, 18.8686)">
<line stroke-linejoin="round" stroke-linecap="round" stroke-width="0.1000" stroke="currentColor" x1="0.0500" y1="0" x2="93.6276" y2="0"/>
</g>
<g transform="translate(14.2264, 17.8686)">
<line stroke-linejoin="round" stroke-linecap="round" stroke-width="0.1000" stroke="currentColor" x1="0.0500" y1="0" x2="93.6276" y2="0"/>
</g>
<g transform="translate(37.6640, 19.8686)">
<rect x="0.0000" y="-2.0500" width="0.1900" height="4.0500" ry="0.0000" fill="currentColor"/>
</g>
<g transform="translate(37.6640, 7.6243)">
<rect x="0.0000" y="-2.0000" width="0.1900" height="4.0500" ry="0.0000" fill="currentColor"/>
</g>
<g transform="translate(107.3040, 3.8453)">
<rect x="0.0000" y="5.8290" width="0.6000" height="8.1944" ry="0.0000" fill="currentColor"/>
</g>
<g transform="translate(106.8140, 3.8453)">
<rect x="0.0000" y="5.8290" width="0.1900" height="8.1944" ry="0.0000" fill="currentColor"/>
</g>
<g transform="translate(107.3040, 19.8686)">
<rect x="0.0000" y="-2.0500" width="0.6000" height="4.0500" ry="0.0000" fill="currentColor"/>
</g>
<g transform="translate(106.8140, 19.8686)">
<rect x="0.0000" y="-2.0500" width="0.1900" height="4.0500" ry="0.0000" fill="currentColor"/>
</g>
<g transform="translate(107.3040, 7.6243)">
<rect x="0.0000" y="-2.0000" width="0.6000" height="4.0500" ry="0.0000" fill="currentColor"/>
</g>
<g transform="translate(106.8140, 7.6243)">
<rect x="0.0000" y="-2.0000" width="0.1900" height="4.0500" ry="0.0000" fill="currentColor"/>
</g>
<g transform="translate(98.3660, 3.8453)">
<rect x="0.0000" y="5.8290" width="0.1900" height="8.1944" ry="0.0000" fill="currentColor"/>
</g>
<g transform="translate(98.3660, 19.8686)">
<rect x="0.0000" y="-2.0500" width="0.1900" height="4.0500" ry="0.0000" fill="currentColor"/>
</g>
<g transform="translate(98.3660, 7.6243)">
<rect x="0.0000" y="-2.0000" width="0.1900" height="4.0500" ry="0.0000" fill="currentColor"/>
</g>
<g transform="translate(86.1540, 3.8453)">
<rect x="0.0000" y="5.8290" width="0.1900" height="8.1944" ry="0.0000" fill="currentColor"/>
</g>
<g transform="translate(86.1540, 19.8686)">
<rect x="0.0000" y="-2.0500" width="0.1900" height="4.0500" ry="0.0000" fill="currentColor"/>
</g>
<g transform="translate(86.1540, 7.6243)">
<rect x="0.0000" y="-2.0000" width="0.1900" height="4.0500" ry="0.0000" fill="currentColor"/>
</g>
<g transform="translate(64.4340, 3.8453)">
<rect x="0.0000" y="5.8290" width="0.1900" height="8.1944" ry="0.0000" fill="currentColor"/>
</g>
<g transform="translate(64.4340, 19.8686)">
<rect x="0.0000" y="-2.0500" width="0.1900" height="4.0500" ry="0.0000" fill="currentColor"/>
</g>
<g transform="translate(64.4340, 7.6243)">
<rect x="0.0000" y="-2.0000" width="0.1900" height="4.0500" ry="0.0000" fill="currentColor"/>
</g>
<g transform="translate(15.0264, 18.8686)">
<path transform="scale(0.0040, -0.0040)" d="M557 -125c0 28 23 51 51 51s51 -23 51 -51s-23 -51 -51 -51s-51 23 -51 51zM557 125c0 28 23 51 51 51s51 -23 51 -51s-23 -51 -51 -51s-51 23 -51 51zM232 263c172 0 293 -88 293 -251c0 -263 -263 -414 -516 -521c-3 -3 -6 -4 -9 -4c-7 0 -13 6 -13 13c0 3 1 6 4 9
c202 118 412 265 412 493c0 120 -63 235 -171 235c-74 0 -129 -54 -154 -126c11 5 22 8 34 8c55 0 100 -45 100 -100c0 -58 -44 -106 -100 -106c-60 0 -112 47 -112 106c0 133 102 244 232 244z" fill="currentColor"/>
</g>
<g transform="translate(19.2947, 19.8686)">
<path transform="scale(0.0040, -0.0040)" d="M103 135c9 2 17 3 26 3c33 0 70 -11 105 -36c21 -15 46 -23 66 -23c21 0 39 9 44 29c2 6 6 9 11 9c6 0 12 -5 12 -12c0 -67 -90 -105 -138 -105c-36 0 -71 14 -96 44c-13 16 -31 22 -48 22c-30 0 -59 -20 -62 -55c-1 -7 -6 -11 -11 -11c-6 0 -12 4 -12 11
c0 175 235 165 235 344c0 60 -18 122 -70 122c-26 0 -51 -14 -51 -37c0 -27 35 -41 35 -68c0 -38 -30 -69 -68 -69s-69 31 -69 69c0 76 72 128 153 128c96 0 187 -56 187 -145c0 -153 -151 -159 -249 -220z" fill="currentColor"/>
</g>
<g transform="translate(19.2264, 21.8847)">
<path transform="scale(0.0040, -0.0040)" d="M196 117h117c0 -48 27 -94 72 -94c8 0 12 -5 12 -11s-4 -12 -12 -12c-44 0 -87 13 -131 13s-87 -13 -131 -13c-8 0 -12 6 -12 12s4 11 12 11c45 0 73 46 73 94zM204 307c22 14 44 29 60 50c11 15 19 33 27 50c2 4 5 6 9 6c6 0 13 -5 13 -14v-245h72c10 0 15 -7 15 -14
s-5 -15 -15 -15h-72v-8h-117v8h-167c-23 0 -31 14 -31 23c0 3 1 5 2 6c80 93 138 207 138 330c0 10 7 19 16 16c23 -7 47 -13 71 -13s48 6 71 13c14 4 23 -9 17 -16l-284 -330h167v131c0 8 1 17 8 22z" fill="currentColor"/>
</g>
<g transform="translate(24.0864, 7.6243)">
<rect x="-0.0650" y="-2.1842" width="0.1300" height="2.4981" ry="0.0400" fill="currentColor"/>
</g>
<g transform="translate(22.9122, 19.8686)">
<rect x="-0.0650" y="-2.3139" width="0.1300" height="3.3139" ry="0.0400" fill="currentColor"/>
</g>
<g transform="translate(61.9690, 7.6243)">
<rect x="-0.0650" y="-1.0047" width="0.1300" height="3.3186" ry="0.0400" fill="currentColor"/>
</g>
<g transform="translate(60.7948, 19.8686)">
<rect x="-0.0650" y="-2.3139" width="0.1300" height="4.6973" ry="0.0400" fill="currentColor"/>
</g>
<g transform="translate(59.5798, 17.3686)">
<path transform="scale(0.0040, -0.0040)" d="M27 41l-1 -66v-11c0 -22 1 -44 4 -66c45 38 93 80 93 139c0 33 -14 67 -43 67c-31 0 -52 -30 -53 -63zM-15 -138l-12 595c8 5 18 8 27 8s19 -3 27 -8l-7 -345c25 21 58 34 91 34c52 0 89 -48 89 -102c0 -80 -86 -117 -147 -169c-15 -13 -24 -38 -45 -38
c-13 0 -23 11 -23 25z" fill="currentColor"/>
</g>
<g transform="translate(24.0214, 5.4343)">
<polygon stroke-linejoin="round" stroke-linecap="round" stroke-width="0.0800" fill="currentColor" stroke="currentColor" points="11.2026 0.8000 11.2026 1.2000 0.0400 0.2000 0.0400 -0.2000"/>
</g>
<g transform="translate(22.8472, 7.6243)">
<path stroke-width="0.0800" stroke-linejoin="round" stroke-linecap="round" stroke="currentColor" fill="currentColor" d="M0.6074 1.5450C2.8597 3.5210 17.3604 5.0189 19.9690 3.5450L19.9690 3.5450C17.3727 4.8996 2.8721 3.4017 0.6074 1.5450z"/>
</g>
<g transform="translate(68.9788, 10.6243)">
<path transform="scale(0.0040, -0.0040)" d="M218 136c55 0 108 -28 108 -89c0 -71 -55 -121 -102 -149c-35 -21 -75 -34 -116 -34c-55 0 -108 28 -108 89c0 71 55 121 102 149c35 21 75 34 116 34z" fill="currentColor"/>
</g>
<g transform="translate(65.4423, 7.6243)">
<path transform="scale(0.0040, -0.0040)" d="M103 135c9 2 17 3 26 3c33 0 70 -11 105 -36c21 -15 46 -23 66 -23c21 0 39 9 44 29c2 6 6 9 11 9c6 0 12 -5 12 -12c0 -67 -90 -105 -138 -105c-36 0 -71 14 -96 44c-13 16 -31 22 -48 22c-30 0 -59 -20 -62 -55c-1 -7 -6 -11 -11 -11c-6 0 -12 4 -12 11
c0 175 235 165 235 344c0 60 -18 122 -70 122c-26 0 -51 -14 -51 -37c0 -27 35 -41 35 -68c0 -38 -30 -69 -68 -69s-69 31 -69 69c0 76 72 128 153 128c96 0 187 -56 187 -145c0 -153 -151 -159 -249 -220z" fill="currentColor"/>
</g>
<g transform="translate(65.3740, 9.6403)">
<path transform="scale(0.0040, -0.0040)" d="M196 117h117c0 -48 27 -94 72 -94c8 0 12 -5 12 -11s-4 -12 -12 -12c-44 0 -87 13 -131 13s-87 -13 -131 -13c-8 0 -12 6 -12 12s4 11 12 11c45 0 73 46 73 94zM204 307c22 14 44 29 60 50c11 15 19 33 27 50c2 4 5 6 9 6c6 0 13 -5 13 -14v-245h72c10 0 15 -7 15 -14
s-5 -15 -15 -15h-72v-8h-117v8h-167c-23 0 -31 14 -31 23c0 3 1 5 2 6c80 93 138 207 138 330c0 10 7 19 16 16c23 -7 47 -13 71 -13s48 6 71 13c14 4 23 -9 17 -16l-284 -330h167v131c0 8 1 17 8 22z" fill="currentColor"/>
</g>
<g transform="translate(68.9788, 17.8686)">
<path transform="scale(0.0040, -0.0040)" d="M218 136c55 0 108 -28 108 -89c0 -71 -55 -121 -102 -149c-35 -21 -75 -34 -116 -34c-55 0 -108 28 -108 89c0 71 55 121 102 149c35 21 75 34 116 34z" fill="currentColor"/>
</g>
<g transform="translate(65.4423, 19.8686)">
<path transform="scale(0.0040, -0.0040)" d="M103 135c9 2 17 3 26 3c33 0 70 -11 105 -36c21 -15 46 -23 66 -23c21 0 39 9 44 29c2 6 6 9 11 9c6 0 12 -5 12 -12c0 -67 -90 -105 -138 -105c-36 0 -71 14 -96 44c-13 16 -31 22 -48 22c-30 0 -59 -20 -62 -55c-1 -7 -6 -11 -11 -11c-6 0 -12 4 -12 11
c0 175 235 165 235 344c0 60 -18 122 -70 122c-26 0 -51 -14 -51 -37c0 -27 35 -41 35 -68c0 -38 -30 -69 -68 -69s-69 31 -69 69c0 76 72 128 153 128c96 0 187 -56 187 -145c0 -153 -151 -159 -249 -220z" fill="currentColor"/>
</g>
<g transform="translate(65.3740, 21.8847)">
<path transform="scale(0.0040, -0.0040)" d="M196 117h117c0 -48 27 -94 72 -94c8 0 12 -5 12 -11s-4 -12 -12 -12c-44 0 -87 13 -131 13s-87 -13 -131 -13c-8 0 -12 6 -12 12s4 11 12 11c45 0 73 46 73 94zM204 307c22 14 44 29 60 50c11 15 19 33 27 50c2 4 5 6 9 6c6 0 13 -5 13 -14v-245h72c10 0 15 -7 15 -14
s-5 -15 -15 -15h-72v-8h-117v8h-167c-23 0 -31 14 -31 23c0 3 1 5 2 6c80 93 138 207 138 330c0 10 7 19 16 16c23 -7 47 -13 71 -13s48 6 71 13c14 4 23 -9 17 -16l-284 -330h167v131c0 8 1 17 8 22z" fill="currentColor"/>
</g>
<g transform="translate(70.2180, 7.6243)">
<rect x="-0.0650" y="-0.1964" width="0.1300" height="3.0103" ry="0.0400" fill="currentColor"/>
</g>
<g transform="translate(22.8472, 17.3686)">
<path transform="scale(0.0040, -0.0040)" d="M218 136c55 0 108 -28 108 -89c0 -71 -55 -121 -102 -149c-35 -21 -75 -34 -116 -34c-55 0 -108 28 -108 89c0 71 55 121 102 149c35 21 75 34 116 34z" fill="currentColor"/>
</g>
<g transform="translate(69.0438, 19.8686)">
<rect x="-0.0650" y="-1.8139" width="0.1300" height="4.6205" ry="0.0400" fill="currentColor"/>
</g>
<g transform="translate(19.2947, 7.6243)">
<path transform="scale(0.0040, -0.0040)" d="M103 135c9 2 17 3 26 3c33 0 70 -11 105 -36c21 -15 46 -23 66 -23c21 0 39 9 44 29c2 6 6 9 11 9c6 0 12 -5 12 -12c0 -67 -90 -105 -138 -105c-36 0 -71 14 -96 44c-13 16 -31 22 -48 22c-30 0 -59 -20 -62 -55c-1 -7 -6 -11 -11 -11c-6 0 -12 4 -12 11
c0 175 235 165 235 344c0 60 -18 122 -70 122c-26 0 -51 -14 -51 -37c0 -27 35 -41 35 -68c0 -38 -30 -69 -68 -69s-69 31 -69 69c0 76 72 128 153 128c96 0 187 -56 187 -145c0 -153 -151 -159 -249 -220z" fill="currentColor"/>
</g>
<g transform="translate(19.2264, 9.6403)">
<path transform="scale(0.0040, -0.0040)" d="M196 117h117c0 -48 27 -94 72 -94c8 0 12 -5 12 -11s-4 -12 -12 -12c-44 0 -87 13 -131 13s-87 -13 -131 -13c-8 0 -12 6 -12 12s4 11 12 11c45 0 73 46 73 94zM204 307c22 14 44 29 60 50c11 15 19 33 27 50c2 4 5 6 9 6c6 0 13 -5 13 -14v-245h72c10 0 15 -7 15 -14
s-5 -15 -15 -15h-72v-8h-117v8h-167c-23 0 -31 14 -31 23c0 3 1 5 2 6c80 93 138 207 138 330c0 10 7 19 16 16c23 -7 47 -13 71 -13s48 6 71 13c14 4 23 -9 17 -16l-284 -330h167v131c0 8 1 17 8 22z" fill="currentColor"/>
</g>
<g transform="translate(15.0264, 8.6243)">
<path transform="scale(0.0040, -0.0040)" d="M266 -635h-6c-108 0 -195 88 -195 197c0 58 53 103 112 103c54 0 95 -47 95 -103c0 -52 -43 -95 -95 -95c-11 0 -21 2 -31 6c26 -39 68 -65 117 -65h4zM461 -203c68 24 113 95 113 164c0 90 -66 179 -173 190c24 -116 46 -231 60 -354zM74 28c0 -135 129 -247 264 -247
c28 0 55 2 82 6c-14 127 -37 245 -63 364c-79 -8 -124 -61 -124 -119c0 -44 25 -91 81 -123c5 -5 7 -10 7 -15c0 -11 -10 -22 -22 -22c-3 0 -6 1 -9 2c-80 43 -117 115 -117 185c0 88 58 174 160 197c-14 58 -29 117 -46 175c-107 -121 -213 -243 -213 -403zM335 -262
c-188 0 -333 172 -333 374c0 177 131 306 248 441c-19 62 -37 125 -45 190c-6 52 -7 104 -7 156c0 115 55 224 149 292c6 5 14 5 20 0c71 -84 133 -245 133 -358c0 -143 -86 -255 -180 -364c21 -68 39 -138 56 -207c4 0 9 1 13 1c155 0 256 -128 256 -261
c0 -76 -33 -154 -107 -210c-22 -17 -47 -28 -73 -36c3 -35 5 -70 5 -105c0 -19 -1 -39 -2 -58c-7 -119 -88 -225 -202 -228l1 43c93 2 153 92 159 191c1 18 2 37 2 55c0 31 -1 61 -4 92c-29 -5 -58 -8 -89 -8zM428 916c0 55 -4 79 -20 129c-99 -48 -162 -149 -162 -259
c0 -74 18 -133 36 -194c80 97 146 198 146 324z" fill="currentColor"/>
</g>
<g transform="translate(72.6830, 10.1243)">
<path transform="scale(0.0040, -0.0040)" d="M218 136c55 0 108 -28 108 -89c0 -71 -55 -121 -102 -149c-35 -21 -75 -34 -116 -34c-55 0 -108 28 -108 89c0 71 55 121 102 149c35 21 75 34 116 34z" fill="currentColor"/>
</g>
<g transform="translate(72.6830, 18.3686)">
<path transform="scale(0.0040, -0.0040)" d="M218 136c55 0 108 -28 108 -89c0 -71 -55 -121 -102 -149c-35 -21 -75 -34 -116 -34c-55 0 -108 28 -108 89c0 71 55 121 102 149c35 21 75 34 116 34z" fill="currentColor"/>
</g>
<g transform="translate(73.9222, 7.6243)">
<rect x="-0.0650" y="-0.5587" width="0.1300" height="2.8726" ry="0.0400" fill="currentColor"/>
</g>
<g transform="translate(72.7480, 19.8686)">
<rect x="-0.0650" y="-1.3139" width="0.1300" height="4.3106" ry="0.0400" fill="currentColor"/>
</g>
<g transform="translate(30.2556, 22.0586)">
<polygon stroke-linejoin="round" stroke-linecap="round" stroke-width="0.0800" fill="currentColor" stroke="currentColor" points="15.7474 0.6100 15.7474 1.0100 0.0400 0.2000 0.0400 -0.2000"/>
</g>
<g transform="translate(75.1872, 9.6243)">
<path transform="scale(0.0040, -0.0040)" d="M218 136c55 0 108 -28 108 -89c0 -71 -55 -121 -102 -149c-35 -21 -75 -34 -116 -34c-55 0 -108 28 -108 89c0 71 55 121 102 149c35 21 75 34 116 34z" fill="currentColor"/>
</g>
<g transform="translate(76.4264, 7.6243)">
<rect x="-0.0650" y="-0.8036" width="0.1300" height="2.6175" ry="0.0400" fill="currentColor"/>
</g>
<g transform="translate(30.2556, 19.8686)">
<path stroke-width="0.0800" stroke-linejoin="round" stroke-linecap="round" stroke="currentColor" fill="currentColor" d="M0.6745 -4.5450C3.2003 -6.1498 17.6891 -5.4015 20.0361 -3.5450L20.0361 -3.5450C17.6829 -5.2816 3.1941 -6.0299 0.6745 -4.5450z"/>
</g>
<g transform="translate(77.6914, 9.1243)">
<path transform="scale(0.0040, -0.0040)" d="M218 136c55 0 108 -28 108 -89c0 -71 -55 -121 -102 -149c-35 -21 -75 -34 -116 -34c-55 0 -108 28 -108 89c0 71 55 121 102 149c35 21 75 34 116 34z" fill="currentColor"/>
</g>
<g transform="translate(77.6914, 18.8686)">
<path transform="scale(0.0040, -0.0040)" d="M218 136c55 0 108 -28 108 -89c0 -71 -55 -121 -102 -149c-35 -21 -75 -34 -116 -34c-55 0 -108 28 -108 89c0 71 55 121 102 149c35 21 75 34 116 34z" fill="currentColor"/>
</g>
<g transform="translate(78.9306, 7.6243)">
<rect x="-0.0650" y="-1.1868" width="0.1300" height="2.5007" ry="0.0400" fill="currentColor"/>
</g>
<g transform="translate(77.7564, 19.8686)">
<rect x="-0.0650" y="-0.8139" width="0.1300" height="3.0000" ry="0.0400" fill="currentColor"/>
</g>
<g transform="translate(76.2414, 18.8686)">
<path transform="scale(0.0040, -0.0040)" d="M216 -312c0 -10 -8 -19 -18 -19s-19 9 -19 19v145l-83 -31v-158c0 -10 -9 -19 -19 -19s-18 9 -18 19v145l-32 -12c-2 -1 -5 -1 -7 -1c-11 0 -20 9 -20 20v60c0 8 5 16 13 19l46 16v160l-32 -11c-2 -1 -5 -1 -7 -1c-11 0 -20 9 -20 20v60c0 8 5 15 13 18l46 17v158
c0 10 8 19 18 19s19 -9 19 -19v-145l83 31v158c0 10 9 19 19 19s18 -9 18 -19v-145l32 12c2 1 5 1 7 1c11 0 20 -9 20 -20v-60c0 -8 -5 -16 -13 -19l-46 -16v-160l32 11c2 1 5 1 7 1c11 0 20 -9 20 -20v-60c0 -8 -5 -15 -13 -18l-46 -17v-158zM96 65v-160l83 30v160z" fill="currentColor"/>
</g>
<g transform="translate(81.3956, 9.6243)">
<path transform="scale(0.0040, -0.0040)" d="M218 136c55 0 108 -28 108 -89c0 -71 -55 -121 -102 -149c-35 -21 -75 -34 -116 -34c-55 0 -108 28 -108 89c0 71 55 121 102 149c35 21 75 34 116 34z" fill="currentColor"/>
</g>
<g transform="translate(81.3956, 18.3686)">
<path transform="scale(0.0040, -0.0040)" d="M218 136c55 0 108 -28 108 -89c0 -71 -55 -121 -102 -149c-35 -21 -75 -34 -116 -34c-55 0 -108 28 -108 89c0 71 55 121 102 149c35 21 75 34 116 34z" fill="currentColor"/>
</g>
<g transform="translate(82.6348, 7.6243)">
<rect x="-0.0650" y="-1.0032" width="0.1300" height="2.8171" ry="0.0400" fill="currentColor"/>
</g>
<g transform="translate(81.4606, 19.8686)">
<rect x="-0.0650" y="-1.3139" width="0.1300" height="3.2779" ry="0.0400" fill="currentColor"/>
</g>
<g transform="translate(50.7914, 5.8143)">
<polygon stroke-linejoin="round" stroke-linecap="round" stroke-width="0.0800" fill="currentColor" stroke="currentColor" points="11.2026 0.6100 11.2026 1.0100 0.0400 0.2000 0.0400 -0.2000"/>
</g>
<g transform="translate(83.8998, 17.8686)">
<path transform="scale(0.0040, -0.0040)" d="M218 136c55 0 108 -28 108 -89c0 -71 -55 -121 -102 -149c-35 -21 -75 -34 -116 -34c-55 0 -108 28 -108 89c0 71 55 121 102 149c35 21 75 34 116 34z" fill="currentColor"/>
</g>
<g transform="translate(83.9648, 19.8686)">
<rect x="-0.0650" y="-1.8139" width="0.1300" height="3.6278" ry="0.0400" fill="currentColor"/>
</g>
<g transform="translate(49.6172, 7.6243)">
<path stroke-width="0.0800" stroke-linejoin="round" stroke-linecap="round" stroke="currentColor" fill="currentColor" d="M0.6406 2.1950C3.8070 4.2129 48.4319 5.3927 51.7005 3.5450L51.7005 3.5450C48.4351 5.2728 3.8102 4.0929 0.6406 2.1950z"/>
</g>
<g transform="translate(87.4169, 10.1243)">
<path transform="scale(0.0040, -0.0040)" d="M314 65c0 24 -21 41 -42 41c-4 0 -8 0 -12 -1c-31 -9 -78 -40 -115 -64s-84 -53 -104 -78c-7 -8 -10 -18 -10 -28c0 -24 21 -41 42 -41c4 0 8 0 12 1c31 9 77 40 114 64s84 53 104 78c7 8 11 18 11 28zM262 136c46 0 82 -21 82 -71c0 -19 -4 -39 -10 -57
c-12 -37 -32 -72 -64 -94c-53 -36 -113 -50 -187 -50c-46 0 -83 21 -83 71c0 19 5 39 11 57c12 37 31 72 63 94c53 36 114 50 188 50z" fill="currentColor"/>
</g>
<g transform="translate(87.4169, 17.3686)">
<path transform="scale(0.0040, -0.0040)" d="M314 65c0 24 -21 41 -42 41c-4 0 -8 0 -12 -1c-31 -9 -78 -40 -115 -64s-84 -53 -104 -78c-7 -8 -10 -18 -10 -28c0 -24 21 -41 42 -41c4 0 8 0 12 1c31 9 77 40 114 64s84 53 104 78c7 8 11 18 11 28zM262 136c46 0 82 -21 82 -71c0 -19 -4 -39 -10 -57
c-12 -37 -32 -72 -64 -94c-53 -36 -113 -50 -187 -50c-46 0 -83 21 -83 71c0 19 5 39 11 57c12 37 31 72 63 94c53 36 114 50 188 50z" fill="currentColor"/>
</g>
<g transform="translate(88.7942, 17.3686)">
<path transform="scale(0.0040, -0.0040)" d="M218 136c55 0 108 -28 108 -89c0 -71 -55 -121 -102 -149c-35 -21 -75 -34 -116 -34c-55 0 -108 28 -108 89c0 71 55 121 102 149c35 21 75 34 116 34z" fill="currentColor"/>
</g>
<g transform="translate(88.7292, 7.6243)">
<rect x="-0.0650" y="-1.0000" width="0.1300" height="3.2410" ry="0.0400" fill="currentColor"/>
</g>
<g transform="translate(22.0311, 11.4423)">
<g>
<path transform="scale(0.0040, -0.0040)" d="M233 243c-56 0 -102 -107 -102 -173c0 -22 8 -38 30 -38c64 0 97 126 97 178c0 18 -7 33 -25 33zM112 -146c-38 0 -78 5 -116 5c-39 0 -78 -5 -115 -5c-9 0 -14 7 -14 14c0 18 31 15 48 16c22 1 47 5 54 25l102 300c2 7 4 14 4 20c0 8 -2 14 -11 14
c-33 0 -63 -60 -79 -97c-5 -12 -15 -17 -24 -17c-8 0 -14 4 -14 12c0 2 1 5 2 8c30 68 72 143 132 143c35 0 59 -21 66 -52c29 31 67 52 103 52c69 0 107 -49 107 -114c0 -21 -4 -44 -12 -67c-20 -58 -91 -119 -147 -119c-27 0 -52 5 -73 17c-4 2 -7 3 -11 3
c-7 0 -14 -3 -16 -9l-29 -86c-1 -2 -1 -5 -1 -7c0 -20 21 -26 44 -28c9 -1 13 -8 13 -14c0 -7 -4 -14 -13 -14z" fill="currentColor"/>

<path transform="translate(1.4682, 0.0000) scale(0.0040, -0.0040)" d="M233 243c-56 0 -102 -107 -102 -173c0 -22 8 -38 30 -38c64 0 97 126 97 178c0 18 -7 33 -25 33zM112 -146c-38 0 -78 5 -116 5c-39 0 -78 -5 -115 -5c-9 0 -14 7 -14 14c0 18 31 15 48 16c22 1 47 5 54 25l102 300c2 7 4 14 4 20c0 8 -2 14 -11 14
c-33 0 -63 -60 -79 -97c-5 -12 -15 -17 -24 -17c-8 0 -14 4 -14 12c0 2 1 5 2 8c30 68 72 143 132 143c35 0 59 -21 66 -52c29 31 67 52 103 52c69 0 107 -49 107 -114c0 -21 -4 -44 -12 -67c-20 -58 -91 -119 -147 -119c-27 0 -52 5 -73 17c-4 2 -7 3 -11 3
c-7 0 -14 -3 -16 -9l-29 -86c-1 -2 -1 -5 -1 -7c0 -20 21 -26 44 -28c9 -1 13 -8 13 -14c0 -7 -4 -14 -13 -14z" fill="currentColor"/>
</g>
</g>
<g transform="translate(88.7292, 19.8686)">
<rect x="-0.0650" y="-5.0000" width="0.1300" height="2.2410" ry="0.0400" fill="currentColor"/>
</g>
<g transform="translate(88.8592, 19.8686)">
<rect x="-0.0650" y="-2.3139" width="0.1300" height="3.3139" ry="0.0400" fill="currentColor"/>
</g>
<g transform="translate(22.8472, 8.1243)">
<path transform="scale(0.0040, -0.0040)" d="M218 136c55 0 108 -28 108 -89c0 -71 -55 -121 -102 -149c-35 -21 -75 -34 -116 -34c-55 0 -108 28 -108 89c0 71 55 121 102 149c35 21 75 34 116 34z" fill="currentColor"/>
</g>
<g transform="translate(57.0256, 22.0586)">
<polygon stroke-linejoin="round" stroke-linecap="round" stroke-width="0.0800" fill="currentColor" stroke="currentColor" points="15.7474 0.6100 15.7474 1.0100 0.0400 0.2000 0.0400 -0.2000"/>
</g>
<g transform="translate(57.0256, 19.8686)">
<path stroke-width="0.0800" stroke-linejoin="round" stroke-linecap="round" stroke="currentColor" fill="currentColor" d="M0.6720 -4.5450C3.8721 -6.3127 41.3002 -4.5979 44.3252 -2.5450L44.3252 -2.5450C41.2947 -4.4780 3.8666 -6.1928 0.6720 -4.5450z"/>
</g>
<g transform="translate(93.6984, 17.8686)">
<path transform="scale(0.0040, -0.0040)" d="M218 136c55 0 108 -28 108 -89c0 -71 -55 -121 -102 -149c-35 -21 -75 -34 -116 -34c-55 0 -108 28 -108 89c0 71 55 121 102 149c35 21 75 34 116 34z" fill="currentColor"/>
</g>
<g transform="translate(93.7634, 19.8686)">
<rect x="-0.0650" y="-1.8139" width="0.1300" height="3.3139" ry="0.0400" fill="currentColor"/>
</g>
<g transform="translate(68.9788, 13.2051)">
<line stroke-linejoin="round" stroke-linecap="round" stroke-width="0.1000" stroke="currentColor" x1="0.0000" y1="0.0000" x2="13.7211" y2="0.6666"/>
</g>
<g transform="translate(68.9788, 13.2051)">
<line stroke-linejoin="round" stroke-linecap="round" stroke-width="0.1000" stroke="currentColor" x1="0.0000" y1="-0.0000" x2="13.7211" y2="-0.6666"/>
</g>
<g transform="translate(100.6412, 10.1243)">
<path transform="scale(0.0040, -0.0040)" d="M314 65c0 24 -21 41 -42 41c-4 0 -8 0 -12 -1c-31 -9 -78 -40 -115 -64s-84 -53 -104 -78c-7 -8 -10 -18 -10 -28c0 -24 21 -41 42 -41c4 0 8 0 12 1c31 9 77 40 114 64s84 53 104 78c7 8 11 18 11 28zM262 136c46 0 82 -21 82 -71c0 -19 -4 -39 -10 -57
c-12 -37 -32 -72 -64 -94c-53 -36 -113 -50 -187 -50c-46 0 -83 21 -83 71c0 19 5 39 11 57c12 37 31 72 63 94c53 36 114 50 188 50z" fill="currentColor"/>
</g>
<g transform="translate(100.6412, 17.3686)">
<path transform="scale(0.0040, -0.0040)" d="M314 65c0 24 -21 41 -42 41c-4 0 -8 0 -12 -1c-31 -9 -78 -40 -115 -64s-84 -53 -104 -78c-7 -8 -10 -18 -10 -28c0 -24 21 -41 42 -41c4 0 8 0 12 1c31 9 77 40 114 64s84 53 104 78c7 8 11 18 11 28zM262 136c46 0 82 -21 82 -71c0 -19 -4 -39 -10 -57
c-12 -37 -32 -72 -64 -94c-53 -36 -113 -50 -187 -50c-46 0 -83 21 -83 71c0 19 5 39 11 57c12 37 31 72 63 94c53 36 114 50 188 50z" fill="currentColor"/>
</g>
<g transform="translate(100.6412, 18.3686)">
<path transform="scale(0.0040, -0.0040)" d="M314 65c0 24 -21 41 -42 41c-4 0 -8 0 -12 -1c-31 -9 -78 -40 -115 -64s-84 -53 -104 -78c-7 -8 -10 -18 -10 -28c0 -24 21 -41 42 -41c4 0 8 0 12 1c31 9 77 40 114 64s84 53 104 78c7 8 11 18 11 28zM262 136c46 0 82 -21 82 -71c0 -19 -4 -39 -10 -57
c-12 -37 -32 -72 -64 -94c-53 -36 -113 -50 -187 -50c-46 0 -83 21 -83 71c0 19 5 39 11 57c12 37 31 72 63 94c53 36 114 50 188 50z" fill="currentColor"/>
</g>
<g transform="translate(101.9535, 7.6243)">
<rect x="-0.0650" y="-1.0000" width="0.1300" height="3.2410" ry="0.0400" fill="currentColor"/>
</g>
<g transform="translate(60.7298, 17.3686)">
<path transform="scale(0.0040, -0.0040)" d="M218 136c55 0 108 -28 108 -89c0 -71 -55 -121 -102 -149c-35 -21 -75 -34 -116 -34c-55 0 -108 28 -108 89c0 71 55 121 102 149c35 21 75 34 116 34z" fill="currentColor"/>
</g>
<g transform="translate(101.9535, 19.8686)">
<rect x="-0.0650" y="-5.0000" width="0.1300" height="2.2410" ry="0.0400" fill="currentColor"/>
</g>
<g transform="translate(100.7062, 19.8686)">
<rect x="-0.0650" y="-1.2410" width="0.1300" height="3.2410" ry="0.0400" fill="currentColor"/>
</g>
<g transform="translate(14.1664, 13.7465)">
<rect x="0.0000" y="-8.1722" width="0.1600" height="16.3444" ry="0.0500" fill="currentColor"/>
</g>
<g transform="translate(70.1530, 7.4343)">
<polygon stroke-linejoin="round" stroke-linecap="round" stroke-width="0.0800" fill="currentColor" stroke="currentColor" points="6.2984 -0.8200 6.2984 -0.4200 0.0400 0.2000 0.0400 -0.2000"/>
</g>
<g transform="translate(73.8572, 7.8819)">
<polygon stroke-linejoin="round" stroke-linecap="round" stroke-width="0.0800" fill="currentColor" stroke="currentColor" points="2.5942 -0.4577 2.5942 -0.0577 0.0400 0.2000 0.0400 -0.2000"/>
</g>
<g transform="translate(78.8656, 6.4343)">
<polygon stroke-linejoin="round" stroke-linecap="round" stroke-width="0.0800" fill="currentColor" stroke="currentColor" points="3.7942 -0.0100 3.7942 0.3900 0.0400 0.2000 0.0400 -0.2000"/>
</g>
<g transform="translate(26.5514, 8.6243)">
<path transform="scale(0.0040, -0.0040)" d="M218 136c55 0 108 -28 108 -89c0 -71 -55 -121 -102 -149c-35 -21 -75 -34 -116 -34c-55 0 -108 28 -108 89c0 71 55 121 102 149c35 21 75 34 116 34z" fill="currentColor"/>
</g>
<g transform="translate(27.7906, 7.6243)">
<rect x="-0.0650" y="-1.8547" width="0.1300" height="2.6686" ry="0.0400" fill="currentColor"/>
</g>
<g transform="translate(87.4169, 13.2109)">
<line stroke-linejoin="round" stroke-linecap="round" stroke-width="0.1000" stroke="currentColor" x1="0.0000" y1="0.6666" x2="14.6016" y2="0.0000"/>
</g>
<g transform="translate(87.4169, 13.2109)">
<line stroke-linejoin="round" stroke-linecap="round" stroke-width="0.1000" stroke="currentColor" x1="0.0000" y1="-0.6666" x2="14.6016" y2="-0.0000"/>
</g>
<g transform="translate(30.2556, 9.1243)">
<path transform="scale(0.0040, -0.0040)" d="M218 136c55 0 108 -28 108 -89c0 -71 -55 -121 -102 -149c-35 -21 -75 -34 -116 -34c-55 0 -108 28 -108 89c0 71 55 121 102 149c35 21 75 34 116 34z" fill="currentColor"/>
</g>
<g transform="translate(30.2556, 16.3686)">
<path transform="scale(0.0040, -0.0040)" d="M218 136c55 0 108 -28 108 -89c0 -71 -55 -121 -102 -149c-35 -21 -75 -34 -116 -34c-55 0 -108 28 -108 89c0 71 55 121 102 149c35 21 75 34 116 34z" fill="currentColor"/>
</g>
<g transform="translate(29.4395, 24.0557)">
<g>
<path transform="scale(0.0040, -0.0040)" d="M233 243c-56 0 -102 -107 -102 -173c0 -22 8 -38 30 -38c64 0 97 126 97 178c0 18 -7 33 -25 33zM112 -146c-38 0 -78 5 -116 5c-39 0 -78 -5 -115 -5c-9 0 -14 7 -14 14c0 18 31 15 48 16c22 1 47 5 54 25l102 300c2 7 4 14 4 20c0 8 -2 14 -11 14
c-33 0 -63 -60 -79 -97c-5 -12 -15 -17 -24 -17c-8 0 -14 4 -14 12c0 2 1 5 2 8c30 68 72 143 132 143c35 0 59 -21 66 -52c29 31 67 52 103 52c69 0 107 -49 107 -114c0 -21 -4 -44 -12 -67c-20 -58 -91 -119 -147 -119c-27 0 -52 5 -73 17c-4 2 -7 3 -11 3
c-7 0 -14 -3 -16 -9l-29 -86c-1 -2 -1 -5 -1 -7c0 -20 21 -26 44 -28c9 -1 13 -8 13 -14c0 -7 -4 -14 -13 -14z" fill="currentColor"/>

<path transform="translate(1.4682, 0.0000) scale(0.0040, -0.0040)" d="M233 243c-56 0 -102 -107 -102 -173c0 -22 8 -38 30 -38c64 0 97 126 97 178c0 18 -7 33 -25 33zM112 -146c-38 0 -78 5 -116 5c-39 0 -78 -5 -115 -5c-9 0 -14 7 -14 14c0 18 31 15 48 16c22 1 47 5 54 25l102 300c2 7 4 14 4 20c0 8 -2 14 -11 14
c-33 0 -63 -60 -79 -97c-5 -12 -15 -17 -24 -17c-8 0 -14 4 -14 12c0 2 1 5 2 8c30 68 72 143 132 143c35 0 59 -21 66 -52c29 31 67 52 103 52c69 0 107 -49 107 -114c0 -21 -4 -44 -12 -67c-20 -58 -91 -119 -147 -119c-27 0 -52 5 -73 17c-4 2 -7 3 -11 3
c-7 0 -14 -3 -16 -9l-29 -86c-1 -2 -1 -5 -1 -7c0 -20 21 -26 44 -28c9 -1 13 -8 13 -14c0 -7 -4 -14 -13 -14z" fill="currentColor"/>
</g>
</g>
<g transform="translate(31.4948, 7.6243)">
<rect x="-0.0650" y="-1.5253" width="0.1300" height="2.8392" ry="0.0400" fill="currentColor"/>
</g>
<g transform="translate(30.3206, 19.8686)">
<rect x="-0.0650" y="-3.3139" width="0.1300" height="5.5072" ry="0.0400" fill="currentColor"/>
</g>
<g transform="translate(81.3956, 21.0266)">
<polygon stroke-linejoin="round" stroke-linecap="round" stroke-width="0.0800" fill="currentColor" stroke="currentColor" points="2.5942 -0.3579 2.5942 0.0421 0.0400 0.2000 0.0400 -0.2000"/>
</g>
<g transform="translate(77.6914, 22.0586)">
<polygon stroke-linejoin="round" stroke-linecap="round" stroke-width="0.0800" fill="currentColor" stroke="currentColor" points="6.2984 -0.5800 6.2984 -0.1800 0.0400 0.2000 0.0400 -0.2000"/>
</g>
<g transform="translate(33.9598, 9.6243)">
<path transform="scale(0.0040, -0.0040)" d="M218 136c55 0 108 -28 108 -89c0 -71 -55 -121 -102 -149c-35 -21 -75 -34 -116 -34c-55 0 -108 28 -108 89c0 71 55 121 102 149c35 21 75 34 116 34z" fill="currentColor"/>
</g>
<g transform="translate(33.9598, 16.8686)">
<path transform="scale(0.0040, -0.0040)" d="M218 136c55 0 108 -28 108 -89c0 -71 -55 -121 -102 -149c-35 -21 -75 -34 -116 -34c-55 0 -108 28 -108 89c0 71 55 121 102 149c35 21 75 34 116 34z" fill="currentColor"/>
</g>
<g transform="translate(35.1990, 7.6243)">
<rect x="-0.0650" y="-1.1958" width="0.1300" height="3.0097" ry="0.0400" fill="currentColor"/>
</g>
<g transform="translate(34.0248, 19.8686)">
<rect x="-0.0650" y="-2.8139" width="0.1300" height="5.1973" ry="0.0400" fill="currentColor"/>
</g>
<g transform="translate(87.4169, 7.6243)">
<path stroke-width="0.0800" stroke-linejoin="round" stroke-linecap="round" stroke="currentColor" fill="currentColor" d="M1.5773 3.0000C2.8747 3.9546 11.7269 3.9546 13.0243 3.0000L13.0243 3.0000C11.7269 3.8346 2.8747 3.8346 1.5773 3.0000z"/>
</g>
<g transform="translate(42.2088, 10.1243)">
<path transform="scale(0.0040, -0.0040)" d="M218 136c55 0 108 -28 108 -89c0 -71 -55 -121 -102 -149c-35 -21 -75 -34 -116 -34c-55 0 -108 28 -108 89c0 71 55 121 102 149c35 21 75 34 116 34z" fill="currentColor"/>
</g>
<g transform="translate(38.7406, 7.6243)">
<path transform="scale(0.0040, -0.0040)" d="M150 477c-29 0 -59 -8 -59 -33c0 -22 36 -25 36 -47c0 -32 -26 -58 -58 -58s-57 26 -57 58c0 65 67 103 138 103c91 0 169 -33 169 -114c0 -43 -4 -82 -42 -100c-9 -4 -14 -12 -14 -21s5 -18 14 -22c41 -19 56 -57 56 -103c0 -92 -79 -140 -179 -140
c-79 0 -154 42 -154 113c0 36 30 66 66 66s65 -30 65 -66c0 -25 -40 -28 -40 -53c0 -27 32 -37 63 -37c49 0 63 61 63 117v16c0 54 -2 94 -50 94h-80c-10 0 -14 8 -14 15s4 14 14 14h80c49 0 50 43 50 99v8c0 54 -18 91 -67 91z" fill="currentColor"/>
</g>
<g transform="translate(38.6040, 9.6403)">
<path transform="scale(0.0040, -0.0040)" d="M196 117h117c0 -48 27 -94 72 -94c8 0 12 -5 12 -11s-4 -12 -12 -12c-44 0 -87 13 -131 13s-87 -13 -131 -13c-8 0 -12 6 -12 12s4 11 12 11c45 0 73 46 73 94zM204 307c22 14 44 29 60 50c11 15 19 33 27 50c2 4 5 6 9 6c6 0 13 -5 13 -14v-245h72c10 0 15 -7 15 -14
s-5 -15 -15 -15h-72v-8h-117v8h-167c-23 0 -31 14 -31 23c0 3 1 5 2 6c80 93 138 207 138 330c0 10 7 19 16 16c23 -7 47 -13 71 -13s48 6 71 13c14 4 23 -9 17 -16l-284 -330h167v131c0 8 1 17 8 22z" fill="currentColor"/>
</g>
<g transform="translate(42.2088, 17.3686)">
<path transform="scale(0.0040, -0.0040)" d="M218 136c55 0 108 -28 108 -89c0 -71 -55 -121 -102 -149c-35 -21 -75 -34 -116 -34c-55 0 -108 28 -108 89c0 71 55 121 102 149c35 21 75 34 116 34z" fill="currentColor"/>
</g>
<g transform="translate(38.7406, 19.8686)">
<path transform="scale(0.0040, -0.0040)" d="M150 477c-29 0 -59 -8 -59 -33c0 -22 36 -25 36 -47c0 -32 -26 -58 -58 -58s-57 26 -57 58c0 65 67 103 138 103c91 0 169 -33 169 -114c0 -43 -4 -82 -42 -100c-9 -4 -14 -12 -14 -21s5 -18 14 -22c41 -19 56 -57 56 -103c0 -92 -79 -140 -179 -140
c-79 0 -154 42 -154 113c0 36 30 66 66 66s65 -30 65 -66c0 -25 -40 -28 -40 -53c0 -27 32 -37 63 -37c49 0 63 61 63 117v16c0 54 -2 94 -50 94h-80c-10 0 -14 8 -14 15s4 14 14 14h80c49 0 50 43 50 99v8c0 54 -18 91 -67 91z" fill="currentColor"/>
</g>
<g transform="translate(38.6040, 21.8847)">
<path transform="scale(0.0040, -0.0040)" d="M196 117h117c0 -48 27 -94 72 -94c8 0 12 -5 12 -11s-4 -12 -12 -12c-44 0 -87 13 -131 13s-87 -13 -131 -13c-8 0 -12 6 -12 12s4 11 12 11c45 0 73 46 73 94zM204 307c22 14 44 29 60 50c11 15 19 33 27 50c2 4 5 6 9 6c6 0 13 -5 13 -14v-245h72c10 0 15 -7 15 -14
s-5 -15 -15 -15h-72v-8h-117v8h-167c-23 0 -31 14 -31 23c0 3 1 5 2 6c80 93 138 207 138 330c0 10 7 19 16 16c23 -7 47 -13 71 -13s48 6 71 13c14 4 23 -9 17 -16l-284 -330h167v131c0 8 1 17 8 22z" fill="currentColor"/>
</g>
<g transform="translate(43.4480, 7.6243)">
<rect x="-0.0650" y="-1.0000" width="0.1300" height="3.3139" ry="0.0400" fill="currentColor"/>
</g>
<g transform="translate(13.8664, 13.7465)">
<path transform="scale(0.0040, -0.0040)" d="M-216 -1432c0 336 128 660 128 976c0 164 -36 320 -148 448c0 4 -4 4 -4 8s4 4 4 8c112 128 148 284 148 448c0 316 -128 640 -128 976c0 228 52 444 204 612c16 16 40 -8 24 -24c-112 -128 -148 -280 -148 -448c0 -312 120 -632 120 -960c0 -224 -48 -444 -196 -612
c148 -168 196 -388 196 -612c0 -328 -120 -648 -120 -960c0 -168 36 -320 148 -448c16 -16 -8 -40 -24 -24c-152 168 -204 384 -204 612z" fill="currentColor"/>
</g>
<g transform="translate(42.2738, 19.8686)">
<rect x="-0.0650" y="-2.3139" width="0.1300" height="5.1205" ry="0.0400" fill="currentColor"/>
</g>
<g transform="translate(87.4169, 19.8686)">
<path stroke-width="0.0800" stroke-linejoin="round" stroke-linecap="round" stroke="currentColor" fill="currentColor" d="M1.7123 -3.0000C3.0043 -3.9534 11.7324 -3.9534 13.0243 -3.0000L13.0243 -3.0000C11.7324 -3.8334 3.0043 -3.8334 1.7123 -3.0000z"/>
</g>
<g transform="translate(45.9130, 17.8686)">
<path transform="scale(0.0040, -0.0040)" d="M218 136c55 0 108 -28 108 -89c0 -71 -55 -121 -102 -149c-35 -21 -75 -34 -116 -34c-55 0 -108 28 -108 89c0 71 55 121 102 149c35 21 75 34 116 34z" fill="currentColor"/>
</g>
<g transform="translate(45.9780, 19.8686)">
<rect x="-0.0650" y="-1.8139" width="0.1300" height="4.8106" ry="0.0400" fill="currentColor"/>
</g>
<g transform="translate(49.6172, 8.6243)">
<path transform="scale(0.0040, -0.0040)" d="M218 136c55 0 108 -28 108 -89c0 -71 -55 -121 -102 -149c-35 -21 -75 -34 -116 -34c-55 0 -108 28 -108 89c0 71 55 121 102 149c35 21 75 34 116 34z" fill="currentColor"/>
</g>
<g transform="translate(48.6645, 11.7546)">
<g>
<path transform="scale(0.0040, -0.0040)" d="M-41 146c26 76 82 153 149 153c22 0 36 -20 41 -45c22 26 51 45 81 45c23 0 38 -21 44 -46c22 27 51 46 80 46c33 0 59 -35 59 -69c0 -5 -1 -10 -2 -15l-35 -149c0 -2 -1 -4 -1 -5c0 -5 2 -8 7 -8c9 0 27 11 48 31c4 4 9 6 13 6c6 0 11 -4 11 -10c0 -4 -3 -8 -7 -12
c-40 -38 -85 -75 -131 -75c-20 0 -32 13 -32 32c0 4 0 7 1 11l39 165c1 5 2 9 2 14c0 10 -4 18 -14 18c-16 0 -33 -16 -39 -32l-53 -183c-3 -10 -12 -18 -22 -18h-41c-10 0 -16 8 -13 18l52 183c2 6 3 11 3 16c0 9 -4 16 -13 16c-16 0 -35 -16 -41 -33l-62 -182
c-3 -10 -14 -18 -24 -18h-41c-10 0 -15 8 -12 18l63 183c2 5 2 10 2 15c0 10 -3 17 -13 17c-29 0 -54 -53 -66 -87c-4 -11 -15 -17 -23 -17c-7 0 -12 4 -12 11c0 2 1 4 2 6z" fill="currentColor"/>

<path transform="translate(1.7413, 0.0000) scale(0.0040, -0.0040)" d="M233 243c-56 0 -102 -107 -102 -173c0 -22 8 -38 30 -38c64 0 97 126 97 178c0 18 -7 33 -25 33zM112 -146c-38 0 -78 5 -116 5c-39 0 -78 -5 -115 -5c-9 0 -14 7 -14 14c0 18 31 15 48 16c22 1 47 5 54 25l102 300c2 7 4 14 4 20c0 8 -2 14 -11 14
c-33 0 -63 -60 -79 -97c-5 -12 -15 -17 -24 -17c-8 0 -14 4 -14 12c0 2 1 5 2 8c30 68 72 143 132 143c35 0 59 -21 66 -52c29 31 67 52 103 52c69 0 107 -49 107 -114c0 -21 -4 -44 -12 -67c-20 -58 -91 -119 -147 -119c-27 0 -52 5 -73 17c-4 2 -7 3 -11 3
c-7 0 -14 -3 -16 -9l-29 -86c-1 -2 -1 -5 -1 -7c0 -20 21 -26 44 -28c9 -1 13 -8 13 -14c0 -7 -4 -14 -13 -14z" fill="currentColor"/>
</g>
</g>
<g transform="translate(49.6172, 17.8686)">
<path transform="scale(0.0040, -0.0040)" d="M218 136c55 0 108 -28 108 -89c0 -71 -55 -121 -102 -149c-35 -21 -75 -34 -116 -34c-55 0 -108 28 -108 89c0 71 55 121 102 149c35 21 75 34 116 34z" fill="currentColor"/>
</g>
<g transform="translate(50.8564, 7.6243)">
<rect x="-0.0650" y="-1.8053" width="0.1300" height="2.6192" ry="0.0400" fill="currentColor"/>
</g>
<g transform="translate(49.6822, 19.8686)">
<rect x="-0.0650" y="-1.8139" width="0.1300" height="3.3139" ry="0.0400" fill="currentColor"/>
</g>
<g transform="translate(48.4672, 17.8686)">
<path transform="scale(0.0040, -0.0040)" d="M27 41l-1 -66v-11c0 -22 1 -44 4 -66c45 38 93 80 93 139c0 33 -14 67 -43 67c-31 0 -52 -30 -53 -63zM-15 -138l-12 595c8 5 18 8 27 8s19 -3 27 -8l-7 -345c25 21 58 34 91 34c52 0 89 -48 89 -102c0 -80 -86 -117 -147 -169c-15 -13 -24 -38 -45 -38
c-13 0 -23 11 -23 25z" fill="currentColor"/>
</g>
<g transform="translate(53.3214, 9.1243)">
<path transform="scale(0.0040, -0.0040)" d="M218 136c55 0 108 -28 108 -89c0 -71 -55 -121 -102 -149c-35 -21 -75 -34 -116 -34c-55 0 -108 28 -108 89c0 71 55 121 102 149c35 21 75 34 116 34z" fill="currentColor"/>
</g>
<g transform="translate(54.5606, 7.6243)">
<rect x="-0.0650" y="-1.5384" width="0.1300" height="2.8523" ry="0.0400" fill="currentColor"/>
</g>
<g transform="translate(60.7298, 10.1243)">
<path transform="scale(0.0040, -0.0040)" d="M218 136c55 0 108 -28 108 -89c0 -71 -55 -121 -102 -149c-35 -21 -75 -34 -116 -34c-55 0 -108 28 -108 89c0 71 55 121 102 149c35 21 75 34 116 34z" fill="currentColor"/>
</g>
<g transform="translate(57.0256, 9.6243)">
<path transform="scale(0.0040, -0.0040)" d="M218 136c55 0 108 -28 108 -89c0 -71 -55 -121 -102 -149c-35 -21 -75 -34 -116 -34c-55 0 -108 28 -108 89c0 71 55 121 102 149c35 21 75 34 116 34z" fill="currentColor"/>
</g>
<g transform="translate(57.0256, 16.8686)">
<path transform="scale(0.0040, -0.0040)" d="M218 136c55 0 108 -28 108 -89c0 -71 -55 -121 -102 -149c-35 -21 -75 -34 -116 -34c-55 0 -108 28 -108 89c0 71 55 121 102 149c35 21 75 34 116 34z" fill="currentColor"/>
</g>
<g transform="translate(56.0730, 24.0823)">
<g>
<path transform="scale(0.0040, -0.0040)" d="M-41 146c26 76 82 153 149 153c22 0 36 -20 41 -45c22 26 51 45 81 45c23 0 38 -21 44 -46c22 27 51 46 80 46c33 0 59 -35 59 -69c0 -5 -1 -10 -2 -15l-35 -149c0 -2 -1 -4 -1 -5c0 -5 2 -8 7 -8c9 0 27 11 48 31c4 4 9 6 13 6c6 0 11 -4 11 -10c0 -4 -3 -8 -7 -12
c-40 -38 -85 -75 -131 -75c-20 0 -32 13 -32 32c0 4 0 7 1 11l39 165c1 5 2 9 2 14c0 10 -4 18 -14 18c-16 0 -33 -16 -39 -32l-53 -183c-3 -10 -12 -18 -22 -18h-41c-10 0 -16 8 -13 18l52 183c2 6 3 11 3 16c0 9 -4 16 -13 16c-16 0 -35 -16 -41 -33l-62 -182
c-3 -10 -14 -18 -24 -18h-41c-10 0 -15 8 -12 18l63 183c2 5 2 10 2 15c0 10 -3 17 -13 17c-29 0 -54 -53 -66 -87c-4 -11 -15 -17 -23 -17c-7 0 -12 4 -12 11c0 2 1 4 2 6z" fill="currentColor"/>

<path transform="translate(1.7413, 0.0000) scale(0.0040, -0.0040)" d="M233 243c-56 0 -102 -107 -102 -173c0 -22 8 -38 30 -38c64 0 97 126 97 178c0 18 -7 33 -25 33zM112 -146c-38 0 -78 5 -116 5c-39 0 -78 -5 -115 -5c-9 0 -14 7 -14 14c0 18 31 15 48 16c22 1 47 5 54 25l102 300c2 7 4 14 4 20c0 8 -2 14 -11 14
c-33 0 -63 -60 -79 -97c-5 -12 -15 -17 -24 -17c-8 0 -14 4 -14 12c0 2 1 5 2 8c30 68 72 143 132 143c35 0 59 -21 66 -52c29 31 67 52 103 52c69 0 107 -49 107 -114c0 -21 -4 -44 -12 -67c-20 -58 -91 -119 -147 -119c-27 0 -52 5 -73 17c-4 2 -7 3 -11 3
c-7 0 -14 -3 -16 -9l-29 -86c-1 -2 -1 -5 -1 -7c0 -20 21 -26 44 -28c9 -1 13 -8 13 -14c0 -7 -4 -14 -13 -14z" fill="currentColor"/>
</g>
</g>
<g transform="translate(58.2648, 7.6243)">
<rect x="-0.0650" y="-1.2716" width="0.1300" height="3.0855" ry="0.0400" fill="currentColor"/>
</g>
<g transform="translate(57.0906, 19.8686)">
<rect x="-0.0650" y="-2.8139" width="0.1300" height="5.0072" ry="0.0400" fill="currentColor"/>
</g>
<g transform="translate(34.5701, 165.1202)">
<a xlink:href="https://lilypond.org/">
<rect x="0.0000" y="-0.4749" width="50.3614" height="2.0025" fill="none" stroke="none" stroke-width="0.0"/>
</a>
</g>
<g transform="translate(34.5701, 165.1202)">
<text font-family="serif" font-size="2.2001" text-anchor="start" fill="currentColor">
<tspan>Music engraving by LilyPond 2.22.1—www.lilypond.org</tspan>
</text>
</g>
</svg>
