<svg xmlns="http://www.w3.org/2000/svg" xmlns:xlink="http://www.w3.org/1999/xlink" version="1.2" width="210.00mm" height="297.00mm" viewBox="0.0000 -0.0000 149.3770 211.2617">
<style type="text/css">
<![CDATA[
tspan { white-space: pre; }
]]>
</style>
<g transform="translate(51.2150, 13.4798)">
<text font-family="serif" font-weight="bold" font-size="3.4919" text-anchor="start" fill="currentColor">
<tspan>Ein Musikalisches Wuerfelspiel</tspan>
</text>
</g>
<g transform="translate(56.7419, 16.9798)">
<text font-family="serif" font-weight="bold" font-size="2.4697" text-anchor="start" fill="currentColor">
<tspan>[3-10-2-5-2-8-8-2-11-7-4-2-8-1-7-2]</tspan>
</text>
</g>
<g transform="translate(10.6698, 28.4789)">
<rect x="77.7981" y="-0.1082" width="1.9512" height="0.2164" ry="0.1082" fill="currentColor"/>
</g>
<g transform="translate(10.6698, 28.4789)">
<rect x="64.5552" y="-0.1082" width="1.9512" height="0.2164" ry="0.1082" fill="currentColor"/>
</g>
<g transform="translate(10.6698, 34.4789)">
<rect x="52.8638" y="-0.1082" width="1.9512" height="0.2164" ry="0.1082" fill="currentColor"/>
</g>
<g transform="translate(10.6698, 33.4789)">
<line stroke-linejoin="round" stroke-linecap="round" stroke-width="0.1164" stroke="currentColor" x1="0.0582" y1="0" x2="127.9792" y2="0"/>
</g>
<g transform="translate(10.6698, 32.4789)">
<line stroke-linejoin="round" stroke-linecap="round" stroke-width="0.1164" stroke="currentColor" x1="0.0582" y1="0" x2="127.9792" y2="0"/>
</g>
<g transform="translate(10.6698, 31.4789)">
<line stroke-linejoin="round" stroke-linecap="round" stroke-width="0.1164" stroke="currentColor" x1="0.0582" y1="0" x2="127.9792" y2="0"/>
</g>
<g transform="translate(10.6698, 30.4789)">
<line stroke-linejoin="round" stroke-linecap="round" stroke-width="0.1164" stroke="currentColor" x1="0.0582" y1="0" x2="127.9792" y2="0"/>
</g>
<g transform="translate(10.6698, 29.4789)">
<line stroke-linejoin="round" stroke-linecap="round" stroke-width="0.1164" stroke="currentColor" x1="0.0582" y1="0" x2="127.9792" y2="0"/>
</g>
<g transform="translate(138.4860, 17.9308)">
<rect x="0.0000" y="15.6064" width="0.2212" height="4.9418" ry="0.0000" fill="currentColor"/>
</g>
<g transform="translate(10.6698, 43.4789)">
<rect x="91.6062" y="-0.1082" width="1.9512" height="0.2164" ry="0.1082" fill="currentColor"/>
</g>
<g transform="translate(10.6698, 42.4789)">
<line stroke-linejoin="round" stroke-linecap="round" stroke-width="0.1164" stroke="currentColor" x1="0.0582" y1="0" x2="127.9792" y2="0"/>
</g>
<g transform="translate(10.6698, 41.4789)">
<line stroke-linejoin="round" stroke-linecap="round" stroke-width="0.1164" stroke="currentColor" x1="0.0582" y1="0" x2="127.9792" y2="0"/>
</g>
<g transform="translate(10.6698, 40.4789)">
<line stroke-linejoin="round" stroke-linecap="round" stroke-width="0.1164" stroke="currentColor" x1="0.0582" y1="0" x2="127.9792" y2="0"/>
</g>
<g transform="translate(10.6698, 39.4789)">
<line stroke-linejoin="round" stroke-linecap="round" stroke-width="0.1164" stroke="currentColor" x1="0.0582" y1="0" x2="127.9792" y2="0"/>
</g>
<g transform="translate(10.6698, 38.4789)">
<line stroke-linejoin="round" stroke-linecap="round" stroke-width="0.1164" stroke="currentColor" x1="0.0582" y1="0" x2="127.9792" y2="0"/>
</g>
<g transform="translate(138.4860, 40.4789)">
<rect x="0.0000" y="-2.0582" width="0.2212" height="4.0582" ry="0.0000" fill="currentColor"/>
</g>
<g transform="translate(138.4860, 31.4789)">
<rect x="0.0000" y="-2.0000" width="0.2212" height="4.0582" ry="0.0000" fill="currentColor"/>
</g>
<g transform="translate(123.4272, 17.9308)">
<rect x="0.0000" y="15.6064" width="0.6986" height="4.9418" ry="0.0000" fill="currentColor"/>
</g>
<g transform="translate(122.8567, 17.9308)">
<rect x="0.0000" y="15.6064" width="0.2212" height="4.9418" ry="0.0000" fill="currentColor"/>
</g>
<g transform="translate(122.0661, 39.9789)">
<path transform="scale(0.0040, -0.0040)" d="M0 0c0 30 25 55 55 55s55 -25 55 -55s-25 -55 -55 -55s-55 25 -55 55z" fill="currentColor"/>
</g>
<g transform="translate(122.0661, 40.9789)">
<path transform="scale(0.0040, -0.0040)" d="M0 0c0 30 25 55 55 55s55 -25 55 -55s-25 -55 -55 -55s-55 25 -55 55z" fill="currentColor"/>
</g>
<g transform="translate(123.4272, 40.4789)">
<rect x="0.0000" y="-2.0582" width="0.6986" height="4.0582" ry="0.0000" fill="currentColor"/>
</g>
<g transform="translate(122.8567, 40.4789)">
<rect x="0.0000" y="-2.0582" width="0.2212" height="4.0582" ry="0.0000" fill="currentColor"/>
</g>
<g transform="translate(122.0661, 30.9789)">
<path transform="scale(0.0040, -0.0040)" d="M0 0c0 30 25 55 55 55s55 -25 55 -55s-25 -55 -55 -55s-55 25 -55 55z" fill="currentColor"/>
</g>
<g transform="translate(122.0661, 31.9789)">
<path transform="scale(0.0040, -0.0040)" d="M0 0c0 30 25 55 55 55s55 -25 55 -55s-25 -55 -55 -55s-55 25 -55 55z" fill="currentColor"/>
</g>
<g transform="translate(123.4272, 31.4789)">
<rect x="0.0000" y="-2.0000" width="0.6986" height="4.0582" ry="0.0000" fill="currentColor"/>
</g>
<g transform="translate(122.8567, 31.4789)">
<rect x="0.0000" y="-2.0000" width="0.2212" height="4.0582" ry="0.0000" fill="currentColor"/>
</g>
<g transform="translate(107.6925, 17.9308)">
<rect x="0.0000" y="15.6064" width="0.2212" height="4.9418" ry="0.0000" fill="currentColor"/>
</g>
<g transform="translate(107.6925, 40.4789)">
<rect x="0.0000" y="-2.0582" width="0.2212" height="4.0582" ry="0.0000" fill="currentColor"/>
</g>
<g transform="translate(107.6925, 31.4789)">
<rect x="0.0000" y="-2.0000" width="0.2212" height="4.0582" ry="0.0000" fill="currentColor"/>
</g>
<g transform="translate(91.9255, 17.9308)">
<rect x="0.0000" y="15.6064" width="0.2212" height="4.9418" ry="0.0000" fill="currentColor"/>
</g>
<g transform="translate(91.9255, 40.4789)">
<rect x="0.0000" y="-2.0582" width="0.2212" height="4.0582" ry="0.0000" fill="currentColor"/>
</g>
<g transform="translate(91.9255, 31.4789)">
<rect x="0.0000" y="-2.0000" width="0.2212" height="4.0582" ry="0.0000" fill="currentColor"/>
</g>
<g transform="translate(78.9183, 17.9308)">
<rect x="0.0000" y="15.6064" width="0.2212" height="4.9418" ry="0.0000" fill="currentColor"/>
</g>
<g transform="translate(78.9183, 40.4789)">
<rect x="0.0000" y="-2.0582" width="0.2212" height="4.0582" ry="0.0000" fill="currentColor"/>
</g>
<g transform="translate(78.9183, 31.4789)">
<rect x="0.0000" y="-2.0000" width="0.2212" height="4.0582" ry="0.0000" fill="currentColor"/>
</g>
<g transform="translate(66.4632, 17.9308)">
<rect x="0.0000" y="15.6064" width="0.2212" height="4.9418" ry="0.0000" fill="currentColor"/>
</g>
<g transform="translate(66.4632, 40.4789)">
<rect x="0.0000" y="-2.0582" width="0.2212" height="4.0582" ry="0.0000" fill="currentColor"/>
</g>
<g transform="translate(66.4632, 31.4789)">
<rect x="0.0000" y="-2.0000" width="0.2212" height="4.0582" ry="0.0000" fill="currentColor"/>
</g>
<g transform="translate(51.5788, 17.9308)">
<rect x="0.0000" y="15.6064" width="0.2212" height="4.9418" ry="0.0000" fill="currentColor"/>
</g>
<g transform="translate(51.5788, 40.4789)">
<rect x="0.0000" y="-2.0582" width="0.2212" height="4.0582" ry="0.0000" fill="currentColor"/>
</g>
<g transform="translate(51.5788, 31.4789)">
<rect x="0.0000" y="-2.0000" width="0.2212" height="4.0582" ry="0.0000" fill="currentColor"/>
</g>
<g transform="translate(39.9581, 17.9308)">
<rect x="0.0000" y="15.6064" width="0.2212" height="4.9418" ry="0.0000" fill="currentColor"/>
</g>
<g transform="translate(39.9581, 40.4789)">
<rect x="0.0000" y="-2.0582" width="0.2212" height="4.0582" ry="0.0000" fill="currentColor"/>
</g>
<g transform="translate(39.9581, 31.4789)">
<rect x="0.0000" y="-2.0000" width="0.2212" height="4.0582" ry="0.0000" fill="currentColor"/>
</g>
<g transform="translate(28.5572, 17.9308)">
<rect x="0.0000" y="15.6064" width="0.2212" height="4.9418" ry="0.0000" fill="currentColor"/>
</g>
<g transform="translate(28.5572, 40.4789)">
<rect x="0.0000" y="-2.0582" width="0.2212" height="4.0582" ry="0.0000" fill="currentColor"/>
</g>
<g transform="translate(28.5572, 31.4789)">
<rect x="0.0000" y="-2.0000" width="0.2212" height="4.0582" ry="0.0000" fill="currentColor"/>
</g>
<g transform="translate(128.6349, 43.8419)">
<polygon stroke-linejoin="round" stroke-linecap="round" stroke-width="0.1000" fill="currentColor" stroke="currentColor" points="7.7644 -0.8712 7.7644 -0.4912 0.0500 0.1900 0.0500 -0.1900"/>
</g>
<g transform="translate(124.9770, 44.9789)">
<polygon stroke-linejoin="round" stroke-linecap="round" stroke-width="0.1000" fill="currentColor" stroke="currentColor" points="11.4223 -1.1900 11.4223 -0.8100 0.0500 0.1900 0.0500 -0.1900"/>
</g>
<g transform="translate(22.2271, 29.9789)">
<path transform="scale(0.0040, -0.0040)" d="M0 -43c0 92 111 181 211 181c65 0 115 -37 115 -95c0 -88 -106 -181 -215 -181c-70 0 -111 41 -111 95z" fill="currentColor"/>
</g>
<g transform="translate(22.3028, 31.4789)">
<rect x="-0.0757" y="-1.3286" width="0.1514" height="2.9195" ry="0.0500" fill="currentColor"/>
</g>
<g transform="translate(110.1402, 36.6607)">
<polygon stroke-linejoin="round" stroke-linecap="round" stroke-width="0.1000" fill="currentColor" stroke="currentColor" points="10.8223 -0.1900 10.8223 0.1900 0.0500 0.1900 0.0500 -0.1900"/>
</g>
<g transform="translate(113.7981, 37.4789)">
<polygon stroke-linejoin="round" stroke-linecap="round" stroke-width="0.1000" fill="currentColor" stroke="currentColor" points="7.1644 -0.1900 7.1644 0.1900 0.0500 0.1900 0.0500 -0.1900"/>
</g>
<g transform="translate(25.3850, 30.9789)">
<path transform="scale(0.0040, -0.0040)" d="M0 -43c0 92 111 181 211 181c65 0 115 -37 115 -95c0 -88 -106 -181 -215 -181c-70 0 -111 41 -111 95z" fill="currentColor"/>
</g>
<g transform="translate(25.3850, 40.4789)">
<path transform="scale(0.0040, -0.0040)" d="M70 205c81 0 46 -96 90 -96c14 0 50 42 56 55c4 7 10 11 17 11s14 -4 17 -11l-119 -414c-9 -8 -21 -12 -32 -12s-23 4 -32 12l118 326c-33 -12 -66 -22 -101 -22c-58 0 -86 40 -86 79c0 36 24 72 72 72z" fill="currentColor"/>
</g>
<g transform="translate(25.4607, 31.4789)">
<rect x="-0.0757" y="-0.3286" width="0.1514" height="2.4966" ry="0.0500" fill="currentColor"/>
</g>
<g transform="translate(94.3332, 37.6607)">
<polygon stroke-linejoin="round" stroke-linecap="round" stroke-width="0.1000" fill="currentColor" stroke="currentColor" points="9.5188 -0.1900 9.5188 0.1900 0.0500 0.1900 0.0500 -0.1900"/>
</g>
<g transform="translate(93.1837, 33.4789)">
<polygon stroke-linejoin="round" stroke-linecap="round" stroke-width="0.1000" fill="currentColor" stroke="currentColor" points="12.5058 -0.1900 12.5058 0.1900 0.0500 0.1900 0.0500 -0.1900"/>
</g>
<g transform="translate(93.1837, 34.2971)">
<polygon stroke-linejoin="round" stroke-linecap="round" stroke-width="0.1000" fill="currentColor" stroke="currentColor" points="12.5058 -0.1900 12.5058 0.1900 0.0500 0.1900 0.0500 -0.1900"/>
</g>
<g transform="translate(29.8554, 28.9789)">
<path transform="scale(0.0040, -0.0040)" d="M0 -43c0 92 111 181 211 181c65 0 115 -37 115 -95c0 -88 -106 -181 -215 -181c-70 0 -111 41 -111 95z" fill="currentColor"/>
</g>
<g transform="translate(29.8554, 40.9789)">
<path transform="scale(0.0040, -0.0040)" d="M0 -43c0 92 111 181 211 181c65 0 115 -37 115 -95c0 -88 -106 -181 -215 -181c-70 0 -111 41 -111 95z" fill="currentColor"/>
</g>
<g transform="translate(29.8554, 39.9789)">
<path transform="scale(0.0040, -0.0040)" d="M0 -43c0 92 111 181 211 181c65 0 115 -37 115 -95c0 -88 -106 -181 -215 -181c-70 0 -111 41 -111 95z" fill="currentColor"/>
</g>
<g transform="translate(19.1449, 40.4789)">
<rect x="-0.0757" y="-0.3286" width="0.1514" height="3.9953" ry="0.0500" fill="currentColor"/>
</g>
<g transform="translate(29.9311, 31.4789)">
<rect x="-0.0757" y="-2.3286" width="0.1514" height="4.1468" ry="0.0500" fill="currentColor"/>
</g>
<g transform="translate(29.9311, 40.4789)">
<rect x="-0.0757" y="-0.3286" width="0.1514" height="3.9953" ry="0.0500" fill="currentColor"/>
</g>
<g transform="translate(108.7275, 27.9662)">
<g>
<path transform="scale(0.0025, -0.0025)" d="M194 486c16 0 29 15 41 15c13 0 24 -13 24 -31v-341c0 -47 35 -86 81 -86c14 0 21 -10 21 -21s-7 -22 -21 -22c-49 0 -97 14 -146 14s-96 -14 -145 -14c-14 0 -22 11 -22 22s8 21 22 21c46 0 80 39 80 86v137c0 23 -16 35 -30 35c-7 0 -13 -4 -17 -11l-34 -65
c-5 -10 -14 -15 -23 -15c-14 0 -28 12 -28 27c0 4 1 8 3 13l129 250c2 4 7 6 11 6c18 0 37 -20 54 -20z" fill="currentColor"/>

<path transform="translate(0.9816, 0.0000) scale(0.0025, -0.0025)" d="M0 51c0 28 23 51 51 51s51 -23 51 -51s-23 -51 -51 -51s-51 23 -51 51z" fill="currentColor"/>
</g>
</g>
<g transform="translate(107.6925, 26.1910)">
<line stroke-linejoin="round" stroke-linecap="round" stroke-width="0.1863" stroke="currentColor" x1="15.2573" y1="-0.0000" x2="15.2573" y2="2.0000"/>
</g>
<g transform="translate(107.6925, 26.1910)">
<line stroke-linejoin="round" stroke-linecap="round" stroke-width="0.1863" stroke="currentColor" x1="0.1281" y1="-0.0000" x2="0.1281" y2="2.0000"/>
</g>
<g transform="translate(107.6925, 26.1910)">
<line stroke-linejoin="round" stroke-linecap="round" stroke-width="0.1863" stroke="currentColor" x1="0.1281" y1="-0.0000" x2="15.2573" y2="-0.0000"/>
</g>
<g transform="translate(33.0133, 30.9789)">
<path transform="scale(0.0040, -0.0040)" d="M0 -43c0 92 111 181 211 181c65 0 115 -37 115 -95c0 -88 -106 -181 -215 -181c-70 0 -111 41 -111 95z" fill="currentColor"/>
</g>
<g transform="translate(33.0890, 31.4789)">
<rect x="-0.0757" y="-0.3286" width="0.1514" height="2.1468" ry="0.0500" fill="currentColor"/>
</g>
<g transform="translate(83.5844, 32.3125)">
<polygon stroke-linejoin="round" stroke-linecap="round" stroke-width="0.1000" fill="currentColor" stroke="currentColor" points="2.7057 -0.6186 2.7057 -0.2386 0.0500 0.1900 0.0500 -0.1900"/>
</g>
<g transform="translate(80.1765, 33.6607)">
<polygon stroke-linejoin="round" stroke-linecap="round" stroke-width="0.1000" fill="currentColor" stroke="currentColor" points="8.7180 -1.5536 8.7180 -1.1736 0.0500 0.1900 0.0500 -0.1900"/>
</g>
<g transform="translate(36.6712, 29.9789)">
<path transform="scale(0.0040, -0.0040)" d="M0 -43c0 92 111 181 211 181c65 0 115 -37 115 -95c0 -88 -106 -181 -215 -181c-70 0 -111 41 -111 95z" fill="currentColor"/>
</g>
<g transform="translate(36.6712, 40.9789)">
<path transform="scale(0.0040, -0.0040)" d="M0 -43c0 92 111 181 211 181c65 0 115 -37 115 -95c0 -88 -106 -181 -215 -181c-70 0 -111 41 -111 95z" fill="currentColor"/>
</g>
<g transform="translate(36.6712, 38.9789)">
<path transform="scale(0.0040, -0.0040)" d="M0 -43c0 92 111 181 211 181c65 0 115 -37 115 -95c0 -88 -106 -181 -215 -181c-70 0 -111 41 -111 95z" fill="currentColor"/>
</g>
<g transform="translate(36.7469, 31.4789)">
<rect x="-0.0757" y="-1.3286" width="0.1514" height="3.1468" ry="0.0500" fill="currentColor"/>
</g>
<g transform="translate(36.7469, 40.4789)">
<rect x="-0.0757" y="-1.3286" width="0.1514" height="5.0786" ry="0.0500" fill="currentColor"/>
</g>
<g transform="translate(36.8226, 44.1789)">
<path transform="scale(0.0040, -0.0040)" d="M0 0h-19v375h19v-375zM220 509c0 94 -41 155 -41 166c0 15 13 25 26 25c8 0 17 -4 22 -13c25 -56 40 -116 40 -178c0 -203 -267 -306 -267 -509v250c95 59 220 149 220 259z" fill="currentColor"/>
</g>
<g transform="translate(69.8838, 37.6607)">
<polygon stroke-linejoin="round" stroke-linecap="round" stroke-width="0.1000" fill="currentColor" stroke="currentColor" points="6.9172 -0.1900 6.9172 0.1900 0.0500 0.1900 0.0500 -0.1900"/>
</g>
<g transform="translate(68.7344, 35.2971)">
<polygon stroke-linejoin="round" stroke-linecap="round" stroke-width="0.1000" fill="currentColor" stroke="currentColor" points="6.9172 -2.1900 6.9172 -1.8100 0.0500 0.1900 0.0500 -0.1900"/>
</g>
<g transform="translate(41.1306, 31.4789)">
<path transform="scale(0.0040, -0.0040)" d="M0 -43c0 92 111 181 211 181c65 0 115 -37 115 -95c0 -88 -106 -181 -215 -181c-70 0 -111 41 -111 95z" fill="currentColor"/>
</g>
<g transform="translate(41.1306, 42.4789)">
<path transform="scale(0.0040, -0.0040)" d="M0 -43c0 92 111 181 211 181c65 0 115 -37 115 -95c0 -88 -106 -181 -215 -181c-70 0 -111 41 -111 95z" fill="currentColor"/>
</g>
<g transform="translate(41.2063, 31.4789)">
<rect x="-0.0757" y="0.1714" width="0.1514" height="2.9966" ry="0.0500" fill="currentColor"/>
</g>
<g transform="translate(42.3557, 40.4789)">
<rect x="-0.0757" y="-1.5000" width="0.1514" height="3.3286" ry="0.0500" fill="currentColor"/>
</g>
<g transform="translate(53.9865, 28.4789)">
<polygon stroke-linejoin="round" stroke-linecap="round" stroke-width="0.1000" fill="currentColor" stroke="currentColor" points="11.1232 -0.1900 11.1232 0.1900 0.0500 0.1900 0.0500 -0.1900"/>
</g>
<g transform="translate(53.9865, 29.2971)">
<polygon stroke-linejoin="round" stroke-linecap="round" stroke-width="0.1000" fill="currentColor" stroke="currentColor" points="11.1232 -0.1900 11.1232 0.1900 0.0500 0.1900 0.0500 -0.1900"/>
</g>
<g transform="translate(44.7885, 30.4789)">
<path transform="scale(0.0040, -0.0040)" d="M0 -43c0 92 111 181 211 181c65 0 115 -37 115 -95c0 -88 -106 -181 -215 -181c-70 0 -111 41 -111 95z" fill="currentColor"/>
</g>
<g transform="translate(44.8642, 31.4789)">
<rect x="-0.0757" y="-0.8286" width="0.1514" height="3.3286" ry="0.0500" fill="currentColor"/>
</g>
<g transform="translate(41.1306, 34.6607)">
<polygon stroke-linejoin="round" stroke-linecap="round" stroke-width="0.1000" fill="currentColor" stroke="currentColor" points="7.4172 -1.5536 7.4172 -1.1736 0.0500 0.1900 0.0500 -0.1900"/>
</g>
<g transform="translate(48.4464, 28.9789)">
<path transform="scale(0.0040, -0.0040)" d="M0 -43c0 92 111 181 211 181c65 0 115 -37 115 -95c0 -88 -106 -181 -215 -181c-70 0 -111 41 -111 95z" fill="currentColor"/>
</g>
<g transform="translate(48.4464, 40.4789)">
<path transform="scale(0.0040, -0.0040)" d="M70 205c81 0 46 -96 90 -96c14 0 50 42 56 55c4 7 10 11 17 11s14 -4 17 -11l-119 -414c-9 -8 -21 -12 -32 -12s-23 4 -32 12l118 326c-33 -12 -66 -22 -101 -22c-58 0 -86 40 -86 79c0 36 24 72 72 72z" fill="currentColor"/>
</g>
<g transform="translate(48.5221, 31.4789)">
<rect x="-0.0757" y="-2.3286" width="0.1514" height="4.1606" ry="0.0500" fill="currentColor"/>
</g>
<g transform="translate(29.8554, 33.2971)">
<polygon stroke-linejoin="round" stroke-linecap="round" stroke-width="0.1000" fill="currentColor" stroke="currentColor" points="6.9172 -0.1900 6.9172 0.1900 0.0500 0.1900 0.0500 -0.1900"/>
</g>
<g transform="translate(19.0692, 32.4789)">
<polygon stroke-linejoin="round" stroke-linecap="round" stroke-width="0.1000" fill="currentColor" stroke="currentColor" points="6.4172 0.9918 6.4172 1.3718 0.0500 0.1900 0.0500 -0.1900"/>
</g>
<g transform="translate(52.8370, 30.9789)">
<path transform="scale(0.0040, -0.0040)" d="M0 -43c0 92 111 181 211 181c65 0 115 -37 115 -95c0 -88 -106 -181 -215 -181c-70 0 -111 41 -111 95z" fill="currentColor"/>
</g>
<g transform="translate(52.8370, 39.9789)">
<path transform="scale(0.0040, -0.0040)" d="M0 -43c0 92 111 181 211 181c65 0 115 -37 115 -95c0 -88 -106 -181 -215 -181c-70 0 -111 41 -111 95z" fill="currentColor"/>
</g>
<g transform="translate(52.8370, 38.9789)">
<path transform="scale(0.0040, -0.0040)" d="M0 -43c0 92 111 181 211 181c65 0 115 -37 115 -95c0 -88 -106 -181 -215 -181c-70 0 -111 41 -111 95z" fill="currentColor"/>
</g>
<g transform="translate(19.1449, 31.4789)">
<rect x="-0.0757" y="-2.3286" width="0.1514" height="3.3424" ry="0.0500" fill="currentColor"/>
</g>
<g transform="translate(54.0621, 31.4789)">
<rect x="-0.0757" y="-3.0000" width="0.1514" height="2.3286" ry="0.0500" fill="currentColor"/>
</g>
<g transform="translate(52.9127, 40.4789)">
<rect x="-0.0757" y="-1.3286" width="0.1514" height="4.3286" ry="0.0500" fill="currentColor"/>
</g>
<g transform="translate(15.7371, 40.4789)">
<path transform="scale(0.0040, -0.0040)" d="M266 265c0 -36 73 -25 73 -125c0 -93 -81 -140 -182 -140c-80 0 -157 43 -157 116c0 35 29 64 64 64s64 -29 64 -64c0 -24 -39 -29 -39 -53c0 -29 35 -37 68 -37c47 0 59 59 59 114v28c0 47 -2 81 -46 81h-77c-11 0 -16 8 -16 16s5 16 16 16h77c44 0 46 37 46 86v19
c0 53 -15 88 -63 88c-30 0 -62 -8 -62 -34c0 -21 35 -25 35 -46c0 -31 -25 -56 -56 -56s-56 25 -56 56c0 65 68 106 139 106c92 0 171 -32 171 -114c0 -117 -58 -79 -58 -121z" fill="currentColor"/>
</g>
<g transform="translate(15.6731, 42.4788)">
<path transform="scale(0.0040, -0.0040)" d="M263 292c24 29 43 61 43 99c0 52 -55 83 -112 83c-45 0 -71 -35 -71 -68c0 -20 10 -38 30 -50zM297 272c54 -31 81 -79 81 -126c0 -74 -67 -146 -192 -146c-96 0 -186 53 -186 141c0 49 36 87 72 122c-36 28 -55 65 -55 102c0 68 61 135 177 135c81 0 160 -37 160 -109
c0 -46 -26 -85 -57 -119zM105 242c-30 -29 -57 -60 -57 -101c0 -68 66 -115 138 -115c53 0 85 41 85 80c0 23 -11 47 -34 60z" fill="currentColor"/>
</g>
<g transform="translate(19.0692, 31.4789)">
<path stroke-width="0.0931" stroke-linejoin="round" stroke-linecap="round" stroke="currentColor" fill="currentColor" d="M0.7813 -3.5527C2.4822 -4.3100 6.1422 -3.1510 7.0971 -1.5527L7.0971 -1.5527C6.1000 -3.0178 2.4400 -4.1768 0.7813 -3.5527z"/>
</g>
<g transform="translate(55.1914, 31.4789)">
<path transform="scale(0.0040, -0.0040)" d="M0 -43c0 92 111 181 211 181c65 0 115 -37 115 -95c0 -88 -106 -181 -215 -181c-70 0 -111 41 -111 95z" fill="currentColor"/>
</g>
<g transform="translate(56.4165, 31.4789)">
<rect x="-0.0757" y="-3.0000" width="0.1514" height="2.8286" ry="0.0500" fill="currentColor"/>
</g>
<g transform="translate(57.5457, 30.9789)">
<path transform="scale(0.0040, -0.0040)" d="M0 -43c0 92 111 181 211 181c65 0 115 -37 115 -95c0 -88 -106 -181 -215 -181c-70 0 -111 41 -111 95z" fill="currentColor"/>
</g>
<g transform="translate(58.7709, 31.4789)">
<rect x="-0.0757" y="-3.0000" width="0.1514" height="2.3286" ry="0.0500" fill="currentColor"/>
</g>
<g transform="translate(59.6501, 32.4789)">
<path transform="scale(0.0040, -0.0040)" d="M0 -43c0 92 111 181 211 181c65 0 115 -37 115 -95c0 -88 -106 -181 -215 -181c-70 0 -111 41 -111 95z" fill="currentColor"/>
</g>
<g transform="translate(60.8752, 31.4789)">
<rect x="-0.0757" y="-3.0000" width="0.1514" height="3.8286" ry="0.0500" fill="currentColor"/>
</g>
<g transform="translate(61.7544, 33.4789)">
<path transform="scale(0.0040, -0.0040)" d="M0 -43c0 92 111 181 211 181c65 0 115 -37 115 -95c0 -88 -106 -181 -215 -181c-70 0 -111 41 -111 95z" fill="currentColor"/>
</g>
<g transform="translate(61.7544, 40.4789)">
<path transform="scale(0.0040, -0.0040)" d="M70 205c81 0 46 -96 90 -96c14 0 50 42 56 55c4 7 10 11 17 11s14 -4 17 -11l-119 -414c-9 -8 -21 -12 -32 -12s-23 4 -32 12l118 326c-33 -12 -66 -22 -101 -22c-58 0 -86 40 -86 79c0 36 24 72 72 72z" fill="currentColor"/>
</g>
<g transform="translate(62.9796, 31.4789)">
<rect x="-0.0757" y="-3.0000" width="0.1514" height="4.8286" ry="0.0500" fill="currentColor"/>
</g>
<g transform="translate(63.8588, 34.4789)">
<path transform="scale(0.0040, -0.0040)" d="M0 -43c0 92 111 181 211 181c65 0 115 -37 115 -95c0 -88 -106 -181 -215 -181c-70 0 -111 41 -111 95z" fill="currentColor"/>
</g>
<g transform="translate(65.0839, 31.4789)">
<rect x="-0.0757" y="-3.0000" width="0.1514" height="5.8286" ry="0.0500" fill="currentColor"/>
</g>
<g transform="translate(68.7344, 32.9789)">
<path transform="scale(0.0040, -0.0040)" d="M0 -43c0 92 111 181 211 181c65 0 115 -37 115 -95c0 -88 -106 -181 -215 -181c-70 0 -111 41 -111 95z" fill="currentColor"/>
</g>
<g transform="translate(68.7344, 30.4789)">
<path transform="scale(0.0040, -0.0040)" d="M0 -43c0 92 111 181 211 181c65 0 115 -37 115 -95c0 -88 -106 -181 -215 -181c-70 0 -111 41 -111 95z" fill="currentColor"/>
</g>
<g transform="translate(11.4698, 39.4789)">
<path transform="scale(0.0040, -0.0040)" d="M558 -125c0 28 22 50 50 50s50 -22 50 -50s-22 -50 -50 -50s-50 22 -50 50zM558 125c0 28 22 50 50 50s50 -22 50 -50s-22 -50 -50 -50s-50 22 -50 50zM231 265c173 0 294 -88 294 -252c0 -263 -263 -415 -515 -523c-3 -3 -7 -5 -10 -5c-8 0 -15 7 -15 15c0 3 2 7 5 10
c200 118 407 264 407 491c0 119 -59 234 -166 234c-70 0 -119 -51 -142 -120c8 2 15 4 23 4c55 0 100 -45 100 -100c0 -58 -44 -106 -100 -106c-60 0 -112 47 -112 106c0 133 101 246 231 246z" fill="currentColor"/>
</g>
<g transform="translate(68.7344, 40.9789)">
<path transform="scale(0.0040, -0.0040)" d="M0 -43c0 92 111 181 211 181c65 0 115 -37 115 -95c0 -88 -106 -181 -215 -181c-70 0 -111 41 -111 95z" fill="currentColor"/>
</g>
<g transform="translate(19.0692, 39.9789)">
<path transform="scale(0.0040, -0.0040)" d="M0 -43c0 92 111 181 211 181c65 0 115 -37 115 -95c0 -88 -106 -181 -215 -181c-70 0 -111 41 -111 95z" fill="currentColor"/>
</g>
<g transform="translate(68.8101, 31.4789)">
<rect x="-0.0757" y="-0.8286" width="0.1514" height="4.6251" ry="0.0500" fill="currentColor"/>
</g>
<g transform="translate(67.2844, 32.9789)">
<path transform="scale(0.0040, -0.0040)" d="M0 116c0 10 6 19 16 23l40 15v154c0 12 9 21 21 21s21 -9 21 -21v-138l79 30v154c0 12 9 21 21 21s21 -9 21 -21v-138l22 8c3 1 6 2 9 2c13 0 25 -11 25 -25v-54c0 -10 -6 -20 -16 -24l-40 -15v-155l22 9c3 1 6 1 9 1c13 0 25 -11 25 -25v-54c0 -10 -6 -19 -16 -23
l-40 -15v-154c0 -12 -9 -21 -21 -21s-21 9 -21 21v138l-79 -30v-154c0 -12 -9 -21 -21 -21s-21 9 -21 21v138l-22 -8c-3 -1 -6 -2 -9 -2c-13 0 -25 11 -25 25v54c0 10 6 20 16 24l40 15v155l-22 -9c-3 -1 -6 -1 -9 -1c-13 0 -25 11 -25 25v54zM177 92l-79 -30v-154l79 30
v154z" fill="currentColor"/>
</g>
<g transform="translate(69.9595, 40.4789)">
<rect x="-0.0757" y="-2.8182" width="0.1514" height="3.1468" ry="0.0500" fill="currentColor"/>
</g>
<g transform="translate(19.0692, 40.9789)">
<path transform="scale(0.0040, -0.0040)" d="M0 -43c0 92 111 181 211 181c65 0 115 -37 115 -95c0 -88 -106 -181 -215 -181c-70 0 -111 41 -111 95z" fill="currentColor"/>
</g>
<g transform="translate(72.1423, 30.4789)">
<path transform="scale(0.0040, -0.0040)" d="M0 -43c0 92 111 181 211 181c65 0 115 -37 115 -95c0 -88 -106 -181 -215 -181c-70 0 -111 41 -111 95z" fill="currentColor"/>
</g>
<g transform="translate(72.1423, 29.4789)">
<path transform="scale(0.0040, -0.0040)" d="M0 -43c0 92 111 181 211 181c65 0 115 -37 115 -95c0 -88 -106 -181 -215 -181c-70 0 -111 41 -111 95z" fill="currentColor"/>
</g>
<g transform="translate(72.1423, 40.9789)">
<path transform="scale(0.0040, -0.0040)" d="M0 -43c0 92 111 181 211 181c65 0 115 -37 115 -95c0 -88 -106 -181 -215 -181c-70 0 -111 41 -111 95z" fill="currentColor"/>
</g>
<g transform="translate(72.2180, 31.4789)">
<rect x="-0.0757" y="-1.8286" width="0.1514" height="4.6468" ry="0.0500" fill="currentColor"/>
</g>
<g transform="translate(70.6923, 29.4789)">
<path transform="scale(0.0040, -0.0040)" d="M0 116c0 10 6 19 16 23l40 15v154c0 12 9 21 21 21s21 -9 21 -21v-138l79 30v154c0 12 9 21 21 21s21 -9 21 -21v-138l22 8c3 1 6 2 9 2c13 0 25 -11 25 -25v-54c0 -10 -6 -20 -16 -24l-40 -15v-155l22 9c3 1 6 1 9 1c13 0 25 -11 25 -25v-54c0 -10 -6 -19 -16 -23
l-40 -15v-154c0 -12 -9 -21 -21 -21s-21 9 -21 21v138l-79 -30v-154c0 -12 -9 -21 -21 -21s-21 9 -21 21v138l-22 -8c-3 -1 -6 -2 -9 -2c-13 0 -25 11 -25 25v54c0 10 6 20 16 24l40 15v155l-22 -9c-3 -1 -6 -1 -9 -1c-13 0 -25 11 -25 25v54zM177 92l-79 -30v-154l79 30
v154z" fill="currentColor"/>
</g>
<g transform="translate(73.3674, 40.4789)">
<rect x="-0.0757" y="-2.8182" width="0.1514" height="3.1468" ry="0.0500" fill="currentColor"/>
</g>
<g transform="translate(75.5502, 29.4789)">
<path transform="scale(0.0040, -0.0040)" d="M0 -43c0 92 111 181 211 181c65 0 115 -37 115 -95c0 -88 -106 -181 -215 -181c-70 0 -111 41 -111 95z" fill="currentColor"/>
</g>
<g transform="translate(75.5502, 28.4789)">
<path transform="scale(0.0040, -0.0040)" d="M0 -43c0 92 111 181 211 181c65 0 115 -37 115 -95c0 -88 -106 -181 -215 -181c-70 0 -111 41 -111 95z" fill="currentColor"/>
</g>
<g transform="translate(75.5502, 40.9789)">
<path transform="scale(0.0040, -0.0040)" d="M0 -43c0 92 111 181 211 181c65 0 115 -37 115 -95c0 -88 -106 -181 -215 -181c-70 0 -111 41 -111 95z" fill="currentColor"/>
</g>
<g transform="translate(75.6259, 31.4789)">
<rect x="-0.0757" y="-2.8286" width="0.1514" height="4.6685" ry="0.0500" fill="currentColor"/>
</g>
<g transform="translate(76.7753, 40.4789)">
<rect x="-0.0757" y="-2.8182" width="0.1514" height="3.1468" ry="0.0500" fill="currentColor"/>
</g>
<g transform="translate(80.1765, 30.4789)">
<path transform="scale(0.0040, -0.0040)" d="M0 -43c0 92 111 181 211 181c65 0 115 -37 115 -95c0 -88 -106 -181 -215 -181c-70 0 -111 41 -111 95z" fill="currentColor"/>
</g>
<g transform="translate(15.7371, 31.4789)">
<path transform="scale(0.0040, -0.0040)" d="M266 265c0 -36 73 -25 73 -125c0 -93 -81 -140 -182 -140c-80 0 -157 43 -157 116c0 35 29 64 64 64s64 -29 64 -64c0 -24 -39 -29 -39 -53c0 -29 35 -37 68 -37c47 0 59 59 59 114v28c0 47 -2 81 -46 81h-77c-11 0 -16 8 -16 16s5 16 16 16h77c44 0 46 37 46 86v19
c0 53 -15 88 -63 88c-30 0 -62 -8 -62 -34c0 -21 35 -25 35 -46c0 -31 -25 -56 -56 -56s-56 25 -56 56c0 65 68 106 139 106c92 0 171 -32 171 -114c0 -117 -58 -79 -58 -121z" fill="currentColor"/>
</g>
<g transform="translate(15.6731, 33.4788)">
<path transform="scale(0.0040, -0.0040)" d="M263 292c24 29 43 61 43 99c0 52 -55 83 -112 83c-45 0 -71 -35 -71 -68c0 -20 10 -38 30 -50zM297 272c54 -31 81 -79 81 -126c0 -74 -67 -146 -192 -146c-96 0 -186 53 -186 141c0 49 36 87 72 122c-36 28 -55 65 -55 102c0 68 61 135 177 135c81 0 160 -37 160 -109
c0 -46 -26 -85 -57 -119zM105 242c-30 -29 -57 -60 -57 -101c0 -68 66 -115 138 -115c53 0 85 41 85 80c0 23 -11 47 -34 60z" fill="currentColor"/>
</g>
<g transform="translate(80.1765, 41.4789)">
<path transform="scale(0.0040, -0.0040)" d="M0 -43c0 92 111 181 211 181c65 0 115 -37 115 -95c0 -88 -106 -181 -215 -181c-70 0 -111 41 -111 95z" fill="currentColor"/>
</g>
<g transform="translate(80.1765, 38.9789)">
<path transform="scale(0.0040, -0.0040)" d="M0 -43c0 92 111 181 211 181c65 0 115 -37 115 -95c0 -88 -106 -181 -215 -181c-70 0 -111 41 -111 95z" fill="currentColor"/>
</g>
<g transform="translate(11.4698, 32.4789)">
<path transform="scale(0.0040, -0.0040)" d="M647 2c0 -114 -75 -214 -180 -248c3 -33 4 -66 4 -99c0 -21 0 -41 -1 -62c-7 -122 -92 -229 -211 -229c-108 0 -196 88 -196 197c0 58 54 103 113 103c54 0 95 -47 95 -103c0 -52 -43 -95 -95 -95c-9 0 -18 1 -27 4c25 -37 66 -61 113 -61c93 0 156 91 162 191
c1 19 2 38 2 57c0 29 -1 58 -3 87c-28 -5 -54 -8 -79 -8c-242 0 -342 222 -342 376c0 177 129 308 244 443c-33 100 -55 169 -55 347c0 186 141 292 159 292c33 0 148 -208 148 -361c0 -142 -84 -255 -176 -364c21 -68 40 -136 57 -205c3 0 8 1 11 1
c156 0 257 -129 257 -263zM406 148c28 -133 49 -269 57 -349c73 27 109 93 109 160c0 86 -58 175 -166 189zM77 25c0 -111 96 -243 275 -243c21 0 44 1 67 5c-7 66 -27 208 -60 362c-79 -8 -124 -60 -124 -118c0 -43 25 -88 80 -120c5 -5 7 -11 7 -17c0 -12 -10 -23 -23 -23
c-16 0 -128 62 -128 188c0 89 60 177 163 200c-14 57 -30 113 -47 169c-105 -122 -210 -243 -210 -403zM424 920c0 61 -20 118 -21 118c-31 -14 -161 -85 -161 -253c0 -53 15 -113 39 -189c71 88 143 196 143 324z" fill="currentColor"/>
</g>
<g transform="translate(80.2522, 31.4789)">
<rect x="-0.0757" y="-0.8286" width="0.1514" height="2.9986" ry="0.0500" fill="currentColor"/>
</g>
<g transform="translate(80.2522, 40.4789)">
<rect x="-0.0757" y="-1.3286" width="0.1514" height="5.3286" ry="0.0500" fill="currentColor"/>
</g>
<g transform="translate(83.5844, 30.4789)">
<path transform="scale(0.0040, -0.0040)" d="M0 -43c0 92 111 181 211 181c65 0 115 -37 115 -95c0 -88 -106 -181 -215 -181c-70 0 -111 41 -111 95z" fill="currentColor"/>
</g>
<g transform="translate(83.6601, 31.4789)">
<rect x="-0.0757" y="-0.8286" width="0.1514" height="2.4686" ry="0.0500" fill="currentColor"/>
</g>
<g transform="translate(86.1887, 28.9789)">
<path transform="scale(0.0040, -0.0040)" d="M0 -43c0 92 111 181 211 181c65 0 115 -37 115 -95c0 -88 -106 -181 -215 -181c-70 0 -111 41 -111 95z" fill="currentColor"/>
</g>
<g transform="translate(86.2644, 31.4789)">
<rect x="-0.0757" y="-2.3286" width="0.1514" height="3.5636" ry="0.0500" fill="currentColor"/>
</g>
<g transform="translate(88.7931, 27.9789)">
<path transform="scale(0.0040, -0.0040)" d="M0 -43c0 92 111 181 211 181c65 0 115 -37 115 -95c0 -88 -106 -181 -215 -181c-70 0 -111 41 -111 95z" fill="currentColor"/>
</g>
<g transform="translate(88.7931, 40.4789)">
<path transform="scale(0.0040, -0.0040)" d="M70 205c81 0 46 -96 90 -96c14 0 50 42 56 55c4 7 10 11 17 11s14 -4 17 -11l-119 -414c-9 -8 -21 -12 -32 -12s-23 4 -32 12l118 326c-33 -12 -66 -22 -101 -22c-58 0 -86 40 -86 79c0 36 24 72 72 72z" fill="currentColor"/>
</g>
<g transform="translate(88.8688, 31.4789)">
<rect x="-0.0757" y="-3.3286" width="0.1514" height="4.1586" ry="0.0500" fill="currentColor"/>
</g>
<g transform="translate(93.1837, 29.9789)">
<path transform="scale(0.0040, -0.0040)" d="M0 -43c0 92 111 181 211 181c65 0 115 -37 115 -95c0 -88 -106 -181 -215 -181c-70 0 -111 41 -111 95z" fill="currentColor"/>
</g>
<g transform="translate(19.0692, 28.9789)">
<path transform="scale(0.0040, -0.0040)" d="M0 -43c0 92 111 181 211 181c65 0 115 -37 115 -95c0 -88 -106 -181 -215 -181c-70 0 -111 41 -111 95z" fill="currentColor"/>
</g>
<g transform="translate(93.1837, 40.9789)">
<path transform="scale(0.0040, -0.0040)" d="M0 -43c0 92 111 181 211 181c65 0 115 -37 115 -95c0 -88 -106 -181 -215 -181c-70 0 -111 41 -111 95z" fill="currentColor"/>
</g>
<g transform="translate(93.2594, 31.4789)">
<rect x="-0.0757" y="-1.3286" width="0.1514" height="4.1468" ry="0.0500" fill="currentColor"/>
</g>
<g transform="translate(94.4088, 40.4789)">
<rect x="-0.0757" y="-2.8182" width="0.1514" height="3.1468" ry="0.0500" fill="currentColor"/>
</g>
<g transform="translate(95.7881, 28.9789)">
<path transform="scale(0.0040, -0.0040)" d="M0 -43c0 92 111 181 211 181c65 0 115 -37 115 -95c0 -88 -106 -181 -215 -181c-70 0 -111 41 -111 95z" fill="currentColor"/>
</g>
<g transform="translate(95.8637, 31.4789)">
<rect x="-0.0757" y="-2.3286" width="0.1514" height="5.1468" ry="0.0500" fill="currentColor"/>
</g>
<g transform="translate(97.8924, 30.4789)">
<path transform="scale(0.0040, -0.0040)" d="M0 -43c0 92 111 181 211 181c65 0 115 -37 115 -95c0 -88 -106 -181 -215 -181c-70 0 -111 41 -111 95z" fill="currentColor"/>
</g>
<g transform="translate(97.8924, 40.4789)">
<path transform="scale(0.0040, -0.0040)" d="M0 -43c0 92 111 181 211 181c65 0 115 -37 115 -95c0 -88 -106 -181 -215 -181c-70 0 -111 41 -111 95z" fill="currentColor"/>
</g>
<g transform="translate(97.9681, 31.4789)">
<rect x="-0.0757" y="-0.8286" width="0.1514" height="3.6468" ry="0.0500" fill="currentColor"/>
</g>
<g transform="translate(99.1176, 40.4789)">
<rect x="-0.0757" y="-2.8182" width="0.1514" height="2.6468" ry="0.0500" fill="currentColor"/>
</g>
<g transform="translate(100.4968, 28.9789)">
<path transform="scale(0.0040, -0.0040)" d="M0 -43c0 92 111 181 211 181c65 0 115 -37 115 -95c0 -88 -106 -181 -215 -181c-70 0 -111 41 -111 95z" fill="currentColor"/>
</g>
<g transform="translate(100.5725, 31.4789)">
<rect x="-0.0757" y="-2.3286" width="0.1514" height="5.1468" ry="0.0500" fill="currentColor"/>
</g>
<g transform="translate(136.3736, 40.4789)">
<rect x="-0.0757" y="-0.3286" width="0.1514" height="3.8352" ry="0.0500" fill="currentColor"/>
</g>
<g transform="translate(102.6011, 31.9789)">
<path transform="scale(0.0040, -0.0040)" d="M0 -43c0 92 111 181 211 181c65 0 115 -37 115 -95c0 -88 -106 -181 -215 -181c-70 0 -111 41 -111 95z" fill="currentColor"/>
</g>
<g transform="translate(102.6011, 43.9789)">
<path transform="scale(0.0040, -0.0040)" d="M0 -43c0 92 111 181 211 181c65 0 115 -37 115 -95c0 -88 -106 -181 -215 -181c-70 0 -111 41 -111 95z" fill="currentColor"/>
</g>
<g transform="translate(102.6768, 31.4789)">
<rect x="-0.0757" y="0.6714" width="0.1514" height="2.1468" ry="0.0500" fill="currentColor"/>
</g>
<g transform="translate(103.8263, 40.4789)">
<rect x="-0.0757" y="-2.8182" width="0.1514" height="6.1468" ry="0.0500" fill="currentColor"/>
</g>
<g transform="translate(136.2979, 39.9789)">
<path transform="scale(0.0040, -0.0040)" d="M0 -43c0 92 111 181 211 181c65 0 115 -37 115 -95c0 -88 -106 -181 -215 -181c-70 0 -111 41 -111 95z" fill="currentColor"/>
</g>
<g transform="translate(105.5882, 29.4789)">
<path transform="scale(0.0040, -0.0040)" d="M0 -43c0 92 111 181 211 181c65 0 115 -37 115 -95c0 -88 -106 -181 -215 -181c-70 0 -111 41 -111 95z" fill="currentColor"/>
</g>
<g transform="translate(105.6639, 31.4789)">
<rect x="-0.0757" y="-1.8286" width="0.1514" height="4.6468" ry="0.0500" fill="currentColor"/>
</g>
<g transform="translate(104.1382, 29.4789)">
<path transform="scale(0.0040, -0.0040)" d="M0 116c0 10 6 19 16 23l40 15v154c0 12 9 21 21 21s21 -9 21 -21v-138l79 30v154c0 12 9 21 21 21s21 -9 21 -21v-138l22 8c3 1 6 2 9 2c13 0 25 -11 25 -25v-54c0 -10 -6 -20 -16 -24l-40 -15v-155l22 9c3 1 6 1 9 1c13 0 25 -11 25 -25v-54c0 -10 -6 -19 -16 -23
l-40 -15v-154c0 -12 -9 -21 -21 -21s-21 9 -21 21v138l-79 -30v-154c0 -12 -9 -21 -21 -21s-21 9 -21 21v138l-22 -8c-3 -1 -6 -2 -9 -2c-13 0 -25 11 -25 25v54c0 10 6 20 16 24l40 15v155l-22 -9c-3 -1 -6 -1 -9 -1c-13 0 -25 11 -25 25v54zM177 92l-79 -30v-154l79 30
v154z" fill="currentColor"/>
</g>
<g transform="translate(132.4936, 39.4789)">
<path transform="scale(0.0040, -0.0040)" d="M0 116c0 10 6 19 16 23l40 15v154c0 12 9 21 21 21s21 -9 21 -21v-138l79 30v154c0 12 9 21 21 21s21 -9 21 -21v-138l22 8c3 1 6 2 9 2c13 0 25 -11 25 -25v-54c0 -10 -6 -20 -16 -24l-40 -15v-155l22 9c3 1 6 1 9 1c13 0 25 -11 25 -25v-54c0 -10 -6 -19 -16 -23
l-40 -15v-154c0 -12 -9 -21 -21 -21s-21 9 -21 21v138l-79 -30v-154c0 -12 -9 -21 -21 -21s-21 9 -21 21v138l-22 -8c-3 -1 -6 -2 -9 -2c-13 0 -25 11 -25 25v54c0 10 6 20 16 24l40 15v155l-22 -9c-3 -1 -6 -1 -9 -1c-13 0 -25 11 -25 25v54zM177 92l-79 -30v-154l79 30
v154z" fill="currentColor"/>
</g>
<g transform="translate(108.9907, 32.4789)">
<path transform="scale(0.0040, -0.0040)" d="M0 -43c0 92 111 181 211 181c65 0 115 -37 115 -95c0 -88 -106 -181 -215 -181c-70 0 -111 41 -111 95z" fill="currentColor"/>
</g>
<g transform="translate(108.9907, 31.4789)">
<path transform="scale(0.0040, -0.0040)" d="M0 -43c0 92 111 181 211 181c65 0 115 -37 115 -95c0 -88 -106 -181 -215 -181c-70 0 -111 41 -111 95z" fill="currentColor"/>
</g>
<g transform="translate(108.9907, 30.4789)">
<path transform="scale(0.0040, -0.0040)" d="M0 -43c0 92 111 181 211 181c65 0 115 -37 115 -95c0 -88 -106 -181 -215 -181c-70 0 -111 41 -111 95z" fill="currentColor"/>
</g>
<g transform="translate(108.9907, 28.9789)">
<path transform="scale(0.0040, -0.0040)" d="M0 -43c0 92 111 181 211 181c65 0 115 -37 115 -95c0 -88 -106 -181 -215 -181c-70 0 -111 41 -111 95z" fill="currentColor"/>
</g>
<g transform="translate(124.9395, 27.9510)">
<g>
<path transform="scale(0.0025, -0.0025)" d="M94 66c-60 0 -39 -66 -72 -66c-11 0 -22 7 -22 21v2c15 169 232 158 232 332c0 50 -17 102 -61 102c-33 0 -66 -14 -66 -44c0 -24 31 -37 31 -61c0 -34 -27 -61 -61 -61s-61 27 -61 61c0 84 72 148 157 148c98 0 190 -55 190 -145c0 -140 -131 -154 -225 -205
c85 -2 113 -61 165 -61c45 0 28 41 57 41c11 0 22 -8 22 -21c0 -29 -48 -109 -144 -109c-92 0 -96 66 -142 66z" fill="currentColor"/>

<path transform="translate(0.9816, 0.0000) scale(0.0025, -0.0025)" d="M0 51c0 28 23 51 51 51s51 -23 51 -51s-23 -51 -51 -51s-51 23 -51 51z" fill="currentColor"/>
</g>
</g>
<g transform="translate(122.8567, 26.1910)">
<line stroke-linejoin="round" stroke-linecap="round" stroke-width="0.1863" stroke="currentColor" x1="15.7573" y1="-0.0000" x2="15.7573" y2="-0.0000"/>
</g>
<g transform="translate(122.8567, 26.1910)">
<line stroke-linejoin="round" stroke-linecap="round" stroke-width="0.1863" stroke="currentColor" x1="1.1759" y1="-0.0000" x2="1.1759" y2="2.0000"/>
</g>
<g transform="translate(122.8567, 26.1910)">
<line stroke-linejoin="round" stroke-linecap="round" stroke-width="0.1863" stroke="currentColor" x1="1.1759" y1="-0.0000" x2="15.7573" y2="-0.0000"/>
</g>
<g transform="translate(108.9907, 42.4789)">
<path transform="scale(0.0040, -0.0040)" d="M0 -43c0 92 111 181 211 181c65 0 115 -37 115 -95c0 -88 -106 -181 -215 -181c-70 0 -111 41 -111 95z" fill="currentColor"/>
</g>
<g transform="translate(109.0664, 31.4789)">
<rect x="-0.0757" y="-2.3286" width="0.1514" height="6.3286" ry="0.0500" fill="currentColor"/>
</g>
<g transform="translate(110.2159, 40.4789)">
<rect x="-0.0757" y="-3.8182" width="0.1514" height="5.6468" ry="0.0500" fill="currentColor"/>
</g>
<g transform="translate(112.6486, 38.9789)">
<path transform="scale(0.0040, -0.0040)" d="M0 -43c0 92 111 181 211 181c65 0 115 -37 115 -95c0 -88 -106 -181 -215 -181c-70 0 -111 41 -111 95z" fill="currentColor"/>
</g>
<g transform="translate(113.8738, 40.4789)">
<rect x="-0.0757" y="-3.8182" width="0.1514" height="2.1468" ry="0.0500" fill="currentColor"/>
</g>
<g transform="translate(115.0030, 39.4789)">
<path transform="scale(0.0040, -0.0040)" d="M0 -43c0 92 111 181 211 181c65 0 115 -37 115 -95c0 -88 -106 -181 -215 -181c-70 0 -111 41 -111 95z" fill="currentColor"/>
</g>
<g transform="translate(116.2281, 40.4789)">
<rect x="-0.0757" y="-3.8182" width="0.1514" height="2.6468" ry="0.0500" fill="currentColor"/>
</g>
<g transform="translate(117.3574, 31.4789)">
<path transform="scale(0.0040, -0.0040)" d="M70 205c81 0 46 -96 90 -96c14 0 50 42 56 55c4 7 10 11 17 11s14 -4 17 -11l-119 -414c-9 -8 -21 -12 -32 -12s-23 4 -32 12l118 326c-33 -12 -66 -22 -101 -22c-58 0 -86 40 -86 79c0 36 24 72 72 72z" fill="currentColor"/>
</g>
<g transform="translate(117.3574, 39.9789)">
<path transform="scale(0.0040, -0.0040)" d="M0 -43c0 92 111 181 211 181c65 0 115 -37 115 -95c0 -88 -106 -181 -215 -181c-70 0 -111 41 -111 95z" fill="currentColor"/>
</g>
<g transform="translate(118.5825, 40.4789)">
<rect x="-0.0757" y="-3.8182" width="0.1514" height="3.1468" ry="0.0500" fill="currentColor"/>
</g>
<g transform="translate(119.7117, 40.4789)">
<path transform="scale(0.0040, -0.0040)" d="M0 -43c0 92 111 181 211 181c65 0 115 -37 115 -95c0 -88 -106 -181 -215 -181c-70 0 -111 41 -111 95z" fill="currentColor"/>
</g>
<g transform="translate(120.9369, 40.4789)">
<rect x="-0.0757" y="-3.8182" width="0.1514" height="3.6468" ry="0.0500" fill="currentColor"/>
</g>
<g transform="translate(134.0193, 40.4789)">
<rect x="-0.0757" y="-0.8286" width="0.1514" height="4.5404" ry="0.0500" fill="currentColor"/>
</g>
<g transform="translate(124.9770, 32.4789)">
<path transform="scale(0.0040, -0.0040)" d="M0 -43c0 92 111 181 211 181c65 0 115 -37 115 -95c0 -88 -106 -181 -215 -181c-70 0 -111 41 -111 95z" fill="currentColor"/>
</g>
<g transform="translate(124.9770, 31.4789)">
<path transform="scale(0.0040, -0.0040)" d="M0 -43c0 92 111 181 211 181c65 0 115 -37 115 -95c0 -88 -106 -181 -215 -181c-70 0 -111 41 -111 95z" fill="currentColor"/>
</g>
<g transform="translate(124.9770, 30.4789)">
<path transform="scale(0.0040, -0.0040)" d="M0 -43c0 92 111 181 211 181c65 0 115 -37 115 -95c0 -88 -106 -181 -215 -181c-70 0 -111 41 -111 95z" fill="currentColor"/>
</g>
<g transform="translate(124.9770, 28.9789)">
<path transform="scale(0.0040, -0.0040)" d="M0 -43c0 92 111 181 211 181c65 0 115 -37 115 -95c0 -88 -106 -181 -215 -181c-70 0 -111 41 -111 95z" fill="currentColor"/>
</g>
<g transform="translate(124.9770, 42.4789)">
<path transform="scale(0.0040, -0.0040)" d="M0 -43c0 92 111 181 211 181c65 0 115 -37 115 -95c0 -88 -106 -181 -215 -181c-70 0 -111 41 -111 95z" fill="currentColor"/>
</g>
<g transform="translate(10.5835, 35.9789)">
<rect x="0.0000" y="-6.5582" width="0.1863" height="13.1164" ry="0.0582" fill="currentColor"/>
</g>
<g transform="translate(125.0526, 31.4789)">
<rect x="-0.0757" y="-2.3286" width="0.1514" height="6.3286" ry="0.0500" fill="currentColor"/>
</g>
<g transform="translate(125.0526, 40.4789)">
<rect x="-0.0757" y="2.1714" width="0.1514" height="2.3220" ry="0.0500" fill="currentColor"/>
</g>
<g transform="translate(10.2835, 35.9789)">
<path transform="scale(0.0050, -0.0050)" d="M-81 -282c0 216 -111 264 -111 282s111 66 111 282c0 192 -81 423 -81 636c0 276 159 378 162 378c9 0 15 -6 15 -15c0 -21 -114 -66 -114 -288c0 -189 78 -414 78 -621c0 -138 -33 -267 -144 -372c111 -105 144 -234 144 -372c0 -207 -78 -432 -78 -621
c0 -222 114 -267 114 -288c0 -9 -6 -15 -15 -15c-3 0 -162 102 -162 378c0 213 81 444 81 636z" fill="currentColor"/>
</g>
<g transform="translate(128.6349, 37.9789)">
<path transform="scale(0.0040, -0.0040)" d="M0 -43c0 92 111 181 211 181c65 0 115 -37 115 -95c0 -88 -106 -181 -215 -181c-70 0 -111 41 -111 95z" fill="currentColor"/>
</g>
<g transform="translate(128.7105, 40.4789)">
<rect x="-0.0757" y="-2.3286" width="0.1514" height="6.5032" ry="0.0500" fill="currentColor"/>
</g>
<g transform="translate(130.7392, 38.9789)">
<path transform="scale(0.0040, -0.0040)" d="M0 -43c0 92 111 181 211 181c65 0 115 -37 115 -95c0 -88 -106 -181 -215 -181c-70 0 -111 41 -111 95z" fill="currentColor"/>
</g>
<g transform="translate(130.8149, 40.4789)">
<rect x="-0.0757" y="-1.3286" width="0.1514" height="5.3197" ry="0.0500" fill="currentColor"/>
</g>
<g transform="translate(133.9436, 31.4789)">
<path transform="scale(0.0040, -0.0040)" d="M70 205c81 0 46 -96 90 -96c14 0 50 42 56 55c4 7 10 11 17 11s14 -4 17 -11l-119 -414c-9 -8 -21 -12 -32 -12s-23 4 -32 12l118 326c-33 -12 -66 -22 -101 -22c-58 0 -86 40 -86 79c0 36 24 72 72 72z" fill="currentColor"/>
</g>
<g transform="translate(133.9436, 39.4789)">
<path transform="scale(0.0040, -0.0040)" d="M0 -43c0 92 111 181 211 181c65 0 115 -37 115 -95c0 -88 -106 -181 -215 -181c-70 0 -111 41 -111 95z" fill="currentColor"/>
</g>
<g transform="translate(10.6698, 62.7079)">
<rect x="118.6256" y="-0.1082" width="1.9512" height="0.2164" ry="0.1082" fill="currentColor"/>
</g>
<g transform="translate(10.6698, 55.7079)">
<rect x="46.4347" y="-0.1082" width="1.9512" height="0.2164" ry="0.1082" fill="currentColor"/>
</g>
<g transform="translate(10.6698, 56.7079)">
<rect x="46.4347" y="-0.1082" width="1.9512" height="0.2164" ry="0.1082" fill="currentColor"/>
</g>
<g transform="translate(10.6698, 56.7079)">
<rect x="21.8503" y="-0.1082" width="1.9512" height="0.2164" ry="0.1082" fill="currentColor"/>
</g>
<g transform="translate(10.6698, 61.7079)">
<line stroke-linejoin="round" stroke-linecap="round" stroke-width="0.1164" stroke="currentColor" x1="0.0582" y1="0" x2="127.9792" y2="0"/>
</g>
<g transform="translate(10.6698, 60.7079)">
<line stroke-linejoin="round" stroke-linecap="round" stroke-width="0.1164" stroke="currentColor" x1="0.0582" y1="0" x2="127.9792" y2="0"/>
</g>
<g transform="translate(10.6698, 59.7079)">
<line stroke-linejoin="round" stroke-linecap="round" stroke-width="0.1164" stroke="currentColor" x1="0.0582" y1="0" x2="127.9792" y2="0"/>
</g>
<g transform="translate(10.6698, 58.7079)">
<line stroke-linejoin="round" stroke-linecap="round" stroke-width="0.1164" stroke="currentColor" x1="0.0582" y1="0" x2="127.9792" y2="0"/>
</g>
<g transform="translate(10.6698, 57.7079)">
<line stroke-linejoin="round" stroke-linecap="round" stroke-width="0.1164" stroke="currentColor" x1="0.0582" y1="0" x2="127.9792" y2="0"/>
</g>
<g transform="translate(138.0086, 46.1597)">
<rect x="0.0000" y="15.6064" width="0.6986" height="4.9418" ry="0.0000" fill="currentColor"/>
</g>
<g transform="translate(137.4381, 46.1597)">
<rect x="0.0000" y="15.6064" width="0.2212" height="4.9418" ry="0.0000" fill="currentColor"/>
</g>
<g transform="translate(10.6698, 71.7079)">
<rect x="122.6096" y="-0.1082" width="1.9512" height="0.2164" ry="0.1082" fill="currentColor"/>
</g>
<g transform="translate(10.6698, 72.7079)">
<rect x="122.6096" y="-0.1082" width="1.9512" height="0.2164" ry="0.1082" fill="currentColor"/>
</g>
<g transform="translate(10.6698, 70.7079)">
<line stroke-linejoin="round" stroke-linecap="round" stroke-width="0.1164" stroke="currentColor" x1="0.0582" y1="0" x2="127.9792" y2="0"/>
</g>
<g transform="translate(10.6698, 69.7079)">
<line stroke-linejoin="round" stroke-linecap="round" stroke-width="0.1164" stroke="currentColor" x1="0.0582" y1="0" x2="127.9792" y2="0"/>
</g>
<g transform="translate(10.6698, 68.7079)">
<line stroke-linejoin="round" stroke-linecap="round" stroke-width="0.1164" stroke="currentColor" x1="0.0582" y1="0" x2="127.9792" y2="0"/>
</g>
<g transform="translate(10.6698, 67.7079)">
<line stroke-linejoin="round" stroke-linecap="round" stroke-width="0.1164" stroke="currentColor" x1="0.0582" y1="0" x2="127.9792" y2="0"/>
</g>
<g transform="translate(10.6698, 66.7079)">
<line stroke-linejoin="round" stroke-linecap="round" stroke-width="0.1164" stroke="currentColor" x1="0.0582" y1="0" x2="127.9792" y2="0"/>
</g>
<g transform="translate(138.0086, 68.7079)">
<rect x="0.0000" y="-2.0582" width="0.6986" height="4.0582" ry="0.0000" fill="currentColor"/>
</g>
<g transform="translate(137.4381, 68.7079)">
<rect x="0.0000" y="-2.0582" width="0.2212" height="4.0582" ry="0.0000" fill="currentColor"/>
</g>
<g transform="translate(138.0086, 59.7079)">
<rect x="0.0000" y="-2.0000" width="0.6986" height="4.0582" ry="0.0000" fill="currentColor"/>
</g>
<g transform="translate(137.4381, 59.7079)">
<rect x="0.0000" y="-2.0000" width="0.2212" height="4.0582" ry="0.0000" fill="currentColor"/>
</g>
<g transform="translate(124.7123, 46.1597)">
<rect x="0.0000" y="15.6064" width="0.2212" height="4.9418" ry="0.0000" fill="currentColor"/>
</g>
<g transform="translate(124.7123, 68.7079)">
<rect x="0.0000" y="-2.0582" width="0.2212" height="4.0582" ry="0.0000" fill="currentColor"/>
</g>
<g transform="translate(124.7123, 59.7079)">
<rect x="0.0000" y="-2.0000" width="0.2212" height="4.0582" ry="0.0000" fill="currentColor"/>
</g>
<g transform="translate(110.0587, 46.1597)">
<rect x="0.0000" y="15.6064" width="0.2212" height="4.9418" ry="0.0000" fill="currentColor"/>
</g>
<g transform="translate(110.0587, 68.7079)">
<rect x="0.0000" y="-2.0582" width="0.2212" height="4.0582" ry="0.0000" fill="currentColor"/>
</g>
<g transform="translate(110.0587, 59.7079)">
<rect x="0.0000" y="-2.0000" width="0.2212" height="4.0582" ry="0.0000" fill="currentColor"/>
</g>
<g transform="translate(92.8259, 46.1597)">
<rect x="0.0000" y="15.6064" width="0.2212" height="4.9418" ry="0.0000" fill="currentColor"/>
</g>
<g transform="translate(92.8259, 68.7079)">
<rect x="0.0000" y="-2.0582" width="0.2212" height="4.0582" ry="0.0000" fill="currentColor"/>
</g>
<g transform="translate(92.8259, 59.7079)">
<rect x="0.0000" y="-2.0000" width="0.2212" height="4.0582" ry="0.0000" fill="currentColor"/>
</g>
<g transform="translate(76.1544, 46.1597)">
<rect x="0.0000" y="15.6064" width="0.2212" height="4.9418" ry="0.0000" fill="currentColor"/>
</g>
<g transform="translate(76.1544, 68.7079)">
<rect x="0.0000" y="-2.0582" width="0.2212" height="4.0582" ry="0.0000" fill="currentColor"/>
</g>
<g transform="translate(76.1544, 59.7079)">
<rect x="0.0000" y="-2.0000" width="0.2212" height="4.0582" ry="0.0000" fill="currentColor"/>
</g>
<g transform="translate(62.2145, 46.1597)">
<rect x="0.0000" y="15.6064" width="0.2212" height="4.9418" ry="0.0000" fill="currentColor"/>
</g>
<g transform="translate(62.2145, 68.7079)">
<rect x="0.0000" y="-2.0582" width="0.2212" height="4.0582" ry="0.0000" fill="currentColor"/>
</g>
<g transform="translate(62.2145, 59.7079)">
<rect x="0.0000" y="-2.0000" width="0.2212" height="4.0582" ry="0.0000" fill="currentColor"/>
</g>
<g transform="translate(44.9940, 46.1597)">
<rect x="0.0000" y="15.6064" width="0.2212" height="4.9418" ry="0.0000" fill="currentColor"/>
</g>
<g transform="translate(44.9940, 68.7079)">
<rect x="0.0000" y="-2.0582" width="0.2212" height="4.0582" ry="0.0000" fill="currentColor"/>
</g>
<g transform="translate(44.9940, 59.7079)">
<rect x="0.0000" y="-2.0000" width="0.2212" height="4.0582" ry="0.0000" fill="currentColor"/>
</g>
<g transform="translate(28.5467, 46.1597)">
<rect x="0.0000" y="15.6064" width="0.2212" height="4.9418" ry="0.0000" fill="currentColor"/>
</g>
<g transform="translate(28.5467, 68.7079)">
<rect x="0.0000" y="-2.0582" width="0.2212" height="4.0582" ry="0.0000" fill="currentColor"/>
</g>
<g transform="translate(28.5467, 59.7079)">
<rect x="0.0000" y="-2.0000" width="0.2212" height="4.0582" ry="0.0000" fill="currentColor"/>
</g>
<g transform="translate(16.4698, 60.2079)">
<path transform="scale(0.0040, -0.0040)" d="M0 -43c0 92 111 181 211 181c65 0 115 -37 115 -95c0 -88 -106 -181 -215 -181c-70 0 -111 41 -111 95z" fill="currentColor"/>
</g>
<g transform="translate(16.4698, 68.7079)">
<path transform="scale(0.0040, -0.0040)" d="M0 -43c0 92 111 181 211 181c65 0 115 -37 115 -95c0 -88 -106 -181 -215 -181c-70 0 -111 41 -111 95z" fill="currentColor"/>
</g>
<g transform="translate(16.4698, 67.7079)">
<path transform="scale(0.0040, -0.0040)" d="M0 -43c0 92 111 181 211 181c65 0 115 -37 115 -95c0 -88 -106 -181 -215 -181c-70 0 -111 41 -111 95z" fill="currentColor"/>
</g>
<g transform="translate(16.5455, 59.7079)">
<rect x="-0.0757" y="0.6714" width="0.1514" height="2.4981" ry="0.0500" fill="currentColor"/>
</g>
<g transform="translate(16.5455, 68.7079)">
<rect x="-0.0757" y="-0.8286" width="0.1514" height="4.1619" ry="0.0500" fill="currentColor"/>
</g>
<g transform="translate(15.0198, 67.7079)">
<path transform="scale(0.0040, -0.0040)" d="M0 116c0 10 6 19 16 23l40 15v154c0 12 9 21 21 21s21 -9 21 -21v-138l79 30v154c0 12 9 21 21 21s21 -9 21 -21v-138l22 8c3 1 6 2 9 2c13 0 25 -11 25 -25v-54c0 -10 -6 -20 -16 -24l-40 -15v-155l22 9c3 1 6 1 9 1c13 0 25 -11 25 -25v-54c0 -10 -6 -19 -16 -23
l-40 -15v-154c0 -12 -9 -21 -21 -21s-21 9 -21 21v138l-79 -30v-154c0 -12 -9 -21 -21 -21s-21 9 -21 21v138l-22 -8c-3 -1 -6 -2 -9 -2c-13 0 -25 11 -25 25v54c0 10 6 20 16 24l40 15v155l-22 -9c-3 -1 -6 -1 -9 -1c-13 0 -25 11 -25 25v54zM177 92l-79 -30v-154l79 30
v154z" fill="currentColor"/>
</g>
<g transform="translate(127.0361, 56.8897)">
<polygon stroke-linejoin="round" stroke-linecap="round" stroke-width="0.1000" fill="currentColor" stroke="currentColor" points="3.8353 1.4464 3.8353 1.8264 0.0500 0.1900 0.0500 -0.1900"/>
</g>
<g transform="translate(20.7038, 58.7079)">
<path transform="scale(0.0040, -0.0040)" d="M0 -43c0 92 111 181 211 181c65 0 115 -37 115 -95c0 -88 -106 -181 -215 -181c-70 0 -111 41 -111 95z" fill="currentColor"/>
</g>
<g transform="translate(20.7794, 59.7079)">
<rect x="-0.0757" y="-0.8286" width="0.1514" height="3.3082" ry="0.0500" fill="currentColor"/>
</g>
<g transform="translate(111.4535, 70.7079)">
<polygon stroke-linejoin="round" stroke-linecap="round" stroke-width="0.1000" fill="currentColor" stroke="currentColor" points="2.7438 -0.1900 2.7438 0.1900 0.0500 0.1900 0.0500 -0.1900"/>
</g>
<g transform="translate(111.4535, 71.5261)">
<polygon stroke-linejoin="round" stroke-linecap="round" stroke-width="0.1000" fill="currentColor" stroke="currentColor" points="9.6201 -0.1900 9.6201 0.1900 0.0500 0.1900 0.0500 -0.1900"/>
</g>
<g transform="translate(24.6877, 57.7079)">
<path transform="scale(0.0040, -0.0040)" d="M0 -43c0 92 111 181 211 181c65 0 115 -37 115 -95c0 -88 -106 -181 -215 -181c-70 0 -111 41 -111 95z" fill="currentColor"/>
</g>
<g transform="translate(24.6877, 69.2079)">
<path transform="scale(0.0040, -0.0040)" d="M0 -43c0 92 111 181 211 181c65 0 115 -37 115 -95c0 -88 -106 -181 -215 -181c-70 0 -111 41 -111 95z" fill="currentColor"/>
</g>
<g transform="translate(24.6877, 66.7079)">
<path transform="scale(0.0040, -0.0040)" d="M0 -43c0 92 111 181 211 181c65 0 115 -37 115 -95c0 -88 -106 -181 -215 -181c-70 0 -111 41 -111 95z" fill="currentColor"/>
</g>
<g transform="translate(24.7634, 59.7079)">
<rect x="-0.0757" y="-1.8286" width="0.1514" height="3.6592" ry="0.0500" fill="currentColor"/>
</g>
<g transform="translate(23.2377, 57.7079)">
<path transform="scale(0.0040, -0.0040)" d="M0 116c0 10 6 19 16 23l40 15v154c0 12 9 21 21 21s21 -9 21 -21v-138l79 30v154c0 12 9 21 21 21s21 -9 21 -21v-138l22 8c3 1 6 2 9 2c13 0 25 -11 25 -25v-54c0 -10 -6 -20 -16 -24l-40 -15v-155l22 9c3 1 6 1 9 1c13 0 25 -11 25 -25v-54c0 -10 -6 -19 -16 -23
l-40 -15v-154c0 -12 -9 -21 -21 -21s-21 9 -21 21v138l-79 -30v-154c0 -12 -9 -21 -21 -21s-21 9 -21 21v138l-22 -8c-3 -1 -6 -2 -9 -2c-13 0 -25 11 -25 25v54c0 10 6 20 16 24l40 15v155l-22 -9c-3 -1 -6 -1 -9 -1c-13 0 -25 11 -25 25v54zM177 92l-79 -30v-154l79 30
v154z" fill="currentColor"/>
</g>
<g transform="translate(24.7634, 68.7079)">
<rect x="-0.0757" y="-1.8286" width="0.1514" height="5.5786" ry="0.0500" fill="currentColor"/>
</g>
<g transform="translate(24.8391, 72.4079)">
<path transform="scale(0.0040, -0.0040)" d="M0 0h-19v375h19v-375zM220 509c0 94 -41 155 -41 166c0 15 13 25 26 25c8 0 17 -4 22 -13c25 -56 40 -116 40 -178c0 -203 -267 -306 -267 -509v250c95 59 220 149 220 259z" fill="currentColor"/>
</g>
<g transform="translate(111.4535, 60.7079)">
<polygon stroke-linejoin="round" stroke-linecap="round" stroke-width="0.1000" fill="currentColor" stroke="currentColor" points="2.7438 -0.1900 2.7438 0.1900 0.0500 0.1900 0.0500 -0.1900"/>
</g>
<g transform="translate(111.4535, 61.5261)">
<polygon stroke-linejoin="round" stroke-linecap="round" stroke-width="0.1000" fill="currentColor" stroke="currentColor" points="9.6201 -0.1900 9.6201 0.1900 0.0500 0.1900 0.0500 -0.1900"/>
</g>
<g transform="translate(94.1921, 71.7079)">
<polygon stroke-linejoin="round" stroke-linecap="round" stroke-width="0.1000" fill="currentColor" stroke="currentColor" points="13.5633 -0.1900 13.5633 0.1900 0.0500 0.1900 0.0500 -0.1900"/>
</g>
<g transform="translate(94.1921, 72.5261)">
<polygon stroke-linejoin="round" stroke-linecap="round" stroke-width="0.1000" fill="currentColor" stroke="currentColor" points="13.5633 -0.1900 13.5633 0.1900 0.0500 0.1900 0.0500 -0.1900"/>
</g>
<g transform="translate(29.9529, 57.2079)">
<path transform="scale(0.0040, -0.0040)" d="M0 -43c0 92 111 181 211 181c65 0 115 -37 115 -95c0 -88 -106 -181 -215 -181c-70 0 -111 41 -111 95z" fill="currentColor"/>
</g>
<g transform="translate(29.9529, 69.7079)">
<path transform="scale(0.0040, -0.0040)" d="M0 -43c0 92 111 181 211 181c65 0 115 -37 115 -95c0 -88 -106 -181 -215 -181c-70 0 -111 41 -111 95z" fill="currentColor"/>
</g>
<g transform="translate(29.9529, 68.7079)">
<path transform="scale(0.0040, -0.0040)" d="M0 -43c0 92 111 181 211 181c65 0 115 -37 115 -95c0 -88 -106 -181 -215 -181c-70 0 -111 41 -111 95z" fill="currentColor"/>
</g>
<g transform="translate(30.0286, 59.7079)">
<rect x="-0.0757" y="-2.3286" width="0.1514" height="3.3436" ry="0.0500" fill="currentColor"/>
</g>
<g transform="translate(31.1781, 68.7079)">
<rect x="-0.0757" y="-3.3333" width="0.1514" height="4.1619" ry="0.0500" fill="currentColor"/>
</g>
<g transform="translate(94.1921, 61.7079)">
<polygon stroke-linejoin="round" stroke-linecap="round" stroke-width="0.1000" fill="currentColor" stroke="currentColor" points="10.6710 1.3100 10.6710 1.6900 0.0500 0.1900 0.0500 -0.1900"/>
</g>
<g transform="translate(32.8453, 56.2079)">
<path transform="scale(0.0040, -0.0040)" d="M0 -43c0 92 111 181 211 181c65 0 115 -37 115 -95c0 -88 -106 -181 -215 -181c-70 0 -111 41 -111 95z" fill="currentColor"/>
</g>
<g transform="translate(32.9210, 59.7079)">
<rect x="-0.0757" y="-3.3286" width="0.1514" height="4.9169" ry="0.0500" fill="currentColor"/>
</g>
<g transform="translate(77.4634, 62.3897)">
<polygon stroke-linejoin="round" stroke-linecap="round" stroke-width="0.1000" fill="currentColor" stroke="currentColor" points="13.0633 -0.1900 13.0633 0.1900 0.0500 0.1900 0.0500 -0.1900"/>
</g>
<g transform="translate(77.4634, 63.2079)">
<polygon stroke-linejoin="round" stroke-linecap="round" stroke-width="0.1000" fill="currentColor" stroke="currentColor" points="13.0633 -0.1900 13.0633 0.1900 0.0500 0.1900 0.0500 -0.1900"/>
</g>
<g transform="translate(35.2377, 57.2079)">
<path transform="scale(0.0040, -0.0040)" d="M0 -43c0 92 111 181 211 181c65 0 115 -37 115 -95c0 -88 -106 -181 -215 -181c-70 0 -111 41 -111 95z" fill="currentColor"/>
</g>
<g transform="translate(35.3134, 59.7079)">
<rect x="-0.0757" y="-2.3286" width="0.1514" height="4.3911" ry="0.0500" fill="currentColor"/>
</g>
<g transform="translate(94.1921, 59.7079)">
<path stroke-width="0.0931" stroke-linejoin="round" stroke-linecap="round" stroke="currentColor" fill="currentColor" d="M0.7445 -2.5527C2.8924 -3.6221 9.8217 -2.0815 11.3141 -0.2027L11.3141 -0.2027C9.7914 -1.9451 2.8621 -3.4857 0.7445 -2.5527z"/>
</g>
<g transform="translate(37.6301, 58.7079)">
<path transform="scale(0.0040, -0.0040)" d="M0 -43c0 92 111 181 211 181c65 0 115 -37 115 -95c0 -88 -106 -181 -215 -181c-70 0 -111 41 -111 95z" fill="currentColor"/>
</g>
<g transform="translate(37.7058, 59.7079)">
<rect x="-0.0757" y="-0.8286" width="0.1514" height="3.3652" ry="0.0500" fill="currentColor"/>
</g>
<g transform="translate(63.5521, 61.7079)">
<polygon stroke-linejoin="round" stroke-linecap="round" stroke-width="0.1000" fill="currentColor" stroke="currentColor" points="2.4938 0.4190 2.4938 0.7990 0.0500 0.1900 0.0500 -0.1900"/>
</g>
<g transform="translate(63.5521, 62.5261)">
<polygon stroke-linejoin="round" stroke-linecap="round" stroke-width="0.1000" fill="currentColor" stroke="currentColor" points="4.8862 0.9918 4.8862 1.3718 0.0500 0.1900 0.0500 -0.1900"/>
</g>
<g transform="translate(40.0225, 59.7079)">
<path transform="scale(0.0040, -0.0040)" d="M0 -43c0 92 111 181 211 181c65 0 115 -37 115 -95c0 -88 -106 -181 -215 -181c-70 0 -111 41 -111 95z" fill="currentColor"/>
</g>
<g transform="translate(40.0225, 68.7079)">
<path transform="scale(0.0040, -0.0040)" d="M70 205c81 0 46 -96 90 -96c14 0 50 42 56 55c4 7 10 11 17 11s14 -4 17 -11l-119 -414c-9 -8 -21 -12 -32 -12s-23 4 -32 12l118 326c-33 -12 -66 -22 -101 -22c-58 0 -86 40 -86 79c0 36 24 72 72 72z" fill="currentColor"/>
</g>
<g transform="translate(40.0982, 59.7079)">
<rect x="-0.0757" y="0.1714" width="0.1514" height="2.8394" ry="0.0500" fill="currentColor"/>
</g>
<g transform="translate(46.3601, 60.7079)">
<polygon stroke-linejoin="round" stroke-linecap="round" stroke-width="0.1000" fill="currentColor" stroke="currentColor" points="13.5633 -0.1900 13.5633 0.1900 0.0500 0.1900 0.0500 -0.1900"/>
</g>
<g transform="translate(46.3601, 61.5261)">
<polygon stroke-linejoin="round" stroke-linecap="round" stroke-width="0.1000" fill="currentColor" stroke="currentColor" points="13.5633 -0.1900 13.5633 0.1900 0.0500 0.1900 0.0500 -0.1900"/>
</g>
<g transform="translate(42.4149, 60.7079)">
<path transform="scale(0.0040, -0.0040)" d="M0 -43c0 92 111 181 211 181c65 0 115 -37 115 -95c0 -88 -106 -181 -215 -181c-70 0 -111 41 -111 95z" fill="currentColor"/>
</g>
<g transform="translate(42.4906, 59.7079)">
<rect x="-0.0757" y="1.1714" width="0.1514" height="2.3136" ry="0.0500" fill="currentColor"/>
</g>
<g transform="translate(29.9529, 59.8897)">
<polygon stroke-linejoin="round" stroke-linecap="round" stroke-width="0.1000" fill="currentColor" stroke="currentColor" points="12.5633 2.3100 12.5633 2.6900 0.0500 0.1900 0.0500 -0.1900"/>
</g>
<g transform="translate(29.9529, 60.7079)">
<polygon stroke-linejoin="round" stroke-linecap="round" stroke-width="0.1000" fill="currentColor" stroke="currentColor" points="12.5633 2.3100 12.5633 2.6900 0.0500 0.1900 0.0500 -0.1900"/>
</g>
<g transform="translate(16.4698, 62.8897)">
<polygon stroke-linejoin="round" stroke-linecap="round" stroke-width="0.1000" fill="currentColor" stroke="currentColor" points="8.3193 -1.5536 8.3193 -1.1736 0.0500 0.1900 0.0500 -0.1900"/>
</g>
<g transform="translate(46.3601, 58.2079)">
<path transform="scale(0.0040, -0.0040)" d="M0 -43c0 92 111 181 211 181c65 0 115 -37 115 -95c0 -88 -106 -181 -215 -181c-70 0 -111 41 -111 95z" fill="currentColor"/>
</g>
<g transform="translate(46.3601, 69.2079)">
<path transform="scale(0.0040, -0.0040)" d="M0 -43c0 92 111 181 211 181c65 0 115 -37 115 -95c0 -88 -106 -181 -215 -181c-70 0 -111 41 -111 95z" fill="currentColor"/>
</g>
<g transform="translate(46.3601, 67.2079)">
<path transform="scale(0.0040, -0.0040)" d="M0 -43c0 92 111 181 211 181c65 0 115 -37 115 -95c0 -88 -106 -181 -215 -181c-70 0 -111 41 -111 95z" fill="currentColor"/>
</g>
<g transform="translate(46.4358, 59.7079)">
<rect x="-0.0757" y="-1.3286" width="0.1514" height="3.1468" ry="0.0500" fill="currentColor"/>
</g>
<g transform="translate(46.4358, 68.7079)">
<rect x="-0.0757" y="-1.3286" width="0.1514" height="4.9953" ry="0.0500" fill="currentColor"/>
</g>
<g transform="translate(48.7525, 59.2079)">
<path transform="scale(0.0040, -0.0040)" d="M0 -43c0 92 111 181 211 181c65 0 115 -37 115 -95c0 -88 -106 -181 -215 -181c-70 0 -111 41 -111 95z" fill="currentColor"/>
</g>
<g transform="translate(48.8282, 59.7079)">
<rect x="-0.0757" y="-0.3286" width="0.1514" height="2.1468" ry="0.0500" fill="currentColor"/>
</g>
<g transform="translate(51.6449, 58.2079)">
<path transform="scale(0.0040, -0.0040)" d="M0 -43c0 92 111 181 211 181c65 0 115 -37 115 -95c0 -88 -106 -181 -215 -181c-70 0 -111 41 -111 95z" fill="currentColor"/>
</g>
<g transform="translate(51.7206, 59.7079)">
<rect x="-0.0757" y="-1.3286" width="0.1514" height="3.1468" ry="0.0500" fill="currentColor"/>
</g>
<g transform="translate(54.5373, 57.2079)">
<path transform="scale(0.0040, -0.0040)" d="M0 -43c0 92 111 181 211 181c65 0 115 -37 115 -95c0 -88 -106 -181 -215 -181c-70 0 -111 41 -111 95z" fill="currentColor"/>
</g>
<g transform="translate(54.6130, 59.7079)">
<rect x="-0.0757" y="-2.3286" width="0.1514" height="4.1468" ry="0.0500" fill="currentColor"/>
</g>
<g transform="translate(57.4297, 55.7079)">
<path transform="scale(0.0040, -0.0040)" d="M0 -43c0 92 111 181 211 181c65 0 115 -37 115 -95c0 -88 -106 -181 -215 -181c-70 0 -111 41 -111 95z" fill="currentColor"/>
</g>
<g transform="translate(57.4297, 68.7079)">
<path transform="scale(0.0040, -0.0040)" d="M70 205c81 0 46 -96 90 -96c14 0 50 42 56 55c4 7 10 11 17 11s14 -4 17 -11l-119 -414c-9 -8 -21 -12 -32 -12s-23 4 -32 12l118 326c-33 -12 -66 -22 -101 -22c-58 0 -86 40 -86 79c0 36 24 72 72 72z" fill="currentColor"/>
</g>
<g transform="translate(57.5054, 59.7079)">
<rect x="-0.0757" y="-3.8286" width="0.1514" height="5.6468" ry="0.0500" fill="currentColor"/>
</g>
<g transform="translate(59.8221, 57.2079)">
<path transform="scale(0.0040, -0.0040)" d="M0 -43c0 92 111 181 211 181c65 0 115 -37 115 -95c0 -88 -106 -181 -215 -181c-70 0 -111 41 -111 95z" fill="currentColor"/>
</g>
<g transform="translate(59.8978, 59.7079)">
<rect x="-0.0757" y="-2.3286" width="0.1514" height="4.1468" ry="0.0500" fill="currentColor"/>
</g>
<g transform="translate(63.5521, 58.7079)">
<path transform="scale(0.0040, -0.0040)" d="M0 -43c0 92 111 181 211 181c65 0 115 -37 115 -95c0 -88 -106 -181 -215 -181c-70 0 -111 41 -111 95z" fill="currentColor"/>
</g>
<g transform="translate(63.5521, 70.7079)">
<path transform="scale(0.0040, -0.0040)" d="M0 -43c0 92 111 181 211 181c65 0 115 -37 115 -95c0 -88 -106 -181 -215 -181c-70 0 -111 41 -111 95z" fill="currentColor"/>
</g>
<g transform="translate(63.5521, 67.2079)">
<path transform="scale(0.0040, -0.0040)" d="M0 -43c0 92 111 181 211 181c65 0 115 -37 115 -95c0 -88 -106 -181 -215 -181c-70 0 -111 41 -111 95z" fill="currentColor"/>
</g>
<g transform="translate(63.6278, 59.7079)">
<rect x="-0.0757" y="-0.8286" width="0.1514" height="3.6649" ry="0.0500" fill="currentColor"/>
</g>
<g transform="translate(64.7773, 68.7079)">
<rect x="-0.0757" y="-4.3333" width="0.1514" height="6.1619" ry="0.0500" fill="currentColor"/>
</g>
<g transform="translate(65.9445, 59.7079)">
<path transform="scale(0.0040, -0.0040)" d="M0 -43c0 92 111 181 211 181c65 0 115 -37 115 -95c0 -88 -106 -181 -215 -181c-70 0 -111 41 -111 95z" fill="currentColor"/>
</g>
<g transform="translate(66.0202, 59.7079)">
<rect x="-0.0757" y="0.1714" width="0.1514" height="3.2377" ry="0.0500" fill="currentColor"/>
</g>
<g transform="translate(68.3369, 60.7079)">
<path transform="scale(0.0040, -0.0040)" d="M0 -43c0 92 111 181 211 181c65 0 115 -37 115 -95c0 -88 -106 -181 -215 -181c-70 0 -111 41 -111 95z" fill="currentColor"/>
</g>
<g transform="translate(68.4126, 59.7079)">
<rect x="-0.0757" y="1.1714" width="0.1514" height="2.8105" ry="0.0500" fill="currentColor"/>
</g>
<g transform="translate(72.3209, 59.7079)">
<path transform="scale(0.0040, -0.0040)" d="M70 205c81 0 46 -96 90 -96c14 0 50 42 56 55c4 7 10 11 17 11s14 -4 17 -11l-119 -414c-9 -8 -21 -12 -32 -12s-23 4 -32 12l118 326c-33 -12 -66 -22 -101 -22c-58 0 -86 40 -86 79c0 36 24 72 72 72z" fill="currentColor"/>
</g>
<g transform="translate(72.3209, 67.2079)">
<path transform="scale(0.0040, -0.0040)" d="M0 -43c0 92 111 181 211 181c65 0 115 -37 115 -95c0 -88 -106 -181 -215 -181c-70 0 -111 41 -111 95z" fill="currentColor"/>
</g>
<g transform="translate(72.3966, 68.7079)">
<rect x="-0.0757" y="-1.3286" width="0.1514" height="3.3286" ry="0.0500" fill="currentColor"/>
</g>
<g transform="translate(72.4723, 70.6579)">
<path transform="scale(0.0040, -0.0040)" d="M0 0h-19v375h19v-375zM220 509c0 94 -41 155 -41 166c0 15 13 25 26 25c8 0 17 -4 22 -13c25 -56 40 -116 40 -178c0 -203 -267 -306 -267 -509v250c95 59 220 149 220 259z" fill="currentColor"/>
</g>
<g transform="translate(77.4634, 59.2079)">
<path transform="scale(0.0040, -0.0040)" d="M0 -43c0 92 111 181 211 181c65 0 115 -37 115 -95c0 -88 -106 -181 -215 -181c-70 0 -111 41 -111 95z" fill="currentColor"/>
</g>
<g transform="translate(8.9626, 56.6374)">
<text font-family="serif" font-size="1.7463" text-anchor="start" fill="currentColor">
<tspan>10</tspan>
</text>
</g>
<g transform="translate(77.4634, 69.2079)">
<path transform="scale(0.0040, -0.0040)" d="M0 -43c0 92 111 181 211 181c65 0 115 -37 115 -95c0 -88 -106 -181 -215 -181c-70 0 -111 41 -111 95z" fill="currentColor"/>
</g>
<g transform="translate(77.4634, 68.2079)">
<path transform="scale(0.0040, -0.0040)" d="M0 -43c0 92 111 181 211 181c65 0 115 -37 115 -95c0 -88 -106 -181 -215 -181c-70 0 -111 41 -111 95z" fill="currentColor"/>
</g>
<g transform="translate(77.5391, 59.7079)">
<rect x="-0.0757" y="-0.3286" width="0.1514" height="3.8286" ry="0.0500" fill="currentColor"/>
</g>
<g transform="translate(77.5391, 68.7079)">
<rect x="-0.0757" y="-0.3286" width="0.1514" height="3.9953" ry="0.0500" fill="currentColor"/>
</g>
<g transform="translate(11.4698, 67.7079)">
<path transform="scale(0.0040, -0.0040)" d="M558 -125c0 28 22 50 50 50s50 -22 50 -50s-22 -50 -50 -50s-50 22 -50 50zM558 125c0 28 22 50 50 50s50 -22 50 -50s-22 -50 -50 -50s-50 22 -50 50zM231 265c173 0 294 -88 294 -252c0 -263 -263 -415 -515 -523c-3 -3 -7 -5 -10 -5c-8 0 -15 7 -15 15c0 3 2 7 5 10
c200 118 407 264 407 491c0 119 -59 234 -166 234c-70 0 -119 -51 -142 -120c8 2 15 4 23 4c55 0 100 -45 100 -100c0 -58 -44 -106 -100 -106c-60 0 -112 47 -112 106c0 133 101 246 231 246z" fill="currentColor"/>
</g>
<g transform="translate(79.8558, 60.7079)">
<path transform="scale(0.0040, -0.0040)" d="M0 -43c0 92 111 181 211 181c65 0 115 -37 115 -95c0 -88 -106 -181 -215 -181c-70 0 -111 41 -111 95z" fill="currentColor"/>
</g>
<g transform="translate(79.9315, 59.7079)">
<rect x="-0.0757" y="1.1714" width="0.1514" height="2.3286" ry="0.0500" fill="currentColor"/>
</g>
<g transform="translate(82.7482, 58.2079)">
<path transform="scale(0.0040, -0.0040)" d="M0 -43c0 92 111 181 211 181c65 0 115 -37 115 -95c0 -88 -106 -181 -215 -181c-70 0 -111 41 -111 95z" fill="currentColor"/>
</g>
<g transform="translate(82.8239, 59.7079)">
<rect x="-0.0757" y="-1.3286" width="0.1514" height="4.8286" ry="0.0500" fill="currentColor"/>
</g>
<g transform="translate(85.1406, 59.2079)">
<path transform="scale(0.0040, -0.0040)" d="M0 -43c0 92 111 181 211 181c65 0 115 -37 115 -95c0 -88 -106 -181 -215 -181c-70 0 -111 41 -111 95z" fill="currentColor"/>
</g>
<g transform="translate(85.2163, 59.7079)">
<rect x="-0.0757" y="-0.3286" width="0.1514" height="3.8286" ry="0.0500" fill="currentColor"/>
</g>
<g transform="translate(88.0330, 57.2079)">
<path transform="scale(0.0040, -0.0040)" d="M0 -43c0 92 111 181 211 181c65 0 115 -37 115 -95c0 -88 -106 -181 -215 -181c-70 0 -111 41 -111 95z" fill="currentColor"/>
</g>
<g transform="translate(88.0330, 68.7079)">
<path transform="scale(0.0040, -0.0040)" d="M70 205c81 0 46 -96 90 -96c14 0 50 42 56 55c4 7 10 11 17 11s14 -4 17 -11l-119 -414c-9 -8 -21 -12 -32 -12s-23 4 -32 12l118 326c-33 -12 -66 -22 -101 -22c-58 0 -86 40 -86 79c0 36 24 72 72 72z" fill="currentColor"/>
</g>
<g transform="translate(88.1087, 59.7079)">
<rect x="-0.0757" y="-2.3286" width="0.1514" height="5.8286" ry="0.0500" fill="currentColor"/>
</g>
<g transform="translate(90.4254, 58.2079)">
<path transform="scale(0.0040, -0.0040)" d="M0 -43c0 92 111 181 211 181c65 0 115 -37 115 -95c0 -88 -106 -181 -215 -181c-70 0 -111 41 -111 95z" fill="currentColor"/>
</g>
<g transform="translate(90.5011, 59.7079)">
<rect x="-0.0757" y="-1.3286" width="0.1514" height="4.8286" ry="0.0500" fill="currentColor"/>
</g>
<g transform="translate(134.9054, 68.7579)">
<path transform="scale(0.0040, -0.0040)" d="M118 -725c0 11 43 86 43 194c0 102 -92 206 -161 281v-125h-19v375h19c0 -197 207 -334 207 -531c0 -71 -15 -140 -41 -206c-5 -9 -14 -13 -22 -13c-13 0 -26 10 -26 25z" fill="currentColor"/>
</g>
<g transform="translate(94.1921, 58.2079)">
<path transform="scale(0.0040, -0.0040)" d="M0 -43c0 92 111 181 211 181c65 0 115 -37 115 -95c0 -88 -106 -181 -215 -181c-70 0 -111 41 -111 95z" fill="currentColor"/>
</g>
<g transform="translate(94.1921, 69.2079)">
<path transform="scale(0.0040, -0.0040)" d="M0 -43c0 92 111 181 211 181c65 0 115 -37 115 -95c0 -88 -106 -181 -215 -181c-70 0 -111 41 -111 95z" fill="currentColor"/>
</g>
<g transform="translate(94.1921, 68.2079)">
<path transform="scale(0.0040, -0.0040)" d="M0 -43c0 92 111 181 211 181c65 0 115 -37 115 -95c0 -88 -106 -181 -215 -181c-70 0 -111 41 -111 95z" fill="currentColor"/>
</g>
<g transform="translate(94.2678, 59.7079)">
<rect x="-0.0757" y="-1.3286" width="0.1514" height="3.3392" ry="0.0500" fill="currentColor"/>
</g>
<g transform="translate(94.2678, 68.7079)">
<rect x="-0.0757" y="-0.3286" width="0.1514" height="4.1468" ry="0.0500" fill="currentColor"/>
</g>
<g transform="translate(11.4698, 60.7079)">
<path transform="scale(0.0040, -0.0040)" d="M647 2c0 -114 -75 -214 -180 -248c3 -33 4 -66 4 -99c0 -21 0 -41 -1 -62c-7 -122 -92 -229 -211 -229c-108 0 -196 88 -196 197c0 58 54 103 113 103c54 0 95 -47 95 -103c0 -52 -43 -95 -95 -95c-9 0 -18 1 -27 4c25 -37 66 -61 113 -61c93 0 156 91 162 191
c1 19 2 38 2 57c0 29 -1 58 -3 87c-28 -5 -54 -8 -79 -8c-242 0 -342 222 -342 376c0 177 129 308 244 443c-33 100 -55 169 -55 347c0 186 141 292 159 292c33 0 148 -208 148 -361c0 -142 -84 -255 -176 -364c21 -68 40 -136 57 -205c3 0 8 1 11 1
c156 0 257 -129 257 -263zM406 148c28 -133 49 -269 57 -349c73 27 109 93 109 160c0 86 -58 175 -166 189zM77 25c0 -111 96 -243 275 -243c21 0 44 1 67 5c-7 66 -27 208 -60 362c-79 -8 -124 -60 -124 -118c0 -43 25 -88 80 -120c5 -5 7 -11 7 -17c0 -12 -10 -23 -23 -23
c-16 0 -128 62 -128 188c0 89 60 177 163 200c-14 57 -30 113 -47 169c-105 -122 -210 -243 -210 -403zM424 920c0 61 -20 118 -21 118c-31 -14 -161 -85 -161 -253c0 -53 15 -113 39 -189c71 88 143 196 143 324z" fill="currentColor"/>
</g>
<g transform="translate(134.8297, 68.7079)">
<rect x="-0.0757" y="-0.0000" width="0.1514" height="3.8286" ry="0.0500" fill="currentColor"/>
</g>
<g transform="translate(97.0845, 67.2079)">
<path transform="scale(0.0040, -0.0040)" d="M0 -43c0 92 111 181 211 181c65 0 115 -37 115 -95c0 -88 -106 -181 -215 -181c-70 0 -111 41 -111 95z" fill="currentColor"/>
</g>
<g transform="translate(97.1602, 68.7079)">
<rect x="-0.0757" y="-1.3286" width="0.1514" height="5.1468" ry="0.0500" fill="currentColor"/>
</g>
<g transform="translate(99.4769, 59.2079)">
<path transform="scale(0.0040, -0.0040)" d="M0 -43c0 92 111 181 211 181c65 0 115 -37 115 -95c0 -88 -106 -181 -215 -181c-70 0 -111 41 -111 95z" fill="currentColor"/>
</g>
<g transform="translate(99.4769, 69.2079)">
<path transform="scale(0.0040, -0.0040)" d="M0 -43c0 92 111 181 211 181c65 0 115 -37 115 -95c0 -88 -106 -181 -215 -181c-70 0 -111 41 -111 95z" fill="currentColor"/>
</g>
<g transform="translate(99.4769, 68.2079)">
<path transform="scale(0.0040, -0.0040)" d="M0 -43c0 92 111 181 211 181c65 0 115 -37 115 -95c0 -88 -106 -181 -215 -181c-70 0 -111 41 -111 95z" fill="currentColor"/>
</g>
<g transform="translate(99.5526, 59.7079)">
<rect x="-0.0757" y="-0.3286" width="0.1514" height="3.0786" ry="0.0500" fill="currentColor"/>
</g>
<g transform="translate(99.5526, 68.7079)">
<rect x="-0.0757" y="-0.3286" width="0.1514" height="4.1468" ry="0.0500" fill="currentColor"/>
</g>
<g transform="translate(102.3693, 67.2079)">
<path transform="scale(0.0040, -0.0040)" d="M0 -43c0 92 111 181 211 181c65 0 115 -37 115 -95c0 -88 -106 -181 -215 -181c-70 0 -111 41 -111 95z" fill="currentColor"/>
</g>
<g transform="translate(102.4450, 68.7079)">
<rect x="-0.0757" y="-1.3286" width="0.1514" height="5.1468" ry="0.0500" fill="currentColor"/>
</g>
<g transform="translate(104.7617, 60.7079)">
<path transform="scale(0.0040, -0.0040)" d="M0 -43c0 92 111 181 211 181c65 0 115 -37 115 -95c0 -88 -106 -181 -215 -181c-70 0 -111 41 -111 95z" fill="currentColor"/>
</g>
<g transform="translate(104.7617, 69.2079)">
<path transform="scale(0.0040, -0.0040)" d="M0 -43c0 92 111 181 211 181c65 0 115 -37 115 -95c0 -88 -106 -181 -215 -181c-70 0 -111 41 -111 95z" fill="currentColor"/>
</g>
<g transform="translate(104.7617, 68.2079)">
<path transform="scale(0.0040, -0.0040)" d="M0 -43c0 92 111 181 211 181c65 0 115 -37 115 -95c0 -88 -106 -181 -215 -181c-70 0 -111 41 -111 95z" fill="currentColor"/>
</g>
<g transform="translate(104.8374, 59.7079)">
<rect x="-0.0757" y="1.1714" width="0.1514" height="2.3180" ry="0.0500" fill="currentColor"/>
</g>
<g transform="translate(104.8374, 68.7079)">
<rect x="-0.0757" y="-0.3286" width="0.1514" height="4.1468" ry="0.0500" fill="currentColor"/>
</g>
<g transform="translate(107.6541, 67.2079)">
<path transform="scale(0.0040, -0.0040)" d="M0 -43c0 92 111 181 211 181c65 0 115 -37 115 -95c0 -88 -106 -181 -215 -181c-70 0 -111 41 -111 95z" fill="currentColor"/>
</g>
<g transform="translate(107.7298, 68.7079)">
<rect x="-0.0757" y="-1.3286" width="0.1514" height="5.1468" ry="0.0500" fill="currentColor"/>
</g>
<g transform="translate(133.6046, 72.7079)">
<path transform="scale(0.0040, -0.0040)" d="M0 -43c0 92 111 181 211 181c65 0 115 -37 115 -95c0 -88 -106 -181 -215 -181c-70 0 -111 41 -111 95z" fill="currentColor"/>
</g>
<g transform="translate(133.6046, 59.7079)">
<path transform="scale(0.0040, -0.0040)" d="M70 205c81 0 46 -96 90 -96c14 0 50 42 56 55c4 7 10 11 17 11s14 -4 17 -11l-119 -414c-9 -8 -21 -12 -32 -12s-23 4 -32 12l118 326c-33 -12 -66 -22 -101 -22c-58 0 -86 40 -86 79c0 36 24 72 72 72z" fill="currentColor"/>
</g>
<g transform="translate(111.4535, 57.7079)">
<path transform="scale(0.0040, -0.0040)" d="M0 -43c0 92 111 181 211 181c65 0 115 -37 115 -95c0 -88 -106 -181 -215 -181c-70 0 -111 41 -111 95z" fill="currentColor"/>
</g>
<g transform="translate(111.4535, 67.7079)">
<path transform="scale(0.0040, -0.0040)" d="M0 -43c0 92 111 181 211 181c65 0 115 -37 115 -95c0 -88 -106 -181 -215 -181c-70 0 -111 41 -111 95z" fill="currentColor"/>
</g>
<g transform="translate(111.5292, 59.7079)">
<rect x="-0.0757" y="-1.8286" width="0.1514" height="3.6468" ry="0.0500" fill="currentColor"/>
</g>
<g transform="translate(111.5292, 68.7079)">
<rect x="-0.0757" y="-0.8286" width="0.1514" height="3.6468" ry="0.0500" fill="currentColor"/>
</g>
<g transform="translate(114.0959, 58.2079)">
<path transform="scale(0.0040, -0.0040)" d="M0 -43c0 92 111 181 211 181c65 0 115 -37 115 -95c0 -88 -106 -181 -215 -181c-70 0 -111 41 -111 95z" fill="currentColor"/>
</g>
<g transform="translate(114.0959, 68.2079)">
<path transform="scale(0.0040, -0.0040)" d="M0 -43c0 92 111 181 211 181c65 0 115 -37 115 -95c0 -88 -106 -181 -215 -181c-70 0 -111 41 -111 95z" fill="currentColor"/>
</g>
<g transform="translate(114.1716, 59.7079)">
<rect x="-0.0757" y="-1.3286" width="0.1514" height="3.1468" ry="0.0500" fill="currentColor"/>
</g>
<g transform="translate(114.1716, 68.7079)">
<rect x="-0.0757" y="-0.3286" width="0.1514" height="3.1468" ry="0.0500" fill="currentColor"/>
</g>
<g transform="translate(116.7383, 58.7079)">
<path transform="scale(0.0040, -0.0040)" d="M0 -43c0 92 111 181 211 181c65 0 115 -37 115 -95c0 -88 -106 -181 -215 -181c-70 0 -111 41 -111 95z" fill="currentColor"/>
</g>
<g transform="translate(116.7383, 68.7079)">
<path transform="scale(0.0040, -0.0040)" d="M0 -43c0 92 111 181 211 181c65 0 115 -37 115 -95c0 -88 -106 -181 -215 -181c-70 0 -111 41 -111 95z" fill="currentColor"/>
</g>
<g transform="translate(116.8140, 59.7079)">
<rect x="-0.0757" y="-0.8286" width="0.1514" height="2.6468" ry="0.0500" fill="currentColor"/>
</g>
<g transform="translate(116.8140, 68.7079)">
<rect x="-0.0757" y="0.1714" width="0.1514" height="2.6468" ry="0.0500" fill="currentColor"/>
</g>
<g transform="translate(120.9722, 57.2079)">
<path transform="scale(0.0040, -0.0040)" d="M0 -43c0 92 111 181 211 181c65 0 115 -37 115 -95c0 -88 -106 -181 -215 -181c-70 0 -111 41 -111 95z" fill="currentColor"/>
</g>
<g transform="translate(120.9722, 67.2079)">
<path transform="scale(0.0040, -0.0040)" d="M0 -43c0 92 111 181 211 181c65 0 115 -37 115 -95c0 -88 -106 -181 -215 -181c-70 0 -111 41 -111 95z" fill="currentColor"/>
</g>
<g transform="translate(121.0479, 59.7079)">
<rect x="-0.0757" y="-2.3286" width="0.1514" height="4.1468" ry="0.0500" fill="currentColor"/>
</g>
<g transform="translate(121.0479, 68.7079)">
<rect x="-0.0757" y="-1.3286" width="0.1514" height="4.1468" ry="0.0500" fill="currentColor"/>
</g>
<g transform="translate(130.8458, 59.7079)">
<rect x="-0.0757" y="-1.2137" width="0.1514" height="4.0423" ry="0.0500" fill="currentColor"/>
</g>
<g transform="translate(129.6206, 62.7079)">
<path transform="scale(0.0040, -0.0040)" d="M0 -43c0 92 111 181 211 181c65 0 115 -37 115 -95c0 -88 -106 -181 -215 -181c-70 0 -111 41 -111 95z" fill="currentColor"/>
</g>
<g transform="translate(125.8867, 59.2079)">
<path transform="scale(0.0040, -0.0040)" d="M0 -43c0 92 111 181 211 181c65 0 115 -37 115 -95c0 -88 -106 -181 -215 -181c-70 0 -111 41 -111 95z" fill="currentColor"/>
</g>
<g transform="translate(125.8867, 69.2079)">
<path transform="scale(0.0040, -0.0040)" d="M0 -43c0 92 111 181 211 181c65 0 115 -37 115 -95c0 -88 -106 -181 -215 -181c-70 0 -111 41 -111 95z" fill="currentColor"/>
</g>
<g transform="translate(10.5835, 64.2079)">
<rect x="0.0000" y="-6.5582" width="0.1863" height="13.1164" ry="0.0582" fill="currentColor"/>
</g>
<g transform="translate(127.1118, 59.7079)">
<rect x="-0.0757" y="-2.7863" width="0.1514" height="2.1149" ry="0.0500" fill="currentColor"/>
</g>
<g transform="translate(127.1118, 68.7079)">
<rect x="-0.0757" y="-3.0000" width="0.1514" height="3.3286" ry="0.0500" fill="currentColor"/>
</g>
<g transform="translate(10.2835, 64.2079)">
<path transform="scale(0.0050, -0.0050)" d="M-81 -282c0 216 -111 264 -111 282s111 66 111 282c0 192 -81 423 -81 636c0 276 159 378 162 378c9 0 15 -6 15 -15c0 -21 -114 -66 -114 -288c0 -189 78 -414 78 -621c0 -138 -33 -267 -144 -372c111 -105 144 -234 144 -372c0 -207 -78 -432 -78 -621
c0 -222 114 -267 114 -288c0 -9 -6 -15 -15 -15c-3 0 -162 102 -162 378c0 213 81 444 81 636z" fill="currentColor"/>
</g>
<g transform="translate(66.4301, 203.6738)">
<a xlink:href="https://lilypond.org">
<rect x="0.0000" y="-0.4748" width="16.5168" height="2.0023" fill="none" stroke="none" stroke-width="0.0"/>
</a>
</g>
<g transform="translate(66.4301, 203.6738)">
<text font-family="serif" font-size="2.2001" text-anchor="start" fill="currentColor">
<tspan>LilyPond v2.25.22</tspan>
</text>
</g>
</svg>
