<svg xmlns="http://www.w3.org/2000/svg" xmlns:xlink="http://www.w3.org/1999/xlink" version="1.2" width="210.00mm" height="297.00mm" viewBox="0.0000 -0.0000 119.5016 169.0094">
<style type="text/css">
<![CDATA[
tspan { white-space: pre; }
]]>
</style>
<g transform="translate(17.0717, 11.6906)">
<line stroke-linejoin="round" stroke-linecap="round" stroke-width="0.1000" stroke="currentColor" x1="0.0500" y1="0" x2="93.8441" y2="0"/>
</g>
<g transform="translate(110.7757, 11.6906)">
<rect x="0.0000" y="-1.0000" width="0.1900" height="2.0000" ry="0.0000" fill="currentColor"/>
</g>
<g transform="translate(95.0767, 11.6906)">
<rect x="0.0000" y="-1.0000" width="0.1900" height="2.0000" ry="0.0000" fill="currentColor"/>
</g>
<g transform="translate(79.3777, 11.6906)">
<rect x="0.0000" y="-1.0000" width="0.1900" height="2.0000" ry="0.0000" fill="currentColor"/>
</g>
<g transform="translate(63.6787, 11.6906)">
<rect x="0.0000" y="-1.0000" width="0.1900" height="2.0000" ry="0.0000" fill="currentColor"/>
</g>
<g transform="translate(47.9797, 11.6906)">
<rect x="0.0000" y="-1.0000" width="0.1900" height="2.0000" ry="0.0000" fill="currentColor"/>
</g>
<g transform="translate(32.2807, 11.6906)">
<rect x="0.0000" y="-1.0000" width="0.1900" height="2.0000" ry="0.0000" fill="currentColor"/>
</g>
<g transform="translate(21.5398, 11.6906)">
<path transform="scale(0.0040, -0.0040)" d="M218 136c66 0 108 -36 108 -89c0 -89 -113 -183 -218 -183c-66 0 -108 36 -108 89c0 89 113 183 218 183z" fill="currentColor"/>
</g>
<g transform="translate(18.0717, 11.6906)">
<path transform="scale(0.0040, -0.0040)" d="M229 0c-88 0 -90 66 -144 66c-30 0 -59 -20 -62 -55c-1 -7 -6 -11 -11 -11c-6 0 -12 4 -12 11c0 154 232 170 232 344c0 59 -16 122 -67 122c-25 0 -49 -14 -49 -37c0 -27 35 -41 35 -68c0 -38 -31 -69 -69 -69s-69 31 -69 69c0 76 72 128 152 128c95 0 183 -57 183 -145
c0 -151 -150 -159 -246 -220c9 2 18 3 27 3c83 0 111 -59 171 -59c48 0 38 38 55 38c6 0 12 -5 12 -12c0 -22 -44 -105 -138 -105z" fill="currentColor"/>
</g>
<g transform="translate(18.0717, 13.6906)">
<path transform="scale(0.0040, -0.0040)" d="M261 287c25 30 44 64 44 103c0 54 -55 87 -114 87c-46 0 -73 -36 -73 -71c0 -21 10 -42 31 -54zM292 269c23 -13 80 -54 80 -125c0 -73 -66 -144 -189 -144c-94 0 -183 54 -183 140c0 50 36 87 72 123c-37 28 -55 66 -55 103c0 68 60 134 174 134c80 0 157 -39 157 -110
c0 -46 -25 -86 -56 -121zM103 244c-31 -30 -59 -61 -59 -104c0 -69 66 -117 139 -117c54 0 86 42 86 83c0 24 -10 48 -35 62z" fill="currentColor"/>
</g>
<g transform="translate(22.7790, 11.6906)">
<rect x="-0.0650" y="-3.0000" width="0.1300" height="2.8139" ry="0.0400" fill="currentColor"/>
</g>
<g transform="translate(104.3911, 7.9303)">
<text font-family="serif" font-style="italic" font-size="1.7461" text-anchor="start" fill="currentColor">
<tspan>3</tspan>
</text>
</g>
<g transform="translate(25.1007, 11.6906)">
<path transform="scale(0.0040, -0.0040)" d="M218 136c66 0 108 -36 108 -89c0 -89 -113 -183 -218 -183c-66 0 -108 36 -108 89c0 89 113 183 218 183z" fill="currentColor"/>
</g>
<g transform="translate(26.3399, 11.6906)">
<rect x="-0.0650" y="-3.0000" width="0.1300" height="2.8139" ry="0.0400" fill="currentColor"/>
</g>
<g transform="translate(28.6616, 11.6906)">
<path transform="scale(0.0040, -0.0040)" d="M218 136c66 0 108 -36 108 -89c0 -89 -113 -183 -218 -183c-66 0 -108 36 -108 89c0 89 113 183 218 183z" fill="currentColor"/>
</g>
<g transform="translate(29.9008, 11.6906)">
<rect x="-0.0650" y="-3.0000" width="0.1300" height="2.8139" ry="0.0400" fill="currentColor"/>
</g>
<g transform="translate(101.2091, 8.6906)">
<polygon stroke-linejoin="round" stroke-linecap="round" stroke-width="0.0800" fill="currentColor" stroke="currentColor" points="7.2118 -0.2000 7.2118 0.2000 0.0400 0.2000 0.0400 -0.2000"/>
</g>
<g transform="translate(88.6921, 7.9303)">
<text font-family="serif" font-style="italic" font-size="1.7461" text-anchor="start" fill="currentColor">
<tspan>3</tspan>
</text>
</g>
<g transform="translate(37.2388, 11.6906)">
<path transform="scale(0.0040, -0.0040)" d="M218 136c66 0 108 -36 108 -89c0 -89 -113 -183 -218 -183c-66 0 -108 36 -108 89c0 89 113 183 218 183z" fill="currentColor"/>
</g>
<g transform="translate(33.2207, 11.6906)">
<path transform="scale(0.0040, -0.0040)" d="M229 0c-88 0 -90 66 -144 66c-30 0 -59 -20 -62 -55c-1 -7 -6 -11 -11 -11c-6 0 -12 4 -12 11c0 154 232 170 232 344c0 59 -16 122 -67 122c-25 0 -49 -14 -49 -37c0 -27 35 -41 35 -68c0 -38 -31 -69 -69 -69s-69 31 -69 69c0 76 72 128 152 128c95 0 183 -57 183 -145
c0 -151 -150 -159 -246 -220c9 2 18 3 27 3c83 0 111 -59 171 -59c48 0 38 38 55 38c6 0 12 -5 12 -12c0 -22 -44 -105 -138 -105z" fill="currentColor"/>
</g>
<g transform="translate(33.2207, 13.6906)">
<path transform="scale(0.0040, -0.0040)" d="M261 287c25 30 44 64 44 103c0 54 -55 87 -114 87c-46 0 -73 -36 -73 -71c0 -21 10 -42 31 -54zM292 269c23 -13 80 -54 80 -125c0 -73 -66 -144 -189 -144c-94 0 -183 54 -183 140c0 50 36 87 72 123c-37 28 -55 66 -55 103c0 68 60 134 174 134c80 0 157 -39 157 -110
c0 -46 -25 -86 -56 -121zM103 244c-31 -30 -59 -61 -59 -104c0 -69 66 -117 139 -117c54 0 86 42 86 83c0 24 -10 48 -35 62z" fill="currentColor"/>
</g>
<g transform="translate(37.2388, 11.6906)">
<path stroke-width="0.1000" stroke-linejoin="round" stroke-linecap="round" stroke="currentColor" fill="currentColor" d="M-1.3000 0.5000C-0.9986 0.8824 -0.5014 0.8824 -0.2000 0.5000L-0.2000 0.5000C-0.5014 0.7824 -0.9986 0.7824 -1.3000 0.5000z"/>
</g>
<g transform="translate(38.4780, 11.6906)">
<rect x="-0.0650" y="-3.0000" width="0.1300" height="2.8139" ry="0.0400" fill="currentColor"/>
</g>
<g transform="translate(85.5101, 8.6906)">
<polygon stroke-linejoin="round" stroke-linecap="round" stroke-width="0.0800" fill="currentColor" stroke="currentColor" points="7.2118 -0.2000 7.2118 0.2000 0.0400 0.2000 0.0400 -0.2000"/>
</g>
<g transform="translate(40.7997, 11.6906)">
<path transform="scale(0.0040, -0.0040)" d="M218 136c66 0 108 -36 108 -89c0 -89 -113 -183 -218 -183c-66 0 -108 36 -108 89c0 89 113 183 218 183z" fill="currentColor"/>
</g>
<g transform="translate(42.0389, 11.6906)">
<rect x="-0.0650" y="-3.0000" width="0.1300" height="2.8139" ry="0.0400" fill="currentColor"/>
</g>
<g transform="translate(72.9931, 7.9303)">
<text font-family="serif" font-style="italic" font-size="1.7461" text-anchor="start" fill="currentColor">
<tspan>3</tspan>
</text>
</g>
<g transform="translate(44.3606, 11.6906)">
<path transform="scale(0.0040, -0.0040)" d="M218 136c66 0 108 -36 108 -89c0 -89 -113 -183 -218 -183c-66 0 -108 36 -108 89c0 89 113 183 218 183z" fill="currentColor"/>
</g>
<g transform="translate(45.5999, 11.6906)">
<rect x="-0.0650" y="-3.0000" width="0.1300" height="2.8139" ry="0.0400" fill="currentColor"/>
</g>
<g transform="translate(69.8111, 8.6906)">
<polygon stroke-linejoin="round" stroke-linecap="round" stroke-width="0.0800" fill="currentColor" stroke="currentColor" points="7.2118 -0.2000 7.2118 0.2000 0.0400 0.2000 0.0400 -0.2000"/>
</g>
<g transform="translate(52.9378, 11.6906)">
<path transform="scale(0.0040, -0.0040)" d="M218 136c66 0 108 -36 108 -89c0 -89 -113 -183 -218 -183c-66 0 -108 36 -108 89c0 89 113 183 218 183z" fill="currentColor"/>
</g>
<g transform="translate(57.2941, 7.9303)">
<text font-family="serif" font-style="italic" font-size="1.7461" text-anchor="start" fill="currentColor">
<tspan>3</tspan>
</text>
</g>
<g transform="translate(48.9197, 11.6906)">
<path transform="scale(0.0040, -0.0040)" d="M229 0c-88 0 -90 66 -144 66c-30 0 -59 -20 -62 -55c-1 -7 -6 -11 -11 -11c-6 0 -12 4 -12 11c0 154 232 170 232 344c0 59 -16 122 -67 122c-25 0 -49 -14 -49 -37c0 -27 35 -41 35 -68c0 -38 -31 -69 -69 -69s-69 31 -69 69c0 76 72 128 152 128c95 0 183 -57 183 -145
c0 -151 -150 -159 -246 -220c9 2 18 3 27 3c83 0 111 -59 171 -59c48 0 38 38 55 38c6 0 12 -5 12 -12c0 -22 -44 -105 -138 -105z" fill="currentColor"/>
</g>
<g transform="translate(48.9197, 13.6906)">
<path transform="scale(0.0040, -0.0040)" d="M261 287c25 30 44 64 44 103c0 54 -55 87 -114 87c-46 0 -73 -36 -73 -71c0 -21 10 -42 31 -54zM292 269c23 -13 80 -54 80 -125c0 -73 -66 -144 -189 -144c-94 0 -183 54 -183 140c0 50 36 87 72 123c-37 28 -55 66 -55 103c0 68 60 134 174 134c80 0 157 -39 157 -110
c0 -46 -25 -86 -56 -121zM103 244c-31 -30 -59 -61 -59 -104c0 -69 66 -117 139 -117c54 0 86 42 86 83c0 24 -10 48 -35 62z" fill="currentColor"/>
</g>
<g transform="translate(52.9378, 11.6906)">
<path stroke-width="0.1000" stroke-linejoin="round" stroke-linecap="round" stroke="currentColor" fill="currentColor" d="M-1.3000 0.5000C-0.9986 0.8824 -0.5014 0.8824 -0.2000 0.5000L-0.2000 0.5000C-0.5014 0.7824 -0.9986 0.7824 -1.3000 0.5000z"/>
</g>
<g transform="translate(54.1771, 11.6906)">
<rect x="-0.0650" y="-3.0000" width="0.1300" height="2.8139" ry="0.0400" fill="currentColor"/>
</g>
<g transform="translate(56.4988, 11.6906)">
<path transform="scale(0.0040, -0.0040)" d="M218 136c66 0 108 -36 108 -89c0 -89 -113 -183 -218 -183c-66 0 -108 36 -108 89c0 89 113 183 218 183z" fill="currentColor"/>
</g>
<g transform="translate(57.7380, 11.6906)">
<rect x="-0.0650" y="-3.0000" width="0.1300" height="2.8139" ry="0.0400" fill="currentColor"/>
</g>
<g transform="translate(54.1121, 8.6906)">
<polygon stroke-linejoin="round" stroke-linecap="round" stroke-width="0.0800" fill="currentColor" stroke="currentColor" points="7.2118 -0.2000 7.2118 0.2000 0.0400 0.2000 0.0400 -0.2000"/>
</g>
<g transform="translate(60.0597, 11.6906)">
<path transform="scale(0.0040, -0.0040)" d="M218 136c66 0 108 -36 108 -89c0 -89 -113 -183 -218 -183c-66 0 -108 36 -108 89c0 89 113 183 218 183z" fill="currentColor"/>
</g>
<g transform="translate(61.2989, 11.6906)">
<rect x="-0.0650" y="-3.0000" width="0.1300" height="2.8139" ry="0.0400" fill="currentColor"/>
</g>
<g transform="translate(41.5951, 7.9303)">
<text font-family="serif" font-style="italic" font-size="1.7461" text-anchor="start" fill="currentColor">
<tspan>3</tspan>
</text>
</g>
<g transform="translate(68.6369, 11.6906)">
<path transform="scale(0.0040, -0.0040)" d="M218 136c66 0 108 -36 108 -89c0 -89 -113 -183 -218 -183c-66 0 -108 36 -108 89c0 89 113 183 218 183z" fill="currentColor"/>
</g>
<g transform="translate(64.6187, 11.6906)">
<path transform="scale(0.0040, -0.0040)" d="M229 0c-88 0 -90 66 -144 66c-30 0 -59 -20 -62 -55c-1 -7 -6 -11 -11 -11c-6 0 -12 4 -12 11c0 154 232 170 232 344c0 59 -16 122 -67 122c-25 0 -49 -14 -49 -37c0 -27 35 -41 35 -68c0 -38 -31 -69 -69 -69s-69 31 -69 69c0 76 72 128 152 128c95 0 183 -57 183 -145
c0 -151 -150 -159 -246 -220c9 2 18 3 27 3c83 0 111 -59 171 -59c48 0 38 38 55 38c6 0 12 -5 12 -12c0 -22 -44 -105 -138 -105z" fill="currentColor"/>
</g>
<g transform="translate(64.6187, 13.6906)">
<path transform="scale(0.0040, -0.0040)" d="M261 287c25 30 44 64 44 103c0 54 -55 87 -114 87c-46 0 -73 -36 -73 -71c0 -21 10 -42 31 -54zM292 269c23 -13 80 -54 80 -125c0 -73 -66 -144 -189 -144c-94 0 -183 54 -183 140c0 50 36 87 72 123c-37 28 -55 66 -55 103c0 68 60 134 174 134c80 0 157 -39 157 -110
c0 -46 -25 -86 -56 -121zM103 244c-31 -30 -59 -61 -59 -104c0 -69 66 -117 139 -117c54 0 86 42 86 83c0 24 -10 48 -35 62z" fill="currentColor"/>
</g>
<g transform="translate(68.6369, 11.6906)">
<path stroke-width="0.1000" stroke-linejoin="round" stroke-linecap="round" stroke="currentColor" fill="currentColor" d="M-1.3000 0.5000C-0.9986 0.8824 -0.5014 0.8824 -0.2000 0.5000L-0.2000 0.5000C-0.5014 0.7824 -0.9986 0.7824 -1.3000 0.5000z"/>
</g>
<g transform="translate(69.8761, 11.6906)">
<rect x="-0.0650" y="-3.0000" width="0.1300" height="2.8139" ry="0.0400" fill="currentColor"/>
</g>
<g transform="translate(38.4130, 8.6906)">
<polygon stroke-linejoin="round" stroke-linecap="round" stroke-width="0.0800" fill="currentColor" stroke="currentColor" points="7.2118 -0.2000 7.2118 0.2000 0.0400 0.2000 0.0400 -0.2000"/>
</g>
<g transform="translate(72.1978, 11.6906)">
<path transform="scale(0.0040, -0.0040)" d="M218 136c66 0 108 -36 108 -89c0 -89 -113 -183 -218 -183c-66 0 -108 36 -108 89c0 89 113 183 218 183z" fill="currentColor"/>
</g>
<g transform="translate(73.4370, 11.6906)">
<rect x="-0.0650" y="-3.0000" width="0.1300" height="2.8139" ry="0.0400" fill="currentColor"/>
</g>
<g transform="translate(25.8961, 7.9303)">
<text font-family="serif" font-style="italic" font-size="1.7461" text-anchor="start" fill="currentColor">
<tspan>3</tspan>
</text>
</g>
<g transform="translate(75.7587, 11.6906)">
<path transform="scale(0.0040, -0.0040)" d="M218 136c66 0 108 -36 108 -89c0 -89 -113 -183 -218 -183c-66 0 -108 36 -108 89c0 89 113 183 218 183z" fill="currentColor"/>
</g>
<g transform="translate(76.9979, 11.6906)">
<rect x="-0.0650" y="-3.0000" width="0.1300" height="2.8139" ry="0.0400" fill="currentColor"/>
</g>
<g transform="translate(22.7140, 8.6906)">
<polygon stroke-linejoin="round" stroke-linecap="round" stroke-width="0.0800" fill="currentColor" stroke="currentColor" points="7.2118 -0.2000 7.2118 0.2000 0.0400 0.2000 0.0400 -0.2000"/>
</g>
<g transform="translate(84.3359, 11.6906)">
<path transform="scale(0.0040, -0.0040)" d="M218 136c66 0 108 -36 108 -89c0 -89 -113 -183 -218 -183c-66 0 -108 36 -108 89c0 89 113 183 218 183z" fill="currentColor"/>
</g>
<g transform="translate(80.3177, 11.6906)">
<path transform="scale(0.0040, -0.0040)" d="M229 0c-88 0 -90 66 -144 66c-30 0 -59 -20 -62 -55c-1 -7 -6 -11 -11 -11c-6 0 -12 4 -12 11c0 154 232 170 232 344c0 59 -16 122 -67 122c-25 0 -49 -14 -49 -37c0 -27 35 -41 35 -68c0 -38 -31 -69 -69 -69s-69 31 -69 69c0 76 72 128 152 128c95 0 183 -57 183 -145
c0 -151 -150 -159 -246 -220c9 2 18 3 27 3c83 0 111 -59 171 -59c48 0 38 38 55 38c6 0 12 -5 12 -12c0 -22 -44 -105 -138 -105z" fill="currentColor"/>
</g>
<g transform="translate(80.3177, 13.6906)">
<path transform="scale(0.0040, -0.0040)" d="M261 287c25 30 44 64 44 103c0 54 -55 87 -114 87c-46 0 -73 -36 -73 -71c0 -21 10 -42 31 -54zM292 269c23 -13 80 -54 80 -125c0 -73 -66 -144 -189 -144c-94 0 -183 54 -183 140c0 50 36 87 72 123c-37 28 -55 66 -55 103c0 68 60 134 174 134c80 0 157 -39 157 -110
c0 -46 -25 -86 -56 -121zM103 244c-31 -30 -59 -61 -59 -104c0 -69 66 -117 139 -117c54 0 86 42 86 83c0 24 -10 48 -35 62z" fill="currentColor"/>
</g>
<g transform="translate(84.3359, 11.6906)">
<path stroke-width="0.1000" stroke-linejoin="round" stroke-linecap="round" stroke="currentColor" fill="currentColor" d="M-1.3000 0.5000C-0.9986 0.8824 -0.5014 0.8824 -0.2000 0.5000L-0.2000 0.5000C-0.5014 0.7824 -0.9986 0.7824 -1.3000 0.5000z"/>
</g>
<g transform="translate(85.5751, 11.6906)">
<rect x="-0.0650" y="-3.0000" width="0.1300" height="2.8139" ry="0.0400" fill="currentColor"/>
</g>
<g transform="translate(87.8968, 11.6906)">
<path transform="scale(0.0040, -0.0040)" d="M218 136c66 0 108 -36 108 -89c0 -89 -113 -183 -218 -183c-66 0 -108 36 -108 89c0 89 113 183 218 183z" fill="currentColor"/>
</g>
<g transform="translate(89.1360, 11.6906)">
<rect x="-0.0650" y="-3.0000" width="0.1300" height="2.8139" ry="0.0400" fill="currentColor"/>
</g>
<g transform="translate(91.4577, 11.6906)">
<path transform="scale(0.0040, -0.0040)" d="M218 136c66 0 108 -36 108 -89c0 -89 -113 -183 -218 -183c-66 0 -108 36 -108 89c0 89 113 183 218 183z" fill="currentColor"/>
</g>
<g transform="translate(92.6969, 11.6906)">
<rect x="-0.0650" y="-3.0000" width="0.1300" height="2.8139" ry="0.0400" fill="currentColor"/>
</g>
<g transform="translate(100.0349, 11.6906)">
<path transform="scale(0.0040, -0.0040)" d="M218 136c66 0 108 -36 108 -89c0 -89 -113 -183 -218 -183c-66 0 -108 36 -108 89c0 89 113 183 218 183z" fill="currentColor"/>
</g>
<g transform="translate(96.0167, 11.6906)">
<path transform="scale(0.0040, -0.0040)" d="M229 0c-88 0 -90 66 -144 66c-30 0 -59 -20 -62 -55c-1 -7 -6 -11 -11 -11c-6 0 -12 4 -12 11c0 154 232 170 232 344c0 59 -16 122 -67 122c-25 0 -49 -14 -49 -37c0 -27 35 -41 35 -68c0 -38 -31 -69 -69 -69s-69 31 -69 69c0 76 72 128 152 128c95 0 183 -57 183 -145
c0 -151 -150 -159 -246 -220c9 2 18 3 27 3c83 0 111 -59 171 -59c48 0 38 38 55 38c6 0 12 -5 12 -12c0 -22 -44 -105 -138 -105z" fill="currentColor"/>
</g>
<g transform="translate(96.0167, 13.6906)">
<path transform="scale(0.0040, -0.0040)" d="M261 287c25 30 44 64 44 103c0 54 -55 87 -114 87c-46 0 -73 -36 -73 -71c0 -21 10 -42 31 -54zM292 269c23 -13 80 -54 80 -125c0 -73 -66 -144 -189 -144c-94 0 -183 54 -183 140c0 50 36 87 72 123c-37 28 -55 66 -55 103c0 68 60 134 174 134c80 0 157 -39 157 -110
c0 -46 -25 -86 -56 -121zM103 244c-31 -30 -59 -61 -59 -104c0 -69 66 -117 139 -117c54 0 86 42 86 83c0 24 -10 48 -35 62z" fill="currentColor"/>
</g>
<g transform="translate(100.0349, 11.6906)">
<path stroke-width="0.1000" stroke-linejoin="round" stroke-linecap="round" stroke="currentColor" fill="currentColor" d="M-1.3000 0.5000C-0.9986 0.8824 -0.5014 0.8824 -0.2000 0.5000L-0.2000 0.5000C-0.5014 0.7824 -0.9986 0.7824 -1.3000 0.5000z"/>
</g>
<g transform="translate(101.2741, 11.6906)">
<rect x="-0.0650" y="-3.0000" width="0.1300" height="2.8139" ry="0.0400" fill="currentColor"/>
</g>
<g transform="translate(103.5958, 11.6906)">
<path transform="scale(0.0040, -0.0040)" d="M218 136c66 0 108 -36 108 -89c0 -89 -113 -183 -218 -183c-66 0 -108 36 -108 89c0 89 113 183 218 183z" fill="currentColor"/>
</g>
<g transform="translate(104.8350, 11.6906)">
<rect x="-0.0650" y="-3.0000" width="0.1300" height="2.8139" ry="0.0400" fill="currentColor"/>
</g>
<g transform="translate(107.1567, 11.6906)">
<path transform="scale(0.0040, -0.0040)" d="M218 136c66 0 108 -36 108 -89c0 -89 -113 -183 -218 -183c-66 0 -108 36 -108 89c0 89 113 183 218 183z" fill="currentColor"/>
</g>
<g transform="translate(108.3959, 11.6906)">
<rect x="-0.0650" y="-3.0000" width="0.1300" height="2.8139" ry="0.0400" fill="currentColor"/>
</g>
<g transform="translate(34.5530, 162.8440)">
<a xlink:href="https://lilypond.org/">
<rect x="0.0000" y="-0.4748" width="50.3955" height="2.0024" fill="none" stroke="none" stroke-width="0.0"/>
</a>
</g>
<g transform="translate(34.5530, 162.8440)">
<text font-family="serif" font-size="2.2001" text-anchor="start" fill="currentColor">
<tspan>Music engraving by LilyPond 2.25.1—www.lilypond.org</tspan>
</text>
</g>
</svg>
