<svg xmlns="http://www.w3.org/2000/svg" xmlns:xlink="http://www.w3.org/1999/xlink" version="1.2" width="210.00mm" height="297.00mm" viewBox="0 0 132.7795 187.7882">
<style text="style/css">
<![CDATA[
tspan { white-space: pre; }
]]>
</style>
<!-- Page: 1/1 -->
<g color="rgb(49.8039%, 49.8039%, 49.8039%)">
<line transform="translate(12.6457, 18.1614)" stroke-linejoin="round" stroke-linecap="round" stroke-width="0.1073" stroke="currentColor" x1="0.0537" y1="-0.0000" x2="65.2463" y2="-0.0000"/>
</g>
<rect transform="translate(26.6418, 18.1614)" x="0.0000" y="-1.0537" width="0.2039" height="2.1073" ry="0.0000" fill="currentColor"/>
<rect transform="translate(59.0418, 18.1614)" x="0.0000" y="-1.0537" width="0.2039" height="2.1073" ry="0.0000" fill="currentColor"/>
<rect transform="translate(77.7418, 18.1614)" x="0.0000" y="-1.0537" width="0.2039" height="2.1073" ry="0.0000" fill="currentColor"/>
<rect transform="translate(41.0418, 18.1614)" x="0.0000" y="-1.0537" width="0.2039" height="2.1073" ry="0.0000" fill="currentColor"/>
<path transform="translate(74.3457, 18.1614) scale(0.0040, -0.0040)" d="M64 -500l100 326c-33 -12 -67 -22 -103 -22c-46 0 -87 33 -87 79c0 40 33 72 73 72c25 0 48 -14 56 -38c10 -27 5 -59 34 -59c16 0 53 51 58 67l46 151c-33 -12 -67 -22 -102 -22c-46 0 -87 33 -87 79c0 40 33 72 73 72c25 0 48 -14 56 -38c10 -27 5 -59 34 -59
c14 0 48 45 54 59c6 13 26 13 31 0l-177 -667c-9 -7 -19 -11 -30 -11s-20 4 -29 11z" fill="currentColor"/>
<path transform="translate(56.3457, 18.1614) scale(0.0040, -0.0040)" d="M64 -500l100 326c-33 -12 -67 -22 -103 -22c-46 0 -87 33 -87 79c0 40 33 72 73 72c25 0 48 -14 56 -38c10 -27 5 -59 34 -59c16 0 53 51 58 67l46 151c-33 -12 -67 -22 -102 -22c-46 0 -87 33 -87 79c0 40 33 72 73 72c25 0 48 -14 56 -38c10 -27 5 -59 34 -59
c14 0 48 45 54 59c6 13 26 13 31 0l-177 -667c-9 -7 -19 -11 -30 -11s-20 4 -29 11z" fill="currentColor"/>
<path transform="translate(59.9457, 18.1614) scale(0.0040, -0.0040)" d="M-24 -117c0 29 13 42 43 42c31 0 74 -11 113 -27l-129 154c-7 9 -11 18 -11 26c0 34 51 66 88 100c24 22 37 52 37 82c0 25 -9 49 -26 69l-33 40c-3 4 -4 7 -4 11c0 9 9 17 18 17c4 0 8 -2 12 -6l150 -179c7 -9 11 -18 11 -26c0 -34 -51 -65 -88 -99
c-24 -22 -37 -53 -37 -83c0 -25 8 -49 25 -69l82 -97c3 -4 4 -7 4 -11c0 -9 -8 -17 -17 -17c-4 0 -9 2 -13 6c-17 20 -60 36 -93 36c-41 0 -54 -25 -54 -66c0 -34 10 -73 27 -93c7 -9 -5 -20 -12 -11c-45 53 -93 147 -93 201z" fill="currentColor"/>
<path transform="translate(59.7626, 4.1614) scale(0.0045, -0.0045)" d="M46 500c46 -8 91 -13 137 -13s92 5 138 13c15 2 23 -10 17 -16c-68 -68 -166 -93 -263 -93c-9 0 -17 -8 -17 -17v-96c28 28 66 43 105 43c116 0 186 -51 186 -161c0 -94 -87 -160 -186 -160c-82 0 -163 39 -163 113c0 36 30 66 66 66s65 -30 65 -66
c0 -25 -40 -28 -40 -53c0 -30 37 -37 72 -37c57 0 70 71 70 137c0 63 -15 132 -70 132c-42 0 -83 -12 -107 -45c-3 -4 -8 -6 -12 -6c-8 0 -15 6 -15 15v228c0 10 8 18 17 16z" fill="currentColor"/>
<g transform="translate(59.0418, 6.5135)" >
<path transform="scale(0.0045, -0.0045)" d="M175 487c18 0 58 31 58 -3v-367c0 -48 28 -94 73 -94c8 0 12 -5 12 -11s-4 -12 -12 -12c-44 0 -87 13 -131 13s-87 -13 -131 -13c-8 0 -12 6 -12 12s4 11 12 11c45 0 73 46 73 94v245c0 12 -9 19 -17 19c-4 0 -8 -3 -10 -7l-64 -136c-3 -6 -7 -9 -12 -9
c-8 0 -16 6 -16 14c0 2 1 5 2 7l117 250c3 6 10 3 16 0c13 -6 27 -13 42 -13z" fill="currentColor"/>

<path transform="translate(1.4416, 0.0000) scale(0.0045, -0.0045)" d="M170 256c-51 0 -53 -44 -53 -102v-14v-15c0 -58 2 -102 53 -102c57 0 61 51 61 117s-4 116 -61 116zM117 266c17 7 34 13 53 13c101 0 170 -44 170 -139s-69 -140 -170 -140c-112 0 -170 124 -170 250c0 128 72 250 190 250c71 0 138 -39 138 -103c0 -36 -29 -66 -65 -66
s-66 30 -66 66c0 24 39 25 39 49c0 20 -23 31 -46 31c-66 0 -75 -65 -75 -139c0 -24 2 -48 2 -72z" fill="currentColor"/>
</g>
<line transform="translate(13.7457, 15.3414)" stroke-linejoin="round" stroke-linecap="round" stroke-width="0.1717" stroke="currentColor" x1="12.0961" y1="-0.0000" x2="12.0961" y2="0.7000"/>
<line transform="translate(13.7457, 15.3414)" stroke-linejoin="round" stroke-linecap="round" stroke-width="0.1717" stroke="currentColor" x1="-0.2000" y1="-0.0000" x2="-0.2000" y2="0.7000"/>
<line transform="translate(13.7457, 15.3414)" stroke-linejoin="round" stroke-linecap="round" stroke-width="0.1717" stroke="currentColor" x1="12.0961" y1="-0.0000" x2="7.7051" y2="-0.0000"/>
<line transform="translate(13.7457, 15.3414)" stroke-linejoin="round" stroke-linecap="round" stroke-width="0.1717" stroke="currentColor" x1="-0.2000" y1="-0.0000" x2="4.3910" y2="-0.0000"/>
<text transform="translate(18.5367, 15.8915)" font-family="serif" font-style="italic" font-size="1.7462" text-anchor="start" fill="currentColor">
<tspan>5:4</tspan>
</text>
<line transform="translate(28.1457, 15.3414)" stroke-linejoin="round" stroke-linecap="round" stroke-width="0.1717" stroke="currentColor" x1="12.0961" y1="-0.0000" x2="12.0961" y2="0.7000"/>
<line transform="translate(28.1457, 15.3414)" stroke-linejoin="round" stroke-linecap="round" stroke-width="0.1717" stroke="currentColor" x1="-0.2000" y1="-0.0000" x2="-0.2000" y2="0.7000"/>
<line transform="translate(28.1457, 15.3414)" stroke-linejoin="round" stroke-linecap="round" stroke-width="0.1717" stroke="currentColor" x1="12.0961" y1="-0.0000" x2="7.7051" y2="-0.0000"/>
<line transform="translate(28.1457, 15.3414)" stroke-linejoin="round" stroke-linecap="round" stroke-width="0.1717" stroke="currentColor" x1="-0.2000" y1="-0.0000" x2="4.3910" y2="-0.0000"/>
<text transform="translate(32.9367, 15.8915)" font-family="serif" font-style="italic" font-size="1.7462" text-anchor="start" fill="currentColor">
<tspan>5:4</tspan>
</text>
<path transform="translate(27.5457, 18.1614) scale(0.0040, -0.0040)" d="M64 -500l100 326c-33 -12 -67 -22 -103 -22c-46 0 -87 33 -87 79c0 40 33 72 73 72c25 0 48 -14 56 -38c10 -27 5 -59 34 -59c16 0 53 51 58 67l46 151c-33 -12 -67 -22 -102 -22c-46 0 -87 33 -87 79c0 40 33 72 73 72c25 0 48 -14 56 -38c10 -27 5 -59 34 -59
c14 0 48 45 54 59c6 13 26 13 31 0l-177 -667c-9 -7 -19 -11 -30 -11s-20 4 -29 11z" fill="currentColor"/>
<path transform="translate(27.2298, 4.1614) scale(0.0045, -0.0045)" d="M196 117h117c0 -48 27 -94 72 -94c8 0 12 -5 12 -11s-4 -12 -12 -12c-44 0 -87 13 -131 13s-87 -13 -131 -13c-8 0 -12 6 -12 12s4 11 12 11c45 0 73 46 73 94zM204 307c22 14 44 29 60 50c11 15 19 33 27 50c2 4 5 6 9 6c6 0 13 -5 13 -14v-245h72c10 0 15 -7 15 -14
s-5 -15 -15 -15h-72v-8h-117v8h-167c-23 0 -31 14 -31 23c0 3 1 5 2 6c80 93 138 207 138 330c0 10 7 19 16 16c23 -7 47 -13 71 -13s48 6 71 13c14 4 23 -9 17 -16l-284 -330h167v131c0 8 1 17 8 22z" fill="currentColor"/>
<g transform="translate(26.6418, 6.5135)" >
<path transform="scale(0.0045, -0.0045)" d="M175 487c18 0 58 31 58 -3v-367c0 -48 28 -94 73 -94c8 0 12 -5 12 -11s-4 -12 -12 -12c-44 0 -87 13 -131 13s-87 -13 -131 -13c-8 0 -12 6 -12 12s4 11 12 11c45 0 73 46 73 94v245c0 12 -9 19 -17 19c-4 0 -8 -3 -10 -7l-64 -136c-3 -6 -7 -9 -12 -9
c-8 0 -16 6 -16 14c0 2 1 5 2 7l117 250c3 6 10 3 16 0c13 -6 27 -13 42 -13z" fill="currentColor"/>

<path transform="translate(1.4416, 0.0000) scale(0.0045, -0.0045)" d="M170 256c-51 0 -53 -44 -53 -102v-14v-15c0 -58 2 -102 53 -102c57 0 61 51 61 117s-4 116 -61 116zM117 266c17 7 34 13 53 13c101 0 170 -44 170 -139s-69 -140 -170 -140c-112 0 -170 124 -170 250c0 128 72 250 190 250c71 0 138 -39 138 -103c0 -36 -29 -66 -65 -66
s-66 30 -66 66c0 24 39 25 39 49c0 20 -23 31 -46 31c-66 0 -75 -65 -75 -139c0 -24 2 -48 2 -72z" fill="currentColor"/>
</g>
<path transform="translate(24.6657, 18.1614) scale(0.0040, -0.0040)" d="M64 -500l100 326c-33 -12 -67 -22 -103 -22c-46 0 -87 33 -87 79c0 40 33 72 73 72c25 0 48 -14 56 -38c10 -27 5 -59 34 -59c16 0 53 51 58 67l46 151c-33 -12 -67 -22 -102 -22c-46 0 -87 33 -87 79c0 40 33 72 73 72c25 0 48 -14 56 -38c10 -27 5 -59 34 -59
c14 0 48 45 54 59c6 13 26 13 31 0l-177 -667c-9 -7 -19 -11 -30 -11s-20 4 -29 11z" fill="currentColor"/>
<path transform="translate(21.7857, 18.1614) scale(0.0040, -0.0040)" d="M64 -500l100 326c-33 -12 -67 -22 -103 -22c-46 0 -87 33 -87 79c0 40 33 72 73 72c25 0 48 -14 56 -38c10 -27 5 -59 34 -59c16 0 53 51 58 67l46 151c-33 -12 -67 -22 -102 -22c-46 0 -87 33 -87 79c0 40 33 72 73 72c25 0 48 -14 56 -38c10 -27 5 -59 34 -59
c14 0 48 45 54 59c6 13 26 13 31 0l-177 -667c-9 -7 -19 -11 -30 -11s-20 4 -29 11z" fill="currentColor"/>
<path transform="translate(18.9057, 18.1614) scale(0.0040, -0.0040)" d="M64 -500l100 326c-33 -12 -67 -22 -103 -22c-46 0 -87 33 -87 79c0 40 33 72 73 72c25 0 48 -14 56 -38c10 -27 5 -59 34 -59c16 0 53 51 58 67l46 151c-33 -12 -67 -22 -102 -22c-46 0 -87 33 -87 79c0 40 33 72 73 72c25 0 48 -14 56 -38c10 -27 5 -59 34 -59
c14 0 48 45 54 59c6 13 26 13 31 0l-177 -667c-9 -7 -19 -11 -30 -11s-20 4 -29 11z" fill="currentColor"/>
<path transform="translate(16.0257, 18.1614) scale(0.0040, -0.0040)" d="M64 -500l100 326c-33 -12 -67 -22 -103 -22c-46 0 -87 33 -87 79c0 40 33 72 73 72c25 0 48 -14 56 -38c10 -27 5 -59 34 -59c16 0 53 51 58 67l46 151c-33 -12 -67 -22 -102 -22c-46 0 -87 33 -87 79c0 40 33 72 73 72c25 0 48 -14 56 -38c10 -27 5 -59 34 -59
c14 0 48 45 54 59c6 13 26 13 31 0l-177 -667c-9 -7 -19 -11 -30 -11s-20 4 -29 11z" fill="currentColor"/>
<path transform="translate(33.3057, 18.1614) scale(0.0040, -0.0040)" d="M64 -500l100 326c-33 -12 -67 -22 -103 -22c-46 0 -87 33 -87 79c0 40 33 72 73 72c25 0 48 -14 56 -38c10 -27 5 -59 34 -59c16 0 53 51 58 67l46 151c-33 -12 -67 -22 -102 -22c-46 0 -87 33 -87 79c0 40 33 72 73 72c25 0 48 -14 56 -38c10 -27 5 -59 34 -59
c14 0 48 45 54 59c6 13 26 13 31 0l-177 -667c-9 -7 -19 -11 -30 -11s-20 4 -29 11z" fill="currentColor"/>
<path transform="translate(13.1457, 18.1614) scale(0.0040, -0.0040)" d="M64 -500l100 326c-33 -12 -67 -22 -103 -22c-46 0 -87 33 -87 79c0 40 33 72 73 72c25 0 48 -14 56 -38c10 -27 5 -59 34 -59c16 0 53 51 58 67l46 151c-33 -12 -67 -22 -102 -22c-46 0 -87 33 -87 79c0 40 33 72 73 72c25 0 48 -14 56 -38c10 -27 5 -59 34 -59
c14 0 48 45 54 59c6 13 26 13 31 0l-177 -667c-9 -7 -19 -11 -30 -11s-20 4 -29 11z" fill="currentColor"/>
<path transform="translate(13.2337, 4.1614) scale(0.0045, -0.0045)" d="M196 117h117c0 -48 27 -94 72 -94c8 0 12 -5 12 -11s-4 -12 -12 -12c-44 0 -87 13 -131 13s-87 -13 -131 -13c-8 0 -12 6 -12 12s4 11 12 11c45 0 73 46 73 94zM204 307c22 14 44 29 60 50c11 15 19 33 27 50c2 4 5 6 9 6c6 0 13 -5 13 -14v-245h72c10 0 15 -7 15 -14
s-5 -15 -15 -15h-72v-8h-117v8h-167c-23 0 -31 14 -31 23c0 3 1 5 2 6c80 93 138 207 138 330c0 10 7 19 16 16c23 -7 47 -13 71 -13s48 6 71 13c14 4 23 -9 17 -16l-284 -330h167v131c0 8 1 17 8 22z" fill="currentColor"/>
<g transform="translate(12.6457, 6.5135)" >
<path transform="scale(0.0045, -0.0045)" d="M175 487c18 0 58 31 58 -3v-367c0 -48 28 -94 73 -94c8 0 12 -5 12 -11s-4 -12 -12 -12c-44 0 -87 13 -131 13s-87 -13 -131 -13c-8 0 -12 6 -12 12s4 11 12 11c45 0 73 46 73 94v245c0 12 -9 19 -17 19c-4 0 -8 -3 -10 -7l-64 -136c-3 -6 -7 -9 -12 -9
c-8 0 -16 6 -16 14c0 2 1 5 2 7l117 250c3 6 10 3 16 0c13 -6 27 -13 42 -13z" fill="currentColor"/>

<path transform="translate(1.4416, 0.0000) scale(0.0045, -0.0045)" d="M170 256c-51 0 -53 -44 -53 -102v-14v-15c0 -58 2 -102 53 -102c57 0 61 51 61 117s-4 116 -61 116zM117 266c17 7 34 13 53 13c101 0 170 -44 170 -139s-69 -140 -170 -140c-112 0 -170 124 -170 250c0 128 72 250 190 250c71 0 138 -39 138 -103c0 -36 -29 -66 -65 -66
s-66 30 -66 66c0 24 39 25 39 49c0 20 -23 31 -46 31c-66 0 -75 -65 -75 -139c0 -24 2 -48 2 -72z" fill="currentColor"/>
</g>
<path transform="translate(30.4257, 18.1614) scale(0.0040, -0.0040)" d="M64 -500l100 326c-33 -12 -67 -22 -103 -22c-46 0 -87 33 -87 79c0 40 33 72 73 72c25 0 48 -14 56 -38c10 -27 5 -59 34 -59c16 0 53 51 58 67l46 151c-33 -12 -67 -22 -102 -22c-46 0 -87 33 -87 79c0 40 33 72 73 72c25 0 48 -14 56 -38c10 -27 5 -59 34 -59
c14 0 48 45 54 59c6 13 26 13 31 0l-177 -667c-9 -7 -19 -11 -30 -11s-20 4 -29 11z" fill="currentColor"/>
<path transform="translate(41.9457, 18.1614) scale(0.0040, -0.0040)" d="M-24 -117c0 29 13 42 43 42c31 0 74 -11 113 -27l-129 154c-7 9 -11 18 -11 26c0 34 51 66 88 100c24 22 37 52 37 82c0 25 -9 49 -26 69l-33 40c-3 4 -4 7 -4 11c0 9 9 17 18 17c4 0 8 -2 12 -6l150 -179c7 -9 11 -18 11 -26c0 -34 -51 -65 -88 -99
c-24 -22 -37 -53 -37 -83c0 -25 8 -49 25 -69l82 -97c3 -4 4 -7 4 -11c0 -9 -8 -17 -17 -17c-4 0 -9 2 -13 6c-17 20 -60 36 -93 36c-41 0 -54 -25 -54 -66c0 -34 10 -73 27 -93c7 -9 -5 -20 -12 -11c-45 53 -93 147 -93 201z" fill="currentColor"/>
<path transform="translate(41.7626, 4.1614) scale(0.0045, -0.0045)" d="M46 500c46 -8 91 -13 137 -13s92 5 138 13c15 2 23 -10 17 -16c-68 -68 -166 -93 -263 -93c-9 0 -17 -8 -17 -17v-96c28 28 66 43 105 43c116 0 186 -51 186 -161c0 -94 -87 -160 -186 -160c-82 0 -163 39 -163 113c0 36 30 66 66 66s65 -30 65 -66
c0 -25 -40 -28 -40 -53c0 -30 37 -37 72 -37c57 0 70 71 70 137c0 63 -15 132 -70 132c-42 0 -83 -12 -107 -45c-3 -4 -8 -6 -12 -6c-8 0 -15 6 -15 15v228c0 10 8 18 17 16z" fill="currentColor"/>
<g transform="translate(41.0418, 6.5135)" >
<path transform="scale(0.0045, -0.0045)" d="M175 487c18 0 58 31 58 -3v-367c0 -48 28 -94 73 -94c8 0 12 -5 12 -11s-4 -12 -12 -12c-44 0 -87 13 -131 13s-87 -13 -131 -13c-8 0 -12 6 -12 12s4 11 12 11c45 0 73 46 73 94v245c0 12 -9 19 -17 19c-4 0 -8 -3 -10 -7l-64 -136c-3 -6 -7 -9 -12 -9
c-8 0 -16 6 -16 14c0 2 1 5 2 7l117 250c3 6 10 3 16 0c13 -6 27 -13 42 -13z" fill="currentColor"/>

<path transform="translate(1.4416, 0.0000) scale(0.0045, -0.0045)" d="M170 256c-51 0 -53 -44 -53 -102v-14v-15c0 -58 2 -102 53 -102c57 0 61 51 61 117s-4 116 -61 116zM117 266c17 7 34 13 53 13c101 0 170 -44 170 -139s-69 -140 -170 -140c-112 0 -170 124 -170 250c0 128 72 250 190 250c71 0 138 -39 138 -103c0 -36 -29 -66 -65 -66
s-66 30 -66 66c0 24 39 25 39 49c0 20 -23 31 -46 31c-66 0 -75 -65 -75 -139c0 -24 2 -48 2 -72z" fill="currentColor"/>
</g>
<path transform="translate(39.0657, 18.1614) scale(0.0040, -0.0040)" d="M64 -500l100 326c-33 -12 -67 -22 -103 -22c-46 0 -87 33 -87 79c0 40 33 72 73 72c25 0 48 -14 56 -38c10 -27 5 -59 34 -59c16 0 53 51 58 67l46 151c-33 -12 -67 -22 -102 -22c-46 0 -87 33 -87 79c0 40 33 72 73 72c25 0 48 -14 56 -38c10 -27 5 -59 34 -59
c14 0 48 45 54 59c6 13 26 13 31 0l-177 -667c-9 -7 -19 -11 -30 -11s-20 4 -29 11z" fill="currentColor"/>
<path transform="translate(36.1857, 18.1614) scale(0.0040, -0.0040)" d="M64 -500l100 326c-33 -12 -67 -22 -103 -22c-46 0 -87 33 -87 79c0 40 33 72 73 72c25 0 48 -14 56 -38c10 -27 5 -59 34 -59c16 0 53 51 58 67l46 151c-33 -12 -67 -22 -102 -22c-46 0 -87 33 -87 79c0 40 33 72 73 72c25 0 48 -14 56 -38c10 -27 5 -59 34 -59
c14 0 48 45 54 59c6 13 26 13 31 0l-177 -667c-9 -7 -19 -11 -30 -11s-20 4 -29 11z" fill="currentColor"/>
</svg>
