<svg xmlns="http://www.w3.org/2000/svg" xmlns:xlink="http://www.w3.org/1999/xlink" version="1.2" width="210.00mm" height="297.00mm" viewBox="0 0 132.7795 187.7882">
<style text="style/css">
<![CDATA[
tspan { white-space: pre; }
]]>
</style>
<!-- Page: 1/1 -->
<g color="rgb(49.8039%, 49.8039%, 49.8039%)">
<line transform="translate(16.0600, 11.0094)" stroke-linejoin="round" stroke-linecap="round" stroke-width="0.1073" stroke="currentColor" x1="0.0537" y1="-0.0000" x2="77.5585" y2="-0.0000"/>
<line transform="translate(16.0600, 10.0094)" stroke-linejoin="round" stroke-linecap="round" stroke-width="0.1073" stroke="currentColor" x1="0.0537" y1="-0.0000" x2="77.5585" y2="-0.0000"/>
<line transform="translate(16.0600, 9.0094)" stroke-linejoin="round" stroke-linecap="round" stroke-width="0.1073" stroke="currentColor" x1="0.0537" y1="-0.0000" x2="77.5585" y2="-0.0000"/>
<line transform="translate(16.0600, 8.0094)" stroke-linejoin="round" stroke-linecap="round" stroke-width="0.1073" stroke="currentColor" x1="0.0537" y1="-0.0000" x2="77.5585" y2="-0.0000"/>
<line transform="translate(16.0600, 7.0094)" stroke-linejoin="round" stroke-linecap="round" stroke-width="0.1073" stroke="currentColor" x1="0.0537" y1="-0.0000" x2="77.5585" y2="-0.0000"/>
</g>
<rect transform="translate(16.0600, 6.0094)" x="62.2371" y="-0.1037" width="1.8035" height="0.2073" ry="0.1037" fill="currentColor"/>
<rect transform="translate(16.0600, 12.0094)" x="16.3677" y="-0.1037" width="1.9542" height="0.2073" ry="0.1037" fill="currentColor"/>
<rect transform="translate(16.0600, 12.0094)" x="13.6677" y="-0.1037" width="1.9542" height="0.2073" ry="0.1037" fill="currentColor"/>
<rect transform="translate(73.4358, 9.0094)" x="0.0000" y="-2.0537" width="0.2039" height="4.1073" ry="0.0000" fill="currentColor"/>
<path transform="translate(34.5858, 9.0094) scale(0.0040, -0.0040)" d="M29 39l-2 -64v-11c0 -22 2 -43 5 -65c44 38 91 80 91 138c0 33 -13 66 -42 66c-31 0 -51 -31 -52 -64zM-16 -139l-12 593c9 5 18 8 28 8s19 -3 28 -8l-7 -343c25 23 58 36 92 36c51 0 87 -49 87 -103c0 -79 -84 -117 -144 -169c-16 -14 -25 -41 -47 -41
c-14 0 -25 13 -25 27z" fill="currentColor"/>
<path transform="translate(32.7534, 12.0094) scale(0.0040, -0.0040)" d="M215 137c57 0 111 -29 111 -92c0 -71 -54 -120 -101 -148c-35 -21 -74 -34 -114 -34c-57 0 -111 29 -111 92c0 71 54 120 101 148c35 21 74 34 114 34z" fill="currentColor"/>
<rect transform="translate(33.9864, 9.0094)" x="-0.0697" y="-0.3213" width="0.1395" height="3.1420" ry="0.0444" fill="currentColor"/>
<path transform="translate(35.7358, 9.0094) scale(0.0040, -0.0040)" d="M215 137c57 0 111 -29 111 -92c0 -71 -54 -120 -101 -148c-35 -21 -74 -34 -114 -34c-57 0 -111 29 -111 92c0 71 54 120 101 148c35 21 74 34 114 34z" fill="currentColor"/>
<rect transform="translate(35.8056, 9.0094)" x="-0.0697" y="0.1794" width="0.1395" height="3.1540" ry="0.0444" fill="currentColor"/>
<path transform="translate(77.3221, 6.0094) scale(0.0040, -0.0040)" d="M29 39l-2 -64v-11c0 -22 2 -43 5 -65c44 38 91 80 91 138c0 33 -13 66 -42 66c-31 0 -51 -31 -52 -64zM-16 -139l-12 593c9 5 18 8 28 8s19 -3 28 -8l-7 -343c25 23 58 36 92 36c51 0 87 -49 87 -103c0 -79 -84 -117 -144 -169c-16 -14 -25 -41 -47 -41
c-14 0 -25 13 -25 27z" fill="currentColor"/>
<rect transform="translate(31.2864, 9.0094)" x="-0.0697" y="-0.3213" width="0.1395" height="3.1420" ry="0.0444" fill="currentColor"/>
<path transform="translate(30.0534, 12.0094) scale(0.0040, -0.0040)" d="M215 137c57 0 111 -29 111 -92c0 -71 -54 -120 -101 -148c-35 -21 -74 -34 -114 -34c-57 0 -111 29 -111 92c0 71 54 120 101 148c35 21 74 34 114 34z" fill="currentColor"/>
<path transform="translate(84.0721, 9.0094) scale(0.0040, -0.0040)" d="M-24 -117c0 29 13 42 43 42c31 0 74 -11 113 -27l-129 154c-7 9 -11 18 -11 26c0 34 51 66 88 100c24 22 37 52 37 82c0 25 -9 49 -26 69l-33 40c-3 4 -4 7 -4 11c0 9 9 17 18 17c4 0 8 -2 12 -6l150 -179c7 -9 11 -18 11 -26c0 -34 -51 -65 -88 -99
c-24 -22 -37 -53 -37 -83c0 -25 8 -49 25 -69l82 -97c3 -4 4 -7 4 -11c0 -9 -8 -17 -17 -17c-4 0 -9 2 -13 6c-17 20 -60 36 -93 36c-41 0 -54 -25 -54 -66c0 -34 10 -73 27 -93c5 -6 0 -14 -6 -14c-2 0 -4 1 -6 3c-45 53 -93 147 -93 201z" fill="currentColor"/>
<rect transform="translate(81.7419, 9.0094)" x="-0.0697" y="0.6794" width="0.1395" height="2.8041" ry="0.0444" fill="currentColor"/>
<path transform="translate(81.6721, 9.5094) scale(0.0040, -0.0040)" d="M215 137c57 0 111 -29 111 -92c0 -71 -54 -120 -101 -148c-35 -21 -74 -34 -114 -34c-57 0 -111 29 -111 92c0 71 54 120 101 148c35 21 74 34 114 34z" fill="currentColor"/>
<line transform="translate(24.6534, 5.4558)" stroke-linejoin="round" stroke-linecap="round" stroke-width="0.1717" stroke="currentColor" x1="26.4825" y1="-0.0000" x2="26.4825" y2="0.7000"/>
<line transform="translate(24.6534, 5.4558)" stroke-linejoin="round" stroke-linecap="round" stroke-width="0.1717" stroke="currentColor" x1="-0.2000" y1="-0.0000" x2="-0.2000" y2="0.7000"/>
<line transform="translate(24.6534, 5.4558)" stroke-linejoin="round" stroke-linecap="round" stroke-width="0.1717" stroke="currentColor" x1="26.4825" y1="-0.0000" x2="15.3346" y2="-0.0000"/>
<line transform="translate(24.6534, 5.4558)" stroke-linejoin="round" stroke-linecap="round" stroke-width="0.1717" stroke="currentColor" x1="-0.2000" y1="-0.0000" x2="11.1479" y2="-0.0000"/>
<path transform="translate(57.8358, 9.0094)" stroke-width="0.0858" stroke-linejoin="round" stroke-linecap="round" stroke="currentColor" fill="currentColor" d="M1.5028 -2.0000C2.6922 -2.9325 9.4106 -2.9325 10.6000 -2.0000L10.6000 -2.0000C9.4106 -2.8038 2.6922 -2.8038 1.5028 -2.0000z"/>
<path transform="translate(55.1358, 7.5094) scale(0.0040, -0.0040)" d="M215 137c57 0 111 -29 111 -92c0 -71 -54 -120 -101 -148c-35 -21 -74 -34 -114 -34c-57 0 -111 29 -111 92c0 71 54 120 101 148c35 21 74 34 114 34z" fill="currentColor"/>
<rect transform="translate(55.2056, 9.0094)" x="-0.0697" y="-1.3206" width="0.1395" height="3.8408" ry="0.0444" fill="currentColor"/>
<polygon transform="translate(75.4897, 9.8039)" stroke-linejoin="round" stroke-linecap="round" stroke-width="0.0889" fill="currentColor" stroke="currentColor" points="6.2775 1.1694 6.2775 1.8306 0.0444 0.3306 0.0444 -0.3306"/>
<polygon transform="translate(75.4897, 11.0094)" stroke-linejoin="round" stroke-linecap="round" stroke-width="0.0889" fill="currentColor" stroke="currentColor" points="6.2775 1.1694 6.2775 1.8306 0.0444 0.3306 0.0444 -0.3306"/>
<polygon transform="translate(52.4358, 11.1253)" stroke-linejoin="round" stroke-linecap="round" stroke-width="0.0889" fill="currentColor" stroke="currentColor" points="2.7950 -1.1519 2.7950 -0.4908 0.0444 0.3306 0.0444 -0.3306"/>
<polygon transform="translate(52.4358, 12.3308)" stroke-linejoin="round" stroke-linecap="round" stroke-width="0.0889" fill="currentColor" stroke="currentColor" points="2.7950 -1.1519 2.7950 -0.4908 0.0444 0.3306 0.0444 -0.3306"/>
<text transform="translate(64.7106, 14.1782)" font-family="serif" font-style="italic" font-size="1.7462" text-anchor="start" fill="currentColor">
<tspan>10:9</tspan>
</text>
<line transform="translate(52.4358, 13.9356)" stroke-linejoin="round" stroke-linecap="round" stroke-width="0.1717" stroke="currentColor" x1="27.9363" y1="-0.5811" x2="27.9363" y2="-1.2811"/>
<line transform="translate(52.4358, 13.9356)" stroke-linejoin="round" stroke-linecap="round" stroke-width="0.1717" stroke="currentColor" x1="-0.2000" y1="0.0042" x2="-0.2000" y2="-0.6958"/>
<line transform="translate(52.4358, 13.9356)" stroke-linejoin="round" stroke-linecap="round" stroke-width="0.1717" stroke="currentColor" x1="27.9363" y1="-0.5811" x2="16.0610" y2="-0.3341"/>
<line transform="translate(52.4358, 13.9356)" stroke-linejoin="round" stroke-linecap="round" stroke-width="0.1717" stroke="currentColor" x1="-0.2000" y1="0.0042" x2="11.8752" y2="-0.2470"/>
<path transform="translate(35.7358, 9.0094)" stroke-width="0.0858" stroke-linejoin="round" stroke-linecap="round" stroke="currentColor" fill="currentColor" d="M0.8514 -0.7500C2.1044 -1.6986 9.9984 -1.6986 11.2514 -0.7500L11.2514 -0.7500C9.9984 -1.5699 2.1044 -1.5699 0.8514 -0.7500z"/>
<polygon transform="translate(31.2167, 8.6881)" stroke-linejoin="round" stroke-linecap="round" stroke-width="0.0889" fill="currentColor" stroke="currentColor" points="2.7950 -0.3306 2.7950 0.3306 0.0444 0.3306 0.0444 -0.3306"/>
<polygon transform="translate(31.2167, 9.8935)" stroke-linejoin="round" stroke-linecap="round" stroke-width="0.0889" fill="currentColor" stroke="currentColor" points="2.7950 -0.3306 2.7950 0.3306 0.0444 0.3306 0.0444 -0.3306"/>
<text transform="translate(36.2012, 5.9869)" font-family="serif" font-style="italic" font-size="1.7462" text-anchor="start" fill="currentColor">
<tspan>10:9</tspan>
</text>
<rect transform="translate(52.5056, 9.0094)" x="-0.0697" y="0.1794" width="0.1395" height="3.1218" ry="0.0444" fill="currentColor"/>
<path transform="translate(52.4358, 9.0094) scale(0.0040, -0.0040)" d="M215 137c57 0 111 -29 111 -92c0 -71 -54 -120 -101 -148c-35 -21 -74 -34 -114 -34c-57 0 -111 29 -111 92c0 71 54 120 101 148c35 21 74 34 114 34z" fill="currentColor"/>
<path transform="translate(49.2358, 9.0094) scale(0.0040, -0.0040)" d="M64 -500l100 326c-33 -12 -67 -22 -103 -22c-46 0 -87 33 -87 79c0 40 33 72 73 72c25 0 48 -14 56 -38c10 -27 5 -59 34 -59c16 0 53 51 58 67l46 151c-33 -12 -67 -22 -102 -22c-46 0 -87 33 -87 79c0 40 33 72 73 72c25 0 48 -14 56 -38c10 -27 5 -59 34 -59
c14 0 48 45 54 59c6 13 26 13 31 0l-177 -667c-9 -7 -19 -11 -30 -11s-20 4 -29 11z" fill="currentColor"/>
<path transform="translate(46.6753, 12.3400) scale(0.0040, -0.0040)" d="M0 205c90 51 209 131 209 232c0 24 -4 47 -13 69c-79 -88 -196 -159 -196 -281v-20zM267 662c0 -44 -16 -81 -39 -115c16 -35 25 -72 25 -110c0 -180 -253 -257 -253 -437h-18v500h18v-70c96 49 222 128 222 232c0 21 -4 42 -13 61c-3 17 10 28 24 28c30 0 34 -63 34 -89
z" fill="currentColor"/>
<rect transform="translate(46.6056, 9.0094)" x="-0.0697" y="0.1794" width="0.1395" height="3.1956" ry="0.0444" fill="currentColor"/>
<path transform="translate(46.5358, 9.0094) scale(0.0040, -0.0040)" d="M215 137c57 0 111 -29 111 -92c0 -71 -54 -120 -101 -148c-35 -21 -74 -34 -114 -34c-57 0 -111 29 -111 92c0 71 54 120 101 148c35 21 74 34 114 34z" fill="currentColor"/>
<rect transform="translate(68.7056, 9.0094)" x="-0.0697" y="-1.3206" width="0.1395" height="3.3206" ry="0.0444" fill="currentColor"/>
<path transform="translate(57.8358, 7.5094) scale(0.0040, -0.0040)" d="M215 137c57 0 111 -29 111 -92c0 -71 -54 -120 -101 -148c-35 -21 -74 -34 -114 -34c-57 0 -111 29 -111 92c0 71 54 120 101 148c35 21 74 34 114 34z" fill="currentColor"/>
<rect transform="translate(57.9056, 9.0094)" x="-0.0697" y="-1.3206" width="0.1395" height="3.3206" ry="0.0444" fill="currentColor"/>
<path transform="translate(68.6358, 7.5094) scale(0.0040, -0.0040)" d="M215 137c57 0 111 -29 111 -92c0 -71 -54 -120 -101 -148c-35 -21 -74 -34 -114 -34c-57 0 -111 29 -111 92c0 71 54 120 101 148c35 21 74 34 114 34z" fill="currentColor"/>
<path transform="translate(68.7753, 10.9650) scale(0.0040, -0.0040)" d="M0 205c90 51 209 131 209 232c0 24 -4 47 -13 69c-79 -88 -196 -159 -196 -281v-20zM267 662c0 -44 -16 -81 -39 -115c16 -35 25 -72 25 -110c0 -180 -253 -257 -253 -437h-18v500h18v-70c96 49 222 128 222 232c0 21 -4 42 -13 61c-3 17 10 28 24 28c30 0 34 -63 34 -89
z" fill="currentColor"/>
<path transform="translate(71.3358, 9.0094) scale(0.0040, -0.0040)" d="M64 -500l100 326c-33 -12 -67 -22 -103 -22c-46 0 -87 33 -87 79c0 40 33 72 73 72c25 0 48 -14 56 -38c10 -27 5 -59 34 -59c16 0 53 51 58 67l46 151c-33 -12 -67 -22 -102 -22c-46 0 -87 33 -87 79c0 40 33 72 73 72c25 0 48 -14 56 -38c10 -27 5 -59 34 -59
c14 0 48 45 54 59c6 13 26 13 31 0l-177 -667c-9 -7 -19 -11 -30 -11s-20 4 -29 11z" fill="currentColor"/>
<path transform="translate(16.8600, 10.0094) scale(0.0040, -0.0040)" d="M378 263c4 0 7 1 11 1c156 0 257 -129 257 -262c0 -76 -34 -154 -108 -210c-22 -17 -46 -29 -72 -37c3 -34 4 -68 4 -102c0 -20 0 -40 -1 -60c-7 -121 -90 -228 -209 -228c-108 0 -196 87 -196 196c0 58 53 104 112 104c54 0 95 -48 95 -104c0 -52 -43 -95 -95 -95
c-10 0 -20 2 -29 6c26 -38 68 -63 116 -63c95 0 156 91 162 190c1 19 2 37 2 56c0 30 -2 60 -4 90c-29 -5 -58 -8 -88 -8c-188 0 -333 173 -333 375c0 177 130 307 246 442c-20 62 -38 125 -46 190c-6 52 -7 104 -7 157c0 115 55 223 148 290c3 2 7 3 11 3s8 -1 11 -4
c71 -83 134 -244 134 -357c0 -143 -85 -255 -178 -364c21 -68 40 -137 57 -206zM462 -202c67 24 111 94 111 162c0 89 -65 178 -170 190c24 -115 46 -230 59 -352zM75 26c0 -134 129 -245 263 -245c28 0 55 2 81 6c-14 126 -36 244 -61 363c-79 -8 -124 -61 -124 -119
c0 -43 25 -89 80 -121c5 -5 7 -11 7 -16c0 -12 -10 -23 -22 -23c-3 0 -6 1 -9 2c-81 43 -118 116 -118 186c0 89 58 175 161 198c-14 58 -29 116 -46 173c-106 -122 -212 -244 -212 -404zM406 1042c-99 -47 -162 -148 -162 -257c0 -73 20 -132 38 -191
c79 97 144 199 144 324c0 53 -4 76 -20 124z" fill="currentColor"/>
<line transform="translate(81.6721, 14.1179)" stroke-linejoin="round" stroke-linecap="round" stroke-width="0.1717" stroke="currentColor" x1="12.2000" y1="-0.0000" x2="12.2000" y2="-0.7000"/>
<line transform="translate(81.6721, 14.1179)" stroke-linejoin="round" stroke-linecap="round" stroke-width="0.1717" stroke="currentColor" x1="-0.2000" y1="-0.0000" x2="-0.2000" y2="-0.7000"/>
<line transform="translate(81.6721, 14.1179)" stroke-linejoin="round" stroke-linecap="round" stroke-width="0.1717" stroke="currentColor" x1="12.2000" y1="-0.0000" x2="7.7571" y2="-0.0000"/>
<line transform="translate(81.6721, 14.1179)" stroke-linejoin="round" stroke-linecap="round" stroke-width="0.1717" stroke="currentColor" x1="-0.2000" y1="-0.0000" x2="4.4429" y2="-0.0000"/>
<text transform="translate(86.5151, 14.6680)" font-family="serif" font-style="italic" font-size="1.7462" text-anchor="start" fill="currentColor">
<tspan>5:4</tspan>
</text>
<path transform="translate(24.6534, 9.0094) scale(0.0040, -0.0040)" d="M69 -250l118 326c-33 -12 -68 -22 -103 -22c-46 0 -87 33 -87 79c0 40 33 72 73 72c25 0 49 -14 57 -38c10 -27 4 -59 33 -59c15 0 52 45 59 59c6 13 26 13 31 0l-121 -417c-9 -7 -19 -11 -30 -11s-21 4 -30 11z" fill="currentColor"/>
<path transform="translate(21.0600, 9.0094) scale(0.0040, -0.0040)" d="M203 301c22 15 45 30 61 51c12 15 19 34 27 51c2 4 5 6 9 6c6 0 14 -6 14 -15v-238h74c10 0 16 -8 16 -16s-6 -15 -16 -15h-74v-5c0 -49 29 -95 75 -95c8 0 12 -7 12 -13s-4 -12 -12 -12c-45 0 -90 13 -135 13s-90 -13 -135 -13c-8 0 -12 6 -12 12s4 13 12 13
c46 0 75 46 75 95v5h-163c-24 0 -33 15 -33 24c0 3 1 6 2 7c80 92 134 205 134 327c0 10 6 17 14 17h3c24 -7 48 -13 73 -13s48 6 72 13c2 1 4 1 6 1c9 0 14 -7 14 -13c0 -2 0 -3 -2 -5l-283 -327h163v122c0 9 2 18 9 23z" fill="currentColor"/>
<path transform="translate(21.0600, 11.0580) scale(0.0040, -0.0040)" d="M203 301c22 15 45 30 61 51c12 15 19 34 27 51c2 4 5 6 9 6c6 0 14 -6 14 -15v-238h74c10 0 16 -8 16 -16s-6 -15 -16 -15h-74v-5c0 -49 29 -95 75 -95c8 0 12 -7 12 -13s-4 -12 -12 -12c-45 0 -90 13 -135 13s-90 -13 -135 -13c-8 0 -12 6 -12 12s4 13 12 13
c46 0 75 46 75 95v5h-163c-24 0 -33 15 -33 24c0 3 1 6 2 7c80 92 134 205 134 327c0 10 6 17 14 17h3c24 -7 48 -13 73 -13s48 6 72 13c2 1 4 1 6 1c9 0 14 -7 14 -13c0 -2 0 -3 -2 -5l-283 -327h163v122c0 9 2 18 9 23z" fill="currentColor"/>
<rect transform="translate(75.5594, 9.0094)" x="-0.0697" y="-1.8206" width="0.1395" height="3.8372" ry="0.0444" fill="currentColor"/>
<path transform="translate(75.4897, 7.0094) scale(0.0040, -0.0040)" d="M215 137c57 0 111 -29 111 -92c0 -71 -54 -120 -101 -148c-35 -21 -74 -34 -114 -34c-57 0 -111 29 -111 92c0 71 54 120 101 148c35 21 74 34 114 34z" fill="currentColor"/>
<path transform="translate(74.0397, 7.0094) scale(0.0040, -0.0040)" d="M217 -311c0 -11 -8 -19 -19 -19s-20 8 -20 19v142l-81 -30v-156c0 -11 -9 -20 -20 -20s-19 9 -19 20v142l-28 -11c-3 -1 -5 -1 -8 -1c-12 0 -22 10 -22 23v57c0 9 6 18 15 21l43 16v157l-28 -10c-3 -1 -5 -1 -8 -1c-12 0 -22 9 -22 22v57c0 9 6 18 15 21l43 16v157
c0 11 8 19 19 19s20 -8 20 -19v-142l81 30v156c0 11 9 20 20 20s19 -9 19 -20v-142l28 11c3 1 5 1 8 1c12 0 22 -10 22 -23v-57c0 -9 -6 -18 -15 -21l-43 -16v-157l28 10c3 1 5 1 8 1c12 0 22 -9 22 -22v-57c0 -9 -6 -18 -15 -21l-43 -16v-157zM97 64v-158l81 30v158z" fill="currentColor"/>
<rect transform="translate(78.5419, 9.0094)" x="-0.0697" y="-2.8206" width="0.1395" height="5.5448" ry="0.0444" fill="currentColor"/>
<path transform="translate(78.4721, 6.0094) scale(0.0040, -0.0040)" d="M215 137c57 0 111 -29 111 -92c0 -71 -54 -120 -101 -148c-35 -21 -74 -34 -114 -34c-57 0 -111 29 -111 92c0 71 54 120 101 148c35 21 74 34 114 34z" fill="currentColor"/>
</svg>
