<svg xmlns="http://www.w3.org/2000/svg" xmlns:xlink="http://www.w3.org/1999/xlink" version="1.2" width="191.08mm" height="21.08mm" viewBox="-0.8780 0.0783 155.3358 17.1347">
<style type="text/css">
<![CDATA[
tspan { white-space: pre; }
]]>
</style>
<g transform="translate(12.1940, 6.6510)">
<line stroke-linejoin="round" stroke-linecap="round" stroke-width="0.1282" stroke="currentColor" x1="0.0641" y1="0" x2="142.1997" y2="0"/>
</g>
<g transform="translate(12.1940, 5.6510)">
<line stroke-linejoin="round" stroke-linecap="round" stroke-width="0.1282" stroke="currentColor" x1="0.0641" y1="0" x2="142.1997" y2="0"/>
</g>
<g transform="translate(12.1940, 4.6510)">
<line stroke-linejoin="round" stroke-linecap="round" stroke-width="0.1282" stroke="currentColor" x1="0.0641" y1="0" x2="142.1997" y2="0"/>
</g>
<g transform="translate(12.1940, 3.6510)">
<line stroke-linejoin="round" stroke-linecap="round" stroke-width="0.1282" stroke="currentColor" x1="0.0641" y1="0" x2="142.1997" y2="0"/>
</g>
<g transform="translate(12.1940, 2.6510)">
<line stroke-linejoin="round" stroke-linecap="round" stroke-width="0.1282" stroke="currentColor" x1="0.0641" y1="0" x2="142.1997" y2="0"/>
</g>
<g transform="translate(0.0000, 7.6510)">
<rect x="57.9159" y="-0.1141" width="1.9471" height="0.2282" ry="0.1141" fill="currentColor"/>
</g>
<g transform="translate(0.0000, 7.6510)">
<rect x="17.6695" y="-0.1141" width="1.9471" height="0.2282" ry="0.1141" fill="currentColor"/>
</g>
<g transform="translate(61.9217, 4.6510)">
<rect x="0.0000" y="-2.0000" width="0.2435" height="4.0000" ry="0.0000" fill="currentColor"/>
</g>
<g transform="translate(61.2937, 4.6510)">
<rect x="0.0000" y="-2.0000" width="0.2435" height="4.0000" ry="0.0000" fill="currentColor"/>
</g>
<g transform="translate(154.2143, 4.6510)">
<rect x="0.0000" y="-2.0000" width="0.2435" height="4.0000" ry="0.0000" fill="currentColor"/>
</g>
<g transform="translate(153.5863, 4.6510)">
<rect x="0.0000" y="-2.0000" width="0.2435" height="4.0000" ry="0.0000" fill="currentColor"/>
</g>
<g transform="translate(107.7040, 4.6510)">
<rect x="0.0000" y="-2.0000" width="0.2435" height="4.0000" ry="0.0000" fill="currentColor"/>
</g>
<g transform="translate(107.0760, 4.6510)">
<rect x="0.0000" y="-2.0000" width="0.2435" height="4.0000" ry="0.0000" fill="currentColor"/>
</g>
<g transform="translate(112.0456, 6.1510)">
<path transform="scale(0.0040, -0.0040)" d="M208 139c61 0 117 -33 117 -99c0 -71 -52 -119 -99 -147c-34 -20 -71 -32 -110 -32c-61 0 -116 33 -116 99c0 71 51 119 98 147c34 20 71 32 110 32z" fill="currentColor"/>
</g>
<g transform="translate(108.8189, 1.6392)">
<text font-family="serif" font-size="2.1998" text-anchor="start" fill="currentColor">
<tspan>E</tspan>
</text>
</g>
<g transform="translate(110.7846, 1.6392)">
<text font-family="serif" font-size="2.1998" text-anchor="start" fill="currentColor">
<tspan>major</tspan>
</text>
</g>
<g transform="translate(110.0337, 4.6510)">
<rect x="-0.0833" y="-1.5000" width="0.1666" height="3.3382" ry="0.0571" fill="currentColor"/>
</g>
<g transform="translate(119.3618, 4.6510)">
<rect x="-0.0833" y="-3.0000" width="0.1666" height="3.3382" ry="0.0571" fill="currentColor"/>
</g>
<g transform="translate(118.1470, 5.1510)">
<path transform="scale(0.0040, -0.0040)" d="M208 139c61 0 117 -33 117 -99c0 -71 -52 -119 -99 -147c-34 -20 -71 -32 -110 -32c-61 0 -116 33 -116 99c0 71 51 119 98 147c34 20 71 32 110 32z" fill="currentColor"/>
</g>
<g transform="translate(113.8223, 5.6510)">
<path transform="scale(0.0040, -0.0040)" d="M198 -328c-12 0 -22 10 -22 22v134l-77 -29v-152c0 -12 -10 -22 -22 -22s-22 10 -22 22v134l-16 -6c-3 -1 -8 -2 -11 -2c-15 0 -28 12 -28 28v50c0 12 7 23 18 27l37 14v152l-16 -7c-3 -1 -8 -2 -11 -2c-15 0 -28 13 -28 29v50c0 12 7 22 18 26l37 15v151
c0 12 10 22 22 22s22 -10 22 -22v-134l77 29v152c0 12 10 22 22 22s22 -10 22 -22v-134l16 6c3 1 8 2 11 2c15 0 28 -12 28 -28v-50c0 -12 -7 -23 -18 -27l-37 -14v-152l16 7c3 1 8 2 11 2c15 0 28 -13 28 -29v-50c0 -12 -7 -22 -18 -26l-37 -15v-151c0 -12 -10 -22 -22 -22
zM99 61v-152l77 30v152z" fill="currentColor"/>
</g>
<g transform="translate(113.2604, 4.6510)">
<rect x="-0.0833" y="-2.0000" width="0.1666" height="3.3382" ry="0.0571" fill="currentColor"/>
</g>
<g transform="translate(116.4871, 4.6510)">
<rect x="-0.0833" y="-2.5000" width="0.1666" height="3.3382" ry="0.0571" fill="currentColor"/>
</g>
<g transform="translate(115.2723, 5.6510)">
<path transform="scale(0.0040, -0.0040)" d="M208 139c61 0 117 -33 117 -99c0 -71 -52 -119 -99 -147c-34 -20 -71 -32 -110 -32c-61 0 -116 33 -116 99c0 71 51 119 98 147c34 20 71 32 110 32z" fill="currentColor"/>
</g>
<g transform="translate(17.9940, 1.6392)">
<text font-family="serif" font-size="2.1998" text-anchor="start" fill="currentColor">
<tspan>C</tspan>
</text>
</g>
<g transform="translate(20.0573, 1.6392)">
<text font-family="serif" font-size="2.1998" text-anchor="start" fill="currentColor">
<tspan>major</tspan>
</text>
</g>
<g transform="translate(110.5956, 6.1510)">
<path transform="scale(0.0040, -0.0040)" d="M198 -328c-12 0 -22 10 -22 22v134l-77 -29v-152c0 -12 -10 -22 -22 -22s-22 10 -22 22v134l-16 -6c-3 -1 -8 -2 -11 -2c-15 0 -28 12 -28 28v50c0 12 7 23 18 27l37 14v152l-16 -7c-3 -1 -8 -2 -11 -2c-15 0 -28 13 -28 29v50c0 12 7 22 18 26l37 15v151
c0 12 10 22 22 22s22 -10 22 -22v-134l77 29v152c0 12 10 22 22 22s22 -10 22 -22v-134l16 6c3 1 8 2 11 2c15 0 28 -12 28 -28v-50c0 -12 -7 -23 -18 -27l-37 -14v-152l16 7c3 1 8 2 11 2c15 0 28 -13 28 -29v-50c0 -12 -7 -22 -18 -26l-37 -15v-151c0 -12 -10 -22 -22 -22
zM99 61v-152l77 30v152z" fill="currentColor"/>
</g>
<g transform="translate(99.4523, 4.6510)">
<rect x="-0.0833" y="-2.0000" width="0.1666" height="3.3382" ry="0.0571" fill="currentColor"/>
</g>
<g transform="translate(98.2375, 6.1510)">
<path transform="scale(0.0040, -0.0040)" d="M208 139c61 0 117 -33 117 -99c0 -71 -52 -119 -99 -147c-34 -20 -71 -32 -110 -32c-61 0 -116 33 -116 99c0 71 51 119 98 147c34 20 71 32 110 32z" fill="currentColor"/>
</g>
<g transform="translate(24.9583, 4.6510)">
<rect x="-0.0833" y="-1.5000" width="0.1666" height="3.3382" ry="0.0571" fill="currentColor"/>
</g>
<g transform="translate(96.5775, 4.6510)">
<rect x="-0.0833" y="-2.5000" width="0.1666" height="3.3382" ry="0.0571" fill="currentColor"/>
</g>
<g transform="translate(95.3627, 5.6510)">
<path transform="scale(0.0040, -0.0040)" d="M208 139c61 0 117 -33 117 -99c0 -71 -52 -119 -99 -147c-34 -20 -71 -32 -110 -32c-61 0 -116 33 -116 99c0 71 51 119 98 147c34 20 71 32 110 32z" fill="currentColor"/>
</g>
<g transform="translate(23.7435, 6.6510)">
<path transform="scale(0.0040, -0.0040)" d="M208 139c61 0 117 -33 117 -99c0 -71 -52 -119 -99 -147c-34 -20 -71 -32 -110 -32c-61 0 -116 33 -116 99c0 71 51 119 98 147c34 20 71 32 110 32z" fill="currentColor"/>
</g>
<g transform="translate(105.2018, 4.6510)">
<rect x="-0.0833" y="-1.0000" width="0.1666" height="3.3382" ry="0.0571" fill="currentColor"/>
</g>
<g transform="translate(103.9870, 7.1510)">
<path transform="scale(0.0040, -0.0040)" d="M208 139c61 0 117 -33 117 -99c0 -71 -52 -119 -99 -147c-34 -20 -71 -32 -110 -32c-61 0 -116 33 -116 99c0 71 51 119 98 147c34 20 71 32 110 32z" fill="currentColor"/>
</g>
<g transform="translate(108.8189, 6.6510)">
<path transform="scale(0.0040, -0.0040)" d="M208 139c61 0 117 -33 117 -99c0 -71 -52 -119 -99 -147c-34 -20 -71 -32 -110 -32c-61 0 -116 33 -116 99c0 71 51 119 98 147c34 20 71 32 110 32z" fill="currentColor"/>
</g>
<g transform="translate(102.3270, 4.6510)">
<rect x="-0.0833" y="-1.5000" width="0.1666" height="3.3382" ry="0.0571" fill="currentColor"/>
</g>
<g transform="translate(101.1122, 6.6510)">
<path transform="scale(0.0040, -0.0040)" d="M208 139c61 0 117 -33 117 -99c0 -71 -52 -119 -99 -147c-34 -20 -71 -32 -110 -32c-61 0 -116 33 -116 99c0 71 51 119 98 147c34 20 71 32 110 32z" fill="currentColor"/>
</g>
<g transform="translate(147.5984, 6.1510)">
<path transform="scale(0.0040, -0.0040)" d="M208 139c61 0 117 -33 117 -99c0 -71 -52 -119 -99 -147c-34 -20 -71 -32 -110 -32c-61 0 -116 33 -116 99c0 71 51 119 98 147c34 20 71 32 110 32z" fill="currentColor"/>
</g>
<g transform="translate(145.9384, 4.6510)">
<rect x="-0.0833" y="-2.5000" width="0.1666" height="3.3382" ry="0.0571" fill="currentColor"/>
</g>
<g transform="translate(144.7236, 5.6510)">
<path transform="scale(0.0040, -0.0040)" d="M208 139c61 0 117 -33 117 -99c0 -71 -52 -119 -99 -147c-34 -20 -71 -32 -110 -32c-61 0 -116 33 -116 99c0 71 51 119 98 147c34 20 71 32 110 32z" fill="currentColor"/>
</g>
<g transform="translate(30.7078, 4.6510)">
<rect x="-0.0833" y="-2.5000" width="0.1666" height="3.3382" ry="0.0571" fill="currentColor"/>
</g>
<g transform="translate(148.8132, 4.6510)">
<rect x="-0.0833" y="-2.0000" width="0.1666" height="3.3382" ry="0.0571" fill="currentColor"/>
</g>
<g transform="translate(143.0637, 4.6510)">
<rect x="-0.0833" y="-3.0000" width="0.1666" height="3.3382" ry="0.0571" fill="currentColor"/>
</g>
<g transform="translate(141.8489, 5.1510)">
<path transform="scale(0.0040, -0.0040)" d="M208 139c61 0 117 -33 117 -99c0 -71 -52 -119 -99 -147c-34 -20 -71 -32 -110 -32c-61 0 -116 33 -116 99c0 71 51 119 98 147c34 20 71 32 110 32z" fill="currentColor"/>
</g>
<g transform="translate(29.4930, 5.6510)">
<path transform="scale(0.0040, -0.0040)" d="M208 139c61 0 117 -33 117 -99c0 -71 -52 -119 -99 -147c-34 -20 -71 -32 -110 -32c-61 0 -116 33 -116 99c0 71 51 119 98 147c34 20 71 32 110 32z" fill="currentColor"/>
</g>
<g transform="translate(139.0827, 4.6510)">
<rect x="-0.0833" y="0.1618" width="0.1666" height="3.1715" ry="0.0571" fill="currentColor"/>
</g>
<g transform="translate(138.9994, 4.6510)">
<path transform="scale(0.0040, -0.0040)" d="M208 139c61 0 117 -33 117 -99c0 -71 -52 -119 -99 -147c-34 -20 -71 -32 -110 -32c-61 0 -116 33 -116 99c0 71 51 119 98 147c34 20 71 32 110 32z" fill="currentColor"/>
</g>
<g transform="translate(35.3510, 4.6510)">
<rect x="-0.0833" y="0.1618" width="0.1666" height="3.1715" ry="0.0571" fill="currentColor"/>
</g>
<g transform="translate(35.2677, 4.6510)">
<path transform="scale(0.0040, -0.0040)" d="M208 139c61 0 117 -33 117 -99c0 -71 -52 -119 -99 -147c-34 -20 -71 -32 -110 -32c-61 0 -116 33 -116 99c0 71 51 119 98 147c34 20 71 32 110 32z" fill="currentColor"/>
</g>
<g transform="translate(19.2088, 4.6510)">
<rect x="-0.0833" y="-0.5000" width="0.1666" height="3.3382" ry="0.0571" fill="currentColor"/>
</g>
<g transform="translate(33.5825, 4.6510)">
<rect x="-0.0833" y="-3.0000" width="0.1666" height="3.3382" ry="0.0571" fill="currentColor"/>
</g>
<g transform="translate(32.3678, 5.1510)">
<path transform="scale(0.0040, -0.0040)" d="M208 139c61 0 117 -33 117 -99c0 -71 -52 -119 -99 -147c-34 -20 -71 -32 -110 -32c-61 0 -116 33 -116 99c0 71 51 119 98 147c34 20 71 32 110 32z" fill="currentColor"/>
</g>
<g transform="translate(151.6879, 4.6510)">
<rect x="-0.0833" y="-1.5000" width="0.1666" height="3.3382" ry="0.0571" fill="currentColor"/>
</g>
<g transform="translate(150.4731, 6.6510)">
<path transform="scale(0.0040, -0.0040)" d="M208 139c61 0 117 -33 117 -99c0 -71 -52 -119 -99 -147c-34 -20 -71 -32 -110 -32c-61 0 -116 33 -116 99c0 71 51 119 98 147c34 20 71 32 110 32z" fill="currentColor"/>
</g>
<g transform="translate(127.5837, 4.6510)">
<rect x="-0.0833" y="-0.8382" width="0.1666" height="3.3382" ry="0.0571" fill="currentColor"/>
</g>
<g transform="translate(127.5004, 3.6510)">
<path transform="scale(0.0040, -0.0040)" d="M208 139c61 0 117 -33 117 -99c0 -71 -52 -119 -99 -147c-34 -20 -71 -32 -110 -32c-61 0 -116 33 -116 99c0 71 51 119 98 147c34 20 71 32 110 32z" fill="currentColor"/>
</g>
<g transform="translate(122.8237, 4.1510)">
<path transform="scale(0.0040, -0.0040)" d="M198 -328c-12 0 -22 10 -22 22v134l-77 -29v-152c0 -12 -10 -22 -22 -22s-22 10 -22 22v134l-16 -6c-3 -1 -8 -2 -11 -2c-15 0 -28 12 -28 28v50c0 12 7 23 18 27l37 14v152l-16 -7c-3 -1 -8 -2 -11 -2c-15 0 -28 13 -28 29v50c0 12 7 22 18 26l37 15v151
c0 12 10 22 22 22s22 -10 22 -22v-134l77 29v152c0 12 10 22 22 22s22 -10 22 -22v-134l16 6c3 1 8 2 11 2c15 0 28 -12 28 -28v-50c0 -12 -7 -23 -18 -27l-37 -14v-152l16 7c3 1 8 2 11 2c15 0 28 -13 28 -29v-50c0 -12 -7 -22 -18 -26l-37 -15v-151c0 -12 -10 -22 -22 -22
zM99 61v-152l77 30v152z" fill="currentColor"/>
</g>
<g transform="translate(124.3570, 4.6510)">
<rect x="-0.0833" y="-0.3382" width="0.1666" height="3.3382" ry="0.0571" fill="currentColor"/>
</g>
<g transform="translate(124.2737, 4.1510)">
<path transform="scale(0.0040, -0.0040)" d="M208 139c61 0 117 -33 117 -99c0 -71 -52 -119 -99 -147c-34 -20 -71 -32 -110 -32c-61 0 -116 33 -116 99c0 71 51 119 98 147c34 20 71 32 110 32z" fill="currentColor"/>
</g>
<g transform="translate(27.8331, 4.6510)">
<rect x="-0.0833" y="-2.0000" width="0.1666" height="3.3382" ry="0.0571" fill="currentColor"/>
</g>
<g transform="translate(121.1303, 4.6510)">
<rect x="-0.0833" y="0.1618" width="0.1666" height="3.1715" ry="0.0571" fill="currentColor"/>
</g>
<g transform="translate(121.0470, 4.6510)">
<path transform="scale(0.0040, -0.0040)" d="M208 139c61 0 117 -33 117 -99c0 -71 -52 -119 -99 -147c-34 -20 -71 -32 -110 -32c-61 0 -116 33 -116 99c0 71 51 119 98 147c34 20 71 32 110 32z" fill="currentColor"/>
</g>
<g transform="translate(136.2079, 4.6510)">
<rect x="-0.0833" y="-0.3382" width="0.1666" height="3.3382" ry="0.0571" fill="currentColor"/>
</g>
<g transform="translate(136.1246, 4.1510)">
<path transform="scale(0.0040, -0.0040)" d="M208 139c61 0 117 -33 117 -99c0 -71 -52 -119 -99 -147c-34 -20 -71 -32 -110 -32c-61 0 -116 33 -116 99c0 71 51 119 98 147c34 20 71 32 110 32z" fill="currentColor"/>
</g>
<g transform="translate(133.3332, 4.6510)">
<rect x="-0.0833" y="-0.8382" width="0.1666" height="3.3382" ry="0.0571" fill="currentColor"/>
</g>
<g transform="translate(133.2499, 3.6510)">
<path transform="scale(0.0040, -0.0040)" d="M208 139c61 0 117 -33 117 -99c0 -71 -52 -119 -99 -147c-34 -20 -71 -32 -110 -32c-61 0 -116 33 -116 99c0 71 51 119 98 147c34 20 71 32 110 32z" fill="currentColor"/>
</g>
<g transform="translate(26.6183, 6.1510)">
<path transform="scale(0.0040, -0.0040)" d="M208 139c61 0 117 -33 117 -99c0 -71 -52 -119 -99 -147c-34 -20 -71 -32 -110 -32c-61 0 -116 33 -116 99c0 71 51 119 98 147c34 20 71 32 110 32z" fill="currentColor"/>
</g>
<g transform="translate(130.4584, 4.6510)">
<rect x="-0.0833" y="-1.3382" width="0.1666" height="3.3382" ry="0.0571" fill="currentColor"/>
</g>
<g transform="translate(130.3751, 3.1510)">
<path transform="scale(0.0040, -0.0040)" d="M208 139c61 0 117 -33 117 -99c0 -71 -52 -119 -99 -147c-34 -20 -71 -32 -110 -32c-61 0 -116 33 -116 99c0 71 51 119 98 147c34 20 71 32 110 32z" fill="currentColor"/>
</g>
<g transform="translate(126.0504, 3.6510)">
<path transform="scale(0.0040, -0.0040)" d="M198 -328c-12 0 -22 10 -22 22v134l-77 -29v-152c0 -12 -10 -22 -22 -22s-22 10 -22 22v134l-16 -6c-3 -1 -8 -2 -11 -2c-15 0 -28 12 -28 28v50c0 12 7 23 18 27l37 14v152l-16 -7c-3 -1 -8 -2 -11 -2c-15 0 -28 13 -28 29v50c0 12 7 22 18 26l37 15v151
c0 12 10 22 22 22s22 -10 22 -22v-134l77 29v152c0 12 10 22 22 22s22 -10 22 -22v-134l16 6c3 1 8 2 11 2c15 0 28 -12 28 -28v-50c0 -12 -7 -23 -18 -27l-37 -14v-152l16 7c3 1 8 2 11 2c15 0 28 -13 28 -29v-50c0 -12 -7 -22 -18 -26l-37 -15v-151c0 -12 -10 -22 -22 -22
zM99 61v-152l77 30v152z" fill="currentColor"/>
</g>
<g transform="translate(59.4552, 4.6510)">
<rect x="-0.0833" y="-0.5000" width="0.1666" height="3.3382" ry="0.0571" fill="currentColor"/>
</g>
<g transform="translate(58.2404, 7.6510)">
<path transform="scale(0.0040, -0.0040)" d="M208 139c61 0 117 -33 117 -99c0 -71 -52 -119 -99 -147c-34 -20 -71 -32 -110 -32c-61 0 -116 33 -116 99c0 71 51 119 98 147c34 20 71 32 110 32z" fill="currentColor"/>
</g>
<g transform="translate(56.5805, 4.6510)">
<rect x="-0.0833" y="-1.0000" width="0.1666" height="3.3382" ry="0.0571" fill="currentColor"/>
</g>
<g transform="translate(55.3657, 7.1510)">
<path transform="scale(0.0040, -0.0040)" d="M208 139c61 0 117 -33 117 -99c0 -71 -52 -119 -99 -147c-34 -20 -71 -32 -110 -32c-61 0 -116 33 -116 99c0 71 51 119 98 147c34 20 71 32 110 32z" fill="currentColor"/>
</g>
<g transform="translate(53.7057, 4.6510)">
<rect x="-0.0833" y="-1.5000" width="0.1666" height="3.3382" ry="0.0571" fill="currentColor"/>
</g>
<g transform="translate(52.4909, 6.6510)">
<path transform="scale(0.0040, -0.0040)" d="M208 139c61 0 117 -33 117 -99c0 -71 -52 -119 -99 -147c-34 -20 -71 -32 -110 -32c-61 0 -116 33 -116 99c0 71 51 119 98 147c34 20 71 32 110 32z" fill="currentColor"/>
</g>
<g transform="translate(50.8310, 4.6510)">
<rect x="-0.0833" y="-2.0000" width="0.1666" height="3.3382" ry="0.0571" fill="currentColor"/>
</g>
<g transform="translate(93.7028, 4.6510)">
<rect x="-0.0833" y="-3.0000" width="0.1666" height="3.3382" ry="0.0571" fill="currentColor"/>
</g>
<g transform="translate(67.1262, 4.6510)">
<rect x="-0.0833" y="-1.5000" width="0.1666" height="3.3382" ry="0.0571" fill="currentColor"/>
</g>
<g transform="translate(65.9114, 6.6510)">
<path transform="scale(0.0040, -0.0040)" d="M208 139c61 0 117 -33 117 -99c0 -71 -52 -119 -99 -147c-34 -20 -71 -32 -110 -32c-61 0 -116 33 -116 99c0 71 51 119 98 147c34 20 71 32 110 32z" fill="currentColor"/>
</g>
<g transform="translate(49.6162, 6.1510)">
<path transform="scale(0.0040, -0.0040)" d="M208 139c61 0 117 -33 117 -99c0 -71 -52 -119 -99 -147c-34 -20 -71 -32 -110 -32c-61 0 -116 33 -116 99c0 71 51 119 98 147c34 20 71 32 110 32z" fill="currentColor"/>
</g>
<g transform="translate(64.2514, 4.6510)">
<rect x="-0.0833" y="-1.0000" width="0.1666" height="3.3382" ry="0.0571" fill="currentColor"/>
</g>
<g transform="translate(63.0367, 1.6392)">
<text font-family="serif" font-size="2.1998" text-anchor="start" fill="currentColor">
<tspan>D</tspan>
</text>
</g>
<g transform="translate(65.2463, 1.6392)">
<text font-family="serif" font-size="2.1998" text-anchor="start" fill="currentColor">
<tspan>major</tspan>
</text>
</g>
<g transform="translate(63.0367, 7.1510)">
<path transform="scale(0.0040, -0.0040)" d="M208 139c61 0 117 -33 117 -99c0 -71 -52 -119 -99 -147c-34 -20 -71 -32 -110 -32c-61 0 -116 33 -116 99c0 71 51 119 98 147c34 20 71 32 110 32z" fill="currentColor"/>
</g>
<g transform="translate(38.2257, 4.6510)">
<rect x="-0.0833" y="-0.3382" width="0.1666" height="3.3382" ry="0.0571" fill="currentColor"/>
</g>
<g transform="translate(41.1005, 4.6510)">
<rect x="-0.0833" y="0.1618" width="0.1666" height="3.1715" ry="0.0571" fill="currentColor"/>
</g>
<g transform="translate(41.0172, 4.6510)">
<path transform="scale(0.0040, -0.0040)" d="M208 139c61 0 117 -33 117 -99c0 -71 -52 -119 -99 -147c-34 -20 -71 -32 -110 -32c-61 0 -116 33 -116 99c0 71 51 119 98 147c34 20 71 32 110 32z" fill="currentColor"/>
</g>
<g transform="translate(38.1424, 4.1510)">
<path transform="scale(0.0040, -0.0040)" d="M208 139c61 0 117 -33 117 -99c0 -71 -52 -119 -99 -147c-34 -20 -71 -32 -110 -32c-61 0 -116 33 -116 99c0 71 51 119 98 147c34 20 71 32 110 32z" fill="currentColor"/>
</g>
<g transform="translate(47.9562, 4.6510)">
<rect x="-0.0833" y="-2.5000" width="0.1666" height="3.3382" ry="0.0571" fill="currentColor"/>
</g>
<g transform="translate(46.7415, 5.6510)">
<path transform="scale(0.0040, -0.0040)" d="M208 139c61 0 117 -33 117 -99c0 -71 -52 -119 -99 -147c-34 -20 -71 -32 -110 -32c-61 0 -116 33 -116 99c0 71 51 119 98 147c34 20 71 32 110 32z" fill="currentColor"/>
</g>
<g transform="translate(12.9940, 5.6510)">
<path transform="scale(0.0040, -0.0040)" d="M381 266h9c157 0 258 -130 258 -264c0 -77 -33 -156 -108 -212c-22 -16 -46 -28 -71 -36c2 -32 3 -65 3 -97c0 -21 -1 -43 -2 -64c-7 -122 -91 -230 -211 -230c-108 0 -197 88 -197 197c0 58 54 104 113 104c54 0 95 -48 95 -104c0 -52 -43 -95 -95 -95c-8 0 -16 2 -24 4
c25 -35 65 -59 111 -59c95 0 155 92 161 190c1 20 2 39 2 59c0 28 -1 55 -3 83c-29 -5 -57 -7 -87 -7c-189 0 -333 174 -333 377c0 176 128 307 242 443c-21 62 -41 124 -50 189c-7 52 -8 106 -8 159c0 113 54 219 146 286c8 6 21 7 29 0c72 -82 136 -244 136 -357
c0 -141 -83 -253 -174 -362c22 -67 41 -135 58 -204zM464 -200c64 25 108 93 108 159c0 87 -62 173 -163 187c24 -113 43 -225 55 -346zM338 -218c27 0 54 2 80 6c-13 125 -33 242 -58 359c-79 -7 -123 -59 -123 -116c0 -43 24 -89 78 -120c5 -5 8 -11 8 -17
c0 -13 -11 -24 -24 -24c-3 0 -7 0 -10 2c-81 44 -119 116 -119 187c0 90 60 178 164 201c-14 56 -30 112 -47 167c-104 -122 -208 -245 -208 -404c0 -132 127 -241 259 -241zM239 782c0 -69 22 -127 41 -183c77 97 140 199 140 323c0 49 -3 69 -19 113
c-99 -45 -162 -145 -162 -253z" fill="currentColor"/>
</g>
<g transform="translate(45.0815, 4.6510)">
<rect x="-0.0833" y="-3.0000" width="0.1666" height="3.3382" ry="0.0571" fill="currentColor"/>
</g>
<g transform="translate(43.8667, 5.1510)">
<path transform="scale(0.0040, -0.0040)" d="M208 139c61 0 117 -33 117 -99c0 -71 -52 -119 -99 -147c-34 -20 -71 -32 -110 -32c-61 0 -116 33 -116 99c0 71 51 119 98 147c34 20 71 32 110 32z" fill="currentColor"/>
</g>
<g transform="translate(81.0142, 4.1510)">
<path transform="scale(0.0040, -0.0040)" d="M208 139c61 0 117 -33 117 -99c0 -71 -52 -119 -99 -147c-34 -20 -71 -32 -110 -32c-61 0 -116 33 -116 99c0 71 51 119 98 147c34 20 71 32 110 32z" fill="currentColor"/>
</g>
<g transform="translate(83.8890, 3.6510)">
<path transform="scale(0.0040, -0.0040)" d="M208 139c61 0 117 -33 117 -99c0 -71 -52 -119 -99 -147c-34 -20 -71 -32 -110 -32c-61 0 -116 33 -116 99c0 71 51 119 98 147c34 20 71 32 110 32z" fill="currentColor"/>
</g>
<g transform="translate(79.5642, 4.1510)">
<path transform="scale(0.0040, -0.0040)" d="M198 -328c-12 0 -22 10 -22 22v134l-77 -29v-152c0 -12 -10 -22 -22 -22s-22 10 -22 22v134l-16 -6c-3 -1 -8 -2 -11 -2c-15 0 -28 12 -28 28v50c0 12 7 23 18 27l37 14v152l-16 -7c-3 -1 -8 -2 -11 -2c-15 0 -28 13 -28 29v50c0 12 7 22 18 26l37 15v151
c0 12 10 22 22 22s22 -10 22 -22v-134l77 29v152c0 12 10 22 22 22s22 -10 22 -22v-134l16 6c3 1 8 2 11 2c15 0 28 -12 28 -28v-50c0 -12 -7 -23 -18 -27l-37 -14v-152l16 7c3 1 8 2 11 2c15 0 28 -13 28 -29v-50c0 -12 -7 -22 -18 -26l-37 -15v-151c0 -12 -10 -22 -22 -22
zM99 61v-152l77 30v152z" fill="currentColor"/>
</g>
<g transform="translate(81.0975, 4.6510)">
<rect x="-0.0833" y="-0.3382" width="0.1666" height="3.3382" ry="0.0571" fill="currentColor"/>
</g>
<g transform="translate(83.9723, 4.6510)">
<rect x="-0.0833" y="-0.8382" width="0.1666" height="3.3382" ry="0.0571" fill="currentColor"/>
</g>
<g transform="translate(77.8708, 4.6510)">
<rect x="-0.0833" y="0.1618" width="0.1666" height="3.1715" ry="0.0571" fill="currentColor"/>
</g>
<g transform="translate(77.7875, 4.6510)">
<path transform="scale(0.0040, -0.0040)" d="M208 139c61 0 117 -33 117 -99c0 -71 -52 -119 -99 -147c-34 -20 -71 -32 -110 -32c-61 0 -116 33 -116 99c0 71 51 119 98 147c34 20 71 32 110 32z" fill="currentColor"/>
</g>
<g transform="translate(22.0836, 4.6510)">
<rect x="-0.0833" y="-1.0000" width="0.1666" height="3.3382" ry="0.0571" fill="currentColor"/>
</g>
<g transform="translate(92.4880, 5.1510)">
<path transform="scale(0.0040, -0.0040)" d="M208 139c61 0 117 -33 117 -99c0 -71 -52 -119 -99 -147c-34 -20 -71 -32 -110 -32c-61 0 -116 33 -116 99c0 71 51 119 98 147c34 20 71 32 110 32z" fill="currentColor"/>
</g>
<g transform="translate(89.7218, 4.6510)">
<rect x="-0.0833" y="0.1618" width="0.1666" height="3.1715" ry="0.0571" fill="currentColor"/>
</g>
<g transform="translate(89.6385, 4.6510)">
<path transform="scale(0.0040, -0.0040)" d="M208 139c61 0 117 -33 117 -99c0 -71 -52 -119 -99 -147c-34 -20 -71 -32 -110 -32c-61 0 -116 33 -116 99c0 71 51 119 98 147c34 20 71 32 110 32z" fill="currentColor"/>
</g>
<g transform="translate(17.9940, 7.6510)">
<path transform="scale(0.0040, -0.0040)" d="M208 139c61 0 117 -33 117 -99c0 -71 -52 -119 -99 -147c-34 -20 -71 -32 -110 -32c-61 0 -116 33 -116 99c0 71 51 119 98 147c34 20 71 32 110 32z" fill="currentColor"/>
</g>
<g transform="translate(86.8470, 4.6510)">
<rect x="-0.0833" y="-0.3382" width="0.1666" height="3.3382" ry="0.0571" fill="currentColor"/>
</g>
<g transform="translate(86.7637, 4.1510)">
<path transform="scale(0.0040, -0.0040)" d="M208 139c61 0 117 -33 117 -99c0 -71 -52 -119 -99 -147c-34 -20 -71 -32 -110 -32c-61 0 -116 33 -116 99c0 71 51 119 98 147c34 20 71 32 110 32z" fill="currentColor"/>
</g>
<g transform="translate(69.1381, 6.1510)">
<path transform="scale(0.0040, -0.0040)" d="M208 139c61 0 117 -33 117 -99c0 -71 -52 -119 -99 -147c-34 -20 -71 -32 -110 -32c-61 0 -116 33 -116 99c0 71 51 119 98 147c34 20 71 32 110 32z" fill="currentColor"/>
</g>
<g transform="translate(70.3529, 4.6510)">
<rect x="-0.0833" y="-2.0000" width="0.1666" height="3.3382" ry="0.0571" fill="currentColor"/>
</g>
<g transform="translate(67.6881, 6.1510)">
<path transform="scale(0.0040, -0.0040)" d="M198 -328c-12 0 -22 10 -22 22v134l-77 -29v-152c0 -12 -10 -22 -22 -22s-22 10 -22 22v134l-16 -6c-3 -1 -8 -2 -11 -2c-15 0 -28 12 -28 28v50c0 12 7 23 18 27l37 14v152l-16 -7c-3 -1 -8 -2 -11 -2c-15 0 -28 13 -28 29v50c0 12 7 22 18 26l37 15v151
c0 12 10 22 22 22s22 -10 22 -22v-134l77 29v152c0 12 10 22 22 22s22 -10 22 -22v-134l16 6c3 1 8 2 11 2c15 0 28 -12 28 -28v-50c0 -12 -7 -23 -18 -27l-37 -14v-152l16 7c3 1 8 2 11 2c15 0 28 -13 28 -29v-50c0 -12 -7 -22 -18 -26l-37 -15v-151c0 -12 -10 -22 -22 -22
zM99 61v-152l77 30v152z" fill="currentColor"/>
</g>
<g transform="translate(72.0128, 5.6510)">
<path transform="scale(0.0040, -0.0040)" d="M208 139c61 0 117 -33 117 -99c0 -71 -52 -119 -99 -147c-34 -20 -71 -32 -110 -32c-61 0 -116 33 -116 99c0 71 51 119 98 147c34 20 71 32 110 32z" fill="currentColor"/>
</g>
<g transform="translate(73.2276, 4.6510)">
<rect x="-0.0833" y="-2.5000" width="0.1666" height="3.3382" ry="0.0571" fill="currentColor"/>
</g>
<g transform="translate(74.8876, 5.1510)">
<path transform="scale(0.0040, -0.0040)" d="M208 139c61 0 117 -33 117 -99c0 -71 -52 -119 -99 -147c-34 -20 -71 -32 -110 -32c-61 0 -116 33 -116 99c0 71 51 119 98 147c34 20 71 32 110 32z" fill="currentColor"/>
</g>
<g transform="translate(20.8688, 7.1510)">
<path transform="scale(0.0040, -0.0040)" d="M208 139c61 0 117 -33 117 -99c0 -71 -52 -119 -99 -147c-34 -20 -71 -32 -110 -32c-61 0 -116 33 -116 99c0 71 51 119 98 147c34 20 71 32 110 32z" fill="currentColor"/>
</g>
<g transform="translate(76.1024, 4.6510)">
<rect x="-0.0833" y="-3.0000" width="0.1666" height="3.3382" ry="0.0571" fill="currentColor"/>
</g>
<g transform="translate(0.0000, 15.6630)">
<line stroke-linejoin="round" stroke-linecap="round" stroke-width="0.1282" stroke="currentColor" x1="0.0641" y1="0" x2="154.3937" y2="0"/>
</g>
<g transform="translate(0.0000, 14.6630)">
<line stroke-linejoin="round" stroke-linecap="round" stroke-width="0.1282" stroke="currentColor" x1="0.0641" y1="0" x2="154.3937" y2="0"/>
</g>
<g transform="translate(0.0000, 13.6630)">
<line stroke-linejoin="round" stroke-linecap="round" stroke-width="0.1282" stroke="currentColor" x1="0.0641" y1="0" x2="154.3937" y2="0"/>
</g>
<g transform="translate(0.0000, 12.6630)">
<line stroke-linejoin="round" stroke-linecap="round" stroke-width="0.1282" stroke="currentColor" x1="0.0641" y1="0" x2="154.3937" y2="0"/>
</g>
<g transform="translate(0.0000, 11.6630)">
<line stroke-linejoin="round" stroke-linecap="round" stroke-width="0.1282" stroke="currentColor" x1="0.0641" y1="0" x2="154.3937" y2="0"/>
</g>
<g transform="translate(103.8566, 13.6630)">
<rect x="0.0000" y="-2.0000" width="0.2435" height="4.0000" ry="0.0000" fill="currentColor"/>
</g>
<g transform="translate(103.2286, 13.6630)">
<rect x="0.0000" y="-2.0000" width="0.2435" height="4.0000" ry="0.0000" fill="currentColor"/>
</g>
<g transform="translate(54.1671, 13.6630)">
<rect x="0.0000" y="-2.0000" width="0.2435" height="4.0000" ry="0.0000" fill="currentColor"/>
</g>
<g transform="translate(53.5391, 13.6630)">
<rect x="0.0000" y="-2.0000" width="0.2435" height="4.0000" ry="0.0000" fill="currentColor"/>
</g>
<g transform="translate(154.2143, 13.6630)">
<rect x="0.0000" y="-2.0000" width="0.2435" height="4.0000" ry="0.0000" fill="currentColor"/>
</g>
<g transform="translate(153.5863, 13.6630)">
<rect x="0.0000" y="-2.0000" width="0.2435" height="4.0000" ry="0.0000" fill="currentColor"/>
</g>
<g transform="translate(0.0000, 10.6630)">
<rect x="127.8820" y="-0.1141" width="1.9471" height="0.2282" ry="0.1141" fill="currentColor"/>
</g>
<g transform="translate(73.2083, 11.6630)">
<path transform="scale(0.0040, -0.0040)" d="M198 -328c-12 0 -22 10 -22 22v134l-77 -29v-152c0 -12 -10 -22 -22 -22s-22 10 -22 22v134l-16 -6c-3 -1 -8 -2 -11 -2c-15 0 -28 12 -28 28v50c0 12 7 23 18 27l37 14v152l-16 -7c-3 -1 -8 -2 -11 -2c-15 0 -28 13 -28 29v50c0 12 7 22 18 26l37 15v151
c0 12 10 22 22 22s22 -10 22 -22v-134l77 29v152c0 12 10 22 22 22s22 -10 22 -22v-134l16 6c3 1 8 2 11 2c15 0 28 -12 28 -28v-50c0 -12 -7 -23 -18 -27l-37 -14v-152l16 7c3 1 8 2 11 2c15 0 28 -13 28 -29v-50c0 -12 -7 -22 -18 -26l-37 -15v-151c0 -12 -10 -22 -22 -22
zM99 61v-152l77 30v152z" fill="currentColor"/>
</g>
<g transform="translate(81.0511, 13.6630)">
<rect x="-0.0833" y="-1.8382" width="0.1666" height="3.3382" ry="0.0571" fill="currentColor"/>
</g>
<g transform="translate(80.9678, 11.6630)">
<path transform="scale(0.0040, -0.0040)" d="M208 139c61 0 117 -33 117 -99c0 -71 -52 -119 -99 -147c-34 -20 -71 -32 -110 -32c-61 0 -116 33 -116 99c0 71 51 119 98 147c34 20 71 32 110 32z" fill="currentColor"/>
</g>
<g transform="translate(77.8964, 13.6630)">
<rect x="-0.0833" y="-2.3382" width="0.1666" height="3.3382" ry="0.0571" fill="currentColor"/>
</g>
<g transform="translate(77.8131, 11.1630)">
<path transform="scale(0.0040, -0.0040)" d="M208 139c61 0 117 -33 117 -99c0 -71 -52 -119 -99 -147c-34 -20 -71 -32 -110 -32c-61 0 -116 33 -116 99c0 71 51 119 98 147c34 20 71 32 110 32z" fill="currentColor"/>
</g>
<g transform="translate(74.7416, 13.6630)">
<rect x="-0.0833" y="-1.8382" width="0.1666" height="3.3382" ry="0.0571" fill="currentColor"/>
</g>
<g transform="translate(74.6583, 11.6630)">
<path transform="scale(0.0040, -0.0040)" d="M208 139c61 0 117 -33 117 -99c0 -71 -52 -119 -99 -147c-34 -20 -71 -32 -110 -32c-61 0 -116 33 -116 99c0 71 51 119 98 147c34 20 71 32 110 32z" fill="currentColor"/>
</g>
<g transform="translate(71.2349, 13.6630)">
<rect x="-0.0833" y="-1.3382" width="0.1666" height="3.3382" ry="0.0571" fill="currentColor"/>
</g>
<g transform="translate(87.3606, 13.6630)">
<rect x="-0.0833" y="-0.8382" width="0.1666" height="3.3382" ry="0.0571" fill="currentColor"/>
</g>
<g transform="translate(93.5868, 13.6630)">
<path transform="scale(0.0040, -0.0040)" d="M208 139c61 0 117 -33 117 -99c0 -71 -52 -119 -99 -147c-34 -20 -71 -32 -110 -32c-61 0 -116 33 -116 99c0 71 51 119 98 147c34 20 71 32 110 32z" fill="currentColor"/>
</g>
<g transform="translate(90.5154, 13.6630)">
<rect x="-0.0833" y="-0.3382" width="0.1666" height="3.3382" ry="0.0571" fill="currentColor"/>
</g>
<g transform="translate(90.4321, 13.1630)">
<path transform="scale(0.0040, -0.0040)" d="M208 139c61 0 117 -33 117 -99c0 -71 -52 -119 -99 -147c-34 -20 -71 -32 -110 -32c-61 0 -116 33 -116 99c0 71 51 119 98 147c34 20 71 32 110 32z" fill="currentColor"/>
</g>
<g transform="translate(71.1516, 12.1630)">
<path transform="scale(0.0040, -0.0040)" d="M208 139c61 0 117 -33 117 -99c0 -71 -52 -119 -99 -147c-34 -20 -71 -32 -110 -32c-61 0 -116 33 -116 99c0 71 51 119 98 147c34 20 71 32 110 32z" fill="currentColor"/>
</g>
<g transform="translate(87.2773, 12.6630)">
<path transform="scale(0.0040, -0.0040)" d="M208 139c61 0 117 -33 117 -99c0 -71 -52 -119 -99 -147c-34 -20 -71 -32 -110 -32c-61 0 -116 33 -116 99c0 71 51 119 98 147c34 20 71 32 110 32z" fill="currentColor"/>
</g>
<g transform="translate(84.2059, 13.6630)">
<rect x="-0.0833" y="-1.3382" width="0.1666" height="3.3382" ry="0.0571" fill="currentColor"/>
</g>
<g transform="translate(84.1226, 12.1630)">
<path transform="scale(0.0040, -0.0040)" d="M208 139c61 0 117 -33 117 -99c0 -71 -52 -119 -99 -147c-34 -20 -71 -32 -110 -32c-61 0 -116 33 -116 99c0 71 51 119 98 147c34 20 71 32 110 32z" fill="currentColor"/>
</g>
<g transform="translate(58.5074, 14.1630)">
<path transform="scale(0.0040, -0.0040)" d="M208 139c61 0 117 -33 117 -99c0 -71 -52 -119 -99 -147c-34 -20 -71 -32 -110 -32c-61 0 -116 33 -116 99c0 71 51 119 98 147c34 20 71 32 110 32z" fill="currentColor"/>
</g>
<g transform="translate(59.7222, 13.6630)">
<rect x="-0.0833" y="-3.0000" width="0.1666" height="3.3382" ry="0.0571" fill="currentColor"/>
</g>
<g transform="translate(56.5675, 13.6630)">
<rect x="-0.0833" y="-2.5000" width="0.1666" height="3.3382" ry="0.0571" fill="currentColor"/>
</g>
<g transform="translate(55.3527, 9.8475)">
<text font-family="serif" font-size="2.1998" text-anchor="start" fill="currentColor">
<tspan>G</tspan>
</text>
</g>
<g transform="translate(57.5623, 9.8475)">
<text font-family="serif" font-size="2.1998" text-anchor="start" fill="currentColor">
<tspan>major</tspan>
</text>
</g>
<g transform="translate(55.3527, 14.6630)">
<path transform="scale(0.0040, -0.0040)" d="M208 139c61 0 117 -33 117 -99c0 -71 -52 -119 -99 -147c-34 -20 -71 -32 -110 -32c-61 0 -116 33 -116 99c0 71 51 119 98 147c34 20 71 32 110 32z" fill="currentColor"/>
</g>
<g transform="translate(64.8421, 13.1630)">
<path transform="scale(0.0040, -0.0040)" d="M208 139c61 0 117 -33 117 -99c0 -71 -52 -119 -99 -147c-34 -20 -71 -32 -110 -32c-61 0 -116 33 -116 99c0 71 51 119 98 147c34 20 71 32 110 32z" fill="currentColor"/>
</g>
<g transform="translate(68.0802, 13.6630)">
<rect x="-0.0833" y="-0.8382" width="0.1666" height="3.3382" ry="0.0571" fill="currentColor"/>
</g>
<g transform="translate(67.9969, 12.6630)">
<path transform="scale(0.0040, -0.0040)" d="M208 139c61 0 117 -33 117 -99c0 -71 -52 -119 -99 -147c-34 -20 -71 -32 -110 -32c-61 0 -116 33 -116 99c0 71 51 119 98 147c34 20 71 32 110 32z" fill="currentColor"/>
</g>
<g transform="translate(64.9254, 13.6630)">
<rect x="-0.0833" y="-0.3382" width="0.1666" height="3.3382" ry="0.0571" fill="currentColor"/>
</g>
<g transform="translate(93.6701, 13.6630)">
<rect x="-0.0833" y="0.1618" width="0.1666" height="3.1715" ry="0.0571" fill="currentColor"/>
</g>
<g transform="translate(61.7707, 13.6630)">
<rect x="-0.0833" y="0.1618" width="0.1666" height="3.1715" ry="0.0571" fill="currentColor"/>
</g>
<g transform="translate(61.6874, 13.6630)">
<path transform="scale(0.0040, -0.0040)" d="M208 139c61 0 117 -33 117 -99c0 -71 -52 -119 -99 -147c-34 -20 -71 -32 -110 -32c-61 0 -116 33 -116 99c0 71 51 119 98 147c34 20 71 32 110 32z" fill="currentColor"/>
</g>
<g transform="translate(118.0383, 12.1630)">
<path transform="scale(0.0040, -0.0040)" d="M208 139c61 0 117 -33 117 -99c0 -71 -52 -119 -99 -147c-34 -20 -71 -32 -110 -32c-61 0 -116 33 -116 99c0 71 51 119 98 147c34 20 71 32 110 32z" fill="currentColor"/>
</g>
<g transform="translate(121.6283, 13.6630)">
<rect x="-0.0833" y="-1.8382" width="0.1666" height="3.3382" ry="0.0571" fill="currentColor"/>
</g>
<g transform="translate(121.5450, 11.6630)">
<path transform="scale(0.0040, -0.0040)" d="M208 139c61 0 117 -33 117 -99c0 -71 -52 -119 -99 -147c-34 -20 -71 -32 -110 -32c-61 0 -116 33 -116 99c0 71 51 119 98 147c34 20 71 32 110 32z" fill="currentColor"/>
</g>
<g transform="translate(118.1216, 13.6630)">
<rect x="-0.0833" y="-1.3382" width="0.1666" height="3.3382" ry="0.0571" fill="currentColor"/>
</g>
<g transform="translate(120.0950, 11.6630)">
<path transform="scale(0.0040, -0.0040)" d="M198 -328c-12 0 -22 10 -22 22v134l-77 -29v-152c0 -12 -10 -22 -22 -22s-22 10 -22 22v134l-16 -6c-3 -1 -8 -2 -11 -2c-15 0 -28 12 -28 28v50c0 12 7 23 18 27l37 14v152l-16 -7c-3 -1 -8 -2 -11 -2c-15 0 -28 13 -28 29v50c0 12 7 22 18 26l37 15v151
c0 12 10 22 22 22s22 -10 22 -22v-134l77 29v152c0 12 10 22 22 22s22 -10 22 -22v-134l16 6c3 1 8 2 11 2c15 0 28 -12 28 -28v-50c0 -12 -7 -23 -18 -27l-37 -14v-152l16 7c3 1 8 2 11 2c15 0 28 -13 28 -29v-50c0 -12 -7 -22 -18 -26l-37 -15v-151c0 -12 -10 -22 -22 -22
zM99 61v-152l77 30v152z" fill="currentColor"/>
</g>
<g transform="translate(114.9669, 13.6630)">
<rect x="-0.0833" y="-0.8382" width="0.1666" height="3.3382" ry="0.0571" fill="currentColor"/>
</g>
<g transform="translate(114.8836, 12.6630)">
<path transform="scale(0.0040, -0.0040)" d="M208 139c61 0 117 -33 117 -99c0 -71 -52 -119 -99 -147c-34 -20 -71 -32 -110 -32c-61 0 -116 33 -116 99c0 71 51 119 98 147c34 20 71 32 110 32z" fill="currentColor"/>
</g>
<g transform="translate(110.2788, 13.1630)">
<path transform="scale(0.0040, -0.0040)" d="M198 -328c-12 0 -22 10 -22 22v134l-77 -29v-152c0 -12 -10 -22 -22 -22s-22 10 -22 22v134l-16 -6c-3 -1 -8 -2 -11 -2c-15 0 -28 12 -28 28v50c0 12 7 23 18 27l37 14v152l-16 -7c-3 -1 -8 -2 -11 -2c-15 0 -28 13 -28 29v50c0 12 7 22 18 26l37 15v151
c0 12 10 22 22 22s22 -10 22 -22v-134l77 29v152c0 12 10 22 22 22s22 -10 22 -22v-134l16 6c3 1 8 2 11 2c15 0 28 -12 28 -28v-50c0 -12 -7 -23 -18 -27l-37 -14v-152l16 7c3 1 8 2 11 2c15 0 28 -13 28 -29v-50c0 -12 -7 -22 -18 -26l-37 -15v-151c0 -12 -10 -22 -22 -22
zM99 61v-152l77 30v152z" fill="currentColor"/>
</g>
<g transform="translate(128.2065, 10.6630)">
<path transform="scale(0.0040, -0.0040)" d="M208 139c61 0 117 -33 117 -99c0 -71 -52 -119 -99 -147c-34 -20 -71 -32 -110 -32c-61 0 -116 33 -116 99c0 71 51 119 98 147c34 20 71 32 110 32z" fill="currentColor"/>
</g>
<g transform="translate(131.4445, 13.6630)">
<rect x="-0.0833" y="-2.3382" width="0.1666" height="3.3382" ry="0.0571" fill="currentColor"/>
</g>
<g transform="translate(131.3612, 11.1630)">
<path transform="scale(0.0040, -0.0040)" d="M208 139c61 0 117 -33 117 -99c0 -71 -52 -119 -99 -147c-34 -20 -71 -32 -110 -32c-61 0 -116 33 -116 99c0 71 51 119 98 147c34 20 71 32 110 32z" fill="currentColor"/>
</g>
<g transform="translate(128.2898, 13.6630)">
<rect x="-0.0833" y="-2.8382" width="0.1666" height="3.3382" ry="0.0571" fill="currentColor"/>
</g>
<g transform="translate(123.6017, 11.1630)">
<path transform="scale(0.0040, -0.0040)" d="M198 -328c-12 0 -22 10 -22 22v134l-77 -29v-152c0 -12 -10 -22 -22 -22s-22 10 -22 22v134l-16 -6c-3 -1 -8 -2 -11 -2c-15 0 -28 12 -28 28v50c0 12 7 23 18 27l37 14v152l-16 -7c-3 -1 -8 -2 -11 -2c-15 0 -28 13 -28 29v50c0 12 7 22 18 26l37 15v151
c0 12 10 22 22 22s22 -10 22 -22v-134l77 29v152c0 12 10 22 22 22s22 -10 22 -22v-134l16 6c3 1 8 2 11 2c15 0 28 -12 28 -28v-50c0 -12 -7 -23 -18 -27l-37 -14v-152l16 7c3 1 8 2 11 2c15 0 28 -13 28 -29v-50c0 -12 -7 -22 -18 -26l-37 -15v-151c0 -12 -10 -22 -22 -22
zM99 61v-152l77 30v152z" fill="currentColor"/>
</g>
<g transform="translate(125.1350, 13.6630)">
<rect x="-0.0833" y="-2.3382" width="0.1666" height="3.3382" ry="0.0571" fill="currentColor"/>
</g>
<g transform="translate(125.0517, 11.1630)">
<path transform="scale(0.0040, -0.0040)" d="M208 139c61 0 117 -33 117 -99c0 -71 -52 -119 -99 -147c-34 -20 -71 -32 -110 -32c-61 0 -116 33 -116 99c0 71 51 119 98 147c34 20 71 32 110 32z" fill="currentColor"/>
</g>
<g transform="translate(99.8711, 14.6630)">
<path transform="scale(0.0040, -0.0040)" d="M208 139c61 0 117 -33 117 -99c0 -71 -52 -119 -99 -147c-34 -20 -71 -32 -110 -32c-61 0 -116 33 -116 99c0 71 51 119 98 147c34 20 71 32 110 32z" fill="currentColor"/>
</g>
<g transform="translate(106.2570, 13.6630)">
<rect x="-0.0833" y="-3.0000" width="0.1666" height="3.3382" ry="0.0571" fill="currentColor"/>
</g>
<g transform="translate(105.0422, 10.2030)">
<text font-family="serif" font-size="2.1998" text-anchor="start" fill="currentColor">
<tspan>A</tspan>
</text>
</g>
<g transform="translate(107.2518, 10.2030)">
<text font-family="serif" font-size="2.1998" text-anchor="start" fill="currentColor">
<tspan>major</tspan>
</text>
</g>
<g transform="translate(105.0422, 14.1630)">
<path transform="scale(0.0040, -0.0040)" d="M208 139c61 0 117 -33 117 -99c0 -71 -52 -119 -99 -147c-34 -20 -71 -32 -110 -32c-61 0 -116 33 -116 99c0 71 51 119 98 147c34 20 71 32 110 32z" fill="currentColor"/>
</g>
<g transform="translate(101.0859, 13.6630)">
<rect x="-0.0833" y="-2.5000" width="0.1666" height="3.3382" ry="0.0571" fill="currentColor"/>
</g>
<g transform="translate(97.9312, 13.6630)">
<rect x="-0.0833" y="-3.0000" width="0.1666" height="3.3382" ry="0.0571" fill="currentColor"/>
</g>
<g transform="translate(96.7164, 14.1630)">
<path transform="scale(0.0040, -0.0040)" d="M208 139c61 0 117 -33 117 -99c0 -71 -52 -119 -99 -147c-34 -20 -71 -32 -110 -32c-61 0 -116 33 -116 99c0 71 51 119 98 147c34 20 71 32 110 32z" fill="currentColor"/>
</g>
<g transform="translate(111.8121, 13.6630)">
<rect x="-0.0833" y="-0.3382" width="0.1666" height="3.3382" ry="0.0571" fill="currentColor"/>
</g>
<g transform="translate(111.7288, 13.1630)">
<path transform="scale(0.0040, -0.0040)" d="M208 139c61 0 117 -33 117 -99c0 -71 -52 -119 -99 -147c-34 -20 -71 -32 -110 -32c-61 0 -116 33 -116 99c0 71 51 119 98 147c34 20 71 32 110 32z" fill="currentColor"/>
</g>
<g transform="translate(108.3054, 13.6630)">
<rect x="-0.0833" y="0.1618" width="0.1666" height="3.1715" ry="0.0571" fill="currentColor"/>
</g>
<g transform="translate(108.2221, 13.6630)">
<path transform="scale(0.0040, -0.0040)" d="M208 139c61 0 117 -33 117 -99c0 -71 -52 -119 -99 -147c-34 -20 -71 -32 -110 -32c-61 0 -116 33 -116 99c0 71 51 119 98 147c34 20 71 32 110 32z" fill="currentColor"/>
</g>
<g transform="translate(7.0148, 13.6630)">
<rect x="-0.0833" y="-2.0000" width="0.1666" height="3.3382" ry="0.0571" fill="currentColor"/>
</g>
<g transform="translate(5.8000, 10.2153)">
<text font-family="serif" font-size="2.1998" text-anchor="start" fill="currentColor">
<tspan>F</tspan>
</text>
</g>
<g transform="translate(7.6194, 10.2153)">
<text font-family="serif" font-size="2.1998" text-anchor="start" fill="currentColor">
<tspan>major</tspan>
</text>
</g>
<g transform="translate(5.8000, 15.1630)">
<path transform="scale(0.0040, -0.0040)" d="M208 139c61 0 117 -33 117 -99c0 -71 -52 -119 -99 -147c-34 -20 -71 -32 -110 -32c-61 0 -116 33 -116 99c0 71 51 119 98 147c34 20 71 32 110 32z" fill="currentColor"/>
</g>
<g transform="translate(151.4793, 13.6630)">
<rect x="-0.0833" y="-3.0000" width="0.1666" height="3.3382" ry="0.0571" fill="currentColor"/>
</g>
<g transform="translate(14.3189, 13.6630)">
<path transform="scale(0.0040, -0.0040)" d="M33 35l-2 -60v-11c0 -21 2 -43 5 -64c42 38 87 81 87 138c0 32 -13 63 -41 63c-31 0 -48 -32 -49 -66zM32 446l-9 -337c25 26 59 40 95 40c50 0 82 -51 82 -105c0 -77 -80 -117 -137 -169c-18 -17 -26 -48 -52 -48c-16 0 -28 15 -28 32l-15 587c10 6 21 8 32 8
s22 -2 32 -8z" fill="currentColor"/>
</g>
<g transform="translate(15.5522, 13.6630)">
<rect x="-0.0833" y="0.1618" width="0.1666" height="3.1715" ry="0.0571" fill="currentColor"/>
</g>
<g transform="translate(15.4689, 13.6630)">
<path transform="scale(0.0040, -0.0040)" d="M208 139c61 0 117 -33 117 -99c0 -71 -52 -119 -99 -147c-34 -20 -71 -32 -110 -32c-61 0 -116 33 -116 99c0 71 51 119 98 147c34 20 71 32 110 32z" fill="currentColor"/>
</g>
<g transform="translate(150.2645, 14.1630)">
<path transform="scale(0.0040, -0.0040)" d="M208 139c61 0 117 -33 117 -99c0 -71 -52 -119 -99 -147c-34 -20 -71 -32 -110 -32c-61 0 -116 33 -116 99c0 71 51 119 98 147c34 20 71 32 110 32z" fill="currentColor"/>
</g>
<g transform="translate(13.3243, 13.6630)">
<rect x="-0.0833" y="-3.0000" width="0.1666" height="3.3382" ry="0.0571" fill="currentColor"/>
</g>
<g transform="translate(12.1095, 14.1630)">
<path transform="scale(0.0040, -0.0040)" d="M208 139c61 0 117 -33 117 -99c0 -71 -52 -119 -99 -147c-34 -20 -71 -32 -110 -32c-61 0 -116 33 -116 99c0 71 51 119 98 147c34 20 71 32 110 32z" fill="currentColor"/>
</g>
<g transform="translate(10.1695, 13.6630)">
<rect x="-0.0833" y="-2.5000" width="0.1666" height="3.3382" ry="0.0571" fill="currentColor"/>
</g>
<g transform="translate(8.9548, 14.6630)">
<path transform="scale(0.0040, -0.0040)" d="M208 139c61 0 117 -33 117 -99c0 -71 -52 -119 -99 -147c-34 -20 -71 -32 -110 -32c-61 0 -116 33 -116 99c0 71 51 119 98 147c34 20 71 32 110 32z" fill="currentColor"/>
</g>
<g transform="translate(137.6707, 12.1630)">
<path transform="scale(0.0040, -0.0040)" d="M208 139c61 0 117 -33 117 -99c0 -71 -52 -119 -99 -147c-34 -20 -71 -32 -110 -32c-61 0 -116 33 -116 99c0 71 51 119 98 147c34 20 71 32 110 32z" fill="currentColor"/>
</g>
<g transform="translate(134.5993, 13.6630)">
<rect x="-0.0833" y="-1.8382" width="0.1666" height="3.3382" ry="0.0571" fill="currentColor"/>
</g>
<g transform="translate(134.5160, 11.6630)">
<path transform="scale(0.0040, -0.0040)" d="M208 139c61 0 117 -33 117 -99c0 -71 -52 -119 -99 -147c-34 -20 -71 -32 -110 -32c-61 0 -116 33 -116 99c0 71 51 119 98 147c34 20 71 32 110 32z" fill="currentColor"/>
</g>
<g transform="translate(137.7540, 13.6630)">
<rect x="-0.0833" y="-1.3382" width="0.1666" height="3.3382" ry="0.0571" fill="currentColor"/>
</g>
<g transform="translate(0.8000, 14.6630)">
<path transform="scale(0.0040, -0.0040)" d="M381 266h9c157 0 258 -130 258 -264c0 -77 -33 -156 -108 -212c-22 -16 -46 -28 -71 -36c2 -32 3 -65 3 -97c0 -21 -1 -43 -2 -64c-7 -122 -91 -230 -211 -230c-108 0 -197 88 -197 197c0 58 54 104 113 104c54 0 95 -48 95 -104c0 -52 -43 -95 -95 -95c-8 0 -16 2 -24 4
c25 -35 65 -59 111 -59c95 0 155 92 161 190c1 20 2 39 2 59c0 28 -1 55 -3 83c-29 -5 -57 -7 -87 -7c-189 0 -333 174 -333 377c0 176 128 307 242 443c-21 62 -41 124 -50 189c-7 52 -8 106 -8 159c0 113 54 219 146 286c8 6 21 7 29 0c72 -82 136 -244 136 -357
c0 -141 -83 -253 -174 -362c22 -67 41 -135 58 -204zM464 -200c64 25 108 93 108 159c0 87 -62 173 -163 187c24 -113 43 -225 55 -346zM338 -218c27 0 54 2 80 6c-13 125 -33 242 -58 359c-79 -7 -123 -59 -123 -116c0 -43 24 -89 78 -120c5 -5 8 -11 8 -17
c0 -13 -11 -24 -24 -24c-3 0 -7 0 -10 2c-81 44 -119 116 -119 187c0 90 60 178 164 201c-14 56 -30 112 -47 167c-104 -122 -208 -245 -208 -404c0 -132 127 -241 259 -241zM239 782c0 -69 22 -127 41 -183c77 97 140 199 140 323c0 49 -3 69 -19 113
c-99 -45 -162 -145 -162 -253z" fill="currentColor"/>
</g>
<g transform="translate(-0.8780, 10.6130)">
<text font-family="serif" font-size="1.7465" text-anchor="start" fill="currentColor">
<tspan>4</tspan>
</text>
</g>
<g transform="translate(143.9802, 13.1630)">
<path transform="scale(0.0040, -0.0040)" d="M208 139c61 0 117 -33 117 -99c0 -71 -52 -119 -99 -147c-34 -20 -71 -32 -110 -32c-61 0 -116 33 -116 99c0 71 51 119 98 147c34 20 71 32 110 32z" fill="currentColor"/>
</g>
<g transform="translate(147.2183, 13.6630)">
<rect x="-0.0833" y="0.1618" width="0.1666" height="3.1715" ry="0.0571" fill="currentColor"/>
</g>
<g transform="translate(147.1350, 13.6630)">
<path transform="scale(0.0040, -0.0040)" d="M208 139c61 0 117 -33 117 -99c0 -71 -52 -119 -99 -147c-34 -20 -71 -32 -110 -32c-61 0 -116 33 -116 99c0 71 51 119 98 147c34 20 71 32 110 32z" fill="currentColor"/>
</g>
<g transform="translate(144.0635, 13.6630)">
<rect x="-0.0833" y="-0.3382" width="0.1666" height="3.3382" ry="0.0571" fill="currentColor"/>
</g>
<g transform="translate(140.9088, 13.6630)">
<rect x="-0.0833" y="-0.8382" width="0.1666" height="3.3382" ry="0.0571" fill="currentColor"/>
</g>
<g transform="translate(140.8255, 12.6630)">
<path transform="scale(0.0040, -0.0040)" d="M208 139c61 0 117 -33 117 -99c0 -71 -52 -119 -99 -147c-34 -20 -71 -32 -110 -32c-61 0 -116 33 -116 99c0 71 51 119 98 147c34 20 71 32 110 32z" fill="currentColor"/>
</g>
<g transform="translate(46.9912, 14.6630)">
<path transform="scale(0.0040, -0.0040)" d="M208 139c61 0 117 -33 117 -99c0 -71 -52 -119 -99 -147c-34 -20 -71 -32 -110 -32c-61 0 -116 33 -116 99c0 71 51 119 98 147c34 20 71 32 110 32z" fill="currentColor"/>
</g>
<g transform="translate(37.6354, 13.6630)">
<rect x="-0.0833" y="-0.3382" width="0.1666" height="3.3382" ry="0.0571" fill="currentColor"/>
</g>
<g transform="translate(28.0879, 11.6630)">
<path transform="scale(0.0040, -0.0040)" d="M208 139c61 0 117 -33 117 -99c0 -71 -52 -119 -99 -147c-34 -20 -71 -32 -110 -32c-61 0 -116 33 -116 99c0 71 51 119 98 147c34 20 71 32 110 32z" fill="currentColor"/>
</g>
<g transform="translate(28.1712, 13.6630)">
<rect x="-0.0833" y="-1.8382" width="0.1666" height="3.3382" ry="0.0571" fill="currentColor"/>
</g>
<g transform="translate(31.2426, 12.1630)">
<path transform="scale(0.0040, -0.0040)" d="M208 139c61 0 117 -33 117 -99c0 -71 -52 -119 -99 -147c-34 -20 -71 -32 -110 -32c-61 0 -116 33 -116 99c0 71 51 119 98 147c34 20 71 32 110 32z" fill="currentColor"/>
</g>
<g transform="translate(31.3259, 13.6630)">
<rect x="-0.0833" y="-1.3382" width="0.1666" height="3.3382" ry="0.0571" fill="currentColor"/>
</g>
<g transform="translate(37.5521, 13.1630)">
<path transform="scale(0.0040, -0.0040)" d="M208 139c61 0 117 -33 117 -99c0 -71 -52 -119 -99 -147c-34 -20 -71 -32 -110 -32c-61 0 -116 33 -116 99c0 71 51 119 98 147c34 20 71 32 110 32z" fill="currentColor"/>
</g>
<g transform="translate(45.0512, 13.6630)">
<rect x="-0.0833" y="-3.0000" width="0.1666" height="3.3382" ry="0.0571" fill="currentColor"/>
</g>
<g transform="translate(43.8364, 14.1630)">
<path transform="scale(0.0040, -0.0040)" d="M208 139c61 0 117 -33 117 -99c0 -71 -52 -119 -99 -147c-34 -20 -71 -32 -110 -32c-61 0 -116 33 -116 99c0 71 51 119 98 147c34 20 71 32 110 32z" fill="currentColor"/>
</g>
<g transform="translate(34.3974, 12.6630)">
<path transform="scale(0.0040, -0.0040)" d="M208 139c61 0 117 -33 117 -99c0 -71 -52 -119 -99 -147c-34 -20 -71 -32 -110 -32c-61 0 -116 33 -116 99c0 71 51 119 98 147c34 20 71 32 110 32z" fill="currentColor"/>
</g>
<g transform="translate(34.4807, 13.6630)">
<rect x="-0.0833" y="-0.8382" width="0.1666" height="3.3382" ry="0.0571" fill="currentColor"/>
</g>
<g transform="translate(40.7069, 13.6630)">
<path transform="scale(0.0040, -0.0040)" d="M208 139c61 0 117 -33 117 -99c0 -71 -52 -119 -99 -147c-34 -20 -71 -32 -110 -32c-61 0 -116 33 -116 99c0 71 51 119 98 147c34 20 71 32 110 32z" fill="currentColor"/>
</g>
<g transform="translate(18.7069, 13.6630)">
<rect x="-0.0833" y="-0.3382" width="0.1666" height="3.3382" ry="0.0571" fill="currentColor"/>
</g>
<g transform="translate(51.3607, 13.6630)">
<rect x="-0.0833" y="-2.0000" width="0.1666" height="3.3382" ry="0.0571" fill="currentColor"/>
</g>
<g transform="translate(40.7902, 13.6630)">
<rect x="-0.0833" y="0.1618" width="0.1666" height="3.1715" ry="0.0571" fill="currentColor"/>
</g>
<g transform="translate(21.7784, 12.6630)">
<path transform="scale(0.0040, -0.0040)" d="M208 139c61 0 117 -33 117 -99c0 -71 -52 -119 -99 -147c-34 -20 -71 -32 -110 -32c-61 0 -116 33 -116 99c0 71 51 119 98 147c34 20 71 32 110 32z" fill="currentColor"/>
</g>
<g transform="translate(21.8617, 13.6630)">
<rect x="-0.0833" y="-0.8382" width="0.1666" height="3.3382" ry="0.0571" fill="currentColor"/>
</g>
<g transform="translate(50.1459, 15.1630)">
<path transform="scale(0.0040, -0.0040)" d="M208 139c61 0 117 -33 117 -99c0 -71 -52 -119 -99 -147c-34 -20 -71 -32 -110 -32c-61 0 -116 33 -116 99c0 71 51 119 98 147c34 20 71 32 110 32z" fill="currentColor"/>
</g>
<g transform="translate(24.9331, 12.1630)">
<path transform="scale(0.0040, -0.0040)" d="M208 139c61 0 117 -33 117 -99c0 -71 -52 -119 -99 -147c-34 -20 -71 -32 -110 -32c-61 0 -116 33 -116 99c0 71 51 119 98 147c34 20 71 32 110 32z" fill="currentColor"/>
</g>
<g transform="translate(25.0164, 13.6630)">
<rect x="-0.0833" y="-1.3382" width="0.1666" height="3.3382" ry="0.0571" fill="currentColor"/>
</g>
<g transform="translate(48.2060, 13.6630)">
<rect x="-0.0833" y="-2.5000" width="0.1666" height="3.3382" ry="0.0571" fill="currentColor"/>
</g>
<g transform="translate(18.6236, 13.1630)">
<path transform="scale(0.0040, -0.0040)" d="M208 139c61 0 117 -33 117 -99c0 -71 -52 -119 -99 -147c-34 -20 -71 -32 -110 -32c-61 0 -116 33 -116 99c0 71 51 119 98 147c34 20 71 32 110 32z" fill="currentColor"/>
</g>
</svg>
