<svg xmlns="http://www.w3.org/2000/svg" xmlns:xlink="http://www.w3.org/1999/xlink" version="1.2" width="111.84mm" height="21.25mm" viewBox="8.5358 0.0000 63.6456 12.0950">
<style type="text/css">
<![CDATA[
tspan { white-space: pre; }
]]>
</style>
<g transform="translate(0.0000, 1.0500)">
<rect x="69.4012" y="-0.1000" width="1.9563" height="0.2000" ry="0.1000" fill="currentColor"/>
</g>
<g transform="translate(0.0000, 2.0500)">
<rect x="69.4012" y="-0.1000" width="1.9563" height="0.2000" ry="0.1000" fill="currentColor"/>
</g>
<g transform="translate(0.0000, 2.0500)">
<rect x="66.8970" y="-0.1000" width="1.9563" height="0.2000" ry="0.1000" fill="currentColor"/>
</g>
<g transform="translate(0.0000, 2.0500)">
<rect x="64.3928" y="-0.1000" width="1.9563" height="0.2000" ry="0.1000" fill="currentColor"/>
</g>
<g transform="translate(0.0000, 8.0500)">
<rect x="34.3242" y="-0.1000" width="1.9563" height="0.2000" ry="0.1000" fill="currentColor"/>
</g>
<g transform="translate(0.0000, 8.0500)">
<rect x="31.8200" y="-0.1000" width="1.9563" height="0.2000" ry="0.1000" fill="currentColor"/>
</g>
<g transform="translate(0.0000, 8.0500)">
<rect x="29.3158" y="-0.1000" width="1.9563" height="0.2000" ry="0.1000" fill="currentColor"/>
</g>
<g transform="translate(0.0000, 9.0500)">
<rect x="29.3158" y="-0.1000" width="1.9563" height="0.2000" ry="0.1000" fill="currentColor"/>
</g>
<g transform="translate(0.0000, 8.0500)">
<rect x="26.8116" y="-0.1000" width="1.9563" height="0.2000" ry="0.1000" fill="currentColor"/>
</g>
<g transform="translate(0.0000, 9.0500)">
<rect x="26.8116" y="-0.1000" width="1.9563" height="0.2000" ry="0.1000" fill="currentColor"/>
</g>
<g transform="translate(0.0000, 8.0500)">
<rect x="24.3074" y="-0.1000" width="1.9563" height="0.2000" ry="0.1000" fill="currentColor"/>
</g>
<g transform="translate(0.0000, 9.0500)">
<rect x="24.3074" y="-0.1000" width="1.9563" height="0.2000" ry="0.1000" fill="currentColor"/>
</g>
<g transform="translate(0.0000, 10.0500)">
<rect x="24.3074" y="-0.1000" width="1.9563" height="0.2000" ry="0.1000" fill="currentColor"/>
</g>
<g transform="translate(0.0000, 8.0500)">
<rect x="21.8032" y="-0.1000" width="1.9563" height="0.2000" ry="0.1000" fill="currentColor"/>
</g>
<g transform="translate(0.0000, 9.0500)">
<rect x="21.8032" y="-0.1000" width="1.9563" height="0.2000" ry="0.1000" fill="currentColor"/>
</g>
<g transform="translate(0.0000, 10.0500)">
<rect x="21.8032" y="-0.1000" width="1.9563" height="0.2000" ry="0.1000" fill="currentColor"/>
</g>
<g transform="translate(0.0000, 8.0500)">
<rect x="19.2990" y="-0.1000" width="1.9563" height="0.2000" ry="0.1000" fill="currentColor"/>
</g>
<g transform="translate(0.0000, 9.0500)">
<rect x="19.2990" y="-0.1000" width="1.9563" height="0.2000" ry="0.1000" fill="currentColor"/>
</g>
<g transform="translate(0.0000, 10.0500)">
<rect x="19.2990" y="-0.1000" width="1.9563" height="0.2000" ry="0.1000" fill="currentColor"/>
</g>
<g transform="translate(0.0000, 11.0500)">
<rect x="19.2990" y="-0.1000" width="1.9563" height="0.2000" ry="0.1000" fill="currentColor"/>
</g>
<g transform="translate(0.0000, 8.0500)">
<rect x="16.7948" y="-0.1000" width="1.9563" height="0.2000" ry="0.1000" fill="currentColor"/>
</g>
<g transform="translate(0.0000, 9.0500)">
<rect x="16.7948" y="-0.1000" width="1.9563" height="0.2000" ry="0.1000" fill="currentColor"/>
</g>
<g transform="translate(0.0000, 10.0500)">
<rect x="16.7948" y="-0.1000" width="1.9563" height="0.2000" ry="0.1000" fill="currentColor"/>
</g>
<g transform="translate(0.0000, 11.0500)">
<rect x="16.7948" y="-0.1000" width="1.9563" height="0.2000" ry="0.1000" fill="currentColor"/>
</g>
<g transform="translate(8.5358, 7.0500)">
<line stroke-linejoin="round" stroke-linecap="round" stroke-width="0.1000" stroke="currentColor" x1="0.0500" y1="0" x2="63.6456" y2="0"/>
</g>
<g transform="translate(8.5358, 6.0500)">
<line stroke-linejoin="round" stroke-linecap="round" stroke-width="0.1000" stroke="currentColor" x1="0.0500" y1="0" x2="63.6456" y2="0"/>
</g>
<g transform="translate(8.5358, 5.0500)">
<line stroke-linejoin="round" stroke-linecap="round" stroke-width="0.1000" stroke="currentColor" x1="0.0500" y1="0" x2="63.6456" y2="0"/>
</g>
<g transform="translate(8.5358, 4.0500)">
<line stroke-linejoin="round" stroke-linecap="round" stroke-width="0.1000" stroke="currentColor" x1="0.0500" y1="0" x2="63.6456" y2="0"/>
</g>
<g transform="translate(8.5358, 3.0500)">
<line stroke-linejoin="round" stroke-linecap="round" stroke-width="0.1000" stroke="currentColor" x1="0.0500" y1="0" x2="63.6456" y2="0"/>
</g>
<g transform="translate(17.1208, 11.5500)">
<path transform="scale(0.0040, -0.0040)" d="M0 -46c0 91 116 182 217 182c63 0 109 -35 109 -90c0 -87 -110 -182 -220 -182c-67 0 -106 39 -106 90z" fill="currentColor"/>
</g>
<g transform="translate(9.3358, 6.0500)">
<path transform="scale(0.0040, -0.0040)" d="M266 -635h-6c-108 0 -195 88 -195 197c0 58 53 103 112 103c54 0 95 -47 95 -103c0 -52 -43 -95 -95 -95c-11 0 -21 2 -31 6c26 -39 68 -65 117 -65h4zM401 151c19 -89 48 -242 60 -354c76 27 112 94 112 163c0 89 -60 179 -172 191zM74 28c0 -112 98 -247 278 -247
c21 0 44 2 68 6c-7 64 -29 203 -63 364c-79 -8 -124 -61 -124 -119c0 -44 25 -91 81 -123c5 -5 7 -10 7 -15c0 -11 -10 -22 -22 -22c-15 0 -126 62 -126 187c0 88 58 174 160 197c-14 58 -29 117 -46 175c-107 -121 -213 -243 -213 -403zM357 1194c28 0 143 -206 143 -361
c0 -143 -86 -255 -180 -364c21 -68 39 -138 56 -207c5 0 10 1 14 1c155 0 255 -129 255 -262c0 -113 -74 -212 -180 -245c3 -35 5 -70 5 -105c0 -19 -1 -39 -2 -58c-7 -119 -88 -225 -202 -228l1 43c93 2 153 92 159 191c1 18 2 37 2 55c0 31 -1 61 -4 92
c-28 -5 -55 -8 -80 -8c-239 0 -342 217 -342 374c0 177 131 306 248 441c-29 96 -52 170 -52 346c0 189 144 295 159 295zM247 782c0 -55 12 -115 35 -190c83 100 147 202 147 326c0 40 -6 82 -21 127c-49 -24 -161 -97 -161 -263z" fill="currentColor"/>
</g>
<g transform="translate(13.4208, 5.0500)">
<path transform="scale(0.0040, -0.0040)" d="M433 -89c0 -22 -50 -174 -183 -174c-59 0 -250 19 -250 263c0 62 18 262 250 262c116 0 176 -106 176 -163c0 -40 -30 -72 -67 -72c-31 0 -75 25 -75 75c0 38 27 77 72 77c4 0 9 0 14 -1c-28 37 -72 59 -120 59c-106 0 -113 -73 -113 -186v-51v-51
c0 -113 7 -187 113 -187c80 0 139 70 158 151c2 7 7 10 12 10c6 0 13 -4 13 -12z" fill="currentColor"/>
</g>
<g transform="translate(18.3600, 5.0500)">
<rect x="-0.0650" y="-0.8100" width="0.1300" height="7.1238" ry="0.0400" fill="currentColor"/>
</g>
<g transform="translate(38.3286, 2.2400)">
<polygon stroke-linejoin="round" stroke-linecap="round" stroke-width="0.0800" fill="currentColor" stroke="currentColor" points="17.6194 -2.2000 17.6194 -1.8000 0.0400 0.2000 0.0400 -0.2000"/>
</g>
<g transform="translate(38.3286, 3.0500)">
<polygon stroke-linejoin="round" stroke-linecap="round" stroke-width="0.0800" fill="currentColor" stroke="currentColor" points="17.6194 -2.2000 17.6194 -1.8000 0.0400 0.2000 0.0400 -0.2000"/>
</g>
<g transform="translate(38.3286, 3.8600)">
<polygon stroke-linejoin="round" stroke-linecap="round" stroke-width="0.0800" fill="currentColor" stroke="currentColor" points="17.6194 -2.2000 17.6194 -1.8000 0.0400 0.2000 0.0400 -0.2000"/>
</g>
<g transform="translate(18.2950, 4.2400)">
<polygon stroke-linejoin="round" stroke-linecap="round" stroke-width="0.0800" fill="currentColor" stroke="currentColor" points="17.6194 -0.2000 17.6194 0.2000 0.0400 0.2000 0.0400 -0.2000"/>
</g>
<g transform="translate(18.2950, 5.0500)">
<polygon stroke-linejoin="round" stroke-linecap="round" stroke-width="0.0800" fill="currentColor" stroke="currentColor" points="17.6194 -0.2000 17.6194 0.2000 0.0400 0.2000 0.0400 -0.2000"/>
</g>
<g transform="translate(18.2950, 5.8600)">
<polygon stroke-linejoin="round" stroke-linecap="round" stroke-width="0.0800" fill="currentColor" stroke="currentColor" points="17.6194 -0.2000 17.6194 0.2000 0.0400 0.2000 0.0400 -0.2000"/>
</g>
<g transform="translate(19.6250, 11.0500)">
<path transform="scale(0.0040, -0.0040)" d="M0 -46c0 91 116 182 217 182c63 0 109 -35 109 -90c0 -87 -110 -182 -220 -182c-67 0 -106 39 -106 90z" fill="currentColor"/>
</g>
<g transform="translate(20.8642, 5.0500)">
<rect x="-0.0650" y="-0.8100" width="0.1300" height="6.6238" ry="0.0400" fill="currentColor"/>
</g>
<g transform="translate(22.1292, 10.5500)">
<path transform="scale(0.0040, -0.0040)" d="M0 -46c0 91 116 182 217 182c63 0 109 -35 109 -90c0 -87 -110 -182 -220 -182c-67 0 -106 39 -106 90z" fill="currentColor"/>
</g>
<g transform="translate(23.3684, 5.0500)">
<rect x="-0.0650" y="-0.8100" width="0.1300" height="6.1238" ry="0.0400" fill="currentColor"/>
</g>
<g transform="translate(69.8573, 5.2600)">
<path transform="scale(0.0040, -0.0040)" d="M0 205c89 50 206 128 206 228c0 22 -3 44 -8 66c-77 -88 -198 -157 -198 -279v-15zM238 939c24 0 29 -44 29 -75c0 -38 -12 -70 -30 -100c16 -38 24 -79 24 -120c0 -38 -12 -70 -30 -100c11 -36 17 -73 17 -111c0 -178 -248 -255 -248 -433h-16v770h16v-125
c97 44 224 117 224 219c0 29 -9 45 -9 53c0 14 11 22 23 22zM0 425c95 45 219 118 219 219c0 27 -5 54 -14 79c-79 -90 -205 -158 -205 -283v-15z" fill="currentColor"/>
</g>
<g transform="translate(24.6334, 10.0500)">
<path transform="scale(0.0040, -0.0040)" d="M0 -46c0 91 116 182 217 182c63 0 109 -35 109 -90c0 -87 -110 -182 -220 -182c-67 0 -106 39 -106 90z" fill="currentColor"/>
</g>
<g transform="translate(25.8726, 5.0500)">
<rect x="-0.0650" y="-0.8100" width="0.1300" height="5.6238" ry="0.0400" fill="currentColor"/>
</g>
<g transform="translate(27.1376, 9.5500)">
<path transform="scale(0.0040, -0.0040)" d="M0 -46c0 91 116 182 217 182c63 0 109 -35 109 -90c0 -87 -110 -182 -220 -182c-67 0 -106 39 -106 90z" fill="currentColor"/>
</g>
<g transform="translate(28.3768, 5.0500)">
<rect x="-0.0650" y="-0.8100" width="0.1300" height="5.1238" ry="0.0400" fill="currentColor"/>
</g>
<g transform="translate(69.7923, 5.0500)">
<rect x="-0.0650" y="-3.8138" width="0.1300" height="4.0638" ry="0.0400" fill="currentColor"/>
</g>
<g transform="translate(29.6418, 9.0500)">
<path transform="scale(0.0040, -0.0040)" d="M0 -46c0 91 116 182 217 182c63 0 109 -35 109 -90c0 -87 -110 -182 -220 -182c-67 0 -106 39 -106 90z" fill="currentColor"/>
</g>
<g transform="translate(30.8810, 5.0500)">
<rect x="-0.0650" y="-0.8100" width="0.1300" height="4.6238" ry="0.0400" fill="currentColor"/>
</g>
<g transform="translate(69.7273, 1.0500)">
<path transform="scale(0.0040, -0.0040)" d="M0 -46c0 91 116 182 217 182c63 0 109 -35 109 -90c0 -87 -110 -182 -220 -182c-67 0 -106 39 -106 90z" fill="currentColor"/>
</g>
<g transform="translate(32.1460, 8.5500)">
<path transform="scale(0.0040, -0.0040)" d="M0 -46c0 91 116 182 217 182c63 0 109 -35 109 -90c0 -87 -110 -182 -220 -182c-67 0 -106 39 -106 90z" fill="currentColor"/>
</g>
<g transform="translate(33.3852, 5.0500)">
<rect x="-0.0650" y="-0.8100" width="0.1300" height="4.1238" ry="0.0400" fill="currentColor"/>
</g>
<g transform="translate(34.6502, 8.0500)">
<path transform="scale(0.0040, -0.0040)" d="M0 -46c0 91 116 182 217 182c63 0 109 -35 109 -90c0 -87 -110 -182 -220 -182c-67 0 -106 39 -106 90z" fill="currentColor"/>
</g>
<g transform="translate(35.8894, 5.0500)">
<rect x="-0.0650" y="-0.8100" width="0.1300" height="3.6238" ry="0.0400" fill="currentColor"/>
</g>
<g transform="translate(37.1544, 7.5500)">
<path transform="scale(0.0040, -0.0040)" d="M0 -46c0 91 116 182 217 182c63 0 109 -35 109 -90c0 -87 -110 -182 -220 -182c-67 0 -106 39 -106 90z" fill="currentColor"/>
</g>
<g transform="translate(38.3936, 5.0500)">
<rect x="-0.0650" y="-2.8174" width="0.1300" height="5.1312" ry="0.0400" fill="currentColor"/>
</g>
<g transform="translate(67.3531, 5.7600)">
<path transform="scale(0.0040, -0.0040)" d="M0 205c89 50 206 128 206 228c0 22 -3 44 -8 66c-77 -88 -198 -157 -198 -279v-15zM238 939c24 0 29 -44 29 -75c0 -38 -12 -70 -30 -100c16 -38 24 -79 24 -120c0 -38 -12 -70 -30 -100c11 -36 17 -73 17 -111c0 -178 -248 -255 -248 -433h-16v770h16v-125
c97 44 224 117 224 219c0 29 -9 45 -9 53c0 14 11 22 23 22zM0 425c95 45 219 118 219 219c0 27 -5 54 -14 79c-79 -90 -205 -158 -205 -283v-15z" fill="currentColor"/>
</g>
<g transform="translate(39.6586, 7.0500)">
<path transform="scale(0.0040, -0.0040)" d="M0 -46c0 91 116 182 217 182c63 0 109 -35 109 -90c0 -87 -110 -182 -220 -182c-67 0 -106 39 -106 90z" fill="currentColor"/>
</g>
<g transform="translate(40.8978, 5.0500)">
<rect x="-0.0650" y="-3.1010" width="0.1300" height="4.9148" ry="0.0400" fill="currentColor"/>
</g>
<g transform="translate(42.1628, 6.5500)">
<path transform="scale(0.0040, -0.0040)" d="M0 -46c0 91 116 182 217 182c63 0 109 -35 109 -90c0 -87 -110 -182 -220 -182c-67 0 -106 39 -106 90z" fill="currentColor"/>
</g>
<g transform="translate(43.4020, 5.0500)">
<rect x="-0.0650" y="-3.3846" width="0.1300" height="4.6984" ry="0.0400" fill="currentColor"/>
</g>
<g transform="translate(67.2881, 5.0500)">
<rect x="-0.0650" y="-3.3138" width="0.1300" height="4.0638" ry="0.0400" fill="currentColor"/>
</g>
<g transform="translate(44.6670, 6.0500)">
<path transform="scale(0.0040, -0.0040)" d="M0 -46c0 91 116 182 217 182c63 0 109 -35 109 -90c0 -87 -110 -182 -220 -182c-67 0 -106 39 -106 90z" fill="currentColor"/>
</g>
<g transform="translate(45.9062, 5.0500)">
<rect x="-0.0650" y="-3.6682" width="0.1300" height="4.4820" ry="0.0400" fill="currentColor"/>
</g>
<g transform="translate(67.2231, 1.5500)">
<path transform="scale(0.0040, -0.0040)" d="M0 -46c0 91 116 182 217 182c63 0 109 -35 109 -90c0 -87 -110 -182 -220 -182c-67 0 -106 39 -106 90z" fill="currentColor"/>
</g>
<g transform="translate(47.1712, 5.5500)">
<path transform="scale(0.0040, -0.0040)" d="M0 -46c0 91 116 182 217 182c63 0 109 -35 109 -90c0 -87 -110 -182 -220 -182c-67 0 -106 39 -106 90z" fill="currentColor"/>
</g>
<g transform="translate(48.4104, 5.0500)">
<rect x="-0.0650" y="-3.9518" width="0.1300" height="4.2656" ry="0.0400" fill="currentColor"/>
</g>
<g transform="translate(49.6754, 5.0500)">
<path transform="scale(0.0040, -0.0040)" d="M0 -46c0 91 116 182 217 182c63 0 109 -35 109 -90c0 -87 -110 -182 -220 -182c-67 0 -106 39 -106 90z" fill="currentColor"/>
</g>
<g transform="translate(50.9146, 5.0500)">
<rect x="-0.0650" y="-4.2354" width="0.1300" height="4.0492" ry="0.0400" fill="currentColor"/>
</g>
<g transform="translate(52.1796, 4.5500)">
<path transform="scale(0.0040, -0.0040)" d="M0 -46c0 91 116 182 217 182c63 0 109 -35 109 -90c0 -87 -110 -182 -220 -182c-67 0 -106 39 -106 90z" fill="currentColor"/>
</g>
<g transform="translate(53.4188, 5.0500)">
<rect x="-0.0650" y="-4.5190" width="0.1300" height="3.8328" ry="0.0400" fill="currentColor"/>
</g>
<g transform="translate(64.8489, 6.2600)">
<path transform="scale(0.0040, -0.0040)" d="M0 205c89 50 206 128 206 228c0 22 -3 44 -8 66c-77 -88 -198 -157 -198 -279v-15zM238 939c24 0 29 -44 29 -75c0 -38 -12 -70 -30 -100c16 -38 24 -79 24 -120c0 -38 -12 -70 -30 -100c11 -36 17 -73 17 -111c0 -178 -248 -255 -248 -433h-16v770h16v-125
c97 44 224 117 224 219c0 29 -9 45 -9 53c0 14 11 22 23 22zM0 425c95 45 219 118 219 219c0 27 -5 54 -14 79c-79 -90 -205 -158 -205 -283v-15z" fill="currentColor"/>
</g>
<g transform="translate(54.6838, 4.0500)">
<path transform="scale(0.0040, -0.0040)" d="M0 -46c0 91 116 182 217 182c63 0 109 -35 109 -90c0 -87 -110 -182 -220 -182c-67 0 -106 39 -106 90z" fill="currentColor"/>
</g>
<g transform="translate(55.9230, 5.0500)">
<rect x="-0.0650" y="-4.8026" width="0.1300" height="3.6164" ry="0.0400" fill="currentColor"/>
</g>
<g transform="translate(57.2063, 3.5500)">
<path transform="scale(0.0040, -0.0040)" d="M0 -46c0 91 116 182 217 182c63 0 109 -35 109 -90c0 -87 -110 -182 -220 -182c-67 0 -106 39 -106 90z" fill="currentColor"/>
</g>
<g transform="translate(57.2713, 5.0500)">
<rect x="-0.0650" y="-1.3138" width="0.1300" height="4.0638" ry="0.0400" fill="currentColor"/>
</g>
<g transform="translate(57.3363, 7.7600)">
<path transform="scale(0.0040, -0.0040)" d="M0 205c89 50 206 128 206 228c0 22 -3 44 -8 66c-77 -88 -198 -157 -198 -279v-15zM238 939c24 0 29 -44 29 -75c0 -38 -12 -70 -30 -100c16 -38 24 -79 24 -120c0 -38 -12 -70 -30 -100c11 -36 17 -73 17 -111c0 -178 -248 -255 -248 -433h-16v770h16v-125
c97 44 224 117 224 219c0 29 -9 45 -9 53c0 14 11 22 23 22zM0 425c95 45 219 118 219 219c0 27 -5 54 -14 79c-79 -90 -205 -158 -205 -283v-15z" fill="currentColor"/>
</g>
<g transform="translate(64.7839, 5.0500)">
<rect x="-0.0650" y="-2.8138" width="0.1300" height="4.0638" ry="0.0400" fill="currentColor"/>
</g>
<g transform="translate(59.7105, 3.0500)">
<path transform="scale(0.0040, -0.0040)" d="M0 -46c0 91 116 182 217 182c63 0 109 -35 109 -90c0 -87 -110 -182 -220 -182c-67 0 -106 39 -106 90z" fill="currentColor"/>
</g>
<g transform="translate(59.7755, 5.0500)">
<rect x="-0.0650" y="-1.8138" width="0.1300" height="4.0638" ry="0.0400" fill="currentColor"/>
</g>
<g transform="translate(59.8405, 7.2600)">
<path transform="scale(0.0040, -0.0040)" d="M0 205c89 50 206 128 206 228c0 22 -3 44 -8 66c-77 -88 -198 -157 -198 -279v-15zM238 939c24 0 29 -44 29 -75c0 -38 -12 -70 -30 -100c16 -38 24 -79 24 -120c0 -38 -12 -70 -30 -100c11 -36 17 -73 17 -111c0 -178 -248 -255 -248 -433h-16v770h16v-125
c97 44 224 117 224 219c0 29 -9 45 -9 53c0 14 11 22 23 22zM0 425c95 45 219 118 219 219c0 27 -5 54 -14 79c-79 -90 -205 -158 -205 -283v-15z" fill="currentColor"/>
</g>
<g transform="translate(64.7189, 2.0500)">
<path transform="scale(0.0040, -0.0040)" d="M0 -46c0 91 116 182 217 182c63 0 109 -35 109 -90c0 -87 -110 -182 -220 -182c-67 0 -106 39 -106 90z" fill="currentColor"/>
</g>
<g transform="translate(62.2147, 2.5500)">
<path transform="scale(0.0040, -0.0040)" d="M0 -46c0 91 116 182 217 182c63 0 109 -35 109 -90c0 -87 -110 -182 -220 -182c-67 0 -106 39 -106 90z" fill="currentColor"/>
</g>
<g transform="translate(62.2797, 5.0500)">
<rect x="-0.0650" y="-2.3138" width="0.1300" height="4.0638" ry="0.0400" fill="currentColor"/>
</g>
<g transform="translate(62.3447, 6.7600)">
<path transform="scale(0.0040, -0.0040)" d="M0 205c89 50 206 128 206 228c0 22 -3 44 -8 66c-77 -88 -198 -157 -198 -279v-15zM238 939c24 0 29 -44 29 -75c0 -38 -12 -70 -30 -100c16 -38 24 -79 24 -120c0 -38 -12 -70 -30 -100c11 -36 17 -73 17 -111c0 -178 -248 -255 -248 -433h-16v770h16v-125
c97 44 224 117 224 219c0 29 -9 45 -9 53c0 14 11 22 23 22zM0 425c95 45 219 118 219 219c0 27 -5 54 -14 79c-79 -90 -205 -158 -205 -283v-15z" fill="currentColor"/>
</g>
</svg>
