<svg xmlns="http://www.w3.org/2000/svg" xmlns:xlink="http://www.w3.org/1999/xlink" version="1.2" width="210.00mm" height="297.00mm" viewBox="0 0 132.7795 187.7882">
<style text="style/css">
<![CDATA[
tspan { white-space: pre; }
]]>
</style>
<!-- Page: 1/1 -->
<g transform="scale(1.0000, 1.0000)">
<path transform="translate(16.5600, 8.8943) scale(0.0040, -0.0040)" d="M215 137c57 0 111 -29 111 -92c0 -71 -54 -120 -101 -148c-35 -21 -74 -34 -114 -34c-57 0 -111 29 -111 92c0 71 54 120 101 148c35 21 74 34 114 34z" fill="currentColor"/>
<path transform="translate(19.0676, 8.8943) scale(0.0040, -0.0040)" d="M0 0c0 31 25 56 56 56s55 -25 55 -56s-24 -56 -55 -56s-56 25 -56 56z" fill="currentColor"/>
<rect transform="translate(17.7931, 8.8943)" x="-0.0697" y="-2.6794" width="0.1395" height="2.5000" ry="0.0444" fill="currentColor"/>
<path transform="translate(17.8628, 6.2594) scale(0.0040, -0.0040)" d="M0 -213c0 -116 88 -204 149 -301c5 14 8 30 8 45c0 95 -89 189 -157 256zM0 0c0 -177 201 -292 201 -469c0 -33 -9 -65 -23 -95c18 -36 29 -75 29 -117c0 -63 -15 -126 -41 -183c-5 -8 -13 -12 -21 -12c-14 0 -27 11 -24 28c26 52 42 109 42 167c0 96 -93 189 -163 256
v-75h-18v500h18z" fill="currentColor"/>
</g>
<g transform="scale(1.0000, 1.0000)">
<text transform="translate(20.1135, 8.8943)" font-family="serif" font-size="2.2000" text-anchor="start" fill="currentColor">
<tspan>=</tspan>
</text>
</g>
<g transform="scale(1.0000, 1.0000)">
</g>
<g transform="scale(1.0000, 1.0000)">
<line transform="translate(23.1288, 4.9391)" stroke-linejoin="round" stroke-linecap="round" stroke-width="0.1717" stroke="currentColor" x1="4.3367" y1="-0.0000" x2="4.3367" y2="-0.0000"/>
<line transform="translate(23.1288, 4.9391)" stroke-linejoin="round" stroke-linecap="round" stroke-width="0.1717" stroke="currentColor" x1="-1.0000" y1="-0.0000" x2="-1.0000" y2="0.7000"/>
<line transform="translate(23.1288, 4.9391)" stroke-linejoin="round" stroke-linecap="round" stroke-width="0.1717" stroke="currentColor" x1="4.3367" y1="-0.0000" x2="3.4789" y2="-0.0000"/>
<line transform="translate(23.1288, 4.9391)" stroke-linejoin="round" stroke-linecap="round" stroke-width="0.1717" stroke="currentColor" x1="-1.0000" y1="-0.0000" x2="-0.4422" y2="-0.0000"/>
<text transform="translate(23.0865, 5.6789)" font-family="serif" font-style="italic" font-size="2.2000" text-anchor="start" fill="currentColor">
<tspan>3:2</tspan>
</text>
<path transform="translate(21.9655, 8.8943) scale(0.0040, -0.0040)" d="M215 137c57 0 111 -29 111 -92c0 -71 -54 -120 -101 -148c-35 -21 -74 -34 -114 -34c-57 0 -111 29 -111 92c0 71 54 120 101 148c35 21 74 34 114 34z" fill="currentColor"/>
<rect transform="translate(23.1985, 8.8943)" x="-0.0697" y="-2.6794" width="0.1395" height="2.5000" ry="0.0444" fill="currentColor"/>
<path transform="translate(23.2683, 6.2594) scale(0.0040, -0.0040)" d="M0 0c0 -197 207 -335 207 -532c0 -71 -15 -141 -41 -207c-5 -8 -13 -12 -21 -12c-14 0 -27 11 -24 28c26 60 42 125 42 191c0 103 -93 207 -163 282h-18v250h18z" fill="currentColor"/>
</g>
</svg>
