<svg xmlns="http://www.w3.org/2000/svg" xmlns:xlink="http://www.w3.org/1999/xlink" version="1.2" width="210.00mm" height="297.00mm" viewBox="0 0 119.5016 169.0094">
<style type="text/css">
<![CDATA[
tspan { white-space: pre; }
]]>
</style>
<!-- Page: 1/1 -->
<g transform="translate(11.3811, 16.3752)">
<line stroke-linejoin="round" stroke-linecap="round" stroke-width="0.1000" stroke="currentColor" x1="0.0500" y1="0" x2="86.8500" y2="0"/>
</g>
<g transform="translate(98.0911, 16.3752)">
<rect x="0.0000" y="-1.0500" width="0.1900" height="2.1000" ry="0.0000" fill="currentColor"/>
</g>
<g transform="translate(54.1911, 16.3752)">
<rect x="0.0000" y="-1.0500" width="0.1900" height="2.1000" ry="0.0000" fill="currentColor"/>
</g>
<g transform="translate(45.5203, 16.3752)">
<rect x="-0.0650" y="-3.1900" width="0.1300" height="3.0039" ry="0.0400" fill="currentColor"/>
</g>
<g transform="translate(44.2811, 16.3752)">
<path transform="scale(0.0040, -0.0040)" d="M218 136c55 0 108 -28 108 -89c0 -71 -55 -121 -102 -149c-35 -21 -75 -34 -116 -34c-55 0 -108 28 -108 89c0 71 55 121 102 149c35 21 75 34 116 34z" fill="currentColor"/>
</g>
<g transform="translate(31.1203, 16.3752)">
<rect x="-0.0650" y="-3.3333" width="0.1300" height="3.1472" ry="0.0400" fill="currentColor"/>
</g>
<g transform="translate(29.8811, 16.3752)">
<path transform="scale(0.0040, -0.0040)" d="M218 136c55 0 108 -28 108 -89c0 -71 -55 -121 -102 -149c-35 -21 -75 -34 -116 -34c-55 0 -108 28 -108 89c0 71 55 121 102 149c35 21 75 34 116 34z" fill="currentColor"/>
</g>
<g transform="translate(27.5853, 13.0402)">
<path transform="scale(0.0040, -0.0040)" d="M0 0c0 -177 201 -293 201 -470c0 -33 -9 -65 -23 -95c18 -37 29 -75 29 -117c0 -63 -15 -125 -41 -183c-5 -8 -13 -12 -20 -12c-13 0 -26 11 -23 27c26 52 42 110 42 168c0 97 -94 190 -165 257v-75h-16v500h16zM151 -517c5 15 8 31 8 47c0 96 -91 190 -159 257
c0 -118 90 -206 151 -304z" fill="currentColor"/>
</g>
<g transform="translate(27.5203, 16.3752)">
<rect x="-0.0650" y="-3.3750" width="0.1300" height="3.1889" ry="0.0400" fill="currentColor"/>
</g>
<g transform="translate(26.2811, 16.3752)">
<path transform="scale(0.0040, -0.0040)" d="M218 136c55 0 108 -28 108 -89c0 -71 -55 -121 -102 -149c-35 -21 -75 -34 -116 -34c-55 0 -108 28 -108 89c0 71 55 121 102 149c35 21 75 34 116 34z" fill="currentColor"/>
</g>
<g transform="translate(11.8811, 16.3752)">
<path stroke-width="0.0800" stroke-linejoin="round" stroke-linecap="round" stroke="currentColor" fill="currentColor" d="M0.8521 0.7500C2.2382 1.7236 13.4660 1.7236 14.8521 0.7500L14.8521 0.7500C13.4660 1.6036 2.2382 1.6036 0.8521 0.7500z"/>
</g>
<g transform="translate(55.0811, 16.3752)">
<path transform="scale(0.0040, -0.0040)" d="M218 136c55 0 108 -28 108 -89c0 -71 -55 -121 -102 -149c-35 -21 -75 -34 -116 -34c-55 0 -108 28 -108 89c0 71 55 121 102 149c35 21 75 34 116 34z" fill="currentColor"/>
</g>
<g transform="translate(29.8811, 16.3752)">
<path stroke-width="0.0800" stroke-linejoin="round" stroke-linecap="round" stroke="currentColor" fill="currentColor" d="M0.8521 0.7500C2.2382 1.7236 13.4660 1.7236 14.8521 0.7500L14.8521 0.7500C13.4660 1.6036 2.2382 1.6036 0.8521 0.7500z"/>
</g>
<g transform="translate(45.4553, 13.1852)">
<polygon stroke-linejoin="round" stroke-linecap="round" stroke-width="0.0800" fill="currentColor" stroke="currentColor" points="3.6900 -0.2000 3.6900 0.2000 0.0400 0.2000 0.0400 -0.2000"/>
</g>
<g transform="translate(45.4553, 13.9952)">
<polygon stroke-linejoin="round" stroke-linecap="round" stroke-width="0.0800" fill="currentColor" stroke="currentColor" points="1.1250 -0.2000 1.1250 0.2000 0.0400 0.2000 0.0400 -0.2000"/>
</g>
<g transform="translate(47.8811, 16.3752)">
<path stroke-width="0.0800" stroke-linejoin="round" stroke-linecap="round" stroke="currentColor" fill="currentColor" d="M0.8521 0.7500C1.8983 1.6355 6.6060 1.6355 7.6521 0.7500L7.6521 0.7500C6.6060 1.5155 1.8983 1.5155 0.8521 0.7500z"/>
</g>
<g transform="translate(65.8811, 16.3752)">
<path stroke-width="0.0800" stroke-linejoin="round" stroke-linecap="round" stroke="currentColor" fill="currentColor" d="M0.8521 0.7500C2.2382 1.7236 13.4660 1.7236 14.8521 0.7500L14.8521 0.7500C13.4660 1.6036 2.2382 1.6036 0.8521 0.7500z"/>
</g>
<g transform="translate(57.5985, 15.8752)">
<path transform="scale(0.0040, -0.0040)" d="M0 0c0 31 25 56 56 56s56 -25 56 -56s-25 -56 -56 -56s-56 25 -56 56z" fill="currentColor"/>
</g>
<g transform="translate(54.3447, 6.3752)">
<path transform="scale(0.0045, -0.0045)" d="M148 478c-28 0 -58 -9 -58 -33c0 -22 36 -25 36 -47c0 -32 -25 -58 -57 -58s-58 26 -58 58c0 64 67 102 137 102c90 0 168 -33 168 -114c0 -43 -4 -83 -42 -101c-9 -4 -14 -13 -14 -21s5 -17 14 -21c41 -19 56 -57 56 -103c0 -91 -78 -140 -177 -140
c-78 0 -153 41 -153 112c0 36 30 66 66 66s65 -30 65 -66c0 -25 -40 -28 -40 -53c0 -26 32 -37 62 -37c49 0 64 61 64 118v7c0 58 -1 103 -52 103h-80c-9 0 -14 7 -14 14s5 14 14 14h80c52 0 52 48 52 108c0 55 -19 92 -69 92z" fill="currentColor"/>
</g>
<g transform="translate(54.1911, 8.6628)">
<path transform="scale(0.0045, -0.0045)" d="M198 113h113c0 -47 28 -91 71 -91c7 0 11 -5 11 -11s-4 -11 -11 -11c-43 0 -84 13 -127 13s-85 -13 -128 -13c-7 0 -11 5 -11 11s4 11 11 11c43 0 71 44 71 91zM206 312c22 14 44 28 59 49c11 15 17 33 25 50c4 10 21 6 21 -8v-250h71c9 0 14 -7 14 -14s-5 -14 -14 -14
h-71v-12h-113v12h-170c-22 0 -30 13 -30 22c0 2 1 5 2 6c81 94 141 207 141 331c0 10 8 19 16 16c22 -7 45 -13 69 -13s47 6 69 13c13 4 22 -9 16 -16l-283 -331h170v138c0 8 1 17 8 21z" fill="currentColor"/>
</g>
<g transform="translate(49.1203, 16.3752)">
<rect x="-0.0650" y="-3.1900" width="0.1300" height="3.0039" ry="0.0400" fill="currentColor"/>
</g>
<g transform="translate(47.8811, 16.3752)">
<path transform="scale(0.0040, -0.0040)" d="M218 136c55 0 108 -28 108 -89c0 -71 -55 -121 -102 -149c-35 -21 -75 -34 -116 -34c-55 0 -108 28 -108 89c0 71 55 121 102 149c35 21 75 34 116 34z" fill="currentColor"/>
</g>
<g transform="translate(56.3853, 13.0402)">
<path transform="scale(0.0040, -0.0040)" d="M0 0v-250h-16v250h16zM0 0c0 -197 207 -336 207 -533c0 -71 -15 -141 -41 -207c-5 -8 -13 -12 -20 -12c-13 0 -26 11 -23 27c26 61 42 126 42 192c0 103 -94 208 -165 283v250z" fill="currentColor"/>
</g>
<g transform="translate(56.3203, 16.3752)">
<rect x="-0.0650" y="-3.3750" width="0.1300" height="3.1889" ry="0.0400" fill="currentColor"/>
</g>
<g transform="translate(13.1203, 16.3752)">
<rect x="-0.0650" y="-3.3333" width="0.1300" height="3.1472" ry="0.0400" fill="currentColor"/>
</g>
<g transform="translate(11.8811, 16.3752)">
<path transform="scale(0.0040, -0.0040)" d="M218 136c55 0 108 -28 108 -89c0 -71 -55 -121 -102 -149c-35 -21 -75 -34 -116 -34c-55 0 -108 28 -108 89c0 71 55 121 102 149c35 21 75 34 116 34z" fill="currentColor"/>
</g>
<g transform="translate(11.5347, 6.3752)">
<path transform="scale(0.0045, -0.0045)" d="M148 478c-28 0 -58 -9 -58 -33c0 -22 36 -25 36 -47c0 -32 -25 -58 -57 -58s-58 26 -58 58c0 64 67 102 137 102c90 0 168 -33 168 -114c0 -43 -4 -83 -42 -101c-9 -4 -14 -13 -14 -21s5 -17 14 -21c41 -19 56 -57 56 -103c0 -91 -78 -140 -177 -140
c-78 0 -153 41 -153 112c0 36 30 66 66 66s65 -30 65 -66c0 -25 -40 -28 -40 -53c0 -26 32 -37 62 -37c49 0 64 61 64 118v7c0 58 -1 103 -52 103h-80c-9 0 -14 7 -14 14s5 14 14 14h80c52 0 52 48 52 108c0 55 -19 92 -69 92z" fill="currentColor"/>
</g>
<g transform="translate(11.3811, 8.6628)">
<path transform="scale(0.0045, -0.0045)" d="M198 113h113c0 -47 28 -91 71 -91c7 0 11 -5 11 -11s-4 -11 -11 -11c-43 0 -84 13 -127 13s-85 -13 -128 -13c-7 0 -11 5 -11 11s4 11 11 11c43 0 71 44 71 91zM206 312c22 14 44 28 59 49c11 15 17 33 25 50c4 10 21 6 21 -8v-250h71c9 0 14 -7 14 -14s-5 -14 -14 -14
h-71v-12h-113v12h-170c-22 0 -30 13 -30 22c0 2 1 5 2 6c81 94 141 207 141 331c0 10 8 19 16 16c22 -7 45 -13 69 -13s47 6 69 13c13 4 22 -9 16 -16l-283 -331h170v138c0 8 1 17 8 21z" fill="currentColor"/>
</g>
<g transform="translate(83.8811, 16.3752)">
<path transform="scale(0.0040, -0.0040)" d="M218 136c55 0 108 -28 108 -89c0 -71 -55 -121 -102 -149c-35 -21 -75 -34 -116 -34c-55 0 -108 28 -108 89c0 71 55 121 102 149c35 21 75 34 116 34z" fill="currentColor"/>
</g>
<g transform="translate(81.5853, 13.0402)">
<path transform="scale(0.0040, -0.0040)" d="M0 0c0 -177 201 -293 201 -470c0 -33 -9 -65 -23 -95c18 -37 29 -75 29 -117c0 -63 -15 -125 -41 -183c-5 -8 -13 -12 -20 -12c-13 0 -26 11 -23 27c26 52 42 110 42 168c0 97 -94 190 -165 257v-75h-16v500h16zM151 -517c5 15 8 31 8 47c0 96 -91 190 -159 257
c0 -118 90 -206 151 -304z" fill="currentColor"/>
</g>
<g transform="translate(81.5203, 16.3752)">
<rect x="-0.0650" y="-3.3750" width="0.1300" height="3.1889" ry="0.0400" fill="currentColor"/>
</g>
<g transform="translate(80.2811, 16.3752)">
<path transform="scale(0.0040, -0.0040)" d="M218 136c55 0 108 -28 108 -89c0 -71 -55 -121 -102 -149c-35 -21 -75 -34 -116 -34c-55 0 -108 28 -108 89c0 71 55 121 102 149c35 21 75 34 116 34z" fill="currentColor"/>
</g>
<g transform="translate(85.1203, 16.3752)">
<rect x="-0.0650" y="-3.3333" width="0.1300" height="3.1472" ry="0.0400" fill="currentColor"/>
</g>
<g transform="translate(67.1203, 16.3752)">
<rect x="-0.0650" y="-3.3333" width="0.1300" height="3.1472" ry="0.0400" fill="currentColor"/>
</g>
<g transform="translate(65.8811, 16.3752)">
<path transform="scale(0.0040, -0.0040)" d="M218 136c55 0 108 -28 108 -89c0 -71 -55 -121 -102 -149c-35 -21 -75 -34 -116 -34c-55 0 -108 28 -108 89c0 71 55 121 102 149c35 21 75 34 116 34z" fill="currentColor"/>
</g>
</svg>
