<svg xmlns="http://www.w3.org/2000/svg" xmlns:xlink="http://www.w3.org/1999/xlink" version="1.2" width="145.13mm" height="16.48mm" viewBox="0.0000 -0.0000 91.7641 10.4210">
<style text="style/css">
<![CDATA[
tspan { white-space: pre; }
]]>
</style>
<g color="rgb(49.8039%, 49.8039%, 49.8039%)">
<line transform="translate(0.0000, 8.3724)" stroke-linejoin="round" stroke-linecap="round" stroke-width="0.1073" stroke="currentColor" x1="0.0537" y1="-0.0000" x2="91.4246" y2="-0.0000"/>
</g>
<rect transform="translate(57.0435, 8.3724)" x="0.0000" y="-1.0537" width="0.2039" height="2.1073" ry="0.0000" fill="currentColor"/>
<path transform="translate(37.5934, 8.3724) scale(0.0040, -0.0040)" d="M215 137c57 0 111 -29 111 -92c0 -71 -54 -120 -101 -148c-35 -21 -74 -34 -114 -34c-57 0 -111 29 -111 92c0 71 54 120 101 148c35 21 74 34 114 34z" fill="currentColor"/>
<rect transform="translate(38.8264, 8.3724)" x="-0.0697" y="-3.0000" width="0.1395" height="2.8206" ry="0.0444" fill="currentColor"/>
<path transform="translate(39.1962, 8.3724) scale(0.0040, -0.0040)" d="M215 137c57 0 111 -29 111 -92c0 -71 -54 -120 -101 -148c-35 -21 -74 -34 -114 -34c-57 0 -111 29 -111 92c0 71 54 120 101 148c35 21 74 34 114 34z" fill="currentColor"/>
<rect transform="translate(40.4292, 8.3724)" x="-0.0697" y="-3.0000" width="0.1395" height="2.8206" ry="0.0444" fill="currentColor"/>
<path transform="translate(40.7990, 8.3724) scale(0.0040, -0.0040)" d="M215 137c57 0 111 -29 111 -92c0 -71 -54 -120 -101 -148c-35 -21 -74 -34 -114 -34c-57 0 -111 29 -111 92c0 71 54 120 101 148c35 21 74 34 114 34z" fill="currentColor"/>
<rect transform="translate(42.0320, 8.3724)" x="-0.0697" y="-3.0000" width="0.1395" height="2.8206" ry="0.0444" fill="currentColor"/>
<path transform="translate(42.6323, 8.3724) scale(0.0040, -0.0040)" d="M215 137c57 0 111 -29 111 -92c0 -71 -54 -120 -101 -148c-35 -21 -74 -34 -114 -34c-57 0 -111 29 -111 92c0 71 54 120 101 148c35 21 74 34 114 34z" fill="currentColor"/>
<rect transform="translate(43.8654, 8.3724)" x="-0.0697" y="-3.3333" width="0.1395" height="3.1540" ry="0.0444" fill="currentColor"/>
<path transform="translate(50.6323, 8.3724) scale(0.0040, -0.0040)" d="M215 137c57 0 111 -29 111 -92c0 -71 -54 -120 -101 -148c-35 -21 -74 -34 -114 -34c-57 0 -111 29 -111 92c0 71 54 120 101 148c35 21 74 34 114 34z" fill="currentColor"/>
<rect transform="translate(51.8654, 8.3724)" x="-0.0697" y="-4.3213" width="0.1395" height="4.1420" ry="0.0444" fill="currentColor"/>
<rect transform="translate(13.8264, 8.3724)" x="-0.0697" y="-3.3750" width="0.1395" height="3.1956" ry="0.0444" fill="currentColor"/>
<line transform="translate(5.7567, 1.8836)" stroke-linejoin="round" stroke-linecap="round" stroke-width="0.1717" stroke="currentColor" x1="10.0367" y1="-0.0000" x2="10.0367" y2="0.7000"/>
<line transform="translate(5.7567, 1.8836)" stroke-linejoin="round" stroke-linecap="round" stroke-width="0.1717" stroke="currentColor" x1="-0.2000" y1="-0.0000" x2="-0.2000" y2="0.7000"/>
<line transform="translate(5.7567, 1.8836)" stroke-linejoin="round" stroke-linecap="round" stroke-width="0.1717" stroke="currentColor" x1="10.0367" y1="-0.0000" x2="6.6754" y2="-0.0000"/>
<line transform="translate(5.7567, 1.8836)" stroke-linejoin="round" stroke-linecap="round" stroke-width="0.1717" stroke="currentColor" x1="-0.2000" y1="-0.0000" x2="3.3613" y2="-0.0000"/>
<path transform="translate(13.8962, 5.0418) scale(0.0040, -0.0040)" d="M0 0c0 -197 207 -335 207 -532c0 -71 -15 -141 -41 -207c-5 -8 -13 -12 -21 -12c-14 0 -27 11 -24 28c26 60 42 125 42 191c0 103 -93 207 -163 282h-18v250h18z" fill="currentColor"/>
<path transform="translate(17.0934, 8.3724) scale(0.0040, -0.0040)" d="M215 137c57 0 111 -29 111 -92c0 -71 -54 -120 -101 -148c-35 -21 -74 -34 -114 -34c-57 0 -111 29 -111 92c0 71 54 120 101 148c35 21 74 34 114 34z" fill="currentColor"/>
<rect transform="translate(18.3264, 8.3724)" x="-0.0697" y="-3.3333" width="0.1395" height="3.1540" ry="0.0444" fill="currentColor"/>
<path transform="translate(25.0934, 8.3724) scale(0.0040, -0.0040)" d="M215 137c57 0 111 -29 111 -92c0 -71 -54 -120 -101 -148c-35 -21 -74 -34 -114 -34c-57 0 -111 29 -111 92c0 71 54 120 101 148c35 21 74 34 114 34z" fill="currentColor"/>
<rect transform="translate(26.3264, 8.3724)" x="-0.0697" y="-3.0000" width="0.1395" height="2.8206" ry="0.0444" fill="currentColor"/>
<path transform="translate(27.0934, 8.3724) scale(0.0040, -0.0040)" d="M215 137c57 0 111 -29 111 -92c0 -71 -54 -120 -101 -148c-35 -21 -74 -34 -114 -34c-57 0 -111 29 -111 92c0 71 54 120 101 148c35 21 74 34 114 34z" fill="currentColor"/>
<rect transform="translate(28.3264, 8.3724)" x="-0.0697" y="-3.0000" width="0.1395" height="2.8206" ry="0.0444" fill="currentColor"/>
<path transform="translate(29.5934, 8.3724) scale(0.0040, -0.0040)" d="M215 137c57 0 111 -29 111 -92c0 -71 -54 -120 -101 -148c-35 -21 -74 -34 -114 -34c-57 0 -111 29 -111 92c0 71 54 120 101 148c35 21 74 34 114 34z" fill="currentColor"/>
<rect transform="translate(30.8264, 8.3724)" x="-0.0697" y="-3.3333" width="0.1395" height="3.1540" ry="0.0444" fill="currentColor"/>
<line transform="translate(43.7956, 0.5880)" stroke-linejoin="round" stroke-linecap="round" stroke-width="0.1717" stroke="currentColor" x1="12.4479" y1="-0.0000" x2="12.4479" y2="0.7000"/>
<line transform="translate(43.7956, 0.5880)" stroke-linejoin="round" stroke-linecap="round" stroke-width="0.1717" stroke="currentColor" x1="-0.2000" y1="-0.0000" x2="-0.2000" y2="0.7000"/>
<line transform="translate(43.7956, 0.5880)" stroke-linejoin="round" stroke-linecap="round" stroke-width="0.1717" stroke="currentColor" x1="12.4479" y1="-0.0000" x2="7.8810" y2="-0.0000"/>
<line transform="translate(43.7956, 0.5880)" stroke-linejoin="round" stroke-linecap="round" stroke-width="0.1717" stroke="currentColor" x1="-0.2000" y1="-0.0000" x2="4.5669" y2="-0.0000"/>
<polygon transform="translate(83.3247, 4.0510)" stroke-linejoin="round" stroke-linecap="round" stroke-width="0.0889" fill="currentColor" stroke="currentColor" points="8.1091 -0.3306 8.1091 0.3306 0.0444 0.3306 0.0444 -0.3306"/>
<polygon transform="translate(83.3247, 5.2565)" stroke-linejoin="round" stroke-linecap="round" stroke-width="0.0889" fill="currentColor" stroke="currentColor" points="8.1091 -0.3306 8.1091 0.3306 0.0444 0.3306 0.0444 -0.3306"/>
<polygon transform="translate(83.3247, 6.4620)" stroke-linejoin="round" stroke-linecap="round" stroke-width="0.0889" fill="currentColor" stroke="currentColor" points="8.1091 -0.3306 8.1091 0.3306 0.0444 0.3306 0.0444 -0.3306"/>
<polygon transform="translate(67.3107, 4.0510)" stroke-linejoin="round" stroke-linecap="round" stroke-width="0.0889" fill="currentColor" stroke="currentColor" points="6.5063 -0.3306 6.5063 0.3306 0.0444 0.3306 0.0444 -0.3306"/>
<polygon transform="translate(67.3107, 5.2565)" stroke-linejoin="round" stroke-linecap="round" stroke-width="0.0889" fill="currentColor" stroke="currentColor" points="6.5063 -0.3306 6.5063 0.3306 0.0444 0.3306 0.0444 -0.3306"/>
<polygon transform="translate(67.3107, 6.4620)" stroke-linejoin="round" stroke-linecap="round" stroke-width="0.0889" fill="currentColor" stroke="currentColor" points="6.5063 -0.3306 6.5063 0.3306 0.0444 0.3306 0.0444 -0.3306"/>
<text transform="translate(68.7708, 2.9761)" font-family="serif" font-style="italic" font-size="1.7462" text-anchor="start" fill="currentColor">
<tspan>5:4</tspan>
</text>
<line transform="translate(67.3107, 2.4260)" stroke-linejoin="round" stroke-linecap="round" stroke-width="0.1717" stroke="currentColor" x1="5.4343" y1="-0.0000" x2="5.4343" y2="0.7000"/>
<line transform="translate(67.3107, 2.4260)" stroke-linejoin="round" stroke-linecap="round" stroke-width="0.1717" stroke="currentColor" x1="-0.2000" y1="-0.0000" x2="-0.2000" y2="0.7000"/>
<line transform="translate(67.3107, 2.4260)" stroke-linejoin="round" stroke-linecap="round" stroke-width="0.1717" stroke="currentColor" x1="5.4343" y1="-0.0000" x2="4.3742" y2="-0.0000"/>
<line transform="translate(67.3107, 2.4260)" stroke-linejoin="round" stroke-linecap="round" stroke-width="0.1717" stroke="currentColor" x1="-0.2000" y1="-0.0000" x2="1.0600" y2="-0.0000"/>
<text transform="translate(64.7708, 1.1381)" font-family="serif" font-style="italic" font-size="1.7462" text-anchor="start" fill="currentColor">
<tspan>3:2</tspan>
</text>
<line transform="translate(59.3107, 0.5880)" stroke-linejoin="round" stroke-linecap="round" stroke-width="0.1717" stroke="currentColor" x1="13.4343" y1="-0.0000" x2="13.4343" y2="0.7000"/>
<line transform="translate(59.3107, 0.5880)" stroke-linejoin="round" stroke-linecap="round" stroke-width="0.1717" stroke="currentColor" x1="-0.2000" y1="-0.0000" x2="-0.2000" y2="0.7000"/>
<line transform="translate(59.3107, 0.5880)" stroke-linejoin="round" stroke-linecap="round" stroke-width="0.1717" stroke="currentColor" x1="13.4343" y1="-0.0000" x2="8.3742" y2="-0.0000"/>
<line transform="translate(59.3107, 0.5880)" stroke-linejoin="round" stroke-linecap="round" stroke-width="0.1717" stroke="currentColor" x1="-0.2000" y1="-0.0000" x2="5.0600" y2="-0.0000"/>
<polygon transform="translate(51.7956, 4.0510)" stroke-linejoin="round" stroke-linecap="round" stroke-width="0.0889" fill="currentColor" stroke="currentColor" points="4.9035 -0.3306 4.9035 0.3306 0.0444 0.3306 0.0444 -0.3306"/>
<polygon transform="translate(51.7956, 5.2565)" stroke-linejoin="round" stroke-linecap="round" stroke-width="0.0889" fill="currentColor" stroke="currentColor" points="4.9035 -0.3306 4.9035 0.3306 0.0444 0.3306 0.0444 -0.3306"/>
<polygon transform="translate(51.7956, 6.4620)" stroke-linejoin="round" stroke-linecap="round" stroke-width="0.0889" fill="currentColor" stroke="currentColor" points="4.9035 -0.3306 4.9035 0.3306 0.0444 0.3306 0.0444 -0.3306"/>
<text transform="translate(52.7625, 2.9761)" font-family="serif" font-style="italic" font-size="1.7462" text-anchor="start" fill="currentColor">
<tspan>1:1</tspan>
</text>
<line transform="translate(51.7956, 2.4260)" stroke-linejoin="round" stroke-linecap="round" stroke-width="0.1717" stroke="currentColor" x1="4.4479" y1="-0.0000" x2="4.4479" y2="0.7000"/>
<line transform="translate(51.7956, 2.4260)" stroke-linejoin="round" stroke-linecap="round" stroke-width="0.1717" stroke="currentColor" x1="-0.2000" y1="-0.0000" x2="-0.2000" y2="0.7000"/>
<line transform="translate(51.7956, 2.4260)" stroke-linejoin="round" stroke-linecap="round" stroke-width="0.1717" stroke="currentColor" x1="4.4479" y1="-0.0000" x2="3.8810" y2="-0.0000"/>
<line transform="translate(51.7956, 2.4260)" stroke-linejoin="round" stroke-linecap="round" stroke-width="0.1717" stroke="currentColor" x1="-0.2000" y1="-0.0000" x2="0.5669" y2="-0.0000"/>
<polygon transform="translate(38.7567, 5.3724)" stroke-linejoin="round" stroke-linecap="round" stroke-width="0.0889" fill="currentColor" stroke="currentColor" points="3.3007 -0.3306 3.3007 0.3306 0.0444 0.3306 0.0444 -0.3306"/>
<polygon transform="translate(38.7567, 6.5779)" stroke-linejoin="round" stroke-linecap="round" stroke-width="0.0889" fill="currentColor" stroke="currentColor" points="3.3007 -0.3306 3.3007 0.3306 0.0444 0.3306 0.0444 -0.3306"/>
<text transform="translate(48.7625, 1.1381)" font-family="serif" font-style="italic" font-size="1.7462" text-anchor="start" fill="currentColor">
<tspan>3:2</tspan>
</text>
<text transform="translate(38.7874, 4.2975)" font-family="serif" font-style="italic" font-size="1.7462" text-anchor="start" fill="currentColor">
<tspan>3:2</tspan>
</text>
<line transform="translate(38.7567, 3.7474)" stroke-linejoin="round" stroke-linecap="round" stroke-width="0.1717" stroke="currentColor" x1="2.5756" y1="-0.0000" x2="2.5756" y2="0.7000"/>
<line transform="translate(38.7567, 3.7474)" stroke-linejoin="round" stroke-linecap="round" stroke-width="0.1717" stroke="currentColor" x1="-0.2000" y1="-0.0000" x2="-0.2000" y2="0.7000"/>
<line transform="translate(38.7567, 3.7474)" stroke-linejoin="round" stroke-linecap="round" stroke-width="0.1717" stroke="currentColor" x1="2.5756" y1="-0.0000" x2="2.9449" y2="-0.0000"/>
<line transform="translate(38.7567, 3.7474)" stroke-linejoin="round" stroke-linecap="round" stroke-width="0.1717" stroke="currentColor" x1="-0.2000" y1="-0.0000" x2="-0.3693" y2="-0.0000"/>
<polygon transform="translate(26.2567, 5.3724)" stroke-linejoin="round" stroke-linecap="round" stroke-width="0.0889" fill="currentColor" stroke="currentColor" points="2.0950 -0.3306 2.0950 0.3306 0.0444 0.3306 0.0444 -0.3306"/>
<polygon transform="translate(26.2567, 6.5779)" stroke-linejoin="round" stroke-linecap="round" stroke-width="0.0889" fill="currentColor" stroke="currentColor" points="2.0950 -0.3306 2.0950 0.3306 0.0444 0.3306 0.0444 -0.3306"/>
<text transform="translate(34.7874, 2.4595)" font-family="serif" font-style="italic" font-size="1.7462" text-anchor="start" fill="currentColor">
<tspan>3:2</tspan>
</text>
<line transform="translate(30.7567, 1.9094)" stroke-linejoin="round" stroke-linecap="round" stroke-width="0.1717" stroke="currentColor" x1="10.5756" y1="-0.0000" x2="10.5756" y2="0.7000"/>
<line transform="translate(30.7567, 1.9094)" stroke-linejoin="round" stroke-linecap="round" stroke-width="0.1717" stroke="currentColor" x1="-0.2000" y1="-0.0000" x2="-0.2000" y2="0.7000"/>
<line transform="translate(30.7567, 1.9094)" stroke-linejoin="round" stroke-linecap="round" stroke-width="0.1717" stroke="currentColor" x1="10.5756" y1="-0.0000" x2="6.9449" y2="-0.0000"/>
<line transform="translate(30.7567, 1.9094)" stroke-linejoin="round" stroke-linecap="round" stroke-width="0.1717" stroke="currentColor" x1="-0.2000" y1="-0.0000" x2="3.6307" y2="-0.0000"/>
<text transform="translate(26.0179, 4.2975)" font-family="serif" font-style="italic" font-size="1.7462" text-anchor="start" fill="currentColor">
<tspan>1:1</tspan>
</text>
<line transform="translate(26.2567, 3.7474)" stroke-linejoin="round" stroke-linecap="round" stroke-width="0.1717" stroke="currentColor" x1="2.0367" y1="-0.0000" x2="2.0367" y2="0.7000"/>
<line transform="translate(26.2567, 3.7474)" stroke-linejoin="round" stroke-linecap="round" stroke-width="0.1717" stroke="currentColor" x1="-0.2000" y1="-0.0000" x2="-0.2000" y2="0.7000"/>
<line transform="translate(26.2567, 3.7474)" stroke-linejoin="round" stroke-linecap="round" stroke-width="0.1717" stroke="currentColor" x1="2.0367" y1="-0.0000" x2="2.6754" y2="-0.0000"/>
<line transform="translate(26.2567, 3.7474)" stroke-linejoin="round" stroke-linecap="round" stroke-width="0.1717" stroke="currentColor" x1="-0.2000" y1="-0.0000" x2="-0.6387" y2="-0.0000"/>
<text transform="translate(22.0179, 2.4595)" font-family="serif" font-style="italic" font-size="1.7462" text-anchor="start" fill="currentColor">
<tspan>3:2</tspan>
</text>
<line transform="translate(18.2567, 1.9094)" stroke-linejoin="round" stroke-linecap="round" stroke-width="0.1717" stroke="currentColor" x1="10.0367" y1="-0.0000" x2="10.0367" y2="0.7000"/>
<line transform="translate(18.2567, 1.9094)" stroke-linejoin="round" stroke-linecap="round" stroke-width="0.1717" stroke="currentColor" x1="-0.2000" y1="-0.0000" x2="-0.2000" y2="0.7000"/>
<line transform="translate(18.2567, 1.9094)" stroke-linejoin="round" stroke-linecap="round" stroke-width="0.1717" stroke="currentColor" x1="10.0367" y1="-0.0000" x2="6.6754" y2="-0.0000"/>
<line transform="translate(18.2567, 1.9094)" stroke-linejoin="round" stroke-linecap="round" stroke-width="0.1717" stroke="currentColor" x1="-0.2000" y1="-0.0000" x2="3.3613" y2="-0.0000"/>
<text transform="translate(13.5179, 4.2717)" font-family="serif" font-style="italic" font-size="1.7462" text-anchor="start" fill="currentColor">
<tspan>1:1</tspan>
</text>
<line transform="translate(13.7567, 3.7216)" stroke-linejoin="round" stroke-linecap="round" stroke-width="0.1717" stroke="currentColor" x1="2.0367" y1="-0.0000" x2="2.0367" y2="0.7000"/>
<line transform="translate(13.7567, 3.7216)" stroke-linejoin="round" stroke-linecap="round" stroke-width="0.1717" stroke="currentColor" x1="-0.2000" y1="-0.0000" x2="-0.2000" y2="0.7000"/>
<line transform="translate(13.7567, 3.7216)" stroke-linejoin="round" stroke-linecap="round" stroke-width="0.1717" stroke="currentColor" x1="2.0367" y1="-0.0000" x2="2.6754" y2="-0.0000"/>
<line transform="translate(13.7567, 3.7216)" stroke-linejoin="round" stroke-linecap="round" stroke-width="0.1717" stroke="currentColor" x1="-0.2000" y1="-0.0000" x2="-0.6387" y2="-0.0000"/>
<text transform="translate(9.5179, 2.4337)" font-family="serif" font-style="italic" font-size="1.7462" text-anchor="start" fill="currentColor">
<tspan>3:2</tspan>
</text>
<path transform="translate(52.2351, 8.3724) scale(0.0040, -0.0040)" d="M215 137c57 0 111 -29 111 -92c0 -71 -54 -120 -101 -148c-35 -21 -74 -34 -114 -34c-57 0 -111 29 -111 92c0 71 54 120 101 148c35 21 74 34 114 34z" fill="currentColor"/>
<rect transform="translate(53.4682, 8.3724)" x="-0.0697" y="-4.3213" width="0.1395" height="4.1420" ry="0.0444" fill="currentColor"/>
<path transform="translate(53.8379, 8.3724) scale(0.0040, -0.0040)" d="M215 137c57 0 111 -29 111 -92c0 -71 -54 -120 -101 -148c-35 -21 -74 -34 -114 -34c-57 0 -111 29 -111 92c0 71 54 120 101 148c35 21 74 34 114 34z" fill="currentColor"/>
<rect transform="translate(55.0710, 8.3724)" x="-0.0697" y="-4.3213" width="0.1395" height="4.1420" ry="0.0444" fill="currentColor"/>
<path transform="translate(55.4407, 8.3724) scale(0.0040, -0.0040)" d="M215 137c57 0 111 -29 111 -92c0 -71 -54 -120 -101 -148c-35 -21 -74 -34 -114 -34c-57 0 -111 29 -111 92c0 71 54 120 101 148c35 21 74 34 114 34z" fill="currentColor"/>
<rect transform="translate(56.6738, 8.3724)" x="-0.0697" y="-4.3213" width="0.1395" height="4.1420" ry="0.0444" fill="currentColor"/>
<path transform="translate(58.1474, 8.3724) scale(0.0040, -0.0040)" d="M215 137c57 0 111 -29 111 -92c0 -71 -54 -120 -101 -148c-35 -21 -74 -34 -114 -34c-57 0 -111 29 -111 92c0 71 54 120 101 148c35 21 74 34 114 34z" fill="currentColor"/>
<rect transform="translate(59.3805, 8.3724)" x="-0.0697" y="-3.3333" width="0.1395" height="3.1540" ry="0.0444" fill="currentColor"/>
<path transform="translate(74.1614, 8.3724) scale(0.0040, -0.0040)" d="M215 137c57 0 111 -29 111 -92c0 -71 -54 -120 -101 -148c-35 -21 -74 -34 -114 -34c-57 0 -111 29 -111 92c0 71 54 120 101 148c35 21 74 34 114 34z" fill="currentColor"/>
<path transform="translate(72.5586, 8.3724) scale(0.0040, -0.0040)" d="M215 137c57 0 111 -29 111 -92c0 -71 -54 -120 -101 -148c-35 -21 -74 -34 -114 -34c-57 0 -111 29 -111 92c0 71 54 120 101 148c35 21 74 34 114 34z" fill="currentColor"/>
<rect transform="translate(73.7917, 8.3724)" x="-0.0697" y="-4.3213" width="0.1395" height="4.1420" ry="0.0444" fill="currentColor"/>
<path transform="translate(12.5934, 8.3724) scale(0.0040, -0.0040)" d="M215 137c57 0 111 -29 111 -92c0 -71 -54 -120 -101 -148c-35 -21 -74 -34 -114 -34c-57 0 -111 29 -111 92c0 71 54 120 101 148c35 21 74 34 114 34z" fill="currentColor"/>
<rect transform="translate(75.3945, 8.3724)" x="-0.0697" y="-3.3333" width="0.1395" height="3.1540" ry="0.0444" fill="currentColor"/>
<path transform="translate(82.1614, 8.3724) scale(0.0040, -0.0040)" d="M215 137c57 0 111 -29 111 -92c0 -71 -54 -120 -101 -148c-35 -21 -74 -34 -114 -34c-57 0 -111 29 -111 92c0 71 54 120 101 148c35 21 74 34 114 34z" fill="currentColor"/>
<rect transform="translate(83.3945, 8.3724)" x="-0.0697" y="-4.3213" width="0.1395" height="4.1420" ry="0.0444" fill="currentColor"/>
<path transform="translate(67.7502, 8.3724) scale(0.0040, -0.0040)" d="M215 137c57 0 111 -29 111 -92c0 -71 -54 -120 -101 -148c-35 -21 -74 -34 -114 -34c-57 0 -111 29 -111 92c0 71 54 120 101 148c35 21 74 34 114 34z" fill="currentColor"/>
<rect transform="translate(68.9833, 8.3724)" x="-0.0697" y="-4.3213" width="0.1395" height="4.1420" ry="0.0444" fill="currentColor"/>
<path transform="translate(69.3530, 8.3724) scale(0.0040, -0.0040)" d="M215 137c57 0 111 -29 111 -92c0 -71 -54 -120 -101 -148c-35 -21 -74 -34 -114 -34c-57 0 -111 29 -111 92c0 71 54 120 101 148c35 21 74 34 114 34z" fill="currentColor"/>
<rect transform="translate(70.5861, 8.3724)" x="-0.0697" y="-4.3213" width="0.1395" height="4.1420" ry="0.0444" fill="currentColor"/>
<rect transform="translate(67.3805, 8.3724)" x="-0.0697" y="-4.3213" width="0.1395" height="4.1420" ry="0.0444" fill="currentColor"/>
<path transform="translate(70.9558, 8.3724) scale(0.0040, -0.0040)" d="M215 137c57 0 111 -29 111 -92c0 -71 -54 -120 -101 -148c-35 -21 -74 -34 -114 -34c-57 0 -111 29 -111 92c0 71 54 120 101 148c35 21 74 34 114 34z" fill="currentColor"/>
<rect transform="translate(72.1889, 8.3724)" x="-0.0697" y="-4.3213" width="0.1395" height="4.1420" ry="0.0444" fill="currentColor"/>
<path transform="translate(66.1474, 8.3724) scale(0.0040, -0.0040)" d="M215 137c57 0 111 -29 111 -92c0 -71 -54 -120 -101 -148c-35 -21 -74 -34 -114 -34c-57 0 -111 29 -111 92c0 71 54 120 101 148c35 21 74 34 114 34z" fill="currentColor"/>
<text transform="translate(86.2444, 2.9761)" font-family="serif" font-style="italic" font-size="1.7462" text-anchor="start" fill="currentColor">
<tspan>3:2</tspan>
</text>
<path transform="translate(88.5726, 8.3724) scale(0.0040, -0.0040)" d="M215 137c57 0 111 -29 111 -92c0 -71 -54 -120 -101 -148c-35 -21 -74 -34 -114 -34c-57 0 -111 29 -111 92c0 71 54 120 101 148c35 21 74 34 114 34z" fill="currentColor"/>
<rect transform="translate(89.8057, 8.3724)" x="-0.0697" y="-4.3213" width="0.1395" height="4.1420" ry="0.0444" fill="currentColor"/>
<line transform="translate(83.3247, 2.4260)" stroke-linejoin="round" stroke-linecap="round" stroke-width="0.1717" stroke="currentColor" x1="8.3535" y1="-0.0000" x2="8.3535" y2="0.7000"/>
<line transform="translate(83.3247, 2.4260)" stroke-linejoin="round" stroke-linecap="round" stroke-width="0.1717" stroke="currentColor" x1="-0.2000" y1="-0.0000" x2="-0.2000" y2="0.7000"/>
<line transform="translate(83.3247, 2.4260)" stroke-linejoin="round" stroke-linecap="round" stroke-width="0.1717" stroke="currentColor" x1="8.3535" y1="-0.0000" x2="5.8338" y2="-0.0000"/>
<line transform="translate(83.3247, 2.4260)" stroke-linejoin="round" stroke-linecap="round" stroke-width="0.1717" stroke="currentColor" x1="-0.2000" y1="-0.0000" x2="2.5197" y2="-0.0000"/>
<text transform="translate(82.2444, 1.1381)" font-family="serif" font-style="italic" font-size="1.7462" text-anchor="start" fill="currentColor">
<tspan>3:2</tspan>
</text>
<path transform="translate(90.1755, 8.3724) scale(0.0040, -0.0040)" d="M215 137c57 0 111 -29 111 -92c0 -71 -54 -120 -101 -148c-35 -21 -74 -34 -114 -34c-57 0 -111 29 -111 92c0 71 54 120 101 148c35 21 74 34 114 34z" fill="currentColor"/>
<rect transform="translate(91.4085, 8.3724)" x="-0.0697" y="-4.3213" width="0.1395" height="4.1420" ry="0.0444" fill="currentColor"/>
<line transform="translate(75.3247, 0.5880)" stroke-linejoin="round" stroke-linecap="round" stroke-width="0.1717" stroke="currentColor" x1="16.3535" y1="-0.0000" x2="16.3535" y2="0.7000"/>
<line transform="translate(75.3247, 0.5880)" stroke-linejoin="round" stroke-linecap="round" stroke-width="0.1717" stroke="currentColor" x1="-0.2000" y1="-0.0000" x2="-0.2000" y2="0.7000"/>
<line transform="translate(75.3247, 0.5880)" stroke-linejoin="round" stroke-linecap="round" stroke-width="0.1717" stroke="currentColor" x1="16.3535" y1="-0.0000" x2="9.8338" y2="-0.0000"/>
<line transform="translate(75.3247, 0.5880)" stroke-linejoin="round" stroke-linecap="round" stroke-width="0.1717" stroke="currentColor" x1="-0.2000" y1="-0.0000" x2="6.5197" y2="-0.0000"/>
<rect transform="translate(86.6001, 8.3724)" x="-0.0697" y="-4.3213" width="0.1395" height="4.1420" ry="0.0444" fill="currentColor"/>
<path transform="translate(83.7642, 8.3724) scale(0.0040, -0.0040)" d="M215 137c57 0 111 -29 111 -92c0 -71 -54 -120 -101 -148c-35 -21 -74 -34 -114 -34c-57 0 -111 29 -111 92c0 71 54 120 101 148c35 21 74 34 114 34z" fill="currentColor"/>
<rect transform="translate(84.9973, 8.3724)" x="-0.0697" y="-4.3213" width="0.1395" height="4.1420" ry="0.0444" fill="currentColor"/>
<path transform="translate(85.3670, 8.3724) scale(0.0040, -0.0040)" d="M215 137c57 0 111 -29 111 -92c0 -71 -54 -120 -101 -148c-35 -21 -74 -34 -114 -34c-57 0 -111 29 -111 92c0 71 54 120 101 148c35 21 74 34 114 34z" fill="currentColor"/>
<rect transform="translate(5.8264, 8.3724)" x="-0.0697" y="-3.3333" width="0.1395" height="3.1540" ry="0.0444" fill="currentColor"/>
<path transform="translate(1.0000, 8.3724) scale(0.0040, -0.0040)" d="M203 301c22 15 45 30 61 51c12 15 19 34 27 51c2 4 5 6 9 6c6 0 14 -6 14 -15v-238h74c10 0 16 -8 16 -16s-6 -15 -16 -15h-74v-5c0 -49 29 -95 75 -95c8 0 12 -7 12 -13s-4 -12 -12 -12c-45 0 -90 13 -135 13s-90 -13 -135 -13c-8 0 -12 6 -12 12s4 13 12 13
c46 0 75 46 75 95v5h-163c-24 0 -33 15 -33 24c0 3 1 6 2 7c80 92 134 205 134 327c0 10 6 17 14 17h3c24 -7 48 -13 73 -13s48 6 72 13c2 1 4 1 6 1c9 0 14 -7 14 -13c0 -2 0 -3 -2 -5l-283 -327h163v122c0 9 2 18 9 23z" fill="currentColor"/>
<path transform="translate(1.0000, 10.4210) scale(0.0040, -0.0040)" d="M203 301c22 15 45 30 61 51c12 15 19 34 27 51c2 4 5 6 9 6c6 0 14 -6 14 -15v-238h74c10 0 16 -8 16 -16s-6 -15 -16 -15h-74v-5c0 -49 29 -95 75 -95c8 0 12 -7 12 -13s-4 -12 -12 -12c-45 0 -90 13 -135 13s-90 -13 -135 -13c-8 0 -12 6 -12 12s4 13 12 13
c46 0 75 46 75 95v5h-163c-24 0 -33 15 -33 24c0 3 1 6 2 7c80 92 134 205 134 327c0 10 6 17 14 17h3c24 -7 48 -13 73 -13s48 6 72 13c2 1 4 1 6 1c9 0 14 -7 14 -13c0 -2 0 -3 -2 -5l-283 -327h163v122c0 9 2 18 9 23z" fill="currentColor"/>
<path transform="translate(86.9698, 8.3724) scale(0.0040, -0.0040)" d="M215 137c57 0 111 -29 111 -92c0 -71 -54 -120 -101 -148c-35 -21 -74 -34 -114 -34c-57 0 -111 29 -111 92c0 71 54 120 101 148c35 21 74 34 114 34z" fill="currentColor"/>
<path transform="translate(4.5934, 8.3724) scale(0.0040, -0.0040)" d="M215 137c57 0 111 -29 111 -92c0 -71 -54 -120 -101 -148c-35 -21 -74 -34 -114 -34c-57 0 -111 29 -111 92c0 71 54 120 101 148c35 21 74 34 114 34z" fill="currentColor"/>
<rect transform="translate(88.2029, 8.3724)" x="-0.0697" y="-4.3213" width="0.1395" height="4.1420" ry="0.0444" fill="currentColor"/>
</svg>
