<svg xmlns="http://www.w3.org/2000/svg" xmlns:xlink="http://www.w3.org/1999/xlink" version="1.2" width="210.00mm" height="297.00mm" viewBox="0.0000 -0.0000 119.5016 169.0094">
<style type="text/css">
<![CDATA[
tspan { white-space: pre; }
]]>
</style>
<g transform="translate(8.5358, 14.6906)">
<rect x="46.7106" y="-0.1000" width="1.9563" height="0.2000" ry="0.1000" fill="currentColor"/>
</g>
<g transform="translate(8.5358, 14.6906)">
<rect x="41.8063" y="-0.1000" width="1.9563" height="0.2000" ry="0.1000" fill="currentColor"/>
</g>
<g transform="translate(8.5358, 14.6906)">
<rect x="38.1021" y="-0.1000" width="1.9563" height="0.2000" ry="0.1000" fill="currentColor"/>
</g>
<g transform="translate(8.5358, 14.6906)">
<rect x="30.7979" y="-0.1000" width="1.9563" height="0.2000" ry="0.1000" fill="currentColor"/>
</g>
<g transform="translate(8.5358, 14.6906)">
<rect x="27.0937" y="-0.1000" width="1.9563" height="0.2000" ry="0.1000" fill="currentColor"/>
</g>
<g transform="translate(8.5358, 14.6906)">
<rect x="22.6875" y="-0.1000" width="1.9563" height="0.2000" ry="0.1000" fill="currentColor"/>
</g>
<g transform="translate(8.5358, 14.6906)">
<rect x="16.8145" y="-0.1000" width="1.9563" height="0.2000" ry="0.1000" fill="currentColor"/>
</g>
<g transform="translate(17.0717, 13.6906)">
<line stroke-linejoin="round" stroke-linecap="round" stroke-width="0.1000" stroke="currentColor" x1="0.0500" y1="0" x2="44.6924" y2="0"/>
</g>
<g transform="translate(17.0717, 12.6906)">
<line stroke-linejoin="round" stroke-linecap="round" stroke-width="0.1000" stroke="currentColor" x1="0.0500" y1="0" x2="44.6924" y2="0"/>
</g>
<g transform="translate(17.0717, 11.6906)">
<line stroke-linejoin="round" stroke-linecap="round" stroke-width="0.1000" stroke="currentColor" x1="0.0500" y1="0" x2="44.6924" y2="0"/>
</g>
<g transform="translate(17.0717, 10.6906)">
<line stroke-linejoin="round" stroke-linecap="round" stroke-width="0.1000" stroke="currentColor" x1="0.0500" y1="0" x2="44.6924" y2="0"/>
</g>
<g transform="translate(17.0717, 9.6906)">
<line stroke-linejoin="round" stroke-linecap="round" stroke-width="0.1000" stroke="currentColor" x1="0.0500" y1="0" x2="44.6924" y2="0"/>
</g>
<g transform="translate(61.6240, 11.6906)">
<rect x="0.0000" y="-2.0000" width="0.1900" height="4.0000" ry="0.0000" fill="currentColor"/>
</g>
<g transform="translate(46.9640, 11.6906)">
<path stroke-width="0.0800" stroke-linejoin="round" stroke-linecap="round" stroke="currentColor" fill="currentColor" d="M0.8521 3.7500C1.5474 4.4761 3.4610 4.4761 4.1563 3.7500L4.1563 3.7500C3.4610 4.3561 1.5474 4.3561 0.8521 3.7500z"/>
</g>
<g transform="translate(25.6764, 14.6906)">
<path transform="scale(0.0040, -0.0040)" d="M218 136c66 0 108 -36 108 -89c0 -89 -113 -183 -218 -183c-66 0 -108 36 -108 89c0 89 113 183 218 183z" fill="currentColor"/>
</g>
<g transform="translate(17.8717, 12.6906)">
<path transform="scale(0.0040, -0.0040)" d="M266 -635h-6c-108 0 -195 88 -195 197c0 58 53 103 112 103c54 0 95 -47 95 -103c0 -52 -43 -95 -95 -95c-11 0 -21 2 -31 6c26 -39 68 -65 117 -65h4zM461 -203c68 24 113 90 113 164c0 90 -66 179 -173 190c19 -89 48 -242 60 -354zM74 28c0 -145 141 -247 264 -247
c1 0 47 0 82 6c-7 64 -29 203 -63 364c-79 -8 -124 -61 -124 -119c0 -44 25 -91 81 -123c5 -5 7 -10 7 -15c0 -11 -10 -22 -22 -22c-15 0 -126 62 -126 187c0 88 58 174 160 197c-14 58 -29 117 -46 175c-107 -121 -213 -243 -213 -403zM250 553c-29 96 -52 170 -52 346
c0 115 55 224 149 292c6 5 14 5 20 0c68 -80 133 -245 133 -358c0 -143 -86 -255 -180 -364c21 -68 39 -138 56 -207c2 0 7 1 13 1c155 0 256 -128 256 -261c0 -113 -74 -212 -180 -246c3 -35 5 -70 5 -105c0 -19 -1 -39 -2 -58c-7 -119 -88 -225 -202 -228l1 43
c93 2 153 92 159 191c1 18 2 37 2 55c0 31 -1 61 -4 92c-5 -1 -44 -8 -89 -8c-193 0 -333 180 -333 374c0 177 131 306 248 441zM428 916c0 34 1 66 -20 129c-99 -48 -162 -149 -162 -259c0 -52 12 -115 36 -194c80 97 146 198 146 324z" fill="currentColor"/>
</g>
<g transform="translate(22.1912, 11.6906)">
<path transform="scale(0.0040, -0.0040)" d="M170 259c-51 0 -53 -43 -53 -100v-18v-18c0 -57 2 -100 53 -100c57 0 61 51 61 118s-4 118 -61 118zM117 266c15 10 33 16 53 16c101 0 170 -46 170 -141s-69 -141 -170 -141c-112 0 -170 124 -170 250c0 128 72 250 190 250c70 0 136 -39 136 -103
c0 -36 -29 -66 -65 -66s-66 30 -66 66c0 24 40 25 40 49c0 20 -23 31 -45 31c-66 0 -75 -65 -75 -139c0 -24 2 -48 2 -72z" fill="currentColor"/>
</g>
<g transform="translate(22.0717, 13.7066)">
<path transform="scale(0.0040, -0.0040)" d="M196 117h117c0 -48 27 -94 72 -94c8 0 12 -5 12 -11s-4 -12 -12 -12c-44 0 -87 13 -131 13s-87 -13 -131 -13c-8 0 -12 6 -12 12s4 11 12 11c45 0 73 46 73 94zM-2 148c0 12 140 143 140 336c0 10 7 19 16 16c23 -7 47 -13 71 -13s48 6 71 13c14 4 23 -9 17 -16
l-284 -330h167v131c0 34 34 27 68 72c22 30 23 56 36 56c6 0 13 -5 13 -14v-245h72c10 0 15 -7 15 -14s-5 -15 -15 -15h-72v-8h-117v8h-167c-23 0 -31 14 -31 23z" fill="currentColor"/>
</g>
<g transform="translate(27.4306, 14.1906)">
<path transform="scale(0.0040, -0.0040)" d="M0 0c0 31 25 56 56 56s56 -25 56 -56s-25 -56 -56 -56s-56 25 -56 56z" fill="currentColor"/>
</g>
<g transform="translate(26.9156, 11.6906)">
<rect x="-0.0650" y="-0.5000" width="0.1300" height="3.3139" ry="0.0400" fill="currentColor"/>
</g>
<g transform="translate(47.0903, 8.8703)">
<text font-family="serif" font-style="italic" font-size="1.7461" text-anchor="start" fill="currentColor">
<tspan>7:6</tspan>
</text>
</g>
<g transform="translate(31.5494, 14.6906)">
<path transform="scale(0.0040, -0.0040)" d="M218 136c66 0 108 -36 108 -89c0 -89 -113 -183 -218 -183c-66 0 -108 36 -108 89c0 89 113 183 218 183z" fill="currentColor"/>
</g>
<g transform="translate(33.3036, 14.1906)">
<path transform="scale(0.0040, -0.0040)" d="M0 0c0 31 25 56 56 56s56 -25 56 -56s-25 -56 -56 -56s-56 25 -56 56z" fill="currentColor"/>
</g>
<g transform="translate(32.7886, 11.6906)">
<rect x="-0.0650" y="0.0000" width="0.1300" height="2.8139" ry="0.0400" fill="currentColor"/>
</g>
<g transform="translate(44.5640, 8.2906)">
<line stroke-linejoin="round" stroke-linecap="round" stroke-width="0.1600" stroke="currentColor" x1="7.6084" y1="-0.0000" x2="7.6084" y2="0.7000"/>
</g>
<g transform="translate(44.5640, 8.2906)">
<line stroke-linejoin="round" stroke-linecap="round" stroke-width="0.1600" stroke="currentColor" x1="-0.2000" y1="-0.0000" x2="-0.2000" y2="0.7000"/>
</g>
<g transform="translate(44.5640, 8.2906)">
<line stroke-linejoin="round" stroke-linecap="round" stroke-width="0.1600" stroke="currentColor" x1="7.6084" y1="-0.0000" x2="5.4822" y2="-0.0000"/>
</g>
<g transform="translate(44.5640, 8.2906)">
<line stroke-linejoin="round" stroke-linecap="round" stroke-width="0.1600" stroke="currentColor" x1="-0.2000" y1="-0.0000" x2="2.1263" y2="-0.0000"/>
</g>
<g transform="translate(35.9556, 14.6906)">
<path transform="scale(0.0040, -0.0040)" d="M218 136c66 0 108 -36 108 -89c0 -89 -113 -183 -218 -183c-66 0 -108 36 -108 89c0 89 113 183 218 183z" fill="currentColor"/>
</g>
<g transform="translate(37.1948, 11.6906)">
<rect x="-0.0650" y="0.0000" width="0.1300" height="2.8139" ry="0.0400" fill="currentColor"/>
</g>
<g transform="translate(32.7236, 11.6906)">
<polygon stroke-linejoin="round" stroke-linecap="round" stroke-width="0.0800" fill="currentColor" stroke="currentColor" points="8.2004 -0.2000 8.2004 0.2000 0.0400 0.2000 0.0400 -0.2000"/>
</g>
<g transform="translate(39.7990, 12.5006)">
<polygon stroke-linejoin="round" stroke-linecap="round" stroke-width="0.0800" fill="currentColor" stroke="currentColor" points="1.1250 -0.2000 1.1250 0.2000 0.0400 0.2000 0.0400 -0.2000"/>
</g>
<g transform="translate(39.6598, 14.6906)">
<path transform="scale(0.0040, -0.0040)" d="M218 136c66 0 108 -36 108 -89c0 -89 -113 -183 -218 -183c-66 0 -108 36 -108 89c0 89 113 183 218 183z" fill="currentColor"/>
</g>
<g transform="translate(40.8990, 11.6906)">
<rect x="-0.0650" y="0.0000" width="0.1300" height="2.8139" ry="0.0400" fill="currentColor"/>
</g>
<g transform="translate(42.1640, 11.6906)">
<path transform="scale(0.0040, -0.0040)" d="M125 205c79 0 45 -98 90 -98c15 0 50 49 57 63c6 12 23 12 28 0l-179 -670c-8 -7 -17 -10 -27 -10s-20 3 -28 10l101 327c-34 -12 -70 -23 -106 -23c-47 0 -87 34 -87 79c0 40 32 72 72 72c79 0 46 -98 91 -98c16 0 55 51 60 68l46 151c-34 -12 -68 -22 -104 -22
c-47 0 -87 34 -87 79c0 40 33 72 73 72z" fill="currentColor"/>
</g>
<g transform="translate(35.9556, 11.6906)">
<path stroke-width="0.0800" stroke-linejoin="round" stroke-linecap="round" stroke="currentColor" fill="currentColor" d="M0.8521 3.7500C1.5474 4.4761 3.4610 4.4761 4.1563 3.7500L4.1563 3.7500C3.4610 4.3561 1.5474 4.3561 0.8521 3.7500z"/>
</g>
<g transform="translate(44.5640, 11.6906)">
<path transform="scale(0.0040, -0.0040)" d="M125 205c79 0 45 -98 90 -98c15 0 50 49 57 63c6 12 23 12 28 0l-179 -670c-8 -7 -17 -10 -27 -10s-20 3 -28 10l101 327c-34 -12 -70 -23 -106 -23c-47 0 -87 34 -87 79c0 40 32 72 72 72c79 0 46 -98 91 -98c16 0 55 51 60 68l46 151c-34 -12 -68 -22 -104 -22
c-47 0 -87 34 -87 79c0 40 33 72 73 72z" fill="currentColor"/>
</g>
<g transform="translate(46.9640, 14.6906)">
<path transform="scale(0.0040, -0.0040)" d="M218 136c66 0 108 -36 108 -89c0 -89 -113 -183 -218 -183c-66 0 -108 36 -108 89c0 89 113 183 218 183z" fill="currentColor"/>
</g>
<g transform="translate(48.2032, 11.6906)">
<rect x="-0.0650" y="-0.5000" width="0.1300" height="3.3139" ry="0.0400" fill="currentColor"/>
</g>
<g transform="translate(48.2682, 11.2306)">
<path transform="scale(0.0040, -0.0040)" d="M0 0v-250h-16v250h16zM0 0c0 -197 207 -336 207 -533c0 -71 -15 -141 -41 -207c-5 -8 -13 -12 -20 -12c-13 0 -26 11 -23 27c26 61 42 126 42 192c0 103 -94 208 -165 283v250z" fill="currentColor"/>
</g>
<g transform="translate(31.5494, 11.6906)">
<path stroke-width="0.0800" stroke-linejoin="round" stroke-linecap="round" stroke="currentColor" fill="currentColor" d="M0.8521 3.7500C1.6372 4.5265 4.0732 4.5265 4.8583 3.7500L4.8583 3.7500C4.0732 4.4065 1.6372 4.4065 0.8521 3.7500z"/>
</g>
<g transform="translate(50.6682, 14.6906)">
<path transform="scale(0.0040, -0.0040)" d="M218 136c66 0 108 -36 108 -89c0 -89 -113 -183 -218 -183c-66 0 -108 36 -108 89c0 89 113 183 218 183z" fill="currentColor"/>
</g>
<g transform="translate(51.9074, 11.6906)">
<rect x="-0.0650" y="-0.5000" width="0.1300" height="3.3139" ry="0.0400" fill="currentColor"/>
</g>
<g transform="translate(36.8659, 8.8703)">
<text font-family="serif" font-style="italic" font-size="1.7461" text-anchor="start" fill="currentColor">
<tspan>7:6</tspan>
</text>
</g>
<g transform="translate(55.5724, 14.6906)">
<path transform="scale(0.0040, -0.0040)" d="M218 136c66 0 108 -36 108 -89c0 -89 -113 -183 -218 -183c-66 0 -108 36 -108 89c0 89 113 183 218 183z" fill="currentColor"/>
</g>
<g transform="translate(57.3266, 14.1906)">
<path transform="scale(0.0040, -0.0040)" d="M0 0c0 31 25 56 56 56s56 -25 56 -56s-25 -56 -56 -56s-56 25 -56 56z" fill="currentColor"/>
</g>
<g transform="translate(56.8116, 11.6906)">
<rect x="-0.0650" y="-0.5000" width="0.1300" height="3.3139" ry="0.0400" fill="currentColor"/>
</g>
<g transform="translate(32.7236, 8.2906)">
<line stroke-linejoin="round" stroke-linecap="round" stroke-width="0.1600" stroke="currentColor" x1="10.8404" y1="-0.0000" x2="10.8404" y2="0.7000"/>
</g>
<g transform="translate(32.7236, 8.2906)">
<line stroke-linejoin="round" stroke-linecap="round" stroke-width="0.1600" stroke="currentColor" x1="-0.2000" y1="-0.0000" x2="-0.2000" y2="0.7000"/>
</g>
<g transform="translate(32.7236, 8.2906)">
<line stroke-linejoin="round" stroke-linecap="round" stroke-width="0.1600" stroke="currentColor" x1="10.8404" y1="-0.0000" x2="7.0981" y2="-0.0000"/>
</g>
<g transform="translate(32.7236, 8.2906)">
<line stroke-linejoin="round" stroke-linecap="round" stroke-width="0.1600" stroke="currentColor" x1="-0.2000" y1="-0.0000" x2="3.7422" y2="-0.0000"/>
</g>
<g transform="translate(34.5530, 162.8440)">
<a xlink:href="https://lilypond.org/">
<rect x="0.0000" y="-0.4748" width="50.3955" height="2.0024" fill="none" stroke="none" stroke-width="0.0"/>
</a>
</g>
<g transform="translate(34.5530, 162.8440)">
<text font-family="serif" font-size="2.2001" text-anchor="start" fill="currentColor">
<tspan>Music engraving by LilyPond 2.25.1—www.lilypond.org</tspan>
</text>
</g>
</svg>
