<svg xmlns="http://www.w3.org/2000/svg" xmlns:xlink="http://www.w3.org/1999/xlink" version="1.2" width="45.40mm" height="13.92mm" viewBox="0.0000 -0.0360 28.7058 8.8041">
<style text="style/css">
<![CDATA[
tspan { white-space: pre; }
]]>
</style>
<g color="rgb(49.8039%, 49.8039%, 49.8039%)">
<line transform="translate(0.0000, 5.7640)" stroke-linejoin="round" stroke-linecap="round" stroke-width="0.1073" stroke="currentColor" x1="0.0537" y1="-0.0000" x2="28.7058" y2="-0.0000"/>
<line transform="translate(0.0000, 4.7640)" stroke-linejoin="round" stroke-linecap="round" stroke-width="0.1073" stroke="currentColor" x1="0.0537" y1="-0.0000" x2="28.7058" y2="-0.0000"/>
<line transform="translate(0.0000, 3.7640)" stroke-linejoin="round" stroke-linecap="round" stroke-width="0.1073" stroke="currentColor" x1="0.0537" y1="-0.0000" x2="28.7058" y2="-0.0000"/>
<line transform="translate(0.0000, 2.7640)" stroke-linejoin="round" stroke-linecap="round" stroke-width="0.1073" stroke="currentColor" x1="0.0537" y1="-0.0000" x2="28.7058" y2="-0.0000"/>
<line transform="translate(0.0000, 1.7640)" stroke-linejoin="round" stroke-linecap="round" stroke-width="0.1073" stroke="currentColor" x1="0.0537" y1="-0.0000" x2="28.7058" y2="-0.0000"/>
</g>
<rect transform="translate(0.0000, 6.7640)" x="21.3299" y="-0.1037" width="1.9542" height="0.2073" ry="0.1037" fill="currentColor"/>
<rect transform="translate(0.0000, 6.7640)" x="9.3299" y="-0.1037" width="1.9542" height="0.2073" ry="0.1037" fill="currentColor"/>
<rect transform="translate(24.6556, 3.7640)" x="0.0000" y="-2.0537" width="0.2039" height="4.1073" ry="0.0000" fill="currentColor"/>
<rect transform="translate(22.8887, 3.7640)" x="-0.0697" y="-0.5000" width="0.1395" height="3.3206" ry="0.0444" fill="currentColor"/>
<path transform="translate(9.6556, 3.7640)" stroke-width="0.0858" stroke-linejoin="round" stroke-linecap="round" stroke="currentColor" fill="currentColor" d="M0.8514 3.7500C2.1548 4.7104 11.1480 4.7104 12.4514 3.7500L12.4514 3.7500C11.1480 4.5816 2.1548 4.5816 0.8514 3.7500z"/>
<path transform="translate(22.9584, 3.3084) scale(0.0040, -0.0040)" d="M0 -213c0 -116 88 -204 149 -301c5 14 8 30 8 45c0 95 -89 189 -157 256zM0 0c0 -177 201 -292 201 -469c0 -33 -9 -65 -23 -95c18 -36 29 -75 29 -117c0 -63 -15 -126 -41 -183c-5 -8 -13 -12 -21 -12c-14 0 -27 11 -24 28c26 52 42 109 42 167c0 96 -93 189 -163 256
v-75h-18v500h18z" fill="currentColor"/>
<path transform="translate(25.7595, 6.2640) scale(0.0040, -0.0040)" d="M215 137c57 0 111 -29 111 -92c0 -71 -54 -120 -101 -148c-35 -21 -74 -34 -114 -34c-57 0 -111 29 -111 92c0 71 54 120 101 148c35 21 74 34 114 34z" fill="currentColor"/>
<rect transform="translate(26.9925, 3.7640)" x="-0.0697" y="-1.0000" width="0.1395" height="3.3206" ry="0.0444" fill="currentColor"/>
<path transform="translate(27.0623, 2.8084) scale(0.0040, -0.0040)" d="M0 -213c0 -116 88 -204 149 -301c5 14 8 30 8 45c0 95 -89 189 -157 256zM0 0c0 -177 201 -292 201 -469c0 -33 -9 -65 -23 -95c18 -36 29 -75 29 -117c0 -63 -15 -126 -41 -183c-5 -8 -13 -12 -21 -12c-14 0 -27 11 -24 28c26 52 42 109 42 167c0 96 -93 189 -163 256
v-75h-18v500h18z" fill="currentColor"/>
<path transform="translate(9.6556, 6.7640) scale(0.0040, -0.0040)" d="M215 137c57 0 111 -29 111 -92c0 -71 -54 -120 -101 -148c-35 -21 -74 -34 -114 -34c-57 0 -111 29 -111 92c0 71 54 120 101 148c35 21 74 34 114 34z" fill="currentColor"/>
<path transform="translate(10.3070, 8.2681) scale(0.0040, -0.0040)" d="M-210 86c-9 2 -15 10 -15 19c0 12 12 23 25 19l405 -104c14 0 20 -6 20 -20s-6 -20 -20 -20l-405 -104c-13 -4 -25 7 -25 19c0 9 6 17 15 19l248 64l140 22l-140 22z" fill="currentColor"/>
<path transform="translate(0.8000, 4.7640) scale(0.0040, -0.0040)" d="M378 263c4 0 7 1 11 1c156 0 257 -129 257 -262c0 -76 -34 -154 -108 -210c-22 -17 -46 -29 -72 -37c3 -34 4 -68 4 -102c0 -20 0 -40 -1 -60c-7 -121 -90 -228 -209 -228c-108 0 -196 87 -196 196c0 58 53 104 112 104c54 0 95 -48 95 -104c0 -52 -43 -95 -95 -95
c-10 0 -20 2 -29 6c26 -38 68 -63 116 -63h3c93 2 153 92 159 190c1 19 2 37 2 56c0 30 -2 60 -4 90c-29 -5 -58 -8 -88 -8c-188 0 -333 173 -333 375c0 177 130 307 246 442c-20 62 -38 125 -46 190c-6 52 -7 104 -7 157c0 115 55 223 148 290c7 5 16 4 22 -1
c71 -83 134 -244 134 -357c0 -143 -85 -255 -178 -364c21 -68 40 -137 57 -206zM462 -202c67 24 111 94 111 162c0 89 -65 178 -170 190c24 -115 46 -230 59 -352zM75 26c0 -134 129 -245 263 -245c28 0 55 2 81 6c-14 126 -36 244 -61 363c-79 -8 -124 -61 -124 -119
c0 -43 25 -89 80 -121c5 -5 7 -11 7 -16c0 -12 -10 -23 -22 -23c-3 0 -6 1 -9 2c-81 43 -118 116 -118 186c0 89 58 175 161 198c-14 58 -29 116 -46 173c-106 -122 -212 -244 -212 -404zM244 785c0 -73 20 -132 38 -191c79 97 144 199 144 324c0 53 -4 76 -20 124
c-99 -47 -162 -148 -162 -257z" fill="currentColor"/>
<path transform="translate(5.6449, 3.7640) scale(0.0040, -0.0040)" d="M48 500c45 -8 91 -13 137 -13s93 5 138 13h4c10 0 15 -6 15 -12c0 -2 0 -3 -2 -5c-68 -68 -164 -95 -261 -95c-10 0 -18 -8 -18 -18v-91c28 28 66 42 105 42c116 0 187 -51 187 -161c0 -94 -90 -160 -190 -160c-82 0 -163 41 -163 115c0 36 29 65 65 65s65 -29 65 -65
c0 -25 -40 -29 -40 -54c0 -30 38 -36 73 -36c56 0 70 70 70 135c0 62 -13 130 -67 130c-42 0 -84 -10 -108 -43c-3 -4 -7 -6 -12 -6c-8 0 -16 5 -16 15v227c0 10 9 19 18 17z" fill="currentColor"/>
<g transform="translate(5.0000, 5.8505)" >
<path transform="scale(0.0040, -0.0040)" d="M180 487c19 0 60 31 60 -4v-363h-120v238c0 13 -9 19 -17 19c-4 0 -9 -2 -11 -6l-64 -134c-3 -6 -9 -9 -14 -9c-8 0 -16 6 -16 15c0 2 1 5 2 7l120 250c3 6 10 3 17 0c14 -6 28 -13 43 -13zM240 120c0 -49 29 -95 75 -95c8 0 12 -7 12 -13s-4 -12 -12 -12
c-45 0 -90 13 -135 13s-90 -13 -135 -13c-8 0 -12 6 -12 12s4 13 12 13c46 0 75 46 75 95h60h60z" fill="currentColor"/>

<path transform="translate(1.2899, 0.0000) scale(0.0040, -0.0040)" d="M172 256c-49 0 -52 -40 -52 -94v-22v-21c0 -54 3 -94 52 -94c56 0 59 50 59 115s-3 116 -59 116zM120 267c17 7 34 14 52 14c102 0 171 -46 171 -141s-69 -140 -171 -140c-112 0 -172 124 -172 250c0 129 74 250 192 250c71 0 139 -40 139 -105c0 -36 -29 -65 -65 -65
s-65 29 -65 65c0 23 39 26 39 49c0 21 -24 31 -48 31c-64 0 -74 -62 -74 -134c0 -24 2 -49 2 -74z" fill="currentColor"/>
</g>
<rect transform="translate(10.8887, 3.7640)" x="-0.0697" y="-0.5000" width="0.1395" height="3.3206" ry="0.0444" fill="currentColor"/>
<path transform="translate(21.6556, 6.7640) scale(0.0040, -0.0040)" d="M215 137c57 0 111 -29 111 -92c0 -71 -54 -120 -101 -148c-35 -21 -74 -34 -114 -34c-57 0 -111 29 -111 92c0 71 54 120 101 148c35 21 74 34 114 34z" fill="currentColor"/>
</svg>
