<svg xmlns="http://www.w3.org/2000/svg" xmlns:xlink="http://www.w3.org/1999/xlink" version="1.2" width="91.89mm" height="24.56mm" viewBox="0.0000 -0.0000 58.1000 15.5264">
<style text="style/css">
<![CDATA[
tspan { white-space: pre; }
]]>
</style>
<g color="rgb(49.8039%, 49.8039%, 49.8039%)">
<line transform="translate(0.0000, 14.0000)" stroke-linejoin="round" stroke-linecap="round" stroke-width="0.1073" stroke="currentColor" x1="0.0537" y1="-0.0000" x2="58.0463" y2="-0.0000"/>
</g>
<rect transform="translate(35.5961, 14.0000)" x="0.0000" y="-1.0537" width="0.2039" height="2.1073" ry="0.0000" fill="currentColor"/>
<rect transform="translate(57.8961, 14.0000)" x="0.0000" y="-1.0537" width="0.2039" height="2.1073" ry="0.0000" fill="currentColor"/>
<path transform="translate(0.5000, 14.0000)" stroke-width="0.0858" stroke-linejoin="round" stroke-linecap="round" stroke="currentColor" fill="currentColor" d="M0.8514 0.7500C2.2375 1.7280 13.4653 1.7280 14.8514 0.7500L14.8514 0.7500C13.4653 1.5992 2.2375 1.5992 0.8514 0.7500z"/>
<path transform="translate(14.9000, 14.0000) scale(0.0040, -0.0040)" d="M215 137c57 0 111 -29 111 -92c0 -71 -54 -120 -101 -148c-35 -21 -74 -34 -114 -34c-57 0 -111 29 -111 92c0 71 54 120 101 148c35 21 74 34 114 34z" fill="currentColor"/>
<rect transform="translate(16.1331, 14.0000)" x="-0.0697" y="-3.3333" width="0.1395" height="3.1540" ry="0.0444" fill="currentColor"/>
<path transform="translate(29.3000, 14.0000) scale(0.0040, -0.0040)" d="M215 137c57 0 111 -29 111 -92c0 -71 -54 -120 -101 -148c-35 -21 -74 -34 -114 -34c-57 0 -111 29 -111 92c0 71 54 120 101 148c35 21 74 34 114 34z" fill="currentColor"/>
<rect transform="translate(30.5331, 14.0000)" x="-0.0697" y="-3.3750" width="0.1395" height="3.1956" ry="0.0444" fill="currentColor"/>
<path transform="translate(14.9000, 14.0000)" stroke-width="0.0858" stroke-linejoin="round" stroke-linecap="round" stroke="currentColor" fill="currentColor" d="M0.8514 0.7500C2.2375 1.7280 13.4653 1.7280 14.8514 0.7500L14.8514 0.7500C13.4653 1.5992 2.2375 1.5992 0.8514 0.7500z"/>
<path transform="translate(30.6028, 10.6694) scale(0.0040, -0.0040)" d="M0 0c0 -197 207 -335 207 -532c0 -71 -15 -141 -41 -207c-5 -8 -13 -12 -21 -12c-14 0 -27 11 -24 28c26 60 42 125 42 191c0 103 -93 207 -163 282h-18v250h18z" fill="currentColor"/>
<path transform="translate(0.0569, -0.0000) scale(0.0045, -0.0045)" d="M46 500c46 -8 91 -13 137 -13s92 5 138 13c15 2 23 -10 17 -16c-68 -68 -166 -93 -263 -93c-9 0 -17 -8 -17 -17v-96c28 28 66 43 105 43c116 0 186 -51 186 -161c0 -94 -87 -160 -186 -160c-82 0 -163 39 -163 113c0 36 30 66 66 66s65 -30 65 -66
c0 -25 -40 -28 -40 -53c0 -30 37 -37 72 -37c57 0 70 71 70 137c0 63 -15 132 -70 132c-42 0 -83 -12 -107 -45c-3 -4 -8 -6 -12 -6c-8 0 -15 6 -15 15v228c0 10 8 18 17 16z" fill="currentColor"/>
<path transform="translate(0.0000, 2.2383) scale(0.0045, -0.0045)" d="M259 288c27 29 49 62 49 102c0 55 -57 87 -117 87c-47 0 -75 -36 -75 -71c0 -20 10 -40 30 -52zM289 271c55 -31 83 -79 83 -127c0 -73 -66 -144 -189 -144c-94 0 -183 54 -183 140c0 50 39 85 76 120c-41 28 -61 67 -61 106c0 68 61 134 176 134c81 0 161 -38 161 -110
c0 -47 -30 -85 -63 -119zM106 242c-33 -29 -62 -59 -62 -102c0 -69 66 -117 139 -117c54 0 86 42 86 83c0 24 -10 48 -35 62z" fill="currentColor"/>
<path transform="translate(0.5000, 14.0000) scale(0.0040, -0.0040)" d="M215 137c57 0 111 -29 111 -92c0 -71 -54 -120 -101 -148c-35 -21 -74 -34 -114 -34c-57 0 -111 29 -111 92c0 71 54 120 101 148c35 21 74 34 114 34z" fill="currentColor"/>
<rect transform="translate(1.7331, 14.0000)" x="-0.0697" y="-3.3333" width="0.1395" height="3.1540" ry="0.0444" fill="currentColor"/>
<path transform="translate(35.6720, -0.0000) scale(0.0045, -0.0045)" d="M150 477c-29 0 -59 -8 -59 -33c0 -22 36 -25 36 -47c0 -32 -26 -58 -58 -58s-57 26 -57 58c0 65 67 103 138 103c91 0 169 -33 169 -114c0 -43 -4 -82 -42 -100c-9 -4 -14 -12 -14 -21s5 -18 14 -22c41 -19 56 -57 56 -103c0 -92 -79 -140 -179 -140
c-79 0 -154 42 -154 113c0 36 30 66 66 66s65 -30 65 -66c0 -25 -40 -28 -40 -53c0 -27 32 -37 63 -37c49 0 63 61 63 117v16c0 54 -2 94 -50 94h-80c-10 0 -14 8 -14 15s4 14 14 14h80c49 0 50 43 50 99v8c0 54 -18 91 -67 91z" fill="currentColor"/>
<path transform="translate(35.5961, 2.2383) scale(0.0045, -0.0045)" d="M259 288c27 29 49 62 49 102c0 55 -57 87 -117 87c-47 0 -75 -36 -75 -71c0 -20 10 -40 30 -52zM289 271c55 -31 83 -79 83 -127c0 -73 -66 -144 -189 -144c-94 0 -183 54 -183 140c0 50 39 85 76 120c-41 28 -61 67 -61 106c0 68 61 134 176 134c81 0 161 -38 161 -110
c0 -47 -30 -85 -63 -119zM106 242c-33 -29 -62 -59 -62 -102c0 -69 66 -117 139 -117c54 0 86 42 86 83c0 24 -10 48 -35 62z" fill="currentColor"/>
<path transform="translate(36.5000, 14.0000) scale(0.0040, -0.0040)" d="M215 137c57 0 111 -29 111 -92c0 -71 -54 -120 -101 -148c-35 -21 -74 -34 -114 -34c-57 0 -111 29 -111 92c0 71 54 120 101 148c35 21 74 34 114 34z" fill="currentColor"/>
<path transform="translate(38.2488, 13.5000) scale(0.0040, -0.0040)" d="M0 0c0 31 25 56 56 56s55 -25 55 -56s-24 -56 -55 -56s-56 25 -56 56z" fill="currentColor"/>
<rect transform="translate(37.7331, 14.0000)" x="-0.0697" y="-3.3333" width="0.1395" height="3.1540" ry="0.0444" fill="currentColor"/>
</svg>
