<svg xmlns="http://www.w3.org/2000/svg" xmlns:xlink="http://www.w3.org/1999/xlink" version="1.2" width="210.00mm" height="297.00mm" viewBox="0.0000 -0.0000 170.7165 241.4420">
<style type="text/css">
<![CDATA[
tspan { white-space: pre; }
]]>
</style>
<g transform="translate(12.1940, 20.8287)">
<rect x="125.2842" y="-0.1141" width="1.7976" height="0.2282" ry="0.1141" fill="currentColor"/>
</g>
<g transform="translate(12.1940, 20.8287)">
<rect x="76.5906" y="-0.1141" width="1.9471" height="0.2282" ry="0.1141" fill="currentColor"/>
</g>
<g transform="translate(24.3881, 19.8287)">
<line stroke-linejoin="round" stroke-linecap="round" stroke-width="0.1282" stroke="currentColor" x1="0.0641" y1="0" x2="122.8991" y2="0"/>
</g>
<g transform="translate(24.3881, 18.8287)">
<line stroke-linejoin="round" stroke-linecap="round" stroke-width="0.1282" stroke="currentColor" x1="0.0641" y1="0" x2="122.8991" y2="0"/>
</g>
<g transform="translate(24.3881, 17.8287)">
<line stroke-linejoin="round" stroke-linecap="round" stroke-width="0.1282" stroke="currentColor" x1="0.0641" y1="0" x2="122.8991" y2="0"/>
</g>
<g transform="translate(24.3881, 16.8287)">
<line stroke-linejoin="round" stroke-linecap="round" stroke-width="0.1282" stroke="currentColor" x1="0.0641" y1="0" x2="122.8991" y2="0"/>
</g>
<g transform="translate(24.3881, 15.8287)">
<line stroke-linejoin="round" stroke-linecap="round" stroke-width="0.1282" stroke="currentColor" x1="0.0641" y1="0" x2="122.8991" y2="0"/>
</g>
<g transform="translate(12.1940, 31.8287)">
<rect x="115.5890" y="-0.1141" width="1.7976" height="0.2282" ry="0.1141" fill="currentColor"/>
</g>
<g transform="translate(12.1940, 31.8287)">
<rect x="37.8429" y="-0.1141" width="1.9471" height="0.2282" ry="0.1141" fill="currentColor"/>
</g>
<g transform="translate(24.3881, 30.8287)">
<line stroke-linejoin="round" stroke-linecap="round" stroke-width="0.1282" stroke="currentColor" x1="0.0641" y1="0" x2="122.8991" y2="0"/>
</g>
<g transform="translate(24.3881, 29.8287)">
<line stroke-linejoin="round" stroke-linecap="round" stroke-width="0.1282" stroke="currentColor" x1="0.0641" y1="0" x2="122.8991" y2="0"/>
</g>
<g transform="translate(24.3881, 28.8287)">
<line stroke-linejoin="round" stroke-linecap="round" stroke-width="0.1282" stroke="currentColor" x1="0.0641" y1="0" x2="122.8991" y2="0"/>
</g>
<g transform="translate(24.3881, 27.8287)">
<line stroke-linejoin="round" stroke-linecap="round" stroke-width="0.1282" stroke="currentColor" x1="0.0641" y1="0" x2="122.8991" y2="0"/>
</g>
<g transform="translate(24.3881, 26.8287)">
<line stroke-linejoin="round" stroke-linecap="round" stroke-width="0.1282" stroke="currentColor" x1="0.0641" y1="0" x2="122.8991" y2="0"/>
</g>
<g transform="translate(12.1940, 42.8287)">
<rect x="125.2742" y="-0.1141" width="1.8075" height="0.2282" ry="0.1141" fill="currentColor"/>
</g>
<g transform="translate(12.1940, 42.8287)">
<rect x="105.8791" y="-0.1141" width="1.7976" height="0.2282" ry="0.1141" fill="currentColor"/>
</g>
<g transform="translate(24.3881, 41.8287)">
<line stroke-linejoin="round" stroke-linecap="round" stroke-width="0.1282" stroke="currentColor" x1="0.0641" y1="0" x2="122.8991" y2="0"/>
</g>
<g transform="translate(24.3881, 40.8287)">
<line stroke-linejoin="round" stroke-linecap="round" stroke-width="0.1282" stroke="currentColor" x1="0.0641" y1="0" x2="122.8991" y2="0"/>
</g>
<g transform="translate(24.3881, 39.8287)">
<line stroke-linejoin="round" stroke-linecap="round" stroke-width="0.1282" stroke="currentColor" x1="0.0641" y1="0" x2="122.8991" y2="0"/>
</g>
<g transform="translate(24.3881, 38.8287)">
<line stroke-linejoin="round" stroke-linecap="round" stroke-width="0.1282" stroke="currentColor" x1="0.0641" y1="0" x2="122.8991" y2="0"/>
</g>
<g transform="translate(24.3881, 37.8287)">
<line stroke-linejoin="round" stroke-linecap="round" stroke-width="0.1282" stroke="currentColor" x1="0.0641" y1="0" x2="122.8991" y2="0"/>
</g>
<g transform="translate(12.1940, 53.8287)">
<rect x="96.1661" y="-0.1141" width="1.7976" height="0.2282" ry="0.1141" fill="currentColor"/>
</g>
<g transform="translate(12.1940, 53.8287)">
<rect x="86.3482" y="-0.1141" width="1.9471" height="0.2282" ry="0.1141" fill="currentColor"/>
</g>
<g transform="translate(24.3881, 52.8287)">
<line stroke-linejoin="round" stroke-linecap="round" stroke-width="0.1282" stroke="currentColor" x1="0.0641" y1="0" x2="122.8991" y2="0"/>
</g>
<g transform="translate(24.3881, 51.8287)">
<line stroke-linejoin="round" stroke-linecap="round" stroke-width="0.1282" stroke="currentColor" x1="0.0641" y1="0" x2="122.8991" y2="0"/>
</g>
<g transform="translate(24.3881, 50.8287)">
<line stroke-linejoin="round" stroke-linecap="round" stroke-width="0.1282" stroke="currentColor" x1="0.0641" y1="0" x2="122.8991" y2="0"/>
</g>
<g transform="translate(24.3881, 49.8287)">
<line stroke-linejoin="round" stroke-linecap="round" stroke-width="0.1282" stroke="currentColor" x1="0.0641" y1="0" x2="122.8991" y2="0"/>
</g>
<g transform="translate(24.3881, 48.8287)">
<line stroke-linejoin="round" stroke-linecap="round" stroke-width="0.1282" stroke="currentColor" x1="0.0641" y1="0" x2="122.8991" y2="0"/>
</g>
<g transform="translate(12.1940, 64.8287)">
<rect x="115.5791" y="-0.1141" width="1.8075" height="0.2282" ry="0.1141" fill="currentColor"/>
</g>
<g transform="translate(12.1940, 64.8287)">
<rect x="86.4978" y="-0.1141" width="1.7976" height="0.2282" ry="0.1141" fill="currentColor"/>
</g>
<g transform="translate(24.3881, 63.8287)">
<line stroke-linejoin="round" stroke-linecap="round" stroke-width="0.1282" stroke="currentColor" x1="0.0641" y1="0" x2="122.8991" y2="0"/>
</g>
<g transform="translate(24.3881, 62.8287)">
<line stroke-linejoin="round" stroke-linecap="round" stroke-width="0.1282" stroke="currentColor" x1="0.0641" y1="0" x2="122.8991" y2="0"/>
</g>
<g transform="translate(24.3881, 61.8287)">
<line stroke-linejoin="round" stroke-linecap="round" stroke-width="0.1282" stroke="currentColor" x1="0.0641" y1="0" x2="122.8991" y2="0"/>
</g>
<g transform="translate(24.3881, 60.8287)">
<line stroke-linejoin="round" stroke-linecap="round" stroke-width="0.1282" stroke="currentColor" x1="0.0641" y1="0" x2="122.8991" y2="0"/>
</g>
<g transform="translate(24.3881, 59.8287)">
<line stroke-linejoin="round" stroke-linecap="round" stroke-width="0.1282" stroke="currentColor" x1="0.0641" y1="0" x2="122.8991" y2="0"/>
</g>
<g transform="translate(12.1940, 75.8287)">
<rect x="96.1562" y="-0.1141" width="1.8075" height="0.2282" ry="0.1141" fill="currentColor"/>
</g>
<g transform="translate(12.1940, 75.8287)">
<rect x="76.7401" y="-0.1141" width="1.7976" height="0.2282" ry="0.1141" fill="currentColor"/>
</g>
<g transform="translate(24.3881, 74.8287)">
<line stroke-linejoin="round" stroke-linecap="round" stroke-width="0.1282" stroke="currentColor" x1="0.0641" y1="0" x2="122.8991" y2="0"/>
</g>
<g transform="translate(24.3881, 73.8287)">
<line stroke-linejoin="round" stroke-linecap="round" stroke-width="0.1282" stroke="currentColor" x1="0.0641" y1="0" x2="122.8991" y2="0"/>
</g>
<g transform="translate(24.3881, 72.8287)">
<line stroke-linejoin="round" stroke-linecap="round" stroke-width="0.1282" stroke="currentColor" x1="0.0641" y1="0" x2="122.8991" y2="0"/>
</g>
<g transform="translate(24.3881, 71.8287)">
<line stroke-linejoin="round" stroke-linecap="round" stroke-width="0.1282" stroke="currentColor" x1="0.0641" y1="0" x2="122.8991" y2="0"/>
</g>
<g transform="translate(24.3881, 70.8287)">
<line stroke-linejoin="round" stroke-linecap="round" stroke-width="0.1282" stroke="currentColor" x1="0.0641" y1="0" x2="122.8991" y2="0"/>
</g>
<g transform="translate(12.1940, 86.8287)">
<rect x="67.0420" y="-0.1141" width="1.7976" height="0.2282" ry="0.1141" fill="currentColor"/>
</g>
<g transform="translate(12.1940, 86.8287)">
<rect x="47.5261" y="-0.1141" width="1.9471" height="0.2282" ry="0.1141" fill="currentColor"/>
</g>
<g transform="translate(24.3881, 85.8287)">
<line stroke-linejoin="round" stroke-linecap="round" stroke-width="0.1282" stroke="currentColor" x1="0.0641" y1="0" x2="122.8991" y2="0"/>
</g>
<g transform="translate(24.3881, 84.8287)">
<line stroke-linejoin="round" stroke-linecap="round" stroke-width="0.1282" stroke="currentColor" x1="0.0641" y1="0" x2="122.8991" y2="0"/>
</g>
<g transform="translate(24.3881, 83.8287)">
<line stroke-linejoin="round" stroke-linecap="round" stroke-width="0.1282" stroke="currentColor" x1="0.0641" y1="0" x2="122.8991" y2="0"/>
</g>
<g transform="translate(24.3881, 82.8287)">
<line stroke-linejoin="round" stroke-linecap="round" stroke-width="0.1282" stroke="currentColor" x1="0.0641" y1="0" x2="122.8991" y2="0"/>
</g>
<g transform="translate(24.3881, 81.8287)">
<line stroke-linejoin="round" stroke-linecap="round" stroke-width="0.1282" stroke="currentColor" x1="0.0641" y1="0" x2="122.8991" y2="0"/>
</g>
<g transform="translate(24.3881, 140.8287)">
<line stroke-linejoin="round" stroke-linecap="round" stroke-width="0.1282" stroke="currentColor" x1="0.0641" y1="0" x2="122.8991" y2="0"/>
</g>
<g transform="translate(24.3881, 139.8287)">
<line stroke-linejoin="round" stroke-linecap="round" stroke-width="0.1282" stroke="currentColor" x1="0.0641" y1="0" x2="122.8991" y2="0"/>
</g>
<g transform="translate(24.3881, 138.8287)">
<line stroke-linejoin="round" stroke-linecap="round" stroke-width="0.1282" stroke="currentColor" x1="0.0641" y1="0" x2="122.8991" y2="0"/>
</g>
<g transform="translate(24.3881, 137.8287)">
<line stroke-linejoin="round" stroke-linecap="round" stroke-width="0.1282" stroke="currentColor" x1="0.0641" y1="0" x2="122.8991" y2="0"/>
</g>
<g transform="translate(24.3881, 136.8287)">
<line stroke-linejoin="round" stroke-linecap="round" stroke-width="0.1282" stroke="currentColor" x1="0.0641" y1="0" x2="122.8991" y2="0"/>
</g>
<g transform="translate(12.1940, 141.8287)">
<rect x="67.0321" y="-0.1141" width="1.8075" height="0.2282" ry="0.1141" fill="currentColor"/>
</g>
<g transform="translate(12.1940, 141.8287)">
<rect x="18.6468" y="-0.1141" width="1.7976" height="0.2282" ry="0.1141" fill="currentColor"/>
</g>
<g transform="translate(12.1940, 97.8287)">
<rect x="57.4035" y="-0.1141" width="1.7976" height="0.2282" ry="0.1141" fill="currentColor"/>
</g>
<g transform="translate(12.1940, 97.8287)">
<rect x="28.1567" y="-0.1141" width="1.9471" height="0.2282" ry="0.1141" fill="currentColor"/>
</g>
<g transform="translate(24.3881, 96.8287)">
<line stroke-linejoin="round" stroke-linecap="round" stroke-width="0.1282" stroke="currentColor" x1="0.0641" y1="0" x2="122.8991" y2="0"/>
</g>
<g transform="translate(24.3881, 95.8287)">
<line stroke-linejoin="round" stroke-linecap="round" stroke-width="0.1282" stroke="currentColor" x1="0.0641" y1="0" x2="122.8991" y2="0"/>
</g>
<g transform="translate(24.3881, 94.8287)">
<line stroke-linejoin="round" stroke-linecap="round" stroke-width="0.1282" stroke="currentColor" x1="0.0641" y1="0" x2="122.8991" y2="0"/>
</g>
<g transform="translate(24.3881, 93.8287)">
<line stroke-linejoin="round" stroke-linecap="round" stroke-width="0.1282" stroke="currentColor" x1="0.0641" y1="0" x2="122.8991" y2="0"/>
</g>
<g transform="translate(24.3881, 92.8287)">
<line stroke-linejoin="round" stroke-linecap="round" stroke-width="0.1282" stroke="currentColor" x1="0.0641" y1="0" x2="122.8991" y2="0"/>
</g>
<g transform="translate(24.3881, 129.8287)">
<line stroke-linejoin="round" stroke-linecap="round" stroke-width="0.1282" stroke="currentColor" x1="0.0641" y1="0" x2="122.8991" y2="0"/>
</g>
<g transform="translate(24.3881, 128.8287)">
<line stroke-linejoin="round" stroke-linecap="round" stroke-width="0.1282" stroke="currentColor" x1="0.0641" y1="0" x2="122.8991" y2="0"/>
</g>
<g transform="translate(24.3881, 127.8287)">
<line stroke-linejoin="round" stroke-linecap="round" stroke-width="0.1282" stroke="currentColor" x1="0.0641" y1="0" x2="122.8991" y2="0"/>
</g>
<g transform="translate(24.3881, 126.8287)">
<line stroke-linejoin="round" stroke-linecap="round" stroke-width="0.1282" stroke="currentColor" x1="0.0641" y1="0" x2="122.8991" y2="0"/>
</g>
<g transform="translate(24.3881, 125.8287)">
<line stroke-linejoin="round" stroke-linecap="round" stroke-width="0.1282" stroke="currentColor" x1="0.0641" y1="0" x2="122.8991" y2="0"/>
</g>
<g transform="translate(12.1940, 130.8287)">
<rect x="105.8691" y="-0.1141" width="1.8075" height="0.2282" ry="0.1141" fill="currentColor"/>
</g>
<g transform="translate(12.1940, 130.8287)">
<rect x="28.3062" y="-0.1141" width="1.7976" height="0.2282" ry="0.1141" fill="currentColor"/>
</g>
<g transform="translate(12.1940, 108.8287)">
<rect x="57.3936" y="-0.1141" width="1.8075" height="0.2282" ry="0.1141" fill="currentColor"/>
</g>
<g transform="translate(12.1940, 108.8287)">
<rect x="47.6756" y="-0.1141" width="1.7976" height="0.2282" ry="0.1141" fill="currentColor"/>
</g>
<g transform="translate(24.3881, 107.8287)">
<line stroke-linejoin="round" stroke-linecap="round" stroke-width="0.1282" stroke="currentColor" x1="0.0641" y1="0" x2="122.8991" y2="0"/>
</g>
<g transform="translate(24.3881, 106.8287)">
<line stroke-linejoin="round" stroke-linecap="round" stroke-width="0.1282" stroke="currentColor" x1="0.0641" y1="0" x2="122.8991" y2="0"/>
</g>
<g transform="translate(24.3881, 105.8287)">
<line stroke-linejoin="round" stroke-linecap="round" stroke-width="0.1282" stroke="currentColor" x1="0.0641" y1="0" x2="122.8991" y2="0"/>
</g>
<g transform="translate(24.3881, 104.8287)">
<line stroke-linejoin="round" stroke-linecap="round" stroke-width="0.1282" stroke="currentColor" x1="0.0641" y1="0" x2="122.8991" y2="0"/>
</g>
<g transform="translate(24.3881, 103.8287)">
<line stroke-linejoin="round" stroke-linecap="round" stroke-width="0.1282" stroke="currentColor" x1="0.0641" y1="0" x2="122.8991" y2="0"/>
</g>
<g transform="translate(24.3881, 118.8287)">
<line stroke-linejoin="round" stroke-linecap="round" stroke-width="0.1282" stroke="currentColor" x1="0.0641" y1="0" x2="122.8991" y2="0"/>
</g>
<g transform="translate(24.3881, 117.8287)">
<line stroke-linejoin="round" stroke-linecap="round" stroke-width="0.1282" stroke="currentColor" x1="0.0641" y1="0" x2="122.8991" y2="0"/>
</g>
<g transform="translate(24.3881, 116.8287)">
<line stroke-linejoin="round" stroke-linecap="round" stroke-width="0.1282" stroke="currentColor" x1="0.0641" y1="0" x2="122.8991" y2="0"/>
</g>
<g transform="translate(24.3881, 115.8287)">
<line stroke-linejoin="round" stroke-linecap="round" stroke-width="0.1282" stroke="currentColor" x1="0.0641" y1="0" x2="122.8991" y2="0"/>
</g>
<g transform="translate(24.3881, 114.8287)">
<line stroke-linejoin="round" stroke-linecap="round" stroke-width="0.1282" stroke="currentColor" x1="0.0641" y1="0" x2="122.8991" y2="0"/>
</g>
<g transform="translate(12.1940, 119.8287)">
<rect x="37.9924" y="-0.1141" width="1.7976" height="0.2282" ry="0.1141" fill="currentColor"/>
</g>
<g transform="translate(12.1940, 119.8287)">
<rect x="18.4973" y="-0.1141" width="1.9471" height="0.2282" ry="0.1141" fill="currentColor"/>
</g>
<g color="rgba(0.0000%, 0.0000%, 100.0000%, 100.0000%)">
<g transform="translate(16.8710, 106.2151)">
<text font-family="serif" font-size="2.4698" text-anchor="start" fill="currentColor">
<tspan>T</tspan>
</text>
</g>
</g>
<g color="rgba(0.0000%, 0.0000%, 100.0000%, 100.0000%)">
</g>
<g color="rgba(0.0000%, 0.0000%, 100.0000%, 100.0000%)">
<g transform="translate(18.2331, 107.0570)">
<text font-family="serif" font-size="1.7465" text-anchor="start" fill="currentColor">
<tspan>3</tspan>
</text>
</g>
</g>
<g color="rgba(0.0000%, 0.0000%, 100.0000%, 100.0000%)">
<g transform="translate(16.8710, 117.2151)">
<text font-family="serif" font-size="2.4698" text-anchor="start" fill="currentColor">
<tspan>T</tspan>
</text>
</g>
</g>
<g color="rgba(0.0000%, 0.0000%, 100.0000%, 100.0000%)">
</g>
<g color="rgba(0.0000%, 0.0000%, 100.0000%, 100.0000%)">
<g transform="translate(18.2331, 118.0570)">
<text font-family="serif" font-size="1.7465" text-anchor="start" fill="currentColor">
<tspan>0</tspan>
</text>
</g>
</g>
<g color="rgba(0.0000%, 0.0000%, 100.0000%, 100.0000%)">
<g transform="translate(16.8710, 95.2254)">
<text font-family="serif" font-size="2.4698" text-anchor="start" fill="currentColor">
<tspan>T</tspan>
</text>
</g>
</g>
<g color="rgba(0.0000%, 0.0000%, 100.0000%, 100.0000%)">
</g>
<g color="rgba(0.0000%, 0.0000%, 100.0000%, 100.0000%)">
<g transform="translate(18.2331, 96.0672)">
<text font-family="serif" font-size="1.7465" text-anchor="start" fill="currentColor">
<tspan>4</tspan>
</text>
</g>
</g>
<g color="rgba(0.0000%, 0.0000%, 100.0000%, 100.0000%)">
<g transform="translate(16.8710, 128.2152)">
<text font-family="serif" font-size="2.4698" text-anchor="start" fill="currentColor">
<tspan>T</tspan>
</text>
</g>
</g>
<g color="rgba(0.0000%, 0.0000%, 100.0000%, 100.0000%)">
</g>
<g color="rgba(0.0000%, 0.0000%, 100.0000%, 100.0000%)">
<g transform="translate(18.2331, 129.0570)">
<text font-family="serif" font-size="1.7465" text-anchor="start" fill="currentColor">
<tspan>5</tspan>
</text>
</g>
</g>
<g color="rgba(0.0000%, 0.0000%, 100.0000%, 100.0000%)">
<g transform="translate(16.8710, 84.2254)">
<text font-family="serif" font-size="2.4698" text-anchor="start" fill="currentColor">
<tspan>T</tspan>
</text>
</g>
</g>
<g color="rgba(0.0000%, 0.0000%, 100.0000%, 100.0000%)">
</g>
<g color="rgba(0.0000%, 0.0000%, 100.0000%, 100.0000%)">
<g transform="translate(18.2331, 85.0672)">
<text font-family="serif" font-size="1.7465" text-anchor="start" fill="currentColor">
<tspan>2</tspan>
</text>
</g>
</g>
<g color="rgba(0.0000%, 0.0000%, 100.0000%, 100.0000%)">
<g transform="translate(16.8710, 139.2254)">
<text font-family="serif" font-size="2.4698" text-anchor="start" fill="currentColor">
<tspan>T</tspan>
</text>
</g>
</g>
<g color="rgba(0.0000%, 0.0000%, 100.0000%, 100.0000%)">
</g>
<g color="rgba(0.0000%, 0.0000%, 100.0000%, 100.0000%)">
<g transform="translate(18.2331, 140.0672)">
<text font-family="serif" font-size="1.7465" text-anchor="start" fill="currentColor">
<tspan>1</tspan>
</text>
</g>
</g>
<g transform="translate(31.0159, 18.8287)">
<path transform="scale(0.0040, -0.0040)" d="M208 139c69 0 117 -40 117 -99c0 -91 -107 -179 -209 -179c-69 0 -116 40 -116 99c0 91 106 179 208 179z" fill="currentColor"/>
</g>
<g color="rgba(0.0000%, 0.0000%, 100.0000%, 100.0000%)">
<g transform="translate(31.0159, 10.7646)">
<text font-family="serif" font-size="2.4698" text-anchor="start" fill="currentColor">
<tspan>IT</tspan>
</text>
</g>
<g transform="translate(33.2071, 11.6065)">
<text font-family="serif" font-size="1.7465" text-anchor="start" fill="currentColor">
<tspan>7</tspan>
</text>
</g>
</g>
<g transform="translate(31.0159, 28.8287)">
<path transform="scale(0.0040, -0.0040)" d="M208 139c69 0 117 -40 117 -99c0 -91 -107 -179 -209 -179c-69 0 -116 40 -116 99c0 91 106 179 208 179z" fill="currentColor"/>
</g>
<g transform="translate(31.0159, 41.3287)">
<path transform="scale(0.0040, -0.0040)" d="M208 139c69 0 117 -40 117 -99c0 -91 -107 -179 -209 -179c-69 0 -116 40 -116 99c0 91 106 179 208 179z" fill="currentColor"/>
</g>
<g transform="translate(31.0159, 51.3287)">
<path transform="scale(0.0040, -0.0040)" d="M208 139c69 0 117 -40 117 -99c0 -91 -107 -179 -209 -179c-69 0 -116 40 -116 99c0 91 106 179 208 179z" fill="currentColor"/>
</g>
<g transform="translate(31.0159, 61.8287)">
<path transform="scale(0.0040, -0.0040)" d="M208 139c69 0 117 -40 117 -99c0 -91 -107 -179 -209 -179c-69 0 -116 40 -116 99c0 91 106 179 208 179z" fill="currentColor"/>
</g>
<g transform="translate(31.0159, 73.3287)">
<path transform="scale(0.0040, -0.0040)" d="M208 139c69 0 117 -40 117 -99c0 -91 -107 -179 -209 -179c-69 0 -116 40 -116 99c0 91 106 179 208 179z" fill="currentColor"/>
</g>
<g transform="translate(31.0159, 86.3287)">
<path transform="scale(0.0040, -0.0040)" d="M208 139c69 0 117 -40 117 -99c0 -91 -107 -179 -209 -179c-69 0 -116 40 -116 99c0 91 106 179 208 179z" fill="currentColor"/>
</g>
<g transform="translate(31.0159, 96.8287)">
<path transform="scale(0.0040, -0.0040)" d="M208 139c69 0 117 -40 117 -99c0 -91 -107 -179 -209 -179c-69 0 -116 40 -116 99c0 91 106 179 208 179z" fill="currentColor"/>
</g>
<g transform="translate(31.0159, 107.8287)">
<path transform="scale(0.0040, -0.0040)" d="M208 139c69 0 117 -40 117 -99c0 -91 -107 -179 -209 -179c-69 0 -116 40 -116 99c0 91 106 179 208 179z" fill="currentColor"/>
</g>
<g transform="translate(31.0159, 119.8287)">
<path transform="scale(0.0040, -0.0040)" d="M208 139c69 0 117 -40 117 -99c0 -91 -107 -179 -209 -179c-69 0 -116 40 -116 99c0 91 106 179 208 179z" fill="currentColor"/>
</g>
<g transform="translate(31.0159, 129.3287)">
<path transform="scale(0.0040, -0.0040)" d="M208 139c69 0 117 -40 117 -99c0 -91 -107 -179 -209 -179c-69 0 -116 40 -116 99c0 91 106 179 208 179z" fill="currentColor"/>
</g>
<g transform="translate(31.0159, 141.8287)">
<path transform="scale(0.0040, -0.0040)" d="M208 139c69 0 117 -40 117 -99c0 -91 -107 -179 -209 -179c-69 0 -116 40 -116 99c0 91 106 179 208 179z" fill="currentColor"/>
</g>
<g transform="translate(29.5659, 41.3287)">
<path transform="scale(0.0040, -0.0040)" d="M0 114c0 12 7 22 18 26l37 15v151c0 12 10 22 22 22s22 -10 22 -22v-134l77 29v152c0 12 10 22 22 22s22 -10 22 -22v-134l16 6c3 1 8 2 11 2c15 0 28 -12 28 -28v-50c0 -12 -7 -23 -18 -27l-37 -14v-152l16 7c3 1 8 2 11 2c15 0 28 -13 28 -29v-50c0 -12 -7 -22 -18 -26
l-37 -15v-151c0 -12 -10 -22 -22 -22s-22 10 -22 22v134l-77 -29v-152c0 -12 -10 -22 -22 -22s-22 10 -22 22v134l-16 -6c-3 -1 -8 -2 -11 -2c-15 0 -28 12 -28 28v50c0 12 7 23 18 27l37 14v152l-16 -7c-3 -1 -8 -2 -11 -2c-15 0 -28 13 -28 29v50zM176 91l-77 -30v-152
l77 30v152z" fill="currentColor"/>
</g>
<g transform="translate(29.8659, 61.8287)">
<path transform="scale(0.0040, -0.0040)" d="M33 35l-2 -60v-11c0 -21 2 -43 5 -64c42 38 87 81 87 138c0 32 -13 63 -41 63c-31 0 -48 -32 -49 -66zM32 446l-9 -337c25 26 59 40 95 40c50 0 82 -51 82 -105c0 -77 -80 -117 -137 -169c-18 -17 -26 -48 -52 -48c-16 0 -28 15 -28 32l-15 587c10 6 21 8 32 8
s22 -2 32 -8z" fill="currentColor"/>
</g>
<g transform="translate(29.8659, 73.3287)">
<path transform="scale(0.0040, -0.0040)" d="M33 35l-2 -60v-11c0 -21 2 -43 5 -64c42 38 87 81 87 138c0 32 -13 63 -41 63c-31 0 -48 -32 -49 -66zM32 446l-9 -337c25 26 59 40 95 40c50 0 82 -51 82 -105c0 -77 -80 -117 -137 -169c-18 -17 -26 -48 -52 -48c-16 0 -28 15 -28 32l-15 587c10 6 21 8 32 8
s22 -2 32 -8z" fill="currentColor"/>
</g>
<g transform="translate(29.8659, 107.8287)">
<path transform="scale(0.0040, -0.0040)" d="M33 35l-2 -60v-11c0 -21 2 -43 5 -64c42 38 87 81 87 138c0 32 -13 63 -41 63c-31 0 -48 -32 -49 -66zM32 446l-9 -337c25 26 59 40 95 40c50 0 82 -51 82 -105c0 -77 -80 -117 -137 -169c-18 -17 -26 -48 -52 -48c-16 0 -28 15 -28 32l-15 587c10 6 21 8 32 8
s22 -2 32 -8z" fill="currentColor"/>
</g>
<g transform="translate(29.5659, 141.8287)">
<path transform="scale(0.0040, -0.0040)" d="M0 114c0 12 7 22 18 26l37 15v151c0 12 10 22 22 22s22 -10 22 -22v-134l77 29v152c0 12 10 22 22 22s22 -10 22 -22v-134l16 6c3 1 8 2 11 2c15 0 28 -12 28 -28v-50c0 -12 -7 -23 -18 -27l-37 -14v-152l16 7c3 1 8 2 11 2c15 0 28 -13 28 -29v-50c0 -12 -7 -22 -18 -26
l-37 -15v-151c0 -12 -10 -22 -22 -22s-22 10 -22 22v134l-77 -29v-152c0 -12 -10 -22 -22 -22s-22 10 -22 22v134l-16 -6c-3 -1 -8 -2 -11 -2c-15 0 -28 12 -28 28v50c0 12 7 23 18 27l37 14v152l-16 -7c-3 -1 -8 -2 -11 -2c-15 0 -28 13 -28 29v50zM176 91l-77 -30v-152
l77 30v152z" fill="currentColor"/>
</g>
<g transform="translate(40.6753, 19.8287)">
<path transform="scale(0.0040, -0.0040)" d="M208 139c69 0 117 -40 117 -99c0 -91 -107 -179 -209 -179c-69 0 -116 40 -116 99c0 91 106 179 208 179z" fill="currentColor"/>
</g>
<g color="rgba(0.0000%, 0.0000%, 100.0000%, 100.0000%)">
<g transform="translate(40.6753, 10.7646)">
<text font-family="serif" font-size="2.4698" text-anchor="start" fill="currentColor">
<tspan>IT</tspan>
</text>
</g>
<g transform="translate(42.8665, 11.6065)">
<text font-family="serif" font-size="1.7465" text-anchor="start" fill="currentColor">
<tspan>3</tspan>
</text>
</g>
</g>
<g transform="translate(40.6753, 29.8287)">
<path transform="scale(0.0040, -0.0040)" d="M208 139c69 0 117 -40 117 -99c0 -91 -107 -179 -209 -179c-69 0 -116 40 -116 99c0 91 106 179 208 179z" fill="currentColor"/>
</g>
<g transform="translate(40.6753, 42.3287)">
<path transform="scale(0.0040, -0.0040)" d="M208 139c69 0 117 -40 117 -99c0 -91 -107 -179 -209 -179c-69 0 -116 40 -116 99c0 91 106 179 208 179z" fill="currentColor"/>
</g>
<g transform="translate(40.6753, 52.3287)">
<path transform="scale(0.0040, -0.0040)" d="M208 139c69 0 117 -40 117 -99c0 -91 -107 -179 -209 -179c-69 0 -116 40 -116 99c0 91 106 179 208 179z" fill="currentColor"/>
</g>
<g transform="translate(40.6753, 63.3287)">
<path transform="scale(0.0040, -0.0040)" d="M208 139c69 0 117 -40 117 -99c0 -91 -107 -179 -209 -179c-69 0 -116 40 -116 99c0 91 106 179 208 179z" fill="currentColor"/>
</g>
<g transform="translate(40.6753, 74.8287)">
<path transform="scale(0.0040, -0.0040)" d="M208 139c69 0 117 -40 117 -99c0 -91 -107 -179 -209 -179c-69 0 -116 40 -116 99c0 91 106 179 208 179z" fill="currentColor"/>
</g>
<g transform="translate(40.6753, 83.8287)">
<path transform="scale(0.0040, -0.0040)" d="M208 139c69 0 117 -40 117 -99c0 -91 -107 -179 -209 -179c-69 0 -116 40 -116 99c0 91 106 179 208 179z" fill="currentColor"/>
</g>
<g transform="translate(40.6753, 97.8287)">
<path transform="scale(0.0040, -0.0040)" d="M208 139c69 0 117 -40 117 -99c0 -91 -107 -179 -209 -179c-69 0 -116 40 -116 99c0 91 106 179 208 179z" fill="currentColor"/>
</g>
<g transform="translate(40.6753, 105.8287)">
<path transform="scale(0.0040, -0.0040)" d="M208 139c69 0 117 -40 117 -99c0 -91 -107 -179 -209 -179c-69 0 -116 40 -116 99c0 91 106 179 208 179z" fill="currentColor"/>
</g>
<g transform="translate(40.6753, 117.3287)">
<path transform="scale(0.0040, -0.0040)" d="M208 139c69 0 117 -40 117 -99c0 -91 -107 -179 -209 -179c-69 0 -116 40 -116 99c0 91 106 179 208 179z" fill="currentColor"/>
</g>
<g transform="translate(40.6753, 130.8287)">
<path transform="scale(0.0040, -0.0040)" d="M208 139c69 0 117 -40 117 -99c0 -91 -107 -179 -209 -179c-69 0 -116 40 -116 99c0 91 106 179 208 179z" fill="currentColor"/>
</g>
<g transform="translate(40.6753, 139.3287)">
<path transform="scale(0.0040, -0.0040)" d="M208 139c69 0 117 -40 117 -99c0 -91 -107 -179 -209 -179c-69 0 -116 40 -116 99c0 91 106 179 208 179z" fill="currentColor"/>
</g>
<g transform="translate(39.5253, 19.8287)">
<path transform="scale(0.0040, -0.0040)" d="M33 35l-2 -60v-11c0 -21 2 -43 5 -64c42 38 87 81 87 138c0 32 -13 63 -41 63c-31 0 -48 -32 -49 -66zM32 446l-9 -337c25 26 59 40 95 40c50 0 82 -51 82 -105c0 -77 -80 -117 -137 -169c-18 -17 -26 -48 -52 -48c-16 0 -28 15 -28 32l-15 587c10 6 21 8 32 8
s22 -2 32 -8z" fill="currentColor"/>
</g>
<g transform="translate(39.2253, 63.3287)">
<path transform="scale(0.0040, -0.0040)" d="M0 114c0 12 7 22 18 26l37 15v151c0 12 10 22 22 22s22 -10 22 -22v-134l77 29v152c0 12 10 22 22 22s22 -10 22 -22v-134l16 6c3 1 8 2 11 2c15 0 28 -12 28 -28v-50c0 -12 -7 -23 -18 -27l-37 -14v-152l16 7c3 1 8 2 11 2c15 0 28 -13 28 -29v-50c0 -12 -7 -22 -18 -26
l-37 -15v-151c0 -12 -10 -22 -22 -22s-22 10 -22 22v134l-77 -29v-152c0 -12 -10 -22 -22 -22s-22 10 -22 22v134l-16 -6c-3 -1 -8 -2 -11 -2c-15 0 -28 12 -28 28v50c0 12 7 23 18 27l37 14v152l-16 -7c-3 -1 -8 -2 -11 -2c-15 0 -28 13 -28 29v50zM176 91l-77 -30v-152
l77 30v152z" fill="currentColor"/>
</g>
<g transform="translate(39.5253, 83.8287)">
<path transform="scale(0.0040, -0.0040)" d="M33 35l-2 -60v-11c0 -21 2 -43 5 -64c42 38 87 81 87 138c0 32 -13 63 -41 63c-31 0 -48 -32 -49 -66zM32 446l-9 -337c25 26 59 40 95 40c50 0 82 -51 82 -105c0 -77 -80 -117 -137 -169c-18 -17 -26 -48 -52 -48c-16 0 -28 15 -28 32l-15 587c10 6 21 8 32 8
s22 -2 32 -8z" fill="currentColor"/>
</g>
<g transform="translate(39.5253, 117.3287)">
<path transform="scale(0.0040, -0.0040)" d="M33 35l-2 -60v-11c0 -21 2 -43 5 -64c42 38 87 81 87 138c0 32 -13 63 -41 63c-31 0 -48 -32 -49 -66zM32 446l-9 -337c25 26 59 40 95 40c50 0 82 -51 82 -105c0 -77 -80 -117 -137 -169c-18 -17 -26 -48 -52 -48c-16 0 -28 15 -28 32l-15 587c10 6 21 8 32 8
s22 -2 32 -8z" fill="currentColor"/>
</g>
<g transform="translate(39.2253, 130.8287)">
<path transform="scale(0.0040, -0.0040)" d="M0 114c0 12 7 22 18 26l37 15v151c0 12 10 22 22 22s22 -10 22 -22v-134l77 29v152c0 12 10 22 22 22s22 -10 22 -22v-134l16 6c3 1 8 2 11 2c15 0 28 -12 28 -28v-50c0 -12 -7 -23 -18 -27l-37 -14v-152l16 7c3 1 8 2 11 2c15 0 28 -13 28 -29v-50c0 -12 -7 -22 -18 -26
l-37 -15v-151c0 -12 -10 -22 -22 -22s-22 10 -22 22v134l-77 -29v-152c0 -12 -10 -22 -22 -22s-22 10 -22 22v134l-16 -6c-3 -1 -8 -2 -11 -2c-15 0 -28 12 -28 28v50c0 12 7 23 18 27l37 14v152l-16 -7c-3 -1 -8 -2 -11 -2c-15 0 -28 13 -28 29v50zM176 91l-77 -30v-152
l77 30v152z" fill="currentColor"/>
</g>
<g transform="translate(50.3615, 18.3287)">
<path transform="scale(0.0040, -0.0040)" d="M208 139c69 0 117 -40 117 -99c0 -91 -107 -179 -209 -179c-69 0 -116 40 -116 99c0 91 106 179 208 179z" fill="currentColor"/>
</g>
<g color="rgba(0.0000%, 0.0000%, 100.0000%, 100.0000%)">
<g transform="translate(50.3615, 10.7646)">
<text font-family="serif" font-size="2.4698" text-anchor="start" fill="currentColor">
<tspan>IT</tspan>
</text>
</g>
<g transform="translate(52.5527, 11.6065)">
<text font-family="serif" font-size="1.7465" text-anchor="start" fill="currentColor">
<tspan>8</tspan>
</text>
</g>
</g>
<g transform="translate(50.3615, 31.8287)">
<path transform="scale(0.0040, -0.0040)" d="M208 139c69 0 117 -40 117 -99c0 -91 -107 -179 -209 -179c-69 0 -116 40 -116 99c0 91 106 179 208 179z" fill="currentColor"/>
</g>
<g transform="translate(50.3615, 40.8287)">
<path transform="scale(0.0040, -0.0040)" d="M208 139c69 0 117 -40 117 -99c0 -91 -107 -179 -209 -179c-69 0 -116 40 -116 99c0 91 106 179 208 179z" fill="currentColor"/>
</g>
<g transform="translate(50.3615, 50.8287)">
<path transform="scale(0.0040, -0.0040)" d="M208 139c69 0 117 -40 117 -99c0 -91 -107 -179 -209 -179c-69 0 -116 40 -116 99c0 91 106 179 208 179z" fill="currentColor"/>
</g>
<g transform="translate(50.3615, 61.8287)">
<path transform="scale(0.0040, -0.0040)" d="M208 139c69 0 117 -40 117 -99c0 -91 -107 -179 -209 -179c-69 0 -116 40 -116 99c0 91 106 179 208 179z" fill="currentColor"/>
</g>
<g transform="translate(50.3615, 73.3287)">
<path transform="scale(0.0040, -0.0040)" d="M208 139c69 0 117 -40 117 -99c0 -91 -107 -179 -209 -179c-69 0 -116 40 -116 99c0 91 106 179 208 179z" fill="currentColor"/>
</g>
<g transform="translate(50.3615, 85.8287)">
<path transform="scale(0.0040, -0.0040)" d="M208 139c69 0 117 -40 117 -99c0 -91 -107 -179 -209 -179c-69 0 -116 40 -116 99c0 91 106 179 208 179z" fill="currentColor"/>
</g>
<g transform="translate(50.3615, 96.3287)">
<path transform="scale(0.0040, -0.0040)" d="M208 139c69 0 117 -40 117 -99c0 -91 -107 -179 -209 -179c-69 0 -116 40 -116 99c0 91 106 179 208 179z" fill="currentColor"/>
</g>
<g transform="translate(50.3615, 107.8287)">
<path transform="scale(0.0040, -0.0040)" d="M208 139c69 0 117 -40 117 -99c0 -91 -107 -179 -209 -179c-69 0 -116 40 -116 99c0 91 106 179 208 179z" fill="currentColor"/>
</g>
<g transform="translate(50.3615, 119.8287)">
<path transform="scale(0.0040, -0.0040)" d="M208 139c69 0 117 -40 117 -99c0 -91 -107 -179 -209 -179c-69 0 -116 40 -116 99c0 91 106 179 208 179z" fill="currentColor"/>
</g>
<g transform="translate(50.3615, 129.3287)">
<path transform="scale(0.0040, -0.0040)" d="M208 139c69 0 117 -40 117 -99c0 -91 -107 -179 -209 -179c-69 0 -116 40 -116 99c0 91 106 179 208 179z" fill="currentColor"/>
</g>
<g transform="translate(50.3615, 141.3287)">
<path transform="scale(0.0040, -0.0040)" d="M208 139c69 0 117 -40 117 -99c0 -91 -107 -179 -209 -179c-69 0 -116 40 -116 99c0 91 106 179 208 179z" fill="currentColor"/>
</g>
<g transform="translate(49.2115, 18.3287)">
<path transform="scale(0.0040, -0.0040)" d="M33 35l-2 -60v-11c0 -21 2 -43 5 -64c42 38 87 81 87 138c0 32 -13 63 -41 63c-31 0 -48 -32 -49 -66zM32 446l-9 -337c25 26 59 40 95 40c50 0 82 -51 82 -105c0 -77 -80 -117 -137 -169c-18 -17 -26 -48 -52 -48c-16 0 -28 15 -28 32l-15 587c10 6 21 8 32 8
s22 -2 32 -8z" fill="currentColor"/>
</g>
<g transform="translate(49.2115, 50.8287)">
<path transform="scale(0.0040, -0.0040)" d="M33 35l-2 -60v-11c0 -21 2 -43 5 -64c42 38 87 81 87 138c0 32 -13 63 -41 63c-31 0 -48 -32 -49 -66zM32 446l-9 -337c25 26 59 40 95 40c50 0 82 -51 82 -105c0 -77 -80 -117 -137 -169c-18 -17 -26 -48 -52 -48c-16 0 -28 15 -28 32l-15 587c10 6 21 8 32 8
s22 -2 32 -8z" fill="currentColor"/>
</g>
<g transform="translate(49.3115, 61.8287)">
<path transform="scale(0.0040, -0.0040)" d="M-8 375c8 5 18 7 27 7s20 -2 28 -7l-3 -196l99 24h4c11 0 20 -8 20 -19l8 -559c-8 -5 -19 -7 -28 -7s-19 2 -27 7l3 196l-99 -24h-5c-11 0 -19 8 -19 19zM127 109l-85 -20l-2 -198l84 20z" fill="currentColor"/>
</g>
<g transform="translate(49.3249, 73.3287)">
<path transform="scale(0.0040, -0.0040)" d="M-8 375c8 5 18 7 27 7s20 -2 28 -7l-3 -196l99 24h4c11 0 20 -8 20 -19l8 -559c-8 -5 -19 -7 -28 -7s-19 2 -27 7l3 196l-99 -24h-5c-11 0 -19 8 -19 19zM127 109l-85 -20l-2 -198l84 20z" fill="currentColor"/>
</g>
<g transform="translate(49.2115, 85.8287)">
<path transform="scale(0.0040, -0.0040)" d="M33 35l-2 -60v-11c0 -21 2 -43 5 -64c42 38 87 81 87 138c0 32 -13 63 -41 63c-31 0 -48 -32 -49 -66zM32 446l-9 -337c25 26 59 40 95 40c50 0 82 -51 82 -105c0 -77 -80 -117 -137 -169c-18 -17 -26 -48 -52 -48c-16 0 -28 15 -28 32l-15 587c10 6 21 8 32 8
s22 -2 32 -8z" fill="currentColor"/>
</g>
<g transform="translate(49.3249, 107.8287)">
<path transform="scale(0.0040, -0.0040)" d="M-8 375c8 5 18 7 27 7s20 -2 28 -7l-3 -196l99 24h4c11 0 20 -8 20 -19l8 -559c-8 -5 -19 -7 -28 -7s-19 2 -27 7l3 196l-99 -24h-5c-11 0 -19 8 -19 19zM127 109l-85 -20l-2 -198l84 20z" fill="currentColor"/>
</g>
<g transform="translate(48.9115, 119.8287)">
<path transform="scale(0.0040, -0.0040)" d="M0 114c0 12 7 22 18 26l37 15v151c0 12 10 22 22 22s22 -10 22 -22v-134l77 29v152c0 12 10 22 22 22s22 -10 22 -22v-134l16 6c3 1 8 2 11 2c15 0 28 -12 28 -28v-50c0 -12 -7 -23 -18 -27l-37 -14v-152l16 7c3 1 8 2 11 2c15 0 28 -13 28 -29v-50c0 -12 -7 -22 -18 -26
l-37 -15v-151c0 -12 -10 -22 -22 -22s-22 10 -22 22v134l-77 -29v-152c0 -12 -10 -22 -22 -22s-22 10 -22 22v134l-16 -6c-3 -1 -8 -2 -11 -2c-15 0 -28 12 -28 28v50c0 12 7 23 18 27l37 14v152l-16 -7c-3 -1 -8 -2 -11 -2c-15 0 -28 13 -28 29v50zM176 91l-77 -30v-152
l77 30v152z" fill="currentColor"/>
</g>
<g transform="translate(48.9115, 129.3287)">
<path transform="scale(0.0040, -0.0040)" d="M0 114c0 12 7 22 18 26l37 15v151c0 12 10 22 22 22s22 -10 22 -22v-134l77 29v152c0 12 10 22 22 22s22 -10 22 -22v-134l16 6c3 1 8 2 11 2c15 0 28 -12 28 -28v-50c0 -12 -7 -23 -18 -27l-37 -14v-152l16 7c3 1 8 2 11 2c15 0 28 -13 28 -29v-50c0 -12 -7 -22 -18 -26
l-37 -15v-151c0 -12 -10 -22 -22 -22s-22 10 -22 22v134l-77 -29v-152c0 -12 -10 -22 -22 -22s-22 10 -22 22v134l-16 -6c-3 -1 -8 -2 -11 -2c-15 0 -28 12 -28 28v50c0 12 7 23 18 27l37 14v152l-16 -7c-3 -1 -8 -2 -11 -2c-15 0 -28 13 -28 29v50zM176 91l-77 -30v-152
l77 30v152z" fill="currentColor"/>
</g>
<g transform="translate(60.0447, 19.3287)">
<path transform="scale(0.0040, -0.0040)" d="M208 139c69 0 117 -40 117 -99c0 -91 -107 -179 -209 -179c-69 0 -116 40 -116 99c0 91 106 179 208 179z" fill="currentColor"/>
</g>
<g color="rgba(0.0000%, 0.0000%, 100.0000%, 100.0000%)">
<g transform="translate(60.0447, 10.7646)">
<text font-family="serif" font-size="2.4698" text-anchor="start" fill="currentColor">
<tspan>IT</tspan>
</text>
</g>
<g transform="translate(62.2359, 11.6065)">
<text font-family="serif" font-size="1.7465" text-anchor="start" fill="currentColor">
<tspan>5</tspan>
</text>
</g>
</g>
<g transform="translate(60.0447, 29.3287)">
<path transform="scale(0.0040, -0.0040)" d="M208 139c69 0 117 -40 117 -99c0 -91 -107 -179 -209 -179c-69 0 -116 40 -116 99c0 91 106 179 208 179z" fill="currentColor"/>
</g>
<g transform="translate(60.0447, 41.8287)">
<path transform="scale(0.0040, -0.0040)" d="M208 139c69 0 117 -40 117 -99c0 -91 -107 -179 -209 -179c-69 0 -116 40 -116 99c0 91 106 179 208 179z" fill="currentColor"/>
</g>
<g transform="translate(60.0447, 51.8287)">
<path transform="scale(0.0040, -0.0040)" d="M208 139c69 0 117 -40 117 -99c0 -91 -107 -179 -209 -179c-69 0 -116 40 -116 99c0 91 106 179 208 179z" fill="currentColor"/>
</g>
<g transform="translate(60.0447, 62.3287)">
<path transform="scale(0.0040, -0.0040)" d="M208 139c69 0 117 -40 117 -99c0 -91 -107 -179 -209 -179c-69 0 -116 40 -116 99c0 91 106 179 208 179z" fill="currentColor"/>
</g>
<g transform="translate(60.0447, 74.3287)">
<path transform="scale(0.0040, -0.0040)" d="M208 139c69 0 117 -40 117 -99c0 -91 -107 -179 -209 -179c-69 0 -116 40 -116 99c0 91 106 179 208 179z" fill="currentColor"/>
</g>
<g transform="translate(60.0447, 86.8287)">
<path transform="scale(0.0040, -0.0040)" d="M208 139c69 0 117 -40 117 -99c0 -91 -107 -179 -209 -179c-69 0 -116 40 -116 99c0 91 106 179 208 179z" fill="currentColor"/>
</g>
<g transform="translate(60.0447, 97.3287)">
<path transform="scale(0.0040, -0.0040)" d="M208 139c69 0 117 -40 117 -99c0 -91 -107 -179 -209 -179c-69 0 -116 40 -116 99c0 91 106 179 208 179z" fill="currentColor"/>
</g>
<g transform="translate(60.0447, 108.8287)">
<path transform="scale(0.0040, -0.0040)" d="M208 139c69 0 117 -40 117 -99c0 -91 -107 -179 -209 -179c-69 0 -116 40 -116 99c0 91 106 179 208 179z" fill="currentColor"/>
</g>
<g transform="translate(60.0447, 116.8287)">
<path transform="scale(0.0040, -0.0040)" d="M208 139c69 0 117 -40 117 -99c0 -91 -107 -179 -209 -179c-69 0 -116 40 -116 99c0 91 106 179 208 179z" fill="currentColor"/>
</g>
<g transform="translate(60.0447, 129.8287)">
<path transform="scale(0.0040, -0.0040)" d="M208 139c69 0 117 -40 117 -99c0 -91 -107 -179 -209 -179c-69 0 -116 40 -116 99c0 91 106 179 208 179z" fill="currentColor"/>
</g>
<g transform="translate(60.0447, 138.8287)">
<path transform="scale(0.0040, -0.0040)" d="M208 139c69 0 117 -40 117 -99c0 -91 -107 -179 -209 -179c-69 0 -116 40 -116 99c0 91 106 179 208 179z" fill="currentColor"/>
</g>
<g transform="translate(58.8947, 62.3287)">
<path transform="scale(0.0040, -0.0040)" d="M33 35l-2 -60v-11c0 -21 2 -43 5 -64c42 38 87 81 87 138c0 32 -13 63 -41 63c-31 0 -48 -32 -49 -66zM32 446l-9 -337c25 26 59 40 95 40c50 0 82 -51 82 -105c0 -77 -80 -117 -137 -169c-18 -17 -26 -48 -52 -48c-16 0 -28 15 -28 32l-15 587c10 6 21 8 32 8
s22 -2 32 -8z" fill="currentColor"/>
</g>
<g transform="translate(58.5947, 74.3287)">
<path transform="scale(0.0040, -0.0040)" d="M0 114c0 12 7 22 18 26l37 15v151c0 12 10 22 22 22s22 -10 22 -22v-134l77 29v152c0 12 10 22 22 22s22 -10 22 -22v-134l16 6c3 1 8 2 11 2c15 0 28 -12 28 -28v-50c0 -12 -7 -23 -18 -27l-37 -14v-152l16 7c3 1 8 2 11 2c15 0 28 -13 28 -29v-50c0 -12 -7 -22 -18 -26
l-37 -15v-151c0 -12 -10 -22 -22 -22s-22 10 -22 22v134l-77 -29v-152c0 -12 -10 -22 -22 -22s-22 10 -22 22v134l-16 -6c-3 -1 -8 -2 -11 -2c-15 0 -28 12 -28 28v50c0 12 7 23 18 27l37 14v152l-16 -7c-3 -1 -8 -2 -11 -2c-15 0 -28 13 -28 29v50zM176 91l-77 -30v-152
l77 30v152z" fill="currentColor"/>
</g>
<g transform="translate(58.5947, 108.8287)">
<path transform="scale(0.0040, -0.0040)" d="M0 114c0 12 7 22 18 26l37 15v151c0 12 10 22 22 22s22 -10 22 -22v-134l77 29v152c0 12 10 22 22 22s22 -10 22 -22v-134l16 6c3 1 8 2 11 2c15 0 28 -12 28 -28v-50c0 -12 -7 -23 -18 -27l-37 -14v-152l16 7c3 1 8 2 11 2c15 0 28 -13 28 -29v-50c0 -12 -7 -22 -18 -26
l-37 -15v-151c0 -12 -10 -22 -22 -22s-22 10 -22 22v134l-77 -29v-152c0 -12 -10 -22 -22 -22s-22 10 -22 22v134l-16 -6c-3 -1 -8 -2 -11 -2c-15 0 -28 12 -28 28v50c0 12 7 23 18 27l37 14v152l-16 -7c-3 -1 -8 -2 -11 -2c-15 0 -28 13 -28 29v50zM176 91l-77 -30v-152
l77 30v152z" fill="currentColor"/>
</g>
<g transform="translate(58.8947, 116.8287)">
<path transform="scale(0.0040, -0.0040)" d="M33 35l-2 -60v-11c0 -21 2 -43 5 -64c42 38 87 81 87 138c0 32 -13 63 -41 63c-31 0 -48 -32 -49 -66zM32 446l-9 -337c25 26 59 40 95 40c50 0 82 -51 82 -105c0 -77 -80 -117 -137 -169c-18 -17 -26 -48 -52 -48c-16 0 -28 15 -28 32l-15 587c10 6 21 8 32 8
s22 -2 32 -8z" fill="currentColor"/>
</g>
<g transform="translate(58.8947, 129.8287)">
<path transform="scale(0.0040, -0.0040)" d="M33 35l-2 -60v-11c0 -21 2 -43 5 -64c42 38 87 81 87 138c0 32 -13 63 -41 63c-31 0 -48 -32 -49 -66zM32 446l-9 -337c25 26 59 40 95 40c50 0 82 -51 82 -105c0 -77 -80 -117 -137 -169c-18 -17 -26 -48 -52 -48c-16 0 -28 15 -28 32l-15 587c10 6 21 8 32 8
s22 -2 32 -8z" fill="currentColor"/>
</g>
<g transform="translate(69.7725, 19.8287)">
<path transform="scale(0.0040, -0.0040)" d="M208 139c69 0 117 -40 117 -99c0 -91 -107 -179 -209 -179c-69 0 -116 40 -116 99c0 91 106 179 208 179z" fill="currentColor"/>
</g>
<g color="rgba(0.0000%, 0.0000%, 100.0000%, 100.0000%)">
<g transform="translate(69.7725, 10.7646)">
<text font-family="serif" font-size="2.4698" text-anchor="start" fill="currentColor">
<tspan>IT</tspan>
</text>
</g>
<g transform="translate(71.9638, 11.6065)">
<text font-family="serif" font-size="1.7465" text-anchor="start" fill="currentColor">
<tspan>4</tspan>
</text>
</g>
</g>
<g transform="translate(69.7725, 29.3287)">
<path transform="scale(0.0040, -0.0040)" d="M208 139c69 0 117 -40 117 -99c0 -91 -107 -179 -209 -179c-69 0 -116 40 -116 99c0 91 106 179 208 179z" fill="currentColor"/>
</g>
<g transform="translate(69.7725, 41.8287)">
<path transform="scale(0.0040, -0.0040)" d="M208 139c69 0 117 -40 117 -99c0 -91 -107 -179 -209 -179c-69 0 -116 40 -116 99c0 91 106 179 208 179z" fill="currentColor"/>
</g>
<g transform="translate(69.7725, 52.3287)">
<path transform="scale(0.0040, -0.0040)" d="M208 139c69 0 117 -40 117 -99c0 -91 -107 -179 -209 -179c-69 0 -116 40 -116 99c0 91 106 179 208 179z" fill="currentColor"/>
</g>
<g transform="translate(69.7725, 62.8287)">
<path transform="scale(0.0040, -0.0040)" d="M208 139c69 0 117 -40 117 -99c0 -91 -107 -179 -209 -179c-69 0 -116 40 -116 99c0 91 106 179 208 179z" fill="currentColor"/>
</g>
<g transform="translate(69.7725, 74.3287)">
<path transform="scale(0.0040, -0.0040)" d="M208 139c69 0 117 -40 117 -99c0 -91 -107 -179 -209 -179c-69 0 -116 40 -116 99c0 91 106 179 208 179z" fill="currentColor"/>
</g>
<g transform="translate(69.7725, 83.8287)">
<path transform="scale(0.0040, -0.0040)" d="M208 139c69 0 117 -40 117 -99c0 -91 -107 -179 -209 -179c-69 0 -116 40 -116 99c0 91 106 179 208 179z" fill="currentColor"/>
</g>
<g transform="translate(69.7725, 97.8287)">
<path transform="scale(0.0040, -0.0040)" d="M208 139c69 0 117 -40 117 -99c0 -91 -107 -179 -209 -179c-69 0 -116 40 -116 99c0 91 106 179 208 179z" fill="currentColor"/>
</g>
<g transform="translate(69.7725, 108.8287)">
<path transform="scale(0.0040, -0.0040)" d="M208 139c69 0 117 -40 117 -99c0 -91 -107 -179 -209 -179c-69 0 -116 40 -116 99c0 91 106 179 208 179z" fill="currentColor"/>
</g>
<g transform="translate(69.7725, 117.3287)">
<path transform="scale(0.0040, -0.0040)" d="M208 139c69 0 117 -40 117 -99c0 -91 -107 -179 -209 -179c-69 0 -116 40 -116 99c0 91 106 179 208 179z" fill="currentColor"/>
</g>
<g transform="translate(69.7725, 130.3287)">
<path transform="scale(0.0040, -0.0040)" d="M208 139c69 0 117 -40 117 -99c0 -91 -107 -179 -209 -179c-69 0 -116 40 -116 99c0 91 106 179 208 179z" fill="currentColor"/>
</g>
<g transform="translate(69.7725, 138.8287)">
<path transform="scale(0.0040, -0.0040)" d="M208 139c69 0 117 -40 117 -99c0 -91 -107 -179 -209 -179c-69 0 -116 40 -116 99c0 91 106 179 208 179z" fill="currentColor"/>
</g>
<g transform="translate(68.7360, 19.8287)">
<path transform="scale(0.0040, -0.0040)" d="M-8 375c8 5 18 7 27 7s20 -2 28 -7l-3 -196l99 24h4c11 0 20 -8 20 -19l8 -559c-8 -5 -19 -7 -28 -7s-19 2 -27 7l3 196l-99 -24h-5c-11 0 -19 8 -19 19zM127 109l-85 -20l-2 -198l84 20z" fill="currentColor"/>
</g>
<g transform="translate(68.6225, 29.3287)">
<path transform="scale(0.0040, -0.0040)" d="M33 35l-2 -60v-11c0 -21 2 -43 5 -64c42 38 87 81 87 138c0 32 -13 63 -41 63c-31 0 -48 -32 -49 -66zM32 446l-9 -337c25 26 59 40 95 40c50 0 82 -51 82 -105c0 -77 -80 -117 -137 -169c-18 -17 -26 -48 -52 -48c-16 0 -28 15 -28 32l-15 587c10 6 21 8 32 8
s22 -2 32 -8z" fill="currentColor"/>
</g>
<g transform="translate(68.6225, 41.8287)">
<path transform="scale(0.0040, -0.0040)" d="M33 35l-2 -60v-11c0 -21 2 -43 5 -64c42 38 87 81 87 138c0 32 -13 63 -41 63c-31 0 -48 -32 -49 -66zM32 446l-9 -337c25 26 59 40 95 40c50 0 82 -51 82 -105c0 -77 -80 -117 -137 -169c-18 -17 -26 -48 -52 -48c-16 0 -28 15 -28 32l-15 587c10 6 21 8 32 8
s22 -2 32 -8z" fill="currentColor"/>
</g>
<g transform="translate(68.3225, 52.3287)">
<path transform="scale(0.0040, -0.0040)" d="M0 114c0 12 7 22 18 26l37 15v151c0 12 10 22 22 22s22 -10 22 -22v-134l77 29v152c0 12 10 22 22 22s22 -10 22 -22v-134l16 6c3 1 8 2 11 2c15 0 28 -12 28 -28v-50c0 -12 -7 -23 -18 -27l-37 -14v-152l16 7c3 1 8 2 11 2c15 0 28 -13 28 -29v-50c0 -12 -7 -22 -18 -26
l-37 -15v-151c0 -12 -10 -22 -22 -22s-22 10 -22 22v134l-77 -29v-152c0 -12 -10 -22 -22 -22s-22 10 -22 22v134l-16 -6c-3 -1 -8 -2 -11 -2c-15 0 -28 12 -28 28v50c0 12 7 23 18 27l37 14v152l-16 -7c-3 -1 -8 -2 -11 -2c-15 0 -28 13 -28 29v50zM176 91l-77 -30v-152
l77 30v152z" fill="currentColor"/>
</g>
<g transform="translate(68.7360, 74.3287)">
<path transform="scale(0.0040, -0.0040)" d="M-8 375c8 5 18 7 27 7s20 -2 28 -7l-3 -196l99 24h4c11 0 20 -8 20 -19l8 -559c-8 -5 -19 -7 -28 -7s-19 2 -27 7l3 196l-99 -24h-5c-11 0 -19 8 -19 19zM127 109l-85 -20l-2 -198l84 20z" fill="currentColor"/>
</g>
<g transform="translate(68.7225, 83.8287)">
<path transform="scale(0.0040, -0.0040)" d="M-8 375c8 5 18 7 27 7s20 -2 28 -7l-3 -196l99 24h4c11 0 20 -8 20 -19l8 -559c-8 -5 -19 -7 -28 -7s-19 2 -27 7l3 196l-99 -24h-5c-11 0 -19 8 -19 19zM127 109l-85 -20l-2 -198l84 20z" fill="currentColor"/>
</g>
<g transform="translate(68.3225, 97.8287)">
<path transform="scale(0.0040, -0.0040)" d="M0 114c0 12 7 22 18 26l37 15v151c0 12 10 22 22 22s22 -10 22 -22v-134l77 29v152c0 12 10 22 22 22s22 -10 22 -22v-134l16 6c3 1 8 2 11 2c15 0 28 -12 28 -28v-50c0 -12 -7 -23 -18 -27l-37 -14v-152l16 7c3 1 8 2 11 2c15 0 28 -13 28 -29v-50c0 -12 -7 -22 -18 -26
l-37 -15v-151c0 -12 -10 -22 -22 -22s-22 10 -22 22v134l-77 -29v-152c0 -12 -10 -22 -22 -22s-22 10 -22 22v134l-16 -6c-3 -1 -8 -2 -11 -2c-15 0 -28 12 -28 28v50c0 12 7 23 18 27l37 14v152l-16 -7c-3 -1 -8 -2 -11 -2c-15 0 -28 13 -28 29v50zM176 91l-77 -30v-152
l77 30v152z" fill="currentColor"/>
</g>
<g transform="translate(68.7360, 108.8287)">
<path transform="scale(0.0040, -0.0040)" d="M-8 375c8 5 18 7 27 7s20 -2 28 -7l-3 -196l99 24h4c11 0 20 -8 20 -19l8 -559c-8 -5 -19 -7 -28 -7s-19 2 -27 7l3 196l-99 -24h-5c-11 0 -19 8 -19 19zM127 109l-85 -20l-2 -198l84 20z" fill="currentColor"/>
</g>
<g transform="translate(68.7360, 117.3287)">
<path transform="scale(0.0040, -0.0040)" d="M-8 375c8 5 18 7 27 7s20 -2 28 -7l-3 -196l99 24h4c11 0 20 -8 20 -19l8 -559c-8 -5 -19 -7 -28 -7s-19 2 -27 7l3 196l-99 -24h-5c-11 0 -19 8 -19 19zM127 109l-85 -20l-2 -198l84 20z" fill="currentColor"/>
</g>
<g transform="translate(68.6225, 138.8287)">
<path transform="scale(0.0040, -0.0040)" d="M33 35l-2 -60v-11c0 -21 2 -43 5 -64c42 38 87 81 87 138c0 32 -13 63 -41 63c-31 0 -48 -32 -49 -66zM32 446l-9 -337c25 26 59 40 95 40c50 0 82 -51 82 -105c0 -77 -80 -117 -137 -169c-18 -17 -26 -48 -52 -48c-16 0 -28 15 -28 32l-15 587c10 6 21 8 32 8
s22 -2 32 -8z" fill="currentColor"/>
</g>
<g transform="translate(79.4111, 19.3287)">
<path transform="scale(0.0040, -0.0040)" d="M208 139c69 0 117 -40 117 -99c0 -91 -107 -179 -209 -179c-69 0 -116 40 -116 99c0 91 106 179 208 179z" fill="currentColor"/>
</g>
<g color="rgba(0.0000%, 0.0000%, 100.0000%, 100.0000%)">
<g transform="translate(79.4111, 10.7646)">
<text font-family="serif" font-size="2.4698" text-anchor="start" fill="currentColor">
<tspan>IT</tspan>
</text>
</g>
<g transform="translate(81.6023, 11.6065)">
<text font-family="serif" font-size="1.7465" text-anchor="start" fill="currentColor">
<tspan>6</tspan>
</text>
</g>
</g>
<g transform="translate(79.4111, 28.8287)">
<path transform="scale(0.0040, -0.0040)" d="M208 139c69 0 117 -40 117 -99c0 -91 -107 -179 -209 -179c-69 0 -116 40 -116 99c0 91 106 179 208 179z" fill="currentColor"/>
</g>
<g transform="translate(79.4111, 41.3287)">
<path transform="scale(0.0040, -0.0040)" d="M208 139c69 0 117 -40 117 -99c0 -91 -107 -179 -209 -179c-69 0 -116 40 -116 99c0 91 106 179 208 179z" fill="currentColor"/>
</g>
<g transform="translate(79.4111, 51.3287)">
<path transform="scale(0.0040, -0.0040)" d="M208 139c69 0 117 -40 117 -99c0 -91 -107 -179 -209 -179c-69 0 -116 40 -116 99c0 91 106 179 208 179z" fill="currentColor"/>
</g>
<g transform="translate(79.4111, 62.3287)">
<path transform="scale(0.0040, -0.0040)" d="M208 139c69 0 117 -40 117 -99c0 -91 -107 -179 -209 -179c-69 0 -116 40 -116 99c0 91 106 179 208 179z" fill="currentColor"/>
</g>
<g transform="translate(79.4111, 73.8287)">
<path transform="scale(0.0040, -0.0040)" d="M208 139c69 0 117 -40 117 -99c0 -91 -107 -179 -209 -179c-69 0 -116 40 -116 99c0 91 106 179 208 179z" fill="currentColor"/>
</g>
<g transform="translate(79.4111, 86.8287)">
<path transform="scale(0.0040, -0.0040)" d="M208 139c69 0 117 -40 117 -99c0 -91 -107 -179 -209 -179c-69 0 -116 40 -116 99c0 91 106 179 208 179z" fill="currentColor"/>
</g>
<g transform="translate(79.4111, 96.8287)">
<path transform="scale(0.0040, -0.0040)" d="M208 139c69 0 117 -40 117 -99c0 -91 -107 -179 -209 -179c-69 0 -116 40 -116 99c0 91 106 179 208 179z" fill="currentColor"/>
</g>
<g transform="translate(79.4111, 108.3287)">
<path transform="scale(0.0040, -0.0040)" d="M208 139c69 0 117 -40 117 -99c0 -91 -107 -179 -209 -179c-69 0 -116 40 -116 99c0 91 106 179 208 179z" fill="currentColor"/>
</g>
<g transform="translate(79.4111, 116.8287)">
<path transform="scale(0.0040, -0.0040)" d="M208 139c69 0 117 -40 117 -99c0 -91 -107 -179 -209 -179c-69 0 -116 40 -116 99c0 91 106 179 208 179z" fill="currentColor"/>
</g>
<g transform="translate(79.4111, 129.8287)">
<path transform="scale(0.0040, -0.0040)" d="M208 139c69 0 117 -40 117 -99c0 -91 -107 -179 -209 -179c-69 0 -116 40 -116 99c0 91 106 179 208 179z" fill="currentColor"/>
</g>
<g transform="translate(79.4111, 141.8287)">
<path transform="scale(0.0040, -0.0040)" d="M208 139c69 0 117 -40 117 -99c0 -91 -107 -179 -209 -179c-69 0 -116 40 -116 99c0 91 106 179 208 179z" fill="currentColor"/>
</g>
<g transform="translate(77.9611, 19.3287)">
<path transform="scale(0.0040, -0.0040)" d="M0 114c0 12 7 22 18 26l37 15v151c0 12 10 22 22 22s22 -10 22 -22v-134l77 29v152c0 12 10 22 22 22s22 -10 22 -22v-134l16 6c3 1 8 2 11 2c15 0 28 -12 28 -28v-50c0 -12 -7 -23 -18 -27l-37 -14v-152l16 7c3 1 8 2 11 2c15 0 28 -13 28 -29v-50c0 -12 -7 -22 -18 -26
l-37 -15v-151c0 -12 -10 -22 -22 -22s-22 10 -22 22v134l-77 -29v-152c0 -12 -10 -22 -22 -22s-22 10 -22 22v134l-16 -6c-3 -1 -8 -2 -11 -2c-15 0 -28 12 -28 28v50c0 12 7 23 18 27l37 14v152l-16 -7c-3 -1 -8 -2 -11 -2c-15 0 -28 13 -28 29v50zM176 91l-77 -30v-152
l77 30v152z" fill="currentColor"/>
</g>
<g transform="translate(78.2611, 28.8287)">
<path transform="scale(0.0040, -0.0040)" d="M33 35l-2 -60v-11c0 -21 2 -43 5 -64c42 38 87 81 87 138c0 32 -13 63 -41 63c-31 0 -48 -32 -49 -66zM32 446l-9 -337c25 26 59 40 95 40c50 0 82 -51 82 -105c0 -77 -80 -117 -137 -169c-18 -17 -26 -48 -52 -48c-16 0 -28 15 -28 32l-15 587c10 6 21 8 32 8
s22 -2 32 -8z" fill="currentColor"/>
</g>
<g transform="translate(78.3746, 41.3287)">
<path transform="scale(0.0040, -0.0040)" d="M-8 375c8 5 18 7 27 7s20 -2 28 -7l-3 -196l99 24h4c11 0 20 -8 20 -19l8 -559c-8 -5 -19 -7 -28 -7s-19 2 -27 7l3 196l-99 -24h-5c-11 0 -19 8 -19 19zM127 109l-85 -20l-2 -198l84 20z" fill="currentColor"/>
</g>
<g transform="translate(78.2611, 51.3287)">
<path transform="scale(0.0040, -0.0040)" d="M33 35l-2 -60v-11c0 -21 2 -43 5 -64c42 38 87 81 87 138c0 32 -13 63 -41 63c-31 0 -48 -32 -49 -66zM32 446l-9 -337c25 26 59 40 95 40c50 0 82 -51 82 -105c0 -77 -80 -117 -137 -169c-18 -17 -26 -48 -52 -48c-16 0 -28 15 -28 32l-15 587c10 6 21 8 32 8
s22 -2 32 -8z" fill="currentColor"/>
</g>
<g transform="translate(78.3746, 62.3287)">
<path transform="scale(0.0040, -0.0040)" d="M-8 375c8 5 18 7 27 7s20 -2 28 -7l-3 -196l99 24h4c11 0 20 -8 20 -19l8 -559c-8 -5 -19 -7 -28 -7s-19 2 -27 7l3 196l-99 -24h-5c-11 0 -19 8 -19 19zM127 109l-85 -20l-2 -198l84 20z" fill="currentColor"/>
</g>
<g transform="translate(77.9611, 86.8287)">
<path transform="scale(0.0040, -0.0040)" d="M0 114c0 12 7 22 18 26l37 15v151c0 12 10 22 22 22s22 -10 22 -22v-134l77 29v152c0 12 10 22 22 22s22 -10 22 -22v-134l16 6c3 1 8 2 11 2c15 0 28 -12 28 -28v-50c0 -12 -7 -23 -18 -27l-37 -14v-152l16 7c3 1 8 2 11 2c15 0 28 -13 28 -29v-50c0 -12 -7 -22 -18 -26
l-37 -15v-151c0 -12 -10 -22 -22 -22s-22 10 -22 22v134l-77 -29v-152c0 -12 -10 -22 -22 -22s-22 10 -22 22v134l-16 -6c-3 -1 -8 -2 -11 -2c-15 0 -28 12 -28 28v50c0 12 7 23 18 27l37 14v152l-16 -7c-3 -1 -8 -2 -11 -2c-15 0 -28 13 -28 29v50zM176 91l-77 -30v-152
l77 30v152z" fill="currentColor"/>
</g>
<g transform="translate(78.2611, 96.8287)">
<path transform="scale(0.0040, -0.0040)" d="M33 35l-2 -60v-11c0 -21 2 -43 5 -64c42 38 87 81 87 138c0 32 -13 63 -41 63c-31 0 -48 -32 -49 -66zM32 446l-9 -337c25 26 59 40 95 40c50 0 82 -51 82 -105c0 -77 -80 -117 -137 -169c-18 -17 -26 -48 -52 -48c-16 0 -28 15 -28 32l-15 587c10 6 21 8 32 8
s22 -2 32 -8z" fill="currentColor"/>
</g>
<g transform="translate(78.3611, 116.8287)">
<path transform="scale(0.0040, -0.0040)" d="M-8 375c8 5 18 7 27 7s20 -2 28 -7l-3 -196l99 24h4c11 0 20 -8 20 -19l8 -559c-8 -5 -19 -7 -28 -7s-19 2 -27 7l3 196l-99 -24h-5c-11 0 -19 8 -19 19zM127 109l-85 -20l-2 -198l84 20z" fill="currentColor"/>
</g>
<g transform="translate(78.3746, 129.8287)">
<path transform="scale(0.0040, -0.0040)" d="M-8 375c8 5 18 7 27 7s20 -2 28 -7l-3 -196l99 24h4c11 0 20 -8 20 -19l8 -559c-8 -5 -19 -7 -28 -7s-19 2 -27 7l3 196l-99 -24h-5c-11 0 -19 8 -19 19zM127 109l-85 -20l-2 -198l84 20z" fill="currentColor"/>
</g>
<g transform="translate(78.3746, 141.8287)">
<path transform="scale(0.0040, -0.0040)" d="M-8 375c8 5 18 7 27 7s20 -2 28 -7l-3 -196l99 24h4c11 0 20 -8 20 -19l8 -559c-8 -5 -19 -7 -28 -7s-19 2 -27 7l3 196l-99 -24h-5c-11 0 -19 8 -19 19zM127 109l-85 -20l-2 -198l84 20z" fill="currentColor"/>
</g>
<g transform="translate(89.1092, 20.8287)">
<path transform="scale(0.0040, -0.0040)" d="M208 139c69 0 117 -40 117 -99c0 -91 -107 -179 -209 -179c-69 0 -116 40 -116 99c0 91 106 179 208 179z" fill="currentColor"/>
</g>
<g color="rgba(0.0000%, 0.0000%, 100.0000%, 100.0000%)">
<g transform="translate(89.1092, 10.7646)">
<text font-family="serif" font-size="2.4698" text-anchor="start" fill="currentColor">
<tspan>IT</tspan>
</text>
</g>
<g transform="translate(91.3004, 11.6065)">
<text font-family="serif" font-size="1.7465" text-anchor="start" fill="currentColor">
<tspan>0</tspan>
</text>
</g>
</g>
<g transform="translate(89.1092, 30.8287)">
<path transform="scale(0.0040, -0.0040)" d="M208 139c69 0 117 -40 117 -99c0 -91 -107 -179 -209 -179c-69 0 -116 40 -116 99c0 91 106 179 208 179z" fill="currentColor"/>
</g>
<g transform="translate(89.1092, 39.8287)">
<path transform="scale(0.0040, -0.0040)" d="M208 139c69 0 117 -40 117 -99c0 -91 -107 -179 -209 -179c-69 0 -116 40 -116 99c0 91 106 179 208 179z" fill="currentColor"/>
</g>
<g transform="translate(89.1092, 53.3287)">
<path transform="scale(0.0040, -0.0040)" d="M208 139c69 0 117 -40 117 -99c0 -91 -107 -179 -209 -179c-69 0 -116 40 -116 99c0 91 106 179 208 179z" fill="currentColor"/>
</g>
<g transform="translate(89.1092, 63.8287)">
<path transform="scale(0.0040, -0.0040)" d="M208 139c69 0 117 -40 117 -99c0 -91 -107 -179 -209 -179c-69 0 -116 40 -116 99c0 91 106 179 208 179z" fill="currentColor"/>
</g>
<g transform="translate(89.1092, 75.8287)">
<path transform="scale(0.0040, -0.0040)" d="M208 139c69 0 117 -40 117 -99c0 -91 -107 -179 -209 -179c-69 0 -116 40 -116 99c0 91 106 179 208 179z" fill="currentColor"/>
</g>
<g transform="translate(89.1092, 84.8287)">
<path transform="scale(0.0040, -0.0040)" d="M208 139c69 0 117 -40 117 -99c0 -91 -107 -179 -209 -179c-69 0 -116 40 -116 99c0 91 106 179 208 179z" fill="currentColor"/>
</g>
<g transform="translate(89.1092, 95.3287)">
<path transform="scale(0.0040, -0.0040)" d="M208 139c69 0 117 -40 117 -99c0 -91 -107 -179 -209 -179c-69 0 -116 40 -116 99c0 91 106 179 208 179z" fill="currentColor"/>
</g>
<g transform="translate(89.1092, 106.3287)">
<path transform="scale(0.0040, -0.0040)" d="M208 139c69 0 117 -40 117 -99c0 -91 -107 -179 -209 -179c-69 0 -116 40 -116 99c0 91 106 179 208 179z" fill="currentColor"/>
</g>
<g transform="translate(89.1092, 118.3287)">
<path transform="scale(0.0040, -0.0040)" d="M208 139c69 0 117 -40 117 -99c0 -91 -107 -179 -209 -179c-69 0 -116 40 -116 99c0 91 106 179 208 179z" fill="currentColor"/>
</g>
<g transform="translate(89.1092, 127.8287)">
<path transform="scale(0.0040, -0.0040)" d="M208 139c69 0 117 -40 117 -99c0 -91 -107 -179 -209 -179c-69 0 -116 40 -116 99c0 91 106 179 208 179z" fill="currentColor"/>
</g>
<g transform="translate(89.1092, 140.3287)">
<path transform="scale(0.0040, -0.0040)" d="M208 139c69 0 117 -40 117 -99c0 -91 -107 -179 -209 -179c-69 0 -116 40 -116 99c0 91 106 179 208 179z" fill="currentColor"/>
</g>
<g transform="translate(87.9592, 63.8287)">
<path transform="scale(0.0040, -0.0040)" d="M33 35l-2 -60v-11c0 -21 2 -43 5 -64c42 38 87 81 87 138c0 32 -13 63 -41 63c-31 0 -48 -32 -49 -66zM32 446l-9 -337c25 26 59 40 95 40c50 0 82 -51 82 -105c0 -77 -80 -117 -137 -169c-18 -17 -26 -48 -52 -48c-16 0 -28 15 -28 32l-15 587c10 6 21 8 32 8
s22 -2 32 -8z" fill="currentColor"/>
</g>
<g transform="translate(87.6592, 75.8287)">
<path transform="scale(0.0040, -0.0040)" d="M0 114c0 12 7 22 18 26l37 15v151c0 12 10 22 22 22s22 -10 22 -22v-134l77 29v152c0 12 10 22 22 22s22 -10 22 -22v-134l16 6c3 1 8 2 11 2c15 0 28 -12 28 -28v-50c0 -12 -7 -23 -18 -27l-37 -14v-152l16 7c3 1 8 2 11 2c15 0 28 -13 28 -29v-50c0 -12 -7 -22 -18 -26
l-37 -15v-151c0 -12 -10 -22 -22 -22s-22 10 -22 22v134l-77 -29v-152c0 -12 -10 -22 -22 -22s-22 10 -22 22v134l-16 -6c-3 -1 -8 -2 -11 -2c-15 0 -28 12 -28 28v50c0 12 7 23 18 27l37 14v152l-16 -7c-3 -1 -8 -2 -11 -2c-15 0 -28 13 -28 29v50zM176 91l-77 -30v-152
l77 30v152z" fill="currentColor"/>
</g>
<g transform="translate(87.9592, 106.3287)">
<path transform="scale(0.0040, -0.0040)" d="M33 35l-2 -60v-11c0 -21 2 -43 5 -64c42 38 87 81 87 138c0 32 -13 63 -41 63c-31 0 -48 -32 -49 -66zM32 446l-9 -337c25 26 59 40 95 40c50 0 82 -51 82 -105c0 -77 -80 -117 -137 -169c-18 -17 -26 -48 -52 -48c-16 0 -28 15 -28 32l-15 587c10 6 21 8 32 8
s22 -2 32 -8z" fill="currentColor"/>
</g>
<g transform="translate(87.9592, 127.8287)">
<path transform="scale(0.0040, -0.0040)" d="M33 35l-2 -60v-11c0 -21 2 -43 5 -64c42 38 87 81 87 138c0 32 -13 63 -41 63c-31 0 -48 -32 -49 -66zM32 446l-9 -337c25 26 59 40 95 40c50 0 82 -51 82 -105c0 -77 -80 -117 -137 -169c-18 -17 -26 -48 -52 -48c-16 0 -28 15 -28 32l-15 587c10 6 21 8 32 8
s22 -2 32 -8z" fill="currentColor"/>
</g>
<g transform="translate(87.6592, 140.3287)">
<path transform="scale(0.0040, -0.0040)" d="M0 114c0 12 7 22 18 26l37 15v151c0 12 10 22 22 22s22 -10 22 -22v-134l77 29v152c0 12 10 22 22 22s22 -10 22 -22v-134l16 6c3 1 8 2 11 2c15 0 28 -12 28 -28v-50c0 -12 -7 -23 -18 -27l-37 -14v-152l16 7c3 1 8 2 11 2c15 0 28 -13 28 -29v-50c0 -12 -7 -22 -18 -26
l-37 -15v-151c0 -12 -10 -22 -22 -22s-22 10 -22 22v134l-77 -29v-152c0 -12 -10 -22 -22 -22s-22 10 -22 22v134l-16 -6c-3 -1 -8 -2 -11 -2c-15 0 -28 12 -28 28v50c0 12 7 23 18 27l37 14v152l-16 -7c-3 -1 -8 -2 -11 -2c-15 0 -28 13 -28 29v50zM176 91l-77 -30v-152
l77 30v152z" fill="currentColor"/>
</g>
<g transform="translate(98.8668, 17.8287)">
<path transform="scale(0.0040, -0.0040)" d="M208 139c69 0 117 -40 117 -99c0 -91 -107 -179 -209 -179c-69 0 -116 40 -116 99c0 91 106 179 208 179z" fill="currentColor"/>
</g>
<g color="rgba(0.0000%, 0.0000%, 100.0000%, 100.0000%)">
<g transform="translate(98.8668, 10.7646)">
<text font-family="serif" font-size="2.4698" text-anchor="start" fill="currentColor">
<tspan>IT</tspan>
</text>
</g>
<g transform="translate(101.0580, 11.6065)">
<text font-family="serif" font-size="1.7465" text-anchor="start" fill="currentColor">
<tspan>10</tspan>
</text>
</g>
</g>
<g transform="translate(98.8668, 31.3287)">
<path transform="scale(0.0040, -0.0040)" d="M208 139c69 0 117 -40 117 -99c0 -91 -107 -179 -209 -179c-69 0 -116 40 -116 99c0 91 106 179 208 179z" fill="currentColor"/>
</g>
<g transform="translate(98.8668, 40.3287)">
<path transform="scale(0.0040, -0.0040)" d="M208 139c69 0 117 -40 117 -99c0 -91 -107 -179 -209 -179c-69 0 -116 40 -116 99c0 91 106 179 208 179z" fill="currentColor"/>
</g>
<g transform="translate(98.8668, 53.8287)">
<path transform="scale(0.0040, -0.0040)" d="M208 139c69 0 117 -40 117 -99c0 -91 -107 -179 -209 -179c-69 0 -116 40 -116 99c0 91 106 179 208 179z" fill="currentColor"/>
</g>
<g transform="translate(98.8668, 64.8287)">
<path transform="scale(0.0040, -0.0040)" d="M208 139c69 0 117 -40 117 -99c0 -91 -107 -179 -209 -179c-69 0 -116 40 -116 99c0 91 106 179 208 179z" fill="currentColor"/>
</g>
<g transform="translate(98.8668, 72.8287)">
<path transform="scale(0.0040, -0.0040)" d="M208 139c69 0 117 -40 117 -99c0 -91 -107 -179 -209 -179c-69 0 -116 40 -116 99c0 91 106 179 208 179z" fill="currentColor"/>
</g>
<g transform="translate(98.8668, 85.3287)">
<path transform="scale(0.0040, -0.0040)" d="M208 139c69 0 117 -40 117 -99c0 -91 -107 -179 -209 -179c-69 0 -116 40 -116 99c0 91 106 179 208 179z" fill="currentColor"/>
</g>
<g transform="translate(98.8668, 95.8287)">
<path transform="scale(0.0040, -0.0040)" d="M208 139c69 0 117 -40 117 -99c0 -91 -107 -179 -209 -179c-69 0 -116 40 -116 99c0 91 106 179 208 179z" fill="currentColor"/>
</g>
<g transform="translate(98.8668, 107.3287)">
<path transform="scale(0.0040, -0.0040)" d="M208 139c69 0 117 -40 117 -99c0 -91 -107 -179 -209 -179c-69 0 -116 40 -116 99c0 91 106 179 208 179z" fill="currentColor"/>
</g>
<g transform="translate(98.8668, 118.8287)">
<path transform="scale(0.0040, -0.0040)" d="M208 139c69 0 117 -40 117 -99c0 -91 -107 -179 -209 -179c-69 0 -116 40 -116 99c0 91 106 179 208 179z" fill="currentColor"/>
</g>
<g transform="translate(98.8668, 128.3287)">
<path transform="scale(0.0040, -0.0040)" d="M208 139c69 0 117 -40 117 -99c0 -91 -107 -179 -209 -179c-69 0 -116 40 -116 99c0 91 106 179 208 179z" fill="currentColor"/>
</g>
<g transform="translate(98.8668, 140.8287)">
<path transform="scale(0.0040, -0.0040)" d="M208 139c69 0 117 -40 117 -99c0 -91 -107 -179 -209 -179c-69 0 -116 40 -116 99c0 91 106 179 208 179z" fill="currentColor"/>
</g>
<g transform="translate(97.7168, 17.8287)">
<path transform="scale(0.0040, -0.0040)" d="M33 35l-2 -60v-11c0 -21 2 -43 5 -64c42 38 87 81 87 138c0 32 -13 63 -41 63c-31 0 -48 -32 -49 -66zM32 446l-9 -337c25 26 59 40 95 40c50 0 82 -51 82 -105c0 -77 -80 -117 -137 -169c-18 -17 -26 -48 -52 -48c-16 0 -28 15 -28 32l-15 587c10 6 21 8 32 8
s22 -2 32 -8z" fill="currentColor"/>
</g>
<g transform="translate(97.4168, 64.8287)">
<path transform="scale(0.0040, -0.0040)" d="M0 114c0 12 7 22 18 26l37 15v151c0 12 10 22 22 22s22 -10 22 -22v-134l77 29v152c0 12 10 22 22 22s22 -10 22 -22v-134l16 6c3 1 8 2 11 2c15 0 28 -12 28 -28v-50c0 -12 -7 -23 -18 -27l-37 -14v-152l16 7c3 1 8 2 11 2c15 0 28 -13 28 -29v-50c0 -12 -7 -22 -18 -26
l-37 -15v-151c0 -12 -10 -22 -22 -22s-22 10 -22 22v134l-77 -29v-152c0 -12 -10 -22 -22 -22s-22 10 -22 22v134l-16 -6c-3 -1 -8 -2 -11 -2c-15 0 -28 12 -28 28v50c0 12 7 23 18 27l37 14v152l-16 -7c-3 -1 -8 -2 -11 -2c-15 0 -28 13 -28 29v50zM176 91l-77 -30v-152
l77 30v152z" fill="currentColor"/>
</g>
<g transform="translate(97.4168, 107.3287)">
<path transform="scale(0.0040, -0.0040)" d="M0 114c0 12 7 22 18 26l37 15v151c0 12 10 22 22 22s22 -10 22 -22v-134l77 29v152c0 12 10 22 22 22s22 -10 22 -22v-134l16 6c3 1 8 2 11 2c15 0 28 -12 28 -28v-50c0 -12 -7 -23 -18 -27l-37 -14v-152l16 7c3 1 8 2 11 2c15 0 28 -13 28 -29v-50c0 -12 -7 -22 -18 -26
l-37 -15v-151c0 -12 -10 -22 -22 -22s-22 10 -22 22v134l-77 -29v-152c0 -12 -10 -22 -22 -22s-22 10 -22 22v134l-16 -6c-3 -1 -8 -2 -11 -2c-15 0 -28 12 -28 28v50c0 12 7 23 18 27l37 14v152l-16 -7c-3 -1 -8 -2 -11 -2c-15 0 -28 13 -28 29v50zM176 91l-77 -30v-152
l77 30v152z" fill="currentColor"/>
</g>
<g transform="translate(97.7168, 118.8287)">
<path transform="scale(0.0040, -0.0040)" d="M33 35l-2 -60v-11c0 -21 2 -43 5 -64c42 38 87 81 87 138c0 32 -13 63 -41 63c-31 0 -48 -32 -49 -66zM32 446l-9 -337c25 26 59 40 95 40c50 0 82 -51 82 -105c0 -77 -80 -117 -137 -169c-18 -17 -26 -48 -52 -48c-16 0 -28 15 -28 32l-15 587c10 6 21 8 32 8
s22 -2 32 -8z" fill="currentColor"/>
</g>
<g transform="translate(97.7168, 128.3287)">
<path transform="scale(0.0040, -0.0040)" d="M33 35l-2 -60v-11c0 -21 2 -43 5 -64c42 38 87 81 87 138c0 32 -13 63 -41 63c-31 0 -48 -32 -49 -66zM32 446l-9 -337c25 26 59 40 95 40c50 0 82 -51 82 -105c0 -77 -80 -117 -137 -169c-18 -17 -26 -48 -52 -48c-16 0 -28 15 -28 32l-15 587c10 6 21 8 32 8
s22 -2 32 -8z" fill="currentColor"/>
</g>
<g transform="translate(108.5351, 17.8287)">
<path transform="scale(0.0040, -0.0040)" d="M208 139c69 0 117 -40 117 -99c0 -91 -107 -179 -209 -179c-69 0 -116 40 -116 99c0 91 106 179 208 179z" fill="currentColor"/>
</g>
<g color="rgba(0.0000%, 0.0000%, 100.0000%, 100.0000%)">
<g transform="translate(108.5351, 10.7646)">
<text font-family="serif" font-size="2.4698" text-anchor="start" fill="currentColor">
<tspan>IT</tspan>
</text>
</g>
<g transform="translate(110.7264, 11.6065)">
<text font-family="serif" font-size="1.7465" text-anchor="start" fill="currentColor">
<tspan>11</tspan>
</text>
</g>
</g>
<g transform="translate(108.5351, 30.8287)">
<path transform="scale(0.0040, -0.0040)" d="M208 139c69 0 117 -40 117 -99c0 -91 -107 -179 -209 -179c-69 0 -116 40 -116 99c0 91 106 179 208 179z" fill="currentColor"/>
</g>
<g transform="translate(108.5351, 39.8287)">
<path transform="scale(0.0040, -0.0040)" d="M208 139c69 0 117 -40 117 -99c0 -91 -107 -179 -209 -179c-69 0 -116 40 -116 99c0 91 106 179 208 179z" fill="currentColor"/>
</g>
<g transform="translate(108.5351, 53.8287)">
<path transform="scale(0.0040, -0.0040)" d="M208 139c69 0 117 -40 117 -99c0 -91 -107 -179 -209 -179c-69 0 -116 40 -116 99c0 91 106 179 208 179z" fill="currentColor"/>
</g>
<g transform="translate(108.5351, 64.3287)">
<path transform="scale(0.0040, -0.0040)" d="M208 139c69 0 117 -40 117 -99c0 -91 -107 -179 -209 -179c-69 0 -116 40 -116 99c0 91 106 179 208 179z" fill="currentColor"/>
</g>
<g transform="translate(108.5351, 75.8287)">
<path transform="scale(0.0040, -0.0040)" d="M208 139c69 0 117 -40 117 -99c0 -91 -107 -179 -209 -179c-69 0 -116 40 -116 99c0 91 106 179 208 179z" fill="currentColor"/>
</g>
<g transform="translate(108.5351, 85.3287)">
<path transform="scale(0.0040, -0.0040)" d="M208 139c69 0 117 -40 117 -99c0 -91 -107 -179 -209 -179c-69 0 -116 40 -116 99c0 91 106 179 208 179z" fill="currentColor"/>
</g>
<g transform="translate(108.5351, 95.3287)">
<path transform="scale(0.0040, -0.0040)" d="M208 139c69 0 117 -40 117 -99c0 -91 -107 -179 -209 -179c-69 0 -116 40 -116 99c0 91 106 179 208 179z" fill="currentColor"/>
</g>
<g transform="translate(108.5351, 106.8287)">
<path transform="scale(0.0040, -0.0040)" d="M208 139c69 0 117 -40 117 -99c0 -91 -107 -179 -209 -179c-69 0 -116 40 -116 99c0 91 106 179 208 179z" fill="currentColor"/>
</g>
<g transform="translate(108.5351, 118.8287)">
<path transform="scale(0.0040, -0.0040)" d="M208 139c69 0 117 -40 117 -99c0 -91 -107 -179 -209 -179c-69 0 -116 40 -116 99c0 91 106 179 208 179z" fill="currentColor"/>
</g>
<g transform="translate(108.5351, 128.3287)">
<path transform="scale(0.0040, -0.0040)" d="M208 139c69 0 117 -40 117 -99c0 -91 -107 -179 -209 -179c-69 0 -116 40 -116 99c0 91 106 179 208 179z" fill="currentColor"/>
</g>
<g transform="translate(108.5351, 140.3287)">
<path transform="scale(0.0040, -0.0040)" d="M208 139c69 0 117 -40 117 -99c0 -91 -107 -179 -209 -179c-69 0 -116 40 -116 99c0 91 106 179 208 179z" fill="currentColor"/>
</g>
<g transform="translate(107.4851, 17.8287)">
<path transform="scale(0.0040, -0.0040)" d="M-8 375c8 5 18 7 27 7s20 -2 28 -7l-3 -196l99 24h4c11 0 20 -8 20 -19l8 -559c-8 -5 -19 -7 -28 -7s-19 2 -27 7l3 196l-99 -24h-5c-11 0 -19 8 -19 19zM127 109l-85 -20l-2 -198l84 20z" fill="currentColor"/>
</g>
<g transform="translate(107.3851, 30.8287)">
<path transform="scale(0.0040, -0.0040)" d="M33 35l-2 -60v-11c0 -21 2 -43 5 -64c42 38 87 81 87 138c0 32 -13 63 -41 63c-31 0 -48 -32 -49 -66zM32 446l-9 -337c25 26 59 40 95 40c50 0 82 -51 82 -105c0 -77 -80 -117 -137 -169c-18 -17 -26 -48 -52 -48c-16 0 -28 15 -28 32l-15 587c10 6 21 8 32 8
s22 -2 32 -8z" fill="currentColor"/>
</g>
<g transform="translate(107.3851, 39.8287)">
<path transform="scale(0.0040, -0.0040)" d="M33 35l-2 -60v-11c0 -21 2 -43 5 -64c42 38 87 81 87 138c0 32 -13 63 -41 63c-31 0 -48 -32 -49 -66zM32 446l-9 -337c25 26 59 40 95 40c50 0 82 -51 82 -105c0 -77 -80 -117 -137 -169c-18 -17 -26 -48 -52 -48c-16 0 -28 15 -28 32l-15 587c10 6 21 8 32 8
s22 -2 32 -8z" fill="currentColor"/>
</g>
<g transform="translate(107.0851, 53.8287)">
<path transform="scale(0.0040, -0.0040)" d="M0 114c0 12 7 22 18 26l37 15v151c0 12 10 22 22 22s22 -10 22 -22v-134l77 29v152c0 12 10 22 22 22s22 -10 22 -22v-134l16 6c3 1 8 2 11 2c15 0 28 -12 28 -28v-50c0 -12 -7 -23 -18 -27l-37 -14v-152l16 7c3 1 8 2 11 2c15 0 28 -13 28 -29v-50c0 -12 -7 -22 -18 -26
l-37 -15v-151c0 -12 -10 -22 -22 -22s-22 10 -22 22v134l-77 -29v-152c0 -12 -10 -22 -22 -22s-22 10 -22 22v134l-16 -6c-3 -1 -8 -2 -11 -2c-15 0 -28 12 -28 28v50c0 12 7 23 18 27l37 14v152l-16 -7c-3 -1 -8 -2 -11 -2c-15 0 -28 13 -28 29v50zM176 91l-77 -30v-152
l77 30v152z" fill="currentColor"/>
</g>
<g transform="translate(107.4986, 75.8287)">
<path transform="scale(0.0040, -0.0040)" d="M-8 375c8 5 18 7 27 7s20 -2 28 -7l-3 -196l99 24h4c11 0 20 -8 20 -19l8 -559c-8 -5 -19 -7 -28 -7s-19 2 -27 7l3 196l-99 -24h-5c-11 0 -19 8 -19 19zM127 109l-85 -20l-2 -198l84 20z" fill="currentColor"/>
</g>
<g transform="translate(107.0851, 85.3287)">
<path transform="scale(0.0040, -0.0040)" d="M0 114c0 12 7 22 18 26l37 15v151c0 12 10 22 22 22s22 -10 22 -22v-134l77 29v152c0 12 10 22 22 22s22 -10 22 -22v-134l16 6c3 1 8 2 11 2c15 0 28 -12 28 -28v-50c0 -12 -7 -23 -18 -27l-37 -14v-152l16 7c3 1 8 2 11 2c15 0 28 -13 28 -29v-50c0 -12 -7 -22 -18 -26
l-37 -15v-151c0 -12 -10 -22 -22 -22s-22 10 -22 22v134l-77 -29v-152c0 -12 -10 -22 -22 -22s-22 10 -22 22v134l-16 -6c-3 -1 -8 -2 -11 -2c-15 0 -28 12 -28 28v50c0 12 7 23 18 27l37 14v152l-16 -7c-3 -1 -8 -2 -11 -2c-15 0 -28 13 -28 29v50zM176 91l-77 -30v-152
l77 30v152z" fill="currentColor"/>
</g>
<g transform="translate(107.3851, 95.3287)">
<path transform="scale(0.0040, -0.0040)" d="M33 35l-2 -60v-11c0 -21 2 -43 5 -64c42 38 87 81 87 138c0 32 -13 63 -41 63c-31 0 -48 -32 -49 -66zM32 446l-9 -337c25 26 59 40 95 40c50 0 82 -51 82 -105c0 -77 -80 -117 -137 -169c-18 -17 -26 -48 -52 -48c-16 0 -28 15 -28 32l-15 587c10 6 21 8 32 8
s22 -2 32 -8z" fill="currentColor"/>
</g>
<g transform="translate(107.4986, 118.8287)">
<path transform="scale(0.0040, -0.0040)" d="M-8 375c8 5 18 7 27 7s20 -2 28 -7l-3 -196l99 24h4c11 0 20 -8 20 -19l8 -559c-8 -5 -19 -7 -28 -7s-19 2 -27 7l3 196l-99 -24h-5c-11 0 -19 8 -19 19zM127 109l-85 -20l-2 -198l84 20z" fill="currentColor"/>
</g>
<g transform="translate(107.4986, 128.3287)">
<path transform="scale(0.0040, -0.0040)" d="M-8 375c8 5 18 7 27 7s20 -2 28 -7l-3 -196l99 24h4c11 0 20 -8 20 -19l8 -559c-8 -5 -19 -7 -28 -7s-19 2 -27 7l3 196l-99 -24h-5c-11 0 -19 8 -19 19zM127 109l-85 -20l-2 -198l84 20z" fill="currentColor"/>
</g>
<g transform="translate(107.4986, 140.3287)">
<path transform="scale(0.0040, -0.0040)" d="M-8 375c8 5 18 7 27 7s20 -2 28 -7l-3 -196l99 24h4c11 0 20 -8 20 -19l8 -559c-8 -5 -19 -7 -28 -7s-19 2 -27 7l3 196l-99 -24h-5c-11 0 -19 8 -19 19zM127 109l-85 -20l-2 -198l84 20z" fill="currentColor"/>
</g>
<g transform="translate(118.2481, 20.3287)">
<path transform="scale(0.0040, -0.0040)" d="M208 139c69 0 117 -40 117 -99c0 -91 -107 -179 -209 -179c-69 0 -116 40 -116 99c0 91 106 179 208 179z" fill="currentColor"/>
</g>
<g color="rgba(0.0000%, 0.0000%, 100.0000%, 100.0000%)">
<g transform="translate(118.2481, 10.7646)">
<text font-family="serif" font-size="2.4698" text-anchor="start" fill="currentColor">
<tspan>IT</tspan>
</text>
</g>
<g transform="translate(120.4393, 11.6065)">
<text font-family="serif" font-size="1.7465" text-anchor="start" fill="currentColor">
<tspan>2</tspan>
</text>
</g>
</g>
<g transform="translate(118.2481, 30.3287)">
<path transform="scale(0.0040, -0.0040)" d="M208 139c69 0 117 -40 117 -99c0 -91 -107 -179 -209 -179c-69 0 -116 40 -116 99c0 91 106 179 208 179z" fill="currentColor"/>
</g>
<g transform="translate(118.2481, 42.8287)">
<path transform="scale(0.0040, -0.0040)" d="M208 139c69 0 117 -40 117 -99c0 -91 -107 -179 -209 -179c-69 0 -116 40 -116 99c0 91 106 179 208 179z" fill="currentColor"/>
</g>
<g transform="translate(118.2481, 52.8287)">
<path transform="scale(0.0040, -0.0040)" d="M208 139c69 0 117 -40 117 -99c0 -91 -107 -179 -209 -179c-69 0 -116 40 -116 99c0 91 106 179 208 179z" fill="currentColor"/>
</g>
<g transform="translate(118.2481, 63.3287)">
<path transform="scale(0.0040, -0.0040)" d="M208 139c69 0 117 -40 117 -99c0 -91 -107 -179 -209 -179c-69 0 -116 40 -116 99c0 91 106 179 208 179z" fill="currentColor"/>
</g>
<g transform="translate(118.2481, 74.8287)">
<path transform="scale(0.0040, -0.0040)" d="M208 139c69 0 117 -40 117 -99c0 -91 -107 -179 -209 -179c-69 0 -116 40 -116 99c0 91 106 179 208 179z" fill="currentColor"/>
</g>
<g transform="translate(118.2481, 84.3287)">
<path transform="scale(0.0040, -0.0040)" d="M208 139c69 0 117 -40 117 -99c0 -91 -107 -179 -209 -179c-69 0 -116 40 -116 99c0 91 106 179 208 179z" fill="currentColor"/>
</g>
<g transform="translate(118.2481, 94.8287)">
<path transform="scale(0.0040, -0.0040)" d="M208 139c69 0 117 -40 117 -99c0 -91 -107 -179 -209 -179c-69 0 -116 40 -116 99c0 91 106 179 208 179z" fill="currentColor"/>
</g>
<g transform="translate(118.2481, 105.8287)">
<path transform="scale(0.0040, -0.0040)" d="M208 139c69 0 117 -40 117 -99c0 -91 -107 -179 -209 -179c-69 0 -116 40 -116 99c0 91 106 179 208 179z" fill="currentColor"/>
</g>
<g transform="translate(118.2481, 117.8287)">
<path transform="scale(0.0040, -0.0040)" d="M208 139c69 0 117 -40 117 -99c0 -91 -107 -179 -209 -179c-69 0 -116 40 -116 99c0 91 106 179 208 179z" fill="currentColor"/>
</g>
<g transform="translate(118.2481, 130.8287)">
<path transform="scale(0.0040, -0.0040)" d="M208 139c69 0 117 -40 117 -99c0 -91 -107 -179 -209 -179c-69 0 -116 40 -116 99c0 91 106 179 208 179z" fill="currentColor"/>
</g>
<g transform="translate(118.2481, 139.3287)">
<path transform="scale(0.0040, -0.0040)" d="M208 139c69 0 117 -40 117 -99c0 -91 -107 -179 -209 -179c-69 0 -116 40 -116 99c0 91 106 179 208 179z" fill="currentColor"/>
</g>
<g transform="translate(116.7981, 30.3287)">
<path transform="scale(0.0040, -0.0040)" d="M0 114c0 12 7 22 18 26l37 15v151c0 12 10 22 22 22s22 -10 22 -22v-134l77 29v152c0 12 10 22 22 22s22 -10 22 -22v-134l16 6c3 1 8 2 11 2c15 0 28 -12 28 -28v-50c0 -12 -7 -23 -18 -27l-37 -14v-152l16 7c3 1 8 2 11 2c15 0 28 -13 28 -29v-50c0 -12 -7 -22 -18 -26
l-37 -15v-151c0 -12 -10 -22 -22 -22s-22 10 -22 22v134l-77 -29v-152c0 -12 -10 -22 -22 -22s-22 10 -22 22v134l-16 -6c-3 -1 -8 -2 -11 -2c-15 0 -28 12 -28 28v50c0 12 7 23 18 27l37 14v152l-16 -7c-3 -1 -8 -2 -11 -2c-15 0 -28 13 -28 29v50zM176 91l-77 -30v-152
l77 30v152z" fill="currentColor"/>
</g>
<g transform="translate(116.7981, 42.8287)">
<path transform="scale(0.0040, -0.0040)" d="M0 114c0 12 7 22 18 26l37 15v151c0 12 10 22 22 22s22 -10 22 -22v-134l77 29v152c0 12 10 22 22 22s22 -10 22 -22v-134l16 6c3 1 8 2 11 2c15 0 28 -12 28 -28v-50c0 -12 -7 -23 -18 -27l-37 -14v-152l16 7c3 1 8 2 11 2c15 0 28 -13 28 -29v-50c0 -12 -7 -22 -18 -26
l-37 -15v-151c0 -12 -10 -22 -22 -22s-22 10 -22 22v134l-77 -29v-152c0 -12 -10 -22 -22 -22s-22 10 -22 22v134l-16 -6c-3 -1 -8 -2 -11 -2c-15 0 -28 12 -28 28v50c0 12 7 23 18 27l37 14v152l-16 -7c-3 -1 -8 -2 -11 -2c-15 0 -28 13 -28 29v50zM176 91l-77 -30v-152
l77 30v152z" fill="currentColor"/>
</g>
<g transform="translate(117.2116, 63.3287)">
<path transform="scale(0.0040, -0.0040)" d="M-8 375c8 5 18 7 27 7s20 -2 28 -7l-3 -196l99 24h4c11 0 20 -8 20 -19l8 -559c-8 -5 -19 -7 -28 -7s-19 2 -27 7l3 196l-99 -24h-5c-11 0 -19 8 -19 19zM127 109l-85 -20l-2 -198l84 20z" fill="currentColor"/>
</g>
<g transform="translate(117.0981, 74.8287)">
<path transform="scale(0.0040, -0.0040)" d="M33 35l-2 -60v-11c0 -21 2 -43 5 -64c42 38 87 81 87 138c0 32 -13 63 -41 63c-31 0 -48 -32 -49 -66zM32 446l-9 -337c25 26 59 40 95 40c50 0 82 -51 82 -105c0 -77 -80 -117 -137 -169c-18 -17 -26 -48 -52 -48c-16 0 -28 15 -28 32l-15 587c10 6 21 8 32 8
s22 -2 32 -8z" fill="currentColor"/>
</g>
<g transform="translate(117.0981, 105.8287)">
<path transform="scale(0.0040, -0.0040)" d="M33 35l-2 -60v-11c0 -21 2 -43 5 -64c42 38 87 81 87 138c0 32 -13 63 -41 63c-31 0 -48 -32 -49 -66zM32 446l-9 -337c25 26 59 40 95 40c50 0 82 -51 82 -105c0 -77 -80 -117 -137 -169c-18 -17 -26 -48 -52 -48c-16 0 -28 15 -28 32l-15 587c10 6 21 8 32 8
s22 -2 32 -8z" fill="currentColor"/>
</g>
<g transform="translate(117.2116, 130.8287)">
<path transform="scale(0.0040, -0.0040)" d="M-8 375c8 5 18 7 27 7s20 -2 28 -7l-3 -196l99 24h4c11 0 20 -8 20 -19l8 -559c-8 -5 -19 -7 -28 -7s-19 2 -27 7l3 196l-99 -24h-5c-11 0 -19 8 -19 19zM127 109l-85 -20l-2 -198l84 20z" fill="currentColor"/>
</g>
<g transform="translate(117.0981, 139.3287)">
<path transform="scale(0.0040, -0.0040)" d="M33 35l-2 -60v-11c0 -21 2 -43 5 -64c42 38 87 81 87 138c0 32 -13 63 -41 63c-31 0 -48 -32 -49 -66zM32 446l-9 -337c25 26 59 40 95 40c50 0 82 -51 82 -105c0 -77 -80 -117 -137 -169c-18 -17 -26 -48 -52 -48c-16 0 -28 15 -28 32l-15 587c10 6 21 8 32 8
s22 -2 32 -8z" fill="currentColor"/>
</g>
<g transform="translate(127.9581, 18.3287)">
<path transform="scale(0.0040, -0.0040)" d="M208 139c69 0 117 -40 117 -99c0 -91 -107 -179 -209 -179c-69 0 -116 40 -116 99c0 91 106 179 208 179z" fill="currentColor"/>
</g>
<g color="rgba(0.0000%, 0.0000%, 100.0000%, 100.0000%)">
<g transform="translate(127.9581, 10.7646)">
<text font-family="serif" font-size="2.4698" text-anchor="start" fill="currentColor">
<tspan>IT</tspan>
</text>
</g>
<g transform="translate(130.1493, 11.6065)">
<text font-family="serif" font-size="1.7465" text-anchor="start" fill="currentColor">
<tspan>9</tspan>
</text>
</g>
</g>
<g transform="translate(127.9581, 31.8287)">
<path transform="scale(0.0040, -0.0040)" d="M208 139c69 0 117 -40 117 -99c0 -91 -107 -179 -209 -179c-69 0 -116 40 -116 99c0 91 106 179 208 179z" fill="currentColor"/>
</g>
<g transform="translate(127.9581, 40.3287)">
<path transform="scale(0.0040, -0.0040)" d="M208 139c69 0 117 -40 117 -99c0 -91 -107 -179 -209 -179c-69 0 -116 40 -116 99c0 91 106 179 208 179z" fill="currentColor"/>
</g>
<g transform="translate(127.9581, 50.8287)">
<path transform="scale(0.0040, -0.0040)" d="M208 139c69 0 117 -40 117 -99c0 -91 -107 -179 -209 -179c-69 0 -116 40 -116 99c0 91 106 179 208 179z" fill="currentColor"/>
</g>
<g transform="translate(127.9581, 64.8287)">
<path transform="scale(0.0040, -0.0040)" d="M208 139c69 0 117 -40 117 -99c0 -91 -107 -179 -209 -179c-69 0 -116 40 -116 99c0 91 106 179 208 179z" fill="currentColor"/>
</g>
<g transform="translate(127.9581, 72.8287)">
<path transform="scale(0.0040, -0.0040)" d="M208 139c69 0 117 -40 117 -99c0 -91 -107 -179 -209 -179c-69 0 -116 40 -116 99c0 91 106 179 208 179z" fill="currentColor"/>
</g>
<g transform="translate(127.9581, 85.8287)">
<path transform="scale(0.0040, -0.0040)" d="M208 139c69 0 117 -40 117 -99c0 -91 -107 -179 -209 -179c-69 0 -116 40 -116 99c0 91 106 179 208 179z" fill="currentColor"/>
</g>
<g transform="translate(127.9581, 96.3287)">
<path transform="scale(0.0040, -0.0040)" d="M208 139c69 0 117 -40 117 -99c0 -91 -107 -179 -209 -179c-69 0 -116 40 -116 99c0 91 106 179 208 179z" fill="currentColor"/>
</g>
<g transform="translate(127.9581, 107.3287)">
<path transform="scale(0.0040, -0.0040)" d="M208 139c69 0 117 -40 117 -99c0 -91 -107 -179 -209 -179c-69 0 -116 40 -116 99c0 91 106 179 208 179z" fill="currentColor"/>
</g>
<g transform="translate(127.9581, 119.3287)">
<path transform="scale(0.0040, -0.0040)" d="M208 139c69 0 117 -40 117 -99c0 -91 -107 -179 -209 -179c-69 0 -116 40 -116 99c0 91 106 179 208 179z" fill="currentColor"/>
</g>
<g transform="translate(127.9581, 128.8287)">
<path transform="scale(0.0040, -0.0040)" d="M208 139c69 0 117 -40 117 -99c0 -91 -107 -179 -209 -179c-69 0 -116 40 -116 99c0 91 106 179 208 179z" fill="currentColor"/>
</g>
<g transform="translate(127.9581, 140.8287)">
<path transform="scale(0.0040, -0.0040)" d="M208 139c69 0 117 -40 117 -99c0 -91 -107 -179 -209 -179c-69 0 -116 40 -116 99c0 91 106 179 208 179z" fill="currentColor"/>
</g>
<g transform="translate(126.9216, 18.3287)">
<path transform="scale(0.0040, -0.0040)" d="M-8 375c8 5 18 7 27 7s20 -2 28 -7l-3 -196l99 24h4c11 0 20 -8 20 -19l8 -559c-8 -5 -19 -7 -28 -7s-19 2 -27 7l3 196l-99 -24h-5c-11 0 -19 8 -19 19zM127 109l-85 -20l-2 -198l84 20z" fill="currentColor"/>
</g>
<g transform="translate(126.5081, 31.8287)">
<path transform="scale(0.0040, -0.0040)" d="M0 114c0 12 7 22 18 26l37 15v151c0 12 10 22 22 22s22 -10 22 -22v-134l77 29v152c0 12 10 22 22 22s22 -10 22 -22v-134l16 6c3 1 8 2 11 2c15 0 28 -12 28 -28v-50c0 -12 -7 -23 -18 -27l-37 -14v-152l16 7c3 1 8 2 11 2c15 0 28 -13 28 -29v-50c0 -12 -7 -22 -18 -26
l-37 -15v-151c0 -12 -10 -22 -22 -22s-22 10 -22 22v134l-77 -29v-152c0 -12 -10 -22 -22 -22s-22 10 -22 22v134l-16 -6c-3 -1 -8 -2 -11 -2c-15 0 -28 12 -28 28v50c0 12 7 23 18 27l37 14v152l-16 -7c-3 -1 -8 -2 -11 -2c-15 0 -28 13 -28 29v50zM176 91l-77 -30v-152
l77 30v152z" fill="currentColor"/>
</g>
<g transform="translate(126.8081, 40.3287)">
<path transform="scale(0.0040, -0.0040)" d="M33 35l-2 -60v-11c0 -21 2 -43 5 -64c42 38 87 81 87 138c0 32 -13 63 -41 63c-31 0 -48 -32 -49 -66zM32 446l-9 -337c25 26 59 40 95 40c50 0 82 -51 82 -105c0 -77 -80 -117 -137 -169c-18 -17 -26 -48 -52 -48c-16 0 -28 15 -28 32l-15 587c10 6 21 8 32 8
s22 -2 32 -8z" fill="currentColor"/>
</g>
<g transform="translate(126.9081, 50.8287)">
<path transform="scale(0.0040, -0.0040)" d="M-8 375c8 5 18 7 27 7s20 -2 28 -7l-3 -196l99 24h4c11 0 20 -8 20 -19l8 -559c-8 -5 -19 -7 -28 -7s-19 2 -27 7l3 196l-99 -24h-5c-11 0 -19 8 -19 19zM127 109l-85 -20l-2 -198l84 20z" fill="currentColor"/>
</g>
<g transform="translate(126.9216, 64.8287)">
<path transform="scale(0.0040, -0.0040)" d="M-8 375c8 5 18 7 27 7s20 -2 28 -7l-3 -196l99 24h4c11 0 20 -8 20 -19l8 -559c-8 -5 -19 -7 -28 -7s-19 2 -27 7l3 196l-99 -24h-5c-11 0 -19 8 -19 19zM127 109l-85 -20l-2 -198l84 20z" fill="currentColor"/>
</g>
<g transform="translate(126.8081, 72.8287)">
<path transform="scale(0.0040, -0.0040)" d="M33 35l-2 -60v-11c0 -21 2 -43 5 -64c42 38 87 81 87 138c0 32 -13 63 -41 63c-31 0 -48 -32 -49 -66zM32 446l-9 -337c25 26 59 40 95 40c50 0 82 -51 82 -105c0 -77 -80 -117 -137 -169c-18 -17 -26 -48 -52 -48c-16 0 -28 15 -28 32l-15 587c10 6 21 8 32 8
s22 -2 32 -8z" fill="currentColor"/>
</g>
<g transform="translate(126.9216, 85.8287)">
<path transform="scale(0.0040, -0.0040)" d="M-8 375c8 5 18 7 27 7s20 -2 28 -7l-3 -196l99 24h4c11 0 20 -8 20 -19l8 -559c-8 -5 -19 -7 -28 -7s-19 2 -27 7l3 196l-99 -24h-5c-11 0 -19 8 -19 19zM127 109l-85 -20l-2 -198l84 20z" fill="currentColor"/>
</g>
<g transform="translate(126.5081, 96.3287)">
<path transform="scale(0.0040, -0.0040)" d="M0 114c0 12 7 22 18 26l37 15v151c0 12 10 22 22 22s22 -10 22 -22v-134l77 29v152c0 12 10 22 22 22s22 -10 22 -22v-134l16 6c3 1 8 2 11 2c15 0 28 -12 28 -28v-50c0 -12 -7 -23 -18 -27l-37 -14v-152l16 7c3 1 8 2 11 2c15 0 28 -13 28 -29v-50c0 -12 -7 -22 -18 -26
l-37 -15v-151c0 -12 -10 -22 -22 -22s-22 10 -22 22v134l-77 -29v-152c0 -12 -10 -22 -22 -22s-22 10 -22 22v134l-16 -6c-3 -1 -8 -2 -11 -2c-15 0 -28 12 -28 28v50c0 12 7 23 18 27l37 14v152l-16 -7c-3 -1 -8 -2 -11 -2c-15 0 -28 13 -28 29v50zM176 91l-77 -30v-152
l77 30v152z" fill="currentColor"/>
</g>
<g transform="translate(126.9216, 107.3287)">
<path transform="scale(0.0040, -0.0040)" d="M-8 375c8 5 18 7 27 7s20 -2 28 -7l-3 -196l99 24h4c11 0 20 -8 20 -19l8 -559c-8 -5 -19 -7 -28 -7s-19 2 -27 7l3 196l-99 -24h-5c-11 0 -19 8 -19 19zM127 109l-85 -20l-2 -198l84 20z" fill="currentColor"/>
</g>
<g transform="translate(126.8081, 140.8287)">
<path transform="scale(0.0040, -0.0040)" d="M33 35l-2 -60v-11c0 -21 2 -43 5 -64c42 38 87 81 87 138c0 32 -13 63 -41 63c-31 0 -48 -32 -49 -66zM32 446l-9 -337c25 26 59 40 95 40c50 0 82 -51 82 -105c0 -77 -80 -117 -137 -169c-18 -17 -26 -48 -52 -48c-16 0 -28 15 -28 32l-15 587c10 6 21 8 32 8
s22 -2 32 -8z" fill="currentColor"/>
</g>
<g transform="translate(137.6532, 20.8287)">
<path transform="scale(0.0040, -0.0040)" d="M208 139c69 0 117 -40 117 -99c0 -91 -107 -179 -209 -179c-69 0 -116 40 -116 99c0 91 106 179 208 179z" fill="currentColor"/>
</g>
<g color="rgba(0.0000%, 0.0000%, 100.0000%, 100.0000%)">
<g transform="translate(137.6532, 10.7646)">
<text font-family="serif" font-size="2.4698" text-anchor="start" fill="currentColor">
<tspan>IT</tspan>
</text>
</g>
<g transform="translate(139.8445, 11.6065)">
<text font-family="serif" font-size="1.7465" text-anchor="start" fill="currentColor">
<tspan>1</tspan>
</text>
</g>
</g>
<g transform="translate(137.6532, 30.3287)">
<path transform="scale(0.0040, -0.0040)" d="M208 139c69 0 117 -40 117 -99c0 -91 -107 -179 -209 -179c-69 0 -116 40 -116 99c0 91 106 179 208 179z" fill="currentColor"/>
</g>
<g transform="translate(137.6532, 42.8287)">
<path transform="scale(0.0040, -0.0040)" d="M208 139c69 0 117 -40 117 -99c0 -91 -107 -179 -209 -179c-69 0 -116 40 -116 99c0 91 106 179 208 179z" fill="currentColor"/>
</g>
<g transform="translate(137.6532, 52.8287)">
<path transform="scale(0.0040, -0.0040)" d="M208 139c69 0 117 -40 117 -99c0 -91 -107 -179 -209 -179c-69 0 -116 40 -116 99c0 91 106 179 208 179z" fill="currentColor"/>
</g>
<g transform="translate(137.6532, 63.8287)">
<path transform="scale(0.0040, -0.0040)" d="M208 139c69 0 117 -40 117 -99c0 -91 -107 -179 -209 -179c-69 0 -116 40 -116 99c0 91 106 179 208 179z" fill="currentColor"/>
</g>
<g transform="translate(137.6532, 75.3287)">
<path transform="scale(0.0040, -0.0040)" d="M208 139c69 0 117 -40 117 -99c0 -91 -107 -179 -209 -179c-69 0 -116 40 -116 99c0 91 106 179 208 179z" fill="currentColor"/>
</g>
<g transform="translate(137.6532, 84.3287)">
<path transform="scale(0.0040, -0.0040)" d="M208 139c69 0 117 -40 117 -99c0 -91 -107 -179 -209 -179c-69 0 -116 40 -116 99c0 91 106 179 208 179z" fill="currentColor"/>
</g>
<g transform="translate(137.6532, 94.8287)">
<path transform="scale(0.0040, -0.0040)" d="M208 139c69 0 117 -40 117 -99c0 -91 -107 -179 -209 -179c-69 0 -116 40 -116 99c0 91 106 179 208 179z" fill="currentColor"/>
</g>
<g transform="translate(137.6532, 106.3287)">
<path transform="scale(0.0040, -0.0040)" d="M208 139c69 0 117 -40 117 -99c0 -91 -107 -179 -209 -179c-69 0 -116 40 -116 99c0 91 106 179 208 179z" fill="currentColor"/>
</g>
<g transform="translate(137.6532, 118.3287)">
<path transform="scale(0.0040, -0.0040)" d="M208 139c69 0 117 -40 117 -99c0 -91 -107 -179 -209 -179c-69 0 -116 40 -116 99c0 91 106 179 208 179z" fill="currentColor"/>
</g>
<g transform="translate(137.6532, 127.8287)">
<path transform="scale(0.0040, -0.0040)" d="M208 139c69 0 117 -40 117 -99c0 -91 -107 -179 -209 -179c-69 0 -116 40 -116 99c0 91 106 179 208 179z" fill="currentColor"/>
</g>
<g transform="translate(137.6532, 139.8287)">
<path transform="scale(0.0040, -0.0040)" d="M208 139c69 0 117 -40 117 -99c0 -91 -107 -179 -209 -179c-69 0 -116 40 -116 99c0 91 106 179 208 179z" fill="currentColor"/>
</g>
<g transform="translate(136.2032, 20.8287)">
<path transform="scale(0.0040, -0.0040)" d="M0 114c0 12 7 22 18 26l37 15v151c0 12 10 22 22 22s22 -10 22 -22v-134l77 29v152c0 12 10 22 22 22s22 -10 22 -22v-134l16 6c3 1 8 2 11 2c15 0 28 -12 28 -28v-50c0 -12 -7 -23 -18 -27l-37 -14v-152l16 7c3 1 8 2 11 2c15 0 28 -13 28 -29v-50c0 -12 -7 -22 -18 -26
l-37 -15v-151c0 -12 -10 -22 -22 -22s-22 10 -22 22v134l-77 -29v-152c0 -12 -10 -22 -22 -22s-22 10 -22 22v134l-16 -6c-3 -1 -8 -2 -11 -2c-15 0 -28 12 -28 28v50c0 12 7 23 18 27l37 14v152l-16 -7c-3 -1 -8 -2 -11 -2c-15 0 -28 13 -28 29v50zM176 91l-77 -30v-152
l77 30v152z" fill="currentColor"/>
</g>
<g transform="translate(136.6167, 30.3287)">
<path transform="scale(0.0040, -0.0040)" d="M-8 375c8 5 18 7 27 7s20 -2 28 -7l-3 -196l99 24h4c11 0 20 -8 20 -19l8 -559c-8 -5 -19 -7 -28 -7s-19 2 -27 7l3 196l-99 -24h-5c-11 0 -19 8 -19 19zM127 109l-85 -20l-2 -198l84 20z" fill="currentColor"/>
</g>
<g transform="translate(136.6167, 42.8287)">
<path transform="scale(0.0040, -0.0040)" d="M-8 375c8 5 18 7 27 7s20 -2 28 -7l-3 -196l99 24h4c11 0 20 -8 20 -19l8 -559c-8 -5 -19 -7 -28 -7s-19 2 -27 7l3 196l-99 -24h-5c-11 0 -19 8 -19 19zM127 109l-85 -20l-2 -198l84 20z" fill="currentColor"/>
</g>
<g transform="translate(136.5032, 52.8287)">
<path transform="scale(0.0040, -0.0040)" d="M33 35l-2 -60v-11c0 -21 2 -43 5 -64c42 38 87 81 87 138c0 32 -13 63 -41 63c-31 0 -48 -32 -49 -66zM32 446l-9 -337c25 26 59 40 95 40c50 0 82 -51 82 -105c0 -77 -80 -117 -137 -169c-18 -17 -26 -48 -52 -48c-16 0 -28 15 -28 32l-15 587c10 6 21 8 32 8
s22 -2 32 -8z" fill="currentColor"/>
</g>
<g transform="translate(136.6167, 63.8287)">
<path transform="scale(0.0040, -0.0040)" d="M-8 375c8 5 18 7 27 7s20 -2 28 -7l-3 -196l99 24h4c11 0 20 -8 20 -19l8 -559c-8 -5 -19 -7 -28 -7s-19 2 -27 7l3 196l-99 -24h-5c-11 0 -19 8 -19 19zM127 109l-85 -20l-2 -198l84 20z" fill="currentColor"/>
</g>
<g transform="translate(136.5032, 84.3287)">
<path transform="scale(0.0040, -0.0040)" d="M33 35l-2 -60v-11c0 -21 2 -43 5 -64c42 38 87 81 87 138c0 32 -13 63 -41 63c-31 0 -48 -32 -49 -66zM32 446l-9 -337c25 26 59 40 95 40c50 0 82 -51 82 -105c0 -77 -80 -117 -137 -169c-18 -17 -26 -48 -52 -48c-16 0 -28 15 -28 32l-15 587c10 6 21 8 32 8
s22 -2 32 -8z" fill="currentColor"/>
</g>
<g transform="translate(136.5032, 94.8287)">
<path transform="scale(0.0040, -0.0040)" d="M33 35l-2 -60v-11c0 -21 2 -43 5 -64c42 38 87 81 87 138c0 32 -13 63 -41 63c-31 0 -48 -32 -49 -66zM32 446l-9 -337c25 26 59 40 95 40c50 0 82 -51 82 -105c0 -77 -80 -117 -137 -169c-18 -17 -26 -48 -52 -48c-16 0 -28 15 -28 32l-15 587c10 6 21 8 32 8
s22 -2 32 -8z" fill="currentColor"/>
</g>
<g transform="translate(136.6167, 106.3287)">
<path transform="scale(0.0040, -0.0040)" d="M-8 375c8 5 18 7 27 7s20 -2 28 -7l-3 -196l99 24h4c11 0 20 -8 20 -19l8 -559c-8 -5 -19 -7 -28 -7s-19 2 -27 7l3 196l-99 -24h-5c-11 0 -19 8 -19 19zM127 109l-85 -20l-2 -198l84 20z" fill="currentColor"/>
</g>
<g transform="translate(136.2032, 118.3287)">
<path transform="scale(0.0040, -0.0040)" d="M0 114c0 12 7 22 18 26l37 15v151c0 12 10 22 22 22s22 -10 22 -22v-134l77 29v152c0 12 10 22 22 22s22 -10 22 -22v-134l16 6c3 1 8 2 11 2c15 0 28 -12 28 -28v-50c0 -12 -7 -23 -18 -27l-37 -14v-152l16 7c3 1 8 2 11 2c15 0 28 -13 28 -29v-50c0 -12 -7 -22 -18 -26
l-37 -15v-151c0 -12 -10 -22 -22 -22s-22 10 -22 22v134l-77 -29v-152c0 -12 -10 -22 -22 -22s-22 10 -22 22v134l-16 -6c-3 -1 -8 -2 -11 -2c-15 0 -28 12 -28 28v50c0 12 7 23 18 27l37 14v152l-16 -7c-3 -1 -8 -2 -11 -2c-15 0 -28 13 -28 29v50zM176 91l-77 -30v-152
l77 30v152z" fill="currentColor"/>
</g>
<g transform="translate(136.6032, 127.8287)">
<path transform="scale(0.0040, -0.0040)" d="M-8 375c8 5 18 7 27 7s20 -2 28 -7l-3 -196l99 24h4c11 0 20 -8 20 -19l8 -559c-8 -5 -19 -7 -28 -7s-19 2 -27 7l3 196l-99 -24h-5c-11 0 -19 8 -19 19zM127 109l-85 -20l-2 -198l84 20z" fill="currentColor"/>
</g>
<g color="rgba(0.0000%, 0.0000%, 100.0000%, 100.0000%)">
<g transform="translate(16.8710, 73.2151)">
<text font-family="serif" font-size="2.4698" text-anchor="start" fill="currentColor">
<tspan>T</tspan>
</text>
</g>
</g>
<g color="rgba(0.0000%, 0.0000%, 100.0000%, 100.0000%)">
</g>
<g color="rgba(0.0000%, 0.0000%, 100.0000%, 100.0000%)">
<g transform="translate(18.2331, 74.0570)">
<text font-family="serif" font-size="1.7465" text-anchor="start" fill="currentColor">
<tspan>8</tspan>
</text>
</g>
</g>
<g color="rgba(0.0000%, 0.0000%, 100.0000%, 100.0000%)">
<g transform="translate(16.4321, 62.2151)">
<text font-family="serif" font-size="2.4698" text-anchor="start" fill="currentColor">
<tspan>T</tspan>
</text>
</g>
</g>
<g color="rgba(0.0000%, 0.0000%, 100.0000%, 100.0000%)">
</g>
<g color="rgba(0.0000%, 0.0000%, 100.0000%, 100.0000%)">
<g transform="translate(17.7941, 63.0570)">
<text font-family="serif" font-size="1.7465" text-anchor="start" fill="currentColor">
<tspan>10</tspan>
</text>
</g>
</g>
<g color="rgba(0.0000%, 0.0000%, 100.0000%, 100.0000%)">
<g transform="translate(16.8710, 51.2135)">
<text font-family="serif" font-size="2.4698" text-anchor="start" fill="currentColor">
<tspan>T</tspan>
</text>
</g>
</g>
<g color="rgba(0.0000%, 0.0000%, 100.0000%, 100.0000%)">
</g>
<g color="rgba(0.0000%, 0.0000%, 100.0000%, 100.0000%)">
<g transform="translate(18.2331, 52.0553)">
<text font-family="serif" font-size="1.7465" text-anchor="start" fill="currentColor">
<tspan>9</tspan>
</text>
</g>
</g>
<g color="rgba(0.0000%, 0.0000%, 100.0000%, 100.0000%)">
<g transform="translate(16.8710, 40.2151)">
<text font-family="serif" font-size="2.4698" text-anchor="start" fill="currentColor">
<tspan>T</tspan>
</text>
</g>
</g>
<g color="rgba(0.0000%, 0.0000%, 100.0000%, 100.0000%)">
</g>
<g color="rgba(0.0000%, 0.0000%, 100.0000%, 100.0000%)">
<g transform="translate(18.2331, 41.0570)">
<text font-family="serif" font-size="1.7465" text-anchor="start" fill="currentColor">
<tspan>6</tspan>
</text>
</g>
</g>
<g color="rgba(0.0000%, 0.0000%, 100.0000%, 100.0000%)">
<g transform="translate(16.4808, 29.2254)">
<text font-family="serif" font-size="2.4698" text-anchor="start" fill="currentColor">
<tspan>T</tspan>
</text>
</g>
</g>
<g color="rgba(0.0000%, 0.0000%, 100.0000%, 100.0000%)">
</g>
<g color="rgba(0.0000%, 0.0000%, 100.0000%, 100.0000%)">
<g transform="translate(17.8429, 30.0672)">
<text font-family="serif" font-size="1.7465" text-anchor="start" fill="currentColor">
<tspan>11</tspan>
</text>
</g>
</g>
<g color="rgba(0.0000%, 0.0000%, 100.0000%, 100.0000%)">
<g transform="translate(16.8710, 18.2135)">
<text font-family="serif" font-size="2.4698" text-anchor="start" fill="currentColor">
<tspan>T</tspan>
</text>
</g>
</g>
<g color="rgba(0.0000%, 0.0000%, 100.0000%, 100.0000%)">
</g>
<g color="rgba(0.0000%, 0.0000%, 100.0000%, 100.0000%)">
<g transform="translate(18.2331, 19.0553)">
<text font-family="serif" font-size="1.7465" text-anchor="start" fill="currentColor">
<tspan>7</tspan>
</text>
</g>
</g>
<g transform="translate(59.7752, 232.8378)">
<a xlink:href="https://lilypond.org/">
<rect x="0.0000" y="-0.4748" width="51.1662" height="2.0022" fill="none" stroke="none" stroke-width="0.0"/>
</a>
</g>
<g transform="translate(59.7752, 232.8378)">
<text font-family="serif" font-size="2.1998" text-anchor="start" fill="currentColor">
<tspan>Music engraving by LilyPond 2.25.1www.lilypond.org</tspan>
</text>
</g>
</svg>
