<svg xmlns="http://www.w3.org/2000/svg" xmlns:xlink="http://www.w3.org/1999/xlink" version="1.2" width="17.96mm" height="37.41mm" viewBox="7.2258 -0.5930 10.2200 21.2860">
<style type="text/css">
<![CDATA[
tspan { white-space: pre; }
]]>
</style>
<g transform="translate(17.2558, -0.0000)">
<rect x="0.0000" y="11.1000" width="0.1900" height="6.9500" ry="0.0000" fill="currentColor"/>
</g>
<g transform="translate(17.2558, -0.0000)">
<rect x="0.0000" y="2.1000" width="0.1900" height="6.9500" ry="0.0000" fill="currentColor"/>
</g>
<g transform="translate(17.2558, 19.0500)">
<rect x="0.0000" y="-1.1000" width="0.1900" height="2.1500" ry="0.0000" fill="currentColor"/>
</g>
<g transform="translate(17.2558, 10.0500)">
<rect x="0.0000" y="-1.1000" width="0.1900" height="2.2000" ry="0.0000" fill="currentColor"/>
</g>
<g transform="translate(17.2558, 1.0500)">
<rect x="0.0000" y="-1.0500" width="0.1900" height="2.1500" ry="0.0000" fill="currentColor"/>
</g>
<g transform="translate(8.5358, 19.0500)">
<line stroke-linejoin="round" stroke-linecap="round" stroke-width="0.1000" stroke="currentColor" x1="0.0500" y1="0" x2="8.8600" y2="0"/>
</g>
<g transform="translate(8.5358, 1.0500)">
<line stroke-linejoin="round" stroke-linecap="round" stroke-width="0.1000" stroke="currentColor" x1="0.0500" y1="0" x2="8.8600" y2="0"/>
</g>
<g transform="translate(8.5358, 10.0500)">
<line stroke-linejoin="round" stroke-linecap="round" stroke-width="0.1000" stroke="currentColor" x1="0.0500" y1="0" x2="8.8600" y2="0"/>
</g>
<g transform="translate(9.5358, 10.0500)">
<path transform="scale(0.0040, -0.0040)" d="M359 27c-49 0 -75 42 -75 75c0 38 27 77 72 77c4 0 9 0 14 -1c-28 37 -72 59 -120 59c-106 0 -113 -73 -113 -186v-51v-51c0 -113 7 -187 113 -187c80 0 139 70 158 151c2 7 7 10 12 10c6 0 13 -4 13 -12c0 -94 -105 -174 -183 -174c-68 0 -137 21 -184 70
c-49 51 -66 122 -66 193s17 142 66 193c47 49 116 69 184 69c87 0 160 -63 175 -149c1 -5 1 -10 1 -14c0 -40 -30 -72 -67 -72z" fill="currentColor"/>
</g>
<g transform="translate(9.5358, 19.0500)">
<path transform="scale(0.0040, -0.0040)" d="M359 27c-49 0 -75 42 -75 75c0 38 27 77 72 77c4 0 9 0 14 -1c-28 37 -72 59 -120 59c-106 0 -113 -73 -113 -186v-51v-51c0 -113 7 -187 113 -187c80 0 139 70 158 151c2 7 7 10 12 10c6 0 13 -4 13 -12c0 -94 -105 -174 -183 -174c-68 0 -137 21 -184 70
c-49 51 -66 122 -66 193s17 142 66 193c47 49 116 69 184 69c87 0 160 -63 175 -149c1 -5 1 -10 1 -14c0 -40 -30 -72 -67 -72z" fill="currentColor"/>
</g>
<g transform="translate(9.5358, 1.0500)">
<path transform="scale(0.0040, -0.0040)" d="M359 27c-49 0 -75 42 -75 75c0 38 27 77 72 77c4 0 9 0 14 -1c-28 37 -72 59 -120 59c-106 0 -113 -73 -113 -186v-51v-51c0 -113 7 -187 113 -187c80 0 139 70 158 151c2 7 7 10 12 10c6 0 13 -4 13 -12c0 -94 -105 -174 -183 -174c-68 0 -137 21 -184 70
c-49 51 -66 122 -66 193s17 142 66 193c47 49 116 69 184 69c87 0 160 -63 175 -149c1 -5 1 -10 1 -14c0 -40 -30 -72 -67 -72z" fill="currentColor"/>
</g>
<g transform="translate(8.4758, 10.0500)">
<rect x="0.0000" y="-9.0500" width="0.1600" height="18.1000" ry="0.0500" fill="currentColor"/>
</g>
<g transform="translate(7.2258, 0.7750)">
<path transform="scale(0.0040, -0.0040)" d="M0 -56v87c0 14 11 25 25 25h50c159 0 271 136 362 270c11 17 37 -1 26 -18c-99 -144 -215 -364 -388 -364h-75z" fill="currentColor"/>
</g>
<g transform="translate(7.2258, 19.3250)">
<path transform="scale(0.0040, -0.0040)" d="M0 56h75c173 0 289 -220 388 -364c11 -17 -15 -35 -26 -18c-91 134 -203 270 -362 270h-50c-14 0 -25 11 -25 25v87z" fill="currentColor"/>
</g>
<g transform="translate(7.2258, 10.0500)">
<rect x="0.0000" y="-9.0950" width="0.4500" height="18.1900" ry="0.0000" fill="currentColor"/>
</g>
</svg>
