<svg xmlns="http://www.w3.org/2000/svg" xmlns:xlink="http://www.w3.org/1999/xlink" version="1.2" width="164.91mm" height="13.72mm" viewBox="8.5358 -0.0000 93.8441 7.8066">
<style type="text/css">
<![CDATA[
tspan { white-space: pre; }
]]>
</style>
<g transform="translate(8.5358, 6.0666)">
<line stroke-linejoin="round" stroke-linecap="round" stroke-width="0.1000" stroke="currentColor" x1="0.0500" y1="0" x2="93.8441" y2="0"/>
</g>
<g transform="translate(8.5358, 5.0666)">
<line stroke-linejoin="round" stroke-linecap="round" stroke-width="0.1000" stroke="currentColor" x1="0.0500" y1="0" x2="93.8441" y2="0"/>
</g>
<g transform="translate(8.5358, 4.0666)">
<line stroke-linejoin="round" stroke-linecap="round" stroke-width="0.1000" stroke="currentColor" x1="0.0500" y1="0" x2="93.8441" y2="0"/>
</g>
<g transform="translate(8.5358, 3.0666)">
<line stroke-linejoin="round" stroke-linecap="round" stroke-width="0.1000" stroke="currentColor" x1="0.0500" y1="0" x2="93.8441" y2="0"/>
</g>
<g transform="translate(8.5358, 2.0666)">
<line stroke-linejoin="round" stroke-linecap="round" stroke-width="0.1000" stroke="currentColor" x1="0.0500" y1="0" x2="93.8441" y2="0"/>
</g>
<g transform="translate(95.4851, 4.0666)">
<rect x="0.0000" y="-2.0000" width="0.1900" height="4.0000" ry="0.0000" fill="currentColor"/>
</g>
<g transform="translate(56.3475, 4.0666)">
<rect x="0.0000" y="-2.0000" width="0.1900" height="4.0000" ry="0.0000" fill="currentColor"/>
</g>
<g transform="translate(89.5333, 1.2566)">
<polygon stroke-linejoin="round" stroke-linecap="round" stroke-width="0.0800" fill="currentColor" stroke="currentColor" points="3.5882 -0.3900 3.5882 0.0100 0.0400 0.2000 0.0400 -0.2000"/>
</g>
<g transform="translate(78.9153, 6.7566)">
<polygon stroke-linejoin="round" stroke-linecap="round" stroke-width="0.0800" fill="currentColor" stroke="currentColor" points="7.2936 -0.7000 7.2936 -0.3000 0.0400 0.2000 0.0400 -0.2000"/>
</g>
<g transform="translate(78.9153, 7.5666)">
<polygon stroke-linejoin="round" stroke-linecap="round" stroke-width="0.0800" fill="currentColor" stroke="currentColor" points="7.2936 -0.7000 7.2936 -0.3000 0.0400 0.2000 0.0400 -0.2000"/>
</g>
<g transform="translate(18.4222, 3.0666)">
<path transform="scale(0.0040, -0.0040)" d="M0 -46c0 91 116 182 217 182c63 0 109 -35 109 -90c0 -87 -110 -182 -220 -182c-67 0 -106 39 -106 90z" fill="currentColor"/>
</g>
<g transform="translate(9.3358, 5.0666)">
<path transform="scale(0.0040, -0.0040)" d="M266 -635h-6c-108 0 -195 88 -195 197c0 58 53 103 112 103c54 0 95 -47 95 -103c0 -52 -43 -95 -95 -95c-11 0 -21 2 -31 6c26 -39 68 -65 117 -65h4zM401 151c19 -89 48 -242 60 -354c76 27 112 94 112 163c0 89 -60 179 -172 191zM74 28c0 -112 98 -247 278 -247
c21 0 44 2 68 6c-7 64 -29 203 -63 364c-79 -8 -124 -61 -124 -119c0 -44 25 -91 81 -123c5 -5 7 -10 7 -15c0 -11 -10 -22 -22 -22c-15 0 -126 62 -126 187c0 88 58 174 160 197c-14 58 -29 117 -46 175c-107 -121 -213 -243 -213 -403zM357 1194c28 0 143 -206 143 -361
c0 -143 -86 -255 -180 -364c21 -68 39 -138 56 -207c5 0 10 1 14 1c155 0 255 -129 255 -262c0 -113 -74 -212 -180 -245c3 -35 5 -70 5 -105c0 -19 -1 -39 -2 -58c-7 -119 -88 -225 -202 -228l1 43c93 2 153 92 159 191c1 18 2 37 2 55c0 31 -1 61 -4 92
c-28 -5 -55 -8 -80 -8c-239 0 -342 217 -342 374c0 177 131 306 248 441c-29 96 -52 170 -52 346c0 189 144 295 159 295zM247 782c0 -55 12 -115 35 -190c83 100 147 202 147 326c0 40 -6 82 -21 127c-49 -24 -161 -97 -161 -263z" fill="currentColor"/>
</g>
<g transform="translate(12.8408, 4.0666)">
<path transform="scale(0.0040, -0.0040)" d="M27 41l-1 -66v-11c0 -22 1 -44 4 -66c45 38 93 80 93 139c0 33 -14 67 -43 67c-31 0 -52 -30 -53 -63zM-15 -138l-12 595c8 5 18 8 27 8s19 -3 27 -8l-7 -345c25 21 58 34 91 34c52 0 89 -48 89 -102c0 -80 -86 -117 -147 -169c-15 -13 -24 -38 -45 -38
c-13 0 -23 11 -23 25z" fill="currentColor"/>
</g>
<g transform="translate(14.7908, 4.0666)">
<path transform="scale(0.0040, -0.0040)" d="M433 -89c0 -22 -50 -174 -183 -174c-59 0 -250 19 -250 263c0 62 18 262 250 262c116 0 176 -106 176 -163c0 -40 -30 -72 -67 -72c-31 0 -75 25 -75 75c0 38 27 77 72 77c4 0 9 0 14 -1c-28 37 -72 59 -120 59c-106 0 -113 -73 -113 -186v-51v-51
c0 -113 7 -187 113 -187c80 0 139 70 158 151c2 7 7 10 12 10c6 0 13 -4 13 -12z" fill="currentColor"/>
</g>
<g transform="translate(18.4872, 4.0666)">
<rect x="-0.0650" y="-0.8138" width="0.1300" height="3.6159" ry="0.0400" fill="currentColor"/>
</g>
<g transform="translate(68.4605, 5.2566)">
<polygon stroke-linejoin="round" stroke-linecap="round" stroke-width="0.0800" fill="currentColor" stroke="currentColor" points="7.2936 0.6100 7.2936 1.0100 0.0400 0.2000 0.0400 -0.2000"/>
</g>
<g transform="translate(68.4605, 6.0666)">
<polygon stroke-linejoin="round" stroke-linecap="round" stroke-width="0.0800" fill="currentColor" stroke="currentColor" points="7.2936 0.6100 7.2936 1.0100 0.0400 0.2000 0.0400 -0.2000"/>
</g>
<g transform="translate(20.8234, 3.5666)">
<path transform="scale(0.0040, -0.0040)" d="M0 -46c0 91 116 182 217 182c63 0 109 -35 109 -90c0 -87 -110 -182 -220 -182c-67 0 -106 39 -106 90z" fill="currentColor"/>
</g>
<g transform="translate(20.8884, 4.0666)">
<rect x="-0.0650" y="-0.3138" width="0.1300" height="2.8224" ry="0.0400" fill="currentColor"/>
</g>
<g transform="translate(78.9153, 4.0666)">
<path stroke-width="0.0800" stroke-linejoin="round" stroke-linecap="round" stroke="currentColor" fill="currentColor" d="M0.5836 -1.5450C1.8442 -3.0465 6.1217 -3.7294 7.7872 -2.6950L7.7872 -2.6950C6.1406 -3.6109 1.8631 -2.9280 0.5836 -1.5450z"/>
</g>
<g transform="translate(24.0746, 2.0666)">
<path transform="scale(0.0040, -0.0040)" d="M0 -46c0 91 116 182 217 182c63 0 109 -35 109 -90c0 -87 -110 -182 -220 -182c-67 0 -106 39 -106 90z" fill="currentColor"/>
</g>
<g transform="translate(24.1396, 4.0666)">
<rect x="-0.0650" y="-1.8138" width="0.1300" height="3.9252" ry="0.0400" fill="currentColor"/>
</g>
<g transform="translate(22.6246, 2.0666)">
<path transform="scale(0.0040, -0.0040)" d="M0 119c0 8 5 15 13 18l46 17v158c0 10 8 19 18 19s19 -9 19 -19v-145l83 31v158c0 10 9 19 19 19s18 -9 18 -19v-145l32 12c2 1 5 1 7 1c11 0 20 -9 20 -20v-60c0 -8 -5 -16 -13 -19l-46 -16v-160l32 11c2 1 5 1 7 1c11 0 20 -9 20 -20v-60c0 -8 -5 -15 -13 -18l-46 -17
v-158c0 -10 -8 -19 -18 -19s-19 9 -19 19v145l-83 -31v-158c0 -10 -9 -19 -19 -19s-18 9 -18 19v145l-32 -12c-2 -1 -5 -1 -7 -1c-11 0 -20 9 -20 20v60c0 8 5 16 13 19l46 16v160l-32 -11c-2 -1 -5 -1 -7 -1c-11 0 -20 9 -20 20v60zM179 95l-83 -30v-160l83 30v160z" fill="currentColor"/>
</g>
<g transform="translate(57.5597, 6.0666)">
<polygon stroke-linejoin="round" stroke-linecap="round" stroke-width="0.0800" fill="currentColor" stroke="currentColor" points="8.1436 -1.2000 8.1436 -0.8000 0.0400 0.2000 0.0400 -0.2000"/>
</g>
<g transform="translate(57.5597, 6.8766)">
<polygon stroke-linejoin="round" stroke-linecap="round" stroke-width="0.0800" fill="currentColor" stroke="currentColor" points="8.1436 -1.2000 8.1436 -0.8000 0.0400 0.2000 0.0400 -0.2000"/>
</g>
<g transform="translate(26.4758, 1.5666)">
<path transform="scale(0.0040, -0.0040)" d="M0 -46c0 91 116 182 217 182c63 0 109 -35 109 -90c0 -87 -110 -182 -220 -182c-67 0 -106 39 -106 90z" fill="currentColor"/>
</g>
<g transform="translate(26.5408, 4.0666)">
<rect x="-0.0650" y="-2.3138" width="0.1300" height="4.1317" ry="0.0400" fill="currentColor"/>
</g>
<g transform="translate(68.4605, 4.0666)">
<path stroke-width="0.0800" stroke-linejoin="round" stroke-linecap="round" stroke="currentColor" fill="currentColor" d="M0.7407 -3.0450C2.4619 -4.0034 6.7488 -3.1107 7.9443 -1.5450L7.9443 -1.5450C6.7243 -2.9933 2.4374 -3.8859 0.7407 -3.0450z"/>
</g>
<g transform="translate(29.3230, 2.0666)">
<path transform="scale(0.0040, -0.0040)" d="M0 -46c0 91 116 182 217 182c63 0 109 -35 109 -90c0 -87 -110 -182 -220 -182c-67 0 -106 39 -106 90z" fill="currentColor"/>
</g>
<g transform="translate(29.3880, 4.0666)">
<rect x="-0.0650" y="-1.8138" width="0.1300" height="3.8210" ry="0.0400" fill="currentColor"/>
</g>
<g transform="translate(28.2770, 2.0666)">
<path transform="scale(0.0040, -0.0040)" d="M-7 375c8 4 17 7 25 7s16 -3 24 -7l-2 -183l106 20h3c10 0 18 -7 18 -17l7 -570c-8 -4 -17 -7 -25 -7s-16 3 -24 7l2 183l-106 -20h-3c-10 0 -18 7 -18 17zM131 112l-92 -17l-3 -207l92 17z" fill="currentColor"/>
</g>
<g transform="translate(50.3957, 1.2566)">
<polygon stroke-linejoin="round" stroke-linecap="round" stroke-width="0.0800" fill="currentColor" stroke="currentColor" points="3.5882 -0.3900 3.5882 0.0100 0.0400 0.2000 0.0400 -0.2000"/>
</g>
<g transform="translate(31.7242, 2.5666)">
<path transform="scale(0.0040, -0.0040)" d="M0 -46c0 91 116 182 217 182c63 0 109 -35 109 -90c0 -87 -110 -182 -220 -182c-67 0 -106 39 -106 90z" fill="currentColor"/>
</g>
<g transform="translate(31.7892, 4.0666)">
<rect x="-0.0650" y="-1.3138" width="0.1300" height="3.5862" ry="0.0400" fill="currentColor"/>
</g>
<g transform="translate(57.5597, 4.0666)">
<path stroke-width="0.0800" stroke-linejoin="round" stroke-linecap="round" stroke="currentColor" fill="currentColor" d="M0.5802 -2.1950C1.9234 -3.7890 6.8443 -4.6138 8.6338 -3.5450L8.6338 -3.5450C6.8641 -4.4955 1.9433 -3.6706 0.5802 -2.1950z"/>
</g>
<g transform="translate(34.1254, 3.0666)">
<path transform="scale(0.0040, -0.0040)" d="M0 -46c0 91 116 182 217 182c63 0 109 -35 109 -90c0 -87 -110 -182 -220 -182c-67 0 -106 39 -106 90z" fill="currentColor"/>
</g>
<g transform="translate(34.1904, 4.0666)">
<rect x="-0.0650" y="-0.8138" width="0.1300" height="3.3514" ry="0.0400" fill="currentColor"/>
</g>
<g transform="translate(39.7778, 6.7566)">
<polygon stroke-linejoin="round" stroke-linecap="round" stroke-width="0.0800" fill="currentColor" stroke="currentColor" points="7.2936 -0.7000 7.2936 -0.3000 0.0400 0.2000 0.0400 -0.2000"/>
</g>
<g transform="translate(39.7778, 7.5666)">
<polygon stroke-linejoin="round" stroke-linecap="round" stroke-width="0.0800" fill="currentColor" stroke="currentColor" points="7.2936 -0.7000 7.2936 -0.3000 0.0400 0.2000 0.0400 -0.2000"/>
</g>
<g transform="translate(36.5266, 3.5666)">
<path transform="scale(0.0040, -0.0040)" d="M0 -46c0 91 116 182 217 182c63 0 109 -35 109 -90c0 -87 -110 -182 -220 -182c-67 0 -106 39 -106 90z" fill="currentColor"/>
</g>
<g transform="translate(36.5916, 4.0666)">
<rect x="-0.0650" y="-0.3138" width="0.1300" height="3.1166" ry="0.0400" fill="currentColor"/>
</g>
<g transform="translate(29.3230, 5.2566)">
<polygon stroke-linejoin="round" stroke-linecap="round" stroke-width="0.0800" fill="currentColor" stroke="currentColor" points="7.2936 0.6100 7.2936 1.0100 0.0400 0.2000 0.0400 -0.2000"/>
</g>
<g transform="translate(29.3230, 6.0666)">
<polygon stroke-linejoin="round" stroke-linecap="round" stroke-width="0.0800" fill="currentColor" stroke="currentColor" points="7.2936 0.6100 7.2936 1.0100 0.0400 0.2000 0.0400 -0.2000"/>
</g>
<g transform="translate(39.7778, 3.5666)">
<path transform="scale(0.0040, -0.0040)" d="M0 -46c0 91 116 182 217 182c63 0 109 -35 109 -90c0 -87 -110 -182 -220 -182c-67 0 -106 39 -106 90z" fill="currentColor"/>
</g>
<g transform="translate(39.8428, 4.0666)">
<rect x="-0.0650" y="-0.3138" width="0.1300" height="3.8094" ry="0.0400" fill="currentColor"/>
</g>
<g transform="translate(38.3278, 3.5666)">
<path transform="scale(0.0040, -0.0040)" d="M0 119c0 8 5 15 13 18l46 17v158c0 10 8 19 18 19s19 -9 19 -19v-145l83 31v158c0 10 9 19 19 19s18 -9 18 -19v-145l32 12c2 1 5 1 7 1c11 0 20 -9 20 -20v-60c0 -8 -5 -16 -13 -19l-46 -16v-160l32 11c2 1 5 1 7 1c11 0 20 -9 20 -20v-60c0 -8 -5 -15 -13 -18l-46 -17
v-158c0 -10 -8 -19 -18 -19s-19 9 -19 19v145l-83 -31v-158c0 -10 -9 -19 -19 -19s-18 9 -18 19v145l-32 -12c-2 -1 -5 -1 -7 -1c-11 0 -20 9 -20 20v60c0 8 5 16 13 19l46 16v160l-32 -11c-2 -1 -5 -1 -7 -1c-11 0 -20 9 -20 20v60zM179 95l-83 -30v-160l83 30v160z" fill="currentColor"/>
</g>
<g transform="translate(39.7778, 4.0666)">
<path stroke-width="0.0800" stroke-linejoin="round" stroke-linecap="round" stroke="currentColor" fill="currentColor" d="M0.5836 -1.5450C1.8442 -3.0465 6.1217 -3.7294 7.7872 -2.6950L7.7872 -2.6950C6.1406 -3.6109 1.8631 -2.9280 0.5836 -1.5450z"/>
</g>
<g transform="translate(42.1790, 3.0666)">
<path transform="scale(0.0040, -0.0040)" d="M0 -46c0 91 116 182 217 182c63 0 109 -35 109 -90c0 -87 -110 -182 -220 -182c-67 0 -106 39 -106 90z" fill="currentColor"/>
</g>
<g transform="translate(42.2440, 4.0666)">
<rect x="-0.0650" y="-0.8138" width="0.1300" height="4.1457" ry="0.0400" fill="currentColor"/>
</g>
<g transform="translate(18.4222, 6.0666)">
<polygon stroke-linejoin="round" stroke-linecap="round" stroke-width="0.0800" fill="currentColor" stroke="currentColor" points="8.1436 -1.2000 8.1436 -0.8000 0.0400 0.2000 0.0400 -0.2000"/>
</g>
<g transform="translate(18.4222, 6.8766)">
<polygon stroke-linejoin="round" stroke-linecap="round" stroke-width="0.0800" fill="currentColor" stroke="currentColor" points="8.1436 -1.2000 8.1436 -0.8000 0.0400 0.2000 0.0400 -0.2000"/>
</g>
<g transform="translate(44.8302, 2.0666)">
<path transform="scale(0.0040, -0.0040)" d="M0 -46c0 91 116 182 217 182c63 0 109 -35 109 -90c0 -87 -110 -182 -220 -182c-67 0 -106 39 -106 90z" fill="currentColor"/>
</g>
<g transform="translate(44.8952, 4.0666)">
<rect x="-0.0650" y="-1.8138" width="0.1300" height="4.9649" ry="0.0400" fill="currentColor"/>
</g>
<g transform="translate(29.3230, 4.0666)">
<path stroke-width="0.0800" stroke-linejoin="round" stroke-linecap="round" stroke="currentColor" fill="currentColor" d="M0.7407 -3.0450C2.4619 -4.0034 6.7488 -3.1107 7.9443 -1.5450L7.9443 -1.5450C6.7243 -2.9933 2.4374 -3.8859 0.7407 -3.0450z"/>
</g>
<g transform="translate(46.9814, 3.0666)">
<path transform="scale(0.0040, -0.0040)" d="M0 -46c0 91 116 182 217 182c63 0 109 -35 109 -90c0 -87 -110 -182 -220 -182c-67 0 -106 39 -106 90z" fill="currentColor"/>
</g>
<g transform="translate(47.0464, 4.0666)">
<rect x="-0.0650" y="-0.8138" width="0.1300" height="3.8182" ry="0.0400" fill="currentColor"/>
</g>
<g transform="translate(18.4222, 4.0666)">
<path stroke-width="0.0800" stroke-linejoin="round" stroke-linecap="round" stroke="currentColor" fill="currentColor" d="M0.5802 -2.1950C1.9234 -3.7890 6.8443 -4.6138 8.6338 -3.5450L8.6338 -3.5450C6.8641 -4.4955 1.9433 -3.6706 0.5802 -2.1950z"/>
</g>
<g transform="translate(49.2215, 4.5666)">
<path transform="scale(0.0040, -0.0040)" d="M0 -46c0 91 116 182 217 182c63 0 109 -35 109 -90c0 -87 -110 -182 -220 -182c-67 0 -106 39 -106 90z" fill="currentColor"/>
</g>
<g transform="translate(50.4607, 4.0666)">
<rect x="-0.0650" y="-2.8134" width="0.1300" height="3.1272" ry="0.0400" fill="currentColor"/>
</g>
<g transform="translate(52.7198, 4.0666)">
<path transform="scale(0.0040, -0.0040)" d="M0 -46c0 91 116 182 217 182c63 0 109 -35 109 -90c0 -87 -110 -182 -220 -182c-67 0 -106 39 -106 90z" fill="currentColor"/>
</g>
<g transform="translate(53.9590, 4.0666)">
<rect x="-0.0650" y="-2.9966" width="0.1300" height="2.8104" ry="0.0400" fill="currentColor"/>
</g>
<g transform="translate(51.6855, 4.0666)">
<path transform="scale(0.0040, -0.0040)" d="M-7 375c8 4 17 7 25 7s16 -3 24 -7l-2 -183l106 20h3c10 0 18 -7 18 -17l7 -570c-8 -4 -17 -7 -25 -7s-16 3 -24 7l2 183l-106 -20h-3c-10 0 -18 7 -18 17zM131 112l-92 -17l-3 -207l92 17z" fill="currentColor"/>
</g>
<g transform="translate(57.5597, 3.0666)">
<path transform="scale(0.0040, -0.0040)" d="M0 -46c0 91 116 182 217 182c63 0 109 -35 109 -90c0 -87 -110 -182 -220 -182c-67 0 -106 39 -106 90z" fill="currentColor"/>
</g>
<g transform="translate(57.6247, 4.0666)">
<rect x="-0.0650" y="-0.8138" width="0.1300" height="3.6159" ry="0.0400" fill="currentColor"/>
</g>
<g transform="translate(59.9609, 3.5666)">
<path transform="scale(0.0040, -0.0040)" d="M0 -46c0 91 116 182 217 182c63 0 109 -35 109 -90c0 -87 -110 -182 -220 -182c-67 0 -106 39 -106 90z" fill="currentColor"/>
</g>
<g transform="translate(60.0259, 4.0666)">
<rect x="-0.0650" y="-0.3138" width="0.1300" height="2.8224" ry="0.0400" fill="currentColor"/>
</g>
<g transform="translate(63.2121, 2.0666)">
<path transform="scale(0.0040, -0.0040)" d="M0 -46c0 91 116 182 217 182c63 0 109 -35 109 -90c0 -87 -110 -182 -220 -182c-67 0 -106 39 -106 90z" fill="currentColor"/>
</g>
<g transform="translate(63.2771, 4.0666)">
<rect x="-0.0650" y="-1.8138" width="0.1300" height="3.9252" ry="0.0400" fill="currentColor"/>
</g>
<g transform="translate(61.7621, 2.0666)">
<path transform="scale(0.0040, -0.0040)" d="M0 119c0 8 5 15 13 18l46 17v158c0 10 8 19 18 19s19 -9 19 -19v-145l83 31v158c0 10 9 19 19 19s18 -9 18 -19v-145l32 12c2 1 5 1 7 1c11 0 20 -9 20 -20v-60c0 -8 -5 -16 -13 -19l-46 -16v-160l32 11c2 1 5 1 7 1c11 0 20 -9 20 -20v-60c0 -8 -5 -15 -13 -18l-46 -17
v-158c0 -10 -8 -19 -18 -19s-19 9 -19 19v145l-83 -31v-158c0 -10 -9 -19 -19 -19s-18 9 -18 19v145l-32 -12c-2 -1 -5 -1 -7 -1c-11 0 -20 9 -20 20v60c0 8 5 16 13 19l46 16v160l-32 -11c-2 -1 -5 -1 -7 -1c-11 0 -20 9 -20 20v60zM179 95l-83 -30v-160l83 30v160z" fill="currentColor"/>
</g>
<g transform="translate(65.6133, 1.5666)">
<path transform="scale(0.0040, -0.0040)" d="M0 -46c0 91 116 182 217 182c63 0 109 -35 109 -90c0 -87 -110 -182 -220 -182c-67 0 -106 39 -106 90z" fill="currentColor"/>
</g>
<g transform="translate(65.6783, 4.0666)">
<rect x="-0.0650" y="-2.3138" width="0.1300" height="4.1317" ry="0.0400" fill="currentColor"/>
</g>
<g transform="translate(68.4605, 2.0666)">
<path transform="scale(0.0040, -0.0040)" d="M0 -46c0 91 116 182 217 182c63 0 109 -35 109 -90c0 -87 -110 -182 -220 -182c-67 0 -106 39 -106 90z" fill="currentColor"/>
</g>
<g transform="translate(68.5255, 4.0666)">
<rect x="-0.0650" y="-1.8138" width="0.1300" height="3.8210" ry="0.0400" fill="currentColor"/>
</g>
<g transform="translate(67.4145, 2.0666)">
<path transform="scale(0.0040, -0.0040)" d="M-7 375c8 4 17 7 25 7s16 -3 24 -7l-2 -183l106 20h3c10 0 18 -7 18 -17l7 -570c-8 -4 -17 -7 -25 -7s-16 3 -24 7l2 183l-106 -20h-3c-10 0 -18 7 -18 17zM131 112l-92 -17l-3 -207l92 17z" fill="currentColor"/>
</g>
<g transform="translate(70.8617, 2.5666)">
<path transform="scale(0.0040, -0.0040)" d="M0 -46c0 91 116 182 217 182c63 0 109 -35 109 -90c0 -87 -110 -182 -220 -182c-67 0 -106 39 -106 90z" fill="currentColor"/>
</g>
<g transform="translate(70.9267, 4.0666)">
<rect x="-0.0650" y="-1.3138" width="0.1300" height="3.5862" ry="0.0400" fill="currentColor"/>
</g>
<g transform="translate(73.2629, 3.0666)">
<path transform="scale(0.0040, -0.0040)" d="M0 -46c0 91 116 182 217 182c63 0 109 -35 109 -90c0 -87 -110 -182 -220 -182c-67 0 -106 39 -106 90z" fill="currentColor"/>
</g>
<g transform="translate(73.3279, 4.0666)">
<rect x="-0.0650" y="-0.8138" width="0.1300" height="3.3514" ry="0.0400" fill="currentColor"/>
</g>
<g transform="translate(75.6641, 3.5666)">
<path transform="scale(0.0040, -0.0040)" d="M0 -46c0 91 116 182 217 182c63 0 109 -35 109 -90c0 -87 -110 -182 -220 -182c-67 0 -106 39 -106 90z" fill="currentColor"/>
</g>
<g transform="translate(75.7291, 4.0666)">
<rect x="-0.0650" y="-0.3138" width="0.1300" height="3.1166" ry="0.0400" fill="currentColor"/>
</g>
<g transform="translate(96.7295, 4.0666)">
<rect x="-0.0650" y="-0.2410" width="0.1300" height="3.2410" ry="0.0400" fill="currentColor"/>
</g>
<g transform="translate(78.9153, 3.5666)">
<path transform="scale(0.0040, -0.0040)" d="M0 -46c0 91 116 182 217 182c63 0 109 -35 109 -90c0 -87 -110 -182 -220 -182c-67 0 -106 39 -106 90z" fill="currentColor"/>
</g>
<g transform="translate(78.9803, 4.0666)">
<rect x="-0.0650" y="-0.3138" width="0.1300" height="3.8094" ry="0.0400" fill="currentColor"/>
</g>
<g transform="translate(77.4653, 3.5666)">
<path transform="scale(0.0040, -0.0040)" d="M0 119c0 8 5 15 13 18l46 17v158c0 10 8 19 18 19s19 -9 19 -19v-145l83 31v158c0 10 9 19 19 19s18 -9 18 -19v-145l32 12c2 1 5 1 7 1c11 0 20 -9 20 -20v-60c0 -8 -5 -16 -13 -19l-46 -16v-160l32 11c2 1 5 1 7 1c11 0 20 -9 20 -20v-60c0 -8 -5 -15 -13 -18l-46 -17
v-158c0 -10 -8 -19 -18 -19s-19 9 -19 19v145l-83 -31v-158c0 -10 -9 -19 -19 -19s-18 9 -18 19v145l-32 -12c-2 -1 -5 -1 -7 -1c-11 0 -20 9 -20 20v60c0 8 5 16 13 19l46 16v160l-32 -11c-2 -1 -5 -1 -7 -1c-11 0 -20 9 -20 20v60zM179 95l-83 -30v-160l83 30v160z" fill="currentColor"/>
</g>
<g transform="translate(81.3166, 3.0666)">
<path transform="scale(0.0040, -0.0040)" d="M0 -46c0 91 116 182 217 182c63 0 109 -35 109 -90c0 -87 -110 -182 -220 -182c-67 0 -106 39 -106 90z" fill="currentColor"/>
</g>
<g transform="translate(81.3816, 4.0666)">
<rect x="-0.0650" y="-0.8138" width="0.1300" height="4.1457" ry="0.0400" fill="currentColor"/>
</g>
<g transform="translate(83.9678, 2.0666)">
<path transform="scale(0.0040, -0.0040)" d="M0 -46c0 91 116 182 217 182c63 0 109 -35 109 -90c0 -87 -110 -182 -220 -182c-67 0 -106 39 -106 90z" fill="currentColor"/>
</g>
<g transform="translate(84.0328, 4.0666)">
<rect x="-0.0650" y="-1.8138" width="0.1300" height="4.9649" ry="0.0400" fill="currentColor"/>
</g>
<g transform="translate(86.1190, 3.0666)">
<path transform="scale(0.0040, -0.0040)" d="M0 -46c0 91 116 182 217 182c63 0 109 -35 109 -90c0 -87 -110 -182 -220 -182c-67 0 -106 39 -106 90z" fill="currentColor"/>
</g>
<g transform="translate(86.1840, 4.0666)">
<rect x="-0.0650" y="-0.8138" width="0.1300" height="3.8182" ry="0.0400" fill="currentColor"/>
</g>
<g transform="translate(88.3591, 4.5666)">
<path transform="scale(0.0040, -0.0040)" d="M0 -46c0 91 116 182 217 182c63 0 109 -35 109 -90c0 -87 -110 -182 -220 -182c-67 0 -106 39 -106 90z" fill="currentColor"/>
</g>
<g transform="translate(89.5983, 4.0666)">
<rect x="-0.0650" y="-2.8134" width="0.1300" height="3.1272" ry="0.0400" fill="currentColor"/>
</g>
<g transform="translate(96.6645, 3.5666)">
<path transform="scale(0.0040, -0.0040)" d="M72 -106c40 0 204 110 231 143c7 9 11 19 11 28c0 22 -18 41 -42 41c-40 0 -204 -110 -231 -143c-7 -9 -10 -19 -10 -28c0 -22 17 -41 41 -41zM0 -67c0 71 46 203 258 203c41 0 86 -10 86 -69c0 -71 -46 -203 -258 -203c-41 0 -86 10 -86 69z" fill="currentColor"/>
</g>
<g transform="translate(91.8573, 4.0666)">
<path transform="scale(0.0040, -0.0040)" d="M0 -46c0 91 116 182 217 182c63 0 109 -35 109 -90c0 -87 -110 -182 -220 -182c-67 0 -106 39 -106 90z" fill="currentColor"/>
</g>
<g transform="translate(93.0965, 4.0666)">
<rect x="-0.0650" y="-2.9966" width="0.1300" height="2.8104" ry="0.0400" fill="currentColor"/>
</g>
<g transform="translate(90.8230, 4.0666)">
<path transform="scale(0.0040, -0.0040)" d="M-7 375c8 4 17 7 25 7s16 -3 24 -7l-2 -183l106 20h3c10 0 18 -7 18 -17l7 -570c-8 -4 -17 -7 -25 -7s-16 3 -24 7l2 183l-106 -20h-3c-10 0 -18 7 -18 17zM131 112l-92 -17l-3 -207l92 17z" fill="currentColor"/>
</g>
</svg>
