<svg xmlns="http://www.w3.org/2000/svg" xmlns:xlink="http://www.w3.org/1999/xlink" version="1.2" width="90.69mm" height="46.37mm" viewBox="0.0000 -0.0520 57.3434 29.3174">
<style text="style/css">
<![CDATA[
tspan { white-space: pre; }
]]>
</style>
<g color="rgb(49.8039%, 49.8039%, 49.8039%)">
<line transform="translate(0.0000, 6.3480)" stroke-linejoin="round" stroke-linecap="round" stroke-width="0.1073" stroke="currentColor" x1="0.0537" y1="-0.0000" x2="57.2897" y2="-0.0000"/>
<line transform="translate(0.0000, 5.3480)" stroke-linejoin="round" stroke-linecap="round" stroke-width="0.1073" stroke="currentColor" x1="0.0537" y1="-0.0000" x2="57.2897" y2="-0.0000"/>
<line transform="translate(0.0000, 4.3480)" stroke-linejoin="round" stroke-linecap="round" stroke-width="0.1073" stroke="currentColor" x1="0.0537" y1="-0.0000" x2="57.2897" y2="-0.0000"/>
<line transform="translate(0.0000, 3.3480)" stroke-linejoin="round" stroke-linecap="round" stroke-width="0.1073" stroke="currentColor" x1="0.0537" y1="-0.0000" x2="57.2897" y2="-0.0000"/>
<line transform="translate(0.0000, 2.3480)" stroke-linejoin="round" stroke-linecap="round" stroke-width="0.1073" stroke="currentColor" x1="0.0537" y1="-0.0000" x2="57.2897" y2="-0.0000"/>
</g>
<rect transform="translate(57.1395, 4.3480)" x="0.0000" y="-2.0537" width="0.2039" height="4.1073" ry="0.0000" fill="currentColor"/>
<path transform="translate(8.2614, 1.8480) scale(0.0040, -0.0040)" d="M139 39c-1 33 -21 64 -52 64c-29 0 -42 -33 -42 -66c0 -58 47 -100 91 -138c3 22 4 43 4 65v11zM196 454l-13 -593c0 -14 -10 -27 -24 -27c-22 0 -31 27 -47 41c-60 52 -144 90 -144 169c0 54 35 103 86 103c34 0 68 -13 93 -36l-8 343c9 5 19 8 29 8s19 -3 28 -8z" fill="currentColor"/>
<line transform="translate(9.3434, 19.4473)" stroke-linejoin="round" stroke-linecap="round" stroke-width="0.2000" stroke="currentColor" x1="-0.8000" y1="0" x2="0.8000" y2="0"/>
<ellipse transform="translate(9.3434, 12.5723)" stroke-linejoin="round" stroke-linecap="round" fill="currentColor" stroke="currentColor" stroke-width="0.1000" rx="1.0000" ry="1.0000"/>
<ellipse transform="translate(9.3434, 15.0723)" stroke-linejoin="round" stroke-linecap="round" fill="currentColor" stroke="currentColor" stroke-width="0.1000" rx="1.0000" ry="1.0000"/>
<ellipse transform="translate(9.3434, 17.5723)" stroke-linejoin="round" stroke-linecap="round" fill="currentColor" stroke="currentColor" stroke-width="0.1000" rx="1.0000" ry="1.0000"/>
<ellipse transform="translate(9.3434, 21.3223)" stroke-linejoin="round" stroke-linecap="round" fill="currentColor" stroke="currentColor" stroke-width="0.1000" rx="1.0000" ry="1.0000"/>
<ellipse transform="translate(9.3434, 23.8223)" stroke-linejoin="round" stroke-linecap="round" fill="none" stroke="currentColor" stroke-width="0.1000" rx="1.0000" ry="1.0000"/>
<ellipse transform="translate(9.3434, 26.3223)" stroke-linejoin="round" stroke-linecap="round" fill="none" stroke="currentColor" stroke-width="0.1000" rx="1.0000" ry="1.0000"/>
<path transform="translate(7.8434, 10.0723)" stroke-width="0.1000" stroke-linejoin="round" stroke-linecap="round" stroke="currentColor" fill="currentColor" d="M0 0C0 1.2000 -1.8000 1.2000 -1.8000 -0.0000C-1.3500 -1.3172 -1.1250 -1.9758 -0.9000 -2.6343C-0.6750 -1.9758 -0.4500 -1.3172 0.0000 -0.0000"/>
<text transform="translate(10.8434, 19.4473)" font-family="serif" font-size="2.6668" text-anchor="start" fill="currentColor">
<tspan>C</tspan>
</text>
<path transform="translate(12.6264, 18.4473) scale(0.0038, -0.0038)" d="M217 -311c0 -11 -8 -19 -19 -19s-20 8 -20 19v142l-81 -30v-156c0 -11 -9 -20 -20 -20s-19 9 -19 20v142l-28 -11c-3 -1 -5 -1 -8 -1c-12 0 -22 10 -22 23v57c0 9 6 18 15 21l43 16v157l-28 -10c-3 -1 -5 -1 -8 -1c-12 0 -22 9 -22 22v57c0 9 6 18 15 21l43 16v157
c0 11 8 19 19 19s20 -8 20 -19v-142l81 30v156c0 11 9 20 20 20s19 -9 19 -20v-142l28 11c3 1 5 1 8 1c12 0 22 -10 22 -23v-57c0 -9 -6 -18 -15 -21l-43 -16v-157l28 10c3 1 5 1 8 1c12 0 22 -9 22 -22v-57c0 -9 -6 -18 -15 -21l-43 -16v-157zM97 64v-158l81 30v158z" fill="currentColor"/>
<text transform="translate(5.5555, 28.8223)" font-family="serif" font-size="2.6668" text-anchor="start" fill="currentColor">
<tspan>F</tspan>
</text>
<path transform="translate(7.0351, 27.8223) scale(0.0038, -0.0038)" d="M217 -311c0 -11 -8 -19 -19 -19s-20 8 -20 19v142l-81 -30v-156c0 -11 -9 -20 -20 -20s-19 9 -19 20v142l-28 -11c-3 -1 -5 -1 -8 -1c-12 0 -22 10 -22 23v57c0 9 6 18 15 21l43 16v157l-28 -10c-3 -1 -5 -1 -8 -1c-12 0 -22 9 -22 22v57c0 9 6 18 15 21l43 16v157
c0 11 8 19 19 19s20 -8 20 -19v-142l81 30v156c0 11 9 20 20 20s19 -9 19 -20v-142l28 11c3 1 5 1 8 1c12 0 22 -10 22 -23v-57c0 -9 -6 -18 -15 -21l-43 -16v-157l28 10c3 1 5 1 8 1c12 0 22 -9 22 -22v-57c0 -9 -6 -18 -15 -21l-43 -16v-157zM97 64v-158l81 30v158z" fill="currentColor"/>
<path transform="translate(9.3434, 6.3480) scale(0.0040, -0.0040)" d="M211 111c-49 0 -68 -43 -68 -88c0 -75 57 -134 132 -134c49 0 68 43 68 88c0 75 -57 134 -132 134zM486 0c0 -43 -33 -76 -71 -97c-52 -29 -112 -40 -172 -40s-120 11 -172 40c-38 21 -71 54 -71 97s33 76 71 97c52 29 112 40 172 40s120 -11 172 -40
c38 -21 71 -54 71 -97z" fill="currentColor"/>
<path transform="translate(9.3434, 4.8480) scale(0.0040, -0.0040)" d="M211 111c-49 0 -68 -43 -68 -88c0 -75 57 -134 132 -134c49 0 68 43 68 88c0 75 -57 134 -132 134zM486 0c0 -43 -33 -76 -71 -97c-52 -29 -112 -40 -172 -40s-120 11 -172 40c-38 21 -71 54 -71 97s33 76 71 97c52 29 112 40 172 40s120 -11 172 -40
c38 -21 71 -54 71 -97z" fill="currentColor"/>
<path transform="translate(9.3434, 1.8480) scale(0.0040, -0.0040)" d="M211 111c-49 0 -68 -43 -68 -88c0 -75 57 -134 132 -134c49 0 68 43 68 88c0 75 -57 134 -132 134zM486 0c0 -43 -33 -76 -71 -97c-52 -29 -112 -40 -172 -40s-120 11 -172 40c-38 21 -71 54 -71 97s33 76 71 97c52 29 112 40 172 40s120 -11 172 -40
c38 -21 71 -54 71 -97z" fill="currentColor"/>
<path transform="translate(7.8934, 4.8480) scale(0.0040, -0.0040)" d="M217 -311c0 -11 -8 -19 -19 -19s-20 8 -20 19v142l-81 -30v-156c0 -11 -9 -20 -20 -20s-19 9 -19 20v142l-28 -11c-3 -1 -5 -1 -8 -1c-12 0 -22 10 -22 23v57c0 9 6 18 15 21l43 16v157l-28 -10c-3 -1 -5 -1 -8 -1c-12 0 -22 9 -22 22v57c0 9 6 18 15 21l43 16v157
c0 11 8 19 19 19s20 -8 20 -19v-142l81 30v156c0 11 9 20 20 20s19 -9 19 -20v-142l28 11c3 1 5 1 8 1c12 0 22 -10 22 -23v-57c0 -9 -6 -18 -15 -21l-43 -16v-157l28 10c3 1 5 1 8 1c12 0 22 -9 22 -22v-57c0 -9 -6 -18 -15 -21l-43 -16v-157zM97 64v-158l81 30v158z" fill="currentColor"/>
<path transform="translate(0.8000, 5.3480) scale(0.0040, -0.0040)" d="M378 263c4 0 7 1 11 1c156 0 257 -129 257 -262c0 -76 -34 -154 -108 -210c-22 -17 -46 -29 -72 -37c3 -34 4 -68 4 -102c0 -20 0 -40 -1 -60c-7 -121 -90 -228 -209 -228c-108 0 -196 87 -196 196c0 58 53 104 112 104c54 0 95 -48 95 -104c0 -52 -43 -95 -95 -95
c-10 0 -20 2 -29 6c26 -38 68 -63 116 -63h3c93 2 153 92 159 190c1 19 2 37 2 56c0 30 -2 60 -4 90c-29 -5 -58 -8 -88 -8c-188 0 -333 173 -333 375c0 177 130 307 246 442c-20 62 -38 125 -46 190c-6 52 -7 104 -7 157c0 115 55 223 148 290c7 5 16 4 22 -1
c71 -83 134 -244 134 -357c0 -143 -85 -255 -178 -364c21 -68 40 -137 57 -206zM462 -202c67 24 111 94 111 162c0 89 -65 178 -170 190c24 -115 46 -230 59 -352zM75 26c0 -134 129 -245 263 -245c28 0 55 2 81 6c-14 126 -36 244 -61 363c-79 -8 -124 -61 -124 -119
c0 -43 25 -89 80 -121c5 -5 7 -11 7 -16c0 -12 -10 -23 -22 -23c-3 0 -6 1 -9 2c-81 43 -118 116 -118 186c0 89 58 175 161 198c-14 58 -29 116 -46 173c-106 -122 -212 -244 -212 -404zM244 785c0 -73 20 -132 38 -191c79 97 144 199 144 324c0 53 -4 76 -20 124
c-99 -47 -162 -148 -162 -257z" fill="currentColor"/>
<path transform="translate(5.0000, 4.3480) scale(0.0040, -0.0040)" d="M194 120h120c0 -49 29 -95 75 -95c8 0 12 -7 12 -13s-4 -12 -12 -12c-45 0 -90 13 -135 13s-90 -13 -135 -13c-8 0 -12 6 -12 12s4 13 12 13c46 0 75 46 75 95zM203 301c22 15 45 30 61 51c12 15 19 34 27 51c2 4 5 6 9 6c6 0 14 -6 14 -15v-238h74c10 0 16 -8 16 -16
s-6 -15 -16 -15h-74v-5h-120v5h-163c-24 0 -33 15 -33 24c0 3 1 6 2 7c80 92 134 205 134 327c0 11 8 20 17 17c24 -7 48 -13 73 -13s48 6 72 13c2 1 4 1 6 1c9 0 14 -7 14 -13c0 -2 0 -3 -2 -5l-283 -327h163v122c0 9 2 18 9 23z" fill="currentColor"/>
<path transform="translate(5.0000, 6.4345) scale(0.0040, -0.0040)" d="M194 120h120c0 -49 29 -95 75 -95c8 0 12 -7 12 -13s-4 -12 -12 -12c-45 0 -90 13 -135 13s-90 -13 -135 -13c-8 0 -12 6 -12 12s4 13 12 13c46 0 75 46 75 95zM203 301c22 15 45 30 61 51c12 15 19 34 27 51c2 4 5 6 9 6c6 0 14 -6 14 -15v-238h74c10 0 16 -8 16 -16
s-6 -15 -16 -15h-74v-5h-120v5h-163c-24 0 -33 15 -33 24c0 3 1 6 2 7c80 92 134 205 134 327c0 11 8 20 17 17c24 -7 48 -13 73 -13s48 6 72 13c2 1 4 1 6 1c9 0 14 -7 14 -13c0 -2 0 -3 -2 -5l-283 -327h163v122c0 9 2 18 9 23z" fill="currentColor"/>
</svg>
