<svg xmlns="http://www.w3.org/2000/svg" xmlns:xlink="http://www.w3.org/1999/xlink" version="1.2" width="129.21mm" height="17.09mm" viewBox="0.0000 0.0187 81.6972 10.8088">
<style text="style/css">
<![CDATA[
tspan { white-space: pre; }
]]>
</style>
<g color="rgb(49.8039%, 49.8039%, 49.8039%)">
<line transform="translate(0.0000, 9.2775)" stroke-linejoin="round" stroke-linecap="round" stroke-width="0.1073" stroke="currentColor" x1="0.0537" y1="-0.0000" x2="81.6436" y2="-0.0000"/>
<line transform="translate(0.0000, 8.2775)" stroke-linejoin="round" stroke-linecap="round" stroke-width="0.1073" stroke="currentColor" x1="0.0537" y1="-0.0000" x2="81.6436" y2="-0.0000"/>
<line transform="translate(0.0000, 7.2775)" stroke-linejoin="round" stroke-linecap="round" stroke-width="0.1073" stroke="currentColor" x1="0.0537" y1="-0.0000" x2="81.6436" y2="-0.0000"/>
<line transform="translate(0.0000, 6.2775)" stroke-linejoin="round" stroke-linecap="round" stroke-width="0.1073" stroke="currentColor" x1="0.0537" y1="-0.0000" x2="81.6436" y2="-0.0000"/>
<line transform="translate(0.0000, 5.2775)" stroke-linejoin="round" stroke-linecap="round" stroke-width="0.1073" stroke="currentColor" x1="0.0537" y1="-0.0000" x2="81.6436" y2="-0.0000"/>
</g>
<rect transform="translate(0.0000, 10.2775)" x="8.2677" y="-0.1037" width="1.9542" height="0.2073" ry="0.1037" fill="currentColor"/>
<rect transform="translate(44.5934, 7.2775)" x="0.0000" y="-2.0537" width="0.2039" height="4.1073" ry="0.0000" fill="currentColor"/>
<rect transform="translate(81.4934, 7.2775)" x="0.0000" y="-2.0537" width="0.2039" height="4.1073" ry="0.0000" fill="currentColor"/>
<rect transform="translate(58.9303, 7.2775)" x="-0.0697" y="-1.5000" width="0.1395" height="3.3206" ry="0.0444" fill="currentColor"/>
<rect transform="translate(70.9303, 7.2775)" x="-0.0697" y="-1.0000" width="0.1395" height="3.3206" ry="0.0444" fill="currentColor"/>
<path transform="translate(69.6972, 9.7775) scale(0.0040, -0.0040)" d="M215 137c57 0 111 -29 111 -92c0 -71 -54 -120 -101 -148c-35 -21 -74 -34 -114 -34c-57 0 -111 29 -111 92c0 71 54 120 101 148c35 21 74 34 114 34z" fill="currentColor"/>
<rect transform="translate(46.9303, 7.2775)" x="-0.0697" y="-2.0000" width="0.1395" height="3.3206" ry="0.0444" fill="currentColor"/>
<path transform="translate(20.5934, 9.7775) scale(0.0040, -0.0040)" d="M215 137c57 0 111 -29 111 -92c0 -71 -54 -120 -101 -148c-35 -21 -74 -34 -114 -34c-57 0 -111 29 -111 92c0 71 54 120 101 148c35 21 74 34 114 34z" fill="currentColor"/>
<rect transform="translate(21.8264, 7.2775)" x="-0.0697" y="-1.0000" width="0.1395" height="3.3206" ry="0.0444" fill="currentColor"/>
<path transform="translate(32.5934, 9.2775) scale(0.0040, -0.0040)" d="M215 137c57 0 111 -29 111 -92c0 -71 -54 -120 -101 -148c-35 -21 -74 -34 -114 -34c-57 0 -111 29 -111 92c0 71 54 120 101 148c35 21 74 34 114 34z" fill="currentColor"/>
<rect transform="translate(33.8264, 7.2775)" x="-0.0697" y="-1.5000" width="0.1395" height="3.3206" ry="0.0444" fill="currentColor"/>
<path transform="translate(45.6972, 8.7775) scale(0.0040, -0.0040)" d="M215 137c57 0 111 -29 111 -92c0 -71 -54 -120 -101 -148c-35 -21 -74 -34 -114 -34c-57 0 -111 29 -111 92c0 71 54 120 101 148c35 21 74 34 114 34z" fill="currentColor"/>
<g transform="scale(1.0000, 1.0000)">
<path transform="translate(46.1972, 2.7238) scale(0.0040, -0.0040)" d="M215 137c57 0 111 -29 111 -92c0 -71 -54 -120 -101 -148c-35 -21 -74 -34 -114 -34c-57 0 -111 29 -111 92c0 71 54 120 101 148c35 21 74 34 114 34z" fill="currentColor"/>
<rect transform="translate(47.4303, 2.7238)" x="-0.0697" y="-2.6794" width="0.1395" height="2.5000" ry="0.0444" fill="currentColor"/>
</g>
<g transform="scale(1.0000, 1.0000)">
<text transform="translate(48.1000, 2.7238)" font-family="serif" font-size="2.2000" text-anchor="start" fill="currentColor">
<tspan>=</tspan>
</text>
</g>
<g transform="scale(1.0000, 1.0000)">
</g>
<g transform="scale(1.0000, 1.0000)">
<path transform="translate(49.9520, 2.7238) scale(0.0040, -0.0040)" d="M215 137c57 0 111 -29 111 -92c0 -71 -54 -120 -101 -148c-35 -21 -74 -34 -114 -34c-57 0 -111 29 -111 92c0 71 54 120 101 148c35 21 74 34 114 34z" fill="currentColor"/>
<path transform="translate(52.4595, 2.7238) scale(0.0040, -0.0040)" d="M0 0c0 31 25 56 56 56s55 -25 55 -56s-24 -56 -55 -56s-56 25 -56 56z" fill="currentColor"/>
<rect transform="translate(51.1850, 2.7238)" x="-0.0697" y="-2.6794" width="0.1395" height="2.5000" ry="0.0444" fill="currentColor"/>
<path transform="translate(51.2548, 0.0889) scale(0.0040, -0.0040)" d="M0 0c0 -197 207 -335 207 -532c0 -71 -15 -141 -41 -207c-5 -8 -13 -12 -21 -12c-14 0 -27 11 -24 28c26 60 42 125 42 191c0 103 -93 207 -163 282h-18v250h18z" fill="currentColor"/>
</g>
<path transform="translate(5.1328, 7.2775) scale(0.0040, -0.0040)" d="M151 475c-29 0 -60 -8 -60 -33c0 -22 35 -25 35 -47c0 -31 -26 -57 -57 -57s-57 26 -57 57c0 65 68 105 139 105c92 0 170 -33 170 -114c0 -42 -5 -81 -42 -98c-10 -5 -15 -14 -15 -23s5 -18 15 -23c41 -19 57 -56 57 -102c0 -92 -80 -140 -180 -140
c-79 0 -156 43 -156 115c0 36 29 65 65 65s65 -29 65 -65c0 -25 -40 -29 -40 -54c0 -28 34 -36 66 -36c48 0 61 59 61 115v22c0 50 -3 88 -49 88h-78c-10 0 -15 7 -15 15s5 15 15 15h78c46 0 49 40 49 92v14c0 53 -18 89 -66 89z" fill="currentColor"/>
<path transform="translate(5.0000, 9.3261) scale(0.0040, -0.0040)" d="M203 301c22 15 45 30 61 51c12 15 19 34 27 51c2 4 5 6 9 6c6 0 14 -6 14 -15v-238h74c10 0 16 -8 16 -16s-6 -15 -16 -15h-74v-5c0 -49 29 -95 75 -95c8 0 12 -7 12 -13s-4 -12 -12 -12c-45 0 -90 13 -135 13s-90 -13 -135 -13c-8 0 -12 6 -12 12s4 13 12 13
c46 0 75 46 75 95v5h-163c-24 0 -33 15 -33 24c0 3 1 6 2 7c80 92 134 205 134 327c0 10 6 17 14 17h3c24 -7 48 -13 73 -13s48 6 72 13c2 1 4 1 6 1c9 0 14 -7 14 -13c0 -2 0 -3 -2 -5l-283 -327h163v122c0 9 2 18 9 23z" fill="currentColor"/>
<path transform="translate(57.6972, 9.2775) scale(0.0040, -0.0040)" d="M215 137c57 0 111 -29 111 -92c0 -71 -54 -120 -101 -148c-35 -21 -74 -34 -114 -34c-57 0 -111 29 -111 92c0 71 54 120 101 148c35 21 74 34 114 34z" fill="currentColor"/>
<rect transform="translate(9.8264, 7.2775)" x="-0.0697" y="-0.5000" width="0.1395" height="3.3206" ry="0.0444" fill="currentColor"/>
<path transform="translate(0.8000, 8.2775) scale(0.0040, -0.0040)" d="M378 263c4 0 7 1 11 1c156 0 257 -129 257 -262c0 -76 -34 -154 -108 -210c-22 -17 -46 -29 -72 -37c3 -34 4 -68 4 -102c0 -20 0 -40 -1 -60c-7 -121 -90 -228 -209 -228c-108 0 -196 87 -196 196c0 58 53 104 112 104c54 0 95 -48 95 -104c0 -52 -43 -95 -95 -95
c-10 0 -20 2 -29 6c26 -38 68 -63 116 -63c95 0 156 91 162 190c1 19 2 37 2 56c0 30 -2 60 -4 90c-29 -5 -58 -8 -88 -8c-188 0 -333 173 -333 375c0 177 130 307 246 442c-20 62 -38 125 -46 190c-6 52 -7 104 -7 157c0 115 55 223 148 290c3 2 7 3 11 3s8 -1 11 -4
c71 -83 134 -244 134 -357c0 -143 -85 -255 -178 -364c21 -68 40 -137 57 -206zM462 -202c67 24 111 94 111 162c0 89 -65 178 -170 190c24 -115 46 -230 59 -352zM75 26c0 -134 129 -245 263 -245c28 0 55 2 81 6c-14 126 -36 244 -61 363c-79 -8 -124 -61 -124 -119
c0 -43 25 -89 80 -121c5 -5 7 -11 7 -16c0 -12 -10 -23 -22 -23c-3 0 -6 1 -9 2c-81 43 -118 116 -118 186c0 89 58 175 161 198c-14 58 -29 116 -46 173c-106 -122 -212 -244 -212 -404zM406 1042c-99 -47 -162 -148 -162 -257c0 -73 20 -132 38 -191
c79 97 144 199 144 324c0 53 -4 76 -20 124z" fill="currentColor"/>
<path transform="translate(8.5934, 10.2775) scale(0.0040, -0.0040)" d="M215 137c57 0 111 -29 111 -92c0 -71 -54 -120 -101 -148c-35 -21 -74 -34 -114 -34c-57 0 -111 29 -111 92c0 71 54 120 101 148c35 21 74 34 114 34z" fill="currentColor"/>
</svg>
