<svg xmlns="http://www.w3.org/2000/svg" xmlns:xlink="http://www.w3.org/1999/xlink" version="1.2" width="90.10mm" height="16.84mm" viewBox="8.5358 -0.0000 51.2696 9.5837">
<style type="text/css">
<![CDATA[
tspan { white-space: pre; }
]]>
</style>
<g transform="translate(0.0000, 8.1439)">
<rect x="23.2853" y="-0.1000" width="1.9563" height="0.2000" ry="0.1000" fill="currentColor"/>
</g>
<g transform="translate(0.0000, 8.1439)">
<rect x="16.7948" y="-0.1000" width="1.9563" height="0.2000" ry="0.1000" fill="currentColor"/>
</g>
<g transform="translate(8.5358, 7.1439)">
<line stroke-linejoin="round" stroke-linecap="round" stroke-width="0.1000" stroke="currentColor" x1="0.0500" y1="0" x2="51.2196" y2="0"/>
</g>
<g transform="translate(8.5358, 6.1439)">
<line stroke-linejoin="round" stroke-linecap="round" stroke-width="0.1000" stroke="currentColor" x1="0.0500" y1="0" x2="51.2196" y2="0"/>
</g>
<g transform="translate(8.5358, 5.1439)">
<line stroke-linejoin="round" stroke-linecap="round" stroke-width="0.1000" stroke="currentColor" x1="0.0500" y1="0" x2="51.2196" y2="0"/>
</g>
<g transform="translate(8.5358, 4.1439)">
<line stroke-linejoin="round" stroke-linecap="round" stroke-width="0.1000" stroke="currentColor" x1="0.0500" y1="0" x2="51.2196" y2="0"/>
</g>
<g transform="translate(8.5358, 3.1439)">
<line stroke-linejoin="round" stroke-linecap="round" stroke-width="0.1000" stroke="currentColor" x1="0.0500" y1="0" x2="51.2196" y2="0"/>
</g>
<g transform="translate(59.6155, 5.1439)">
<rect x="0.0000" y="-2.0000" width="0.1900" height="4.0000" ry="0.0000" fill="currentColor"/>
</g>
<g transform="translate(34.8685, 3.9539)">
<polygon stroke-linejoin="round" stroke-linecap="round" stroke-width="0.0800" fill="currentColor" stroke="currentColor" points="16.7797 -0.8200 16.7797 -0.4200 0.0400 0.2000 0.0400 -0.2000"/>
</g>
<g transform="translate(49.0540, 4.2410)">
<polygon stroke-linejoin="round" stroke-linecap="round" stroke-width="0.0800" fill="currentColor" stroke="currentColor" points="2.5942 -0.2971 2.5942 0.1029 0.0400 0.2000 0.0400 -0.2000"/>
</g>
<g transform="translate(39.4571, 4.5947)">
<polygon stroke-linejoin="round" stroke-linecap="round" stroke-width="0.0800" fill="currentColor" stroke="currentColor" points="4.5136 -0.3679 4.5136 0.0321 0.0400 0.2000 0.0400 -0.2000"/>
</g>
<g transform="translate(17.1208, 8.1439)">
<path transform="scale(0.0040, -0.0040)" d="M0 -46c0 91 116 182 217 182c63 0 109 -35 109 -90c0 -87 -110 -182 -220 -182c-67 0 -106 39 -106 90z" fill="currentColor"/>
</g>
<g transform="translate(9.3358, 6.1439)">
<path transform="scale(0.0040, -0.0040)" d="M266 -635h-6c-108 0 -195 88 -195 197c0 58 53 103 112 103c54 0 95 -47 95 -103c0 -52 -43 -95 -95 -95c-11 0 -21 2 -31 6c26 -39 68 -65 117 -65h4zM401 151c19 -89 48 -242 60 -354c76 27 112 94 112 163c0 89 -60 179 -172 191zM74 28c0 -112 98 -247 278 -247
c21 0 44 2 68 6c-7 64 -29 203 -63 364c-79 -8 -124 -61 -124 -119c0 -44 25 -91 81 -123c5 -5 7 -10 7 -15c0 -11 -10 -22 -22 -22c-15 0 -126 62 -126 187c0 88 58 174 160 197c-14 58 -29 117 -46 175c-107 -121 -213 -243 -213 -403zM357 1194c28 0 143 -206 143 -361
c0 -143 -86 -255 -180 -364c21 -68 39 -138 56 -207c5 0 10 1 14 1c155 0 255 -129 255 -262c0 -113 -74 -212 -180 -245c3 -35 5 -70 5 -105c0 -19 -1 -39 -2 -58c-7 -119 -88 -225 -202 -228l1 43c93 2 153 92 159 191c1 18 2 37 2 55c0 31 -1 61 -4 92
c-28 -5 -55 -8 -80 -8c-239 0 -342 217 -342 374c0 177 131 306 248 441c-29 96 -52 170 -52 346c0 189 144 295 159 295zM247 782c0 -55 12 -115 35 -190c83 100 147 202 147 326c0 40 -6 82 -21 127c-49 -24 -161 -97 -161 -263z" fill="currentColor"/>
</g>
<g transform="translate(13.4208, 5.1439)">
<path transform="scale(0.0040, -0.0040)" d="M433 -89c0 -22 -50 -174 -183 -174c-59 0 -250 19 -250 263c0 62 18 262 250 262c116 0 176 -106 176 -163c0 -40 -30 -72 -67 -72c-31 0 -75 25 -75 75c0 38 27 77 72 77c4 0 9 0 14 -1c-28 37 -72 59 -120 59c-106 0 -113 -73 -113 -186v-51v-51
c0 -113 7 -187 113 -187c80 0 139 70 158 151c2 7 7 10 12 10c6 0 13 -4 13 -12z" fill="currentColor"/>
</g>
<g transform="translate(18.3600, 5.1439)">
<rect x="-0.0650" y="-0.5000" width="0.1300" height="3.3138" ry="0.0400" fill="currentColor"/>
</g>
<g transform="translate(50.3840, 5.1439)">
<path stroke-width="0.0800" stroke-linejoin="round" stroke-linecap="round" stroke="currentColor" fill="currentColor" d="M0.8521 2.5000C1.3589 3.0905 2.4495 3.0905 2.9563 2.5000L2.9563 2.5000C2.4495 2.9705 1.3589 2.9705 0.8521 2.5000z"/>
</g>
<g transform="translate(23.6113, 8.1439)">
<path transform="scale(0.0040, -0.0040)" d="M0 -46c0 91 116 182 217 182c63 0 109 -35 109 -90c0 -87 -110 -182 -220 -182c-67 0 -106 39 -106 90z" fill="currentColor"/>
</g>
<g transform="translate(24.8505, 5.1439)">
<rect x="-0.0650" y="-0.8129" width="0.1300" height="3.6267" ry="0.0400" fill="currentColor"/>
</g>
<g transform="translate(27.7019, 7.6439)">
<path transform="scale(0.0040, -0.0040)" d="M0 -46c0 91 116 182 217 182c63 0 109 -35 109 -90c0 -87 -110 -182 -220 -182c-67 0 -106 39 -106 90z" fill="currentColor"/>
</g>
<g transform="translate(29.4561, 7.6439)">
<path transform="scale(0.0040, -0.0040)" d="M0 0c0 31 25 56 56 56s56 -25 56 -56s-25 -56 -56 -56s-56 25 -56 56z" fill="currentColor"/>
</g>
<g transform="translate(28.9411, 5.1439)">
<rect x="-0.0650" y="-0.9971" width="0.1300" height="3.3109" ry="0.0400" fill="currentColor"/>
</g>
<g transform="translate(44.1756, 5.1439)">
<path stroke-width="0.0800" stroke-linejoin="round" stroke-linecap="round" stroke="currentColor" fill="currentColor" d="M0.8521 2.7500C1.5474 3.4761 3.4610 3.4761 4.1563 2.7500L4.1563 2.7500C3.4610 3.3561 1.5474 3.3561 0.8521 2.7500z"/>
</g>
<g transform="translate(33.6943, 7.6439)">
<path transform="scale(0.0040, -0.0040)" d="M0 -46c0 91 116 182 217 182c63 0 109 -35 109 -90c0 -87 -110 -182 -220 -182c-67 0 -106 39 -106 90z" fill="currentColor"/>
</g>
<g transform="translate(34.9335, 5.1439)">
<rect x="-0.0650" y="-1.1924" width="0.1300" height="3.5062" ry="0.0400" fill="currentColor"/>
</g>
<g transform="translate(38.2829, 7.6439)">
<path transform="scale(0.0040, -0.0040)" d="M0 -46c0 91 116 182 217 182c63 0 109 -35 109 -90c0 -87 -110 -182 -220 -182c-67 0 -106 39 -106 90z" fill="currentColor"/>
</g>
<g transform="translate(39.5221, 5.1439)">
<rect x="-0.0650" y="-1.3615" width="0.1300" height="3.6753" ry="0.0400" fill="currentColor"/>
</g>
<g transform="translate(46.0890, 2.7342)">
<text font-family="serif" font-style="italic" font-size="1.7459" text-anchor="start" fill="currentColor">
<tspan>5:3</tspan>
</text>
</g>
<g transform="translate(41.6714, 7.6439)">
<path transform="scale(0.0040, -0.0040)" d="M0 -46c0 91 116 182 217 182c63 0 109 -35 109 -90c0 -87 -110 -182 -220 -182c-67 0 -106 39 -106 90z" fill="currentColor"/>
</g>
<g transform="translate(42.9106, 5.1439)">
<rect x="-0.0650" y="-1.4864" width="0.1300" height="3.8002" ry="0.0400" fill="currentColor"/>
</g>
<g transform="translate(42.8456, 2.3151)">
<line stroke-linejoin="round" stroke-linecap="round" stroke-width="0.1600" stroke="currentColor" x1="9.0425" y1="-0.3284" x2="9.0425" y2="0.3716"/>
</g>
<g transform="translate(42.8456, 2.3151)">
<line stroke-linejoin="round" stroke-linecap="round" stroke-width="0.1600" stroke="currentColor" x1="-0.1999" y1="0.0073" x2="-0.1999" y2="0.7073"/>
</g>
<g transform="translate(42.8456, 2.3151)">
<line stroke-linejoin="round" stroke-linecap="round" stroke-width="0.1600" stroke="currentColor" x1="9.0425" y1="-0.3284" x2="6.1981" y2="-0.2251"/>
</g>
<g transform="translate(42.8456, 2.3151)">
<line stroke-linejoin="round" stroke-linecap="round" stroke-width="0.1600" stroke="currentColor" x1="-0.1999" y1="0.0073" x2="2.8444" y2="-0.1033"/>
</g>
<g transform="translate(44.1756, 7.1439)">
<path transform="scale(0.0040, -0.0040)" d="M0 -46c0 91 116 182 217 182c63 0 109 -35 109 -90c0 -87 -110 -182 -220 -182c-67 0 -106 39 -106 90z" fill="currentColor"/>
</g>
<g transform="translate(45.4148, 5.1439)">
<rect x="-0.0650" y="-1.5788" width="0.1300" height="3.3926" ry="0.0400" fill="currentColor"/>
</g>
<g transform="translate(38.2829, 5.1439)">
<path stroke-width="0.0800" stroke-linejoin="round" stroke-linecap="round" stroke="currentColor" fill="currentColor" d="M1.5042 3.0000C1.9315 3.5198 2.7613 3.5198 3.1886 3.0000L3.1886 3.0000C2.7613 3.3998 1.9315 3.3998 1.5042 3.0000z"/>
</g>
<g transform="translate(47.8798, 7.1439)">
<path transform="scale(0.0040, -0.0040)" d="M0 -46c0 91 116 182 217 182c63 0 109 -35 109 -90c0 -87 -110 -182 -220 -182c-67 0 -106 39 -106 90z" fill="currentColor"/>
</g>
<g transform="translate(49.1190, 5.1439)">
<rect x="-0.0650" y="-1.7153" width="0.1300" height="3.5291" ry="0.0400" fill="currentColor"/>
</g>
<g transform="translate(50.3840, 6.6439)">
<path transform="scale(0.0040, -0.0040)" d="M0 -46c0 91 116 182 217 182c63 0 109 -35 109 -90c0 -87 -110 -182 -220 -182c-67 0 -106 39 -106 90z" fill="currentColor"/>
</g>
<g transform="translate(51.6232, 5.1439)">
<rect x="-0.0650" y="-1.8076" width="0.1300" height="3.1214" ry="0.0400" fill="currentColor"/>
</g>
<g transform="translate(33.6943, 5.1439)">
<path stroke-width="0.0800" stroke-linejoin="round" stroke-linecap="round" stroke="currentColor" fill="currentColor" d="M1.5042 3.0000C2.1392 3.6874 3.7535 3.6874 4.3886 3.0000L4.3886 3.0000C3.7535 3.5674 2.1392 3.5674 1.5042 3.0000z"/>
</g>
<g transform="translate(52.8882, 6.6439)">
<path transform="scale(0.0040, -0.0040)" d="M0 -46c0 91 116 182 217 182c63 0 109 -35 109 -90c0 -87 -110 -182 -220 -182c-67 0 -106 39 -106 90z" fill="currentColor"/>
</g>
<g transform="translate(54.1274, 5.1439)">
<rect x="-0.0650" y="-2.0000" width="0.1300" height="3.3138" ry="0.0400" fill="currentColor"/>
</g>
<g transform="translate(17.1208, 5.1439)">
<path stroke-width="0.0800" stroke-linejoin="round" stroke-linecap="round" stroke="currentColor" fill="currentColor" d="M0.8521 3.7500C1.8432 4.6164 5.9515 4.6164 6.9426 3.7500L6.9426 3.7500C5.9515 4.4964 1.8432 4.4964 0.8521 3.7500z"/>
</g>
<g transform="translate(27.7019, 5.1439)">
<path stroke-width="0.0800" stroke-linejoin="round" stroke-linecap="round" stroke="currentColor" fill="currentColor" d="M1.5042 3.0000C2.3219 3.7930 4.9747 3.7930 5.7925 3.0000L5.7925 3.0000C4.9747 3.6730 2.3219 3.6730 1.5042 3.0000z"/>
</g>
<g transform="translate(42.8345, 1.1799)">
<text font-family="serif" font-style="italic" font-size="1.7459" text-anchor="start" fill="currentColor">
<tspan>3</tspan>
</text>
</g>
<g transform="translate(24.7855, 4.3339)">
<polygon stroke-linejoin="round" stroke-linecap="round" stroke-width="0.0800" fill="currentColor" stroke="currentColor" points="4.1805 -0.3900 4.1805 0.0100 0.0400 0.2000 0.0400 -0.2000"/>
</g>
<g transform="translate(24.7855, 5.1439)">
<polygon stroke-linejoin="round" stroke-linecap="round" stroke-width="0.0800" fill="currentColor" stroke="currentColor" points="1.1250 -0.2524 1.1250 0.1476 0.0400 0.2000 0.0400 -0.2000"/>
</g>
</svg>
