<svg xmlns="http://www.w3.org/2000/svg" xmlns:xlink="http://www.w3.org/1999/xlink" version="1.2" width="175.00mm" height="9.46mm" viewBox="8.5358 -0.0000 99.5846 5.3814">
<style type="text/css">
<![CDATA[
tspan { white-space: pre; }
]]>
</style>
<g transform="translate(8.5358, 3.3333)">
<line stroke-linejoin="round" stroke-linecap="round" stroke-width="0.1000" stroke="currentColor" x1="0.0500" y1="0" x2="99.5346" y2="0"/>
</g>
<g transform="translate(107.9305, 3.3333)">
<rect x="0.0000" y="-1.0500" width="0.1900" height="2.1000" ry="0.0000" fill="currentColor"/>
</g>
<g transform="translate(84.1560, 3.3333)">
<rect x="0.0000" y="-1.0500" width="0.1900" height="2.1000" ry="0.0000" fill="currentColor"/>
</g>
<g transform="translate(44.1828, 3.3333)">
<rect x="0.0000" y="-1.0500" width="0.1900" height="2.1000" ry="0.0000" fill="currentColor"/>
</g>
<g transform="translate(27.1420, 3.3333)">
<rect x="0.0000" y="-1.0500" width="0.1900" height="2.1000" ry="0.0000" fill="currentColor"/>
</g>
<g transform="translate(49.5031, 3.3333)">
<path transform="scale(0.0040, -0.0040)" d="M314 65c0 23 -19 41 -42 41c-39 0 -204 -110 -231 -143c-7 -8 -10 -18 -10 -28c0 -23 19 -41 42 -41c39 0 203 110 230 143c7 8 11 18 11 28zM262 136c41 0 82 -14 82 -71c0 -26 -16 -112 -74 -151c-25 -17 -87 -50 -187 -50c-41 0 -83 14 -83 71c0 26 16 112 74 151
c25 17 88 50 188 50z" fill="currentColor"/>
</g>
<g transform="translate(13.1406, 3.3333)">
<path transform="scale(0.0040, -0.0040)" d="M314 65c0 23 -19 41 -42 41c-39 0 -204 -110 -231 -143c-7 -8 -10 -18 -10 -28c0 -23 19 -41 42 -41c39 0 203 110 230 143c7 8 11 18 11 28zM262 136c41 0 82 -14 82 -71c0 -26 -16 -112 -74 -151c-25 -17 -87 -50 -187 -50c-41 0 -83 14 -83 71c0 26 16 112 74 151
c25 17 88 50 188 50z" fill="currentColor"/>
</g>
<g transform="translate(9.7065, 3.3333)">
<path transform="scale(0.0040, -0.0040)" d="M0 250l117 250c6 12 30 -13 58 -13c15 0 29 7 42 13c8 4 16 -5 16 -16v-367c0 -48 28 -94 73 -94c8 0 12 -5 12 -11s-4 -12 -12 -12c-44 0 -87 13 -131 13s-87 -13 -131 -13c-8 0 -12 6 -12 12s4 11 12 11c45 0 73 46 73 94v245c0 12 -9 19 -17 19c-4 0 -8 -3 -10 -7
l-64 -136c-3 -6 -7 -9 -12 -9c-8 0 -16 6 -16 14c0 2 1 5 2 7z" fill="currentColor"/>
</g>
<g transform="translate(9.5358, 5.3494)">
<path transform="scale(0.0040, -0.0040)" d="M196 117h117c0 -48 27 -94 72 -94c8 0 12 -5 12 -11s-4 -12 -12 -12c-44 0 -87 13 -131 13s-87 -13 -131 -13c-8 0 -12 6 -12 12s4 11 12 11c45 0 73 46 73 94zM-2 148c0 12 140 143 140 336c0 10 7 19 16 16c23 -7 47 -13 71 -13s48 6 71 13c14 4 23 -9 17 -16
l-284 -330h167v131c0 34 34 27 68 72c22 30 23 56 36 56c6 0 13 -5 13 -14v-245h72c10 0 15 -7 15 -14s-5 -15 -15 -15h-72v-8h-117v8h-167c-23 0 -31 14 -31 23z" fill="currentColor"/>
</g>
<g transform="translate(14.4529, 3.3333)">
<rect x="-0.0650" y="-3.3333" width="0.1300" height="3.0743" ry="0.0400" fill="currentColor"/>
</g>
<g transform="translate(33.6232, 3.3333)">
<path transform="scale(0.0040, -0.0040)" d="M314 65c0 23 -19 41 -42 41c-39 0 -204 -110 -231 -143c-7 -8 -10 -18 -10 -28c0 -23 19 -41 42 -41c39 0 203 110 230 143c7 8 11 18 11 28zM262 136c41 0 82 -14 82 -71c0 -26 -16 -112 -74 -151c-25 -17 -87 -50 -187 -50c-41 0 -83 14 -83 71c0 26 16 112 74 151
c25 17 88 50 188 50z" fill="currentColor"/>
</g>
<g transform="translate(28.7308, 3.3333)">
<path transform="scale(0.0040, -0.0040)" d="M263 265c0 -33 70 -23 70 -125c0 -92 -79 -140 -179 -140c-79 0 -154 42 -154 113c0 36 30 66 66 66s65 -30 65 -66c0 -25 -40 -28 -40 -53c0 -27 32 -37 63 -37c49 0 63 61 63 117v16c0 54 -2 94 -50 94h-80c-10 0 -14 8 -14 15s4 14 14 14h80c49 0 50 43 50 99v8
c0 54 -18 91 -67 91c-29 0 -59 -8 -59 -33c0 -22 36 -25 36 -47c0 -32 -26 -58 -58 -58s-57 26 -57 58c0 65 67 103 138 103c91 0 169 -33 169 -114c0 -122 -56 -80 -56 -121z" fill="currentColor"/>
</g>
<g transform="translate(28.0820, 5.3814)">
<g>
<path transform="scale(0.0040, -0.0040)" d="M0 250l117 250c6 12 30 -13 58 -13c15 0 29 7 42 13c8 4 16 -5 16 -16v-367c0 -48 28 -94 73 -94c8 0 12 -5 12 -11s-4 -12 -12 -12c-44 0 -87 13 -131 13s-87 -13 -131 -13c-8 0 -12 6 -12 12s4 11 12 11c45 0 73 46 73 94v245c0 12 -9 19 -17 19c-4 0 -8 -3 -10 -7
l-64 -136c-3 -6 -7 -9 -12 -9c-8 0 -16 6 -16 14c0 2 1 5 2 7z" fill="currentColor"/>

<path transform="translate(1.2633, 0.0000) scale(0.0040, -0.0040)" d="M170 256c-51 0 -53 -44 -53 -102v-14v-15c0 -58 2 -102 53 -102c57 0 61 51 61 117s-4 116 -61 116zM117 266c17 7 34 13 53 13c101 0 170 -44 170 -139s-69 -140 -170 -140c-112 0 -170 124 -170 250c0 128 72 250 190 250c71 0 138 -39 138 -103c0 -36 -29 -66 -65 -66
s-66 30 -66 66c0 24 39 25 39 49c0 20 -23 31 -46 31c-66 0 -75 -65 -75 -139c0 -24 2 -48 2 -72z" fill="currentColor"/>
</g>
</g>
<g transform="translate(34.9356, 3.3333)">
<rect x="-0.0650" y="-3.3333" width="0.1300" height="3.0743" ry="0.0400" fill="currentColor"/>
</g>
<g transform="translate(45.1911, 3.3333)">
<path transform="scale(0.0040, -0.0040)" d="M163 292c-93 0 -102 -51 -119 -51c-8 0 -15 6 -15 15v228c0 10 8 18 17 16c46 -8 91 -13 137 -13s92 5 138 13c15 2 23 -10 17 -16c-68 -68 -166 -93 -263 -93c-9 0 -17 -8 -17 -17v-96c28 28 66 43 105 43c116 0 186 -51 186 -161c0 -94 -87 -160 -186 -160
c-82 0 -163 39 -163 113c0 36 30 66 66 66s65 -30 65 -66c0 -25 -40 -28 -40 -53c0 -30 37 -37 72 -37c57 0 70 71 70 137c0 63 -15 132 -70 132z" fill="currentColor"/>
</g>
<g transform="translate(45.1228, 5.3334)">
<path transform="scale(0.0040, -0.0040)" d="M259 288c27 29 49 62 49 102c0 55 -57 87 -117 87c-47 0 -75 -36 -75 -71c0 -20 10 -40 30 -52zM289 271c33 -19 83 -60 83 -127c0 -73 -66 -144 -189 -144c-94 0 -183 54 -183 140c0 50 39 85 76 120c-41 28 -61 67 -61 106c0 68 61 134 176 134c81 0 161 -38 161 -110
c0 -47 -30 -85 -63 -119zM106 242c-33 -29 -62 -59 -62 -102c0 -69 66 -117 139 -117c54 0 86 42 86 83c0 24 -10 48 -35 62z" fill="currentColor"/>
</g>
<g transform="translate(50.8155, 3.3333)">
<rect x="-0.0650" y="-3.3333" width="0.1300" height="3.0743" ry="0.0400" fill="currentColor"/>
</g>
<g transform="translate(89.3398, 3.3333)">
<path transform="scale(0.0040, -0.0040)" d="M314 65c0 23 -19 41 -42 41c-39 0 -204 -110 -231 -143c-7 -8 -10 -18 -10 -28c0 -23 19 -41 42 -41c39 0 203 110 230 143c7 8 11 18 11 28zM262 136c41 0 82 -14 82 -71c0 -26 -16 -112 -74 -151c-25 -17 -87 -50 -187 -50c-41 0 -83 14 -83 71c0 26 16 112 74 151
c25 17 88 50 188 50z" fill="currentColor"/>
</g>
<g transform="translate(85.1302, 3.3333)">
<path transform="scale(0.0040, -0.0040)" d="M0 250l117 250c6 12 30 -13 58 -13c15 0 29 7 42 13c8 4 16 -5 16 -16v-367c0 -48 28 -94 73 -94c8 0 12 -5 12 -11s-4 -12 -12 -12c-44 0 -87 13 -131 13s-87 -13 -131 -13c-8 0 -12 6 -12 12s4 11 12 11c45 0 73 46 73 94v245c0 12 -9 19 -17 19c-4 0 -8 -3 -10 -7
l-64 -136c-3 -6 -7 -9 -12 -9c-8 0 -16 6 -16 14c0 2 1 5 2 7z" fill="currentColor"/>
</g>
<g transform="translate(85.0960, 5.3334)">
<path transform="scale(0.0040, -0.0040)" d="M263 265c0 -33 70 -23 70 -125c0 -92 -79 -140 -179 -140c-79 0 -154 42 -154 113c0 36 30 66 66 66s65 -30 65 -66c0 -25 -40 -28 -40 -53c0 -27 32 -37 63 -37c49 0 63 61 63 117v16c0 54 -2 94 -50 94h-80c-10 0 -14 8 -14 15s4 14 14 14h80c49 0 50 43 50 99v8
c0 54 -18 91 -67 91c-29 0 -59 -8 -59 -33c0 -22 36 -25 36 -47c0 -32 -26 -58 -58 -58s-57 26 -57 58c0 65 67 103 138 103c91 0 169 -33 169 -114c0 -122 -56 -80 -56 -121z" fill="currentColor"/>
</g>
<g transform="translate(90.6521, 3.3333)">
<rect x="-0.0650" y="-3.3333" width="0.1300" height="3.0743" ry="0.0400" fill="currentColor"/>
</g>
</svg>
