<svg xmlns="http://www.w3.org/2000/svg" xmlns:xlink="http://www.w3.org/1999/xlink" version="1.2" width="148.00mm" height="210.00mm" viewBox="0.0000 -0.0000 105.2752 149.3770">
<style type="text/css">
<![CDATA[
tspan { white-space: pre; }
]]>
</style>
<g transform="translate(7.8245, 13.9792)">
<rect x="16.0673" y="-0.1082" width="1.9512" height="0.2164" ry="0.1082" fill="currentColor"/>
</g>
<g transform="translate(15.6490, 12.9792)">
<line stroke-linejoin="round" stroke-linecap="round" stroke-width="0.1164" stroke="currentColor" x1="0.0582" y1="0" x2="18.5131" y2="0"/>
</g>
<g transform="translate(15.6490, 11.9792)">
<line stroke-linejoin="round" stroke-linecap="round" stroke-width="0.1164" stroke="currentColor" x1="0.0582" y1="0" x2="18.5131" y2="0"/>
</g>
<g transform="translate(15.6490, 10.9792)">
<line stroke-linejoin="round" stroke-linecap="round" stroke-width="0.1164" stroke="currentColor" x1="0.0582" y1="0" x2="18.5131" y2="0"/>
</g>
<g transform="translate(15.6490, 9.9792)">
<line stroke-linejoin="round" stroke-linecap="round" stroke-width="0.1164" stroke="currentColor" x1="0.0582" y1="0" x2="18.5131" y2="0"/>
</g>
<g transform="translate(15.6490, 8.9792)">
<line stroke-linejoin="round" stroke-linecap="round" stroke-width="0.1164" stroke="currentColor" x1="0.0582" y1="0" x2="18.5131" y2="0"/>
</g>
<g transform="translate(24.2170, 13.9792)">
<path transform="scale(0.0040, -0.0040)" d="M0 -43c0 92 111 181 211 181c65 0 115 -37 115 -95c0 -88 -106 -181 -215 -181c-70 0 -111 41 -111 95z" fill="currentColor"/>
</g>
<g transform="translate(16.4490, 11.9792)">
<path transform="scale(0.0040, -0.0040)" d="M647 2c0 -114 -75 -214 -180 -248c3 -33 4 -66 4 -99c0 -21 0 -41 -1 -62c-7 -122 -92 -229 -211 -229c-108 0 -196 88 -196 197c0 58 54 103 113 103c54 0 95 -47 95 -103c0 -52 -43 -95 -95 -95c-9 0 -18 1 -27 4c25 -37 66 -61 113 -61c93 0 156 91 162 191
c1 19 2 38 2 57c0 29 -1 58 -3 87c-28 -5 -54 -8 -79 -8c-242 0 -342 222 -342 376c0 177 129 308 244 443c-33 100 -55 169 -55 347c0 186 141 292 159 292c33 0 148 -208 148 -361c0 -142 -84 -255 -176 -364c21 -68 40 -136 57 -205c3 0 8 1 11 1
c156 0 257 -129 257 -263zM406 148c28 -133 49 -269 57 -349c73 27 109 93 109 160c0 86 -58 175 -166 189zM77 25c0 -111 96 -243 275 -243c21 0 44 1 67 5c-7 66 -27 208 -60 362c-79 -8 -124 -60 -124 -118c0 -43 25 -88 80 -120c5 -5 7 -11 7 -17c0 -12 -10 -23 -23 -23
c-16 0 -128 62 -128 188c0 89 60 177 163 200c-14 57 -30 113 -47 169c-105 -122 -210 -243 -210 -403zM424 920c0 61 -20 118 -21 118c-31 -14 -161 -85 -161 -253c0 -53 15 -113 39 -189c71 88 143 196 143 324z" fill="currentColor"/>
</g>
<g transform="translate(20.5341, 10.9792)">
<path transform="scale(0.0040, -0.0040)" d="M430 -89c0 -21 -49 -176 -180 -176c-145 0 -250 88 -250 265c0 63 18 265 250 265c114 0 172 -112 172 -166c0 -38 -30 -69 -66 -69c-30 0 -72 23 -72 72c0 37 26 75 70 75c3 0 6 -1 9 -1c-26 36 -67 59 -113 59c-107 0 -113 -74 -113 -189c0 -15 1 -30 1 -46
s-1 -31 -1 -46c0 -115 6 -189 113 -189c78 0 133 70 151 149c2 8 8 11 14 11c7 0 15 -5 15 -14z" fill="currentColor"/>
</g>
<g transform="translate(25.4422, 10.9792)">
<rect x="-0.0757" y="-0.1917" width="0.1514" height="3.0203" ry="0.0500" fill="currentColor"/>
</g>
<g transform="translate(25.3665, 10.7974)">
<polygon stroke-linejoin="round" stroke-linecap="round" stroke-width="0.1000" fill="currentColor" stroke="currentColor" points="7.6038 -1.1900 7.6038 -0.8100 0.0500 0.1900 0.0500 -0.1900"/>
</g>
<g transform="translate(26.7179, 13.4792)">
<path transform="scale(0.0040, -0.0040)" d="M0 -43c0 92 111 181 211 181c65 0 115 -37 115 -95c0 -88 -106 -181 -215 -181c-70 0 -111 41 -111 95z" fill="currentColor"/>
</g>
<g transform="translate(27.9430, 10.9792)">
<rect x="-0.0757" y="-0.5184" width="0.1514" height="2.8470" ry="0.0500" fill="currentColor"/>
</g>
<g transform="translate(29.2187, 12.9792)">
<path transform="scale(0.0040, -0.0040)" d="M0 -43c0 92 111 181 211 181c65 0 115 -37 115 -95c0 -88 -106 -181 -215 -181c-70 0 -111 41 -111 95z" fill="currentColor"/>
</g>
<g transform="translate(30.4438, 10.9792)">
<rect x="-0.0757" y="-0.8452" width="0.1514" height="2.6738" ry="0.0500" fill="currentColor"/>
</g>
<g transform="translate(31.7195, 12.4792)">
<path transform="scale(0.0040, -0.0040)" d="M0 -43c0 92 111 181 211 181c65 0 115 -37 115 -95c0 -88 -106 -181 -215 -181c-70 0 -111 41 -111 95z" fill="currentColor"/>
</g>
<g transform="translate(32.9446, 10.9792)">
<rect x="-0.0757" y="-1.1719" width="0.1514" height="2.5005" ry="0.0500" fill="currentColor"/>
</g>
<g transform="translate(44.3792, 143.9230)">
<a xlink:href="https://lilypond.org">
<rect x="0.0000" y="-0.4748" width="16.5168" height="2.0023" fill="none" stroke="none" stroke-width="0.0"/>
</a>
</g>
<g transform="translate(44.3792, 143.9230)">
<text font-family="serif" font-size="2.2001" text-anchor="start" fill="currentColor">
<tspan>LilyPond v2.25.23</tspan>
</text>
</g>
</svg>
