<svg xmlns="http://www.w3.org/2000/svg" xmlns:xlink="http://www.w3.org/1999/xlink" version="1.2" width="6.42mm" height="6.14mm" viewBox="0.5000 -2.7051 4.0616 3.8791">
<style text="style/css">
<![CDATA[
tspan { white-space: pre; }
]]>
</style>
<path transform="translate(0.5000, -0.0000)" stroke-width="0.0858" stroke-linejoin="round" stroke-linecap="round" stroke="currentColor" fill="currentColor" d="M0.8514 0.7500C1.2617 1.2580 2.0411 1.2580 2.4514 0.7500L2.4514 0.7500C2.0411 1.1292 1.2617 1.1292 0.8514 0.7500z"/>
<rect transform="translate(3.7331, -0.0000)" x="-0.0697" y="-2.6794" width="0.1395" height="2.5000" ry="0.0444" fill="currentColor"/>
<path transform="translate(2.5000, -0.0000) scale(0.0040, -0.0040)" d="M215 137c57 0 111 -29 111 -92c0 -71 -54 -120 -101 -148c-35 -21 -74 -34 -114 -34c-57 0 -111 29 -111 92c0 71 54 120 101 148c35 21 74 34 114 34z" fill="currentColor"/>
<path transform="translate(3.8028, -2.6349) scale(0.0040, -0.0040)" d="M0 0c0 -177 201 -292 201 -469c0 -33 -9 -65 -23 -95c18 -36 29 -75 29 -117c0 -63 -15 -126 -41 -183c-5 -8 -13 -12 -21 -12c-14 0 -27 11 -24 28c26 52 42 109 42 167c0 96 -93 189 -163 256v-75h-18v500h18zM149 -514c5 14 8 30 8 45c0 95 -89 189 -157 256
c0 -116 88 -204 149 -301z" fill="currentColor"/>
<rect transform="translate(1.7331, -0.0000)" x="-0.0697" y="-2.6794" width="0.1395" height="2.5000" ry="0.0444" fill="currentColor"/>
<path transform="translate(0.5000, -0.0000) scale(0.0040, -0.0040)" d="M215 137c57 0 111 -29 111 -92c0 -71 -54 -120 -101 -148c-35 -21 -74 -34 -114 -34c-57 0 -111 29 -111 92c0 71 54 120 101 148c35 21 74 34 114 34z" fill="currentColor"/>
</svg>
