<svg xmlns="http://www.w3.org/2000/svg" xmlns:xlink="http://www.w3.org/1999/xlink" version="1.2" width="127.56mm" height="59.99mm" viewBox="0.0000 -2.5182 72.5900 34.1363">
<style type="text/css">
<![CDATA[
tspan { white-space: pre; }
]]>
</style>
<g transform="translate(0.0000, 10.0000)">
<line stroke-linejoin="round" stroke-linecap="round" stroke-width="0.1000" stroke="currentColor" x1="0.0500" y1="0" x2="72.4500" y2="0"/>
</g>
<g transform="translate(50.0100, 10.0000)">
<rect x="0.0000" y="-1.0500" width="0.1900" height="2.1000" ry="0.0000" fill="currentColor"/>
</g>
<g transform="translate(72.3100, 10.0000)">
<rect x="0.0000" y="-1.0500" width="0.1900" height="2.1000" ry="0.0000" fill="currentColor"/>
</g>
<g transform="translate(21.2100, 10.0000)">
<rect x="0.0000" y="-1.0500" width="0.1900" height="2.1000" ry="0.0000" fill="currentColor"/>
</g>
<g transform="translate(7.7000, 10.0000)">
<path transform="scale(0.0040, -0.0040)" d="M218 136c55 0 108 -28 108 -89c0 -71 -55 -121 -102 -149c-35 -21 -75 -34 -116 -34c-55 0 -108 28 -108 89c0 71 55 121 102 149c35 21 75 34 116 34z" fill="currentColor"/>
</g>
<g transform="translate(66.5392, 10.0000)">
<rect x="-0.0650" y="-3.0000" width="0.1300" height="2.8139" ry="0.0400" fill="currentColor"/>
</g>
<g transform="translate(65.3000, 10.0000)">
<path transform="scale(0.0040, -0.0040)" d="M218 136c55 0 108 -28 108 -89c0 -71 -55 -121 -102 -149c-35 -21 -75 -34 -116 -34c-55 0 -108 28 -108 89c0 71 55 121 102 149c35 21 75 34 116 34z" fill="currentColor"/>
</g>
<g transform="translate(59.3392, 10.0000)">
<rect x="-0.0650" y="-3.0000" width="0.1300" height="2.8139" ry="0.0400" fill="currentColor"/>
</g>
<g transform="translate(58.1000, 10.0000)">
<path transform="scale(0.0040, -0.0040)" d="M218 136c55 0 108 -28 108 -89c0 -71 -55 -121 -102 -149c-35 -21 -75 -34 -116 -34c-55 0 -108 28 -108 89c0 71 55 121 102 149c35 21 75 34 116 34z" fill="currentColor"/>
</g>
<g transform="translate(0.5000, 4.7600)">
<line stroke-linejoin="round" stroke-linecap="round" stroke-width="0.1600" stroke="currentColor" x1="19.9100" y1="-0.0000" x2="19.9100" y2="0.7000"/>
</g>
<g transform="translate(0.5000, 4.7600)">
<line stroke-linejoin="round" stroke-linecap="round" stroke-width="0.1600" stroke="currentColor" x1="-0.2000" y1="-0.0000" x2="-0.2000" y2="0.7000"/>
</g>
<g transform="translate(0.5000, 4.7600)">
<line stroke-linejoin="round" stroke-linecap="round" stroke-width="0.1600" stroke="currentColor" x1="19.9100" y1="-0.0000" x2="11.6329" y2="-0.0000"/>
</g>
<g transform="translate(0.5000, 4.7600)">
<line stroke-linejoin="round" stroke-linecap="round" stroke-width="0.1600" stroke="currentColor" x1="-0.2000" y1="-0.0000" x2="8.2771" y2="-0.0000"/>
</g>
<g transform="translate(8.8742, 7.0000)">
<polygon stroke-linejoin="round" stroke-linecap="round" stroke-width="0.0800" fill="currentColor" stroke="currentColor" points="7.2900 -0.2000 7.2900 0.2000 0.0400 0.2000 0.0400 -0.2000"/>
</g>
<g transform="translate(22.1000, 4.7600)">
<line stroke-linejoin="round" stroke-linecap="round" stroke-width="0.1600" stroke="currentColor" x1="27.1100" y1="-0.0000" x2="27.1100" y2="0.7000"/>
</g>
<g transform="translate(22.1000, 4.7600)">
<line stroke-linejoin="round" stroke-linecap="round" stroke-width="0.1600" stroke="currentColor" x1="-0.2000" y1="-0.0000" x2="-0.2000" y2="0.7000"/>
</g>
<g transform="translate(22.1000, 4.7600)">
<line stroke-linejoin="round" stroke-linecap="round" stroke-width="0.1600" stroke="currentColor" x1="27.1100" y1="-0.0000" x2="15.2329" y2="-0.0000"/>
</g>
<g transform="translate(22.1000, 4.7600)">
<line stroke-linejoin="round" stroke-linecap="round" stroke-width="0.1600" stroke="currentColor" x1="-0.2000" y1="-0.0000" x2="11.8771" y2="-0.0000"/>
</g>
<g transform="translate(34.3771, 5.3234)">
<text font-family="serif" font-style="italic" font-size="1.7461" text-anchor="start" fill="currentColor">
<tspan>4:4</tspan>
</text>
</g>
<g transform="translate(30.4742, 7.0000)">
<polygon stroke-linejoin="round" stroke-linecap="round" stroke-width="0.0800" fill="currentColor" stroke="currentColor" points="14.4900 -0.2000 14.4900 0.2000 0.0400 0.2000 0.0400 -0.2000"/>
</g>
<g transform="translate(59.2742, 7.0000)">
<polygon stroke-linejoin="round" stroke-linecap="round" stroke-width="0.0800" fill="currentColor" stroke="currentColor" points="7.2900 -0.2000 7.2900 0.2000 0.0400 0.2000 0.0400 -0.2000"/>
</g>
<g transform="translate(22.1000, 10.0000)">
<path transform="scale(0.0040, -0.0040)" d="M72 -250l117 326c-34 -12 -69 -22 -105 -22c-46 0 -87 33 -87 79c0 40 33 72 73 72c25 0 48 -15 56 -39c10 -28 6 -59 35 -59c16 0 54 48 61 63c6 12 23 12 28 0l-123 -420c-8 -7 -17 -10 -27 -10s-20 3 -28 10z" fill="currentColor"/>
</g>
<g transform="translate(21.2100, -0.0000)">
<path transform="scale(0.0045, -0.0045)" d="M198 113h113c0 -47 28 -91 71 -91c7 0 11 -5 11 -11s-4 -11 -11 -11c-43 0 -84 13 -127 13s-85 -13 -128 -13c-7 0 -11 5 -11 11s4 11 11 11c43 0 71 44 71 91zM206 312c22 14 44 28 59 49c11 15 17 33 25 50c4 10 21 6 21 -8v-250h71c9 0 14 -7 14 -14s-5 -14 -14 -14
h-71v-12h-113v12h-170c-22 0 -30 13 -30 22c0 2 1 5 2 6c81 94 141 207 141 331c0 10 8 19 16 16c22 -7 45 -13 69 -13s47 6 69 13c13 4 22 -9 16 -16l-283 -331h170v138c0 8 1 17 8 21z" fill="currentColor"/>
</g>
<g transform="translate(21.2783, 2.2535)">
<path transform="scale(0.0045, -0.0045)" d="M256 287c28 30 51 62 51 102c0 55 -57 89 -118 89c-48 0 -76 -37 -76 -73c0 -21 9 -42 30 -54zM284 270c55 -32 84 -78 84 -127c0 -73 -65 -143 -187 -143c-93 0 -181 53 -181 139c0 51 39 85 77 120c-42 28 -63 69 -63 108c0 67 61 133 175 133c81 0 160 -39 160 -111
c0 -47 -31 -85 -65 -119zM106 242c-33 -29 -64 -59 -64 -103c0 -69 66 -117 139 -117c55 0 87 43 87 84c0 25 -11 50 -36 64z" fill="currentColor"/>
</g>
<g transform="translate(9.1771, 5.3404)">
<text font-family="serif" font-style="italic" font-size="1.7461" text-anchor="start" fill="currentColor">
<tspan>3:3</tspan>
</text>
</g>
<g transform="translate(16.1392, 10.0000)">
<rect x="-0.0650" y="-3.0000" width="0.1300" height="2.8139" ry="0.0400" fill="currentColor"/>
</g>
<g transform="translate(14.9000, 10.0000)">
<path transform="scale(0.0040, -0.0040)" d="M218 136c55 0 108 -28 108 -89c0 -71 -55 -121 -102 -149c-35 -21 -75 -34 -116 -34c-55 0 -108 28 -108 89c0 71 55 121 102 149c35 21 75 34 116 34z" fill="currentColor"/>
</g>
<g transform="translate(8.9392, 10.0000)">
<rect x="-0.0650" y="-3.0000" width="0.1300" height="2.8139" ry="0.0400" fill="currentColor"/>
</g>
<g transform="translate(36.5000, 10.0000)">
<path transform="scale(0.0040, -0.0040)" d="M218 136c55 0 108 -28 108 -89c0 -71 -55 -121 -102 -149c-35 -21 -75 -34 -116 -34c-55 0 -108 28 -108 89c0 71 55 121 102 149c35 21 75 34 116 34z" fill="currentColor"/>
</g>
<g transform="translate(30.5392, 10.0000)">
<rect x="-0.0650" y="-3.0000" width="0.1300" height="2.8139" ry="0.0400" fill="currentColor"/>
</g>
<g transform="translate(29.3000, 10.0000)">
<path transform="scale(0.0040, -0.0040)" d="M218 136c55 0 108 -28 108 -89c0 -71 -55 -121 -102 -149c-35 -21 -75 -34 -116 -34c-55 0 -108 28 -108 89c0 71 55 121 102 149c35 21 75 34 116 34z" fill="currentColor"/>
</g>
<g transform="translate(0.5000, 10.0000)">
<path transform="scale(0.0040, -0.0040)" d="M72 -250l117 326c-34 -12 -69 -22 -105 -22c-46 0 -87 33 -87 79c0 40 33 72 73 72c25 0 48 -15 56 -39c10 -28 6 -59 35 -59c16 0 54 48 61 63c6 12 23 12 28 0l-123 -420c-8 -7 -17 -10 -27 -10s-20 3 -28 10z" fill="currentColor"/>
</g>
<g transform="translate(0.0854, -0.0000)">
<path transform="scale(0.0045, -0.0045)" d="M148 478c-28 0 -58 -9 -58 -33c0 -22 36 -25 36 -47c0 -32 -25 -58 -57 -58s-58 26 -58 58c0 64 67 102 137 102c90 0 168 -33 168 -114c0 -43 -4 -83 -42 -101c-9 -4 -14 -13 -14 -21s5 -17 14 -21c41 -19 56 -57 56 -103c0 -91 -78 -140 -177 -140
c-78 0 -153 41 -153 112c0 36 30 66 66 66s65 -30 65 -66c0 -25 -40 -28 -40 -53c0 -26 32 -37 62 -37c49 0 64 61 64 118v7c0 58 -1 103 -52 103h-80c-9 0 -14 7 -14 14s5 14 14 14h80c52 0 52 48 52 108c0 55 -19 92 -69 92z" fill="currentColor"/>
</g>
<g transform="translate(0.0000, 2.2535)">
<path transform="scale(0.0045, -0.0045)" d="M256 287c28 30 51 62 51 102c0 55 -57 89 -118 89c-48 0 -76 -37 -76 -73c0 -21 9 -42 30 -54zM284 270c55 -32 84 -78 84 -127c0 -73 -65 -143 -187 -143c-93 0 -181 53 -181 139c0 51 39 85 77 120c-42 28 -63 69 -63 108c0 67 61 133 175 133c81 0 160 -39 160 -111
c0 -47 -31 -85 -65 -119zM106 242c-33 -29 -64 -59 -64 -103c0 -69 66 -117 139 -117c55 0 87 43 87 84c0 25 -11 50 -36 64z" fill="currentColor"/>
</g>
<g transform="translate(60.4271, 5.3404)">
<text font-family="serif" font-style="italic" font-size="1.7461" text-anchor="start" fill="currentColor">
<tspan>3:3</tspan>
</text>
</g>
<g transform="translate(50.9000, 4.7600)">
<line stroke-linejoin="round" stroke-linecap="round" stroke-width="0.1600" stroke="currentColor" x1="21.6100" y1="-0.0000" x2="21.6100" y2="0.7000"/>
</g>
<g transform="translate(50.9000, 4.7600)">
<line stroke-linejoin="round" stroke-linecap="round" stroke-width="0.1600" stroke="currentColor" x1="-0.2000" y1="-0.0000" x2="-0.2000" y2="0.7000"/>
</g>
<g transform="translate(50.9000, 4.7600)">
<line stroke-linejoin="round" stroke-linecap="round" stroke-width="0.1600" stroke="currentColor" x1="21.6100" y1="-0.0000" x2="12.4829" y2="-0.0000"/>
</g>
<g transform="translate(50.9000, 4.7600)">
<line stroke-linejoin="round" stroke-linecap="round" stroke-width="0.1600" stroke="currentColor" x1="-0.2000" y1="-0.0000" x2="9.1271" y2="-0.0000"/>
</g>
<g transform="translate(50.9000, 10.0000)">
<path transform="scale(0.0040, -0.0040)" d="M72 -250l117 326c-34 -12 -69 -22 -105 -22c-46 0 -87 33 -87 79c0 40 33 72 73 72c25 0 48 -15 56 -39c10 -28 6 -59 35 -59c16 0 54 48 61 63c6 12 23 12 28 0l-123 -420c-8 -7 -17 -10 -27 -10s-20 3 -28 10z" fill="currentColor"/>
</g>
<g transform="translate(50.0954, -0.0000)">
<path transform="scale(0.0045, -0.0045)" d="M148 478c-28 0 -58 -9 -58 -33c0 -22 36 -25 36 -47c0 -32 -25 -58 -57 -58s-58 26 -58 58c0 64 67 102 137 102c90 0 168 -33 168 -114c0 -43 -4 -83 -42 -101c-9 -4 -14 -13 -14 -21s5 -17 14 -21c41 -19 56 -57 56 -103c0 -91 -78 -140 -177 -140
c-78 0 -153 41 -153 112c0 36 30 66 66 66s65 -30 65 -66c0 -25 -40 -28 -40 -53c0 -26 32 -37 62 -37c49 0 64 61 64 118v7c0 58 -1 103 -52 103h-80c-9 0 -14 7 -14 14s5 14 14 14h80c52 0 52 48 52 108c0 55 -19 92 -69 92z" fill="currentColor"/>
</g>
<g transform="translate(50.0100, 2.2535)">
<path transform="scale(0.0045, -0.0045)" d="M256 287c28 30 51 62 51 102c0 55 -57 89 -118 89c-48 0 -76 -37 -76 -73c0 -21 9 -42 30 -54zM284 270c55 -32 84 -78 84 -127c0 -73 -65 -143 -187 -143c-93 0 -181 53 -181 139c0 51 39 85 77 120c-42 28 -63 69 -63 108c0 67 61 133 175 133c81 0 160 -39 160 -111
c0 -47 -31 -85 -65 -119zM106 242c-33 -29 -64 -59 -64 -103c0 -69 66 -117 139 -117c55 0 87 43 87 84c0 25 -11 50 -36 64z" fill="currentColor"/>
</g>
<g transform="translate(37.7392, 10.0000)">
<rect x="-0.0650" y="-3.0000" width="0.1300" height="2.8139" ry="0.0400" fill="currentColor"/>
</g>
<g transform="translate(44.9392, 10.0000)">
<rect x="-0.0650" y="-3.0000" width="0.1300" height="2.8139" ry="0.0400" fill="currentColor"/>
</g>
<g transform="translate(43.7000, 10.0000)">
<path transform="scale(0.0040, -0.0040)" d="M218 136c55 0 108 -28 108 -89c0 -71 -55 -121 -102 -149c-35 -21 -75 -34 -116 -34c-55 0 -108 28 -108 89c0 71 55 121 102 149c35 21 75 34 116 34z" fill="currentColor"/>
</g>
<g transform="translate(0.0000, 30.5682)">
<line stroke-linejoin="round" stroke-linecap="round" stroke-width="0.1000" stroke="currentColor" x1="0.0500" y1="0" x2="30.7500" y2="0"/>
</g>
<g transform="translate(30.6100, 30.5682)">
<rect x="0.0000" y="-1.0500" width="0.1900" height="2.1000" ry="0.0000" fill="currentColor"/>
</g>
<g transform="translate(10.3742, 27.5682)">
<polygon stroke-linejoin="round" stroke-linecap="round" stroke-width="0.0800" fill="currentColor" stroke="currentColor" points="14.4900 -0.2000 14.4900 0.2000 0.0400 0.2000 0.0400 -0.2000"/>
</g>
<g transform="translate(9.2000, 30.5682)">
<path transform="scale(0.0040, -0.0040)" d="M218 136c55 0 108 -28 108 -89c0 -71 -55 -121 -102 -149c-35 -21 -75 -34 -116 -34c-55 0 -108 28 -108 89c0 71 55 121 102 149c35 21 75 34 116 34z" fill="currentColor"/>
</g>
<g transform="translate(10.4392, 30.5682)">
<rect x="-0.0650" y="-3.0000" width="0.1300" height="2.8139" ry="0.0400" fill="currentColor"/>
</g>
<g transform="translate(16.4000, 30.5682)">
<path transform="scale(0.0040, -0.0040)" d="M218 136c55 0 108 -28 108 -89c0 -71 -55 -121 -102 -149c-35 -21 -75 -34 -116 -34c-55 0 -108 28 -108 89c0 71 55 121 102 149c35 21 75 34 116 34z" fill="currentColor"/>
</g>
<g transform="translate(17.6392, 30.5682)">
<rect x="-0.0650" y="-3.0000" width="0.1300" height="2.8139" ry="0.0400" fill="currentColor"/>
</g>
<g transform="translate(23.6000, 30.5682)">
<path transform="scale(0.0040, -0.0040)" d="M218 136c55 0 108 -28 108 -89c0 -71 -55 -121 -102 -149c-35 -21 -75 -34 -116 -34c-55 0 -108 28 -108 89c0 71 55 121 102 149c35 21 75 34 116 34z" fill="currentColor"/>
</g>
<g transform="translate(24.8392, 30.5682)">
<rect x="-0.0650" y="-3.0000" width="0.1300" height="2.8139" ry="0.0400" fill="currentColor"/>
</g>
<g transform="translate(2.0000, 25.3282)">
<line stroke-linejoin="round" stroke-linecap="round" stroke-width="0.1600" stroke="currentColor" x1="28.8100" y1="-0.0000" x2="28.8100" y2="0.7000"/>
</g>
<g transform="translate(2.0000, 25.3282)">
<line stroke-linejoin="round" stroke-linecap="round" stroke-width="0.1600" stroke="currentColor" x1="-0.2000" y1="-0.0000" x2="-0.2000" y2="0.7000"/>
</g>
<g transform="translate(2.0000, 25.3282)">
<line stroke-linejoin="round" stroke-linecap="round" stroke-width="0.1600" stroke="currentColor" x1="28.8100" y1="-0.0000" x2="16.0829" y2="-0.0000"/>
</g>
<g transform="translate(2.0000, 25.3282)">
<line stroke-linejoin="round" stroke-linecap="round" stroke-width="0.1600" stroke="currentColor" x1="-0.2000" y1="-0.0000" x2="12.7271" y2="-0.0000"/>
</g>
<g transform="translate(15.1271, 25.8915)">
<text font-family="serif" font-style="italic" font-size="1.7461" text-anchor="start" fill="currentColor">
<tspan>4:4</tspan>
</text>
</g>
<g transform="translate(0.0000, 20.5682)">
<path transform="scale(0.0045, -0.0045)" d="M198 113h113c0 -47 28 -91 71 -91c7 0 11 -5 11 -11s-4 -11 -11 -11c-43 0 -84 13 -127 13s-85 -13 -128 -13c-7 0 -11 5 -11 11s4 11 11 11c43 0 71 44 71 91zM206 312c22 14 44 28 59 49c11 15 17 33 25 50c4 10 21 6 21 -8v-250h71c9 0 14 -7 14 -14s-5 -14 -14 -14
h-71v-12h-113v12h-170c-22 0 -30 13 -30 22c0 2 1 5 2 6c81 94 141 207 141 331c0 10 8 19 16 16c22 -7 45 -13 69 -13s47 6 69 13c13 4 22 -9 16 -16l-283 -331h170v138c0 8 1 17 8 21z" fill="currentColor"/>
</g>
<g transform="translate(0.0683, 22.8216)">
<path transform="scale(0.0045, -0.0045)" d="M256 287c28 30 51 62 51 102c0 55 -57 89 -118 89c-48 0 -76 -37 -76 -73c0 -21 9 -42 30 -54zM284 270c55 -32 84 -78 84 -127c0 -73 -65 -143 -187 -143c-93 0 -181 53 -181 139c0 51 39 85 77 120c-42 28 -63 69 -63 108c0 67 61 133 175 133c81 0 160 -39 160 -111
c0 -47 -31 -85 -65 -119zM106 242c-33 -29 -64 -59 -64 -103c0 -69 66 -117 139 -117c55 0 87 43 87 84c0 25 -11 50 -36 64z" fill="currentColor"/>
</g>
<g transform="translate(2.0000, 30.5682)">
<path transform="scale(0.0040, -0.0040)" d="M72 -250l117 326c-34 -12 -69 -22 -105 -22c-46 0 -87 33 -87 79c0 40 33 72 73 72c25 0 48 -15 56 -39c10 -28 6 -59 35 -59c16 0 54 48 61 63c6 12 23 12 28 0l-123 -420c-8 -7 -17 -10 -27 -10s-20 3 -28 10z" fill="currentColor"/>
</g>
</svg>
