<svg xmlns="http://www.w3.org/2000/svg" xmlns:xlink="http://www.w3.org/1999/xlink" version="1.2" width="134.50mm" height="104.29mm" viewBox="-0.0717 -0.0360 85.0448 65.9377">
<style text="style/css">
<![CDATA[
tspan { white-space: pre; }
]]>
</style>
<g color="rgb(49.8039%, 49.8039%, 49.8039%)">
<line transform="translate(0.0000, 5.7640)" stroke-linejoin="round" stroke-linecap="round" stroke-width="0.1073" stroke="currentColor" x1="0.0537" y1="-0.0000" x2="84.9731" y2="-0.0000"/>
<line transform="translate(0.0000, 4.7640)" stroke-linejoin="round" stroke-linecap="round" stroke-width="0.1073" stroke="currentColor" x1="0.0537" y1="-0.0000" x2="84.9731" y2="-0.0000"/>
<line transform="translate(0.0000, 3.7640)" stroke-linejoin="round" stroke-linecap="round" stroke-width="0.1073" stroke="currentColor" x1="0.0537" y1="-0.0000" x2="84.9731" y2="-0.0000"/>
<line transform="translate(0.0000, 2.7640)" stroke-linejoin="round" stroke-linecap="round" stroke-width="0.1073" stroke="currentColor" x1="0.0537" y1="-0.0000" x2="84.9731" y2="-0.0000"/>
<line transform="translate(0.0000, 1.7640)" stroke-linejoin="round" stroke-linecap="round" stroke-width="0.1073" stroke="currentColor" x1="0.0537" y1="-0.0000" x2="84.9731" y2="-0.0000"/>
</g>
<g color="rgb(49.8039%, 49.8039%, 49.8039%)">
<line transform="translate(0.0000, 19.7640)" stroke-linejoin="round" stroke-linecap="round" stroke-width="0.1073" stroke="currentColor" x1="0.0537" y1="-0.0000" x2="84.9731" y2="-0.0000"/>
<line transform="translate(0.0000, 18.7640)" stroke-linejoin="round" stroke-linecap="round" stroke-width="0.1073" stroke="currentColor" x1="0.0537" y1="-0.0000" x2="84.9731" y2="-0.0000"/>
<line transform="translate(0.0000, 17.7640)" stroke-linejoin="round" stroke-linecap="round" stroke-width="0.1073" stroke="currentColor" x1="0.0537" y1="-0.0000" x2="84.9731" y2="-0.0000"/>
<line transform="translate(0.0000, 16.7640)" stroke-linejoin="round" stroke-linecap="round" stroke-width="0.1073" stroke="currentColor" x1="0.0537" y1="-0.0000" x2="84.9731" y2="-0.0000"/>
<line transform="translate(0.0000, 15.7640)" stroke-linejoin="round" stroke-linecap="round" stroke-width="0.1073" stroke="currentColor" x1="0.0537" y1="-0.0000" x2="84.9731" y2="-0.0000"/>
</g>
<rect transform="translate(44.5364, 17.7640)" x="0.0000" y="-2.0537" width="0.2039" height="4.1073" ry="0.0000" fill="currentColor"/>
<rect transform="translate(44.5364, 3.7640)" x="0.0000" y="-2.0537" width="0.2039" height="4.1073" ry="0.0000" fill="currentColor"/>
<rect transform="translate(81.9795, 17.7640)" x="0.0000" y="-2.0537" width="0.2039" height="4.1073" ry="0.0000" fill="currentColor"/>
<rect transform="translate(81.9795, 3.7640)" x="0.0000" y="-2.0537" width="0.2039" height="4.1073" ry="0.0000" fill="currentColor"/>
<rect transform="translate(0.0000, 6.7640)" x="60.6816" y="-0.1037" width="2.0709" height="0.2073" ry="0.1037" fill="currentColor"/>
<rect transform="translate(0.0000, 6.7640)" x="48.7011" y="-0.1037" width="1.9542" height="0.2073" ry="0.1037" fill="currentColor"/>
<rect transform="translate(0.0000, 6.7640)" x="32.2107" y="-0.1037" width="1.9542" height="0.2073" ry="0.1037" fill="currentColor"/>
<rect transform="translate(0.0000, 6.7640)" x="8.1913" y="-0.1037" width="2.0709" height="0.2073" ry="0.1037" fill="currentColor"/>
<rect transform="translate(0.0000, 20.7640)" x="60.6816" y="-0.1037" width="2.0709" height="0.2073" ry="0.1037" fill="currentColor"/>
<rect transform="translate(0.0000, 20.7640)" x="48.7011" y="-0.1037" width="1.9542" height="0.2073" ry="0.1037" fill="currentColor"/>
<rect transform="translate(0.0000, 20.7640)" x="32.2107" y="-0.1037" width="1.9542" height="0.2073" ry="0.1037" fill="currentColor"/>
<rect transform="translate(0.0000, 20.7640)" x="8.1913" y="-0.1037" width="2.0709" height="0.2073" ry="0.1037" fill="currentColor"/>
<path transform="translate(0.8000, 4.7640) scale(0.0040, -0.0040)" d="M378 263c4 0 7 1 11 1c156 0 257 -129 257 -262c0 -76 -34 -154 -108 -210c-22 -17 -46 -29 -72 -37c3 -34 4 -68 4 -102c0 -20 0 -40 -1 -60c-7 -121 -90 -228 -209 -228c-108 0 -196 87 -196 196c0 58 53 104 112 104c54 0 95 -48 95 -104c0 -52 -43 -95 -95 -95
c-10 0 -20 2 -29 6c26 -38 68 -63 116 -63h3c93 2 153 92 159 190c1 19 2 37 2 56c0 30 -2 60 -4 90c-29 -5 -58 -8 -88 -8c-188 0 -333 173 -333 375c0 177 130 307 246 442c-20 62 -38 125 -46 190c-6 52 -7 104 -7 157c0 115 55 223 148 290c7 5 16 4 22 -1
c71 -83 134 -244 134 -357c0 -143 -85 -255 -178 -364c21 -68 40 -137 57 -206zM462 -202c67 24 111 94 111 162c0 89 -65 178 -170 190c24 -115 46 -230 59 -352zM75 26c0 -134 129 -245 263 -245c28 0 55 2 81 6c-14 126 -36 244 -61 363c-79 -8 -124 -61 -124 -119
c0 -43 25 -89 80 -121c5 -5 7 -11 7 -16c0 -12 -10 -23 -22 -23c-3 0 -6 1 -9 2c-81 43 -118 116 -118 186c0 89 58 175 161 198c-14 58 -29 116 -46 173c-106 -122 -212 -244 -212 -404zM244 785c0 -73 20 -132 38 -191c79 97 144 199 144 324c0 53 -4 76 -20 124
c-99 -47 -162 -148 -162 -257z" fill="currentColor"/>
<path transform="translate(5.1328, 3.7640) scale(0.0040, -0.0040)" d="M151 475c-29 0 -60 -8 -60 -33c0 -22 35 -25 35 -47c0 -31 -26 -57 -57 -57s-57 26 -57 57c0 65 68 105 139 105c92 0 170 -33 170 -114c0 -42 -5 -81 -42 -98c-10 -5 -15 -14 -15 -23s5 -18 15 -23c41 -19 57 -56 57 -102c0 -92 -80 -140 -180 -140
c-79 0 -156 43 -156 115c0 36 29 65 65 65s65 -29 65 -65c0 -25 -40 -29 -40 -54c0 -28 34 -36 66 -36c48 0 61 59 61 115v22c0 50 -3 88 -49 88h-78c-10 0 -15 7 -15 15s5 15 15 15h78c46 0 49 40 49 92v14c0 53 -18 89 -66 89z" fill="currentColor"/>
<path transform="translate(5.0000, 5.8126) scale(0.0040, -0.0040)" d="M194 120h120c0 -49 29 -95 75 -95c8 0 12 -7 12 -13s-4 -12 -12 -12c-45 0 -90 13 -135 13s-90 -13 -135 -13c-8 0 -12 6 -12 12s4 13 12 13c46 0 75 46 75 95zM203 301c22 15 45 30 61 51c12 15 19 34 27 51c2 4 5 6 9 6c6 0 14 -6 14 -15v-238h74c10 0 16 -8 16 -16
s-6 -15 -16 -15h-74v-5h-120v5h-163c-24 0 -33 15 -33 24c0 3 1 6 2 7c80 92 134 205 134 327c0 11 8 20 17 17c24 -7 48 -13 73 -13s48 6 72 13c2 1 4 1 6 1c9 0 14 -7 14 -13c0 -2 0 -3 -2 -5l-283 -327h163v122c0 9 2 18 9 23z" fill="currentColor"/>
<rect transform="translate(9.8473, 3.7640)" x="-0.0697" y="-0.5000" width="0.1395" height="3.2470" ry="0.0444" fill="currentColor"/>
<path transform="translate(5.0569, 17.7640) scale(0.0040, -0.0040)" d="M172 256c-49 0 -52 -40 -52 -94v-22v-21c0 -54 3 -94 52 -94c56 0 59 50 59 115s-3 116 -59 116zM120 267c17 7 34 14 52 14c102 0 171 -46 171 -141s-69 -140 -171 -140c-112 0 -172 124 -172 250c0 129 74 250 192 250c71 0 139 -40 139 -105c0 -36 -29 -65 -65 -65
s-65 29 -65 65c0 23 39 26 39 49c0 21 -24 31 -48 31c-64 0 -74 -62 -74 -134c0 -24 2 -49 2 -74z" fill="currentColor"/>
<path transform="translate(5.0000, 19.7747) scale(0.0040, -0.0040)" d="M261 290c26 29 47 61 47 100c0 54 -57 85 -116 85c-46 0 -73 -35 -73 -69c0 -20 9 -40 29 -51zM293 272c54 -31 82 -79 82 -127c0 -74 -66 -145 -190 -145c-95 0 -185 53 -185 140c0 50 38 85 75 120c-40 28 -59 68 -59 106c0 68 60 134 176 134c81 0 163 -38 163 -110
c0 -47 -29 -84 -62 -118zM107 241c-32 -29 -61 -59 -61 -101c0 -69 66 -115 139 -115c54 0 85 41 85 81c0 24 -11 47 -35 61z" fill="currentColor"/>
<path transform="translate(5.0569, 17.7640) scale(0.0040, -0.0040)" d="M172 256c-49 0 -52 -40 -52 -94v-22v-21c0 -54 3 -94 52 -94c56 0 59 50 59 115s-3 116 -59 116zM120 267c17 7 34 14 52 14c102 0 171 -46 171 -141s-69 -140 -171 -140c-112 0 -172 124 -172 250c0 129 74 250 192 250c71 0 139 -40 139 -105c0 -36 -29 -65 -65 -65
s-65 29 -65 65c0 23 39 26 39 49c0 21 -24 31 -48 31c-64 0 -74 -62 -74 -134c0 -24 2 -49 2 -74z" fill="currentColor"/>
<path transform="translate(5.0000, 19.7747) scale(0.0040, -0.0040)" d="M261 290c26 29 47 61 47 100c0 54 -57 85 -116 85c-46 0 -73 -35 -73 -69c0 -20 9 -40 29 -51zM293 272c54 -31 82 -79 82 -127c0 -74 -66 -145 -190 -145c-95 0 -185 53 -185 140c0 50 38 85 75 120c-40 28 -59 68 -59 106c0 68 60 134 176 134c81 0 163 -38 163 -110
c0 -47 -29 -84 -62 -118zM107 241c-32 -29 -61 -59 -61 -101c0 -69 66 -115 139 -115c54 0 85 41 85 81c0 24 -11 47 -35 61z" fill="currentColor"/>
<path transform="translate(0.8000, 18.7640) scale(0.0040, -0.0040)" d="M378 263c4 0 7 1 11 1c156 0 257 -129 257 -262c0 -76 -34 -154 -108 -210c-22 -17 -46 -29 -72 -37c3 -34 4 -68 4 -102c0 -20 0 -40 -1 -60c-7 -121 -90 -228 -209 -228c-108 0 -196 87 -196 196c0 58 53 104 112 104c54 0 95 -48 95 -104c0 -52 -43 -95 -95 -95
c-10 0 -20 2 -29 6c26 -38 68 -63 116 -63h3c93 2 153 92 159 190c1 19 2 37 2 56c0 30 -2 60 -4 90c-29 -5 -58 -8 -88 -8c-188 0 -333 173 -333 375c0 177 130 307 246 442c-20 62 -38 125 -46 190c-6 52 -7 104 -7 157c0 115 55 223 148 290c7 5 16 4 22 -1
c71 -83 134 -244 134 -357c0 -143 -85 -255 -178 -364c21 -68 40 -137 57 -206zM462 -202c67 24 111 94 111 162c0 89 -65 178 -170 190c24 -115 46 -230 59 -352zM75 26c0 -134 129 -245 263 -245c28 0 55 2 81 6c-14 126 -36 244 -61 363c-79 -8 -124 -61 -124 -119
c0 -43 25 -89 80 -121c5 -5 7 -11 7 -16c0 -12 -10 -23 -22 -23c-3 0 -6 1 -9 2c-81 43 -118 116 -118 186c0 89 58 175 161 198c-14 58 -29 116 -46 173c-106 -122 -212 -244 -212 -404zM244 785c0 -73 20 -132 38 -191c79 97 144 199 144 324c0 53 -4 76 -20 124
c-99 -47 -162 -148 -162 -257z" fill="currentColor"/>
<path transform="translate(8.5364, 20.7640) scale(0.0040, -0.0040)" d="M312 64c0 24 -20 41 -41 41c-4 0 -8 -1 -12 -2c-30 -9 -77 -38 -113 -62s-83 -54 -103 -78c-7 -8 -10 -17 -10 -27c0 -24 20 -41 41 -41c4 0 8 1 12 2c30 9 77 38 113 62s83 54 103 78c7 8 10 17 10 27zM259 137c48 0 86 -22 86 -74c0 -18 -4 -38 -10 -56
c-12 -38 -30 -73 -63 -95c-53 -36 -113 -49 -186 -49c-48 0 -86 22 -86 74c0 18 4 38 10 56c12 38 31 73 64 95c53 36 112 49 185 49z" fill="currentColor"/>
<path transform="translate(82.9903, 17.7640) scale(0.0040, -0.0040)" d="M172 256c-49 0 -52 -40 -52 -94v-22v-21c0 -54 3 -94 52 -94c56 0 59 50 59 115s-3 116 -59 116zM120 267c17 7 34 14 52 14c102 0 171 -46 171 -141s-69 -140 -171 -140c-112 0 -172 124 -172 250c0 129 74 250 192 250c71 0 139 -40 139 -105c0 -36 -29 -65 -65 -65
s-65 29 -65 65c0 23 39 26 39 49c0 21 -24 31 -48 31c-64 0 -74 -62 -74 -134c0 -24 2 -49 2 -74z" fill="currentColor"/>
<path transform="translate(82.9334, 19.7747) scale(0.0040, -0.0040)" d="M261 290c26 29 47 61 47 100c0 54 -57 85 -116 85c-46 0 -73 -35 -73 -69c0 -20 9 -40 29 -51zM293 272c54 -31 82 -79 82 -127c0 -74 -66 -145 -190 -145c-95 0 -185 53 -185 140c0 50 38 85 75 120c-40 28 -59 68 -59 106c0 68 60 134 176 134c81 0 163 -38 163 -110
c0 -47 -29 -84 -62 -118zM107 241c-32 -29 -61 -59 -61 -101c0 -69 66 -115 139 -115c54 0 85 41 85 81c0 24 -11 47 -35 61z" fill="currentColor"/>
<path transform="translate(82.9903, 17.7640) scale(0.0040, -0.0040)" d="M172 256c-49 0 -52 -40 -52 -94v-22v-21c0 -54 3 -94 52 -94c56 0 59 50 59 115s-3 116 -59 116zM120 267c17 7 34 14 52 14c102 0 171 -46 171 -141s-69 -140 -171 -140c-112 0 -172 124 -172 250c0 129 74 250 192 250c71 0 139 -40 139 -105c0 -36 -29 -65 -65 -65
s-65 29 -65 65c0 23 39 26 39 49c0 21 -24 31 -48 31c-64 0 -74 -62 -74 -134c0 -24 2 -49 2 -74z" fill="currentColor"/>
<path transform="translate(82.9334, 19.7747) scale(0.0040, -0.0040)" d="M261 290c26 29 47 61 47 100c0 54 -57 85 -116 85c-46 0 -73 -35 -73 -69c0 -20 9 -40 29 -51zM293 272c54 -31 82 -79 82 -127c0 -74 -66 -145 -190 -145c-95 0 -185 53 -185 140c0 50 38 85 75 120c-40 28 -59 68 -59 106c0 68 60 134 176 134c81 0 163 -38 163 -110
c0 -47 -29 -84 -62 -118zM107 241c-32 -29 -61 -59 -61 -101c0 -69 66 -115 139 -115c54 0 85 41 85 81c0 24 -11 47 -35 61z" fill="currentColor"/>
<path transform="translate(5.1328, 3.7640) scale(0.0040, -0.0040)" d="M151 475c-29 0 -60 -8 -60 -33c0 -22 35 -25 35 -47c0 -31 -26 -57 -57 -57s-57 26 -57 57c0 65 68 105 139 105c92 0 170 -33 170 -114c0 -42 -5 -81 -42 -98c-10 -5 -15 -14 -15 -23s5 -18 15 -23c41 -19 57 -56 57 -102c0 -92 -80 -140 -180 -140
c-79 0 -156 43 -156 115c0 36 29 65 65 65s65 -29 65 -65c0 -25 -40 -29 -40 -54c0 -28 34 -36 66 -36c48 0 61 59 61 115v22c0 50 -3 88 -49 88h-78c-10 0 -15 7 -15 15s5 15 15 15h78c46 0 49 40 49 92v14c0 53 -18 89 -66 89z" fill="currentColor"/>
<path transform="translate(5.0000, 5.8126) scale(0.0040, -0.0040)" d="M194 120h120c0 -49 29 -95 75 -95c8 0 12 -7 12 -13s-4 -12 -12 -12c-45 0 -90 13 -135 13s-90 -13 -135 -13c-8 0 -12 6 -12 12s4 13 12 13c46 0 75 46 75 95zM203 301c22 15 45 30 61 51c12 15 19 34 27 51c2 4 5 6 9 6c6 0 14 -6 14 -15v-238h74c10 0 16 -8 16 -16
s-6 -15 -16 -15h-74v-5h-120v5h-163c-24 0 -33 15 -33 24c0 3 1 6 2 7c80 92 134 205 134 327c0 11 8 20 17 17c24 -7 48 -13 73 -13s48 6 72 13c2 1 4 1 6 1c9 0 14 -7 14 -13c0 -2 0 -3 -2 -5l-283 -327h163v122c0 9 2 18 9 23z" fill="currentColor"/>
<path transform="translate(83.0662, 3.7640) scale(0.0040, -0.0040)" d="M151 475c-29 0 -60 -8 -60 -33c0 -22 35 -25 35 -47c0 -31 -26 -57 -57 -57s-57 26 -57 57c0 65 68 105 139 105c92 0 170 -33 170 -114c0 -42 -5 -81 -42 -98c-10 -5 -15 -14 -15 -23s5 -18 15 -23c41 -19 57 -56 57 -102c0 -92 -80 -140 -180 -140
c-79 0 -156 43 -156 115c0 36 29 65 65 65s65 -29 65 -65c0 -25 -40 -29 -40 -54c0 -28 34 -36 66 -36c48 0 61 59 61 115v22c0 50 -3 88 -49 88h-78c-10 0 -15 7 -15 15s5 15 15 15h78c46 0 49 40 49 92v14c0 53 -18 89 -66 89z" fill="currentColor"/>
<path transform="translate(82.9334, 5.8126) scale(0.0040, -0.0040)" d="M194 120h120c0 -49 29 -95 75 -95c8 0 12 -7 12 -13s-4 -12 -12 -12c-45 0 -90 13 -135 13s-90 -13 -135 -13c-8 0 -12 6 -12 12s4 13 12 13c46 0 75 46 75 95zM203 301c22 15 45 30 61 51c12 15 19 34 27 51c2 4 5 6 9 6c6 0 14 -6 14 -15v-238h74c10 0 16 -8 16 -16
s-6 -15 -16 -15h-74v-5h-120v5h-163c-24 0 -33 15 -33 24c0 3 1 6 2 7c80 92 134 205 134 327c0 11 8 20 17 17c24 -7 48 -13 73 -13s48 6 72 13c2 1 4 1 6 1c9 0 14 -7 14 -13c0 -2 0 -3 -2 -5l-283 -327h163v122c0 9 2 18 9 23z" fill="currentColor"/>
<path transform="translate(83.0662, 3.7640) scale(0.0040, -0.0040)" d="M151 475c-29 0 -60 -8 -60 -33c0 -22 35 -25 35 -47c0 -31 -26 -57 -57 -57s-57 26 -57 57c0 65 68 105 139 105c92 0 170 -33 170 -114c0 -42 -5 -81 -42 -98c-10 -5 -15 -14 -15 -23s5 -18 15 -23c41 -19 57 -56 57 -102c0 -92 -80 -140 -180 -140
c-79 0 -156 43 -156 115c0 36 29 65 65 65s65 -29 65 -65c0 -25 -40 -29 -40 -54c0 -28 34 -36 66 -36c48 0 61 59 61 115v22c0 50 -3 88 -49 88h-78c-10 0 -15 7 -15 15s5 15 15 15h78c46 0 49 40 49 92v14c0 53 -18 89 -66 89z" fill="currentColor"/>
<path transform="translate(82.9334, 5.8126) scale(0.0040, -0.0040)" d="M194 120h120c0 -49 29 -95 75 -95c8 0 12 -7 12 -13s-4 -12 -12 -12c-45 0 -90 13 -135 13s-90 -13 -135 -13c-8 0 -12 6 -12 12s4 13 12 13c46 0 75 46 75 95zM203 301c22 15 45 30 61 51c12 15 19 34 27 51c2 4 5 6 9 6c6 0 14 -6 14 -15v-238h74c10 0 16 -8 16 -16
s-6 -15 -16 -15h-74v-5h-120v5h-163c-24 0 -33 15 -33 24c0 3 1 6 2 7c80 92 134 205 134 327c0 11 8 20 17 17c24 -7 48 -13 73 -13s48 6 72 13c2 1 4 1 6 1c9 0 14 -7 14 -13c0 -2 0 -3 -2 -5l-283 -327h163v122c0 9 2 18 9 23z" fill="currentColor"/>
<rect transform="translate(33.7695, 17.7640)" x="-0.0697" y="-0.5000" width="0.1395" height="3.3206" ry="0.0444" fill="currentColor"/>
<rect transform="translate(33.7695, 3.7640)" x="-0.0697" y="-0.5000" width="0.1395" height="3.3206" ry="0.0444" fill="currentColor"/>
<path transform="translate(32.5364, 20.7640) scale(0.0040, -0.0040)" d="M215 137c57 0 111 -29 111 -92c0 -71 -54 -120 -101 -148c-35 -21 -74 -34 -114 -34c-57 0 -111 29 -111 92c0 71 54 120 101 148c35 21 74 34 114 34z" fill="currentColor"/>
<path transform="translate(32.5364, 6.7640) scale(0.0040, -0.0040)" d="M215 137c57 0 111 -29 111 -92c0 -71 -54 -120 -101 -148c-35 -21 -74 -34 -114 -34c-57 0 -111 29 -111 92c0 71 54 120 101 148c35 21 74 34 114 34z" fill="currentColor"/>
<rect transform="translate(9.8473, 17.7640)" x="-0.0697" y="-0.5000" width="0.1395" height="3.2470" ry="0.0444" fill="currentColor"/>
<path transform="translate(45.5472, 17.7640) scale(0.0040, -0.0040)" d="M172 256c-49 0 -52 -40 -52 -94v-22v-21c0 -54 3 -94 52 -94c56 0 59 50 59 115s-3 116 -59 116zM120 267c17 7 34 14 52 14c102 0 171 -46 171 -141s-69 -140 -171 -140c-112 0 -172 124 -172 250c0 129 74 250 192 250c71 0 139 -40 139 -105c0 -36 -29 -65 -65 -65
s-65 29 -65 65c0 23 39 26 39 49c0 21 -24 31 -48 31c-64 0 -74 -62 -74 -134c0 -24 2 -49 2 -74z" fill="currentColor"/>
<path transform="translate(45.4903, 19.7747) scale(0.0040, -0.0040)" d="M261 290c26 29 47 61 47 100c0 54 -57 85 -116 85c-46 0 -73 -35 -73 -69c0 -20 9 -40 29 -51zM293 272c54 -31 82 -79 82 -127c0 -74 -66 -145 -190 -145c-95 0 -185 53 -185 140c0 50 38 85 75 120c-40 28 -59 68 -59 106c0 68 60 134 176 134c81 0 163 -38 163 -110
c0 -47 -29 -84 -62 -118zM107 241c-32 -29 -61 -59 -61 -101c0 -69 66 -115 139 -115c54 0 85 41 85 81c0 24 -11 47 -35 61z" fill="currentColor"/>
<rect transform="translate(50.2598, 17.7640)" x="-0.0697" y="-0.5000" width="0.1395" height="3.3206" ry="0.0444" fill="currentColor"/>
<rect transform="translate(50.2598, 3.7640)" x="-0.0697" y="-0.5000" width="0.1395" height="3.3206" ry="0.0444" fill="currentColor"/>
<path transform="translate(45.5472, 17.7640) scale(0.0040, -0.0040)" d="M172 256c-49 0 -52 -40 -52 -94v-22v-21c0 -54 3 -94 52 -94c56 0 59 50 59 115s-3 116 -59 116zM120 267c17 7 34 14 52 14c102 0 171 -46 171 -141s-69 -140 -171 -140c-112 0 -172 124 -172 250c0 129 74 250 192 250c71 0 139 -40 139 -105c0 -36 -29 -65 -65 -65
s-65 29 -65 65c0 23 39 26 39 49c0 21 -24 31 -48 31c-64 0 -74 -62 -74 -134c0 -24 2 -49 2 -74z" fill="currentColor"/>
<path transform="translate(45.4903, 19.7747) scale(0.0040, -0.0040)" d="M261 290c26 29 47 61 47 100c0 54 -57 85 -116 85c-46 0 -73 -35 -73 -69c0 -20 9 -40 29 -51zM293 272c54 -31 82 -79 82 -127c0 -74 -66 -145 -190 -145c-95 0 -185 53 -185 140c0 50 38 85 75 120c-40 28 -59 68 -59 106c0 68 60 134 176 134c81 0 163 -38 163 -110
c0 -47 -29 -84 -62 -118zM107 241c-32 -29 -61 -59 -61 -101c0 -69 66 -115 139 -115c54 0 85 41 85 81c0 24 -11 47 -35 61z" fill="currentColor"/>
<path transform="translate(49.0268, 20.7640) scale(0.0040, -0.0040)" d="M215 137c57 0 111 -29 111 -92c0 -71 -54 -120 -101 -148c-35 -21 -74 -34 -114 -34c-57 0 -111 29 -111 92c0 71 54 120 101 148c35 21 74 34 114 34z" fill="currentColor"/>
<path transform="translate(45.6231, 3.7640) scale(0.0040, -0.0040)" d="M151 475c-29 0 -60 -8 -60 -33c0 -22 35 -25 35 -47c0 -31 -26 -57 -57 -57s-57 26 -57 57c0 65 68 105 139 105c92 0 170 -33 170 -114c0 -42 -5 -81 -42 -98c-10 -5 -15 -14 -15 -23s5 -18 15 -23c41 -19 57 -56 57 -102c0 -92 -80 -140 -180 -140
c-79 0 -156 43 -156 115c0 36 29 65 65 65s65 -29 65 -65c0 -25 -40 -29 -40 -54c0 -28 34 -36 66 -36c48 0 61 59 61 115v22c0 50 -3 88 -49 88h-78c-10 0 -15 7 -15 15s5 15 15 15h78c46 0 49 40 49 92v14c0 53 -18 89 -66 89z" fill="currentColor"/>
<path transform="translate(45.4903, 5.8126) scale(0.0040, -0.0040)" d="M194 120h120c0 -49 29 -95 75 -95c8 0 12 -7 12 -13s-4 -12 -12 -12c-45 0 -90 13 -135 13s-90 -13 -135 -13c-8 0 -12 6 -12 12s4 13 12 13c46 0 75 46 75 95zM203 301c22 15 45 30 61 51c12 15 19 34 27 51c2 4 5 6 9 6c6 0 14 -6 14 -15v-238h74c10 0 16 -8 16 -16
s-6 -15 -16 -15h-74v-5h-120v5h-163c-24 0 -33 15 -33 24c0 3 1 6 2 7c80 92 134 205 134 327c0 11 8 20 17 17c24 -7 48 -13 73 -13s48 6 72 13c2 1 4 1 6 1c9 0 14 -7 14 -13c0 -2 0 -3 -2 -5l-283 -327h163v122c0 9 2 18 9 23z" fill="currentColor"/>
<path transform="translate(45.6231, 3.7640) scale(0.0040, -0.0040)" d="M151 475c-29 0 -60 -8 -60 -33c0 -22 35 -25 35 -47c0 -31 -26 -57 -57 -57s-57 26 -57 57c0 65 68 105 139 105c92 0 170 -33 170 -114c0 -42 -5 -81 -42 -98c-10 -5 -15 -14 -15 -23s5 -18 15 -23c41 -19 57 -56 57 -102c0 -92 -80 -140 -180 -140
c-79 0 -156 43 -156 115c0 36 29 65 65 65s65 -29 65 -65c0 -25 -40 -29 -40 -54c0 -28 34 -36 66 -36c48 0 61 59 61 115v22c0 50 -3 88 -49 88h-78c-10 0 -15 7 -15 15s5 15 15 15h78c46 0 49 40 49 92v14c0 53 -18 89 -66 89z" fill="currentColor"/>
<path transform="translate(45.4903, 5.8126) scale(0.0040, -0.0040)" d="M194 120h120c0 -49 29 -95 75 -95c8 0 12 -7 12 -13s-4 -12 -12 -12c-45 0 -90 13 -135 13s-90 -13 -135 -13c-8 0 -12 6 -12 12s4 13 12 13c46 0 75 46 75 95zM203 301c22 15 45 30 61 51c12 15 19 34 27 51c2 4 5 6 9 6c6 0 14 -6 14 -15v-238h74c10 0 16 -8 16 -16
s-6 -15 -16 -15h-74v-5h-120v5h-163c-24 0 -33 15 -33 24c0 3 1 6 2 7c80 92 134 205 134 327c0 11 8 20 17 17c24 -7 48 -13 73 -13s48 6 72 13c2 1 4 1 6 1c9 0 14 -7 14 -13c0 -2 0 -3 -2 -5l-283 -327h163v122c0 9 2 18 9 23z" fill="currentColor"/>
<path transform="translate(49.0268, 6.7640) scale(0.0040, -0.0040)" d="M215 137c57 0 111 -29 111 -92c0 -71 -54 -120 -101 -148c-35 -21 -74 -34 -114 -34c-57 0 -111 29 -111 92c0 71 54 120 101 148c35 21 74 34 114 34z" fill="currentColor"/>
<rect transform="translate(-0.0717, 10.7640)" x="0.0000" y="-9.0537" width="0.1717" height="18.1073" ry="0.0537" fill="currentColor"/>
<path transform="translate(61.0268, 6.7640) scale(0.0040, -0.0040)" d="M312 64c0 24 -20 41 -41 41c-4 0 -8 -1 -12 -2c-30 -9 -77 -38 -113 -62s-83 -54 -103 -78c-7 -8 -10 -17 -10 -27c0 -24 20 -41 41 -41c4 0 8 1 12 2c30 9 77 38 113 62s83 54 103 78c7 8 10 17 10 27zM259 137c48 0 86 -22 86 -74c0 -18 -4 -38 -10 -56
c-12 -38 -30 -73 -63 -95c-53 -36 -113 -49 -186 -49c-48 0 -86 22 -86 74c0 18 4 38 10 56c12 38 31 73 64 95c53 36 112 49 185 49z" fill="currentColor"/>
<rect transform="translate(62.3376, 17.7640)" x="-0.0697" y="-0.5000" width="0.1395" height="3.2470" ry="0.0444" fill="currentColor"/>
<rect transform="translate(62.3376, 3.7640)" x="-0.0697" y="-0.5000" width="0.1395" height="3.2470" ry="0.0444" fill="currentColor"/>
<path transform="translate(61.0268, 20.7640) scale(0.0040, -0.0040)" d="M312 64c0 24 -20 41 -41 41c-4 0 -8 -1 -12 -2c-30 -9 -77 -38 -113 -62s-83 -54 -103 -78c-7 -8 -10 -17 -10 -27c0 -24 20 -41 41 -41c4 0 8 1 12 2c30 9 77 38 113 62s83 54 103 78c7 8 10 17 10 27zM259 137c48 0 86 -22 86 -74c0 -18 -4 -38 -10 -56
c-12 -38 -30 -73 -63 -95c-53 -36 -113 -49 -186 -49c-48 0 -86 22 -86 74c0 18 4 38 10 56c12 38 31 73 64 95c53 36 112 49 185 49z" fill="currentColor"/>
<path transform="translate(8.5364, 6.7640) scale(0.0040, -0.0040)" d="M312 64c0 24 -20 41 -41 41c-4 0 -8 -1 -12 -2c-30 -9 -77 -38 -113 -62s-83 -54 -103 -78c-7 -8 -10 -17 -10 -27c0 -24 20 -41 41 -41c4 0 8 1 12 2c30 9 77 38 113 62s83 54 103 78c7 8 10 17 10 27zM259 137c48 0 86 -22 86 -74c0 -18 -4 -38 -10 -56
c-12 -38 -30 -73 -63 -95c-53 -36 -113 -49 -186 -49c-48 0 -86 22 -86 74c0 18 4 38 10 56c12 38 31 73 64 95c53 36 112 49 185 49z" fill="currentColor"/>
<g color="rgb(49.8039%, 49.8039%, 49.8039%)">
<line transform="translate(0.0000, 27.1140)" stroke-linejoin="round" stroke-linecap="round" stroke-width="0.1073" stroke="currentColor" x1="0.0537" y1="-0.0000" x2="84.9731" y2="-0.0000"/>
<line transform="translate(0.0000, 26.1140)" stroke-linejoin="round" stroke-linecap="round" stroke-width="0.1073" stroke="currentColor" x1="0.0537" y1="-0.0000" x2="84.9731" y2="-0.0000"/>
<line transform="translate(0.0000, 25.1140)" stroke-linejoin="round" stroke-linecap="round" stroke-width="0.1073" stroke="currentColor" x1="0.0537" y1="-0.0000" x2="84.9731" y2="-0.0000"/>
<line transform="translate(0.0000, 24.1140)" stroke-linejoin="round" stroke-linecap="round" stroke-width="0.1073" stroke="currentColor" x1="0.0537" y1="-0.0000" x2="84.9731" y2="-0.0000"/>
<line transform="translate(0.0000, 23.1140)" stroke-linejoin="round" stroke-linecap="round" stroke-width="0.1073" stroke="currentColor" x1="0.0537" y1="-0.0000" x2="84.9731" y2="-0.0000"/>
</g>
<g color="rgb(49.8039%, 49.8039%, 49.8039%)">
<line transform="translate(0.0000, 41.1140)" stroke-linejoin="round" stroke-linecap="round" stroke-width="0.1073" stroke="currentColor" x1="0.0537" y1="-0.0000" x2="84.9731" y2="-0.0000"/>
<line transform="translate(0.0000, 40.1140)" stroke-linejoin="round" stroke-linecap="round" stroke-width="0.1073" stroke="currentColor" x1="0.0537" y1="-0.0000" x2="84.9731" y2="-0.0000"/>
<line transform="translate(0.0000, 39.1140)" stroke-linejoin="round" stroke-linecap="round" stroke-width="0.1073" stroke="currentColor" x1="0.0537" y1="-0.0000" x2="84.9731" y2="-0.0000"/>
<line transform="translate(0.0000, 38.1140)" stroke-linejoin="round" stroke-linecap="round" stroke-width="0.1073" stroke="currentColor" x1="0.0537" y1="-0.0000" x2="84.9731" y2="-0.0000"/>
<line transform="translate(0.0000, 37.1140)" stroke-linejoin="round" stroke-linecap="round" stroke-width="0.1073" stroke="currentColor" x1="0.0537" y1="-0.0000" x2="84.9731" y2="-0.0000"/>
</g>
<rect transform="translate(44.5364, 25.1140)" x="0.0000" y="-2.0537" width="0.2039" height="4.1073" ry="0.0000" fill="currentColor"/>
<rect transform="translate(81.9795, 39.1140)" x="0.0000" y="-2.0537" width="0.2039" height="4.1073" ry="0.0000" fill="currentColor"/>
<rect transform="translate(81.9795, 25.1140)" x="0.0000" y="-2.0537" width="0.2039" height="4.1073" ry="0.0000" fill="currentColor"/>
<rect transform="translate(44.5364, 39.1140)" x="0.0000" y="-2.0537" width="0.2039" height="4.1073" ry="0.0000" fill="currentColor"/>
<rect transform="translate(0.0000, 28.1140)" x="78.7011" y="-0.1037" width="1.9542" height="0.2073" ry="0.1037" fill="currentColor"/>
<rect transform="translate(0.0000, 28.1140)" x="72.7011" y="-0.1037" width="1.9542" height="0.2073" ry="0.1037" fill="currentColor"/>
<rect transform="translate(0.0000, 28.1140)" x="48.6816" y="-0.1037" width="2.0709" height="0.2073" ry="0.1037" fill="currentColor"/>
<rect transform="translate(0.0000, 28.1140)" x="26.2107" y="-0.1037" width="1.9542" height="0.2073" ry="0.1037" fill="currentColor"/>
<rect transform="translate(0.0000, 28.1140)" x="8.2107" y="-0.1037" width="1.9542" height="0.2073" ry="0.1037" fill="currentColor"/>
<rect transform="translate(0.0000, 42.1140)" x="78.7011" y="-0.1037" width="1.9542" height="0.2073" ry="0.1037" fill="currentColor"/>
<rect transform="translate(0.0000, 42.1140)" x="72.7011" y="-0.1037" width="1.9542" height="0.2073" ry="0.1037" fill="currentColor"/>
<rect transform="translate(0.0000, 42.1140)" x="48.6816" y="-0.1037" width="2.0709" height="0.2073" ry="0.1037" fill="currentColor"/>
<rect transform="translate(0.0000, 42.1140)" x="26.2107" y="-0.1037" width="1.9542" height="0.2073" ry="0.1037" fill="currentColor"/>
<rect transform="translate(0.0000, 42.1140)" x="8.2107" y="-0.1037" width="1.9542" height="0.2073" ry="0.1037" fill="currentColor"/>
<path transform="translate(73.0268, 42.1140) scale(0.0040, -0.0040)" d="M215 137c57 0 111 -29 111 -92c0 -71 -54 -120 -101 -148c-35 -21 -74 -34 -114 -34c-57 0 -111 29 -111 92c0 71 54 120 101 148c35 21 74 34 114 34z" fill="currentColor"/>
<rect transform="translate(74.2598, 25.1140)" x="-0.0697" y="-0.0000" width="0.1395" height="2.8206" ry="0.0444" fill="currentColor"/>
<rect transform="translate(74.2598, 39.1140)" x="-0.0697" y="-0.0000" width="0.1395" height="2.8206" ry="0.0444" fill="currentColor"/>
<path transform="translate(73.0268, 28.1140) scale(0.0040, -0.0040)" d="M215 137c57 0 111 -29 111 -92c0 -71 -54 -120 -101 -148c-35 -21 -74 -34 -114 -34c-57 0 -111 29 -111 92c0 71 54 120 101 148c35 21 74 34 114 34z" fill="currentColor"/>
<path transform="translate(79.0268, 28.1140) scale(0.0040, -0.0040)" d="M215 137c57 0 111 -29 111 -92c0 -71 -54 -120 -101 -148c-35 -21 -74 -34 -114 -34c-57 0 -111 29 -111 92c0 71 54 120 101 148c35 21 74 34 114 34z" fill="currentColor"/>
<path transform="translate(79.0268, 42.1140) scale(0.0040, -0.0040)" d="M215 137c57 0 111 -29 111 -92c0 -71 -54 -120 -101 -148c-35 -21 -74 -34 -114 -34c-57 0 -111 29 -111 92c0 71 54 120 101 148c35 21 74 34 114 34z" fill="currentColor"/>
<rect transform="translate(80.2598, 25.1140)" x="-0.0697" y="-0.0000" width="0.1395" height="2.8206" ry="0.0444" fill="currentColor"/>
<rect transform="translate(50.3376, 39.1140)" x="-0.0697" y="-0.5000" width="0.1395" height="3.2470" ry="0.0444" fill="currentColor"/>
<path transform="translate(49.0268, 25.1140)" stroke-width="0.0858" stroke-linejoin="round" stroke-linecap="round" stroke="currentColor" fill="currentColor" d="M0.8903 3.7500C2.4736 4.7628 22.8681 4.7628 24.4514 3.7500L24.4514 3.7500C22.8681 4.6341 2.4736 4.6341 0.8903 3.7500z"/>
<path transform="translate(49.0268, 39.1140)" stroke-width="0.0858" stroke-linejoin="round" stroke-linecap="round" stroke="currentColor" fill="currentColor" d="M0.8903 3.7500C2.4736 4.7628 22.8681 4.7628 24.4514 3.7500L24.4514 3.7500C22.8681 4.6341 2.4736 4.6341 0.8903 3.7500z"/>
<polygon transform="translate(74.1901, 25.1140)" stroke-linejoin="round" stroke-linecap="round" stroke-width="0.0889" fill="currentColor" stroke="currentColor" points="6.0950 -0.3306 6.0950 0.3306 0.0444 0.3306 0.0444 -0.3306"/>
<polygon transform="translate(74.1901, 39.1140)" stroke-linejoin="round" stroke-linecap="round" stroke-width="0.0889" fill="currentColor" stroke="currentColor" points="6.0950 -0.3306 6.0950 0.3306 0.0444 0.3306 0.0444 -0.3306"/>
<path transform="translate(82.9903, 39.1140) scale(0.0040, -0.0040)" d="M172 256c-49 0 -52 -40 -52 -94v-22v-21c0 -54 3 -94 52 -94c56 0 59 50 59 115s-3 116 -59 116zM120 267c17 7 34 14 52 14c102 0 171 -46 171 -141s-69 -140 -171 -140c-112 0 -172 124 -172 250c0 129 74 250 192 250c71 0 139 -40 139 -105c0 -36 -29 -65 -65 -65
s-65 29 -65 65c0 23 39 26 39 49c0 21 -24 31 -48 31c-64 0 -74 -62 -74 -134c0 -24 2 -49 2 -74z" fill="currentColor"/>
<path transform="translate(82.9334, 41.1247) scale(0.0040, -0.0040)" d="M261 290c26 29 47 61 47 100c0 54 -57 85 -116 85c-46 0 -73 -35 -73 -69c0 -20 9 -40 29 -51zM293 272c54 -31 82 -79 82 -127c0 -74 -66 -145 -190 -145c-95 0 -185 53 -185 140c0 50 38 85 75 120c-40 28 -59 68 -59 106c0 68 60 134 176 134c81 0 163 -38 163 -110
c0 -47 -29 -84 -62 -118zM107 241c-32 -29 -61 -59 -61 -101c0 -69 66 -115 139 -115c54 0 85 41 85 81c0 24 -11 47 -35 61z" fill="currentColor"/>
<path transform="translate(82.9903, 39.1140) scale(0.0040, -0.0040)" d="M172 256c-49 0 -52 -40 -52 -94v-22v-21c0 -54 3 -94 52 -94c56 0 59 50 59 115s-3 116 -59 116zM120 267c17 7 34 14 52 14c102 0 171 -46 171 -141s-69 -140 -171 -140c-112 0 -172 124 -172 250c0 129 74 250 192 250c71 0 139 -40 139 -105c0 -36 -29 -65 -65 -65
s-65 29 -65 65c0 23 39 26 39 49c0 21 -24 31 -48 31c-64 0 -74 -62 -74 -134c0 -24 2 -49 2 -74z" fill="currentColor"/>
<path transform="translate(82.9334, 41.1247) scale(0.0040, -0.0040)" d="M261 290c26 29 47 61 47 100c0 54 -57 85 -116 85c-46 0 -73 -35 -73 -69c0 -20 9 -40 29 -51zM293 272c54 -31 82 -79 82 -127c0 -74 -66 -145 -190 -145c-95 0 -185 53 -185 140c0 50 38 85 75 120c-40 28 -59 68 -59 106c0 68 60 134 176 134c81 0 163 -38 163 -110
c0 -47 -29 -84 -62 -118zM107 241c-32 -29 -61 -59 -61 -101c0 -69 66 -115 139 -115c54 0 85 41 85 81c0 24 -11 47 -35 61z" fill="currentColor"/>
<path transform="translate(83.0662, 25.1140) scale(0.0040, -0.0040)" d="M151 475c-29 0 -60 -8 -60 -33c0 -22 35 -25 35 -47c0 -31 -26 -57 -57 -57s-57 26 -57 57c0 65 68 105 139 105c92 0 170 -33 170 -114c0 -42 -5 -81 -42 -98c-10 -5 -15 -14 -15 -23s5 -18 15 -23c41 -19 57 -56 57 -102c0 -92 -80 -140 -180 -140
c-79 0 -156 43 -156 115c0 36 29 65 65 65s65 -29 65 -65c0 -25 -40 -29 -40 -54c0 -28 34 -36 66 -36c48 0 61 59 61 115v22c0 50 -3 88 -49 88h-78c-10 0 -15 7 -15 15s5 15 15 15h78c46 0 49 40 49 92v14c0 53 -18 89 -66 89z" fill="currentColor"/>
<path transform="translate(82.9334, 27.1626) scale(0.0040, -0.0040)" d="M194 120h120c0 -49 29 -95 75 -95c8 0 12 -7 12 -13s-4 -12 -12 -12c-45 0 -90 13 -135 13s-90 -13 -135 -13c-8 0 -12 6 -12 12s4 13 12 13c46 0 75 46 75 95zM203 301c22 15 45 30 61 51c12 15 19 34 27 51c2 4 5 6 9 6c6 0 14 -6 14 -15v-238h74c10 0 16 -8 16 -16
s-6 -15 -16 -15h-74v-5h-120v5h-163c-24 0 -33 15 -33 24c0 3 1 6 2 7c80 92 134 205 134 327c0 11 8 20 17 17c24 -7 48 -13 73 -13s48 6 72 13c2 1 4 1 6 1c9 0 14 -7 14 -13c0 -2 0 -3 -2 -5l-283 -327h163v122c0 9 2 18 9 23z" fill="currentColor"/>
<path transform="translate(83.0662, 25.1140) scale(0.0040, -0.0040)" d="M151 475c-29 0 -60 -8 -60 -33c0 -22 35 -25 35 -47c0 -31 -26 -57 -57 -57s-57 26 -57 57c0 65 68 105 139 105c92 0 170 -33 170 -114c0 -42 -5 -81 -42 -98c-10 -5 -15 -14 -15 -23s5 -18 15 -23c41 -19 57 -56 57 -102c0 -92 -80 -140 -180 -140
c-79 0 -156 43 -156 115c0 36 29 65 65 65s65 -29 65 -65c0 -25 -40 -29 -40 -54c0 -28 34 -36 66 -36c48 0 61 59 61 115v22c0 50 -3 88 -49 88h-78c-10 0 -15 7 -15 15s5 15 15 15h78c46 0 49 40 49 92v14c0 53 -18 89 -66 89z" fill="currentColor"/>
<path transform="translate(82.9334, 27.1626) scale(0.0040, -0.0040)" d="M194 120h120c0 -49 29 -95 75 -95c8 0 12 -7 12 -13s-4 -12 -12 -12c-45 0 -90 13 -135 13s-90 -13 -135 -13c-8 0 -12 6 -12 12s4 13 12 13c46 0 75 46 75 95zM203 301c22 15 45 30 61 51c12 15 19 34 27 51c2 4 5 6 9 6c6 0 14 -6 14 -15v-238h74c10 0 16 -8 16 -16
s-6 -15 -16 -15h-74v-5h-120v5h-163c-24 0 -33 15 -33 24c0 3 1 6 2 7c80 92 134 205 134 327c0 11 8 20 17 17c24 -7 48 -13 73 -13s48 6 72 13c2 1 4 1 6 1c9 0 14 -7 14 -13c0 -2 0 -3 -2 -5l-283 -327h163v122c0 9 2 18 9 23z" fill="currentColor"/>
<rect transform="translate(80.2598, 39.1140)" x="-0.0697" y="-0.0000" width="0.1395" height="2.8206" ry="0.0444" fill="currentColor"/>
<path transform="translate(8.5364, 28.1140) scale(0.0040, -0.0040)" d="M215 137c57 0 111 -29 111 -92c0 -71 -54 -120 -101 -148c-35 -21 -74 -34 -114 -34c-57 0 -111 29 -111 92c0 71 54 120 101 148c35 21 74 34 114 34z" fill="currentColor"/>
<path transform="translate(8.5364, 42.1140) scale(0.0040, -0.0040)" d="M215 137c57 0 111 -29 111 -92c0 -71 -54 -120 -101 -148c-35 -21 -74 -34 -114 -34c-57 0 -111 29 -111 92c0 71 54 120 101 148c35 21 74 34 114 34z" fill="currentColor"/>
<path transform="translate(10.2852, 27.6140) scale(0.0040, -0.0040)" d="M0 0c0 31 25 56 56 56s55 -25 55 -56s-24 -56 -55 -56s-56 25 -56 56z" fill="currentColor"/>
<rect transform="translate(9.7695, 25.1140)" x="-0.0697" y="-0.5000" width="0.1395" height="3.3206" ry="0.0444" fill="currentColor"/>
<path transform="translate(10.2852, 41.6140) scale(0.0040, -0.0040)" d="M0 0c0 31 25 56 56 56s55 -25 55 -56s-24 -56 -55 -56s-56 25 -56 56z" fill="currentColor"/>
<rect transform="translate(9.7695, 39.1140)" x="-0.0697" y="-0.5000" width="0.1395" height="3.3206" ry="0.0444" fill="currentColor"/>
<path transform="translate(0.8000, 40.1140) scale(0.0040, -0.0040)" d="M378 263c4 0 7 1 11 1c156 0 257 -129 257 -262c0 -76 -34 -154 -108 -210c-22 -17 -46 -29 -72 -37c3 -34 4 -68 4 -102c0 -20 0 -40 -1 -60c-7 -121 -90 -228 -209 -228c-108 0 -196 87 -196 196c0 58 53 104 112 104c54 0 95 -48 95 -104c0 -52 -43 -95 -95 -95
c-10 0 -20 2 -29 6c26 -38 68 -63 116 -63h3c93 2 153 92 159 190c1 19 2 37 2 56c0 30 -2 60 -4 90c-29 -5 -58 -8 -88 -8c-188 0 -333 173 -333 375c0 177 130 307 246 442c-20 62 -38 125 -46 190c-6 52 -7 104 -7 157c0 115 55 223 148 290c7 5 16 4 22 -1
c71 -83 134 -244 134 -357c0 -143 -85 -255 -178 -364c21 -68 40 -137 57 -206zM462 -202c67 24 111 94 111 162c0 89 -65 178 -170 190c24 -115 46 -230 59 -352zM75 26c0 -134 129 -245 263 -245c28 0 55 2 81 6c-14 126 -36 244 -61 363c-79 -8 -124 -61 -124 -119
c0 -43 25 -89 80 -121c5 -5 7 -11 7 -16c0 -12 -10 -23 -22 -23c-3 0 -6 1 -9 2c-81 43 -118 116 -118 186c0 89 58 175 161 198c-14 58 -29 116 -46 173c-106 -122 -212 -244 -212 -404zM244 785c0 -73 20 -132 38 -191c79 97 144 199 144 324c0 53 -4 76 -20 124
c-99 -47 -162 -148 -162 -257z" fill="currentColor"/>
<path transform="translate(0.8000, 26.1140) scale(0.0040, -0.0040)" d="M378 263c4 0 7 1 11 1c156 0 257 -129 257 -262c0 -76 -34 -154 -108 -210c-22 -17 -46 -29 -72 -37c3 -34 4 -68 4 -102c0 -20 0 -40 -1 -60c-7 -121 -90 -228 -209 -228c-108 0 -196 87 -196 196c0 58 53 104 112 104c54 0 95 -48 95 -104c0 -52 -43 -95 -95 -95
c-10 0 -20 2 -29 6c26 -38 68 -63 116 -63h3c93 2 153 92 159 190c1 19 2 37 2 56c0 30 -2 60 -4 90c-29 -5 -58 -8 -88 -8c-188 0 -333 173 -333 375c0 177 130 307 246 442c-20 62 -38 125 -46 190c-6 52 -7 104 -7 157c0 115 55 223 148 290c7 5 16 4 22 -1
c71 -83 134 -244 134 -357c0 -143 -85 -255 -178 -364c21 -68 40 -137 57 -206zM462 -202c67 24 111 94 111 162c0 89 -65 178 -170 190c24 -115 46 -230 59 -352zM75 26c0 -134 129 -245 263 -245c28 0 55 2 81 6c-14 126 -36 244 -61 363c-79 -8 -124 -61 -124 -119
c0 -43 25 -89 80 -121c5 -5 7 -11 7 -16c0 -12 -10 -23 -22 -23c-3 0 -6 1 -9 2c-81 43 -118 116 -118 186c0 89 58 175 161 198c-14 58 -29 116 -46 173c-106 -122 -212 -244 -212 -404zM244 785c0 -73 20 -132 38 -191c79 97 144 199 144 324c0 53 -4 76 -20 124
c-99 -47 -162 -148 -162 -257z" fill="currentColor"/>
<path transform="translate(5.0569, 39.1140) scale(0.0040, -0.0040)" d="M172 256c-49 0 -52 -40 -52 -94v-22v-21c0 -54 3 -94 52 -94c56 0 59 50 59 115s-3 116 -59 116zM120 267c17 7 34 14 52 14c102 0 171 -46 171 -141s-69 -140 -171 -140c-112 0 -172 124 -172 250c0 129 74 250 192 250c71 0 139 -40 139 -105c0 -36 -29 -65 -65 -65
s-65 29 -65 65c0 23 39 26 39 49c0 21 -24 31 -48 31c-64 0 -74 -62 -74 -134c0 -24 2 -49 2 -74z" fill="currentColor"/>
<path transform="translate(5.0000, 41.1247) scale(0.0040, -0.0040)" d="M261 290c26 29 47 61 47 100c0 54 -57 85 -116 85c-46 0 -73 -35 -73 -69c0 -20 9 -40 29 -51zM293 272c54 -31 82 -79 82 -127c0 -74 -66 -145 -190 -145c-95 0 -185 53 -185 140c0 50 38 85 75 120c-40 28 -59 68 -59 106c0 68 60 134 176 134c81 0 163 -38 163 -110
c0 -47 -29 -84 -62 -118zM107 241c-32 -29 -61 -59 -61 -101c0 -69 66 -115 139 -115c54 0 85 41 85 81c0 24 -11 47 -35 61z" fill="currentColor"/>
<path transform="translate(5.0569, 39.1140) scale(0.0040, -0.0040)" d="M172 256c-49 0 -52 -40 -52 -94v-22v-21c0 -54 3 -94 52 -94c56 0 59 50 59 115s-3 116 -59 116zM120 267c17 7 34 14 52 14c102 0 171 -46 171 -141s-69 -140 -171 -140c-112 0 -172 124 -172 250c0 129 74 250 192 250c71 0 139 -40 139 -105c0 -36 -29 -65 -65 -65
s-65 29 -65 65c0 23 39 26 39 49c0 21 -24 31 -48 31c-64 0 -74 -62 -74 -134c0 -24 2 -49 2 -74z" fill="currentColor"/>
<path transform="translate(5.0000, 41.1247) scale(0.0040, -0.0040)" d="M261 290c26 29 47 61 47 100c0 54 -57 85 -116 85c-46 0 -73 -35 -73 -69c0 -20 9 -40 29 -51zM293 272c54 -31 82 -79 82 -127c0 -74 -66 -145 -190 -145c-95 0 -185 53 -185 140c0 50 38 85 75 120c-40 28 -59 68 -59 106c0 68 60 134 176 134c81 0 163 -38 163 -110
c0 -47 -29 -84 -62 -118zM107 241c-32 -29 -61 -59 -61 -101c0 -69 66 -115 139 -115c54 0 85 41 85 81c0 24 -11 47 -35 61z" fill="currentColor"/>
<path transform="translate(5.1328, 25.1140) scale(0.0040, -0.0040)" d="M151 475c-29 0 -60 -8 -60 -33c0 -22 35 -25 35 -47c0 -31 -26 -57 -57 -57s-57 26 -57 57c0 65 68 105 139 105c92 0 170 -33 170 -114c0 -42 -5 -81 -42 -98c-10 -5 -15 -14 -15 -23s5 -18 15 -23c41 -19 57 -56 57 -102c0 -92 -80 -140 -180 -140
c-79 0 -156 43 -156 115c0 36 29 65 65 65s65 -29 65 -65c0 -25 -40 -29 -40 -54c0 -28 34 -36 66 -36c48 0 61 59 61 115v22c0 50 -3 88 -49 88h-78c-10 0 -15 7 -15 15s5 15 15 15h78c46 0 49 40 49 92v14c0 53 -18 89 -66 89z" fill="currentColor"/>
<path transform="translate(5.0000, 27.1626) scale(0.0040, -0.0040)" d="M194 120h120c0 -49 29 -95 75 -95c8 0 12 -7 12 -13s-4 -12 -12 -12c-45 0 -90 13 -135 13s-90 -13 -135 -13c-8 0 -12 6 -12 12s4 13 12 13c46 0 75 46 75 95zM203 301c22 15 45 30 61 51c12 15 19 34 27 51c2 4 5 6 9 6c6 0 14 -6 14 -15v-238h74c10 0 16 -8 16 -16
s-6 -15 -16 -15h-74v-5h-120v5h-163c-24 0 -33 15 -33 24c0 3 1 6 2 7c80 92 134 205 134 327c0 11 8 20 17 17c24 -7 48 -13 73 -13s48 6 72 13c2 1 4 1 6 1c9 0 14 -7 14 -13c0 -2 0 -3 -2 -5l-283 -327h163v122c0 9 2 18 9 23z" fill="currentColor"/>
<path transform="translate(5.1328, 25.1140) scale(0.0040, -0.0040)" d="M151 475c-29 0 -60 -8 -60 -33c0 -22 35 -25 35 -47c0 -31 -26 -57 -57 -57s-57 26 -57 57c0 65 68 105 139 105c92 0 170 -33 170 -114c0 -42 -5 -81 -42 -98c-10 -5 -15 -14 -15 -23s5 -18 15 -23c41 -19 57 -56 57 -102c0 -92 -80 -140 -180 -140
c-79 0 -156 43 -156 115c0 36 29 65 65 65s65 -29 65 -65c0 -25 -40 -29 -40 -54c0 -28 34 -36 66 -36c48 0 61 59 61 115v22c0 50 -3 88 -49 88h-78c-10 0 -15 7 -15 15s5 15 15 15h78c46 0 49 40 49 92v14c0 53 -18 89 -66 89z" fill="currentColor"/>
<path transform="translate(5.0000, 27.1626) scale(0.0040, -0.0040)" d="M194 120h120c0 -49 29 -95 75 -95c8 0 12 -7 12 -13s-4 -12 -12 -12c-45 0 -90 13 -135 13s-90 -13 -135 -13c-8 0 -12 6 -12 12s4 13 12 13c46 0 75 46 75 95zM203 301c22 15 45 30 61 51c12 15 19 34 27 51c2 4 5 6 9 6c6 0 14 -6 14 -15v-238h74c10 0 16 -8 16 -16
s-6 -15 -16 -15h-74v-5h-120v5h-163c-24 0 -33 15 -33 24c0 3 1 6 2 7c80 92 134 205 134 327c0 11 8 20 17 17c24 -7 48 -13 73 -13s48 6 72 13c2 1 4 1 6 1c9 0 14 -7 14 -13c0 -2 0 -3 -2 -5l-283 -327h163v122c0 9 2 18 9 23z" fill="currentColor"/>
<rect transform="translate(-0.0717, 32.1140)" x="0.0000" y="-9.0537" width="0.1717" height="18.1073" ry="0.0537" fill="currentColor"/>
<rect transform="translate(50.3376, 25.1140)" x="-0.0697" y="-0.5000" width="0.1395" height="3.2470" ry="0.0444" fill="currentColor"/>
<path transform="translate(45.5472, 39.1140) scale(0.0040, -0.0040)" d="M172 256c-49 0 -52 -40 -52 -94v-22v-21c0 -54 3 -94 52 -94c56 0 59 50 59 115s-3 116 -59 116zM120 267c17 7 34 14 52 14c102 0 171 -46 171 -141s-69 -140 -171 -140c-112 0 -172 124 -172 250c0 129 74 250 192 250c71 0 139 -40 139 -105c0 -36 -29 -65 -65 -65
s-65 29 -65 65c0 23 39 26 39 49c0 21 -24 31 -48 31c-64 0 -74 -62 -74 -134c0 -24 2 -49 2 -74z" fill="currentColor"/>
<path transform="translate(45.4903, 41.1247) scale(0.0040, -0.0040)" d="M261 290c26 29 47 61 47 100c0 54 -57 85 -116 85c-46 0 -73 -35 -73 -69c0 -20 9 -40 29 -51zM293 272c54 -31 82 -79 82 -127c0 -74 -66 -145 -190 -145c-95 0 -185 53 -185 140c0 50 38 85 75 120c-40 28 -59 68 -59 106c0 68 60 134 176 134c81 0 163 -38 163 -110
c0 -47 -29 -84 -62 -118zM107 241c-32 -29 -61 -59 -61 -101c0 -69 66 -115 139 -115c54 0 85 41 85 81c0 24 -11 47 -35 61z" fill="currentColor"/>
<path transform="translate(45.5472, 39.1140) scale(0.0040, -0.0040)" d="M172 256c-49 0 -52 -40 -52 -94v-22v-21c0 -54 3 -94 52 -94c56 0 59 50 59 115s-3 116 -59 116zM120 267c17 7 34 14 52 14c102 0 171 -46 171 -141s-69 -140 -171 -140c-112 0 -172 124 -172 250c0 129 74 250 192 250c71 0 139 -40 139 -105c0 -36 -29 -65 -65 -65
s-65 29 -65 65c0 23 39 26 39 49c0 21 -24 31 -48 31c-64 0 -74 -62 -74 -134c0 -24 2 -49 2 -74z" fill="currentColor"/>
<path transform="translate(45.4903, 41.1247) scale(0.0040, -0.0040)" d="M261 290c26 29 47 61 47 100c0 54 -57 85 -116 85c-46 0 -73 -35 -73 -69c0 -20 9 -40 29 -51zM293 272c54 -31 82 -79 82 -127c0 -74 -66 -145 -190 -145c-95 0 -185 53 -185 140c0 50 38 85 75 120c-40 28 -59 68 -59 106c0 68 60 134 176 134c81 0 163 -38 163 -110
c0 -47 -29 -84 -62 -118zM107 241c-32 -29 -61 -59 -61 -101c0 -69 66 -115 139 -115c54 0 85 41 85 81c0 24 -11 47 -35 61z" fill="currentColor"/>
<path transform="translate(49.0268, 42.1140) scale(0.0040, -0.0040)" d="M312 64c0 24 -20 41 -41 41c-4 0 -8 -1 -12 -2c-30 -9 -77 -38 -113 -62s-83 -54 -103 -78c-7 -8 -10 -17 -10 -27c0 -24 20 -41 41 -41c4 0 8 1 12 2c30 9 77 38 113 62s83 54 103 78c7 8 10 17 10 27zM259 137c48 0 86 -22 86 -74c0 -18 -4 -38 -10 -56
c-12 -38 -30 -73 -63 -95c-53 -36 -113 -49 -186 -49c-48 0 -86 22 -86 74c0 18 4 38 10 56c12 38 31 73 64 95c53 36 112 49 185 49z" fill="currentColor"/>
<path transform="translate(45.6231, 25.1140) scale(0.0040, -0.0040)" d="M151 475c-29 0 -60 -8 -60 -33c0 -22 35 -25 35 -47c0 -31 -26 -57 -57 -57s-57 26 -57 57c0 65 68 105 139 105c92 0 170 -33 170 -114c0 -42 -5 -81 -42 -98c-10 -5 -15 -14 -15 -23s5 -18 15 -23c41 -19 57 -56 57 -102c0 -92 -80 -140 -180 -140
c-79 0 -156 43 -156 115c0 36 29 65 65 65s65 -29 65 -65c0 -25 -40 -29 -40 -54c0 -28 34 -36 66 -36c48 0 61 59 61 115v22c0 50 -3 88 -49 88h-78c-10 0 -15 7 -15 15s5 15 15 15h78c46 0 49 40 49 92v14c0 53 -18 89 -66 89z" fill="currentColor"/>
<path transform="translate(45.4903, 27.1626) scale(0.0040, -0.0040)" d="M194 120h120c0 -49 29 -95 75 -95c8 0 12 -7 12 -13s-4 -12 -12 -12c-45 0 -90 13 -135 13s-90 -13 -135 -13c-8 0 -12 6 -12 12s4 13 12 13c46 0 75 46 75 95zM203 301c22 15 45 30 61 51c12 15 19 34 27 51c2 4 5 6 9 6c6 0 14 -6 14 -15v-238h74c10 0 16 -8 16 -16
s-6 -15 -16 -15h-74v-5h-120v5h-163c-24 0 -33 15 -33 24c0 3 1 6 2 7c80 92 134 205 134 327c0 11 8 20 17 17c24 -7 48 -13 73 -13s48 6 72 13c2 1 4 1 6 1c9 0 14 -7 14 -13c0 -2 0 -3 -2 -5l-283 -327h163v122c0 9 2 18 9 23z" fill="currentColor"/>
<path transform="translate(45.6231, 25.1140) scale(0.0040, -0.0040)" d="M151 475c-29 0 -60 -8 -60 -33c0 -22 35 -25 35 -47c0 -31 -26 -57 -57 -57s-57 26 -57 57c0 65 68 105 139 105c92 0 170 -33 170 -114c0 -42 -5 -81 -42 -98c-10 -5 -15 -14 -15 -23s5 -18 15 -23c41 -19 57 -56 57 -102c0 -92 -80 -140 -180 -140
c-79 0 -156 43 -156 115c0 36 29 65 65 65s65 -29 65 -65c0 -25 -40 -29 -40 -54c0 -28 34 -36 66 -36c48 0 61 59 61 115v22c0 50 -3 88 -49 88h-78c-10 0 -15 7 -15 15s5 15 15 15h78c46 0 49 40 49 92v14c0 53 -18 89 -66 89z" fill="currentColor"/>
<path transform="translate(45.4903, 27.1626) scale(0.0040, -0.0040)" d="M194 120h120c0 -49 29 -95 75 -95c8 0 12 -7 12 -13s-4 -12 -12 -12c-45 0 -90 13 -135 13s-90 -13 -135 -13c-8 0 -12 6 -12 12s4 13 12 13c46 0 75 46 75 95zM203 301c22 15 45 30 61 51c12 15 19 34 27 51c2 4 5 6 9 6c6 0 14 -6 14 -15v-238h74c10 0 16 -8 16 -16
s-6 -15 -16 -15h-74v-5h-120v5h-163c-24 0 -33 15 -33 24c0 3 1 6 2 7c80 92 134 205 134 327c0 11 8 20 17 17c24 -7 48 -13 73 -13s48 6 72 13c2 1 4 1 6 1c9 0 14 -7 14 -13c0 -2 0 -3 -2 -5l-283 -327h163v122c0 9 2 18 9 23z" fill="currentColor"/>
<path transform="translate(49.0268, 28.1140) scale(0.0040, -0.0040)" d="M312 64c0 24 -20 41 -41 41c-4 0 -8 -1 -12 -2c-30 -9 -77 -38 -113 -62s-83 -54 -103 -78c-7 -8 -10 -17 -10 -27c0 -24 20 -41 41 -41c4 0 8 1 12 2c30 9 77 38 113 62s83 54 103 78c7 8 10 17 10 27zM259 137c48 0 86 -22 86 -74c0 -18 -4 -38 -10 -56
c-12 -38 -30 -73 -63 -95c-53 -36 -113 -49 -186 -49c-48 0 -86 22 -86 74c0 18 4 38 10 56c12 38 31 73 64 95c53 36 112 49 185 49z" fill="currentColor"/>
<path transform="translate(26.5364, 28.1140) scale(0.0040, -0.0040)" d="M215 137c57 0 111 -29 111 -92c0 -71 -54 -120 -101 -148c-35 -21 -74 -34 -114 -34c-57 0 -111 29 -111 92c0 71 54 120 101 148c35 21 74 34 114 34z" fill="currentColor"/>
<path transform="translate(26.5364, 42.1140) scale(0.0040, -0.0040)" d="M215 137c57 0 111 -29 111 -92c0 -71 -54 -120 -101 -148c-35 -21 -74 -34 -114 -34c-57 0 -111 29 -111 92c0 71 54 120 101 148c35 21 74 34 114 34z" fill="currentColor"/>
<path transform="translate(28.2852, 27.6140) scale(0.0040, -0.0040)" d="M0 0c0 31 25 56 56 56s55 -25 55 -56s-24 -56 -55 -56s-56 25 -56 56z" fill="currentColor"/>
<rect transform="translate(27.7695, 25.1140)" x="-0.0697" y="-0.5000" width="0.1395" height="3.3206" ry="0.0444" fill="currentColor"/>
<path transform="translate(28.2852, 41.6140) scale(0.0040, -0.0040)" d="M0 0c0 31 25 56 56 56s55 -25 55 -56s-24 -56 -55 -56s-56 25 -56 56z" fill="currentColor"/>
<rect transform="translate(27.7695, 39.1140)" x="-0.0697" y="-0.5000" width="0.1395" height="3.3206" ry="0.0444" fill="currentColor"/>
<g color="rgb(49.8039%, 49.8039%, 49.8039%)">
<line transform="translate(0.0000, 49.4666)" stroke-linejoin="round" stroke-linecap="round" stroke-width="0.1073" stroke="currentColor" x1="0.0537" y1="-0.0000" x2="44.4828" y2="-0.0000"/>
<line transform="translate(0.0000, 48.4666)" stroke-linejoin="round" stroke-linecap="round" stroke-width="0.1073" stroke="currentColor" x1="0.0537" y1="-0.0000" x2="44.4828" y2="-0.0000"/>
<line transform="translate(0.0000, 47.4666)" stroke-linejoin="round" stroke-linecap="round" stroke-width="0.1073" stroke="currentColor" x1="0.0537" y1="-0.0000" x2="44.4828" y2="-0.0000"/>
<line transform="translate(0.0000, 46.4666)" stroke-linejoin="round" stroke-linecap="round" stroke-width="0.1073" stroke="currentColor" x1="0.0537" y1="-0.0000" x2="44.4828" y2="-0.0000"/>
<line transform="translate(0.0000, 45.4666)" stroke-linejoin="round" stroke-linecap="round" stroke-width="0.1073" stroke="currentColor" x1="0.0537" y1="-0.0000" x2="44.4828" y2="-0.0000"/>
</g>
<g color="rgb(49.8039%, 49.8039%, 49.8039%)">
<line transform="translate(0.0000, 63.4666)" stroke-linejoin="round" stroke-linecap="round" stroke-width="0.1073" stroke="currentColor" x1="0.0537" y1="-0.0000" x2="44.4828" y2="-0.0000"/>
<line transform="translate(0.0000, 62.4666)" stroke-linejoin="round" stroke-linecap="round" stroke-width="0.1073" stroke="currentColor" x1="0.0537" y1="-0.0000" x2="44.4828" y2="-0.0000"/>
<line transform="translate(0.0000, 61.4666)" stroke-linejoin="round" stroke-linecap="round" stroke-width="0.1073" stroke="currentColor" x1="0.0537" y1="-0.0000" x2="44.4828" y2="-0.0000"/>
<line transform="translate(0.0000, 60.4666)" stroke-linejoin="round" stroke-linecap="round" stroke-width="0.1073" stroke="currentColor" x1="0.0537" y1="-0.0000" x2="44.4828" y2="-0.0000"/>
<line transform="translate(0.0000, 59.4666)" stroke-linejoin="round" stroke-linecap="round" stroke-width="0.1073" stroke="currentColor" x1="0.0537" y1="-0.0000" x2="44.4828" y2="-0.0000"/>
</g>
<rect transform="translate(0.0000, 50.4666)" x="20.1913" y="-0.1037" width="2.0709" height="0.2073" ry="0.1037" fill="currentColor"/>
<rect transform="translate(0.0000, 50.4666)" x="14.2107" y="-0.1037" width="1.9542" height="0.2073" ry="0.1037" fill="currentColor"/>
<rect transform="translate(0.0000, 50.4666)" x="8.2107" y="-0.1037" width="1.9542" height="0.2073" ry="0.1037" fill="currentColor"/>
<rect transform="translate(0.0000, 64.4666)" x="20.1913" y="-0.1037" width="2.0709" height="0.2073" ry="0.1037" fill="currentColor"/>
<rect transform="translate(0.0000, 64.4666)" x="14.2107" y="-0.1037" width="1.9542" height="0.2073" ry="0.1037" fill="currentColor"/>
<rect transform="translate(0.0000, 64.4666)" x="8.2107" y="-0.1037" width="1.9542" height="0.2073" ry="0.1037" fill="currentColor"/>
<rect transform="translate(44.3326, 47.4666)" x="0.0000" y="-2.0537" width="0.2039" height="4.1073" ry="0.0000" fill="currentColor"/>
<rect transform="translate(44.3326, 61.4666)" x="0.0000" y="-2.0537" width="0.2039" height="4.1073" ry="0.0000" fill="currentColor"/>
<path transform="translate(14.5364, 64.4666) scale(0.0040, -0.0040)" d="M215 137c57 0 111 -29 111 -92c0 -71 -54 -120 -101 -148c-35 -21 -74 -34 -114 -34c-57 0 -111 29 -111 92c0 71 54 120 101 148c35 21 74 34 114 34z" fill="currentColor"/>
<rect transform="translate(15.7695, 47.4666)" x="-0.0697" y="-0.0000" width="0.1395" height="2.8206" ry="0.0444" fill="currentColor"/>
<path transform="translate(20.5364, 50.4666) scale(0.0040, -0.0040)" d="M312 64c0 24 -20 41 -41 41c-4 0 -8 -1 -12 -2c-30 -9 -77 -38 -113 -62s-83 -54 -103 -78c-7 -8 -10 -17 -10 -27c0 -24 20 -41 41 -41c4 0 8 1 12 2c30 9 77 38 113 62s83 54 103 78c7 8 10 17 10 27zM259 137c48 0 86 -22 86 -74c0 -18 -4 -38 -10 -56
c-12 -38 -30 -73 -63 -95c-53 -36 -113 -49 -186 -49c-48 0 -86 22 -86 74c0 18 4 38 10 56c12 38 31 73 64 95c53 36 112 49 185 49z" fill="currentColor"/>
<path transform="translate(20.5364, 64.4666) scale(0.0040, -0.0040)" d="M312 64c0 24 -20 41 -41 41c-4 0 -8 -1 -12 -2c-30 -9 -77 -38 -113 -62s-83 -54 -103 -78c-7 -8 -10 -17 -10 -27c0 -24 20 -41 41 -41c4 0 8 1 12 2c30 9 77 38 113 62s83 54 103 78c7 8 10 17 10 27zM259 137c48 0 86 -22 86 -74c0 -18 -4 -38 -10 -56
c-12 -38 -30 -73 -63 -95c-53 -36 -113 -49 -186 -49c-48 0 -86 22 -86 74c0 18 4 38 10 56c12 38 31 73 64 95c53 36 112 49 185 49z" fill="currentColor"/>
<rect transform="translate(21.8473, 47.4666)" x="-0.0697" y="-0.5000" width="0.1395" height="3.2470" ry="0.0444" fill="currentColor"/>
<rect transform="translate(21.8473, 61.4666)" x="-0.0697" y="-0.5000" width="0.1395" height="3.2470" ry="0.0444" fill="currentColor"/>
<path transform="translate(14.5364, 47.4666)" stroke-width="0.0858" stroke-linejoin="round" stroke-linecap="round" stroke="currentColor" fill="currentColor" d="M0.8514 3.7500C1.8040 4.6063 5.5377 4.6063 6.4903 3.7500L6.4903 3.7500C5.5377 4.4775 1.8040 4.4775 0.8514 3.7500z"/>
<path transform="translate(14.5364, 61.4666)" stroke-width="0.0858" stroke-linejoin="round" stroke-linecap="round" stroke="currentColor" fill="currentColor" d="M0.8514 3.7500C1.8040 4.6063 5.5377 4.6063 6.4903 3.7500L6.4903 3.7500C5.5377 4.4775 1.8040 4.4775 0.8514 3.7500z"/>
<polygon transform="translate(9.6998, 47.4666)" stroke-linejoin="round" stroke-linecap="round" stroke-width="0.0889" fill="currentColor" stroke="currentColor" points="6.0950 -0.3306 6.0950 0.3306 0.0444 0.3306 0.0444 -0.3306"/>
<polygon transform="translate(9.6998, 61.4666)" stroke-linejoin="round" stroke-linecap="round" stroke-width="0.0889" fill="currentColor" stroke="currentColor" points="6.0950 -0.3306 6.0950 0.3306 0.0444 0.3306 0.0444 -0.3306"/>
<path transform="translate(8.5364, 50.4666) scale(0.0040, -0.0040)" d="M215 137c57 0 111 -29 111 -92c0 -71 -54 -120 -101 -148c-35 -21 -74 -34 -114 -34c-57 0 -111 29 -111 92c0 71 54 120 101 148c35 21 74 34 114 34z" fill="currentColor"/>
<path transform="translate(8.5364, 64.4666) scale(0.0040, -0.0040)" d="M215 137c57 0 111 -29 111 -92c0 -71 -54 -120 -101 -148c-35 -21 -74 -34 -114 -34c-57 0 -111 29 -111 92c0 71 54 120 101 148c35 21 74 34 114 34z" fill="currentColor"/>
<rect transform="translate(9.7695, 47.4666)" x="-0.0697" y="-0.0000" width="0.1395" height="2.8206" ry="0.0444" fill="currentColor"/>
<rect transform="translate(15.7695, 61.4666)" x="-0.0697" y="-0.0000" width="0.1395" height="2.8206" ry="0.0444" fill="currentColor"/>
<rect transform="translate(9.7695, 61.4666)" x="-0.0697" y="-0.0000" width="0.1395" height="2.8206" ry="0.0444" fill="currentColor"/>
<path transform="translate(14.5364, 50.4666) scale(0.0040, -0.0040)" d="M215 137c57 0 111 -29 111 -92c0 -71 -54 -120 -101 -148c-35 -21 -74 -34 -114 -34c-57 0 -111 29 -111 92c0 71 54 120 101 148c35 21 74 34 114 34z" fill="currentColor"/>
<path transform="translate(0.8000, 62.4666) scale(0.0040, -0.0040)" d="M378 263c4 0 7 1 11 1c156 0 257 -129 257 -262c0 -76 -34 -154 -108 -210c-22 -17 -46 -29 -72 -37c3 -34 4 -68 4 -102c0 -20 0 -40 -1 -60c-7 -121 -90 -228 -209 -228c-108 0 -196 87 -196 196c0 58 53 104 112 104c54 0 95 -48 95 -104c0 -52 -43 -95 -95 -95
c-10 0 -20 2 -29 6c26 -38 68 -63 116 -63h3c93 2 153 92 159 190c1 19 2 37 2 56c0 30 -2 60 -4 90c-29 -5 -58 -8 -88 -8c-188 0 -333 173 -333 375c0 177 130 307 246 442c-20 62 -38 125 -46 190c-6 52 -7 104 -7 157c0 115 55 223 148 290c7 5 16 4 22 -1
c71 -83 134 -244 134 -357c0 -143 -85 -255 -178 -364c21 -68 40 -137 57 -206zM462 -202c67 24 111 94 111 162c0 89 -65 178 -170 190c24 -115 46 -230 59 -352zM75 26c0 -134 129 -245 263 -245c28 0 55 2 81 6c-14 126 -36 244 -61 363c-79 -8 -124 -61 -124 -119
c0 -43 25 -89 80 -121c5 -5 7 -11 7 -16c0 -12 -10 -23 -22 -23c-3 0 -6 1 -9 2c-81 43 -118 116 -118 186c0 89 58 175 161 198c-14 58 -29 116 -46 173c-106 -122 -212 -244 -212 -404zM244 785c0 -73 20 -132 38 -191c79 97 144 199 144 324c0 53 -4 76 -20 124
c-99 -47 -162 -148 -162 -257z" fill="currentColor"/>
<path transform="translate(0.8000, 48.4666) scale(0.0040, -0.0040)" d="M378 263c4 0 7 1 11 1c156 0 257 -129 257 -262c0 -76 -34 -154 -108 -210c-22 -17 -46 -29 -72 -37c3 -34 4 -68 4 -102c0 -20 0 -40 -1 -60c-7 -121 -90 -228 -209 -228c-108 0 -196 87 -196 196c0 58 53 104 112 104c54 0 95 -48 95 -104c0 -52 -43 -95 -95 -95
c-10 0 -20 2 -29 6c26 -38 68 -63 116 -63h3c93 2 153 92 159 190c1 19 2 37 2 56c0 30 -2 60 -4 90c-29 -5 -58 -8 -88 -8c-188 0 -333 173 -333 375c0 177 130 307 246 442c-20 62 -38 125 -46 190c-6 52 -7 104 -7 157c0 115 55 223 148 290c7 5 16 4 22 -1
c71 -83 134 -244 134 -357c0 -143 -85 -255 -178 -364c21 -68 40 -137 57 -206zM462 -202c67 24 111 94 111 162c0 89 -65 178 -170 190c24 -115 46 -230 59 -352zM75 26c0 -134 129 -245 263 -245c28 0 55 2 81 6c-14 126 -36 244 -61 363c-79 -8 -124 -61 -124 -119
c0 -43 25 -89 80 -121c5 -5 7 -11 7 -16c0 -12 -10 -23 -22 -23c-3 0 -6 1 -9 2c-81 43 -118 116 -118 186c0 89 58 175 161 198c-14 58 -29 116 -46 173c-106 -122 -212 -244 -212 -404zM244 785c0 -73 20 -132 38 -191c79 97 144 199 144 324c0 53 -4 76 -20 124
c-99 -47 -162 -148 -162 -257z" fill="currentColor"/>
<path transform="translate(5.0569, 61.4666) scale(0.0040, -0.0040)" d="M172 256c-49 0 -52 -40 -52 -94v-22v-21c0 -54 3 -94 52 -94c56 0 59 50 59 115s-3 116 -59 116zM120 267c17 7 34 14 52 14c102 0 171 -46 171 -141s-69 -140 -171 -140c-112 0 -172 124 -172 250c0 129 74 250 192 250c71 0 139 -40 139 -105c0 -36 -29 -65 -65 -65
s-65 29 -65 65c0 23 39 26 39 49c0 21 -24 31 -48 31c-64 0 -74 -62 -74 -134c0 -24 2 -49 2 -74z" fill="currentColor"/>
<path transform="translate(5.0000, 63.4772) scale(0.0040, -0.0040)" d="M261 290c26 29 47 61 47 100c0 54 -57 85 -116 85c-46 0 -73 -35 -73 -69c0 -20 9 -40 29 -51zM293 272c54 -31 82 -79 82 -127c0 -74 -66 -145 -190 -145c-95 0 -185 53 -185 140c0 50 38 85 75 120c-40 28 -59 68 -59 106c0 68 60 134 176 134c81 0 163 -38 163 -110
c0 -47 -29 -84 -62 -118zM107 241c-32 -29 -61 -59 -61 -101c0 -69 66 -115 139 -115c54 0 85 41 85 81c0 24 -11 47 -35 61z" fill="currentColor"/>
<path transform="translate(5.0569, 61.4666) scale(0.0040, -0.0040)" d="M172 256c-49 0 -52 -40 -52 -94v-22v-21c0 -54 3 -94 52 -94c56 0 59 50 59 115s-3 116 -59 116zM120 267c17 7 34 14 52 14c102 0 171 -46 171 -141s-69 -140 -171 -140c-112 0 -172 124 -172 250c0 129 74 250 192 250c71 0 139 -40 139 -105c0 -36 -29 -65 -65 -65
s-65 29 -65 65c0 23 39 26 39 49c0 21 -24 31 -48 31c-64 0 -74 -62 -74 -134c0 -24 2 -49 2 -74z" fill="currentColor"/>
<path transform="translate(5.0000, 63.4772) scale(0.0040, -0.0040)" d="M261 290c26 29 47 61 47 100c0 54 -57 85 -116 85c-46 0 -73 -35 -73 -69c0 -20 9 -40 29 -51zM293 272c54 -31 82 -79 82 -127c0 -74 -66 -145 -190 -145c-95 0 -185 53 -185 140c0 50 38 85 75 120c-40 28 -59 68 -59 106c0 68 60 134 176 134c81 0 163 -38 163 -110
c0 -47 -29 -84 -62 -118zM107 241c-32 -29 -61 -59 -61 -101c0 -69 66 -115 139 -115c54 0 85 41 85 81c0 24 -11 47 -35 61z" fill="currentColor"/>
<path transform="translate(5.1328, 47.4666) scale(0.0040, -0.0040)" d="M151 475c-29 0 -60 -8 -60 -33c0 -22 35 -25 35 -47c0 -31 -26 -57 -57 -57s-57 26 -57 57c0 65 68 105 139 105c92 0 170 -33 170 -114c0 -42 -5 -81 -42 -98c-10 -5 -15 -14 -15 -23s5 -18 15 -23c41 -19 57 -56 57 -102c0 -92 -80 -140 -180 -140
c-79 0 -156 43 -156 115c0 36 29 65 65 65s65 -29 65 -65c0 -25 -40 -29 -40 -54c0 -28 34 -36 66 -36c48 0 61 59 61 115v22c0 50 -3 88 -49 88h-78c-10 0 -15 7 -15 15s5 15 15 15h78c46 0 49 40 49 92v14c0 53 -18 89 -66 89z" fill="currentColor"/>
<path transform="translate(5.0000, 49.5152) scale(0.0040, -0.0040)" d="M194 120h120c0 -49 29 -95 75 -95c8 0 12 -7 12 -13s-4 -12 -12 -12c-45 0 -90 13 -135 13s-90 -13 -135 -13c-8 0 -12 6 -12 12s4 13 12 13c46 0 75 46 75 95zM203 301c22 15 45 30 61 51c12 15 19 34 27 51c2 4 5 6 9 6c6 0 14 -6 14 -15v-238h74c10 0 16 -8 16 -16
s-6 -15 -16 -15h-74v-5h-120v5h-163c-24 0 -33 15 -33 24c0 3 1 6 2 7c80 92 134 205 134 327c0 11 8 20 17 17c24 -7 48 -13 73 -13s48 6 72 13c2 1 4 1 6 1c9 0 14 -7 14 -13c0 -2 0 -3 -2 -5l-283 -327h163v122c0 9 2 18 9 23z" fill="currentColor"/>
<path transform="translate(5.1328, 47.4666) scale(0.0040, -0.0040)" d="M151 475c-29 0 -60 -8 -60 -33c0 -22 35 -25 35 -47c0 -31 -26 -57 -57 -57s-57 26 -57 57c0 65 68 105 139 105c92 0 170 -33 170 -114c0 -42 -5 -81 -42 -98c-10 -5 -15 -14 -15 -23s5 -18 15 -23c41 -19 57 -56 57 -102c0 -92 -80 -140 -180 -140
c-79 0 -156 43 -156 115c0 36 29 65 65 65s65 -29 65 -65c0 -25 -40 -29 -40 -54c0 -28 34 -36 66 -36c48 0 61 59 61 115v22c0 50 -3 88 -49 88h-78c-10 0 -15 7 -15 15s5 15 15 15h78c46 0 49 40 49 92v14c0 53 -18 89 -66 89z" fill="currentColor"/>
<path transform="translate(5.0000, 49.5152) scale(0.0040, -0.0040)" d="M194 120h120c0 -49 29 -95 75 -95c8 0 12 -7 12 -13s-4 -12 -12 -12c-45 0 -90 13 -135 13s-90 -13 -135 -13c-8 0 -12 6 -12 12s4 13 12 13c46 0 75 46 75 95zM203 301c22 15 45 30 61 51c12 15 19 34 27 51c2 4 5 6 9 6c6 0 14 -6 14 -15v-238h74c10 0 16 -8 16 -16
s-6 -15 -16 -15h-74v-5h-120v5h-163c-24 0 -33 15 -33 24c0 3 1 6 2 7c80 92 134 205 134 327c0 11 8 20 17 17c24 -7 48 -13 73 -13s48 6 72 13c2 1 4 1 6 1c9 0 14 -7 14 -13c0 -2 0 -3 -2 -5l-283 -327h163v122c0 9 2 18 9 23z" fill="currentColor"/>
<rect transform="translate(-0.0717, 54.4666)" x="0.0000" y="-9.0537" width="0.1717" height="18.1073" ry="0.0537" fill="currentColor"/>
</svg>
