<svg xmlns="http://www.w3.org/2000/svg" xmlns:xlink="http://www.w3.org/1999/xlink" version="1.2" width="126.47mm" height="12.53mm" viewBox="8.5358 -0.0000 71.9712 7.1278">
<style type="text/css">
<![CDATA[
tspan { white-space: pre; }
]]>
</style>
<g transform="translate(8.5358, 5.1277)">
<line stroke-linejoin="round" stroke-linecap="round" stroke-width="0.1000" stroke="currentColor" x1="0.0500" y1="0" x2="71.9212" y2="0"/>
</g>
<g transform="translate(80.3170, 5.1277)">
<rect x="0.0000" y="-1.0500" width="0.1900" height="2.1000" ry="0.0000" fill="currentColor"/>
</g>
<g transform="translate(46.6290, 5.1277)">
<rect x="0.0000" y="-1.0500" width="0.1900" height="2.1000" ry="0.0000" fill="currentColor"/>
</g>
<g transform="translate(27.6124, 5.1277)">
<rect x="0.0000" y="-1.0500" width="0.1900" height="2.1000" ry="0.0000" fill="currentColor"/>
</g>
<g transform="translate(52.4211, 0.6944)">
<line stroke-linejoin="round" stroke-linecap="round" stroke-width="0.1600" stroke="currentColor" x1="19.6342" y1="-0.0000" x2="19.6342" y2="0.7000"/>
</g>
<g transform="translate(52.4211, 0.6944)">
<line stroke-linejoin="round" stroke-linecap="round" stroke-width="0.1600" stroke="currentColor" x1="-0.2000" y1="-0.0000" x2="-0.2000" y2="0.7000"/>
</g>
<g transform="translate(52.4211, 0.6944)">
<line stroke-linejoin="round" stroke-linecap="round" stroke-width="0.1600" stroke="currentColor" x1="19.6342" y1="-0.0000" x2="10.7951" y2="-0.0000"/>
</g>
<g transform="translate(52.4211, 0.6944)">
<line stroke-linejoin="round" stroke-linecap="round" stroke-width="0.1600" stroke="currentColor" x1="-0.2000" y1="-0.0000" x2="8.8391" y2="-0.0000"/>
</g>
<g transform="translate(13.0040, 5.1277)">
<path transform="scale(0.0040, -0.0040)" d="M218 136c55 0 108 -28 108 -89c0 -71 -55 -121 -102 -149c-35 -21 -75 -34 -116 -34c-55 0 -108 28 -108 89c0 71 55 121 102 149c35 21 75 34 116 34z" fill="currentColor"/>
</g>
<g transform="translate(9.5358, 5.1277)">
<path transform="scale(0.0040, -0.0040)" d="M103 135c9 2 17 3 26 3c33 0 70 -11 105 -36c21 -15 46 -23 66 -23c21 0 39 9 44 29c2 6 6 9 11 9c6 0 12 -5 12 -12c0 -67 -90 -105 -138 -105c-36 0 -71 14 -96 44c-13 16 -31 22 -48 22c-30 0 -59 -20 -62 -55c-1 -7 -6 -11 -11 -11c-6 0 -12 4 -12 11
c0 175 235 165 235 344c0 60 -18 122 -70 122c-26 0 -51 -14 -51 -37c0 -27 35 -41 35 -68c0 -38 -30 -69 -68 -69s-69 31 -69 69c0 76 72 128 153 128c96 0 187 -56 187 -145c0 -153 -151 -159 -249 -220z" fill="currentColor"/>
</g>
<g transform="translate(9.5358, 7.1278)">
<path transform="scale(0.0040, -0.0040)" d="M259 288c27 29 49 62 49 102c0 55 -57 87 -117 87c-47 0 -75 -36 -75 -71c0 -20 10 -40 30 -52zM289 271c55 -31 83 -79 83 -127c0 -73 -66 -144 -189 -144c-94 0 -183 54 -183 140c0 50 39 85 76 120c-41 28 -61 67 -61 106c0 68 61 134 176 134c81 0 161 -38 161 -110
c0 -47 -30 -85 -63 -119zM106 242c-33 -29 -62 -59 -62 -102c0 -69 66 -117 139 -117c54 0 86 42 86 83c0 24 -10 48 -35 62z" fill="currentColor"/>
</g>
<g transform="translate(14.2432, 5.1277)">
<rect x="-0.0650" y="-3.3333" width="0.1300" height="3.1472" ry="0.0400" fill="currentColor"/>
</g>
<g transform="translate(37.6339, 1.2292)">
<text font-family="serif" font-style="italic" font-size="1.7461" text-anchor="start" fill="currentColor">
<tspan>3</tspan>
</text>
</g>
<g transform="translate(22.7082, 5.1277)">
<path transform="scale(0.0040, -0.0040)" d="M218 136c55 0 108 -28 108 -89c0 -71 -55 -121 -102 -149c-35 -21 -75 -34 -116 -34c-55 0 -108 28 -108 89c0 71 55 121 102 149c35 21 75 34 116 34z" fill="currentColor"/>
</g>
<g transform="translate(23.9474, 5.1277)">
<rect x="-0.0650" y="-3.3750" width="0.1300" height="3.1889" ry="0.0400" fill="currentColor"/>
</g>
<g transform="translate(24.0124, 1.7927)">
<path transform="scale(0.0040, -0.0040)" d="M0 0v-250h-16v250h16zM0 0c0 -197 207 -336 207 -533c0 -71 -15 -141 -41 -207c-5 -8 -13 -12 -20 -12c-13 0 -26 11 -23 27c26 61 42 126 42 192c0 103 -94 208 -165 283v250z" fill="currentColor"/>
</g>
<g transform="translate(33.1948, 0.6277)">
<line stroke-linejoin="round" stroke-linecap="round" stroke-width="0.1600" stroke="currentColor" x1="10.0342" y1="-0.0000" x2="10.0342" y2="0.7000"/>
</g>
<g transform="translate(33.1948, 0.6277)">
<line stroke-linejoin="round" stroke-linecap="round" stroke-width="0.1600" stroke="currentColor" x1="-0.2000" y1="-0.0000" x2="-0.2000" y2="0.7000"/>
</g>
<g transform="translate(33.1948, 0.6277)">
<line stroke-linejoin="round" stroke-linecap="round" stroke-width="0.1600" stroke="currentColor" x1="10.0342" y1="-0.0000" x2="5.9951" y2="-0.0000"/>
</g>
<g transform="translate(33.1948, 0.6277)">
<line stroke-linejoin="round" stroke-linecap="round" stroke-width="0.1600" stroke="currentColor" x1="-0.2000" y1="-0.0000" x2="4.0391" y2="-0.0000"/>
</g>
<g transform="translate(18.6173, 1.2292)">
<text font-family="serif" font-style="italic" font-size="1.7461" text-anchor="start" fill="currentColor">
<tspan>3</tspan>
</text>
</g>
<g transform="translate(32.0206, 5.1277)">
<path transform="scale(0.0040, -0.0040)" d="M218 136c55 0 108 -28 108 -89c0 -71 -55 -121 -102 -149c-35 -21 -75 -34 -116 -34c-55 0 -108 28 -108 89c0 71 55 121 102 149c35 21 75 34 116 34z" fill="currentColor"/>
</g>
<g transform="translate(28.5524, 5.1277)">
<path transform="scale(0.0040, -0.0040)" d="M103 135c9 2 17 3 26 3c33 0 70 -11 105 -36c21 -15 46 -23 66 -23c21 0 39 9 44 29c2 6 6 9 11 9c6 0 12 -5 12 -12c0 -67 -90 -105 -138 -105c-36 0 -71 14 -96 44c-13 16 -31 22 -48 22c-30 0 -59 -20 -62 -55c-1 -7 -6 -11 -11 -11c-6 0 -12 4 -12 11
c0 175 235 165 235 344c0 60 -18 122 -70 122c-26 0 -51 -14 -51 -37c0 -27 35 -41 35 -68c0 -38 -30 -69 -68 -69s-69 31 -69 69c0 76 72 128 153 128c96 0 187 -56 187 -145c0 -153 -151 -159 -249 -220z" fill="currentColor"/>
</g>
<g transform="translate(28.5524, 7.1278)">
<path transform="scale(0.0040, -0.0040)" d="M259 288c27 29 49 62 49 102c0 55 -57 87 -117 87c-47 0 -75 -36 -75 -71c0 -20 10 -40 30 -52zM289 271c55 -31 83 -79 83 -127c0 -73 -66 -144 -189 -144c-94 0 -183 54 -183 140c0 50 39 85 76 120c-41 28 -61 67 -61 106c0 68 61 134 176 134c81 0 161 -38 161 -110
c0 -47 -30 -85 -63 -119zM106 242c-33 -29 -62 -59 -62 -102c0 -69 66 -117 139 -117c54 0 86 42 86 83c0 24 -10 48 -35 62z" fill="currentColor"/>
</g>
<g transform="translate(33.2598, 5.1277)">
<rect x="-0.0650" y="-3.3333" width="0.1300" height="3.1472" ry="0.0400" fill="currentColor"/>
</g>
<g transform="translate(61.6602, 1.2959)">
<text font-family="serif" font-style="italic" font-size="1.7461" text-anchor="start" fill="currentColor">
<tspan>3</tspan>
</text>
</g>
<g transform="translate(41.7248, 5.1277)">
<path transform="scale(0.0040, -0.0040)" d="M218 136c55 0 108 -28 108 -89c0 -71 -55 -121 -102 -149c-35 -21 -75 -34 -116 -34c-55 0 -108 28 -108 89c0 71 55 121 102 149c35 21 75 34 116 34z" fill="currentColor"/>
</g>
<g transform="translate(42.9640, 5.1277)">
<rect x="-0.0650" y="-3.3750" width="0.1300" height="3.1889" ry="0.0400" fill="currentColor"/>
</g>
<g transform="translate(14.1782, 0.6277)">
<line stroke-linejoin="round" stroke-linecap="round" stroke-width="0.1600" stroke="currentColor" x1="10.0342" y1="-0.0000" x2="10.0342" y2="0.7000"/>
</g>
<g transform="translate(14.1782, 0.6277)">
<line stroke-linejoin="round" stroke-linecap="round" stroke-width="0.1600" stroke="currentColor" x1="-0.2000" y1="-0.0000" x2="-0.2000" y2="0.7000"/>
</g>
<g transform="translate(14.1782, 0.6277)">
<line stroke-linejoin="round" stroke-linecap="round" stroke-width="0.1600" stroke="currentColor" x1="10.0342" y1="-0.0000" x2="5.9951" y2="-0.0000"/>
</g>
<g transform="translate(14.1782, 0.6277)">
<line stroke-linejoin="round" stroke-linecap="round" stroke-width="0.1600" stroke="currentColor" x1="-0.2000" y1="-0.0000" x2="4.0391" y2="-0.0000"/>
</g>
<g transform="translate(43.0290, 1.7927)">
<path transform="scale(0.0040, -0.0040)" d="M0 0v-250h-16v250h16zM0 0c0 -197 207 -336 207 -533c0 -71 -15 -141 -41 -207c-5 -8 -13 -12 -20 -12c-13 0 -26 11 -23 27c26 61 42 126 42 192c0 103 -94 208 -165 283v250z" fill="currentColor"/>
</g>
<g transform="translate(51.1737, 5.1277)">
<path transform="scale(0.0040, -0.0040)" d="M314 65c0 24 -21 41 -42 41c-4 0 -8 0 -12 -1c-31 -9 -78 -40 -115 -64s-84 -53 -104 -78c-7 -8 -10 -18 -10 -28c0 -24 21 -41 42 -41c4 0 8 0 12 1c31 9 77 40 114 64s84 53 104 78c7 8 11 18 11 28zM262 136c46 0 82 -21 82 -71c0 -19 -4 -39 -10 -57
c-12 -37 -32 -72 -64 -94c-53 -36 -113 -50 -187 -50c-46 0 -83 21 -83 71c0 19 5 39 11 57c12 37 31 72 63 94c53 36 114 50 188 50z" fill="currentColor"/>
</g>
<g transform="translate(47.5690, 5.1277)">
<path transform="scale(0.0040, -0.0040)" d="M196 117h117c0 -48 27 -94 72 -94c8 0 12 -5 12 -11s-4 -12 -12 -12c-44 0 -87 13 -131 13s-87 -13 -131 -13c-8 0 -12 6 -12 12s4 11 12 11c45 0 73 46 73 94zM204 307c22 14 44 29 60 50c11 15 19 33 27 50c2 4 5 6 9 6c6 0 13 -5 13 -14v-245h72c10 0 15 -7 15 -14
s-5 -15 -15 -15h-72v-8h-117v8h-167c-23 0 -31 14 -31 23c0 3 1 5 2 6c80 93 138 207 138 330c0 10 7 19 16 16c23 -7 47 -13 71 -13s48 6 71 13c14 4 23 -9 17 -16l-284 -330h167v131c0 8 1 17 8 22z" fill="currentColor"/>
</g>
<g transform="translate(47.6373, 7.1278)">
<path transform="scale(0.0040, -0.0040)" d="M259 288c27 29 49 62 49 102c0 55 -57 87 -117 87c-47 0 -75 -36 -75 -71c0 -20 10 -40 30 -52zM289 271c55 -31 83 -79 83 -127c0 -73 -66 -144 -189 -144c-94 0 -183 54 -183 140c0 50 39 85 76 120c-41 28 -61 67 -61 106c0 68 61 134 176 134c81 0 161 -38 161 -110
c0 -47 -30 -85 -63 -119zM106 242c-33 -29 -62 -59 -62 -102c0 -69 66 -117 139 -117c54 0 86 42 86 83c0 24 -10 48 -35 62z" fill="currentColor"/>
</g>
<g transform="translate(52.4861, 5.1277)">
<rect x="-0.0650" y="-3.3333" width="0.1300" height="3.0743" ry="0.0400" fill="currentColor"/>
</g>
<g transform="translate(70.5511, 5.1277)">
<path transform="scale(0.0040, -0.0040)" d="M218 136c55 0 108 -28 108 -89c0 -71 -55 -121 -102 -149c-35 -21 -75 -34 -116 -34c-55 0 -108 28 -108 89c0 71 55 121 102 149c35 21 75 34 116 34z" fill="currentColor"/>
</g>
<g transform="translate(71.7903, 5.1277)">
<rect x="-0.0650" y="-3.3333" width="0.1300" height="3.1472" ry="0.0400" fill="currentColor"/>
</g>
</svg>
