<svg xmlns="http://www.w3.org/2000/svg" xmlns:xlink="http://www.w3.org/1999/xlink" version="1.2" width="210.00mm" height="297.00mm" viewBox="0 0 149.3770 211.2617">
<style type="text/css">
<![CDATA[
tspan { white-space: pre; }
]]>
</style>
<!-- Page: 1/1 -->
<g transform="translate(17.7830, 10.3326)">
<line stroke-linejoin="round" stroke-linecap="round" stroke-width="0.1164" stroke="currentColor" x1="0.0582" y1="0" x2="58.8833" y2="0"/>
</g>
<g transform="translate(17.7830, 9.3326)">
<line stroke-linejoin="round" stroke-linecap="round" stroke-width="0.1164" stroke="currentColor" x1="0.0582" y1="0" x2="58.8833" y2="0"/>
</g>
<g transform="translate(17.7830, 8.3326)">
<line stroke-linejoin="round" stroke-linecap="round" stroke-width="0.1164" stroke="currentColor" x1="0.0582" y1="0" x2="58.8833" y2="0"/>
</g>
<g transform="translate(17.7830, 7.3326)">
<line stroke-linejoin="round" stroke-linecap="round" stroke-width="0.1164" stroke="currentColor" x1="0.0582" y1="0" x2="58.8833" y2="0"/>
</g>
<g transform="translate(17.7830, 6.3326)">
<line stroke-linejoin="round" stroke-linecap="round" stroke-width="0.1164" stroke="currentColor" x1="0.0582" y1="0" x2="58.8833" y2="0"/>
</g>
<g transform="translate(17.7830, 28.3326)">
<line stroke-linejoin="round" stroke-linecap="round" stroke-width="0.1164" stroke="currentColor" x1="0.0582" y1="0" x2="58.8833" y2="0"/>
</g>
<g transform="translate(17.7830, 27.3326)">
<line stroke-linejoin="round" stroke-linecap="round" stroke-width="0.1164" stroke="currentColor" x1="0.0582" y1="0" x2="58.8833" y2="0"/>
</g>
<g transform="translate(17.7830, 26.3326)">
<line stroke-linejoin="round" stroke-linecap="round" stroke-width="0.1164" stroke="currentColor" x1="0.0582" y1="0" x2="58.8833" y2="0"/>
</g>
<g transform="translate(17.7830, 25.3326)">
<line stroke-linejoin="round" stroke-linecap="round" stroke-width="0.1164" stroke="currentColor" x1="0.0582" y1="0" x2="58.8833" y2="0"/>
</g>
<g transform="translate(17.7830, 24.3326)">
<line stroke-linejoin="round" stroke-linecap="round" stroke-width="0.1164" stroke="currentColor" x1="0.0582" y1="0" x2="58.8833" y2="0"/>
</g>
<g transform="translate(7.1132, 11.3326)">
<rect x="29.5802" y="-0.1082" width="2.5834" height="0.2164" ry="0.1082" fill="currentColor"/>
</g>
<g transform="translate(7.1132, 11.3326)">
<rect x="15.9881" y="-0.1082" width="2.8901" height="0.2164" ry="0.1082" fill="currentColor"/>
</g>
<g transform="translate(17.7830, 19.3326)">
<line stroke-linejoin="round" stroke-linecap="round" stroke-width="0.1164" stroke="currentColor" x1="0.0582" y1="0" x2="58.8833" y2="0"/>
</g>
<g transform="translate(17.7830, 18.3326)">
<line stroke-linejoin="round" stroke-linecap="round" stroke-width="0.1164" stroke="currentColor" x1="0.0582" y1="0" x2="58.8833" y2="0"/>
</g>
<g transform="translate(17.7830, 17.3326)">
<line stroke-linejoin="round" stroke-linecap="round" stroke-width="0.1164" stroke="currentColor" x1="0.0582" y1="0" x2="58.8833" y2="0"/>
</g>
<g transform="translate(17.7830, 16.3326)">
<line stroke-linejoin="round" stroke-linecap="round" stroke-width="0.1164" stroke="currentColor" x1="0.0582" y1="0" x2="58.8833" y2="0"/>
</g>
<g transform="translate(17.7830, 15.3326)">
<line stroke-linejoin="round" stroke-linecap="round" stroke-width="0.1164" stroke="currentColor" x1="0.0582" y1="0" x2="58.8833" y2="0"/>
</g>
<g transform="translate(7.1132, 20.3326)">
<rect x="16.2948" y="-0.1082" width="2.5834" height="0.2164" ry="0.1082" fill="currentColor"/>
</g>
<g transform="translate(61.9891, 9.8326)">
<path transform="scale(0.0040, -0.0040)" d="M198 -329c-12 0 -21 9 -21 21v138l-79 -30v-154c0 -12 -9 -21 -21 -21s-21 9 -21 21v138l-22 -8c-3 -1 -6 -2 -9 -2c-13 0 -25 11 -25 25v54c0 10 6 20 16 24l40 15v155l-22 -9c-3 -1 -6 -1 -9 -1c-13 0 -25 11 -25 25v54c0 10 6 19 16 23l40 15v154c0 12 9 21 21 21
s21 -9 21 -21v-138l79 30v154c0 12 9 21 21 21s21 -9 21 -21v-138l22 8c3 1 6 2 9 2c13 0 25 -11 25 -25v-54c0 -10 -6 -20 -16 -24l-40 -15v-155l22 9c3 1 6 1 9 1c13 0 25 -11 25 -25v-54c0 -10 -6 -19 -16 -23l-40 -15v-154c0 -12 -9 -21 -21 -21zM98 62v-154l79 30v154z
" fill="currentColor"/>
</g>
<g transform="translate(63.4391, 17.3326)">
<path transform="scale(0.0040, -0.0040)" d="M210 110c-49 0 -67 -43 -67 -88c0 -74 56 -132 129 -132c49 0 67 43 67 88c0 74 -56 132 -129 132zM482 0c0 -43 -33 -76 -71 -98c-51 -30 -111 -40 -170 -40s-119 10 -170 40c-38 22 -71 55 -71 98s33 76 71 98c51 30 111 40 170 40s119 -10 170 -40
c38 -22 71 -55 71 -98z" fill="currentColor"/>
</g>
<g transform="translate(63.4391, 9.8326)">
<path transform="scale(0.0040, -0.0040)" d="M210 110c-49 0 -67 -43 -67 -88c0 -74 56 -132 129 -132c49 0 67 43 67 88c0 74 -56 132 -129 132zM482 0c0 -43 -33 -76 -71 -98c-51 -30 -111 -40 -170 -40s-119 10 -170 40c-38 22 -71 55 -71 98s33 76 71 98c51 30 111 40 170 40s119 -10 170 -40
c38 -22 71 -55 71 -98z" fill="currentColor"/>
</g>
<g transform="translate(63.4391, 25.8326)">
<path transform="scale(0.0040, -0.0040)" d="M210 110c-49 0 -67 -43 -67 -88c0 -74 56 -132 129 -132c49 0 67 43 67 88c0 74 -56 132 -129 132zM482 0c0 -43 -33 -76 -71 -98c-51 -30 -111 -40 -170 -40s-119 10 -170 40c-38 22 -71 55 -71 98s33 76 71 98c51 30 111 40 170 40s119 -10 170 -40
c38 -22 71 -55 71 -98z" fill="currentColor"/>
</g>
<g transform="translate(23.5830, 11.3326)">
<path transform="scale(0.0040, -0.0040)" d="M210 110c-49 0 -67 -43 -67 -88c0 -74 56 -132 129 -132c49 0 67 43 67 88c0 74 -56 132 -129 132zM482 0c0 -43 -33 -76 -71 -98c-51 -30 -111 -40 -170 -40s-119 10 -170 40c-38 22 -71 55 -71 98s33 76 71 98c51 30 111 40 170 40s119 -10 170 -40
c38 -22 71 -55 71 -98z" fill="currentColor"/>
</g>
<g transform="translate(18.5830, 9.3326)">
<path transform="scale(0.0040, -0.0040)" d="M379 264c3 0 7 1 10 1c157 0 258 -129 258 -263c0 -77 -33 -155 -108 -211c-22 -16 -46 -29 -72 -37c3 -33 4 -66 4 -99c0 -21 0 -41 -1 -62c-7 -121 -91 -229 -211 -229c-108 0 -196 88 -196 197c0 58 54 103 113 103c54 0 95 -47 95 -103c0 -52 -43 -95 -95 -95
c-9 0 -18 1 -27 4c25 -37 66 -61 113 -61c95 0 156 93 162 191c1 19 2 38 2 57c0 29 -1 58 -3 87c-29 -5 -58 -8 -88 -8c-189 0 -333 173 -333 376c0 177 129 308 244 443c-20 62 -40 124 -48 189c-7 52 -7 105 -7 158c0 114 54 221 147 288c8 6 18 5 25 -1
c72 -83 135 -243 135 -356c0 -142 -84 -255 -176 -364c21 -68 40 -136 57 -205zM463 -201c65 24 110 94 110 161c0 88 -64 175 -167 188c24 -114 44 -227 57 -349zM77 25c0 -133 128 -243 261 -243c27 0 55 1 81 5c-13 126 -35 244 -60 362c-79 -8 -124 -60 -124 -118
c0 -43 25 -88 80 -120c5 -5 7 -11 7 -17c0 -12 -10 -23 -23 -23c-3 0 -7 1 -10 2c-81 43 -118 115 -118 186c0 89 60 177 163 200c-14 57 -30 113 -47 169c-105 -122 -210 -243 -210 -403zM242 784c0 -71 21 -130 39 -188c78 97 142 199 142 324c0 51 -4 72 -20 118
c-99 -46 -161 -145 -161 -254z" fill="currentColor"/>
</g>
<g transform="translate(23.5830, 20.3326)">
<path transform="scale(0.0040, -0.0040)" d="M210 110c-49 0 -67 -43 -67 -88c0 -74 56 -132 129 -132c49 0 67 43 67 88c0 74 -56 132 -129 132zM482 0c0 -43 -33 -76 -71 -98c-51 -30 -111 -40 -170 -40s-119 10 -170 40c-38 22 -71 55 -71 98s33 76 71 98c51 30 111 40 170 40s119 -10 170 -40
c38 -22 71 -55 71 -98z" fill="currentColor"/>
</g>
<g transform="translate(18.5830, 18.3326)">
<path transform="scale(0.0040, -0.0040)" d="M379 264c3 0 7 1 10 1c157 0 258 -129 258 -263c0 -77 -33 -155 -108 -211c-22 -16 -46 -29 -72 -37c3 -33 4 -66 4 -99c0 -21 0 -41 -1 -62c-7 -121 -91 -229 -211 -229c-108 0 -196 88 -196 197c0 58 54 103 113 103c54 0 95 -47 95 -103c0 -52 -43 -95 -95 -95
c-9 0 -18 1 -27 4c25 -37 66 -61 113 -61c95 0 156 93 162 191c1 19 2 38 2 57c0 29 -1 58 -3 87c-29 -5 -58 -8 -88 -8c-189 0 -333 173 -333 376c0 177 129 308 244 443c-20 62 -40 124 -48 189c-7 52 -7 105 -7 158c0 114 54 221 147 288c8 6 18 5 25 -1
c72 -83 135 -243 135 -356c0 -142 -84 -255 -176 -364c21 -68 40 -136 57 -205zM463 -201c65 24 110 94 110 161c0 88 -64 175 -167 188c24 -114 44 -227 57 -349zM77 25c0 -133 128 -243 261 -243c27 0 55 1 81 5c-13 126 -35 244 -60 362c-79 -8 -124 -60 -124 -118
c0 -43 25 -88 80 -120c5 -5 7 -11 7 -17c0 -12 -10 -23 -23 -23c-3 0 -7 1 -10 2c-81 43 -118 115 -118 186c0 89 60 177 163 200c-14 57 -30 113 -47 169c-105 -122 -210 -243 -210 -403zM242 784c0 -71 21 -130 39 -188c78 97 142 199 142 324c0 51 -4 72 -20 118
c-99 -46 -161 -145 -161 -254z" fill="currentColor"/>
</g>
<g transform="translate(18.5830, 27.3326)">
<path transform="scale(0.0040, -0.0040)" d="M379 264c3 0 7 1 10 1c157 0 258 -129 258 -263c0 -77 -33 -155 -108 -211c-22 -16 -46 -29 -72 -37c3 -33 4 -66 4 -99c0 -21 0 -41 -1 -62c-7 -121 -91 -229 -211 -229c-108 0 -196 88 -196 197c0 58 54 103 113 103c54 0 95 -47 95 -103c0 -52 -43 -95 -95 -95
c-9 0 -18 1 -27 4c25 -37 66 -61 113 -61c95 0 156 93 162 191c1 19 2 38 2 57c0 29 -1 58 -3 87c-29 -5 -58 -8 -88 -8c-189 0 -333 173 -333 376c0 177 129 308 244 443c-20 62 -40 124 -48 189c-7 52 -7 105 -7 158c0 114 54 221 147 288c8 6 18 5 25 -1
c72 -83 135 -243 135 -356c0 -142 -84 -255 -176 -364c21 -68 40 -136 57 -205zM463 -201c65 24 110 94 110 161c0 88 -64 175 -167 188c24 -114 44 -227 57 -349zM77 25c0 -133 128 -243 261 -243c27 0 55 1 81 5c-13 126 -35 244 -60 362c-79 -8 -124 -60 -124 -118
c0 -43 25 -88 80 -120c5 -5 7 -11 7 -17c0 -12 -10 -23 -23 -23c-3 0 -7 1 -10 2c-81 43 -118 115 -118 186c0 89 60 177 163 200c-14 57 -30 113 -47 169c-105 -122 -210 -243 -210 -403zM242 784c0 -71 21 -130 39 -188c78 97 142 199 142 324c0 51 -4 72 -20 118
c-99 -46 -161 -145 -161 -254z" fill="currentColor"/>
</g>
<g transform="translate(23.5830, 27.8326)">
<path transform="scale(0.0040, -0.0040)" d="M210 110c-49 0 -67 -43 -67 -88c0 -74 56 -132 129 -132c49 0 67 43 67 88c0 74 -56 132 -129 132zM482 0c0 -43 -33 -76 -71 -98c-51 -30 -111 -40 -170 -40s-119 10 -170 40c-38 22 -71 55 -71 98s33 76 71 98c51 30 111 40 170 40s119 -10 170 -40
c38 -22 71 -55 71 -98z" fill="currentColor"/>
</g>
<g transform="translate(36.8683, 11.3326)">
<path transform="scale(0.0040, -0.0040)" d="M210 110c-49 0 -67 -43 -67 -88c0 -74 56 -132 129 -132c49 0 67 43 67 88c0 74 -56 132 -129 132zM482 0c0 -43 -33 -76 -71 -98c-51 -30 -111 -40 -170 -40s-119 10 -170 40c-38 22 -71 55 -71 98s33 76 71 98c51 30 111 40 170 40s119 -10 170 -40
c38 -22 71 -55 71 -98z" fill="currentColor"/>
</g>
<g transform="translate(36.8683, 19.8326)">
<path transform="scale(0.0040, -0.0040)" d="M210 110c-49 0 -67 -43 -67 -88c0 -74 56 -132 129 -132c49 0 67 43 67 88c0 74 -56 132 -129 132zM482 0c0 -43 -33 -76 -71 -98c-51 -30 -111 -40 -170 -40s-119 10 -170 40c-38 22 -71 55 -71 98s33 76 71 98c51 30 111 40 170 40s119 -10 170 -40
c38 -22 71 -55 71 -98z" fill="currentColor"/>
</g>
<g transform="translate(36.8683, 27.3326)">
<path transform="scale(0.0040, -0.0040)" d="M210 110c-49 0 -67 -43 -67 -88c0 -74 56 -132 129 -132c49 0 67 43 67 88c0 74 -56 132 -129 132zM482 0c0 -43 -33 -76 -71 -98c-51 -30 -111 -40 -170 -40s-119 10 -170 40c-38 22 -71 55 -71 98s33 76 71 98c51 30 111 40 170 40s119 -10 170 -40
c38 -22 71 -55 71 -98z" fill="currentColor"/>
</g>
<g transform="translate(35.4183, 11.3326)">
<path transform="scale(0.0040, -0.0040)" d="M198 -329c-12 0 -21 9 -21 21v138l-79 -30v-154c0 -12 -9 -21 -21 -21s-21 9 -21 21v138l-22 -8c-3 -1 -6 -2 -9 -2c-13 0 -25 11 -25 25v54c0 10 6 20 16 24l40 15v155l-22 -9c-3 -1 -6 -1 -9 -1c-13 0 -25 11 -25 25v54c0 10 6 19 16 23l40 15v154c0 12 9 21 21 21
s21 -9 21 -21v-138l79 30v154c0 12 9 21 21 21s21 -9 21 -21v-138l22 8c3 1 6 2 9 2c13 0 25 -11 25 -25v-54c0 -10 -6 -20 -16 -24l-40 -15v-155l22 9c3 1 6 1 9 1c13 0 25 -11 25 -25v-54c0 -10 -6 -19 -16 -23l-40 -15v-154c0 -12 -9 -21 -21 -21zM98 62v-154l79 30v154z
" fill="currentColor"/>
</g>
<g transform="translate(16.4467, 6.0494)">
<path transform="scale(0.0040, -0.0040)" d="M0 -56v83c0 16 13 29 29 29h59c154 0 257 136 342 267c13 20 44 0 31 -20c-93 -143 -204 -359 -373 -359h-88z" fill="currentColor"/>
</g>
<g transform="translate(16.4467, 28.6158)">
<path transform="scale(0.0040, -0.0040)" d="M0 56h88c169 0 280 -216 373 -359c13 -20 -18 -40 -31 -20c-85 131 -188 267 -342 267h-59c-16 0 -29 13 -29 29v83z" fill="currentColor"/>
</g>
<g transform="translate(16.4467, 17.3326)">
<rect x="0.0000" y="-11.1032" width="0.4500" height="22.2064" ry="0.0000" fill="currentColor"/>
</g>
<g transform="translate(17.6967, 17.3326)">
<rect x="0.0000" y="-11.0582" width="0.1863" height="22.1164" ry="0.0582" fill="currentColor"/>
</g>
<g transform="translate(22.1330, 20.3326)">
<path transform="scale(0.0040, -0.0040)" d="M198 -329c-12 0 -21 9 -21 21v138l-79 -30v-154c0 -12 -9 -21 -21 -21s-21 9 -21 21v138l-22 -8c-3 -1 -6 -2 -9 -2c-13 0 -25 11 -25 25v54c0 10 6 20 16 24l40 15v155l-22 -9c-3 -1 -6 -1 -9 -1c-13 0 -25 11 -25 25v54c0 10 6 19 16 23l40 15v154c0 12 9 21 21 21
s21 -9 21 -21v-138l79 30v154c0 12 9 21 21 21s21 -9 21 -21v-138l22 8c3 1 6 2 9 2c13 0 25 -11 25 -25v-54c0 -10 -6 -20 -16 -24l-40 -15v-155l22 9c3 1 6 1 9 1c13 0 25 -11 25 -25v-54c0 -10 -6 -19 -16 -23l-40 -15v-154c0 -12 -9 -21 -21 -21zM98 62v-154l79 30v154z
" fill="currentColor"/>
</g>
<g transform="translate(22.1330, 27.8326)">
<path transform="scale(0.0040, -0.0040)" d="M198 -329c-12 0 -21 9 -21 21v138l-79 -30v-154c0 -12 -9 -21 -21 -21s-21 9 -21 21v138l-22 -8c-3 -1 -6 -2 -9 -2c-13 0 -25 11 -25 25v54c0 10 6 20 16 24l40 15v155l-22 -9c-3 -1 -6 -1 -9 -1c-13 0 -25 11 -25 25v54c0 10 6 19 16 23l40 15v154c0 12 9 21 21 21
s21 -9 21 -21v-138l79 30v154c0 12 9 21 21 21s21 -9 21 -21v-138l22 8c3 1 6 2 9 2c13 0 25 -11 25 -25v-54c0 -10 -6 -20 -16 -24l-40 -15v-155l22 9c3 1 6 1 9 1c13 0 25 -11 25 -25v-54c0 -10 -6 -19 -16 -23l-40 -15v-154c0 -12 -9 -21 -21 -21zM98 62v-154l79 30v154z
" fill="currentColor"/>
</g>
<g transform="translate(49.0037, 26.3326)">
<path transform="scale(0.0040, -0.0040)" d="M31 37l-2 -62v-11c0 -22 2 -43 5 -64c43 38 89 80 89 137c0 32 -14 65 -42 65c-31 0 -49 -32 -50 -65zM-30 450c9 5 20 8 30 8s21 -3 30 -8l-8 -340c25 24 59 38 94 38c50 0 84 -50 84 -104c0 -78 -83 -117 -141 -169c-17 -15 -25 -44 -49 -44c-15 0 -26 13 -26 29z" fill="currentColor"/>
</g>
<g transform="translate(50.1537, 10.3326)">
<path transform="scale(0.0040, -0.0040)" d="M210 110c-49 0 -67 -43 -67 -88c0 -74 56 -132 129 -132c49 0 67 43 67 88c0 74 -56 132 -129 132zM482 0c0 -43 -33 -76 -71 -98c-51 -30 -111 -40 -170 -40s-119 10 -170 40c-38 22 -71 55 -71 98s33 76 71 98c51 30 111 40 170 40s119 -10 170 -40
c38 -22 71 -55 71 -98z" fill="currentColor"/>
</g>
<g transform="translate(50.1537, 17.8326)">
<path transform="scale(0.0040, -0.0040)" d="M210 110c-49 0 -67 -43 -67 -88c0 -74 56 -132 129 -132c49 0 67 43 67 88c0 74 -56 132 -129 132zM482 0c0 -43 -33 -76 -71 -98c-51 -30 -111 -40 -170 -40s-119 10 -170 40c-38 22 -71 55 -71 98s33 76 71 98c51 30 111 40 170 40s119 -10 170 -40
c38 -22 71 -55 71 -98z" fill="currentColor"/>
</g>
<g transform="translate(50.1537, 26.3326)">
<path transform="scale(0.0040, -0.0040)" d="M210 110c-49 0 -67 -43 -67 -88c0 -74 56 -132 129 -132c49 0 67 43 67 88c0 74 -56 132 -129 132zM482 0c0 -43 -33 -76 -71 -98c-51 -30 -111 -40 -170 -40s-119 10 -170 40c-38 22 -71 55 -71 98s33 76 71 98c51 30 111 40 170 40s119 -10 170 -40
c38 -22 71 -55 71 -98z" fill="currentColor"/>
</g>
</svg>
