<svg xmlns="http://www.w3.org/2000/svg" xmlns:xlink="http://www.w3.org/1999/xlink" version="1.2" width="210.00mm" height="297.00mm" viewBox="0.0000 -0.0000 119.5016 169.0094">
<style type="text/css">
<![CDATA[
tspan { white-space: pre; }
]]>
</style>
<g transform="translate(9.0358, 9.6906)">
<path transform="scale(0.0040, -0.0040)" d="M218 136c66 0 108 -36 108 -89c0 -89 -113 -183 -218 -183c-66 0 -108 36 -108 89c0 89 113 183 218 183z" fill="currentColor"/>
</g>
<g transform="translate(10.2750, 9.6906)">
<rect x="-0.0650" y="-2.6861" width="0.1300" height="2.5000" ry="0.0400" fill="currentColor"/>
</g>
<g transform="translate(10.9400, 9.6906)">
<text font-family="serif" font-size="2.2001" text-anchor="start" fill="currentColor">
<tspan>=</tspan>
</text>
</g>
<g transform="translate(12.7692, 9.6906)">
<path transform="scale(0.0040, -0.0040)" d="M218 136c66 0 108 -36 108 -89c0 -89 -113 -183 -218 -183c-66 0 -108 36 -108 89c0 89 113 183 218 183z" fill="currentColor"/>
</g>
<g transform="translate(14.0084, 9.6906)">
<rect x="-0.0650" y="-2.6861" width="0.1300" height="2.5000" ry="0.0400" fill="currentColor"/>
</g>
<g transform="translate(15.5734, 9.6906)">
<path transform="scale(0.0040, -0.0040)" d="M218 136c66 0 108 -36 108 -89c0 -89 -113 -183 -218 -183c-66 0 -108 36 -108 89c0 89 113 183 218 183z" fill="currentColor"/>
</g>
<g transform="translate(16.8126, 9.6906)">
<rect x="-0.0650" y="-2.6861" width="0.1300" height="2.5000" ry="0.0400" fill="currentColor"/>
</g>
<g transform="translate(16.8776, 7.0444)">
<path transform="scale(0.0040, -0.0040)" d="M0 0c0 -177 201 -293 201 -470c0 -33 -9 -65 -23 -95c18 -37 29 -75 29 -117c0 -63 -15 -125 -41 -183c-5 -8 -13 -12 -20 -12c-13 0 -26 11 -23 27c26 52 42 110 42 168c0 97 -94 190 -165 257v-75h-16v500h16zM151 -517c5 15 8 31 8 47c0 96 -91 190 -159 257
c0 -118 90 -206 151 -304z" fill="currentColor"/>
</g>
<g transform="translate(12.7692, 9.6906)">
<path stroke-width="0.0800" stroke-linejoin="round" stroke-linecap="round" stroke="currentColor" fill="currentColor" d="M0.8521 0.7500C1.4110 1.3823 2.6975 1.3823 3.2563 0.7500L3.2563 0.7500C2.6975 1.2623 1.4110 1.2623 0.8521 0.7500z"/>
</g>
<g transform="translate(34.5530, 162.8440)">
<a xlink:href="https://lilypond.org/">
<rect x="0.0000" y="-0.4748" width="50.3955" height="2.0024" fill="none" stroke="none" stroke-width="0.0"/>
</a>
</g>
<g transform="translate(34.5530, 162.8440)">
<text font-family="serif" font-size="2.2001" text-anchor="start" fill="currentColor">
<tspan>Music engraving by LilyPond 2.25.0—www.lilypond.org</tspan>
</text>
</g>
</svg>
