<svg xmlns="http://www.w3.org/2000/svg" xmlns:xlink="http://www.w3.org/1999/xlink" version="1.2" width="210.00mm" height="297.00mm" viewBox="0.0000 -0.0000 149.3770 211.2617">
<style type="text/css">
<![CDATA[
tspan { white-space: pre; }
]]>
</style>
<g transform="translate(10.6698, 25.1822)">
<rect x="86.8714" y="-0.1082" width="1.8098" height="0.2164" ry="0.1082" fill="currentColor"/>
</g>
<g transform="translate(10.6698, 25.1822)">
<rect x="64.7331" y="-0.1082" width="1.8011" height="0.2164" ry="0.1082" fill="currentColor"/>
</g>
<g transform="translate(21.3396, 24.1822)">
<line stroke-linejoin="round" stroke-linecap="round" stroke-width="0.1164" stroke="currentColor" x1="0.0582" y1="0" x2="117.3094" y2="0"/>
</g>
<g transform="translate(21.3396, 23.1822)">
<line stroke-linejoin="round" stroke-linecap="round" stroke-width="0.1164" stroke="currentColor" x1="0.0582" y1="0" x2="117.3094" y2="0"/>
</g>
<g transform="translate(21.3396, 22.1822)">
<line stroke-linejoin="round" stroke-linecap="round" stroke-width="0.1164" stroke="currentColor" x1="0.0582" y1="0" x2="117.3094" y2="0"/>
</g>
<g transform="translate(21.3396, 21.1822)">
<line stroke-linejoin="round" stroke-linecap="round" stroke-width="0.1164" stroke="currentColor" x1="0.0582" y1="0" x2="117.3094" y2="0"/>
</g>
<g transform="translate(21.3396, 20.1822)">
<line stroke-linejoin="round" stroke-linecap="round" stroke-width="0.1164" stroke="currentColor" x1="0.0582" y1="0" x2="117.3094" y2="0"/>
</g>
<g transform="translate(138.4860, 18.1673)">
<rect x="0.0000" y="119.0908" width="0.2212" height="18.5453" ry="0.0000" fill="currentColor"/>
</g>
<g transform="translate(138.4860, 18.1673)">
<rect x="0.0000" y="96.4872" width="0.2212" height="18.5453" ry="0.0000" fill="currentColor"/>
</g>
<g transform="translate(138.4860, 18.1673)">
<rect x="0.0000" y="73.8837" width="0.2212" height="18.5453" ry="0.0000" fill="currentColor"/>
</g>
<g transform="translate(138.4860, 18.1673)">
<rect x="0.0000" y="51.2802" width="0.2212" height="18.5453" ry="0.0000" fill="currentColor"/>
</g>
<g transform="translate(138.4860, 18.1673)">
<rect x="0.0000" y="28.6766" width="0.2212" height="18.5453" ry="0.0000" fill="currentColor"/>
</g>
<g transform="translate(10.6698, 47.7857)">
<rect x="86.8714" y="-0.1082" width="1.8098" height="0.2164" ry="0.1082" fill="currentColor"/>
</g>
<g transform="translate(10.6698, 47.7857)">
<rect x="64.7331" y="-0.1082" width="1.8011" height="0.2164" ry="0.1082" fill="currentColor"/>
</g>
<g transform="translate(21.3396, 46.7857)">
<line stroke-linejoin="round" stroke-linecap="round" stroke-width="0.1164" stroke="currentColor" x1="0.0582" y1="0" x2="117.3094" y2="0"/>
</g>
<g transform="translate(21.3396, 45.7857)">
<line stroke-linejoin="round" stroke-linecap="round" stroke-width="0.1164" stroke="currentColor" x1="0.0582" y1="0" x2="117.3094" y2="0"/>
</g>
<g transform="translate(21.3396, 44.7857)">
<line stroke-linejoin="round" stroke-linecap="round" stroke-width="0.1164" stroke="currentColor" x1="0.0582" y1="0" x2="117.3094" y2="0"/>
</g>
<g transform="translate(21.3396, 43.7857)">
<line stroke-linejoin="round" stroke-linecap="round" stroke-width="0.1164" stroke="currentColor" x1="0.0582" y1="0" x2="117.3094" y2="0"/>
</g>
<g transform="translate(21.3396, 42.7857)">
<line stroke-linejoin="round" stroke-linecap="round" stroke-width="0.1164" stroke="currentColor" x1="0.0582" y1="0" x2="117.3094" y2="0"/>
</g>
<g transform="translate(138.4860, 157.8034)">
<rect x="0.0000" y="-2.0582" width="0.2212" height="4.0582" ry="0.0000" fill="currentColor"/>
</g>
<g transform="translate(138.4860, 135.1999)">
<rect x="0.0000" y="-2.0582" width="0.2212" height="4.1164" ry="0.0000" fill="currentColor"/>
</g>
<g transform="translate(10.6698, 70.3893)">
<rect x="105.6265" y="-0.1082" width="1.8011" height="0.2164" ry="0.1082" fill="currentColor"/>
</g>
<g transform="translate(10.6698, 70.3893)">
<rect x="79.3477" y="-0.1082" width="1.9512" height="0.2164" ry="0.1082" fill="currentColor"/>
</g>
<g transform="translate(21.3396, 69.3893)">
<line stroke-linejoin="round" stroke-linecap="round" stroke-width="0.1164" stroke="currentColor" x1="0.0582" y1="0" x2="117.3094" y2="0"/>
</g>
<g transform="translate(21.3396, 68.3893)">
<line stroke-linejoin="round" stroke-linecap="round" stroke-width="0.1164" stroke="currentColor" x1="0.0582" y1="0" x2="117.3094" y2="0"/>
</g>
<g transform="translate(21.3396, 67.3893)">
<line stroke-linejoin="round" stroke-linecap="round" stroke-width="0.1164" stroke="currentColor" x1="0.0582" y1="0" x2="117.3094" y2="0"/>
</g>
<g transform="translate(21.3396, 66.3893)">
<line stroke-linejoin="round" stroke-linecap="round" stroke-width="0.1164" stroke="currentColor" x1="0.0582" y1="0" x2="117.3094" y2="0"/>
</g>
<g transform="translate(21.3396, 65.3893)">
<line stroke-linejoin="round" stroke-linecap="round" stroke-width="0.1164" stroke="currentColor" x1="0.0582" y1="0" x2="117.3094" y2="0"/>
</g>
<g transform="translate(138.4860, 112.5963)">
<rect x="0.0000" y="-2.0582" width="0.2212" height="4.1164" ry="0.0000" fill="currentColor"/>
</g>
<g transform="translate(138.4860, 89.9928)">
<rect x="0.0000" y="-2.0582" width="0.2212" height="4.1164" ry="0.0000" fill="currentColor"/>
</g>
<g transform="translate(10.6698, 92.9928)">
<rect x="94.3787" y="-0.1082" width="1.8011" height="0.2164" ry="0.1082" fill="currentColor"/>
</g>
<g transform="translate(10.6698, 92.9928)">
<rect x="71.9653" y="-0.1082" width="1.9512" height="0.2164" ry="0.1082" fill="currentColor"/>
</g>
<g transform="translate(21.3396, 91.9928)">
<line stroke-linejoin="round" stroke-linecap="round" stroke-width="0.1164" stroke="currentColor" x1="0.0582" y1="0" x2="117.3094" y2="0"/>
</g>
<g transform="translate(21.3396, 90.9928)">
<line stroke-linejoin="round" stroke-linecap="round" stroke-width="0.1164" stroke="currentColor" x1="0.0582" y1="0" x2="117.3094" y2="0"/>
</g>
<g transform="translate(21.3396, 89.9928)">
<line stroke-linejoin="round" stroke-linecap="round" stroke-width="0.1164" stroke="currentColor" x1="0.0582" y1="0" x2="117.3094" y2="0"/>
</g>
<g transform="translate(21.3396, 88.9928)">
<line stroke-linejoin="round" stroke-linecap="round" stroke-width="0.1164" stroke="currentColor" x1="0.0582" y1="0" x2="117.3094" y2="0"/>
</g>
<g transform="translate(21.3396, 87.9928)">
<line stroke-linejoin="round" stroke-linecap="round" stroke-width="0.1164" stroke="currentColor" x1="0.0582" y1="0" x2="117.3094" y2="0"/>
</g>
<g transform="translate(138.4860, 67.3893)">
<rect x="0.0000" y="-2.0582" width="0.2212" height="4.1164" ry="0.0000" fill="currentColor"/>
</g>
<g transform="translate(138.4860, 44.7857)">
<rect x="0.0000" y="-2.0000" width="0.2212" height="4.0582" ry="0.0000" fill="currentColor"/>
</g>
<g transform="translate(10.6698, 115.5963)">
<rect x="86.8802" y="-0.1082" width="1.8011" height="0.2164" ry="0.1082" fill="currentColor"/>
</g>
<g transform="translate(10.6698, 115.5963)">
<rect x="64.5830" y="-0.1082" width="1.9512" height="0.2164" ry="0.1082" fill="currentColor"/>
</g>
<g transform="translate(21.3396, 114.5963)">
<line stroke-linejoin="round" stroke-linecap="round" stroke-width="0.1164" stroke="currentColor" x1="0.0582" y1="0" x2="117.3094" y2="0"/>
</g>
<g transform="translate(21.3396, 113.5963)">
<line stroke-linejoin="round" stroke-linecap="round" stroke-width="0.1164" stroke="currentColor" x1="0.0582" y1="0" x2="117.3094" y2="0"/>
</g>
<g transform="translate(21.3396, 112.5963)">
<line stroke-linejoin="round" stroke-linecap="round" stroke-width="0.1164" stroke="currentColor" x1="0.0582" y1="0" x2="117.3094" y2="0"/>
</g>
<g transform="translate(21.3396, 111.5963)">
<line stroke-linejoin="round" stroke-linecap="round" stroke-width="0.1164" stroke="currentColor" x1="0.0582" y1="0" x2="117.3094" y2="0"/>
</g>
<g transform="translate(21.3396, 110.5963)">
<line stroke-linejoin="round" stroke-linecap="round" stroke-width="0.1164" stroke="currentColor" x1="0.0582" y1="0" x2="117.3094" y2="0"/>
</g>
<g transform="translate(138.4860, 22.1822)">
<rect x="0.0000" y="-2.0000" width="0.2212" height="4.0000" ry="0.0000" fill="currentColor"/>
</g>
<g transform="translate(71.7352, 18.1673)">
<rect x="0.0000" y="119.0908" width="0.2212" height="18.5453" ry="0.0000" fill="currentColor"/>
</g>
<g transform="translate(71.7352, 18.1673)">
<rect x="0.0000" y="96.4872" width="0.2212" height="18.5453" ry="0.0000" fill="currentColor"/>
</g>
<g transform="translate(71.7352, 18.1673)">
<rect x="0.0000" y="73.8837" width="0.2212" height="18.5453" ry="0.0000" fill="currentColor"/>
</g>
<g transform="translate(71.7352, 18.1673)">
<rect x="0.0000" y="51.2802" width="0.2212" height="18.5453" ry="0.0000" fill="currentColor"/>
</g>
<g transform="translate(71.7352, 18.1673)">
<rect x="0.0000" y="28.6766" width="0.2212" height="18.5453" ry="0.0000" fill="currentColor"/>
</g>
<g transform="translate(10.6698, 138.1999)">
<rect x="105.6178" y="-0.1082" width="1.8098" height="0.2164" ry="0.1082" fill="currentColor"/>
</g>
<g transform="translate(10.6698, 138.1999)">
<rect x="79.4978" y="-0.1082" width="1.8011" height="0.2164" ry="0.1082" fill="currentColor"/>
</g>
<g transform="translate(21.3396, 137.1999)">
<line stroke-linejoin="round" stroke-linecap="round" stroke-width="0.1164" stroke="currentColor" x1="0.0582" y1="0" x2="117.3094" y2="0"/>
</g>
<g transform="translate(21.3396, 136.1999)">
<line stroke-linejoin="round" stroke-linecap="round" stroke-width="0.1164" stroke="currentColor" x1="0.0582" y1="0" x2="117.3094" y2="0"/>
</g>
<g transform="translate(21.3396, 135.1999)">
<line stroke-linejoin="round" stroke-linecap="round" stroke-width="0.1164" stroke="currentColor" x1="0.0582" y1="0" x2="117.3094" y2="0"/>
</g>
<g transform="translate(21.3396, 134.1999)">
<line stroke-linejoin="round" stroke-linecap="round" stroke-width="0.1164" stroke="currentColor" x1="0.0582" y1="0" x2="117.3094" y2="0"/>
</g>
<g transform="translate(21.3396, 133.1999)">
<line stroke-linejoin="round" stroke-linecap="round" stroke-width="0.1164" stroke="currentColor" x1="0.0582" y1="0" x2="117.3094" y2="0"/>
</g>
<g transform="translate(71.7352, 157.8034)">
<rect x="0.0000" y="-2.0582" width="0.2212" height="4.0582" ry="0.0000" fill="currentColor"/>
</g>
<g transform="translate(71.7352, 135.1999)">
<rect x="0.0000" y="-2.0582" width="0.2212" height="4.1164" ry="0.0000" fill="currentColor"/>
</g>
<g transform="translate(10.6698, 160.8034)">
<rect x="94.3700" y="-0.1082" width="1.8098" height="0.2164" ry="0.1082" fill="currentColor"/>
</g>
<g transform="translate(10.6698, 160.8034)">
<rect x="72.1155" y="-0.1082" width="1.8011" height="0.2164" ry="0.1082" fill="currentColor"/>
</g>
<g transform="translate(21.3396, 159.8034)">
<line stroke-linejoin="round" stroke-linecap="round" stroke-width="0.1164" stroke="currentColor" x1="0.0582" y1="0" x2="117.3094" y2="0"/>
</g>
<g transform="translate(21.3396, 158.8034)">
<line stroke-linejoin="round" stroke-linecap="round" stroke-width="0.1164" stroke="currentColor" x1="0.0582" y1="0" x2="117.3094" y2="0"/>
</g>
<g transform="translate(21.3396, 157.8034)">
<line stroke-linejoin="round" stroke-linecap="round" stroke-width="0.1164" stroke="currentColor" x1="0.0582" y1="0" x2="117.3094" y2="0"/>
</g>
<g transform="translate(21.3396, 156.8034)">
<line stroke-linejoin="round" stroke-linecap="round" stroke-width="0.1164" stroke="currentColor" x1="0.0582" y1="0" x2="117.3094" y2="0"/>
</g>
<g transform="translate(21.3396, 155.8034)">
<line stroke-linejoin="round" stroke-linecap="round" stroke-width="0.1164" stroke="currentColor" x1="0.0582" y1="0" x2="117.3094" y2="0"/>
</g>
<g transform="translate(71.7352, 112.5963)">
<rect x="0.0000" y="-2.0582" width="0.2212" height="4.1164" ry="0.0000" fill="currentColor"/>
</g>
<g transform="translate(71.7352, 89.9928)">
<rect x="0.0000" y="-2.0582" width="0.2212" height="4.1164" ry="0.0000" fill="currentColor"/>
</g>
<g transform="translate(71.7352, 67.3893)">
<rect x="0.0000" y="-2.0582" width="0.2212" height="4.1164" ry="0.0000" fill="currentColor"/>
</g>
<g transform="translate(71.7352, 44.7857)">
<rect x="0.0000" y="-2.0000" width="0.2212" height="4.0582" ry="0.0000" fill="currentColor"/>
</g>
<g transform="translate(71.7352, 22.1822)">
<rect x="0.0000" y="-2.0000" width="0.2212" height="4.0000" ry="0.0000" fill="currentColor"/>
</g>
<g transform="translate(27.1396, 23.6822)">
<path transform="scale(0.0040, -0.0040)" d="M0 -43c0 92 111 181 211 181c65 0 115 -37 115 -95c0 -88 -106 -181 -215 -181c-70 0 -111 41 -111 95z" fill="currentColor"/>
</g>
<g transform="translate(27.1396, 19.6240)">
<text font-family="serif" font-size="2.2001" text-anchor="start" fill="currentColor">
<tspan>I</tspan>
</text>
</g>
<g transform="translate(22.1396, 23.1822)">
<path transform="scale(0.0040, -0.0040)" d="M647 2c0 -114 -75 -214 -180 -248c3 -33 4 -66 4 -99c0 -21 0 -41 -1 -62c-7 -122 -92 -229 -211 -229c-108 0 -196 88 -196 197c0 58 54 103 113 103c54 0 95 -47 95 -103c0 -52 -43 -95 -95 -95c-9 0 -18 1 -27 4c25 -37 66 -61 113 -61c93 0 156 91 162 191
c1 19 2 38 2 57c0 29 -1 58 -3 87c-28 -5 -54 -8 -79 -8c-242 0 -342 222 -342 376c0 177 129 308 244 443c-33 100 -55 169 -55 347c0 186 141 292 159 292c33 0 148 -208 148 -361c0 -142 -84 -255 -176 -364c21 -68 40 -136 57 -205c3 0 8 1 11 1
c156 0 257 -129 257 -263zM406 148c28 -133 49 -269 57 -349c73 27 109 93 109 160c0 86 -58 175 -166 189zM77 25c0 -111 96 -243 275 -243c21 0 44 1 67 5c-7 66 -27 208 -60 362c-79 -8 -124 -60 -124 -118c0 -43 25 -88 80 -120c5 -5 7 -11 7 -17c0 -12 -10 -23 -23 -23
c-16 0 -128 62 -128 188c0 89 60 177 163 200c-14 57 -30 113 -47 169c-105 -122 -210 -243 -210 -403zM424 920c0 61 -20 118 -21 118c-31 -14 -161 -85 -161 -253c0 -53 15 -113 39 -189c71 88 143 196 143 324z" fill="currentColor"/>
</g>
<g transform="translate(27.1396, 46.2857)">
<path transform="scale(0.0040, -0.0040)" d="M0 -43c0 92 111 181 211 181c65 0 115 -37 115 -95c0 -88 -106 -181 -215 -181c-70 0 -111 41 -111 95z" fill="currentColor"/>
</g>
<g transform="translate(27.1396, 50.1904)">
<rect x="-0.3164" y="-0.1164" width="1.7852" height="0.1164" ry="0.0000" fill="currentColor"/>
</g>
<g transform="translate(27.1396, 48.6310)">
<rect x="-0.3164" y="-0.1164" width="1.7852" height="0.1164" ry="0.0000" fill="currentColor"/>
</g>
<g transform="translate(26.8231, 49.8440)">
<rect x="0" y="-1.2129" width="0.1164" height="1.4430" ry="0.0000" fill="currentColor"/>
</g>
<g transform="translate(28.4919, 49.8440)">
<rect x="0" y="-1.2129" width="0.1164" height="1.4430" ry="0.0000" fill="currentColor"/>
</g>
<g transform="translate(27.1396, 49.8440)">
<text font-family="serif" font-size="2.2001" text-anchor="start" fill="currentColor">
<tspan>α</tspan>
</text>
</g>
<g transform="translate(27.1396, 39.7275)">
<text font-family="serif" font-size="2.2001" text-anchor="start" fill="currentColor">
<tspan>NumberedPitchClass(5)</tspan>
</text>
</g>
<g transform="translate(22.1396, 45.7857)">
<path transform="scale(0.0040, -0.0040)" d="M647 2c0 -114 -75 -214 -180 -248c3 -33 4 -66 4 -99c0 -21 0 -41 -1 -62c-7 -122 -92 -229 -211 -229c-108 0 -196 88 -196 197c0 58 54 103 113 103c54 0 95 -47 95 -103c0 -52 -43 -95 -95 -95c-9 0 -18 1 -27 4c25 -37 66 -61 113 -61c93 0 156 91 162 191
c1 19 2 38 2 57c0 29 -1 58 -3 87c-28 -5 -54 -8 -79 -8c-242 0 -342 222 -342 376c0 177 129 308 244 443c-33 100 -55 169 -55 347c0 186 141 292 159 292c33 0 148 -208 148 -361c0 -142 -84 -255 -176 -364c21 -68 40 -136 57 -205c3 0 8 1 11 1
c156 0 257 -129 257 -263zM406 148c28 -133 49 -269 57 -349c73 27 109 93 109 160c0 86 -58 175 -166 189zM77 25c0 -111 96 -243 275 -243c21 0 44 1 67 5c-7 66 -27 208 -60 362c-79 -8 -124 -60 -124 -118c0 -43 25 -88 80 -120c5 -5 7 -11 7 -17c0 -12 -10 -23 -23 -23
c-16 0 -128 62 -128 188c0 89 60 177 163 200c-14 57 -30 113 -47 169c-105 -122 -210 -243 -210 -403zM424 920c0 61 -20 118 -21 118c-31 -14 -161 -85 -161 -253c0 -53 15 -113 39 -189c71 88 143 196 143 324z" fill="currentColor"/>
</g>
<g transform="translate(27.1396, 69.3893)">
<path transform="scale(0.0040, -0.0040)" d="M0 -43c0 92 111 181 211 181c65 0 115 -37 115 -95c0 -88 -106 -181 -215 -181c-70 0 -111 41 -111 95z" fill="currentColor"/>
</g>
<g transform="translate(27.1396, 72.7940)">
<rect x="-0.3164" y="-0.1164" width="1.7852" height="0.1164" ry="0.0000" fill="currentColor"/>
</g>
<g transform="translate(27.1396, 71.2346)">
<rect x="-0.3164" y="-0.1164" width="1.7852" height="0.1164" ry="0.0000" fill="currentColor"/>
</g>
<g transform="translate(26.8231, 72.4475)">
<rect x="0" y="-1.2129" width="0.1164" height="1.4430" ry="0.0000" fill="currentColor"/>
</g>
<g transform="translate(28.4919, 72.4475)">
<rect x="0" y="-1.2129" width="0.1164" height="1.4430" ry="0.0000" fill="currentColor"/>
</g>
<g transform="translate(27.1396, 72.4475)">
<text font-family="serif" font-size="2.2001" text-anchor="start" fill="currentColor">
<tspan>α</tspan>
</text>
</g>
<g transform="translate(27.1396, 62.3311)">
<text font-family="serif" font-size="2.2001" text-anchor="start" fill="currentColor">
<tspan>NumberedPitchClass(4)</tspan>
</text>
</g>
<g transform="translate(22.1396, 68.3893)">
<path transform="scale(0.0040, -0.0040)" d="M647 2c0 -114 -75 -214 -180 -248c3 -33 4 -66 4 -99c0 -21 0 -41 -1 -62c-7 -122 -92 -229 -211 -229c-108 0 -196 88 -196 197c0 58 54 103 113 103c54 0 95 -47 95 -103c0 -52 -43 -95 -95 -95c-9 0 -18 1 -27 4c25 -37 66 -61 113 -61c93 0 156 91 162 191
c1 19 2 38 2 57c0 29 -1 58 -3 87c-28 -5 -54 -8 -79 -8c-242 0 -342 222 -342 376c0 177 129 308 244 443c-33 100 -55 169 -55 347c0 186 141 292 159 292c33 0 148 -208 148 -361c0 -142 -84 -255 -176 -364c21 -68 40 -136 57 -205c3 0 8 1 11 1
c156 0 257 -129 257 -263zM406 148c28 -133 49 -269 57 -349c73 27 109 93 109 160c0 86 -58 175 -166 189zM77 25c0 -111 96 -243 275 -243c21 0 44 1 67 5c-7 66 -27 208 -60 362c-79 -8 -124 -60 -124 -118c0 -43 25 -88 80 -120c5 -5 7 -11 7 -17c0 -12 -10 -23 -23 -23
c-16 0 -128 62 -128 188c0 89 60 177 163 200c-14 57 -30 113 -47 169c-105 -122 -210 -243 -210 -403zM424 920c0 61 -20 118 -21 118c-31 -14 -161 -85 -161 -253c0 -53 15 -113 39 -189c71 88 143 196 143 324z" fill="currentColor"/>
</g>
<g transform="translate(27.1396, 91.4928)">
<path transform="scale(0.0040, -0.0040)" d="M0 -43c0 92 111 181 211 181c65 0 115 -37 115 -95c0 -88 -106 -181 -215 -181c-70 0 -111 41 -111 95z" fill="currentColor"/>
</g>
<g transform="translate(27.1396, 95.3975)">
<rect x="-0.3164" y="-0.1164" width="1.7852" height="0.1164" ry="0.0000" fill="currentColor"/>
</g>
<g transform="translate(27.1396, 93.8381)">
<rect x="-0.3164" y="-0.1164" width="1.7852" height="0.1164" ry="0.0000" fill="currentColor"/>
</g>
<g transform="translate(26.8231, 95.0510)">
<rect x="0" y="-1.2129" width="0.1164" height="1.4430" ry="0.0000" fill="currentColor"/>
</g>
<g transform="translate(28.4919, 95.0510)">
<rect x="0" y="-1.2129" width="0.1164" height="1.4430" ry="0.0000" fill="currentColor"/>
</g>
<g transform="translate(27.1396, 95.0510)">
<text font-family="serif" font-size="2.2001" text-anchor="start" fill="currentColor">
<tspan>α</tspan>
</text>
</g>
<g transform="translate(27.1396, 84.9346)">
<text font-family="serif" font-size="2.2001" text-anchor="start" fill="currentColor">
<tspan>NumberedPitchClass(6)</tspan>
</text>
</g>
<g transform="translate(22.1396, 90.9928)">
<path transform="scale(0.0040, -0.0040)" d="M647 2c0 -114 -75 -214 -180 -248c3 -33 4 -66 4 -99c0 -21 0 -41 -1 -62c-7 -122 -92 -229 -211 -229c-108 0 -196 88 -196 197c0 58 54 103 113 103c54 0 95 -47 95 -103c0 -52 -43 -95 -95 -95c-9 0 -18 1 -27 4c25 -37 66 -61 113 -61c93 0 156 91 162 191
c1 19 2 38 2 57c0 29 -1 58 -3 87c-28 -5 -54 -8 -79 -8c-242 0 -342 222 -342 376c0 177 129 308 244 443c-33 100 -55 169 -55 347c0 186 141 292 159 292c33 0 148 -208 148 -361c0 -142 -84 -255 -176 -364c21 -68 40 -136 57 -205c3 0 8 1 11 1
c156 0 257 -129 257 -263zM406 148c28 -133 49 -269 57 -349c73 27 109 93 109 160c0 86 -58 175 -166 189zM77 25c0 -111 96 -243 275 -243c21 0 44 1 67 5c-7 66 -27 208 -60 362c-79 -8 -124 -60 -124 -118c0 -43 25 -88 80 -120c5 -5 7 -11 7 -17c0 -12 -10 -23 -23 -23
c-16 0 -128 62 -128 188c0 89 60 177 163 200c-14 57 -30 113 -47 169c-105 -122 -210 -243 -210 -403zM424 920c0 61 -20 118 -21 118c-31 -14 -161 -85 -161 -253c0 -53 15 -113 39 -189c71 88 143 196 143 324z" fill="currentColor"/>
</g>
<g transform="translate(27.1396, 113.0963)">
<path transform="scale(0.0040, -0.0040)" d="M0 -43c0 92 111 181 211 181c65 0 115 -37 115 -95c0 -88 -106 -181 -215 -181c-70 0 -111 41 -111 95z" fill="currentColor"/>
</g>
<g transform="translate(27.1396, 118.0010)">
<rect x="-0.3164" y="-0.1164" width="1.7852" height="0.1164" ry="0.0000" fill="currentColor"/>
</g>
<g transform="translate(27.1396, 116.4416)">
<rect x="-0.3164" y="-0.1164" width="1.7852" height="0.1164" ry="0.0000" fill="currentColor"/>
</g>
<g transform="translate(26.8231, 117.6546)">
<rect x="0" y="-1.2129" width="0.1164" height="1.4430" ry="0.0000" fill="currentColor"/>
</g>
<g transform="translate(28.4919, 117.6546)">
<rect x="0" y="-1.2129" width="0.1164" height="1.4430" ry="0.0000" fill="currentColor"/>
</g>
<g transform="translate(27.1396, 117.6546)">
<text font-family="serif" font-size="2.2001" text-anchor="start" fill="currentColor">
<tspan>α</tspan>
</text>
</g>
<g transform="translate(27.1396, 107.5381)">
<text font-family="serif" font-size="2.2001" text-anchor="start" fill="currentColor">
<tspan>NumberedPitchClass(8)</tspan>
</text>
</g>
<g transform="translate(22.1396, 113.5963)">
<path transform="scale(0.0040, -0.0040)" d="M647 2c0 -114 -75 -214 -180 -248c3 -33 4 -66 4 -99c0 -21 0 -41 -1 -62c-7 -122 -92 -229 -211 -229c-108 0 -196 88 -196 197c0 58 54 103 113 103c54 0 95 -47 95 -103c0 -52 -43 -95 -95 -95c-9 0 -18 1 -27 4c25 -37 66 -61 113 -61c93 0 156 91 162 191
c1 19 2 38 2 57c0 29 -1 58 -3 87c-28 -5 -54 -8 -79 -8c-242 0 -342 222 -342 376c0 177 129 308 244 443c-33 100 -55 169 -55 347c0 186 141 292 159 292c33 0 148 -208 148 -361c0 -142 -84 -255 -176 -364c21 -68 40 -136 57 -205c3 0 8 1 11 1
c156 0 257 -129 257 -263zM406 148c28 -133 49 -269 57 -349c73 27 109 93 109 160c0 86 -58 175 -166 189zM77 25c0 -111 96 -243 275 -243c21 0 44 1 67 5c-7 66 -27 208 -60 362c-79 -8 -124 -60 -124 -118c0 -43 25 -88 80 -120c5 -5 7 -11 7 -17c0 -12 -10 -23 -23 -23
c-16 0 -128 62 -128 188c0 89 60 177 163 200c-14 57 -30 113 -47 169c-105 -122 -210 -243 -210 -403zM424 920c0 61 -20 118 -21 118c-31 -14 -161 -85 -161 -253c0 -53 15 -113 39 -189c71 88 143 196 143 324z" fill="currentColor"/>
</g>
<g transform="translate(27.1396, 136.1999)">
<path transform="scale(0.0040, -0.0040)" d="M0 -43c0 92 111 181 211 181c65 0 115 -37 115 -95c0 -88 -106 -181 -215 -181c-70 0 -111 41 -111 95z" fill="currentColor"/>
</g>
<g transform="translate(27.1396, 140.6046)">
<rect x="-0.3164" y="-0.1164" width="1.7852" height="0.1164" ry="0.0000" fill="currentColor"/>
</g>
<g transform="translate(27.1396, 139.0452)">
<rect x="-0.3164" y="-0.1164" width="1.7852" height="0.1164" ry="0.0000" fill="currentColor"/>
</g>
<g transform="translate(26.8231, 140.2581)">
<rect x="0" y="-1.2129" width="0.1164" height="1.4430" ry="0.0000" fill="currentColor"/>
</g>
<g transform="translate(28.4919, 140.2581)">
<rect x="0" y="-1.2129" width="0.1164" height="1.4430" ry="0.0000" fill="currentColor"/>
</g>
<g transform="translate(27.1396, 140.2581)">
<text font-family="serif" font-size="2.2001" text-anchor="start" fill="currentColor">
<tspan>α</tspan>
</text>
</g>
<g transform="translate(27.1396, 130.1417)">
<text font-family="serif" font-size="2.2001" text-anchor="start" fill="currentColor">
<tspan>NumberedPitchClass(7)</tspan>
</text>
</g>
<g transform="translate(22.1396, 136.1999)">
<path transform="scale(0.0040, -0.0040)" d="M647 2c0 -114 -75 -214 -180 -248c3 -33 4 -66 4 -99c0 -21 0 -41 -1 -62c-7 -122 -92 -229 -211 -229c-108 0 -196 88 -196 197c0 58 54 103 113 103c54 0 95 -47 95 -103c0 -52 -43 -95 -95 -95c-9 0 -18 1 -27 4c25 -37 66 -61 113 -61c93 0 156 91 162 191
c1 19 2 38 2 57c0 29 -1 58 -3 87c-28 -5 -54 -8 -79 -8c-242 0 -342 222 -342 376c0 177 129 308 244 443c-33 100 -55 169 -55 347c0 186 141 292 159 292c33 0 148 -208 148 -361c0 -142 -84 -255 -176 -364c21 -68 40 -136 57 -205c3 0 8 1 11 1
c156 0 257 -129 257 -263zM406 148c28 -133 49 -269 57 -349c73 27 109 93 109 160c0 86 -58 175 -166 189zM77 25c0 -111 96 -243 275 -243c21 0 44 1 67 5c-7 66 -27 208 -60 362c-79 -8 -124 -60 -124 -118c0 -43 25 -88 80 -120c5 -5 7 -11 7 -17c0 -12 -10 -23 -23 -23
c-16 0 -128 62 -128 188c0 89 60 177 163 200c-14 57 -30 113 -47 169c-105 -122 -210 -243 -210 -403zM424 920c0 61 -20 118 -21 118c-31 -14 -161 -85 -161 -253c0 -53 15 -113 39 -189c71 88 143 196 143 324z" fill="currentColor"/>
</g>
<g transform="translate(27.1396, 157.8034)">
<path transform="scale(0.0040, -0.0040)" d="M0 -43c0 92 111 181 211 181c65 0 115 -37 115 -95c0 -88 -106 -181 -215 -181c-70 0 -111 41 -111 95z" fill="currentColor"/>
</g>
<g transform="translate(27.1396, 163.2081)">
<rect x="-0.3164" y="-0.1164" width="1.7852" height="0.1164" ry="0.0000" fill="currentColor"/>
</g>
<g transform="translate(27.1396, 161.6487)">
<rect x="-0.3164" y="-0.1164" width="1.7852" height="0.1164" ry="0.0000" fill="currentColor"/>
</g>
<g transform="translate(26.8231, 162.8616)">
<rect x="0" y="-1.2129" width="0.1164" height="1.4430" ry="0.0000" fill="currentColor"/>
</g>
<g transform="translate(28.4919, 162.8616)">
<rect x="0" y="-1.2129" width="0.1164" height="1.4430" ry="0.0000" fill="currentColor"/>
</g>
<g transform="translate(27.1396, 162.8616)">
<text font-family="serif" font-size="2.2001" text-anchor="start" fill="currentColor">
<tspan>α</tspan>
</text>
</g>
<g transform="translate(27.1396, 152.7452)">
<text font-family="serif" font-size="2.2001" text-anchor="start" fill="currentColor">
<tspan>NumberedPitchClass(11)</tspan>
</text>
</g>
<g transform="translate(22.1396, 158.8034)">
<path transform="scale(0.0040, -0.0040)" d="M647 2c0 -114 -75 -214 -180 -248c3 -33 4 -66 4 -99c0 -21 0 -41 -1 -62c-7 -122 -92 -229 -211 -229c-108 0 -196 88 -196 197c0 58 54 103 113 103c54 0 95 -47 95 -103c0 -52 -43 -95 -95 -95c-9 0 -18 1 -27 4c25 -37 66 -61 113 -61c93 0 156 91 162 191
c1 19 2 38 2 57c0 29 -1 58 -3 87c-28 -5 -54 -8 -79 -8c-242 0 -342 222 -342 376c0 177 129 308 244 443c-33 100 -55 169 -55 347c0 186 141 292 159 292c33 0 148 -208 148 -361c0 -142 -84 -255 -176 -364c21 -68 40 -136 57 -205c3 0 8 1 11 1
c156 0 257 -129 257 -263zM406 148c28 -133 49 -269 57 -349c73 27 109 93 109 160c0 86 -58 175 -166 189zM77 25c0 -111 96 -243 275 -243c21 0 44 1 67 5c-7 66 -27 208 -60 362c-79 -8 -124 -60 -124 -118c0 -43 25 -88 80 -120c5 -5 7 -11 7 -17c0 -12 -10 -23 -23 -23
c-16 0 -128 62 -128 188c0 89 60 177 163 200c-14 57 -30 113 -47 169c-105 -122 -210 -243 -210 -403zM424 920c0 61 -20 118 -21 118c-31 -14 -161 -85 -161 -253c0 -53 15 -113 39 -189c71 88 143 196 143 324z" fill="currentColor"/>
</g>
<g transform="translate(25.6896, 91.4928)">
<path transform="scale(0.0040, -0.0040)" d="M0 116c0 10 6 19 16 23l40 15v154c0 12 9 21 21 21s21 -9 21 -21v-138l79 30v154c0 12 9 21 21 21s21 -9 21 -21v-138l22 8c3 1 6 2 9 2c13 0 25 -11 25 -25v-54c0 -10 -6 -20 -16 -24l-40 -15v-155l22 9c3 1 6 1 9 1c13 0 25 -11 25 -25v-54c0 -10 -6 -19 -16 -23
l-40 -15v-154c0 -12 -9 -21 -21 -21s-21 9 -21 21v138l-79 -30v-154c0 -12 -9 -21 -21 -21s-21 9 -21 21v138l-22 -8c-3 -1 -6 -2 -9 -2c-13 0 -25 11 -25 25v54c0 10 6 20 16 24l40 15v155l-22 -9c-3 -1 -6 -1 -9 -1c-13 0 -25 11 -25 25v54zM177 92l-79 -30v-154l79 30
v154z" fill="currentColor"/>
</g>
<g transform="translate(25.9896, 113.0963)">
<path transform="scale(0.0040, -0.0040)" d="M31 37l-2 -62v-11c0 -22 2 -43 5 -64c43 38 89 80 89 137c0 32 -14 65 -42 65c-31 0 -49 -32 -50 -65zM-30 450c9 5 20 8 30 8s21 -3 30 -8l-8 -340c25 24 59 38 94 38c50 0 84 -50 84 -104c0 -78 -83 -117 -141 -169c-17 -15 -25 -44 -49 -44c-15 0 -26 13 -26 29z" fill="currentColor"/>
</g>
<g transform="translate(34.6813, 24.1822)">
<path transform="scale(0.0040, -0.0040)" d="M0 -43c0 92 111 181 211 181c65 0 115 -37 115 -95c0 -88 -106 -181 -215 -181c-70 0 -111 41 -111 95z" fill="currentColor"/>
</g>
<g transform="translate(34.6813, 46.7857)">
<path transform="scale(0.0040, -0.0040)" d="M0 -43c0 92 111 181 211 181c65 0 115 -37 115 -95c0 -88 -106 -181 -215 -181c-70 0 -111 41 -111 95z" fill="currentColor"/>
</g>
<g transform="translate(34.6813, 37.4152)">
<text font-family="serif" font-size="2.2001" text-anchor="start" fill="currentColor">
<tspan>NumberedPitchClass(4)</tspan>
</text>
</g>
<g transform="translate(34.6813, 68.8893)">
<path transform="scale(0.0040, -0.0040)" d="M0 -43c0 92 111 181 211 181c65 0 115 -37 115 -95c0 -88 -106 -181 -215 -181c-70 0 -111 41 -111 95z" fill="currentColor"/>
</g>
<g transform="translate(34.6813, 60.0187)">
<text font-family="serif" font-size="2.2001" text-anchor="start" fill="currentColor">
<tspan>NumberedPitchClass(6)</tspan>
</text>
</g>
<g transform="translate(34.6813, 90.4928)">
<path transform="scale(0.0040, -0.0040)" d="M0 -43c0 92 111 181 211 181c65 0 115 -37 115 -95c0 -88 -106 -181 -215 -181c-70 0 -111 41 -111 95z" fill="currentColor"/>
</g>
<g transform="translate(34.6813, 82.6222)">
<text font-family="serif" font-size="2.2001" text-anchor="start" fill="currentColor">
<tspan>NumberedPitchClass(8)</tspan>
</text>
</g>
<g transform="translate(34.6813, 113.5963)">
<path transform="scale(0.0040, -0.0040)" d="M0 -43c0 92 111 181 211 181c65 0 115 -37 115 -95c0 -88 -106 -181 -215 -181c-70 0 -111 41 -111 95z" fill="currentColor"/>
</g>
<g transform="translate(34.6813, 105.2258)">
<text font-family="serif" font-size="2.2001" text-anchor="start" fill="currentColor">
<tspan>NumberedPitchClass(7)</tspan>
</text>
</g>
<g transform="translate(34.6813, 135.1999)">
<path transform="scale(0.0040, -0.0040)" d="M0 -43c0 92 111 181 211 181c65 0 115 -37 115 -95c0 -88 -106 -181 -215 -181c-70 0 -111 41 -111 95z" fill="currentColor"/>
</g>
<g transform="translate(34.6813, 127.8293)">
<text font-family="serif" font-size="2.2001" text-anchor="start" fill="currentColor">
<tspan>NumberedPitchClass(11)</tspan>
</text>
</g>
<g transform="translate(34.6813, 159.3034)">
<path transform="scale(0.0040, -0.0040)" d="M0 -43c0 92 111 181 211 181c65 0 115 -37 115 -95c0 -88 -106 -181 -215 -181c-70 0 -111 41 -111 95z" fill="currentColor"/>
</g>
<g transform="translate(34.6813, 150.4328)">
<text font-family="serif" font-size="2.2001" text-anchor="start" fill="currentColor">
<tspan>NumberedPitchClass(5)</tspan>
</text>
</g>
<g transform="translate(33.2313, 68.8893)">
<path transform="scale(0.0040, -0.0040)" d="M0 116c0 10 6 19 16 23l40 15v154c0 12 9 21 21 21s21 -9 21 -21v-138l79 30v154c0 12 9 21 21 21s21 -9 21 -21v-138l22 8c3 1 6 2 9 2c13 0 25 -11 25 -25v-54c0 -10 -6 -20 -16 -24l-40 -15v-155l22 9c3 1 6 1 9 1c13 0 25 -11 25 -25v-54c0 -10 -6 -19 -16 -23
l-40 -15v-154c0 -12 -9 -21 -21 -21s-21 9 -21 21v138l-79 -30v-154c0 -12 -9 -21 -21 -21s-21 9 -21 21v138l-22 -8c-3 -1 -6 -2 -9 -2c-13 0 -25 11 -25 25v54c0 10 6 20 16 24l40 15v155l-22 -9c-3 -1 -6 -1 -9 -1c-13 0 -25 11 -25 25v54zM177 92l-79 -30v-154l79 30
v154z" fill="currentColor"/>
</g>
<g transform="translate(33.5313, 90.4928)">
<path transform="scale(0.0040, -0.0040)" d="M31 37l-2 -62v-11c0 -22 2 -43 5 -64c43 38 89 80 89 137c0 32 -14 65 -42 65c-31 0 -49 -32 -50 -65zM-30 450c9 5 20 8 30 8s21 -3 30 -8l-8 -340c25 24 59 38 94 38c50 0 84 -50 84 -104c0 -78 -83 -117 -141 -169c-17 -15 -25 -44 -49 -44c-15 0 -26 13 -26 29z" fill="currentColor"/>
</g>
<g transform="translate(42.2230, 23.6822)">
<path transform="scale(0.0040, -0.0040)" d="M0 -43c0 92 111 181 211 181c65 0 115 -37 115 -95c0 -88 -106 -181 -215 -181c-70 0 -111 41 -111 95z" fill="currentColor"/>
</g>
<g transform="translate(42.2230, 46.2857)">
<path transform="scale(0.0040, -0.0040)" d="M0 -43c0 92 111 181 211 181c65 0 115 -37 115 -95c0 -88 -106 -181 -215 -181c-70 0 -111 41 -111 95z" fill="currentColor"/>
</g>
<g transform="translate(42.2230, 35.0281)">
<text font-family="serif" font-size="2.2001" text-anchor="start" fill="currentColor">
<tspan>NumberedPitchClass(6)</tspan>
</text>
</g>
<g transform="translate(42.2230, 67.8893)">
<path transform="scale(0.0040, -0.0040)" d="M0 -43c0 92 111 181 211 181c65 0 115 -37 115 -95c0 -88 -106 -181 -215 -181c-70 0 -111 41 -111 95z" fill="currentColor"/>
</g>
<g transform="translate(42.2230, 57.6316)">
<text font-family="serif" font-size="2.2001" text-anchor="start" fill="currentColor">
<tspan>NumberedPitchClass(8)</tspan>
</text>
</g>
<g transform="translate(42.2230, 90.9928)">
<path transform="scale(0.0040, -0.0040)" d="M0 -43c0 92 111 181 211 181c65 0 115 -37 115 -95c0 -88 -106 -181 -215 -181c-70 0 -111 41 -111 95z" fill="currentColor"/>
</g>
<g transform="translate(42.2230, 80.2352)">
<text font-family="serif" font-size="2.2001" text-anchor="start" fill="currentColor">
<tspan>NumberedPitchClass(7)</tspan>
</text>
</g>
<g transform="translate(42.2230, 112.5963)">
<path transform="scale(0.0040, -0.0040)" d="M0 -43c0 92 111 181 211 181c65 0 115 -37 115 -95c0 -88 -106 -181 -215 -181c-70 0 -111 41 -111 95z" fill="currentColor"/>
</g>
<g transform="translate(42.2230, 102.8387)">
<text font-family="serif" font-size="2.2001" text-anchor="start" fill="currentColor">
<tspan>NumberedPitchClass(11)</tspan>
</text>
</g>
<g transform="translate(42.2230, 136.6999)">
<path transform="scale(0.0040, -0.0040)" d="M0 -43c0 92 111 181 211 181c65 0 115 -37 115 -95c0 -88 -106 -181 -215 -181c-70 0 -111 41 -111 95z" fill="currentColor"/>
</g>
<g transform="translate(42.2230, 125.4422)">
<text font-family="serif" font-size="2.2001" text-anchor="start" fill="currentColor">
<tspan>NumberedPitchClass(5)</tspan>
</text>
</g>
<g transform="translate(42.2230, 159.8034)">
<path transform="scale(0.0040, -0.0040)" d="M0 -43c0 92 111 181 211 181c65 0 115 -37 115 -95c0 -88 -106 -181 -215 -181c-70 0 -111 41 -111 95z" fill="currentColor"/>
</g>
<g transform="translate(42.2230, 148.0458)">
<text font-family="serif" font-size="2.2001" text-anchor="start" fill="currentColor">
<tspan>NumberedPitchClass(4)</tspan>
</text>
</g>
<g transform="translate(40.7730, 23.6822)">
<path transform="scale(0.0040, -0.0040)" d="M0 116c0 10 6 19 16 23l40 15v154c0 12 9 21 21 21s21 -9 21 -21v-138l79 30v154c0 12 9 21 21 21s21 -9 21 -21v-138l22 8c3 1 6 2 9 2c13 0 25 -11 25 -25v-54c0 -10 -6 -20 -16 -24l-40 -15v-155l22 9c3 1 6 1 9 1c13 0 25 -11 25 -25v-54c0 -10 -6 -19 -16 -23
l-40 -15v-154c0 -12 -9 -21 -21 -21s-21 9 -21 21v138l-79 -30v-154c0 -12 -9 -21 -21 -21s-21 9 -21 21v138l-22 -8c-3 -1 -6 -2 -9 -2c-13 0 -25 11 -25 25v54c0 10 6 20 16 24l40 15v155l-22 -9c-3 -1 -6 -1 -9 -1c-13 0 -25 11 -25 25v54zM177 92l-79 -30v-154l79 30
v154z" fill="currentColor"/>
</g>
<g transform="translate(40.7730, 46.2857)">
<path transform="scale(0.0040, -0.0040)" d="M0 116c0 10 6 19 16 23l40 15v154c0 12 9 21 21 21s21 -9 21 -21v-138l79 30v154c0 12 9 21 21 21s21 -9 21 -21v-138l22 8c3 1 6 2 9 2c13 0 25 -11 25 -25v-54c0 -10 -6 -20 -16 -24l-40 -15v-155l22 9c3 1 6 1 9 1c13 0 25 -11 25 -25v-54c0 -10 -6 -19 -16 -23
l-40 -15v-154c0 -12 -9 -21 -21 -21s-21 9 -21 21v138l-79 -30v-154c0 -12 -9 -21 -21 -21s-21 9 -21 21v138l-22 -8c-3 -1 -6 -2 -9 -2c-13 0 -25 11 -25 25v54c0 10 6 20 16 24l40 15v155l-22 -9c-3 -1 -6 -1 -9 -1c-13 0 -25 11 -25 25v54zM177 92l-79 -30v-154l79 30
v154z" fill="currentColor"/>
</g>
<g transform="translate(41.0730, 67.8893)">
<path transform="scale(0.0040, -0.0040)" d="M31 37l-2 -62v-11c0 -22 2 -43 5 -64c43 38 89 80 89 137c0 32 -14 65 -42 65c-31 0 -49 -32 -50 -65zM-30 450c9 5 20 8 30 8s21 -3 30 -8l-8 -340c25 24 59 38 94 38c50 0 84 -50 84 -104c0 -78 -83 -117 -141 -169c-17 -15 -25 -44 -49 -44c-15 0 -26 13 -26 29z" fill="currentColor"/>
</g>
<g transform="translate(49.7647, 22.6822)">
<path transform="scale(0.0040, -0.0040)" d="M0 -43c0 92 111 181 211 181c65 0 115 -37 115 -95c0 -88 -106 -181 -215 -181c-70 0 -111 41 -111 95z" fill="currentColor"/>
</g>
<g transform="translate(49.7647, 45.2857)">
<path transform="scale(0.0040, -0.0040)" d="M0 -43c0 92 111 181 211 181c65 0 115 -37 115 -95c0 -88 -106 -181 -215 -181c-70 0 -111 41 -111 95z" fill="currentColor"/>
</g>
<g transform="translate(49.7647, 39.7275)">
<text font-family="serif" font-size="2.2001" text-anchor="start" fill="currentColor">
<tspan>NumberedPitchClass(8)</tspan>
</text>
</g>
<g transform="translate(49.7647, 68.3893)">
<path transform="scale(0.0040, -0.0040)" d="M0 -43c0 92 111 181 211 181c65 0 115 -37 115 -95c0 -88 -106 -181 -215 -181c-70 0 -111 41 -111 95z" fill="currentColor"/>
</g>
<g transform="translate(49.7647, 62.3311)">
<text font-family="serif" font-size="2.2001" text-anchor="start" fill="currentColor">
<tspan>NumberedPitchClass(7)</tspan>
</text>
</g>
<g transform="translate(49.7647, 89.9928)">
<path transform="scale(0.0040, -0.0040)" d="M0 -43c0 92 111 181 211 181c65 0 115 -37 115 -95c0 -88 -106 -181 -215 -181c-70 0 -111 41 -111 95z" fill="currentColor"/>
</g>
<g transform="translate(49.7647, 84.9346)">
<text font-family="serif" font-size="2.2001" text-anchor="start" fill="currentColor">
<tspan>NumberedPitchClass(11)</tspan>
</text>
</g>
<g transform="translate(49.7647, 114.0963)">
<path transform="scale(0.0040, -0.0040)" d="M0 -43c0 92 111 181 211 181c65 0 115 -37 115 -95c0 -88 -106 -181 -215 -181c-70 0 -111 41 -111 95z" fill="currentColor"/>
</g>
<g transform="translate(49.7647, 107.5381)">
<text font-family="serif" font-size="2.2001" text-anchor="start" fill="currentColor">
<tspan>NumberedPitchClass(5)</tspan>
</text>
</g>
<g transform="translate(49.7647, 137.1999)">
<path transform="scale(0.0040, -0.0040)" d="M0 -43c0 92 111 181 211 181c65 0 115 -37 115 -95c0 -88 -106 -181 -215 -181c-70 0 -111 41 -111 95z" fill="currentColor"/>
</g>
<g transform="translate(49.7647, 130.1417)">
<text font-family="serif" font-size="2.2001" text-anchor="start" fill="currentColor">
<tspan>NumberedPitchClass(4)</tspan>
</text>
</g>
<g transform="translate(49.7647, 159.3034)">
<path transform="scale(0.0040, -0.0040)" d="M0 -43c0 92 111 181 211 181c65 0 115 -37 115 -95c0 -88 -106 -181 -215 -181c-70 0 -111 41 -111 95z" fill="currentColor"/>
</g>
<g transform="translate(49.7647, 152.7452)">
<text font-family="serif" font-size="2.2001" text-anchor="start" fill="currentColor">
<tspan>NumberedPitchClass(6)</tspan>
</text>
</g>
<g transform="translate(48.6147, 22.6822)">
<path transform="scale(0.0040, -0.0040)" d="M31 37l-2 -62v-11c0 -22 2 -43 5 -64c43 38 89 80 89 137c0 32 -14 65 -42 65c-31 0 -49 -32 -50 -65zM-30 450c9 5 20 8 30 8s21 -3 30 -8l-8 -340c25 24 59 38 94 38c50 0 84 -50 84 -104c0 -78 -83 -117 -141 -169c-17 -15 -25 -44 -49 -44c-15 0 -26 13 -26 29z" fill="currentColor"/>
</g>
<g transform="translate(48.6147, 45.2857)">
<path transform="scale(0.0040, -0.0040)" d="M31 37l-2 -62v-11c0 -22 2 -43 5 -64c43 38 89 80 89 137c0 32 -14 65 -42 65c-31 0 -49 -32 -50 -65zM-30 450c9 5 20 8 30 8s21 -3 30 -8l-8 -340c25 24 59 38 94 38c50 0 84 -50 84 -104c0 -78 -83 -117 -141 -169c-17 -15 -25 -44 -49 -44c-15 0 -26 13 -26 29z" fill="currentColor"/>
</g>
<g transform="translate(48.3147, 159.3034)">
<path transform="scale(0.0040, -0.0040)" d="M0 116c0 10 6 19 16 23l40 15v154c0 12 9 21 21 21s21 -9 21 -21v-138l79 30v154c0 12 9 21 21 21s21 -9 21 -21v-138l22 8c3 1 6 2 9 2c13 0 25 -11 25 -25v-54c0 -10 -6 -20 -16 -24l-40 -15v-155l22 9c3 1 6 1 9 1c13 0 25 -11 25 -25v-54c0 -10 -6 -19 -16 -23
l-40 -15v-154c0 -12 -9 -21 -21 -21s-21 9 -21 21v138l-79 -30v-154c0 -12 -9 -21 -21 -21s-21 9 -21 21v138l-22 -8c-3 -1 -6 -2 -9 -2c-13 0 -25 11 -25 25v54c0 10 6 20 16 24l40 15v155l-22 -9c-3 -1 -6 -1 -9 -1c-13 0 -25 11 -25 25v54zM177 92l-79 -30v-154l79 30
v154z" fill="currentColor"/>
</g>
<g transform="translate(57.3064, 23.1822)">
<path transform="scale(0.0040, -0.0040)" d="M0 -43c0 92 111 181 211 181c65 0 115 -37 115 -95c0 -88 -106 -181 -215 -181c-70 0 -111 41 -111 95z" fill="currentColor"/>
</g>
<g transform="translate(57.3064, 45.7857)">
<path transform="scale(0.0040, -0.0040)" d="M0 -43c0 92 111 181 211 181c65 0 115 -37 115 -95c0 -88 -106 -181 -215 -181c-70 0 -111 41 -111 95z" fill="currentColor"/>
</g>
<g transform="translate(57.3064, 37.3404)">
<text font-family="serif" font-size="2.2001" text-anchor="start" fill="currentColor">
<tspan>NumberedPitchClass(7)</tspan>
</text>
</g>
<g transform="translate(57.3064, 67.3893)">
<path transform="scale(0.0040, -0.0040)" d="M0 -43c0 92 111 181 211 181c65 0 115 -37 115 -95c0 -88 -106 -181 -215 -181c-70 0 -111 41 -111 95z" fill="currentColor"/>
</g>
<g transform="translate(57.3064, 59.9440)">
<text font-family="serif" font-size="2.2001" text-anchor="start" fill="currentColor">
<tspan>NumberedPitchClass(11)</tspan>
</text>
</g>
<g transform="translate(57.3064, 91.4928)">
<path transform="scale(0.0040, -0.0040)" d="M0 -43c0 92 111 181 211 181c65 0 115 -37 115 -95c0 -88 -106 -181 -215 -181c-70 0 -111 41 -111 95z" fill="currentColor"/>
</g>
<g transform="translate(57.3064, 82.5475)">
<text font-family="serif" font-size="2.2001" text-anchor="start" fill="currentColor">
<tspan>NumberedPitchClass(5)</tspan>
</text>
</g>
<g transform="translate(57.3064, 114.5963)">
<path transform="scale(0.0040, -0.0040)" d="M0 -43c0 92 111 181 211 181c65 0 115 -37 115 -95c0 -88 -106 -181 -215 -181c-70 0 -111 41 -111 95z" fill="currentColor"/>
</g>
<g transform="translate(57.3064, 105.1510)">
<text font-family="serif" font-size="2.2001" text-anchor="start" fill="currentColor">
<tspan>NumberedPitchClass(4)</tspan>
</text>
</g>
<g transform="translate(57.3064, 136.6999)">
<path transform="scale(0.0040, -0.0040)" d="M0 -43c0 92 111 181 211 181c65 0 115 -37 115 -95c0 -88 -106 -181 -215 -181c-70 0 -111 41 -111 95z" fill="currentColor"/>
</g>
<g transform="translate(57.3064, 127.7546)">
<text font-family="serif" font-size="2.2001" text-anchor="start" fill="currentColor">
<tspan>NumberedPitchClass(6)</tspan>
</text>
</g>
<g transform="translate(57.3064, 158.3034)">
<path transform="scale(0.0040, -0.0040)" d="M0 -43c0 92 111 181 211 181c65 0 115 -37 115 -95c0 -88 -106 -181 -215 -181c-70 0 -111 41 -111 95z" fill="currentColor"/>
</g>
<g transform="translate(57.3064, 150.3581)">
<text font-family="serif" font-size="2.2001" text-anchor="start" fill="currentColor">
<tspan>NumberedPitchClass(8)</tspan>
</text>
</g>
<g transform="translate(56.2722, 91.4928)">
<path transform="scale(0.0040, -0.0040)" d="M-7 375c8 5 17 7 26 7s17 -2 25 -7l-2 -192l102 23h4c10 0 19 -8 19 -18l7 -563c-8 -5 -17 -7 -26 -7s-18 2 -26 7l3 192l-102 -23h-4c-10 0 -19 8 -19 18zM129 110l-88 -19l-3 -201l88 19z" fill="currentColor"/>
</g>
<g transform="translate(55.8564, 136.6999)">
<path transform="scale(0.0040, -0.0040)" d="M0 116c0 10 6 19 16 23l40 15v154c0 12 9 21 21 21s21 -9 21 -21v-138l79 30v154c0 12 9 21 21 21s21 -9 21 -21v-138l22 8c3 1 6 2 9 2c13 0 25 -11 25 -25v-54c0 -10 -6 -20 -16 -24l-40 -15v-155l22 9c3 1 6 1 9 1c13 0 25 -11 25 -25v-54c0 -10 -6 -19 -16 -23
l-40 -15v-154c0 -12 -9 -21 -21 -21s-21 9 -21 21v138l-79 -30v-154c0 -12 -9 -21 -21 -21s-21 9 -21 21v138l-22 -8c-3 -1 -6 -2 -9 -2c-13 0 -25 11 -25 25v54c0 10 6 20 16 24l40 15v155l-22 -9c-3 -1 -6 -1 -9 -1c-13 0 -25 11 -25 25v54zM177 92l-79 -30v-154l79 30
v154z" fill="currentColor"/>
</g>
<g transform="translate(56.1564, 158.3034)">
<path transform="scale(0.0040, -0.0040)" d="M31 37l-2 -62v-11c0 -22 2 -43 5 -64c43 38 89 80 89 137c0 32 -14 65 -42 65c-31 0 -49 -32 -50 -65zM-30 450c9 5 20 8 30 8s21 -3 30 -8l-8 -340c25 24 59 38 94 38c50 0 84 -50 84 -104c0 -78 -83 -117 -141 -169c-17 -15 -25 -44 -49 -44c-15 0 -26 13 -26 29z" fill="currentColor"/>
</g>
<g transform="translate(64.8481, 22.1822)">
<path transform="scale(0.0040, -0.0040)" d="M0 -43c0 92 111 181 211 181c65 0 115 -37 115 -95c0 -88 -106 -181 -215 -181c-70 0 -111 41 -111 95z" fill="currentColor"/>
</g>
<g transform="translate(64.8481, 44.7857)">
<path transform="scale(0.0040, -0.0040)" d="M0 -43c0 92 111 181 211 181c65 0 115 -37 115 -95c0 -88 -106 -181 -215 -181c-70 0 -111 41 -111 95z" fill="currentColor"/>
</g>
<g transform="translate(64.8481, 34.8833)">
<text font-family="serif" font-size="2.2001" text-anchor="start" fill="currentColor">
<tspan>NumberedPitchClass(11)</tspan>
</text>
</g>
<g transform="translate(64.8481, 68.8893)">
<path transform="scale(0.0040, -0.0040)" d="M0 -43c0 92 111 181 211 181c65 0 115 -37 115 -95c0 -88 -106 -181 -215 -181c-70 0 -111 41 -111 95z" fill="currentColor"/>
</g>
<g transform="translate(64.8481, 57.4868)">
<text font-family="serif" font-size="2.2001" text-anchor="start" fill="currentColor">
<tspan>NumberedPitchClass(5)</tspan>
</text>
</g>
<g transform="translate(64.8481, 91.9928)">
<path transform="scale(0.0040, -0.0040)" d="M0 -43c0 92 111 181 211 181c65 0 115 -37 115 -95c0 -88 -106 -181 -215 -181c-70 0 -111 41 -111 95z" fill="currentColor"/>
</g>
<g transform="translate(64.8481, 80.0903)">
<text font-family="serif" font-size="2.2001" text-anchor="start" fill="currentColor">
<tspan>NumberedPitchClass(4)</tspan>
</text>
</g>
<g transform="translate(64.8481, 114.0963)">
<path transform="scale(0.0040, -0.0040)" d="M0 -43c0 92 111 181 211 181c65 0 115 -37 115 -95c0 -88 -106 -181 -215 -181c-70 0 -111 41 -111 95z" fill="currentColor"/>
</g>
<g transform="translate(64.8481, 102.6939)">
<text font-family="serif" font-size="2.2001" text-anchor="start" fill="currentColor">
<tspan>NumberedPitchClass(6)</tspan>
</text>
</g>
<g transform="translate(64.8481, 135.6999)">
<path transform="scale(0.0040, -0.0040)" d="M0 -43c0 92 111 181 211 181c65 0 115 -37 115 -95c0 -88 -106 -181 -215 -181c-70 0 -111 41 -111 95z" fill="currentColor"/>
</g>
<g transform="translate(64.8481, 125.7434)">
<text font-family="serif" font-size="2.2001" text-anchor="start" fill="currentColor">
<tspan>NumberedPitchClass(8)</tspan>
</text>
</g>
<g transform="translate(64.8481, 158.8034)">
<path transform="scale(0.0040, -0.0040)" d="M0 -43c0 92 111 181 211 181c65 0 115 -37 115 -95c0 -88 -106 -181 -215 -181c-70 0 -111 41 -111 95z" fill="currentColor"/>
</g>
<g transform="translate(64.8481, 147.9009)">
<text font-family="serif" font-size="2.2001" text-anchor="start" fill="currentColor">
<tspan>NumberedPitchClass(7)</tspan>
</text>
</g>
<g transform="translate(63.8139, 68.8893)">
<path transform="scale(0.0040, -0.0040)" d="M-7 375c8 5 17 7 26 7s17 -2 25 -7l-2 -192l102 23h4c10 0 19 -8 19 -18l7 -563c-8 -5 -17 -7 -26 -7s-18 2 -26 7l3 192l-102 -23h-4c-10 0 -19 8 -19 18zM129 110l-88 -19l-3 -201l88 19z" fill="currentColor"/>
</g>
<g transform="translate(63.3981, 114.0963)">
<path transform="scale(0.0040, -0.0040)" d="M0 116c0 10 6 19 16 23l40 15v154c0 12 9 21 21 21s21 -9 21 -21v-138l79 30v154c0 12 9 21 21 21s21 -9 21 -21v-138l22 8c3 1 6 2 9 2c13 0 25 -11 25 -25v-54c0 -10 -6 -20 -16 -24l-40 -15v-155l22 9c3 1 6 1 9 1c13 0 25 -11 25 -25v-54c0 -10 -6 -19 -16 -23
l-40 -15v-154c0 -12 -9 -21 -21 -21s-21 9 -21 21v138l-79 -30v-154c0 -12 -9 -21 -21 -21s-21 9 -21 21v138l-22 -8c-3 -1 -6 -2 -9 -2c-13 0 -25 11 -25 25v54c0 10 6 20 16 24l40 15v155l-22 -9c-3 -1 -6 -1 -9 -1c-13 0 -25 11 -25 25v54zM177 92l-79 -30v-154l79 30
v154z" fill="currentColor"/>
</g>
<g transform="translate(63.6981, 135.6999)">
<path transform="scale(0.0040, -0.0040)" d="M31 37l-2 -62v-11c0 -22 2 -43 5 -64c43 38 89 80 89 137c0 32 -14 65 -42 65c-31 0 -49 -32 -50 -65zM-30 450c9 5 20 8 30 8s21 -3 30 -8l-8 -340c25 24 59 38 94 38c50 0 84 -50 84 -104c0 -78 -83 -117 -141 -169c-17 -15 -25 -44 -49 -44c-15 0 -26 13 -26 29z" fill="currentColor"/>
</g>
<g transform="translate(75.5780, 25.1822)">
<path transform="scale(0.0040, -0.0040)" d="M0 -43c0 92 111 181 211 181c65 0 115 -37 115 -95c0 -88 -106 -181 -215 -181c-70 0 -111 41 -111 95z" fill="currentColor"/>
</g>
<g transform="translate(21.2533, 89.9928)">
<rect x="0.0000" y="-69.8688" width="0.1863" height="139.7376" ry="0.0582" fill="currentColor"/>
</g>
<g transform="translate(75.5780, 47.7857)">
<path transform="scale(0.0040, -0.0040)" d="M0 -43c0 92 111 181 211 181c65 0 115 -37 115 -95c0 -88 -106 -181 -215 -181c-70 0 -111 41 -111 95z" fill="currentColor"/>
</g>
<g transform="translate(75.5780, 52.0848)">
<rect x="-0.3164" y="-0.1164" width="1.7425" height="0.1164" ry="0.0000" fill="currentColor"/>
</g>
<g transform="translate(75.5780, 49.5726)">
<rect x="-0.3164" y="-0.1164" width="1.7425" height="0.1164" ry="0.0000" fill="currentColor"/>
</g>
<g transform="translate(75.2615, 51.2979)">
<rect x="0" y="-1.7253" width="0.1164" height="2.3958" ry="0.0000" fill="currentColor"/>
</g>
<g transform="translate(76.8876, 51.2979)">
<rect x="0" y="-1.7253" width="0.1164" height="2.3958" ry="0.0000" fill="currentColor"/>
</g>
<g transform="translate(75.5780, 51.2979)">
<text font-family="serif" font-size="2.2001" text-anchor="start" fill="currentColor">
<tspan>β</tspan>
</text>
</g>
<g transform="translate(75.5780, 39.7275)">
<text font-family="serif" font-size="2.2001" text-anchor="start" fill="currentColor">
<tspan>NumberedPitchClass(1)</tspan>
</text>
</g>
<g transform="translate(20.0033, 42.5025)">
<path transform="scale(0.0040, -0.0040)" d="M0 -56v83c0 16 13 29 29 29h59c154 0 257 136 342 267c4 6 10 8 15 8c10 0 19 -8 19 -18c0 -3 -1 -7 -3 -10c-93 -143 -204 -359 -373 -359h-88z" fill="currentColor"/>
</g>
<g transform="translate(20.0033, 160.0867)">
<path transform="scale(0.0040, -0.0040)" d="M0 56h88c169 0 280 -216 373 -359c2 -3 3 -7 3 -10c0 -10 -9 -18 -19 -18c-5 0 -11 2 -15 8c-85 131 -188 267 -342 267h-59c-16 0 -29 13 -29 29v83z" fill="currentColor"/>
</g>
<g transform="translate(20.0033, 101.2946)">
<rect x="0.0000" y="-58.6120" width="0.4500" height="117.2241" ry="0.0000" fill="currentColor"/>
</g>
<g transform="translate(75.5780, 69.3893)">
<path transform="scale(0.0040, -0.0040)" d="M0 -43c0 92 111 181 211 181c65 0 115 -37 115 -95c0 -88 -106 -181 -215 -181c-70 0 -111 41 -111 95z" fill="currentColor"/>
</g>
<g transform="translate(75.5780, 73.2344)">
<rect x="-0.3164" y="-0.1164" width="1.7425" height="0.1164" ry="0.0000" fill="currentColor"/>
</g>
<g transform="translate(75.5780, 70.7222)">
<rect x="-0.3164" y="-0.1164" width="1.7425" height="0.1164" ry="0.0000" fill="currentColor"/>
</g>
<g transform="translate(75.2615, 72.4475)">
<rect x="0" y="-1.7253" width="0.1164" height="2.3958" ry="0.0000" fill="currentColor"/>
</g>
<g transform="translate(76.8876, 72.4475)">
<rect x="0" y="-1.7253" width="0.1164" height="2.3958" ry="0.0000" fill="currentColor"/>
</g>
<g transform="translate(75.5780, 72.4475)">
<text font-family="serif" font-size="2.2001" text-anchor="start" fill="currentColor">
<tspan>β</tspan>
</text>
</g>
<g transform="translate(75.5780, 62.3311)">
<text font-family="serif" font-size="2.2001" text-anchor="start" fill="currentColor">
<tspan>NumberedPitchClass(3)</tspan>
</text>
</g>
<g transform="translate(75.5780, 92.4928)">
<path transform="scale(0.0040, -0.0040)" d="M0 -43c0 92 111 181 211 181c65 0 115 -37 115 -95c0 -88 -106 -181 -215 -181c-70 0 -111 41 -111 95z" fill="currentColor"/>
</g>
<g transform="translate(75.5780, 96.1342)">
<rect x="-0.3164" y="-0.1164" width="1.7425" height="0.1164" ry="0.0000" fill="currentColor"/>
</g>
<g transform="translate(75.5780, 93.6220)">
<rect x="-0.3164" y="-0.1164" width="1.7425" height="0.1164" ry="0.0000" fill="currentColor"/>
</g>
<g transform="translate(75.2615, 95.3473)">
<rect x="0" y="-1.7253" width="0.1164" height="2.3958" ry="0.0000" fill="currentColor"/>
</g>
<g transform="translate(76.8876, 95.3473)">
<rect x="0" y="-1.7253" width="0.1164" height="2.3958" ry="0.0000" fill="currentColor"/>
</g>
<g transform="translate(75.5780, 95.3473)">
<text font-family="serif" font-size="2.2001" text-anchor="start" fill="currentColor">
<tspan>β</tspan>
</text>
</g>
<g transform="translate(75.5780, 84.9346)">
<text font-family="serif" font-size="2.2001" text-anchor="start" fill="currentColor">
<tspan>NumberedPitchClass(2)</tspan>
</text>
</g>
<g transform="translate(75.5780, 115.5963)">
<path transform="scale(0.0040, -0.0040)" d="M0 -43c0 92 111 181 211 181c65 0 115 -37 115 -95c0 -88 -106 -181 -215 -181c-70 0 -111 41 -111 95z" fill="currentColor"/>
</g>
<g transform="translate(75.5780, 119.2377)">
<rect x="-0.3164" y="-0.1164" width="1.7425" height="0.1164" ry="0.0000" fill="currentColor"/>
</g>
<g transform="translate(75.5780, 116.7255)">
<rect x="-0.3164" y="-0.1164" width="1.7425" height="0.1164" ry="0.0000" fill="currentColor"/>
</g>
<g transform="translate(75.2615, 118.4508)">
<rect x="0" y="-1.7253" width="0.1164" height="2.3958" ry="0.0000" fill="currentColor"/>
</g>
<g transform="translate(76.8876, 118.4508)">
<rect x="0" y="-1.7253" width="0.1164" height="2.3958" ry="0.0000" fill="currentColor"/>
</g>
<g transform="translate(75.5780, 118.4508)">
<text font-family="serif" font-size="2.2001" text-anchor="start" fill="currentColor">
<tspan>β</tspan>
</text>
</g>
<g transform="translate(75.5780, 107.5381)">
<text font-family="serif" font-size="2.2001" text-anchor="start" fill="currentColor">
<tspan>NumberedPitchClass(0)</tspan>
</text>
</g>
<g transform="translate(13.5788, 158.5151)">
<text font-family="serif" font-size="2.2001" text-anchor="start" fill="currentColor">
<tspan>V</tspan>
</text>
</g>
<g transform="translate(75.5780, 135.1999)">
<path transform="scale(0.0040, -0.0040)" d="M0 -43c0 92 111 181 211 181c65 0 115 -37 115 -95c0 -88 -106 -181 -215 -181c-70 0 -111 41 -111 95z" fill="currentColor"/>
</g>
<g transform="translate(75.5780, 141.0450)">
<rect x="-0.3164" y="-0.1164" width="1.7425" height="0.1164" ry="0.0000" fill="currentColor"/>
</g>
<g transform="translate(75.5780, 138.5328)">
<rect x="-0.3164" y="-0.1164" width="1.7425" height="0.1164" ry="0.0000" fill="currentColor"/>
</g>
<g transform="translate(75.2615, 140.2581)">
<rect x="0" y="-1.7253" width="0.1164" height="2.3958" ry="0.0000" fill="currentColor"/>
</g>
<g transform="translate(76.8876, 140.2581)">
<rect x="0" y="-1.7253" width="0.1164" height="2.3958" ry="0.0000" fill="currentColor"/>
</g>
<g transform="translate(75.5780, 140.2581)">
<text font-family="serif" font-size="2.2001" text-anchor="start" fill="currentColor">
<tspan>β</tspan>
</text>
</g>
<g transform="translate(75.5780, 130.1417)">
<text font-family="serif" font-size="2.2001" text-anchor="start" fill="currentColor">
<tspan>NumberedPitchClass(10)</tspan>
</text>
</g>
<g transform="translate(75.5780, 158.3034)">
<path transform="scale(0.0040, -0.0040)" d="M0 -43c0 92 111 181 211 181c65 0 115 -37 115 -95c0 -88 -106 -181 -215 -181c-70 0 -111 41 -111 95z" fill="currentColor"/>
</g>
<g transform="translate(75.5780, 163.6485)">
<rect x="-0.3164" y="-0.1164" width="1.7425" height="0.1164" ry="0.0000" fill="currentColor"/>
</g>
<g transform="translate(75.5780, 161.1363)">
<rect x="-0.3164" y="-0.1164" width="1.7425" height="0.1164" ry="0.0000" fill="currentColor"/>
</g>
<g transform="translate(75.2615, 162.8616)">
<rect x="0" y="-1.7253" width="0.1164" height="2.3958" ry="0.0000" fill="currentColor"/>
</g>
<g transform="translate(76.8876, 162.8616)">
<rect x="0" y="-1.7253" width="0.1164" height="2.3958" ry="0.0000" fill="currentColor"/>
</g>
<g transform="translate(75.5780, 162.8616)">
<text font-family="serif" font-size="2.2001" text-anchor="start" fill="currentColor">
<tspan>β</tspan>
</text>
</g>
<g transform="translate(75.5780, 152.7452)">
<text font-family="serif" font-size="2.2001" text-anchor="start" fill="currentColor">
<tspan>NumberedPitchClass(9)</tspan>
</text>
</g>
<g transform="translate(13.2161, 135.9115)">
<text font-family="serif" font-size="2.2001" text-anchor="start" fill="currentColor">
<tspan>IV</tspan>
</text>
</g>
<g transform="translate(74.1280, 25.1822)">
<path transform="scale(0.0040, -0.0040)" d="M0 116c0 10 6 19 16 23l40 15v154c0 12 9 21 21 21s21 -9 21 -21v-138l79 30v154c0 12 9 21 21 21s21 -9 21 -21v-138l22 8c3 1 6 2 9 2c13 0 25 -11 25 -25v-54c0 -10 -6 -20 -16 -24l-40 -15v-155l22 9c3 1 6 1 9 1c13 0 25 -11 25 -25v-54c0 -10 -6 -19 -16 -23
l-40 -15v-154c0 -12 -9 -21 -21 -21s-21 9 -21 21v138l-79 -30v-154c0 -12 -9 -21 -21 -21s-21 9 -21 21v138l-22 -8c-3 -1 -6 -2 -9 -2c-13 0 -25 11 -25 25v54c0 10 6 20 16 24l40 15v155l-22 -9c-3 -1 -6 -1 -9 -1c-13 0 -25 11 -25 25v54zM177 92l-79 -30v-154l79 30
v154z" fill="currentColor"/>
</g>
<g transform="translate(74.1280, 47.7857)">
<path transform="scale(0.0040, -0.0040)" d="M0 116c0 10 6 19 16 23l40 15v154c0 12 9 21 21 21s21 -9 21 -21v-138l79 30v154c0 12 9 21 21 21s21 -9 21 -21v-138l22 8c3 1 6 2 9 2c13 0 25 -11 25 -25v-54c0 -10 -6 -20 -16 -24l-40 -15v-155l22 9c3 1 6 1 9 1c13 0 25 -11 25 -25v-54c0 -10 -6 -19 -16 -23
l-40 -15v-154c0 -12 -9 -21 -21 -21s-21 9 -21 21v138l-79 -30v-154c0 -12 -9 -21 -21 -21s-21 9 -21 21v138l-22 -8c-3 -1 -6 -2 -9 -2c-13 0 -25 11 -25 25v54c0 10 6 20 16 24l40 15v155l-22 -9c-3 -1 -6 -1 -9 -1c-13 0 -25 11 -25 25v54zM177 92l-79 -30v-154l79 30
v154z" fill="currentColor"/>
</g>
<g transform="translate(74.4280, 69.3893)">
<path transform="scale(0.0040, -0.0040)" d="M31 37l-2 -62v-11c0 -22 2 -43 5 -64c43 38 89 80 89 137c0 32 -14 65 -42 65c-31 0 -49 -32 -50 -65zM-30 450c9 5 20 8 30 8s21 -3 30 -8l-8 -340c25 24 59 38 94 38c50 0 84 -50 84 -104c0 -78 -83 -117 -141 -169c-17 -15 -25 -44 -49 -44c-15 0 -26 13 -26 29z" fill="currentColor"/>
</g>
<g transform="translate(74.4280, 135.1999)">
<path transform="scale(0.0040, -0.0040)" d="M31 37l-2 -62v-11c0 -22 2 -43 5 -64c43 38 89 80 89 137c0 32 -14 65 -42 65c-31 0 -49 -32 -50 -65zM-30 450c9 5 20 8 30 8s21 -3 30 -8l-8 -340c25 24 59 38 94 38c50 0 84 -50 84 -104c0 -78 -83 -117 -141 -169c-17 -15 -25 -44 -49 -44c-15 0 -26 13 -26 29z" fill="currentColor"/>
</g>
<g transform="translate(82.9603, 24.1822)">
<path transform="scale(0.0040, -0.0040)" d="M0 -43c0 92 111 181 211 181c65 0 115 -37 115 -95c0 -88 -106 -181 -215 -181c-70 0 -111 41 -111 95z" fill="currentColor"/>
</g>
<g transform="translate(82.9603, 46.7857)">
<path transform="scale(0.0040, -0.0040)" d="M0 -43c0 92 111 181 211 181c65 0 115 -37 115 -95c0 -88 -106 -181 -215 -181c-70 0 -111 41 -111 95z" fill="currentColor"/>
</g>
<g transform="translate(82.9603, 37.2703)">
<text font-family="serif" font-size="2.2001" text-anchor="start" fill="currentColor">
<tspan>NumberedPitchClass(3)</tspan>
</text>
</g>
<g transform="translate(82.9603, 69.8893)">
<path transform="scale(0.0040, -0.0040)" d="M0 -43c0 92 111 181 211 181c65 0 115 -37 115 -95c0 -88 -106 -181 -215 -181c-70 0 -111 41 -111 95z" fill="currentColor"/>
</g>
<g transform="translate(82.9603, 59.8739)">
<text font-family="serif" font-size="2.2001" text-anchor="start" fill="currentColor">
<tspan>NumberedPitchClass(2)</tspan>
</text>
</g>
<g transform="translate(82.9603, 92.9928)">
<path transform="scale(0.0040, -0.0040)" d="M0 -43c0 92 111 181 211 181c65 0 115 -37 115 -95c0 -88 -106 -181 -215 -181c-70 0 -111 41 -111 95z" fill="currentColor"/>
</g>
<g transform="translate(82.9603, 82.4774)">
<text font-family="serif" font-size="2.2001" text-anchor="start" fill="currentColor">
<tspan>NumberedPitchClass(0)</tspan>
</text>
</g>
<g transform="translate(82.9603, 112.5963)">
<path transform="scale(0.0040, -0.0040)" d="M0 -43c0 92 111 181 211 181c65 0 115 -37 115 -95c0 -88 -106 -181 -215 -181c-70 0 -111 41 -111 95z" fill="currentColor"/>
</g>
<g transform="translate(82.9603, 105.0809)">
<text font-family="serif" font-size="2.2001" text-anchor="start" fill="currentColor">
<tspan>NumberedPitchClass(10)</tspan>
</text>
</g>
<g transform="translate(82.9603, 135.6999)">
<path transform="scale(0.0040, -0.0040)" d="M0 -43c0 92 111 181 211 181c65 0 115 -37 115 -95c0 -88 -106 -181 -215 -181c-70 0 -111 41 -111 95z" fill="currentColor"/>
</g>
<g transform="translate(82.9603, 128.1540)">
<text font-family="serif" font-size="2.2001" text-anchor="start" fill="currentColor">
<tspan>NumberedPitchClass(9)</tspan>
</text>
</g>
<g transform="translate(82.9603, 160.8034)">
<path transform="scale(0.0040, -0.0040)" d="M0 -43c0 92 111 181 211 181c65 0 115 -37 115 -95c0 -88 -106 -181 -215 -181c-70 0 -111 41 -111 95z" fill="currentColor"/>
</g>
<g transform="translate(82.9603, 150.2880)">
<text font-family="serif" font-size="2.2001" text-anchor="start" fill="currentColor">
<tspan>NumberedPitchClass(1)</tspan>
</text>
</g>
<g transform="translate(81.8103, 24.1822)">
<path transform="scale(0.0040, -0.0040)" d="M31 37l-2 -62v-11c0 -22 2 -43 5 -64c43 38 89 80 89 137c0 32 -14 65 -42 65c-31 0 -49 -32 -50 -65zM-30 450c9 5 20 8 30 8s21 -3 30 -8l-8 -340c25 24 59 38 94 38c50 0 84 -50 84 -104c0 -78 -83 -117 -141 -169c-17 -15 -25 -44 -49 -44c-15 0 -26 13 -26 29z" fill="currentColor"/>
</g>
<g transform="translate(81.8103, 46.7857)">
<path transform="scale(0.0040, -0.0040)" d="M31 37l-2 -62v-11c0 -22 2 -43 5 -64c43 38 89 80 89 137c0 32 -14 65 -42 65c-31 0 -49 -32 -50 -65zM-30 450c9 5 20 8 30 8s21 -3 30 -8l-8 -340c25 24 59 38 94 38c50 0 84 -50 84 -104c0 -78 -83 -117 -141 -169c-17 -15 -25 -44 -49 -44c-15 0 -26 13 -26 29z" fill="currentColor"/>
</g>
<g transform="translate(81.8103, 112.5963)">
<path transform="scale(0.0040, -0.0040)" d="M31 37l-2 -62v-11c0 -22 2 -43 5 -64c43 38 89 80 89 137c0 32 -14 65 -42 65c-31 0 -49 -32 -50 -65zM-30 450c9 5 20 8 30 8s21 -3 30 -8l-8 -340c25 24 59 38 94 38c50 0 84 -50 84 -104c0 -78 -83 -117 -141 -169c-17 -15 -25 -44 -49 -44c-15 0 -26 13 -26 29z" fill="currentColor"/>
</g>
<g transform="translate(81.5103, 160.8034)">
<path transform="scale(0.0040, -0.0040)" d="M0 116c0 10 6 19 16 23l40 15v154c0 12 9 21 21 21s21 -9 21 -21v-138l79 30v154c0 12 9 21 21 21s21 -9 21 -21v-138l22 8c3 1 6 2 9 2c13 0 25 -11 25 -25v-54c0 -10 -6 -20 -16 -24l-40 -15v-155l22 9c3 1 6 1 9 1c13 0 25 -11 25 -25v-54c0 -10 -6 -19 -16 -23
l-40 -15v-154c0 -12 -9 -21 -21 -21s-21 9 -21 21v138l-79 -30v-154c0 -12 -9 -21 -21 -21s-21 9 -21 21v138l-22 -8c-3 -1 -6 -2 -9 -2c-13 0 -25 11 -25 25v54c0 10 6 20 16 24l40 15v155l-22 -9c-3 -1 -6 -1 -9 -1c-13 0 -25 11 -25 25v54zM177 92l-79 -30v-154l79 30
v154z" fill="currentColor"/>
</g>
<g transform="translate(90.3427, 24.6822)">
<path transform="scale(0.0040, -0.0040)" d="M0 -43c0 92 111 181 211 181c65 0 115 -37 115 -95c0 -88 -106 -181 -215 -181c-70 0 -111 41 -111 95z" fill="currentColor"/>
</g>
<g transform="translate(90.3427, 47.2857)">
<path transform="scale(0.0040, -0.0040)" d="M0 -43c0 92 111 181 211 181c65 0 115 -37 115 -95c0 -88 -106 -181 -215 -181c-70 0 -111 41 -111 95z" fill="currentColor"/>
</g>
<g transform="translate(90.3427, 35.2826)">
<text font-family="serif" font-size="2.2001" text-anchor="start" fill="currentColor">
<tspan>NumberedPitchClass(2)</tspan>
</text>
</g>
<g transform="translate(90.3427, 70.3893)">
<path transform="scale(0.0040, -0.0040)" d="M0 -43c0 92 111 181 211 181c65 0 115 -37 115 -95c0 -88 -106 -181 -215 -181c-70 0 -111 41 -111 95z" fill="currentColor"/>
</g>
<g transform="translate(90.3427, 57.8862)">
<text font-family="serif" font-size="2.2001" text-anchor="start" fill="currentColor">
<tspan>NumberedPitchClass(0)</tspan>
</text>
</g>
<g transform="translate(90.3427, 89.9928)">
<path transform="scale(0.0040, -0.0040)" d="M0 -43c0 92 111 181 211 181c65 0 115 -37 115 -95c0 -88 -106 -181 -215 -181c-70 0 -111 41 -111 95z" fill="currentColor"/>
</g>
<g transform="translate(90.3427, 80.4897)">
<text font-family="serif" font-size="2.2001" text-anchor="start" fill="currentColor">
<tspan>NumberedPitchClass(10)</tspan>
</text>
</g>
<g transform="translate(90.3427, 113.0963)">
<path transform="scale(0.0040, -0.0040)" d="M0 -43c0 92 111 181 211 181c65 0 115 -37 115 -95c0 -88 -106 -181 -215 -181c-70 0 -111 41 -111 95z" fill="currentColor"/>
</g>
<g transform="translate(90.3427, 103.0933)">
<text font-family="serif" font-size="2.2001" text-anchor="start" fill="currentColor">
<tspan>NumberedPitchClass(9)</tspan>
</text>
</g>
<g transform="translate(90.3427, 138.1999)">
<path transform="scale(0.0040, -0.0040)" d="M0 -43c0 92 111 181 211 181c65 0 115 -37 115 -95c0 -88 -106 -181 -215 -181c-70 0 -111 41 -111 95z" fill="currentColor"/>
</g>
<g transform="translate(90.3427, 126.1663)">
<text font-family="serif" font-size="2.2001" text-anchor="start" fill="currentColor">
<tspan>NumberedPitchClass(1)</tspan>
</text>
</g>
<g transform="translate(90.3427, 159.8034)">
<path transform="scale(0.0040, -0.0040)" d="M0 -43c0 92 111 181 211 181c65 0 115 -37 115 -95c0 -88 -106 -181 -215 -181c-70 0 -111 41 -111 95z" fill="currentColor"/>
</g>
<g transform="translate(90.3427, 148.3003)">
<text font-family="serif" font-size="2.2001" text-anchor="start" fill="currentColor">
<tspan>NumberedPitchClass(3)</tspan>
</text>
</g>
<g transform="translate(89.1927, 89.9928)">
<path transform="scale(0.0040, -0.0040)" d="M31 37l-2 -62v-11c0 -22 2 -43 5 -64c43 38 89 80 89 137c0 32 -14 65 -42 65c-31 0 -49 -32 -50 -65zM-30 450c9 5 20 8 30 8s21 -3 30 -8l-8 -340c25 24 59 38 94 38c50 0 84 -50 84 -104c0 -78 -83 -117 -141 -169c-17 -15 -25 -44 -49 -44c-15 0 -26 13 -26 29z" fill="currentColor"/>
</g>
<g transform="translate(88.8927, 138.1999)">
<path transform="scale(0.0040, -0.0040)" d="M0 116c0 10 6 19 16 23l40 15v154c0 12 9 21 21 21s21 -9 21 -21v-138l79 30v154c0 12 9 21 21 21s21 -9 21 -21v-138l22 8c3 1 6 2 9 2c13 0 25 -11 25 -25v-54c0 -10 -6 -20 -16 -24l-40 -15v-155l22 9c3 1 6 1 9 1c13 0 25 -11 25 -25v-54c0 -10 -6 -19 -16 -23
l-40 -15v-154c0 -12 -9 -21 -21 -21s-21 9 -21 21v138l-79 -30v-154c0 -12 -9 -21 -21 -21s-21 9 -21 21v138l-22 -8c-3 -1 -6 -2 -9 -2c-13 0 -25 11 -25 25v54c0 10 6 20 16 24l40 15v155l-22 -9c-3 -1 -6 -1 -9 -1c-13 0 -25 11 -25 25v54zM177 92l-79 -30v-154l79 30
v154z" fill="currentColor"/>
</g>
<g transform="translate(89.1927, 159.8034)">
<path transform="scale(0.0040, -0.0040)" d="M31 37l-2 -62v-11c0 -22 2 -43 5 -64c43 38 89 80 89 137c0 32 -14 65 -42 65c-31 0 -49 -32 -50 -65zM-30 450c9 5 20 8 30 8s21 -3 30 -8l-8 -340c25 24 59 38 94 38c50 0 84 -50 84 -104c0 -78 -83 -117 -141 -169c-17 -15 -25 -44 -49 -44c-15 0 -26 13 -26 29z" fill="currentColor"/>
</g>
<g transform="translate(97.7250, 25.1822)">
<path transform="scale(0.0040, -0.0040)" d="M0 -43c0 92 111 181 211 181c65 0 115 -37 115 -95c0 -88 -106 -181 -215 -181c-70 0 -111 41 -111 95z" fill="currentColor"/>
</g>
<g transform="translate(97.7250, 47.7857)">
<path transform="scale(0.0040, -0.0040)" d="M0 -43c0 92 111 181 211 181c65 0 115 -37 115 -95c0 -88 -106 -181 -215 -181c-70 0 -111 41 -111 95z" fill="currentColor"/>
</g>
<g transform="translate(97.7250, 39.7275)">
<text font-family="serif" font-size="2.2001" text-anchor="start" fill="currentColor">
<tspan>NumberedPitchClass(0)</tspan>
</text>
</g>
<g transform="translate(97.7250, 67.3893)">
<path transform="scale(0.0040, -0.0040)" d="M0 -43c0 92 111 181 211 181c65 0 115 -37 115 -95c0 -88 -106 -181 -215 -181c-70 0 -111 41 -111 95z" fill="currentColor"/>
</g>
<g transform="translate(97.7250, 62.3311)">
<text font-family="serif" font-size="2.2001" text-anchor="start" fill="currentColor">
<tspan>NumberedPitchClass(10)</tspan>
</text>
</g>
<g transform="translate(97.7250, 90.4928)">
<path transform="scale(0.0040, -0.0040)" d="M0 -43c0 92 111 181 211 181c65 0 115 -37 115 -95c0 -88 -106 -181 -215 -181c-70 0 -111 41 -111 95z" fill="currentColor"/>
</g>
<g transform="translate(97.7250, 84.9346)">
<text font-family="serif" font-size="2.2001" text-anchor="start" fill="currentColor">
<tspan>NumberedPitchClass(9)</tspan>
</text>
</g>
<g transform="translate(97.7250, 115.5963)">
<path transform="scale(0.0040, -0.0040)" d="M0 -43c0 92 111 181 211 181c65 0 115 -37 115 -95c0 -88 -106 -181 -215 -181c-70 0 -111 41 -111 95z" fill="currentColor"/>
</g>
<g transform="translate(97.7250, 107.5381)">
<text font-family="serif" font-size="2.2001" text-anchor="start" fill="currentColor">
<tspan>NumberedPitchClass(1)</tspan>
</text>
</g>
<g transform="translate(97.7250, 137.1999)">
<path transform="scale(0.0040, -0.0040)" d="M0 -43c0 92 111 181 211 181c65 0 115 -37 115 -95c0 -88 -106 -181 -215 -181c-70 0 -111 41 -111 95z" fill="currentColor"/>
</g>
<g transform="translate(97.7250, 124.1786)">
<text font-family="serif" font-size="2.2001" text-anchor="start" fill="currentColor">
<tspan>NumberedPitchClass(3)</tspan>
</text>
</g>
<g transform="translate(97.7250, 160.3034)">
<path transform="scale(0.0040, -0.0040)" d="M0 -43c0 92 111 181 211 181c65 0 115 -37 115 -95c0 -88 -106 -181 -215 -181c-70 0 -111 41 -111 95z" fill="currentColor"/>
</g>
<g transform="translate(97.7250, 152.7452)">
<text font-family="serif" font-size="2.2001" text-anchor="start" fill="currentColor">
<tspan>NumberedPitchClass(2)</tspan>
</text>
</g>
<g transform="translate(96.6908, 25.1822)">
<path transform="scale(0.0040, -0.0040)" d="M-7 375c8 5 17 7 26 7s17 -2 25 -7l-2 -192l102 23h4c10 0 19 -8 19 -18l7 -563c-8 -5 -17 -7 -26 -7s-18 2 -26 7l3 192l-102 -23h-4c-10 0 -19 8 -19 18zM129 110l-88 -19l-3 -201l88 19z" fill="currentColor"/>
</g>
<g transform="translate(96.6908, 47.7857)">
<path transform="scale(0.0040, -0.0040)" d="M-7 375c8 5 17 7 26 7s17 -2 25 -7l-2 -192l102 23h4c10 0 19 -8 19 -18l7 -563c-8 -5 -17 -7 -26 -7s-18 2 -26 7l3 192l-102 -23h-4c-10 0 -19 8 -19 18zM129 110l-88 -19l-3 -201l88 19z" fill="currentColor"/>
</g>
<g transform="translate(96.5750, 67.3893)">
<path transform="scale(0.0040, -0.0040)" d="M31 37l-2 -62v-11c0 -22 2 -43 5 -64c43 38 89 80 89 137c0 32 -14 65 -42 65c-31 0 -49 -32 -50 -65zM-30 450c9 5 20 8 30 8s21 -3 30 -8l-8 -340c25 24 59 38 94 38c50 0 84 -50 84 -104c0 -78 -83 -117 -141 -169c-17 -15 -25 -44 -49 -44c-15 0 -26 13 -26 29z" fill="currentColor"/>
</g>
<g transform="translate(96.2750, 115.5963)">
<path transform="scale(0.0040, -0.0040)" d="M0 116c0 10 6 19 16 23l40 15v154c0 12 9 21 21 21s21 -9 21 -21v-138l79 30v154c0 12 9 21 21 21s21 -9 21 -21v-138l22 8c3 1 6 2 9 2c13 0 25 -11 25 -25v-54c0 -10 -6 -20 -16 -24l-40 -15v-155l22 9c3 1 6 1 9 1c13 0 25 -11 25 -25v-54c0 -10 -6 -19 -16 -23
l-40 -15v-154c0 -12 -9 -21 -21 -21s-21 9 -21 21v138l-79 -30v-154c0 -12 -9 -21 -21 -21s-21 9 -21 21v138l-22 -8c-3 -1 -6 -2 -9 -2c-13 0 -25 11 -25 25v54c0 10 6 20 16 24l40 15v155l-22 -9c-3 -1 -6 -1 -9 -1c-13 0 -25 11 -25 25v54zM177 92l-79 -30v-154l79 30
v154z" fill="currentColor"/>
</g>
<g transform="translate(96.5750, 137.1999)">
<path transform="scale(0.0040, -0.0040)" d="M31 37l-2 -62v-11c0 -22 2 -43 5 -64c43 38 89 80 89 137c0 32 -14 65 -42 65c-31 0 -49 -32 -50 -65zM-30 450c9 5 20 8 30 8s21 -3 30 -8l-8 -340c25 24 59 38 94 38c50 0 84 -50 84 -104c0 -78 -83 -117 -141 -169c-17 -15 -25 -44 -49 -44c-15 0 -26 13 -26 29z" fill="currentColor"/>
</g>
<g transform="translate(105.2235, 22.1822)">
<path transform="scale(0.0040, -0.0040)" d="M0 -43c0 92 111 181 211 181c65 0 115 -37 115 -95c0 -88 -106 -181 -215 -181c-70 0 -111 41 -111 95z" fill="currentColor"/>
</g>
<g transform="translate(105.2235, 44.7857)">
<path transform="scale(0.0040, -0.0040)" d="M0 -43c0 92 111 181 211 181c65 0 115 -37 115 -95c0 -88 -106 -181 -215 -181c-70 0 -111 41 -111 95z" fill="currentColor"/>
</g>
<g transform="translate(105.2235, 37.7316)">
<text font-family="serif" font-size="2.2001" text-anchor="start" fill="currentColor">
<tspan>NumberedPitchClass(10)</tspan>
</text>
</g>
<g transform="translate(105.2235, 67.8893)">
<path transform="scale(0.0040, -0.0040)" d="M0 -43c0 92 111 181 211 181c65 0 115 -37 115 -95c0 -88 -106 -181 -215 -181c-70 0 -111 41 -111 95z" fill="currentColor"/>
</g>
<g transform="translate(105.2235, 60.3351)">
<text font-family="serif" font-size="2.2001" text-anchor="start" fill="currentColor">
<tspan>NumberedPitchClass(9)</tspan>
</text>
</g>
<g transform="translate(105.2235, 92.9928)">
<path transform="scale(0.0040, -0.0040)" d="M0 -43c0 92 111 181 211 181c65 0 115 -37 115 -95c0 -88 -106 -181 -215 -181c-70 0 -111 41 -111 95z" fill="currentColor"/>
</g>
<g transform="translate(105.2235, 82.9386)">
<text font-family="serif" font-size="2.2001" text-anchor="start" fill="currentColor">
<tspan>NumberedPitchClass(1)</tspan>
</text>
</g>
<g transform="translate(105.2235, 114.5963)">
<path transform="scale(0.0040, -0.0040)" d="M0 -43c0 92 111 181 211 181c65 0 115 -37 115 -95c0 -88 -106 -181 -215 -181c-70 0 -111 41 -111 95z" fill="currentColor"/>
</g>
<g transform="translate(105.2235, 101.1056)">
<text font-family="serif" font-size="2.2001" text-anchor="start" fill="currentColor">
<tspan>NumberedPitchClass(3)</tspan>
</text>
</g>
<g transform="translate(105.2235, 137.6999)">
<path transform="scale(0.0040, -0.0040)" d="M0 -43c0 92 111 181 211 181c65 0 115 -37 115 -95c0 -88 -106 -181 -215 -181c-70 0 -111 41 -111 95z" fill="currentColor"/>
</g>
<g transform="translate(105.2235, 130.1417)">
<text font-family="serif" font-size="2.2001" text-anchor="start" fill="currentColor">
<tspan>NumberedPitchClass(2)</tspan>
</text>
</g>
<g transform="translate(105.2235, 160.8034)">
<path transform="scale(0.0040, -0.0040)" d="M0 -43c0 92 111 181 211 181c65 0 115 -37 115 -95c0 -88 -106 -181 -215 -181c-70 0 -111 41 -111 95z" fill="currentColor"/>
</g>
<g transform="translate(105.2235, 150.7492)">
<text font-family="serif" font-size="2.2001" text-anchor="start" fill="currentColor">
<tspan>NumberedPitchClass(0)</tspan>
</text>
</g>
<g transform="translate(104.0735, 22.1822)">
<path transform="scale(0.0040, -0.0040)" d="M31 37l-2 -62v-11c0 -22 2 -43 5 -64c43 38 89 80 89 137c0 32 -14 65 -42 65c-31 0 -49 -32 -50 -65zM-30 450c9 5 20 8 30 8s21 -3 30 -8l-8 -340c25 24 59 38 94 38c50 0 84 -50 84 -104c0 -78 -83 -117 -141 -169c-17 -15 -25 -44 -49 -44c-15 0 -26 13 -26 29z" fill="currentColor"/>
</g>
<g transform="translate(104.0735, 44.7857)">
<path transform="scale(0.0040, -0.0040)" d="M31 37l-2 -62v-11c0 -22 2 -43 5 -64c43 38 89 80 89 137c0 32 -14 65 -42 65c-31 0 -49 -32 -50 -65zM-30 450c9 5 20 8 30 8s21 -3 30 -8l-8 -340c25 24 59 38 94 38c50 0 84 -50 84 -104c0 -78 -83 -117 -141 -169c-17 -15 -25 -44 -49 -44c-15 0 -26 13 -26 29z" fill="currentColor"/>
</g>
<g transform="translate(103.7735, 92.9928)">
<path transform="scale(0.0040, -0.0040)" d="M0 116c0 10 6 19 16 23l40 15v154c0 12 9 21 21 21s21 -9 21 -21v-138l79 30v154c0 12 9 21 21 21s21 -9 21 -21v-138l22 8c3 1 6 2 9 2c13 0 25 -11 25 -25v-54c0 -10 -6 -20 -16 -24l-40 -15v-155l22 9c3 1 6 1 9 1c13 0 25 -11 25 -25v-54c0 -10 -6 -19 -16 -23
l-40 -15v-154c0 -12 -9 -21 -21 -21s-21 9 -21 21v138l-79 -30v-154c0 -12 -9 -21 -21 -21s-21 9 -21 21v138l-22 -8c-3 -1 -6 -2 -9 -2c-13 0 -25 11 -25 25v54c0 10 6 20 16 24l40 15v155l-22 -9c-3 -1 -6 -1 -9 -1c-13 0 -25 11 -25 25v54zM177 92l-79 -30v-154l79 30
v154z" fill="currentColor"/>
</g>
<g transform="translate(104.0735, 114.5963)">
<path transform="scale(0.0040, -0.0040)" d="M31 37l-2 -62v-11c0 -22 2 -43 5 -64c43 38 89 80 89 137c0 32 -14 65 -42 65c-31 0 -49 -32 -50 -65zM-30 450c9 5 20 8 30 8s21 -3 30 -8l-8 -340c25 24 59 38 94 38c50 0 84 -50 84 -104c0 -78 -83 -117 -141 -169c-17 -15 -25 -44 -49 -44c-15 0 -26 13 -26 29z" fill="currentColor"/>
</g>
<g transform="translate(104.1893, 160.8034)">
<path transform="scale(0.0040, -0.0040)" d="M-7 375c8 5 17 7 26 7s17 -2 25 -7l-2 -192l102 23h4c10 0 19 -8 19 -18l7 -563c-8 -5 -17 -7 -26 -7s-18 2 -26 7l3 192l-102 -23h-4c-10 0 -19 8 -19 18zM129 110l-88 -19l-3 -201l88 19z" fill="currentColor"/>
</g>
<g transform="translate(116.4714, 22.6822)">
<path transform="scale(0.0040, -0.0040)" d="M0 -43c0 92 111 181 211 181c65 0 115 -37 115 -95c0 -88 -106 -181 -215 -181c-70 0 -111 41 -111 95z" fill="currentColor"/>
</g>
<g transform="translate(116.4714, 45.2857)">
<path transform="scale(0.0040, -0.0040)" d="M0 -43c0 92 111 181 211 181c65 0 115 -37 115 -95c0 -88 -106 -181 -215 -181c-70 0 -111 41 -111 95z" fill="currentColor"/>
</g>
<g transform="translate(116.4714, 35.7140)">
<text font-family="serif" font-size="2.2001" text-anchor="start" fill="currentColor">
<tspan>NumberedPitchClass(9)</tspan>
</text>
</g>
<g transform="translate(116.4714, 70.3893)">
<path transform="scale(0.0040, -0.0040)" d="M0 -43c0 92 111 181 211 181c65 0 115 -37 115 -95c0 -88 -106 -181 -215 -181c-70 0 -111 41 -111 95z" fill="currentColor"/>
</g>
<g transform="translate(116.4714, 58.3173)">
<text font-family="serif" font-size="2.2001" text-anchor="start" fill="currentColor">
<tspan>NumberedPitchClass(1)</tspan>
</text>
</g>
<g transform="translate(116.4714, 91.9928)">
<path transform="scale(0.0040, -0.0040)" d="M0 -43c0 92 111 181 211 181c65 0 115 -37 115 -95c0 -88 -106 -181 -215 -181c-70 0 -111 41 -111 95z" fill="currentColor"/>
</g>
<g transform="translate(116.4714, 80.9209)">
<text font-family="serif" font-size="2.2001" text-anchor="start" fill="currentColor">
<tspan>NumberedPitchClass(3)</tspan>
</text>
</g>
<g transform="translate(116.4714, 115.0963)">
<path transform="scale(0.0040, -0.0040)" d="M0 -43c0 92 111 181 211 181c65 0 115 -37 115 -95c0 -88 -106 -181 -215 -181c-70 0 -111 41 -111 95z" fill="currentColor"/>
</g>
<g transform="translate(116.4714, 105.5504)">
<text font-family="serif" font-size="2.2001" text-anchor="start" fill="currentColor">
<tspan>NumberedPitchClass(2)</tspan>
</text>
</g>
<g transform="translate(116.4714, 138.1999)">
<path transform="scale(0.0040, -0.0040)" d="M0 -43c0 92 111 181 211 181c65 0 115 -37 115 -95c0 -88 -106 -181 -215 -181c-70 0 -111 41 -111 95z" fill="currentColor"/>
</g>
<g transform="translate(116.4714, 128.1239)">
<text font-family="serif" font-size="2.2001" text-anchor="start" fill="currentColor">
<tspan>NumberedPitchClass(0)</tspan>
</text>
</g>
<g transform="translate(116.4714, 157.8034)">
<path transform="scale(0.0040, -0.0040)" d="M0 -43c0 92 111 181 211 181c65 0 115 -37 115 -95c0 -88 -106 -181 -215 -181c-70 0 -111 41 -111 95z" fill="currentColor"/>
</g>
<g transform="translate(116.4714, 148.7315)">
<text font-family="serif" font-size="2.2001" text-anchor="start" fill="currentColor">
<tspan>NumberedPitchClass(10)</tspan>
</text>
</g>
<g transform="translate(115.0214, 70.3893)">
<path transform="scale(0.0040, -0.0040)" d="M0 116c0 10 6 19 16 23l40 15v154c0 12 9 21 21 21s21 -9 21 -21v-138l79 30v154c0 12 9 21 21 21s21 -9 21 -21v-138l22 8c3 1 6 2 9 2c13 0 25 -11 25 -25v-54c0 -10 -6 -20 -16 -24l-40 -15v-155l22 9c3 1 6 1 9 1c13 0 25 -11 25 -25v-54c0 -10 -6 -19 -16 -23
l-40 -15v-154c0 -12 -9 -21 -21 -21s-21 9 -21 21v138l-79 -30v-154c0 -12 -9 -21 -21 -21s-21 9 -21 21v138l-22 -8c-3 -1 -6 -2 -9 -2c-13 0 -25 11 -25 25v54c0 10 6 20 16 24l40 15v155l-22 -9c-3 -1 -6 -1 -9 -1c-13 0 -25 11 -25 25v54zM177 92l-79 -30v-154l79 30
v154z" fill="currentColor"/>
</g>
<g transform="translate(115.3214, 91.9928)">
<path transform="scale(0.0040, -0.0040)" d="M31 37l-2 -62v-11c0 -22 2 -43 5 -64c43 38 89 80 89 137c0 32 -14 65 -42 65c-31 0 -49 -32 -50 -65zM-30 450c9 5 20 8 30 8s21 -3 30 -8l-8 -340c25 24 59 38 94 38c50 0 84 -50 84 -104c0 -78 -83 -117 -141 -169c-17 -15 -25 -44 -49 -44c-15 0 -26 13 -26 29z" fill="currentColor"/>
</g>
<g transform="translate(115.4371, 138.1999)">
<path transform="scale(0.0040, -0.0040)" d="M-7 375c8 5 17 7 26 7s17 -2 25 -7l-2 -192l102 23h4c10 0 19 -8 19 -18l7 -563c-8 -5 -17 -7 -26 -7s-18 2 -26 7l3 192l-102 -23h-4c-10 0 -19 8 -19 18zM129 110l-88 -19l-3 -201l88 19z" fill="currentColor"/>
</g>
<g transform="translate(115.3214, 157.8034)">
<path transform="scale(0.0040, -0.0040)" d="M31 37l-2 -62v-11c0 -22 2 -43 5 -64c43 38 89 80 89 137c0 32 -14 65 -42 65c-31 0 -49 -32 -50 -65zM-30 450c9 5 20 8 30 8s21 -3 30 -8l-8 -340c25 24 59 38 94 38c50 0 84 -50 84 -104c0 -78 -83 -117 -141 -169c-17 -15 -25 -44 -49 -44c-15 0 -26 13 -26 29z" fill="currentColor"/>
</g>
<g transform="translate(13.2801, 113.3246)">
<text font-family="serif" font-size="2.2001" text-anchor="start" fill="currentColor">
<tspan>III</tspan>
</text>
</g>
<g transform="translate(13.6428, 90.7211)">
<text font-family="serif" font-size="2.2001" text-anchor="start" fill="currentColor">
<tspan>II</tspan>
</text>
</g>
<g transform="translate(14.0056, 68.1176)">
<text font-family="serif" font-size="2.2001" text-anchor="start" fill="currentColor">
<tspan>I</tspan>
</text>
</g>
<g transform="translate(14.0056, 45.8305)">
<rect x="-0.3164" y="-0.1164" width="1.3584" height="0.1164" ry="0.0000" fill="currentColor"/>
</g>
<g transform="translate(14.0056, 43.8574)">
<rect x="-0.3164" y="-0.1164" width="1.3584" height="0.1164" ry="0.0000" fill="currentColor"/>
</g>
<g transform="translate(13.6892, 45.5140)">
<rect x="0" y="-1.6566" width="0.1164" height="1.8566" ry="0.0000" fill="currentColor"/>
</g>
<g transform="translate(14.9312, 45.5140)">
<rect x="0" y="-1.6566" width="0.1164" height="1.8566" ry="0.0000" fill="currentColor"/>
</g>
<g transform="translate(14.0056, 45.5140)">
<text font-family="serif" font-size="2.2001" text-anchor="start" fill="currentColor">
<tspan>I</tspan>
</text>
</g>
</svg>
