<svg xmlns="http://www.w3.org/2000/svg" xmlns:xlink="http://www.w3.org/1999/xlink" version="1.2" width="210.00mm" height="297.00mm" viewBox="0.0000 -0.0000 119.5016 169.0094">
<style type="text/css">
<![CDATA[
tspan { white-space: pre; }
]]>
</style>
<g transform="translate(5.6906, 17.0590)">
<rect x="16.9098" y="-0.1000" width="1.9563" height="0.2000" ry="0.1000" fill="currentColor"/>
</g>
<g transform="translate(14.2264, 16.0590)">
<line stroke-linejoin="round" stroke-linecap="round" stroke-width="0.1000" stroke="currentColor" x1="0.0500" y1="0" x2="22.1626" y2="0"/>
</g>
<g transform="translate(14.2264, 15.0590)">
<line stroke-linejoin="round" stroke-linecap="round" stroke-width="0.1000" stroke="currentColor" x1="0.0500" y1="0" x2="22.1626" y2="0"/>
</g>
<g transform="translate(14.2264, 14.0590)">
<line stroke-linejoin="round" stroke-linecap="round" stroke-width="0.1000" stroke="currentColor" x1="0.0500" y1="0" x2="22.1626" y2="0"/>
</g>
<g transform="translate(14.2264, 13.0590)">
<line stroke-linejoin="round" stroke-linecap="round" stroke-width="0.1000" stroke="currentColor" x1="0.0500" y1="0" x2="22.1626" y2="0"/>
</g>
<g transform="translate(14.2264, 12.0590)">
<line stroke-linejoin="round" stroke-linecap="round" stroke-width="0.1000" stroke="currentColor" x1="0.0500" y1="0" x2="22.1626" y2="0"/>
</g>
<g transform="translate(14.2264, 37.7990)">
<line stroke-linejoin="round" stroke-linecap="round" stroke-width="0.1000" stroke="currentColor" x1="0.0500" y1="0" x2="22.1626" y2="0"/>
</g>
<g transform="translate(14.2264, 36.7990)">
<line stroke-linejoin="round" stroke-linecap="round" stroke-width="0.1000" stroke="currentColor" x1="0.0500" y1="0" x2="22.1626" y2="0"/>
</g>
<g transform="translate(14.2264, 35.7990)">
<line stroke-linejoin="round" stroke-linecap="round" stroke-width="0.1000" stroke="currentColor" x1="0.0500" y1="0" x2="22.1626" y2="0"/>
</g>
<g transform="translate(14.2264, 34.7990)">
<line stroke-linejoin="round" stroke-linecap="round" stroke-width="0.1000" stroke="currentColor" x1="0.0500" y1="0" x2="22.1626" y2="0"/>
</g>
<g transform="translate(14.2264, 33.7990)">
<line stroke-linejoin="round" stroke-linecap="round" stroke-width="0.1000" stroke="currentColor" x1="0.0500" y1="0" x2="22.1626" y2="0"/>
</g>
<g transform="translate(14.2264, 28.7990)">
<line stroke-linejoin="round" stroke-linecap="round" stroke-width="0.1000" stroke="currentColor" x1="0.0500" y1="0" x2="22.1626" y2="0"/>
</g>
<g transform="translate(14.2264, 27.7990)">
<line stroke-linejoin="round" stroke-linecap="round" stroke-width="0.1000" stroke="currentColor" x1="0.0500" y1="0" x2="22.1626" y2="0"/>
</g>
<g transform="translate(14.2264, 26.7990)">
<line stroke-linejoin="round" stroke-linecap="round" stroke-width="0.1000" stroke="currentColor" x1="0.0500" y1="0" x2="22.1626" y2="0"/>
</g>
<g transform="translate(14.2264, 25.7990)">
<line stroke-linejoin="round" stroke-linecap="round" stroke-width="0.1000" stroke="currentColor" x1="0.0500" y1="0" x2="22.1626" y2="0"/>
</g>
<g transform="translate(14.2264, 24.7990)">
<line stroke-linejoin="round" stroke-linecap="round" stroke-width="0.1000" stroke="currentColor" x1="0.0500" y1="0" x2="22.1626" y2="0"/>
</g>
<g transform="translate(5.6906, 38.7990)">
<rect x="16.8915" y="-0.1000" width="2.0660" height="0.2000" ry="0.1000" fill="currentColor"/>
</g>
<g transform="translate(5.6906, 39.7990)">
<rect x="16.8915" y="-0.1000" width="2.0660" height="0.2000" ry="0.1000" fill="currentColor"/>
</g>
<g transform="translate(12.9164, 11.7840)">
<path transform="scale(0.0040, -0.0040)" d="M0 -56v87c0 14 11 25 25 25h50c159 0 271 136 362 270c12 17 38 -1 26 -18c-99 -144 -215 -364 -388 -364h-75z" fill="currentColor"/>
</g>
<g transform="translate(12.9164, 38.0740)">
<path transform="scale(0.0040, -0.0040)" d="M0 56h75c173 0 289 -220 388 -364c12 -17 -14 -35 -26 -18c-91 134 -203 270 -362 270h-50c-14 0 -25 11 -25 25v87z" fill="currentColor"/>
</g>
<g transform="translate(12.9164, 24.9290)">
<rect x="0.0000" y="-12.9650" width="0.4500" height="25.9300" ry="0.0000" fill="currentColor"/>
</g>
<g transform="translate(14.1664, 24.9290)">
<rect x="0.0000" y="-12.9200" width="0.1600" height="25.8400" ry="0.0500" fill="currentColor"/>
</g>
<g transform="translate(32.6048, 12.2490)">
<polygon stroke-linejoin="round" stroke-linecap="round" stroke-width="0.0800" fill="currentColor" stroke="currentColor" points="2.5942 -0.3900 2.5942 0.0100 0.0400 0.2000 0.0400 -0.2000"/>
</g>
<g transform="translate(32.6048, 13.0590)">
<polygon stroke-linejoin="round" stroke-linecap="round" stroke-width="0.0800" fill="currentColor" stroke="currentColor" points="2.5942 -0.3900 2.5942 0.0100 0.0400 0.2000 0.0400 -0.2000"/>
</g>
<g transform="translate(22.9264, 17.0590)">
<path transform="scale(0.0040, -0.0040)" d="M218 136c66 0 108 -36 108 -89c0 -89 -113 -183 -218 -183c-66 0 -108 36 -108 89c0 89 113 183 218 183z" fill="currentColor"/>
</g>
<g transform="translate(22.9264, 5.5490)">
<text font-family="serif" font-size="1.7461" text-anchor="start" fill="currentColor">
<tspan>0</tspan>
</text>
</g>
<g transform="translate(22.9264, 8.5490)">
<text font-family="serif" font-size="1.7461" text-anchor="start" fill="currentColor">
<tspan>-5</tspan>
</text>
</g>
<g transform="translate(22.9264, 11.5490)">
<text font-family="serif" font-size="1.7461" text-anchor="start" fill="currentColor">
<tspan>-24</tspan>
</text>
</g>
<g transform="translate(15.0264, 15.0590)">
<path transform="scale(0.0040, -0.0040)" d="M266 -635h-6c-108 0 -195 88 -195 197c0 58 53 103 112 103c54 0 95 -47 95 -103c0 -52 -43 -95 -95 -95c-11 0 -21 2 -31 6c26 -39 68 -65 117 -65h4zM461 -203c68 24 113 90 113 164c0 90 -66 179 -173 190c19 -89 48 -242 60 -354zM74 28c0 -145 141 -247 264 -247
c1 0 47 0 82 6c-7 64 -29 203 -63 364c-79 -8 -124 -61 -124 -119c0 -44 25 -91 81 -123c5 -5 7 -10 7 -15c0 -11 -10 -22 -22 -22c-15 0 -126 62 -126 187c0 88 58 174 160 197c-14 58 -29 117 -46 175c-107 -121 -213 -243 -213 -403zM250 553c-29 96 -52 170 -52 346
c0 115 55 224 149 292c6 5 14 5 20 0c68 -80 133 -245 133 -358c0 -143 -86 -255 -180 -364c21 -68 39 -138 56 -207c2 0 7 1 13 1c155 0 256 -128 256 -261c0 -113 -74 -212 -180 -246c3 -35 5 -70 5 -105c0 -19 -1 -39 -2 -58c-7 -119 -88 -225 -202 -228l1 43
c93 2 153 92 159 191c1 18 2 37 2 55c0 31 -1 61 -4 92c-5 -1 -44 -8 -89 -8c-193 0 -333 180 -333 374c0 177 131 306 248 441zM428 916c0 34 1 66 -20 129c-99 -48 -162 -149 -162 -259c0 -52 12 -115 36 -194c80 97 146 198 146 324z" fill="currentColor"/>
</g>
<g transform="translate(19.2264, 14.0590)">
<path transform="scale(0.0040, -0.0040)" d="M250 262c116 0 176 -106 176 -163c0 -40 -30 -72 -67 -72c-31 0 -75 25 -75 75c0 38 27 77 72 77c4 0 9 0 14 -1c-28 37 -72 59 -120 59c-106 0 -113 -73 -113 -186v-51v-51c0 -113 7 -187 113 -187c80 0 139 70 158 151c2 7 7 10 12 10c6 0 13 -4 13 -12
c0 -22 -50 -174 -183 -174c-59 0 -250 19 -250 263c0 62 18 262 250 262z" fill="currentColor"/>
</g>
<g transform="translate(22.9264, 28.2990)">
<path transform="scale(0.0040, -0.0040)" d="M218 136c66 0 108 -36 108 -89c0 -89 -113 -183 -218 -183c-66 0 -108 36 -108 89c0 89 113 183 218 183z" fill="currentColor"/>
</g>
<g transform="translate(15.0264, 26.7990)">
<path transform="scale(0.0040, -0.0040)" d="M318 0c0 -44 12 -73 45 -73c29 0 57 31 88 31c123 0 229 -89 229 -208c0 -169 -93 -250 -265 -250c-83 0 -152 61 -152 142c0 42 34 77 76 77s76 -35 76 -77c0 -39 -49 -37 -49 -76c0 -23 24 -38 49 -38c116 0 140 90 140 222c0 106 -12 180 -104 180
c-72 0 -119 -71 -119 -149c0 -9 -7 -14 -14 -14s-13 5 -13 14c0 76 -31 147 -84 200v-471c0 -6 -4 -10 -10 -10h-21c-6 0 -10 4 -10 10v980c0 6 4 10 10 10h21c6 0 10 -4 10 -10v-471c53 53 84 124 84 200c0 9 6 14 13 14s14 -5 14 -14c0 -78 47 -149 119 -149
c92 0 104 74 104 180c0 132 -24 222 -140 222c-25 0 -49 -15 -49 -38c0 -39 49 -37 49 -76c0 -42 -34 -77 -76 -77s-76 35 -76 77c0 81 69 142 152 142c172 0 265 -81 265 -250c0 -119 -106 -208 -229 -208c-31 0 -59 31 -88 31c-33 0 -45 -29 -45 -73zM129 -500h-119
c-6 0 -10 4 -10 10v980c0 6 4 10 10 10h119c6 0 10 -4 10 -10v-980c0 -6 -4 -10 -10 -10z" fill="currentColor"/>
</g>
<g transform="translate(19.2264, 26.7990)">
<path transform="scale(0.0040, -0.0040)" d="M250 262c116 0 176 -106 176 -163c0 -40 -30 -72 -67 -72c-31 0 -75 25 -75 75c0 38 27 77 72 77c4 0 9 0 14 -1c-28 37 -72 59 -120 59c-106 0 -113 -73 -113 -186v-51v-51c0 -113 7 -187 113 -187c80 0 139 70 158 151c2 7 7 10 12 10c6 0 13 -4 13 -12
c0 -22 -50 -174 -183 -174c-59 0 -250 19 -250 263c0 62 18 262 250 262z" fill="currentColor"/>
</g>
<g transform="translate(22.9264, 39.7990)">
<path transform="scale(0.0040, -0.0040)" d="M314 65c0 23 -19 41 -42 41c-39 0 -204 -110 -231 -143c-7 -8 -10 -18 -10 -28c0 -23 19 -41 42 -41c39 0 203 110 230 143c7 8 11 18 11 28zM262 136c41 0 82 -14 82 -71c0 -26 -16 -112 -74 -151c-25 -17 -87 -50 -187 -50c-41 0 -83 14 -83 71c0 26 16 112 74 151
c25 17 88 50 188 50z" fill="currentColor"/>
</g>
<g transform="translate(15.0264, 34.7990)">
<path transform="scale(0.0040, -0.0040)" d="M557 -125c0 28 23 51 51 51s51 -23 51 -51s-23 -51 -51 -51s-51 23 -51 51zM557 125c0 28 23 51 51 51s51 -23 51 -51s-23 -51 -51 -51s-51 23 -51 51zM232 263c172 0 293 -88 293 -251c0 -263 -263 -414 -516 -521c-3 -3 -6 -4 -9 -4c-7 0 -13 6 -13 13c0 3 1 6 4 9
c202 118 412 265 412 493c0 120 -63 235 -171 235c-74 0 -129 -54 -154 -126c11 5 22 8 34 8c55 0 100 -45 100 -100c0 -58 -44 -106 -100 -106c-60 0 -112 47 -112 106c0 133 102 244 232 244z" fill="currentColor"/>
</g>
<g transform="translate(19.2264, 35.7990)">
<path transform="scale(0.0040, -0.0040)" d="M250 262c116 0 176 -106 176 -163c0 -40 -30 -72 -67 -72c-31 0 -75 25 -75 75c0 38 27 77 72 77c4 0 9 0 14 -1c-28 37 -72 59 -120 59c-106 0 -113 -73 -113 -186v-51v-51c0 -113 7 -187 113 -187c80 0 139 70 158 151c2 7 7 10 12 10c6 0 13 -4 13 -12
c0 -22 -50 -174 -183 -174c-59 0 -250 19 -250 263c0 62 18 262 250 262z" fill="currentColor"/>
</g>
<g transform="translate(24.1656, 14.0590)">
<rect x="-0.0650" y="-0.5000" width="0.1300" height="3.3139" ry="0.0400" fill="currentColor"/>
</g>
<g transform="translate(24.2306, 13.5990)">
<path transform="scale(0.0040, -0.0040)" d="M0 0v-250h-16v250h16zM0 0c0 -197 207 -336 207 -533c0 -71 -15 -141 -41 -207c-5 -8 -13 -12 -20 -12c-13 0 -26 11 -23 27c26 61 42 126 42 192c0 103 -94 208 -165 283v250z" fill="currentColor"/>
</g>
<g transform="translate(24.1656, 26.7990)">
<rect x="-0.0650" y="-2.0000" width="0.1300" height="3.3139" ry="0.0400" fill="currentColor"/>
</g>
<g transform="translate(24.2387, 35.7990)">
<rect x="-0.0650" y="-0.0000" width="0.1300" height="3.7410" ry="0.0400" fill="currentColor"/>
</g>
<g transform="translate(26.6306, 16.5590)">
<path transform="scale(0.0040, -0.0040)" d="M218 136c66 0 108 -36 108 -89c0 -89 -113 -183 -218 -183c-66 0 -108 36 -108 89c0 89 113 183 218 183z" fill="currentColor"/>
</g>
<g transform="translate(26.6306, 5.5490)">
<text font-family="serif" font-size="1.7461" text-anchor="start" fill="currentColor">
<tspan>2</tspan>
</text>
</g>
<g transform="translate(26.6306, 8.5490)">
<text font-family="serif" font-size="1.7461" text-anchor="start" fill="currentColor">
<tspan>-5</tspan>
</text>
</g>
<g transform="translate(26.6306, 11.5490)">
<text font-family="serif" font-size="1.7461" text-anchor="start" fill="currentColor">
<tspan>-24</tspan>
</text>
</g>
<g transform="translate(27.8698, 14.0590)">
<rect x="-0.0650" y="-1.0000" width="0.1300" height="3.3139" ry="0.0400" fill="currentColor"/>
</g>
<g transform="translate(29.0306, 28.7990)">
<path transform="scale(0.0040, -0.0040)" d="M218 136c66 0 108 -36 108 -89c0 -89 -113 -183 -218 -183c-66 0 -108 36 -108 89c0 89 113 183 218 183z" fill="currentColor"/>
</g>
<g transform="translate(29.0306, 18.2890)">
<text font-family="serif" font-size="1.7461" text-anchor="start" fill="currentColor">
<tspan>2</tspan>
</text>
</g>
<g transform="translate(29.0306, 21.2890)">
<text font-family="serif" font-size="1.7461" text-anchor="start" fill="currentColor">
<tspan>-7</tspan>
</text>
</g>
<g transform="translate(29.0306, 24.2890)">
<text font-family="serif" font-size="1.7461" text-anchor="start" fill="currentColor">
<tspan>-24</tspan>
</text>
</g>
<g transform="translate(30.2698, 26.7990)">
<rect x="-0.0650" y="-1.5000" width="0.1300" height="3.3139" ry="0.0400" fill="currentColor"/>
</g>
<g transform="translate(31.4306, 16.0590)">
<path transform="scale(0.0040, -0.0040)" d="M218 136c66 0 108 -36 108 -89c0 -89 -113 -183 -218 -183c-66 0 -108 36 -108 89c0 89 113 183 218 183z" fill="currentColor"/>
</g>
<g transform="translate(31.4306, 5.4660)">
<text font-family="serif" font-size="1.7461" text-anchor="start" fill="currentColor">
<tspan>4</tspan>
</text>
</g>
<g transform="translate(31.4306, 8.4660)">
<text font-family="serif" font-size="1.7461" text-anchor="start" fill="currentColor">
<tspan>-7</tspan>
</text>
</g>
<g transform="translate(31.4306, 11.4660)">
<text font-family="serif" font-size="1.7461" text-anchor="start" fill="currentColor">
<tspan>-24</tspan>
</text>
</g>
<g transform="translate(32.6698, 14.0590)">
<rect x="-0.0650" y="-1.8147" width="0.1300" height="3.6286" ry="0.0400" fill="currentColor"/>
</g>
<g transform="translate(35.1740, 14.0590)">
<rect x="-0.0650" y="-1.9953" width="0.1300" height="3.3092" ry="0.0400" fill="currentColor"/>
</g>
<g transform="translate(33.9348, 15.5590)">
<path transform="scale(0.0040, -0.0040)" d="M218 136c66 0 108 -36 108 -89c0 -89 -113 -183 -218 -183c-66 0 -108 36 -108 89c0 89 113 183 218 183z" fill="currentColor"/>
</g>
<g transform="translate(33.9348, 5.0014)">
<text font-family="serif" font-size="1.7461" text-anchor="start" fill="currentColor">
<tspan>5</tspan>
</text>
</g>
<g transform="translate(33.9348, 8.0014)">
<text font-family="serif" font-size="1.7461" text-anchor="start" fill="currentColor">
<tspan>-7</tspan>
</text>
</g>
<g transform="translate(33.9348, 11.0014)">
<text font-family="serif" font-size="1.7461" text-anchor="start" fill="currentColor">
<tspan>-24</tspan>
</text>
</g>
<g transform="translate(34.0238, 165.1202)">
<a xlink:href="https://lilypond.org/">
<rect x="0.0000" y="-0.4748" width="51.4540" height="2.0024" fill="none" stroke="none" stroke-width="0.0"/>
</a>
</g>
<g transform="translate(34.0238, 165.1202)">
<text font-family="serif" font-size="2.2001" text-anchor="start" fill="currentColor">
<tspan>Music engraving by LilyPond 2.23.80—www.lilypond.org</tspan>
</text>
</g>
</svg>
