<svg xmlns="http://www.w3.org/2000/svg" xmlns:xlink="http://www.w3.org/1999/xlink" version="1.2" width="40.75mm" height="12.60mm" viewBox="8.5358 -0.0000 23.1894 7.1683">
<style type="text/css">
<![CDATA[
tspan { white-space: pre; }
]]>
</style>
<g transform="translate(8.5358, 5.1002)">
<line stroke-linejoin="round" stroke-linecap="round" stroke-width="0.1000" stroke="currentColor" x1="0.0500" y1="0" x2="23.1894" y2="0"/>
</g>
<g transform="translate(14.1649, 5.1002)">
<path transform="scale(0.0040, -0.0040)" d="M218 136c66 0 108 -36 108 -89c0 -89 -113 -183 -218 -183c-66 0 -108 36 -108 89c0 89 113 183 218 183z" fill="currentColor"/>
</g>
<g transform="translate(10.1845, 5.1002)">
<path transform="scale(0.0040, -0.0040)" d="M360 486c0 -18 -161 -198 -161 -396c0 -25 3 -50 8 -76c2 -10 -7 -19 -17 -16c-24 7 -48 15 -73 15s-50 -8 -74 -15c-11 -3 -20 6 -16 16c54 128 134 242 216 355c-20 -11 -40 -16 -59 -16c-59 0 -72 57 -117 57c-27 0 -38 -33 -38 -70v-75c0 -10 -7 -15 -14 -15
s-15 5 -15 15v220c0 10 8 15 15 15s14 -5 14 -15v-14c0 -9 12 -19 15 -15c21 29 48 44 78 44c67 0 79 -56 127 -56c56 0 81 56 95 56c8 0 16 -6 16 -14z" fill="currentColor"/>
</g>
<g transform="translate(9.5358, 7.1683)">
<g>
<path transform="scale(0.0040, -0.0040)" d="M0 250l117 250c6 12 30 -13 58 -13c15 0 29 7 42 13c8 4 16 -5 16 -16v-367c0 -48 28 -94 73 -94c8 0 12 -5 12 -11s-4 -12 -12 -12c-44 0 -87 13 -131 13s-87 -13 -131 -13c-8 0 -12 6 -12 12s4 11 12 11c45 0 73 46 73 94v245c0 12 -9 19 -17 19c-4 0 -8 -3 -10 -7
l-64 -136c-3 -6 -7 -9 -12 -9c-8 0 -16 6 -16 14c0 2 1 5 2 7z" fill="currentColor"/>

<path transform="translate(1.2633, 0.0000) scale(0.0040, -0.0040)" d="M170 256c-51 0 -53 -44 -53 -102v-14v-15c0 -58 2 -102 53 -102c57 0 61 51 61 117s-4 116 -61 116zM117 266c17 7 34 13 53 13c101 0 170 -44 170 -139s-69 -140 -170 -140c-112 0 -170 124 -170 250c0 128 72 250 190 250c71 0 138 -39 138 -103c0 -36 -29 -66 -65 -66
s-66 30 -66 66c0 24 39 25 39 49c0 20 -23 31 -46 31c-66 0 -75 -65 -75 -139c0 -24 2 -48 2 -72z" fill="currentColor"/>
</g>
</g>
<g transform="translate(15.4041, 5.1002)">
<rect x="-0.0650" y="-3.3333" width="0.1300" height="3.1472" ry="0.0400" fill="currentColor"/>
</g>
<g transform="translate(14.1649, 5.1002)">
<path stroke-width="0.0800" stroke-linejoin="round" stroke-linecap="round" stroke="currentColor" fill="currentColor" d="M0.8521 0.7500C1.8105 1.6041 5.5980 1.6041 6.5563 0.7500L6.5563 0.7500C5.5980 1.4841 1.8105 1.4841 0.8521 0.7500z"/>
</g>
<g transform="translate(21.7792, 1.1799)">
<text font-family="serif" font-style="italic" font-size="1.7461" text-anchor="start" fill="currentColor">
<tspan>8:5</tspan>
</text>
</g>
<g transform="translate(20.2691, 5.1002)">
<path transform="scale(0.0040, -0.0040)" d="M218 136c66 0 108 -36 108 -89c0 -89 -113 -183 -218 -183c-66 0 -108 36 -108 89c0 89 113 183 218 183z" fill="currentColor"/>
</g>
<g transform="translate(22.7865, 4.6002)">
<path transform="scale(0.0040, -0.0040)" d="M0 0c0 31 25 56 56 56s56 -25 56 -56s-25 -56 -56 -56s-56 25 -56 56z" fill="currentColor"/>
</g>
<g transform="translate(21.5083, 5.1002)">
<rect x="-0.0650" y="-3.3750" width="0.1300" height="3.1889" ry="0.0400" fill="currentColor"/>
</g>
<g transform="translate(21.5733, 1.7652)">
<path transform="scale(0.0040, -0.0040)" d="M0 0c0 -177 201 -293 201 -470c0 -33 -9 -65 -23 -95c18 -37 29 -75 29 -117c0 -63 -15 -125 -41 -183c-5 -8 -13 -12 -20 -12c-13 0 -26 11 -23 27c26 52 42 110 42 168c0 97 -94 190 -165 257v-75h-16v500h16zM151 -517c5 15 8 31 8 47c0 96 -91 190 -159 257
c0 -118 90 -206 151 -304z" fill="currentColor"/>
</g>
<g transform="translate(15.3391, 0.6002)">
<line stroke-linejoin="round" stroke-linecap="round" stroke-width="0.1600" stroke="currentColor" x1="15.4362" y1="-0.0000" x2="15.4362" y2="0.7000"/>
</g>
<g transform="translate(15.3391, 0.6002)">
<line stroke-linejoin="round" stroke-linecap="round" stroke-width="0.1600" stroke="currentColor" x1="-0.2000" y1="-0.0000" x2="-0.2000" y2="0.7000"/>
</g>
<g transform="translate(15.3391, 0.6002)">
<line stroke-linejoin="round" stroke-linecap="round" stroke-width="0.1600" stroke="currentColor" x1="15.4362" y1="-0.0000" x2="9.3960" y2="-0.0000"/>
</g>
<g transform="translate(15.3391, 0.6002)">
<line stroke-linejoin="round" stroke-linecap="round" stroke-width="0.1600" stroke="currentColor" x1="-0.2000" y1="-0.0000" x2="6.0401" y2="-0.0000"/>
</g>
<g transform="translate(24.6752, 5.1002)">
<path transform="scale(0.0040, -0.0040)" d="M70 205c79 0 46 -98 91 -98c16 0 54 48 61 63c6 12 23 12 28 0l-123 -420c-8 -7 -17 -10 -27 -10s-20 3 -28 10l117 326c-34 -12 -69 -22 -105 -22c-47 0 -87 34 -87 79c0 40 33 72 73 72z" fill="currentColor"/>
</g>
<g transform="translate(29.2752, 5.1002)">
<path transform="scale(0.0040, -0.0040)" d="M154 455c79 0 46 -98 91 -98c15 0 46 49 52 63c6 13 23 12 28 0l-216 -920c-8 -7 -18 -10 -28 -10s-19 3 -27 10l86 327c-35 -13 -71 -23 -108 -23c-47 0 -87 34 -87 79c0 40 32 72 72 72c79 0 46 -98 91 -98c17 0 54 54 59 71l39 149c-34 -12 -70 -23 -106 -23
c-47 0 -87 34 -87 79c0 40 33 72 73 72c79 0 45 -98 90 -98c16 0 52 51 56 68l40 151c-33 -12 -68 -22 -103 -22c-47 0 -87 34 -87 79c0 40 32 72 72 72z" fill="currentColor"/>
</g>
</svg>
