<svg xmlns="http://www.w3.org/2000/svg" xmlns:xlink="http://www.w3.org/1999/xlink" version="1.2" width="175.00mm" height="20.46mm" viewBox="8.5358 -0.0000 99.5846 11.6439">
<style type="text/css">
<![CDATA[
tspan { white-space: pre; }
]]>
</style>
<g transform="translate(0.0000, 9.0373)">
<rect x="22.5647" y="-0.1000" width="1.9349" height="0.2000" ry="0.1000" fill="currentColor"/>
</g>
<g transform="translate(0.0000, 9.0373)">
<rect x="20.0419" y="-0.1000" width="1.9563" height="0.2000" ry="0.1000" fill="currentColor"/>
</g>
<g transform="translate(0.0000, 9.0373)">
<rect x="16.9098" y="-0.1000" width="1.9563" height="0.2000" ry="0.1000" fill="currentColor"/>
</g>
<g transform="translate(8.5358, 8.0373)">
<line stroke-linejoin="round" stroke-linecap="round" stroke-width="0.1000" stroke="currentColor" x1="0.0500" y1="0" x2="99.5346" y2="0"/>
</g>
<g transform="translate(8.5358, 7.0373)">
<line stroke-linejoin="round" stroke-linecap="round" stroke-width="0.1000" stroke="currentColor" x1="0.0500" y1="0" x2="99.5346" y2="0"/>
</g>
<g transform="translate(8.5358, 6.0373)">
<line stroke-linejoin="round" stroke-linecap="round" stroke-width="0.1000" stroke="currentColor" x1="0.0500" y1="0" x2="99.5346" y2="0"/>
</g>
<g transform="translate(8.5358, 5.0373)">
<line stroke-linejoin="round" stroke-linecap="round" stroke-width="0.1000" stroke="currentColor" x1="0.0500" y1="0" x2="99.5346" y2="0"/>
</g>
<g transform="translate(8.5358, 4.0373)">
<line stroke-linejoin="round" stroke-linecap="round" stroke-width="0.1000" stroke="currentColor" x1="0.0500" y1="0" x2="99.5346" y2="0"/>
</g>
<g transform="translate(107.9305, 6.0373)">
<rect x="0.0000" y="-2.0000" width="0.1900" height="4.0000" ry="0.0000" fill="currentColor"/>
</g>
<g transform="translate(20.3679, 6.0373)">
<path stroke-width="0.0800" stroke-linejoin="round" stroke-linecap="round" stroke="currentColor" fill="currentColor" d="M0.8521 3.7500C1.3622 4.3433 2.4648 4.3433 2.9749 3.7500L2.9749 3.7500C2.4648 4.2233 1.3622 4.2233 0.8521 3.7500z"/>
</g>
<g transform="translate(17.2358, 9.0373)">
<path transform="scale(0.0040, -0.0040)" d="M218 136c55 0 108 -28 108 -89c0 -71 -55 -121 -102 -149c-35 -21 -75 -34 -116 -34c-55 0 -108 28 -108 89c0 71 55 121 102 149c35 21 75 34 116 34z" fill="currentColor"/>
</g>
<g transform="translate(9.3358, 7.0373)">
<path transform="scale(0.0040, -0.0040)" d="M266 -635h-6c-108 0 -195 88 -195 197c0 58 53 103 112 103c54 0 95 -47 95 -103c0 -52 -43 -95 -95 -95c-11 0 -21 2 -31 6c26 -39 68 -65 117 -65h4zM461 -203c68 24 113 95 113 164c0 90 -66 179 -173 190c24 -116 46 -231 60 -354zM74 28c0 -135 129 -247 264 -247
c28 0 55 2 82 6c-14 127 -37 245 -63 364c-79 -8 -124 -61 -124 -119c0 -44 25 -91 81 -123c5 -5 7 -10 7 -15c0 -11 -10 -22 -22 -22c-3 0 -6 1 -9 2c-80 43 -117 115 -117 185c0 88 58 174 160 197c-14 58 -29 117 -46 175c-107 -121 -213 -243 -213 -403zM335 -262
c-188 0 -333 172 -333 374c0 177 131 306 248 441c-19 62 -37 125 -45 190c-6 52 -7 104 -7 156c0 115 55 224 149 292c6 5 14 5 20 0c71 -84 133 -245 133 -358c0 -143 -86 -255 -180 -364c21 -68 39 -138 56 -207c4 0 9 1 13 1c155 0 256 -128 256 -261
c0 -76 -33 -154 -107 -210c-22 -17 -47 -28 -73 -36c3 -35 5 -70 5 -105c0 -19 -1 -39 -2 -58c-7 -119 -88 -225 -202 -228l1 43c93 2 153 92 159 191c1 18 2 37 2 55c0 31 -1 61 -4 92c-29 -5 -58 -8 -89 -8zM428 916c0 55 -4 79 -20 129c-99 -48 -162 -149 -162 -259
c0 -74 18 -133 36 -194c80 97 146 198 146 324z" fill="currentColor"/>
</g>
<g transform="translate(13.5358, 6.0373)">
<path transform="scale(0.0040, -0.0040)" d="M359 27c-49 0 -75 42 -75 75c0 38 27 77 72 77c4 0 9 0 14 -1c-28 37 -72 59 -120 59c-106 0 -113 -73 -113 -186v-51v-51c0 -113 7 -187 113 -187c80 0 139 70 158 151c2 7 7 10 12 10c6 0 13 -4 13 -12c0 -94 -105 -174 -183 -174c-68 0 -137 21 -184 70
c-49 51 -66 122 -66 193s17 142 66 193c47 49 116 69 184 69c87 0 160 -63 175 -149c1 -5 1 -10 1 -14c0 -40 -30 -72 -67 -72z" fill="currentColor"/>
</g>
<g transform="translate(13.5358, 2.6727)">
<rect x="1.0449" y="-2.6727" width="0.1158" height="2.5129" ry="0.0193" fill="currentColor"/>
</g>
<g transform="translate(13.5358, 2.6727)">
<path transform="scale(0.0036, -0.0036)" d="M215 137c57 0 111 -29 111 -92c0 -71 -54 -120 -101 -148c-35 -21 -74 -34 -114 -34c-57 0 -111 29 -111 92c0 71 54 120 101 148c35 21 74 34 114 34z" fill="currentColor"/>
</g>
<g transform="translate(14.6965, 3.1615)">
<text font-family="serif" font-size="2.2001" text-anchor="start" fill="currentColor">
<tspan> = 54</tspan>
</text>
</g>
<g transform="translate(18.4750, 6.0373)">
<rect x="-0.0650" y="-2.0007" width="0.1300" height="4.8145" ry="0.0400" fill="currentColor"/>
</g>
<g transform="translate(74.0305, 6.0373)">
<rect x="-0.0650" y="-3.5000" width="0.1300" height="3.8139" ry="0.0400" fill="currentColor"/>
</g>
<g transform="translate(75.1179, 6.0373)">
<path transform="scale(0.0040, -0.0040)" d="M218 136c55 0 108 -28 108 -89c0 -71 -55 -121 -102 -149c-35 -21 -75 -34 -116 -34c-55 0 -108 28 -108 89c0 71 55 121 102 149c35 21 75 34 116 34z" fill="currentColor"/>
</g>
<g transform="translate(76.3571, 6.0373)">
<rect x="-0.0650" y="-3.5000" width="0.1300" height="3.3139" ry="0.0400" fill="currentColor"/>
</g>
<g transform="translate(24.8042, 6.0373)">
<path stroke-width="0.0800" stroke-linejoin="round" stroke-linecap="round" stroke="currentColor" fill="currentColor" d="M0.8521 3.5000C1.2445 3.9863 1.9732 3.9863 2.3656 3.5000L2.3656 3.5000C1.9732 3.8663 1.2445 3.8663 0.8521 3.5000z"/>
</g>
<g transform="translate(77.4446, 6.0373)">
<path transform="scale(0.0040, -0.0040)" d="M218 136c55 0 108 -28 108 -89c0 -71 -55 -121 -102 -149c-35 -21 -75 -34 -116 -34c-55 0 -108 28 -108 89c0 71 55 121 102 149c35 21 75 34 116 34z" fill="currentColor"/>
</g>
<g transform="translate(78.6838, 6.0373)">
<rect x="-0.0650" y="-3.5000" width="0.1300" height="3.3139" ry="0.0400" fill="currentColor"/>
</g>
<g transform="translate(27.8919, 2.6008)">
<line stroke-linejoin="round" stroke-linecap="round" stroke-width="0.1600" stroke="currentColor" x1="9.6366" y1="-0.0954" x2="9.6366" y2="0.6046"/>
</g>
<g transform="translate(27.8919, 2.6008)">
<line stroke-linejoin="round" stroke-linecap="round" stroke-width="0.1600" stroke="currentColor" x1="-0.2000" y1="0.0020" x2="-0.2000" y2="0.7020"/>
</g>
<g transform="translate(27.8919, 2.6008)">
<line stroke-linejoin="round" stroke-linecap="round" stroke-width="0.1600" stroke="currentColor" x1="9.6366" y1="-0.0954" x2="5.7621" y2="-0.0571"/>
</g>
<g transform="translate(27.8919, 2.6008)">
<line stroke-linejoin="round" stroke-linecap="round" stroke-width="0.1600" stroke="currentColor" x1="-0.2000" y1="0.0020" x2="3.8745" y2="-0.0384"/>
</g>
<g transform="translate(79.7712, 6.0373)">
<path transform="scale(0.0040, -0.0040)" d="M218 136c55 0 108 -28 108 -89c0 -71 -55 -121 -102 -149c-35 -21 -75 -34 -116 -34c-55 0 -108 28 -108 89c0 71 55 121 102 149c35 21 75 34 116 34z" fill="currentColor"/>
</g>
<g transform="translate(81.0104, 6.0373)">
<rect x="-0.0650" y="-3.5000" width="0.1300" height="3.3139" ry="0.0400" fill="currentColor"/>
</g>
<g transform="translate(32.1664, 3.1218)">
<text font-family="serif" font-style="italic" font-size="1.7461" text-anchor="start" fill="currentColor">
<tspan>5</tspan>
</text>
</g>
<g transform="translate(82.0979, 6.0373)">
<path transform="scale(0.0040, -0.0040)" d="M218 136c55 0 108 -28 108 -89c0 -71 -55 -121 -102 -149c-35 -21 -75 -34 -116 -34c-55 0 -108 28 -108 89c0 71 55 121 102 149c35 21 75 34 116 34z" fill="currentColor"/>
</g>
<g transform="translate(82.1629, 6.0373)">
<rect x="-0.0650" y="0.1861" width="0.1300" height="3.6225" ry="0.0400" fill="currentColor"/>
</g>
<g transform="translate(84.1287, 6.0373)">
<path transform="scale(0.0040, -0.0040)" d="M218 136c55 0 108 -28 108 -89c0 -71 -55 -121 -102 -149c-35 -21 -75 -34 -116 -34c-55 0 -108 28 -108 89c0 71 55 121 102 149c35 21 75 34 116 34z" fill="currentColor"/>
</g>
<g transform="translate(84.1937, 6.0373)">
<rect x="-0.0650" y="0.1861" width="0.1300" height="3.5786" ry="0.0400" fill="currentColor"/>
</g>
<g transform="translate(26.7177, 6.0373)">
<path stroke-width="0.0800" stroke-linejoin="round" stroke-linecap="round" stroke="currentColor" fill="currentColor" d="M0.8521 3.5000C1.3263 4.0625 2.3046 4.0625 2.7788 3.5000L2.7788 3.5000C2.3046 3.9425 1.3263 3.9425 0.8521 3.5000z"/>
</g>
<g transform="translate(86.1596, 5.5373)">
<path transform="scale(0.0040, -0.0040)" d="M218 136c55 0 108 -28 108 -89c0 -71 -55 -121 -102 -149c-35 -21 -75 -34 -116 -34c-55 0 -108 28 -108 89c0 71 55 121 102 149c35 21 75 34 116 34z" fill="currentColor"/>
</g>
<g transform="translate(86.2246, 6.0373)">
<rect x="-0.0650" y="-0.3139" width="0.1300" height="4.0347" ry="0.0400" fill="currentColor"/>
</g>
<g transform="translate(88.1905, 5.5373)">
<path transform="scale(0.0040, -0.0040)" d="M218 136c55 0 108 -28 108 -89c0 -71 -55 -121 -102 -149c-35 -21 -75 -34 -116 -34c-55 0 -108 28 -108 89c0 71 55 121 102 149c35 21 75 34 116 34z" fill="currentColor"/>
</g>
<g transform="translate(88.2555, 6.0373)">
<rect x="-0.0650" y="-0.3139" width="0.1300" height="3.9908" ry="0.0400" fill="currentColor"/>
</g>
<g transform="translate(29.0444, 6.0373)">
<path stroke-width="0.0800" stroke-linejoin="round" stroke-linecap="round" stroke="currentColor" fill="currentColor" d="M0.8521 3.5000C1.3263 4.0625 2.3046 4.0625 2.7788 3.5000L2.7788 3.5000C2.3046 3.9425 1.3263 3.9425 0.8521 3.5000z"/>
</g>
<g transform="translate(90.2214, 5.5373)">
<path transform="scale(0.0040, -0.0040)" d="M218 136c55 0 108 -28 108 -89c0 -71 -55 -121 -102 -149c-35 -21 -75 -34 -116 -34c-55 0 -108 28 -108 89c0 71 55 121 102 149c35 21 75 34 116 34z" fill="currentColor"/>
</g>
<g transform="translate(90.2864, 6.0373)">
<rect x="-0.0650" y="-0.3139" width="0.1300" height="3.9470" ry="0.0400" fill="currentColor"/>
</g>
<g transform="translate(92.2523, 5.5373)">
<path transform="scale(0.0040, -0.0040)" d="M218 136c55 0 108 -28 108 -89c0 -71 -55 -121 -102 -149c-35 -21 -75 -34 -116 -34c-55 0 -108 28 -108 89c0 71 55 121 102 149c35 21 75 34 116 34z" fill="currentColor"/>
</g>
<g transform="translate(92.3173, 6.0373)">
<rect x="-0.0650" y="-0.3139" width="0.1300" height="3.9031" ry="0.0400" fill="currentColor"/>
</g>
<g transform="translate(31.3710, 6.0373)">
<path stroke-width="0.0800" stroke-linejoin="round" stroke-linecap="round" stroke="currentColor" fill="currentColor" d="M0.8521 3.5000C1.3263 4.0625 2.3046 4.0625 2.7788 3.5000L2.7788 3.5000C2.3046 3.9425 1.3263 3.9425 0.8521 3.5000z"/>
</g>
<g transform="translate(94.2832, 5.5373)">
<path transform="scale(0.0040, -0.0040)" d="M218 136c55 0 108 -28 108 -89c0 -71 -55 -121 -102 -149c-35 -21 -75 -34 -116 -34c-55 0 -108 28 -108 89c0 71 55 121 102 149c35 21 75 34 116 34z" fill="currentColor"/>
</g>
<g transform="translate(94.3482, 6.0373)">
<rect x="-0.0650" y="-0.3139" width="0.1300" height="3.8592" ry="0.0400" fill="currentColor"/>
</g>
<g transform="translate(96.3140, 5.5373)">
<path transform="scale(0.0040, -0.0040)" d="M218 136c55 0 108 -28 108 -89c0 -71 -55 -121 -102 -149c-35 -21 -75 -34 -116 -34c-55 0 -108 28 -108 89c0 71 55 121 102 149c35 21 75 34 116 34z" fill="currentColor"/>
</g>
<g transform="translate(96.3790, 6.0373)">
<rect x="-0.0650" y="-0.3139" width="0.1300" height="3.8153" ry="0.0400" fill="currentColor"/>
</g>
<g transform="translate(36.0243, 6.0373)">
<path stroke-width="0.0800" stroke-linejoin="round" stroke-linecap="round" stroke="currentColor" fill="currentColor" d="M0.8521 2.7500C1.3263 3.3125 2.3046 3.3125 2.7788 2.7500L2.7788 2.7500C2.3046 3.1925 1.3263 3.1925 0.8521 2.7500z"/>
</g>
<g transform="translate(98.6407, 6.0373)">
<path transform="scale(0.0040, -0.0040)" d="M54 -500l86 327c-35 -13 -71 -23 -108 -23c-46 0 -87 33 -87 79c0 40 32 72 72 72c25 0 49 -15 57 -39c10 -28 5 -59 34 -59c17 0 54 54 59 71l39 149c-34 -12 -70 -23 -106 -23c-46 0 -87 33 -87 79c0 40 33 72 73 72c25 0 48 -15 56 -39c10 -28 5 -59 34 -59
c16 0 52 51 56 68l40 151c-33 -12 -68 -22 -103 -22c-46 0 -87 33 -87 79c0 40 32 72 72 72c25 0 49 -15 57 -39c10 -28 5 -59 34 -59c15 0 46 49 52 63c6 12 23 12 28 0l-216 -920c-8 -7 -18 -10 -28 -10s-19 3 -27 10z" fill="currentColor"/>
</g>
<g transform="translate(39.5252, 2.8835)">
<line stroke-linejoin="round" stroke-linecap="round" stroke-width="0.1600" stroke="currentColor" x1="12.5152" y1="-0.3612" x2="12.5152" y2="0.3388"/>
</g>
<g transform="translate(39.5252, 2.8835)">
<line stroke-linejoin="round" stroke-linecap="round" stroke-width="0.1600" stroke="currentColor" x1="-0.1999" y1="0.0058" x2="-0.1999" y2="0.7058"/>
</g>
<g transform="translate(39.5252, 2.8835)">
<line stroke-linejoin="round" stroke-linecap="round" stroke-width="0.1600" stroke="currentColor" x1="12.5152" y1="-0.3612" x2="7.2011" y2="-0.2079"/>
</g>
<g transform="translate(39.5252, 2.8835)">
<line stroke-linejoin="round" stroke-linecap="round" stroke-width="0.1600" stroke="currentColor" x1="-0.1999" y1="0.0058" x2="5.3141" y2="-0.1534"/>
</g>
<g transform="translate(100.9631, 6.0373)">
<path transform="scale(0.0040, -0.0040)" d="M54 -500l86 327c-35 -13 -71 -23 -108 -23c-46 0 -87 33 -87 79c0 40 32 72 72 72c25 0 49 -15 57 -39c10 -28 5 -59 34 -59c17 0 54 54 59 71l39 149c-34 -12 -70 -23 -106 -23c-46 0 -87 33 -87 79c0 40 33 72 73 72c25 0 48 -15 56 -39c10 -28 5 -59 34 -59
c16 0 52 51 56 68l40 151c-33 -12 -68 -22 -103 -22c-46 0 -87 33 -87 79c0 40 32 72 72 72c25 0 49 -15 57 -39c10 -28 5 -59 34 -59c15 0 46 49 52 63c6 12 23 12 28 0l-216 -920c-8 -7 -18 -10 -28 -10s-19 3 -27 10z" fill="currentColor"/>
</g>
<g transform="translate(45.2390, 3.2736)">
<text font-family="serif" font-style="italic" font-size="1.7461" text-anchor="start" fill="currentColor">
<tspan>7</tspan>
</text>
</g>
<g transform="translate(103.2856, 6.0373)">
<path transform="scale(0.0040, -0.0040)" d="M54 -500l86 327c-35 -13 -71 -23 -108 -23c-46 0 -87 33 -87 79c0 40 32 72 72 72c25 0 49 -15 57 -39c10 -28 5 -59 34 -59c17 0 54 54 59 71l39 149c-34 -12 -70 -23 -106 -23c-46 0 -87 33 -87 79c0 40 33 72 73 72c25 0 48 -15 56 -39c10 -28 5 -59 34 -59
c16 0 52 51 56 68l40 151c-33 -12 -68 -22 -103 -22c-46 0 -87 33 -87 79c0 40 32 72 72 72c25 0 49 -15 57 -39c10 -28 5 -59 34 -59c15 0 46 49 52 63c6 12 23 12 28 0l-216 -920c-8 -7 -18 -10 -28 -10s-19 3 -27 10z" fill="currentColor"/>
</g>
<g transform="translate(18.4100, 4.0373)">
<polygon stroke-linejoin="round" stroke-linecap="round" stroke-width="0.0800" fill="currentColor" stroke="currentColor" points="18.8785 -0.3900 18.8785 0.0100 0.0400 0.2000 0.0400 -0.2000"/>
</g>
<g transform="translate(18.4100, 4.9106)">
<polygon stroke-linejoin="round" stroke-linecap="round" stroke-width="0.0800" fill="currentColor" stroke="currentColor" points="18.8785 -0.3900 18.8785 0.0100 0.0400 0.2000 0.0400 -0.2000"/>
</g>
<g transform="translate(21.5421, 5.7525)">
<polygon stroke-linejoin="round" stroke-linecap="round" stroke-width="0.0800" fill="currentColor" stroke="currentColor" points="15.7464 -0.3585 15.7464 0.0415 0.0400 0.2000 0.0400 -0.2000"/>
</g>
<g transform="translate(24.0649, 6.6005)">
<polygon stroke-linejoin="round" stroke-linecap="round" stroke-width="0.0800" fill="currentColor" stroke="currentColor" points="2.0035 -0.2205 2.0035 0.1795 0.0400 0.2000 0.0400 -0.2000"/>
</g>
<g transform="translate(105.6080, 6.0373)">
<path transform="scale(0.0040, -0.0040)" d="M54 -500l86 327c-35 -13 -71 -23 -108 -23c-46 0 -87 33 -87 79c0 40 32 72 72 72c25 0 49 -15 57 -39c10 -28 5 -59 34 -59c17 0 54 54 59 71l39 149c-34 -12 -70 -23 -106 -23c-46 0 -87 33 -87 79c0 40 33 72 73 72c25 0 48 -15 56 -39c10 -28 5 -59 34 -59
c16 0 52 51 56 68l40 151c-33 -12 -68 -22 -103 -22c-46 0 -87 33 -87 79c0 40 32 72 72 72c25 0 49 -15 57 -39c10 -28 5 -59 34 -59c15 0 46 49 52 63c6 12 23 12 28 0l-216 -920c-8 -7 -18 -10 -28 -10s-19 3 -27 10z" fill="currentColor"/>
</g>
<g transform="translate(38.3510, 6.0373)">
<path stroke-width="0.0800" stroke-linejoin="round" stroke-linecap="round" stroke="currentColor" fill="currentColor" d="M0.8521 2.7500C1.2686 3.2596 2.0665 3.2596 2.4830 2.7500L2.4830 2.7500C2.0665 3.1396 1.2686 3.1396 0.8521 2.7500z"/>
</g>
<g transform="translate(20.3679, 9.0373)">
<path transform="scale(0.0040, -0.0040)" d="M218 136c55 0 108 -28 108 -89c0 -71 -55 -121 -102 -149c-35 -21 -75 -34 -116 -34c-55 0 -108 28 -108 89c0 71 55 121 102 149c35 21 75 34 116 34z" fill="currentColor"/>
</g>
<g transform="translate(21.6071, 6.0373)">
<rect x="-0.0650" y="-2.0321" width="0.1300" height="4.8460" ry="0.0400" fill="currentColor"/>
</g>
<g transform="translate(22.8907, 9.0373)">
<path transform="scale(0.0040, -0.0040)" d="M218 136c55 0 108 -28 108 -89c0 -71 -55 -121 -102 -149c-35 -21 -75 -34 -116 -34c-55 0 -108 28 -108 89c0 71 55 121 102 149c35 21 75 34 116 34z" fill="currentColor"/>
</g>
<g transform="translate(24.1299, 6.0373)">
<rect x="-0.0650" y="-2.0574" width="0.1300" height="4.8713" ry="0.0400" fill="currentColor"/>
</g>
<g transform="translate(40.3819, 6.0373)">
<path stroke-width="0.0800" stroke-linejoin="round" stroke-linecap="round" stroke="currentColor" fill="currentColor" d="M0.8521 2.7500C1.2686 3.2596 2.0665 3.2596 2.4830 2.7500L2.4830 2.7500C2.0665 3.1396 1.2686 3.1396 0.8521 2.7500z"/>
</g>
<g transform="translate(24.8042, 8.5373)">
<path transform="scale(0.0040, -0.0040)" d="M218 136c55 0 108 -28 108 -89c0 -71 -55 -121 -102 -149c-35 -21 -75 -34 -116 -34c-55 0 -108 28 -108 89c0 71 55 121 102 149c35 21 75 34 116 34z" fill="currentColor"/>
</g>
<g transform="translate(26.0434, 6.0373)">
<rect x="-0.0650" y="-2.0767" width="0.1300" height="4.3906" ry="0.0400" fill="currentColor"/>
</g>
<g transform="translate(26.7177, 8.5373)">
<path transform="scale(0.0040, -0.0040)" d="M218 136c55 0 108 -28 108 -89c0 -71 -55 -121 -102 -149c-35 -21 -75 -34 -116 -34c-55 0 -108 28 -108 89c0 71 55 121 102 149c35 21 75 34 116 34z" fill="currentColor"/>
</g>
<g transform="translate(27.9569, 6.0373)">
<rect x="-0.0650" y="-2.0959" width="0.1300" height="4.4098" ry="0.0400" fill="currentColor"/>
</g>
<g transform="translate(42.4127, 6.0373)">
<path stroke-width="0.0800" stroke-linejoin="round" stroke-linecap="round" stroke="currentColor" fill="currentColor" d="M0.8521 2.7500C1.2686 3.2596 2.0665 3.2596 2.4830 2.7500L2.4830 2.7500C2.0665 3.1396 1.2686 3.1396 0.8521 2.7500z"/>
</g>
<g transform="translate(29.0444, 8.5373)">
<path transform="scale(0.0040, -0.0040)" d="M218 136c55 0 108 -28 108 -89c0 -71 -55 -121 -102 -149c-35 -21 -75 -34 -116 -34c-55 0 -108 28 -108 89c0 71 55 121 102 149c35 21 75 34 116 34z" fill="currentColor"/>
</g>
<g transform="translate(30.2836, 6.0373)">
<rect x="-0.0650" y="-2.1192" width="0.1300" height="4.4331" ry="0.0400" fill="currentColor"/>
</g>
<g transform="translate(31.3710, 8.5373)">
<path transform="scale(0.0040, -0.0040)" d="M218 136c55 0 108 -28 108 -89c0 -71 -55 -121 -102 -149c-35 -21 -75 -34 -116 -34c-55 0 -108 28 -108 89c0 71 55 121 102 149c35 21 75 34 116 34z" fill="currentColor"/>
</g>
<g transform="translate(32.6102, 6.0373)">
<rect x="-0.0650" y="-2.1426" width="0.1300" height="4.4565" ry="0.0400" fill="currentColor"/>
</g>
<g transform="translate(44.4436, 6.0373)">
<path stroke-width="0.0800" stroke-linejoin="round" stroke-linecap="round" stroke="currentColor" fill="currentColor" d="M0.8521 2.7500C1.2686 3.2596 2.0665 3.2596 2.4830 2.7500L2.4830 2.7500C2.0665 3.1396 1.2686 3.1396 0.8521 2.7500z"/>
</g>
<g transform="translate(33.6977, 8.5373)">
<path transform="scale(0.0040, -0.0040)" d="M218 136c55 0 108 -28 108 -89c0 -71 -55 -121 -102 -149c-35 -21 -75 -34 -116 -34c-55 0 -108 28 -108 89c0 71 55 121 102 149c35 21 75 34 116 34z" fill="currentColor"/>
</g>
<g transform="translate(34.9369, 6.0373)">
<rect x="-0.0650" y="-2.1660" width="0.1300" height="4.4799" ry="0.0400" fill="currentColor"/>
</g>
<g transform="translate(17.2358, 6.0373)">
<path stroke-width="0.0800" stroke-linejoin="round" stroke-linecap="round" stroke="currentColor" fill="currentColor" d="M0.8521 3.7500C1.4639 4.4213 2.9725 4.4213 3.5842 3.7500L3.5842 3.7500C2.9725 4.3013 1.4639 4.3013 0.8521 3.7500z"/>
</g>
<g transform="translate(36.0243, 8.0373)">
<path transform="scale(0.0040, -0.0040)" d="M218 136c55 0 108 -28 108 -89c0 -71 -55 -121 -102 -149c-35 -21 -75 -34 -116 -34c-55 0 -108 28 -108 89c0 71 55 121 102 149c35 21 75 34 116 34z" fill="currentColor"/>
</g>
<g transform="translate(37.2635, 6.0373)">
<rect x="-0.0650" y="-2.1893" width="0.1300" height="4.0032" ry="0.0400" fill="currentColor"/>
</g>
<g transform="translate(38.3510, 8.0373)">
<path transform="scale(0.0040, -0.0040)" d="M218 136c55 0 108 -28 108 -89c0 -71 -55 -121 -102 -149c-35 -21 -75 -34 -116 -34c-55 0 -108 28 -108 89c0 71 55 121 102 149c35 21 75 34 116 34z" fill="currentColor"/>
</g>
<g transform="translate(39.5902, 6.0373)">
<rect x="-0.0650" y="-1.8119" width="0.1300" height="3.6258" ry="0.0400" fill="currentColor"/>
</g>
<g transform="translate(48.5054, 6.0373)">
<path stroke-width="0.0800" stroke-linejoin="round" stroke-linecap="round" stroke="currentColor" fill="currentColor" d="M0.8521 2.5000C1.2686 3.0096 2.0665 3.0096 2.4830 2.5000L2.4830 2.5000C2.0665 2.8896 1.2686 2.8896 0.8521 2.5000z"/>
</g>
<g transform="translate(40.3819, 8.0373)">
<path transform="scale(0.0040, -0.0040)" d="M218 136c55 0 108 -28 108 -89c0 -71 -55 -121 -102 -149c-35 -21 -75 -34 -116 -34c-55 0 -108 28 -108 89c0 71 55 121 102 149c35 21 75 34 116 34z" fill="currentColor"/>
</g>
<g transform="translate(41.6211, 6.0373)">
<rect x="-0.0650" y="-1.8711" width="0.1300" height="3.6850" ry="0.0400" fill="currentColor"/>
</g>
<g transform="translate(42.4127, 8.0373)">
<path transform="scale(0.0040, -0.0040)" d="M218 136c55 0 108 -28 108 -89c0 -71 -55 -121 -102 -149c-35 -21 -75 -34 -116 -34c-55 0 -108 28 -108 89c0 71 55 121 102 149c35 21 75 34 116 34z" fill="currentColor"/>
</g>
<g transform="translate(43.6520, 6.0373)">
<rect x="-0.0650" y="-1.9304" width="0.1300" height="3.7443" ry="0.0400" fill="currentColor"/>
</g>
<g transform="translate(50.5363, 6.0373)">
<path stroke-width="0.0800" stroke-linejoin="round" stroke-linecap="round" stroke="currentColor" fill="currentColor" d="M0.8521 2.5000C1.2686 3.0096 2.0665 3.0096 2.4830 2.5000L2.4830 2.5000C2.0665 2.8896 1.2686 2.8896 0.8521 2.5000z"/>
</g>
<g transform="translate(44.4436, 8.0373)">
<path transform="scale(0.0040, -0.0040)" d="M218 136c55 0 108 -28 108 -89c0 -71 -55 -121 -102 -149c-35 -21 -75 -34 -116 -34c-55 0 -108 28 -108 89c0 71 55 121 102 149c35 21 75 34 116 34z" fill="currentColor"/>
</g>
<g transform="translate(45.6828, 6.0373)">
<rect x="-0.0650" y="-1.9896" width="0.1300" height="3.8035" ry="0.0400" fill="currentColor"/>
</g>
<g transform="translate(53.7414, 2.4688)">
<line stroke-linejoin="round" stroke-linecap="round" stroke-width="0.1600" stroke="currentColor" x1="9.6365" y1="-0.2772" x2="9.6365" y2="0.4228"/>
</g>
<g transform="translate(53.7414, 2.4688)">
<line stroke-linejoin="round" stroke-linecap="round" stroke-width="0.1600" stroke="currentColor" x1="-0.1999" y1="0.0058" x2="-0.1999" y2="0.7058"/>
</g>
<g transform="translate(53.7414, 2.4688)">
<line stroke-linejoin="round" stroke-linecap="round" stroke-width="0.1600" stroke="currentColor" x1="9.6365" y1="-0.2772" x2="5.7617" y2="-0.1658"/>
</g>
<g transform="translate(53.7414, 2.4688)">
<line stroke-linejoin="round" stroke-linecap="round" stroke-width="0.1600" stroke="currentColor" x1="-0.1999" y1="0.0058" x2="3.8748" y2="-0.1115"/>
</g>
<g transform="translate(46.4745, 8.0373)">
<path transform="scale(0.0040, -0.0040)" d="M218 136c55 0 108 -28 108 -89c0 -71 -55 -121 -102 -149c-35 -21 -75 -34 -116 -34c-55 0 -108 28 -108 89c0 71 55 121 102 149c35 21 75 34 116 34z" fill="currentColor"/>
</g>
<g transform="translate(47.7137, 6.0373)">
<rect x="-0.0650" y="-2.0489" width="0.1300" height="3.8628" ry="0.0400" fill="currentColor"/>
</g>
<g transform="translate(58.0158, 2.9009)">
<text font-family="serif" font-style="italic" font-size="1.7461" text-anchor="start" fill="currentColor">
<tspan>5</tspan>
</text>
</g>
<g transform="translate(48.5054, 7.5373)">
<path transform="scale(0.0040, -0.0040)" d="M218 136c55 0 108 -28 108 -89c0 -71 -55 -121 -102 -149c-35 -21 -75 -34 -116 -34c-55 0 -108 28 -108 89c0 71 55 121 102 149c35 21 75 34 116 34z" fill="currentColor"/>
</g>
<g transform="translate(49.7446, 6.0373)">
<rect x="-0.0650" y="-2.1081" width="0.1300" height="3.4220" ry="0.0400" fill="currentColor"/>
</g>
<g transform="translate(50.5363, 7.5373)">
<path transform="scale(0.0040, -0.0040)" d="M218 136c55 0 108 -28 108 -89c0 -71 -55 -121 -102 -149c-35 -21 -75 -34 -116 -34c-55 0 -108 28 -108 89c0 71 55 121 102 149c35 21 75 34 116 34z" fill="currentColor"/>
</g>
<g transform="translate(51.7755, 6.0373)">
<rect x="-0.0650" y="-2.1674" width="0.1300" height="3.4813" ry="0.0400" fill="currentColor"/>
</g>
<g transform="translate(52.5672, 6.0373)">
<path stroke-width="0.0800" stroke-linejoin="round" stroke-linecap="round" stroke="currentColor" fill="currentColor" d="M0.8521 2.5000C1.3263 3.0625 2.3046 3.0625 2.7788 2.5000L2.7788 2.5000C2.3046 2.9425 1.3263 2.9425 0.8521 2.5000z"/>
</g>
<g transform="translate(52.5672, 7.5373)">
<path transform="scale(0.0040, -0.0040)" d="M218 136c55 0 108 -28 108 -89c0 -71 -55 -121 -102 -149c-35 -21 -75 -34 -116 -34c-55 0 -108 28 -108 89c0 71 55 121 102 149c35 21 75 34 116 34z" fill="currentColor"/>
</g>
<g transform="translate(53.8064, 6.0373)">
<rect x="-0.0650" y="-2.2266" width="0.1300" height="3.5405" ry="0.0400" fill="currentColor"/>
</g>
<g transform="translate(54.8938, 7.5373)">
<path transform="scale(0.0040, -0.0040)" d="M218 136c55 0 108 -28 108 -89c0 -71 -55 -121 -102 -149c-35 -21 -75 -34 -116 -34c-55 0 -108 28 -108 89c0 71 55 121 102 149c35 21 75 34 116 34z" fill="currentColor"/>
</g>
<g transform="translate(56.1330, 6.0373)">
<rect x="-0.0650" y="-2.2945" width="0.1300" height="3.6084" ry="0.0400" fill="currentColor"/>
</g>
<g transform="translate(54.8938, 6.0373)">
<path stroke-width="0.0800" stroke-linejoin="round" stroke-linecap="round" stroke="currentColor" fill="currentColor" d="M0.8521 2.5000C1.3263 3.0625 2.3046 3.0625 2.7788 2.5000L2.7788 2.5000C2.3046 2.9425 1.3263 2.9425 0.8521 2.5000z"/>
</g>
<g transform="translate(57.2205, 7.5373)">
<path transform="scale(0.0040, -0.0040)" d="M218 136c55 0 108 -28 108 -89c0 -71 -55 -121 -102 -149c-35 -21 -75 -34 -116 -34c-55 0 -108 28 -108 89c0 71 55 121 102 149c35 21 75 34 116 34z" fill="currentColor"/>
</g>
<g transform="translate(58.4597, 6.0373)">
<rect x="-0.0650" y="-2.3624" width="0.1300" height="3.6763" ry="0.0400" fill="currentColor"/>
</g>
<g transform="translate(59.5471, 7.0373)">
<path transform="scale(0.0040, -0.0040)" d="M218 136c55 0 108 -28 108 -89c0 -71 -55 -121 -102 -149c-35 -21 -75 -34 -116 -34c-55 0 -108 28 -108 89c0 71 55 121 102 149c35 21 75 34 116 34z" fill="currentColor"/>
</g>
<g transform="translate(60.7863, 6.0373)">
<rect x="-0.0650" y="-2.4302" width="0.1300" height="3.2441" ry="0.0400" fill="currentColor"/>
</g>
<g transform="translate(59.5471, 6.0373)">
<path stroke-width="0.0800" stroke-linejoin="round" stroke-linecap="round" stroke="currentColor" fill="currentColor" d="M0.8521 2.0000C1.3263 2.5625 2.3046 2.5625 2.7788 2.0000L2.7788 2.0000C2.3046 2.4425 1.3263 2.4425 0.8521 2.0000z"/>
</g>
<g transform="translate(61.8738, 7.0373)">
<path transform="scale(0.0040, -0.0040)" d="M218 136c55 0 108 -28 108 -89c0 -71 -55 -121 -102 -149c-35 -21 -75 -34 -116 -34c-55 0 -108 28 -108 89c0 71 55 121 102 149c35 21 75 34 116 34z" fill="currentColor"/>
</g>
<g transform="translate(63.1130, 6.0373)">
<rect x="-0.0650" y="-2.4981" width="0.1300" height="3.3120" ry="0.0400" fill="currentColor"/>
</g>
<g transform="translate(64.2004, 7.0373)">
<path transform="scale(0.0040, -0.0040)" d="M218 136c55 0 108 -28 108 -89c0 -71 -55 -121 -102 -149c-35 -21 -75 -34 -116 -34c-55 0 -108 28 -108 89c0 71 55 121 102 149c35 21 75 34 116 34z" fill="currentColor"/>
</g>
<g transform="translate(65.4396, 6.0373)">
<rect x="-0.0650" y="-3.5000" width="0.1300" height="4.3139" ry="0.0400" fill="currentColor"/>
</g>
<g transform="translate(61.8738, 6.0373)">
<path stroke-width="0.0800" stroke-linejoin="round" stroke-linecap="round" stroke="currentColor" fill="currentColor" d="M0.8521 2.0000C1.3263 2.5625 2.3046 2.5625 2.7788 2.0000L2.7788 2.0000C2.3046 2.4425 1.3263 2.4425 0.8521 2.0000z"/>
</g>
<g transform="translate(67.3325, 6.5373)">
<path transform="scale(0.0040, -0.0040)" d="M218 136c55 0 108 -28 108 -89c0 -71 -55 -121 -102 -149c-35 -21 -75 -34 -116 -34c-55 0 -108 28 -108 89c0 71 55 121 102 149c35 21 75 34 116 34z" fill="currentColor"/>
</g>
<g transform="translate(68.5717, 6.0373)">
<rect x="-0.0650" y="-3.5000" width="0.1300" height="3.8139" ry="0.0400" fill="currentColor"/>
</g>
<g transform="translate(39.5252, 4.2273)">
<polygon stroke-linejoin="round" stroke-linecap="round" stroke-width="0.0800" fill="currentColor" stroke="currentColor" points="23.6128 -0.8900 23.6128 -0.4900 0.0400 0.2000 0.0400 -0.2000"/>
</g>
<g transform="translate(39.5252, 5.0373)">
<polygon stroke-linejoin="round" stroke-linecap="round" stroke-width="0.0800" fill="currentColor" stroke="currentColor" points="23.6128 -0.8900 23.6128 -0.4900 0.0400 0.2000 0.0400 -0.2000"/>
</g>
<g transform="translate(39.5252, 5.8473)">
<polygon stroke-linejoin="round" stroke-linecap="round" stroke-width="0.0800" fill="currentColor" stroke="currentColor" points="23.6128 -0.8900 23.6128 -0.4900 0.0400 0.2000 0.0400 -0.2000"/>
</g>
<g transform="translate(70.4646, 6.5373)">
<path transform="scale(0.0040, -0.0040)" d="M218 136c55 0 108 -28 108 -89c0 -71 -55 -121 -102 -149c-35 -21 -75 -34 -116 -34c-55 0 -108 28 -108 89c0 71 55 121 102 149c35 21 75 34 116 34z" fill="currentColor"/>
</g>
<g transform="translate(71.7038, 6.0373)">
<rect x="-0.0650" y="-3.5000" width="0.1300" height="3.8139" ry="0.0400" fill="currentColor"/>
</g>
<g transform="translate(72.7913, 6.5373)">
<path transform="scale(0.0040, -0.0040)" d="M218 136c55 0 108 -28 108 -89c0 -71 -55 -121 -102 -149c-35 -21 -75 -34 -116 -34c-55 0 -108 28 -108 89c0 71 55 121 102 149c35 21 75 34 116 34z" fill="currentColor"/>
</g>
<g transform="translate(82.0979, 8.2273)">
<polygon stroke-linejoin="round" stroke-linecap="round" stroke-width="0.0800" fill="currentColor" stroke="currentColor" points="14.3062 -0.5100 14.3062 -0.1100 0.0400 0.2000 0.0400 -0.2000"/>
</g>
<g transform="translate(82.0979, 9.0373)">
<polygon stroke-linejoin="round" stroke-linecap="round" stroke-width="0.0800" fill="currentColor" stroke="currentColor" points="14.3062 -0.5100 14.3062 -0.1100 0.0400 0.2000 0.0400 -0.2000"/>
</g>
<g transform="translate(82.0979, 9.8473)">
<polygon stroke-linejoin="round" stroke-linecap="round" stroke-width="0.0800" fill="currentColor" stroke="currentColor" points="14.3062 -0.5100 14.3062 -0.1100 0.0400 0.2000 0.0400 -0.2000"/>
</g>
<g transform="translate(101.1672, 11.4465)">
<text font-family="serif" font-style="italic" font-size="1.7461" text-anchor="start" fill="currentColor">
<tspan>5</tspan>
</text>
</g>
<g transform="translate(96.3140, 10.8787)">
<line stroke-linejoin="round" stroke-linecap="round" stroke-width="0.1600" stroke="currentColor" x1="10.7940" y1="-0.0000" x2="10.7940" y2="-0.7000"/>
</g>
<g transform="translate(96.3140, 10.8787)">
<line stroke-linejoin="round" stroke-linecap="round" stroke-width="0.1600" stroke="currentColor" x1="-0.2000" y1="-0.0000" x2="-0.2000" y2="-0.7000"/>
</g>
<g transform="translate(96.3140, 10.8787)">
<line stroke-linejoin="round" stroke-linecap="round" stroke-width="0.1600" stroke="currentColor" x1="10.7940" y1="-0.0000" x2="6.3409" y2="-0.0000"/>
</g>
<g transform="translate(96.3140, 10.8787)">
<line stroke-linejoin="round" stroke-linecap="round" stroke-width="0.1600" stroke="currentColor" x1="-0.2000" y1="-0.0000" x2="4.4531" y2="-0.0000"/>
</g>
<g transform="translate(94.2832, 6.0373)">
<path stroke-width="0.0800" stroke-linejoin="round" stroke-linecap="round" stroke="currentColor" fill="currentColor" d="M0.8521 -1.2250C1.2686 -1.7346 2.0665 -1.7346 2.4830 -1.2250L2.4830 -1.2250C2.0665 -1.6146 1.2686 -1.6146 0.8521 -1.2250z"/>
</g>
<g transform="translate(92.2523, 6.0373)">
<path stroke-width="0.0800" stroke-linejoin="round" stroke-linecap="round" stroke="currentColor" fill="currentColor" d="M0.8521 -1.2250C1.2686 -1.7346 2.0665 -1.7346 2.4830 -1.2250L2.4830 -1.2250C2.0665 -1.6146 1.2686 -1.6146 0.8521 -1.2250z"/>
</g>
<g transform="translate(90.2214, 6.0373)">
<path stroke-width="0.0800" stroke-linejoin="round" stroke-linecap="round" stroke="currentColor" fill="currentColor" d="M0.8521 -1.2250C1.2686 -1.7346 2.0665 -1.7346 2.4830 -1.2250L2.4830 -1.2250C2.0665 -1.6146 1.2686 -1.6146 0.8521 -1.2250z"/>
</g>
<g transform="translate(88.1905, 6.0373)">
<path stroke-width="0.0800" stroke-linejoin="round" stroke-linecap="round" stroke="currentColor" fill="currentColor" d="M0.8521 -1.2250C1.2686 -1.7346 2.0665 -1.7346 2.4830 -1.2250L2.4830 -1.2250C2.0665 -1.6146 1.2686 -1.6146 0.8521 -1.2250z"/>
</g>
<g transform="translate(86.1596, 6.0373)">
<path stroke-width="0.0800" stroke-linejoin="round" stroke-linecap="round" stroke="currentColor" fill="currentColor" d="M0.8521 -1.2250C1.2686 -1.7346 2.0665 -1.7346 2.4830 -1.2250L2.4830 -1.2250C2.0665 -1.6146 1.2686 -1.6146 0.8521 -1.2250z"/>
</g>
<g transform="translate(82.0979, 6.0373)">
<path stroke-width="0.0800" stroke-linejoin="round" stroke-linecap="round" stroke="currentColor" fill="currentColor" d="M0.8521 -1.2250C1.2686 -1.7346 2.0665 -1.7346 2.4830 -1.2250L2.4830 -1.2250C2.0665 -1.6146 1.2686 -1.6146 0.8521 -1.2250z"/>
</g>
<g transform="translate(65.3746, 2.5373)">
<polygon stroke-linejoin="round" stroke-linecap="round" stroke-width="0.0800" fill="currentColor" stroke="currentColor" points="15.6608 -0.2000 15.6608 0.2000 0.0400 0.2000 0.0400 -0.2000"/>
</g>
<g transform="translate(65.3746, 3.3473)">
<polygon stroke-linejoin="round" stroke-linecap="round" stroke-width="0.0800" fill="currentColor" stroke="currentColor" points="15.6608 -0.2000 15.6608 0.2000 0.0400 0.2000 0.0400 -0.2000"/>
</g>
<g transform="translate(71.6388, 4.1573)">
<polygon stroke-linejoin="round" stroke-linecap="round" stroke-width="0.0800" fill="currentColor" stroke="currentColor" points="9.3966 -0.2000 9.3966 0.2000 0.0400 0.2000 0.0400 -0.2000"/>
</g>
<g transform="translate(87.8117, 11.6234)">
<text font-family="serif" font-style="italic" font-size="1.7461" text-anchor="start" fill="currentColor">
<tspan>7</tspan>
</text>
</g>
<g transform="translate(82.0979, 11.1873)">
<line stroke-linejoin="round" stroke-linecap="round" stroke-width="0.1600" stroke="currentColor" x1="12.5153" y1="-0.2676" x2="12.5153" y2="-0.9676"/>
</g>
<g transform="translate(82.0979, 11.1873)">
<line stroke-linejoin="round" stroke-linecap="round" stroke-width="0.1600" stroke="currentColor" x1="-0.2000" y1="0.0043" x2="-0.2000" y2="-0.6957"/>
</g>
<g transform="translate(82.0979, 11.1873)">
<line stroke-linejoin="round" stroke-linecap="round" stroke-width="0.1600" stroke="currentColor" x1="12.5153" y1="-0.2676" x2="7.2013" y2="-0.1540"/>
</g>
<g transform="translate(82.0979, 11.1873)">
<line stroke-linejoin="round" stroke-linecap="round" stroke-width="0.1600" stroke="currentColor" x1="-0.2000" y1="0.0043" x2="5.3140" y2="-0.1136"/>
</g>
<g transform="translate(79.7712, 6.0373)">
<path stroke-width="0.0800" stroke-linejoin="round" stroke-linecap="round" stroke="currentColor" fill="currentColor" d="M1.6392 -1.2250C1.9497 -1.6272 2.4682 -1.6272 2.7788 -1.2250L2.7788 -1.2250C2.4682 -1.5072 1.9497 -1.5072 1.6392 -1.2250z"/>
</g>
<g transform="translate(77.4446, 6.0373)">
<path stroke-width="0.0800" stroke-linejoin="round" stroke-linecap="round" stroke="currentColor" fill="currentColor" d="M0.8521 1.2250C1.3263 1.7875 2.3046 1.7875 2.7788 1.2250L2.7788 1.2250C2.3046 1.6675 1.3263 1.6675 0.8521 1.2250z"/>
</g>
<g transform="translate(75.1179, 6.0373)">
<path stroke-width="0.0800" stroke-linejoin="round" stroke-linecap="round" stroke="currentColor" fill="currentColor" d="M0.8521 1.2250C1.3263 1.7875 2.3046 1.7875 2.7788 1.2250L2.7788 1.2250C2.3046 1.6675 1.3263 1.6675 0.8521 1.2250z"/>
</g>
<g transform="translate(70.4646, 6.0373)">
<path stroke-width="0.0800" stroke-linejoin="round" stroke-linecap="round" stroke="currentColor" fill="currentColor" d="M0.8521 1.2250C1.3263 1.7875 2.3046 1.7875 2.7788 1.2250L2.7788 1.2250C2.3046 1.6675 1.3263 1.6675 0.8521 1.2250z"/>
</g>
<g transform="translate(75.9133, 1.7651)">
<text font-family="serif" font-style="italic" font-size="1.7461" text-anchor="start" fill="currentColor">
<tspan>5</tspan>
</text>
</g>
<g transform="translate(71.6388, 1.1973)">
<line stroke-linejoin="round" stroke-linecap="round" stroke-width="0.1600" stroke="currentColor" x1="9.6366" y1="0.0000" x2="9.6366" y2="0.7000"/>
</g>
<g transform="translate(71.6388, 1.1973)">
<line stroke-linejoin="round" stroke-linecap="round" stroke-width="0.1600" stroke="currentColor" x1="-0.2000" y1="-0.0000" x2="-0.2000" y2="0.7000"/>
</g>
<g transform="translate(71.6388, 1.1973)">
<line stroke-linejoin="round" stroke-linecap="round" stroke-width="0.1600" stroke="currentColor" x1="9.6366" y1="0.0000" x2="5.7622" y2="0.0000"/>
</g>
<g transform="translate(71.6388, 1.1973)">
<line stroke-linejoin="round" stroke-linecap="round" stroke-width="0.1600" stroke="currentColor" x1="-0.2000" y1="-0.0000" x2="3.8744" y2="0.0000"/>
</g>
<g transform="translate(67.3325, 6.0373)">
<path stroke-width="0.0800" stroke-linejoin="round" stroke-linecap="round" stroke="currentColor" fill="currentColor" d="M0.8521 1.2250C1.4639 1.8963 2.9725 1.8963 3.5842 1.2250L3.5842 1.2250C2.9725 1.7763 1.4639 1.7763 0.8521 1.2250z"/>
</g>
</svg>
