<svg xmlns="http://www.w3.org/2000/svg" xmlns:xlink="http://www.w3.org/1999/xlink" version="1.2" width="210.00mm" height="297.00mm" viewBox="0.0000 -0.0000 149.3770 211.2617">
<style type="text/css">
<![CDATA[
tspan { white-space: pre; }
]]>
</style>
<g transform="translate(10.6698, 8.5999)">
<text font-family="serif" font-size="2.1999" text-anchor="start" fill="currentColor">
<tspan>2</tspan>
</text>
</g>
<g transform="translate(10.6698, 25.1822)">
<rect x="77.4900" y="-0.1082" width="1.9513" height="0.2164" ry="0.1082" fill="currentColor"/>
</g>
<g transform="translate(10.6698, 25.1822)">
<rect x="5.6250" y="-0.1082" width="1.8010" height="0.2164" ry="0.1082" fill="currentColor"/>
</g>
<g transform="translate(10.6698, 24.1822)">
<line stroke-linejoin="round" stroke-linecap="round" stroke-width="0.1164" stroke="currentColor" x1="0.0582" y1="0" x2="127.9792" y2="0"/>
</g>
<g transform="translate(10.6698, 23.1822)">
<line stroke-linejoin="round" stroke-linecap="round" stroke-width="0.1164" stroke="currentColor" x1="0.0582" y1="0" x2="127.9792" y2="0"/>
</g>
<g transform="translate(10.6698, 22.1822)">
<line stroke-linejoin="round" stroke-linecap="round" stroke-width="0.1164" stroke="currentColor" x1="0.0582" y1="0" x2="127.9792" y2="0"/>
</g>
<g transform="translate(10.6698, 21.1822)">
<line stroke-linejoin="round" stroke-linecap="round" stroke-width="0.1164" stroke="currentColor" x1="0.0582" y1="0" x2="127.9792" y2="0"/>
</g>
<g transform="translate(10.6698, 20.1822)">
<line stroke-linejoin="round" stroke-linecap="round" stroke-width="0.1164" stroke="currentColor" x1="0.0582" y1="0" x2="127.9792" y2="0"/>
</g>
<g transform="translate(138.4860, 11.0412)">
<rect x="0.0000" y="103.6133" width="0.2212" height="18.5453" ry="0.0000" fill="currentColor"/>
</g>
<g transform="translate(138.4860, 11.0412)">
<rect x="0.0000" y="81.0098" width="0.2212" height="18.5453" ry="0.0000" fill="currentColor"/>
</g>
<g transform="translate(138.4860, 11.0412)">
<rect x="0.0000" y="58.4063" width="0.2212" height="18.5453" ry="0.0000" fill="currentColor"/>
</g>
<g transform="translate(138.4860, 11.0412)">
<rect x="0.0000" y="35.8027" width="0.2212" height="18.5453" ry="0.0000" fill="currentColor"/>
</g>
<g transform="translate(138.4860, 11.0412)">
<rect x="0.0000" y="13.1992" width="0.2212" height="18.5453" ry="0.0000" fill="currentColor"/>
</g>
<g transform="translate(138.4860, 135.1999)">
<rect x="0.0000" y="-2.0582" width="0.2212" height="4.0582" ry="0.0000" fill="currentColor"/>
</g>
<g transform="translate(10.6698, 47.7857)">
<rect x="68.9231" y="-0.1082" width="1.9513" height="0.2164" ry="0.1082" fill="currentColor"/>
</g>
<g transform="translate(10.6698, 47.7857)">
<rect x="48.4594" y="-0.1082" width="1.8010" height="0.2164" ry="0.1082" fill="currentColor"/>
</g>
<g transform="translate(10.6698, 46.7857)">
<line stroke-linejoin="round" stroke-linecap="round" stroke-width="0.1164" stroke="currentColor" x1="0.0582" y1="0" x2="127.9792" y2="0"/>
</g>
<g transform="translate(10.6698, 45.7857)">
<line stroke-linejoin="round" stroke-linecap="round" stroke-width="0.1164" stroke="currentColor" x1="0.0582" y1="0" x2="127.9792" y2="0"/>
</g>
<g transform="translate(10.6698, 44.7857)">
<line stroke-linejoin="round" stroke-linecap="round" stroke-width="0.1164" stroke="currentColor" x1="0.0582" y1="0" x2="127.9792" y2="0"/>
</g>
<g transform="translate(10.6698, 43.7857)">
<line stroke-linejoin="round" stroke-linecap="round" stroke-width="0.1164" stroke="currentColor" x1="0.0582" y1="0" x2="127.9792" y2="0"/>
</g>
<g transform="translate(10.6698, 42.7857)">
<line stroke-linejoin="round" stroke-linecap="round" stroke-width="0.1164" stroke="currentColor" x1="0.0582" y1="0" x2="127.9792" y2="0"/>
</g>
<g transform="translate(138.4860, 112.5963)">
<rect x="0.0000" y="-2.0582" width="0.2212" height="4.1164" ry="0.0000" fill="currentColor"/>
</g>
<g transform="translate(138.4860, 89.9928)">
<rect x="0.0000" y="-2.0582" width="0.2212" height="4.1164" ry="0.0000" fill="currentColor"/>
</g>
<g transform="translate(10.6698, 70.3893)">
<rect x="60.3562" y="-0.1082" width="1.9513" height="0.2164" ry="0.1082" fill="currentColor"/>
</g>
<g transform="translate(10.6698, 70.3893)">
<rect x="39.8925" y="-0.1082" width="1.8010" height="0.2164" ry="0.1082" fill="currentColor"/>
</g>
<g transform="translate(10.6698, 69.3893)">
<line stroke-linejoin="round" stroke-linecap="round" stroke-width="0.1164" stroke="currentColor" x1="0.0582" y1="0" x2="127.9792" y2="0"/>
</g>
<g transform="translate(10.6698, 68.3893)">
<line stroke-linejoin="round" stroke-linecap="round" stroke-width="0.1164" stroke="currentColor" x1="0.0582" y1="0" x2="127.9792" y2="0"/>
</g>
<g transform="translate(10.6698, 67.3893)">
<line stroke-linejoin="round" stroke-linecap="round" stroke-width="0.1164" stroke="currentColor" x1="0.0582" y1="0" x2="127.9792" y2="0"/>
</g>
<g transform="translate(10.6698, 66.3893)">
<line stroke-linejoin="round" stroke-linecap="round" stroke-width="0.1164" stroke="currentColor" x1="0.0582" y1="0" x2="127.9792" y2="0"/>
</g>
<g transform="translate(10.6698, 65.3893)">
<line stroke-linejoin="round" stroke-linecap="round" stroke-width="0.1164" stroke="currentColor" x1="0.0582" y1="0" x2="127.9792" y2="0"/>
</g>
<g transform="translate(138.4860, 67.3893)">
<rect x="0.0000" y="-2.0582" width="0.2212" height="4.1164" ry="0.0000" fill="currentColor"/>
</g>
<g transform="translate(138.4860, 44.7857)">
<rect x="0.0000" y="-2.0582" width="0.2212" height="4.1164" ry="0.0000" fill="currentColor"/>
</g>
<g transform="translate(10.6698, 92.9928)">
<rect x="105.4764" y="-0.1082" width="1.9513" height="0.2164" ry="0.1082" fill="currentColor"/>
</g>
<g transform="translate(10.6698, 92.9928)">
<rect x="31.3256" y="-0.1082" width="1.8010" height="0.2164" ry="0.1082" fill="currentColor"/>
</g>
<g transform="translate(10.6698, 91.9928)">
<line stroke-linejoin="round" stroke-linecap="round" stroke-width="0.1164" stroke="currentColor" x1="0.0582" y1="0" x2="127.9792" y2="0"/>
</g>
<g transform="translate(10.6698, 90.9928)">
<line stroke-linejoin="round" stroke-linecap="round" stroke-width="0.1164" stroke="currentColor" x1="0.0582" y1="0" x2="127.9792" y2="0"/>
</g>
<g transform="translate(10.6698, 89.9928)">
<line stroke-linejoin="round" stroke-linecap="round" stroke-width="0.1164" stroke="currentColor" x1="0.0582" y1="0" x2="127.9792" y2="0"/>
</g>
<g transform="translate(10.6698, 88.9928)">
<line stroke-linejoin="round" stroke-linecap="round" stroke-width="0.1164" stroke="currentColor" x1="0.0582" y1="0" x2="127.9792" y2="0"/>
</g>
<g transform="translate(10.6698, 87.9928)">
<line stroke-linejoin="round" stroke-linecap="round" stroke-width="0.1164" stroke="currentColor" x1="0.0582" y1="0" x2="127.9792" y2="0"/>
</g>
<g transform="translate(138.4860, 22.1822)">
<rect x="0.0000" y="-2.0000" width="0.2212" height="4.0582" ry="0.0000" fill="currentColor"/>
</g>
<g transform="translate(68.1076, 11.0412)">
<rect x="0.0000" y="103.6133" width="0.2212" height="18.5453" ry="0.0000" fill="currentColor"/>
</g>
<g transform="translate(68.1076, 11.0412)">
<rect x="0.0000" y="81.0098" width="0.2212" height="18.5453" ry="0.0000" fill="currentColor"/>
</g>
<g transform="translate(68.1076, 11.0412)">
<rect x="0.0000" y="58.4063" width="0.2212" height="18.5453" ry="0.0000" fill="currentColor"/>
</g>
<g transform="translate(68.1076, 11.0412)">
<rect x="0.0000" y="35.8027" width="0.2212" height="18.5453" ry="0.0000" fill="currentColor"/>
</g>
<g transform="translate(68.1076, 11.0412)">
<rect x="0.0000" y="13.1992" width="0.2212" height="18.5453" ry="0.0000" fill="currentColor"/>
</g>
<g transform="translate(10.6698, 115.5963)">
<rect x="94.5821" y="-0.1082" width="1.9513" height="0.2164" ry="0.1082" fill="currentColor"/>
</g>
<g transform="translate(10.6698, 115.5963)">
<rect x="22.7588" y="-0.1082" width="1.8010" height="0.2164" ry="0.1082" fill="currentColor"/>
</g>
<g transform="translate(10.6698, 114.5963)">
<line stroke-linejoin="round" stroke-linecap="round" stroke-width="0.1164" stroke="currentColor" x1="0.0582" y1="0" x2="127.9792" y2="0"/>
</g>
<g transform="translate(10.6698, 113.5963)">
<line stroke-linejoin="round" stroke-linecap="round" stroke-width="0.1164" stroke="currentColor" x1="0.0582" y1="0" x2="127.9792" y2="0"/>
</g>
<g transform="translate(10.6698, 112.5963)">
<line stroke-linejoin="round" stroke-linecap="round" stroke-width="0.1164" stroke="currentColor" x1="0.0582" y1="0" x2="127.9792" y2="0"/>
</g>
<g transform="translate(10.6698, 111.5963)">
<line stroke-linejoin="round" stroke-linecap="round" stroke-width="0.1164" stroke="currentColor" x1="0.0582" y1="0" x2="127.9792" y2="0"/>
</g>
<g transform="translate(10.6698, 110.5963)">
<line stroke-linejoin="round" stroke-linecap="round" stroke-width="0.1164" stroke="currentColor" x1="0.0582" y1="0" x2="127.9792" y2="0"/>
</g>
<g transform="translate(68.1076, 135.1999)">
<rect x="0.0000" y="-2.0582" width="0.2212" height="4.0582" ry="0.0000" fill="currentColor"/>
</g>
<g transform="translate(68.1076, 112.5963)">
<rect x="0.0000" y="-2.0582" width="0.2212" height="4.1164" ry="0.0000" fill="currentColor"/>
</g>
<g transform="translate(10.6698, 138.1999)">
<rect x="86.0569" y="-0.1082" width="1.9513" height="0.2164" ry="0.1082" fill="currentColor"/>
</g>
<g transform="translate(10.6698, 138.1999)">
<rect x="14.1919" y="-0.1082" width="1.8010" height="0.2164" ry="0.1082" fill="currentColor"/>
</g>
<g transform="translate(10.6698, 137.1999)">
<line stroke-linejoin="round" stroke-linecap="round" stroke-width="0.1164" stroke="currentColor" x1="0.0582" y1="0" x2="127.9792" y2="0"/>
</g>
<g transform="translate(10.6698, 136.1999)">
<line stroke-linejoin="round" stroke-linecap="round" stroke-width="0.1164" stroke="currentColor" x1="0.0582" y1="0" x2="127.9792" y2="0"/>
</g>
<g transform="translate(10.6698, 135.1999)">
<line stroke-linejoin="round" stroke-linecap="round" stroke-width="0.1164" stroke="currentColor" x1="0.0582" y1="0" x2="127.9792" y2="0"/>
</g>
<g transform="translate(10.6698, 134.1999)">
<line stroke-linejoin="round" stroke-linecap="round" stroke-width="0.1164" stroke="currentColor" x1="0.0582" y1="0" x2="127.9792" y2="0"/>
</g>
<g transform="translate(10.6698, 133.1999)">
<line stroke-linejoin="round" stroke-linecap="round" stroke-width="0.1164" stroke="currentColor" x1="0.0582" y1="0" x2="127.9792" y2="0"/>
</g>
<g transform="translate(68.1076, 89.9928)">
<rect x="0.0000" y="-2.0582" width="0.2212" height="4.1164" ry="0.0000" fill="currentColor"/>
</g>
<g transform="translate(68.1076, 67.3893)">
<rect x="0.0000" y="-2.0582" width="0.2212" height="4.1164" ry="0.0000" fill="currentColor"/>
</g>
<g transform="translate(68.1076, 44.7857)">
<rect x="0.0000" y="-2.0582" width="0.2212" height="4.1164" ry="0.0000" fill="currentColor"/>
</g>
<g transform="translate(68.1076, 22.1822)">
<rect x="0.0000" y="-2.0000" width="0.2212" height="4.0582" ry="0.0000" fill="currentColor"/>
</g>
<g transform="translate(10.5835, 78.6910)">
<rect x="0.0000" y="-58.5670" width="0.1863" height="117.1341" ry="0.0582" fill="currentColor"/>
</g>
<g transform="translate(11.4698, 23.1822)">
<path transform="scale(0.0040, -0.0040)" d="M647 2c0 -114 -75 -214 -180 -248c3 -33 4 -66 4 -99c0 -21 0 -41 -1 -62c-7 -122 -92 -229 -211 -229c-108 0 -196 88 -196 197c0 58 54 103 113 103c54 0 95 -47 95 -103c0 -52 -43 -95 -95 -95c-9 0 -18 1 -27 4c25 -37 66 -61 113 -61c93 0 156 91 162 191
c1 19 2 38 2 57c0 29 -1 58 -3 87c-5 -1 -44 -8 -88 -8c-194 0 -333 181 -333 376c0 177 129 308 244 443c-34 103 -55 171 -55 347c0 114 54 221 147 288c8 6 18 5 25 -1c68 -79 135 -242 135 -356c0 -142 -84 -255 -176 -364c21 -68 40 -136 57 -205c1 0 5 1 10 1
c157 0 258 -129 258 -263zM463 -201c64 24 110 88 110 161c0 88 -64 175 -167 188c28 -133 49 -269 57 -349zM77 25c0 -144 141 -243 261 -243c1 0 46 -1 81 5c-7 66 -27 208 -60 362c-79 -8 -124 -60 -124 -118c0 -43 25 -88 80 -120c5 -5 7 -11 7 -17
c0 -12 -10 -23 -23 -23c-16 0 -128 62 -128 188c0 89 60 177 163 200c-14 57 -30 113 -47 169c-105 -122 -210 -243 -210 -403zM242 784c0 -39 10 -95 39 -188c78 97 142 199 142 324c0 33 0 60 -20 118c-99 -46 -161 -145 -161 -254z" fill="currentColor"/>
</g>
<g transform="translate(11.4698, 45.7857)">
<path transform="scale(0.0040, -0.0040)" d="M647 2c0 -114 -75 -214 -180 -248c3 -33 4 -66 4 -99c0 -21 0 -41 -1 -62c-7 -122 -92 -229 -211 -229c-108 0 -196 88 -196 197c0 58 54 103 113 103c54 0 95 -47 95 -103c0 -52 -43 -95 -95 -95c-9 0 -18 1 -27 4c25 -37 66 -61 113 -61c93 0 156 91 162 191
c1 19 2 38 2 57c0 29 -1 58 -3 87c-5 -1 -44 -8 -88 -8c-194 0 -333 181 -333 376c0 177 129 308 244 443c-34 103 -55 171 -55 347c0 114 54 221 147 288c8 6 18 5 25 -1c68 -79 135 -242 135 -356c0 -142 -84 -255 -176 -364c21 -68 40 -136 57 -205c1 0 5 1 10 1
c157 0 258 -129 258 -263zM463 -201c64 24 110 88 110 161c0 88 -64 175 -167 188c28 -133 49 -269 57 -349zM77 25c0 -144 141 -243 261 -243c1 0 46 -1 81 5c-7 66 -27 208 -60 362c-79 -8 -124 -60 -124 -118c0 -43 25 -88 80 -120c5 -5 7 -11 7 -17
c0 -12 -10 -23 -23 -23c-16 0 -128 62 -128 188c0 89 60 177 163 200c-14 57 -30 113 -47 169c-105 -122 -210 -243 -210 -403zM242 784c0 -39 10 -95 39 -188c78 97 142 199 142 324c0 33 0 60 -20 118c-99 -46 -161 -145 -161 -254z" fill="currentColor"/>
</g>
<g transform="translate(11.4698, 68.3893)">
<path transform="scale(0.0040, -0.0040)" d="M647 2c0 -114 -75 -214 -180 -248c3 -33 4 -66 4 -99c0 -21 0 -41 -1 -62c-7 -122 -92 -229 -211 -229c-108 0 -196 88 -196 197c0 58 54 103 113 103c54 0 95 -47 95 -103c0 -52 -43 -95 -95 -95c-9 0 -18 1 -27 4c25 -37 66 -61 113 -61c93 0 156 91 162 191
c1 19 2 38 2 57c0 29 -1 58 -3 87c-5 -1 -44 -8 -88 -8c-194 0 -333 181 -333 376c0 177 129 308 244 443c-34 103 -55 171 -55 347c0 114 54 221 147 288c8 6 18 5 25 -1c68 -79 135 -242 135 -356c0 -142 -84 -255 -176 -364c21 -68 40 -136 57 -205c1 0 5 1 10 1
c157 0 258 -129 258 -263zM463 -201c64 24 110 88 110 161c0 88 -64 175 -167 188c28 -133 49 -269 57 -349zM77 25c0 -144 141 -243 261 -243c1 0 46 -1 81 5c-7 66 -27 208 -60 362c-79 -8 -124 -60 -124 -118c0 -43 25 -88 80 -120c5 -5 7 -11 7 -17
c0 -12 -10 -23 -23 -23c-16 0 -128 62 -128 188c0 89 60 177 163 200c-14 57 -30 113 -47 169c-105 -122 -210 -243 -210 -403zM242 784c0 -39 10 -95 39 -188c78 97 142 199 142 324c0 33 0 60 -20 118c-99 -46 -161 -145 -161 -254z" fill="currentColor"/>
</g>
<g transform="translate(11.4698, 90.9928)">
<path transform="scale(0.0040, -0.0040)" d="M647 2c0 -114 -75 -214 -180 -248c3 -33 4 -66 4 -99c0 -21 0 -41 -1 -62c-7 -122 -92 -229 -211 -229c-108 0 -196 88 -196 197c0 58 54 103 113 103c54 0 95 -47 95 -103c0 -52 -43 -95 -95 -95c-9 0 -18 1 -27 4c25 -37 66 -61 113 -61c93 0 156 91 162 191
c1 19 2 38 2 57c0 29 -1 58 -3 87c-5 -1 -44 -8 -88 -8c-194 0 -333 181 -333 376c0 177 129 308 244 443c-34 103 -55 171 -55 347c0 114 54 221 147 288c8 6 18 5 25 -1c68 -79 135 -242 135 -356c0 -142 -84 -255 -176 -364c21 -68 40 -136 57 -205c1 0 5 1 10 1
c157 0 258 -129 258 -263zM463 -201c64 24 110 88 110 161c0 88 -64 175 -167 188c28 -133 49 -269 57 -349zM77 25c0 -144 141 -243 261 -243c1 0 46 -1 81 5c-7 66 -27 208 -60 362c-79 -8 -124 -60 -124 -118c0 -43 25 -88 80 -120c5 -5 7 -11 7 -17
c0 -12 -10 -23 -23 -23c-16 0 -128 62 -128 188c0 89 60 177 163 200c-14 57 -30 113 -47 169c-105 -122 -210 -243 -210 -403zM242 784c0 -39 10 -95 39 -188c78 97 142 199 142 324c0 33 0 60 -20 118c-99 -46 -161 -145 -161 -254z" fill="currentColor"/>
</g>
<g transform="translate(11.4698, 113.5963)">
<path transform="scale(0.0040, -0.0040)" d="M647 2c0 -114 -75 -214 -180 -248c3 -33 4 -66 4 -99c0 -21 0 -41 -1 -62c-7 -122 -92 -229 -211 -229c-108 0 -196 88 -196 197c0 58 54 103 113 103c54 0 95 -47 95 -103c0 -52 -43 -95 -95 -95c-9 0 -18 1 -27 4c25 -37 66 -61 113 -61c93 0 156 91 162 191
c1 19 2 38 2 57c0 29 -1 58 -3 87c-5 -1 -44 -8 -88 -8c-194 0 -333 181 -333 376c0 177 129 308 244 443c-34 103 -55 171 -55 347c0 114 54 221 147 288c8 6 18 5 25 -1c68 -79 135 -242 135 -356c0 -142 -84 -255 -176 -364c21 -68 40 -136 57 -205c1 0 5 1 10 1
c157 0 258 -129 258 -263zM463 -201c64 24 110 88 110 161c0 88 -64 175 -167 188c28 -133 49 -269 57 -349zM77 25c0 -144 141 -243 261 -243c1 0 46 -1 81 5c-7 66 -27 208 -60 362c-79 -8 -124 -60 -124 -118c0 -43 25 -88 80 -120c5 -5 7 -11 7 -17
c0 -12 -10 -23 -23 -23c-16 0 -128 62 -128 188c0 89 60 177 163 200c-14 57 -30 113 -47 169c-105 -122 -210 -243 -210 -403zM242 784c0 -39 10 -95 39 -188c78 97 142 199 142 324c0 33 0 60 -20 118c-99 -46 -161 -145 -161 -254z" fill="currentColor"/>
</g>
<g transform="translate(11.4698, 136.1999)">
<path transform="scale(0.0040, -0.0040)" d="M647 2c0 -114 -75 -214 -180 -248c3 -33 4 -66 4 -99c0 -21 0 -41 -1 -62c-7 -122 -92 -229 -211 -229c-108 0 -196 88 -196 197c0 58 54 103 113 103c54 0 95 -47 95 -103c0 -52 -43 -95 -95 -95c-9 0 -18 1 -27 4c25 -37 66 -61 113 -61c93 0 156 91 162 191
c1 19 2 38 2 57c0 29 -1 58 -3 87c-5 -1 -44 -8 -88 -8c-194 0 -333 181 -333 376c0 177 129 308 244 443c-34 103 -55 171 -55 347c0 114 54 221 147 288c8 6 18 5 25 -1c68 -79 135 -242 135 -356c0 -142 -84 -255 -176 -364c21 -68 40 -136 57 -205c1 0 5 1 10 1
c157 0 258 -129 258 -263zM463 -201c64 24 110 88 110 161c0 88 -64 175 -167 188c28 -133 49 -269 57 -349zM77 25c0 -144 141 -243 261 -243c1 0 46 -1 81 5c-7 66 -27 208 -60 362c-79 -8 -124 -60 -124 -118c0 -43 25 -88 80 -120c5 -5 7 -11 7 -17
c0 -12 -10 -23 -23 -23c-16 0 -128 62 -128 188c0 89 60 177 163 200c-14 57 -30 113 -47 169c-105 -122 -210 -243 -210 -403zM242 784c0 -39 10 -95 39 -188c78 97 142 199 142 324c0 33 0 60 -20 118c-99 -46 -161 -145 -161 -254z" fill="currentColor"/>
</g>
<g transform="translate(16.4698, 25.1822)">
<path transform="scale(0.0040, -0.0040)" d="M212 138c68 0 113 -38 113 -95c0 -90 -109 -181 -212 -181c-68 0 -113 38 -113 95c0 90 109 181 212 181z" fill="currentColor"/>
</g>
<g transform="translate(16.4698, 28.9593)">
<rect x="-0.3164" y="-0.1164" width="1.6145" height="0.1164" ry="0.0000" fill="currentColor"/>
</g>
<g transform="translate(16.4698, 26.9691)">
<rect x="-0.3164" y="-0.1164" width="1.6145" height="0.1164" ry="0.0000" fill="currentColor"/>
</g>
<g transform="translate(16.1534, 28.1681)">
<rect x="0" y="-1.1990" width="0.1164" height="1.8738" ry="0.0000" fill="currentColor"/>
</g>
<g transform="translate(17.6514, 28.1681)">
<rect x="0" y="-1.1990" width="0.1164" height="1.8738" ry="0.0000" fill="currentColor"/>
</g>
<g transform="translate(16.4698, 28.1681)">
<text font-family="serif" font-size="2.1999" text-anchor="start" fill="currentColor">
<tspan>γ</tspan>
</text>
</g>
<g transform="translate(16.4698, 17.1240)">
<text font-family="serif" font-size="2.1999" text-anchor="start" fill="currentColor">
<tspan>NumberedPitchClass(1)</tspan>
</text>
</g>
<g transform="translate(16.4698, 47.2857)">
<path transform="scale(0.0040, -0.0040)" d="M212 138c68 0 113 -38 113 -95c0 -90 -109 -181 -212 -181c-68 0 -113 38 -113 95c0 90 109 181 212 181z" fill="currentColor"/>
</g>
<g transform="translate(16.4698, 50.6352)">
<rect x="-0.3164" y="-0.1164" width="1.6145" height="0.1164" ry="0.0000" fill="currentColor"/>
</g>
<g transform="translate(16.4698, 48.6450)">
<rect x="-0.3164" y="-0.1164" width="1.6145" height="0.1164" ry="0.0000" fill="currentColor"/>
</g>
<g transform="translate(16.1534, 49.8440)">
<rect x="0" y="-1.1990" width="0.1164" height="1.8738" ry="0.0000" fill="currentColor"/>
</g>
<g transform="translate(17.6514, 49.8440)">
<rect x="0" y="-1.1990" width="0.1164" height="1.8738" ry="0.0000" fill="currentColor"/>
</g>
<g transform="translate(16.4698, 49.8440)">
<text font-family="serif" font-size="2.1999" text-anchor="start" fill="currentColor">
<tspan>γ</tspan>
</text>
</g>
<g transform="translate(16.4698, 39.7275)">
<text font-family="serif" font-size="2.1999" text-anchor="start" fill="currentColor">
<tspan>NumberedPitchClass(2)</tspan>
</text>
</g>
<g transform="translate(16.4698, 69.3893)">
<path transform="scale(0.0040, -0.0040)" d="M212 138c68 0 113 -38 113 -95c0 -90 -109 -181 -212 -181c-68 0 -113 38 -113 95c0 90 109 181 212 181z" fill="currentColor"/>
</g>
<g transform="translate(16.4698, 73.2387)">
<rect x="-0.3164" y="-0.1164" width="1.6145" height="0.1164" ry="0.0000" fill="currentColor"/>
</g>
<g transform="translate(16.4698, 71.2485)">
<rect x="-0.3164" y="-0.1164" width="1.6145" height="0.1164" ry="0.0000" fill="currentColor"/>
</g>
<g transform="translate(16.1534, 72.4475)">
<rect x="0" y="-1.1990" width="0.1164" height="1.8738" ry="0.0000" fill="currentColor"/>
</g>
<g transform="translate(17.6514, 72.4475)">
<rect x="0" y="-1.1990" width="0.1164" height="1.8738" ry="0.0000" fill="currentColor"/>
</g>
<g transform="translate(16.4698, 72.4475)">
<text font-family="serif" font-size="2.1999" text-anchor="start" fill="currentColor">
<tspan>γ</tspan>
</text>
</g>
<g transform="translate(16.4698, 62.3311)">
<text font-family="serif" font-size="2.1999" text-anchor="start" fill="currentColor">
<tspan>NumberedPitchClass(4)</tspan>
</text>
</g>
<g transform="translate(16.4698, 91.4928)">
<path transform="scale(0.0040, -0.0040)" d="M212 138c68 0 113 -38 113 -95c0 -90 -109 -181 -212 -181c-68 0 -113 38 -113 95c0 90 109 181 212 181z" fill="currentColor"/>
</g>
<g transform="translate(16.4698, 95.8422)">
<rect x="-0.3164" y="-0.1164" width="1.6145" height="0.1164" ry="0.0000" fill="currentColor"/>
</g>
<g transform="translate(16.4698, 93.8520)">
<rect x="-0.3164" y="-0.1164" width="1.6145" height="0.1164" ry="0.0000" fill="currentColor"/>
</g>
<g transform="translate(16.1534, 95.0510)">
<rect x="0" y="-1.1990" width="0.1164" height="1.8738" ry="0.0000" fill="currentColor"/>
</g>
<g transform="translate(17.6514, 95.0510)">
<rect x="0" y="-1.1990" width="0.1164" height="1.8738" ry="0.0000" fill="currentColor"/>
</g>
<g transform="translate(16.4698, 95.0510)">
<text font-family="serif" font-size="2.1999" text-anchor="start" fill="currentColor">
<tspan>γ</tspan>
</text>
</g>
<g transform="translate(16.4698, 84.9346)">
<text font-family="serif" font-size="2.1999" text-anchor="start" fill="currentColor">
<tspan>NumberedPitchClass(6)</tspan>
</text>
</g>
<g transform="translate(16.4698, 113.5963)">
<path transform="scale(0.0040, -0.0040)" d="M212 138c68 0 113 -38 113 -95c0 -90 -109 -181 -212 -181c-68 0 -113 38 -113 95c0 90 109 181 212 181z" fill="currentColor"/>
</g>
<g transform="translate(16.4698, 118.4458)">
<rect x="-0.3164" y="-0.1164" width="1.6145" height="0.1164" ry="0.0000" fill="currentColor"/>
</g>
<g transform="translate(16.4698, 116.4556)">
<rect x="-0.3164" y="-0.1164" width="1.6145" height="0.1164" ry="0.0000" fill="currentColor"/>
</g>
<g transform="translate(16.1534, 117.6546)">
<rect x="0" y="-1.1990" width="0.1164" height="1.8738" ry="0.0000" fill="currentColor"/>
</g>
<g transform="translate(17.6514, 117.6546)">
<rect x="0" y="-1.1990" width="0.1164" height="1.8738" ry="0.0000" fill="currentColor"/>
</g>
<g transform="translate(16.4698, 117.6546)">
<text font-family="serif" font-size="2.1999" text-anchor="start" fill="currentColor">
<tspan>γ</tspan>
</text>
</g>
<g transform="translate(16.4698, 107.5381)">
<text font-family="serif" font-size="2.1999" text-anchor="start" fill="currentColor">
<tspan>NumberedPitchClass(7)</tspan>
</text>
</g>
<g transform="translate(16.4698, 136.6999)">
<path transform="scale(0.0040, -0.0040)" d="M212 138c68 0 113 -38 113 -95c0 -90 -109 -181 -212 -181c-68 0 -113 38 -113 95c0 90 109 181 212 181z" fill="currentColor"/>
</g>
<g transform="translate(16.4698, 141.0493)">
<rect x="-0.3164" y="-0.1164" width="1.6145" height="0.1164" ry="0.0000" fill="currentColor"/>
</g>
<g transform="translate(16.4698, 139.0591)">
<rect x="-0.3164" y="-0.1164" width="1.6145" height="0.1164" ry="0.0000" fill="currentColor"/>
</g>
<g transform="translate(16.1534, 140.2581)">
<rect x="0" y="-1.1990" width="0.1164" height="1.8738" ry="0.0000" fill="currentColor"/>
</g>
<g transform="translate(17.6514, 140.2581)">
<rect x="0" y="-1.1990" width="0.1164" height="1.8738" ry="0.0000" fill="currentColor"/>
</g>
<g transform="translate(16.4698, 140.2581)">
<text font-family="serif" font-size="2.1999" text-anchor="start" fill="currentColor">
<tspan>γ</tspan>
</text>
</g>
<g transform="translate(16.4698, 130.1417)">
<text font-family="serif" font-size="2.1999" text-anchor="start" fill="currentColor">
<tspan>NumberedPitchClass(5)</tspan>
</text>
</g>
<g transform="translate(15.0198, 25.1822)">
<path transform="scale(0.0040, -0.0040)" d="M0 116c0 10 6 19 16 23l40 15v154c0 12 9 21 21 21s21 -9 21 -21v-138l79 30v154c0 12 9 21 21 21s21 -9 21 -21v-138l22 8c3 1 6 2 9 2c13 0 25 -11 25 -25v-54c0 -10 -6 -20 -16 -24l-40 -15v-155l22 9c3 1 6 1 9 1c13 0 25 -11 25 -25v-54c0 -10 -6 -19 -16 -23
l-40 -15v-154c0 -12 -9 -21 -21 -21s-21 9 -21 21v138l-79 -30v-154c0 -12 -9 -21 -21 -21s-21 9 -21 21v138l-22 -8c-3 -1 -6 -2 -9 -2c-13 0 -25 11 -25 25v54c0 10 6 20 16 24l40 15v155l-22 -9c-3 -1 -6 -1 -9 -1c-13 0 -25 11 -25 25v54zM177 92l-79 -30v-154l79 30
v154z" fill="currentColor"/>
</g>
<g transform="translate(15.0198, 91.4928)">
<path transform="scale(0.0040, -0.0040)" d="M0 116c0 10 6 19 16 23l40 15v154c0 12 9 21 21 21s21 -9 21 -21v-138l79 30v154c0 12 9 21 21 21s21 -9 21 -21v-138l22 8c3 1 6 2 9 2c13 0 25 -11 25 -25v-54c0 -10 -6 -20 -16 -24l-40 -15v-155l22 9c3 1 6 1 9 1c13 0 25 -11 25 -25v-54c0 -10 -6 -19 -16 -23
l-40 -15v-154c0 -12 -9 -21 -21 -21s-21 9 -21 21v138l-79 -30v-154c0 -12 -9 -21 -21 -21s-21 9 -21 21v138l-22 -8c-3 -1 -6 -2 -9 -2c-13 0 -25 11 -25 25v54c0 10 6 20 16 24l40 15v155l-22 -9c-3 -1 -6 -1 -9 -1c-13 0 -25 11 -25 25v54zM177 92l-79 -30v-154l79 30
v154z" fill="currentColor"/>
</g>
<g transform="translate(25.0367, 24.6822)">
<path transform="scale(0.0040, -0.0040)" d="M212 138c68 0 113 -38 113 -95c0 -90 -109 -181 -212 -181c-68 0 -113 38 -113 95c0 90 109 181 212 181z" fill="currentColor"/>
</g>
<g transform="translate(25.0367, 15.0147)">
<text font-family="serif" font-size="2.1999" text-anchor="start" fill="currentColor">
<tspan>NumberedPitchClass(2)</tspan>
</text>
</g>
<g transform="translate(25.0367, 46.7857)">
<path transform="scale(0.0040, -0.0040)" d="M212 138c68 0 113 -38 113 -95c0 -90 -109 -181 -212 -181c-68 0 -113 38 -113 95c0 90 109 181 212 181z" fill="currentColor"/>
</g>
<g transform="translate(25.0367, 37.6182)">
<text font-family="serif" font-size="2.1999" text-anchor="start" fill="currentColor">
<tspan>NumberedPitchClass(4)</tspan>
</text>
</g>
<g transform="translate(25.0367, 68.8893)">
<path transform="scale(0.0040, -0.0040)" d="M212 138c68 0 113 -38 113 -95c0 -90 -109 -181 -212 -181c-68 0 -113 38 -113 95c0 90 109 181 212 181z" fill="currentColor"/>
</g>
<g transform="translate(25.0367, 60.2217)">
<text font-family="serif" font-size="2.1999" text-anchor="start" fill="currentColor">
<tspan>NumberedPitchClass(6)</tspan>
</text>
</g>
<g transform="translate(25.0367, 90.9928)">
<path transform="scale(0.0040, -0.0040)" d="M212 138c68 0 113 -38 113 -95c0 -90 -109 -181 -212 -181c-68 0 -113 38 -113 95c0 90 109 181 212 181z" fill="currentColor"/>
</g>
<g transform="translate(25.0367, 82.8253)">
<text font-family="serif" font-size="2.1999" text-anchor="start" fill="currentColor">
<tspan>NumberedPitchClass(7)</tspan>
</text>
</g>
<g transform="translate(25.0367, 114.0963)">
<path transform="scale(0.0040, -0.0040)" d="M212 138c68 0 113 -38 113 -95c0 -90 -109 -181 -212 -181c-68 0 -113 38 -113 95c0 90 109 181 212 181z" fill="currentColor"/>
</g>
<g transform="translate(25.0367, 105.4288)">
<text font-family="serif" font-size="2.1999" text-anchor="start" fill="currentColor">
<tspan>NumberedPitchClass(5)</tspan>
</text>
</g>
<g transform="translate(25.0367, 138.1999)">
<path transform="scale(0.0040, -0.0040)" d="M212 138c68 0 113 -38 113 -95c0 -90 -109 -181 -212 -181c-68 0 -113 38 -113 95c0 90 109 181 212 181z" fill="currentColor"/>
</g>
<g transform="translate(25.0367, 128.0323)">
<text font-family="serif" font-size="2.1999" text-anchor="start" fill="currentColor">
<tspan>NumberedPitchClass(1)</tspan>
</text>
</g>
<g transform="translate(23.5867, 68.8893)">
<path transform="scale(0.0040, -0.0040)" d="M0 116c0 10 6 19 16 23l40 15v154c0 12 9 21 21 21s21 -9 21 -21v-138l79 30v154c0 12 9 21 21 21s21 -9 21 -21v-138l22 8c3 1 6 2 9 2c13 0 25 -11 25 -25v-54c0 -10 -6 -20 -16 -24l-40 -15v-155l22 9c3 1 6 1 9 1c13 0 25 -11 25 -25v-54c0 -10 -6 -19 -16 -23
l-40 -15v-154c0 -12 -9 -21 -21 -21s-21 9 -21 21v138l-79 -30v-154c0 -12 -9 -21 -21 -21s-21 9 -21 21v138l-22 -8c-3 -1 -6 -2 -9 -2c-13 0 -25 11 -25 25v54c0 10 6 20 16 24l40 15v155l-22 -9c-3 -1 -6 -1 -9 -1c-13 0 -25 11 -25 25v54zM177 92l-79 -30v-154l79 30
v154z" fill="currentColor"/>
</g>
<g transform="translate(23.5867, 138.1999)">
<path transform="scale(0.0040, -0.0040)" d="M0 116c0 10 6 19 16 23l40 15v154c0 12 9 21 21 21s21 -9 21 -21v-138l79 30v154c0 12 9 21 21 21s21 -9 21 -21v-138l22 8c3 1 6 2 9 2c13 0 25 -11 25 -25v-54c0 -10 -6 -20 -16 -24l-40 -15v-155l22 9c3 1 6 1 9 1c13 0 25 -11 25 -25v-54c0 -10 -6 -19 -16 -23
l-40 -15v-154c0 -12 -9 -21 -21 -21s-21 9 -21 21v138l-79 -30v-154c0 -12 -9 -21 -21 -21s-21 9 -21 21v138l-22 -8c-3 -1 -6 -2 -9 -2c-13 0 -25 11 -25 25v54c0 10 6 20 16 24l40 15v155l-22 -9c-3 -1 -6 -1 -9 -1c-13 0 -25 11 -25 25v54zM177 92l-79 -30v-154l79 30
v154z" fill="currentColor"/>
</g>
<g transform="translate(33.6035, 24.1822)">
<path transform="scale(0.0040, -0.0040)" d="M212 138c68 0 113 -38 113 -95c0 -90 -109 -181 -212 -181c-68 0 -113 38 -113 95c0 90 109 181 212 181z" fill="currentColor"/>
</g>
<g transform="translate(33.6035, 12.7513)">
<text font-family="serif" font-size="2.1999" text-anchor="start" fill="currentColor">
<tspan>NumberedPitchClass(4)</tspan>
</text>
</g>
<g transform="translate(33.6035, 46.2857)">
<path transform="scale(0.0040, -0.0040)" d="M212 138c68 0 113 -38 113 -95c0 -90 -109 -181 -212 -181c-68 0 -113 38 -113 95c0 90 109 181 212 181z" fill="currentColor"/>
</g>
<g transform="translate(33.6035, 35.3548)">
<text font-family="serif" font-size="2.1999" text-anchor="start" fill="currentColor">
<tspan>NumberedPitchClass(6)</tspan>
</text>
</g>
<g transform="translate(33.6035, 68.3893)">
<path transform="scale(0.0040, -0.0040)" d="M212 138c68 0 113 -38 113 -95c0 -90 -109 -181 -212 -181c-68 0 -113 38 -113 95c0 90 109 181 212 181z" fill="currentColor"/>
</g>
<g transform="translate(33.6035, 57.9583)">
<text font-family="serif" font-size="2.1999" text-anchor="start" fill="currentColor">
<tspan>NumberedPitchClass(7)</tspan>
</text>
</g>
<g transform="translate(33.6035, 91.4928)">
<path transform="scale(0.0040, -0.0040)" d="M212 138c68 0 113 -38 113 -95c0 -90 -109 -181 -212 -181c-68 0 -113 38 -113 95c0 90 109 181 212 181z" fill="currentColor"/>
</g>
<g transform="translate(33.6035, 80.5619)">
<text font-family="serif" font-size="2.1999" text-anchor="start" fill="currentColor">
<tspan>NumberedPitchClass(5)</tspan>
</text>
</g>
<g transform="translate(33.6035, 115.5963)">
<path transform="scale(0.0040, -0.0040)" d="M212 138c68 0 113 -38 113 -95c0 -90 -109 -181 -212 -181c-68 0 -113 38 -113 95c0 90 109 181 212 181z" fill="currentColor"/>
</g>
<g transform="translate(33.6035, 103.1654)">
<text font-family="serif" font-size="2.1999" text-anchor="start" fill="currentColor">
<tspan>NumberedPitchClass(1)</tspan>
</text>
</g>
<g transform="translate(33.6035, 137.6999)">
<path transform="scale(0.0040, -0.0040)" d="M212 138c68 0 113 -38 113 -95c0 -90 -109 -181 -212 -181c-68 0 -113 38 -113 95c0 90 109 181 212 181z" fill="currentColor"/>
</g>
<g transform="translate(33.6035, 125.7689)">
<text font-family="serif" font-size="2.1999" text-anchor="start" fill="currentColor">
<tspan>NumberedPitchClass(2)</tspan>
</text>
</g>
<g transform="translate(32.1535, 46.2857)">
<path transform="scale(0.0040, -0.0040)" d="M0 116c0 10 6 19 16 23l40 15v154c0 12 9 21 21 21s21 -9 21 -21v-138l79 30v154c0 12 9 21 21 21s21 -9 21 -21v-138l22 8c3 1 6 2 9 2c13 0 25 -11 25 -25v-54c0 -10 -6 -20 -16 -24l-40 -15v-155l22 9c3 1 6 1 9 1c13 0 25 -11 25 -25v-54c0 -10 -6 -19 -16 -23
l-40 -15v-154c0 -12 -9 -21 -21 -21s-21 9 -21 21v138l-79 -30v-154c0 -12 -9 -21 -21 -21s-21 9 -21 21v138l-22 -8c-3 -1 -6 -2 -9 -2c-13 0 -25 11 -25 25v54c0 10 6 20 16 24l40 15v155l-22 -9c-3 -1 -6 -1 -9 -1c-13 0 -25 11 -25 25v54zM177 92l-79 -30v-154l79 30
v154z" fill="currentColor"/>
</g>
<g transform="translate(32.5693, 91.4928)">
<path transform="scale(0.0040, -0.0040)" d="M-7 375c8 5 17 7 26 7s17 -2 25 -7l-2 -192l102 23h4c10 0 19 -8 19 -18l7 -563c-8 -5 -17 -7 -26 -7s-18 2 -26 7l3 192l-102 -23h-4c-10 0 -19 8 -19 18zM129 110l-88 -19l-3 -201l88 19z" fill="currentColor"/>
</g>
<g transform="translate(32.1535, 115.5963)">
<path transform="scale(0.0040, -0.0040)" d="M0 116c0 10 6 19 16 23l40 15v154c0 12 9 21 21 21s21 -9 21 -21v-138l79 30v154c0 12 9 21 21 21s21 -9 21 -21v-138l22 8c3 1 6 2 9 2c13 0 25 -11 25 -25v-54c0 -10 -6 -20 -16 -24l-40 -15v-155l22 9c3 1 6 1 9 1c13 0 25 -11 25 -25v-54c0 -10 -6 -19 -16 -23
l-40 -15v-154c0 -12 -9 -21 -21 -21s-21 9 -21 21v138l-79 -30v-154c0 -12 -9 -21 -21 -21s-21 9 -21 21v138l-22 -8c-3 -1 -6 -2 -9 -2c-13 0 -25 11 -25 25v54c0 10 6 20 16 24l40 15v155l-22 -9c-3 -1 -6 -1 -9 -1c-13 0 -25 11 -25 25v54zM177 92l-79 -30v-154l79 30
v154z" fill="currentColor"/>
</g>
<g transform="translate(42.1704, 23.6822)">
<path transform="scale(0.0040, -0.0040)" d="M212 138c68 0 113 -38 113 -95c0 -90 -109 -181 -212 -181c-68 0 -113 38 -113 95c0 90 109 181 212 181z" fill="currentColor"/>
</g>
<g transform="translate(42.1704, 17.1240)">
<text font-family="serif" font-size="2.1999" text-anchor="start" fill="currentColor">
<tspan>NumberedPitchClass(6)</tspan>
</text>
</g>
<g transform="translate(42.1704, 45.7857)">
<path transform="scale(0.0040, -0.0040)" d="M212 138c68 0 113 -38 113 -95c0 -90 -109 -181 -212 -181c-68 0 -113 38 -113 95c0 90 109 181 212 181z" fill="currentColor"/>
</g>
<g transform="translate(42.1704, 39.7275)">
<text font-family="serif" font-size="2.1999" text-anchor="start" fill="currentColor">
<tspan>NumberedPitchClass(7)</tspan>
</text>
</g>
<g transform="translate(42.1704, 68.8893)">
<path transform="scale(0.0040, -0.0040)" d="M212 138c68 0 113 -38 113 -95c0 -90 -109 -181 -212 -181c-68 0 -113 38 -113 95c0 90 109 181 212 181z" fill="currentColor"/>
</g>
<g transform="translate(42.1704, 62.3311)">
<text font-family="serif" font-size="2.1999" text-anchor="start" fill="currentColor">
<tspan>NumberedPitchClass(5)</tspan>
</text>
</g>
<g transform="translate(42.1704, 92.9928)">
<path transform="scale(0.0040, -0.0040)" d="M212 138c68 0 113 -38 113 -95c0 -90 -109 -181 -212 -181c-68 0 -113 38 -113 95c0 90 109 181 212 181z" fill="currentColor"/>
</g>
<g transform="translate(42.1704, 84.9346)">
<text font-family="serif" font-size="2.1999" text-anchor="start" fill="currentColor">
<tspan>NumberedPitchClass(1)</tspan>
</text>
</g>
<g transform="translate(42.1704, 115.0963)">
<path transform="scale(0.0040, -0.0040)" d="M212 138c68 0 113 -38 113 -95c0 -90 -109 -181 -212 -181c-68 0 -113 38 -113 95c0 90 109 181 212 181z" fill="currentColor"/>
</g>
<g transform="translate(42.1704, 107.5381)">
<text font-family="serif" font-size="2.1999" text-anchor="start" fill="currentColor">
<tspan>NumberedPitchClass(2)</tspan>
</text>
</g>
<g transform="translate(42.1704, 137.1999)">
<path transform="scale(0.0040, -0.0040)" d="M212 138c68 0 113 -38 113 -95c0 -90 -109 -181 -212 -181c-68 0 -113 38 -113 95c0 90 109 181 212 181z" fill="currentColor"/>
</g>
<g transform="translate(42.1704, 130.1417)">
<text font-family="serif" font-size="2.1999" text-anchor="start" fill="currentColor">
<tspan>NumberedPitchClass(4)</tspan>
</text>
</g>
<g transform="translate(40.7204, 23.6822)">
<path transform="scale(0.0040, -0.0040)" d="M0 116c0 10 6 19 16 23l40 15v154c0 12 9 21 21 21s21 -9 21 -21v-138l79 30v154c0 12 9 21 21 21s21 -9 21 -21v-138l22 8c3 1 6 2 9 2c13 0 25 -11 25 -25v-54c0 -10 -6 -20 -16 -24l-40 -15v-155l22 9c3 1 6 1 9 1c13 0 25 -11 25 -25v-54c0 -10 -6 -19 -16 -23
l-40 -15v-154c0 -12 -9 -21 -21 -21s-21 9 -21 21v138l-79 -30v-154c0 -12 -9 -21 -21 -21s-21 9 -21 21v138l-22 -8c-3 -1 -6 -2 -9 -2c-13 0 -25 11 -25 25v54c0 10 6 20 16 24l40 15v155l-22 -9c-3 -1 -6 -1 -9 -1c-13 0 -25 11 -25 25v54zM177 92l-79 -30v-154l79 30
v154z" fill="currentColor"/>
</g>
<g transform="translate(41.1362, 68.8893)">
<path transform="scale(0.0040, -0.0040)" d="M-7 375c8 5 17 7 26 7s17 -2 25 -7l-2 -192l102 23h4c10 0 19 -8 19 -18l7 -563c-8 -5 -17 -7 -26 -7s-18 2 -26 7l3 192l-102 -23h-4c-10 0 -19 8 -19 18zM129 110l-88 -19l-3 -201l88 19z" fill="currentColor"/>
</g>
<g transform="translate(40.7204, 92.9928)">
<path transform="scale(0.0040, -0.0040)" d="M0 116c0 10 6 19 16 23l40 15v154c0 12 9 21 21 21s21 -9 21 -21v-138l79 30v154c0 12 9 21 21 21s21 -9 21 -21v-138l22 8c3 1 6 2 9 2c13 0 25 -11 25 -25v-54c0 -10 -6 -20 -16 -24l-40 -15v-155l22 9c3 1 6 1 9 1c13 0 25 -11 25 -25v-54c0 -10 -6 -19 -16 -23
l-40 -15v-154c0 -12 -9 -21 -21 -21s-21 9 -21 21v138l-79 -30v-154c0 -12 -9 -21 -21 -21s-21 9 -21 21v138l-22 -8c-3 -1 -6 -2 -9 -2c-13 0 -25 11 -25 25v54c0 10 6 20 16 24l40 15v155l-22 -9c-3 -1 -6 -1 -9 -1c-13 0 -25 11 -25 25v54zM177 92l-79 -30v-154l79 30
v154z" fill="currentColor"/>
</g>
<g transform="translate(50.7373, 23.1822)">
<path transform="scale(0.0040, -0.0040)" d="M212 138c68 0 113 -38 113 -95c0 -90 -109 -181 -212 -181c-68 0 -113 38 -113 95c0 90 109 181 212 181z" fill="currentColor"/>
</g>
<g transform="translate(50.7373, 14.8606)">
<text font-family="serif" font-size="2.1999" text-anchor="start" fill="currentColor">
<tspan>NumberedPitchClass(7)</tspan>
</text>
</g>
<g transform="translate(50.7373, 46.2857)">
<path transform="scale(0.0040, -0.0040)" d="M212 138c68 0 113 -38 113 -95c0 -90 -109 -181 -212 -181c-68 0 -113 38 -113 95c0 90 109 181 212 181z" fill="currentColor"/>
</g>
<g transform="translate(50.7373, 37.4641)">
<text font-family="serif" font-size="2.1999" text-anchor="start" fill="currentColor">
<tspan>NumberedPitchClass(5)</tspan>
</text>
</g>
<g transform="translate(50.7373, 70.3893)">
<path transform="scale(0.0040, -0.0040)" d="M212 138c68 0 113 -38 113 -95c0 -90 -109 -181 -212 -181c-68 0 -113 38 -113 95c0 90 109 181 212 181z" fill="currentColor"/>
</g>
<g transform="translate(50.7373, 60.0677)">
<text font-family="serif" font-size="2.1999" text-anchor="start" fill="currentColor">
<tspan>NumberedPitchClass(1)</tspan>
</text>
</g>
<g transform="translate(50.7373, 92.4928)">
<path transform="scale(0.0040, -0.0040)" d="M212 138c68 0 113 -38 113 -95c0 -90 -109 -181 -212 -181c-68 0 -113 38 -113 95c0 90 109 181 212 181z" fill="currentColor"/>
</g>
<g transform="translate(50.7373, 82.6712)">
<text font-family="serif" font-size="2.1999" text-anchor="start" fill="currentColor">
<tspan>NumberedPitchClass(2)</tspan>
</text>
</g>
<g transform="translate(50.7373, 114.5963)">
<path transform="scale(0.0040, -0.0040)" d="M212 138c68 0 113 -38 113 -95c0 -90 -109 -181 -212 -181c-68 0 -113 38 -113 95c0 90 109 181 212 181z" fill="currentColor"/>
</g>
<g transform="translate(50.7373, 105.2747)">
<text font-family="serif" font-size="2.1999" text-anchor="start" fill="currentColor">
<tspan>NumberedPitchClass(4)</tspan>
</text>
</g>
<g transform="translate(50.7373, 136.6999)">
<path transform="scale(0.0040, -0.0040)" d="M212 138c68 0 113 -38 113 -95c0 -90 -109 -181 -212 -181c-68 0 -113 38 -113 95c0 90 109 181 212 181z" fill="currentColor"/>
</g>
<g transform="translate(50.7373, 127.8783)">
<text font-family="serif" font-size="2.1999" text-anchor="start" fill="currentColor">
<tspan>NumberedPitchClass(6)</tspan>
</text>
</g>
<g transform="translate(49.7031, 46.2857)">
<path transform="scale(0.0040, -0.0040)" d="M-7 375c8 5 17 7 26 7s17 -2 25 -7l-2 -192l102 23h4c10 0 19 -8 19 -18l7 -563c-8 -5 -17 -7 -26 -7s-18 2 -26 7l3 192l-102 -23h-4c-10 0 -19 8 -19 18zM129 110l-88 -19l-3 -201l88 19z" fill="currentColor"/>
</g>
<g transform="translate(49.2873, 70.3893)">
<path transform="scale(0.0040, -0.0040)" d="M0 116c0 10 6 19 16 23l40 15v154c0 12 9 21 21 21s21 -9 21 -21v-138l79 30v154c0 12 9 21 21 21s21 -9 21 -21v-138l22 8c3 1 6 2 9 2c13 0 25 -11 25 -25v-54c0 -10 -6 -20 -16 -24l-40 -15v-155l22 9c3 1 6 1 9 1c13 0 25 -11 25 -25v-54c0 -10 -6 -19 -16 -23
l-40 -15v-154c0 -12 -9 -21 -21 -21s-21 9 -21 21v138l-79 -30v-154c0 -12 -9 -21 -21 -21s-21 9 -21 21v138l-22 -8c-3 -1 -6 -2 -9 -2c-13 0 -25 11 -25 25v54c0 10 6 20 16 24l40 15v155l-22 -9c-3 -1 -6 -1 -9 -1c-13 0 -25 11 -25 25v54zM177 92l-79 -30v-154l79 30
v154z" fill="currentColor"/>
</g>
<g transform="translate(49.2873, 136.6999)">
<path transform="scale(0.0040, -0.0040)" d="M0 116c0 10 6 19 16 23l40 15v154c0 12 9 21 21 21s21 -9 21 -21v-138l79 30v154c0 12 9 21 21 21s21 -9 21 -21v-138l22 8c3 1 6 2 9 2c13 0 25 -11 25 -25v-54c0 -10 -6 -20 -16 -24l-40 -15v-155l22 9c3 1 6 1 9 1c13 0 25 -11 25 -25v-54c0 -10 -6 -19 -16 -23
l-40 -15v-154c0 -12 -9 -21 -21 -21s-21 9 -21 21v138l-79 -30v-154c0 -12 -9 -21 -21 -21s-21 9 -21 21v138l-22 -8c-3 -1 -6 -2 -9 -2c-13 0 -25 11 -25 25v54c0 10 6 20 16 24l40 15v155l-22 -9c-3 -1 -6 -1 -9 -1c-13 0 -25 11 -25 25v54zM177 92l-79 -30v-154l79 30
v154z" fill="currentColor"/>
</g>
<g transform="translate(59.3042, 23.6822)">
<path transform="scale(0.0040, -0.0040)" d="M212 138c68 0 113 -38 113 -95c0 -90 -109 -181 -212 -181c-68 0 -113 38 -113 95c0 90 109 181 212 181z" fill="currentColor"/>
</g>
<g transform="translate(59.3042, 12.5687)">
<text font-family="serif" font-size="2.1999" text-anchor="start" fill="currentColor">
<tspan>NumberedPitchClass(5)</tspan>
</text>
</g>
<g transform="translate(59.3042, 47.7857)">
<path transform="scale(0.0040, -0.0040)" d="M212 138c68 0 113 -38 113 -95c0 -90 -109 -181 -212 -181c-68 0 -113 38 -113 95c0 90 109 181 212 181z" fill="currentColor"/>
</g>
<g transform="translate(59.3042, 35.3548)">
<text font-family="serif" font-size="2.1999" text-anchor="start" fill="currentColor">
<tspan>NumberedPitchClass(1)</tspan>
</text>
</g>
<g transform="translate(59.3042, 69.8893)">
<path transform="scale(0.0040, -0.0040)" d="M212 138c68 0 113 -38 113 -95c0 -90 -109 -181 -212 -181c-68 0 -113 38 -113 95c0 90 109 181 212 181z" fill="currentColor"/>
</g>
<g transform="translate(59.3042, 57.7156)">
<text font-family="serif" font-size="2.1999" text-anchor="start" fill="currentColor">
<tspan>NumberedPitchClass(2)</tspan>
</text>
</g>
<g transform="translate(59.3042, 91.9928)">
<path transform="scale(0.0040, -0.0040)" d="M212 138c68 0 113 -38 113 -95c0 -90 -109 -181 -212 -181c-68 0 -113 38 -113 95c0 90 109 181 212 181z" fill="currentColor"/>
</g>
<g transform="translate(59.3042, 80.5619)">
<text font-family="serif" font-size="2.1999" text-anchor="start" fill="currentColor">
<tspan>NumberedPitchClass(4)</tspan>
</text>
</g>
<g transform="translate(59.3042, 114.0963)">
<path transform="scale(0.0040, -0.0040)" d="M212 138c68 0 113 -38 113 -95c0 -90 -109 -181 -212 -181c-68 0 -113 38 -113 95c0 90 109 181 212 181z" fill="currentColor"/>
</g>
<g transform="translate(59.3042, 103.1654)">
<text font-family="serif" font-size="2.1999" text-anchor="start" fill="currentColor">
<tspan>NumberedPitchClass(6)</tspan>
</text>
</g>
<g transform="translate(59.3042, 136.1999)">
<path transform="scale(0.0040, -0.0040)" d="M212 138c68 0 113 -38 113 -95c0 -90 -109 -181 -212 -181c-68 0 -113 38 -113 95c0 90 109 181 212 181z" fill="currentColor"/>
</g>
<g transform="translate(59.3042, 125.7689)">
<text font-family="serif" font-size="2.1999" text-anchor="start" fill="currentColor">
<tspan>NumberedPitchClass(7)</tspan>
</text>
</g>
<g transform="translate(58.2700, 23.6822)">
<path transform="scale(0.0040, -0.0040)" d="M-7 375c8 5 17 7 26 7s17 -2 25 -7l-2 -192l102 23h4c10 0 19 -8 19 -18l7 -563c-8 -5 -17 -7 -26 -7s-18 2 -26 7l3 192l-102 -23h-4c-10 0 -19 8 -19 18zM129 110l-88 -19l-3 -201l88 19z" fill="currentColor"/>
</g>
<g transform="translate(57.8542, 47.7857)">
<path transform="scale(0.0040, -0.0040)" d="M0 116c0 10 6 19 16 23l40 15v154c0 12 9 21 21 21s21 -9 21 -21v-138l79 30v154c0 12 9 21 21 21s21 -9 21 -21v-138l22 8c3 1 6 2 9 2c13 0 25 -11 25 -25v-54c0 -10 -6 -20 -16 -24l-40 -15v-155l22 9c3 1 6 1 9 1c13 0 25 -11 25 -25v-54c0 -10 -6 -19 -16 -23
l-40 -15v-154c0 -12 -9 -21 -21 -21s-21 9 -21 21v138l-79 -30v-154c0 -12 -9 -21 -21 -21s-21 9 -21 21v138l-22 -8c-3 -1 -6 -2 -9 -2c-13 0 -25 11 -25 25v54c0 10 6 20 16 24l40 15v155l-22 -9c-3 -1 -6 -1 -9 -1c-13 0 -25 11 -25 25v54zM177 92l-79 -30v-154l79 30
v154z" fill="currentColor"/>
</g>
<g transform="translate(57.8542, 114.0963)">
<path transform="scale(0.0040, -0.0040)" d="M0 116c0 10 6 19 16 23l40 15v154c0 12 9 21 21 21s21 -9 21 -21v-138l79 30v154c0 12 9 21 21 21s21 -9 21 -21v-138l22 8c3 1 6 2 9 2c13 0 25 -11 25 -25v-54c0 -10 -6 -20 -16 -24l-40 -15v-155l22 9c3 1 6 1 9 1c13 0 25 -11 25 -25v-54c0 -10 -6 -19 -16 -23
l-40 -15v-154c0 -12 -9 -21 -21 -21s-21 9 -21 21v138l-79 -30v-154c0 -12 -9 -21 -21 -21s-21 9 -21 21v138l-22 -8c-3 -1 -6 -2 -9 -2c-13 0 -25 11 -25 25v54c0 10 6 20 16 24l40 15v155l-22 -9c-3 -1 -6 -1 -9 -1c-13 0 -25 11 -25 25v54zM177 92l-79 -30v-154l79 30
v154z" fill="currentColor"/>
</g>
<g transform="translate(71.3512, 24.1822)">
<path transform="scale(0.0040, -0.0040)" d="M212 138c68 0 113 -38 113 -95c0 -90 -109 -181 -212 -181c-68 0 -113 38 -113 95c0 90 109 181 212 181z" fill="currentColor"/>
</g>
<g transform="translate(71.3512, 27.5869)">
<rect x="-0.3164" y="-0.1164" width="1.6572" height="0.1164" ry="0.0000" fill="currentColor"/>
</g>
<g transform="translate(71.3512, 25.5151)">
<rect x="-0.3164" y="-0.1164" width="1.6572" height="0.1164" ry="0.0000" fill="currentColor"/>
</g>
<g transform="translate(71.0348, 27.2404)">
<rect x="0" y="-1.7254" width="0.1164" height="1.9554" ry="0.0000" fill="currentColor"/>
</g>
<g transform="translate(72.5755, 27.2404)">
<rect x="0" y="-1.7254" width="0.1164" height="1.9554" ry="0.0000" fill="currentColor"/>
</g>
<g transform="translate(71.3512, 27.2404)">
<text font-family="serif" font-size="2.1999" text-anchor="start" fill="currentColor">
<tspan>δ</tspan>
</text>
</g>
<g transform="translate(71.3512, 17.1240)">
<text font-family="serif" font-size="2.1999" text-anchor="start" fill="currentColor">
<tspan>NumberedPitchClass(3)</tspan>
</text>
</g>
<g transform="translate(9.3335, 19.8990)">
<path transform="scale(0.0040, -0.0040)" d="M0 -56v83c0 16 13 29 29 29h59c154 0 257 136 342 267c13 20 44 0 31 -20c-93 -143 -204 -359 -373 -359h-88z" fill="currentColor"/>
</g>
<g transform="translate(9.3335, 137.4831)">
<path transform="scale(0.0040, -0.0040)" d="M0 56h88c169 0 280 -216 373 -359c13 -20 -18 -40 -31 -20c-85 131 -188 267 -342 267h-59c-16 0 -29 13 -29 29v83z" fill="currentColor"/>
</g>
<g transform="translate(9.3335, 78.6910)">
<rect x="0.0000" y="-58.6120" width="0.4500" height="117.2241" ry="0.0000" fill="currentColor"/>
</g>
<g transform="translate(71.3512, 44.7857)">
<path transform="scale(0.0040, -0.0040)" d="M212 138c68 0 113 -38 113 -95c0 -90 -109 -181 -212 -181c-68 0 -113 38 -113 95c0 90 109 181 212 181z" fill="currentColor"/>
</g>
<g transform="translate(71.3512, 50.1904)">
<rect x="-0.3164" y="-0.1164" width="1.6572" height="0.1164" ry="0.0000" fill="currentColor"/>
</g>
<g transform="translate(71.3512, 48.1186)">
<rect x="-0.3164" y="-0.1164" width="1.6572" height="0.1164" ry="0.0000" fill="currentColor"/>
</g>
<g transform="translate(71.0348, 49.8440)">
<rect x="0" y="-1.7254" width="0.1164" height="1.9554" ry="0.0000" fill="currentColor"/>
</g>
<g transform="translate(72.5755, 49.8440)">
<rect x="0" y="-1.7254" width="0.1164" height="1.9554" ry="0.0000" fill="currentColor"/>
</g>
<g transform="translate(71.3512, 49.8440)">
<text font-family="serif" font-size="2.1999" text-anchor="start" fill="currentColor">
<tspan>δ</tspan>
</text>
</g>
<g transform="translate(71.3512, 39.7275)">
<text font-family="serif" font-size="2.1999" text-anchor="start" fill="currentColor">
<tspan>NumberedPitchClass(11)</tspan>
</text>
</g>
<g transform="translate(71.3512, 70.3893)">
<path transform="scale(0.0040, -0.0040)" d="M212 138c68 0 113 -38 113 -95c0 -90 -109 -181 -212 -181c-68 0 -113 38 -113 95c0 90 109 181 212 181z" fill="currentColor"/>
</g>
<g transform="translate(71.3512, 73.5902)">
<rect x="-0.3164" y="-0.1164" width="1.6572" height="0.1164" ry="0.0000" fill="currentColor"/>
</g>
<g transform="translate(71.3512, 71.5184)">
<rect x="-0.3164" y="-0.1164" width="1.6572" height="0.1164" ry="0.0000" fill="currentColor"/>
</g>
<g transform="translate(71.0348, 73.2438)">
<rect x="0" y="-1.7254" width="0.1164" height="1.9554" ry="0.0000" fill="currentColor"/>
</g>
<g transform="translate(72.5755, 73.2438)">
<rect x="0" y="-1.7254" width="0.1164" height="1.9554" ry="0.0000" fill="currentColor"/>
</g>
<g transform="translate(71.3512, 73.2438)">
<text font-family="serif" font-size="2.1999" text-anchor="start" fill="currentColor">
<tspan>δ</tspan>
</text>
</g>
<g transform="translate(71.3512, 62.3311)">
<text font-family="serif" font-size="2.1999" text-anchor="start" fill="currentColor">
<tspan>NumberedPitchClass(0)</tspan>
</text>
</g>
<g transform="translate(71.3512, 89.9928)">
<path transform="scale(0.0040, -0.0040)" d="M212 138c68 0 113 -38 113 -95c0 -90 -109 -181 -212 -181c-68 0 -113 38 -113 95c0 90 109 181 212 181z" fill="currentColor"/>
</g>
<g transform="translate(71.3512, 95.3975)">
<rect x="-0.3164" y="-0.1164" width="1.6572" height="0.1164" ry="0.0000" fill="currentColor"/>
</g>
<g transform="translate(71.3512, 93.3257)">
<rect x="-0.3164" y="-0.1164" width="1.6572" height="0.1164" ry="0.0000" fill="currentColor"/>
</g>
<g transform="translate(71.0348, 95.0510)">
<rect x="0" y="-1.7254" width="0.1164" height="1.9554" ry="0.0000" fill="currentColor"/>
</g>
<g transform="translate(72.5755, 95.0510)">
<rect x="0" y="-1.7254" width="0.1164" height="1.9554" ry="0.0000" fill="currentColor"/>
</g>
<g transform="translate(71.3512, 95.0510)">
<text font-family="serif" font-size="2.1999" text-anchor="start" fill="currentColor">
<tspan>δ</tspan>
</text>
</g>
<g transform="translate(71.3512, 84.9346)">
<text font-family="serif" font-size="2.1999" text-anchor="start" fill="currentColor">
<tspan>NumberedPitchClass(10)</tspan>
</text>
</g>
<g transform="translate(71.3512, 113.0963)">
<path transform="scale(0.0040, -0.0040)" d="M212 138c68 0 113 -38 113 -95c0 -90 -109 -181 -212 -181c-68 0 -113 38 -113 95c0 90 109 181 212 181z" fill="currentColor"/>
</g>
<g transform="translate(71.3512, 118.0010)">
<rect x="-0.3164" y="-0.1164" width="1.6572" height="0.1164" ry="0.0000" fill="currentColor"/>
</g>
<g transform="translate(71.3512, 115.9292)">
<rect x="-0.3164" y="-0.1164" width="1.6572" height="0.1164" ry="0.0000" fill="currentColor"/>
</g>
<g transform="translate(71.0348, 117.6546)">
<rect x="0" y="-1.7254" width="0.1164" height="1.9554" ry="0.0000" fill="currentColor"/>
</g>
<g transform="translate(72.5755, 117.6546)">
<rect x="0" y="-1.7254" width="0.1164" height="1.9554" ry="0.0000" fill="currentColor"/>
</g>
<g transform="translate(71.3512, 117.6546)">
<text font-family="serif" font-size="2.1999" text-anchor="start" fill="currentColor">
<tspan>δ</tspan>
</text>
</g>
<g transform="translate(71.3512, 107.5381)">
<text font-family="serif" font-size="2.1999" text-anchor="start" fill="currentColor">
<tspan>NumberedPitchClass(8)</tspan>
</text>
</g>
<g transform="translate(71.3512, 135.6999)">
<path transform="scale(0.0040, -0.0040)" d="M212 138c68 0 113 -38 113 -95c0 -90 -109 -181 -212 -181c-68 0 -113 38 -113 95c0 90 109 181 212 181z" fill="currentColor"/>
</g>
<g transform="translate(71.3512, 140.6046)">
<rect x="-0.3164" y="-0.1164" width="1.6572" height="0.1164" ry="0.0000" fill="currentColor"/>
</g>
<g transform="translate(71.3512, 138.5327)">
<rect x="-0.3164" y="-0.1164" width="1.6572" height="0.1164" ry="0.0000" fill="currentColor"/>
</g>
<g transform="translate(71.0348, 140.2581)">
<rect x="0" y="-1.7254" width="0.1164" height="1.9554" ry="0.0000" fill="currentColor"/>
</g>
<g transform="translate(72.5755, 140.2581)">
<rect x="0" y="-1.7254" width="0.1164" height="1.9554" ry="0.0000" fill="currentColor"/>
</g>
<g transform="translate(71.3512, 140.2581)">
<text font-family="serif" font-size="2.1999" text-anchor="start" fill="currentColor">
<tspan>δ</tspan>
</text>
</g>
<g transform="translate(71.3512, 130.1417)">
<text font-family="serif" font-size="2.1999" text-anchor="start" fill="currentColor">
<tspan>NumberedPitchClass(9)</tspan>
</text>
</g>
<g transform="translate(70.2012, 24.1822)">
<path transform="scale(0.0040, -0.0040)" d="M31 37l-2 -62v-11c0 -22 2 -43 5 -64c43 38 89 80 89 137c0 32 -14 65 -42 65c-31 0 -49 -32 -50 -65zM-30 450c9 5 20 8 30 8s21 -3 30 -8l-8 -340c25 24 59 38 94 38c50 0 84 -50 84 -104c0 -78 -83 -117 -141 -169c-17 -15 -25 -44 -49 -44c-15 0 -26 13 -26 29z" fill="currentColor"/>
</g>
<g transform="translate(70.2012, 89.9928)">
<path transform="scale(0.0040, -0.0040)" d="M31 37l-2 -62v-11c0 -22 2 -43 5 -64c43 38 89 80 89 137c0 32 -14 65 -42 65c-31 0 -49 -32 -50 -65zM-30 450c9 5 20 8 30 8s21 -3 30 -8l-8 -340c25 24 59 38 94 38c50 0 84 -50 84 -104c0 -78 -83 -117 -141 -169c-17 -15 -25 -44 -49 -44c-15 0 -26 13 -26 29z" fill="currentColor"/>
</g>
<g transform="translate(70.2012, 113.0963)">
<path transform="scale(0.0040, -0.0040)" d="M31 37l-2 -62v-11c0 -22 2 -43 5 -64c43 38 89 80 89 137c0 32 -14 65 -42 65c-31 0 -49 -32 -50 -65zM-30 450c9 5 20 8 30 8s21 -3 30 -8l-8 -340c25 24 59 38 94 38c50 0 84 -50 84 -104c0 -78 -83 -117 -141 -169c-17 -15 -25 -44 -49 -44c-15 0 -26 13 -26 29z" fill="currentColor"/>
</g>
<g transform="translate(79.9181, 22.1822)">
<path transform="scale(0.0040, -0.0040)" d="M212 138c68 0 113 -38 113 -95c0 -90 -109 -181 -212 -181c-68 0 -113 38 -113 95c0 90 109 181 212 181z" fill="currentColor"/>
</g>
<g transform="translate(79.9181, 14.8321)">
<text font-family="serif" font-size="2.1999" text-anchor="start" fill="currentColor">
<tspan>NumberedPitchClass(11)</tspan>
</text>
</g>
<g transform="translate(79.9181, 47.7857)">
<path transform="scale(0.0040, -0.0040)" d="M212 138c68 0 113 -38 113 -95c0 -90 -109 -181 -212 -181c-68 0 -113 38 -113 95c0 90 109 181 212 181z" fill="currentColor"/>
</g>
<g transform="translate(79.9181, 37.6182)">
<text font-family="serif" font-size="2.1999" text-anchor="start" fill="currentColor">
<tspan>NumberedPitchClass(0)</tspan>
</text>
</g>
<g transform="translate(79.9181, 67.3893)">
<path transform="scale(0.0040, -0.0040)" d="M212 138c68 0 113 -38 113 -95c0 -90 -109 -181 -212 -181c-68 0 -113 38 -113 95c0 90 109 181 212 181z" fill="currentColor"/>
</g>
<g transform="translate(79.9181, 59.9790)">
<text font-family="serif" font-size="2.1999" text-anchor="start" fill="currentColor">
<tspan>NumberedPitchClass(10)</tspan>
</text>
</g>
<g transform="translate(79.9181, 90.4928)">
<path transform="scale(0.0040, -0.0040)" d="M212 138c68 0 113 -38 113 -95c0 -90 -109 -181 -212 -181c-68 0 -113 38 -113 95c0 90 109 181 212 181z" fill="currentColor"/>
</g>
<g transform="translate(79.9181, 82.8253)">
<text font-family="serif" font-size="2.1999" text-anchor="start" fill="currentColor">
<tspan>NumberedPitchClass(8)</tspan>
</text>
</g>
<g transform="translate(79.9181, 113.0963)">
<path transform="scale(0.0040, -0.0040)" d="M212 138c68 0 113 -38 113 -95c0 -90 -109 -181 -212 -181c-68 0 -113 38 -113 95c0 90 109 181 212 181z" fill="currentColor"/>
</g>
<g transform="translate(79.9181, 105.4288)">
<text font-family="serif" font-size="2.1999" text-anchor="start" fill="currentColor">
<tspan>NumberedPitchClass(9)</tspan>
</text>
</g>
<g transform="translate(79.9181, 137.1999)">
<path transform="scale(0.0040, -0.0040)" d="M212 138c68 0 113 -38 113 -95c0 -90 -109 -181 -212 -181c-68 0 -113 38 -113 95c0 90 109 181 212 181z" fill="currentColor"/>
</g>
<g transform="translate(79.9181, 128.0323)">
<text font-family="serif" font-size="2.1999" text-anchor="start" fill="currentColor">
<tspan>NumberedPitchClass(3)</tspan>
</text>
</g>
<g transform="translate(78.7681, 67.3893)">
<path transform="scale(0.0040, -0.0040)" d="M31 37l-2 -62v-11c0 -22 2 -43 5 -64c43 38 89 80 89 137c0 32 -14 65 -42 65c-31 0 -49 -32 -50 -65zM-30 450c9 5 20 8 30 8s21 -3 30 -8l-8 -340c25 24 59 38 94 38c50 0 84 -50 84 -104c0 -78 -83 -117 -141 -169c-17 -15 -25 -44 -49 -44c-15 0 -26 13 -26 29z" fill="currentColor"/>
</g>
<g transform="translate(78.7681, 90.4928)">
<path transform="scale(0.0040, -0.0040)" d="M31 37l-2 -62v-11c0 -22 2 -43 5 -64c43 38 89 80 89 137c0 32 -14 65 -42 65c-31 0 -49 -32 -50 -65zM-30 450c9 5 20 8 30 8s21 -3 30 -8l-8 -340c25 24 59 38 94 38c50 0 84 -50 84 -104c0 -78 -83 -117 -141 -169c-17 -15 -25 -44 -49 -44c-15 0 -26 13 -26 29z" fill="currentColor"/>
</g>
<g transform="translate(78.8839, 113.0963)">
<path transform="scale(0.0040, -0.0040)" d="M-7 375c8 5 17 7 26 7s17 -2 25 -7l-2 -192l102 23h4c10 0 19 -8 19 -18l7 -563c-8 -5 -17 -7 -26 -7s-18 2 -26 7l3 192l-102 -23h-4c-10 0 -19 8 -19 18zM129 110l-88 -19l-3 -201l88 19z" fill="currentColor"/>
</g>
<g transform="translate(78.7681, 137.1999)">
<path transform="scale(0.0040, -0.0040)" d="M31 37l-2 -62v-11c0 -22 2 -43 5 -64c43 38 89 80 89 137c0 32 -14 65 -42 65c-31 0 -49 -32 -50 -65zM-30 450c9 5 20 8 30 8s21 -3 30 -8l-8 -340c25 24 59 38 94 38c50 0 84 -50 84 -104c0 -78 -83 -117 -141 -169c-17 -15 -25 -44 -49 -44c-15 0 -26 13 -26 29z" fill="currentColor"/>
</g>
<g transform="translate(88.4850, 25.1822)">
<path transform="scale(0.0040, -0.0040)" d="M212 138c68 0 113 -38 113 -95c0 -90 -109 -181 -212 -181c-68 0 -113 38 -113 95c0 90 109 181 212 181z" fill="currentColor"/>
</g>
<g transform="translate(88.4850, 12.8145)">
<text font-family="serif" font-size="2.1999" text-anchor="start" fill="currentColor">
<tspan>NumberedPitchClass(0)</tspan>
</text>
</g>
<g transform="translate(88.4850, 44.7857)">
<path transform="scale(0.0040, -0.0040)" d="M212 138c68 0 113 -38 113 -95c0 -90 -109 -181 -212 -181c-68 0 -113 38 -113 95c0 90 109 181 212 181z" fill="currentColor"/>
</g>
<g transform="translate(88.4850, 35.3408)">
<text font-family="serif" font-size="2.1999" text-anchor="start" fill="currentColor">
<tspan>NumberedPitchClass(10)</tspan>
</text>
</g>
<g transform="translate(88.4850, 67.8893)">
<path transform="scale(0.0040, -0.0040)" d="M212 138c68 0 113 -38 113 -95c0 -90 -109 -181 -212 -181c-68 0 -113 38 -113 95c0 90 109 181 212 181z" fill="currentColor"/>
</g>
<g transform="translate(88.4850, 57.9613)">
<text font-family="serif" font-size="2.1999" text-anchor="start" fill="currentColor">
<tspan>NumberedPitchClass(8)</tspan>
</text>
</g>
<g transform="translate(88.4850, 90.4928)">
<path transform="scale(0.0040, -0.0040)" d="M212 138c68 0 113 -38 113 -95c0 -90 -109 -181 -212 -181c-68 0 -113 38 -113 95c0 90 109 181 212 181z" fill="currentColor"/>
</g>
<g transform="translate(88.4850, 80.8077)">
<text font-family="serif" font-size="2.1999" text-anchor="start" fill="currentColor">
<tspan>NumberedPitchClass(9)</tspan>
</text>
</g>
<g transform="translate(88.4850, 114.5963)">
<path transform="scale(0.0040, -0.0040)" d="M212 138c68 0 113 -38 113 -95c0 -90 -109 -181 -212 -181c-68 0 -113 38 -113 95c0 90 109 181 212 181z" fill="currentColor"/>
</g>
<g transform="translate(88.4850, 103.4112)">
<text font-family="serif" font-size="2.1999" text-anchor="start" fill="currentColor">
<tspan>NumberedPitchClass(3)</tspan>
</text>
</g>
<g transform="translate(88.4850, 135.1999)">
<path transform="scale(0.0040, -0.0040)" d="M212 138c68 0 113 -38 113 -95c0 -90 -109 -181 -212 -181c-68 0 -113 38 -113 95c0 90 109 181 212 181z" fill="currentColor"/>
</g>
<g transform="translate(88.4850, 125.7940)">
<text font-family="serif" font-size="2.1999" text-anchor="start" fill="currentColor">
<tspan>NumberedPitchClass(11)</tspan>
</text>
</g>
<g transform="translate(87.3350, 44.7857)">
<path transform="scale(0.0040, -0.0040)" d="M31 37l-2 -62v-11c0 -22 2 -43 5 -64c43 38 89 80 89 137c0 32 -14 65 -42 65c-31 0 -49 -32 -50 -65zM-30 450c9 5 20 8 30 8s21 -3 30 -8l-8 -340c25 24 59 38 94 38c50 0 84 -50 84 -104c0 -78 -83 -117 -141 -169c-17 -15 -25 -44 -49 -44c-15 0 -26 13 -26 29z" fill="currentColor"/>
</g>
<g transform="translate(87.3350, 67.8893)">
<path transform="scale(0.0040, -0.0040)" d="M31 37l-2 -62v-11c0 -22 2 -43 5 -64c43 38 89 80 89 137c0 32 -14 65 -42 65c-31 0 -49 -32 -50 -65zM-30 450c9 5 20 8 30 8s21 -3 30 -8l-8 -340c25 24 59 38 94 38c50 0 84 -50 84 -104c0 -78 -83 -117 -141 -169c-17 -15 -25 -44 -49 -44c-15 0 -26 13 -26 29z" fill="currentColor"/>
</g>
<g transform="translate(87.4508, 90.4928)">
<path transform="scale(0.0040, -0.0040)" d="M-7 375c8 5 17 7 26 7s17 -2 25 -7l-2 -192l102 23h4c10 0 19 -8 19 -18l7 -563c-8 -5 -17 -7 -26 -7s-18 2 -26 7l3 192l-102 -23h-4c-10 0 -19 8 -19 18zM129 110l-88 -19l-3 -201l88 19z" fill="currentColor"/>
</g>
<g transform="translate(87.3350, 114.5963)">
<path transform="scale(0.0040, -0.0040)" d="M31 37l-2 -62v-11c0 -22 2 -43 5 -64c43 38 89 80 89 137c0 32 -14 65 -42 65c-31 0 -49 -32 -50 -65zM-30 450c9 5 20 8 30 8s21 -3 30 -8l-8 -340c25 24 59 38 94 38c50 0 84 -50 84 -104c0 -78 -83 -117 -141 -169c-17 -15 -25 -44 -49 -44c-15 0 -26 13 -26 29z" fill="currentColor"/>
</g>
<g transform="translate(97.0519, 22.1822)">
<path transform="scale(0.0040, -0.0040)" d="M212 138c68 0 113 -38 113 -95c0 -90 -109 -181 -212 -181c-68 0 -113 38 -113 95c0 90 109 181 212 181z" fill="currentColor"/>
</g>
<g transform="translate(97.0519, 17.1240)">
<text font-family="serif" font-size="2.1999" text-anchor="start" fill="currentColor">
<tspan>NumberedPitchClass(10)</tspan>
</text>
</g>
<g transform="translate(97.0519, 45.2857)">
<path transform="scale(0.0040, -0.0040)" d="M212 138c68 0 113 -38 113 -95c0 -90 -109 -181 -212 -181c-68 0 -113 38 -113 95c0 90 109 181 212 181z" fill="currentColor"/>
</g>
<g transform="translate(97.0519, 39.7275)">
<text font-family="serif" font-size="2.1999" text-anchor="start" fill="currentColor">
<tspan>NumberedPitchClass(8)</tspan>
</text>
</g>
<g transform="translate(97.0519, 67.8893)">
<path transform="scale(0.0040, -0.0040)" d="M212 138c68 0 113 -38 113 -95c0 -90 -109 -181 -212 -181c-68 0 -113 38 -113 95c0 90 109 181 212 181z" fill="currentColor"/>
</g>
<g transform="translate(97.0519, 62.3311)">
<text font-family="serif" font-size="2.1999" text-anchor="start" fill="currentColor">
<tspan>NumberedPitchClass(9)</tspan>
</text>
</g>
<g transform="translate(97.0519, 91.9928)">
<path transform="scale(0.0040, -0.0040)" d="M212 138c68 0 113 -38 113 -95c0 -90 -109 -181 -212 -181c-68 0 -113 38 -113 95c0 90 109 181 212 181z" fill="currentColor"/>
</g>
<g transform="translate(97.0519, 84.9346)">
<text font-family="serif" font-size="2.1999" text-anchor="start" fill="currentColor">
<tspan>NumberedPitchClass(3)</tspan>
</text>
</g>
<g transform="translate(97.0519, 112.5963)">
<path transform="scale(0.0040, -0.0040)" d="M212 138c68 0 113 -38 113 -95c0 -90 -109 -181 -212 -181c-68 0 -113 38 -113 95c0 90 109 181 212 181z" fill="currentColor"/>
</g>
<g transform="translate(97.0519, 107.5381)">
<text font-family="serif" font-size="2.1999" text-anchor="start" fill="currentColor">
<tspan>NumberedPitchClass(11)</tspan>
</text>
</g>
<g transform="translate(97.0519, 138.1999)">
<path transform="scale(0.0040, -0.0040)" d="M212 138c68 0 113 -38 113 -95c0 -90 -109 -181 -212 -181c-68 0 -113 38 -113 95c0 90 109 181 212 181z" fill="currentColor"/>
</g>
<g transform="translate(97.0519, 130.1417)">
<text font-family="serif" font-size="2.1999" text-anchor="start" fill="currentColor">
<tspan>NumberedPitchClass(0)</tspan>
</text>
</g>
<g transform="translate(95.9019, 22.1822)">
<path transform="scale(0.0040, -0.0040)" d="M31 37l-2 -62v-11c0 -22 2 -43 5 -64c43 38 89 80 89 137c0 32 -14 65 -42 65c-31 0 -49 -32 -50 -65zM-30 450c9 5 20 8 30 8s21 -3 30 -8l-8 -340c25 24 59 38 94 38c50 0 84 -50 84 -104c0 -78 -83 -117 -141 -169c-17 -15 -25 -44 -49 -44c-15 0 -26 13 -26 29z" fill="currentColor"/>
</g>
<g transform="translate(95.9019, 45.2857)">
<path transform="scale(0.0040, -0.0040)" d="M31 37l-2 -62v-11c0 -22 2 -43 5 -64c43 38 89 80 89 137c0 32 -14 65 -42 65c-31 0 -49 -32 -50 -65zM-30 450c9 5 20 8 30 8s21 -3 30 -8l-8 -340c25 24 59 38 94 38c50 0 84 -50 84 -104c0 -78 -83 -117 -141 -169c-17 -15 -25 -44 -49 -44c-15 0 -26 13 -26 29z" fill="currentColor"/>
</g>
<g transform="translate(96.0176, 67.8893)">
<path transform="scale(0.0040, -0.0040)" d="M-7 375c8 5 17 7 26 7s17 -2 25 -7l-2 -192l102 23h4c10 0 19 -8 19 -18l7 -563c-8 -5 -17 -7 -26 -7s-18 2 -26 7l3 192l-102 -23h-4c-10 0 -19 8 -19 18zM129 110l-88 -19l-3 -201l88 19z" fill="currentColor"/>
</g>
<g transform="translate(95.9019, 91.9928)">
<path transform="scale(0.0040, -0.0040)" d="M31 37l-2 -62v-11c0 -22 2 -43 5 -64c43 38 89 80 89 137c0 32 -14 65 -42 65c-31 0 -49 -32 -50 -65zM-30 450c9 5 20 8 30 8s21 -3 30 -8l-8 -340c25 24 59 38 94 38c50 0 84 -50 84 -104c0 -78 -83 -117 -141 -169c-17 -15 -25 -44 -49 -44c-15 0 -26 13 -26 29z" fill="currentColor"/>
</g>
<g transform="translate(105.5771, 22.6822)">
<path transform="scale(0.0040, -0.0040)" d="M212 138c68 0 113 -38 113 -95c0 -90 -109 -181 -212 -181c-68 0 -113 38 -113 95c0 90 109 181 212 181z" fill="currentColor"/>
</g>
<g transform="translate(105.5771, 15.1064)">
<text font-family="serif" font-size="2.1999" text-anchor="start" fill="currentColor">
<tspan>NumberedPitchClass(8)</tspan>
</text>
</g>
<g transform="translate(105.5771, 45.2857)">
<path transform="scale(0.0040, -0.0040)" d="M212 138c68 0 113 -38 113 -95c0 -90 -109 -181 -212 -181c-68 0 -113 38 -113 95c0 90 109 181 212 181z" fill="currentColor"/>
</g>
<g transform="translate(105.5771, 37.7099)">
<text font-family="serif" font-size="2.1999" text-anchor="start" fill="currentColor">
<tspan>NumberedPitchClass(9)</tspan>
</text>
</g>
<g transform="translate(105.5771, 69.3893)">
<path transform="scale(0.0040, -0.0040)" d="M212 138c68 0 113 -38 113 -95c0 -90 -109 -181 -212 -181c-68 0 -113 38 -113 95c0 90 109 181 212 181z" fill="currentColor"/>
</g>
<g transform="translate(105.5771, 60.3135)">
<text font-family="serif" font-size="2.1999" text-anchor="start" fill="currentColor">
<tspan>NumberedPitchClass(3)</tspan>
</text>
</g>
<g transform="translate(105.5771, 89.9928)">
<path transform="scale(0.0040, -0.0040)" d="M212 138c68 0 113 -38 113 -95c0 -90 -109 -181 -212 -181c-68 0 -113 38 -113 95c0 90 109 181 212 181z" fill="currentColor"/>
</g>
<g transform="translate(105.5771, 82.9170)">
<text font-family="serif" font-size="2.1999" text-anchor="start" fill="currentColor">
<tspan>NumberedPitchClass(11)</tspan>
</text>
</g>
<g transform="translate(105.5771, 115.5963)">
<path transform="scale(0.0040, -0.0040)" d="M212 138c68 0 113 -38 113 -95c0 -90 -109 -181 -212 -181c-68 0 -113 38 -113 95c0 90 109 181 212 181z" fill="currentColor"/>
</g>
<g transform="translate(105.5771, 105.5205)">
<text font-family="serif" font-size="2.1999" text-anchor="start" fill="currentColor">
<tspan>NumberedPitchClass(0)</tspan>
</text>
</g>
<g transform="translate(105.5771, 135.1999)">
<path transform="scale(0.0040, -0.0040)" d="M212 138c68 0 113 -38 113 -95c0 -90 -109 -181 -212 -181c-68 0 -113 38 -113 95c0 90 109 181 212 181z" fill="currentColor"/>
</g>
<g transform="translate(105.5771, 128.1241)">
<text font-family="serif" font-size="2.1999" text-anchor="start" fill="currentColor">
<tspan>NumberedPitchClass(10)</tspan>
</text>
</g>
<g transform="translate(104.4271, 22.6822)">
<path transform="scale(0.0040, -0.0040)" d="M31 37l-2 -62v-11c0 -22 2 -43 5 -64c43 38 89 80 89 137c0 32 -14 65 -42 65c-31 0 -49 -32 -50 -65zM-30 450c9 5 20 8 30 8s21 -3 30 -8l-8 -340c25 24 59 38 94 38c50 0 84 -50 84 -104c0 -78 -83 -117 -141 -169c-17 -15 -25 -44 -49 -44c-15 0 -26 13 -26 29z" fill="currentColor"/>
</g>
<g transform="translate(104.5429, 45.2857)">
<path transform="scale(0.0040, -0.0040)" d="M-7 375c8 5 17 7 26 7s17 -2 25 -7l-2 -192l102 23h4c10 0 19 -8 19 -18l7 -563c-8 -5 -17 -7 -26 -7s-18 2 -26 7l3 192l-102 -23h-4c-10 0 -19 8 -19 18zM129 110l-88 -19l-3 -201l88 19z" fill="currentColor"/>
</g>
<g transform="translate(104.4271, 69.3893)">
<path transform="scale(0.0040, -0.0040)" d="M31 37l-2 -62v-11c0 -22 2 -43 5 -64c43 38 89 80 89 137c0 32 -14 65 -42 65c-31 0 -49 -32 -50 -65zM-30 450c9 5 20 8 30 8s21 -3 30 -8l-8 -340c25 24 59 38 94 38c50 0 84 -50 84 -104c0 -78 -83 -117 -141 -169c-17 -15 -25 -44 -49 -44c-15 0 -26 13 -26 29z" fill="currentColor"/>
</g>
<g transform="translate(104.5429, 89.9928)">
<path transform="scale(0.0040, -0.0040)" d="M-7 375c8 5 17 7 26 7s17 -2 25 -7l-2 -192l102 23h4c10 0 19 -8 19 -18l7 -563c-8 -5 -17 -7 -26 -7s-18 2 -26 7l3 192l-102 -23h-4c-10 0 -19 8 -19 18zM129 110l-88 -19l-3 -201l88 19z" fill="currentColor"/>
</g>
<g transform="translate(104.4271, 135.1999)">
<path transform="scale(0.0040, -0.0040)" d="M31 37l-2 -62v-11c0 -22 2 -43 5 -64c43 38 89 80 89 137c0 32 -14 65 -42 65c-31 0 -49 -32 -50 -65zM-30 450c9 5 20 8 30 8s21 -3 30 -8l-8 -340c25 24 59 38 94 38c50 0 84 -50 84 -104c0 -78 -83 -117 -141 -169c-17 -15 -25 -44 -49 -44c-15 0 -26 13 -26 29z" fill="currentColor"/>
</g>
<g transform="translate(116.4714, 22.6822)">
<path transform="scale(0.0040, -0.0040)" d="M212 138c68 0 113 -38 113 -95c0 -90 -109 -181 -212 -181c-68 0 -113 38 -113 95c0 90 109 181 212 181z" fill="currentColor"/>
</g>
<g transform="translate(116.4714, 13.0888)">
<text font-family="serif" font-size="2.1999" text-anchor="start" fill="currentColor">
<tspan>NumberedPitchClass(9)</tspan>
</text>
</g>
<g transform="translate(116.4714, 46.7857)">
<path transform="scale(0.0040, -0.0040)" d="M212 138c68 0 113 -38 113 -95c0 -90 -109 -181 -212 -181c-68 0 -113 38 -113 95c0 90 109 181 212 181z" fill="currentColor"/>
</g>
<g transform="translate(116.4714, 35.6923)">
<text font-family="serif" font-size="2.1999" text-anchor="start" fill="currentColor">
<tspan>NumberedPitchClass(3)</tspan>
</text>
</g>
<g transform="translate(116.4714, 67.3893)">
<path transform="scale(0.0040, -0.0040)" d="M212 138c68 0 113 -38 113 -95c0 -90 -109 -181 -212 -181c-68 0 -113 38 -113 95c0 90 109 181 212 181z" fill="currentColor"/>
</g>
<g transform="translate(116.4714, 58.2959)">
<text font-family="serif" font-size="2.1999" text-anchor="start" fill="currentColor">
<tspan>NumberedPitchClass(11)</tspan>
</text>
</g>
<g transform="translate(116.4714, 92.9928)">
<path transform="scale(0.0040, -0.0040)" d="M212 138c68 0 113 -38 113 -95c0 -90 -109 -181 -212 -181c-68 0 -113 38 -113 95c0 90 109 181 212 181z" fill="currentColor"/>
</g>
<g transform="translate(116.4714, 80.8994)">
<text font-family="serif" font-size="2.1999" text-anchor="start" fill="currentColor">
<tspan>NumberedPitchClass(0)</tspan>
</text>
</g>
<g transform="translate(116.4714, 112.5963)">
<path transform="scale(0.0040, -0.0040)" d="M212 138c68 0 113 -38 113 -95c0 -90 -109 -181 -212 -181c-68 0 -113 38 -113 95c0 90 109 181 212 181z" fill="currentColor"/>
</g>
<g transform="translate(116.4714, 103.5029)">
<text font-family="serif" font-size="2.1999" text-anchor="start" fill="currentColor">
<tspan>NumberedPitchClass(10)</tspan>
</text>
</g>
<g transform="translate(116.4714, 135.6999)">
<path transform="scale(0.0040, -0.0040)" d="M212 138c68 0 113 -38 113 -95c0 -90 -109 -181 -212 -181c-68 0 -113 38 -113 95c0 90 109 181 212 181z" fill="currentColor"/>
</g>
<g transform="translate(116.4714, 126.1065)">
<text font-family="serif" font-size="2.1999" text-anchor="start" fill="currentColor">
<tspan>NumberedPitchClass(8)</tspan>
</text>
</g>
<g transform="translate(115.4371, 22.6822)">
<path transform="scale(0.0040, -0.0040)" d="M-7 375c8 5 17 7 26 7s17 -2 25 -7l-2 -192l102 23h4c10 0 19 -8 19 -18l7 -563c-8 -5 -17 -7 -26 -7s-18 2 -26 7l3 192l-102 -23h-4c-10 0 -19 8 -19 18zM129 110l-88 -19l-3 -201l88 19z" fill="currentColor"/>
</g>
<g transform="translate(115.3214, 46.7857)">
<path transform="scale(0.0040, -0.0040)" d="M31 37l-2 -62v-11c0 -22 2 -43 5 -64c43 38 89 80 89 137c0 32 -14 65 -42 65c-31 0 -49 -32 -50 -65zM-30 450c9 5 20 8 30 8s21 -3 30 -8l-8 -340c25 24 59 38 94 38c50 0 84 -50 84 -104c0 -78 -83 -117 -141 -169c-17 -15 -25 -44 -49 -44c-15 0 -26 13 -26 29z" fill="currentColor"/>
</g>
<g transform="translate(115.4371, 67.3893)">
<path transform="scale(0.0040, -0.0040)" d="M-7 375c8 5 17 7 26 7s17 -2 25 -7l-2 -192l102 23h4c10 0 19 -8 19 -18l7 -563c-8 -5 -17 -7 -26 -7s-18 2 -26 7l3 192l-102 -23h-4c-10 0 -19 8 -19 18zM129 110l-88 -19l-3 -201l88 19z" fill="currentColor"/>
</g>
<g transform="translate(115.3214, 112.5963)">
<path transform="scale(0.0040, -0.0040)" d="M31 37l-2 -62v-11c0 -22 2 -43 5 -64c43 38 89 80 89 137c0 32 -14 65 -42 65c-31 0 -49 -32 -50 -65zM-30 450c9 5 20 8 30 8s21 -3 30 -8l-8 -340c25 24 59 38 94 38c50 0 84 -50 84 -104c0 -78 -83 -117 -141 -169c-17 -15 -25 -44 -49 -44c-15 0 -26 13 -26 29z" fill="currentColor"/>
</g>
<g transform="translate(115.3214, 135.6999)">
<path transform="scale(0.0040, -0.0040)" d="M31 37l-2 -62v-11c0 -22 2 -43 5 -64c43 38 89 80 89 137c0 32 -14 65 -42 65c-31 0 -49 -32 -50 -65zM-30 450c9 5 20 8 30 8s21 -3 30 -8l-8 -340c25 24 59 38 94 38c50 0 84 -50 84 -104c0 -78 -83 -117 -141 -169c-17 -15 -25 -44 -49 -44c-15 0 -26 13 -26 29z" fill="currentColor"/>
</g>
<g transform="translate(49.3371, 203.6737)">
<a xlink:href="https://lilypond.org/">
<rect x="0.0000" y="-0.4748" width="50.7028" height="2.0023" fill="none" stroke="none" stroke-width="0.0"/>
</a>
</g>
<g transform="translate(49.3371, 203.6737)">
<text font-family="serif" font-size="2.1999" text-anchor="start" fill="currentColor">
<tspan>Music engraving by LilyPond 2.25.3—www.lilypond.org</tspan>
</text>
</g>
</svg>
