<svg xmlns="http://www.w3.org/2000/svg" xmlns:xlink="http://www.w3.org/1999/xlink" version="1.2" width="76.95mm" height="23.84mm" viewBox="0.0000 -2.5182 43.7900 13.5682">
<style type="text/css">
<![CDATA[
tspan { white-space: pre; }
]]>
</style>
<g transform="translate(0.0000, 10.0000)">
<line stroke-linejoin="round" stroke-linecap="round" stroke-width="0.1000" stroke="currentColor" x1="0.0500" y1="0" x2="43.6500" y2="0"/>
</g>
<g transform="translate(43.5100, 10.0000)">
<rect x="0.0000" y="-1.0500" width="0.1900" height="2.1000" ry="0.0000" fill="currentColor"/>
</g>
<g transform="translate(14.0100, 10.0000)">
<rect x="0.0000" y="-1.0500" width="0.1900" height="2.1000" ry="0.0000" fill="currentColor"/>
</g>
<g transform="translate(28.4100, 10.0000)">
<rect x="0.0000" y="-1.0500" width="0.1900" height="2.1000" ry="0.0000" fill="currentColor"/>
</g>
<g transform="translate(6.5392, 10.0000)">
<rect x="-0.0650" y="-3.0000" width="0.1300" height="2.8139" ry="0.0400" fill="currentColor"/>
</g>
<g transform="translate(5.3000, 10.0000)">
<path transform="scale(0.0040, -0.0040)" d="M218 136c55 0 108 -28 108 -89c0 -71 -55 -121 -102 -149c-35 -21 -75 -34 -116 -34c-55 0 -108 28 -108 89c0 71 55 121 102 149c35 21 75 34 116 34z" fill="currentColor"/>
</g>
<g transform="translate(35.3392, 10.0000)">
<rect x="-0.0650" y="-3.0000" width="0.1300" height="2.8139" ry="0.0400" fill="currentColor"/>
</g>
<g transform="translate(1.6742, 7.0000)">
<polygon stroke-linejoin="round" stroke-linecap="round" stroke-width="0.0800" fill="currentColor" stroke="currentColor" points="9.6900 -0.2000 9.6900 0.2000 0.0400 0.2000 0.0400 -0.2000"/>
</g>
<g transform="translate(40.1392, 10.0000)">
<rect x="-0.0650" y="-3.0000" width="0.1300" height="2.8139" ry="0.0400" fill="currentColor"/>
</g>
<g transform="translate(38.9000, 10.0000)">
<path transform="scale(0.0040, -0.0040)" d="M218 136c55 0 108 -28 108 -89c0 -71 -55 -121 -102 -149c-35 -21 -75 -34 -116 -34c-55 0 -108 28 -108 89c0 71 55 121 102 149c35 21 75 34 116 34z" fill="currentColor"/>
</g>
<g transform="translate(1.6742, 4.7600)">
<line stroke-linejoin="round" stroke-linecap="round" stroke-width="0.1600" stroke="currentColor" x1="11.5358" y1="-0.0000" x2="11.5358" y2="0.7000"/>
</g>
<g transform="translate(1.6742, 4.7600)">
<line stroke-linejoin="round" stroke-linecap="round" stroke-width="0.1600" stroke="currentColor" x1="-0.2000" y1="-0.0000" x2="-0.2000" y2="0.7000"/>
</g>
<g transform="translate(1.6742, 4.7600)">
<line stroke-linejoin="round" stroke-linecap="round" stroke-width="0.1600" stroke="currentColor" x1="11.5358" y1="-0.0000" x2="6.7118" y2="-0.0000"/>
</g>
<g transform="translate(1.6742, 4.7600)">
<line stroke-linejoin="round" stroke-linecap="round" stroke-width="0.1600" stroke="currentColor" x1="-0.2000" y1="-0.0000" x2="4.8240" y2="-0.0000"/>
</g>
<g transform="translate(6.8982, 5.3404)">
<text font-family="serif" font-style="italic" font-size="1.7461" text-anchor="start" fill="currentColor">
<tspan>3</tspan>
</text>
</g>
<g transform="translate(16.0742, 7.0000)">
<polygon stroke-linejoin="round" stroke-linecap="round" stroke-width="0.0800" fill="currentColor" stroke="currentColor" points="9.6900 -0.2000 9.6900 0.2000 0.0400 0.2000 0.0400 -0.2000"/>
</g>
<g transform="translate(16.0742, 4.7600)">
<line stroke-linejoin="round" stroke-linecap="round" stroke-width="0.1600" stroke="currentColor" x1="11.5358" y1="-0.0000" x2="11.5358" y2="0.7000"/>
</g>
<g transform="translate(16.0742, 4.7600)">
<line stroke-linejoin="round" stroke-linecap="round" stroke-width="0.1600" stroke="currentColor" x1="-0.2000" y1="-0.0000" x2="-0.2000" y2="0.7000"/>
</g>
<g transform="translate(16.0742, 4.7600)">
<line stroke-linejoin="round" stroke-linecap="round" stroke-width="0.1600" stroke="currentColor" x1="11.5358" y1="-0.0000" x2="6.7118" y2="-0.0000"/>
</g>
<g transform="translate(16.0742, 4.7600)">
<line stroke-linejoin="round" stroke-linecap="round" stroke-width="0.1600" stroke="currentColor" x1="-0.2000" y1="-0.0000" x2="4.8240" y2="-0.0000"/>
</g>
<g transform="translate(21.2982, 5.3404)">
<text font-family="serif" font-style="italic" font-size="1.7461" text-anchor="start" fill="currentColor">
<tspan>3</tspan>
</text>
</g>
<g transform="translate(30.4742, 7.0000)">
<polygon stroke-linejoin="round" stroke-linecap="round" stroke-width="0.0800" fill="currentColor" stroke="currentColor" points="9.6900 -0.2000 9.6900 0.2000 0.0400 0.2000 0.0400 -0.2000"/>
</g>
<g transform="translate(16.1392, 10.0000)">
<rect x="-0.0650" y="-3.0000" width="0.1300" height="2.8139" ry="0.0400" fill="currentColor"/>
</g>
<g transform="translate(14.9000, 10.0000)">
<path transform="scale(0.0040, -0.0040)" d="M218 136c55 0 108 -28 108 -89c0 -71 -55 -121 -102 -149c-35 -21 -75 -34 -116 -34c-55 0 -108 28 -108 89c0 71 55 121 102 149c35 21 75 34 116 34z" fill="currentColor"/>
</g>
<g transform="translate(14.0100, -0.0000)">
<path transform="scale(0.0045, -0.0045)" d="M96 131c10 2 20 4 31 4c33 0 68 -11 103 -35c22 -15 47 -24 68 -24s38 9 43 29c2 6 6 8 10 8c6 0 12 -4 12 -11c0 -65 -87 -102 -135 -102c-35 0 -70 14 -95 43c-13 16 -32 23 -49 23c-30 0 -59 -22 -62 -56c-1 -7 -6 -10 -11 -10c-6 0 -11 4 -11 11
c0 175 236 165 236 344c0 60 -21 123 -73 123c-25 0 -49 -14 -49 -37c0 -27 35 -41 35 -68c0 -38 -31 -69 -69 -69s-69 31 -69 69c0 75 72 127 152 127c96 0 186 -56 186 -145c0 -155 -156 -160 -253 -224z" fill="currentColor"/>
</g>
<g transform="translate(14.0100, 2.2535)">
<path transform="scale(0.0045, -0.0045)" d="M256 287c28 30 51 62 51 102c0 55 -57 89 -118 89c-48 0 -76 -37 -76 -73c0 -21 9 -42 30 -54zM284 270c55 -32 84 -78 84 -127c0 -73 -65 -143 -187 -143c-93 0 -181 53 -181 139c0 51 39 85 77 120c-42 28 -63 69 -63 108c0 67 61 133 175 133c81 0 160 -39 160 -111
c0 -47 -31 -85 -65 -119zM106 242c-33 -29 -64 -59 -64 -103c0 -69 66 -117 139 -117c55 0 87 43 87 84c0 25 -11 50 -36 64z" fill="currentColor"/>
</g>
<g transform="translate(11.3392, 10.0000)">
<rect x="-0.0650" y="-3.0000" width="0.1300" height="2.8139" ry="0.0400" fill="currentColor"/>
</g>
<g transform="translate(10.1000, 10.0000)">
<path transform="scale(0.0040, -0.0040)" d="M218 136c55 0 108 -28 108 -89c0 -71 -55 -121 -102 -149c-35 -21 -75 -34 -116 -34c-55 0 -108 28 -108 89c0 71 55 121 102 149c35 21 75 34 116 34z" fill="currentColor"/>
</g>
<g transform="translate(19.7000, 10.0000)">
<path transform="scale(0.0040, -0.0040)" d="M218 136c55 0 108 -28 108 -89c0 -71 -55 -121 -102 -149c-35 -21 -75 -34 -116 -34c-55 0 -108 28 -108 89c0 71 55 121 102 149c35 21 75 34 116 34z" fill="currentColor"/>
</g>
<g transform="translate(25.7392, 10.0000)">
<rect x="-0.0650" y="-3.0000" width="0.1300" height="2.8139" ry="0.0400" fill="currentColor"/>
</g>
<g transform="translate(24.5000, 10.0000)">
<path transform="scale(0.0040, -0.0040)" d="M218 136c55 0 108 -28 108 -89c0 -71 -55 -121 -102 -149c-35 -21 -75 -34 -116 -34c-55 0 -108 28 -108 89c0 71 55 121 102 149c35 21 75 34 116 34z" fill="currentColor"/>
</g>
<g transform="translate(34.1000, 10.0000)">
<path transform="scale(0.0040, -0.0040)" d="M218 136c55 0 108 -28 108 -89c0 -71 -55 -121 -102 -149c-35 -21 -75 -34 -116 -34c-55 0 -108 28 -108 89c0 71 55 121 102 149c35 21 75 34 116 34z" fill="currentColor"/>
</g>
<g transform="translate(20.9392, 10.0000)">
<rect x="-0.0650" y="-3.0000" width="0.1300" height="2.8139" ry="0.0400" fill="currentColor"/>
</g>
<g transform="translate(0.0000, -0.0000)">
<path transform="scale(0.0045, -0.0045)" d="M96 131c10 2 20 4 31 4c33 0 68 -11 103 -35c22 -15 47 -24 68 -24s38 9 43 29c2 6 6 8 10 8c6 0 12 -4 12 -11c0 -65 -87 -102 -135 -102c-35 0 -70 14 -95 43c-13 16 -32 23 -49 23c-30 0 -59 -22 -62 -56c-1 -7 -6 -10 -11 -10c-6 0 -11 4 -11 11
c0 175 236 165 236 344c0 60 -21 123 -73 123c-25 0 -49 -14 -49 -37c0 -27 35 -41 35 -68c0 -38 -31 -69 -69 -69s-69 31 -69 69c0 75 72 127 152 127c96 0 186 -56 186 -145c0 -155 -156 -160 -253 -224z" fill="currentColor"/>
</g>
<g transform="translate(0.0000, 2.2535)">
<path transform="scale(0.0045, -0.0045)" d="M256 287c28 30 51 62 51 102c0 55 -57 89 -118 89c-48 0 -76 -37 -76 -73c0 -21 9 -42 30 -54zM284 270c55 -32 84 -78 84 -127c0 -73 -65 -143 -187 -143c-93 0 -181 53 -181 139c0 51 39 85 77 120c-42 28 -63 69 -63 108c0 67 61 133 175 133c81 0 160 -39 160 -111
c0 -47 -31 -85 -65 -119zM106 242c-33 -29 -64 -59 -64 -103c0 -69 66 -117 139 -117c55 0 87 43 87 84c0 25 -11 50 -36 64z" fill="currentColor"/>
</g>
<g transform="translate(0.5000, 10.0000)">
<path transform="scale(0.0040, -0.0040)" d="M218 136c55 0 108 -28 108 -89c0 -71 -55 -121 -102 -149c-35 -21 -75 -34 -116 -34c-55 0 -108 28 -108 89c0 71 55 121 102 149c35 21 75 34 116 34z" fill="currentColor"/>
</g>
<g transform="translate(1.7392, 10.0000)">
<rect x="-0.0650" y="-3.0000" width="0.1300" height="2.8139" ry="0.0400" fill="currentColor"/>
</g>
<g transform="translate(30.5392, 10.0000)">
<rect x="-0.0650" y="-3.0000" width="0.1300" height="2.8139" ry="0.0400" fill="currentColor"/>
</g>
<g transform="translate(29.3000, 10.0000)">
<path transform="scale(0.0040, -0.0040)" d="M218 136c55 0 108 -28 108 -89c0 -71 -55 -121 -102 -149c-35 -21 -75 -34 -116 -34c-55 0 -108 28 -108 89c0 71 55 121 102 149c35 21 75 34 116 34z" fill="currentColor"/>
</g>
<g transform="translate(28.4100, -0.0000)">
<path transform="scale(0.0045, -0.0045)" d="M96 131c10 2 20 4 31 4c33 0 68 -11 103 -35c22 -15 47 -24 68 -24s38 9 43 29c2 6 6 8 10 8c6 0 12 -4 12 -11c0 -65 -87 -102 -135 -102c-35 0 -70 14 -95 43c-13 16 -32 23 -49 23c-30 0 -59 -22 -62 -56c-1 -7 -6 -10 -11 -10c-6 0 -11 4 -11 11
c0 175 236 165 236 344c0 60 -21 123 -73 123c-25 0 -49 -14 -49 -37c0 -27 35 -41 35 -68c0 -38 -31 -69 -69 -69s-69 31 -69 69c0 75 72 127 152 127c96 0 186 -56 186 -145c0 -155 -156 -160 -253 -224z" fill="currentColor"/>
</g>
<g transform="translate(28.4100, 2.2535)">
<path transform="scale(0.0045, -0.0045)" d="M256 287c28 30 51 62 51 102c0 55 -57 89 -118 89c-48 0 -76 -37 -76 -73c0 -21 9 -42 30 -54zM284 270c55 -32 84 -78 84 -127c0 -73 -65 -143 -187 -143c-93 0 -181 53 -181 139c0 51 39 85 77 120c-42 28 -63 69 -63 108c0 67 61 133 175 133c81 0 160 -39 160 -111
c0 -47 -31 -85 -65 -119zM106 242c-33 -29 -64 -59 -64 -103c0 -69 66 -117 139 -117c55 0 87 43 87 84c0 25 -11 50 -36 64z" fill="currentColor"/>
</g>
<g transform="translate(30.4742, 4.7600)">
<line stroke-linejoin="round" stroke-linecap="round" stroke-width="0.1600" stroke="currentColor" x1="13.2358" y1="-0.0000" x2="13.2358" y2="0.7000"/>
</g>
<g transform="translate(30.4742, 4.7600)">
<line stroke-linejoin="round" stroke-linecap="round" stroke-width="0.1600" stroke="currentColor" x1="-0.2000" y1="-0.0000" x2="-0.2000" y2="0.7000"/>
</g>
<g transform="translate(30.4742, 4.7600)">
<line stroke-linejoin="round" stroke-linecap="round" stroke-width="0.1600" stroke="currentColor" x1="13.2358" y1="-0.0000" x2="7.5618" y2="-0.0000"/>
</g>
<g transform="translate(30.4742, 4.7600)">
<line stroke-linejoin="round" stroke-linecap="round" stroke-width="0.1600" stroke="currentColor" x1="-0.2000" y1="-0.0000" x2="5.6740" y2="-0.0000"/>
</g>
<g transform="translate(36.5482, 5.3404)">
<text font-family="serif" font-style="italic" font-size="1.7461" text-anchor="start" fill="currentColor">
<tspan>3</tspan>
</text>
</g>
</svg>
