<svg xmlns="http://www.w3.org/2000/svg" xmlns:xlink="http://www.w3.org/1999/xlink" version="1.2" width="210.00mm" height="297.00mm" viewBox="0.0000 -0.0000 119.5016 169.0094">
<style type="text/css">
<![CDATA[
tspan { white-space: pre; }
]]>
</style>
<g transform="translate(8.5358, 14.8837)">
<rect x="99.4066" y="-0.1000" width="1.9563" height="0.2000" ry="0.1000" fill="currentColor"/>
</g>
<g transform="translate(8.5358, 14.8837)">
<rect x="16.6069" y="-0.1000" width="1.9563" height="0.2000" ry="0.1000" fill="currentColor"/>
</g>
<g transform="translate(17.0717, 13.8837)">
<line stroke-linejoin="round" stroke-linecap="round" stroke-width="0.1000" stroke="currentColor" x1="0.0500" y1="0" x2="93.8441" y2="0"/>
</g>
<g transform="translate(17.0717, 12.8837)">
<line stroke-linejoin="round" stroke-linecap="round" stroke-width="0.1000" stroke="currentColor" x1="0.0500" y1="0" x2="93.8441" y2="0"/>
</g>
<g transform="translate(17.0717, 11.8837)">
<line stroke-linejoin="round" stroke-linecap="round" stroke-width="0.1000" stroke="currentColor" x1="0.0500" y1="0" x2="93.8441" y2="0"/>
</g>
<g transform="translate(17.0717, 10.8837)">
<line stroke-linejoin="round" stroke-linecap="round" stroke-width="0.1000" stroke="currentColor" x1="0.0500" y1="0" x2="93.8441" y2="0"/>
</g>
<g transform="translate(17.0717, 9.8837)">
<line stroke-linejoin="round" stroke-linecap="round" stroke-width="0.1000" stroke="currentColor" x1="0.0500" y1="0" x2="93.8441" y2="0"/>
</g>
<g transform="translate(78.7813, 6.6906)">
<rect x="0.0000" y="7.2432" width="0.1900" height="6.0032" ry="0.0000" fill="currentColor"/>
</g>
<g transform="translate(8.5358, 24.9369)">
<rect x="61.1223" y="-0.1000" width="1.9563" height="0.2000" ry="0.1000" fill="currentColor"/>
</g>
<g transform="translate(8.5358, 24.9369)">
<rect x="59.0433" y="-0.1000" width="1.9563" height="0.2000" ry="0.1000" fill="currentColor"/>
</g>
<g transform="translate(17.0717, 23.9369)">
<line stroke-linejoin="round" stroke-linecap="round" stroke-width="0.1000" stroke="currentColor" x1="0.0500" y1="0" x2="93.8441" y2="0"/>
</g>
<g transform="translate(17.0717, 22.9369)">
<line stroke-linejoin="round" stroke-linecap="round" stroke-width="0.1000" stroke="currentColor" x1="0.0500" y1="0" x2="93.8441" y2="0"/>
</g>
<g transform="translate(17.0717, 21.9369)">
<line stroke-linejoin="round" stroke-linecap="round" stroke-width="0.1000" stroke="currentColor" x1="0.0500" y1="0" x2="93.8441" y2="0"/>
</g>
<g transform="translate(17.0717, 20.9369)">
<line stroke-linejoin="round" stroke-linecap="round" stroke-width="0.1000" stroke="currentColor" x1="0.0500" y1="0" x2="93.8441" y2="0"/>
</g>
<g transform="translate(17.0717, 19.9369)">
<line stroke-linejoin="round" stroke-linecap="round" stroke-width="0.1000" stroke="currentColor" x1="0.0500" y1="0" x2="93.8441" y2="0"/>
</g>
<g transform="translate(78.7813, 21.9369)">
<rect x="0.0000" y="-2.0500" width="0.1900" height="4.0500" ry="0.0000" fill="currentColor"/>
</g>
<g transform="translate(78.7813, 11.8837)">
<rect x="0.0000" y="-2.0000" width="0.1900" height="4.0500" ry="0.0000" fill="currentColor"/>
</g>
<g transform="translate(16.7117, 16.9103)">
<path transform="scale(0.0040, -0.0040)" d="M-84 -387c0 270 -138 384 -138 387c0 21 138 99 138 387c0 267 -111 579 -111 870c0 360 189 507 195 507c9 0 18 -6 18 -15c0 -24 -141 -102 -141 -393c0 -261 108 -570 108 -855c0 -180 -42 -354 -180 -501c138 -147 180 -321 180 -501c0 -285 -108 -594 -108 -855
c0 -291 141 -369 141 -393c0 -9 -9 -18 -18 -18c-6 0 -195 150 -195 510c0 291 111 603 111 870z" fill="currentColor"/>
</g>
<g transform="translate(17.0117, 16.9103)">
<rect x="0.0000" y="-7.0766" width="0.1600" height="14.1532" ry="0.0500" fill="currentColor"/>
</g>
<g transform="translate(93.8550, 19.1269)">
<polygon stroke-linejoin="round" stroke-linecap="round" stroke-width="0.0800" fill="currentColor" stroke="currentColor" points="10.7972 -0.2000 10.7972 0.2000 0.0400 0.2000 0.0400 -0.2000"/>
</g>
<g transform="translate(93.8550, 19.9369)">
<polygon stroke-linejoin="round" stroke-linecap="round" stroke-width="0.0800" fill="currentColor" stroke="currentColor" points="10.7972 -0.2000 10.7972 0.2000 0.0400 0.2000 0.0400 -0.2000"/>
</g>
<g transform="translate(93.8550, 9.8837)">
<polygon stroke-linejoin="round" stroke-linecap="round" stroke-width="0.0800" fill="currentColor" stroke="currentColor" points="9.7578 -0.2000 9.7578 0.2000 0.0400 0.2000 0.0400 -0.2000"/>
</g>
<g transform="translate(93.8550, 10.6937)">
<polygon stroke-linejoin="round" stroke-linecap="round" stroke-width="0.0800" fill="currentColor" stroke="currentColor" points="9.7578 -0.2000 9.7578 0.2000 0.0400 0.2000 0.0400 -0.2000"/>
</g>
<g transform="translate(25.4688, 14.8837)">
<path transform="scale(0.0040, -0.0040)" d="M0 -46c0 91 116 182 217 182c63 0 109 -35 109 -90c0 -87 -110 -182 -220 -182c-67 0 -106 39 -106 90z" fill="currentColor"/>
</g>
<g transform="translate(26.1209, 16.6376)">
<path transform="scale(0.0040, -0.0040)" d="M-173 68c-8 2 -15 9 -15 18c0 10 9 19 19 19c2 0 3 -1 5 -1l337 -86c8 -2 15 -9 15 -18s-7 -16 -15 -18l-337 -86c-2 0 -3 -1 -5 -1c-10 0 -19 9 -19 19c0 9 7 16 15 18l206 53l109 15l-109 15z" fill="currentColor"/>
</g>
<g transform="translate(17.8717, 12.8837)">
<path transform="scale(0.0040, -0.0040)" d="M266 -635h-6c-108 0 -195 88 -195 197c0 58 53 103 112 103c54 0 95 -47 95 -103c0 -52 -43 -95 -95 -95c-11 0 -21 2 -31 6c26 -39 68 -65 117 -65h4zM401 151c19 -89 48 -242 60 -354c76 27 112 94 112 163c0 89 -60 179 -172 191zM74 28c0 -112 98 -247 278 -247
c21 0 44 2 68 6c-7 64 -29 203 -63 364c-79 -8 -124 -61 -124 -119c0 -44 25 -91 81 -123c5 -5 7 -10 7 -15c0 -11 -10 -22 -22 -22c-15 0 -126 62 -126 187c0 88 58 174 160 197c-14 58 -29 117 -46 175c-107 -121 -213 -243 -213 -403zM357 1194c28 0 143 -206 143 -361
c0 -143 -86 -255 -180 -364c21 -68 39 -138 56 -207c5 0 10 1 14 1c155 0 255 -129 255 -262c0 -113 -74 -212 -180 -245c3 -35 5 -70 5 -105c0 -19 -1 -39 -2 -58c-7 -119 -88 -225 -202 -228l1 43c93 2 153 92 159 191c1 18 2 37 2 55c0 31 -1 61 -4 92
c-28 -5 -55 -8 -80 -8c-239 0 -342 217 -342 374c0 177 131 306 248 441c-29 96 -52 170 -52 346c0 189 144 295 159 295zM247 782c0 -55 12 -115 35 -190c83 100 147 202 147 326c0 40 -6 82 -21 127c-49 -24 -161 -97 -161 -263z" fill="currentColor"/>
</g>
<g transform="translate(21.9567, 11.8837)">
<path transform="scale(0.0040, -0.0040)" d="M433 -89c0 -22 -50 -174 -183 -174c-59 0 -250 19 -250 263c0 62 18 262 250 262c116 0 176 -106 176 -163c0 -40 -30 -72 -67 -72c-31 0 -75 25 -75 75c0 38 27 77 72 77c4 0 9 0 14 -1c-28 37 -72 59 -120 59c-106 0 -113 -73 -113 -186v-51v-51
c0 -113 7 -187 113 -187c80 0 139 70 158 151c2 7 7 10 12 10c6 0 13 -4 13 -12z" fill="currentColor"/>
</g>
<g transform="translate(25.4688, 20.9369)">
<path transform="scale(0.0040, -0.0040)" d="M0 -46c0 91 116 182 217 182c63 0 109 -35 109 -90c0 -87 -110 -182 -220 -182c-67 0 -106 39 -106 90z" fill="currentColor"/>
</g>
<g transform="translate(26.1209, 24.6069)">
<path transform="scale(0.0040, -0.0040)" d="M-173 68c-8 2 -15 9 -15 18c0 10 9 19 19 19c2 0 3 -1 5 -1l337 -86c8 -2 15 -9 15 -18s-7 -16 -15 -18l-337 -86c-2 0 -3 -1 -5 -1c-10 0 -19 9 -19 19c0 9 7 16 15 18l206 53l109 15l-109 15z" fill="currentColor"/>
</g>
<g transform="translate(17.8717, 22.9369)">
<path transform="scale(0.0040, -0.0040)" d="M266 -635h-6c-108 0 -195 88 -195 197c0 58 53 103 112 103c54 0 95 -47 95 -103c0 -52 -43 -95 -95 -95c-11 0 -21 2 -31 6c26 -39 68 -65 117 -65h4zM401 151c19 -89 48 -242 60 -354c76 27 112 94 112 163c0 89 -60 179 -172 191zM74 28c0 -112 98 -247 278 -247
c21 0 44 2 68 6c-7 64 -29 203 -63 364c-79 -8 -124 -61 -124 -119c0 -44 25 -91 81 -123c5 -5 7 -10 7 -15c0 -11 -10 -22 -22 -22c-15 0 -126 62 -126 187c0 88 58 174 160 197c-14 58 -29 117 -46 175c-107 -121 -213 -243 -213 -403zM357 1194c28 0 143 -206 143 -361
c0 -143 -86 -255 -180 -364c21 -68 39 -138 56 -207c5 0 10 1 14 1c155 0 255 -129 255 -262c0 -113 -74 -212 -180 -245c3 -35 5 -70 5 -105c0 -19 -1 -39 -2 -58c-7 -119 -88 -225 -202 -228l1 43c93 2 153 92 159 191c1 18 2 37 2 55c0 31 -1 61 -4 92
c-28 -5 -55 -8 -80 -8c-239 0 -342 217 -342 374c0 177 131 306 248 441c-29 96 -52 170 -52 346c0 189 144 295 159 295zM247 782c0 -55 12 -115 35 -190c83 100 147 202 147 326c0 40 -6 82 -21 127c-49 -24 -161 -97 -161 -263z" fill="currentColor"/>
</g>
<g transform="translate(21.9567, 21.9369)">
<path transform="scale(0.0040, -0.0040)" d="M433 -89c0 -22 -50 -174 -183 -174c-59 0 -250 19 -250 263c0 62 18 262 250 262c116 0 176 -106 176 -163c0 -40 -30 -72 -67 -72c-31 0 -75 25 -75 75c0 38 27 77 72 77c4 0 9 0 14 -1c-28 37 -72 59 -120 59c-106 0 -113 -73 -113 -186v-51v-51
c0 -113 7 -187 113 -187c80 0 139 70 158 151c2 7 7 10 12 10c6 0 13 -4 13 -12z" fill="currentColor"/>
</g>
<g transform="translate(26.7080, 11.8837)">
<rect x="-0.0650" y="-2.0000" width="0.1300" height="4.8138" ry="0.0400" fill="currentColor"/>
</g>
<g transform="translate(26.7080, 21.9369)">
<rect x="-0.0650" y="-3.4900" width="0.1300" height="2.3038" ry="0.0400" fill="currentColor"/>
</g>
<g transform="translate(105.5712, 11.8837)">
<path stroke-width="0.0800" stroke-linejoin="round" stroke-linecap="round" stroke="currentColor" fill="currentColor" d="M0.5010 3.5450C0.9588 4.4769 2.2436 4.9532 3.1982 4.5450L3.1982 4.5450C2.2853 4.8407 1.0005 4.3644 0.5010 3.5450z"/>
</g>
<g transform="translate(27.9019, 13.3837)">
<path transform="scale(0.0040, -0.0040)" d="M0 -46c0 91 116 182 217 182c63 0 109 -35 109 -90c0 -87 -110 -182 -220 -182c-67 0 -106 39 -106 90z" fill="currentColor"/>
</g>
<g transform="translate(28.5540, 14.3837)">
<path transform="scale(0.0040, -0.0040)" d="M-50 0c0 28 22 50 50 50s50 -22 50 -50s-22 -50 -50 -50s-50 22 -50 50z" fill="currentColor"/>
</g>
<g transform="translate(29.1411, 11.8837)">
<rect x="-0.0650" y="-2.0000" width="0.1300" height="3.3138" ry="0.0400" fill="currentColor"/>
</g>
<g transform="translate(101.3091, 21.9369)">
<path stroke-width="0.0800" stroke-linejoin="round" stroke-linecap="round" stroke="currentColor" fill="currentColor" d="M1.2634 -3.5500C2.6874 -4.6750 6.3454 -4.4712 7.6356 -3.1950L7.6356 -3.1950C6.3387 -4.3514 2.6807 -4.5552 1.2634 -3.5500z"/>
</g>
<g transform="translate(28.9414, 22.4369)">
<path transform="scale(0.0040, -0.0040)" d="M0 -46c0 91 116 182 217 182c63 0 109 -35 109 -90c0 -87 -110 -182 -220 -182c-67 0 -106 39 -106 90z" fill="currentColor"/>
</g>
<g transform="translate(30.1806, 21.9369)">
<rect x="-0.0650" y="-2.9584" width="0.1300" height="3.2722" ry="0.0400" fill="currentColor"/>
</g>
<g transform="translate(80.9647, 19.1269)">
<polygon stroke-linejoin="round" stroke-linecap="round" stroke-width="0.0800" fill="currentColor" stroke="currentColor" points="9.7578 -1.5800 9.7578 -1.1800 0.0400 0.2000 0.0400 -0.2000"/>
</g>
<g transform="translate(80.9647, 19.9369)">
<polygon stroke-linejoin="round" stroke-linecap="round" stroke-width="0.0800" fill="currentColor" stroke="currentColor" points="9.7578 -1.5800 9.7578 -1.1800 0.0400 0.2000 0.0400 -0.2000"/>
</g>
<g transform="translate(29.9809, 12.8837)">
<path transform="scale(0.0040, -0.0040)" d="M0 -46c0 91 116 182 217 182c63 0 109 -35 109 -90c0 -87 -110 -182 -220 -182c-67 0 -106 39 -106 90z" fill="currentColor"/>
</g>
<g transform="translate(30.6330, 16.1356)">
<path transform="scale(0.0040, -0.0040)" d="M-173 68c-8 2 -15 9 -15 18c0 10 9 19 19 19c2 0 3 -1 5 -1l337 -86c8 -2 15 -9 15 -18s-7 -16 -15 -18l-337 -86c-2 0 -3 -1 -5 -1c-10 0 -19 9 -19 19c0 9 7 16 15 18l206 53l109 15l-109 15z" fill="currentColor"/>
</g>
<g transform="translate(31.2201, 11.8837)">
<rect x="-0.0650" y="-2.0000" width="0.1300" height="2.8138" ry="0.0400" fill="currentColor"/>
</g>
<g transform="translate(80.9647, 8.3837)">
<polygon stroke-linejoin="round" stroke-linecap="round" stroke-width="0.0800" fill="currentColor" stroke="currentColor" points="10.7972 0.3000 10.7972 0.7000 0.0400 0.2000 0.0400 -0.2000"/>
</g>
<g transform="translate(80.9647, 9.1937)">
<polygon stroke-linejoin="round" stroke-linecap="round" stroke-width="0.0800" fill="currentColor" stroke="currentColor" points="10.7972 0.3000 10.7972 0.7000 0.0400 0.2000 0.0400 -0.2000"/>
</g>
<g transform="translate(32.1640, 12.3837)">
<path transform="scale(0.0040, -0.0040)" d="M0 -46c0 91 116 182 217 182c63 0 109 -35 109 -90c0 -87 -110 -182 -220 -182c-67 0 -106 39 -106 90z" fill="currentColor"/>
</g>
<g transform="translate(32.1640, 22.9369)">
<path transform="scale(0.0040, -0.0040)" d="M0 -46c0 91 116 182 217 182c63 0 109 -35 109 -90c0 -87 -110 -182 -220 -182c-67 0 -106 39 -106 90z" fill="currentColor"/>
</g>
<g transform="translate(33.4032, 11.8837)">
<rect x="-0.0650" y="-2.0000" width="0.1300" height="2.3138" ry="0.0400" fill="currentColor"/>
</g>
<g transform="translate(33.4032, 21.9369)">
<rect x="-0.0650" y="-2.4650" width="0.1300" height="3.2788" ry="0.0400" fill="currentColor"/>
</g>
<g transform="translate(98.8298, 18.3666)">
<text font-family="serif" font-style="italic" font-size="1.7459" text-anchor="start" fill="currentColor">
<tspan>3</tspan>
</text>
</g>
<g transform="translate(34.0971, 14.3837)">
<path transform="scale(0.0040, -0.0040)" d="M0 -46c0 91 116 182 217 182c63 0 109 -35 109 -90c0 -87 -110 -182 -220 -182c-67 0 -106 39 -106 90z" fill="currentColor"/>
</g>
<g transform="translate(35.3363, 11.8837)">
<rect x="-0.0650" y="-2.0000" width="0.1300" height="4.3138" ry="0.0400" fill="currentColor"/>
</g>
<g transform="translate(35.1366, 23.4369)">
<path transform="scale(0.0040, -0.0040)" d="M0 -46c0 91 116 182 217 182c63 0 109 -35 109 -90c0 -87 -110 -182 -220 -182c-67 0 -106 39 -106 90z" fill="currentColor"/>
</g>
<g transform="translate(35.7887, 24.4369)">
<path transform="scale(0.0040, -0.0040)" d="M-50 0c0 28 22 50 50 50s50 -22 50 -50s-22 -50 -50 -50s-50 22 -50 50z" fill="currentColor"/>
</g>
<g transform="translate(36.3758, 21.9369)">
<rect x="-0.0650" y="-2.0100" width="0.1300" height="3.3238" ry="0.0400" fill="currentColor"/>
</g>
<g transform="translate(92.6808, 21.9369)">
<path stroke-width="0.0800" stroke-linejoin="round" stroke-linecap="round" stroke="currentColor" fill="currentColor" d="M0.7765 3.0450C2.5180 3.8378 6.4505 2.6631 7.4717 1.0450L7.4717 1.0450C6.4161 2.5481 2.4836 3.7228 0.7765 3.0450z"/>
</g>
<g transform="translate(36.1760, 12.8837)">
<path transform="scale(0.0040, -0.0040)" d="M0 -46c0 91 116 182 217 182c63 0 109 -35 109 -90c0 -87 -110 -182 -220 -182c-67 0 -106 39 -106 90z" fill="currentColor"/>
</g>
<g transform="translate(36.8281, 14.3837)">
<path transform="scale(0.0040, -0.0040)" d="M-50 0c0 28 22 50 50 50s50 -22 50 -50s-22 -50 -50 -50s-50 22 -50 50z" fill="currentColor"/>
</g>
<g transform="translate(37.4152, 11.8837)">
<rect x="-0.0650" y="-2.0000" width="0.1300" height="2.8138" ry="0.0400" fill="currentColor"/>
</g>
<g transform="translate(92.6808, 11.8837)">
<path stroke-width="0.0800" stroke-linejoin="round" stroke-linecap="round" stroke="currentColor" fill="currentColor" d="M0.6521 3.1950C2.4045 4.6377 8.5675 4.6377 10.3199 3.1950L10.3199 3.1950C8.5675 4.5177 2.4045 4.5177 0.6521 3.1950z"/>
</g>
<g transform="translate(38.3592, 12.3837)">
<path transform="scale(0.0040, -0.0040)" d="M0 -46c0 91 116 182 217 182c63 0 109 -35 109 -90c0 -87 -110 -182 -220 -182c-67 0 -106 39 -106 90z" fill="currentColor"/>
</g>
<g transform="translate(39.0113, 14.9541)">
<path transform="scale(0.0040, -0.0040)" d="M-173 68c-8 2 -15 9 -15 18c0 10 9 19 19 19c2 0 3 -1 5 -1l337 -86c8 -2 15 -9 15 -18s-7 -16 -15 -18l-337 -86c-2 0 -3 -1 -5 -1c-10 0 -19 9 -19 19c0 9 7 16 15 18l206 53l109 15l-109 15z" fill="currentColor"/>
</g>
<g transform="translate(38.3592, 21.4369)">
<path transform="scale(0.0040, -0.0040)" d="M0 -46c0 91 116 182 217 182c63 0 109 -35 109 -90c0 -87 -110 -182 -220 -182c-67 0 -106 39 -106 90z" fill="currentColor"/>
</g>
<g transform="translate(39.0113, 24.6069)">
<path transform="scale(0.0040, -0.0040)" d="M-173 68c-8 2 -15 9 -15 18c0 10 9 19 19 19c2 0 3 -1 5 -1l337 -86c8 -2 15 -9 15 -18s-7 -16 -15 -18l-337 -86c-2 0 -3 -1 -5 -1c-10 0 -19 9 -19 19c0 9 7 16 15 18l206 53l109 15l-109 15z" fill="currentColor"/>
</g>
<g transform="translate(39.5984, 11.8837)">
<rect x="-0.0650" y="-2.8100" width="0.1300" height="3.1238" ry="0.0400" fill="currentColor"/>
</g>
<g transform="translate(39.5984, 21.9369)">
<rect x="-0.0650" y="-3.9973" width="0.1300" height="3.3111" ry="0.0400" fill="currentColor"/>
</g>
<g transform="translate(84.0525, 11.8837)">
<path stroke-width="0.0800" stroke-linejoin="round" stroke-linecap="round" stroke="currentColor" fill="currentColor" d="M0.6521 2.0450C2.0201 3.2535 5.7293 3.2535 7.0973 2.0450L7.0973 2.0450C5.7293 3.1335 2.0201 3.1335 0.6521 2.0450z"/>
</g>
<g transform="translate(40.2923, 22.9369)">
<path transform="scale(0.0040, -0.0040)" d="M0 -46c0 91 116 182 217 182c63 0 109 -35 109 -90c0 -87 -110 -182 -220 -182c-67 0 -106 39 -106 90z" fill="currentColor"/>
</g>
<g transform="translate(41.5315, 21.9369)">
<rect x="-0.0650" y="-3.9179" width="0.1300" height="4.7317" ry="0.0400" fill="currentColor"/>
</g>
<g transform="translate(66.8963, 21.1269)">
<polygon stroke-linejoin="round" stroke-linecap="round" stroke-width="0.0800" fill="currentColor" stroke="currentColor" points="10.7972 -1.3900 10.7972 -0.9900 0.0400 0.2000 0.0400 -0.2000"/>
</g>
<g transform="translate(66.8963, 21.9369)">
<polygon stroke-linejoin="round" stroke-linecap="round" stroke-width="0.0800" fill="currentColor" stroke="currentColor" points="10.7972 -1.3900 10.7972 -0.9900 0.0400 0.2000 0.0400 -0.2000"/>
</g>
<g transform="translate(41.3318, 11.8837)">
<path transform="scale(0.0040, -0.0040)" d="M0 -46c0 91 116 182 217 182c63 0 109 -35 109 -90c0 -87 -110 -182 -220 -182c-67 0 -106 39 -106 90z" fill="currentColor"/>
</g>
<g transform="translate(42.5710, 11.8837)">
<rect x="-0.0650" y="-2.8100" width="0.1300" height="2.6238" ry="0.0400" fill="currentColor"/>
</g>
<g transform="translate(66.8963, 7.8837)">
<polygon stroke-linejoin="round" stroke-linecap="round" stroke-width="0.0800" fill="currentColor" stroke="currentColor" points="9.7578 0.9900 9.7578 1.3900 0.0400 0.2000 0.0400 -0.2000"/>
</g>
<g transform="translate(66.8963, 8.6937)">
<polygon stroke-linejoin="round" stroke-linecap="round" stroke-width="0.0800" fill="currentColor" stroke="currentColor" points="9.7578 0.9900 9.7578 1.3900 0.0400 0.2000 0.0400 -0.2000"/>
</g>
<g transform="translate(42.3712, 23.4369)">
<path transform="scale(0.0040, -0.0040)" d="M0 -46c0 91 116 182 217 182c63 0 109 -35 109 -90c0 -87 -110 -182 -220 -182c-67 0 -106 39 -106 90z" fill="currentColor"/>
</g>
<g transform="translate(43.6104, 21.9369)">
<rect x="-0.0650" y="-3.8325" width="0.1300" height="5.1463" ry="0.0400" fill="currentColor"/>
</g>
<g transform="translate(79.7905, 21.9369)">
<path stroke-width="0.0800" stroke-linejoin="round" stroke-linecap="round" stroke="currentColor" fill="currentColor" d="M0.7122 3.5450C2.6574 4.7351 8.8353 3.8725 10.3800 2.1950L10.3800 2.1950C8.8187 3.7536 2.6408 4.6163 0.7122 3.5450z"/>
</g>
<g transform="translate(45.3454, 13.8837)">
<path transform="scale(0.0040, -0.0040)" d="M0 -46c0 91 116 182 217 182c63 0 109 -35 109 -90c0 -87 -110 -182 -220 -182c-67 0 -106 39 -106 90z" fill="currentColor"/>
</g>
<g transform="translate(45.3454, 23.9369)">
<path transform="scale(0.0040, -0.0040)" d="M0 -46c0 91 116 182 217 182c63 0 109 -35 109 -90c0 -87 -110 -182 -220 -182c-67 0 -106 39 -106 90z" fill="currentColor"/>
</g>
<g transform="translate(45.9975, 24.8819)">
<path transform="scale(0.0040, -0.0040)" d="M-50 0c0 28 22 50 50 50s50 -22 50 -50s-22 -50 -50 -50s-50 22 -50 50z" fill="currentColor"/>
</g>
<g transform="translate(46.5846, 11.8837)">
<rect x="-0.0650" y="-2.8100" width="0.1300" height="4.6238" ry="0.0400" fill="currentColor"/>
</g>
<g transform="translate(46.5846, 21.9369)">
<rect x="-0.0650" y="-3.7103" width="0.1300" height="5.5241" ry="0.0400" fill="currentColor"/>
</g>
<g transform="translate(44.1954, 23.9369)">
<path transform="scale(0.0040, -0.0040)" d="M27 41l-1 -66v-11c0 -22 1 -44 4 -66c45 38 93 80 93 139c0 33 -14 67 -43 67c-31 0 -52 -30 -53 -63zM-15 -138l-12 595c8 5 18 8 27 8s19 -3 27 -8l-7 -345c25 21 58 34 91 34c52 0 89 -48 89 -102c0 -80 -86 -117 -147 -169c-15 -13 -24 -38 -45 -38
c-13 0 -23 11 -23 25z" fill="currentColor"/>
</g>
<g transform="translate(85.9394, 7.8705)">
<text font-family="serif" font-style="italic" font-size="1.7459" text-anchor="start" fill="currentColor">
<tspan>3</tspan>
</text>
</g>
<g transform="translate(48.3196, 21.9369)">
<path transform="scale(0.0040, -0.0040)" d="M0 -46c0 91 116 182 217 182c63 0 109 -35 109 -90c0 -87 -110 -182 -220 -182c-67 0 -106 39 -106 90z" fill="currentColor"/>
</g>
<g transform="translate(48.9717, 24.7229)">
<path transform="scale(0.0040, -0.0040)" d="M-173 68c-8 2 -15 9 -15 18c0 10 9 19 19 19c2 0 3 -1 5 -1l337 -86c8 -2 15 -9 15 -18s-7 -16 -15 -18l-337 -86c-2 0 -3 -1 -5 -1c-10 0 -19 9 -19 19c0 9 7 16 15 18l206 53l109 15l-109 15z" fill="currentColor"/>
</g>
<g transform="translate(49.5588, 21.9369)">
<rect x="-0.0650" y="-3.5881" width="0.1300" height="3.4019" ry="0.0400" fill="currentColor"/>
</g>
<g transform="translate(47.1696, 21.9369)">
<path transform="scale(0.0040, -0.0040)" d="M27 41l-1 -66v-11c0 -22 1 -44 4 -66c45 38 93 80 93 139c0 33 -14 67 -43 67c-31 0 -52 -30 -53 -63zM-15 -138l-12 595c8 5 18 8 27 8s19 -3 27 -8l-7 -345c25 21 58 34 91 34c52 0 89 -48 89 -102c0 -80 -86 -117 -147 -169c-15 -13 -24 -38 -45 -38
c-13 0 -23 11 -23 25z" fill="currentColor"/>
</g>
<g transform="translate(49.3591, 12.3837)">
<path transform="scale(0.0040, -0.0040)" d="M0 -46c0 91 116 182 217 182c63 0 109 -35 109 -90c0 -87 -110 -182 -220 -182c-67 0 -106 39 -106 90z" fill="currentColor"/>
</g>
<g transform="translate(50.0112, 13.3837)">
<path transform="scale(0.0040, -0.0040)" d="M-50 0c0 28 22 50 50 50s50 -22 50 -50s-22 -50 -50 -50s-50 22 -50 50z" fill="currentColor"/>
</g>
<g transform="translate(50.5983, 11.8837)">
<rect x="-0.0650" y="-2.8100" width="0.1300" height="3.1238" ry="0.0400" fill="currentColor"/>
</g>
<g transform="translate(79.7905, 11.8837)">
<path stroke-width="0.0800" stroke-linejoin="round" stroke-linecap="round" stroke="currentColor" fill="currentColor" d="M0.5280 1.5460C0.9531 2.2963 1.9463 2.5920 2.7112 2.1960L2.7112 2.1960C1.9805 2.4770 0.9873 2.1812 0.5280 1.5460z"/>
</g>
<g transform="translate(50.3986, 23.4369)">
<path transform="scale(0.0040, -0.0040)" d="M0 -46c0 91 116 182 217 182c63 0 109 -35 109 -90c0 -87 -110 -182 -220 -182c-67 0 -106 39 -106 90z" fill="currentColor"/>
</g>
<g transform="translate(51.6378, 21.9369)">
<rect x="-0.0650" y="-3.5027" width="0.1300" height="4.8165" ry="0.0400" fill="currentColor"/>
</g>
<g transform="translate(69.9841, 21.9369)">
<path stroke-width="0.0800" stroke-linejoin="round" stroke-linecap="round" stroke="currentColor" fill="currentColor" d="M0.7809 4.0450C2.4939 4.8085 6.2463 3.6441 7.2261 2.0450L7.2261 2.0450C6.2108 3.5295 2.4583 4.6939 0.7809 4.0450z"/>
</g>
<g transform="translate(52.5817, 11.8837)">
<path transform="scale(0.0040, -0.0040)" d="M0 -46c0 91 116 182 217 182c63 0 109 -35 109 -90c0 -87 -110 -182 -220 -182c-67 0 -106 39 -106 90z" fill="currentColor"/>
</g>
<g transform="translate(53.2338, 14.5537)">
<path transform="scale(0.0040, -0.0040)" d="M-173 68c-8 2 -15 9 -15 18c0 10 9 19 19 19c2 0 3 -1 5 -1l337 -86c8 -2 15 -9 15 -18s-7 -16 -15 -18l-337 -86c-2 0 -3 -1 -5 -1c-10 0 -19 9 -19 19c0 9 7 16 15 18l206 53l109 15l-109 15z" fill="currentColor"/>
</g>
<g transform="translate(52.5817, 23.9369)">
<path transform="scale(0.0040, -0.0040)" d="M0 -46c0 91 116 182 217 182c63 0 109 -35 109 -90c0 -87 -110 -182 -220 -182c-67 0 -106 39 -106 90z" fill="currentColor"/>
</g>
<g transform="translate(53.8209, 11.8837)">
<rect x="-0.0650" y="-3.0029" width="0.1300" height="2.8167" ry="0.0400" fill="currentColor"/>
</g>
<g transform="translate(53.8209, 21.9369)">
<rect x="-0.0650" y="-1.8100" width="0.1300" height="3.6238" ry="0.0400" fill="currentColor"/>
</g>
<g transform="translate(53.7559, 20.1269)">
<polygon stroke-linejoin="round" stroke-linecap="round" stroke-width="0.0800" fill="currentColor" stroke="currentColor" points="10.0078 -0.2000 10.0078 0.2000 0.0400 0.2000 0.0400 -0.2000"/>
</g>
<g transform="translate(53.7559, 20.9369)">
<polygon stroke-linejoin="round" stroke-linecap="round" stroke-width="0.0800" fill="currentColor" stroke="currentColor" points="10.0078 -0.2000 10.0078 0.2000 0.0400 0.2000 0.0400 -0.2000"/>
</g>
<g transform="translate(54.7648, 11.3837)">
<path transform="scale(0.0040, -0.0040)" d="M0 -46c0 91 116 182 217 182c63 0 109 -35 109 -90c0 -87 -110 -182 -220 -182c-67 0 -106 39 -106 90z" fill="currentColor"/>
</g>
<g transform="translate(55.4169, 12.3837)">
<path transform="scale(0.0040, -0.0040)" d="M-50 0c0 28 22 50 50 50s50 -22 50 -50s-22 -50 -50 -50s-50 22 -50 50z" fill="currentColor"/>
</g>
<g transform="translate(56.0040, 11.8837)">
<rect x="-0.0650" y="-3.1014" width="0.1300" height="2.4152" ry="0.0400" fill="currentColor"/>
</g>
<g transform="translate(53.7559, 8.8837)">
<polygon stroke-linejoin="round" stroke-linecap="round" stroke-width="0.0800" fill="currentColor" stroke="currentColor" points="11.0472 -0.7000 11.0472 -0.3000 0.0400 0.2000 0.0400 -0.2000"/>
</g>
<g transform="translate(53.7559, 9.6937)">
<polygon stroke-linejoin="round" stroke-linecap="round" stroke-width="0.0800" fill="currentColor" stroke="currentColor" points="11.0472 -0.7000 11.0472 -0.3000 0.0400 0.2000 0.0400 -0.2000"/>
</g>
<g transform="translate(55.8043, 24.4369)">
<path transform="scale(0.0040, -0.0040)" d="M0 -46c0 91 116 182 217 182c63 0 109 -35 109 -90c0 -87 -110 -182 -220 -182c-67 0 -106 39 -106 90z" fill="currentColor"/>
</g>
<g transform="translate(56.4564, 25.3819)">
<path transform="scale(0.0040, -0.0040)" d="M-50 0c0 28 22 50 50 50s50 -22 50 -50s-22 -50 -50 -50s-50 22 -50 50z" fill="currentColor"/>
</g>
<g transform="translate(57.0435, 21.9369)">
<rect x="-0.0650" y="-1.8100" width="0.1300" height="4.1238" ry="0.0400" fill="currentColor"/>
</g>
<g transform="translate(71.8710, 19.7646)">
<text font-family="serif" font-style="italic" font-size="1.7459" text-anchor="start" fill="currentColor">
<tspan>3</tspan>
</text>
</g>
<g transform="translate(56.8438, 13.3837)">
<path transform="scale(0.0040, -0.0040)" d="M0 -46c0 91 116 182 217 182c63 0 109 -35 109 -90c0 -87 -110 -182 -220 -182c-67 0 -106 39 -106 90z" fill="currentColor"/>
</g>
<g transform="translate(57.4959, 15.2925)">
<path transform="scale(0.0040, -0.0040)" d="M-173 68c-8 2 -15 9 -15 18c0 10 9 19 19 19c2 0 3 -1 5 -1l337 -86c8 -2 15 -9 15 -18s-7 -16 -15 -18l-337 -86c-2 0 -3 -1 -5 -1c-10 0 -19 9 -19 19c0 9 7 16 15 18l206 53l109 15l-109 15z" fill="currentColor"/>
</g>
<g transform="translate(58.0830, 11.8837)">
<rect x="-0.0650" y="-3.1951" width="0.1300" height="4.5089" ry="0.0400" fill="currentColor"/>
</g>
<g transform="translate(59.2769, 11.8837)">
<path transform="scale(0.0040, -0.0040)" d="M0 -46c0 91 116 182 217 182c63 0 109 -35 109 -90c0 -87 -110 -182 -220 -182c-67 0 -106 39 -106 90z" fill="currentColor"/>
</g>
<g transform="translate(59.2769, 22.4369)">
<path transform="scale(0.0040, -0.0040)" d="M0 -46c0 91 116 182 217 182c63 0 109 -35 109 -90c0 -87 -110 -182 -220 -182c-67 0 -106 39 -106 90z" fill="currentColor"/>
</g>
<g transform="translate(59.9290, 25.0063)">
<path transform="scale(0.0040, -0.0040)" d="M-173 68c-8 2 -15 9 -15 18c0 10 9 19 19 19c2 0 3 -1 5 -1l337 -86c8 -2 15 -9 15 -18s-7 -16 -15 -18l-337 -86c-2 0 -3 -1 -5 -1c-10 0 -19 9 -19 19c0 9 7 16 15 18l206 53l109 15l-109 15z" fill="currentColor"/>
</g>
<g transform="translate(60.5161, 11.8837)">
<rect x="-0.0650" y="-3.3049" width="0.1300" height="3.1187" ry="0.0400" fill="currentColor"/>
</g>
<g transform="translate(60.5161, 21.9369)">
<rect x="-0.0650" y="-1.8100" width="0.1300" height="2.1238" ry="0.0400" fill="currentColor"/>
</g>
<g transform="translate(65.7221, 11.8837)">
<path stroke-width="0.0800" stroke-linejoin="round" stroke-linecap="round" stroke="currentColor" fill="currentColor" d="M0.5292 0.1950C1.8354 2.1067 8.0626 3.9424 10.1970 3.0450L10.1970 3.0450C8.0965 3.8273 1.8694 1.9916 0.5292 0.1950z"/>
</g>
<g transform="translate(61.4600, 11.3837)">
<path transform="scale(0.0040, -0.0040)" d="M0 -46c0 91 116 182 217 182c63 0 109 -35 109 -90c0 -87 -110 -182 -220 -182c-67 0 -106 39 -106 90z" fill="currentColor"/>
</g>
<g transform="translate(62.6992, 11.8837)">
<rect x="-0.0650" y="-3.4033" width="0.1300" height="2.7171" ry="0.0400" fill="currentColor"/>
</g>
<g transform="translate(59.2769, 21.9369)">
<path stroke-width="0.0800" stroke-linejoin="round" stroke-linecap="round" stroke="currentColor" fill="currentColor" d="M0.5093 1.5450C1.6481 3.4363 7.0711 5.3219 9.1376 4.5450L9.1376 4.5450C7.1105 5.2085 1.6875 3.3230 0.5093 1.5450z"/>
</g>
<g transform="translate(62.4995, 23.9369)">
<path transform="scale(0.0040, -0.0040)" d="M0 -46c0 91 116 182 217 182c63 0 109 -35 109 -90c0 -87 -110 -182 -220 -182c-67 0 -106 39 -106 90z" fill="currentColor"/>
</g>
<g transform="translate(63.7387, 21.9369)">
<rect x="-0.0650" y="-1.8100" width="0.1300" height="3.6238" ry="0.0400" fill="currentColor"/>
</g>
<g transform="translate(56.8438, 11.8837)">
<path stroke-width="0.0800" stroke-linejoin="round" stroke-linecap="round" stroke="currentColor" fill="currentColor" d="M0.7380 2.5450C2.3766 3.4838 6.2865 2.6955 7.4332 1.1950L7.4332 1.1950C6.2628 2.5778 2.3529 3.3662 0.7380 2.5450z"/>
</g>
<g transform="translate(63.5389, 10.8837)">
<path transform="scale(0.0040, -0.0040)" d="M0 -46c0 91 116 182 217 182c63 0 109 -35 109 -90c0 -87 -110 -182 -220 -182c-67 0 -106 39 -106 90z" fill="currentColor"/>
</g>
<g transform="translate(64.1910, 12.3837)">
<path transform="scale(0.0040, -0.0040)" d="M-50 0c0 28 22 50 50 50s50 -22 50 -50s-22 -50 -50 -50s-50 22 -50 50z" fill="currentColor"/>
</g>
<g transform="translate(64.7781, 11.8837)">
<rect x="-0.0650" y="-3.4971" width="0.1300" height="2.3109" ry="0.0400" fill="currentColor"/>
</g>
<g transform="translate(39.5334, 17.9369)">
<polygon stroke-linejoin="round" stroke-linecap="round" stroke-width="0.0800" fill="currentColor" stroke="currentColor" points="12.1294 0.3000 12.1294 0.7000 0.0400 0.2000 0.0400 -0.2000"/>
</g>
<g transform="translate(39.5334, 18.7469)">
<polygon stroke-linejoin="round" stroke-linecap="round" stroke-width="0.0800" fill="currentColor" stroke="currentColor" points="12.1294 0.3000 12.1294 0.7000 0.0400 0.2000 0.0400 -0.2000"/>
</g>
<g transform="translate(65.7221, 10.8837)">
<path transform="scale(0.0040, -0.0040)" d="M0 -46c0 91 116 182 217 182c63 0 109 -35 109 -90c0 -87 -110 -182 -220 -182c-67 0 -106 39 -106 90z" fill="currentColor"/>
</g>
<g transform="translate(66.3742, 14.5537)">
<path transform="scale(0.0040, -0.0040)" d="M-173 68c-8 2 -15 9 -15 18c0 10 9 19 19 19c2 0 3 -1 5 -1l337 -86c8 -2 15 -9 15 -18s-7 -16 -15 -18l-337 -86c-2 0 -3 -1 -5 -1c-10 0 -19 9 -19 19c0 9 7 16 15 18l206 53l109 15l-109 15z" fill="currentColor"/>
</g>
<g transform="translate(65.7221, 24.4369)">
<path transform="scale(0.0040, -0.0040)" d="M0 -46c0 91 116 182 217 182c63 0 109 -35 109 -90c0 -87 -110 -182 -220 -182c-67 0 -106 39 -106 90z" fill="currentColor"/>
</g>
<g transform="translate(66.9613, 11.8837)">
<rect x="-0.0650" y="-3.9921" width="0.1300" height="2.8059" ry="0.0400" fill="currentColor"/>
</g>
<g transform="translate(66.9613, 21.9369)">
<rect x="-0.0650" y="-0.8171" width="0.1300" height="3.1309" ry="0.0400" fill="currentColor"/>
</g>
<g transform="translate(39.5334, 9.0737)">
<polygon stroke-linejoin="round" stroke-linecap="round" stroke-width="0.0800" fill="currentColor" stroke="currentColor" points="11.0899 -0.2000 11.0899 0.2000 0.0400 0.2000 0.0400 -0.2000"/>
</g>
<g transform="translate(39.5334, 9.8837)">
<polygon stroke-linejoin="round" stroke-linecap="round" stroke-width="0.0800" fill="currentColor" stroke="currentColor" points="11.0899 -0.2000 11.0899 0.2000 0.0400 0.2000 0.0400 -0.2000"/>
</g>
<g transform="translate(67.9052, 24.9369)">
<path transform="scale(0.0040, -0.0040)" d="M0 -46c0 91 116 182 217 182c63 0 109 -35 109 -90c0 -87 -110 -182 -220 -182c-67 0 -106 39 -106 90z" fill="currentColor"/>
</g>
<g transform="translate(68.5573, 25.8819)">
<path transform="scale(0.0040, -0.0040)" d="M-50 0c0 28 22 50 50 50s50 -22 50 -50s-22 -50 -50 -50s-50 22 -50 50z" fill="currentColor"/>
</g>
<g transform="translate(69.1444, 21.9369)">
<rect x="-0.0650" y="-1.0569" width="0.1300" height="3.8707" ry="0.0400" fill="currentColor"/>
</g>
<g transform="translate(58.8557, 7.8706)">
<text font-family="serif" font-style="italic" font-size="1.7459" text-anchor="start" fill="currentColor">
<tspan>3</tspan>
</text>
</g>
<g transform="translate(68.9447, 11.3837)">
<path transform="scale(0.0040, -0.0040)" d="M0 -46c0 91 116 182 217 182c63 0 109 -35 109 -90c0 -87 -110 -182 -220 -182c-67 0 -106 39 -106 90z" fill="currentColor"/>
</g>
<g transform="translate(70.1839, 11.8837)">
<rect x="-0.0650" y="-3.6007" width="0.1300" height="2.9145" ry="0.0400" fill="currentColor"/>
</g>
<g transform="translate(69.9841, 24.9369)">
<path transform="scale(0.0040, -0.0040)" d="M0 -46c0 91 116 182 217 182c63 0 109 -35 109 -90c0 -87 -110 -182 -220 -182c-67 0 -106 39 -106 90z" fill="currentColor"/>
</g>
<g transform="translate(70.6362, 26.7680)">
<path transform="scale(0.0040, -0.0040)" d="M-173 68c-8 2 -15 9 -15 18c0 10 9 19 19 19c2 0 3 -1 5 -1l337 -86c8 -2 15 -9 15 -18s-7 -16 -15 -18l-337 -86c-2 0 -3 -1 -5 -1c-10 0 -19 9 -19 19c0 9 7 16 15 18l206 53l109 15l-109 15z" fill="currentColor"/>
</g>
<g transform="translate(71.2233, 21.9369)">
<rect x="-0.0650" y="-1.2851" width="0.1300" height="4.0989" ry="0.0400" fill="currentColor"/>
</g>
<g transform="translate(52.5817, 11.8837)">
<path stroke-width="0.0800" stroke-linejoin="round" stroke-linecap="round" stroke="currentColor" fill="currentColor" d="M0.6819 1.1950C1.3200 1.7292 2.3060 1.6615 2.8650 1.0450L2.8650 1.0450C2.2977 1.5418 1.3118 1.6095 0.6819 1.1950z"/>
</g>
<g transform="translate(72.1673, 11.8837)">
<path transform="scale(0.0040, -0.0040)" d="M0 -46c0 91 116 182 217 182c63 0 109 -35 109 -90c0 -87 -110 -182 -220 -182c-67 0 -106 39 -106 90z" fill="currentColor"/>
</g>
<g transform="translate(72.1673, 24.4369)">
<path transform="scale(0.0040, -0.0040)" d="M0 -46c0 91 116 182 217 182c63 0 109 -35 109 -90c0 -87 -110 -182 -220 -182c-67 0 -106 39 -106 90z" fill="currentColor"/>
</g>
<g transform="translate(73.4065, 11.8837)">
<rect x="-0.0650" y="-3.2093" width="0.1300" height="3.0231" ry="0.0400" fill="currentColor"/>
</g>
<g transform="translate(73.4065, 21.9369)">
<rect x="-0.0650" y="-1.5249" width="0.1300" height="3.8387" ry="0.0400" fill="currentColor"/>
</g>
<g transform="translate(48.3196, 21.9369)">
<path stroke-width="0.0800" stroke-linejoin="round" stroke-linecap="round" stroke="currentColor" fill="currentColor" d="M0.4974 1.1950C1.4879 3.0048 6.0387 4.7376 7.9821 4.0450L7.9821 4.0450C6.0814 4.6255 1.5306 2.8926 0.4974 1.1950z"/>
</g>
<g transform="translate(74.3504, 23.9369)">
<path transform="scale(0.0040, -0.0040)" d="M0 -46c0 91 116 182 217 182c63 0 109 -35 109 -90c0 -87 -110 -182 -220 -182c-67 0 -106 39 -106 90z" fill="currentColor"/>
</g>
<g transform="translate(75.5896, 21.9369)">
<rect x="-0.0650" y="-1.7646" width="0.1300" height="3.5784" ry="0.0400" fill="currentColor"/>
</g>
<g transform="translate(26.6430, 18.4369)">
<polygon stroke-linejoin="round" stroke-linecap="round" stroke-width="0.0800" fill="currentColor" stroke="currentColor" points="9.7578 1.3000 9.7578 1.7000 0.0400 0.2000 0.0400 -0.2000"/>
</g>
<g transform="translate(26.6430, 19.2469)">
<polygon stroke-linejoin="round" stroke-linecap="round" stroke-width="0.0800" fill="currentColor" stroke="currentColor" points="9.7578 1.3000 9.7578 1.7000 0.0400 0.2000 0.0400 -0.2000"/>
</g>
<g transform="translate(75.3899, 13.3837)">
<path transform="scale(0.0040, -0.0040)" d="M0 -46c0 91 116 182 217 182c63 0 109 -35 109 -90c0 -87 -110 -182 -220 -182c-67 0 -106 39 -106 90z" fill="currentColor"/>
</g>
<g transform="translate(76.0420, 14.3837)">
<path transform="scale(0.0040, -0.0040)" d="M-50 0c0 28 22 50 50 50s50 -22 50 -50s-22 -50 -50 -50s-50 22 -50 50z" fill="currentColor"/>
</g>
<g transform="translate(76.6291, 11.8837)">
<rect x="-0.0650" y="-2.8179" width="0.1300" height="4.1317" ry="0.0400" fill="currentColor"/>
</g>
<g transform="translate(26.6430, 9.8837)">
<polygon stroke-linejoin="round" stroke-linecap="round" stroke-width="0.0800" fill="currentColor" stroke="currentColor" points="10.7972 -0.2000 10.7972 0.2000 0.0400 0.2000 0.0400 -0.2000"/>
</g>
<g transform="translate(26.6430, 10.6937)">
<polygon stroke-linejoin="round" stroke-linecap="round" stroke-width="0.0800" fill="currentColor" stroke="currentColor" points="10.7972 -0.2000 10.7972 0.2000 0.0400 0.2000 0.0400 -0.2000"/>
</g>
<g transform="translate(76.4293, 22.4369)">
<path transform="scale(0.0040, -0.0040)" d="M0 -46c0 91 116 182 217 182c63 0 109 -35 109 -90c0 -87 -110 -182 -220 -182c-67 0 -106 39 -106 90z" fill="currentColor"/>
</g>
<g transform="translate(77.0814, 23.4369)">
<path transform="scale(0.0040, -0.0040)" d="M-50 0c0 28 22 50 50 50s50 -22 50 -50s-22 -50 -50 -50s-50 22 -50 50z" fill="currentColor"/>
</g>
<g transform="translate(77.6685, 21.9369)">
<rect x="-0.0650" y="-1.9929" width="0.1300" height="2.3067" ry="0.0400" fill="currentColor"/>
</g>
<g transform="translate(45.1742, 17.4240)">
<text font-family="serif" font-style="italic" font-size="1.7459" text-anchor="start" fill="currentColor">
<tspan>3</tspan>
</text>
</g>
<g transform="translate(79.7905, 11.3837)">
<path transform="scale(0.0040, -0.0040)" d="M0 -46c0 91 116 182 217 182c63 0 109 -35 109 -90c0 -87 -110 -182 -220 -182c-67 0 -106 39 -106 90z" fill="currentColor"/>
</g>
<g transform="translate(80.4426, 14.7276)">
<path transform="scale(0.0040, -0.0040)" d="M-173 68c-8 2 -15 9 -15 18c0 10 9 19 19 19c2 0 3 -1 5 -1l337 -86c8 -2 15 -9 15 -18s-7 -16 -15 -18l-337 -86c-2 0 -3 -1 -5 -1c-10 0 -19 9 -19 19c0 9 7 16 15 18l206 53l109 15l-109 15z" fill="currentColor"/>
</g>
<g transform="translate(79.7905, 24.4369)">
<path transform="scale(0.0040, -0.0040)" d="M0 -46c0 91 116 182 217 182c63 0 109 -35 109 -90c0 -87 -110 -182 -220 -182c-67 0 -106 39 -106 90z" fill="currentColor"/>
</g>
<g transform="translate(80.4426, 26.3799)">
<path transform="scale(0.0040, -0.0040)" d="M-173 68c-8 2 -15 9 -15 18c0 10 9 19 19 19c2 0 3 -1 5 -1l337 -86c8 -2 15 -9 15 -18s-7 -16 -15 -18l-337 -86c-2 0 -3 -1 -5 -1c-10 0 -19 9 -19 19c0 9 7 16 15 18l206 53l109 15l-109 15z" fill="currentColor"/>
</g>
<g transform="translate(81.0297, 11.8837)">
<rect x="-0.0650" y="-3.4970" width="0.1300" height="2.8108" ry="0.0400" fill="currentColor"/>
</g>
<g transform="translate(81.0297, 21.9369)">
<rect x="-0.0650" y="-2.8192" width="0.1300" height="5.1330" ry="0.0400" fill="currentColor"/>
</g>
<g transform="translate(38.3592, 21.9369)">
<path stroke-width="0.0800" stroke-linejoin="round" stroke-linecap="round" stroke="currentColor" fill="currentColor" d="M0.4806 0.5450C1.3613 2.3473 5.5535 4.1475 7.4668 3.5450L7.4668 3.5450C5.6008 4.0372 1.4086 2.2370 0.4806 0.5450z"/>
</g>
<g transform="translate(81.9736, 11.8837)">
<path transform="scale(0.0040, -0.0040)" d="M0 -46c0 91 116 182 217 182c63 0 109 -35 109 -90c0 -87 -110 -182 -220 -182c-67 0 -106 39 -106 90z" fill="currentColor"/>
</g>
<g transform="translate(82.6257, 13.3837)">
<path transform="scale(0.0040, -0.0040)" d="M-50 0c0 28 22 50 50 50s50 -22 50 -50s-22 -50 -50 -50s-50 22 -50 50z" fill="currentColor"/>
</g>
<g transform="translate(83.2128, 11.8837)">
<rect x="-0.0650" y="-3.3963" width="0.1300" height="3.2101" ry="0.0400" fill="currentColor"/>
</g>
<g transform="translate(38.3592, 11.8837)">
<path stroke-width="0.0800" stroke-linejoin="round" stroke-linecap="round" stroke="currentColor" fill="currentColor" d="M0.6521 2.0450C2.5324 3.5529 9.7717 3.5529 11.6520 2.0450L11.6520 2.0450C9.7717 3.4329 2.5324 3.4329 0.6521 2.0450z"/>
</g>
<g transform="translate(83.0131, 23.9369)">
<path transform="scale(0.0040, -0.0040)" d="M0 -46c0 91 116 182 217 182c63 0 109 -35 109 -90c0 -87 -110 -182 -220 -182c-67 0 -106 39 -106 90z" fill="currentColor"/>
</g>
<g transform="translate(84.2523, 21.9369)">
<rect x="-0.0650" y="-3.2731" width="0.1300" height="5.0869" ry="0.0400" fill="currentColor"/>
</g>
<g transform="translate(81.8631, 23.9369)">
<path transform="scale(0.0040, -0.0040)" d="M27 41l-1 -66v-11c0 -22 1 -44 4 -66c45 38 93 80 93 139c0 33 -14 67 -43 67c-31 0 -52 -30 -53 -63zM-15 -138l-12 595c8 5 18 8 27 8s19 -3 27 -8l-7 -345c25 21 58 34 91 34c52 0 89 -48 89 -102c0 -80 -86 -117 -147 -169c-15 -13 -24 -38 -45 -38
c-13 0 -23 11 -23 25z" fill="currentColor"/>
</g>
<g transform="translate(29.9809, 11.8837)">
<path stroke-width="0.0800" stroke-linejoin="round" stroke-linecap="round" stroke="currentColor" fill="currentColor" d="M0.6521 3.1950C1.9847 4.3789 5.5146 4.3789 6.8473 3.1950L6.8473 3.1950C5.5146 4.2589 1.9847 4.2589 0.6521 3.1950z"/>
</g>
<g transform="translate(84.0525, 12.3837)">
<path transform="scale(0.0040, -0.0040)" d="M0 -46c0 91 116 182 217 182c63 0 109 -35 109 -90c0 -87 -110 -182 -220 -182c-67 0 -106 39 -106 90z" fill="currentColor"/>
</g>
<g transform="translate(84.7046, 14.9848)">
<path transform="scale(0.0040, -0.0040)" d="M-173 68c-8 2 -15 9 -15 18c0 10 9 19 19 19c2 0 3 -1 5 -1l337 -86c8 -2 15 -9 15 -18s-7 -16 -15 -18l-337 -86c-2 0 -3 -1 -5 -1c-10 0 -19 9 -19 19c0 9 7 16 15 18l206 53l109 15l-109 15z" fill="currentColor"/>
</g>
<g transform="translate(85.2917, 11.8837)">
<rect x="-0.0650" y="-3.3004" width="0.1300" height="3.6142" ry="0.0400" fill="currentColor"/>
</g>
<g transform="translate(25.4688, 21.9369)">
<path stroke-width="0.0800" stroke-linejoin="round" stroke-linecap="round" stroke="currentColor" fill="currentColor" d="M0.5292 0.1950C1.8354 2.1067 8.0626 3.9424 10.1970 3.0450L10.1970 3.0450C8.0965 3.8273 1.8694 1.9916 0.5292 0.1950z"/>
</g>
<g transform="translate(85.9856, 13.8837)">
<path transform="scale(0.0040, -0.0040)" d="M0 -46c0 91 116 182 217 182c63 0 109 -35 109 -90c0 -87 -110 -182 -220 -182c-67 0 -106 39 -106 90z" fill="currentColor"/>
</g>
<g transform="translate(85.9856, 23.4369)">
<path transform="scale(0.0040, -0.0040)" d="M0 -46c0 91 116 182 217 182c63 0 109 -35 109 -90c0 -87 -110 -182 -220 -182c-67 0 -106 39 -106 90z" fill="currentColor"/>
</g>
<g transform="translate(87.2248, 11.8837)">
<rect x="-0.0650" y="-3.2112" width="0.1300" height="5.0250" ry="0.0400" fill="currentColor"/>
</g>
<g transform="translate(87.2248, 21.9369)">
<rect x="-0.0650" y="-3.6917" width="0.1300" height="5.0055" ry="0.0400" fill="currentColor"/>
</g>
<g transform="translate(31.6178, 9.1235)">
<text font-family="serif" font-style="italic" font-size="1.7459" text-anchor="start" fill="currentColor">
<tspan>3</tspan>
</text>
</g>
<g transform="translate(88.4188, 11.8837)">
<path transform="scale(0.0040, -0.0040)" d="M0 -46c0 91 116 182 217 182c63 0 109 -35 109 -90c0 -87 -110 -182 -220 -182c-67 0 -106 39 -106 90z" fill="currentColor"/>
</g>
<g transform="translate(89.6580, 11.8837)">
<rect x="-0.0650" y="-3.0989" width="0.1300" height="2.9127" ry="0.0400" fill="currentColor"/>
</g>
<g transform="translate(89.4582, 21.9369)">
<path transform="scale(0.0040, -0.0040)" d="M0 -46c0 91 116 182 217 182c63 0 109 -35 109 -90c0 -87 -110 -182 -220 -182c-67 0 -106 39 -106 90z" fill="currentColor"/>
</g>
<g transform="translate(90.1103, 23.4369)">
<path transform="scale(0.0040, -0.0040)" d="M-50 0c0 28 22 50 50 50s50 -22 50 -50s-22 -50 -50 -50s-50 22 -50 50z" fill="currentColor"/>
</g>
<g transform="translate(90.6974, 21.9369)">
<rect x="-0.0650" y="-4.1808" width="0.1300" height="3.9946" ry="0.0400" fill="currentColor"/>
</g>
<g transform="translate(88.3082, 21.9369)">
<path transform="scale(0.0040, -0.0040)" d="M27 41l-1 -66v-11c0 -22 1 -44 4 -66c45 38 93 80 93 139c0 33 -14 67 -43 67c-31 0 -52 -30 -53 -63zM-15 -138l-12 595c8 5 18 8 27 8s19 -3 27 -8l-7 -345c25 21 58 34 91 34c52 0 89 -48 89 -102c0 -80 -86 -117 -147 -169c-15 -13 -24 -38 -45 -38
c-13 0 -23 11 -23 25z" fill="currentColor"/>
</g>
<g transform="translate(25.4688, 11.8837)">
<path stroke-width="0.0800" stroke-linejoin="round" stroke-linecap="round" stroke="currentColor" fill="currentColor" d="M0.8174 4.0450C1.7184 4.3958 2.8565 3.9281 3.2505 3.0450L3.2505 3.0450C2.8109 3.8171 1.6728 4.2849 0.8174 4.0450z"/>
</g>
<g transform="translate(90.4977, 12.3837)">
<path transform="scale(0.0040, -0.0040)" d="M0 -46c0 91 116 182 217 182c63 0 109 -35 109 -90c0 -87 -110 -182 -220 -182c-67 0 -106 39 -106 90z" fill="currentColor"/>
</g>
<g transform="translate(91.1498, 13.3837)">
<path transform="scale(0.0040, -0.0040)" d="M-50 0c0 28 22 50 50 50s50 -22 50 -50s-22 -50 -50 -50s-50 22 -50 50z" fill="currentColor"/>
</g>
<g transform="translate(91.7369, 11.8837)">
<rect x="-0.0650" y="-3.0030" width="0.1300" height="3.3168" ry="0.0400" fill="currentColor"/>
</g>
<g transform="translate(92.6808, 12.8837)">
<path transform="scale(0.0040, -0.0040)" d="M0 -46c0 91 116 182 217 182c63 0 109 -35 109 -90c0 -87 -110 -182 -220 -182c-67 0 -106 39 -106 90z" fill="currentColor"/>
</g>
<g transform="translate(93.3329, 16.1143)">
<path transform="scale(0.0040, -0.0040)" d="M-173 68c-8 2 -15 9 -15 18c0 10 9 19 19 19c2 0 3 -1 5 -1l337 -86c8 -2 15 -9 15 -18s-7 -16 -15 -18l-337 -86c-2 0 -3 -1 -5 -1c-10 0 -19 9 -19 19c0 9 7 16 15 18l206 53l109 15l-109 15z" fill="currentColor"/>
</g>
<g transform="translate(92.6808, 23.9369)">
<path transform="scale(0.0040, -0.0040)" d="M0 -46c0 91 116 182 217 182c63 0 109 -35 109 -90c0 -87 -110 -182 -220 -182c-67 0 -106 39 -106 90z" fill="currentColor"/>
</g>
<g transform="translate(93.3329, 25.7746)">
<path transform="scale(0.0040, -0.0040)" d="M-173 68c-8 2 -15 9 -15 18c0 10 9 19 19 19c2 0 3 -1 5 -1l337 -86c8 -2 15 -9 15 -18s-7 -16 -15 -18l-337 -86c-2 0 -3 -1 -5 -1c-10 0 -19 9 -19 19c0 9 7 16 15 18l206 53l109 15l-109 15z" fill="currentColor"/>
</g>
<g transform="translate(93.9200, 11.8837)">
<rect x="-0.0650" y="-2.0000" width="0.1300" height="2.8138" ry="0.0400" fill="currentColor"/>
</g>
<g transform="translate(93.9200, 21.9369)">
<rect x="-0.0650" y="-2.8100" width="0.1300" height="4.6238" ry="0.0400" fill="currentColor"/>
</g>
<g transform="translate(94.8640, 23.4369)">
<path transform="scale(0.0040, -0.0040)" d="M0 -46c0 91 116 182 217 182c63 0 109 -35 109 -90c0 -87 -110 -182 -220 -182c-67 0 -106 39 -106 90z" fill="currentColor"/>
</g>
<g transform="translate(96.1032, 21.9369)">
<rect x="-0.0650" y="-2.8100" width="0.1300" height="4.1238" ry="0.0400" fill="currentColor"/>
</g>
<g transform="translate(108.3985, 24.3969)">
<path transform="scale(0.0040, -0.0040)" d="M0 205c91 51 211 131 211 233c0 24 -5 48 -14 70c-79 -89 -197 -160 -197 -282v-21zM234 752c32 0 33 -83 33 -89c0 -44 -16 -82 -39 -116c16 -35 25 -71 25 -109c0 -181 -253 -257 -253 -438h-16v555h16v-125c97 49 224 128 224 233c0 37 -13 58 -13 66
c0 14 11 23 23 23z" fill="currentColor"/>
</g>
<g transform="translate(95.9034, 14.3837)">
<path transform="scale(0.0040, -0.0040)" d="M0 -46c0 91 116 182 217 182c63 0 109 -35 109 -90c0 -87 -110 -182 -220 -182c-67 0 -106 39 -106 90z" fill="currentColor"/>
</g>
<g transform="translate(97.1426, 11.8837)">
<rect x="-0.0650" y="-2.0000" width="0.1300" height="4.3138" ry="0.0400" fill="currentColor"/>
</g>
<g transform="translate(96.9429, 22.9369)">
<path transform="scale(0.0040, -0.0040)" d="M0 -46c0 91 116 182 217 182c63 0 109 -35 109 -90c0 -87 -110 -182 -220 -182c-67 0 -106 39 -106 90z" fill="currentColor"/>
</g>
<g transform="translate(98.1821, 21.9369)">
<rect x="-0.0650" y="-2.8100" width="0.1300" height="3.6238" ry="0.0400" fill="currentColor"/>
</g>
<g transform="translate(108.3335, 21.9369)">
<rect x="-0.0650" y="-0.8138" width="0.1300" height="3.3138" ry="0.0400" fill="currentColor"/>
</g>
<g transform="translate(99.3760, 12.3837)">
<path transform="scale(0.0040, -0.0040)" d="M0 -46c0 91 116 182 217 182c63 0 109 -35 109 -90c0 -87 -110 -182 -220 -182c-67 0 -106 39 -106 90z" fill="currentColor"/>
</g>
<g transform="translate(99.3760, 21.4369)">
<path transform="scale(0.0040, -0.0040)" d="M0 -46c0 91 116 182 217 182c63 0 109 -35 109 -90c0 -87 -110 -182 -220 -182c-67 0 -106 39 -106 90z" fill="currentColor"/>
</g>
<g transform="translate(100.0281, 22.4369)">
<path transform="scale(0.0040, -0.0040)" d="M-50 0c0 28 22 50 50 50s50 -22 50 -50s-22 -50 -50 -50s-50 22 -50 50z" fill="currentColor"/>
</g>
<g transform="translate(100.6152, 11.8837)">
<rect x="-0.0650" y="-2.0000" width="0.1300" height="2.3138" ry="0.0400" fill="currentColor"/>
</g>
<g transform="translate(100.6152, 21.9369)">
<rect x="-0.0650" y="-2.8100" width="0.1300" height="2.1238" ry="0.0400" fill="currentColor"/>
</g>
<g transform="translate(101.3091, 23.4369)">
<path transform="scale(0.0040, -0.0040)" d="M0 -46c0 91 116 182 217 182c63 0 109 -35 109 -90c0 -87 -110 -182 -220 -182c-67 0 -106 39 -106 90z" fill="currentColor"/>
</g>
<g transform="translate(101.9612, 24.6069)">
<path transform="scale(0.0040, -0.0040)" d="M-173 68c-8 2 -15 9 -15 18c0 10 9 19 19 19c2 0 3 -1 5 -1l337 -86c8 -2 15 -9 15 -18s-7 -16 -15 -18l-337 -86c-2 0 -3 -1 -5 -1c-10 0 -19 9 -19 19c0 9 7 16 15 18l206 53l109 15l-109 15z" fill="currentColor"/>
</g>
<g transform="translate(102.5483, 21.9369)">
<rect x="-0.0650" y="-2.8100" width="0.1300" height="4.1238" ry="0.0400" fill="currentColor"/>
</g>
<g transform="translate(102.3486, 12.8837)">
<path transform="scale(0.0040, -0.0040)" d="M0 -46c0 91 116 182 217 182c63 0 109 -35 109 -90c0 -87 -110 -182 -220 -182c-67 0 -106 39 -106 90z" fill="currentColor"/>
</g>
<g transform="translate(103.0007, 14.3837)">
<path transform="scale(0.0040, -0.0040)" d="M-50 0c0 28 22 50 50 50s50 -22 50 -50s-22 -50 -50 -50s-50 22 -50 50z" fill="currentColor"/>
</g>
<g transform="translate(103.5878, 11.8837)">
<rect x="-0.0650" y="-2.0000" width="0.1300" height="2.8138" ry="0.0400" fill="currentColor"/>
</g>
<g transform="translate(109.5727, 11.4237)">
<path transform="scale(0.0040, -0.0040)" d="M123 -854c0 10 42 76 42 172c0 97 -94 190 -165 257v-125h-16v550h16c0 -177 201 -293 201 -470c0 -33 -9 -65 -23 -95c18 -37 29 -75 29 -117c0 -63 -15 -125 -41 -183c-5 -8 -13 -12 -20 -12c-12 0 -23 9 -23 23zM151 -517c5 15 8 31 8 47c0 96 -91 190 -159 257
c0 -118 90 -206 151 -304z" fill="currentColor"/>
</g>
<g transform="translate(103.3881, 22.9369)">
<path transform="scale(0.0040, -0.0040)" d="M0 -46c0 91 116 182 217 182c63 0 109 -35 109 -90c0 -87 -110 -182 -220 -182c-67 0 -106 39 -106 90z" fill="currentColor"/>
</g>
<g transform="translate(104.6273, 21.9369)">
<rect x="-0.0650" y="-2.8100" width="0.1300" height="3.6238" ry="0.0400" fill="currentColor"/>
</g>
<g transform="translate(105.5712, 13.3837)">
<path transform="scale(0.0040, -0.0040)" d="M0 -46c0 91 116 182 217 182c63 0 109 -35 109 -90c0 -87 -110 -182 -220 -182c-67 0 -106 39 -106 90z" fill="currentColor"/>
</g>
<g transform="translate(106.2233, 14.5537)">
<path transform="scale(0.0040, -0.0040)" d="M-173 68c-8 2 -15 9 -15 18c0 10 9 19 19 19c2 0 3 -1 5 -1l337 -86c8 -2 15 -9 15 -18s-7 -16 -15 -18l-337 -86c-2 0 -3 -1 -5 -1c-10 0 -19 9 -19 19c0 9 7 16 15 18l206 53l109 15l-109 15z" fill="currentColor"/>
</g>
<g transform="translate(105.5712, 22.4369)">
<path transform="scale(0.0040, -0.0040)" d="M0 -46c0 91 116 182 217 182c63 0 109 -35 109 -90c0 -87 -110 -182 -220 -182c-67 0 -106 39 -106 90z" fill="currentColor"/>
</g>
<g transform="translate(106.8104, 11.8837)">
<rect x="-0.0650" y="-2.0000" width="0.1300" height="3.3138" ry="0.0400" fill="currentColor"/>
</g>
<g transform="translate(106.8754, 9.9237)">
<path transform="scale(0.0040, -0.0040)" d="M123 -854c0 10 42 76 42 172c0 97 -94 190 -165 257v-125h-16v550h16c0 -177 201 -293 201 -470c0 -33 -9 -65 -23 -95c18 -37 29 -75 29 -117c0 -63 -15 -125 -41 -183c-5 -8 -13 -12 -20 -12c-12 0 -23 9 -23 23zM151 -517c5 15 8 31 8 47c0 96 -91 190 -159 257
c0 -118 90 -206 151 -304z" fill="currentColor"/>
</g>
<g transform="translate(106.8104, 21.9369)">
<rect x="-0.0650" y="-3.0000" width="0.1300" height="3.3138" ry="0.0400" fill="currentColor"/>
</g>
<g transform="translate(106.8754, 18.9769)">
<path transform="scale(0.0040, -0.0040)" d="M123 -854c0 10 42 76 42 172c0 97 -94 190 -165 257v-125h-16v550h16c0 -177 201 -293 201 -470c0 -33 -9 -65 -23 -95c18 -37 29 -75 29 -117c0 -63 -15 -125 -41 -183c-5 -8 -13 -12 -20 -12c-12 0 -23 9 -23 23zM151 -517c5 15 8 31 8 47c0 96 -91 190 -159 257
c0 -118 90 -206 151 -304z" fill="currentColor"/>
</g>
<g transform="translate(109.5077, 11.8837)">
<rect x="-0.0650" y="-0.5000" width="0.1300" height="3.3138" ry="0.0400" fill="currentColor"/>
</g>
<g transform="translate(108.2685, 14.8837)">
<path transform="scale(0.0040, -0.0040)" d="M0 -46c0 91 116 182 217 182c63 0 109 -35 109 -90c0 -87 -110 -182 -220 -182c-67 0 -106 39 -106 90z" fill="currentColor"/>
</g>
<g transform="translate(108.9206, 15.8287)">
<path transform="scale(0.0040, -0.0040)" d="M-50 0c0 28 22 50 50 50s50 -22 50 -50s-22 -50 -50 -50s-50 22 -50 50z" fill="currentColor"/>
</g>
<g transform="translate(108.2685, 20.9369)">
<path transform="scale(0.0040, -0.0040)" d="M0 -46c0 91 116 182 217 182c63 0 109 -35 109 -90c0 -87 -110 -182 -220 -182c-67 0 -106 39 -106 90z" fill="currentColor"/>
</g>
<g transform="translate(108.9206, 19.4369)">
<path transform="scale(0.0040, -0.0040)" d="M-50 0c0 28 22 50 50 50s50 -22 50 -50s-22 -50 -50 -50s-50 22 -50 50z" fill="currentColor"/>
</g>
<g transform="translate(51.5735, 162.8440)">
<a xlink:href="https://lilypond.org">
<rect x="0.0000" y="-0.4748" width="16.3546" height="2.0024" fill="none" stroke="none" stroke-width="0.0"/>
</a>
</g>
<g transform="translate(51.5735, 162.8440)">
<text font-family="serif" font-size="2.2000" text-anchor="start" fill="currentColor">
<tspan>LilyPond v2.25.25</tspan>
</text>
</g>
</svg>
