<svg xmlns="http://www.w3.org/2000/svg" xmlns:xlink="http://www.w3.org/1999/xlink" version="1.2" width="210.00mm" height="297.00mm" viewBox="0.0000 -0.0000 119.5016 169.0094">
<style type="text/css">
<![CDATA[
tspan { white-space: pre; }
]]>
</style>
<g transform="translate(8.5358, 14.6906)">
<rect x="16.7948" y="-0.1000" width="1.9563" height="0.2000" ry="0.1000" fill="currentColor"/>
</g>
<g transform="translate(17.0717, 13.6906)">
<line stroke-linejoin="round" stroke-linecap="round" stroke-width="0.1000" stroke="currentColor" x1="0.0500" y1="0" x2="34.4266" y2="0"/>
</g>
<g transform="translate(17.0717, 12.6906)">
<line stroke-linejoin="round" stroke-linecap="round" stroke-width="0.1000" stroke="currentColor" x1="0.0500" y1="0" x2="34.4266" y2="0"/>
</g>
<g transform="translate(17.0717, 11.6906)">
<line stroke-linejoin="round" stroke-linecap="round" stroke-width="0.1000" stroke="currentColor" x1="0.0500" y1="0" x2="34.4266" y2="0"/>
</g>
<g transform="translate(17.0717, 10.6906)">
<line stroke-linejoin="round" stroke-linecap="round" stroke-width="0.1000" stroke="currentColor" x1="0.0500" y1="0" x2="34.4266" y2="0"/>
</g>
<g transform="translate(17.0717, 9.6906)">
<line stroke-linejoin="round" stroke-linecap="round" stroke-width="0.1000" stroke="currentColor" x1="0.0500" y1="0" x2="34.4266" y2="0"/>
</g>
<g transform="translate(51.3583, 11.6906)">
<rect x="0.0000" y="-2.0000" width="0.1900" height="4.0000" ry="0.0000" fill="currentColor"/>
</g>
<g transform="translate(36.8325, 11.6906)">
<path stroke-width="0.0800" stroke-linejoin="round" stroke-linecap="round" stroke="currentColor" fill="currentColor" d="M0.8521 2.7500C1.3702 3.3498 2.5014 3.3498 3.0195 2.7500L3.0195 2.7500C2.5014 3.2298 1.3702 3.2298 0.8521 2.7500z"/>
</g>
<g color="rgba(100.0000%, 0.0000%, 0.0000%, 100.0000%)">
<g transform="translate(25.6567, 14.6906)">
<path transform="scale(0.0040, -0.0040)" d="M0 -46c0 91 116 182 217 182c63 0 109 -35 109 -90c0 -87 -110 -182 -220 -182c-67 0 -106 39 -106 90z" fill="currentColor"/>
</g>
</g>
<g transform="translate(17.8717, 12.6906)">
<path transform="scale(0.0040, -0.0040)" d="M266 -635h-6c-108 0 -195 88 -195 197c0 58 53 103 112 103c54 0 95 -47 95 -103c0 -52 -43 -95 -95 -95c-11 0 -21 2 -31 6c26 -39 68 -65 117 -65h4zM401 151c19 -89 48 -242 60 -354c76 27 112 94 112 163c0 89 -60 179 -172 191zM74 28c0 -112 98 -247 278 -247
c21 0 44 2 68 6c-7 64 -29 203 -63 364c-79 -8 -124 -61 -124 -119c0 -44 25 -91 81 -123c5 -5 7 -10 7 -15c0 -11 -10 -22 -22 -22c-15 0 -126 62 -126 187c0 88 58 174 160 197c-14 58 -29 117 -46 175c-107 -121 -213 -243 -213 -403zM357 1194c28 0 143 -206 143 -361
c0 -143 -86 -255 -180 -364c21 -68 39 -138 56 -207c5 0 10 1 14 1c155 0 255 -129 255 -262c0 -113 -74 -212 -180 -245c3 -35 5 -70 5 -105c0 -19 -1 -39 -2 -58c-7 -119 -88 -225 -202 -228l1 43c93 2 153 92 159 191c1 18 2 37 2 55c0 31 -1 61 -4 92
c-28 -5 -55 -8 -80 -8c-239 0 -342 217 -342 374c0 177 131 306 248 441c-29 96 -52 170 -52 346c0 189 144 295 159 295zM247 782c0 -55 12 -115 35 -190c83 100 147 202 147 326c0 40 -6 82 -21 127c-49 -24 -161 -97 -161 -263z" fill="currentColor"/>
</g>
<g transform="translate(21.9567, 11.6906)">
<path transform="scale(0.0040, -0.0040)" d="M433 -89c0 -22 -50 -174 -183 -174c-59 0 -250 19 -250 263c0 62 18 262 250 262c116 0 176 -106 176 -163c0 -40 -30 -72 -67 -72c-31 0 -75 25 -75 75c0 38 27 77 72 77c4 0 9 0 14 -1c-28 37 -72 59 -120 59c-106 0 -113 -73 -113 -186v-51v-51
c0 -113 7 -187 113 -187c80 0 139 70 158 151c2 7 7 10 12 10c6 0 13 -4 13 -12z" fill="currentColor"/>
</g>
<g color="rgba(100.0000%, 0.0000%, 0.0000%, 100.0000%)">
<g transform="translate(26.8959, 11.6906)">
<rect x="-0.0650" y="-0.5000" width="0.1300" height="3.3138" ry="0.0400" fill="currentColor"/>
</g>
</g>
<g color="rgba(0.0000%, 0.0000%, 100.0000%, 100.0000%)">
<g transform="translate(30.5609, 14.1906)">
<path transform="scale(0.0040, -0.0040)" d="M0 -46c0 91 116 182 217 182c63 0 109 -35 109 -90c0 -87 -110 -182 -220 -182c-67 0 -106 39 -106 90z" fill="currentColor"/>
</g>
</g>
<g color="rgba(0.0000%, 0.0000%, 100.0000%, 100.0000%)">
<g transform="translate(31.8001, 11.6906)">
<rect x="-0.0650" y="-1.0000" width="0.1300" height="3.3138" ry="0.0400" fill="currentColor"/>
</g>
</g>
<g color="rgba(0.0000%, 0.0000%, 100.0000%, 100.0000%)">
<g transform="translate(31.8651, 10.7306)">
<path transform="scale(0.0040, -0.0040)" d="M0 0v-375h-16v375h16zM123 -729c0 10 42 87 42 196c0 103 -94 208 -165 283v250c0 -197 207 -336 207 -533c0 -71 -15 -141 -41 -207c-5 -8 -13 -12 -20 -12c-12 0 -23 9 -23 23z" fill="currentColor"/>
</g>
</g>
<g transform="translate(30.5609, 11.6906)">
<path stroke-width="0.0800" stroke-linejoin="round" stroke-linecap="round" stroke="currentColor" fill="currentColor" d="M1.5042 3.0000C1.9920 3.5744 3.0164 3.5744 3.5042 3.0000L3.5042 3.0000C3.0164 3.4544 1.9920 3.4544 1.5042 3.0000z"/>
</g>
<g color="rgba(100.0000%, 0.0000%, 0.0000%, 100.0000%)">
<g transform="translate(34.2651, 14.1906)">
<path transform="scale(0.0040, -0.0040)" d="M0 -46c0 91 116 182 217 182c63 0 109 -35 109 -90c0 -87 -110 -182 -220 -182c-67 0 -106 39 -106 90z" fill="currentColor"/>
</g>
</g>
<g color="rgba(100.0000%, 0.0000%, 0.0000%, 100.0000%)">
<g transform="translate(35.5043, 11.6906)">
<rect x="-0.0650" y="-1.0000" width="0.1300" height="3.3138" ry="0.0400" fill="currentColor"/>
</g>
</g>
<g color="rgba(100.0000%, 0.0000%, 0.0000%, 100.0000%)">
<g transform="translate(35.5693, 10.7306)">
<path transform="scale(0.0040, -0.0040)" d="M123 -854c0 10 42 76 42 172c0 97 -94 190 -165 257v-125h-16v550h16c0 -177 201 -293 201 -470c0 -33 -9 -65 -23 -95c18 -37 29 -75 29 -117c0 -63 -15 -125 -41 -183c-5 -8 -13 -12 -20 -12c-12 0 -23 9 -23 23zM151 -517c5 15 8 31 8 47c0 96 -91 190 -159 257
c0 -118 90 -206 151 -304z" fill="currentColor"/>
</g>
</g>
<g color="rgba(0.0000%, 0.0000%, 100.0000%, 100.0000%)">
<g transform="translate(36.8325, 13.6906)">
<path transform="scale(0.0040, -0.0040)" d="M0 -46c0 91 116 182 217 182c63 0 109 -35 109 -90c0 -87 -110 -182 -220 -182c-67 0 -106 39 -106 90z" fill="currentColor"/>
</g>
</g>
<g color="rgba(0.0000%, 0.0000%, 100.0000%, 100.0000%)">
<g transform="translate(38.0717, 11.6906)">
<rect x="-0.0650" y="-1.5000" width="0.1300" height="3.3138" ry="0.0400" fill="currentColor"/>
</g>
</g>
<g color="rgba(0.0000%, 0.0000%, 100.0000%, 100.0000%)">
<g transform="translate(38.1367, 10.2306)">
<path transform="scale(0.0040, -0.0040)" d="M123 -854c0 10 42 76 42 172c0 97 -94 190 -165 257v-125h-16v550h16c0 -177 201 -293 201 -470c0 -33 -9 -65 -23 -95c18 -37 29 -75 29 -117c0 -63 -15 -125 -41 -183c-5 -8 -13 -12 -20 -12c-12 0 -23 9 -23 23zM151 -517c5 15 8 31 8 47c0 96 -91 190 -159 257
c0 -118 90 -206 151 -304z" fill="currentColor"/>
</g>
</g>
<g color="rgba(100.0000%, 0.0000%, 0.0000%, 100.0000%)">
<g transform="translate(39.3999, 13.6906)">
<path transform="scale(0.0040, -0.0040)" d="M0 -46c0 91 116 182 217 182c63 0 109 -35 109 -90c0 -87 -110 -182 -220 -182c-67 0 -106 39 -106 90z" fill="currentColor"/>
</g>
</g>
<g color="rgba(100.0000%, 0.0000%, 0.0000%, 100.0000%)">
<g transform="translate(40.6391, 11.6906)">
<rect x="-0.0650" y="-1.5000" width="0.1300" height="3.3138" ry="0.0400" fill="currentColor"/>
</g>
</g>
<g color="rgba(100.0000%, 0.0000%, 0.0000%, 100.0000%)">
<g transform="translate(40.7041, 10.2306)">
<path transform="scale(0.0040, -0.0040)" d="M0 0v-375h-16v375h16zM123 -729c0 10 42 87 42 196c0 103 -94 208 -165 283v250c0 -197 207 -336 207 -533c0 -71 -15 -141 -41 -207c-5 -8 -13 -12 -20 -12c-12 0 -23 9 -23 23z" fill="currentColor"/>
</g>
</g>
<g transform="translate(43.1041, 11.6906)">
<path transform="scale(0.0040, -0.0040)" d="M-6 78c0 59 124 83 124 182c0 24 -8 49 -25 69l-35 42c-3 3 -4 7 -4 10c0 9 9 15 17 15c4 0 8 -1 11 -5l151 -180c7 -9 10 -17 10 -25c0 -59 -124 -83 -124 -182c0 -24 7 -49 24 -69l84 -99c3 -3 4 -7 4 -10c0 -9 -8 -16 -16 -16s-45 44 -109 44c-16 0 -53 0 -53 -67
c0 -62 30 -97 30 -100c0 -4 -4 -7 -8 -7c-13 0 -98 130 -98 204c0 41 27 42 40 42c33 0 78 -13 119 -31l-132 158c-7 9 -10 17 -10 25z" fill="currentColor"/>
</g>
<g color="rgba(0.0000%, 0.0000%, 100.0000%, 100.0000%)">
<g transform="translate(47.6541, 12.6906)">
<path transform="scale(0.0040, -0.0040)" d="M0 -46c0 91 116 182 217 182c63 0 109 -35 109 -90c0 -87 -110 -182 -220 -182c-67 0 -106 39 -106 90z" fill="currentColor"/>
</g>
</g>
<g color="rgba(0.0000%, 0.0000%, 100.0000%, 100.0000%)">
<g transform="translate(48.8933, 11.6906)">
<rect x="-0.0650" y="-2.5000" width="0.1300" height="3.3138" ry="0.0400" fill="currentColor"/>
</g>
</g>
<g color="rgba(0.0000%, 0.0000%, 100.0000%, 100.0000%)">
<g transform="translate(48.9583, 9.2306)">
<path transform="scale(0.0040, -0.0040)" d="M0 0v-375h-16v375h16zM123 -729c0 10 42 87 42 196c0 103 -94 208 -165 283v250c0 -197 207 -336 207 -533c0 -71 -15 -141 -41 -207c-5 -8 -13 -12 -20 -12c-12 0 -23 9 -23 23z" fill="currentColor"/>
</g>
</g>
<g transform="translate(51.5735, 162.8440)">
<a xlink:href="https://lilypond.org">
<rect x="0.0000" y="-0.4748" width="16.3546" height="2.0024" fill="none" stroke="none" stroke-width="0.0"/>
</a>
</g>
<g transform="translate(51.5735, 162.8440)">
<text font-family="serif" font-size="2.2000" text-anchor="start" fill="currentColor">
<tspan>LilyPond v2.25.26</tspan>
</text>
</g>
</svg>
