<svg xmlns="http://www.w3.org/2000/svg" xmlns:xlink="http://www.w3.org/1999/xlink" version="1.2" width="210.00mm" height="297.00mm" viewBox="0.0000 -0.0000 149.3770 211.2617">
<style type="text/css">
<![CDATA[
tspan { white-space: pre; }
]]>
</style>
<g transform="translate(10.6698, 25.1822)">
<rect x="79.5658" y="-0.1082" width="1.9512" height="0.2164" ry="0.1082" fill="currentColor"/>
</g>
<g transform="translate(10.6698, 25.1822)">
<rect x="16.2948" y="-0.1082" width="1.8011" height="0.2164" ry="0.1082" fill="currentColor"/>
</g>
<g transform="translate(21.3396, 24.1822)">
<line stroke-linejoin="round" stroke-linecap="round" stroke-width="0.1164" stroke="currentColor" x1="0.0582" y1="0" x2="117.3094" y2="0"/>
</g>
<g transform="translate(21.3396, 23.1822)">
<line stroke-linejoin="round" stroke-linecap="round" stroke-width="0.1164" stroke="currentColor" x1="0.0582" y1="0" x2="117.3094" y2="0"/>
</g>
<g transform="translate(21.3396, 22.1822)">
<line stroke-linejoin="round" stroke-linecap="round" stroke-width="0.1164" stroke="currentColor" x1="0.0582" y1="0" x2="117.3094" y2="0"/>
</g>
<g transform="translate(21.3396, 21.1822)">
<line stroke-linejoin="round" stroke-linecap="round" stroke-width="0.1164" stroke="currentColor" x1="0.0582" y1="0" x2="117.3094" y2="0"/>
</g>
<g transform="translate(21.3396, 20.1822)">
<line stroke-linejoin="round" stroke-linecap="round" stroke-width="0.1164" stroke="currentColor" x1="0.0582" y1="0" x2="117.3094" y2="0"/>
</g>
<g transform="translate(138.4860, 18.1673)">
<rect x="0.0000" y="119.0908" width="0.2212" height="18.5453" ry="0.0000" fill="currentColor"/>
</g>
<g transform="translate(138.4860, 18.1673)">
<rect x="0.0000" y="96.4872" width="0.2212" height="18.5453" ry="0.0000" fill="currentColor"/>
</g>
<g transform="translate(138.4860, 18.1673)">
<rect x="0.0000" y="73.8837" width="0.2212" height="18.5453" ry="0.0000" fill="currentColor"/>
</g>
<g transform="translate(138.4860, 18.1673)">
<rect x="0.0000" y="51.2802" width="0.2212" height="18.5453" ry="0.0000" fill="currentColor"/>
</g>
<g transform="translate(138.4860, 18.1673)">
<rect x="0.0000" y="28.6766" width="0.2212" height="18.5453" ry="0.0000" fill="currentColor"/>
</g>
<g transform="translate(10.6698, 47.7857)">
<rect x="79.5658" y="-0.1082" width="1.9512" height="0.2164" ry="0.1082" fill="currentColor"/>
</g>
<g transform="translate(10.6698, 47.7857)">
<rect x="16.2948" y="-0.1082" width="1.8011" height="0.2164" ry="0.1082" fill="currentColor"/>
</g>
<g transform="translate(21.3396, 46.7857)">
<line stroke-linejoin="round" stroke-linecap="round" stroke-width="0.1164" stroke="currentColor" x1="0.0582" y1="0" x2="117.3094" y2="0"/>
</g>
<g transform="translate(21.3396, 45.7857)">
<line stroke-linejoin="round" stroke-linecap="round" stroke-width="0.1164" stroke="currentColor" x1="0.0582" y1="0" x2="117.3094" y2="0"/>
</g>
<g transform="translate(21.3396, 44.7857)">
<line stroke-linejoin="round" stroke-linecap="round" stroke-width="0.1164" stroke="currentColor" x1="0.0582" y1="0" x2="117.3094" y2="0"/>
</g>
<g transform="translate(21.3396, 43.7857)">
<line stroke-linejoin="round" stroke-linecap="round" stroke-width="0.1164" stroke="currentColor" x1="0.0582" y1="0" x2="117.3094" y2="0"/>
</g>
<g transform="translate(21.3396, 42.7857)">
<line stroke-linejoin="round" stroke-linecap="round" stroke-width="0.1164" stroke="currentColor" x1="0.0582" y1="0" x2="117.3094" y2="0"/>
</g>
<g transform="translate(138.4860, 157.8034)">
<rect x="0.0000" y="-2.0582" width="0.2212" height="4.0582" ry="0.0000" fill="currentColor"/>
</g>
<g transform="translate(138.4860, 135.1999)">
<rect x="0.0000" y="-2.0582" width="0.2212" height="4.1164" ry="0.0000" fill="currentColor"/>
</g>
<g transform="translate(10.6698, 70.3893)">
<rect x="72.0776" y="-0.1082" width="1.9512" height="0.2164" ry="0.1082" fill="currentColor"/>
</g>
<g transform="translate(10.6698, 70.3893)">
<rect x="53.9142" y="-0.1082" width="1.8011" height="0.2164" ry="0.1082" fill="currentColor"/>
</g>
<g transform="translate(21.3396, 69.3893)">
<line stroke-linejoin="round" stroke-linecap="round" stroke-width="0.1164" stroke="currentColor" x1="0.0582" y1="0" x2="117.3094" y2="0"/>
</g>
<g transform="translate(21.3396, 68.3893)">
<line stroke-linejoin="round" stroke-linecap="round" stroke-width="0.1164" stroke="currentColor" x1="0.0582" y1="0" x2="117.3094" y2="0"/>
</g>
<g transform="translate(21.3396, 67.3893)">
<line stroke-linejoin="round" stroke-linecap="round" stroke-width="0.1164" stroke="currentColor" x1="0.0582" y1="0" x2="117.3094" y2="0"/>
</g>
<g transform="translate(21.3396, 66.3893)">
<line stroke-linejoin="round" stroke-linecap="round" stroke-width="0.1164" stroke="currentColor" x1="0.0582" y1="0" x2="117.3094" y2="0"/>
</g>
<g transform="translate(21.3396, 65.3893)">
<line stroke-linejoin="round" stroke-linecap="round" stroke-width="0.1164" stroke="currentColor" x1="0.0582" y1="0" x2="117.3094" y2="0"/>
</g>
<g transform="translate(138.4860, 112.5963)">
<rect x="0.0000" y="-2.0582" width="0.2212" height="4.1164" ry="0.0000" fill="currentColor"/>
</g>
<g transform="translate(138.4860, 89.9928)">
<rect x="0.0000" y="-2.0582" width="0.2212" height="4.1164" ry="0.0000" fill="currentColor"/>
</g>
<g transform="translate(10.6698, 92.9928)">
<rect x="64.5180" y="-0.1082" width="1.9512" height="0.2164" ry="0.1082" fill="currentColor"/>
</g>
<g transform="translate(10.6698, 92.9928)">
<rect x="46.3903" y="-0.1082" width="1.8011" height="0.2164" ry="0.1082" fill="currentColor"/>
</g>
<g transform="translate(21.3396, 91.9928)">
<line stroke-linejoin="round" stroke-linecap="round" stroke-width="0.1164" stroke="currentColor" x1="0.0582" y1="0" x2="117.3094" y2="0"/>
</g>
<g transform="translate(21.3396, 90.9928)">
<line stroke-linejoin="round" stroke-linecap="round" stroke-width="0.1164" stroke="currentColor" x1="0.0582" y1="0" x2="117.3094" y2="0"/>
</g>
<g transform="translate(21.3396, 89.9928)">
<line stroke-linejoin="round" stroke-linecap="round" stroke-width="0.1164" stroke="currentColor" x1="0.0582" y1="0" x2="117.3094" y2="0"/>
</g>
<g transform="translate(21.3396, 88.9928)">
<line stroke-linejoin="round" stroke-linecap="round" stroke-width="0.1164" stroke="currentColor" x1="0.0582" y1="0" x2="117.3094" y2="0"/>
</g>
<g transform="translate(21.3396, 87.9928)">
<line stroke-linejoin="round" stroke-linecap="round" stroke-width="0.1164" stroke="currentColor" x1="0.0582" y1="0" x2="117.3094" y2="0"/>
</g>
<g transform="translate(138.4860, 67.3893)">
<rect x="0.0000" y="-2.0582" width="0.2212" height="4.1164" ry="0.0000" fill="currentColor"/>
</g>
<g transform="translate(138.4860, 44.7857)">
<rect x="0.0000" y="-2.0000" width="0.2212" height="4.0582" ry="0.0000" fill="currentColor"/>
</g>
<g transform="translate(10.6698, 115.5963)">
<rect x="105.4764" y="-0.1082" width="1.9512" height="0.2164" ry="0.1082" fill="currentColor"/>
</g>
<g transform="translate(10.6698, 115.5963)">
<rect x="38.8664" y="-0.1082" width="1.8011" height="0.2164" ry="0.1082" fill="currentColor"/>
</g>
<g transform="translate(21.3396, 114.5963)">
<line stroke-linejoin="round" stroke-linecap="round" stroke-width="0.1164" stroke="currentColor" x1="0.0582" y1="0" x2="117.3094" y2="0"/>
</g>
<g transform="translate(21.3396, 113.5963)">
<line stroke-linejoin="round" stroke-linecap="round" stroke-width="0.1164" stroke="currentColor" x1="0.0582" y1="0" x2="117.3094" y2="0"/>
</g>
<g transform="translate(21.3396, 112.5963)">
<line stroke-linejoin="round" stroke-linecap="round" stroke-width="0.1164" stroke="currentColor" x1="0.0582" y1="0" x2="117.3094" y2="0"/>
</g>
<g transform="translate(21.3396, 111.5963)">
<line stroke-linejoin="round" stroke-linecap="round" stroke-width="0.1164" stroke="currentColor" x1="0.0582" y1="0" x2="117.3094" y2="0"/>
</g>
<g transform="translate(21.3396, 110.5963)">
<line stroke-linejoin="round" stroke-linecap="round" stroke-width="0.1164" stroke="currentColor" x1="0.0582" y1="0" x2="117.3094" y2="0"/>
</g>
<g transform="translate(138.4860, 22.1822)">
<rect x="0.0000" y="-2.0000" width="0.2212" height="4.0000" ry="0.0000" fill="currentColor"/>
</g>
<g transform="translate(72.5196, 18.1673)">
<rect x="0.0000" y="119.0908" width="0.2212" height="18.5453" ry="0.0000" fill="currentColor"/>
</g>
<g transform="translate(72.5196, 18.1673)">
<rect x="0.0000" y="96.4872" width="0.2212" height="18.5453" ry="0.0000" fill="currentColor"/>
</g>
<g transform="translate(72.5196, 18.1673)">
<rect x="0.0000" y="73.8837" width="0.2212" height="18.5453" ry="0.0000" fill="currentColor"/>
</g>
<g transform="translate(72.5196, 18.1673)">
<rect x="0.0000" y="51.2802" width="0.2212" height="18.5453" ry="0.0000" fill="currentColor"/>
</g>
<g transform="translate(72.5196, 18.1673)">
<rect x="0.0000" y="28.6766" width="0.2212" height="18.5453" ry="0.0000" fill="currentColor"/>
</g>
<g transform="translate(10.6698, 138.1999)">
<rect x="94.5778" y="-0.1082" width="1.9512" height="0.2164" ry="0.1082" fill="currentColor"/>
</g>
<g transform="translate(10.6698, 138.1999)">
<rect x="31.3425" y="-0.1082" width="1.8011" height="0.2164" ry="0.1082" fill="currentColor"/>
</g>
<g transform="translate(21.3396, 137.1999)">
<line stroke-linejoin="round" stroke-linecap="round" stroke-width="0.1164" stroke="currentColor" x1="0.0582" y1="0" x2="117.3094" y2="0"/>
</g>
<g transform="translate(21.3396, 136.1999)">
<line stroke-linejoin="round" stroke-linecap="round" stroke-width="0.1164" stroke="currentColor" x1="0.0582" y1="0" x2="117.3094" y2="0"/>
</g>
<g transform="translate(21.3396, 135.1999)">
<line stroke-linejoin="round" stroke-linecap="round" stroke-width="0.1164" stroke="currentColor" x1="0.0582" y1="0" x2="117.3094" y2="0"/>
</g>
<g transform="translate(21.3396, 134.1999)">
<line stroke-linejoin="round" stroke-linecap="round" stroke-width="0.1164" stroke="currentColor" x1="0.0582" y1="0" x2="117.3094" y2="0"/>
</g>
<g transform="translate(21.3396, 133.1999)">
<line stroke-linejoin="round" stroke-linecap="round" stroke-width="0.1164" stroke="currentColor" x1="0.0582" y1="0" x2="117.3094" y2="0"/>
</g>
<g transform="translate(72.5196, 157.8034)">
<rect x="0.0000" y="-2.0582" width="0.2212" height="4.0582" ry="0.0000" fill="currentColor"/>
</g>
<g transform="translate(72.5196, 135.1999)">
<rect x="0.0000" y="-2.0582" width="0.2212" height="4.1164" ry="0.0000" fill="currentColor"/>
</g>
<g transform="translate(10.6698, 160.8034)">
<rect x="87.0897" y="-0.1082" width="1.9512" height="0.2164" ry="0.1082" fill="currentColor"/>
</g>
<g transform="translate(10.6698, 160.8034)">
<rect x="23.8186" y="-0.1082" width="1.8011" height="0.2164" ry="0.1082" fill="currentColor"/>
</g>
<g transform="translate(21.3396, 159.8034)">
<line stroke-linejoin="round" stroke-linecap="round" stroke-width="0.1164" stroke="currentColor" x1="0.0582" y1="0" x2="117.3094" y2="0"/>
</g>
<g transform="translate(21.3396, 158.8034)">
<line stroke-linejoin="round" stroke-linecap="round" stroke-width="0.1164" stroke="currentColor" x1="0.0582" y1="0" x2="117.3094" y2="0"/>
</g>
<g transform="translate(21.3396, 157.8034)">
<line stroke-linejoin="round" stroke-linecap="round" stroke-width="0.1164" stroke="currentColor" x1="0.0582" y1="0" x2="117.3094" y2="0"/>
</g>
<g transform="translate(21.3396, 156.8034)">
<line stroke-linejoin="round" stroke-linecap="round" stroke-width="0.1164" stroke="currentColor" x1="0.0582" y1="0" x2="117.3094" y2="0"/>
</g>
<g transform="translate(21.3396, 155.8034)">
<line stroke-linejoin="round" stroke-linecap="round" stroke-width="0.1164" stroke="currentColor" x1="0.0582" y1="0" x2="117.3094" y2="0"/>
</g>
<g transform="translate(72.5196, 112.5963)">
<rect x="0.0000" y="-2.0582" width="0.2212" height="4.1164" ry="0.0000" fill="currentColor"/>
</g>
<g transform="translate(72.5196, 89.9928)">
<rect x="0.0000" y="-2.0582" width="0.2212" height="4.1164" ry="0.0000" fill="currentColor"/>
</g>
<g transform="translate(72.5196, 67.3893)">
<rect x="0.0000" y="-2.0582" width="0.2212" height="4.1164" ry="0.0000" fill="currentColor"/>
</g>
<g transform="translate(72.5196, 44.7857)">
<rect x="0.0000" y="-2.0000" width="0.2212" height="4.0582" ry="0.0000" fill="currentColor"/>
</g>
<g transform="translate(72.5196, 22.1822)">
<rect x="0.0000" y="-2.0000" width="0.2212" height="4.0000" ry="0.0000" fill="currentColor"/>
</g>
<g transform="translate(27.1396, 25.1822)">
<path transform="scale(0.0040, -0.0040)" d="M0 -43c0 92 111 181 211 181c65 0 115 -37 115 -95c0 -88 -106 -181 -215 -181c-70 0 -111 41 -111 95z" fill="currentColor"/>
</g>
<g transform="translate(27.1396, 19.6240)">
<text font-family="serif" font-size="2.2001" text-anchor="start" fill="currentColor">
<tspan>IR</tspan>
</text>
</g>
<g transform="translate(22.1396, 23.1822)">
<path transform="scale(0.0040, -0.0040)" d="M647 2c0 -114 -75 -214 -180 -248c3 -33 4 -66 4 -99c0 -21 0 -41 -1 -62c-7 -122 -92 -229 -211 -229c-108 0 -196 88 -196 197c0 58 54 103 113 103c54 0 95 -47 95 -103c0 -52 -43 -95 -95 -95c-9 0 -18 1 -27 4c25 -37 66 -61 113 -61c93 0 156 91 162 191
c1 19 2 38 2 57c0 29 -1 58 -3 87c-28 -5 -54 -8 -79 -8c-242 0 -342 222 -342 376c0 177 129 308 244 443c-33 100 -55 169 -55 347c0 186 141 292 159 292c33 0 148 -208 148 -361c0 -142 -84 -255 -176 -364c21 -68 40 -136 57 -205c3 0 8 1 11 1
c156 0 257 -129 257 -263zM406 148c28 -133 49 -269 57 -349c73 27 109 93 109 160c0 86 -58 175 -166 189zM77 25c0 -111 96 -243 275 -243c21 0 44 1 67 5c-7 66 -27 208 -60 362c-79 -8 -124 -60 -124 -118c0 -43 25 -88 80 -120c5 -5 7 -11 7 -17c0 -12 -10 -23 -23 -23
c-16 0 -128 62 -128 188c0 89 60 177 163 200c-14 57 -30 113 -47 169c-105 -122 -210 -243 -210 -403zM424 920c0 61 -20 118 -21 118c-31 -14 -161 -85 -161 -253c0 -53 15 -113 39 -189c71 88 143 196 143 324z" fill="currentColor"/>
</g>
<g transform="translate(27.1396, 47.7857)">
<path transform="scale(0.0040, -0.0040)" d="M0 -43c0 92 111 181 211 181c65 0 115 -37 115 -95c0 -88 -106 -181 -215 -181c-70 0 -111 41 -111 95z" fill="currentColor"/>
</g>
<g transform="translate(27.1396, 51.1320)">
<rect x="-0.3164" y="-0.1164" width="1.7852" height="0.1164" ry="0.0000" fill="currentColor"/>
</g>
<g transform="translate(27.1396, 49.5726)">
<rect x="-0.3164" y="-0.1164" width="1.7852" height="0.1164" ry="0.0000" fill="currentColor"/>
</g>
<g transform="translate(26.8231, 50.7855)">
<rect x="0" y="-1.2129" width="0.1164" height="1.4430" ry="0.0000" fill="currentColor"/>
</g>
<g transform="translate(28.4919, 50.7855)">
<rect x="0" y="-1.2129" width="0.1164" height="1.4430" ry="0.0000" fill="currentColor"/>
</g>
<g transform="translate(27.1396, 50.7855)">
<text font-family="serif" font-size="2.2001" text-anchor="start" fill="currentColor">
<tspan>α</tspan>
</text>
</g>
<g transform="translate(27.1396, 39.7275)">
<text font-family="serif" font-size="2.2001" text-anchor="start" fill="currentColor">
<tspan>NumberedPitchClass(1)</tspan>
</text>
</g>
<g transform="translate(22.1396, 45.7857)">
<path transform="scale(0.0040, -0.0040)" d="M647 2c0 -114 -75 -214 -180 -248c3 -33 4 -66 4 -99c0 -21 0 -41 -1 -62c-7 -122 -92 -229 -211 -229c-108 0 -196 88 -196 197c0 58 54 103 113 103c54 0 95 -47 95 -103c0 -52 -43 -95 -95 -95c-9 0 -18 1 -27 4c25 -37 66 -61 113 -61c93 0 156 91 162 191
c1 19 2 38 2 57c0 29 -1 58 -3 87c-28 -5 -54 -8 -79 -8c-242 0 -342 222 -342 376c0 177 129 308 244 443c-33 100 -55 169 -55 347c0 186 141 292 159 292c33 0 148 -208 148 -361c0 -142 -84 -255 -176 -364c21 -68 40 -136 57 -205c3 0 8 1 11 1
c156 0 257 -129 257 -263zM406 148c28 -133 49 -269 57 -349c73 27 109 93 109 160c0 86 -58 175 -166 189zM77 25c0 -111 96 -243 275 -243c21 0 44 1 67 5c-7 66 -27 208 -60 362c-79 -8 -124 -60 -124 -118c0 -43 25 -88 80 -120c5 -5 7 -11 7 -17c0 -12 -10 -23 -23 -23
c-16 0 -128 62 -128 188c0 89 60 177 163 200c-14 57 -30 113 -47 169c-105 -122 -210 -243 -210 -403zM424 920c0 61 -20 118 -21 118c-31 -14 -161 -85 -161 -253c0 -53 15 -113 39 -189c71 88 143 196 143 324z" fill="currentColor"/>
</g>
<g transform="translate(27.1396, 69.8893)">
<path transform="scale(0.0040, -0.0040)" d="M0 -43c0 92 111 181 211 181c65 0 115 -37 115 -95c0 -88 -106 -181 -215 -181c-70 0 -111 41 -111 95z" fill="currentColor"/>
</g>
<g transform="translate(27.1396, 72.7940)">
<rect x="-0.3164" y="-0.1164" width="1.7852" height="0.1164" ry="0.0000" fill="currentColor"/>
</g>
<g transform="translate(27.1396, 71.2346)">
<rect x="-0.3164" y="-0.1164" width="1.7852" height="0.1164" ry="0.0000" fill="currentColor"/>
</g>
<g transform="translate(26.8231, 72.4475)">
<rect x="0" y="-1.2129" width="0.1164" height="1.4430" ry="0.0000" fill="currentColor"/>
</g>
<g transform="translate(28.4919, 72.4475)">
<rect x="0" y="-1.2129" width="0.1164" height="1.4430" ry="0.0000" fill="currentColor"/>
</g>
<g transform="translate(27.1396, 72.4475)">
<text font-family="serif" font-size="2.2001" text-anchor="start" fill="currentColor">
<tspan>α</tspan>
</text>
</g>
<g transform="translate(27.1396, 62.3311)">
<text font-family="serif" font-size="2.2001" text-anchor="start" fill="currentColor">
<tspan>NumberedPitchClass(2)</tspan>
</text>
</g>
<g transform="translate(22.1396, 68.3893)">
<path transform="scale(0.0040, -0.0040)" d="M647 2c0 -114 -75 -214 -180 -248c3 -33 4 -66 4 -99c0 -21 0 -41 -1 -62c-7 -122 -92 -229 -211 -229c-108 0 -196 88 -196 197c0 58 54 103 113 103c54 0 95 -47 95 -103c0 -52 -43 -95 -95 -95c-9 0 -18 1 -27 4c25 -37 66 -61 113 -61c93 0 156 91 162 191
c1 19 2 38 2 57c0 29 -1 58 -3 87c-28 -5 -54 -8 -79 -8c-242 0 -342 222 -342 376c0 177 129 308 244 443c-33 100 -55 169 -55 347c0 186 141 292 159 292c33 0 148 -208 148 -361c0 -142 -84 -255 -176 -364c21 -68 40 -136 57 -205c3 0 8 1 11 1
c156 0 257 -129 257 -263zM406 148c28 -133 49 -269 57 -349c73 27 109 93 109 160c0 86 -58 175 -166 189zM77 25c0 -111 96 -243 275 -243c21 0 44 1 67 5c-7 66 -27 208 -60 362c-79 -8 -124 -60 -124 -118c0 -43 25 -88 80 -120c5 -5 7 -11 7 -17c0 -12 -10 -23 -23 -23
c-16 0 -128 62 -128 188c0 89 60 177 163 200c-14 57 -30 113 -47 169c-105 -122 -210 -243 -210 -403zM424 920c0 61 -20 118 -21 118c-31 -14 -161 -85 -161 -253c0 -53 15 -113 39 -189c71 88 143 196 143 324z" fill="currentColor"/>
</g>
<g transform="translate(27.1396, 91.9928)">
<path transform="scale(0.0040, -0.0040)" d="M0 -43c0 92 111 181 211 181c65 0 115 -37 115 -95c0 -88 -106 -181 -215 -181c-70 0 -111 41 -111 95z" fill="currentColor"/>
</g>
<g transform="translate(27.1396, 95.3975)">
<rect x="-0.3164" y="-0.1164" width="1.7852" height="0.1164" ry="0.0000" fill="currentColor"/>
</g>
<g transform="translate(27.1396, 93.8381)">
<rect x="-0.3164" y="-0.1164" width="1.7852" height="0.1164" ry="0.0000" fill="currentColor"/>
</g>
<g transform="translate(26.8231, 95.0510)">
<rect x="0" y="-1.2129" width="0.1164" height="1.4430" ry="0.0000" fill="currentColor"/>
</g>
<g transform="translate(28.4919, 95.0510)">
<rect x="0" y="-1.2129" width="0.1164" height="1.4430" ry="0.0000" fill="currentColor"/>
</g>
<g transform="translate(27.1396, 95.0510)">
<text font-family="serif" font-size="2.2001" text-anchor="start" fill="currentColor">
<tspan>α</tspan>
</text>
</g>
<g transform="translate(27.1396, 84.9346)">
<text font-family="serif" font-size="2.2001" text-anchor="start" fill="currentColor">
<tspan>NumberedPitchClass(4)</tspan>
</text>
</g>
<g transform="translate(22.1396, 90.9928)">
<path transform="scale(0.0040, -0.0040)" d="M647 2c0 -114 -75 -214 -180 -248c3 -33 4 -66 4 -99c0 -21 0 -41 -1 -62c-7 -122 -92 -229 -211 -229c-108 0 -196 88 -196 197c0 58 54 103 113 103c54 0 95 -47 95 -103c0 -52 -43 -95 -95 -95c-9 0 -18 1 -27 4c25 -37 66 -61 113 -61c93 0 156 91 162 191
c1 19 2 38 2 57c0 29 -1 58 -3 87c-28 -5 -54 -8 -79 -8c-242 0 -342 222 -342 376c0 177 129 308 244 443c-33 100 -55 169 -55 347c0 186 141 292 159 292c33 0 148 -208 148 -361c0 -142 -84 -255 -176 -364c21 -68 40 -136 57 -205c3 0 8 1 11 1
c156 0 257 -129 257 -263zM406 148c28 -133 49 -269 57 -349c73 27 109 93 109 160c0 86 -58 175 -166 189zM77 25c0 -111 96 -243 275 -243c21 0 44 1 67 5c-7 66 -27 208 -60 362c-79 -8 -124 -60 -124 -118c0 -43 25 -88 80 -120c5 -5 7 -11 7 -17c0 -12 -10 -23 -23 -23
c-16 0 -128 62 -128 188c0 89 60 177 163 200c-14 57 -30 113 -47 169c-105 -122 -210 -243 -210 -403zM424 920c0 61 -20 118 -21 118c-31 -14 -161 -85 -161 -253c0 -53 15 -113 39 -189c71 88 143 196 143 324z" fill="currentColor"/>
</g>
<g transform="translate(27.1396, 114.0963)">
<path transform="scale(0.0040, -0.0040)" d="M0 -43c0 92 111 181 211 181c65 0 115 -37 115 -95c0 -88 -106 -181 -215 -181c-70 0 -111 41 -111 95z" fill="currentColor"/>
</g>
<g transform="translate(27.1396, 118.0010)">
<rect x="-0.3164" y="-0.1164" width="1.7852" height="0.1164" ry="0.0000" fill="currentColor"/>
</g>
<g transform="translate(27.1396, 116.4416)">
<rect x="-0.3164" y="-0.1164" width="1.7852" height="0.1164" ry="0.0000" fill="currentColor"/>
</g>
<g transform="translate(26.8231, 117.6546)">
<rect x="0" y="-1.2129" width="0.1164" height="1.4430" ry="0.0000" fill="currentColor"/>
</g>
<g transform="translate(28.4919, 117.6546)">
<rect x="0" y="-1.2129" width="0.1164" height="1.4430" ry="0.0000" fill="currentColor"/>
</g>
<g transform="translate(27.1396, 117.6546)">
<text font-family="serif" font-size="2.2001" text-anchor="start" fill="currentColor">
<tspan>α</tspan>
</text>
</g>
<g transform="translate(27.1396, 107.5381)">
<text font-family="serif" font-size="2.2001" text-anchor="start" fill="currentColor">
<tspan>NumberedPitchClass(6)</tspan>
</text>
</g>
<g transform="translate(22.1396, 113.5963)">
<path transform="scale(0.0040, -0.0040)" d="M647 2c0 -114 -75 -214 -180 -248c3 -33 4 -66 4 -99c0 -21 0 -41 -1 -62c-7 -122 -92 -229 -211 -229c-108 0 -196 88 -196 197c0 58 54 103 113 103c54 0 95 -47 95 -103c0 -52 -43 -95 -95 -95c-9 0 -18 1 -27 4c25 -37 66 -61 113 -61c93 0 156 91 162 191
c1 19 2 38 2 57c0 29 -1 58 -3 87c-28 -5 -54 -8 -79 -8c-242 0 -342 222 -342 376c0 177 129 308 244 443c-33 100 -55 169 -55 347c0 186 141 292 159 292c33 0 148 -208 148 -361c0 -142 -84 -255 -176 -364c21 -68 40 -136 57 -205c3 0 8 1 11 1
c156 0 257 -129 257 -263zM406 148c28 -133 49 -269 57 -349c73 27 109 93 109 160c0 86 -58 175 -166 189zM77 25c0 -111 96 -243 275 -243c21 0 44 1 67 5c-7 66 -27 208 -60 362c-79 -8 -124 -60 -124 -118c0 -43 25 -88 80 -120c5 -5 7 -11 7 -17c0 -12 -10 -23 -23 -23
c-16 0 -128 62 -128 188c0 89 60 177 163 200c-14 57 -30 113 -47 169c-105 -122 -210 -243 -210 -403zM424 920c0 61 -20 118 -21 118c-31 -14 -161 -85 -161 -253c0 -53 15 -113 39 -189c71 88 143 196 143 324z" fill="currentColor"/>
</g>
<g transform="translate(27.1396, 136.1999)">
<path transform="scale(0.0040, -0.0040)" d="M0 -43c0 92 111 181 211 181c65 0 115 -37 115 -95c0 -88 -106 -181 -215 -181c-70 0 -111 41 -111 95z" fill="currentColor"/>
</g>
<g transform="translate(27.1396, 140.6046)">
<rect x="-0.3164" y="-0.1164" width="1.7852" height="0.1164" ry="0.0000" fill="currentColor"/>
</g>
<g transform="translate(27.1396, 139.0452)">
<rect x="-0.3164" y="-0.1164" width="1.7852" height="0.1164" ry="0.0000" fill="currentColor"/>
</g>
<g transform="translate(26.8231, 140.2581)">
<rect x="0" y="-1.2129" width="0.1164" height="1.4430" ry="0.0000" fill="currentColor"/>
</g>
<g transform="translate(28.4919, 140.2581)">
<rect x="0" y="-1.2129" width="0.1164" height="1.4430" ry="0.0000" fill="currentColor"/>
</g>
<g transform="translate(27.1396, 140.2581)">
<text font-family="serif" font-size="2.2001" text-anchor="start" fill="currentColor">
<tspan>α</tspan>
</text>
</g>
<g transform="translate(27.1396, 130.1417)">
<text font-family="serif" font-size="2.2001" text-anchor="start" fill="currentColor">
<tspan>NumberedPitchClass(7)</tspan>
</text>
</g>
<g transform="translate(22.1396, 136.1999)">
<path transform="scale(0.0040, -0.0040)" d="M647 2c0 -114 -75 -214 -180 -248c3 -33 4 -66 4 -99c0 -21 0 -41 -1 -62c-7 -122 -92 -229 -211 -229c-108 0 -196 88 -196 197c0 58 54 103 113 103c54 0 95 -47 95 -103c0 -52 -43 -95 -95 -95c-9 0 -18 1 -27 4c25 -37 66 -61 113 -61c93 0 156 91 162 191
c1 19 2 38 2 57c0 29 -1 58 -3 87c-28 -5 -54 -8 -79 -8c-242 0 -342 222 -342 376c0 177 129 308 244 443c-33 100 -55 169 -55 347c0 186 141 292 159 292c33 0 148 -208 148 -361c0 -142 -84 -255 -176 -364c21 -68 40 -136 57 -205c3 0 8 1 11 1
c156 0 257 -129 257 -263zM406 148c28 -133 49 -269 57 -349c73 27 109 93 109 160c0 86 -58 175 -166 189zM77 25c0 -111 96 -243 275 -243c21 0 44 1 67 5c-7 66 -27 208 -60 362c-79 -8 -124 -60 -124 -118c0 -43 25 -88 80 -120c5 -5 7 -11 7 -17c0 -12 -10 -23 -23 -23
c-16 0 -128 62 -128 188c0 89 60 177 163 200c-14 57 -30 113 -47 169c-105 -122 -210 -243 -210 -403zM424 920c0 61 -20 118 -21 118c-31 -14 -161 -85 -161 -253c0 -53 15 -113 39 -189c71 88 143 196 143 324z" fill="currentColor"/>
</g>
<g transform="translate(27.1396, 159.3034)">
<path transform="scale(0.0040, -0.0040)" d="M0 -43c0 92 111 181 211 181c65 0 115 -37 115 -95c0 -88 -106 -181 -215 -181c-70 0 -111 41 -111 95z" fill="currentColor"/>
</g>
<g transform="translate(27.1396, 163.2081)">
<rect x="-0.3164" y="-0.1164" width="1.7852" height="0.1164" ry="0.0000" fill="currentColor"/>
</g>
<g transform="translate(27.1396, 161.6487)">
<rect x="-0.3164" y="-0.1164" width="1.7852" height="0.1164" ry="0.0000" fill="currentColor"/>
</g>
<g transform="translate(26.8231, 162.8616)">
<rect x="0" y="-1.2129" width="0.1164" height="1.4430" ry="0.0000" fill="currentColor"/>
</g>
<g transform="translate(28.4919, 162.8616)">
<rect x="0" y="-1.2129" width="0.1164" height="1.4430" ry="0.0000" fill="currentColor"/>
</g>
<g transform="translate(27.1396, 162.8616)">
<text font-family="serif" font-size="2.2001" text-anchor="start" fill="currentColor">
<tspan>α</tspan>
</text>
</g>
<g transform="translate(27.1396, 152.7452)">
<text font-family="serif" font-size="2.2001" text-anchor="start" fill="currentColor">
<tspan>NumberedPitchClass(5)</tspan>
</text>
</g>
<g transform="translate(22.1396, 158.8034)">
<path transform="scale(0.0040, -0.0040)" d="M647 2c0 -114 -75 -214 -180 -248c3 -33 4 -66 4 -99c0 -21 0 -41 -1 -62c-7 -122 -92 -229 -211 -229c-108 0 -196 88 -196 197c0 58 54 103 113 103c54 0 95 -47 95 -103c0 -52 -43 -95 -95 -95c-9 0 -18 1 -27 4c25 -37 66 -61 113 -61c93 0 156 91 162 191
c1 19 2 38 2 57c0 29 -1 58 -3 87c-28 -5 -54 -8 -79 -8c-242 0 -342 222 -342 376c0 177 129 308 244 443c-33 100 -55 169 -55 347c0 186 141 292 159 292c33 0 148 -208 148 -361c0 -142 -84 -255 -176 -364c21 -68 40 -136 57 -205c3 0 8 1 11 1
c156 0 257 -129 257 -263zM406 148c28 -133 49 -269 57 -349c73 27 109 93 109 160c0 86 -58 175 -166 189zM77 25c0 -111 96 -243 275 -243c21 0 44 1 67 5c-7 66 -27 208 -60 362c-79 -8 -124 -60 -124 -118c0 -43 25 -88 80 -120c5 -5 7 -11 7 -17c0 -12 -10 -23 -23 -23
c-16 0 -128 62 -128 188c0 89 60 177 163 200c-14 57 -30 113 -47 169c-105 -122 -210 -243 -210 -403zM424 920c0 61 -20 118 -21 118c-31 -14 -161 -85 -161 -253c0 -53 15 -113 39 -189c71 88 143 196 143 324z" fill="currentColor"/>
</g>
<g transform="translate(25.6896, 25.1822)">
<path transform="scale(0.0040, -0.0040)" d="M0 116c0 10 6 19 16 23l40 15v154c0 12 9 21 21 21s21 -9 21 -21v-138l79 30v154c0 12 9 21 21 21s21 -9 21 -21v-138l22 8c3 1 6 2 9 2c13 0 25 -11 25 -25v-54c0 -10 -6 -20 -16 -24l-40 -15v-155l22 9c3 1 6 1 9 1c13 0 25 -11 25 -25v-54c0 -10 -6 -19 -16 -23
l-40 -15v-154c0 -12 -9 -21 -21 -21s-21 9 -21 21v138l-79 -30v-154c0 -12 -9 -21 -21 -21s-21 9 -21 21v138l-22 -8c-3 -1 -6 -2 -9 -2c-13 0 -25 11 -25 25v54c0 10 6 20 16 24l40 15v155l-22 -9c-3 -1 -6 -1 -9 -1c-13 0 -25 11 -25 25v54zM177 92l-79 -30v-154l79 30
v154z" fill="currentColor"/>
</g>
<g transform="translate(25.6896, 47.7857)">
<path transform="scale(0.0040, -0.0040)" d="M0 116c0 10 6 19 16 23l40 15v154c0 12 9 21 21 21s21 -9 21 -21v-138l79 30v154c0 12 9 21 21 21s21 -9 21 -21v-138l22 8c3 1 6 2 9 2c13 0 25 -11 25 -25v-54c0 -10 -6 -20 -16 -24l-40 -15v-155l22 9c3 1 6 1 9 1c13 0 25 -11 25 -25v-54c0 -10 -6 -19 -16 -23
l-40 -15v-154c0 -12 -9 -21 -21 -21s-21 9 -21 21v138l-79 -30v-154c0 -12 -9 -21 -21 -21s-21 9 -21 21v138l-22 -8c-3 -1 -6 -2 -9 -2c-13 0 -25 11 -25 25v54c0 10 6 20 16 24l40 15v155l-22 -9c-3 -1 -6 -1 -9 -1c-13 0 -25 11 -25 25v54zM177 92l-79 -30v-154l79 30
v154z" fill="currentColor"/>
</g>
<g transform="translate(25.6896, 114.0963)">
<path transform="scale(0.0040, -0.0040)" d="M0 116c0 10 6 19 16 23l40 15v154c0 12 9 21 21 21s21 -9 21 -21v-138l79 30v154c0 12 9 21 21 21s21 -9 21 -21v-138l22 8c3 1 6 2 9 2c13 0 25 -11 25 -25v-54c0 -10 -6 -20 -16 -24l-40 -15v-155l22 9c3 1 6 1 9 1c13 0 25 -11 25 -25v-54c0 -10 -6 -19 -16 -23
l-40 -15v-154c0 -12 -9 -21 -21 -21s-21 9 -21 21v138l-79 -30v-154c0 -12 -9 -21 -21 -21s-21 9 -21 21v138l-22 -8c-3 -1 -6 -2 -9 -2c-13 0 -25 11 -25 25v54c0 10 6 20 16 24l40 15v155l-22 -9c-3 -1 -6 -1 -9 -1c-13 0 -25 11 -25 25v54zM177 92l-79 -30v-154l79 30
v154z" fill="currentColor"/>
</g>
<g transform="translate(34.6634, 24.6822)">
<path transform="scale(0.0040, -0.0040)" d="M0 -43c0 92 111 181 211 181c65 0 115 -37 115 -95c0 -88 -106 -181 -215 -181c-70 0 -111 41 -111 95z" fill="currentColor"/>
</g>
<g transform="translate(34.6634, 47.2857)">
<path transform="scale(0.0040, -0.0040)" d="M0 -43c0 92 111 181 211 181c65 0 115 -37 115 -95c0 -88 -106 -181 -215 -181c-70 0 -111 41 -111 95z" fill="currentColor"/>
</g>
<g transform="translate(34.6634, 37.3856)">
<text font-family="serif" font-size="2.2001" text-anchor="start" fill="currentColor">
<tspan>NumberedPitchClass(2)</tspan>
</text>
</g>
<g transform="translate(34.6634, 69.3893)">
<path transform="scale(0.0040, -0.0040)" d="M0 -43c0 92 111 181 211 181c65 0 115 -37 115 -95c0 -88 -106 -181 -215 -181c-70 0 -111 41 -111 95z" fill="currentColor"/>
</g>
<g transform="translate(34.6634, 59.9892)">
<text font-family="serif" font-size="2.2001" text-anchor="start" fill="currentColor">
<tspan>NumberedPitchClass(4)</tspan>
</text>
</g>
<g transform="translate(34.6634, 91.4928)">
<path transform="scale(0.0040, -0.0040)" d="M0 -43c0 92 111 181 211 181c65 0 115 -37 115 -95c0 -88 -106 -181 -215 -181c-70 0 -111 41 -111 95z" fill="currentColor"/>
</g>
<g transform="translate(34.6634, 82.5927)">
<text font-family="serif" font-size="2.2001" text-anchor="start" fill="currentColor">
<tspan>NumberedPitchClass(6)</tspan>
</text>
</g>
<g transform="translate(34.6634, 113.5963)">
<path transform="scale(0.0040, -0.0040)" d="M0 -43c0 92 111 181 211 181c65 0 115 -37 115 -95c0 -88 -106 -181 -215 -181c-70 0 -111 41 -111 95z" fill="currentColor"/>
</g>
<g transform="translate(34.6634, 105.1962)">
<text font-family="serif" font-size="2.2001" text-anchor="start" fill="currentColor">
<tspan>NumberedPitchClass(7)</tspan>
</text>
</g>
<g transform="translate(34.6634, 136.6999)">
<path transform="scale(0.0040, -0.0040)" d="M0 -43c0 92 111 181 211 181c65 0 115 -37 115 -95c0 -88 -106 -181 -215 -181c-70 0 -111 41 -111 95z" fill="currentColor"/>
</g>
<g transform="translate(34.6634, 127.7998)">
<text font-family="serif" font-size="2.2001" text-anchor="start" fill="currentColor">
<tspan>NumberedPitchClass(5)</tspan>
</text>
</g>
<g transform="translate(34.6634, 160.8034)">
<path transform="scale(0.0040, -0.0040)" d="M0 -43c0 92 111 181 211 181c65 0 115 -37 115 -95c0 -88 -106 -181 -215 -181c-70 0 -111 41 -111 95z" fill="currentColor"/>
</g>
<g transform="translate(34.6634, 150.4033)">
<text font-family="serif" font-size="2.2001" text-anchor="start" fill="currentColor">
<tspan>NumberedPitchClass(1)</tspan>
</text>
</g>
<g transform="translate(33.2134, 91.4928)">
<path transform="scale(0.0040, -0.0040)" d="M0 116c0 10 6 19 16 23l40 15v154c0 12 9 21 21 21s21 -9 21 -21v-138l79 30v154c0 12 9 21 21 21s21 -9 21 -21v-138l22 8c3 1 6 2 9 2c13 0 25 -11 25 -25v-54c0 -10 -6 -20 -16 -24l-40 -15v-155l22 9c3 1 6 1 9 1c13 0 25 -11 25 -25v-54c0 -10 -6 -19 -16 -23
l-40 -15v-154c0 -12 -9 -21 -21 -21s-21 9 -21 21v138l-79 -30v-154c0 -12 -9 -21 -21 -21s-21 9 -21 21v138l-22 -8c-3 -1 -6 -2 -9 -2c-13 0 -25 11 -25 25v54c0 10 6 20 16 24l40 15v155l-22 -9c-3 -1 -6 -1 -9 -1c-13 0 -25 11 -25 25v54zM177 92l-79 -30v-154l79 30
v154z" fill="currentColor"/>
</g>
<g transform="translate(33.2134, 160.8034)">
<path transform="scale(0.0040, -0.0040)" d="M0 116c0 10 6 19 16 23l40 15v154c0 12 9 21 21 21s21 -9 21 -21v-138l79 30v154c0 12 9 21 21 21s21 -9 21 -21v-138l22 8c3 1 6 2 9 2c13 0 25 -11 25 -25v-54c0 -10 -6 -20 -16 -24l-40 -15v-155l22 9c3 1 6 1 9 1c13 0 25 -11 25 -25v-54c0 -10 -6 -19 -16 -23
l-40 -15v-154c0 -12 -9 -21 -21 -21s-21 9 -21 21v138l-79 -30v-154c0 -12 -9 -21 -21 -21s-21 9 -21 21v138l-22 -8c-3 -1 -6 -2 -9 -2c-13 0 -25 11 -25 25v54c0 10 6 20 16 24l40 15v155l-22 -9c-3 -1 -6 -1 -9 -1c-13 0 -25 11 -25 25v54zM177 92l-79 -30v-154l79 30
v154z" fill="currentColor"/>
</g>
<g transform="translate(42.1873, 24.1822)">
<path transform="scale(0.0040, -0.0040)" d="M0 -43c0 92 111 181 211 181c65 0 115 -37 115 -95c0 -88 -106 -181 -215 -181c-70 0 -111 41 -111 95z" fill="currentColor"/>
</g>
<g transform="translate(42.1873, 46.7857)">
<path transform="scale(0.0040, -0.0040)" d="M0 -43c0 92 111 181 211 181c65 0 115 -37 115 -95c0 -88 -106 -181 -215 -181c-70 0 -111 41 -111 95z" fill="currentColor"/>
</g>
<g transform="translate(42.1873, 34.9985)">
<text font-family="serif" font-size="2.2001" text-anchor="start" fill="currentColor">
<tspan>NumberedPitchClass(4)</tspan>
</text>
</g>
<g transform="translate(42.1873, 68.8893)">
<path transform="scale(0.0040, -0.0040)" d="M0 -43c0 92 111 181 211 181c65 0 115 -37 115 -95c0 -88 -106 -181 -215 -181c-70 0 -111 41 -111 95z" fill="currentColor"/>
</g>
<g transform="translate(42.1873, 57.6021)">
<text font-family="serif" font-size="2.2001" text-anchor="start" fill="currentColor">
<tspan>NumberedPitchClass(6)</tspan>
</text>
</g>
<g transform="translate(42.1873, 90.9928)">
<path transform="scale(0.0040, -0.0040)" d="M0 -43c0 92 111 181 211 181c65 0 115 -37 115 -95c0 -88 -106 -181 -215 -181c-70 0 -111 41 -111 95z" fill="currentColor"/>
</g>
<g transform="translate(42.1873, 80.2056)">
<text font-family="serif" font-size="2.2001" text-anchor="start" fill="currentColor">
<tspan>NumberedPitchClass(7)</tspan>
</text>
</g>
<g transform="translate(42.1873, 114.0963)">
<path transform="scale(0.0040, -0.0040)" d="M0 -43c0 92 111 181 211 181c65 0 115 -37 115 -95c0 -88 -106 -181 -215 -181c-70 0 -111 41 -111 95z" fill="currentColor"/>
</g>
<g transform="translate(42.1873, 102.8091)">
<text font-family="serif" font-size="2.2001" text-anchor="start" fill="currentColor">
<tspan>NumberedPitchClass(5)</tspan>
</text>
</g>
<g transform="translate(42.1873, 138.1999)">
<path transform="scale(0.0040, -0.0040)" d="M0 -43c0 92 111 181 211 181c65 0 115 -37 115 -95c0 -88 -106 -181 -215 -181c-70 0 -111 41 -111 95z" fill="currentColor"/>
</g>
<g transform="translate(42.1873, 125.4127)">
<text font-family="serif" font-size="2.2001" text-anchor="start" fill="currentColor">
<tspan>NumberedPitchClass(1)</tspan>
</text>
</g>
<g transform="translate(42.1873, 160.3034)">
<path transform="scale(0.0040, -0.0040)" d="M0 -43c0 92 111 181 211 181c65 0 115 -37 115 -95c0 -88 -106 -181 -215 -181c-70 0 -111 41 -111 95z" fill="currentColor"/>
</g>
<g transform="translate(42.1873, 148.0162)">
<text font-family="serif" font-size="2.2001" text-anchor="start" fill="currentColor">
<tspan>NumberedPitchClass(2)</tspan>
</text>
</g>
<g transform="translate(40.7373, 68.8893)">
<path transform="scale(0.0040, -0.0040)" d="M0 116c0 10 6 19 16 23l40 15v154c0 12 9 21 21 21s21 -9 21 -21v-138l79 30v154c0 12 9 21 21 21s21 -9 21 -21v-138l22 8c3 1 6 2 9 2c13 0 25 -11 25 -25v-54c0 -10 -6 -20 -16 -24l-40 -15v-155l22 9c3 1 6 1 9 1c13 0 25 -11 25 -25v-54c0 -10 -6 -19 -16 -23
l-40 -15v-154c0 -12 -9 -21 -21 -21s-21 9 -21 21v138l-79 -30v-154c0 -12 -9 -21 -21 -21s-21 9 -21 21v138l-22 -8c-3 -1 -6 -2 -9 -2c-13 0 -25 11 -25 25v54c0 10 6 20 16 24l40 15v155l-22 -9c-3 -1 -6 -1 -9 -1c-13 0 -25 11 -25 25v54zM177 92l-79 -30v-154l79 30
v154z" fill="currentColor"/>
</g>
<g transform="translate(41.1531, 114.0963)">
<path transform="scale(0.0040, -0.0040)" d="M-7 375c8 5 17 7 26 7s17 -2 25 -7l-2 -192l102 23h4c10 0 19 -8 19 -18l7 -563c-8 -5 -17 -7 -26 -7s-18 2 -26 7l3 192l-102 -23h-4c-10 0 -19 8 -19 18zM129 110l-88 -19l-3 -201l88 19z" fill="currentColor"/>
</g>
<g transform="translate(40.7373, 138.1999)">
<path transform="scale(0.0040, -0.0040)" d="M0 116c0 10 6 19 16 23l40 15v154c0 12 9 21 21 21s21 -9 21 -21v-138l79 30v154c0 12 9 21 21 21s21 -9 21 -21v-138l22 8c3 1 6 2 9 2c13 0 25 -11 25 -25v-54c0 -10 -6 -20 -16 -24l-40 -15v-155l22 9c3 1 6 1 9 1c13 0 25 -11 25 -25v-54c0 -10 -6 -19 -16 -23
l-40 -15v-154c0 -12 -9 -21 -21 -21s-21 9 -21 21v138l-79 -30v-154c0 -12 -9 -21 -21 -21s-21 9 -21 21v138l-22 -8c-3 -1 -6 -2 -9 -2c-13 0 -25 11 -25 25v54c0 10 6 20 16 24l40 15v155l-22 -9c-3 -1 -6 -1 -9 -1c-13 0 -25 11 -25 25v54zM177 92l-79 -30v-154l79 30
v154z" fill="currentColor"/>
</g>
<g transform="translate(49.7112, 23.6822)">
<path transform="scale(0.0040, -0.0040)" d="M0 -43c0 92 111 181 211 181c65 0 115 -37 115 -95c0 -88 -106 -181 -215 -181c-70 0 -111 41 -111 95z" fill="currentColor"/>
</g>
<g transform="translate(49.7112, 46.2857)">
<path transform="scale(0.0040, -0.0040)" d="M0 -43c0 92 111 181 211 181c65 0 115 -37 115 -95c0 -88 -106 -181 -215 -181c-70 0 -111 41 -111 95z" fill="currentColor"/>
</g>
<g transform="translate(49.7112, 39.7275)">
<text font-family="serif" font-size="2.2001" text-anchor="start" fill="currentColor">
<tspan>NumberedPitchClass(6)</tspan>
</text>
</g>
<g transform="translate(49.7112, 68.3893)">
<path transform="scale(0.0040, -0.0040)" d="M0 -43c0 92 111 181 211 181c65 0 115 -37 115 -95c0 -88 -106 -181 -215 -181c-70 0 -111 41 -111 95z" fill="currentColor"/>
</g>
<g transform="translate(49.7112, 62.3311)">
<text font-family="serif" font-size="2.2001" text-anchor="start" fill="currentColor">
<tspan>NumberedPitchClass(7)</tspan>
</text>
</g>
<g transform="translate(49.7112, 91.4928)">
<path transform="scale(0.0040, -0.0040)" d="M0 -43c0 92 111 181 211 181c65 0 115 -37 115 -95c0 -88 -106 -181 -215 -181c-70 0 -111 41 -111 95z" fill="currentColor"/>
</g>
<g transform="translate(49.7112, 84.9346)">
<text font-family="serif" font-size="2.2001" text-anchor="start" fill="currentColor">
<tspan>NumberedPitchClass(5)</tspan>
</text>
</g>
<g transform="translate(49.7112, 115.5963)">
<path transform="scale(0.0040, -0.0040)" d="M0 -43c0 92 111 181 211 181c65 0 115 -37 115 -95c0 -88 -106 -181 -215 -181c-70 0 -111 41 -111 95z" fill="currentColor"/>
</g>
<g transform="translate(49.7112, 107.5381)">
<text font-family="serif" font-size="2.2001" text-anchor="start" fill="currentColor">
<tspan>NumberedPitchClass(1)</tspan>
</text>
</g>
<g transform="translate(49.7112, 137.6999)">
<path transform="scale(0.0040, -0.0040)" d="M0 -43c0 92 111 181 211 181c65 0 115 -37 115 -95c0 -88 -106 -181 -215 -181c-70 0 -111 41 -111 95z" fill="currentColor"/>
</g>
<g transform="translate(49.7112, 130.1417)">
<text font-family="serif" font-size="2.2001" text-anchor="start" fill="currentColor">
<tspan>NumberedPitchClass(2)</tspan>
</text>
</g>
<g transform="translate(49.7112, 159.8034)">
<path transform="scale(0.0040, -0.0040)" d="M0 -43c0 92 111 181 211 181c65 0 115 -37 115 -95c0 -88 -106 -181 -215 -181c-70 0 -111 41 -111 95z" fill="currentColor"/>
</g>
<g transform="translate(49.7112, 152.7452)">
<text font-family="serif" font-size="2.2001" text-anchor="start" fill="currentColor">
<tspan>NumberedPitchClass(4)</tspan>
</text>
</g>
<g transform="translate(48.2612, 23.6822)">
<path transform="scale(0.0040, -0.0040)" d="M0 116c0 10 6 19 16 23l40 15v154c0 12 9 21 21 21s21 -9 21 -21v-138l79 30v154c0 12 9 21 21 21s21 -9 21 -21v-138l22 8c3 1 6 2 9 2c13 0 25 -11 25 -25v-54c0 -10 -6 -20 -16 -24l-40 -15v-155l22 9c3 1 6 1 9 1c13 0 25 -11 25 -25v-54c0 -10 -6 -19 -16 -23
l-40 -15v-154c0 -12 -9 -21 -21 -21s-21 9 -21 21v138l-79 -30v-154c0 -12 -9 -21 -21 -21s-21 9 -21 21v138l-22 -8c-3 -1 -6 -2 -9 -2c-13 0 -25 11 -25 25v54c0 10 6 20 16 24l40 15v155l-22 -9c-3 -1 -6 -1 -9 -1c-13 0 -25 11 -25 25v54zM177 92l-79 -30v-154l79 30
v154z" fill="currentColor"/>
</g>
<g transform="translate(48.2612, 46.2857)">
<path transform="scale(0.0040, -0.0040)" d="M0 116c0 10 6 19 16 23l40 15v154c0 12 9 21 21 21s21 -9 21 -21v-138l79 30v154c0 12 9 21 21 21s21 -9 21 -21v-138l22 8c3 1 6 2 9 2c13 0 25 -11 25 -25v-54c0 -10 -6 -20 -16 -24l-40 -15v-155l22 9c3 1 6 1 9 1c13 0 25 -11 25 -25v-54c0 -10 -6 -19 -16 -23
l-40 -15v-154c0 -12 -9 -21 -21 -21s-21 9 -21 21v138l-79 -30v-154c0 -12 -9 -21 -21 -21s-21 9 -21 21v138l-22 -8c-3 -1 -6 -2 -9 -2c-13 0 -25 11 -25 25v54c0 10 6 20 16 24l40 15v155l-22 -9c-3 -1 -6 -1 -9 -1c-13 0 -25 11 -25 25v54zM177 92l-79 -30v-154l79 30
v154z" fill="currentColor"/>
</g>
<g transform="translate(48.6770, 91.4928)">
<path transform="scale(0.0040, -0.0040)" d="M-7 375c8 5 17 7 26 7s17 -2 25 -7l-2 -192l102 23h4c10 0 19 -8 19 -18l7 -563c-8 -5 -17 -7 -26 -7s-18 2 -26 7l3 192l-102 -23h-4c-10 0 -19 8 -19 18zM129 110l-88 -19l-3 -201l88 19z" fill="currentColor"/>
</g>
<g transform="translate(48.2612, 115.5963)">
<path transform="scale(0.0040, -0.0040)" d="M0 116c0 10 6 19 16 23l40 15v154c0 12 9 21 21 21s21 -9 21 -21v-138l79 30v154c0 12 9 21 21 21s21 -9 21 -21v-138l22 8c3 1 6 2 9 2c13 0 25 -11 25 -25v-54c0 -10 -6 -20 -16 -24l-40 -15v-155l22 9c3 1 6 1 9 1c13 0 25 -11 25 -25v-54c0 -10 -6 -19 -16 -23
l-40 -15v-154c0 -12 -9 -21 -21 -21s-21 9 -21 21v138l-79 -30v-154c0 -12 -9 -21 -21 -21s-21 9 -21 21v138l-22 -8c-3 -1 -6 -2 -9 -2c-13 0 -25 11 -25 25v54c0 10 6 20 16 24l40 15v155l-22 -9c-3 -1 -6 -1 -9 -1c-13 0 -25 11 -25 25v54zM177 92l-79 -30v-154l79 30
v154z" fill="currentColor"/>
</g>
<g transform="translate(57.2351, 23.1822)">
<path transform="scale(0.0040, -0.0040)" d="M0 -43c0 92 111 181 211 181c65 0 115 -37 115 -95c0 -88 -106 -181 -215 -181c-70 0 -111 41 -111 95z" fill="currentColor"/>
</g>
<g transform="translate(57.2351, 45.7857)">
<path transform="scale(0.0040, -0.0040)" d="M0 -43c0 92 111 181 211 181c65 0 115 -37 115 -95c0 -88 -106 -181 -215 -181c-70 0 -111 41 -111 95z" fill="currentColor"/>
</g>
<g transform="translate(57.2351, 37.3404)">
<text font-family="serif" font-size="2.2001" text-anchor="start" fill="currentColor">
<tspan>NumberedPitchClass(7)</tspan>
</text>
</g>
<g transform="translate(57.2351, 68.8893)">
<path transform="scale(0.0040, -0.0040)" d="M0 -43c0 92 111 181 211 181c65 0 115 -37 115 -95c0 -88 -106 -181 -215 -181c-70 0 -111 41 -111 95z" fill="currentColor"/>
</g>
<g transform="translate(57.2351, 59.9440)">
<text font-family="serif" font-size="2.2001" text-anchor="start" fill="currentColor">
<tspan>NumberedPitchClass(5)</tspan>
</text>
</g>
<g transform="translate(57.2351, 92.9928)">
<path transform="scale(0.0040, -0.0040)" d="M0 -43c0 92 111 181 211 181c65 0 115 -37 115 -95c0 -88 -106 -181 -215 -181c-70 0 -111 41 -111 95z" fill="currentColor"/>
</g>
<g transform="translate(57.2351, 82.5475)">
<text font-family="serif" font-size="2.2001" text-anchor="start" fill="currentColor">
<tspan>NumberedPitchClass(1)</tspan>
</text>
</g>
<g transform="translate(57.2351, 115.0963)">
<path transform="scale(0.0040, -0.0040)" d="M0 -43c0 92 111 181 211 181c65 0 115 -37 115 -95c0 -88 -106 -181 -215 -181c-70 0 -111 41 -111 95z" fill="currentColor"/>
</g>
<g transform="translate(57.2351, 105.1510)">
<text font-family="serif" font-size="2.2001" text-anchor="start" fill="currentColor">
<tspan>NumberedPitchClass(2)</tspan>
</text>
</g>
<g transform="translate(57.2351, 137.1999)">
<path transform="scale(0.0040, -0.0040)" d="M0 -43c0 92 111 181 211 181c65 0 115 -37 115 -95c0 -88 -106 -181 -215 -181c-70 0 -111 41 -111 95z" fill="currentColor"/>
</g>
<g transform="translate(57.2351, 127.7546)">
<text font-family="serif" font-size="2.2001" text-anchor="start" fill="currentColor">
<tspan>NumberedPitchClass(4)</tspan>
</text>
</g>
<g transform="translate(57.2351, 159.3034)">
<path transform="scale(0.0040, -0.0040)" d="M0 -43c0 92 111 181 211 181c65 0 115 -37 115 -95c0 -88 -106 -181 -215 -181c-70 0 -111 41 -111 95z" fill="currentColor"/>
</g>
<g transform="translate(57.2351, 150.3581)">
<text font-family="serif" font-size="2.2001" text-anchor="start" fill="currentColor">
<tspan>NumberedPitchClass(6)</tspan>
</text>
</g>
<g transform="translate(56.2009, 68.8893)">
<path transform="scale(0.0040, -0.0040)" d="M-7 375c8 5 17 7 26 7s17 -2 25 -7l-2 -192l102 23h4c10 0 19 -8 19 -18l7 -563c-8 -5 -17 -7 -26 -7s-18 2 -26 7l3 192l-102 -23h-4c-10 0 -19 8 -19 18zM129 110l-88 -19l-3 -201l88 19z" fill="currentColor"/>
</g>
<g transform="translate(55.7851, 92.9928)">
<path transform="scale(0.0040, -0.0040)" d="M0 116c0 10 6 19 16 23l40 15v154c0 12 9 21 21 21s21 -9 21 -21v-138l79 30v154c0 12 9 21 21 21s21 -9 21 -21v-138l22 8c3 1 6 2 9 2c13 0 25 -11 25 -25v-54c0 -10 -6 -20 -16 -24l-40 -15v-155l22 9c3 1 6 1 9 1c13 0 25 -11 25 -25v-54c0 -10 -6 -19 -16 -23
l-40 -15v-154c0 -12 -9 -21 -21 -21s-21 9 -21 21v138l-79 -30v-154c0 -12 -9 -21 -21 -21s-21 9 -21 21v138l-22 -8c-3 -1 -6 -2 -9 -2c-13 0 -25 11 -25 25v54c0 10 6 20 16 24l40 15v155l-22 -9c-3 -1 -6 -1 -9 -1c-13 0 -25 11 -25 25v54zM177 92l-79 -30v-154l79 30
v154z" fill="currentColor"/>
</g>
<g transform="translate(55.7851, 159.3034)">
<path transform="scale(0.0040, -0.0040)" d="M0 116c0 10 6 19 16 23l40 15v154c0 12 9 21 21 21s21 -9 21 -21v-138l79 30v154c0 12 9 21 21 21s21 -9 21 -21v-138l22 8c3 1 6 2 9 2c13 0 25 -11 25 -25v-54c0 -10 -6 -20 -16 -24l-40 -15v-155l22 9c3 1 6 1 9 1c13 0 25 -11 25 -25v-54c0 -10 -6 -19 -16 -23
l-40 -15v-154c0 -12 -9 -21 -21 -21s-21 9 -21 21v138l-79 -30v-154c0 -12 -9 -21 -21 -21s-21 9 -21 21v138l-22 -8c-3 -1 -6 -2 -9 -2c-13 0 -25 11 -25 25v54c0 10 6 20 16 24l40 15v155l-22 -9c-3 -1 -6 -1 -9 -1c-13 0 -25 11 -25 25v54zM177 92l-79 -30v-154l79 30
v154z" fill="currentColor"/>
</g>
<g transform="translate(64.7590, 23.6822)">
<path transform="scale(0.0040, -0.0040)" d="M0 -43c0 92 111 181 211 181c65 0 115 -37 115 -95c0 -88 -106 -181 -215 -181c-70 0 -111 41 -111 95z" fill="currentColor"/>
</g>
<g transform="translate(64.7590, 46.2857)">
<path transform="scale(0.0040, -0.0040)" d="M0 -43c0 92 111 181 211 181c65 0 115 -37 115 -95c0 -88 -106 -181 -215 -181c-70 0 -111 41 -111 95z" fill="currentColor"/>
</g>
<g transform="translate(64.7590, 34.9840)">
<text font-family="serif" font-size="2.2001" text-anchor="start" fill="currentColor">
<tspan>NumberedPitchClass(5)</tspan>
</text>
</g>
<g transform="translate(64.7590, 70.3893)">
<path transform="scale(0.0040, -0.0040)" d="M0 -43c0 92 111 181 211 181c65 0 115 -37 115 -95c0 -88 -106 -181 -215 -181c-70 0 -111 41 -111 95z" fill="currentColor"/>
</g>
<g transform="translate(64.7590, 57.5875)">
<text font-family="serif" font-size="2.2001" text-anchor="start" fill="currentColor">
<tspan>NumberedPitchClass(1)</tspan>
</text>
</g>
<g transform="translate(64.7590, 92.4928)">
<path transform="scale(0.0040, -0.0040)" d="M0 -43c0 92 111 181 211 181c65 0 115 -37 115 -95c0 -88 -106 -181 -215 -181c-70 0 -111 41 -111 95z" fill="currentColor"/>
</g>
<g transform="translate(64.7590, 80.1911)">
<text font-family="serif" font-size="2.2001" text-anchor="start" fill="currentColor">
<tspan>NumberedPitchClass(2)</tspan>
</text>
</g>
<g transform="translate(64.7590, 114.5963)">
<path transform="scale(0.0040, -0.0040)" d="M0 -43c0 92 111 181 211 181c65 0 115 -37 115 -95c0 -88 -106 -181 -215 -181c-70 0 -111 41 -111 95z" fill="currentColor"/>
</g>
<g transform="translate(64.7590, 103.1398)">
<text font-family="serif" font-size="2.2001" text-anchor="start" fill="currentColor">
<tspan>NumberedPitchClass(4)</tspan>
</text>
</g>
<g transform="translate(64.7590, 136.6999)">
<path transform="scale(0.0040, -0.0040)" d="M0 -43c0 92 111 181 211 181c65 0 115 -37 115 -95c0 -88 -106 -181 -215 -181c-70 0 -111 41 -111 95z" fill="currentColor"/>
</g>
<g transform="translate(64.7590, 125.3981)">
<text font-family="serif" font-size="2.2001" text-anchor="start" fill="currentColor">
<tspan>NumberedPitchClass(6)</tspan>
</text>
</g>
<g transform="translate(64.7590, 158.8034)">
<path transform="scale(0.0040, -0.0040)" d="M0 -43c0 92 111 181 211 181c65 0 115 -37 115 -95c0 -88 -106 -181 -215 -181c-70 0 -111 41 -111 95z" fill="currentColor"/>
</g>
<g transform="translate(64.7590, 148.0017)">
<text font-family="serif" font-size="2.2001" text-anchor="start" fill="currentColor">
<tspan>NumberedPitchClass(7)</tspan>
</text>
</g>
<g transform="translate(63.7248, 23.6822)">
<path transform="scale(0.0040, -0.0040)" d="M-7 375c8 5 17 7 26 7s17 -2 25 -7l-2 -192l102 23h4c10 0 19 -8 19 -18l7 -563c-8 -5 -17 -7 -26 -7s-18 2 -26 7l3 192l-102 -23h-4c-10 0 -19 8 -19 18zM129 110l-88 -19l-3 -201l88 19z" fill="currentColor"/>
</g>
<g transform="translate(63.7248, 46.2857)">
<path transform="scale(0.0040, -0.0040)" d="M-7 375c8 5 17 7 26 7s17 -2 25 -7l-2 -192l102 23h4c10 0 19 -8 19 -18l7 -563c-8 -5 -17 -7 -26 -7s-18 2 -26 7l3 192l-102 -23h-4c-10 0 -19 8 -19 18zM129 110l-88 -19l-3 -201l88 19z" fill="currentColor"/>
</g>
<g transform="translate(63.3090, 70.3893)">
<path transform="scale(0.0040, -0.0040)" d="M0 116c0 10 6 19 16 23l40 15v154c0 12 9 21 21 21s21 -9 21 -21v-138l79 30v154c0 12 9 21 21 21s21 -9 21 -21v-138l22 8c3 1 6 2 9 2c13 0 25 -11 25 -25v-54c0 -10 -6 -20 -16 -24l-40 -15v-155l22 9c3 1 6 1 9 1c13 0 25 -11 25 -25v-54c0 -10 -6 -19 -16 -23
l-40 -15v-154c0 -12 -9 -21 -21 -21s-21 9 -21 21v138l-79 -30v-154c0 -12 -9 -21 -21 -21s-21 9 -21 21v138l-22 -8c-3 -1 -6 -2 -9 -2c-13 0 -25 11 -25 25v54c0 10 6 20 16 24l40 15v155l-22 -9c-3 -1 -6 -1 -9 -1c-13 0 -25 11 -25 25v54zM177 92l-79 -30v-154l79 30
v154z" fill="currentColor"/>
</g>
<g transform="translate(63.3090, 136.6999)">
<path transform="scale(0.0040, -0.0040)" d="M0 116c0 10 6 19 16 23l40 15v154c0 12 9 21 21 21s21 -9 21 -21v-138l79 30v154c0 12 9 21 21 21s21 -9 21 -21v-138l22 8c3 1 6 2 9 2c13 0 25 -11 25 -25v-54c0 -10 -6 -20 -16 -24l-40 -15v-155l22 9c3 1 6 1 9 1c13 0 25 -11 25 -25v-54c0 -10 -6 -19 -16 -23
l-40 -15v-154c0 -12 -9 -21 -21 -21s-21 9 -21 21v138l-79 -30v-154c0 -12 -9 -21 -21 -21s-21 9 -21 21v138l-22 -8c-3 -1 -6 -2 -9 -2c-13 0 -25 11 -25 25v54c0 10 6 20 16 24l40 15v155l-22 -9c-3 -1 -6 -1 -9 -1c-13 0 -25 11 -25 25v54zM177 92l-79 -30v-154l79 30
v154z" fill="currentColor"/>
</g>
<g transform="translate(75.5130, 24.1822)">
<path transform="scale(0.0040, -0.0040)" d="M0 -43c0 92 111 181 211 181c65 0 115 -37 115 -95c0 -88 -106 -181 -215 -181c-70 0 -111 41 -111 95z" fill="currentColor"/>
</g>
<g transform="translate(21.2533, 89.9928)">
<rect x="0.0000" y="-69.8688" width="0.1863" height="139.7376" ry="0.0582" fill="currentColor"/>
</g>
<g transform="translate(75.5130, 46.7857)">
<path transform="scale(0.0040, -0.0040)" d="M0 -43c0 92 111 181 211 181c65 0 115 -37 115 -95c0 -88 -106 -181 -215 -181c-70 0 -111 41 -111 95z" fill="currentColor"/>
</g>
<g transform="translate(75.5130, 50.6309)">
<rect x="-0.3164" y="-0.1164" width="1.7425" height="0.1164" ry="0.0000" fill="currentColor"/>
</g>
<g transform="translate(75.5130, 48.1186)">
<rect x="-0.3164" y="-0.1164" width="1.7425" height="0.1164" ry="0.0000" fill="currentColor"/>
</g>
<g transform="translate(75.1966, 49.8440)">
<rect x="0" y="-1.7253" width="0.1164" height="2.3958" ry="0.0000" fill="currentColor"/>
</g>
<g transform="translate(76.8227, 49.8440)">
<rect x="0" y="-1.7253" width="0.1164" height="2.3958" ry="0.0000" fill="currentColor"/>
</g>
<g transform="translate(75.5130, 49.8440)">
<text font-family="serif" font-size="2.2001" text-anchor="start" fill="currentColor">
<tspan>β</tspan>
</text>
</g>
<g transform="translate(75.5130, 39.7275)">
<text font-family="serif" font-size="2.2001" text-anchor="start" fill="currentColor">
<tspan>NumberedPitchClass(3)</tspan>
</text>
</g>
<g transform="translate(20.0033, 42.5025)">
<path transform="scale(0.0040, -0.0040)" d="M0 -56v83c0 16 13 29 29 29h59c154 0 257 136 342 267c4 6 10 8 15 8c10 0 19 -8 19 -18c0 -3 -1 -7 -3 -10c-93 -143 -204 -359 -373 -359h-88z" fill="currentColor"/>
</g>
<g transform="translate(20.0033, 160.0867)">
<path transform="scale(0.0040, -0.0040)" d="M0 56h88c169 0 280 -216 373 -359c2 -3 3 -7 3 -10c0 -10 -9 -18 -19 -18c-5 0 -11 2 -15 8c-85 131 -188 267 -342 267h-59c-16 0 -29 13 -29 29v83z" fill="currentColor"/>
</g>
<g transform="translate(20.0033, 101.2946)">
<rect x="0.0000" y="-58.6120" width="0.4500" height="117.2241" ry="0.0000" fill="currentColor"/>
</g>
<g transform="translate(75.5130, 67.3893)">
<path transform="scale(0.0040, -0.0040)" d="M0 -43c0 92 111 181 211 181c65 0 115 -37 115 -95c0 -88 -106 -181 -215 -181c-70 0 -111 41 -111 95z" fill="currentColor"/>
</g>
<g transform="translate(75.5130, 73.2344)">
<rect x="-0.3164" y="-0.1164" width="1.7425" height="0.1164" ry="0.0000" fill="currentColor"/>
</g>
<g transform="translate(75.5130, 70.7222)">
<rect x="-0.3164" y="-0.1164" width="1.7425" height="0.1164" ry="0.0000" fill="currentColor"/>
</g>
<g transform="translate(75.1966, 72.4475)">
<rect x="0" y="-1.7253" width="0.1164" height="2.3958" ry="0.0000" fill="currentColor"/>
</g>
<g transform="translate(76.8227, 72.4475)">
<rect x="0" y="-1.7253" width="0.1164" height="2.3958" ry="0.0000" fill="currentColor"/>
</g>
<g transform="translate(75.5130, 72.4475)">
<text font-family="serif" font-size="2.2001" text-anchor="start" fill="currentColor">
<tspan>β</tspan>
</text>
</g>
<g transform="translate(75.5130, 62.3311)">
<text font-family="serif" font-size="2.2001" text-anchor="start" fill="currentColor">
<tspan>NumberedPitchClass(11)</tspan>
</text>
</g>
<g transform="translate(75.5130, 92.9928)">
<path transform="scale(0.0040, -0.0040)" d="M0 -43c0 92 111 181 211 181c65 0 115 -37 115 -95c0 -88 -106 -181 -215 -181c-70 0 -111 41 -111 95z" fill="currentColor"/>
</g>
<g transform="translate(75.5130, 96.6342)">
<rect x="-0.3164" y="-0.1164" width="1.7425" height="0.1164" ry="0.0000" fill="currentColor"/>
</g>
<g transform="translate(75.5130, 94.1220)">
<rect x="-0.3164" y="-0.1164" width="1.7425" height="0.1164" ry="0.0000" fill="currentColor"/>
</g>
<g transform="translate(75.1966, 95.8473)">
<rect x="0" y="-1.7253" width="0.1164" height="2.3958" ry="0.0000" fill="currentColor"/>
</g>
<g transform="translate(76.8227, 95.8473)">
<rect x="0" y="-1.7253" width="0.1164" height="2.3958" ry="0.0000" fill="currentColor"/>
</g>
<g transform="translate(75.5130, 95.8473)">
<text font-family="serif" font-size="2.2001" text-anchor="start" fill="currentColor">
<tspan>β</tspan>
</text>
</g>
<g transform="translate(75.5130, 84.9346)">
<text font-family="serif" font-size="2.2001" text-anchor="start" fill="currentColor">
<tspan>NumberedPitchClass(0)</tspan>
</text>
</g>
<g transform="translate(75.5130, 112.5963)">
<path transform="scale(0.0040, -0.0040)" d="M0 -43c0 92 111 181 211 181c65 0 115 -37 115 -95c0 -88 -106 -181 -215 -181c-70 0 -111 41 -111 95z" fill="currentColor"/>
</g>
<g transform="translate(75.5130, 118.4415)">
<rect x="-0.3164" y="-0.1164" width="1.7425" height="0.1164" ry="0.0000" fill="currentColor"/>
</g>
<g transform="translate(75.5130, 115.9292)">
<rect x="-0.3164" y="-0.1164" width="1.7425" height="0.1164" ry="0.0000" fill="currentColor"/>
</g>
<g transform="translate(75.1966, 117.6546)">
<rect x="0" y="-1.7253" width="0.1164" height="2.3958" ry="0.0000" fill="currentColor"/>
</g>
<g transform="translate(76.8227, 117.6546)">
<rect x="0" y="-1.7253" width="0.1164" height="2.3958" ry="0.0000" fill="currentColor"/>
</g>
<g transform="translate(75.5130, 117.6546)">
<text font-family="serif" font-size="2.2001" text-anchor="start" fill="currentColor">
<tspan>β</tspan>
</text>
</g>
<g transform="translate(75.5130, 107.5381)">
<text font-family="serif" font-size="2.2001" text-anchor="start" fill="currentColor">
<tspan>NumberedPitchClass(10)</tspan>
</text>
</g>
<g transform="translate(13.5788, 158.5151)">
<text font-family="serif" font-size="2.2001" text-anchor="start" fill="currentColor">
<tspan>V</tspan>
</text>
</g>
<g transform="translate(75.5130, 135.6999)">
<path transform="scale(0.0040, -0.0040)" d="M0 -43c0 92 111 181 211 181c65 0 115 -37 115 -95c0 -88 -106 -181 -215 -181c-70 0 -111 41 -111 95z" fill="currentColor"/>
</g>
<g transform="translate(75.5130, 141.0450)">
<rect x="-0.3164" y="-0.1164" width="1.7425" height="0.1164" ry="0.0000" fill="currentColor"/>
</g>
<g transform="translate(75.5130, 138.5328)">
<rect x="-0.3164" y="-0.1164" width="1.7425" height="0.1164" ry="0.0000" fill="currentColor"/>
</g>
<g transform="translate(75.1966, 140.2581)">
<rect x="0" y="-1.7253" width="0.1164" height="2.3958" ry="0.0000" fill="currentColor"/>
</g>
<g transform="translate(76.8227, 140.2581)">
<rect x="0" y="-1.7253" width="0.1164" height="2.3958" ry="0.0000" fill="currentColor"/>
</g>
<g transform="translate(75.5130, 140.2581)">
<text font-family="serif" font-size="2.2001" text-anchor="start" fill="currentColor">
<tspan>β</tspan>
</text>
</g>
<g transform="translate(75.5130, 130.1417)">
<text font-family="serif" font-size="2.2001" text-anchor="start" fill="currentColor">
<tspan>NumberedPitchClass(8)</tspan>
</text>
</g>
<g transform="translate(75.5130, 158.3034)">
<path transform="scale(0.0040, -0.0040)" d="M0 -43c0 92 111 181 211 181c65 0 115 -37 115 -95c0 -88 -106 -181 -215 -181c-70 0 -111 41 -111 95z" fill="currentColor"/>
</g>
<g transform="translate(75.5130, 163.6485)">
<rect x="-0.3164" y="-0.1164" width="1.7425" height="0.1164" ry="0.0000" fill="currentColor"/>
</g>
<g transform="translate(75.5130, 161.1363)">
<rect x="-0.3164" y="-0.1164" width="1.7425" height="0.1164" ry="0.0000" fill="currentColor"/>
</g>
<g transform="translate(75.1966, 162.8616)">
<rect x="0" y="-1.7253" width="0.1164" height="2.3958" ry="0.0000" fill="currentColor"/>
</g>
<g transform="translate(76.8227, 162.8616)">
<rect x="0" y="-1.7253" width="0.1164" height="2.3958" ry="0.0000" fill="currentColor"/>
</g>
<g transform="translate(75.5130, 162.8616)">
<text font-family="serif" font-size="2.2001" text-anchor="start" fill="currentColor">
<tspan>β</tspan>
</text>
</g>
<g transform="translate(75.5130, 152.7452)">
<text font-family="serif" font-size="2.2001" text-anchor="start" fill="currentColor">
<tspan>NumberedPitchClass(9)</tspan>
</text>
</g>
<g transform="translate(13.2161, 135.9115)">
<text font-family="serif" font-size="2.2001" text-anchor="start" fill="currentColor">
<tspan>IV</tspan>
</text>
</g>
<g transform="translate(74.3630, 24.1822)">
<path transform="scale(0.0040, -0.0040)" d="M31 37l-2 -62v-11c0 -22 2 -43 5 -64c43 38 89 80 89 137c0 32 -14 65 -42 65c-31 0 -49 -32 -50 -65zM-30 450c9 5 20 8 30 8s21 -3 30 -8l-8 -340c25 24 59 38 94 38c50 0 84 -50 84 -104c0 -78 -83 -117 -141 -169c-17 -15 -25 -44 -49 -44c-15 0 -26 13 -26 29z" fill="currentColor"/>
</g>
<g transform="translate(74.3630, 46.7857)">
<path transform="scale(0.0040, -0.0040)" d="M31 37l-2 -62v-11c0 -22 2 -43 5 -64c43 38 89 80 89 137c0 32 -14 65 -42 65c-31 0 -49 -32 -50 -65zM-30 450c9 5 20 8 30 8s21 -3 30 -8l-8 -340c25 24 59 38 94 38c50 0 84 -50 84 -104c0 -78 -83 -117 -141 -169c-17 -15 -25 -44 -49 -44c-15 0 -26 13 -26 29z" fill="currentColor"/>
</g>
<g transform="translate(74.3630, 112.5963)">
<path transform="scale(0.0040, -0.0040)" d="M31 37l-2 -62v-11c0 -22 2 -43 5 -64c43 38 89 80 89 137c0 32 -14 65 -42 65c-31 0 -49 -32 -50 -65zM-30 450c9 5 20 8 30 8s21 -3 30 -8l-8 -340c25 24 59 38 94 38c50 0 84 -50 84 -104c0 -78 -83 -117 -141 -169c-17 -15 -25 -44 -49 -44c-15 0 -26 13 -26 29z" fill="currentColor"/>
</g>
<g transform="translate(74.3630, 135.6999)">
<path transform="scale(0.0040, -0.0040)" d="M31 37l-2 -62v-11c0 -22 2 -43 5 -64c43 38 89 80 89 137c0 32 -14 65 -42 65c-31 0 -49 -32 -50 -65zM-30 450c9 5 20 8 30 8s21 -3 30 -8l-8 -340c25 24 59 38 94 38c50 0 84 -50 84 -104c0 -78 -83 -117 -141 -169c-17 -15 -25 -44 -49 -44c-15 0 -26 13 -26 29z" fill="currentColor"/>
</g>
<g transform="translate(83.0726, 22.1822)">
<path transform="scale(0.0040, -0.0040)" d="M0 -43c0 92 111 181 211 181c65 0 115 -37 115 -95c0 -88 -106 -181 -215 -181c-70 0 -111 41 -111 95z" fill="currentColor"/>
</g>
<g transform="translate(83.0726, 44.7857)">
<path transform="scale(0.0040, -0.0040)" d="M0 -43c0 92 111 181 211 181c65 0 115 -37 115 -95c0 -88 -106 -181 -215 -181c-70 0 -111 41 -111 95z" fill="currentColor"/>
</g>
<g transform="translate(83.0726, 37.3711)">
<text font-family="serif" font-size="2.2001" text-anchor="start" fill="currentColor">
<tspan>NumberedPitchClass(11)</tspan>
</text>
</g>
<g transform="translate(83.0726, 70.3893)">
<path transform="scale(0.0040, -0.0040)" d="M0 -43c0 92 111 181 211 181c65 0 115 -37 115 -95c0 -88 -106 -181 -215 -181c-70 0 -111 41 -111 95z" fill="currentColor"/>
</g>
<g transform="translate(83.0726, 59.9746)">
<text font-family="serif" font-size="2.2001" text-anchor="start" fill="currentColor">
<tspan>NumberedPitchClass(0)</tspan>
</text>
</g>
<g transform="translate(83.0726, 89.9928)">
<path transform="scale(0.0040, -0.0040)" d="M0 -43c0 92 111 181 211 181c65 0 115 -37 115 -95c0 -88 -106 -181 -215 -181c-70 0 -111 41 -111 95z" fill="currentColor"/>
</g>
<g transform="translate(83.0726, 82.5782)">
<text font-family="serif" font-size="2.2001" text-anchor="start" fill="currentColor">
<tspan>NumberedPitchClass(10)</tspan>
</text>
</g>
<g transform="translate(83.0726, 113.0963)">
<path transform="scale(0.0040, -0.0040)" d="M0 -43c0 92 111 181 211 181c65 0 115 -37 115 -95c0 -88 -106 -181 -215 -181c-70 0 -111 41 -111 95z" fill="currentColor"/>
</g>
<g transform="translate(83.0726, 105.5269)">
<text font-family="serif" font-size="2.2001" text-anchor="start" fill="currentColor">
<tspan>NumberedPitchClass(8)</tspan>
</text>
</g>
<g transform="translate(83.0726, 135.6999)">
<path transform="scale(0.0040, -0.0040)" d="M0 -43c0 92 111 181 211 181c65 0 115 -37 115 -95c0 -88 -106 -181 -215 -181c-70 0 -111 41 -111 95z" fill="currentColor"/>
</g>
<g transform="translate(83.0726, 127.7852)">
<text font-family="serif" font-size="2.2001" text-anchor="start" fill="currentColor">
<tspan>NumberedPitchClass(9)</tspan>
</text>
</g>
<g transform="translate(83.0726, 159.8034)">
<path transform="scale(0.0040, -0.0040)" d="M0 -43c0 92 111 181 211 181c65 0 115 -37 115 -95c0 -88 -106 -181 -215 -181c-70 0 -111 41 -111 95z" fill="currentColor"/>
</g>
<g transform="translate(83.0726, 150.3888)">
<text font-family="serif" font-size="2.2001" text-anchor="start" fill="currentColor">
<tspan>NumberedPitchClass(3)</tspan>
</text>
</g>
<g transform="translate(81.9226, 89.9928)">
<path transform="scale(0.0040, -0.0040)" d="M31 37l-2 -62v-11c0 -22 2 -43 5 -64c43 38 89 80 89 137c0 32 -14 65 -42 65c-31 0 -49 -32 -50 -65zM-30 450c9 5 20 8 30 8s21 -3 30 -8l-8 -340c25 24 59 38 94 38c50 0 84 -50 84 -104c0 -78 -83 -117 -141 -169c-17 -15 -25 -44 -49 -44c-15 0 -26 13 -26 29z" fill="currentColor"/>
</g>
<g transform="translate(81.9226, 113.0963)">
<path transform="scale(0.0040, -0.0040)" d="M31 37l-2 -62v-11c0 -22 2 -43 5 -64c43 38 89 80 89 137c0 32 -14 65 -42 65c-31 0 -49 -32 -50 -65zM-30 450c9 5 20 8 30 8s21 -3 30 -8l-8 -340c25 24 59 38 94 38c50 0 84 -50 84 -104c0 -78 -83 -117 -141 -169c-17 -15 -25 -44 -49 -44c-15 0 -26 13 -26 29z" fill="currentColor"/>
</g>
<g transform="translate(82.0384, 135.6999)">
<path transform="scale(0.0040, -0.0040)" d="M-7 375c8 5 17 7 26 7s17 -2 25 -7l-2 -192l102 23h4c10 0 19 -8 19 -18l7 -563c-8 -5 -17 -7 -26 -7s-18 2 -26 7l3 192l-102 -23h-4c-10 0 -19 8 -19 18zM129 110l-88 -19l-3 -201l88 19z" fill="currentColor"/>
</g>
<g transform="translate(81.9226, 159.8034)">
<path transform="scale(0.0040, -0.0040)" d="M31 37l-2 -62v-11c0 -22 2 -43 5 -64c43 38 89 80 89 137c0 32 -14 65 -42 65c-31 0 -49 -32 -50 -65zM-30 450c9 5 20 8 30 8s21 -3 30 -8l-8 -340c25 24 59 38 94 38c50 0 84 -50 84 -104c0 -78 -83 -117 -141 -169c-17 -15 -25 -44 -49 -44c-15 0 -26 13 -26 29z" fill="currentColor"/>
</g>
<g transform="translate(90.5608, 25.1822)">
<path transform="scale(0.0040, -0.0040)" d="M0 -43c0 92 111 181 211 181c65 0 115 -37 115 -95c0 -88 -106 -181 -215 -181c-70 0 -111 41 -111 95z" fill="currentColor"/>
</g>
<g transform="translate(90.5608, 47.7857)">
<path transform="scale(0.0040, -0.0040)" d="M0 -43c0 92 111 181 211 181c65 0 115 -37 115 -95c0 -88 -106 -181 -215 -181c-70 0 -111 41 -111 95z" fill="currentColor"/>
</g>
<g transform="translate(90.5608, 35.3794)">
<text font-family="serif" font-size="2.2001" text-anchor="start" fill="currentColor">
<tspan>NumberedPitchClass(0)</tspan>
</text>
</g>
<g transform="translate(90.5608, 67.3893)">
<path transform="scale(0.0040, -0.0040)" d="M0 -43c0 92 111 181 211 181c65 0 115 -37 115 -95c0 -88 -106 -181 -215 -181c-70 0 -111 41 -111 95z" fill="currentColor"/>
</g>
<g transform="translate(90.5608, 57.9829)">
<text font-family="serif" font-size="2.2001" text-anchor="start" fill="currentColor">
<tspan>NumberedPitchClass(10)</tspan>
</text>
</g>
<g transform="translate(90.5608, 90.4928)">
<path transform="scale(0.0040, -0.0040)" d="M0 -43c0 92 111 181 211 181c65 0 115 -37 115 -95c0 -88 -106 -181 -215 -181c-70 0 -111 41 -111 95z" fill="currentColor"/>
</g>
<g transform="translate(90.5608, 80.5864)">
<text font-family="serif" font-size="2.2001" text-anchor="start" fill="currentColor">
<tspan>NumberedPitchClass(8)</tspan>
</text>
</g>
<g transform="translate(90.5608, 113.0963)">
<path transform="scale(0.0040, -0.0040)" d="M0 -43c0 92 111 181 211 181c65 0 115 -37 115 -95c0 -88 -106 -181 -215 -181c-70 0 -111 41 -111 95z" fill="currentColor"/>
</g>
<g transform="translate(90.5608, 103.5352)">
<text font-family="serif" font-size="2.2001" text-anchor="start" fill="currentColor">
<tspan>NumberedPitchClass(9)</tspan>
</text>
</g>
<g transform="translate(90.5608, 137.1999)">
<path transform="scale(0.0040, -0.0040)" d="M0 -43c0 92 111 181 211 181c65 0 115 -37 115 -95c0 -88 -106 -181 -215 -181c-70 0 -111 41 -111 95z" fill="currentColor"/>
</g>
<g transform="translate(90.5608, 125.7935)">
<text font-family="serif" font-size="2.2001" text-anchor="start" fill="currentColor">
<tspan>NumberedPitchClass(3)</tspan>
</text>
</g>
<g transform="translate(90.5608, 157.8034)">
<path transform="scale(0.0040, -0.0040)" d="M0 -43c0 92 111 181 211 181c65 0 115 -37 115 -95c0 -88 -106 -181 -215 -181c-70 0 -111 41 -111 95z" fill="currentColor"/>
</g>
<g transform="translate(90.5608, 148.3970)">
<text font-family="serif" font-size="2.2001" text-anchor="start" fill="currentColor">
<tspan>NumberedPitchClass(11)</tspan>
</text>
</g>
<g transform="translate(89.4108, 67.3893)">
<path transform="scale(0.0040, -0.0040)" d="M31 37l-2 -62v-11c0 -22 2 -43 5 -64c43 38 89 80 89 137c0 32 -14 65 -42 65c-31 0 -49 -32 -50 -65zM-30 450c9 5 20 8 30 8s21 -3 30 -8l-8 -340c25 24 59 38 94 38c50 0 84 -50 84 -104c0 -78 -83 -117 -141 -169c-17 -15 -25 -44 -49 -44c-15 0 -26 13 -26 29z" fill="currentColor"/>
</g>
<g transform="translate(89.4108, 90.4928)">
<path transform="scale(0.0040, -0.0040)" d="M31 37l-2 -62v-11c0 -22 2 -43 5 -64c43 38 89 80 89 137c0 32 -14 65 -42 65c-31 0 -49 -32 -50 -65zM-30 450c9 5 20 8 30 8s21 -3 30 -8l-8 -340c25 24 59 38 94 38c50 0 84 -50 84 -104c0 -78 -83 -117 -141 -169c-17 -15 -25 -44 -49 -44c-15 0 -26 13 -26 29z" fill="currentColor"/>
</g>
<g transform="translate(89.5265, 113.0963)">
<path transform="scale(0.0040, -0.0040)" d="M-7 375c8 5 17 7 26 7s17 -2 25 -7l-2 -192l102 23h4c10 0 19 -8 19 -18l7 -563c-8 -5 -17 -7 -26 -7s-18 2 -26 7l3 192l-102 -23h-4c-10 0 -19 8 -19 18zM129 110l-88 -19l-3 -201l88 19z" fill="currentColor"/>
</g>
<g transform="translate(89.4108, 137.1999)">
<path transform="scale(0.0040, -0.0040)" d="M31 37l-2 -62v-11c0 -22 2 -43 5 -64c43 38 89 80 89 137c0 32 -14 65 -42 65c-31 0 -49 -32 -50 -65zM-30 450c9 5 20 8 30 8s21 -3 30 -8l-8 -340c25 24 59 38 94 38c50 0 84 -50 84 -104c0 -78 -83 -117 -141 -169c-17 -15 -25 -44 -49 -44c-15 0 -26 13 -26 29z" fill="currentColor"/>
</g>
<g transform="translate(98.0846, 22.1822)">
<path transform="scale(0.0040, -0.0040)" d="M0 -43c0 92 111 181 211 181c65 0 115 -37 115 -95c0 -88 -106 -181 -215 -181c-70 0 -111 41 -111 95z" fill="currentColor"/>
</g>
<g transform="translate(98.0846, 44.7857)">
<path transform="scale(0.0040, -0.0040)" d="M0 -43c0 92 111 181 211 181c65 0 115 -37 115 -95c0 -88 -106 -181 -215 -181c-70 0 -111 41 -111 95z" fill="currentColor"/>
</g>
<g transform="translate(98.0846, 39.7275)">
<text font-family="serif" font-size="2.2001" text-anchor="start" fill="currentColor">
<tspan>NumberedPitchClass(10)</tspan>
</text>
</g>
<g transform="translate(98.0846, 67.8893)">
<path transform="scale(0.0040, -0.0040)" d="M0 -43c0 92 111 181 211 181c65 0 115 -37 115 -95c0 -88 -106 -181 -215 -181c-70 0 -111 41 -111 95z" fill="currentColor"/>
</g>
<g transform="translate(98.0846, 62.3311)">
<text font-family="serif" font-size="2.2001" text-anchor="start" fill="currentColor">
<tspan>NumberedPitchClass(8)</tspan>
</text>
</g>
<g transform="translate(98.0846, 90.4928)">
<path transform="scale(0.0040, -0.0040)" d="M0 -43c0 92 111 181 211 181c65 0 115 -37 115 -95c0 -88 -106 -181 -215 -181c-70 0 -111 41 -111 95z" fill="currentColor"/>
</g>
<g transform="translate(98.0846, 84.9346)">
<text font-family="serif" font-size="2.2001" text-anchor="start" fill="currentColor">
<tspan>NumberedPitchClass(9)</tspan>
</text>
</g>
<g transform="translate(98.0846, 114.5963)">
<path transform="scale(0.0040, -0.0040)" d="M0 -43c0 92 111 181 211 181c65 0 115 -37 115 -95c0 -88 -106 -181 -215 -181c-70 0 -111 41 -111 95z" fill="currentColor"/>
</g>
<g transform="translate(98.0846, 101.5288)">
<text font-family="serif" font-size="2.2001" text-anchor="start" fill="currentColor">
<tspan>NumberedPitchClass(3)</tspan>
</text>
</g>
<g transform="translate(98.0846, 135.1999)">
<path transform="scale(0.0040, -0.0040)" d="M0 -43c0 92 111 181 211 181c65 0 115 -37 115 -95c0 -88 -106 -181 -215 -181c-70 0 -111 41 -111 95z" fill="currentColor"/>
</g>
<g transform="translate(98.0846, 130.1417)">
<text font-family="serif" font-size="2.2001" text-anchor="start" fill="currentColor">
<tspan>NumberedPitchClass(11)</tspan>
</text>
</g>
<g transform="translate(98.0846, 160.8034)">
<path transform="scale(0.0040, -0.0040)" d="M0 -43c0 92 111 181 211 181c65 0 115 -37 115 -95c0 -88 -106 -181 -215 -181c-70 0 -111 41 -111 95z" fill="currentColor"/>
</g>
<g transform="translate(98.0846, 152.7452)">
<text font-family="serif" font-size="2.2001" text-anchor="start" fill="currentColor">
<tspan>NumberedPitchClass(0)</tspan>
</text>
</g>
<g transform="translate(96.9346, 22.1822)">
<path transform="scale(0.0040, -0.0040)" d="M31 37l-2 -62v-11c0 -22 2 -43 5 -64c43 38 89 80 89 137c0 32 -14 65 -42 65c-31 0 -49 -32 -50 -65zM-30 450c9 5 20 8 30 8s21 -3 30 -8l-8 -340c25 24 59 38 94 38c50 0 84 -50 84 -104c0 -78 -83 -117 -141 -169c-17 -15 -25 -44 -49 -44c-15 0 -26 13 -26 29z" fill="currentColor"/>
</g>
<g transform="translate(96.9346, 44.7857)">
<path transform="scale(0.0040, -0.0040)" d="M31 37l-2 -62v-11c0 -22 2 -43 5 -64c43 38 89 80 89 137c0 32 -14 65 -42 65c-31 0 -49 -32 -50 -65zM-30 450c9 5 20 8 30 8s21 -3 30 -8l-8 -340c25 24 59 38 94 38c50 0 84 -50 84 -104c0 -78 -83 -117 -141 -169c-17 -15 -25 -44 -49 -44c-15 0 -26 13 -26 29z" fill="currentColor"/>
</g>
<g transform="translate(96.9346, 67.8893)">
<path transform="scale(0.0040, -0.0040)" d="M31 37l-2 -62v-11c0 -22 2 -43 5 -64c43 38 89 80 89 137c0 32 -14 65 -42 65c-31 0 -49 -32 -50 -65zM-30 450c9 5 20 8 30 8s21 -3 30 -8l-8 -340c25 24 59 38 94 38c50 0 84 -50 84 -104c0 -78 -83 -117 -141 -169c-17 -15 -25 -44 -49 -44c-15 0 -26 13 -26 29z" fill="currentColor"/>
</g>
<g transform="translate(97.0504, 90.4928)">
<path transform="scale(0.0040, -0.0040)" d="M-7 375c8 5 17 7 26 7s17 -2 25 -7l-2 -192l102 23h4c10 0 19 -8 19 -18l7 -563c-8 -5 -17 -7 -26 -7s-18 2 -26 7l3 192l-102 -23h-4c-10 0 -19 8 -19 18zM129 110l-88 -19l-3 -201l88 19z" fill="currentColor"/>
</g>
<g transform="translate(96.9346, 114.5963)">
<path transform="scale(0.0040, -0.0040)" d="M31 37l-2 -62v-11c0 -22 2 -43 5 -64c43 38 89 80 89 137c0 32 -14 65 -42 65c-31 0 -49 -32 -50 -65zM-30 450c9 5 20 8 30 8s21 -3 30 -8l-8 -340c25 24 59 38 94 38c50 0 84 -50 84 -104c0 -78 -83 -117 -141 -169c-17 -15 -25 -44 -49 -44c-15 0 -26 13 -26 29z" fill="currentColor"/>
</g>
<g transform="translate(105.5728, 22.6822)">
<path transform="scale(0.0040, -0.0040)" d="M0 -43c0 92 111 181 211 181c65 0 115 -37 115 -95c0 -88 -106 -181 -215 -181c-70 0 -111 41 -111 95z" fill="currentColor"/>
</g>
<g transform="translate(105.5728, 45.2857)">
<path transform="scale(0.0040, -0.0040)" d="M0 -43c0 92 111 181 211 181c65 0 115 -37 115 -95c0 -88 -106 -181 -215 -181c-70 0 -111 41 -111 95z" fill="currentColor"/>
</g>
<g transform="translate(105.5728, 33.3917)">
<text font-family="serif" font-size="2.2001" text-anchor="start" fill="currentColor">
<tspan>NumberedPitchClass(8)</tspan>
</text>
</g>
<g transform="translate(105.5728, 67.8893)">
<path transform="scale(0.0040, -0.0040)" d="M0 -43c0 92 111 181 211 181c65 0 115 -37 115 -95c0 -88 -106 -181 -215 -181c-70 0 -111 41 -111 95z" fill="currentColor"/>
</g>
<g transform="translate(105.5728, 60.3393)">
<text font-family="serif" font-size="2.2001" text-anchor="start" fill="currentColor">
<tspan>NumberedPitchClass(9)</tspan>
</text>
</g>
<g transform="translate(105.5728, 91.9928)">
<path transform="scale(0.0040, -0.0040)" d="M0 -43c0 92 111 181 211 181c65 0 115 -37 115 -95c0 -88 -106 -181 -215 -181c-70 0 -111 41 -111 95z" fill="currentColor"/>
</g>
<g transform="translate(105.5728, 78.5987)">
<text font-family="serif" font-size="2.2001" text-anchor="start" fill="currentColor">
<tspan>NumberedPitchClass(3)</tspan>
</text>
</g>
<g transform="translate(105.5728, 112.5963)">
<path transform="scale(0.0040, -0.0040)" d="M0 -43c0 92 111 181 211 181c65 0 115 -37 115 -95c0 -88 -106 -181 -215 -181c-70 0 -111 41 -111 95z" fill="currentColor"/>
</g>
<g transform="translate(105.5728, 107.5381)">
<text font-family="serif" font-size="2.2001" text-anchor="start" fill="currentColor">
<tspan>NumberedPitchClass(11)</tspan>
</text>
</g>
<g transform="translate(105.5728, 138.1999)">
<path transform="scale(0.0040, -0.0040)" d="M0 -43c0 92 111 181 211 181c65 0 115 -37 115 -95c0 -88 -106 -181 -215 -181c-70 0 -111 41 -111 95z" fill="currentColor"/>
</g>
<g transform="translate(105.5728, 128.1499)">
<text font-family="serif" font-size="2.2001" text-anchor="start" fill="currentColor">
<tspan>NumberedPitchClass(0)</tspan>
</text>
</g>
<g transform="translate(105.5728, 157.8034)">
<path transform="scale(0.0040, -0.0040)" d="M0 -43c0 92 111 181 211 181c65 0 115 -37 115 -95c0 -88 -106 -181 -215 -181c-70 0 -111 41 -111 95z" fill="currentColor"/>
</g>
<g transform="translate(105.5728, 150.7535)">
<text font-family="serif" font-size="2.2001" text-anchor="start" fill="currentColor">
<tspan>NumberedPitchClass(10)</tspan>
</text>
</g>
<g transform="translate(104.4228, 22.6822)">
<path transform="scale(0.0040, -0.0040)" d="M31 37l-2 -62v-11c0 -22 2 -43 5 -64c43 38 89 80 89 137c0 32 -14 65 -42 65c-31 0 -49 -32 -50 -65zM-30 450c9 5 20 8 30 8s21 -3 30 -8l-8 -340c25 24 59 38 94 38c50 0 84 -50 84 -104c0 -78 -83 -117 -141 -169c-17 -15 -25 -44 -49 -44c-15 0 -26 13 -26 29z" fill="currentColor"/>
</g>
<g transform="translate(104.4228, 45.2857)">
<path transform="scale(0.0040, -0.0040)" d="M31 37l-2 -62v-11c0 -22 2 -43 5 -64c43 38 89 80 89 137c0 32 -14 65 -42 65c-31 0 -49 -32 -50 -65zM-30 450c9 5 20 8 30 8s21 -3 30 -8l-8 -340c25 24 59 38 94 38c50 0 84 -50 84 -104c0 -78 -83 -117 -141 -169c-17 -15 -25 -44 -49 -44c-15 0 -26 13 -26 29z" fill="currentColor"/>
</g>
<g transform="translate(104.5386, 67.8893)">
<path transform="scale(0.0040, -0.0040)" d="M-7 375c8 5 17 7 26 7s17 -2 25 -7l-2 -192l102 23h4c10 0 19 -8 19 -18l7 -563c-8 -5 -17 -7 -26 -7s-18 2 -26 7l3 192l-102 -23h-4c-10 0 -19 8 -19 18zM129 110l-88 -19l-3 -201l88 19z" fill="currentColor"/>
</g>
<g transform="translate(104.4228, 91.9928)">
<path transform="scale(0.0040, -0.0040)" d="M31 37l-2 -62v-11c0 -22 2 -43 5 -64c43 38 89 80 89 137c0 32 -14 65 -42 65c-31 0 -49 -32 -50 -65zM-30 450c9 5 20 8 30 8s21 -3 30 -8l-8 -340c25 24 59 38 94 38c50 0 84 -50 84 -104c0 -78 -83 -117 -141 -169c-17 -15 -25 -44 -49 -44c-15 0 -26 13 -26 29z" fill="currentColor"/>
</g>
<g transform="translate(104.5386, 112.5963)">
<path transform="scale(0.0040, -0.0040)" d="M-7 375c8 5 17 7 26 7s17 -2 25 -7l-2 -192l102 23h4c10 0 19 -8 19 -18l7 -563c-8 -5 -17 -7 -26 -7s-18 2 -26 7l3 192l-102 -23h-4c-10 0 -19 8 -19 18zM129 110l-88 -19l-3 -201l88 19z" fill="currentColor"/>
</g>
<g transform="translate(104.4228, 157.8034)">
<path transform="scale(0.0040, -0.0040)" d="M31 37l-2 -62v-11c0 -22 2 -43 5 -64c43 38 89 80 89 137c0 32 -14 65 -42 65c-31 0 -49 -32 -50 -65zM-30 450c9 5 20 8 30 8s21 -3 30 -8l-8 -340c25 24 59 38 94 38c50 0 84 -50 84 -104c0 -78 -83 -117 -141 -169c-17 -15 -25 -44 -49 -44c-15 0 -26 13 -26 29z" fill="currentColor"/>
</g>
<g transform="translate(116.4714, 22.6822)">
<path transform="scale(0.0040, -0.0040)" d="M0 -43c0 92 111 181 211 181c65 0 115 -37 115 -95c0 -88 -106 -181 -215 -181c-70 0 -111 41 -111 95z" fill="currentColor"/>
</g>
<g transform="translate(116.4714, 45.2857)">
<path transform="scale(0.0040, -0.0040)" d="M0 -43c0 92 111 181 211 181c65 0 115 -37 115 -95c0 -88 -106 -181 -215 -181c-70 0 -111 41 -111 95z" fill="currentColor"/>
</g>
<g transform="translate(116.4714, 37.7398)">
<text font-family="serif" font-size="2.2001" text-anchor="start" fill="currentColor">
<tspan>NumberedPitchClass(9)</tspan>
</text>
</g>
<g transform="translate(116.4714, 69.3893)">
<path transform="scale(0.0040, -0.0040)" d="M0 -43c0 92 111 181 211 181c65 0 115 -37 115 -95c0 -88 -106 -181 -215 -181c-70 0 -111 41 -111 95z" fill="currentColor"/>
</g>
<g transform="translate(116.4714, 58.3217)">
<text font-family="serif" font-size="2.2001" text-anchor="start" fill="currentColor">
<tspan>NumberedPitchClass(3)</tspan>
</text>
</g>
<g transform="translate(116.4714, 89.9928)">
<path transform="scale(0.0040, -0.0040)" d="M0 -43c0 92 111 181 211 181c65 0 115 -37 115 -95c0 -88 -106 -181 -215 -181c-70 0 -111 41 -111 95z" fill="currentColor"/>
</g>
<g transform="translate(116.4714, 82.9168)">
<text font-family="serif" font-size="2.2001" text-anchor="start" fill="currentColor">
<tspan>NumberedPitchClass(11)</tspan>
</text>
</g>
<g transform="translate(116.4714, 115.5963)">
<path transform="scale(0.0040, -0.0040)" d="M0 -43c0 92 111 181 211 181c65 0 115 -37 115 -95c0 -88 -106 -181 -215 -181c-70 0 -111 41 -111 95z" fill="currentColor"/>
</g>
<g transform="translate(116.4714, 105.5205)">
<text font-family="serif" font-size="2.2001" text-anchor="start" fill="currentColor">
<tspan>NumberedPitchClass(0)</tspan>
</text>
</g>
<g transform="translate(116.4714, 135.1999)">
<path transform="scale(0.0040, -0.0040)" d="M0 -43c0 92 111 181 211 181c65 0 115 -37 115 -95c0 -88 -106 -181 -215 -181c-70 0 -111 41 -111 95z" fill="currentColor"/>
</g>
<g transform="translate(116.4714, 126.1323)">
<text font-family="serif" font-size="2.2001" text-anchor="start" fill="currentColor">
<tspan>NumberedPitchClass(10)</tspan>
</text>
</g>
<g transform="translate(116.4714, 158.3034)">
<path transform="scale(0.0040, -0.0040)" d="M0 -43c0 92 111 181 211 181c65 0 115 -37 115 -95c0 -88 -106 -181 -215 -181c-70 0 -111 41 -111 95z" fill="currentColor"/>
</g>
<g transform="translate(116.4714, 148.7358)">
<text font-family="serif" font-size="2.2001" text-anchor="start" fill="currentColor">
<tspan>NumberedPitchClass(8)</tspan>
</text>
</g>
<g transform="translate(115.4371, 22.6822)">
<path transform="scale(0.0040, -0.0040)" d="M-7 375c8 5 17 7 26 7s17 -2 25 -7l-2 -192l102 23h4c10 0 19 -8 19 -18l7 -563c-8 -5 -17 -7 -26 -7s-18 2 -26 7l3 192l-102 -23h-4c-10 0 -19 8 -19 18zM129 110l-88 -19l-3 -201l88 19z" fill="currentColor"/>
</g>
<g transform="translate(115.4371, 45.2857)">
<path transform="scale(0.0040, -0.0040)" d="M-7 375c8 5 17 7 26 7s17 -2 25 -7l-2 -192l102 23h4c10 0 19 -8 19 -18l7 -563c-8 -5 -17 -7 -26 -7s-18 2 -26 7l3 192l-102 -23h-4c-10 0 -19 8 -19 18zM129 110l-88 -19l-3 -201l88 19z" fill="currentColor"/>
</g>
<g transform="translate(115.3214, 69.3893)">
<path transform="scale(0.0040, -0.0040)" d="M31 37l-2 -62v-11c0 -22 2 -43 5 -64c43 38 89 80 89 137c0 32 -14 65 -42 65c-31 0 -49 -32 -50 -65zM-30 450c9 5 20 8 30 8s21 -3 30 -8l-8 -340c25 24 59 38 94 38c50 0 84 -50 84 -104c0 -78 -83 -117 -141 -169c-17 -15 -25 -44 -49 -44c-15 0 -26 13 -26 29z" fill="currentColor"/>
</g>
<g transform="translate(115.4371, 89.9928)">
<path transform="scale(0.0040, -0.0040)" d="M-7 375c8 5 17 7 26 7s17 -2 25 -7l-2 -192l102 23h4c10 0 19 -8 19 -18l7 -563c-8 -5 -17 -7 -26 -7s-18 2 -26 7l3 192l-102 -23h-4c-10 0 -19 8 -19 18zM129 110l-88 -19l-3 -201l88 19z" fill="currentColor"/>
</g>
<g transform="translate(115.3214, 135.1999)">
<path transform="scale(0.0040, -0.0040)" d="M31 37l-2 -62v-11c0 -22 2 -43 5 -64c43 38 89 80 89 137c0 32 -14 65 -42 65c-31 0 -49 -32 -50 -65zM-30 450c9 5 20 8 30 8s21 -3 30 -8l-8 -340c25 24 59 38 94 38c50 0 84 -50 84 -104c0 -78 -83 -117 -141 -169c-17 -15 -25 -44 -49 -44c-15 0 -26 13 -26 29z" fill="currentColor"/>
</g>
<g transform="translate(115.3214, 158.3034)">
<path transform="scale(0.0040, -0.0040)" d="M31 37l-2 -62v-11c0 -22 2 -43 5 -64c43 38 89 80 89 137c0 32 -14 65 -42 65c-31 0 -49 -32 -50 -65zM-30 450c9 5 20 8 30 8s21 -3 30 -8l-8 -340c25 24 59 38 94 38c50 0 84 -50 84 -104c0 -78 -83 -117 -141 -169c-17 -15 -25 -44 -49 -44c-15 0 -26 13 -26 29z" fill="currentColor"/>
</g>
<g transform="translate(13.2801, 113.3246)">
<text font-family="serif" font-size="2.2001" text-anchor="start" fill="currentColor">
<tspan>III</tspan>
</text>
</g>
<g transform="translate(13.6428, 90.7211)">
<text font-family="serif" font-size="2.2001" text-anchor="start" fill="currentColor">
<tspan>II</tspan>
</text>
</g>
<g transform="translate(14.0056, 68.1176)">
<text font-family="serif" font-size="2.2001" text-anchor="start" fill="currentColor">
<tspan>I</tspan>
</text>
</g>
<g transform="translate(13.2801, 45.8305)">
<rect x="-0.3164" y="-0.1164" width="2.8095" height="0.1164" ry="0.0000" fill="currentColor"/>
</g>
<g transform="translate(13.2801, 43.8574)">
<rect x="-0.3164" y="-0.1164" width="2.8095" height="0.1164" ry="0.0000" fill="currentColor"/>
</g>
<g transform="translate(12.9636, 45.5140)">
<rect x="0" y="-1.6566" width="0.1164" height="1.8566" ry="0.0000" fill="currentColor"/>
</g>
<g transform="translate(15.6567, 45.5140)">
<rect x="0" y="-1.6566" width="0.1164" height="1.8566" ry="0.0000" fill="currentColor"/>
</g>
<g transform="translate(13.2801, 45.5140)">
<text font-family="serif" font-size="2.2001" text-anchor="start" fill="currentColor">
<tspan>IR</tspan>
</text>
</g>
</svg>
