<svg xmlns="http://www.w3.org/2000/svg" xmlns:xlink="http://www.w3.org/1999/xlink" version="1.2" width="51.46mm" height="13.60mm" viewBox="0.0000 -0.0240 32.5397 8.5980">
<style text="style/css">
<![CDATA[
tspan { white-space: pre; }
]]>
</style>
<g color="rgb(49.8039%, 49.8039%, 49.8039%)">
<line transform="translate(0.0000, 5.7760)" stroke-linejoin="round" stroke-linecap="round" stroke-width="0.1073" stroke="currentColor" x1="0.0537" y1="-0.0000" x2="32.5397" y2="-0.0000"/>
<line transform="translate(0.0000, 4.7760)" stroke-linejoin="round" stroke-linecap="round" stroke-width="0.1073" stroke="currentColor" x1="0.0537" y1="-0.0000" x2="32.5397" y2="-0.0000"/>
<line transform="translate(0.0000, 3.7760)" stroke-linejoin="round" stroke-linecap="round" stroke-width="0.1073" stroke="currentColor" x1="0.0537" y1="-0.0000" x2="32.5397" y2="-0.0000"/>
<line transform="translate(0.0000, 2.7760)" stroke-linejoin="round" stroke-linecap="round" stroke-width="0.1073" stroke="currentColor" x1="0.0537" y1="-0.0000" x2="32.5397" y2="-0.0000"/>
<line transform="translate(0.0000, 1.7760)" stroke-linejoin="round" stroke-linecap="round" stroke-width="0.1073" stroke="currentColor" x1="0.0537" y1="-0.0000" x2="32.5397" y2="-0.0000"/>
</g>
<rect transform="translate(0.0000, 6.7760)" x="8.2677" y="-0.1037" width="1.9542" height="0.2073" ry="0.1037" fill="currentColor"/>
<path transform="translate(8.5934, 3.7760)" stroke-width="0.0858" stroke-linejoin="round" stroke-linecap="round" stroke="currentColor" fill="currentColor" d="M18.6592 2.5723C18.6688 2.5644 18.6783 2.5565 18.6875 2.5486L18.6875 2.5486C18.6782 2.5560 18.6688 2.5634 18.6591 2.5707z"/>
<path transform="translate(8.5934, 3.7760)" stroke-width="0.0858" stroke-linejoin="round" stroke-linecap="round" stroke="currentColor" fill="currentColor" d="M18.3163 2.8044C18.3295 2.7968 18.3426 2.7892 18.3554 2.7816L18.3542 2.7662C18.3413 2.7734 18.3282 2.7805 18.3149 2.7876z"/>
<path transform="translate(8.5934, 3.7760)" stroke-width="0.0858" stroke-linejoin="round" stroke-linecap="round" stroke="currentColor" fill="currentColor" d="M17.8695 3.0273C17.8860 3.0201 17.9024 3.0128 17.9186 3.0055L17.9162 2.9762C17.8999 2.9830 17.8835 2.9899 17.8670 2.9967z"/>
<path transform="translate(8.5934, 3.7760)" stroke-width="0.0858" stroke-linejoin="round" stroke-linecap="round" stroke="currentColor" fill="currentColor" d="M17.3282 3.2404C17.3477 3.2335 17.3671 3.2265 17.3863 3.2195L17.3828 3.1776C17.3635 3.1842 17.3441 3.1907 17.3246 3.1972z"/>
<path transform="translate(8.5934, 3.7760)" stroke-width="0.0858" stroke-linejoin="round" stroke-linecap="round" stroke="currentColor" fill="currentColor" d="M16.7017 3.4428C16.7239 3.4362 16.7459 3.4296 16.7679 3.4230L16.7635 3.3697C16.7415 3.3760 16.7194 3.3822 16.6971 3.3884z"/>
<path transform="translate(8.5934, 3.7760)" stroke-width="0.0858" stroke-linejoin="round" stroke-linecap="round" stroke="currentColor" fill="currentColor" d="M15.9993 3.6337C16.0239 3.6275 16.0484 3.6214 16.0727 3.6151L16.0674 3.5519C16.0431 3.5577 16.0186 3.5636 15.9940 3.5695z"/>
<path transform="translate(8.5934, 3.7760)" stroke-width="0.0858" stroke-linejoin="round" stroke-linecap="round" stroke="currentColor" fill="currentColor" d="M15.2305 3.8124C15.2572 3.8067 15.2837 3.8009 15.3101 3.7951L15.3041 3.7231C15.2777 3.7286 15.2511 3.7341 15.2245 3.7396z"/>
<path transform="translate(8.5934, 3.7760)" stroke-width="0.0858" stroke-linejoin="round" stroke-linecap="round" stroke="currentColor" fill="currentColor" d="M14.4046 3.9781C14.4330 3.9728 14.4613 3.9675 14.4895 3.9621L14.4829 3.8828C14.4547 3.8879 14.4264 3.8930 14.3980 3.8981z"/>
<path transform="translate(8.5934, 3.7760)" stroke-width="0.0858" stroke-linejoin="round" stroke-linecap="round" stroke="currentColor" fill="currentColor" d="M13.5309 4.1300C13.5608 4.1252 13.5905 4.1203 13.6202 4.1154L13.6131 4.0301C13.5834 4.0348 13.5536 4.0394 13.5238 4.0441z"/>
<path transform="translate(8.5934, 3.7760)" stroke-width="0.0858" stroke-linejoin="round" stroke-linecap="round" stroke="currentColor" fill="currentColor" d="M12.6188 4.2673C12.6498 4.2630 12.6807 4.2586 12.7115 4.2543L12.7040 4.1642C12.6732 4.1684 12.6422 4.1726 12.6113 4.1768z"/>
<path transform="translate(8.5934, 3.7760)" stroke-width="0.0858" stroke-linejoin="round" stroke-linecap="round" stroke="currentColor" fill="currentColor" d="M11.6777 4.3893C11.7094 4.3855 11.7412 4.3816 11.7728 4.3778L11.7650 4.2843C11.7334 4.2881 11.7016 4.2918 11.6699 4.2956z"/>
<path transform="translate(8.5934, 3.7760)" stroke-width="0.0858" stroke-linejoin="round" stroke-linecap="round" stroke="currentColor" fill="currentColor" d="M10.7168 4.4951C10.7491 4.4919 10.7813 4.4886 10.8135 4.4853L10.8056 4.3898C10.7733 4.3930 10.7411 4.3963 10.7088 4.3995z"/>
<path transform="translate(8.5934, 3.7760)" stroke-width="0.0858" stroke-linejoin="round" stroke-linecap="round" stroke="currentColor" fill="currentColor" d="M9.7456 4.5841C9.7780 4.5814 9.8105 4.5787 9.8429 4.5759L9.8349 4.4797C9.8025 4.4824 9.7700 4.4851 9.7376 4.4878z"/>
<path transform="translate(8.5934, 3.7760)" stroke-width="0.0858" stroke-linejoin="round" stroke-linecap="round" stroke="currentColor" fill="currentColor" d="M8.7734 4.6553C8.8057 4.6532 8.8380 4.6511 8.8704 4.6490L8.8624 4.5534C8.8300 4.5555 8.7977 4.5577 8.7654 4.5598z"/>
<path transform="translate(8.5934, 3.7760)" stroke-width="0.0858" stroke-linejoin="round" stroke-linecap="round" stroke="currentColor" fill="currentColor" d="M7.8095 4.7081C7.8414 4.7066 7.8733 4.7052 7.9052 4.7036L7.8974 4.6099C7.8655 4.6115 7.8336 4.6131 7.8017 4.6146z"/>
<path transform="translate(8.5934, 3.7760)" stroke-width="0.0858" stroke-linejoin="round" stroke-linecap="round" stroke="currentColor" fill="currentColor" d="M6.8633 4.7416C6.8944 4.7408 6.9256 4.7400 6.9569 4.7391L6.9493 4.6487C6.9181 4.6497 6.8869 4.6506 6.8558 4.6515z"/>
<path transform="translate(8.5934, 3.7760)" stroke-width="0.0858" stroke-linejoin="round" stroke-linecap="round" stroke="currentColor" fill="currentColor" d="M5.9442 4.7551C5.9743 4.7550 6.0044 4.7549 6.0346 4.7547L6.0275 4.6688C5.9973 4.6691 5.9671 4.6695 5.9371 4.6697z"/>
<path transform="translate(8.5934, 3.7760)" stroke-width="0.0858" stroke-linejoin="round" stroke-linecap="round" stroke="currentColor" fill="currentColor" d="M5.0615 4.7478C5.0902 4.7484 5.1190 4.7490 5.1478 4.7495L5.1412 4.6695C5.1123 4.6692 5.0836 4.6688 5.0549 4.6685z"/>
<path transform="translate(8.5934, 3.7760)" stroke-width="0.0858" stroke-linejoin="round" stroke-linecap="round" stroke="currentColor" fill="currentColor" d="M4.2245 4.7189C4.2515 4.7202 4.2787 4.7215 4.3059 4.7228L4.2998 4.6500C4.2726 4.6490 4.2455 4.6480 4.2185 4.6469z"/>
<path transform="translate(8.5934, 3.7760)" stroke-width="0.0858" stroke-linejoin="round" stroke-linecap="round" stroke="currentColor" fill="currentColor" d="M3.4427 4.6677C3.4677 4.6697 3.4929 4.6718 3.5181 4.6738L3.5128 4.6096C3.4875 4.6079 3.4624 4.6061 3.4374 4.6044z"/>
<path transform="translate(8.5934, 3.7760)" stroke-width="0.0858" stroke-linejoin="round" stroke-linecap="round" stroke="currentColor" fill="currentColor" d="M2.7253 4.5933C2.7480 4.5961 2.7709 4.5990 2.7939 4.6018L2.7893 4.5474C2.7664 4.5450 2.7436 4.5425 2.7209 4.5400z"/>
<path transform="translate(8.5934, 3.7760)" stroke-width="0.0858" stroke-linejoin="round" stroke-linecap="round" stroke="currentColor" fill="currentColor" d="M2.0817 4.4949C2.1018 4.4986 2.1221 4.5023 2.1425 4.5059L2.1389 4.4627C2.1185 4.4595 2.0983 4.4563 2.0782 4.4530z"/>
<path transform="translate(8.5934, 3.7760)" stroke-width="0.0858" stroke-linejoin="round" stroke-linecap="round" stroke="currentColor" fill="currentColor" d="M1.5213 4.3719C1.5385 4.3764 1.5559 4.3809 1.5734 4.3853L1.5708 4.3547C1.5534 4.3507 1.5360 4.3467 1.5189 4.3426z"/>
<path transform="translate(8.5934, 3.7760)" stroke-width="0.0858" stroke-linejoin="round" stroke-linecap="round" stroke="currentColor" fill="currentColor" d="M1.0535 4.2234C1.0674 4.2288 1.0815 4.2341 1.0958 4.2394L1.0944 4.2226C1.0802 4.2178 1.0661 4.2130 1.0522 4.2081z"/>
<path transform="translate(8.5934, 3.7760)" stroke-width="0.0858" stroke-linejoin="round" stroke-linecap="round" stroke="currentColor" fill="currentColor" d="M0.6875 4.0486C0.6979 4.0549 0.7084 4.0611 0.7192 4.0673L0.7191 4.0657C0.7084 4.0601 0.6978 4.0544 0.6875 4.0486z"/>
<path transform="translate(26.5934, 5.2760) scale(0.0040, -0.0040)" d="M215 137c57 0 111 -29 111 -92c0 -71 -54 -120 -101 -148c-35 -21 -74 -34 -114 -34c-57 0 -111 29 -111 92c0 71 54 120 101 148c35 21 74 34 114 34z" fill="currentColor"/>
<rect transform="translate(27.8264, 3.7760)" x="-0.0697" y="-1.3182" width="0.1395" height="2.6388" ry="0.0444" fill="currentColor"/>
<path transform="translate(14.5934, 6.2760) scale(0.0040, -0.0040)" d="M215 137c57 0 111 -29 111 -92c0 -71 -54 -120 -101 -148c-35 -21 -74 -34 -114 -34c-57 0 -111 29 -111 92c0 71 54 120 101 148c35 21 74 34 114 34z" fill="currentColor"/>
<rect transform="translate(15.8264, 3.7760)" x="-0.0697" y="-0.7748" width="0.1395" height="3.0955" ry="0.0444" fill="currentColor"/>
<path transform="translate(20.5934, 5.7760) scale(0.0040, -0.0040)" d="M215 137c57 0 111 -29 111 -92c0 -71 -54 -120 -101 -148c-35 -21 -74 -34 -114 -34c-57 0 -111 29 -111 92c0 71 54 120 101 148c35 21 74 34 114 34z" fill="currentColor"/>
<rect transform="translate(21.8264, 3.7760)" x="-0.0697" y="-1.0465" width="0.1395" height="2.8672" ry="0.0444" fill="currentColor"/>
<polygon transform="translate(9.7567, 3.2760)" stroke-linejoin="round" stroke-linecap="round" stroke-width="0.0889" fill="currentColor" stroke="currentColor" points="18.0950 -1.1519 18.0950 -0.4908 0.0444 0.3306 0.0444 -0.3306"/>
<path transform="translate(8.5934, 6.7760) scale(0.0040, -0.0040)" d="M215 137c57 0 111 -29 111 -92c0 -71 -54 -120 -101 -148c-35 -21 -74 -34 -114 -34c-57 0 -111 29 -111 92c0 71 54 120 101 148c35 21 74 34 114 34z" fill="currentColor"/>
<path transform="translate(0.8000, 4.7760) scale(0.0040, -0.0040)" d="M378 263c4 0 7 1 11 1c156 0 257 -129 257 -262c0 -76 -34 -154 -108 -210c-22 -17 -46 -29 -72 -37c3 -34 4 -68 4 -102c0 -20 0 -40 -1 -60c-7 -121 -90 -228 -209 -228c-108 0 -196 87 -196 196c0 58 53 104 112 104c54 0 95 -48 95 -104c0 -52 -43 -95 -95 -95
c-10 0 -20 2 -29 6c26 -38 68 -63 116 -63c95 0 156 91 162 190c1 19 2 37 2 56c0 30 -2 60 -4 90c-29 -5 -58 -8 -88 -8c-188 0 -333 173 -333 375c0 177 130 307 246 442c-20 62 -38 125 -46 190c-6 52 -7 104 -7 157c0 115 55 223 148 290c3 2 7 3 11 3s8 -1 11 -4
c71 -83 134 -244 134 -357c0 -143 -85 -255 -178 -364c21 -68 40 -137 57 -206zM462 -202c67 24 111 94 111 162c0 89 -65 178 -170 190c24 -115 46 -230 59 -352zM75 26c0 -134 129 -245 263 -245c28 0 55 2 81 6c-14 126 -36 244 -61 363c-79 -8 -124 -61 -124 -119
c0 -43 25 -89 80 -121c5 -5 7 -11 7 -16c0 -12 -10 -23 -22 -23c-3 0 -6 1 -9 2c-81 43 -118 116 -118 186c0 89 58 175 161 198c-14 58 -29 116 -46 173c-106 -122 -212 -244 -212 -404zM406 1042c-99 -47 -162 -148 -162 -257c0 -73 20 -132 38 -191
c79 97 144 199 144 324c0 53 -4 76 -20 124z" fill="currentColor"/>
<path transform="translate(5.0000, 3.7760) scale(0.0040, -0.0040)" d="M203 301c22 15 45 30 61 51c12 15 19 34 27 51c2 4 5 6 9 6c6 0 14 -6 14 -15v-238h74c10 0 16 -8 16 -16s-6 -15 -16 -15h-74v-5c0 -49 29 -95 75 -95c8 0 12 -7 12 -13s-4 -12 -12 -12c-45 0 -90 13 -135 13s-90 -13 -135 -13c-8 0 -12 6 -12 12s4 13 12 13
c46 0 75 46 75 95v5h-163c-24 0 -33 15 -33 24c0 3 1 6 2 7c80 92 134 205 134 327c0 10 6 17 14 17h3c24 -7 48 -13 73 -13s48 6 72 13c2 1 4 1 6 1c9 0 14 -7 14 -13c0 -2 0 -3 -2 -5l-283 -327h163v122c0 9 2 18 9 23z" fill="currentColor"/>
<path transform="translate(5.0000, 5.8246) scale(0.0040, -0.0040)" d="M203 301c22 15 45 30 61 51c12 15 19 34 27 51c2 4 5 6 9 6c6 0 14 -6 14 -15v-238h74c10 0 16 -8 16 -16s-6 -15 -16 -15h-74v-5c0 -49 29 -95 75 -95c8 0 12 -7 12 -13s-4 -12 -12 -12c-45 0 -90 13 -135 13s-90 -13 -135 -13c-8 0 -12 6 -12 12s4 13 12 13
c46 0 75 46 75 95v5h-163c-24 0 -33 15 -33 24c0 3 1 6 2 7c80 92 134 205 134 327c0 10 6 17 14 17h3c24 -7 48 -13 73 -13s48 6 72 13c2 1 4 1 6 1c9 0 14 -7 14 -13c0 -2 0 -3 -2 -5l-283 -327h163v122c0 9 2 18 9 23z" fill="currentColor"/>
<rect transform="translate(9.8264, 3.7760)" x="-0.0697" y="-0.5032" width="0.1395" height="3.3238" ry="0.0444" fill="currentColor"/>
</svg>
