<svg xmlns="http://www.w3.org/2000/svg" xmlns:xlink="http://www.w3.org/1999/xlink" version="1.2" width="210.00mm" height="297.00mm" viewBox="0 0 149.3770 211.2617">
<style type="text/css">
<![CDATA[
tspan { white-space: pre; }
]]>
</style>
<!-- Page: 1/1 -->
<g transform="translate(51.1936, 6.9466)">
<text font-family="serif" font-weight="bold" font-size="3.4927" text-anchor="start" fill="currentColor">
<tspan>Ein Musikalisches Wuerfelspiel</tspan>
</text>
</g>
<g transform="translate(54.1812, 10.4466)">
<text font-family="serif" font-weight="bold" font-size="2.4695" text-anchor="start" fill="currentColor">
<tspan>[9-10-9-10-9-10-9-2-9-10-9-10-9-10-9-2]</tspan>
</text>
</g>
<g transform="translate(45.1097, 11.4161)">
<rect x="0.0000" y="15.6529" width="0.2212" height="4.9418" ry="0.0000" fill="currentColor"/>
</g>
<g transform="translate(76.9357, 25.0108)">
<rect x="0.0000" y="-2.0000" width="0.2212" height="4.0582" ry="0.0000" fill="currentColor"/>
</g>
<g transform="translate(123.7887, 34.0108)">
<rect x="0.0000" y="-2.0582" width="0.2212" height="4.0582" ry="0.0000" fill="currentColor"/>
</g>
<g transform="translate(62.1367, 25.0108)">
<rect x="0.0000" y="-2.0000" width="0.2212" height="4.0582" ry="0.0000" fill="currentColor"/>
</g>
<g transform="translate(45.1097, 34.0108)">
<rect x="0.0000" y="-2.0582" width="0.2212" height="4.0582" ry="0.0000" fill="currentColor"/>
</g>
<g transform="translate(31.6670, 25.0108)">
<rect x="0.0000" y="-2.0000" width="0.2212" height="4.0582" ry="0.0000" fill="currentColor"/>
</g>
<g transform="translate(91.3777, 11.4161)">
<rect x="0.0000" y="15.6529" width="0.2212" height="4.9418" ry="0.0000" fill="currentColor"/>
</g>
<g transform="translate(123.7887, 25.0108)">
<rect x="0.0000" y="-2.0000" width="0.2212" height="4.0582" ry="0.0000" fill="currentColor"/>
</g>
<g transform="translate(76.9357, 34.0108)">
<rect x="0.0000" y="-2.0582" width="0.2212" height="4.0582" ry="0.0000" fill="currentColor"/>
</g>
<g transform="translate(91.3777, 34.0108)">
<rect x="0.0000" y="-2.0582" width="0.2212" height="4.0582" ry="0.0000" fill="currentColor"/>
</g>
<g transform="translate(76.9357, 11.4161)">
<rect x="0.0000" y="15.6529" width="0.2212" height="4.9418" ry="0.0000" fill="currentColor"/>
</g>
<g transform="translate(140.2040, 24.5108)">
<path transform="scale(0.0040, -0.0040)" d="M0 0c0 30 25 55 55 55s55 -25 55 -55s-25 -55 -55 -55s-55 25 -55 55z" fill="currentColor"/>
</g>
<g transform="translate(140.2040, 25.5108)">
<path transform="scale(0.0040, -0.0040)" d="M0 0c0 30 25 55 55 55s55 -25 55 -55s-25 -55 -55 -55s-55 25 -55 55z" fill="currentColor"/>
</g>
<g transform="translate(141.5652, 25.0108)">
<rect x="0.0000" y="-2.0000" width="0.6986" height="4.0582" ry="0.0000" fill="currentColor"/>
</g>
<g transform="translate(140.9947, 25.0108)">
<rect x="0.0000" y="-2.0000" width="0.2212" height="4.0582" ry="0.0000" fill="currentColor"/>
</g>
<g transform="translate(141.5652, 11.4161)">
<rect x="0.0000" y="15.6529" width="0.6986" height="4.9418" ry="0.0000" fill="currentColor"/>
</g>
<g transform="translate(140.9947, 11.4161)">
<rect x="0.0000" y="15.6529" width="0.2212" height="4.9418" ry="0.0000" fill="currentColor"/>
</g>
<g transform="translate(62.1367, 34.0108)">
<rect x="0.0000" y="-2.0582" width="0.2212" height="4.0582" ry="0.0000" fill="currentColor"/>
</g>
<g transform="translate(31.6670, 11.4161)">
<rect x="0.0000" y="15.6529" width="0.2212" height="4.9418" ry="0.0000" fill="currentColor"/>
</g>
<g transform="translate(140.2040, 33.5108)">
<path transform="scale(0.0040, -0.0040)" d="M0 0c0 30 25 55 55 55s55 -25 55 -55s-25 -55 -55 -55s-55 25 -55 55z" fill="currentColor"/>
</g>
<g transform="translate(140.2040, 34.5108)">
<path transform="scale(0.0040, -0.0040)" d="M0 0c0 30 25 55 55 55s55 -25 55 -55s-25 -55 -55 -55s-55 25 -55 55z" fill="currentColor"/>
</g>
<g transform="translate(141.5652, 34.0108)">
<rect x="0.0000" y="-2.0582" width="0.6986" height="4.0582" ry="0.0000" fill="currentColor"/>
</g>
<g transform="translate(140.9947, 34.0108)">
<rect x="0.0000" y="-2.0582" width="0.2212" height="4.0582" ry="0.0000" fill="currentColor"/>
</g>
<g transform="translate(62.1367, 11.4161)">
<rect x="0.0000" y="15.6529" width="0.2212" height="4.9418" ry="0.0000" fill="currentColor"/>
</g>
<g transform="translate(31.6670, 34.0108)">
<rect x="0.0000" y="-2.0582" width="0.2212" height="4.0582" ry="0.0000" fill="currentColor"/>
</g>
<g transform="translate(7.1132, 27.0108)">
<line stroke-linejoin="round" stroke-linecap="round" stroke-width="0.1164" stroke="currentColor" x1="0.0582" y1="0" x2="135.0924" y2="0"/>
</g>
<g transform="translate(7.1132, 26.0108)">
<line stroke-linejoin="round" stroke-linecap="round" stroke-width="0.1164" stroke="currentColor" x1="0.0582" y1="0" x2="135.0924" y2="0"/>
</g>
<g transform="translate(7.1132, 25.0108)">
<line stroke-linejoin="round" stroke-linecap="round" stroke-width="0.1164" stroke="currentColor" x1="0.0582" y1="0" x2="135.0924" y2="0"/>
</g>
<g transform="translate(7.1132, 24.0108)">
<line stroke-linejoin="round" stroke-linecap="round" stroke-width="0.1164" stroke="currentColor" x1="0.0582" y1="0" x2="135.0924" y2="0"/>
</g>
<g transform="translate(7.1132, 23.0108)">
<line stroke-linejoin="round" stroke-linecap="round" stroke-width="0.1164" stroke="currentColor" x1="0.0582" y1="0" x2="135.0924" y2="0"/>
</g>
<g transform="translate(7.1132, 22.0108)">
<rect x="94.7553" y="-0.1082" width="1.9513" height="0.2164" ry="0.1082" fill="currentColor"/>
</g>
<g transform="translate(45.1097, 25.0108)">
<rect x="0.0000" y="-2.0000" width="0.2212" height="4.0582" ry="0.0000" fill="currentColor"/>
</g>
<g transform="translate(105.9667, 11.4161)">
<rect x="0.0000" y="15.6529" width="0.2212" height="4.9418" ry="0.0000" fill="currentColor"/>
</g>
<g transform="translate(7.1132, 37.0108)">
<rect x="109.9133" y="-0.1082" width="1.9513" height="0.2164" ry="0.1082" fill="currentColor"/>
</g>
<g transform="translate(7.1132, 36.0108)">
<line stroke-linejoin="round" stroke-linecap="round" stroke-width="0.1164" stroke="currentColor" x1="0.0582" y1="0" x2="135.0924" y2="0"/>
</g>
<g transform="translate(7.1132, 35.0108)">
<line stroke-linejoin="round" stroke-linecap="round" stroke-width="0.1164" stroke="currentColor" x1="0.0582" y1="0" x2="135.0924" y2="0"/>
</g>
<g transform="translate(7.1132, 34.0108)">
<line stroke-linejoin="round" stroke-linecap="round" stroke-width="0.1164" stroke="currentColor" x1="0.0582" y1="0" x2="135.0924" y2="0"/>
</g>
<g transform="translate(7.1132, 33.0108)">
<line stroke-linejoin="round" stroke-linecap="round" stroke-width="0.1164" stroke="currentColor" x1="0.0582" y1="0" x2="135.0924" y2="0"/>
</g>
<g transform="translate(7.1132, 32.0108)">
<line stroke-linejoin="round" stroke-linecap="round" stroke-width="0.1164" stroke="currentColor" x1="0.0582" y1="0" x2="135.0924" y2="0"/>
</g>
<g transform="translate(123.7887, 11.4161)">
<rect x="0.0000" y="15.6529" width="0.2212" height="4.9418" ry="0.0000" fill="currentColor"/>
</g>
<g transform="translate(91.3777, 25.0108)">
<rect x="0.0000" y="-2.0000" width="0.2212" height="4.0582" ry="0.0000" fill="currentColor"/>
</g>
<g transform="translate(105.9667, 25.0108)">
<rect x="0.0000" y="-2.0000" width="0.2212" height="4.0582" ry="0.0000" fill="currentColor"/>
</g>
<g transform="translate(105.9667, 34.0108)">
<rect x="0.0000" y="-2.0582" width="0.2212" height="4.0582" ry="0.0000" fill="currentColor"/>
</g>
<g transform="translate(29.3058, 34.0108)">
<rect x="-0.0757" y="-1.3287" width="0.1514" height="5.1469" ry="0.0500" fill="currentColor"/>
</g>
<g transform="translate(33.1610, 34.0108)">
<rect x="-0.0757" y="-0.3287" width="0.1514" height="3.9953" ry="0.0500" fill="currentColor"/>
</g>
<g transform="translate(33.0853, 22.5108)">
<path transform="scale(0.0040, -0.0040)" d="M212 138c59 0 113 -31 113 -95c0 -71 -52 -120 -99 -148c-34 -21 -73 -33 -113 -33c-59 0 -113 31 -113 95c0 71 53 120 100 148c34 21 72 33 112 33z" fill="currentColor"/>
</g>
<g transform="translate(33.0853, 34.5108)">
<path transform="scale(0.0040, -0.0040)" d="M212 138c59 0 113 -31 113 -95c0 -71 -52 -120 -99 -148c-34 -21 -73 -33 -113 -33c-59 0 -113 31 -113 95c0 71 53 120 100 148c34 21 72 33 112 33z" fill="currentColor"/>
</g>
<g transform="translate(29.2302, 32.5108)">
<path transform="scale(0.0040, -0.0040)" d="M212 138c59 0 113 -31 113 -95c0 -71 -52 -120 -99 -148c-34 -21 -73 -33 -113 -33c-59 0 -113 31 -113 95c0 71 53 120 100 148c34 21 72 33 112 33z" fill="currentColor"/>
</g>
<g transform="translate(33.1610, 25.0108)">
<rect x="-0.0757" y="-2.3287" width="0.1514" height="4.1469" ry="0.0500" fill="currentColor"/>
</g>
<g transform="translate(33.0853, 33.5108)">
<path transform="scale(0.0040, -0.0040)" d="M212 138c59 0 113 -31 113 -95c0 -71 -52 -120 -99 -148c-34 -21 -73 -33 -113 -33c-59 0 -113 31 -113 95c0 71 53 120 100 148c34 21 72 33 112 33z" fill="currentColor"/>
</g>
<g transform="translate(41.2579, 25.0108)">
<rect x="-0.0757" y="-1.3287" width="0.1514" height="3.1469" ry="0.0500" fill="currentColor"/>
</g>
<g transform="translate(41.1822, 32.5108)">
<path transform="scale(0.0040, -0.0040)" d="M212 138c59 0 113 -31 113 -95c0 -71 -52 -120 -99 -148c-34 -21 -73 -33 -113 -33c-59 0 -113 31 -113 95c0 71 53 120 100 148c34 21 72 33 112 33z" fill="currentColor"/>
</g>
<g transform="translate(41.1822, 34.5108)">
<path transform="scale(0.0040, -0.0040)" d="M212 138c59 0 113 -31 113 -95c0 -71 -52 -120 -99 -148c-34 -21 -73 -33 -113 -33c-59 0 -113 31 -113 95c0 71 53 120 100 148c34 21 72 33 112 33z" fill="currentColor"/>
</g>
<g transform="translate(41.1822, 23.5108)">
<path transform="scale(0.0040, -0.0040)" d="M212 138c59 0 113 -31 113 -95c0 -71 -52 -120 -99 -148c-34 -21 -73 -33 -113 -33c-59 0 -113 31 -113 95c0 71 53 120 100 148c34 21 72 33 112 33z" fill="currentColor"/>
</g>
<g transform="translate(15.6070, 33.5108)">
<path transform="scale(0.0040, -0.0040)" d="M212 138c59 0 113 -31 113 -95c0 -71 -52 -120 -99 -148c-34 -21 -73 -33 -113 -33c-59 0 -113 31 -113 95c0 71 53 120 100 148c34 21 72 33 112 33z" fill="currentColor"/>
</g>
<g transform="translate(12.1772, 34.0108)">
<path transform="scale(0.0040, -0.0040)" d="M153 474c-30 0 -63 -8 -63 -34c0 -21 35 -25 35 -46c0 -31 -25 -56 -56 -56s-56 25 -56 56c0 66 68 106 140 106c92 0 171 -32 171 -114c0 -42 -6 -79 -43 -96c-10 -5 -15 -15 -15 -25s5 -19 15 -24c41 -19 58 -56 58 -101c0 -93 -81 -140 -182 -140
c-80 0 -157 43 -157 116c0 35 29 64 64 64s64 -29 64 -64c0 -24 -39 -29 -39 -53c0 -29 35 -37 68 -37c47 0 59 59 59 114v28c0 47 -2 81 -46 81h-77c-11 0 -16 8 -16 16s5 16 16 16h77c44 0 46 37 46 86v19c0 53 -15 88 -63 88z" fill="currentColor"/>
</g>
<g transform="translate(12.1132, 36.0167)">
<path transform="scale(0.0040, -0.0040)" d="M263 292c25 29 45 61 45 99c0 53 -56 83 -114 83c-45 0 -72 -35 -72 -68c0 -19 9 -38 28 -49zM297 272c54 -31 81 -79 81 -126c0 -74 -67 -146 -192 -146c-96 0 -186 53 -186 141c0 50 37 85 74 120c-39 28 -58 66 -58 104c0 68 61 135 178 135c82 0 163 -37 163 -109
c0 -46 -28 -85 -60 -119zM107 241c-31 -28 -59 -59 -59 -100c0 -68 66 -115 138 -115c53 0 85 41 85 80c0 23 -11 47 -34 60z" fill="currentColor"/>
</g>
<g transform="translate(7.9132, 33.0108)">
<path transform="scale(0.0040, -0.0040)" d="M558 -125c0 28 22 50 50 50s50 -22 50 -50s-22 -50 -50 -50s-50 22 -50 50zM558 125c0 28 22 50 50 50s50 -22 50 -50s-22 -50 -50 -50s-50 22 -50 50zM231 265c173 0 294 -88 294 -252c0 -263 -263 -415 -515 -523c-3 -3 -7 -5 -10 -5c-8 0 -15 7 -15 15c0 3 2 7 5 10
c200 118 407 264 407 491c0 119 -59 234 -166 234c-70 0 -119 -51 -142 -120c8 2 15 4 23 4c55 0 100 -45 100 -100c0 -58 -44 -106 -100 -106c-60 0 -112 47 -112 106c0 133 101 246 231 246z" fill="currentColor"/>
</g>
<g transform="translate(36.9594, 25.0108)">
<rect x="-0.0757" y="-0.3287" width="0.1514" height="2.1469" ry="0.0500" fill="currentColor"/>
</g>
<g transform="translate(36.8838, 24.5108)">
<path transform="scale(0.0040, -0.0040)" d="M212 138c59 0 113 -31 113 -95c0 -71 -52 -120 -99 -148c-34 -21 -73 -33 -113 -33c-59 0 -113 31 -113 95c0 71 53 120 100 148c34 21 72 33 112 33z" fill="currentColor"/>
</g>
<g transform="translate(15.6070, 34.5108)">
<path transform="scale(0.0040, -0.0040)" d="M212 138c59 0 113 -31 113 -95c0 -71 -52 -120 -99 -148c-34 -21 -73 -33 -113 -33c-59 0 -113 31 -113 95c0 71 53 120 100 148c34 21 72 33 112 33z" fill="currentColor"/>
</g>
<g transform="translate(18.5316, 32.5108)">
<path transform="scale(0.0040, -0.0040)" d="M212 138c59 0 113 -31 113 -95c0 -71 -52 -120 -99 -148c-34 -21 -73 -33 -113 -33c-59 0 -113 31 -113 95c0 71 53 120 100 148c34 21 72 33 112 33z" fill="currentColor"/>
</g>
<g transform="translate(137.5293, 34.0108)">
<path transform="scale(0.0040, -0.0040)" d="M212 138c59 0 113 -31 113 -95c0 -71 -52 -120 -99 -148c-34 -21 -73 -33 -113 -33c-59 0 -113 31 -113 95c0 71 53 120 100 148c34 21 72 33 112 33z" fill="currentColor"/>
</g>
<g transform="translate(138.7545, 34.0108)">
<rect x="-0.0757" y="-3.8182" width="0.1514" height="3.6469" ry="0.0500" fill="currentColor"/>
</g>
<g transform="translate(18.6073, 34.0108)">
<rect x="-0.0757" y="-1.3287" width="0.1514" height="5.1469" ry="0.0500" fill="currentColor"/>
</g>
<g transform="translate(15.6070, 24.5108)">
<path transform="scale(0.0040, -0.0040)" d="M212 138c59 0 113 -31 113 -95c0 -71 -52 -120 -99 -148c-34 -21 -73 -33 -113 -33c-59 0 -113 31 -113 95c0 71 53 120 100 148c34 21 72 33 112 33z" fill="currentColor"/>
</g>
<g transform="translate(20.9562, 26.0108)">
<path transform="scale(0.0040, -0.0040)" d="M212 138c59 0 113 -31 113 -95c0 -71 -52 -120 -99 -148c-34 -21 -73 -33 -113 -33c-59 0 -113 31 -113 95c0 71 53 120 100 148c34 21 72 33 112 33z" fill="currentColor"/>
</g>
<g transform="translate(20.9562, 34.5108)">
<path transform="scale(0.0040, -0.0040)" d="M212 138c59 0 113 -31 113 -95c0 -71 -52 -120 -99 -148c-34 -21 -73 -33 -113 -33c-59 0 -113 31 -113 95c0 71 53 120 100 148c34 21 72 33 112 33z" fill="currentColor"/>
</g>
<g transform="translate(136.0799, 34.0108)">
<rect x="-0.0757" y="-3.8182" width="0.1514" height="3.1469" ry="0.0500" fill="currentColor"/>
</g>
<g transform="translate(134.8547, 33.5108)">
<path transform="scale(0.0040, -0.0040)" d="M212 138c59 0 113 -31 113 -95c0 -71 -52 -120 -99 -148c-34 -21 -73 -33 -113 -33c-59 0 -113 31 -113 95c0 71 53 120 100 148c34 21 72 33 112 33z" fill="currentColor"/>
</g>
<g transform="translate(134.8547, 25.0108)">
<path transform="scale(0.0040, -0.0040)" d="M67 -250l118 326c-33 -12 -66 -22 -101 -22c-46 0 -87 34 -87 79c0 40 33 72 73 72c25 0 49 -14 57 -37c10 -27 4 -59 33 -59c14 0 50 42 56 55c7 14 28 14 34 0l-119 -414c-9 -8 -21 -12 -32 -12s-23 4 -32 12z" fill="currentColor"/>
</g>
<g transform="translate(133.4052, 34.0108)">
<rect x="-0.0757" y="-3.8182" width="0.1514" height="2.6469" ry="0.0500" fill="currentColor"/>
</g>
<g transform="translate(132.1801, 33.0108)">
<path transform="scale(0.0040, -0.0040)" d="M212 138c59 0 113 -31 113 -95c0 -71 -52 -120 -99 -148c-34 -21 -73 -33 -113 -33c-59 0 -113 31 -113 95c0 71 53 120 100 148c34 21 72 33 112 33z" fill="currentColor"/>
</g>
<g transform="translate(15.6070, 28.5108)">
<polygon stroke-linejoin="round" stroke-linecap="round" stroke-width="0.1000" fill="currentColor" stroke="currentColor" points="10.7999 -0.1900 10.7999 0.1900 0.0500 0.1900 0.0500 -0.1900"/>
</g>
<g transform="translate(7.9132, 26.0108)">
<path transform="scale(0.0040, -0.0040)" d="M379 264c3 0 7 1 10 1c157 0 258 -129 258 -263c0 -77 -33 -155 -108 -211c-22 -16 -46 -29 -72 -37c3 -33 4 -66 4 -99c0 -21 0 -41 -1 -62c-7 -121 -91 -229 -211 -229c-108 0 -196 88 -196 197c0 58 54 103 113 103c54 0 95 -47 95 -103c0 -52 -43 -95 -95 -95
c-9 0 -18 1 -27 4c25 -37 66 -61 113 -61c95 0 156 93 162 191c1 19 2 38 2 57c0 29 -1 58 -3 87c-29 -5 -58 -8 -88 -8c-189 0 -333 173 -333 376c0 177 129 308 244 443c-20 62 -40 124 -48 189c-7 52 -7 105 -7 158c0 114 54 221 147 288c8 6 18 5 25 -1
c72 -83 135 -243 135 -356c0 -142 -84 -255 -176 -364c21 -68 40 -136 57 -205zM463 -201c65 24 110 94 110 161c0 88 -64 175 -167 188c24 -114 44 -227 57 -349zM77 25c0 -133 128 -243 261 -243c27 0 55 1 81 5c-13 126 -35 244 -60 362c-79 -8 -124 -60 -124 -118
c0 -43 25 -88 80 -120c5 -5 7 -11 7 -17c0 -12 -10 -23 -23 -23c-3 0 -7 1 -10 2c-81 43 -118 115 -118 186c0 89 60 177 163 200c-14 57 -30 113 -47 169c-105 -122 -210 -243 -210 -403zM242 784c0 -71 21 -130 39 -188c78 97 142 199 142 324c0 51 -4 72 -20 118
c-99 -46 -161 -145 -161 -254z" fill="currentColor"/>
</g>
<g transform="translate(26.3055, 23.5108)">
<path transform="scale(0.0040, -0.0040)" d="M212 138c59 0 113 -31 113 -95c0 -71 -52 -120 -99 -148c-34 -21 -73 -33 -113 -33c-59 0 -113 31 -113 95c0 71 53 120 100 148c34 21 72 33 112 33z" fill="currentColor"/>
</g>
<g transform="translate(26.3055, 34.5108)">
<path transform="scale(0.0040, -0.0040)" d="M212 138c59 0 113 -31 113 -95c0 -71 -52 -120 -99 -148c-34 -21 -73 -33 -113 -33c-59 0 -113 31 -113 95c0 71 53 120 100 148c34 21 72 33 112 33z" fill="currentColor"/>
</g>
<g transform="translate(26.3055, 33.5108)">
<path transform="scale(0.0040, -0.0040)" d="M212 138c59 0 113 -31 113 -95c0 -71 -52 -120 -99 -148c-34 -21 -73 -33 -113 -33c-59 0 -113 31 -113 95c0 71 53 120 100 148c34 21 72 33 112 33z" fill="currentColor"/>
</g>
<g transform="translate(26.3812, 25.0108)">
<rect x="-0.0757" y="-1.3287" width="0.1514" height="4.8287" ry="0.0500" fill="currentColor"/>
</g>
<g transform="translate(26.3812, 34.0108)">
<rect x="-0.0757" y="-0.3287" width="0.1514" height="4.1469" ry="0.0500" fill="currentColor"/>
</g>
<g transform="translate(12.1772, 25.0108)">
<path transform="scale(0.0040, -0.0040)" d="M153 474c-30 0 -63 -8 -63 -34c0 -21 35 -25 35 -46c0 -31 -25 -56 -56 -56s-56 25 -56 56c0 66 68 106 140 106c92 0 171 -32 171 -114c0 -42 -6 -79 -43 -96c-10 -5 -15 -15 -15 -25s5 -19 15 -24c41 -19 58 -56 58 -101c0 -93 -81 -140 -182 -140
c-80 0 -157 43 -157 116c0 35 29 64 64 64s64 -29 64 -64c0 -24 -39 -29 -39 -53c0 -29 35 -37 68 -37c47 0 59 59 59 114v28c0 47 -2 81 -46 81h-77c-11 0 -16 8 -16 16s5 16 16 16h77c44 0 46 37 46 86v19c0 53 -15 88 -63 88z" fill="currentColor"/>
</g>
<g transform="translate(12.1132, 27.0167)">
<path transform="scale(0.0040, -0.0040)" d="M263 292c25 29 45 61 45 99c0 53 -56 83 -114 83c-45 0 -72 -35 -72 -68c0 -19 9 -38 28 -49zM297 272c54 -31 81 -79 81 -126c0 -74 -67 -146 -192 -146c-96 0 -186 53 -186 141c0 50 37 85 74 120c-39 28 -58 66 -58 104c0 68 61 135 178 135c82 0 163 -37 163 -109
c0 -46 -28 -85 -60 -119zM107 241c-31 -28 -59 -59 -59 -100c0 -68 66 -115 138 -115c53 0 85 41 85 80c0 23 -11 47 -34 60z" fill="currentColor"/>
</g>
<g transform="translate(23.9566, 34.0108)">
<rect x="-0.0757" y="-1.3287" width="0.1514" height="5.1469" ry="0.0500" fill="currentColor"/>
</g>
<g transform="translate(23.8809, 32.5108)">
<path transform="scale(0.0040, -0.0040)" d="M212 138c59 0 113 -31 113 -95c0 -71 -52 -120 -99 -148c-34 -21 -73 -33 -113 -33c-59 0 -113 31 -113 95c0 71 53 120 100 148c34 21 72 33 112 33z" fill="currentColor"/>
</g>
<g transform="translate(21.0319, 34.0108)">
<rect x="-0.0757" y="-0.3287" width="0.1514" height="4.1469" ry="0.0500" fill="currentColor"/>
</g>
<g transform="translate(21.0319, 25.0108)">
<rect x="-0.0757" y="1.1713" width="0.1514" height="2.3287" ry="0.0500" fill="currentColor"/>
</g>
<g transform="translate(20.9562, 33.5108)">
<path transform="scale(0.0040, -0.0040)" d="M212 138c59 0 113 -31 113 -95c0 -71 -52 -120 -99 -148c-34 -21 -73 -33 -113 -33c-59 0 -113 31 -113 95c0 71 53 120 100 148c34 21 72 33 112 33z" fill="currentColor"/>
</g>
<g transform="translate(67.8891, 25.0108)">
<rect x="-0.0757" y="-1.3287" width="0.1514" height="4.1469" ry="0.0500" fill="currentColor"/>
</g>
<g transform="translate(67.8134, 23.5108)">
<path transform="scale(0.0040, -0.0040)" d="M212 138c59 0 113 -31 113 -95c0 -71 -52 -120 -99 -148c-34 -21 -73 -33 -113 -33c-59 0 -113 31 -113 95c0 71 53 120 100 148c34 21 72 33 112 33z" fill="currentColor"/>
</g>
<g transform="translate(63.5907, 34.0108)">
<rect x="-0.0757" y="-1.3287" width="0.1514" height="4.3287" ry="0.0500" fill="currentColor"/>
</g>
<g transform="translate(63.5907, 25.0108)">
<rect x="-0.0757" y="-0.3287" width="0.1514" height="3.1469" ry="0.0500" fill="currentColor"/>
</g>
<g transform="translate(63.5150, 32.5108)">
<path transform="scale(0.0040, -0.0040)" d="M212 138c59 0 113 -31 113 -95c0 -71 -52 -120 -99 -148c-34 -21 -73 -33 -113 -33c-59 0 -113 31 -113 95c0 71 53 120 100 148c34 21 72 33 112 33z" fill="currentColor"/>
</g>
<g transform="translate(63.5150, 33.5108)">
<path transform="scale(0.0040, -0.0040)" d="M212 138c59 0 113 -31 113 -95c0 -71 -52 -120 -99 -148c-34 -21 -73 -33 -113 -33c-59 0 -113 31 -113 95c0 71 53 120 100 148c34 21 72 33 112 33z" fill="currentColor"/>
</g>
<g transform="translate(63.5150, 24.5108)">
<path transform="scale(0.0040, -0.0040)" d="M212 138c59 0 113 -31 113 -95c0 -71 -52 -120 -99 -148c-34 -21 -73 -33 -113 -33c-59 0 -113 31 -113 95c0 71 53 120 100 148c34 21 72 33 112 33z" fill="currentColor"/>
</g>
<g transform="translate(15.6070, 37.0108)">
<polygon stroke-linejoin="round" stroke-linecap="round" stroke-width="0.1000" fill="currentColor" stroke="currentColor" points="13.7246 -0.1900 13.7246 0.1900 0.0500 0.1900 0.0500 -0.1900"/>
</g>
<g transform="translate(15.6070, 37.8290)">
<polygon stroke-linejoin="round" stroke-linecap="round" stroke-width="0.1000" fill="currentColor" stroke="currentColor" points="13.7246 -0.1900 13.7246 0.1900 0.0500 0.1900 0.0500 -0.1900"/>
</g>
<g transform="translate(33.0853, 26.8290)">
<polygon stroke-linejoin="round" stroke-linecap="round" stroke-width="0.1000" fill="currentColor" stroke="currentColor" points="8.1982 -0.1900 8.1982 0.1900 0.0500 0.1900 0.0500 -0.1900"/>
</g>
<g transform="translate(46.4022, 27.1925)">
<polygon stroke-linejoin="round" stroke-linecap="round" stroke-width="0.1000" fill="currentColor" stroke="currentColor" points="13.2246 0.6282 13.2246 1.0082 0.0500 0.1900 0.0500 -0.1900"/>
</g>
<g transform="translate(46.4022, 28.0108)">
<polygon stroke-linejoin="round" stroke-linecap="round" stroke-width="0.1000" fill="currentColor" stroke="currentColor" points="13.2246 0.6282 13.2246 1.0082 0.0500 0.1900 0.0500 -0.1900"/>
</g>
<g transform="translate(67.8134, 27.0108)">
<polygon stroke-linejoin="round" stroke-linecap="round" stroke-width="0.1000" fill="currentColor" stroke="currentColor" points="2.5260 -0.1900 2.5260 0.1900 0.0500 0.1900 0.0500 -0.1900"/>
</g>
<g transform="translate(63.5150, 27.8290)">
<polygon stroke-linejoin="round" stroke-linecap="round" stroke-width="0.1000" fill="currentColor" stroke="currentColor" points="9.7491 -0.1900 9.7491 0.1900 0.0500 0.1900 0.0500 -0.1900"/>
</g>
<g transform="translate(79.2721, 27.0108)">
<polygon stroke-linejoin="round" stroke-linecap="round" stroke-width="0.1000" fill="currentColor" stroke="currentColor" points="8.1982 -0.1900 8.1982 0.1900 0.0500 0.1900 0.0500 -0.1900"/>
</g>
<g transform="translate(80.4216, 31.1925)">
<polygon stroke-linejoin="round" stroke-linecap="round" stroke-width="0.1000" fill="currentColor" stroke="currentColor" points="8.1982 -0.1900 8.1982 0.1900 0.0500 0.1900 0.0500 -0.1900"/>
</g>
<g transform="translate(96.8444, 26.0108)">
<polygon stroke-linejoin="round" stroke-linecap="round" stroke-width="0.1000" fill="currentColor" stroke="currentColor" points="2.5260 -0.1900 2.5260 0.1900 0.0500 0.1900 0.0500 -0.1900"/>
</g>
<g transform="translate(92.7960, 26.8290)">
<polygon stroke-linejoin="round" stroke-linecap="round" stroke-width="0.1000" fill="currentColor" stroke="currentColor" points="9.4991 -0.1900 9.4991 0.1900 0.0500 0.1900 0.0500 -0.1900"/>
</g>
<g transform="translate(108.3026, 20.5108)">
<polygon stroke-linejoin="round" stroke-linecap="round" stroke-width="0.1000" fill="currentColor" stroke="currentColor" points="13.8246 1.4918 13.8246 1.8718 0.0500 0.1900 0.0500 -0.1900"/>
</g>
<g transform="translate(108.3026, 21.3290)">
<polygon stroke-linejoin="round" stroke-linecap="round" stroke-width="0.1000" fill="currentColor" stroke="currentColor" points="13.8246 1.4918 13.8246 1.8718 0.0500 0.1900 0.0500 -0.1900"/>
</g>
<g transform="translate(108.3026, 31.1925)">
<polygon stroke-linejoin="round" stroke-linecap="round" stroke-width="0.1000" fill="currentColor" stroke="currentColor" points="10.2999 -0.1900 10.2999 0.1900 0.0500 0.1900 0.0500 -0.1900"/>
</g>
<g transform="translate(126.3565, 30.1925)">
<polygon stroke-linejoin="round" stroke-linecap="round" stroke-width="0.1000" fill="currentColor" stroke="currentColor" points="12.4237 -0.1900 12.4237 0.1900 0.0500 0.1900 0.0500 -0.1900"/>
</g>
<g transform="translate(130.6549, 31.0108)">
<polygon stroke-linejoin="round" stroke-linecap="round" stroke-width="0.1000" fill="currentColor" stroke="currentColor" points="8.1253 -0.1900 8.1253 0.1900 0.0500 0.1900 0.0500 -0.1900"/>
</g>
<g transform="translate(79.2721, 24.0108)">
<path transform="scale(0.0040, -0.0040)" d="M212 138c59 0 113 -31 113 -95c0 -71 -52 -120 -99 -148c-34 -21 -73 -33 -113 -33c-59 0 -113 31 -113 95c0 71 53 120 100 148c34 21 72 33 112 33z" fill="currentColor"/>
</g>
<g transform="translate(73.2384, 25.0108)">
<rect x="-0.0757" y="-2.3287" width="0.1514" height="5.1469" ry="0.0500" fill="currentColor"/>
</g>
<g transform="translate(73.1627, 34.0108)">
<path transform="scale(0.0040, -0.0040)" d="M67 -250l118 326c-33 -12 -66 -22 -101 -22c-46 0 -87 34 -87 79c0 40 33 72 73 72c25 0 49 -14 57 -37c10 -27 4 -59 33 -59c14 0 50 42 56 55c7 14 28 14 34 0l-119 -414c-9 -8 -21 -12 -32 -12s-23 4 -32 12z" fill="currentColor"/>
</g>
<g transform="translate(73.1627, 22.5108)">
<path transform="scale(0.0040, -0.0040)" d="M212 138c59 0 113 -31 113 -95c0 -71 -52 -120 -99 -148c-34 -21 -73 -33 -113 -33c-59 0 -113 31 -113 95c0 71 53 120 100 148c34 21 72 33 112 33z" fill="currentColor"/>
</g>
<g transform="translate(70.3137, 25.0108)">
<rect x="-0.0757" y="-0.3287" width="0.1514" height="3.1469" ry="0.0500" fill="currentColor"/>
</g>
<g transform="translate(70.2381, 24.5108)">
<path transform="scale(0.0040, -0.0040)" d="M212 138c59 0 113 -31 113 -95c0 -71 -52 -120 -99 -148c-34 -21 -73 -33 -113 -33c-59 0 -113 31 -113 95c0 71 53 120 100 148c34 21 72 33 112 33z" fill="currentColor"/>
</g>
<g transform="translate(49.1525, 25.0108)">
<rect x="-0.0757" y="-0.3287" width="0.1514" height="3.4982" ry="0.0500" fill="currentColor"/>
</g>
<g transform="translate(49.0769, 24.5108)">
<path transform="scale(0.0040, -0.0040)" d="M212 138c59 0 113 -31 113 -95c0 -71 -52 -120 -99 -148c-34 -21 -73 -33 -113 -33c-59 0 -113 31 -113 95c0 71 53 120 100 148c34 21 72 33 112 33z" fill="currentColor"/>
</g>
<g transform="translate(47.6274, 34.0108)">
<rect x="-0.0757" y="-1.5000" width="0.1514" height="3.3287" ry="0.0500" fill="currentColor"/>
</g>
<g transform="translate(46.4779, 25.0108)">
<rect x="-0.0757" y="0.1713" width="0.1514" height="2.8333" ry="0.0500" fill="currentColor"/>
</g>
<g transform="translate(46.4022, 36.0108)">
<path transform="scale(0.0040, -0.0040)" d="M212 138c59 0 113 -31 113 -95c0 -71 -52 -120 -99 -148c-34 -21 -73 -33 -113 -33c-59 0 -113 31 -113 95c0 71 53 120 100 148c34 21 72 33 112 33z" fill="currentColor"/>
</g>
<g transform="translate(46.4022, 25.0108)">
<path transform="scale(0.0040, -0.0040)" d="M212 138c59 0 113 -31 113 -95c0 -71 -52 -120 -99 -148c-34 -21 -73 -33 -113 -33c-59 0 -113 31 -113 95c0 71 53 120 100 148c34 21 72 33 112 33z" fill="currentColor"/>
</g>
<g transform="translate(41.3336, 37.7108)">
<path transform="scale(0.0040, -0.0040)" d="M0 0h-19v250h19v-250zM0 0v250c95 59 220 149 220 259c0 56 -16 111 -41 161c-3 18 12 30 26 30c8 0 17 -4 22 -13c25 -56 40 -116 40 -178c0 -203 -267 -306 -267 -509z" fill="currentColor"/>
</g>
<g transform="translate(59.6011, 25.0108)">
<rect x="-0.0757" y="1.1713" width="0.1514" height="2.6422" ry="0.0500" fill="currentColor"/>
</g>
<g transform="translate(59.5254, 26.0108)">
<path transform="scale(0.0040, -0.0040)" d="M212 138c59 0 113 -31 113 -95c0 -71 -52 -120 -99 -148c-34 -21 -73 -33 -113 -33c-59 0 -113 31 -113 95c0 71 53 120 100 148c34 21 72 33 112 33z" fill="currentColor"/>
</g>
<g transform="translate(56.9265, 25.0108)">
<rect x="-0.0757" y="0.6713" width="0.1514" height="2.9774" ry="0.0500" fill="currentColor"/>
</g>
<g transform="translate(56.8508, 34.0108)">
<path transform="scale(0.0040, -0.0040)" d="M67 -250l118 326c-33 -12 -66 -22 -101 -22c-46 0 -87 34 -87 79c0 40 33 72 73 72c25 0 49 -14 57 -37c10 -27 4 -59 33 -59c14 0 50 42 56 55c7 14 28 14 34 0l-119 -414c-9 -8 -21 -12 -32 -12s-23 4 -32 12z" fill="currentColor"/>
</g>
<g transform="translate(56.8508, 25.5108)">
<path transform="scale(0.0040, -0.0040)" d="M212 138c59 0 113 -31 113 -95c0 -71 -52 -120 -99 -148c-34 -21 -73 -33 -113 -33c-59 0 -113 31 -113 95c0 71 53 120 100 148c34 21 72 33 112 33z" fill="currentColor"/>
</g>
<g transform="translate(41.2579, 34.0108)">
<rect x="-0.0757" y="-1.3287" width="0.1514" height="5.0787" ry="0.0500" fill="currentColor"/>
</g>
<g transform="translate(54.2518, 25.0108)">
<rect x="-0.0757" y="0.1713" width="0.1514" height="3.3125" ry="0.0500" fill="currentColor"/>
</g>
<g transform="translate(54.1761, 25.0108)">
<path transform="scale(0.0040, -0.0040)" d="M212 138c59 0 113 -31 113 -95c0 -71 -52 -120 -99 -148c-34 -21 -73 -33 -113 -33c-59 0 -113 31 -113 95c0 71 53 120 100 148c34 21 72 33 112 33z" fill="currentColor"/>
</g>
<g transform="translate(15.6826, 25.0108)">
<rect x="-0.0757" y="-0.3287" width="0.1514" height="3.8287" ry="0.0500" fill="currentColor"/>
</g>
<g transform="translate(51.8272, 25.0108)">
<rect x="-0.0757" y="-0.8287" width="0.1514" height="4.1631" ry="0.0500" fill="currentColor"/>
</g>
<g transform="translate(51.7515, 24.0108)">
<path transform="scale(0.0040, -0.0040)" d="M212 138c59 0 113 -31 113 -95c0 -71 -52 -120 -99 -148c-34 -21 -73 -33 -113 -33c-59 0 -113 31 -113 95c0 71 53 120 100 148c34 21 72 33 112 33z" fill="currentColor"/>
</g>
<g transform="translate(96.8444, 22.5108)">
<path transform="scale(0.0040, -0.0040)" d="M212 138c59 0 113 -31 113 -95c0 -71 -52 -120 -99 -148c-34 -21 -73 -33 -113 -33c-59 0 -113 31 -113 95c0 71 53 120 100 148c34 21 72 33 112 33z" fill="currentColor"/>
</g>
<g transform="translate(96.9201, 25.0108)">
<rect x="-0.0757" y="-2.3287" width="0.1514" height="4.1469" ry="0.0500" fill="currentColor"/>
</g>
<g transform="translate(94.0211, 34.0108)">
<rect x="-0.0757" y="-3.3333" width="0.1514" height="4.1620" ry="0.0500" fill="currentColor"/>
</g>
<g transform="translate(92.8716, 25.0108)">
<rect x="-0.0757" y="-2.3287" width="0.1514" height="4.1469" ry="0.0500" fill="currentColor"/>
</g>
<g transform="translate(92.7960, 34.0108)">
<path transform="scale(0.0040, -0.0040)" d="M212 138c59 0 113 -31 113 -95c0 -71 -52 -120 -99 -148c-34 -21 -73 -33 -113 -33c-59 0 -113 31 -113 95c0 71 53 120 100 148c34 21 72 33 112 33z" fill="currentColor"/>
</g>
<g transform="translate(92.7960, 35.0108)">
<path transform="scale(0.0040, -0.0040)" d="M212 138c59 0 113 -31 113 -95c0 -71 -52 -120 -99 -148c-34 -21 -73 -33 -113 -33c-59 0 -113 31 -113 95c0 71 53 120 100 148c34 21 72 33 112 33z" fill="currentColor"/>
</g>
<g transform="translate(92.7960, 22.5108)">
<path transform="scale(0.0040, -0.0040)" d="M212 138c59 0 113 -31 113 -95c0 -71 -52 -120 -99 -148c-34 -21 -73 -33 -113 -33c-59 0 -113 31 -113 95c0 71 53 120 100 148c34 21 72 33 112 33z" fill="currentColor"/>
</g>
<g transform="translate(108.3783, 34.0108)">
<rect x="-0.0757" y="-2.8182" width="0.1514" height="3.1469" ry="0.0500" fill="currentColor"/>
</g>
<g transform="translate(107.1531, 34.5108)">
<path transform="scale(0.0040, -0.0040)" d="M212 138c59 0 113 -31 113 -95c0 -71 -52 -120 -99 -148c-34 -21 -73 -33 -113 -33c-59 0 -113 31 -113 95c0 71 53 120 100 148c34 21 72 33 112 33z" fill="currentColor"/>
</g>
<g transform="translate(107.1531, 23.5108)">
<path transform="scale(0.0040, -0.0040)" d="M212 138c59 0 113 -31 113 -95c0 -71 -52 -120 -99 -148c-34 -21 -73 -33 -113 -33c-59 0 -113 31 -113 95c0 71 53 120 100 148c34 21 72 33 112 33z" fill="currentColor"/>
</g>
<g transform="translate(102.2694, 25.0108)">
<rect x="-0.0757" y="-3.3287" width="0.1514" height="5.1469" ry="0.0500" fill="currentColor"/>
</g>
<g transform="translate(102.1937, 34.0108)">
<path transform="scale(0.0040, -0.0040)" d="M67 -250l118 326c-33 -12 -66 -22 -101 -22c-46 0 -87 34 -87 79c0 40 33 72 73 72c25 0 49 -14 57 -37c10 -27 4 -59 33 -59c14 0 50 42 56 55c7 14 28 14 34 0l-119 -414c-9 -8 -21 -12 -32 -12s-23 4 -32 12z" fill="currentColor"/>
</g>
<g transform="translate(102.1937, 21.5108)">
<path transform="scale(0.0040, -0.0040)" d="M212 138c59 0 113 -31 113 -95c0 -71 -52 -120 -99 -148c-34 -21 -73 -33 -113 -33c-59 0 -113 31 -113 95c0 71 53 120 100 148c34 21 72 33 112 33z" fill="currentColor"/>
</g>
<g transform="translate(99.3447, 25.0108)">
<rect x="-0.0757" y="-0.8287" width="0.1514" height="2.6469" ry="0.0500" fill="currentColor"/>
</g>
<g transform="translate(99.2690, 24.0108)">
<path transform="scale(0.0040, -0.0040)" d="M212 138c59 0 113 -31 113 -95c0 -71 -52 -120 -99 -148c-34 -21 -73 -33 -113 -33c-59 0 -113 31 -113 95c0 71 53 120 100 148c34 21 72 33 112 33z" fill="currentColor"/>
</g>
<g transform="translate(80.4973, 34.0108)">
<rect x="-0.0757" y="-2.8182" width="0.1514" height="3.1469" ry="0.0500" fill="currentColor"/>
</g>
<g transform="translate(77.8221, 23.0108)">
<path transform="scale(0.0040, -0.0040)" d="M198 -329c-12 0 -21 9 -21 21v138l-79 -30v-154c0 -12 -9 -21 -21 -21s-21 9 -21 21v138l-22 -8c-3 -1 -6 -2 -9 -2c-13 0 -25 11 -25 25v54c0 10 6 20 16 24l40 15v155l-22 -9c-3 -1 -6 -1 -9 -1c-13 0 -25 11 -25 25v54c0 10 6 19 16 23l40 15v154c0 12 9 21 21 21
s21 -9 21 -21v-138l79 30v154c0 12 9 21 21 21s21 -9 21 -21v-138l22 8c3 1 6 2 9 2c13 0 25 -11 25 -25v-54c0 -10 -6 -20 -16 -24l-40 -15v-155l22 9c3 1 6 1 9 1c13 0 25 -11 25 -25v-54c0 -10 -6 -19 -16 -23l-40 -15v-154c0 -12 -9 -21 -21 -21zM98 62v-154l79 30v154z
" fill="currentColor"/>
</g>
<g transform="translate(79.3478, 25.0108)">
<rect x="-0.0757" y="-1.8287" width="0.1514" height="3.8287" ry="0.0500" fill="currentColor"/>
</g>
<g transform="translate(79.2721, 34.5108)">
<path transform="scale(0.0040, -0.0040)" d="M212 138c59 0 113 -31 113 -95c0 -71 -52 -120 -99 -148c-34 -21 -73 -33 -113 -33c-59 0 -113 31 -113 95c0 71 53 120 100 148c34 21 72 33 112 33z" fill="currentColor"/>
</g>
<g transform="translate(79.2721, 23.0108)">
<path transform="scale(0.0040, -0.0040)" d="M212 138c59 0 113 -31 113 -95c0 -71 -52 -120 -99 -148c-34 -21 -73 -33 -113 -33c-59 0 -113 31 -113 95c0 71 53 120 100 148c34 21 72 33 112 33z" fill="currentColor"/>
</g>
<g transform="translate(124.8236, 21.4981)">
<g>
<path transform="scale(0.0025, -0.0025)" d="M129 129h130c0 -52 32 -100 81 -100c10 0 14 -8 14 -15s-4 -14 -14 -14c-49 0 -97 14 -146 14s-96 -14 -145 -14c-10 0 -15 7 -15 14s5 15 15 15c49 0 80 48 80 100zM0 250l129 250c3 7 13 3 21 0c14 -6 28 -14 44 -14s31 8 45 14c2 1 2 1 4 1c8 0 16 -9 16 -21v-351
h-130v215c0 15 -11 23 -20 23c-5 0 -9 -2 -11 -7l-66 -127c-4 -7 -9 -9 -15 -9c-9 0 -19 7 -19 17c0 3 0 6 2 9z" fill="currentColor"/>

<path transform="translate(0.8963, 0.0000) scale(0.0025, -0.0025)" d="M0 51c0 28 23 51 51 51s51 -23 51 -51s-23 -51 -51 -51s-51 23 -51 51z" fill="currentColor"/>
</g>
</g>
<g transform="translate(123.7887, 19.6750)">
<line stroke-linejoin="round" stroke-linecap="round" stroke-width="0.1863" stroke="currentColor" x1="18.3819" y1="-0.0000" x2="18.3819" y2="2.0000"/>
</g>
<g transform="translate(123.7887, 19.6750)">
<line stroke-linejoin="round" stroke-linecap="round" stroke-width="0.1863" stroke="currentColor" x1="0.1281" y1="-0.0000" x2="0.1281" y2="2.0000"/>
</g>
<g transform="translate(123.7887, 19.6750)">
<line stroke-linejoin="round" stroke-linecap="round" stroke-width="0.1863" stroke="currentColor" x1="0.1281" y1="-0.0000" x2="18.3819" y2="-0.0000"/>
</g>
<g transform="translate(7.0269, 29.5108)">
<rect x="0.0000" y="-6.5582" width="0.1863" height="13.1164" ry="0.0582" fill="currentColor"/>
</g>
<g transform="translate(6.7269, 29.5108)">
<path transform="scale(0.0040, -0.0040)" d="M-189 -1146c0 267 108 528 108 780c0 135 -33 261 -129 360c-3 3 -3 3 -3 6s0 3 3 6c96 99 129 225 129 360c0 252 -108 513 -108 780c0 189 45 366 177 501c15 15 39 -9 24 -24c-99 -99 -129 -225 -129 -360c0 -249 102 -504 102 -765c0 -186 -45 -363 -174 -498
c129 -135 174 -312 174 -498c0 -261 -102 -516 -102 -765c0 -135 30 -261 129 -360c15 -15 -9 -39 -24 -24c-132 135 -177 312 -177 501z" fill="currentColor"/>
</g>
<g transform="translate(88.5941, 34.0108)">
<rect x="-0.0757" y="-2.8182" width="0.1514" height="3.1469" ry="0.0500" fill="currentColor"/>
</g>
<g transform="translate(87.4447, 25.0108)">
<rect x="-0.0757" y="-1.8287" width="0.1514" height="3.8287" ry="0.0500" fill="currentColor"/>
</g>
<g transform="translate(87.3690, 34.5108)">
<path transform="scale(0.0040, -0.0040)" d="M212 138c59 0 113 -31 113 -95c0 -71 -52 -120 -99 -148c-34 -21 -73 -33 -113 -33c-59 0 -113 31 -113 95c0 71 53 120 100 148c34 21 72 33 112 33z" fill="currentColor"/>
</g>
<g transform="translate(87.3690, 23.0108)">
<path transform="scale(0.0040, -0.0040)" d="M212 138c59 0 113 -31 113 -95c0 -71 -52 -120 -99 -148c-34 -21 -73 -33 -113 -33c-59 0 -113 31 -113 95c0 71 53 120 100 148c34 21 72 33 112 33z" fill="currentColor"/>
</g>
<g transform="translate(87.3690, 24.0108)">
<path transform="scale(0.0040, -0.0040)" d="M212 138c59 0 113 -31 113 -95c0 -71 -52 -120 -99 -148c-34 -21 -73 -33 -113 -33c-59 0 -113 31 -113 95c0 71 53 120 100 148c34 21 72 33 112 33z" fill="currentColor"/>
</g>
<g transform="translate(108.3783, 25.0108)">
<rect x="-0.0757" y="-4.4908" width="0.1514" height="2.8195" ry="0.0500" fill="currentColor"/>
</g>
<g transform="translate(84.5457, 34.0108)">
<rect x="-0.0757" y="-2.8182" width="0.1514" height="3.1469" ry="0.0500" fill="currentColor"/>
</g>
<g transform="translate(83.3962, 25.0108)">
<rect x="-0.0757" y="-1.8287" width="0.1514" height="3.8287" ry="0.0500" fill="currentColor"/>
</g>
<g transform="translate(83.3205, 34.5108)">
<path transform="scale(0.0040, -0.0040)" d="M212 138c59 0 113 -31 113 -95c0 -71 -52 -120 -99 -148c-34 -21 -73 -33 -113 -33c-59 0 -113 31 -113 95c0 71 53 120 100 148c34 21 72 33 112 33z" fill="currentColor"/>
</g>
<g transform="translate(83.3205, 23.0108)">
<path transform="scale(0.0040, -0.0040)" d="M212 138c59 0 113 -31 113 -95c0 -71 -52 -120 -99 -148c-34 -21 -73 -33 -113 -33c-59 0 -113 31 -113 95c0 71 53 120 100 148c34 21 72 33 112 33z" fill="currentColor"/>
</g>
<g transform="translate(83.3205, 24.0108)">
<path transform="scale(0.0040, -0.0040)" d="M212 138c59 0 113 -31 113 -95c0 -71 -52 -120 -99 -148c-34 -21 -73 -33 -113 -33c-59 0 -113 31 -113 95c0 71 53 120 100 148c34 21 72 33 112 33z" fill="currentColor"/>
</g>
<g transform="translate(15.6826, 34.0108)">
<rect x="-0.0757" y="-0.3287" width="0.1514" height="4.1469" ry="0.0500" fill="currentColor"/>
</g>
<g transform="translate(125.2070, 26.0108)">
<path transform="scale(0.0040, -0.0040)" d="M212 138c59 0 113 -31 113 -95c0 -71 -52 -120 -99 -148c-34 -21 -73 -33 -113 -33c-59 0 -113 31 -113 95c0 71 53 120 100 148c34 21 72 33 112 33z" fill="currentColor"/>
</g>
<g transform="translate(119.4263, 26.5108)">
<path transform="scale(0.0040, -0.0040)" d="M198 -329c-12 0 -21 9 -21 21v138l-79 -30v-154c0 -12 -9 -21 -21 -21s-21 9 -21 21v138l-22 -8c-3 -1 -6 -2 -9 -2c-13 0 -25 11 -25 25v54c0 10 6 20 16 24l40 15v155l-22 -9c-3 -1 -6 -1 -9 -1c-13 0 -25 11 -25 25v54c0 10 6 19 16 23l40 15v154c0 12 9 21 21 21
s21 -9 21 -21v-138l79 30v154c0 12 9 21 21 21s21 -9 21 -21v-138l22 8c3 1 6 2 9 2c13 0 25 -11 25 -25v-54c0 -10 -6 -20 -16 -24l-40 -15v-155l22 9c3 1 6 1 9 1c13 0 25 -11 25 -25v-54c0 -10 -6 -19 -16 -23l-40 -15v-154c0 -12 -9 -21 -21 -21zM98 62v-154l79 30v154z
" fill="currentColor"/>
</g>
<g transform="translate(122.1014, 25.0108)">
<rect x="-0.0757" y="-2.8274" width="0.1514" height="4.1561" ry="0.0500" fill="currentColor"/>
</g>
<g transform="translate(120.8763, 26.5108)">
<path transform="scale(0.0040, -0.0040)" d="M212 138c59 0 113 -31 113 -95c0 -71 -52 -120 -99 -148c-34 -21 -73 -33 -113 -33c-59 0 -113 31 -113 95c0 71 53 120 100 148c34 21 72 33 112 33z" fill="currentColor"/>
</g>
<g transform="translate(118.5768, 34.0108)">
<rect x="-0.0757" y="-2.8182" width="0.1514" height="6.1469" ry="0.0500" fill="currentColor"/>
</g>
<g transform="translate(125.2070, 25.0108)">
<path transform="scale(0.0040, -0.0040)" d="M212 138c59 0 113 -31 113 -95c0 -71 -52 -120 -99 -148c-34 -21 -73 -33 -113 -33c-59 0 -113 31 -113 95c0 71 53 120 100 148c34 21 72 33 112 33z" fill="currentColor"/>
</g>
<g transform="translate(118.5768, 25.0108)">
<rect x="-0.0757" y="-3.2546" width="0.1514" height="3.5833" ry="0.0500" fill="currentColor"/>
</g>
<g transform="translate(117.3516, 37.5108)">
<path transform="scale(0.0040, -0.0040)" d="M212 138c59 0 113 -31 113 -95c0 -71 -52 -120 -99 -148c-34 -21 -73 -33 -113 -33c-59 0 -113 31 -113 95c0 71 53 120 100 148c34 21 72 33 112 33z" fill="currentColor"/>
</g>
<g transform="translate(117.3516, 25.5108)">
<path transform="scale(0.0040, -0.0040)" d="M212 138c59 0 113 -31 113 -95c0 -71 -52 -120 -99 -148c-34 -21 -73 -33 -113 -33c-59 0 -113 31 -113 95c0 71 53 120 100 148c34 21 72 33 112 33z" fill="currentColor"/>
</g>
<g transform="translate(115.9022, 25.0108)">
<rect x="-0.0757" y="-3.5788" width="0.1514" height="4.4075" ry="0.0500" fill="currentColor"/>
</g>
<g transform="translate(114.6770, 26.0108)">
<path transform="scale(0.0040, -0.0040)" d="M212 138c59 0 113 -31 113 -95c0 -71 -52 -120 -99 -148c-34 -21 -73 -33 -113 -33c-59 0 -113 31 -113 95c0 71 53 120 100 148c34 21 72 33 112 33z" fill="currentColor"/>
</g>
<g transform="translate(130.7306, 34.0108)">
<rect x="-0.0757" y="-3.8182" width="0.1514" height="2.1469" ry="0.0500" fill="currentColor"/>
</g>
<g transform="translate(129.5054, 32.5108)">
<path transform="scale(0.0040, -0.0040)" d="M212 138c59 0 113 -31 113 -95c0 -71 -52 -120 -99 -148c-34 -21 -73 -33 -113 -33c-59 0 -113 31 -113 95c0 71 53 120 100 148c34 21 72 33 112 33z" fill="currentColor"/>
</g>
<g transform="translate(126.4321, 34.0108)">
<rect x="-0.0757" y="-3.8182" width="0.1514" height="5.6469" ry="0.0500" fill="currentColor"/>
</g>
<g transform="translate(125.2827, 25.0108)">
<rect x="-0.0757" y="-2.3287" width="0.1514" height="6.3287" ry="0.0500" fill="currentColor"/>
</g>
<g transform="translate(125.2070, 36.0108)">
<path transform="scale(0.0040, -0.0040)" d="M212 138c59 0 113 -31 113 -95c0 -71 -52 -120 -99 -148c-34 -21 -73 -33 -113 -33c-59 0 -113 31 -113 95c0 71 53 120 100 148c34 21 72 33 112 33z" fill="currentColor"/>
</g>
<g transform="translate(125.2070, 22.5108)">
<path transform="scale(0.0040, -0.0040)" d="M212 138c59 0 113 -31 113 -95c0 -71 -52 -120 -99 -148c-34 -21 -73 -33 -113 -33c-59 0 -113 31 -113 95c0 71 53 120 100 148c34 21 72 33 112 33z" fill="currentColor"/>
</g>
<g transform="translate(125.2070, 24.0108)">
<path transform="scale(0.0040, -0.0040)" d="M212 138c59 0 113 -31 113 -95c0 -71 -52 -120 -99 -148c-34 -21 -73 -33 -113 -33c-59 0 -113 31 -113 95c0 71 53 120 100 148c34 21 72 33 112 33z" fill="currentColor"/>
</g>
<g transform="translate(113.4775, 25.0108)">
<rect x="-0.0757" y="-3.8727" width="0.1514" height="3.7014" ry="0.0500" fill="currentColor"/>
</g>
<g transform="translate(112.2524, 34.0108)">
<path transform="scale(0.0040, -0.0040)" d="M212 138c59 0 113 -31 113 -95c0 -71 -52 -120 -99 -148c-34 -21 -73 -33 -113 -33c-59 0 -113 31 -113 95c0 71 53 120 100 148c34 21 72 33 112 33z" fill="currentColor"/>
</g>
<g transform="translate(112.2524, 25.0108)">
<path transform="scale(0.0040, -0.0040)" d="M212 138c59 0 113 -31 113 -95c0 -71 -52 -120 -99 -148c-34 -21 -73 -33 -113 -33c-59 0 -113 31 -113 95c0 71 53 120 100 148c34 21 72 33 112 33z" fill="currentColor"/>
</g>
<g transform="translate(110.8029, 25.0108)">
<rect x="-0.0757" y="-4.1969" width="0.1514" height="3.5256" ry="0.0500" fill="currentColor"/>
</g>
<g transform="translate(109.5777, 24.5108)">
<path transform="scale(0.0040, -0.0040)" d="M212 138c59 0 113 -31 113 -95c0 -71 -52 -120 -99 -148c-34 -21 -73 -33 -113 -33c-59 0 -113 31 -113 95c0 71 53 120 100 148c34 21 72 33 112 33z" fill="currentColor"/>
</g>
<g transform="translate(113.4775, 34.0108)">
<rect x="-0.0757" y="-2.8182" width="0.1514" height="2.6469" ry="0.0500" fill="currentColor"/>
</g>
<g transform="translate(129.5055, 50.6636)">
<rect x="0.0000" y="-2.0000" width="0.2212" height="4.0582" ry="0.0000" fill="currentColor"/>
</g>
<g transform="translate(26.9845, 59.6636)">
<rect x="0.0000" y="-2.0582" width="0.2212" height="4.0582" ry="0.0000" fill="currentColor"/>
</g>
<g transform="translate(26.9845, 37.0690)">
<rect x="0.0000" y="15.6529" width="0.2212" height="4.9418" ry="0.0000" fill="currentColor"/>
</g>
<g transform="translate(84.6932, 37.0690)">
<rect x="0.0000" y="15.6529" width="0.2212" height="4.9418" ry="0.0000" fill="currentColor"/>
</g>
<g transform="translate(116.6642, 37.0690)">
<rect x="0.0000" y="15.6529" width="0.2212" height="4.9418" ry="0.0000" fill="currentColor"/>
</g>
<g transform="translate(116.6642, 59.6636)">
<rect x="0.0000" y="-2.0582" width="0.2212" height="4.0582" ry="0.0000" fill="currentColor"/>
</g>
<g transform="translate(84.6932, 59.6636)">
<rect x="0.0000" y="-2.0582" width="0.2212" height="4.0582" ry="0.0000" fill="currentColor"/>
</g>
<g transform="translate(68.3899, 50.6636)">
<rect x="0.0000" y="-2.0000" width="0.2212" height="4.0582" ry="0.0000" fill="currentColor"/>
</g>
<g transform="translate(116.6642, 50.6636)">
<rect x="0.0000" y="-2.0000" width="0.2212" height="4.0582" ry="0.0000" fill="currentColor"/>
</g>
<g transform="translate(100.6301, 50.6636)">
<rect x="0.0000" y="-2.0000" width="0.2212" height="4.0582" ry="0.0000" fill="currentColor"/>
</g>
<g transform="translate(84.6932, 50.6636)">
<rect x="0.0000" y="-2.0000" width="0.2212" height="4.0582" ry="0.0000" fill="currentColor"/>
</g>
<g transform="translate(68.3899, 59.6636)">
<rect x="0.0000" y="-2.0582" width="0.2212" height="4.0582" ry="0.0000" fill="currentColor"/>
</g>
<g transform="translate(7.1132, 52.6636)">
<line stroke-linejoin="round" stroke-linecap="round" stroke-width="0.1164" stroke="currentColor" x1="0.0582" y1="0" x2="135.0924" y2="0"/>
</g>
<g transform="translate(7.1132, 51.6636)">
<line stroke-linejoin="round" stroke-linecap="round" stroke-width="0.1164" stroke="currentColor" x1="0.0582" y1="0" x2="135.0924" y2="0"/>
</g>
<g transform="translate(7.1132, 50.6636)">
<line stroke-linejoin="round" stroke-linecap="round" stroke-width="0.1164" stroke="currentColor" x1="0.0582" y1="0" x2="135.0924" y2="0"/>
</g>
<g transform="translate(7.1132, 49.6636)">
<line stroke-linejoin="round" stroke-linecap="round" stroke-width="0.1164" stroke="currentColor" x1="0.0582" y1="0" x2="135.0924" y2="0"/>
</g>
<g transform="translate(7.1132, 48.6636)">
<line stroke-linejoin="round" stroke-linecap="round" stroke-width="0.1164" stroke="currentColor" x1="0.0582" y1="0" x2="135.0924" y2="0"/>
</g>
<g transform="translate(68.3899, 37.0690)">
<rect x="0.0000" y="15.6529" width="0.2212" height="4.9418" ry="0.0000" fill="currentColor"/>
</g>
<g transform="translate(100.6301, 59.6636)">
<rect x="0.0000" y="-2.0582" width="0.2212" height="4.0582" ry="0.0000" fill="currentColor"/>
</g>
<g transform="translate(129.5055, 59.6636)">
<rect x="0.0000" y="-2.0582" width="0.2212" height="4.0582" ry="0.0000" fill="currentColor"/>
</g>
<g transform="translate(100.6301, 37.0690)">
<rect x="0.0000" y="15.6529" width="0.2212" height="4.9418" ry="0.0000" fill="currentColor"/>
</g>
<g transform="translate(129.5055, 37.0690)">
<rect x="0.0000" y="15.6529" width="0.2212" height="4.9418" ry="0.0000" fill="currentColor"/>
</g>
<g transform="translate(41.0672, 37.0690)">
<rect x="0.0000" y="15.6529" width="0.2212" height="4.9418" ry="0.0000" fill="currentColor"/>
</g>
<g transform="translate(141.5652, 37.0690)">
<rect x="0.0000" y="15.6529" width="0.6986" height="4.9418" ry="0.0000" fill="currentColor"/>
</g>
<g transform="translate(140.9947, 37.0690)">
<rect x="0.0000" y="15.6529" width="0.2212" height="4.9418" ry="0.0000" fill="currentColor"/>
</g>
<g transform="translate(41.0672, 59.6636)">
<rect x="0.0000" y="-2.0582" width="0.2212" height="4.0582" ry="0.0000" fill="currentColor"/>
</g>
<g transform="translate(141.5652, 59.6636)">
<rect x="0.0000" y="-2.0582" width="0.6986" height="4.0582" ry="0.0000" fill="currentColor"/>
</g>
<g transform="translate(140.9947, 59.6636)">
<rect x="0.0000" y="-2.0582" width="0.2212" height="4.0582" ry="0.0000" fill="currentColor"/>
</g>
<g transform="translate(141.5652, 50.6636)">
<rect x="0.0000" y="-2.0000" width="0.6986" height="4.0582" ry="0.0000" fill="currentColor"/>
</g>
<g transform="translate(140.9947, 50.6636)">
<rect x="0.0000" y="-2.0000" width="0.2212" height="4.0582" ry="0.0000" fill="currentColor"/>
</g>
<g transform="translate(41.0672, 50.6636)">
<rect x="0.0000" y="-2.0000" width="0.2212" height="4.0582" ry="0.0000" fill="currentColor"/>
</g>
<g transform="translate(26.9845, 50.6636)">
<rect x="0.0000" y="-2.0000" width="0.2212" height="4.0582" ry="0.0000" fill="currentColor"/>
</g>
<g transform="translate(54.8848, 37.0690)">
<rect x="0.0000" y="15.6529" width="0.2212" height="4.9418" ry="0.0000" fill="currentColor"/>
</g>
<g transform="translate(7.1132, 53.6636)">
<rect x="126.5161" y="-0.1082" width="1.9513" height="0.2164" ry="0.1082" fill="currentColor"/>
</g>
<g transform="translate(54.8848, 50.6636)">
<rect x="0.0000" y="-2.0000" width="0.2212" height="4.0582" ry="0.0000" fill="currentColor"/>
</g>
<g transform="translate(7.1132, 61.6636)">
<line stroke-linejoin="round" stroke-linecap="round" stroke-width="0.1164" stroke="currentColor" x1="0.0582" y1="0" x2="135.0924" y2="0"/>
</g>
<g transform="translate(7.1132, 60.6636)">
<line stroke-linejoin="round" stroke-linecap="round" stroke-width="0.1164" stroke="currentColor" x1="0.0582" y1="0" x2="135.0924" y2="0"/>
</g>
<g transform="translate(7.1132, 59.6636)">
<line stroke-linejoin="round" stroke-linecap="round" stroke-width="0.1164" stroke="currentColor" x1="0.0582" y1="0" x2="135.0924" y2="0"/>
</g>
<g transform="translate(7.1132, 58.6636)">
<line stroke-linejoin="round" stroke-linecap="round" stroke-width="0.1164" stroke="currentColor" x1="0.0582" y1="0" x2="135.0924" y2="0"/>
</g>
<g transform="translate(7.1132, 57.6636)">
<line stroke-linejoin="round" stroke-linecap="round" stroke-width="0.1164" stroke="currentColor" x1="0.0582" y1="0" x2="135.0924" y2="0"/>
</g>
<g transform="translate(7.1132, 62.6636)">
<rect x="130.1114" y="-0.1082" width="1.9513" height="0.2164" ry="0.1082" fill="currentColor"/>
</g>
<g transform="translate(7.1132, 63.6636)">
<rect x="130.1114" y="-0.1082" width="1.9513" height="0.2164" ry="0.1082" fill="currentColor"/>
</g>
<g transform="translate(54.8848, 59.6636)">
<rect x="0.0000" y="-2.0582" width="0.2212" height="4.0582" ry="0.0000" fill="currentColor"/>
</g>
<g transform="translate(81.9951, 61.6636)">
<path transform="scale(0.0040, -0.0040)" d="M212 138c59 0 113 -31 113 -95c0 -71 -52 -120 -99 -148c-34 -21 -73 -33 -113 -33c-59 0 -113 31 -113 95c0 71 53 120 100 148c34 21 72 33 112 33z" fill="currentColor"/>
</g>
<g transform="translate(83.2202, 59.6636)">
<rect x="-0.0757" y="-4.0000" width="0.1514" height="5.8287" ry="0.0500" fill="currentColor"/>
</g>
<g transform="translate(90.9012, 50.6636)">
<rect x="-0.0757" y="1.1713" width="0.1514" height="2.3287" ry="0.0500" fill="currentColor"/>
</g>
<g transform="translate(85.9293, 50.1636)">
<path transform="scale(0.0040, -0.0040)" d="M212 138c59 0 113 -31 113 -95c0 -71 -52 -120 -99 -148c-34 -21 -73 -33 -113 -33c-59 0 -113 31 -113 95c0 71 53 120 100 148c34 21 72 33 112 33z" fill="currentColor"/>
</g>
<g transform="translate(85.9293, 60.1636)">
<path transform="scale(0.0040, -0.0040)" d="M212 138c59 0 113 -31 113 -95c0 -71 -52 -120 -99 -148c-34 -21 -73 -33 -113 -33c-59 0 -113 31 -113 95c0 71 53 120 100 148c34 21 72 33 112 33z" fill="currentColor"/>
</g>
<g transform="translate(90.8255, 59.1636)">
<path transform="scale(0.0040, -0.0040)" d="M212 138c59 0 113 -31 113 -95c0 -71 -52 -120 -99 -148c-34 -21 -73 -33 -113 -33c-59 0 -113 31 -113 95c0 71 53 120 100 148c34 21 72 33 112 33z" fill="currentColor"/>
</g>
<g transform="translate(86.0050, 50.6636)">
<rect x="-0.0757" y="-0.3287" width="0.1514" height="3.8287" ry="0.0500" fill="currentColor"/>
</g>
<g transform="translate(81.0221, 59.6636)">
<rect x="-0.0757" y="-4.0000" width="0.1514" height="4.8287" ry="0.0500" fill="currentColor"/>
</g>
<g transform="translate(79.7970, 60.6636)">
<path transform="scale(0.0040, -0.0040)" d="M212 138c59 0 113 -31 113 -95c0 -71 -52 -120 -99 -148c-34 -21 -73 -33 -113 -33c-59 0 -113 31 -113 95c0 71 53 120 100 148c34 21 72 33 112 33z" fill="currentColor"/>
</g>
<g transform="translate(78.8241, 59.6636)">
<rect x="-0.0757" y="-4.0000" width="0.1514" height="3.8287" ry="0.0500" fill="currentColor"/>
</g>
<g transform="translate(77.5989, 59.6636)">
<path transform="scale(0.0040, -0.0040)" d="M212 138c59 0 113 -31 113 -95c0 -71 -52 -120 -99 -148c-34 -21 -73 -33 -113 -33c-59 0 -113 31 -113 95c0 71 53 120 100 148c34 21 72 33 112 33z" fill="currentColor"/>
</g>
<g transform="translate(88.6274, 58.1636)">
<path transform="scale(0.0040, -0.0040)" d="M212 138c59 0 113 -31 113 -95c0 -71 -52 -120 -99 -148c-34 -21 -73 -33 -113 -33c-59 0 -113 31 -113 95c0 71 53 120 100 148c34 21 72 33 112 33z" fill="currentColor"/>
</g>
<g transform="translate(88.7031, 59.6636)">
<rect x="-0.0757" y="-1.3287" width="0.1514" height="5.1469" ry="0.0500" fill="currentColor"/>
</g>
<g transform="translate(85.9293, 59.1636)">
<path transform="scale(0.0040, -0.0040)" d="M212 138c59 0 113 -31 113 -95c0 -71 -52 -120 -99 -148c-34 -21 -73 -33 -113 -33c-59 0 -113 31 -113 95c0 71 53 120 100 148c34 21 72 33 112 33z" fill="currentColor"/>
</g>
<g transform="translate(86.0050, 59.6636)">
<rect x="-0.0757" y="-0.3287" width="0.1514" height="4.1469" ry="0.0500" fill="currentColor"/>
</g>
<g transform="translate(90.8255, 51.6636)">
<path transform="scale(0.0040, -0.0040)" d="M212 138c59 0 113 -31 113 -95c0 -71 -52 -120 -99 -148c-34 -21 -73 -33 -113 -33c-59 0 -113 31 -113 95c0 71 53 120 100 148c34 21 72 33 112 33z" fill="currentColor"/>
</g>
<g transform="translate(90.8255, 60.1636)">
<path transform="scale(0.0040, -0.0040)" d="M212 138c59 0 113 -31 113 -95c0 -71 -52 -120 -99 -148c-34 -21 -73 -33 -113 -33c-59 0 -113 31 -113 95c0 71 53 120 100 148c34 21 72 33 112 33z" fill="currentColor"/>
</g>
<g transform="translate(64.9952, 59.6636)">
<rect x="-0.0757" y="-0.3287" width="0.1514" height="4.0787" ry="0.0500" fill="currentColor"/>
</g>
<g transform="translate(65.0709, 63.3636)">
<path transform="scale(0.0040, -0.0040)" d="M0 0h-19v250h19v-250zM0 0v250c95 59 220 149 220 259c0 56 -16 111 -41 161c-3 18 12 30 26 30c8 0 17 -4 22 -13c25 -56 40 -116 40 -178c0 -203 -267 -306 -267 -509z" fill="currentColor"/>
</g>
<g transform="translate(64.9952, 50.6636)">
<rect x="-0.0757" y="-2.3287" width="0.1514" height="4.5159" ry="0.0500" fill="currentColor"/>
</g>
<g transform="translate(69.6546, 49.6636)">
<path transform="scale(0.0040, -0.0040)" d="M212 138c59 0 113 -31 113 -95c0 -71 -52 -120 -99 -148c-34 -21 -73 -33 -113 -33c-59 0 -113 31 -113 95c0 71 53 120 100 148c34 21 72 33 112 33z" fill="currentColor"/>
</g>
<g transform="translate(69.6546, 58.1636)">
<path transform="scale(0.0040, -0.0040)" d="M212 138c59 0 113 -31 113 -95c0 -71 -52 -120 -99 -148c-34 -21 -73 -33 -113 -33c-59 0 -113 31 -113 95c0 71 53 120 100 148c34 21 72 33 112 33z" fill="currentColor"/>
</g>
<g transform="translate(69.7303, 50.6636)">
<rect x="-0.0757" y="-0.8287" width="0.1514" height="3.3287" ry="0.0500" fill="currentColor"/>
</g>
<g transform="translate(69.8060, 53.1136)">
<path transform="scale(0.0040, -0.0040)" d="M0 0h-19v250h19v-250zM0 0v250c95 59 220 149 220 259c0 56 -16 111 -41 161c-3 18 12 30 26 30c8 0 17 -4 22 -13c25 -56 40 -116 40 -178c0 -203 -267 -306 -267 -509z" fill="currentColor"/>
</g>
<g transform="translate(61.0742, 49.1636)">
<path transform="scale(0.0040, -0.0040)" d="M212 138c59 0 113 -31 113 -95c0 -71 -52 -120 -99 -148c-34 -21 -73 -33 -113 -33c-59 0 -113 31 -113 95c0 71 53 120 100 148c34 21 72 33 112 33z" fill="currentColor"/>
</g>
<g transform="translate(16.7585, 63.0234)">
<polygon stroke-linejoin="round" stroke-linecap="round" stroke-width="0.1000" fill="currentColor" stroke="currentColor" points="8.0456 -0.8680 8.0456 -0.4880 0.0500 0.1900 0.0500 -0.1900"/>
</g>
<g transform="translate(12.9132, 64.1636)">
<polygon stroke-linejoin="round" stroke-linecap="round" stroke-width="0.1000" fill="currentColor" stroke="currentColor" points="11.8910 -1.1900 11.8910 -0.8100 0.0500 0.1900 0.0500 -0.1900"/>
</g>
<g transform="translate(58.3761, 50.1636)">
<path transform="scale(0.0040, -0.0040)" d="M212 138c59 0 113 -31 113 -95c0 -71 -52 -120 -99 -148c-34 -21 -73 -33 -113 -33c-59 0 -113 31 -113 95c0 71 53 120 100 148c34 21 72 33 112 33z" fill="currentColor"/>
</g>
<g transform="translate(58.4518, 50.6636)">
<rect x="-0.0757" y="-0.3287" width="0.1514" height="2.9842" ry="0.0500" fill="currentColor"/>
</g>
<g transform="translate(61.1499, 50.6636)">
<rect x="-0.0757" y="-1.3287" width="0.1514" height="3.7911" ry="0.0500" fill="currentColor"/>
</g>
<g transform="translate(64.9196, 48.1636)">
<path transform="scale(0.0040, -0.0040)" d="M212 138c59 0 113 -31 113 -95c0 -71 -52 -120 -99 -148c-34 -21 -73 -33 -113 -33c-59 0 -113 31 -113 95c0 71 53 120 100 148c34 21 72 33 112 33z" fill="currentColor"/>
</g>
<g transform="translate(64.9196, 60.1636)">
<path transform="scale(0.0040, -0.0040)" d="M212 138c59 0 113 -31 113 -95c0 -71 -52 -120 -99 -148c-34 -21 -73 -33 -113 -33c-59 0 -113 31 -113 95c0 71 53 120 100 148c34 21 72 33 112 33z" fill="currentColor"/>
</g>
<g transform="translate(64.9196, 59.1636)">
<path transform="scale(0.0040, -0.0040)" d="M212 138c59 0 113 -31 113 -95c0 -71 -52 -120 -99 -148c-34 -21 -73 -33 -113 -33c-59 0 -113 31 -113 95c0 71 53 120 100 148c34 21 72 33 112 33z" fill="currentColor"/>
</g>
<g transform="translate(75.4008, 58.1636)">
<path transform="scale(0.0040, -0.0040)" d="M212 138c59 0 113 -31 113 -95c0 -71 -52 -120 -99 -148c-34 -21 -73 -33 -113 -33c-59 0 -113 31 -113 95c0 71 53 120 100 148c34 21 72 33 112 33z" fill="currentColor"/>
</g>
<g transform="translate(74.1779, 59.6636)">
<rect x="-0.0757" y="-4.0000" width="0.1514" height="2.8287" ry="0.0500" fill="currentColor"/>
</g>
<g transform="translate(71.5027, 58.6636)">
<path transform="scale(0.0040, -0.0040)" d="M198 -329c-12 0 -21 9 -21 21v138l-79 -30v-154c0 -12 -9 -21 -21 -21s-21 9 -21 21v138l-22 -8c-3 -1 -6 -2 -9 -2c-13 0 -25 11 -25 25v54c0 10 6 20 16 24l40 15v155l-22 -9c-3 -1 -6 -1 -9 -1c-13 0 -25 11 -25 25v54c0 10 6 19 16 23l40 15v154c0 12 9 21 21 21
s21 -9 21 -21v-138l79 30v154c0 12 9 21 21 21s21 -9 21 -21v-138l22 8c3 1 6 2 9 2c13 0 25 -11 25 -25v-54c0 -10 -6 -20 -16 -24l-40 -15v-155l22 9c3 1 6 1 9 1c13 0 25 -11 25 -25v-54c0 -10 -6 -19 -16 -23l-40 -15v-154c0 -12 -9 -21 -21 -21zM98 62v-154l79 30v154z
" fill="currentColor"/>
</g>
<g transform="translate(75.4008, 51.6636)">
<path transform="scale(0.0040, -0.0040)" d="M212 138c59 0 113 -31 113 -95c0 -71 -52 -120 -99 -148c-34 -21 -73 -33 -113 -33c-59 0 -113 31 -113 95c0 71 53 120 100 148c34 21 72 33 112 33z" fill="currentColor"/>
</g>
<g transform="translate(72.9527, 58.6636)">
<path transform="scale(0.0040, -0.0040)" d="M212 138c59 0 113 -31 113 -95c0 -71 -52 -120 -99 -148c-34 -21 -73 -33 -113 -33c-59 0 -113 31 -113 95c0 71 53 120 100 148c34 21 72 33 112 33z" fill="currentColor"/>
</g>
<g transform="translate(76.6260, 50.6636)">
<rect x="-0.0757" y="-2.5000" width="0.1514" height="3.3287" ry="0.0500" fill="currentColor"/>
</g>
<g transform="translate(76.6260, 59.6636)">
<rect x="-0.0757" y="-4.0000" width="0.1514" height="2.3287" ry="0.0500" fill="currentColor"/>
</g>
<g transform="translate(70.8798, 59.6636)">
<rect x="-0.0757" y="-4.0000" width="0.1514" height="2.3287" ry="0.0500" fill="currentColor"/>
</g>
<g transform="translate(117.9860, 48.6636)">
<path transform="scale(0.0040, -0.0040)" d="M212 138c59 0 113 -31 113 -95c0 -71 -52 -120 -99 -148c-34 -21 -73 -33 -113 -33c-59 0 -113 31 -113 95c0 71 53 120 100 148c34 21 72 33 112 33z" fill="currentColor"/>
</g>
<g transform="translate(114.4538, 58.1636)">
<path transform="scale(0.0040, -0.0040)" d="M212 138c59 0 113 -31 113 -95c0 -71 -52 -120 -99 -148c-34 -21 -73 -33 -113 -33c-59 0 -113 31 -113 95c0 71 53 120 100 148c34 21 72 33 112 33z" fill="currentColor"/>
</g>
<g transform="translate(114.5295, 59.6636)">
<rect x="-0.0757" y="-1.3287" width="0.1514" height="5.1469" ry="0.0500" fill="currentColor"/>
</g>
<g transform="translate(117.9860, 58.6636)">
<path transform="scale(0.0040, -0.0040)" d="M212 138c59 0 113 -31 113 -95c0 -71 -52 -120 -99 -148c-34 -21 -73 -33 -113 -33c-59 0 -113 31 -113 95c0 71 53 120 100 148c34 21 72 33 112 33z" fill="currentColor"/>
</g>
<g transform="translate(118.0617, 50.6636)">
<rect x="-0.0757" y="-1.8287" width="0.1514" height="4.6562" ry="0.0500" fill="currentColor"/>
</g>
<g transform="translate(111.7557, 49.1636)">
<path transform="scale(0.0040, -0.0040)" d="M212 138c59 0 113 -31 113 -95c0 -71 -52 -120 -99 -148c-34 -21 -73 -33 -113 -33c-59 0 -113 31 -113 95c0 71 53 120 100 148c34 21 72 33 112 33z" fill="currentColor"/>
</g>
<g transform="translate(109.5577, 58.1636)">
<path transform="scale(0.0040, -0.0040)" d="M212 138c59 0 113 -31 113 -95c0 -71 -52 -120 -99 -148c-34 -21 -73 -33 -113 -33c-59 0 -113 31 -113 95c0 71 53 120 100 148c34 21 72 33 112 33z" fill="currentColor"/>
</g>
<g transform="translate(109.6333, 59.6636)">
<rect x="-0.0757" y="-1.3287" width="0.1514" height="5.1469" ry="0.0500" fill="currentColor"/>
</g>
<g transform="translate(111.7557, 60.1636)">
<path transform="scale(0.0040, -0.0040)" d="M212 138c59 0 113 -31 113 -95c0 -71 -52 -120 -99 -148c-34 -21 -73 -33 -113 -33c-59 0 -113 31 -113 95c0 71 53 120 100 148c34 21 72 33 112 33z" fill="currentColor"/>
</g>
<g transform="translate(111.7557, 59.1636)">
<path transform="scale(0.0040, -0.0040)" d="M212 138c59 0 113 -31 113 -95c0 -71 -52 -120 -99 -148c-34 -21 -73 -33 -113 -33c-59 0 -113 31 -113 95c0 71 53 120 100 148c34 21 72 33 112 33z" fill="currentColor"/>
</g>
<g transform="translate(111.8314, 50.6636)">
<rect x="-0.0757" y="-1.3287" width="0.1514" height="3.1469" ry="0.0500" fill="currentColor"/>
</g>
<g transform="translate(111.8314, 59.6636)">
<rect x="-0.0757" y="-0.3287" width="0.1514" height="4.1469" ry="0.0500" fill="currentColor"/>
</g>
<g transform="translate(117.9860, 52.6636)">
<polygon stroke-linejoin="round" stroke-linecap="round" stroke-width="0.1000" fill="currentColor" stroke="currentColor" points="2.2994 0.0985 2.2994 0.4785 0.0500 0.1900 0.0500 -0.1900"/>
</g>
<g transform="translate(117.9860, 53.4819)">
<polygon stroke-linejoin="round" stroke-linecap="round" stroke-width="0.1000" fill="currentColor" stroke="currentColor" points="8.0929 0.8100 8.0929 1.1900 0.0500 0.1900 0.0500 -0.1900"/>
</g>
<g transform="translate(122.3822, 51.1636)">
<path transform="scale(0.0040, -0.0040)" d="M212 138c59 0 113 -31 113 -95c0 -71 -52 -120 -99 -148c-34 -21 -73 -33 -113 -33c-59 0 -113 31 -113 95c0 71 53 120 100 148c34 21 72 33 112 33z" fill="currentColor"/>
</g>
<g transform="translate(122.4579, 50.6636)">
<rect x="-0.0757" y="0.6713" width="0.1514" height="2.6961" ry="0.0500" fill="currentColor"/>
</g>
<g transform="translate(131.7586, 47.8454)">
<polygon stroke-linejoin="round" stroke-linecap="round" stroke-width="0.1000" fill="currentColor" stroke="currentColor" points="3.4467 1.4464 3.4467 1.8264 0.0500 0.1900 0.0500 -0.1900"/>
</g>
<g transform="translate(101.9634, 62.6636)">
<polygon stroke-linejoin="round" stroke-linecap="round" stroke-width="0.1000" fill="currentColor" stroke="currentColor" points="12.5918 -0.1900 12.5918 0.1900 0.0500 0.1900 0.0500 -0.1900"/>
</g>
<g transform="translate(101.9634, 63.4819)">
<polygon stroke-linejoin="round" stroke-linecap="round" stroke-width="0.1000" fill="currentColor" stroke="currentColor" points="12.5918 -0.1900 12.5918 0.1900 0.0500 0.1900 0.0500 -0.1900"/>
</g>
<g transform="translate(101.9634, 52.4819)">
<polygon stroke-linejoin="round" stroke-linecap="round" stroke-width="0.1000" fill="currentColor" stroke="currentColor" points="9.8937 -0.1900 9.8937 0.1900 0.0500 0.1900 0.0500 -0.1900"/>
</g>
<g transform="translate(85.9293, 62.6636)">
<polygon stroke-linejoin="round" stroke-linecap="round" stroke-width="0.1000" fill="currentColor" stroke="currentColor" points="12.5918 -0.1900 12.5918 0.1900 0.0500 0.1900 0.0500 -0.1900"/>
</g>
<g transform="translate(85.9293, 63.4819)">
<polygon stroke-linejoin="round" stroke-linecap="round" stroke-width="0.1000" fill="currentColor" stroke="currentColor" points="12.5918 -0.1900 12.5918 0.1900 0.0500 0.1900 0.0500 -0.1900"/>
</g>
<g transform="translate(85.9293, 54.1636)">
<polygon stroke-linejoin="round" stroke-linecap="round" stroke-width="0.1000" fill="currentColor" stroke="currentColor" points="9.8937 -0.1900 9.8937 0.1900 0.0500 0.1900 0.0500 -0.1900"/>
</g>
<g transform="translate(70.8041, 55.6636)">
<polygon stroke-linejoin="round" stroke-linecap="round" stroke-width="0.1000" fill="currentColor" stroke="currentColor" points="12.4418 -0.1900 12.4418 0.1900 0.0500 0.1900 0.0500 -0.1900"/>
</g>
<g transform="translate(70.8041, 56.4819)">
<polygon stroke-linejoin="round" stroke-linecap="round" stroke-width="0.1000" fill="currentColor" stroke="currentColor" points="12.4418 -0.1900 12.4418 0.1900 0.0500 0.1900 0.0500 -0.1900"/>
</g>
<g transform="translate(56.1781, 52.6636)">
<polygon stroke-linejoin="round" stroke-linecap="round" stroke-width="0.1000" fill="currentColor" stroke="currentColor" points="2.2994 -0.3581 2.2994 0.0219 0.0500 0.1900 0.0500 -0.1900"/>
</g>
<g transform="translate(56.1781, 53.4819)">
<polygon stroke-linejoin="round" stroke-linecap="round" stroke-width="0.1000" fill="currentColor" stroke="currentColor" points="8.8429 -0.8264 8.8429 -0.4464 0.0500 0.1900 0.0500 -0.1900"/>
</g>
<g transform="translate(43.4912, 56.1636)">
<polygon stroke-linejoin="round" stroke-linecap="round" stroke-width="0.1000" fill="currentColor" stroke="currentColor" points="8.8429 -0.6900 8.8429 -0.3100 0.0500 0.1900 0.0500 -0.1900"/>
</g>
<g transform="translate(43.4912, 56.9819)">
<polygon stroke-linejoin="round" stroke-linecap="round" stroke-width="0.1000" fill="currentColor" stroke="currentColor" points="2.7994 -0.3502 2.7994 0.0298 0.0500 0.1900 0.0500 -0.1900"/>
</g>
<g transform="translate(29.2558, 53.3454)">
<polygon stroke-linejoin="round" stroke-linecap="round" stroke-width="0.1000" fill="currentColor" stroke="currentColor" points="2.2994 -0.3259 2.2994 0.0541 0.0500 0.1900 0.0500 -0.1900"/>
</g>
<g transform="translate(29.2558, 54.1636)">
<polygon stroke-linejoin="round" stroke-linecap="round" stroke-width="0.1000" fill="currentColor" stroke="currentColor" points="8.5929 -0.6900 8.5929 -0.3100 0.0500 0.1900 0.0500 -0.1900"/>
</g>
<g transform="translate(118.0617, 59.6636)">
<rect x="-0.0757" y="-0.8287" width="0.1514" height="3.3287" ry="0.0500" fill="currentColor"/>
</g>
<g transform="translate(120.1841, 49.6636)">
<path transform="scale(0.0040, -0.0040)" d="M212 138c59 0 113 -31 113 -95c0 -71 -52 -120 -99 -148c-34 -21 -73 -33 -113 -33c-59 0 -113 31 -113 95c0 71 53 120 100 148c34 21 72 33 112 33z" fill="currentColor"/>
</g>
<g transform="translate(120.2598, 50.6636)">
<rect x="-0.0757" y="-0.8287" width="0.1514" height="3.9261" ry="0.0500" fill="currentColor"/>
</g>
<g transform="translate(95.7973, 59.6636)">
<rect x="-0.0757" y="-0.3287" width="0.1514" height="4.1469" ry="0.0500" fill="currentColor"/>
</g>
<g transform="translate(98.4197, 58.1636)">
<path transform="scale(0.0040, -0.0040)" d="M212 138c59 0 113 -31 113 -95c0 -71 -52 -120 -99 -148c-34 -21 -73 -33 -113 -33c-59 0 -113 31 -113 95c0 71 53 120 100 148c34 21 72 33 112 33z" fill="currentColor"/>
</g>
<g transform="translate(98.4954, 59.6636)">
<rect x="-0.0757" y="-1.3287" width="0.1514" height="5.1469" ry="0.0500" fill="currentColor"/>
</g>
<g transform="translate(101.9634, 48.1636)">
<path transform="scale(0.0040, -0.0040)" d="M212 138c59 0 113 -31 113 -95c0 -71 -52 -120 -99 -148c-34 -21 -73 -33 -113 -33c-59 0 -113 31 -113 95c0 71 53 120 100 148c34 21 72 33 112 33z" fill="currentColor"/>
</g>
<g transform="translate(101.9634, 60.1636)">
<path transform="scale(0.0040, -0.0040)" d="M212 138c59 0 113 -31 113 -95c0 -71 -52 -120 -99 -148c-34 -21 -73 -33 -113 -33c-59 0 -113 31 -113 95c0 71 53 120 100 148c34 21 72 33 112 33z" fill="currentColor"/>
</g>
<g transform="translate(101.9634, 59.1636)">
<path transform="scale(0.0040, -0.0040)" d="M212 138c59 0 113 -31 113 -95c0 -71 -52 -120 -99 -148c-34 -21 -73 -33 -113 -33c-59 0 -113 31 -113 95c0 71 53 120 100 148c34 21 72 33 112 33z" fill="currentColor"/>
</g>
<g transform="translate(102.0391, 50.6636)">
<rect x="-0.0757" y="-2.3287" width="0.1514" height="4.1469" ry="0.0500" fill="currentColor"/>
</g>
<g transform="translate(93.5236, 58.1636)">
<path transform="scale(0.0040, -0.0040)" d="M212 138c59 0 113 -31 113 -95c0 -71 -52 -120 -99 -148c-34 -21 -73 -33 -113 -33c-59 0 -113 31 -113 95c0 71 53 120 100 148c34 21 72 33 112 33z" fill="currentColor"/>
</g>
<g transform="translate(93.5993, 59.6636)">
<rect x="-0.0757" y="-1.3287" width="0.1514" height="5.1469" ry="0.0500" fill="currentColor"/>
</g>
<g transform="translate(95.7217, 49.1636)">
<path transform="scale(0.0040, -0.0040)" d="M212 138c59 0 113 -31 113 -95c0 -71 -52 -120 -99 -148c-34 -21 -73 -33 -113 -33c-59 0 -113 31 -113 95c0 71 53 120 100 148c34 21 72 33 112 33z" fill="currentColor"/>
</g>
<g transform="translate(95.7217, 60.1636)">
<path transform="scale(0.0040, -0.0040)" d="M212 138c59 0 113 -31 113 -95c0 -71 -52 -120 -99 -148c-34 -21 -73 -33 -113 -33c-59 0 -113 31 -113 95c0 71 53 120 100 148c34 21 72 33 112 33z" fill="currentColor"/>
</g>
<g transform="translate(95.7217, 59.1636)">
<path transform="scale(0.0040, -0.0040)" d="M212 138c59 0 113 -31 113 -95c0 -71 -52 -120 -99 -148c-34 -21 -73 -33 -113 -33c-59 0 -113 31 -113 95c0 71 53 120 100 148c34 21 72 33 112 33z" fill="currentColor"/>
</g>
<g transform="translate(95.7973, 50.6636)">
<rect x="-0.0757" y="-1.3287" width="0.1514" height="4.8287" ry="0.0500" fill="currentColor"/>
</g>
<g transform="translate(106.8596, 60.1636)">
<path transform="scale(0.0040, -0.0040)" d="M212 138c59 0 113 -31 113 -95c0 -71 -52 -120 -99 -148c-34 -21 -73 -33 -113 -33c-59 0 -113 31 -113 95c0 71 53 120 100 148c34 21 72 33 112 33z" fill="currentColor"/>
</g>
<g transform="translate(104.6615, 58.1636)">
<path transform="scale(0.0040, -0.0040)" d="M212 138c59 0 113 -31 113 -95c0 -71 -52 -120 -99 -148c-34 -21 -73 -33 -113 -33c-59 0 -113 31 -113 95c0 71 53 120 100 148c34 21 72 33 112 33z" fill="currentColor"/>
</g>
<g transform="translate(104.7372, 59.6636)">
<rect x="-0.0757" y="-1.3287" width="0.1514" height="5.1469" ry="0.0500" fill="currentColor"/>
</g>
<g transform="translate(106.8596, 50.1636)">
<path transform="scale(0.0040, -0.0040)" d="M212 138c59 0 113 -31 113 -95c0 -71 -52 -120 -99 -148c-34 -21 -73 -33 -113 -33c-59 0 -113 31 -113 95c0 71 53 120 100 148c34 21 72 33 112 33z" fill="currentColor"/>
</g>
<g transform="translate(106.8596, 59.1636)">
<path transform="scale(0.0040, -0.0040)" d="M212 138c59 0 113 -31 113 -95c0 -71 -52 -120 -99 -148c-34 -21 -73 -33 -113 -33c-59 0 -113 31 -113 95c0 71 53 120 100 148c34 21 72 33 112 33z" fill="currentColor"/>
</g>
<g transform="translate(106.9353, 50.6636)">
<rect x="-0.0757" y="-0.3287" width="0.1514" height="2.1469" ry="0.0500" fill="currentColor"/>
</g>
<g transform="translate(106.9353, 59.6636)">
<rect x="-0.0757" y="-0.3287" width="0.1514" height="4.1469" ry="0.0500" fill="currentColor"/>
</g>
<g transform="translate(102.0391, 59.6636)">
<rect x="-0.0757" y="-0.3287" width="0.1514" height="4.1469" ry="0.0500" fill="currentColor"/>
</g>
<g transform="translate(90.9012, 59.6636)">
<rect x="-0.0757" y="-0.3287" width="0.1514" height="4.1469" ry="0.0500" fill="currentColor"/>
</g>
<g transform="translate(12.9132, 61.6636)">
<path transform="scale(0.0040, -0.0040)" d="M212 138c59 0 113 -31 113 -95c0 -71 -52 -120 -99 -148c-34 -21 -73 -33 -113 -33c-59 0 -113 31 -113 95c0 71 53 120 100 148c34 21 72 33 112 33z" fill="currentColor"/>
</g>
<g transform="translate(12.9132, 51.6636)">
<path transform="scale(0.0040, -0.0040)" d="M212 138c59 0 113 -31 113 -95c0 -71 -52 -120 -99 -148c-34 -21 -73 -33 -113 -33c-59 0 -113 31 -113 95c0 71 53 120 100 148c34 21 72 33 112 33z" fill="currentColor"/>
</g>
<g transform="translate(12.9132, 50.6636)">
<path transform="scale(0.0040, -0.0040)" d="M212 138c59 0 113 -31 113 -95c0 -71 -52 -120 -99 -148c-34 -21 -73 -33 -113 -33c-59 0 -113 31 -113 95c0 71 53 120 100 148c34 21 72 33 112 33z" fill="currentColor"/>
</g>
<g transform="translate(12.9132, 49.6636)">
<path transform="scale(0.0040, -0.0040)" d="M212 138c59 0 113 -31 113 -95c0 -71 -52 -120 -99 -148c-34 -21 -73 -33 -113 -33c-59 0 -113 31 -113 95c0 71 53 120 100 148c34 21 72 33 112 33z" fill="currentColor"/>
</g>
<g transform="translate(12.9132, 48.1636)">
<path transform="scale(0.0040, -0.0040)" d="M212 138c59 0 113 -31 113 -95c0 -71 -52 -120 -99 -148c-34 -21 -73 -33 -113 -33c-59 0 -113 31 -113 95c0 71 53 120 100 148c34 21 72 33 112 33z" fill="currentColor"/>
</g>
<g transform="translate(12.9889, 50.6636)">
<rect x="-0.0757" y="-2.3287" width="0.1514" height="6.3287" ry="0.0500" fill="currentColor"/>
</g>
<g transform="translate(12.9889, 59.6636)">
<rect x="-0.0757" y="2.1713" width="0.1514" height="2.3223" ry="0.0500" fill="currentColor"/>
</g>
<g transform="translate(138.7749, 59.6636)">
<rect x="-0.0757" y="-0.0000" width="0.1514" height="3.8287" ry="0.0500" fill="currentColor"/>
</g>
<g transform="translate(138.8506, 59.7136)">
<path transform="scale(0.0040, -0.0040)" d="M0 -250h-19v250h19c0 -197 207 -334 207 -531c0 -71 -15 -140 -41 -206c-5 -9 -14 -13 -22 -13c-14 0 -29 12 -26 30c26 60 43 124 43 189c0 102 -92 206 -161 281z" fill="currentColor"/>
</g>
<g transform="translate(24.7785, 59.6636)">
<rect x="-0.0757" y="-0.3287" width="0.1514" height="3.8350" ry="0.0500" fill="currentColor"/>
</g>
<g transform="translate(22.3304, 59.6636)">
<rect x="-0.0757" y="-0.8287" width="0.1514" height="4.5400" ry="0.0500" fill="currentColor"/>
</g>
<g transform="translate(20.8047, 58.6636)">
<path transform="scale(0.0040, -0.0040)" d="M198 -329c-12 0 -21 9 -21 21v138l-79 -30v-154c0 -12 -9 -21 -21 -21s-21 9 -21 21v138l-22 -8c-3 -1 -6 -2 -9 -2c-13 0 -25 11 -25 25v54c0 10 6 20 16 24l40 15v155l-22 -9c-3 -1 -6 -1 -9 -1c-13 0 -25 11 -25 25v54c0 10 6 19 16 23l40 15v154c0 12 9 21 21 21
s21 -9 21 -21v-138l79 30v154c0 12 9 21 21 21s21 -9 21 -21v-138l22 8c3 1 6 2 9 2c13 0 25 -11 25 -25v-54c0 -10 -6 -20 -16 -24l-40 -15v-155l22 9c3 1 6 1 9 1c13 0 25 -11 25 -25v-54c0 -10 -6 -19 -16 -23l-40 -15v-154c0 -12 -9 -21 -21 -21zM98 62v-154l79 30v154z
" fill="currentColor"/>
</g>
<g transform="translate(24.7028, 59.1636)">
<path transform="scale(0.0040, -0.0040)" d="M212 138c59 0 113 -31 113 -95c0 -71 -52 -120 -99 -148c-34 -21 -73 -33 -113 -33c-59 0 -113 31 -113 95c0 71 53 120 100 148c34 21 72 33 112 33z" fill="currentColor"/>
</g>
<g transform="translate(29.2558, 49.6636)">
<path transform="scale(0.0040, -0.0040)" d="M212 138c59 0 113 -31 113 -95c0 -71 -52 -120 -99 -148c-34 -21 -73 -33 -113 -33c-59 0 -113 31 -113 95c0 71 53 120 100 148c34 21 72 33 112 33z" fill="currentColor"/>
</g>
<g transform="translate(29.2558, 59.6636)">
<path transform="scale(0.0040, -0.0040)" d="M212 138c59 0 113 -31 113 -95c0 -71 -52 -120 -99 -148c-34 -21 -73 -33 -113 -33c-59 0 -113 31 -113 95c0 71 53 120 100 148c34 21 72 33 112 33z" fill="currentColor"/>
</g>
<g transform="translate(29.2558, 58.6636)">
<path transform="scale(0.0040, -0.0040)" d="M212 138c59 0 113 -31 113 -95c0 -71 -52 -120 -99 -148c-34 -21 -73 -33 -113 -33c-59 0 -113 31 -113 95c0 71 53 120 100 148c34 21 72 33 112 33z" fill="currentColor"/>
</g>
<g transform="translate(29.3314, 50.6636)">
<rect x="-0.0757" y="-0.8287" width="0.1514" height="4.3243" ry="0.0500" fill="currentColor"/>
</g>
<g transform="translate(16.7585, 57.1636)">
<path transform="scale(0.0040, -0.0040)" d="M212 138c59 0 113 -31 113 -95c0 -71 -52 -120 -99 -148c-34 -21 -73 -33 -113 -33c-59 0 -113 31 -113 95c0 71 53 120 100 148c34 21 72 33 112 33z" fill="currentColor"/>
</g>
<g transform="translate(16.8342, 59.6636)">
<rect x="-0.0757" y="-2.3287" width="0.1514" height="6.5003" ry="0.0500" fill="currentColor"/>
</g>
<g transform="translate(18.9566, 58.1636)">
<path transform="scale(0.0040, -0.0040)" d="M212 138c59 0 113 -31 113 -95c0 -71 -52 -120 -99 -148c-34 -21 -73 -33 -113 -33c-59 0 -113 31 -113 95c0 71 53 120 100 148c34 21 72 33 112 33z" fill="currentColor"/>
</g>
<g transform="translate(19.0323, 59.6636)">
<rect x="-0.0757" y="-1.3287" width="0.1514" height="5.3162" ry="0.0500" fill="currentColor"/>
</g>
<g transform="translate(137.5498, 63.6636)">
<path transform="scale(0.0040, -0.0040)" d="M212 138c59 0 113 -31 113 -95c0 -71 -52 -120 -99 -148c-34 -21 -73 -33 -113 -33c-59 0 -113 31 -113 95c0 71 53 120 100 148c34 21 72 33 112 33z" fill="currentColor"/>
</g>
<g transform="translate(22.2547, 50.6636)">
<path transform="scale(0.0040, -0.0040)" d="M67 -250l118 326c-33 -12 -66 -22 -101 -22c-46 0 -87 34 -87 79c0 40 33 72 73 72c25 0 49 -14 57 -37c10 -27 4 -59 33 -59c14 0 50 42 56 55c7 14 28 14 34 0l-119 -414c-9 -8 -21 -12 -32 -12s-23 4 -32 12z" fill="currentColor"/>
</g>
<g transform="translate(22.2547, 58.6636)">
<path transform="scale(0.0040, -0.0040)" d="M212 138c59 0 113 -31 113 -95c0 -71 -52 -120 -99 -148c-34 -21 -73 -33 -113 -33c-59 0 -113 31 -113 95c0 71 53 120 100 148c34 21 72 33 112 33z" fill="currentColor"/>
</g>
<g transform="translate(6.2596, 47.5710)">
<text font-family="serif" font-size="1.7463" text-anchor="start" fill="currentColor">
<tspan>9</tspan>
</text>
</g>
<g transform="translate(125.9775, 50.6636)">
<path transform="scale(0.0040, -0.0040)" d="M212 138c59 0 113 -31 113 -95c0 -71 -52 -120 -99 -148c-34 -21 -73 -33 -113 -33c-59 0 -113 31 -113 95c0 71 53 120 100 148c34 21 72 33 112 33z" fill="currentColor"/>
</g>
<g transform="translate(125.9775, 58.1636)">
<path transform="scale(0.0040, -0.0040)" d="M212 138c59 0 113 -31 113 -95c0 -71 -52 -120 -99 -148c-34 -21 -73 -33 -113 -33c-59 0 -113 31 -113 95c0 71 53 120 100 148c34 21 72 33 112 33z" fill="currentColor"/>
</g>
<g transform="translate(126.0532, 50.6636)">
<rect x="-0.0757" y="0.1713" width="0.1514" height="3.6376" ry="0.0500" fill="currentColor"/>
</g>
<g transform="translate(126.0532, 59.6636)">
<rect x="-0.0757" y="-1.3287" width="0.1514" height="3.3287" ry="0.0500" fill="currentColor"/>
</g>
<g transform="translate(6.7269, 55.1636)">
<path transform="scale(0.0040, -0.0040)" d="M-189 -1146c0 267 108 528 108 780c0 135 -33 261 -129 360c-3 3 -3 3 -3 6s0 3 3 6c96 99 129 225 129 360c0 252 -108 513 -108 780c0 189 45 366 177 501c15 15 39 -9 24 -24c-99 -99 -129 -225 -129 -360c0 -249 102 -504 102 -765c0 -186 -45 -363 -174 -498
c129 -135 174 -312 174 -498c0 -261 -102 -516 -102 -765c0 -135 30 -261 129 -360c15 -15 -9 -39 -24 -24c-132 135 -177 312 -177 501z" fill="currentColor"/>
</g>
<g transform="translate(7.0269, 55.1636)">
<rect x="0.0000" y="-6.5582" width="0.1863" height="13.1164" ry="0.0582" fill="currentColor"/>
</g>
<g transform="translate(11.4102, 47.2927)">
<g>
<path transform="scale(0.0025, -0.0025)" d="M129 149h7c36 0 74 -13 111 -40c19 -14 40 -21 59 -21c22 0 40 10 46 31c2 7 7 11 13 11c7 0 15 -5 15 -14v-5c-19 -71 -84 -111 -146 -111c-38 0 -75 15 -101 47c-12 15 -28 22 -44 22c-29 0 -57 -21 -60 -56c-1 -9 -7 -13 -14 -13s-15 5 -15 14c0 173 233 163 233 341
c0 56 -14 116 -62 116c-33 0 -66 -15 -66 -44c0 -24 31 -37 31 -61c0 -34 -27 -61 -61 -61s-61 27 -61 61c0 78 74 134 157 134c98 0 191 -55 191 -145c0 -144 -135 -156 -233 -206z" fill="currentColor"/>

<path transform="translate(0.9389, 0.0000) scale(0.0025, -0.0025)" d="M0 51c0 28 23 51 51 51s51 -23 51 -51s-23 -51 -51 -51s-51 23 -51 51z" fill="currentColor"/>
</g>
</g>
<g transform="translate(10.5965, 45.5123)">
<line stroke-linejoin="round" stroke-linecap="round" stroke-width="0.1863" stroke="currentColor" x1="16.4812" y1="-0.0000" x2="16.4812" y2="-0.0000"/>
</g>
<g transform="translate(10.5965, 45.5123)">
<line stroke-linejoin="round" stroke-linecap="round" stroke-width="0.1863" stroke="currentColor" x1="-0.0931" y1="-0.0000" x2="-0.0931" y2="2.0000"/>
</g>
<g transform="translate(10.5965, 45.5123)">
<line stroke-linejoin="round" stroke-linecap="round" stroke-width="0.1863" stroke="currentColor" x1="-0.0931" y1="-0.0000" x2="16.4812" y2="-0.0000"/>
</g>
<g transform="translate(7.9132, 51.6636)">
<path transform="scale(0.0040, -0.0040)" d="M379 264c3 0 7 1 10 1c157 0 258 -129 258 -263c0 -77 -33 -155 -108 -211c-22 -16 -46 -29 -72 -37c3 -33 4 -66 4 -99c0 -21 0 -41 -1 -62c-7 -121 -91 -229 -211 -229c-108 0 -196 88 -196 197c0 58 54 103 113 103c54 0 95 -47 95 -103c0 -52 -43 -95 -95 -95
c-9 0 -18 1 -27 4c25 -37 66 -61 113 -61c95 0 156 93 162 191c1 19 2 38 2 57c0 29 -1 58 -3 87c-29 -5 -58 -8 -88 -8c-189 0 -333 173 -333 376c0 177 129 308 244 443c-20 62 -40 124 -48 189c-7 52 -7 105 -7 158c0 114 54 221 147 288c8 6 18 5 25 -1
c72 -83 135 -243 135 -356c0 -142 -84 -255 -176 -364c21 -68 40 -136 57 -205zM463 -201c65 24 110 94 110 161c0 88 -64 175 -167 188c24 -114 44 -227 57 -349zM77 25c0 -133 128 -243 261 -243c27 0 55 1 81 5c-13 126 -35 244 -60 362c-79 -8 -124 -60 -124 -118
c0 -43 25 -88 80 -120c5 -5 7 -11 7 -17c0 -12 -10 -23 -23 -23c-3 0 -7 1 -10 2c-81 43 -118 115 -118 186c0 89 60 177 163 200c-14 57 -30 113 -47 169c-105 -122 -210 -243 -210 -403zM242 784c0 -71 21 -130 39 -188c78 97 142 199 142 324c0 51 -4 72 -20 118
c-99 -46 -161 -145 -161 -254z" fill="currentColor"/>
</g>
<g transform="translate(7.9132, 58.6636)">
<path transform="scale(0.0040, -0.0040)" d="M558 -125c0 28 22 50 50 50s50 -22 50 -50s-22 -50 -50 -50s-50 22 -50 50zM558 125c0 28 22 50 50 50s50 -22 50 -50s-22 -50 -50 -50s-50 22 -50 50zM231 265c173 0 294 -88 294 -252c0 -263 -263 -415 -515 -523c-3 -3 -7 -5 -10 -5c-8 0 -15 7 -15 15c0 3 2 7 5 10
c200 118 407 264 407 491c0 119 -59 234 -166 234c-70 0 -119 -51 -142 -120c8 2 15 4 23 4c55 0 100 -45 100 -100c0 -58 -44 -106 -100 -106c-60 0 -112 47 -112 106c0 133 101 246 231 246z" fill="currentColor"/>
</g>
<g transform="translate(133.9545, 53.6636)">
<path transform="scale(0.0040, -0.0040)" d="M212 138c59 0 113 -31 113 -95c0 -71 -52 -120 -99 -148c-34 -21 -73 -33 -113 -33c-59 0 -113 31 -113 95c0 71 53 120 100 148c34 21 72 33 112 33z" fill="currentColor"/>
</g>
<g transform="translate(135.1796, 50.6636)">
<rect x="-0.0757" y="-1.2172" width="0.1514" height="4.0459" ry="0.0500" fill="currentColor"/>
</g>
<g transform="translate(137.5498, 50.6636)">
<path transform="scale(0.0040, -0.0040)" d="M67 -250l118 326c-33 -12 -66 -22 -101 -22c-46 0 -87 34 -87 79c0 40 33 72 73 72c25 0 49 -14 57 -37c10 -27 4 -59 33 -59c14 0 50 42 56 55c7 14 28 14 34 0l-119 -414c-9 -8 -21 -12 -32 -12s-23 4 -32 12z" fill="currentColor"/>
</g>
<g transform="translate(126.1289, 61.6136)">
<path transform="scale(0.0040, -0.0040)" d="M0 0h-19v250h19v-250zM0 0v250c95 59 220 149 220 259c0 56 -16 111 -41 161c-3 18 12 30 26 30c8 0 17 -4 22 -13c25 -56 40 -116 40 -178c0 -203 -267 -306 -267 -509z" fill="currentColor"/>
</g>
<g transform="translate(130.6091, 50.1636)">
<path transform="scale(0.0040, -0.0040)" d="M212 138c59 0 113 -31 113 -95c0 -71 -52 -120 -99 -148c-34 -21 -73 -33 -113 -33c-59 0 -113 31 -113 95c0 71 53 120 100 148c34 21 72 33 112 33z" fill="currentColor"/>
</g>
<g transform="translate(130.6091, 60.1636)">
<path transform="scale(0.0040, -0.0040)" d="M212 138c59 0 113 -31 113 -95c0 -71 -52 -120 -99 -148c-34 -21 -73 -33 -113 -33c-59 0 -113 31 -113 95c0 71 53 120 100 148c34 21 72 33 112 33z" fill="currentColor"/>
</g>
<g transform="translate(131.8343, 50.6636)">
<rect x="-0.0757" y="-2.7828" width="0.1514" height="2.1115" ry="0.0500" fill="currentColor"/>
</g>
<g transform="translate(131.8343, 59.6636)">
<rect x="-0.0757" y="-3.0000" width="0.1514" height="3.3287" ry="0.0500" fill="currentColor"/>
</g>
<g transform="translate(46.2649, 59.6636)">
<rect x="-0.0757" y="-3.6560" width="0.1514" height="4.4846" ry="0.0500" fill="currentColor"/>
</g>
<g transform="translate(45.0398, 60.6636)">
<path transform="scale(0.0040, -0.0040)" d="M212 138c59 0 113 -31 113 -95c0 -71 -52 -120 -99 -148c-34 -21 -73 -33 -113 -33c-59 0 -113 31 -113 95c0 71 53 120 100 148c34 21 72 33 112 33z" fill="currentColor"/>
</g>
<g transform="translate(47.7379, 49.6636)">
<path transform="scale(0.0040, -0.0040)" d="M212 138c59 0 113 -31 113 -95c0 -71 -52 -120 -99 -148c-34 -21 -73 -33 -113 -33c-59 0 -113 31 -113 95c0 71 53 120 100 148c34 21 72 33 112 33z" fill="currentColor"/>
</g>
<g transform="translate(48.3883, 48.3554)">
<path transform="scale(0.0040, -0.0040)" d="M-292 228c0 -20 16 -28 37 -28c39 0 69 13 100 27l4 20c-22 17 -49 29 -79 29s-62 -15 -62 -48zM-26 105c0 -62 -46 -115 -98 -115c-39 0 -56 43 -56 90c0 14 1 28 4 41l15 74c-31 -13 -61 -24 -100 -24c-36 0 -61 17 -61 51c0 52 49 83 98 83c30 0 57 -9 80 -24l46 229
c6 -3 13 -5 20 -5c22 0 48 16 68 35l-53 -264l63 35c26 14 52 21 74 21c28 0 51 -10 63 -27c18 18 44 27 68 27c37 0 71 -22 71 -72c0 -46 -27 -91 -66 -91c-26 0 -39 21 -39 48c0 42 30 65 61 65h2c-8 14 -22 21 -37 21c-23 0 -48 -16 -53 -41l-54 -271
c-11 7 -25 11 -39 11s-29 -4 -43 -11l54 271c0 2 1 4 1 6c0 15 -12 25 -28 25c-7 0 -16 -2 -24 -6l-81 -45l-5 -27c26 -32 49 -67 49 -110zM-88 39c22 0 32 34 32 61c0 28 -11 52 -27 74l-5 -23c-4 -19 -14 -59 -14 -86c0 -16 3 -26 14 -26z" fill="currentColor"/>
</g>
<g transform="translate(47.7379, 58.1636)">
<path transform="scale(0.0040, -0.0040)" d="M212 138c59 0 113 -31 113 -95c0 -71 -52 -120 -99 -148c-34 -21 -73 -33 -113 -33c-59 0 -113 31 -113 95c0 71 53 120 100 148c34 21 72 33 112 33z" fill="currentColor"/>
</g>
<g transform="translate(47.8136, 50.6636)">
<rect x="-0.0757" y="-0.8287" width="0.1514" height="3.3287" ry="0.0500" fill="currentColor"/>
</g>
<g transform="translate(42.3417, 48.1636)">
<path transform="scale(0.0040, -0.0040)" d="M212 138c59 0 113 -31 113 -95c0 -71 -52 -120 -99 -148c-34 -21 -73 -33 -113 -33c-59 0 -113 31 -113 95c0 71 53 120 100 148c34 21 72 33 112 33z" fill="currentColor"/>
</g>
<g transform="translate(42.3417, 61.6636)">
<path transform="scale(0.0040, -0.0040)" d="M212 138c59 0 113 -31 113 -95c0 -71 -52 -120 -99 -148c-34 -21 -73 -33 -113 -33c-59 0 -113 31 -113 95c0 71 53 120 100 148c34 21 72 33 112 33z" fill="currentColor"/>
</g>
<g transform="translate(42.4174, 50.6636)">
<rect x="-0.0757" y="-2.3287" width="0.1514" height="3.3287" ry="0.0500" fill="currentColor"/>
</g>
<g transform="translate(42.4931, 51.6136)">
<path transform="scale(0.0040, -0.0040)" d="M0 0h-19v250h19v-250zM0 0v250c95 59 220 149 220 259c0 56 -16 111 -41 161c-3 18 12 30 26 30c8 0 17 -4 22 -13c25 -56 40 -116 40 -178c0 -203 -267 -306 -267 -509z" fill="currentColor"/>
</g>
<g transform="translate(56.2537, 59.6636)">
<rect x="-0.0757" y="-1.3287" width="0.1514" height="4.9953" ry="0.0500" fill="currentColor"/>
</g>
<g transform="translate(52.3084, 59.6636)">
<rect x="-0.0757" y="-3.9957" width="0.1514" height="4.8244" ry="0.0500" fill="currentColor"/>
</g>
<g transform="translate(48.9630, 59.6636)">
<rect x="-0.0757" y="-3.8077" width="0.1514" height="2.1363" ry="0.0500" fill="currentColor"/>
</g>
<g transform="translate(51.0832, 60.6636)">
<path transform="scale(0.0040, -0.0040)" d="M212 138c59 0 113 -31 113 -95c0 -71 -52 -120 -99 -148c-34 -21 -73 -33 -113 -33c-59 0 -113 31 -113 95c0 71 53 120 100 148c34 21 72 33 112 33z" fill="currentColor"/>
</g>
<g transform="translate(43.5669, 59.6636)">
<rect x="-0.0757" y="-3.5043" width="0.1514" height="5.3329" ry="0.0500" fill="currentColor"/>
</g>
<g transform="translate(56.1781, 49.1636)">
<path transform="scale(0.0040, -0.0040)" d="M212 138c59 0 113 -31 113 -95c0 -71 -52 -120 -99 -148c-34 -21 -73 -33 -113 -33c-59 0 -113 31 -113 95c0 71 53 120 100 148c34 21 72 33 112 33z" fill="currentColor"/>
</g>
<g transform="translate(56.1781, 60.1636)">
<path transform="scale(0.0040, -0.0040)" d="M212 138c59 0 113 -31 113 -95c0 -71 -52 -120 -99 -148c-34 -21 -73 -33 -113 -33c-59 0 -113 31 -113 95c0 71 53 120 100 148c34 21 72 33 112 33z" fill="currentColor"/>
</g>
<g transform="translate(56.1781, 58.1636)">
<path transform="scale(0.0040, -0.0040)" d="M212 138c59 0 113 -31 113 -95c0 -71 -52 -120 -99 -148c-34 -21 -73 -33 -113 -33c-59 0 -113 31 -113 95c0 71 53 120 100 148c34 21 72 33 112 33z" fill="currentColor"/>
</g>
<g transform="translate(56.2537, 50.6636)">
<rect x="-0.0757" y="-1.3287" width="0.1514" height="4.1415" ry="0.0500" fill="currentColor"/>
</g>
<g transform="translate(34.2276, 50.6636)">
<rect x="-0.0757" y="-0.8287" width="0.1514" height="4.0410" ry="0.0500" fill="currentColor"/>
</g>
<g transform="translate(34.1519, 49.6636)">
<path transform="scale(0.0040, -0.0040)" d="M212 138c59 0 113 -31 113 -95c0 -71 -52 -120 -99 -148c-34 -21 -73 -33 -113 -33c-59 0 -113 31 -113 95c0 71 53 120 100 148c34 21 72 33 112 33z" fill="currentColor"/>
</g>
<g transform="translate(27.8058, 58.6636)">
<path transform="scale(0.0040, -0.0040)" d="M198 -329c-12 0 -21 9 -21 21v138l-79 -30v-154c0 -12 -9 -21 -21 -21s-21 9 -21 21v138l-22 -8c-3 -1 -6 -2 -9 -2c-13 0 -25 11 -25 25v54c0 10 6 20 16 24l40 15v155l-22 -9c-3 -1 -6 -1 -9 -1c-13 0 -25 11 -25 25v54c0 10 6 19 16 23l40 15v154c0 12 9 21 21 21
s21 -9 21 -21v-138l79 30v154c0 12 9 21 21 21s21 -9 21 -21v-138l22 8c3 1 6 2 9 2c13 0 25 -11 25 -25v-54c0 -10 -6 -20 -16 -24l-40 -15v-155l22 9c3 1 6 1 9 1c13 0 25 -11 25 -25v-54c0 -10 -6 -19 -16 -23l-40 -15v-154c0 -12 -9 -21 -21 -21zM98 62v-154l79 30v154z
" fill="currentColor"/>
</g>
<g transform="translate(31.5295, 50.6636)">
<rect x="-0.0757" y="0.6713" width="0.1514" height="2.6971" ry="0.0500" fill="currentColor"/>
</g>
<g transform="translate(31.4538, 51.1636)">
<path transform="scale(0.0040, -0.0040)" d="M212 138c59 0 113 -31 113 -95c0 -71 -52 -120 -99 -148c-34 -21 -73 -33 -113 -33c-59 0 -113 31 -113 95c0 71 53 120 100 148c34 21 72 33 112 33z" fill="currentColor"/>
</g>
<g transform="translate(29.3314, 59.6636)">
<rect x="-0.0757" y="-0.8287" width="0.1514" height="4.1620" ry="0.0500" fill="currentColor"/>
</g>
<g transform="translate(36.2973, 48.6636)">
<path transform="scale(0.0040, -0.0040)" d="M198 -329c-12 0 -21 9 -21 21v138l-79 -30v-154c0 -12 -9 -21 -21 -21s-21 9 -21 21v138l-22 -8c-3 -1 -6 -2 -9 -2c-13 0 -25 11 -25 25v54c0 10 6 20 16 24l40 15v155l-22 -9c-3 -1 -6 -1 -9 -1c-13 0 -25 11 -25 25v54c0 10 6 19 16 23l40 15v154c0 12 9 21 21 21
s21 -9 21 -21v-138l79 30v154c0 12 9 21 21 21s21 -9 21 -21v-138l22 8c3 1 6 2 9 2c13 0 25 -11 25 -25v-54c0 -10 -6 -20 -16 -24l-40 -15v-155l22 9c3 1 6 1 9 1c13 0 25 -11 25 -25v-54c0 -10 -6 -19 -16 -23l-40 -15v-154c0 -12 -9 -21 -21 -21zM98 62v-154l79 30v154z
" fill="currentColor"/>
</g>
<g transform="translate(37.8229, 50.6636)">
<rect x="-0.0757" y="-1.8287" width="0.1514" height="4.8330" ry="0.0500" fill="currentColor"/>
</g>
<g transform="translate(37.7473, 59.6636)">
<path transform="scale(0.0040, -0.0040)" d="M67 -250l118 326c-33 -12 -66 -22 -101 -22c-46 0 -87 34 -87 79c0 40 33 72 73 72c25 0 49 -14 57 -37c10 -27 4 -59 33 -59c14 0 50 42 56 55c7 14 28 14 34 0l-119 -414c-9 -8 -21 -12 -32 -12s-23 4 -32 12z" fill="currentColor"/>
</g>
<g transform="translate(37.7473, 48.6636)">
<path transform="scale(0.0040, -0.0040)" d="M212 138c59 0 113 -31 113 -95c0 -71 -52 -120 -99 -148c-34 -21 -73 -33 -113 -33c-59 0 -113 31 -113 95c0 71 53 120 100 148c34 21 72 33 112 33z" fill="currentColor"/>
</g>
<g transform="translate(49.3371, 206.5243)">
<a xlink:href="https://lilypond.org/">
<rect x="0.0000" y="-0.4695" width="50.7028" height="2.0059" fill="none" stroke="none" stroke-width="0.0"/>
</a>
</g>
<g transform="translate(49.3371, 206.5243)">
<text font-family="serif" font-size="2.1999" text-anchor="start" fill="currentColor">
<tspan>Music engraving by LilyPond 2.23.1www.lilypond.org</tspan>
</text>
</g>
</svg>
