<svg xmlns="http://www.w3.org/2000/svg" xmlns:xlink="http://www.w3.org/1999/xlink" version="1.2" width="210.00mm" height="297.00mm" viewBox="0 0 132.7795 187.7882">
<style text="style/css">
<![CDATA[
tspan { white-space: pre; }
]]>
</style>
<!-- Page: 1/1 -->
<g color="rgb(49.8039%, 49.8039%, 49.8039%)">
<line transform="translate(12.6457, 18.1614)" stroke-linejoin="round" stroke-linecap="round" stroke-width="0.1073" stroke="currentColor" x1="0.0537" y1="-0.0000" x2="58.0463" y2="-0.0000"/>
</g>
<rect transform="translate(26.6418, 18.1614)" x="0.0000" y="-1.0537" width="0.2039" height="2.1073" ry="0.0000" fill="currentColor"/>
<rect transform="translate(70.5418, 18.1614)" x="0.0000" y="-1.0537" width="0.2039" height="2.1073" ry="0.0000" fill="currentColor"/>
<rect transform="translate(41.0418, 18.1614)" x="0.0000" y="-1.0537" width="0.2039" height="2.1073" ry="0.0000" fill="currentColor"/>
<line transform="translate(14.3090, 12.7606)" stroke-linejoin="round" stroke-linecap="round" stroke-width="0.1717" stroke="currentColor" x1="11.5328" y1="-0.0000" x2="11.5328" y2="0.7000"/>
<line transform="translate(14.3090, 12.7606)" stroke-linejoin="round" stroke-linecap="round" stroke-width="0.1717" stroke="currentColor" x1="-0.2000" y1="-0.0000" x2="-0.2000" y2="0.7000"/>
<line transform="translate(14.3090, 12.7606)" stroke-linejoin="round" stroke-linecap="round" stroke-width="0.1717" stroke="currentColor" x1="11.5328" y1="-0.0000" x2="7.4235" y2="-0.0000"/>
<line transform="translate(14.3090, 12.7606)" stroke-linejoin="round" stroke-linecap="round" stroke-width="0.1717" stroke="currentColor" x1="-0.2000" y1="-0.0000" x2="4.1093" y2="-0.0000"/>
<path transform="translate(61.1457, 18.1614) scale(0.0040, -0.0040)" d="M215 137c57 0 111 -29 111 -92c0 -71 -54 -120 -101 -148c-35 -21 -74 -34 -114 -34c-57 0 -111 29 -111 92c0 71 54 120 101 148c35 21 74 34 114 34z" fill="currentColor"/>
<rect transform="translate(62.3787, 18.1614)" x="-0.0697" y="-3.3333" width="0.1395" height="3.1540" ry="0.0444" fill="currentColor"/>
<text transform="translate(18.8183, 13.3107)" font-family="serif" font-style="italic" font-size="1.7462" text-anchor="start" fill="currentColor">
<tspan>3:2</tspan>
</text>
<line transform="translate(28.7090, 12.7606)" stroke-linejoin="round" stroke-linecap="round" stroke-width="0.1717" stroke="currentColor" x1="11.5328" y1="-0.0000" x2="11.5328" y2="0.7000"/>
<line transform="translate(28.7090, 12.7606)" stroke-linejoin="round" stroke-linecap="round" stroke-width="0.1717" stroke="currentColor" x1="-0.2000" y1="-0.0000" x2="-0.2000" y2="0.7000"/>
<line transform="translate(28.7090, 12.7606)" stroke-linejoin="round" stroke-linecap="round" stroke-width="0.1717" stroke="currentColor" x1="11.5328" y1="-0.0000" x2="7.4235" y2="-0.0000"/>
<line transform="translate(28.7090, 12.7606)" stroke-linejoin="round" stroke-linecap="round" stroke-width="0.1717" stroke="currentColor" x1="-0.2000" y1="-0.0000" x2="4.1093" y2="-0.0000"/>
<text transform="translate(33.2183, 13.3107)" font-family="serif" font-style="italic" font-size="1.7462" text-anchor="start" fill="currentColor">
<tspan>3:2</tspan>
</text>
<rect transform="translate(28.7787, 18.1614)" x="-0.0697" y="-3.3333" width="0.1395" height="3.1540" ry="0.0444" fill="currentColor"/>
<path transform="translate(27.5457, 18.1614) scale(0.0040, -0.0040)" d="M215 137c57 0 111 -29 111 -92c0 -71 -54 -120 -101 -148c-35 -21 -74 -34 -114 -34c-57 0 -111 29 -111 92c0 71 54 120 101 148c35 21 74 34 114 34z" fill="currentColor"/>
<path transform="translate(26.6418, 4.1614) scale(0.0045, -0.0045)" d="M23 11c-1 -7 -6 -11 -11 -11c-6 0 -12 4 -12 11c0 175 235 165 235 344c0 60 -18 122 -70 122c-26 0 -51 -14 -51 -37c0 -27 35 -41 35 -68c0 -38 -30 -69 -68 -69s-69 31 -69 69c0 76 72 128 153 128c96 0 187 -56 187 -145c0 -153 -151 -159 -249 -220c9 2 17 3 26 3
c33 0 70 -11 105 -36c21 -15 46 -23 66 -23c21 0 39 9 44 29c2 6 6 9 11 9c6 0 12 -5 12 -12c0 -67 -90 -105 -138 -105c-36 0 -71 14 -96 44c-13 16 -31 22 -48 22c-30 0 -59 -20 -62 -55z" fill="currentColor"/>
<path transform="translate(26.6418, 6.3997) scale(0.0045, -0.0045)" d="M259 288c27 29 49 62 49 102c0 55 -57 87 -117 87c-47 0 -75 -36 -75 -71c0 -20 10 -40 30 -52zM289 271c55 -31 83 -79 83 -127c0 -73 -66 -144 -189 -144c-94 0 -183 54 -183 140c0 50 39 85 76 120c-41 28 -61 67 -61 106c0 68 61 134 176 134c81 0 161 -38 161 -110
c0 -47 -30 -85 -63 -119zM106 242c-33 -29 -62 -59 -62 -102c0 -69 66 -117 139 -117c54 0 86 42 86 83c0 24 -10 48 -35 62z" fill="currentColor"/>
<path transform="translate(24.0485, 14.8309) scale(0.0040, -0.0040)" d="M0 0c0 -197 207 -335 207 -532c0 -71 -15 -141 -41 -207c-5 -8 -13 -12 -21 -12c-14 0 -27 11 -24 28c26 60 42 125 42 191c0 103 -93 207 -163 282h-18v250h18z" fill="currentColor"/>
<rect transform="translate(23.9787, 18.1614)" x="-0.0697" y="-3.3750" width="0.1395" height="3.1956" ry="0.0444" fill="currentColor"/>
<path transform="translate(22.7457, 18.1614) scale(0.0040, -0.0040)" d="M215 137c57 0 111 -29 111 -92c0 -71 -54 -120 -101 -148c-35 -21 -74 -34 -114 -34c-57 0 -111 29 -111 92c0 71 54 120 101 148c35 21 74 34 114 34z" fill="currentColor"/>
<path transform="translate(13.1457, 18.1614) scale(0.0040, -0.0040)" d="M215 137c57 0 111 -29 111 -92c0 -71 -54 -120 -101 -148c-35 -21 -74 -34 -114 -34c-57 0 -111 29 -111 92c0 71 54 120 101 148c35 21 74 34 114 34z" fill="currentColor"/>
<rect transform="translate(14.3787, 18.1614)" x="-0.0697" y="-3.3333" width="0.1395" height="3.1540" ry="0.0444" fill="currentColor"/>
<path transform="translate(12.6457, 4.1614) scale(0.0045, -0.0045)" d="M23 11c-1 -7 -6 -11 -11 -11c-6 0 -12 4 -12 11c0 175 235 165 235 344c0 60 -18 122 -70 122c-26 0 -51 -14 -51 -37c0 -27 35 -41 35 -68c0 -38 -30 -69 -68 -69s-69 31 -69 69c0 76 72 128 153 128c96 0 187 -56 187 -145c0 -153 -151 -159 -249 -220c9 2 17 3 26 3
c33 0 70 -11 105 -36c21 -15 46 -23 66 -23c21 0 39 9 44 29c2 6 6 9 11 9c6 0 12 -5 12 -12c0 -67 -90 -105 -138 -105c-36 0 -71 14 -96 44c-13 16 -31 22 -48 22c-30 0 -59 -20 -62 -55z" fill="currentColor"/>
<path transform="translate(12.6457, 6.3997) scale(0.0045, -0.0045)" d="M259 288c27 29 49 62 49 102c0 55 -57 87 -117 87c-47 0 -75 -36 -75 -71c0 -20 10 -40 30 -52zM289 271c55 -31 83 -79 83 -127c0 -73 -66 -144 -189 -144c-94 0 -183 54 -183 140c0 50 39 85 76 120c-41 28 -61 67 -61 106c0 68 61 134 176 134c81 0 161 -38 161 -110
c0 -47 -30 -85 -63 -119zM106 242c-33 -29 -62 -59 -62 -102c0 -69 66 -117 139 -117c54 0 86 42 86 83c0 24 -10 48 -35 62z" fill="currentColor"/>
<text transform="translate(55.7072, 13.3782)" font-family="serif" font-style="italic" font-size="1.7462" text-anchor="start" fill="currentColor">
<tspan>3:2</tspan>
</text>
<line transform="translate(43.1868, 12.8281)" stroke-linejoin="round" stroke-linecap="round" stroke-width="0.1717" stroke="currentColor" x1="27.5550" y1="-0.0000" x2="27.5550" y2="0.7000"/>
<line transform="translate(43.1868, 12.8281)" stroke-linejoin="round" stroke-linecap="round" stroke-width="0.1717" stroke="currentColor" x1="-0.2000" y1="-0.0000" x2="-0.2000" y2="0.7000"/>
<line transform="translate(43.1868, 12.8281)" stroke-linejoin="round" stroke-linecap="round" stroke-width="0.1717" stroke="currentColor" x1="27.5550" y1="-0.0000" x2="15.4346" y2="-0.0000"/>
<line transform="translate(43.1868, 12.8281)" stroke-linejoin="round" stroke-linecap="round" stroke-width="0.1717" stroke="currentColor" x1="-0.2000" y1="-0.0000" x2="12.1204" y2="-0.0000"/>
<rect transform="translate(43.2565, 18.1614)" x="-0.0697" y="-3.3333" width="0.1395" height="3.0804" ry="0.0444" fill="currentColor"/>
<path transform="translate(41.9457, 18.1614) scale(0.0040, -0.0040)" d="M312 64c0 24 -20 41 -41 41c-4 0 -8 -1 -12 -2c-30 -9 -77 -38 -113 -62s-83 -54 -103 -78c-7 -8 -10 -17 -10 -27c0 -24 20 -41 41 -41c4 0 8 1 12 2c30 9 77 38 113 62s83 54 103 78c7 8 10 17 10 27zM259 137c48 0 86 -22 86 -74c0 -18 -4 -38 -10 -56
c-12 -38 -30 -73 -63 -95c-53 -36 -113 -49 -186 -49c-48 0 -86 22 -86 74c0 18 4 38 10 56c12 38 31 73 64 95c53 36 112 49 185 49z" fill="currentColor"/>
<path transform="translate(41.0418, 4.1614) scale(0.0045, -0.0045)" d="M204 307c22 14 44 29 60 50c11 15 19 33 27 50c2 4 5 6 9 6c6 0 13 -5 13 -14v-245h72c10 0 15 -7 15 -14s-5 -15 -15 -15h-72v-8c0 -48 27 -94 72 -94c8 0 12 -5 12 -11s-4 -12 -12 -12c-44 0 -87 13 -131 13s-87 -13 -131 -13c-8 0 -12 6 -12 12s4 11 12 11
c45 0 73 46 73 94v8h-167c-23 0 -31 14 -31 23c0 3 1 5 2 6c80 93 138 207 138 330c0 9 6 16 13 16h3c23 -7 47 -13 71 -13s48 6 71 13c2 1 3 1 5 1c11 0 18 -10 12 -17l-284 -330h167v131c0 8 1 17 8 22z" fill="currentColor"/>
<path transform="translate(41.1177, 6.3997) scale(0.0045, -0.0045)" d="M259 288c27 29 49 62 49 102c0 55 -57 87 -117 87c-47 0 -75 -36 -75 -71c0 -20 10 -40 30 -52zM289 271c55 -31 83 -79 83 -127c0 -73 -66 -144 -189 -144c-94 0 -183 54 -183 140c0 50 39 85 76 120c-41 28 -61 67 -61 106c0 68 61 134 176 134c81 0 161 -38 161 -110
c0 -47 -30 -85 -63 -119zM106 242c-33 -29 -62 -59 -62 -102c0 -69 66 -117 139 -117c54 0 86 42 86 83c0 24 -10 48 -35 62z" fill="currentColor"/>
<path transform="translate(38.4485, 14.8309) scale(0.0040, -0.0040)" d="M0 0c0 -197 207 -335 207 -532c0 -71 -15 -141 -41 -207c-5 -8 -13 -12 -21 -12c-14 0 -27 11 -24 28c26 60 42 125 42 191c0 103 -93 207 -163 282h-18v250h18z" fill="currentColor"/>
<rect transform="translate(38.3787, 18.1614)" x="-0.0697" y="-3.3750" width="0.1395" height="3.1956" ry="0.0444" fill="currentColor"/>
<path transform="translate(37.1457, 18.1614) scale(0.0040, -0.0040)" d="M215 137c57 0 111 -29 111 -92c0 -71 -54 -120 -101 -148c-35 -21 -74 -34 -114 -34c-57 0 -111 29 -111 92c0 71 54 120 101 148c35 21 74 34 114 34z" fill="currentColor"/>
</svg>
