<svg xmlns="http://www.w3.org/2000/svg" xmlns:xlink="http://www.w3.org/1999/xlink" version="1.2" width="167.58mm" height="9.63mm" viewBox="8.5358 0.0000 95.3598 5.4800">
<style type="text/css">
<![CDATA[
tspan { white-space: pre; }
]]>
</style>
<g transform="translate(8.5358, 3.4300)">
<line stroke-linejoin="round" stroke-linecap="round" stroke-width="0.1000" stroke="currentColor" x1="0.0500" y1="0" x2="95.3098" y2="0"/>
</g>
<g transform="translate(103.7056, 3.4300)">
<rect x="0.0000" y="-1.0500" width="0.1900" height="2.1000" ry="0.0000" fill="currentColor"/>
</g>
<g transform="translate(79.9282, 3.4300)">
<rect x="0.0000" y="-1.0500" width="0.1900" height="2.1000" ry="0.0000" fill="currentColor"/>
</g>
<g transform="translate(56.1507, 3.4300)">
<rect x="0.0000" y="-1.0500" width="0.1900" height="2.1000" ry="0.0000" fill="currentColor"/>
</g>
<g transform="translate(32.3733, 3.4300)">
<rect x="0.0000" y="-1.0500" width="0.1900" height="2.1000" ry="0.0000" fill="currentColor"/>
</g>
<g transform="translate(57.7395, 3.4300)">
<path transform="scale(0.0040, -0.0040)" d="M163 292c-93 0 -102 -51 -119 -51c-8 0 -15 6 -15 15v228c0 10 8 18 17 16c46 -8 91 -13 137 -13s92 5 138 13c15 2 23 -10 17 -16c-68 -68 -166 -93 -263 -93c-9 0 -17 -8 -17 -17v-96c28 28 66 43 105 43c116 0 186 -51 186 -161c0 -94 -87 -160 -186 -160
c-82 0 -163 39 -163 113c0 36 30 66 66 66s65 -30 65 -66c0 -25 -40 -28 -40 -53c0 -30 37 -37 72 -37c57 0 70 71 70 137c0 63 -15 132 -70 132z" fill="currentColor"/>
</g>
<g transform="translate(57.0907, 5.4780)">
<g>
<path transform="scale(0.0040, -0.0040)" d="M0 250l117 250c6 12 30 -13 58 -13c15 0 29 7 42 13c8 4 16 -5 16 -16v-367c0 -48 28 -94 73 -94c8 0 12 -5 12 -11s-4 -12 -12 -12c-44 0 -87 13 -131 13s-87 -13 -131 -13c-8 0 -12 6 -12 12s4 11 12 11c45 0 73 46 73 94v245c0 12 -9 19 -17 19c-4 0 -8 -3 -10 -7
l-64 -136c-3 -6 -7 -9 -12 -9c-8 0 -16 6 -16 14c0 2 1 5 2 7z" fill="currentColor"/>

<path transform="translate(1.2633, 0.0000) scale(0.0040, -0.0040)" d="M170 256c-51 0 -53 -44 -53 -102v-14v-15c0 -58 2 -102 53 -102c57 0 61 51 61 117s-4 116 -61 116zM117 266c17 7 34 13 53 13c101 0 170 -44 170 -139s-69 -140 -170 -140c-112 0 -170 124 -170 250c0 128 72 250 190 250c71 0 138 -39 138 -103c0 -36 -29 -66 -65 -66
s-66 30 -66 66c0 24 39 25 39 49c0 20 -23 31 -46 31c-66 0 -75 -65 -75 -139c0 -24 2 -48 2 -72z" fill="currentColor"/>
</g>
</g>
<g transform="translate(14.1649, 3.4300)">
<path transform="scale(0.0040, -0.0040)" d="M218 136c66 0 108 -36 108 -89c0 -89 -113 -183 -218 -183c-66 0 -108 36 -108 89c0 89 113 183 218 183z" fill="currentColor"/>
</g>
<g transform="translate(10.1845, 3.4300)">
<path transform="scale(0.0040, -0.0040)" d="M163 292c-93 0 -102 -51 -119 -51c-8 0 -15 6 -15 15v228c0 10 8 18 17 16c46 -8 91 -13 137 -13s92 5 138 13c15 2 23 -10 17 -16c-68 -68 -166 -93 -263 -93c-9 0 -17 -8 -17 -17v-96c28 28 66 43 105 43c116 0 186 -51 186 -161c0 -94 -87 -160 -186 -160
c-82 0 -163 39 -163 113c0 36 30 66 66 66s65 -30 65 -66c0 -25 -40 -28 -40 -53c0 -30 37 -37 72 -37c57 0 70 71 70 137c0 63 -15 132 -70 132z" fill="currentColor"/>
</g>
<g transform="translate(9.5358, 5.4780)">
<g>
<path transform="scale(0.0040, -0.0040)" d="M0 250l117 250c6 12 30 -13 58 -13c15 0 29 7 42 13c8 4 16 -5 16 -16v-367c0 -48 28 -94 73 -94c8 0 12 -5 12 -11s-4 -12 -12 -12c-44 0 -87 13 -131 13s-87 -13 -131 -13c-8 0 -12 6 -12 12s4 11 12 11c45 0 73 46 73 94v245c0 12 -9 19 -17 19c-4 0 -8 -3 -10 -7
l-64 -136c-3 -6 -7 -9 -12 -9c-8 0 -16 6 -16 14c0 2 1 5 2 7z" fill="currentColor"/>

<path transform="translate(1.2633, 0.0000) scale(0.0040, -0.0040)" d="M170 256c-51 0 -53 -44 -53 -102v-14v-15c0 -58 2 -102 53 -102c57 0 61 51 61 117s-4 116 -61 116zM117 266c17 7 34 13 53 13c101 0 170 -44 170 -139s-69 -140 -170 -140c-112 0 -170 124 -170 250c0 128 72 250 190 250c71 0 138 -39 138 -103c0 -36 -29 -66 -65 -66
s-66 30 -66 66c0 24 39 25 39 49c0 20 -23 31 -46 31c-66 0 -75 -65 -75 -139c0 -24 2 -48 2 -72z" fill="currentColor"/>
</g>
</g>
<g transform="translate(15.4041, 3.4300)">
<rect x="-0.0650" y="-3.0000" width="0.1300" height="2.8139" ry="0.0400" fill="currentColor"/>
</g>
<g transform="translate(62.8940, 0.4300)">
<polygon stroke-linejoin="round" stroke-linecap="round" stroke-width="0.0800" fill="currentColor" stroke="currentColor" points="7.3942 -0.2000 7.3942 0.2000 0.0400 0.2000 0.0400 -0.2000"/>
</g>
<g transform="translate(21.4691, 3.4300)">
<path transform="scale(0.0040, -0.0040)" d="M218 136c66 0 108 -36 108 -89c0 -89 -113 -183 -218 -183c-66 0 -108 36 -108 89c0 89 113 183 218 183z" fill="currentColor"/>
</g>
<g transform="translate(22.7083, 3.4300)">
<rect x="-0.0650" y="-3.0000" width="0.1300" height="2.8139" ry="0.0400" fill="currentColor"/>
</g>
<g transform="translate(42.7165, 0.2400)">
<polygon stroke-linejoin="round" stroke-linecap="round" stroke-width="0.0800" fill="currentColor" stroke="currentColor" points="5.5942 -0.2000 5.5942 0.2000 0.0400 0.2000 0.0400 -0.2000"/>
</g>
<g transform="translate(42.7165, 1.0500)">
<polygon stroke-linejoin="round" stroke-linecap="round" stroke-width="0.0800" fill="currentColor" stroke="currentColor" points="5.5942 -0.2000 5.5942 0.2000 0.0400 0.2000 0.0400 -0.2000"/>
</g>
<g transform="translate(28.7733, 3.4300)">
<path transform="scale(0.0040, -0.0040)" d="M125 205c79 0 45 -98 90 -98c15 0 50 49 57 63c6 12 23 12 28 0l-179 -670c-8 -7 -17 -10 -27 -10s-20 3 -28 10l101 327c-34 -12 -70 -23 -106 -23c-47 0 -87 34 -87 79c0 40 32 72 72 72c79 0 46 -98 91 -98c16 0 55 51 60 68l46 151c-34 -12 -68 -22 -104 -22
c-47 0 -87 34 -87 79c0 40 33 72 73 72z" fill="currentColor"/>
</g>
<g transform="translate(15.3391, 0.4300)">
<polygon stroke-linejoin="round" stroke-linecap="round" stroke-width="0.0800" fill="currentColor" stroke="currentColor" points="7.3942 -0.2000 7.3942 0.2000 0.0400 0.2000 0.0400 -0.2000"/>
</g>
<g transform="translate(37.9423, 3.4300)">
<path transform="scale(0.0040, -0.0040)" d="M125 205c79 0 45 -98 90 -98c15 0 50 49 57 63c6 12 23 12 28 0l-179 -670c-8 -7 -17 -10 -27 -10s-20 3 -28 10l101 327c-34 -12 -70 -23 -106 -23c-47 0 -87 34 -87 79c0 40 32 72 72 72c79 0 46 -98 91 -98c16 0 55 51 60 68l46 151c-34 -12 -68 -22 -104 -22
c-47 0 -87 34 -87 79c0 40 33 72 73 72z" fill="currentColor"/>
</g>
<g transform="translate(33.9620, 3.4300)">
<path transform="scale(0.0040, -0.0040)" d="M163 292c-93 0 -102 -51 -119 -51c-8 0 -15 6 -15 15v228c0 10 8 18 17 16c46 -8 91 -13 137 -13s92 5 138 13c15 2 23 -10 17 -16c-68 -68 -166 -93 -263 -93c-9 0 -17 -8 -17 -17v-96c28 28 66 43 105 43c116 0 186 -51 186 -161c0 -94 -87 -160 -186 -160
c-82 0 -163 39 -163 113c0 36 30 66 66 66s65 -30 65 -66c0 -25 -40 -28 -40 -53c0 -30 37 -37 72 -37c57 0 70 71 70 137c0 63 -15 132 -70 132z" fill="currentColor"/>
</g>
<g transform="translate(33.3133, 5.4780)">
<g>
<path transform="scale(0.0040, -0.0040)" d="M0 250l117 250c6 12 30 -13 58 -13c15 0 29 7 42 13c8 4 16 -5 16 -16v-367c0 -48 28 -94 73 -94c8 0 12 -5 12 -11s-4 -12 -12 -12c-44 0 -87 13 -131 13s-87 -13 -131 -13c-8 0 -12 6 -12 12s4 11 12 11c45 0 73 46 73 94v245c0 12 -9 19 -17 19c-4 0 -8 -3 -10 -7
l-64 -136c-3 -6 -7 -9 -12 -9c-8 0 -16 6 -16 14c0 2 1 5 2 7z" fill="currentColor"/>

<path transform="translate(1.2633, 0.0000) scale(0.0040, -0.0040)" d="M170 256c-51 0 -53 -44 -53 -102v-14v-15c0 -58 2 -102 53 -102c57 0 61 51 61 117s-4 116 -61 116zM117 266c17 7 34 13 53 13c101 0 170 -44 170 -139s-69 -140 -170 -140c-112 0 -170 124 -170 250c0 128 72 250 190 250c71 0 138 -39 138 -103c0 -36 -29 -66 -65 -66
s-66 30 -66 66c0 24 39 25 39 49c0 20 -23 31 -46 31c-66 0 -75 -65 -75 -139c0 -24 2 -48 2 -72z" fill="currentColor"/>
</g>
</g>
<g transform="translate(41.5423, 3.4300)">
<path transform="scale(0.0040, -0.0040)" d="M218 136c66 0 108 -36 108 -89c0 -89 -113 -183 -218 -183c-66 0 -108 36 -108 89c0 89 113 183 218 183z" fill="currentColor"/>
</g>
<g transform="translate(43.2965, 2.9300)">
<path transform="scale(0.0040, -0.0040)" d="M0 0c0 31 25 56 56 56s56 -25 56 -56s-25 -56 -56 -56s-56 25 -56 56z" fill="currentColor"/>
</g>
<g transform="translate(42.7815, 3.4300)">
<rect x="-0.0650" y="-3.1900" width="0.1300" height="3.0039" ry="0.0400" fill="currentColor"/>
</g>
<g transform="translate(47.0465, 3.4300)">
<path transform="scale(0.0040, -0.0040)" d="M218 136c66 0 108 -36 108 -89c0 -89 -113 -183 -218 -183c-66 0 -108 36 -108 89c0 89 113 183 218 183z" fill="currentColor"/>
</g>
<g transform="translate(48.8007, 2.9300)">
<path transform="scale(0.0040, -0.0040)" d="M0 0c0 31 25 56 56 56s56 -25 56 -56s-25 -56 -56 -56s-56 25 -56 56z" fill="currentColor"/>
</g>
<g transform="translate(48.2857, 3.4300)">
<rect x="-0.0650" y="-3.1900" width="0.1300" height="3.0039" ry="0.0400" fill="currentColor"/>
</g>
<g transform="translate(52.5507, 3.4300)">
<path transform="scale(0.0040, -0.0040)" d="M125 205c79 0 45 -98 90 -98c15 0 50 49 57 63c6 12 23 12 28 0l-179 -670c-8 -7 -17 -10 -27 -10s-20 3 -28 10l101 327c-34 -12 -70 -23 -106 -23c-47 0 -87 34 -87 79c0 40 32 72 72 72c79 0 46 -98 91 -98c16 0 55 51 60 68l46 151c-34 -12 -68 -22 -104 -22
c-47 0 -87 34 -87 79c0 40 33 72 73 72z" fill="currentColor"/>
</g>
<g transform="translate(61.7198, 3.4300)">
<path transform="scale(0.0040, -0.0040)" d="M218 136c66 0 108 -36 108 -89c0 -89 -113 -183 -218 -183c-66 0 -108 36 -108 89c0 89 113 183 218 183z" fill="currentColor"/>
</g>
<g transform="translate(62.9590, 3.4300)">
<rect x="-0.0650" y="-3.0000" width="0.1300" height="2.8139" ry="0.0400" fill="currentColor"/>
</g>
<g transform="translate(90.2714, 0.2400)">
<polygon stroke-linejoin="round" stroke-linecap="round" stroke-width="0.0800" fill="currentColor" stroke="currentColor" points="5.5942 -0.2000 5.5942 0.2000 0.0400 0.2000 0.0400 -0.2000"/>
</g>
<g transform="translate(90.2714, 1.0500)">
<polygon stroke-linejoin="round" stroke-linecap="round" stroke-width="0.0800" fill="currentColor" stroke="currentColor" points="5.5942 -0.2000 5.5942 0.2000 0.0400 0.2000 0.0400 -0.2000"/>
</g>
<g transform="translate(69.0240, 3.4300)">
<path transform="scale(0.0040, -0.0040)" d="M218 136c66 0 108 -36 108 -89c0 -89 -113 -183 -218 -183c-66 0 -108 36 -108 89c0 89 113 183 218 183z" fill="currentColor"/>
</g>
<g transform="translate(70.2632, 3.4300)">
<rect x="-0.0650" y="-3.0000" width="0.1300" height="2.8139" ry="0.0400" fill="currentColor"/>
</g>
<g transform="translate(76.3282, 3.4300)">
<path transform="scale(0.0040, -0.0040)" d="M125 205c79 0 45 -98 90 -98c15 0 50 49 57 63c6 12 23 12 28 0l-179 -670c-8 -7 -17 -10 -27 -10s-20 3 -28 10l101 327c-34 -12 -70 -23 -106 -23c-47 0 -87 34 -87 79c0 40 32 72 72 72c79 0 46 -98 91 -98c16 0 55 51 60 68l46 151c-34 -12 -68 -22 -104 -22
c-47 0 -87 34 -87 79c0 40 33 72 73 72z" fill="currentColor"/>
</g>
<g transform="translate(85.4972, 3.4300)">
<path transform="scale(0.0040, -0.0040)" d="M125 205c79 0 45 -98 90 -98c15 0 50 49 57 63c6 12 23 12 28 0l-179 -670c-8 -7 -17 -10 -27 -10s-20 3 -28 10l101 327c-34 -12 -70 -23 -106 -23c-47 0 -87 34 -87 79c0 40 32 72 72 72c79 0 46 -98 91 -98c16 0 55 51 60 68l46 151c-34 -12 -68 -22 -104 -22
c-47 0 -87 34 -87 79c0 40 33 72 73 72z" fill="currentColor"/>
</g>
<g transform="translate(81.5169, 3.4300)">
<path transform="scale(0.0040, -0.0040)" d="M163 292c-93 0 -102 -51 -119 -51c-8 0 -15 6 -15 15v228c0 10 8 18 17 16c46 -8 91 -13 137 -13s92 5 138 13c15 2 23 -10 17 -16c-68 -68 -166 -93 -263 -93c-9 0 -17 -8 -17 -17v-96c28 28 66 43 105 43c116 0 186 -51 186 -161c0 -94 -87 -160 -186 -160
c-82 0 -163 39 -163 113c0 36 30 66 66 66s65 -30 65 -66c0 -25 -40 -28 -40 -53c0 -30 37 -37 72 -37c57 0 70 71 70 137c0 63 -15 132 -70 132z" fill="currentColor"/>
</g>
<g transform="translate(80.8682, 5.4780)">
<g>
<path transform="scale(0.0040, -0.0040)" d="M0 250l117 250c6 12 30 -13 58 -13c15 0 29 7 42 13c8 4 16 -5 16 -16v-367c0 -48 28 -94 73 -94c8 0 12 -5 12 -11s-4 -12 -12 -12c-44 0 -87 13 -131 13s-87 -13 -131 -13c-8 0 -12 6 -12 12s4 11 12 11c45 0 73 46 73 94v245c0 12 -9 19 -17 19c-4 0 -8 -3 -10 -7
l-64 -136c-3 -6 -7 -9 -12 -9c-8 0 -16 6 -16 14c0 2 1 5 2 7z" fill="currentColor"/>

<path transform="translate(1.2633, 0.0000) scale(0.0040, -0.0040)" d="M170 256c-51 0 -53 -44 -53 -102v-14v-15c0 -58 2 -102 53 -102c57 0 61 51 61 117s-4 116 -61 116zM117 266c17 7 34 13 53 13c101 0 170 -44 170 -139s-69 -140 -170 -140c-112 0 -170 124 -170 250c0 128 72 250 190 250c71 0 138 -39 138 -103c0 -36 -29 -66 -65 -66
s-66 30 -66 66c0 24 39 25 39 49c0 20 -23 31 -46 31c-66 0 -75 -65 -75 -139c0 -24 2 -48 2 -72z" fill="currentColor"/>
</g>
</g>
<g transform="translate(100.1056, 3.4300)">
<path transform="scale(0.0040, -0.0040)" d="M125 205c79 0 45 -98 90 -98c15 0 50 49 57 63c6 12 23 12 28 0l-179 -670c-8 -7 -17 -10 -27 -10s-20 3 -28 10l101 327c-34 -12 -70 -23 -106 -23c-47 0 -87 34 -87 79c0 40 32 72 72 72c79 0 46 -98 91 -98c16 0 55 51 60 68l46 151c-34 -12 -68 -22 -104 -22
c-47 0 -87 34 -87 79c0 40 33 72 73 72z" fill="currentColor"/>
</g>
<g transform="translate(89.0972, 3.4300)">
<path transform="scale(0.0040, -0.0040)" d="M218 136c66 0 108 -36 108 -89c0 -89 -113 -183 -218 -183c-66 0 -108 36 -108 89c0 89 113 183 218 183z" fill="currentColor"/>
</g>
<g transform="translate(90.8514, 2.9300)">
<path transform="scale(0.0040, -0.0040)" d="M0 0c0 31 25 56 56 56s56 -25 56 -56s-25 -56 -56 -56s-56 25 -56 56z" fill="currentColor"/>
</g>
<g transform="translate(90.3364, 3.4300)">
<rect x="-0.0650" y="-3.1900" width="0.1300" height="3.0039" ry="0.0400" fill="currentColor"/>
</g>
<g transform="translate(94.6014, 3.4300)">
<path transform="scale(0.0040, -0.0040)" d="M218 136c66 0 108 -36 108 -89c0 -89 -113 -183 -218 -183c-66 0 -108 36 -108 89c0 89 113 183 218 183z" fill="currentColor"/>
</g>
<g transform="translate(96.3556, 2.9300)">
<path transform="scale(0.0040, -0.0040)" d="M0 0c0 31 25 56 56 56s56 -25 56 -56s-25 -56 -56 -56s-56 25 -56 56z" fill="currentColor"/>
</g>
<g transform="translate(95.8406, 3.4300)">
<rect x="-0.0650" y="-3.1900" width="0.1300" height="3.0039" ry="0.0400" fill="currentColor"/>
</g>
</svg>
