<svg xmlns="http://www.w3.org/2000/svg" xmlns:xlink="http://www.w3.org/1999/xlink" version="1.2" width="210.00mm" height="297.00mm" viewBox="0.0000 -0.0000 119.5016 169.0094">
<style type="text/css">
<![CDATA[
tspan { white-space: pre; }
]]>
</style>
<g transform="translate(8.5358, 14.8840)">
<rect x="84.7737" y="-0.1000" width="1.9563" height="0.2000" ry="0.1000" fill="currentColor"/>
</g>
<g transform="translate(8.5358, 14.8840)">
<rect x="16.4842" y="-0.1000" width="1.9563" height="0.2000" ry="0.1000" fill="currentColor"/>
</g>
<g transform="translate(17.0717, 13.8840)">
<line stroke-linejoin="round" stroke-linecap="round" stroke-width="0.1000" stroke="currentColor" x1="0.0500" y1="0" x2="78.8787" y2="0"/>
</g>
<g transform="translate(17.0717, 12.8840)">
<line stroke-linejoin="round" stroke-linecap="round" stroke-width="0.1000" stroke="currentColor" x1="0.0500" y1="0" x2="78.8787" y2="0"/>
</g>
<g transform="translate(17.0717, 11.8840)">
<line stroke-linejoin="round" stroke-linecap="round" stroke-width="0.1000" stroke="currentColor" x1="0.0500" y1="0" x2="78.8787" y2="0"/>
</g>
<g transform="translate(17.0717, 10.8840)">
<line stroke-linejoin="round" stroke-linecap="round" stroke-width="0.1000" stroke="currentColor" x1="0.0500" y1="0" x2="78.8787" y2="0"/>
</g>
<g transform="translate(17.0717, 9.8840)">
<line stroke-linejoin="round" stroke-linecap="round" stroke-width="0.1000" stroke="currentColor" x1="0.0500" y1="0" x2="78.8787" y2="0"/>
</g>
<g transform="translate(110.7757, 21.4720)">
<rect x="0.0000" y="-2.0000" width="0.1900" height="4.0000" ry="0.0000" fill="currentColor"/>
</g>
<g transform="translate(8.5358, 24.4720)">
<rect x="60.8339" y="-0.1000" width="1.9563" height="0.2000" ry="0.1000" fill="currentColor"/>
</g>
<g transform="translate(8.5358, 24.4720)">
<rect x="57.2695" y="-0.1000" width="1.9563" height="0.2000" ry="0.1000" fill="currentColor"/>
</g>
<g transform="translate(17.0717, 23.4720)">
<line stroke-linejoin="round" stroke-linecap="round" stroke-width="0.1000" stroke="currentColor" x1="0.0500" y1="0" x2="93.8441" y2="0"/>
</g>
<g transform="translate(17.0717, 22.4720)">
<line stroke-linejoin="round" stroke-linecap="round" stroke-width="0.1000" stroke="currentColor" x1="0.0500" y1="0" x2="93.8441" y2="0"/>
</g>
<g transform="translate(17.0717, 21.4720)">
<line stroke-linejoin="round" stroke-linecap="round" stroke-width="0.1000" stroke="currentColor" x1="0.0500" y1="0" x2="93.8441" y2="0"/>
</g>
<g transform="translate(17.0717, 20.4720)">
<line stroke-linejoin="round" stroke-linecap="round" stroke-width="0.1000" stroke="currentColor" x1="0.0500" y1="0" x2="93.8441" y2="0"/>
</g>
<g transform="translate(17.0717, 19.4720)">
<line stroke-linejoin="round" stroke-linecap="round" stroke-width="0.1000" stroke="currentColor" x1="0.0500" y1="0" x2="93.8441" y2="0"/>
</g>
<g transform="translate(68.7395, 6.6906)">
<rect x="0.0000" y="7.2435" width="0.1900" height="5.5380" ry="0.0000" fill="currentColor"/>
</g>
<g transform="translate(68.7395, 21.4720)">
<rect x="0.0000" y="-2.0500" width="0.1900" height="4.0500" ry="0.0000" fill="currentColor"/>
</g>
<g transform="translate(68.7395, 11.8840)">
<rect x="0.0000" y="-2.0000" width="0.1900" height="4.0500" ry="0.0000" fill="currentColor"/>
</g>
<g transform="translate(17.0117, 16.6780)">
<rect x="0.0000" y="-6.8440" width="0.1600" height="13.6880" ry="0.0500" fill="currentColor"/>
</g>
<g transform="translate(102.1828, 19.4720)">
<polygon stroke-linejoin="round" stroke-linecap="round" stroke-width="0.0800" fill="currentColor" stroke="currentColor" points="7.4342 -1.7000 7.4342 -1.3000 0.0400 0.2000 0.0400 -0.2000"/>
</g>
<g transform="translate(102.1828, 20.2820)">
<polygon stroke-linejoin="round" stroke-linecap="round" stroke-width="0.0800" fill="currentColor" stroke="currentColor" points="7.4342 -1.7000 7.4342 -1.3000 0.0400 0.2000 0.0400 -0.2000"/>
</g>
<g transform="translate(92.4450, 19.4720)">
<polygon stroke-linejoin="round" stroke-linecap="round" stroke-width="0.0800" fill="currentColor" stroke="currentColor" points="7.7130 -1.7000 7.7130 -1.3000 0.0400 0.2000 0.0400 -0.2000"/>
</g>
<g transform="translate(92.4450, 20.2820)">
<polygon stroke-linejoin="round" stroke-linecap="round" stroke-width="0.0800" fill="currentColor" stroke="currentColor" points="7.7130 -1.7000 7.7130 -1.3000 0.0400 0.2000 0.0400 -0.2000"/>
</g>
<g transform="translate(25.3461, 14.8840)">
<path transform="scale(0.0040, -0.0040)" d="M0 -46c0 91 116 182 217 182c63 0 109 -35 109 -90c0 -87 -110 -182 -220 -182c-67 0 -106 39 -106 90z" fill="currentColor"/>
</g>
<g transform="translate(25.9982, 16.6167)">
<path transform="scale(0.0040, -0.0040)" d="M-173 68c-8 2 -15 9 -15 18c0 10 9 19 19 19c2 0 3 -1 5 -1l337 -86c8 -2 15 -9 15 -18s-7 -16 -15 -18l-337 -86c-2 0 -3 -1 -5 -1c-10 0 -19 9 -19 19c0 9 7 16 15 18l206 53l109 15l-109 15z" fill="currentColor"/>
</g>
<g transform="translate(17.8717, 12.8840)">
<path transform="scale(0.0040, -0.0040)" d="M266 -635h-6c-108 0 -195 88 -195 197c0 58 53 103 112 103c54 0 95 -47 95 -103c0 -52 -43 -95 -95 -95c-11 0 -21 2 -31 6c26 -39 68 -65 117 -65h4zM401 151c19 -89 48 -242 60 -354c76 27 112 94 112 163c0 89 -60 179 -172 191zM74 28c0 -112 98 -247 278 -247
c21 0 44 2 68 6c-7 64 -29 203 -63 364c-79 -8 -124 -61 -124 -119c0 -44 25 -91 81 -123c5 -5 7 -10 7 -15c0 -11 -10 -22 -22 -22c-15 0 -126 62 -126 187c0 88 58 174 160 197c-14 58 -29 117 -46 175c-107 -121 -213 -243 -213 -403zM357 1194c28 0 143 -206 143 -361
c0 -143 -86 -255 -180 -364c21 -68 39 -138 56 -207c5 0 10 1 14 1c155 0 255 -129 255 -262c0 -113 -74 -212 -180 -245c3 -35 5 -70 5 -105c0 -19 -1 -39 -2 -58c-7 -119 -88 -225 -202 -228l1 43c93 2 153 92 159 191c1 18 2 37 2 55c0 31 -1 61 -4 92
c-28 -5 -55 -8 -80 -8c-239 0 -342 217 -342 374c0 177 131 306 248 441c-29 96 -52 170 -52 346c0 189 144 295 159 295zM247 782c0 -55 12 -115 35 -190c83 100 147 202 147 326c0 40 -6 82 -21 127c-49 -24 -161 -97 -161 -263z" fill="currentColor"/>
</g>
<g transform="translate(21.9567, 11.8840)">
<path transform="scale(0.0040, -0.0040)" d="M433 -89c0 -22 -50 -174 -183 -174c-59 0 -250 19 -250 263c0 62 18 262 250 262c116 0 176 -106 176 -163c0 -40 -30 -72 -67 -72c-31 0 -75 25 -75 75c0 38 27 77 72 77c4 0 9 0 14 -1c-28 37 -72 59 -120 59c-106 0 -113 -73 -113 -186v-51v-51
c0 -113 7 -187 113 -187c80 0 139 70 158 151c2 7 7 10 12 10c6 0 13 -4 13 -12z" fill="currentColor"/>
</g>
<g transform="translate(25.3461, 20.4720)">
<path transform="scale(0.0040, -0.0040)" d="M0 -46c0 91 116 182 217 182c63 0 109 -35 109 -90c0 -87 -110 -182 -220 -182c-67 0 -106 39 -106 90z" fill="currentColor"/>
</g>
<g transform="translate(25.9982, 24.1420)">
<path transform="scale(0.0040, -0.0040)" d="M-173 68c-8 2 -15 9 -15 18c0 10 9 19 19 19c2 0 3 -1 5 -1l337 -86c8 -2 15 -9 15 -18s-7 -16 -15 -18l-337 -86c-2 0 -3 -1 -5 -1c-10 0 -19 9 -19 19c0 9 7 16 15 18l206 53l109 15l-109 15z" fill="currentColor"/>
</g>
<g transform="translate(17.8717, 22.4720)">
<path transform="scale(0.0040, -0.0040)" d="M266 -635h-6c-108 0 -195 88 -195 197c0 58 53 103 112 103c54 0 95 -47 95 -103c0 -52 -43 -95 -95 -95c-11 0 -21 2 -31 6c26 -39 68 -65 117 -65h4zM401 151c19 -89 48 -242 60 -354c76 27 112 94 112 163c0 89 -60 179 -172 191zM74 28c0 -112 98 -247 278 -247
c21 0 44 2 68 6c-7 64 -29 203 -63 364c-79 -8 -124 -61 -124 -119c0 -44 25 -91 81 -123c5 -5 7 -10 7 -15c0 -11 -10 -22 -22 -22c-15 0 -126 62 -126 187c0 88 58 174 160 197c-14 58 -29 117 -46 175c-107 -121 -213 -243 -213 -403zM357 1194c28 0 143 -206 143 -361
c0 -143 -86 -255 -180 -364c21 -68 39 -138 56 -207c5 0 10 1 14 1c155 0 255 -129 255 -262c0 -113 -74 -212 -180 -245c3 -35 5 -70 5 -105c0 -19 -1 -39 -2 -58c-7 -119 -88 -225 -202 -228l1 43c93 2 153 92 159 191c1 18 2 37 2 55c0 31 -1 61 -4 92
c-28 -5 -55 -8 -80 -8c-239 0 -342 217 -342 374c0 177 131 306 248 441c-29 96 -52 170 -52 346c0 189 144 295 159 295zM247 782c0 -55 12 -115 35 -190c83 100 147 202 147 326c0 40 -6 82 -21 127c-49 -24 -161 -97 -161 -263z" fill="currentColor"/>
</g>
<g transform="translate(21.9567, 21.4720)">
<path transform="scale(0.0040, -0.0040)" d="M433 -89c0 -22 -50 -174 -183 -174c-59 0 -250 19 -250 263c0 62 18 262 250 262c116 0 176 -106 176 -163c0 -40 -30 -72 -67 -72c-31 0 -75 25 -75 75c0 38 27 77 72 77c4 0 9 0 14 -1c-28 37 -72 59 -120 59c-106 0 -113 -73 -113 -186v-51v-51
c0 -113 7 -187 113 -187c80 0 139 70 158 151c2 7 7 10 12 10c6 0 13 -4 13 -12z" fill="currentColor"/>
</g>
<g transform="translate(26.5853, 11.8840)">
<rect x="-0.0650" y="-2.0000" width="0.1300" height="4.8138" ry="0.0400" fill="currentColor"/>
</g>
<g transform="translate(26.5853, 21.4720)">
<rect x="-0.0650" y="-3.4890" width="0.1300" height="2.3028" ry="0.0400" fill="currentColor"/>
</g>
<g transform="translate(101.0086, 21.4720)">
<path stroke-width="0.0800" stroke-linejoin="round" stroke-linecap="round" stroke="currentColor" fill="currentColor" d="M0.7307 2.5450C2.4440 3.5497 6.8309 2.7433 8.0749 1.1950L8.0749 1.1950C6.8092 2.6253 2.4223 3.4317 0.7307 2.5450z"/>
</g>
<g transform="translate(27.5694, 13.3840)">
<path transform="scale(0.0040, -0.0040)" d="M0 -46c0 91 116 182 217 182c63 0 109 -35 109 -90c0 -87 -110 -182 -220 -182c-67 0 -106 39 -106 90z" fill="currentColor"/>
</g>
<g transform="translate(28.2215, 14.3840)">
<path transform="scale(0.0040, -0.0040)" d="M-50 0c0 28 22 50 50 50s50 -22 50 -50s-22 -50 -50 -50s-50 22 -50 50z" fill="currentColor"/>
</g>
<g transform="translate(28.8086, 11.8840)">
<rect x="-0.0650" y="-2.0000" width="0.1300" height="3.3138" ry="0.0400" fill="currentColor"/>
</g>
<g transform="translate(82.5016, 18.6620)">
<polygon stroke-linejoin="round" stroke-linecap="round" stroke-width="0.0800" fill="currentColor" stroke="currentColor" points="7.7937 -1.5800 7.7937 -1.1800 0.0400 0.2000 0.0400 -0.2000"/>
</g>
<g transform="translate(82.5016, 19.4720)">
<polygon stroke-linejoin="round" stroke-linecap="round" stroke-width="0.0800" fill="currentColor" stroke="currentColor" points="7.7937 -1.5800 7.7937 -1.1800 0.0400 0.2000 0.0400 -0.2000"/>
</g>
<g transform="translate(28.5039, 21.9720)">
<path transform="scale(0.0040, -0.0040)" d="M0 -46c0 91 116 182 217 182c63 0 109 -35 109 -90c0 -87 -110 -182 -220 -182c-67 0 -106 39 -106 90z" fill="currentColor"/>
</g>
<g transform="translate(29.7431, 21.4720)">
<rect x="-0.0650" y="-2.9540" width="0.1300" height="3.2678" ry="0.0400" fill="currentColor"/>
</g>
<g transform="translate(82.5016, 9.8840)">
<polygon stroke-linejoin="round" stroke-linecap="round" stroke-width="0.0800" fill="currentColor" stroke="currentColor" points="7.7937 -0.2000 7.7937 0.2000 0.0400 0.2000 0.0400 -0.2000"/>
</g>
<g transform="translate(82.5016, 10.6940)">
<polygon stroke-linejoin="round" stroke-linecap="round" stroke-width="0.0800" fill="currentColor" stroke="currentColor" points="7.7937 -0.2000 7.7937 0.2000 0.0400 0.2000 0.0400 -0.2000"/>
</g>
<g transform="translate(29.4385, 12.8840)">
<path transform="scale(0.0040, -0.0040)" d="M0 -46c0 91 116 182 217 182c63 0 109 -35 109 -90c0 -87 -110 -182 -220 -182c-67 0 -106 39 -106 90z" fill="currentColor"/>
</g>
<g transform="translate(30.0906, 16.1366)">
<path transform="scale(0.0040, -0.0040)" d="M-173 68c-8 2 -15 9 -15 18c0 10 9 19 19 19c2 0 3 -1 5 -1l337 -86c8 -2 15 -9 15 -18s-7 -16 -15 -18l-337 -86c-2 0 -3 -1 -5 -1c-10 0 -19 9 -19 19c0 9 7 16 15 18l206 53l109 15l-109 15z" fill="currentColor"/>
</g>
<g transform="translate(30.6777, 11.8840)">
<rect x="-0.0650" y="-2.0000" width="0.1300" height="2.8138" ry="0.0400" fill="currentColor"/>
</g>
<g transform="translate(91.2708, 21.4720)">
<path stroke-width="0.0800" stroke-linejoin="round" stroke-linecap="round" stroke="currentColor" fill="currentColor" d="M0.7624 3.0450C2.6033 3.9365 7.2194 2.7255 8.3855 1.0450L8.3855 1.0450C7.1889 2.6094 2.5728 3.8205 0.7624 3.0450z"/>
</g>
<g transform="translate(31.4118, 12.3840)">
<path transform="scale(0.0040, -0.0040)" d="M0 -46c0 91 116 182 217 182c63 0 109 -35 109 -90c0 -87 -110 -182 -220 -182c-67 0 -106 39 -106 90z" fill="currentColor"/>
</g>
<g transform="translate(31.4118, 22.4720)">
<path transform="scale(0.0040, -0.0040)" d="M0 -46c0 91 116 182 217 182c63 0 109 -35 109 -90c0 -87 -110 -182 -220 -182c-67 0 -106 39 -106 90z" fill="currentColor"/>
</g>
<g transform="translate(32.6510, 11.8840)">
<rect x="-0.0650" y="-2.0000" width="0.1300" height="2.3138" ry="0.0400" fill="currentColor"/>
</g>
<g transform="translate(32.6510, 21.4720)">
<rect x="-0.0650" y="-2.4613" width="0.1300" height="3.2751" ry="0.0400" fill="currentColor"/>
</g>
<g transform="translate(91.2708, 11.8840)">
<path stroke-width="0.0800" stroke-linejoin="round" stroke-linecap="round" stroke="currentColor" fill="currentColor" d="M0.4828 3.5450C0.8598 4.4151 1.9606 4.8806 2.8475 4.5450L2.8475 4.5450C2.0074 4.7701 0.9066 4.3046 0.4828 3.5450z"/>
</g>
<g transform="translate(33.1352, 14.3840)">
<path transform="scale(0.0040, -0.0040)" d="M0 -46c0 91 116 182 217 182c63 0 109 -35 109 -90c0 -87 -110 -182 -220 -182c-67 0 -106 39 -106 90z" fill="currentColor"/>
</g>
<g transform="translate(34.3744, 11.8840)">
<rect x="-0.0650" y="-2.0000" width="0.1300" height="4.3138" ry="0.0400" fill="currentColor"/>
</g>
<g transform="translate(70.8700, 20.6620)">
<polygon stroke-linejoin="round" stroke-linecap="round" stroke-width="0.0800" fill="currentColor" stroke="currentColor" points="8.8137 -1.3900 8.8137 -0.9900 0.0400 0.2000 0.0400 -0.2000"/>
</g>
<g transform="translate(70.8700, 21.4720)">
<polygon stroke-linejoin="round" stroke-linecap="round" stroke-width="0.0800" fill="currentColor" stroke="currentColor" points="8.8137 -1.3900 8.8137 -0.9900 0.0400 0.2000 0.0400 -0.2000"/>
</g>
<g transform="translate(34.0697, 22.9720)">
<path transform="scale(0.0040, -0.0040)" d="M0 -46c0 91 116 182 217 182c63 0 109 -35 109 -90c0 -87 -110 -182 -220 -182c-67 0 -106 39 -106 90z" fill="currentColor"/>
</g>
<g transform="translate(34.7218, 23.9720)">
<path transform="scale(0.0040, -0.0040)" d="M-50 0c0 28 22 50 50 50s50 -22 50 -50s-22 -50 -50 -50s-50 22 -50 50z" fill="currentColor"/>
</g>
<g transform="translate(35.3089, 21.4720)">
<rect x="-0.0650" y="-2.0110" width="0.1300" height="3.3248" ry="0.0400" fill="currentColor"/>
</g>
<g transform="translate(70.8700, 8.3840)">
<polygon stroke-linejoin="round" stroke-linecap="round" stroke-width="0.0800" fill="currentColor" stroke="currentColor" points="9.7483 0.3000 9.7483 0.7000 0.0400 0.2000 0.0400 -0.2000"/>
</g>
<g transform="translate(70.8700, 9.1940)">
<polygon stroke-linejoin="round" stroke-linecap="round" stroke-width="0.0800" fill="currentColor" stroke="currentColor" points="9.7483 0.3000 9.7483 0.7000 0.0400 0.2000 0.0400 -0.2000"/>
</g>
<g transform="translate(35.0043, 12.8840)">
<path transform="scale(0.0040, -0.0040)" d="M0 -46c0 91 116 182 217 182c63 0 109 -35 109 -90c0 -87 -110 -182 -220 -182c-67 0 -106 39 -106 90z" fill="currentColor"/>
</g>
<g transform="translate(35.6564, 14.3840)">
<path transform="scale(0.0040, -0.0040)" d="M-50 0c0 28 22 50 50 50s50 -22 50 -50s-22 -50 -50 -50s-50 22 -50 50z" fill="currentColor"/>
</g>
<g transform="translate(36.2435, 11.8840)">
<rect x="-0.0650" y="-2.0000" width="0.1300" height="2.8138" ry="0.0400" fill="currentColor"/>
</g>
<g transform="translate(81.3274, 21.4720)">
<path stroke-width="0.0800" stroke-linejoin="round" stroke-linecap="round" stroke="currentColor" fill="currentColor" d="M0.7271 3.5450C2.4798 4.5831 7.1357 3.7672 8.4308 2.1950L8.4308 2.1950C7.1149 3.6490 2.4590 4.4649 0.7271 3.5450z"/>
</g>
<g transform="translate(36.9776, 12.3840)">
<path transform="scale(0.0040, -0.0040)" d="M0 -46c0 91 116 182 217 182c63 0 109 -35 109 -90c0 -87 -110 -182 -220 -182c-67 0 -106 39 -106 90z" fill="currentColor"/>
</g>
<g transform="translate(37.6297, 14.9803)">
<path transform="scale(0.0040, -0.0040)" d="M-173 68c-8 2 -15 9 -15 18c0 10 9 19 19 19c2 0 3 -1 5 -1l337 -86c8 -2 15 -9 15 -18s-7 -16 -15 -18l-337 -86c-2 0 -3 -1 -5 -1c-10 0 -19 9 -19 19c0 9 7 16 15 18l206 53l109 15l-109 15z" fill="currentColor"/>
</g>
<g transform="translate(36.9776, 20.9720)">
<path transform="scale(0.0040, -0.0040)" d="M0 -46c0 91 116 182 217 182c63 0 109 -35 109 -90c0 -87 -110 -182 -220 -182c-67 0 -106 39 -106 90z" fill="currentColor"/>
</g>
<g transform="translate(37.6297, 24.1420)">
<path transform="scale(0.0040, -0.0040)" d="M-173 68c-8 2 -15 9 -15 18c0 10 9 19 19 19c2 0 3 -1 5 -1l337 -86c8 -2 15 -9 15 -18s-7 -16 -15 -18l-337 -86c-2 0 -3 -1 -5 -1c-10 0 -19 9 -19 19c0 9 7 16 15 18l206 53l109 15l-109 15z" fill="currentColor"/>
</g>
<g transform="translate(38.2168, 11.8840)">
<rect x="-0.0650" y="-2.8100" width="0.1300" height="3.1238" ry="0.0400" fill="currentColor"/>
</g>
<g transform="translate(38.2168, 21.4720)">
<rect x="-0.0650" y="-3.4871" width="0.1300" height="2.8009" ry="0.0400" fill="currentColor"/>
</g>
<g transform="translate(81.3274, 11.8840)">
<path stroke-width="0.0800" stroke-linejoin="round" stroke-linecap="round" stroke="currentColor" fill="currentColor" d="M0.6521 3.1950C2.1849 4.5112 6.8230 4.5112 8.3558 3.1950L8.3558 3.1950C6.8230 4.3912 2.1849 4.3912 0.6521 3.1950z"/>
</g>
<g transform="translate(39.2174, 11.8840)">
<path transform="scale(0.0040, -0.0040)" d="M0 -46c0 91 116 182 217 182c63 0 109 -35 109 -90c0 -87 -110 -182 -220 -182c-67 0 -106 39 -106 90z" fill="currentColor"/>
</g>
<g transform="translate(39.2174, 22.4720)">
<path transform="scale(0.0040, -0.0040)" d="M0 -46c0 91 116 182 217 182c63 0 109 -35 109 -90c0 -87 -110 -182 -220 -182c-67 0 -106 39 -106 90z" fill="currentColor"/>
</g>
<g transform="translate(40.4566, 11.8840)">
<rect x="-0.0650" y="-2.8100" width="0.1300" height="2.6238" ry="0.0400" fill="currentColor"/>
</g>
<g transform="translate(40.4566, 21.4720)">
<rect x="-0.0650" y="-3.0441" width="0.1300" height="3.8579" ry="0.0400" fill="currentColor"/>
</g>
<g transform="translate(73.5383, 11.8840)">
<path stroke-width="0.0800" stroke-linejoin="round" stroke-linecap="round" stroke="currentColor" fill="currentColor" d="M0.6521 2.5450C1.9292 3.6892 5.1908 3.6892 6.4679 2.5450L6.4679 2.5450C5.1908 3.5692 1.9292 3.5692 0.6521 2.5450z"/>
</g>
<g transform="translate(41.4571, 13.8840)">
<path transform="scale(0.0040, -0.0040)" d="M0 -46c0 91 116 182 217 182c63 0 109 -35 109 -90c0 -87 -110 -182 -220 -182c-67 0 -106 39 -106 90z" fill="currentColor"/>
</g>
<g transform="translate(41.4571, 22.9720)">
<path transform="scale(0.0040, -0.0040)" d="M0 -46c0 91 116 182 217 182c63 0 109 -35 109 -90c0 -87 -110 -182 -220 -182c-67 0 -106 39 -106 90z" fill="currentColor"/>
</g>
<g transform="translate(42.6963, 11.8840)">
<rect x="-0.0650" y="-2.8100" width="0.1300" height="4.6238" ry="0.0400" fill="currentColor"/>
</g>
<g transform="translate(42.6963, 21.4720)">
<rect x="-0.0650" y="-2.6011" width="0.1300" height="3.9149" ry="0.0400" fill="currentColor"/>
</g>
<g transform="translate(60.4613, 19.4720)">
<polygon stroke-linejoin="round" stroke-linecap="round" stroke-width="0.0800" fill="currentColor" stroke="currentColor" points="6.9342 0.9900 6.9342 1.3900 0.0400 0.2000 0.0400 -0.2000"/>
</g>
<g transform="translate(60.4613, 20.2820)">
<polygon stroke-linejoin="round" stroke-linecap="round" stroke-width="0.0800" fill="currentColor" stroke="currentColor" points="6.9342 0.9900 6.9342 1.3900 0.0400 0.2000 0.0400 -0.2000"/>
</g>
<g transform="translate(44.4313, 12.3840)">
<path transform="scale(0.0040, -0.0040)" d="M0 -46c0 91 116 182 217 182c63 0 109 -35 109 -90c0 -87 -110 -182 -220 -182c-67 0 -106 39 -106 90z" fill="currentColor"/>
</g>
<g transform="translate(45.0834, 13.3840)">
<path transform="scale(0.0040, -0.0040)" d="M-50 0c0 28 22 50 50 50s50 -22 50 -50s-22 -50 -50 -50s-50 22 -50 50z" fill="currentColor"/>
</g>
<g transform="translate(44.4313, 23.4720)">
<path transform="scale(0.0040, -0.0040)" d="M0 -46c0 91 116 182 217 182c63 0 109 -35 109 -90c0 -87 -110 -182 -220 -182c-67 0 -106 39 -106 90z" fill="currentColor"/>
</g>
<g transform="translate(45.0834, 24.4170)">
<path transform="scale(0.0040, -0.0040)" d="M-50 0c0 28 22 50 50 50s50 -22 50 -50s-22 -50 -50 -50s-50 22 -50 50z" fill="currentColor"/>
</g>
<g transform="translate(45.6705, 11.8840)">
<rect x="-0.0650" y="-2.8100" width="0.1300" height="3.1238" ry="0.0400" fill="currentColor"/>
</g>
<g transform="translate(45.6705, 21.4720)">
<rect x="-0.0650" y="-2.0129" width="0.1300" height="3.8267" ry="0.0400" fill="currentColor"/>
</g>
<g transform="translate(43.2813, 23.4720)">
<path transform="scale(0.0040, -0.0040)" d="M27 41l-1 -66v-11c0 -22 1 -44 4 -66c45 38 93 80 93 139c0 33 -14 67 -43 67c-31 0 -52 -30 -53 -63zM-15 -138l-12 595c8 5 18 8 27 8s19 -3 27 -8l-7 -345c25 21 58 34 91 34c52 0 89 -48 89 -102c0 -80 -86 -117 -147 -169c-15 -13 -24 -38 -45 -38
c-13 0 -23 11 -23 25z" fill="currentColor"/>
</g>
<g transform="translate(60.4613, 7.8840)">
<polygon stroke-linejoin="round" stroke-linecap="round" stroke-width="0.0800" fill="currentColor" stroke="currentColor" points="6.9342 0.9900 6.9342 1.3900 0.0400 0.2000 0.0400 -0.2000"/>
</g>
<g transform="translate(60.4613, 8.6940)">
<polygon stroke-linejoin="round" stroke-linecap="round" stroke-width="0.0800" fill="currentColor" stroke="currentColor" points="6.9342 0.9900 6.9342 1.3900 0.0400 0.2000 0.0400 -0.2000"/>
</g>
<g transform="translate(47.4055, 11.8840)">
<path transform="scale(0.0040, -0.0040)" d="M0 -46c0 91 116 182 217 182c63 0 109 -35 109 -90c0 -87 -110 -182 -220 -182c-67 0 -106 39 -106 90z" fill="currentColor"/>
</g>
<g transform="translate(48.0576, 14.5540)">
<path transform="scale(0.0040, -0.0040)" d="M-173 68c-8 2 -15 9 -15 18c0 10 9 19 19 19c2 0 3 -1 5 -1l337 -86c8 -2 15 -9 15 -18s-7 -16 -15 -18l-337 -86c-2 0 -3 -1 -5 -1c-10 0 -19 9 -19 19c0 9 7 16 15 18l206 53l109 15l-109 15z" fill="currentColor"/>
</g>
<g transform="translate(47.4055, 21.4720)">
<path transform="scale(0.0040, -0.0040)" d="M0 -46c0 91 116 182 217 182c63 0 109 -35 109 -90c0 -87 -110 -182 -220 -182c-67 0 -106 39 -106 90z" fill="currentColor"/>
</g>
<g transform="translate(48.0576, 24.1420)">
<path transform="scale(0.0040, -0.0040)" d="M-173 68c-8 2 -15 9 -15 18c0 10 9 19 19 19c2 0 3 -1 5 -1l337 -86c8 -2 15 -9 15 -18s-7 -16 -15 -18l-337 -86c-2 0 -3 -1 -5 -1c-10 0 -19 9 -19 19c0 9 7 16 15 18l206 53l109 15l-109 15z" fill="currentColor"/>
</g>
<g transform="translate(48.6447, 11.8840)">
<rect x="-0.0650" y="-3.0032" width="0.1300" height="2.8170" ry="0.0400" fill="currentColor"/>
</g>
<g transform="translate(48.6447, 21.4720)">
<rect x="-0.0650" y="-3.4893" width="0.1300" height="3.3031" ry="0.0400" fill="currentColor"/>
</g>
<g transform="translate(46.2555, 21.4720)">
<path transform="scale(0.0040, -0.0040)" d="M27 41l-1 -66v-11c0 -22 1 -44 4 -66c45 38 93 80 93 139c0 33 -14 67 -43 67c-31 0 -52 -30 -53 -63zM-15 -138l-12 595c8 5 18 8 27 8s19 -3 27 -8l-7 -345c25 21 58 34 91 34c52 0 89 -48 89 -102c0 -80 -86 -117 -147 -169c-15 -13 -24 -38 -45 -38
c-13 0 -23 11 -23 25z" fill="currentColor"/>
</g>
<g transform="translate(69.6958, 21.4720)">
<path stroke-width="0.0800" stroke-linejoin="round" stroke-linecap="round" stroke="currentColor" fill="currentColor" d="M0.7492 4.0450C2.6968 5.0362 8.1517 3.7856 9.4729 2.0450L9.4729 2.0450C8.1248 3.6686 2.6700 4.9192 0.7492 4.0450z"/>
</g>
<g transform="translate(49.3789, 11.3840)">
<path transform="scale(0.0040, -0.0040)" d="M0 -46c0 91 116 182 217 182c63 0 109 -35 109 -90c0 -87 -110 -182 -220 -182c-67 0 -106 39 -106 90z" fill="currentColor"/>
</g>
<g transform="translate(50.0310, 12.3840)">
<path transform="scale(0.0040, -0.0040)" d="M-50 0c0 28 22 50 50 50s50 -22 50 -50s-22 -50 -50 -50s-50 22 -50 50z" fill="currentColor"/>
</g>
<g transform="translate(50.6181, 11.8840)">
<rect x="-0.0650" y="-3.1015" width="0.1300" height="2.4153" ry="0.0400" fill="currentColor"/>
</g>
<g transform="translate(75.3203, 7.8705)">
<text font-family="serif" font-style="italic" font-size="1.7459" text-anchor="start" fill="currentColor">
<tspan>3</tspan>
</text>
</g>
<g transform="translate(50.3134, 22.9720)">
<path transform="scale(0.0040, -0.0040)" d="M0 -46c0 91 116 182 217 182c63 0 109 -35 109 -90c0 -87 -110 -182 -220 -182c-67 0 -106 39 -106 90z" fill="currentColor"/>
</g>
<g transform="translate(51.5526, 21.4720)">
<rect x="-0.0650" y="-3.0102" width="0.1300" height="4.3240" ry="0.0400" fill="currentColor"/>
</g>
<g transform="translate(51.2480, 13.3840)">
<path transform="scale(0.0040, -0.0040)" d="M0 -46c0 91 116 182 217 182c63 0 109 -35 109 -90c0 -87 -110 -182 -220 -182c-67 0 -106 39 -106 90z" fill="currentColor"/>
</g>
<g transform="translate(51.9001, 15.2789)">
<path transform="scale(0.0040, -0.0040)" d="M-173 68c-8 2 -15 9 -15 18c0 10 9 19 19 19c2 0 3 -1 5 -1l337 -86c8 -2 15 -9 15 -18s-7 -16 -15 -18l-337 -86c-2 0 -3 -1 -5 -1c-10 0 -19 9 -19 19c0 9 7 16 15 18l206 53l109 15l-109 15z" fill="currentColor"/>
</g>
<g transform="translate(52.4872, 11.8840)">
<rect x="-0.0650" y="-3.1946" width="0.1300" height="4.5084" ry="0.0400" fill="currentColor"/>
</g>
<g transform="translate(69.6958, 11.8840)">
<path stroke-width="0.0800" stroke-linejoin="round" stroke-linecap="round" stroke="currentColor" fill="currentColor" d="M0.5161 1.5568C0.8882 2.2900 1.7712 2.5808 2.4894 2.2068L2.4894 2.2068C1.8087 2.4668 0.9258 2.1760 0.5161 1.5568z"/>
</g>
<g transform="translate(53.4713, 11.8840)">
<path transform="scale(0.0040, -0.0040)" d="M0 -46c0 91 116 182 217 182c63 0 109 -35 109 -90c0 -87 -110 -182 -220 -182c-67 0 -106 39 -106 90z" fill="currentColor"/>
</g>
<g transform="translate(53.4713, 23.4720)">
<path transform="scale(0.0040, -0.0040)" d="M0 -46c0 91 116 182 217 182c63 0 109 -35 109 -90c0 -87 -110 -182 -220 -182c-67 0 -106 39 -106 90z" fill="currentColor"/>
</g>
<g transform="translate(54.7105, 11.8840)">
<rect x="-0.0650" y="-3.3054" width="0.1300" height="3.1192" ry="0.0400" fill="currentColor"/>
</g>
<g transform="translate(54.7105, 21.4720)">
<rect x="-0.0650" y="-2.4898" width="0.1300" height="4.3036" ry="0.0400" fill="currentColor"/>
</g>
<g transform="translate(48.5797, 17.9720)">
<polygon stroke-linejoin="round" stroke-linecap="round" stroke-width="0.0800" fill="currentColor" stroke="currentColor" points="9.0637 1.3000 9.0637 1.7000 0.0400 0.2000 0.0400 -0.2000"/>
</g>
<g transform="translate(48.5797, 18.7820)">
<polygon stroke-linejoin="round" stroke-linecap="round" stroke-width="0.0800" fill="currentColor" stroke="currentColor" points="9.0637 1.3000 9.0637 1.7000 0.0400 0.2000 0.0400 -0.2000"/>
</g>
<g transform="translate(55.4447, 11.3840)">
<path transform="scale(0.0040, -0.0040)" d="M0 -46c0 91 116 182 217 182c63 0 109 -35 109 -90c0 -87 -110 -182 -220 -182c-67 0 -106 39 -106 90z" fill="currentColor"/>
</g>
<g transform="translate(56.6839, 11.8840)">
<rect x="-0.0650" y="-3.4037" width="0.1300" height="2.7175" ry="0.0400" fill="currentColor"/>
</g>
<g transform="translate(48.5797, 8.8840)">
<polygon stroke-linejoin="round" stroke-linecap="round" stroke-width="0.0800" fill="currentColor" stroke="currentColor" points="9.9983 -0.7000 9.9983 -0.3000 0.0400 0.2000 0.0400 -0.2000"/>
</g>
<g transform="translate(48.5797, 9.6940)">
<polygon stroke-linejoin="round" stroke-linecap="round" stroke-width="0.0800" fill="currentColor" stroke="currentColor" points="9.9983 -0.7000 9.9983 -0.3000 0.0400 0.2000 0.0400 -0.2000"/>
</g>
<g transform="translate(56.3792, 23.9720)">
<path transform="scale(0.0040, -0.0040)" d="M0 -46c0 91 116 182 217 182c63 0 109 -35 109 -90c0 -87 -110 -182 -220 -182c-67 0 -106 39 -106 90z" fill="currentColor"/>
</g>
<g transform="translate(57.0313, 24.9170)">
<path transform="scale(0.0040, -0.0040)" d="M-50 0c0 28 22 50 50 50s50 -22 50 -50s-22 -50 -50 -50s-50 22 -50 50z" fill="currentColor"/>
</g>
<g transform="translate(57.6184, 21.4720)">
<rect x="-0.0650" y="-2.0107" width="0.1300" height="4.3245" ry="0.0400" fill="currentColor"/>
</g>
<g transform="translate(59.2871, 21.4720)">
<path stroke-width="0.0800" stroke-linejoin="round" stroke-linecap="round" stroke="currentColor" fill="currentColor" d="M0.4776 1.5450C1.3340 3.3379 5.4230 5.1303 7.3218 4.5450L7.3218 4.5450C5.4712 5.0204 1.3821 3.2280 0.4776 1.5450z"/>
</g>
<g transform="translate(57.3138, 10.8840)">
<path transform="scale(0.0040, -0.0040)" d="M0 -46c0 91 116 182 217 182c63 0 109 -35 109 -90c0 -87 -110 -182 -220 -182c-67 0 -106 39 -106 90z" fill="currentColor"/>
</g>
<g transform="translate(57.9659, 12.3840)">
<path transform="scale(0.0040, -0.0040)" d="M-50 0c0 28 22 50 50 50s50 -22 50 -50s-22 -50 -50 -50s-50 22 -50 50z" fill="currentColor"/>
</g>
<g transform="translate(58.5530, 11.8840)">
<rect x="-0.0650" y="-3.4968" width="0.1300" height="2.3106" ry="0.0400" fill="currentColor"/>
</g>
<g transform="translate(59.2871, 11.8840)">
<path stroke-width="0.0800" stroke-linejoin="round" stroke-linecap="round" stroke="currentColor" fill="currentColor" d="M0.4850 0.1950C1.3694 1.9646 5.4502 3.6639 7.3292 3.0450L7.3292 3.0450C5.4964 3.5531 1.4155 1.8538 0.4850 0.1950z"/>
</g>
<g transform="translate(59.2871, 10.8840)">
<path transform="scale(0.0040, -0.0040)" d="M0 -46c0 91 116 182 217 182c63 0 109 -35 109 -90c0 -87 -110 -182 -220 -182c-67 0 -106 39 -106 90z" fill="currentColor"/>
</g>
<g transform="translate(59.9392, 14.5540)">
<path transform="scale(0.0040, -0.0040)" d="M-173 68c-8 2 -15 9 -15 18c0 10 9 19 19 19c2 0 3 -1 5 -1l337 -86c8 -2 15 -9 15 -18s-7 -16 -15 -18l-337 -86c-2 0 -3 -1 -5 -1c-10 0 -19 9 -19 19c0 9 7 16 15 18l206 53l109 15l-109 15z" fill="currentColor"/>
</g>
<g transform="translate(59.2871, 21.9720)">
<path transform="scale(0.0040, -0.0040)" d="M0 -46c0 91 116 182 217 182c63 0 109 -35 109 -90c0 -87 -110 -182 -220 -182c-67 0 -106 39 -106 90z" fill="currentColor"/>
</g>
<g transform="translate(59.9392, 24.7134)">
<path transform="scale(0.0040, -0.0040)" d="M-173 68c-8 2 -15 9 -15 18c0 10 9 19 19 19c2 0 3 -1 5 -1l337 -86c8 -2 15 -9 15 -18s-7 -16 -15 -18l-337 -86c-2 0 -3 -1 -5 -1c-10 0 -19 9 -19 19c0 9 7 16 15 18l206 53l109 15l-109 15z" fill="currentColor"/>
</g>
<g transform="translate(60.5263, 11.8840)">
<rect x="-0.0650" y="-3.9889" width="0.1300" height="2.8027" ry="0.0400" fill="currentColor"/>
</g>
<g transform="translate(60.5263, 21.4720)">
<rect x="-0.0650" y="-1.9889" width="0.1300" height="2.3027" ry="0.0400" fill="currentColor"/>
</g>
<g transform="translate(51.2480, 11.8840)">
<path stroke-width="0.0800" stroke-linejoin="round" stroke-linecap="round" stroke="currentColor" fill="currentColor" d="M0.7465 2.5450C2.3076 3.4124 5.7665 2.6426 6.8123 1.1950L6.8123 1.1950C5.7404 2.5255 2.2816 3.2953 0.7465 2.5450z"/>
</g>
<g transform="translate(61.5269, 11.3840)">
<path transform="scale(0.0040, -0.0040)" d="M0 -46c0 91 116 182 217 182c63 0 109 -35 109 -90c0 -87 -110 -182 -220 -182c-67 0 -106 39 -106 90z" fill="currentColor"/>
</g>
<g transform="translate(61.5269, 23.4720)">
<path transform="scale(0.0040, -0.0040)" d="M0 -46c0 91 116 182 217 182c63 0 109 -35 109 -90c0 -87 -110 -182 -220 -182c-67 0 -106 39 -106 90z" fill="currentColor"/>
</g>
<g transform="translate(62.7661, 11.8840)">
<rect x="-0.0650" y="-3.6067" width="0.1300" height="2.9205" ry="0.0400" fill="currentColor"/>
</g>
<g transform="translate(62.7661, 21.4720)">
<rect x="-0.0650" y="-1.6067" width="0.1300" height="3.4205" ry="0.0400" fill="currentColor"/>
</g>
<g transform="translate(38.1518, 17.9720)">
<polygon stroke-linejoin="round" stroke-linecap="round" stroke-width="0.0800" fill="currentColor" stroke="currentColor" points="7.5437 1.3000 7.5437 1.7000 0.0400 0.2000 0.0400 -0.2000"/>
</g>
<g transform="translate(38.1518, 18.7820)">
<polygon stroke-linejoin="round" stroke-linecap="round" stroke-width="0.0800" fill="currentColor" stroke="currentColor" points="7.5437 1.3000 7.5437 1.7000 0.0400 0.2000 0.0400 -0.2000"/>
</g>
<g transform="translate(63.8916, 11.8840)">
<path transform="scale(0.0040, -0.0040)" d="M0 -46c0 91 116 182 217 182c63 0 109 -35 109 -90c0 -87 -110 -182 -220 -182c-67 0 -106 39 -106 90z" fill="currentColor"/>
</g>
<g transform="translate(63.8916, 23.9720)">
<path transform="scale(0.0040, -0.0040)" d="M0 -46c0 91 116 182 217 182c63 0 109 -35 109 -90c0 -87 -110 -182 -220 -182c-67 0 -106 39 -106 90z" fill="currentColor"/>
</g>
<g transform="translate(65.1308, 11.8840)">
<rect x="-0.0650" y="-3.2033" width="0.1300" height="3.0171" ry="0.0400" fill="currentColor"/>
</g>
<g transform="translate(65.1308, 21.4720)">
<rect x="-0.0650" y="-1.2033" width="0.1300" height="3.5171" ry="0.0400" fill="currentColor"/>
</g>
<g transform="translate(38.1518, 9.0740)">
<polygon stroke-linejoin="round" stroke-linecap="round" stroke-width="0.0800" fill="currentColor" stroke="currentColor" points="7.5437 -0.2000 7.5437 0.2000 0.0400 0.2000 0.0400 -0.2000"/>
</g>
<g transform="translate(38.1518, 9.8840)">
<polygon stroke-linejoin="round" stroke-linecap="round" stroke-width="0.0800" fill="currentColor" stroke="currentColor" points="7.5437 -0.2000 7.5437 0.2000 0.0400 0.2000 0.0400 -0.2000"/>
</g>
<g transform="translate(66.1314, 13.3840)">
<path transform="scale(0.0040, -0.0040)" d="M0 -46c0 91 116 182 217 182c63 0 109 -35 109 -90c0 -87 -110 -182 -220 -182c-67 0 -106 39 -106 90z" fill="currentColor"/>
</g>
<g transform="translate(66.7835, 14.3840)">
<path transform="scale(0.0040, -0.0040)" d="M-50 0c0 28 22 50 50 50s50 -22 50 -50s-22 -50 -50 -50s-50 22 -50 50z" fill="currentColor"/>
</g>
<g transform="translate(66.1314, 24.4720)">
<path transform="scale(0.0040, -0.0040)" d="M0 -46c0 91 116 182 217 182c63 0 109 -35 109 -90c0 -87 -110 -182 -220 -182c-67 0 -106 39 -106 90z" fill="currentColor"/>
</g>
<g transform="translate(66.7835, 25.4170)">
<path transform="scale(0.0040, -0.0040)" d="M-50 0c0 28 22 50 50 50s50 -22 50 -50s-22 -50 -50 -50s-50 22 -50 50z" fill="currentColor"/>
</g>
<g transform="translate(67.3706, 11.8840)">
<rect x="-0.0650" y="-2.8211" width="0.1300" height="4.1349" ry="0.0400" fill="currentColor"/>
</g>
<g transform="translate(67.3706, 21.4720)">
<rect x="-0.0650" y="-0.8211" width="0.1300" height="3.6349" ry="0.0400" fill="currentColor"/>
</g>
<g transform="translate(47.4055, 21.4720)">
<path stroke-width="0.0800" stroke-linejoin="round" stroke-linecap="round" stroke="currentColor" fill="currentColor" d="M0.5205 1.1950C1.7334 3.0792 7.4164 4.8841 9.4942 4.0450L9.4942 4.0450C7.4527 4.7697 1.7698 2.9648 0.5205 1.1950z"/>
</g>
<g transform="translate(53.1550, 7.8706)">
<text font-family="serif" font-style="italic" font-size="1.7459" text-anchor="start" fill="currentColor">
<tspan>3</tspan>
</text>
</g>
<g transform="translate(69.6958, 11.3840)">
<path transform="scale(0.0040, -0.0040)" d="M0 -46c0 91 116 182 217 182c63 0 109 -35 109 -90c0 -87 -110 -182 -220 -182c-67 0 -106 39 -106 90z" fill="currentColor"/>
</g>
<g transform="translate(70.3479, 14.7632)">
<path transform="scale(0.0040, -0.0040)" d="M-173 68c-8 2 -15 9 -15 18c0 10 9 19 19 19c2 0 3 -1 5 -1l337 -86c8 -2 15 -9 15 -18s-7 -16 -15 -18l-337 -86c-2 0 -3 -1 -5 -1c-10 0 -19 9 -19 19c0 9 7 16 15 18l206 53l109 15l-109 15z" fill="currentColor"/>
</g>
<g transform="translate(16.7117, 16.6780)">
<path transform="scale(0.0040, -0.0040)" d="M-84 -375c0 264 -135 372 -135 375c0 21 135 96 135 375c0 258 -108 564 -108 846c0 351 186 492 192 492c9 0 18 -6 18 -15c0 -24 -138 -99 -138 -384c0 -252 102 -549 102 -828c0 -177 -39 -342 -174 -486c135 -144 174 -309 174 -486c0 -279 -102 -576 -102 -828
c0 -285 138 -360 138 -384c0 -9 -9 -15 -18 -15c-6 0 -192 141 -192 492c0 282 108 588 108 846z" fill="currentColor"/>
</g>
<g transform="translate(69.6958, 24.4720)">
<path transform="scale(0.0040, -0.0040)" d="M0 -46c0 91 116 182 217 182c63 0 109 -35 109 -90c0 -87 -110 -182 -220 -182c-67 0 -106 39 -106 90z" fill="currentColor"/>
</g>
<g transform="translate(70.3479, 26.3479)">
<path transform="scale(0.0040, -0.0040)" d="M-173 68c-8 2 -15 9 -15 18c0 10 9 19 19 19c2 0 3 -1 5 -1l337 -86c8 -2 15 -9 15 -18s-7 -16 -15 -18l-337 -86c-2 0 -3 -1 -5 -1c-10 0 -19 9 -19 19c0 9 7 16 15 18l206 53l109 15l-109 15z" fill="currentColor"/>
</g>
<g transform="translate(70.9350, 11.8840)">
<rect x="-0.0650" y="-3.4967" width="0.1300" height="2.8105" ry="0.0400" fill="currentColor"/>
</g>
<g transform="translate(70.9350, 21.4720)">
<rect x="-0.0650" y="-0.8187" width="0.1300" height="3.6325" ry="0.0400" fill="currentColor"/>
</g>
<g transform="translate(71.6691, 11.8840)">
<path transform="scale(0.0040, -0.0040)" d="M0 -46c0 91 116 182 217 182c63 0 109 -35 109 -90c0 -87 -110 -182 -220 -182c-67 0 -106 39 -106 90z" fill="currentColor"/>
</g>
<g transform="translate(72.3212, 13.3840)">
<path transform="scale(0.0040, -0.0040)" d="M-50 0c0 28 22 50 50 50s50 -22 50 -50s-22 -50 -50 -50s-50 22 -50 50z" fill="currentColor"/>
</g>
<g transform="translate(72.9083, 11.8840)">
<rect x="-0.0650" y="-3.3959" width="0.1300" height="3.2097" ry="0.0400" fill="currentColor"/>
</g>
<g transform="translate(47.4055, 11.8840)">
<path stroke-width="0.0800" stroke-linejoin="round" stroke-linecap="round" stroke="currentColor" fill="currentColor" d="M0.6851 1.1950C1.2743 1.6836 2.1497 1.6171 2.6584 1.0450L2.6584 1.0450C2.1407 1.4974 1.2652 1.5640 0.6851 1.1950z"/>
</g>
<g transform="translate(72.6037, 23.9720)">
<path transform="scale(0.0040, -0.0040)" d="M0 -46c0 91 116 182 217 182c63 0 109 -35 109 -90c0 -87 -110 -182 -220 -182c-67 0 -106 39 -106 90z" fill="currentColor"/>
</g>
<g transform="translate(73.8429, 21.4720)">
<rect x="-0.0650" y="-1.2096" width="0.1300" height="3.5234" ry="0.0400" fill="currentColor"/>
</g>
<g transform="translate(26.5203, 17.9720)">
<polygon stroke-linejoin="round" stroke-linecap="round" stroke-width="0.0800" fill="currentColor" stroke="currentColor" points="8.8137 1.3000 8.8137 1.7000 0.0400 0.2000 0.0400 -0.2000"/>
</g>
<g transform="translate(26.5203, 18.7820)">
<polygon stroke-linejoin="round" stroke-linecap="round" stroke-width="0.0800" fill="currentColor" stroke="currentColor" points="8.8137 1.3000 8.8137 1.7000 0.0400 0.2000 0.0400 -0.2000"/>
</g>
<g transform="translate(73.5383, 12.3840)">
<path transform="scale(0.0040, -0.0040)" d="M0 -46c0 91 116 182 217 182c63 0 109 -35 109 -90c0 -87 -110 -182 -220 -182c-67 0 -106 39 -106 90z" fill="currentColor"/>
</g>
<g transform="translate(74.1904, 15.4865)">
<path transform="scale(0.0040, -0.0040)" d="M-173 68c-8 2 -15 9 -15 18c0 10 9 19 19 19c2 0 3 -1 5 -1l337 -86c8 -2 15 -9 15 -18s-7 -16 -15 -18l-337 -86c-2 0 -3 -1 -5 -1c-10 0 -19 9 -19 19c0 9 7 16 15 18l206 53l109 15l-109 15z" fill="currentColor"/>
</g>
<g transform="translate(74.7775, 11.8840)">
<rect x="-0.0650" y="-3.3004" width="0.1300" height="3.6142" ry="0.0400" fill="currentColor"/>
</g>
<g transform="translate(26.5203, 9.8840)">
<polygon stroke-linejoin="round" stroke-linecap="round" stroke-width="0.0800" fill="currentColor" stroke="currentColor" points="9.7483 -0.2000 9.7483 0.2000 0.0400 0.2000 0.0400 -0.2000"/>
</g>
<g transform="translate(26.5203, 10.6940)">
<polygon stroke-linejoin="round" stroke-linecap="round" stroke-width="0.0800" fill="currentColor" stroke="currentColor" points="9.7483 -0.2000 9.7483 0.2000 0.0400 0.2000 0.0400 -0.2000"/>
</g>
<g transform="translate(75.2616, 13.8840)">
<path transform="scale(0.0040, -0.0040)" d="M0 -46c0 91 116 182 217 182c63 0 109 -35 109 -90c0 -87 -110 -182 -220 -182c-67 0 -106 39 -106 90z" fill="currentColor"/>
</g>
<g transform="translate(75.2616, 23.4720)">
<path transform="scale(0.0040, -0.0040)" d="M0 -46c0 91 116 182 217 182c63 0 109 -35 109 -90c0 -87 -110 -182 -220 -182c-67 0 -106 39 -106 90z" fill="currentColor"/>
</g>
<g transform="translate(76.5008, 11.8840)">
<rect x="-0.0650" y="-3.2124" width="0.1300" height="5.0262" ry="0.0400" fill="currentColor"/>
</g>
<g transform="translate(76.5008, 21.4720)">
<rect x="-0.0650" y="-1.5668" width="0.1300" height="3.3806" ry="0.0400" fill="currentColor"/>
</g>
<g transform="translate(74.1116, 23.4720)">
<path transform="scale(0.0040, -0.0040)" d="M27 41l-1 -66v-11c0 -22 1 -44 4 -66c45 38 93 80 93 139c0 33 -14 67 -43 67c-31 0 -52 -30 -53 -63zM-15 -138l-12 595c8 5 18 8 27 8s19 -3 27 -8l-7 -345c25 21 58 34 91 34c52 0 89 -48 89 -102c0 -80 -86 -117 -147 -169c-15 -13 -24 -38 -45 -38
c-13 0 -23 11 -23 25z" fill="currentColor"/>
</g>
<g transform="translate(36.9776, 21.4720)">
<path stroke-width="0.0800" stroke-linejoin="round" stroke-linecap="round" stroke="currentColor" fill="currentColor" d="M0.4898 0.5450C1.4482 2.3760 5.9839 4.2015 7.9435 3.5450L7.9435 3.5450C6.0287 4.0902 1.4930 2.2646 0.4898 0.5450z"/>
</g>
<g transform="translate(77.4849, 11.8840)">
<path transform="scale(0.0040, -0.0040)" d="M0 -46c0 91 116 182 217 182c63 0 109 -35 109 -90c0 -87 -110 -182 -220 -182c-67 0 -106 39 -106 90z" fill="currentColor"/>
</g>
<g transform="translate(78.7241, 11.8840)">
<rect x="-0.0650" y="-3.0988" width="0.1300" height="2.9126" ry="0.0400" fill="currentColor"/>
</g>
<g transform="translate(36.9776, 11.8840)">
<path stroke-width="0.0800" stroke-linejoin="round" stroke-linecap="round" stroke="currentColor" fill="currentColor" d="M0.6521 2.0450C2.1538 3.3418 6.6041 3.3418 8.1058 2.0450L8.1058 2.0450C6.6041 3.2218 2.1538 3.2218 0.6521 2.0450z"/>
</g>
<g transform="translate(78.4195, 21.9720)">
<path transform="scale(0.0040, -0.0040)" d="M0 -46c0 91 116 182 217 182c63 0 109 -35 109 -90c0 -87 -110 -182 -220 -182c-67 0 -106 39 -106 90z" fill="currentColor"/>
</g>
<g transform="translate(79.0716, 22.9720)">
<path transform="scale(0.0040, -0.0040)" d="M-50 0c0 28 22 50 50 50s50 -22 50 -50s-22 -50 -50 -50s-50 22 -50 50z" fill="currentColor"/>
</g>
<g transform="translate(79.6587, 21.4720)">
<rect x="-0.0650" y="-1.9913" width="0.1300" height="2.3051" ry="0.0400" fill="currentColor"/>
</g>
<g transform="translate(29.4385, 11.8840)">
<path stroke-width="0.0800" stroke-linejoin="round" stroke-linecap="round" stroke="currentColor" fill="currentColor" d="M0.6521 3.1950C1.8913 4.3114 4.9787 4.3114 6.2179 3.1950L6.2179 3.1950C4.9787 4.1914 1.8913 4.1914 0.6521 3.1950z"/>
</g>
<g transform="translate(79.3541, 12.3840)">
<path transform="scale(0.0040, -0.0040)" d="M0 -46c0 91 116 182 217 182c63 0 109 -35 109 -90c0 -87 -110 -182 -220 -182c-67 0 -106 39 -106 90z" fill="currentColor"/>
</g>
<g transform="translate(80.0062, 13.3840)">
<path transform="scale(0.0040, -0.0040)" d="M-50 0c0 28 22 50 50 50s50 -22 50 -50s-22 -50 -50 -50s-50 22 -50 50z" fill="currentColor"/>
</g>
<g transform="translate(80.5933, 11.8840)">
<rect x="-0.0650" y="-3.0033" width="0.1300" height="3.3171" ry="0.0400" fill="currentColor"/>
</g>
<g transform="translate(25.3461, 21.4720)">
<path stroke-width="0.0800" stroke-linejoin="round" stroke-linecap="round" stroke="currentColor" fill="currentColor" d="M0.5171 0.1950C1.6949 2.0683 7.1842 3.8617 9.2408 3.0450L9.2408 3.0450C7.2215 3.7476 1.7321 1.9542 0.5171 0.1950z"/>
</g>
<g transform="translate(81.3274, 12.8840)">
<path transform="scale(0.0040, -0.0040)" d="M0 -46c0 91 116 182 217 182c63 0 109 -35 109 -90c0 -87 -110 -182 -220 -182c-67 0 -106 39 -106 90z" fill="currentColor"/>
</g>
<g transform="translate(81.9795, 16.1288)">
<path transform="scale(0.0040, -0.0040)" d="M-173 68c-8 2 -15 9 -15 18c0 10 9 19 19 19c2 0 3 -1 5 -1l337 -86c8 -2 15 -9 15 -18s-7 -16 -15 -18l-337 -86c-2 0 -3 -1 -5 -1c-10 0 -19 9 -19 19c0 9 7 16 15 18l206 53l109 15l-109 15z" fill="currentColor"/>
</g>
<g transform="translate(81.3274, 23.9720)">
<path transform="scale(0.0040, -0.0040)" d="M0 -46c0 91 116 182 217 182c63 0 109 -35 109 -90c0 -87 -110 -182 -220 -182c-67 0 -106 39 -106 90z" fill="currentColor"/>
</g>
<g transform="translate(81.9795, 25.8971)">
<path transform="scale(0.0040, -0.0040)" d="M-173 68c-8 2 -15 9 -15 18c0 10 9 19 19 19c2 0 3 -1 5 -1l337 -86c8 -2 15 -9 15 -18s-7 -16 -15 -18l-337 -86c-2 0 -3 -1 -5 -1c-10 0 -19 9 -19 19c0 9 7 16 15 18l206 53l109 15l-109 15z" fill="currentColor"/>
</g>
<g transform="translate(82.5666, 11.8840)">
<rect x="-0.0650" y="-2.0000" width="0.1300" height="2.8138" ry="0.0400" fill="currentColor"/>
</g>
<g transform="translate(82.5666, 21.4720)">
<rect x="-0.0650" y="-2.8215" width="0.1300" height="5.1353" ry="0.0400" fill="currentColor"/>
</g>
<g transform="translate(30.9705, 9.1238)">
<text font-family="serif" font-style="italic" font-size="1.7459" text-anchor="start" fill="currentColor">
<tspan>3</tspan>
</text>
</g>
<g transform="translate(83.5671, 14.3840)">
<path transform="scale(0.0040, -0.0040)" d="M0 -46c0 91 116 182 217 182c63 0 109 -35 109 -90c0 -87 -110 -182 -220 -182c-67 0 -106 39 -106 90z" fill="currentColor"/>
</g>
<g transform="translate(83.5671, 23.4720)">
<path transform="scale(0.0040, -0.0040)" d="M0 -46c0 91 116 182 217 182c63 0 109 -35 109 -90c0 -87 -110 -182 -220 -182c-67 0 -106 39 -106 90z" fill="currentColor"/>
</g>
<g transform="translate(84.8063, 11.8840)">
<rect x="-0.0650" y="-2.0000" width="0.1300" height="4.3138" ry="0.0400" fill="currentColor"/>
</g>
<g transform="translate(84.8063, 21.4720)">
<rect x="-0.0650" y="-3.2160" width="0.1300" height="5.0298" ry="0.0400" fill="currentColor"/>
</g>
<g transform="translate(86.0569, 12.3840)">
<path transform="scale(0.0040, -0.0040)" d="M0 -46c0 91 116 182 217 182c63 0 109 -35 109 -90c0 -87 -110 -182 -220 -182c-67 0 -106 39 -106 90z" fill="currentColor"/>
</g>
<g transform="translate(86.0569, 22.9720)">
<path transform="scale(0.0040, -0.0040)" d="M0 -46c0 91 116 182 217 182c63 0 109 -35 109 -90c0 -87 -110 -182 -220 -182c-67 0 -106 39 -106 90z" fill="currentColor"/>
</g>
<g transform="translate(87.2961, 11.8840)">
<rect x="-0.0650" y="-2.0000" width="0.1300" height="2.3138" ry="0.0400" fill="currentColor"/>
</g>
<g transform="translate(87.2961, 21.4720)">
<rect x="-0.0650" y="-3.6546" width="0.1300" height="4.9684" ry="0.0400" fill="currentColor"/>
</g>
<g transform="translate(25.3461, 11.8840)">
<path stroke-width="0.0800" stroke-linejoin="round" stroke-linecap="round" stroke="currentColor" fill="currentColor" d="M0.8304 4.0450C1.6876 4.3485 2.7122 3.8877 3.0538 3.0450L3.0538 3.0450C2.6629 3.7783 1.6383 4.2391 0.8304 4.0450z"/>
</g>
<g transform="translate(89.0311, 12.8840)">
<path transform="scale(0.0040, -0.0040)" d="M0 -46c0 91 116 182 217 182c63 0 109 -35 109 -90c0 -87 -110 -182 -220 -182c-67 0 -106 39 -106 90z" fill="currentColor"/>
</g>
<g transform="translate(89.6832, 14.3840)">
<path transform="scale(0.0040, -0.0040)" d="M-50 0c0 28 22 50 50 50s50 -22 50 -50s-22 -50 -50 -50s-50 22 -50 50z" fill="currentColor"/>
</g>
<g transform="translate(89.0311, 21.4720)">
<path transform="scale(0.0040, -0.0040)" d="M0 -46c0 91 116 182 217 182c63 0 109 -35 109 -90c0 -87 -110 -182 -220 -182c-67 0 -106 39 -106 90z" fill="currentColor"/>
</g>
<g transform="translate(89.6832, 22.9720)">
<path transform="scale(0.0040, -0.0040)" d="M-50 0c0 28 22 50 50 50s50 -22 50 -50s-22 -50 -50 -50s-50 22 -50 50z" fill="currentColor"/>
</g>
<g transform="translate(90.2703, 11.8840)">
<rect x="-0.0650" y="-2.0000" width="0.1300" height="2.8138" ry="0.0400" fill="currentColor"/>
</g>
<g transform="translate(90.2703, 21.4720)">
<rect x="-0.0650" y="-4.1785" width="0.1300" height="3.9923" ry="0.0400" fill="currentColor"/>
</g>
<g transform="translate(87.8811, 21.4720)">
<path transform="scale(0.0040, -0.0040)" d="M27 41l-1 -66v-11c0 -22 1 -44 4 -66c45 38 93 80 93 139c0 33 -14 67 -43 67c-31 0 -52 -30 -53 -63zM-15 -138l-12 595c8 5 18 8 27 8s19 -3 27 -8l-7 -345c25 21 58 34 91 34c52 0 89 -48 89 -102c0 -80 -86 -117 -147 -169c-15 -13 -24 -38 -45 -38
c-13 0 -23 11 -23 25z" fill="currentColor"/>
</g>
<g transform="translate(91.2708, 13.3840)">
<path transform="scale(0.0040, -0.0040)" d="M0 -46c0 91 116 182 217 182c63 0 109 -35 109 -90c0 -87 -110 -182 -220 -182c-67 0 -106 39 -106 90z" fill="currentColor"/>
</g>
<g transform="translate(91.9229, 14.5540)">
<path transform="scale(0.0040, -0.0040)" d="M-173 68c-8 2 -15 9 -15 18c0 10 9 19 19 19c2 0 3 -1 5 -1l337 -86c8 -2 15 -9 15 -18s-7 -16 -15 -18l-337 -86c-2 0 -3 -1 -5 -1c-10 0 -19 9 -19 19c0 9 7 16 15 18l206 53l109 15l-109 15z" fill="currentColor"/>
</g>
<g transform="translate(91.2708, 23.4720)">
<path transform="scale(0.0040, -0.0040)" d="M0 -46c0 91 116 182 217 182c63 0 109 -35 109 -90c0 -87 -110 -182 -220 -182c-67 0 -106 39 -106 90z" fill="currentColor"/>
</g>
<g transform="translate(91.9229, 25.3301)">
<path transform="scale(0.0040, -0.0040)" d="M-173 68c-8 2 -15 9 -15 18c0 10 9 19 19 19c2 0 3 -1 5 -1l337 -86c8 -2 15 -9 15 -18s-7 -16 -15 -18l-337 -86c-2 0 -3 -1 -5 -1c-10 0 -19 9 -19 19c0 9 7 16 15 18l206 53l109 15l-109 15z" fill="currentColor"/>
</g>
<g transform="translate(92.5100, 11.8840)">
<rect x="-0.0650" y="-2.0000" width="0.1300" height="3.3138" ry="0.0400" fill="currentColor"/>
</g>
<g transform="translate(92.5750, 9.9240)">
<path transform="scale(0.0040, -0.0040)" d="M123 -854c0 10 42 76 42 172c0 97 -94 190 -165 257v-125h-16v550h16c0 -177 201 -293 201 -470c0 -33 -9 -65 -23 -95c18 -37 29 -75 29 -117c0 -63 -15 -125 -41 -183c-5 -8 -13 -12 -20 -12c-12 0 -23 9 -23 23zM151 -517c5 15 8 31 8 47c0 96 -91 190 -159 257
c0 -118 90 -206 151 -304z" fill="currentColor"/>
</g>
<g transform="translate(92.5100, 21.4720)">
<rect x="-0.0650" y="-2.0126" width="0.1300" height="3.8264" ry="0.0400" fill="currentColor"/>
</g>
<g transform="translate(93.6356, 14.8840)">
<path transform="scale(0.0040, -0.0040)" d="M0 -46c0 91 116 182 217 182c63 0 109 -35 109 -90c0 -87 -110 -182 -220 -182c-67 0 -106 39 -106 90z" fill="currentColor"/>
</g>
<g transform="translate(94.2877, 15.8290)">
<path transform="scale(0.0040, -0.0040)" d="M-50 0c0 28 22 50 50 50s50 -22 50 -50s-22 -50 -50 -50s-50 22 -50 50z" fill="currentColor"/>
</g>
<g transform="translate(93.6356, 22.9720)">
<path transform="scale(0.0040, -0.0040)" d="M0 -46c0 91 116 182 217 182c63 0 109 -35 109 -90c0 -87 -110 -182 -220 -182c-67 0 -106 39 -106 90z" fill="currentColor"/>
</g>
<g transform="translate(94.8748, 11.8840)">
<rect x="-0.0650" y="-0.5000" width="0.1300" height="3.3138" ry="0.0400" fill="currentColor"/>
</g>
<g transform="translate(94.9398, 11.4240)">
<path transform="scale(0.0040, -0.0040)" d="M123 -854c0 10 42 76 42 172c0 97 -94 190 -165 257v-125h-16v550h16c0 -177 201 -293 201 -470c0 -33 -9 -65 -23 -95c18 -37 29 -75 29 -117c0 -63 -15 -125 -41 -183c-5 -8 -13 -12 -20 -12c-12 0 -23 9 -23 23zM151 -517c5 15 8 31 8 47c0 96 -91 190 -159 257
c0 -118 90 -206 151 -304z" fill="currentColor"/>
</g>
<g transform="translate(94.8748, 21.4720)">
<rect x="-0.0650" y="-2.4701" width="0.1300" height="3.7839" ry="0.0400" fill="currentColor"/>
</g>
<g transform="translate(96.2791, 22.4720)">
<path transform="scale(0.0040, -0.0040)" d="M0 -46c0 91 116 182 217 182c63 0 109 -35 109 -90c0 -87 -110 -182 -220 -182c-67 0 -106 39 -106 90z" fill="currentColor"/>
</g>
<g transform="translate(97.5183, 21.4720)">
<rect x="-0.0650" y="-2.9815" width="0.1300" height="3.7953" ry="0.0400" fill="currentColor"/>
</g>
<g transform="translate(98.8939, 20.9720)">
<path transform="scale(0.0040, -0.0040)" d="M0 -46c0 91 116 182 217 182c63 0 109 -35 109 -90c0 -87 -110 -182 -220 -182c-67 0 -106 39 -106 90z" fill="currentColor"/>
</g>
<g transform="translate(99.5460, 21.9720)">
<path transform="scale(0.0040, -0.0040)" d="M-50 0c0 28 22 50 50 50s50 -22 50 -50s-22 -50 -50 -50s-50 22 -50 50z" fill="currentColor"/>
</g>
<g transform="translate(100.1331, 21.4720)">
<rect x="-0.0650" y="-3.4874" width="0.1300" height="2.8012" ry="0.0400" fill="currentColor"/>
</g>
<g transform="translate(101.0086, 22.9720)">
<path transform="scale(0.0040, -0.0040)" d="M0 -46c0 91 116 182 217 182c63 0 109 -35 109 -90c0 -87 -110 -182 -220 -182c-67 0 -106 39 -106 90z" fill="currentColor"/>
</g>
<g transform="translate(101.6607, 24.8920)">
<path transform="scale(0.0040, -0.0040)" d="M-173 68c-8 2 -15 9 -15 18c0 10 9 19 19 19c2 0 3 -1 5 -1l337 -86c8 -2 15 -9 15 -18s-7 -16 -15 -18l-337 -86c-2 0 -3 -1 -5 -1c-10 0 -19 9 -19 19c0 9 7 16 15 18l206 53l109 15l-109 15z" fill="currentColor"/>
</g>
<g transform="translate(102.2478, 21.4720)">
<rect x="-0.0650" y="-2.0130" width="0.1300" height="3.3268" ry="0.0400" fill="currentColor"/>
</g>
<g transform="translate(103.3734, 22.4720)">
<path transform="scale(0.0040, -0.0040)" d="M0 -46c0 91 116 182 217 182c63 0 109 -35 109 -90c0 -87 -110 -182 -220 -182c-67 0 -106 39 -106 90z" fill="currentColor"/>
</g>
<g transform="translate(104.6126, 21.4720)">
<rect x="-0.0650" y="-2.4876" width="0.1300" height="3.3014" ry="0.0400" fill="currentColor"/>
</g>
<g transform="translate(105.7381, 21.9720)">
<path transform="scale(0.0040, -0.0040)" d="M0 -46c0 91 116 182 217 182c63 0 109 -35 109 -90c0 -87 -110 -182 -220 -182c-67 0 -106 39 -106 90z" fill="currentColor"/>
</g>
<g transform="translate(106.9773, 21.4720)">
<rect x="-0.0650" y="-2.9622" width="0.1300" height="3.2760" ry="0.0400" fill="currentColor"/>
</g>
<g transform="translate(108.3529, 20.4720)">
<path transform="scale(0.0040, -0.0040)" d="M0 -46c0 91 116 182 217 182c63 0 109 -35 109 -90c0 -87 -110 -182 -220 -182c-67 0 -106 39 -106 90z" fill="currentColor"/>
</g>
<g transform="translate(109.0050, 21.9720)">
<path transform="scale(0.0040, -0.0040)" d="M-50 0c0 28 22 50 50 50s50 -22 50 -50s-22 -50 -50 -50s-50 22 -50 50z" fill="currentColor"/>
</g>
<g transform="translate(109.5921, 21.4720)">
<rect x="-0.0650" y="-3.4870" width="0.1300" height="2.3008" ry="0.0400" fill="currentColor"/>
</g>
<g transform="translate(51.5735, 162.8440)">
<a xlink:href="https://lilypond.org">
<rect x="0.0000" y="-0.4748" width="16.3546" height="2.0024" fill="none" stroke="none" stroke-width="0.0"/>
</a>
</g>
<g transform="translate(51.5735, 162.8440)">
<text font-family="serif" font-size="2.2000" text-anchor="start" fill="currentColor">
<tspan>LilyPond v2.25.24</tspan>
</text>
</g>
</svg>
