<svg xmlns="http://www.w3.org/2000/svg" xmlns:xlink="http://www.w3.org/1999/xlink" version="1.2" width="210.00mm" height="297.00mm" viewBox="0.0000 -0.0000 119.5016 169.0094">
<style type="text/css">
<![CDATA[
tspan { white-space: pre; }
]]>
</style>
<g transform="translate(8.5358, 15.7278)">
<rect x="22.1149" y="-0.1000" width="1.8899" height="0.2000" ry="0.1000" fill="currentColor"/>
</g>
<g transform="translate(8.5358, 15.7278)">
<rect x="19.7720" y="-0.1000" width="1.9563" height="0.2000" ry="0.1000" fill="currentColor"/>
</g>
<g transform="translate(8.5358, 15.7278)">
<rect x="16.9098" y="-0.1000" width="1.9563" height="0.2000" ry="0.1000" fill="currentColor"/>
</g>
<g transform="translate(17.0717, 14.7278)">
<line stroke-linejoin="round" stroke-linecap="round" stroke-width="0.1000" stroke="currentColor" x1="0.0500" y1="0" x2="93.8441" y2="0"/>
</g>
<g transform="translate(17.0717, 13.7278)">
<line stroke-linejoin="round" stroke-linecap="round" stroke-width="0.1000" stroke="currentColor" x1="0.0500" y1="0" x2="93.8441" y2="0"/>
</g>
<g transform="translate(17.0717, 12.7278)">
<line stroke-linejoin="round" stroke-linecap="round" stroke-width="0.1000" stroke="currentColor" x1="0.0500" y1="0" x2="93.8441" y2="0"/>
</g>
<g transform="translate(17.0717, 11.7278)">
<line stroke-linejoin="round" stroke-linecap="round" stroke-width="0.1000" stroke="currentColor" x1="0.0500" y1="0" x2="93.8441" y2="0"/>
</g>
<g transform="translate(17.0717, 10.7278)">
<line stroke-linejoin="round" stroke-linecap="round" stroke-width="0.1000" stroke="currentColor" x1="0.0500" y1="0" x2="93.8441" y2="0"/>
</g>
<g transform="translate(110.7757, 12.7278)">
<rect x="0.0000" y="-2.0000" width="0.1900" height="4.0000" ry="0.0000" fill="currentColor"/>
</g>
<g transform="translate(86.4489, 14.9178)">
<polygon stroke-linejoin="round" stroke-linecap="round" stroke-width="0.0800" fill="currentColor" stroke="currentColor" points="13.5551 -0.5100 13.5551 -0.1100 0.0400 0.2000 0.0400 -0.2000"/>
</g>
<g transform="translate(86.4489, 15.7278)">
<polygon stroke-linejoin="round" stroke-linecap="round" stroke-width="0.0800" fill="currentColor" stroke="currentColor" points="13.5551 -0.5100 13.5551 -0.1100 0.0400 0.2000 0.0400 -0.2000"/>
</g>
<g transform="translate(86.4489, 16.5378)">
<polygon stroke-linejoin="round" stroke-linecap="round" stroke-width="0.0800" fill="currentColor" stroke="currentColor" points="13.5551 -0.5100 13.5551 -0.1100 0.0400 0.2000 0.0400 -0.2000"/>
</g>
<g transform="translate(25.7717, 15.7278)">
<path transform="scale(0.0040, -0.0040)" d="M218 136c66 0 108 -36 108 -89c0 -89 -113 -183 -218 -183c-66 0 -108 36 -108 89c0 89 113 183 218 183z" fill="currentColor"/>
</g>
<g transform="translate(17.8717, 13.7278)">
<path transform="scale(0.0040, -0.0040)" d="M266 -635h-6c-108 0 -195 88 -195 197c0 58 53 103 112 103c54 0 95 -47 95 -103c0 -52 -43 -95 -95 -95c-11 0 -21 2 -31 6c26 -39 68 -65 117 -65h4zM461 -203c68 24 113 90 113 164c0 90 -66 179 -173 190c19 -89 48 -242 60 -354zM74 28c0 -145 141 -247 264 -247
c1 0 47 0 82 6c-7 64 -29 203 -63 364c-79 -8 -124 -61 -124 -119c0 -44 25 -91 81 -123c5 -5 7 -10 7 -15c0 -11 -10 -22 -22 -22c-15 0 -126 62 -126 187c0 88 58 174 160 197c-14 58 -29 117 -46 175c-107 -121 -213 -243 -213 -403zM250 553c-29 96 -52 170 -52 346
c0 115 55 224 149 292c6 5 14 5 20 0c68 -80 133 -245 133 -358c0 -143 -86 -255 -180 -364c21 -68 39 -138 56 -207c2 0 7 1 13 1c155 0 256 -128 256 -261c0 -113 -74 -212 -180 -246c3 -35 5 -70 5 -105c0 -19 -1 -39 -2 -58c-7 -119 -88 -225 -202 -228l1 43
c93 2 153 92 159 191c1 18 2 37 2 55c0 31 -1 61 -4 92c-5 -1 -44 -8 -89 -8c-193 0 -333 180 -333 374c0 177 131 306 248 441zM428 916c0 34 1 66 -20 129c-99 -48 -162 -149 -162 -259c0 -52 12 -115 36 -194c80 97 146 198 146 324z" fill="currentColor"/>
</g>
<g transform="translate(22.0717, 12.7278)">
<path transform="scale(0.0040, -0.0040)" d="M250 262c116 0 176 -106 176 -163c0 -40 -30 -72 -67 -72c-31 0 -75 25 -75 75c0 38 27 77 72 77c4 0 9 0 14 -1c-28 37 -72 59 -120 59c-106 0 -113 -73 -113 -186v-51v-51c0 -113 7 -187 113 -187c80 0 139 70 158 151c2 7 7 10 12 10c6 0 13 -4 13 -12
c0 -22 -50 -174 -183 -174c-59 0 -250 19 -250 263c0 62 18 262 250 262z" fill="currentColor"/>
</g>
<g transform="translate(22.0717, 9.3632)">
<rect x="1.0449" y="-2.6727" width="0.1158" height="2.5129" ry="0.0193" fill="currentColor"/>
</g>
<g transform="translate(22.0717, 9.3632)">
<path transform="scale(0.0036, -0.0036)" d="M215 137c67 0 111 -37 111 -92c0 -90 -111 -182 -215 -182c-67 0 -111 37 -111 92c0 90 111 182 215 182z" fill="currentColor"/>
</g>
<g transform="translate(23.2323, 9.8520)">
<text font-family="serif" font-size="2.2001" text-anchor="start" fill="currentColor">
<tspan> = 54</tspan>
</text>
</g>
<g transform="translate(27.0109, 12.7278)">
<rect x="-0.0650" y="-2.0007" width="0.1300" height="4.8145" ry="0.0400" fill="currentColor"/>
</g>
<g transform="translate(104.4653, 18.1371)">
<text font-family="serif" font-style="italic" font-size="1.7461" text-anchor="start" fill="currentColor">
<tspan>5</tspan>
</text>
</g>
<g transform="translate(28.6339, 15.7278)">
<path transform="scale(0.0040, -0.0040)" d="M218 136c66 0 108 -36 108 -89c0 -89 -113 -183 -218 -183c-66 0 -108 36 -108 89c0 89 113 183 218 183z" fill="currentColor"/>
</g>
<g transform="translate(29.8731, 12.7278)">
<rect x="-0.0650" y="-2.0314" width="0.1300" height="4.8452" ry="0.0400" fill="currentColor"/>
</g>
<g transform="translate(99.9141, 17.5692)">
<line stroke-linejoin="round" stroke-linecap="round" stroke-width="0.1600" stroke="currentColor" x1="10.1902" y1="-0.0000" x2="10.1902" y2="-0.7000"/>
</g>
<g transform="translate(99.9141, 17.5692)">
<line stroke-linejoin="round" stroke-linecap="round" stroke-width="0.1600" stroke="currentColor" x1="-0.2000" y1="-0.0000" x2="-0.2000" y2="-0.7000"/>
</g>
<g transform="translate(99.9141, 17.5692)">
<line stroke-linejoin="round" stroke-linecap="round" stroke-width="0.1600" stroke="currentColor" x1="10.1902" y1="-0.0000" x2="6.0390" y2="-0.0000"/>
</g>
<g transform="translate(99.9141, 17.5692)">
<line stroke-linejoin="round" stroke-linecap="round" stroke-width="0.1600" stroke="currentColor" x1="-0.2000" y1="-0.0000" x2="4.1512" y2="-0.0000"/>
</g>
<g transform="translate(30.9768, 15.7278)">
<path transform="scale(0.0040, -0.0040)" d="M218 136c66 0 108 -36 108 -89c0 -89 -113 -183 -218 -183c-66 0 -108 36 -108 89c0 89 113 183 218 183z" fill="currentColor"/>
</g>
<g transform="translate(32.2160, 12.7278)">
<rect x="-0.0650" y="-2.0566" width="0.1300" height="4.8704" ry="0.0400" fill="currentColor"/>
</g>
<g transform="translate(97.9905, 12.7278)">
<path stroke-width="0.0800" stroke-linejoin="round" stroke-linecap="round" stroke="currentColor" fill="currentColor" d="M0.8521 -1.2250C1.2466 -1.7134 1.9812 -1.7134 2.3757 -1.2250L2.3757 -1.2250C1.9812 -1.5934 1.2466 -1.5934 0.8521 -1.2250z"/>
</g>
<g transform="translate(32.8003, 15.2278)">
<path transform="scale(0.0040, -0.0040)" d="M218 136c66 0 108 -36 108 -89c0 -89 -113 -183 -218 -183c-66 0 -108 36 -108 89c0 89 113 183 218 183z" fill="currentColor"/>
</g>
<g transform="translate(34.0395, 12.7278)">
<rect x="-0.0650" y="-2.0762" width="0.1300" height="4.3900" ry="0.0400" fill="currentColor"/>
</g>
<g transform="translate(34.6239, 15.2278)">
<path transform="scale(0.0040, -0.0040)" d="M218 136c66 0 108 -36 108 -89c0 -89 -113 -183 -218 -183c-66 0 -108 36 -108 89c0 89 113 183 218 183z" fill="currentColor"/>
</g>
<g transform="translate(35.8631, 12.7278)">
<rect x="-0.0650" y="-2.0958" width="0.1300" height="4.4096" ry="0.0400" fill="currentColor"/>
</g>
<g transform="translate(96.0669, 12.7278)">
<path stroke-width="0.0800" stroke-linejoin="round" stroke-linecap="round" stroke="currentColor" fill="currentColor" d="M0.8521 -1.2250C1.2466 -1.7134 1.9812 -1.7134 2.3757 -1.2250L2.3757 -1.2250C1.9812 -1.5934 1.2466 -1.5934 0.8521 -1.2250z"/>
</g>
<g transform="translate(36.7996, 15.2278)">
<path transform="scale(0.0040, -0.0040)" d="M218 136c66 0 108 -36 108 -89c0 -89 -113 -183 -218 -183c-66 0 -108 36 -108 89c0 89 113 183 218 183z" fill="currentColor"/>
</g>
<g transform="translate(38.0388, 12.7278)">
<rect x="-0.0650" y="-2.1192" width="0.1300" height="4.4330" ry="0.0400" fill="currentColor"/>
</g>
<g transform="translate(38.9753, 15.2278)">
<path transform="scale(0.0040, -0.0040)" d="M218 136c66 0 108 -36 108 -89c0 -89 -113 -183 -218 -183c-66 0 -108 36 -108 89c0 89 113 183 218 183z" fill="currentColor"/>
</g>
<g transform="translate(40.2145, 12.7278)">
<rect x="-0.0650" y="-2.1426" width="0.1300" height="4.4564" ry="0.0400" fill="currentColor"/>
</g>
<g transform="translate(94.1433, 12.7278)">
<path stroke-width="0.0800" stroke-linejoin="round" stroke-linecap="round" stroke="currentColor" fill="currentColor" d="M0.8521 -1.2250C1.2466 -1.7134 1.9812 -1.7134 2.3757 -1.2250L2.3757 -1.2250C1.9812 -1.5934 1.2466 -1.5934 0.8521 -1.2250z"/>
</g>
<g transform="translate(41.1509, 15.2278)">
<path transform="scale(0.0040, -0.0040)" d="M218 136c66 0 108 -36 108 -89c0 -89 -113 -183 -218 -183c-66 0 -108 36 -108 89c0 89 113 183 218 183z" fill="currentColor"/>
</g>
<g transform="translate(42.3901, 12.7278)">
<rect x="-0.0650" y="-2.1659" width="0.1300" height="4.4797" ry="0.0400" fill="currentColor"/>
</g>
<g transform="translate(43.3266, 14.7278)">
<path transform="scale(0.0040, -0.0040)" d="M218 136c66 0 108 -36 108 -89c0 -89 -113 -183 -218 -183c-66 0 -108 36 -108 89c0 89 113 183 218 183z" fill="currentColor"/>
</g>
<g transform="translate(44.5658, 12.7278)">
<rect x="-0.0650" y="-2.1893" width="0.1300" height="4.0031" ry="0.0400" fill="currentColor"/>
</g>
<g transform="translate(92.2197, 12.7278)">
<path stroke-width="0.0800" stroke-linejoin="round" stroke-linecap="round" stroke="currentColor" fill="currentColor" d="M0.8521 -1.2250C1.2466 -1.7134 1.9812 -1.7134 2.3757 -1.2250L2.3757 -1.2250C1.9812 -1.5934 1.2466 -1.5934 0.8521 -1.2250z"/>
</g>
<g transform="translate(45.5023, 14.7278)">
<path transform="scale(0.0040, -0.0040)" d="M218 136c66 0 108 -36 108 -89c0 -89 -113 -183 -218 -183c-66 0 -108 36 -108 89c0 89 113 183 218 183z" fill="currentColor"/>
</g>
<g transform="translate(46.7415, 12.7278)">
<rect x="-0.0650" y="-1.8120" width="0.1300" height="3.6258" ry="0.0400" fill="currentColor"/>
</g>
<g transform="translate(47.4259, 14.7278)">
<path transform="scale(0.0040, -0.0040)" d="M218 136c66 0 108 -36 108 -89c0 -89 -113 -183 -218 -183c-66 0 -108 36 -108 89c0 89 113 183 218 183z" fill="currentColor"/>
</g>
<g transform="translate(48.6651, 12.7278)">
<rect x="-0.0650" y="-1.8715" width="0.1300" height="3.6853" ry="0.0400" fill="currentColor"/>
</g>
<g transform="translate(90.2961, 12.7278)">
<path stroke-width="0.0800" stroke-linejoin="round" stroke-linecap="round" stroke="currentColor" fill="currentColor" d="M0.8521 -1.2250C1.2466 -1.7134 1.9812 -1.7134 2.3757 -1.2250L2.3757 -1.2250C1.9812 -1.5934 1.2466 -1.5934 0.8521 -1.2250z"/>
</g>
<g transform="translate(49.3495, 14.7278)">
<path transform="scale(0.0040, -0.0040)" d="M218 136c66 0 108 -36 108 -89c0 -89 -113 -183 -218 -183c-66 0 -108 36 -108 89c0 89 113 183 218 183z" fill="currentColor"/>
</g>
<g transform="translate(50.5887, 12.7278)">
<rect x="-0.0650" y="-1.9311" width="0.1300" height="3.7449" ry="0.0400" fill="currentColor"/>
</g>
<g transform="translate(51.2731, 14.7278)">
<path transform="scale(0.0040, -0.0040)" d="M218 136c66 0 108 -36 108 -89c0 -89 -113 -183 -218 -183c-66 0 -108 36 -108 89c0 89 113 183 218 183z" fill="currentColor"/>
</g>
<g transform="translate(52.5123, 12.7278)">
<rect x="-0.0650" y="-1.9906" width="0.1300" height="3.8044" ry="0.0400" fill="currentColor"/>
</g>
<g transform="translate(86.4489, 12.7278)">
<path stroke-width="0.0800" stroke-linejoin="round" stroke-linecap="round" stroke="currentColor" fill="currentColor" d="M0.8521 -1.2250C1.2466 -1.7134 1.9812 -1.7134 2.3757 -1.2250L2.3757 -1.2250C1.9812 -1.5934 1.2466 -1.5934 0.8521 -1.2250z"/>
</g>
<g transform="translate(53.1967, 14.7278)">
<path transform="scale(0.0040, -0.0040)" d="M218 136c66 0 108 -36 108 -89c0 -89 -113 -183 -218 -183c-66 0 -108 36 -108 89c0 89 113 183 218 183z" fill="currentColor"/>
</g>
<g transform="translate(54.4359, 12.7278)">
<rect x="-0.0650" y="-2.0501" width="0.1300" height="3.8639" ry="0.0400" fill="currentColor"/>
</g>
<g transform="translate(55.1203, 14.2278)">
<path transform="scale(0.0040, -0.0040)" d="M218 136c66 0 108 -36 108 -89c0 -89 -113 -183 -218 -183c-66 0 -108 36 -108 89c0 89 113 183 218 183z" fill="currentColor"/>
</g>
<g transform="translate(56.3595, 12.7278)">
<rect x="-0.0650" y="-2.1096" width="0.1300" height="3.4234" ry="0.0400" fill="currentColor"/>
</g>
<g transform="translate(71.0202, 9.2278)">
<polygon stroke-linejoin="round" stroke-linecap="round" stroke-width="0.0800" fill="currentColor" stroke="currentColor" points="14.5172 -0.2000 14.5172 0.2000 0.0400 0.2000 0.0400 -0.2000"/>
</g>
<g transform="translate(71.0202, 10.0378)">
<polygon stroke-linejoin="round" stroke-linecap="round" stroke-width="0.0800" fill="currentColor" stroke="currentColor" points="14.5172 -0.2000 14.5172 0.2000 0.0400 0.2000 0.0400 -0.2000"/>
</g>
<g transform="translate(76.7446, 10.8478)">
<polygon stroke-linejoin="round" stroke-linecap="round" stroke-width="0.0800" fill="currentColor" stroke="currentColor" points="8.7928 -0.2000 8.7928 0.2000 0.0400 0.2000 0.0400 -0.2000"/>
</g>
<g transform="translate(57.0439, 14.2278)">
<path transform="scale(0.0040, -0.0040)" d="M218 136c66 0 108 -36 108 -89c0 -89 -113 -183 -218 -183c-66 0 -108 36 -108 89c0 89 113 183 218 183z" fill="currentColor"/>
</g>
<g transform="translate(58.2831, 12.7278)">
<rect x="-0.0650" y="-2.1692" width="0.1300" height="3.4830" ry="0.0400" fill="currentColor"/>
</g>
<g transform="translate(91.8408, 18.3140)">
<text font-family="serif" font-style="italic" font-size="1.7461" text-anchor="start" fill="currentColor">
<tspan>7</tspan>
</text>
</g>
<g transform="translate(58.9675, 14.2278)">
<path transform="scale(0.0040, -0.0040)" d="M218 136c66 0 108 -36 108 -89c0 -89 -113 -183 -218 -183c-66 0 -108 36 -108 89c0 89 113 183 218 183z" fill="currentColor"/>
</g>
<g transform="translate(60.2067, 12.7278)">
<rect x="-0.0650" y="-2.2287" width="0.1300" height="3.5425" ry="0.0400" fill="currentColor"/>
</g>
<g transform="translate(86.4489, 17.8777)">
<line stroke-linejoin="round" stroke-linecap="round" stroke-width="0.1600" stroke="currentColor" x1="11.8715" y1="-0.2677" x2="11.8715" y2="-0.9677"/>
</g>
<g transform="translate(86.4489, 17.8777)">
<line stroke-linejoin="round" stroke-linecap="round" stroke-width="0.1600" stroke="currentColor" x1="-0.1999" y1="0.0045" x2="-0.1999" y2="-0.6955"/>
</g>
<g transform="translate(86.4489, 17.8777)">
<line stroke-linejoin="round" stroke-linecap="round" stroke-width="0.1600" stroke="currentColor" x1="11.8715" y1="-0.2677" x2="6.8794" y2="-0.1551"/>
</g>
<g transform="translate(86.4489, 17.8777)">
<line stroke-linejoin="round" stroke-linecap="round" stroke-width="0.1600" stroke="currentColor" x1="-0.1999" y1="0.0045" x2="4.9921" y2="-0.1126"/>
</g>
<g transform="translate(61.1432, 14.2278)">
<path transform="scale(0.0040, -0.0040)" d="M218 136c66 0 108 -36 108 -89c0 -89 -113 -183 -218 -183c-66 0 -108 36 -108 89c0 89 113 183 218 183z" fill="currentColor"/>
</g>
<g transform="translate(62.3824, 12.7278)">
<rect x="-0.0650" y="-2.2960" width="0.1300" height="3.6098" ry="0.0400" fill="currentColor"/>
</g>
<g transform="translate(84.2732, 12.7278)">
<path stroke-width="0.0800" stroke-linejoin="round" stroke-linecap="round" stroke="currentColor" fill="currentColor" d="M1.6392 -1.2250C1.9142 -1.5888 2.3528 -1.5888 2.6278 -1.2250L2.6278 -1.2250C2.3528 -1.4688 1.9142 -1.4688 1.6392 -1.2250z"/>
</g>
<g transform="translate(63.3189, 14.2278)">
<path transform="scale(0.0040, -0.0040)" d="M218 136c66 0 108 -36 108 -89c0 -89 -113 -183 -218 -183c-66 0 -108 36 -108 89c0 89 113 183 218 183z" fill="currentColor"/>
</g>
<g transform="translate(64.5581, 12.7278)">
<rect x="-0.0650" y="-2.3633" width="0.1300" height="3.6771" ry="0.0400" fill="currentColor"/>
</g>
<g transform="translate(65.4946, 13.7278)">
<path transform="scale(0.0040, -0.0040)" d="M218 136c66 0 108 -36 108 -89c0 -89 -113 -183 -218 -183c-66 0 -108 36 -108 89c0 89 113 183 218 183z" fill="currentColor"/>
</g>
<g transform="translate(66.7338, 12.7278)">
<rect x="-0.0650" y="-2.4307" width="0.1300" height="3.2445" ry="0.0400" fill="currentColor"/>
</g>
<g transform="translate(82.0975, 12.7278)">
<path stroke-width="0.0800" stroke-linejoin="round" stroke-linecap="round" stroke="currentColor" fill="currentColor" d="M0.8521 1.2250C1.2974 1.7615 2.1825 1.7615 2.6278 1.2250L2.6278 1.2250C2.1825 1.6415 1.2974 1.6415 0.8521 1.2250z"/>
</g>
<g transform="translate(67.6703, 13.7278)">
<path transform="scale(0.0040, -0.0040)" d="M218 136c66 0 108 -36 108 -89c0 -89 -113 -183 -218 -183c-66 0 -108 36 -108 89c0 89 113 183 218 183z" fill="currentColor"/>
</g>
<g transform="translate(68.9095, 12.7278)">
<rect x="-0.0650" y="-2.4980" width="0.1300" height="3.3118" ry="0.0400" fill="currentColor"/>
</g>
<g transform="translate(69.8460, 13.7278)">
<path transform="scale(0.0040, -0.0040)" d="M218 136c66 0 108 -36 108 -89c0 -89 -113 -183 -218 -183c-66 0 -108 36 -108 89c0 89 113 183 218 183z" fill="currentColor"/>
</g>
<g transform="translate(71.0852, 12.7278)">
<rect x="-0.0650" y="-3.5000" width="0.1300" height="4.3138" ry="0.0400" fill="currentColor"/>
</g>
<g transform="translate(79.9218, 12.7278)">
<path stroke-width="0.0800" stroke-linejoin="round" stroke-linecap="round" stroke="currentColor" fill="currentColor" d="M0.8521 1.2250C1.2974 1.7615 2.1825 1.7615 2.6278 1.2250L2.6278 1.2250C2.1825 1.6415 1.2974 1.6415 0.8521 1.2250z"/>
</g>
<g transform="translate(72.7082, 13.2278)">
<path transform="scale(0.0040, -0.0040)" d="M218 136c66 0 108 -36 108 -89c0 -89 -113 -183 -218 -183c-66 0 -108 36 -108 89c0 89 113 183 218 183z" fill="currentColor"/>
</g>
<g transform="translate(73.9474, 12.7278)">
<rect x="-0.0650" y="-3.5000" width="0.1300" height="3.8138" ry="0.0400" fill="currentColor"/>
</g>
<g transform="translate(75.5704, 13.2278)">
<path transform="scale(0.0040, -0.0040)" d="M218 136c66 0 108 -36 108 -89c0 -89 -113 -183 -218 -183c-66 0 -108 36 -108 89c0 89 113 183 218 183z" fill="currentColor"/>
</g>
<g transform="translate(76.8096, 12.7278)">
<rect x="-0.0650" y="-3.5000" width="0.1300" height="3.8138" ry="0.0400" fill="currentColor"/>
</g>
<g transform="translate(75.5704, 12.7278)">
<path stroke-width="0.0800" stroke-linejoin="round" stroke-linecap="round" stroke="currentColor" fill="currentColor" d="M0.8521 1.2250C1.2974 1.7615 2.1825 1.7615 2.6278 1.2250L2.6278 1.2250C2.1825 1.6415 1.2974 1.6415 0.8521 1.2250z"/>
</g>
<g transform="translate(77.7461, 13.2278)">
<path transform="scale(0.0040, -0.0040)" d="M218 136c66 0 108 -36 108 -89c0 -89 -113 -183 -218 -183c-66 0 -108 36 -108 89c0 89 113 183 218 183z" fill="currentColor"/>
</g>
<g transform="translate(78.9853, 12.7278)">
<rect x="-0.0650" y="-3.5000" width="0.1300" height="3.8138" ry="0.0400" fill="currentColor"/>
</g>
<g transform="translate(79.9218, 12.7278)">
<path transform="scale(0.0040, -0.0040)" d="M218 136c66 0 108 -36 108 -89c0 -89 -113 -183 -218 -183c-66 0 -108 36 -108 89c0 89 113 183 218 183z" fill="currentColor"/>
</g>
<g transform="translate(81.1610, 12.7278)">
<rect x="-0.0650" y="-3.5000" width="0.1300" height="3.3138" ry="0.0400" fill="currentColor"/>
</g>
<g transform="translate(80.7172, 8.4556)">
<text font-family="serif" font-style="italic" font-size="1.7461" text-anchor="start" fill="currentColor">
<tspan>5</tspan>
</text>
</g>
<g transform="translate(82.0975, 12.7278)">
<path transform="scale(0.0040, -0.0040)" d="M218 136c66 0 108 -36 108 -89c0 -89 -113 -183 -218 -183c-66 0 -108 36 -108 89c0 89 113 183 218 183z" fill="currentColor"/>
</g>
<g transform="translate(83.3367, 12.7278)">
<rect x="-0.0650" y="-3.5000" width="0.1300" height="3.3138" ry="0.0400" fill="currentColor"/>
</g>
<g transform="translate(76.7446, 7.8878)">
<line stroke-linejoin="round" stroke-linecap="round" stroke-width="0.1600" stroke="currentColor" x1="9.0328" y1="0.0000" x2="9.0328" y2="0.7000"/>
</g>
<g transform="translate(76.7446, 7.8878)">
<line stroke-linejoin="round" stroke-linecap="round" stroke-width="0.1600" stroke="currentColor" x1="-0.2000" y1="-0.0000" x2="-0.2000" y2="0.7000"/>
</g>
<g transform="translate(76.7446, 7.8878)">
<line stroke-linejoin="round" stroke-linecap="round" stroke-width="0.1600" stroke="currentColor" x1="9.0328" y1="0.0000" x2="5.4603" y2="0.0000"/>
</g>
<g transform="translate(76.7446, 7.8878)">
<line stroke-linejoin="round" stroke-linecap="round" stroke-width="0.1600" stroke="currentColor" x1="-0.2000" y1="-0.0000" x2="3.5725" y2="0.0000"/>
</g>
<g transform="translate(84.2732, 12.7278)">
<path transform="scale(0.0040, -0.0040)" d="M218 136c66 0 108 -36 108 -89c0 -89 -113 -183 -218 -183c-66 0 -108 36 -108 89c0 89 113 183 218 183z" fill="currentColor"/>
</g>
<g transform="translate(85.5124, 12.7278)">
<rect x="-0.0650" y="-3.5000" width="0.1300" height="3.3138" ry="0.0400" fill="currentColor"/>
</g>
<g transform="translate(72.7082, 12.7278)">
<path stroke-width="0.0800" stroke-linejoin="round" stroke-linecap="round" stroke="currentColor" fill="currentColor" d="M0.8521 1.2250C1.4206 1.8647 2.7458 1.8647 3.3143 1.2250L3.3143 1.2250C2.7458 1.7447 1.4206 1.7447 0.8521 1.2250z"/>
</g>
<g transform="translate(86.4489, 12.7278)">
<path transform="scale(0.0040, -0.0040)" d="M218 136c66 0 108 -36 108 -89c0 -89 -113 -183 -218 -183c-66 0 -108 36 -108 89c0 89 113 183 218 183z" fill="currentColor"/>
</g>
<g transform="translate(86.5139, 12.7278)">
<rect x="-0.0650" y="0.1862" width="0.1300" height="3.6223" ry="0.0400" fill="currentColor"/>
</g>
<g transform="translate(88.3725, 12.7278)">
<path transform="scale(0.0040, -0.0040)" d="M218 136c66 0 108 -36 108 -89c0 -89 -113 -183 -218 -183c-66 0 -108 36 -108 89c0 89 113 183 218 183z" fill="currentColor"/>
</g>
<g transform="translate(88.4375, 12.7278)">
<rect x="-0.0650" y="0.1862" width="0.1300" height="3.5785" ry="0.0400" fill="currentColor"/>
</g>
<g transform="translate(46.6765, 10.9178)">
<polygon stroke-linejoin="round" stroke-linecap="round" stroke-width="0.0800" fill="currentColor" stroke="currentColor" points="22.2579 -0.8900 22.2579 -0.4900 0.0400 0.2000 0.0400 -0.2000"/>
</g>
<g transform="translate(46.6765, 11.7278)">
<polygon stroke-linejoin="round" stroke-linecap="round" stroke-width="0.0800" fill="currentColor" stroke="currentColor" points="22.2579 -0.8900 22.2579 -0.4900 0.0400 0.2000 0.0400 -0.2000"/>
</g>
<g transform="translate(46.6765, 12.5378)">
<polygon stroke-linejoin="round" stroke-linecap="round" stroke-width="0.0800" fill="currentColor" stroke="currentColor" points="22.2579 -0.8900 22.2579 -0.4900 0.0400 0.2000 0.0400 -0.2000"/>
</g>
<g transform="translate(90.2961, 12.2278)">
<path transform="scale(0.0040, -0.0040)" d="M218 136c66 0 108 -36 108 -89c0 -89 -113 -183 -218 -183c-66 0 -108 36 -108 89c0 89 113 183 218 183z" fill="currentColor"/>
</g>
<g transform="translate(90.3611, 12.7278)">
<rect x="-0.0650" y="-0.3138" width="0.1300" height="4.0346" ry="0.0400" fill="currentColor"/>
</g>
<g transform="translate(67.6703, 12.7278)">
<path stroke-width="0.0800" stroke-linejoin="round" stroke-linecap="round" stroke="currentColor" fill="currentColor" d="M0.8521 2.0000C1.2974 2.5365 2.1825 2.5365 2.6278 2.0000L2.6278 2.0000C2.1825 2.4165 1.2974 2.4165 0.8521 2.0000z"/>
</g>
<g transform="translate(92.2197, 12.2278)">
<path transform="scale(0.0040, -0.0040)" d="M218 136c66 0 108 -36 108 -89c0 -89 -113 -183 -218 -183c-66 0 -108 36 -108 89c0 89 113 183 218 183z" fill="currentColor"/>
</g>
<g transform="translate(92.2847, 12.7278)">
<rect x="-0.0650" y="-0.3138" width="0.1300" height="3.9907" ry="0.0400" fill="currentColor"/>
</g>
<g transform="translate(94.1433, 12.2278)">
<path transform="scale(0.0040, -0.0040)" d="M218 136c66 0 108 -36 108 -89c0 -89 -113 -183 -218 -183c-66 0 -108 36 -108 89c0 89 113 183 218 183z" fill="currentColor"/>
</g>
<g transform="translate(94.2083, 12.7278)">
<rect x="-0.0650" y="-0.3138" width="0.1300" height="3.9469" ry="0.0400" fill="currentColor"/>
</g>
<g transform="translate(65.4946, 12.7278)">
<path stroke-width="0.0800" stroke-linejoin="round" stroke-linecap="round" stroke="currentColor" fill="currentColor" d="M0.8521 2.0000C1.2974 2.5365 2.1825 2.5365 2.6278 2.0000L2.6278 2.0000C2.1825 2.4165 1.2974 2.4165 0.8521 2.0000z"/>
</g>
<g transform="translate(96.0669, 12.2278)">
<path transform="scale(0.0040, -0.0040)" d="M218 136c66 0 108 -36 108 -89c0 -89 -113 -183 -218 -183c-66 0 -108 36 -108 89c0 89 113 183 218 183z" fill="currentColor"/>
</g>
<g transform="translate(96.1319, 12.7278)">
<rect x="-0.0650" y="-0.3138" width="0.1300" height="3.9030" ry="0.0400" fill="currentColor"/>
</g>
<g transform="translate(97.9905, 12.2278)">
<path transform="scale(0.0040, -0.0040)" d="M218 136c66 0 108 -36 108 -89c0 -89 -113 -183 -218 -183c-66 0 -108 36 -108 89c0 89 113 183 218 183z" fill="currentColor"/>
</g>
<g transform="translate(98.0555, 12.7278)">
<rect x="-0.0650" y="-0.3138" width="0.1300" height="3.8591" ry="0.0400" fill="currentColor"/>
</g>
<g transform="translate(61.1432, 12.7278)">
<path stroke-width="0.0800" stroke-linejoin="round" stroke-linecap="round" stroke="currentColor" fill="currentColor" d="M0.8521 2.5000C1.2974 3.0365 2.1825 3.0365 2.6278 2.5000L2.6278 2.5000C2.1825 2.9165 1.2974 2.9165 0.8521 2.5000z"/>
</g>
<g transform="translate(99.9141, 12.2278)">
<path transform="scale(0.0040, -0.0040)" d="M218 136c66 0 108 -36 108 -89c0 -89 -113 -183 -218 -183c-66 0 -108 36 -108 89c0 89 113 183 218 183z" fill="currentColor"/>
</g>
<g transform="translate(99.9791, 12.7278)">
<rect x="-0.0650" y="-0.3138" width="0.1300" height="3.8153" ry="0.0400" fill="currentColor"/>
</g>
<g transform="translate(102.0898, 12.7278)">
<path transform="scale(0.0040, -0.0040)" d="M154 455c79 0 46 -98 91 -98c15 0 46 49 52 63c6 13 23 12 28 0l-216 -920c-8 -7 -18 -10 -28 -10s-19 3 -27 10l86 327c-35 -13 -71 -23 -108 -23c-47 0 -87 34 -87 79c0 40 32 72 72 72c79 0 46 -98 91 -98c17 0 54 54 59 71l39 149c-34 -12 -70 -23 -106 -23
c-47 0 -87 34 -87 79c0 40 33 72 73 72c79 0 45 -98 90 -98c16 0 52 51 56 68l40 151c-33 -12 -68 -22 -103 -22c-47 0 -87 34 -87 79c0 40 32 72 72 72z" fill="currentColor"/>
</g>
<g transform="translate(58.9675, 12.7278)">
<path stroke-width="0.0800" stroke-linejoin="round" stroke-linecap="round" stroke="currentColor" fill="currentColor" d="M0.8521 2.5000C1.2974 3.0365 2.1825 3.0365 2.6278 2.5000L2.6278 2.5000C2.1825 2.9165 1.2974 2.9165 0.8521 2.5000z"/>
</g>
<g transform="translate(104.2613, 12.7278)">
<path transform="scale(0.0040, -0.0040)" d="M154 455c79 0 46 -98 91 -98c15 0 46 49 52 63c6 13 23 12 28 0l-216 -920c-8 -7 -18 -10 -28 -10s-19 3 -27 10l86 327c-35 -13 -71 -23 -108 -23c-47 0 -87 34 -87 79c0 40 32 72 72 72c79 0 46 -98 91 -98c17 0 54 54 59 71l39 149c-34 -12 -70 -23 -106 -23
c-47 0 -87 34 -87 79c0 40 33 72 73 72c79 0 45 -98 90 -98c16 0 52 51 56 68l40 151c-33 -12 -68 -22 -103 -22c-47 0 -87 34 -87 79c0 40 32 72 72 72z" fill="currentColor"/>
</g>
<g transform="translate(106.4328, 12.7278)">
<path transform="scale(0.0040, -0.0040)" d="M154 455c79 0 46 -98 91 -98c15 0 46 49 52 63c6 13 23 12 28 0l-216 -920c-8 -7 -18 -10 -28 -10s-19 3 -27 10l86 327c-35 -13 -71 -23 -108 -23c-47 0 -87 34 -87 79c0 40 32 72 72 72c79 0 46 -98 91 -98c17 0 54 54 59 71l39 149c-34 -12 -70 -23 -106 -23
c-47 0 -87 34 -87 79c0 40 33 72 73 72c79 0 45 -98 90 -98c16 0 52 51 56 68l40 151c-33 -12 -68 -22 -103 -22c-47 0 -87 34 -87 79c0 40 32 72 72 72z" fill="currentColor"/>
</g>
<g transform="translate(64.1142, 9.5903)">
<text font-family="serif" font-style="italic" font-size="1.7461" text-anchor="start" fill="currentColor">
<tspan>5</tspan>
</text>
</g>
<g transform="translate(108.6043, 12.7278)">
<path transform="scale(0.0040, -0.0040)" d="M154 455c79 0 46 -98 91 -98c15 0 46 49 52 63c6 13 23 12 28 0l-216 -920c-8 -7 -18 -10 -28 -10s-19 3 -27 10l86 327c-35 -13 -71 -23 -108 -23c-47 0 -87 34 -87 79c0 40 32 72 72 72c79 0 46 -98 91 -98c17 0 54 54 59 71l39 149c-34 -12 -70 -23 -106 -23
c-47 0 -87 34 -87 79c0 40 33 72 73 72c79 0 45 -98 90 -98c16 0 52 51 56 68l40 151c-33 -12 -68 -22 -103 -22c-47 0 -87 34 -87 79c0 40 32 72 72 72z" fill="currentColor"/>
</g>
<g transform="translate(60.1417, 9.1571)">
<line stroke-linejoin="round" stroke-linecap="round" stroke-width="0.1600" stroke="currentColor" x1="9.0327" y1="-0.2754" x2="9.0327" y2="0.4246"/>
</g>
<g transform="translate(60.1417, 9.1571)">
<line stroke-linejoin="round" stroke-linecap="round" stroke-width="0.1600" stroke="currentColor" x1="-0.1999" y1="0.0061" x2="-0.1999" y2="0.7061"/>
</g>
<g transform="translate(60.1417, 9.1571)">
<line stroke-linejoin="round" stroke-linecap="round" stroke-width="0.1600" stroke="currentColor" x1="9.0327" y1="-0.2754" x2="5.4598" y2="-0.1665"/>
</g>
<g transform="translate(60.1417, 9.1571)">
<line stroke-linejoin="round" stroke-linecap="round" stroke-width="0.1600" stroke="currentColor" x1="-0.1999" y1="0.0061" x2="3.5729" y2="-0.1089"/>
</g>
<g transform="translate(25.7717, 12.7278)">
<path stroke-width="0.0800" stroke-linejoin="round" stroke-linecap="round" stroke="currentColor" fill="currentColor" d="M0.8521 3.7500C1.4206 4.3897 2.7458 4.3897 3.3143 3.7500L3.3143 3.7500C2.7458 4.2697 1.4206 4.2697 0.8521 3.7500z"/>
</g>
<g transform="translate(28.6339, 12.7278)">
<path stroke-width="0.0800" stroke-linejoin="round" stroke-linecap="round" stroke="currentColor" fill="currentColor" d="M0.8521 3.7500C1.3293 4.3151 2.3178 4.3151 2.7950 3.7500L2.7950 3.7500C2.3178 4.1951 1.3293 4.1951 0.8521 3.7500z"/>
</g>
<g transform="translate(32.8003, 12.7278)">
<path stroke-width="0.0800" stroke-linejoin="round" stroke-linecap="round" stroke="currentColor" fill="currentColor" d="M0.8521 3.5000C1.2256 3.9675 1.9022 3.9675 2.2756 3.5000L2.2756 3.5000C1.9022 3.8475 1.2256 3.8475 0.8521 3.5000z"/>
</g>
<g transform="translate(35.7981, 9.2913)">
<line stroke-linejoin="round" stroke-linecap="round" stroke-width="0.1600" stroke="currentColor" x1="9.0328" y1="-0.0956" x2="9.0328" y2="0.6044"/>
</g>
<g transform="translate(35.7981, 9.2913)">
<line stroke-linejoin="round" stroke-linecap="round" stroke-width="0.1600" stroke="currentColor" x1="-0.2000" y1="0.0021" x2="-0.2000" y2="0.7021"/>
</g>
<g transform="translate(35.7981, 9.2913)">
<line stroke-linejoin="round" stroke-linecap="round" stroke-width="0.1600" stroke="currentColor" x1="9.0328" y1="-0.0956" x2="5.4602" y2="-0.0578"/>
</g>
<g transform="translate(35.7981, 9.2913)">
<line stroke-linejoin="round" stroke-linecap="round" stroke-width="0.1600" stroke="currentColor" x1="-0.2000" y1="0.0021" x2="3.5726" y2="-0.0378"/>
</g>
<g transform="translate(39.7706, 9.8124)">
<text font-family="serif" font-style="italic" font-size="1.7461" text-anchor="start" fill="currentColor">
<tspan>5</tspan>
</text>
</g>
<g transform="translate(34.6239, 12.7278)">
<path stroke-width="0.0800" stroke-linejoin="round" stroke-linecap="round" stroke="currentColor" fill="currentColor" d="M0.8521 3.5000C1.2974 4.0365 2.1825 4.0365 2.6278 3.5000L2.6278 3.5000C2.1825 3.9165 1.2974 3.9165 0.8521 3.5000z"/>
</g>
<g transform="translate(36.7996, 12.7278)">
<path stroke-width="0.0800" stroke-linejoin="round" stroke-linecap="round" stroke="currentColor" fill="currentColor" d="M0.8521 3.5000C1.2974 4.0365 2.1825 4.0365 2.6278 3.5000L2.6278 3.5000C2.1825 3.9165 1.2974 3.9165 0.8521 3.5000z"/>
</g>
<g transform="translate(38.9753, 12.7278)">
<path stroke-width="0.0800" stroke-linejoin="round" stroke-linecap="round" stroke="currentColor" fill="currentColor" d="M0.8521 3.5000C1.2974 4.0365 2.1825 4.0365 2.6278 3.5000L2.6278 3.5000C2.1825 3.9165 1.2974 3.9165 0.8521 3.5000z"/>
</g>
<g transform="translate(43.3266, 12.7278)">
<path stroke-width="0.0800" stroke-linejoin="round" stroke-linecap="round" stroke="currentColor" fill="currentColor" d="M0.8521 2.7500C1.2974 3.2865 2.1825 3.2865 2.6278 2.7500L2.6278 2.7500C2.1825 3.1665 1.2974 3.1665 0.8521 2.7500z"/>
</g>
<g transform="translate(46.6765, 9.5738)">
<line stroke-linejoin="round" stroke-linecap="round" stroke-width="0.1600" stroke="currentColor" x1="11.8715" y1="-0.3633" x2="11.8715" y2="0.3367"/>
</g>
<g transform="translate(46.6765, 9.5738)">
<line stroke-linejoin="round" stroke-linecap="round" stroke-width="0.1600" stroke="currentColor" x1="-0.1999" y1="0.0061" x2="-0.1999" y2="0.7061"/>
</g>
<g transform="translate(46.6765, 9.5738)">
<line stroke-linejoin="round" stroke-linecap="round" stroke-width="0.1600" stroke="currentColor" x1="11.8715" y1="-0.3633" x2="6.8792" y2="-0.2105"/>
</g>
<g transform="translate(46.6765, 9.5738)">
<line stroke-linejoin="round" stroke-linecap="round" stroke-width="0.1600" stroke="currentColor" x1="-0.1999" y1="0.0061" x2="4.9923" y2="-0.1528"/>
</g>
<g transform="translate(52.0685, 9.9630)">
<text font-family="serif" font-style="italic" font-size="1.7461" text-anchor="start" fill="currentColor">
<tspan>7</tspan>
</text>
</g>
<g transform="translate(26.9459, 10.7278)">
<polygon stroke-linejoin="round" stroke-linecap="round" stroke-width="0.0800" fill="currentColor" stroke="currentColor" points="17.6450 -0.3900 17.6450 0.0100 0.0400 0.2000 0.0400 -0.2000"/>
</g>
<g transform="translate(26.9459, 11.6011)">
<polygon stroke-linejoin="round" stroke-linecap="round" stroke-width="0.0800" fill="currentColor" stroke="currentColor" points="17.6450 -0.3900 17.6450 0.0100 0.0400 0.2000 0.0400 -0.2000"/>
</g>
<g transform="translate(29.8081, 12.4437)">
<polygon stroke-linejoin="round" stroke-linecap="round" stroke-width="0.0800" fill="currentColor" stroke="currentColor" points="14.7828 -0.3592 14.7828 0.0408 0.0400 0.2000 0.0400 -0.2000"/>
</g>
<g transform="translate(32.1510, 13.2918)">
<polygon stroke-linejoin="round" stroke-linecap="round" stroke-width="0.0800" fill="currentColor" stroke="currentColor" points="1.9135 -0.2210 1.9135 0.1790 0.0400 0.2000 0.0400 -0.2000"/>
</g>
<g transform="translate(45.5023, 12.7278)">
<path stroke-width="0.0800" stroke-linejoin="round" stroke-linecap="round" stroke="currentColor" fill="currentColor" d="M0.8521 2.7500C1.2466 3.2384 1.9812 3.2384 2.3757 2.7500L2.3757 2.7500C1.9812 3.1184 1.2466 3.1184 0.8521 2.7500z"/>
</g>
<g transform="translate(47.4259, 12.7278)">
<path stroke-width="0.0800" stroke-linejoin="round" stroke-linecap="round" stroke="currentColor" fill="currentColor" d="M0.8521 2.7500C1.2466 3.2384 1.9812 3.2384 2.3757 2.7500L2.3757 2.7500C1.9812 3.1184 1.2466 3.1184 0.8521 2.7500z"/>
</g>
<g transform="translate(49.3495, 12.7278)">
<path stroke-width="0.0800" stroke-linejoin="round" stroke-linecap="round" stroke="currentColor" fill="currentColor" d="M0.8521 2.7500C1.2466 3.2384 1.9812 3.2384 2.3757 2.7500L2.3757 2.7500C1.9812 3.1184 1.2466 3.1184 0.8521 2.7500z"/>
</g>
<g transform="translate(51.2731, 12.7278)">
<path stroke-width="0.0800" stroke-linejoin="round" stroke-linecap="round" stroke="currentColor" fill="currentColor" d="M0.8521 2.7500C1.2466 3.2384 1.9812 3.2384 2.3757 2.7500L2.3757 2.7500C1.9812 3.1184 1.2466 3.1184 0.8521 2.7500z"/>
</g>
<g transform="translate(55.1203, 12.7278)">
<path stroke-width="0.0800" stroke-linejoin="round" stroke-linecap="round" stroke="currentColor" fill="currentColor" d="M0.8521 2.5000C1.2466 2.9884 1.9812 2.9884 2.3757 2.5000L2.3757 2.5000C1.9812 2.8684 1.2466 2.8684 0.8521 2.5000z"/>
</g>
<g transform="translate(57.0439, 12.7278)">
<path stroke-width="0.0800" stroke-linejoin="round" stroke-linecap="round" stroke="currentColor" fill="currentColor" d="M0.8521 2.5000C1.2466 2.9884 1.9812 2.9884 2.3757 2.5000L2.3757 2.5000C1.9812 2.8684 1.2466 2.8684 0.8521 2.5000z"/>
</g>
<g transform="translate(34.5530, 162.8440)">
<a xlink:href="https://lilypond.org/">
<rect x="0.0000" y="-0.4748" width="50.3955" height="2.0024" fill="none" stroke="none" stroke-width="0.0"/>
</a>
</g>
<g transform="translate(34.5530, 162.8440)">
<text font-family="serif" font-size="2.2001" text-anchor="start" fill="currentColor">
<tspan>Music engraving by LilyPond 2.25.7—www.lilypond.org</tspan>
</text>
</g>
</svg>
