<svg xmlns="http://www.w3.org/2000/svg" xmlns:xlink="http://www.w3.org/1999/xlink" version="1.2" width="210.00mm" height="297.00mm" viewBox="0 0 119.5016 169.0094">
<style type="text/css">
<![CDATA[
tspan { white-space: pre; }
]]>
</style>
<!-- Page: 1/1 -->
<g transform="translate(5.6906, 11.8632)">
<line stroke-linejoin="round" stroke-linecap="round" stroke-width="0.1000" stroke="currentColor" x1="0.0500" y1="0" x2="44.9721" y2="0"/>
</g>
<g transform="translate(5.6906, 10.8632)">
<line stroke-linejoin="round" stroke-linecap="round" stroke-width="0.1000" stroke="currentColor" x1="0.0500" y1="0" x2="44.9721" y2="0"/>
</g>
<g transform="translate(5.6906, 9.8632)">
<line stroke-linejoin="round" stroke-linecap="round" stroke-width="0.1000" stroke="currentColor" x1="0.0500" y1="0" x2="44.9721" y2="0"/>
</g>
<g transform="translate(5.6906, 8.8632)">
<line stroke-linejoin="round" stroke-linecap="round" stroke-width="0.1000" stroke="currentColor" x1="0.0500" y1="0" x2="44.9721" y2="0"/>
</g>
<g transform="translate(5.6906, 7.8632)">
<line stroke-linejoin="round" stroke-linecap="round" stroke-width="0.1000" stroke="currentColor" x1="0.0500" y1="0" x2="44.9721" y2="0"/>
</g>
<g transform="translate(5.6906, 12.8632)">
<rect x="36.1976" y="-0.1000" width="1.9563" height="0.2000" ry="0.1000" fill="currentColor"/>
</g>
<g transform="translate(50.1127, 9.8632)">
<rect x="0.0000" y="-2.0000" width="0.6000" height="4.0000" ry="0.0000" fill="currentColor"/>
</g>
<g transform="translate(49.6227, 9.8632)">
<rect x="0.0000" y="-2.0000" width="0.1900" height="4.0000" ry="0.0000" fill="currentColor"/>
</g>
<g transform="translate(17.7869, 9.8632)">
<path transform="scale(0.0040, -0.0040)" d="M143 41c-1 33 -22 63 -53 63c-29 0 -43 -34 -43 -67c0 -59 48 -101 93 -139c3 22 4 44 4 66v11zM185 -138c0 -14 -10 -25 -23 -25c-21 0 -30 25 -45 38c-61 52 -147 89 -147 169c0 54 37 102 89 102c33 0 66 -13 91 -34l-7 345c8 5 18 8 27 8s19 -3 27 -8z" fill="currentColor"/>
</g>
<g transform="translate(14.0448, 9.8632)">
<path transform="scale(0.0040, -0.0040)" d="M27 41l-1 -66v-11c0 -22 1 -44 4 -66c45 38 93 80 93 139c0 33 -14 67 -43 67c-31 0 -52 -30 -53 -63zM-15 -138l-12 595c8 5 18 8 27 8s19 -3 27 -8l-7 -345c25 21 58 34 91 34c52 0 89 -48 89 -102c0 -80 -86 -117 -147 -169c-15 -13 -24 -38 -45 -38
c-13 0 -23 11 -23 25z" fill="currentColor"/>
</g>
<g transform="translate(18.8990, 9.8632)">
<path transform="scale(0.0040, -0.0040)" d="M218 136c55 0 108 -28 108 -89c0 -71 -55 -121 -102 -149c-35 -21 -75 -34 -116 -34c-55 0 -108 28 -108 89c0 71 55 121 102 149c35 21 75 34 116 34z" fill="currentColor"/>
</g>
<g transform="translate(44.7685, 11.8632)">
<path transform="scale(0.0040, -0.0040)" d="M27 41l-1 -66v-11c0 -22 1 -44 4 -66c45 38 93 80 93 139c0 33 -14 67 -43 67c-31 0 -52 -30 -53 -63zM-15 -138l-12 595c8 5 18 8 27 8s19 -3 27 -8l-7 -345c25 21 58 34 91 34c52 0 89 -48 89 -102c0 -80 -86 -117 -147 -169c-15 -13 -24 -38 -45 -38
c-13 0 -23 11 -23 25z" fill="currentColor"/>
</g>
<g transform="translate(15.1948, 9.8632)">
<path transform="scale(0.0040, -0.0040)" d="M218 136c55 0 108 -28 108 -89c0 -71 -55 -121 -102 -149c-35 -21 -75 -34 -116 -34c-55 0 -108 28 -108 89c0 71 55 121 102 149c35 21 75 34 116 34z" fill="currentColor"/>
</g>
<g transform="translate(30.0116, 9.8632)">
<path transform="scale(0.0040, -0.0040)" d="M218 136c55 0 108 -28 108 -89c0 -71 -55 -121 -102 -149c-35 -21 -75 -34 -116 -34c-55 0 -108 28 -108 89c0 71 55 121 102 149c35 21 75 34 116 34z" fill="currentColor"/>
</g>
<g transform="translate(33.7158, 9.8632)">
<path transform="scale(0.0040, -0.0040)" d="M218 136c55 0 108 -28 108 -89c0 -71 -55 -121 -102 -149c-35 -21 -75 -34 -116 -34c-55 0 -108 28 -108 89c0 71 55 121 102 149c35 21 75 34 116 34z" fill="currentColor"/>
</g>
<g transform="translate(28.8995, 9.8632)">
<path transform="scale(0.0040, -0.0040)" d="M143 41c-1 33 -22 63 -53 63c-29 0 -43 -34 -43 -67c0 -59 48 -101 93 -139c3 22 4 44 4 66v11zM185 -138c0 -14 -10 -25 -23 -25c-21 0 -30 25 -45 38c-61 52 -147 89 -147 169c0 54 37 102 89 102c33 0 66 -13 91 -34l-7 345c8 5 18 8 27 8s19 -3 27 -8z" fill="currentColor"/>
</g>
<g transform="translate(26.3074, 10.8632)">
<path transform="scale(0.0040, -0.0040)" d="M218 136c55 0 108 -28 108 -89c0 -71 -55 -121 -102 -149c-35 -21 -75 -34 -116 -34c-55 0 -108 28 -108 89c0 71 55 121 102 149c35 21 75 34 116 34z" fill="currentColor"/>
</g>
<g transform="translate(21.1532, 11.3632)">
<path transform="scale(0.0040, -0.0040)" d="M216 -312c0 -10 -8 -19 -18 -19s-19 9 -19 19v145l-83 -31v-158c0 -10 -9 -19 -19 -19s-18 9 -18 19v145l-32 -12c-2 -1 -5 -1 -7 -1c-11 0 -20 9 -20 20v60c0 8 5 16 13 19l46 16v160l-32 -11c-2 -1 -5 -1 -7 -1c-11 0 -20 9 -20 20v60c0 8 5 15 13 18l46 17v158
c0 10 8 19 18 19s19 -9 19 -19v-145l83 31v158c0 10 9 19 19 19s18 -9 18 -19v-145l32 12c2 1 5 1 7 1c11 0 20 -9 20 -20v-60c0 -8 -5 -16 -13 -19l-46 -16v-160l32 11c2 1 5 1 7 1c11 0 20 -9 20 -20v-60c0 -8 -5 -15 -13 -18l-46 -17v-158zM96 65v-160l83 30v160z" fill="currentColor"/>
</g>
<g transform="translate(22.6032, 11.3632)">
<path transform="scale(0.0040, -0.0040)" d="M218 136c55 0 108 -28 108 -89c0 -71 -55 -121 -102 -149c-35 -21 -75 -34 -116 -34c-55 0 -108 28 -108 89c0 71 55 121 102 149c35 21 75 34 116 34z" fill="currentColor"/>
</g>
<g transform="translate(37.1700, 12.3632)">
<path transform="scale(0.0040, -0.0040)" d="M218 136c55 0 108 -28 108 -89c0 -71 -55 -121 -102 -149c-35 -21 -75 -34 -116 -34c-55 0 -108 28 -108 89c0 71 55 121 102 149c35 21 75 34 116 34z" fill="currentColor"/>
</g>
<g transform="translate(32.6658, 9.8632)">
<path transform="scale(0.0040, -0.0040)" d="M106 -314c0 -10 -8 -19 -18 -19s-19 9 -19 19v119l-39 -22c-3 -2 -7 -3 -10 -3c-10 0 -20 8 -20 20v60c0 7 4 14 10 18l59 33v156l-39 -22c-3 -2 -7 -2 -10 -2c-10 0 -20 8 -20 20v60c0 7 4 13 10 17l59 34v140c0 10 9 19 19 19s18 -9 18 -19v-119l39 22c3 2 7 3 10 3
c10 0 20 -8 20 -20v-60c0 -7 -4 -14 -10 -18l-59 -33v-156l39 22c3 2 7 2 10 2c10 0 20 -8 20 -20v-60c0 -7 -4 -13 -10 -17l-59 -34v-140z" fill="currentColor"/>
</g>
<g transform="translate(6.4906, 10.8632)">
<path transform="scale(0.0040, -0.0040)" d="M266 -635h-6c-108 0 -195 88 -195 197c0 58 53 103 112 103c54 0 95 -47 95 -103c0 -52 -43 -95 -95 -95c-11 0 -21 2 -31 6c26 -39 68 -65 117 -65h4zM461 -203c68 24 113 95 113 164c0 90 -66 179 -173 190c24 -116 46 -231 60 -354zM74 28c0 -135 129 -247 264 -247
c28 0 55 2 82 6c-14 127 -37 245 -63 364c-79 -8 -124 -61 -124 -119c0 -44 25 -91 81 -123c5 -5 7 -10 7 -15c0 -11 -10 -22 -22 -22c-3 0 -6 1 -9 2c-80 43 -117 115 -117 185c0 88 58 174 160 197c-14 58 -29 117 -46 175c-107 -121 -213 -243 -213 -403zM335 -262
c-188 0 -333 172 -333 374c0 177 131 306 248 441c-19 62 -37 125 -45 190c-6 52 -7 104 -7 156c0 115 55 224 149 292c6 5 14 5 20 0c71 -84 133 -245 133 -358c0 -143 -86 -255 -180 -364c21 -68 39 -138 56 -207c4 0 9 1 13 1c155 0 256 -128 256 -261
c0 -76 -33 -154 -107 -210c-22 -17 -47 -28 -73 -36c3 -35 5 -70 5 -105c0 -19 -1 -39 -2 -58c-7 -119 -88 -225 -202 -228l1 43c93 2 153 92 159 191c1 18 2 37 2 55c0 31 -1 61 -4 92c-29 -5 -58 -8 -89 -8zM428 916c0 55 -4 79 -20 129c-99 -48 -162 -149 -162 -259
c0 -74 18 -133 36 -194c80 97 146 198 146 324z" fill="currentColor"/>
</g>
<g transform="translate(11.4906, 5.4132)">
<text font-family="serif" font-weight="bold" font-size="2.2001" text-anchor="start" fill="currentColor">
<tspan>Q</tspan>
</text>
</g>
<g transform="translate(13.7977, 5.4132)">
<text font-family="serif" font-size="2.2001" text-anchor="start" fill="currentColor">
<tspan>=</tspan>
</text>
</g>
<g transform="translate(15.6269, 5.4132)">
<text font-family="serif" font-size="2.2001" text-anchor="start" fill="currentColor">
<tspan>r</tspan>
</text>
</g>
<g transform="translate(16.3439, 6.1632)">
<text font-family="serif" font-size="1.5555" text-anchor="start" fill="currentColor">
<tspan>1</tspan>
</text>
</g>
<g transform="translate(17.1292, 5.4132)">
<text font-family="serif" font-weight="bold" font-size="2.2001" text-anchor="start" fill="currentColor">
<tspan>J</tspan>
</text>
</g>
<g transform="translate(18.8218, 5.4132)">
<text font-family="serif" font-size="2.2001" text-anchor="start" fill="currentColor">
<tspan>+</tspan>
</text>
</g>
<g transform="translate(20.6509, 5.4132)">
<text font-family="serif" font-size="2.2001" text-anchor="start" fill="currentColor">
<tspan>PC&lt;bqs d c ef></tspan>
</text>
</g>
<g transform="translate(11.4906, 10.8632)">
<path transform="scale(0.0040, -0.0040)" d="M218 136c55 0 108 -28 108 -89c0 -71 -55 -121 -102 -149c-35 -21 -75 -34 -116 -34c-55 0 -108 28 -108 89c0 71 55 121 102 149c35 21 75 34 116 34z" fill="currentColor"/>
</g>
<g transform="translate(45.9185, 11.8632)">
<path transform="scale(0.0040, -0.0040)" d="M218 136c55 0 108 -28 108 -89c0 -71 -55 -121 -102 -149c-35 -21 -75 -34 -116 -34c-55 0 -108 28 -108 89c0 71 55 121 102 149c35 21 75 34 116 34z" fill="currentColor"/>
</g>
<g transform="translate(42.2142, 12.8632)">
<path transform="scale(0.0040, -0.0040)" d="M218 136c55 0 108 -28 108 -89c0 -71 -55 -121 -102 -149c-35 -21 -75 -34 -116 -34c-55 0 -108 28 -108 89c0 71 55 121 102 149c35 21 75 34 116 34z" fill="currentColor"/>
</g>
</svg>
